require('v1/midi')

transport = {
  "bpm": 300
}

parts = [
  [
    {
      "time": "0i",
      "midiNote": 35,
      "noteName": "B1",
      "velocity": 0.8661417322834646,
      "duration": "144i"
    },
    {
      "time": "0i",
      "midiNote": 57,
      "noteName": "A3",
      "velocity": 0.8661417322834646,
      "duration": "142i"
    },
    {
      "time": "0i",
      "midiNote": 35,
      "noteName": "B1",
      "velocity": 0.7244094488188977,
      "duration": "142i"
    },
    {
      "time": "0i",
      "midiNote": 59,
      "noteName": "B3",
      "velocity": 0.8661417322834646,
      "duration": "48i"
    },
    {
      "time": "0i",
      "midiNote": 59,
      "noteName": "B3",
      "velocity": 0.5905511811023622,
      "duration": "48i"
    },
    {
      "time": "144i",
      "midiNote": 59,
      "noteName": "B3",
      "velocity": 1,
      "duration": "142i"
    },
    {
      "time": "144i",
      "midiNote": 35,
      "noteName": "B1",
      "velocity": 0.7244094488188977,
      "duration": "144i"
    },
    {
      "time": "144i",
      "midiNote": 59,
      "noteName": "B3",
      "velocity": 0.8661417322834646,
      "duration": "48i"
    },
    {
      "time": "144i",
      "midiNote": 59,
      "noteName": "B3",
      "velocity": 0.5905511811023622,
      "duration": "48i"
    },
    {
      "time": "288i",
      "midiNote": 33,
      "noteName": "A1",
      "velocity": 0.7244094488188977,
      "duration": "96i"
    },
    {
      "time": "288i",
      "midiNote": 59,
      "noteName": "B3",
      "velocity": 0.8661417322834646,
      "duration": "32i"
    },
    {
      "time": "288i",
      "midiNote": 59,
      "noteName": "B3",
      "velocity": 0.5905511811023622,
      "duration": "32i"
    },
    {
      "time": "384i",
      "midiNote": 59,
      "noteName": "B3",
      "velocity": 1,
      "duration": "142i"
    },
    {
      "time": "384i",
      "midiNote": 35,
      "noteName": "B1",
      "velocity": 0.7244094488188977,
      "duration": "144i"
    },
    {
      "time": "384i",
      "midiNote": 60,
      "noteName": "C4",
      "velocity": 0.8661417322834646,
      "duration": "48i"
    },
    {
      "time": "384i",
      "midiNote": 60,
      "noteName": "C4",
      "velocity": 0.5905511811023622,
      "duration": "48i"
    },
    {
      "time": "528i",
      "midiNote": 59,
      "noteName": "B3",
      "velocity": 1,
      "duration": "160i"
    },
    {
      "time": "528i",
      "midiNote": 35,
      "noteName": "B1",
      "velocity": 0.7244094488188977,
      "duration": "144i"
    },
    {
      "time": "528i",
      "midiNote": 60,
      "noteName": "C4",
      "velocity": 0.8661417322834646,
      "duration": "48i"
    },
    {
      "time": "528i",
      "midiNote": 60,
      "noteName": "C4",
      "velocity": 0.5905511811023622,
      "duration": "48i"
    },
    {
      "time": "672i",
      "midiNote": 33,
      "noteName": "A1",
      "velocity": 0.7244094488188977,
      "duration": "96i"
    },
    {
      "time": "672i",
      "midiNote": 60,
      "noteName": "C4",
      "velocity": 0.8661417322834646,
      "duration": "32i"
    },
    {
      "time": "672i",
      "midiNote": 60,
      "noteName": "C4",
      "velocity": 0.5905511811023622,
      "duration": "32i"
    },
    {
      "time": "768i",
      "midiNote": 35,
      "noteName": "B1",
      "velocity": 0.7244094488188977,
      "duration": "144i"
    },
    {
      "time": "768i",
      "midiNote": 61,
      "noteName": "C#4",
      "velocity": 0.8661417322834646,
      "duration": "48i"
    },
    {
      "time": "768i",
      "midiNote": 61,
      "noteName": "C#4",
      "velocity": 0.5905511811023622,
      "duration": "48i"
    },
    {
      "time": "912i",
      "midiNote": 35,
      "noteName": "B1",
      "velocity": 0.7244094488188977,
      "duration": "144i"
    },
    {
      "time": "912i",
      "midiNote": 61,
      "noteName": "C#4",
      "velocity": 0.8661417322834646,
      "duration": "48i"
    },
    {
      "time": "912i",
      "midiNote": 61,
      "noteName": "C#4",
      "velocity": 0.5905511811023622,
      "duration": "48i"
    },
    {
      "time": "960i",
      "midiNote": 59,
      "noteName": "B3",
      "velocity": 1,
      "duration": "160i"
    },
    {
      "time": "1056i",
      "midiNote": 33,
      "noteName": "A1",
      "velocity": 0.7244094488188977,
      "duration": "96i"
    },
    {
      "time": "1056i",
      "midiNote": 61,
      "noteName": "C#4",
      "velocity": 0.8661417322834646,
      "duration": "32i"
    },
    {
      "time": "1056i",
      "midiNote": 61,
      "noteName": "C#4",
      "velocity": 0.5905511811023622,
      "duration": "32i"
    },
    {
      "time": "1152i",
      "midiNote": 35,
      "noteName": "B1",
      "velocity": 0.7244094488188977,
      "duration": "96i"
    },
    {
      "time": "1152i",
      "midiNote": 62,
      "noteName": "D4",
      "velocity": 0.8661417322834646,
      "duration": "48i"
    },
    {
      "time": "1152i",
      "midiNote": 62,
      "noteName": "D4",
      "velocity": 0.5905511811023622,
      "duration": "48i"
    },
    {
      "time": "1248i",
      "midiNote": 33,
      "noteName": "A1",
      "velocity": 0.7244094488188977,
      "duration": "96i"
    },
    {
      "time": "1296i",
      "midiNote": 62,
      "noteName": "D4",
      "velocity": 0.8661417322834646,
      "duration": "48i"
    },
    {
      "time": "1296i",
      "midiNote": 62,
      "noteName": "D4",
      "velocity": 0.5905511811023622,
      "duration": "48i"
    },
    {
      "time": "1344i",
      "midiNote": 59,
      "noteName": "B3",
      "velocity": 1,
      "duration": "160i"
    },
    {
      "time": "1344i",
      "midiNote": 35,
      "noteName": "B1",
      "velocity": 0.7244094488188977,
      "duration": "48i"
    },
    {
      "time": "1392i",
      "midiNote": 36,
      "noteName": "C2",
      "velocity": 0.7244094488188977,
      "duration": "48i"
    },
    {
      "time": "1440i",
      "midiNote": 37,
      "noteName": "C#2",
      "velocity": 0.7244094488188977,
      "duration": "96i"
    },
    {
      "time": "1440i",
      "midiNote": 62,
      "noteName": "D4",
      "velocity": 0.8661417322834646,
      "duration": "32i"
    },
    {
      "time": "1440i",
      "midiNote": 62,
      "noteName": "D4",
      "velocity": 0.5905511811023622,
      "duration": "32i"
    },
    {
      "time": "1536i",
      "midiNote": 35,
      "noteName": "B1",
      "velocity": 0.7244094488188977,
      "duration": "144i"
    },
    {
      "time": "1536i",
      "midiNote": 63,
      "noteName": "D#4",
      "velocity": 0.8661417322834646,
      "duration": "48i"
    },
    {
      "time": "1536i",
      "midiNote": 63,
      "noteName": "D#4",
      "velocity": 0.5905511811023622,
      "duration": "48i"
    },
    {
      "time": "1680i",
      "midiNote": 59,
      "noteName": "B3",
      "velocity": 1,
      "duration": "142i"
    },
    {
      "time": "1680i",
      "midiNote": 35,
      "noteName": "B1",
      "velocity": 0.7244094488188977,
      "duration": "144i"
    },
    {
      "time": "1680i",
      "midiNote": 63,
      "noteName": "D#4",
      "velocity": 0.8661417322834646,
      "duration": "48i"
    },
    {
      "time": "1680i",
      "midiNote": 63,
      "noteName": "D#4",
      "velocity": 0.5905511811023622,
      "duration": "48i"
    },
    {
      "time": "1824i",
      "midiNote": 33,
      "noteName": "A1",
      "velocity": 0.7244094488188977,
      "duration": "96i"
    },
    {
      "time": "1824i",
      "midiNote": 63,
      "noteName": "D#4",
      "velocity": 0.8661417322834646,
      "duration": "32i"
    },
    {
      "time": "1824i",
      "midiNote": 63,
      "noteName": "D#4",
      "velocity": 0.5905511811023622,
      "duration": "32i"
    },
    {
      "time": "1920i",
      "midiNote": 59,
      "noteName": "B3",
      "velocity": 1,
      "duration": "142i"
    },
    {
      "time": "1920i",
      "midiNote": 35,
      "noteName": "B1",
      "velocity": 0.7244094488188977,
      "duration": "144i"
    },
    {
      "time": "1920i",
      "midiNote": 64,
      "noteName": "E4",
      "velocity": 0.8661417322834646,
      "duration": "48i"
    },
    {
      "time": "1920i",
      "midiNote": 64,
      "noteName": "E4",
      "velocity": 0.5905511811023622,
      "duration": "48i"
    },
    {
      "time": "2064i",
      "midiNote": 59,
      "noteName": "B3",
      "velocity": 1,
      "duration": "160i"
    },
    {
      "time": "2064i",
      "midiNote": 35,
      "noteName": "B1",
      "velocity": 0.7244094488188977,
      "duration": "144i"
    },
    {
      "time": "2064i",
      "midiNote": 64,
      "noteName": "E4",
      "velocity": 0.8661417322834646,
      "duration": "48i"
    },
    {
      "time": "2064i",
      "midiNote": 64,
      "noteName": "E4",
      "velocity": 0.5905511811023622,
      "duration": "48i"
    },
    {
      "time": "2208i",
      "midiNote": 33,
      "noteName": "A1",
      "velocity": 0.7244094488188977,
      "duration": "96i"
    },
    {
      "time": "2208i",
      "midiNote": 64,
      "noteName": "E4",
      "velocity": 0.8661417322834646,
      "duration": "32i"
    },
    {
      "time": "2208i",
      "midiNote": 64,
      "noteName": "E4",
      "velocity": 0.5905511811023622,
      "duration": "32i"
    },
    {
      "time": "2304i",
      "midiNote": 35,
      "noteName": "B1",
      "velocity": 0.7244094488188977,
      "duration": "144i"
    },
    {
      "time": "2304i",
      "midiNote": 65,
      "noteName": "F4",
      "velocity": 0.8661417322834646,
      "duration": "48i"
    },
    {
      "time": "2304i",
      "midiNote": 65,
      "noteName": "F4",
      "velocity": 0.5905511811023622,
      "duration": "48i"
    },
    {
      "time": "2448i",
      "midiNote": 35,
      "noteName": "B1",
      "velocity": 0.7244094488188977,
      "duration": "144i"
    },
    {
      "time": "2448i",
      "midiNote": 65,
      "noteName": "F4",
      "velocity": 0.8661417322834646,
      "duration": "48i"
    },
    {
      "time": "2448i",
      "midiNote": 65,
      "noteName": "F4",
      "velocity": 0.5905511811023622,
      "duration": "48i"
    },
    {
      "time": "2496i",
      "midiNote": 59,
      "noteName": "B3",
      "velocity": 1,
      "duration": "160i"
    },
    {
      "time": "2592i",
      "midiNote": 33,
      "noteName": "A1",
      "velocity": 0.7244094488188977,
      "duration": "96i"
    },
    {
      "time": "2592i",
      "midiNote": 65,
      "noteName": "F4",
      "velocity": 0.8661417322834646,
      "duration": "32i"
    },
    {
      "time": "2592i",
      "midiNote": 65,
      "noteName": "F4",
      "velocity": 0.5905511811023622,
      "duration": "32i"
    },
    {
      "time": "2688i",
      "midiNote": 35,
      "noteName": "B1",
      "velocity": 0.7244094488188977,
      "duration": "96i"
    },
    {
      "time": "2688i",
      "midiNote": 66,
      "noteName": "F#4",
      "velocity": 0.8661417322834646,
      "duration": "48i"
    },
    {
      "time": "2688i",
      "midiNote": 66,
      "noteName": "F#4",
      "velocity": 0.5905511811023622,
      "duration": "48i"
    },
    {
      "time": "2784i",
      "midiNote": 33,
      "noteName": "A1",
      "velocity": 0.7244094488188977,
      "duration": "96i"
    },
    {
      "time": "2832i",
      "midiNote": 66,
      "noteName": "F#4",
      "velocity": 0.8661417322834646,
      "duration": "48i"
    },
    {
      "time": "2832i",
      "midiNote": 66,
      "noteName": "F#4",
      "velocity": 0.5905511811023622,
      "duration": "48i"
    },
    {
      "time": "2880i",
      "midiNote": 59,
      "noteName": "B3",
      "velocity": 1,
      "duration": "160i"
    },
    {
      "time": "2880i",
      "midiNote": 35,
      "noteName": "B1",
      "velocity": 0.7244094488188977,
      "duration": "48i"
    },
    {
      "time": "2928i",
      "midiNote": 36,
      "noteName": "C2",
      "velocity": 0.7244094488188977,
      "duration": "48i"
    },
    {
      "time": "2976i",
      "midiNote": 37,
      "noteName": "C#2",
      "velocity": 0.7244094488188977,
      "duration": "96i"
    },
    {
      "time": "2976i",
      "midiNote": 66,
      "noteName": "F#4",
      "velocity": 0.8661417322834646,
      "duration": "32i"
    },
    {
      "time": "2976i",
      "midiNote": 66,
      "noteName": "F#4",
      "velocity": 0.5905511811023622,
      "duration": "32i"
    },
    {
      "time": "3072i",
      "midiNote": 35,
      "noteName": "B1",
      "velocity": 0.7244094488188977,
      "duration": "144i"
    },
    {
      "time": "3072i",
      "midiNote": 67,
      "noteName": "G4",
      "velocity": 0.8661417322834646,
      "duration": "48i"
    },
    {
      "time": "3072i",
      "midiNote": 67,
      "noteName": "G4",
      "velocity": 0.5905511811023622,
      "duration": "48i"
    },
    {
      "time": "3216i",
      "midiNote": 59,
      "noteName": "B3",
      "velocity": 1,
      "duration": "142i"
    },
    {
      "time": "3216i",
      "midiNote": 35,
      "noteName": "B1",
      "velocity": 0.7244094488188977,
      "duration": "144i"
    },
    {
      "time": "3216i",
      "midiNote": 67,
      "noteName": "G4",
      "velocity": 0.8661417322834646,
      "duration": "48i"
    },
    {
      "time": "3216i",
      "midiNote": 67,
      "noteName": "G4",
      "velocity": 0.5905511811023622,
      "duration": "48i"
    },
    {
      "time": "3360i",
      "midiNote": 33,
      "noteName": "A1",
      "velocity": 0.7244094488188977,
      "duration": "96i"
    },
    {
      "time": "3360i",
      "midiNote": 67,
      "noteName": "G4",
      "velocity": 0.8661417322834646,
      "duration": "32i"
    },
    {
      "time": "3360i",
      "midiNote": 67,
      "noteName": "G4",
      "velocity": 0.5905511811023622,
      "duration": "32i"
    },
    {
      "time": "3456i",
      "midiNote": 59,
      "noteName": "B3",
      "velocity": 1,
      "duration": "142i"
    },
    {
      "time": "3456i",
      "midiNote": 35,
      "noteName": "B1",
      "velocity": 0.7244094488188977,
      "duration": "144i"
    },
    {
      "time": "3456i",
      "midiNote": 68,
      "noteName": "G#4",
      "velocity": 0.8661417322834646,
      "duration": "48i"
    },
    {
      "time": "3456i",
      "midiNote": 68,
      "noteName": "G#4",
      "velocity": 0.5905511811023622,
      "duration": "48i"
    },
    {
      "time": "3600i",
      "midiNote": 59,
      "noteName": "B3",
      "velocity": 1,
      "duration": "160i"
    },
    {
      "time": "3600i",
      "midiNote": 35,
      "noteName": "B1",
      "velocity": 0.7244094488188977,
      "duration": "144i"
    },
    {
      "time": "3600i",
      "midiNote": 68,
      "noteName": "G#4",
      "velocity": 0.8661417322834646,
      "duration": "48i"
    },
    {
      "time": "3600i",
      "midiNote": 68,
      "noteName": "G#4",
      "velocity": 0.5905511811023622,
      "duration": "48i"
    },
    {
      "time": "3744i",
      "midiNote": 33,
      "noteName": "A1",
      "velocity": 0.7244094488188977,
      "duration": "96i"
    },
    {
      "time": "3744i",
      "midiNote": 68,
      "noteName": "G#4",
      "velocity": 0.8661417322834646,
      "duration": "32i"
    },
    {
      "time": "3744i",
      "midiNote": 68,
      "noteName": "G#4",
      "velocity": 0.5905511811023622,
      "duration": "32i"
    },
    {
      "time": "3840i",
      "midiNote": 35,
      "noteName": "B1",
      "velocity": 0.7244094488188977,
      "duration": "144i"
    },
    {
      "time": "3840i",
      "midiNote": 69,
      "noteName": "A4",
      "velocity": 0.8661417322834646,
      "duration": "48i"
    },
    {
      "time": "3840i",
      "midiNote": 69,
      "noteName": "A4",
      "velocity": 0.5905511811023622,
      "duration": "48i"
    },
    {
      "time": "3984i",
      "midiNote": 35,
      "noteName": "B1",
      "velocity": 0.7244094488188977,
      "duration": "144i"
    },
    {
      "time": "3984i",
      "midiNote": 69,
      "noteName": "A4",
      "velocity": 0.8661417322834646,
      "duration": "48i"
    },
    {
      "time": "3984i",
      "midiNote": 69,
      "noteName": "A4",
      "velocity": 0.5905511811023622,
      "duration": "48i"
    },
    {
      "time": "4032i",
      "midiNote": 59,
      "noteName": "B3",
      "velocity": 1,
      "duration": "160i"
    },
    {
      "time": "4128i",
      "midiNote": 33,
      "noteName": "A1",
      "velocity": 0.7244094488188977,
      "duration": "96i"
    },
    {
      "time": "4128i",
      "midiNote": 69,
      "noteName": "A4",
      "velocity": 0.8661417322834646,
      "duration": "32i"
    },
    {
      "time": "4128i",
      "midiNote": 69,
      "noteName": "A4",
      "velocity": 0.5905511811023622,
      "duration": "32i"
    },
    {
      "time": "4224i",
      "midiNote": 35,
      "noteName": "B1",
      "velocity": 0.7244094488188977,
      "duration": "96i"
    },
    {
      "time": "4224i",
      "midiNote": 70,
      "noteName": "A#4",
      "velocity": 0.8661417322834646,
      "duration": "48i"
    },
    {
      "time": "4224i",
      "midiNote": 70,
      "noteName": "A#4",
      "velocity": 0.5905511811023622,
      "duration": "48i"
    },
    {
      "time": "4320i",
      "midiNote": 33,
      "noteName": "A1",
      "velocity": 0.7244094488188977,
      "duration": "96i"
    },
    {
      "time": "4368i",
      "midiNote": 70,
      "noteName": "A#4",
      "velocity": 0.8661417322834646,
      "duration": "48i"
    },
    {
      "time": "4368i",
      "midiNote": 70,
      "noteName": "A#4",
      "velocity": 0.5905511811023622,
      "duration": "48i"
    },
    {
      "time": "4416i",
      "midiNote": 59,
      "noteName": "B3",
      "velocity": 1,
      "duration": "160i"
    },
    {
      "time": "4416i",
      "midiNote": 35,
      "noteName": "B1",
      "velocity": 0.7244094488188977,
      "duration": "48i"
    },
    {
      "time": "4464i",
      "midiNote": 36,
      "noteName": "C2",
      "velocity": 0.7244094488188977,
      "duration": "48i"
    },
    {
      "time": "4512i",
      "midiNote": 37,
      "noteName": "C#2",
      "velocity": 0.7244094488188977,
      "duration": "96i"
    },
    {
      "time": "4512i",
      "midiNote": 70,
      "noteName": "A#4",
      "velocity": 0.8661417322834646,
      "duration": "32i"
    },
    {
      "time": "4512i",
      "midiNote": 70,
      "noteName": "A#4",
      "velocity": 0.5905511811023622,
      "duration": "32i"
    },
    {
      "time": "4608i",
      "midiNote": 35,
      "noteName": "B1",
      "velocity": 0.7244094488188977,
      "duration": "144i"
    },
    {
      "time": "4608i",
      "midiNote": 71,
      "noteName": "B4",
      "velocity": 0.8661417322834646,
      "duration": "48i"
    },
    {
      "time": "4608i",
      "midiNote": 71,
      "noteName": "B4",
      "velocity": 0.5905511811023622,
      "duration": "48i"
    },
    {
      "time": "4752i",
      "midiNote": 59,
      "noteName": "B3",
      "velocity": 1,
      "duration": "142i"
    },
    {
      "time": "4752i",
      "midiNote": 35,
      "noteName": "B1",
      "velocity": 0.7244094488188977,
      "duration": "144i"
    },
    {
      "time": "4752i",
      "midiNote": 71,
      "noteName": "B4",
      "velocity": 0.8661417322834646,
      "duration": "48i"
    },
    {
      "time": "4752i",
      "midiNote": 71,
      "noteName": "B4",
      "velocity": 0.5905511811023622,
      "duration": "48i"
    },
    {
      "time": "4896i",
      "midiNote": 33,
      "noteName": "A1",
      "velocity": 0.7244094488188977,
      "duration": "96i"
    },
    {
      "time": "4896i",
      "midiNote": 71,
      "noteName": "B4",
      "velocity": 0.8661417322834646,
      "duration": "32i"
    },
    {
      "time": "4896i",
      "midiNote": 71,
      "noteName": "B4",
      "velocity": 0.5905511811023622,
      "duration": "32i"
    },
    {
      "time": "4992i",
      "midiNote": 59,
      "noteName": "B3",
      "velocity": 1,
      "duration": "142i"
    },
    {
      "time": "4992i",
      "midiNote": 35,
      "noteName": "B1",
      "velocity": 0.7244094488188977,
      "duration": "144i"
    },
    {
      "time": "4992i",
      "midiNote": 72,
      "noteName": "C5",
      "velocity": 0.8661417322834646,
      "duration": "48i"
    },
    {
      "time": "4992i",
      "midiNote": 72,
      "noteName": "C5",
      "velocity": 0.5905511811023622,
      "duration": "48i"
    },
    {
      "time": "5136i",
      "midiNote": 59,
      "noteName": "B3",
      "velocity": 1,
      "duration": "160i"
    },
    {
      "time": "5136i",
      "midiNote": 35,
      "noteName": "B1",
      "velocity": 0.7244094488188977,
      "duration": "144i"
    },
    {
      "time": "5136i",
      "midiNote": 72,
      "noteName": "C5",
      "velocity": 0.8661417322834646,
      "duration": "48i"
    },
    {
      "time": "5136i",
      "midiNote": 72,
      "noteName": "C5",
      "velocity": 0.5905511811023622,
      "duration": "48i"
    },
    {
      "time": "5280i",
      "midiNote": 33,
      "noteName": "A1",
      "velocity": 0.7244094488188977,
      "duration": "96i"
    },
    {
      "time": "5280i",
      "midiNote": 72,
      "noteName": "C5",
      "velocity": 0.8661417322834646,
      "duration": "32i"
    },
    {
      "time": "5280i",
      "midiNote": 72,
      "noteName": "C5",
      "velocity": 0.5905511811023622,
      "duration": "32i"
    },
    {
      "time": "5376i",
      "midiNote": 35,
      "noteName": "B1",
      "velocity": 0.7244094488188977,
      "duration": "144i"
    },
    {
      "time": "5376i",
      "midiNote": 73,
      "noteName": "C#5",
      "velocity": 0.8661417322834646,
      "duration": "48i"
    },
    {
      "time": "5376i",
      "midiNote": 73,
      "noteName": "C#5",
      "velocity": 0.5905511811023622,
      "duration": "48i"
    },
    {
      "time": "5520i",
      "midiNote": 35,
      "noteName": "B1",
      "velocity": 0.7244094488188977,
      "duration": "144i"
    },
    {
      "time": "5520i",
      "midiNote": 73,
      "noteName": "C#5",
      "velocity": 0.8661417322834646,
      "duration": "48i"
    },
    {
      "time": "5520i",
      "midiNote": 73,
      "noteName": "C#5",
      "velocity": 0.5905511811023622,
      "duration": "48i"
    },
    {
      "time": "5568i",
      "midiNote": 59,
      "noteName": "B3",
      "velocity": 1,
      "duration": "160i"
    },
    {
      "time": "5664i",
      "midiNote": 33,
      "noteName": "A1",
      "velocity": 0.7244094488188977,
      "duration": "96i"
    },
    {
      "time": "5664i",
      "midiNote": 73,
      "noteName": "C#5",
      "velocity": 0.8661417322834646,
      "duration": "32i"
    },
    {
      "time": "5664i",
      "midiNote": 73,
      "noteName": "C#5",
      "velocity": 0.5905511811023622,
      "duration": "32i"
    },
    {
      "time": "5760i",
      "midiNote": 35,
      "noteName": "B1",
      "velocity": 0.7244094488188977,
      "duration": "96i"
    },
    {
      "time": "5760i",
      "midiNote": 74,
      "noteName": "D5",
      "velocity": 0.8661417322834646,
      "duration": "48i"
    },
    {
      "time": "5760i",
      "midiNote": 74,
      "noteName": "D5",
      "velocity": 0.5905511811023622,
      "duration": "48i"
    },
    {
      "time": "5856i",
      "midiNote": 33,
      "noteName": "A1",
      "velocity": 0.7244094488188977,
      "duration": "96i"
    },
    {
      "time": "5904i",
      "midiNote": 74,
      "noteName": "D5",
      "velocity": 0.8661417322834646,
      "duration": "48i"
    },
    {
      "time": "5904i",
      "midiNote": 74,
      "noteName": "D5",
      "velocity": 0.5905511811023622,
      "duration": "48i"
    },
    {
      "time": "5952i",
      "midiNote": 59,
      "noteName": "B3",
      "velocity": 1,
      "duration": "160i"
    },
    {
      "time": "5952i",
      "midiNote": 35,
      "noteName": "B1",
      "velocity": 0.7244094488188977,
      "duration": "48i"
    },
    {
      "time": "6000i",
      "midiNote": 36,
      "noteName": "C2",
      "velocity": 0.7244094488188977,
      "duration": "48i"
    },
    {
      "time": "6048i",
      "midiNote": 37,
      "noteName": "C#2",
      "velocity": 0.7244094488188977,
      "duration": "96i"
    },
    {
      "time": "6048i",
      "midiNote": 74,
      "noteName": "D5",
      "velocity": 0.8661417322834646,
      "duration": "22i"
    },
    {
      "time": "6048i",
      "midiNote": 74,
      "noteName": "D5",
      "velocity": 0.5905511811023622,
      "duration": "8i"
    },
    {
      "time": "6060i",
      "midiNote": 73,
      "noteName": "C#5",
      "velocity": 0.5905511811023622,
      "duration": "8i"
    },
    {
      "time": "6072i",
      "midiNote": 73,
      "noteName": "C#5",
      "velocity": 0.8661417322834646,
      "duration": "22i"
    },
    {
      "time": "6072i",
      "midiNote": 71,
      "noteName": "B4",
      "velocity": 0.5905511811023622,
      "duration": "8i"
    },
    {
      "time": "6084i",
      "midiNote": 69,
      "noteName": "A4",
      "velocity": 0.5905511811023622,
      "duration": "8i"
    },
    {
      "time": "6096i",
      "midiNote": 71,
      "noteName": "B4",
      "velocity": 0.8661417322834646,
      "duration": "22i"
    },
    {
      "time": "6096i",
      "midiNote": 67,
      "noteName": "G4",
      "velocity": 0.5905511811023622,
      "duration": "8i"
    },
    {
      "time": "6108i",
      "midiNote": 65,
      "noteName": "F4",
      "velocity": 0.5905511811023622,
      "duration": "8i"
    },
    {
      "time": "6120i",
      "midiNote": 69,
      "noteName": "A4",
      "velocity": 0.8661417322834646,
      "duration": "22i"
    },
    {
      "time": "6120i",
      "midiNote": 64,
      "noteName": "E4",
      "velocity": 0.5905511811023622,
      "duration": "8i"
    },
    {
      "time": "6132i",
      "midiNote": 62,
      "noteName": "D4",
      "velocity": 0.5905511811023622,
      "duration": "8i"
    },
    {
      "time": "6144i",
      "midiNote": 36,
      "noteName": "C2",
      "velocity": 1,
      "duration": "160i"
    },
    {
      "time": "6144i",
      "midiNote": 57,
      "noteName": "A3",
      "velocity": 1,
      "duration": "160i"
    },
    {
      "time": "6144i",
      "midiNote": 35,
      "noteName": "B1",
      "velocity": 0.7244094488188977,
      "duration": "144i"
    },
    {
      "time": "6144i",
      "midiNote": 59,
      "noteName": "B3",
      "velocity": 0.8661417322834646,
      "duration": "48i"
    },
    {
      "time": "6144i",
      "midiNote": 59,
      "noteName": "B3",
      "velocity": 0.5905511811023622,
      "duration": "48i"
    },
    {
      "time": "6288i",
      "midiNote": 35,
      "noteName": "B1",
      "velocity": 0.7244094488188977,
      "duration": "144i"
    },
    {
      "time": "6288i",
      "midiNote": 59,
      "noteName": "B3",
      "velocity": 0.8661417322834646,
      "duration": "48i"
    },
    {
      "time": "6288i",
      "midiNote": 59,
      "noteName": "B3",
      "velocity": 0.5905511811023622,
      "duration": "48i"
    },
    {
      "time": "6336i",
      "midiNote": 36,
      "noteName": "C2",
      "velocity": 1,
      "duration": "160i"
    },
    {
      "time": "6432i",
      "midiNote": 33,
      "noteName": "A1",
      "velocity": 0.7244094488188977,
      "duration": "96i"
    },
    {
      "time": "6432i",
      "midiNote": 59,
      "noteName": "B3",
      "velocity": 0.8661417322834646,
      "duration": "32i"
    },
    {
      "time": "6432i",
      "midiNote": 59,
      "noteName": "B3",
      "velocity": 0.5905511811023622,
      "duration": "32i"
    },
    {
      "time": "6432i",
      "midiNote": 55,
      "noteName": "G3",
      "velocity": 0.7244094488188977,
      "duration": "94i"
    },
    {
      "time": "6528i",
      "midiNote": 36,
      "noteName": "C2",
      "velocity": 1,
      "duration": "160i"
    },
    {
      "time": "6528i",
      "midiNote": 35,
      "noteName": "B1",
      "velocity": 0.7244094488188977,
      "duration": "144i"
    },
    {
      "time": "6528i",
      "midiNote": 60,
      "noteName": "C4",
      "velocity": 0.8661417322834646,
      "duration": "48i"
    },
    {
      "time": "6528i",
      "midiNote": 60,
      "noteName": "C4",
      "velocity": 0.5905511811023622,
      "duration": "48i"
    },
    {
      "time": "6528i",
      "midiNote": 59,
      "noteName": "B3",
      "velocity": 1,
      "duration": "256i"
    },
    {
      "time": "6672i",
      "midiNote": 35,
      "noteName": "B1",
      "velocity": 0.7244094488188977,
      "duration": "144i"
    },
    {
      "time": "6672i",
      "midiNote": 60,
      "noteName": "C4",
      "velocity": 0.8661417322834646,
      "duration": "48i"
    },
    {
      "time": "6672i",
      "midiNote": 60,
      "noteName": "C4",
      "velocity": 0.5905511811023622,
      "duration": "48i"
    },
    {
      "time": "6720i",
      "midiNote": 36,
      "noteName": "C2",
      "velocity": 1,
      "duration": "160i"
    },
    {
      "time": "6816i",
      "midiNote": 33,
      "noteName": "A1",
      "velocity": 0.7244094488188977,
      "duration": "96i"
    },
    {
      "time": "6816i",
      "midiNote": 60,
      "noteName": "C4",
      "velocity": 0.8661417322834646,
      "duration": "32i"
    },
    {
      "time": "6816i",
      "midiNote": 60,
      "noteName": "C4",
      "velocity": 0.5905511811023622,
      "duration": "32i"
    },
    {
      "time": "6816i",
      "midiNote": 55,
      "noteName": "G3",
      "velocity": 0.7244094488188977,
      "duration": "94i"
    },
    {
      "time": "6912i",
      "midiNote": 36,
      "noteName": "C2",
      "velocity": 1,
      "duration": "160i"
    },
    {
      "time": "6912i",
      "midiNote": 35,
      "noteName": "B1",
      "velocity": 0.7244094488188977,
      "duration": "144i"
    },
    {
      "time": "6912i",
      "midiNote": 61,
      "noteName": "C#4",
      "velocity": 0.8661417322834646,
      "duration": "48i"
    },
    {
      "time": "6912i",
      "midiNote": 61,
      "noteName": "C#4",
      "velocity": 0.5905511811023622,
      "duration": "48i"
    },
    {
      "time": "6912i",
      "midiNote": 59,
      "noteName": "B3",
      "velocity": 1,
      "duration": "256i"
    },
    {
      "time": "7056i",
      "midiNote": 35,
      "noteName": "B1",
      "velocity": 0.7244094488188977,
      "duration": "144i"
    },
    {
      "time": "7056i",
      "midiNote": 61,
      "noteName": "C#4",
      "velocity": 0.8661417322834646,
      "duration": "48i"
    },
    {
      "time": "7056i",
      "midiNote": 61,
      "noteName": "C#4",
      "velocity": 0.5905511811023622,
      "duration": "48i"
    },
    {
      "time": "7104i",
      "midiNote": 36,
      "noteName": "C2",
      "velocity": 1,
      "duration": "192i"
    },
    {
      "time": "7200i",
      "midiNote": 33,
      "noteName": "A1",
      "velocity": 0.7244094488188977,
      "duration": "96i"
    },
    {
      "time": "7200i",
      "midiNote": 61,
      "noteName": "C#4",
      "velocity": 0.8661417322834646,
      "duration": "32i"
    },
    {
      "time": "7200i",
      "midiNote": 61,
      "noteName": "C#4",
      "velocity": 0.5905511811023622,
      "duration": "32i"
    },
    {
      "time": "7200i",
      "midiNote": 55,
      "noteName": "G3",
      "velocity": 0.7244094488188977,
      "duration": "94i"
    },
    {
      "time": "7296i",
      "midiNote": 36,
      "noteName": "C2",
      "velocity": 1,
      "duration": "192i"
    },
    {
      "time": "7296i",
      "midiNote": 35,
      "noteName": "B1",
      "velocity": 0.7244094488188977,
      "duration": "96i"
    },
    {
      "time": "7296i",
      "midiNote": 62,
      "noteName": "D4",
      "velocity": 0.8661417322834646,
      "duration": "48i"
    },
    {
      "time": "7296i",
      "midiNote": 62,
      "noteName": "D4",
      "velocity": 0.5905511811023622,
      "duration": "48i"
    },
    {
      "time": "7296i",
      "midiNote": 59,
      "noteName": "B3",
      "velocity": 1,
      "duration": "256i"
    },
    {
      "time": "7392i",
      "midiNote": 33,
      "noteName": "A1",
      "velocity": 0.7244094488188977,
      "duration": "96i"
    },
    {
      "time": "7440i",
      "midiNote": 62,
      "noteName": "D4",
      "velocity": 0.8661417322834646,
      "duration": "48i"
    },
    {
      "time": "7440i",
      "midiNote": 62,
      "noteName": "D4",
      "velocity": 0.5905511811023622,
      "duration": "48i"
    },
    {
      "time": "7488i",
      "midiNote": 36,
      "noteName": "C2",
      "velocity": 1,
      "duration": "192i"
    },
    {
      "time": "7488i",
      "midiNote": 35,
      "noteName": "B1",
      "velocity": 0.7244094488188977,
      "duration": "48i"
    },
    {
      "time": "7536i",
      "midiNote": 36,
      "noteName": "C2",
      "velocity": 0.7244094488188977,
      "duration": "48i"
    },
    {
      "time": "7584i",
      "midiNote": 37,
      "noteName": "C#2",
      "velocity": 0.7244094488188977,
      "duration": "96i"
    },
    {
      "time": "7584i",
      "midiNote": 62,
      "noteName": "D4",
      "velocity": 0.8661417322834646,
      "duration": "32i"
    },
    {
      "time": "7584i",
      "midiNote": 62,
      "noteName": "D4",
      "velocity": 0.5905511811023622,
      "duration": "32i"
    },
    {
      "time": "7584i",
      "midiNote": 55,
      "noteName": "G3",
      "velocity": 0.7244094488188977,
      "duration": "94i"
    },
    {
      "time": "7680i",
      "midiNote": 36,
      "noteName": "C2",
      "velocity": 1,
      "duration": "160i"
    },
    {
      "time": "7680i",
      "midiNote": 35,
      "noteName": "B1",
      "velocity": 0.7244094488188977,
      "duration": "144i"
    },
    {
      "time": "7680i",
      "midiNote": 63,
      "noteName": "D#4",
      "velocity": 0.8661417322834646,
      "duration": "48i"
    },
    {
      "time": "7680i",
      "midiNote": 63,
      "noteName": "D#4",
      "velocity": 0.5905511811023622,
      "duration": "48i"
    },
    {
      "time": "7680i",
      "midiNote": 59,
      "noteName": "B3",
      "velocity": 1,
      "duration": "256i"
    },
    {
      "time": "7824i",
      "midiNote": 35,
      "noteName": "B1",
      "velocity": 0.7244094488188977,
      "duration": "144i"
    },
    {
      "time": "7824i",
      "midiNote": 63,
      "noteName": "D#4",
      "velocity": 0.8661417322834646,
      "duration": "48i"
    },
    {
      "time": "7824i",
      "midiNote": 63,
      "noteName": "D#4",
      "velocity": 0.5905511811023622,
      "duration": "48i"
    },
    {
      "time": "7872i",
      "midiNote": 36,
      "noteName": "C2",
      "velocity": 1,
      "duration": "160i"
    },
    {
      "time": "7968i",
      "midiNote": 33,
      "noteName": "A1",
      "velocity": 0.7244094488188977,
      "duration": "96i"
    },
    {
      "time": "7968i",
      "midiNote": 63,
      "noteName": "D#4",
      "velocity": 0.8661417322834646,
      "duration": "32i"
    },
    {
      "time": "7968i",
      "midiNote": 63,
      "noteName": "D#4",
      "velocity": 0.5905511811023622,
      "duration": "32i"
    },
    {
      "time": "7968i",
      "midiNote": 55,
      "noteName": "G3",
      "velocity": 0.7244094488188977,
      "duration": "94i"
    },
    {
      "time": "8064i",
      "midiNote": 36,
      "noteName": "C2",
      "velocity": 1,
      "duration": "160i"
    },
    {
      "time": "8064i",
      "midiNote": 35,
      "noteName": "B1",
      "velocity": 0.7244094488188977,
      "duration": "144i"
    },
    {
      "time": "8064i",
      "midiNote": 64,
      "noteName": "E4",
      "velocity": 0.8661417322834646,
      "duration": "48i"
    },
    {
      "time": "8064i",
      "midiNote": 64,
      "noteName": "E4",
      "velocity": 0.5905511811023622,
      "duration": "48i"
    },
    {
      "time": "8064i",
      "midiNote": 59,
      "noteName": "B3",
      "velocity": 1,
      "duration": "256i"
    },
    {
      "time": "8208i",
      "midiNote": 35,
      "noteName": "B1",
      "velocity": 0.7244094488188977,
      "duration": "144i"
    },
    {
      "time": "8208i",
      "midiNote": 64,
      "noteName": "E4",
      "velocity": 0.8661417322834646,
      "duration": "48i"
    },
    {
      "time": "8208i",
      "midiNote": 64,
      "noteName": "E4",
      "velocity": 0.5905511811023622,
      "duration": "48i"
    },
    {
      "time": "8256i",
      "midiNote": 36,
      "noteName": "C2",
      "velocity": 1,
      "duration": "160i"
    },
    {
      "time": "8352i",
      "midiNote": 33,
      "noteName": "A1",
      "velocity": 0.7244094488188977,
      "duration": "96i"
    },
    {
      "time": "8352i",
      "midiNote": 64,
      "noteName": "E4",
      "velocity": 0.8661417322834646,
      "duration": "32i"
    },
    {
      "time": "8352i",
      "midiNote": 64,
      "noteName": "E4",
      "velocity": 0.5905511811023622,
      "duration": "32i"
    },
    {
      "time": "8352i",
      "midiNote": 55,
      "noteName": "G3",
      "velocity": 0.7244094488188977,
      "duration": "94i"
    },
    {
      "time": "8448i",
      "midiNote": 36,
      "noteName": "C2",
      "velocity": 1,
      "duration": "160i"
    },
    {
      "time": "8448i",
      "midiNote": 35,
      "noteName": "B1",
      "velocity": 0.7244094488188977,
      "duration": "144i"
    },
    {
      "time": "8448i",
      "midiNote": 65,
      "noteName": "F4",
      "velocity": 0.8661417322834646,
      "duration": "48i"
    },
    {
      "time": "8448i",
      "midiNote": 65,
      "noteName": "F4",
      "velocity": 0.5905511811023622,
      "duration": "48i"
    },
    {
      "time": "8448i",
      "midiNote": 59,
      "noteName": "B3",
      "velocity": 1,
      "duration": "256i"
    },
    {
      "time": "8592i",
      "midiNote": 35,
      "noteName": "B1",
      "velocity": 0.7244094488188977,
      "duration": "144i"
    },
    {
      "time": "8592i",
      "midiNote": 65,
      "noteName": "F4",
      "velocity": 0.8661417322834646,
      "duration": "48i"
    },
    {
      "time": "8592i",
      "midiNote": 65,
      "noteName": "F4",
      "velocity": 0.5905511811023622,
      "duration": "48i"
    },
    {
      "time": "8640i",
      "midiNote": 36,
      "noteName": "C2",
      "velocity": 1,
      "duration": "160i"
    },
    {
      "time": "8736i",
      "midiNote": 33,
      "noteName": "A1",
      "velocity": 0.7244094488188977,
      "duration": "96i"
    },
    {
      "time": "8736i",
      "midiNote": 65,
      "noteName": "F4",
      "velocity": 0.8661417322834646,
      "duration": "32i"
    },
    {
      "time": "8736i",
      "midiNote": 65,
      "noteName": "F4",
      "velocity": 0.5905511811023622,
      "duration": "32i"
    },
    {
      "time": "8736i",
      "midiNote": 55,
      "noteName": "G3",
      "velocity": 0.7244094488188977,
      "duration": "94i"
    },
    {
      "time": "8832i",
      "midiNote": 36,
      "noteName": "C2",
      "velocity": 1,
      "duration": "160i"
    },
    {
      "time": "8832i",
      "midiNote": 35,
      "noteName": "B1",
      "velocity": 0.7244094488188977,
      "duration": "96i"
    },
    {
      "time": "8832i",
      "midiNote": 66,
      "noteName": "F#4",
      "velocity": 0.8661417322834646,
      "duration": "48i"
    },
    {
      "time": "8832i",
      "midiNote": 66,
      "noteName": "F#4",
      "velocity": 0.5905511811023622,
      "duration": "48i"
    },
    {
      "time": "8832i",
      "midiNote": 59,
      "noteName": "B3",
      "velocity": 1,
      "duration": "256i"
    },
    {
      "time": "8928i",
      "midiNote": 33,
      "noteName": "A1",
      "velocity": 0.7244094488188977,
      "duration": "96i"
    },
    {
      "time": "8976i",
      "midiNote": 66,
      "noteName": "F#4",
      "velocity": 0.8661417322834646,
      "duration": "48i"
    },
    {
      "time": "8976i",
      "midiNote": 66,
      "noteName": "F#4",
      "velocity": 0.5905511811023622,
      "duration": "48i"
    },
    {
      "time": "9024i",
      "midiNote": 36,
      "noteName": "C2",
      "velocity": 1,
      "duration": "160i"
    },
    {
      "time": "9024i",
      "midiNote": 35,
      "noteName": "B1",
      "velocity": 0.7244094488188977,
      "duration": "48i"
    },
    {
      "time": "9072i",
      "midiNote": 36,
      "noteName": "C2",
      "velocity": 0.7244094488188977,
      "duration": "48i"
    },
    {
      "time": "9120i",
      "midiNote": 37,
      "noteName": "C#2",
      "velocity": 0.7244094488188977,
      "duration": "96i"
    },
    {
      "time": "9120i",
      "midiNote": 66,
      "noteName": "F#4",
      "velocity": 0.8661417322834646,
      "duration": "32i"
    },
    {
      "time": "9120i",
      "midiNote": 66,
      "noteName": "F#4",
      "velocity": 0.5905511811023622,
      "duration": "32i"
    },
    {
      "time": "9120i",
      "midiNote": 55,
      "noteName": "G3",
      "velocity": 0.7244094488188977,
      "duration": "94i"
    },
    {
      "time": "9216i",
      "midiNote": 36,
      "noteName": "C2",
      "velocity": 1,
      "duration": "160i"
    },
    {
      "time": "9216i",
      "midiNote": 35,
      "noteName": "B1",
      "velocity": 0.7244094488188977,
      "duration": "144i"
    },
    {
      "time": "9216i",
      "midiNote": 67,
      "noteName": "G4",
      "velocity": 0.8661417322834646,
      "duration": "48i"
    },
    {
      "time": "9216i",
      "midiNote": 67,
      "noteName": "G4",
      "velocity": 0.5905511811023622,
      "duration": "48i"
    },
    {
      "time": "9216i",
      "midiNote": 59,
      "noteName": "B3",
      "velocity": 1,
      "duration": "256i"
    },
    {
      "time": "9360i",
      "midiNote": 35,
      "noteName": "B1",
      "velocity": 0.7244094488188977,
      "duration": "144i"
    },
    {
      "time": "9360i",
      "midiNote": 67,
      "noteName": "G4",
      "velocity": 0.8661417322834646,
      "duration": "48i"
    },
    {
      "time": "9360i",
      "midiNote": 67,
      "noteName": "G4",
      "velocity": 0.5905511811023622,
      "duration": "48i"
    },
    {
      "time": "9408i",
      "midiNote": 36,
      "noteName": "C2",
      "velocity": 1,
      "duration": "160i"
    },
    {
      "time": "9504i",
      "midiNote": 33,
      "noteName": "A1",
      "velocity": 0.7244094488188977,
      "duration": "96i"
    },
    {
      "time": "9504i",
      "midiNote": 67,
      "noteName": "G4",
      "velocity": 0.8661417322834646,
      "duration": "32i"
    },
    {
      "time": "9504i",
      "midiNote": 67,
      "noteName": "G4",
      "velocity": 0.5905511811023622,
      "duration": "32i"
    },
    {
      "time": "9504i",
      "midiNote": 55,
      "noteName": "G3",
      "velocity": 0.7244094488188977,
      "duration": "94i"
    },
    {
      "time": "9600i",
      "midiNote": 36,
      "noteName": "C2",
      "velocity": 1,
      "duration": "160i"
    },
    {
      "time": "9600i",
      "midiNote": 35,
      "noteName": "B1",
      "velocity": 0.7244094488188977,
      "duration": "144i"
    },
    {
      "time": "9600i",
      "midiNote": 68,
      "noteName": "G#4",
      "velocity": 0.8661417322834646,
      "duration": "48i"
    },
    {
      "time": "9600i",
      "midiNote": 68,
      "noteName": "G#4",
      "velocity": 0.5905511811023622,
      "duration": "48i"
    },
    {
      "time": "9600i",
      "midiNote": 59,
      "noteName": "B3",
      "velocity": 1,
      "duration": "256i"
    },
    {
      "time": "9744i",
      "midiNote": 35,
      "noteName": "B1",
      "velocity": 0.7244094488188977,
      "duration": "144i"
    },
    {
      "time": "9744i",
      "midiNote": 68,
      "noteName": "G#4",
      "velocity": 0.8661417322834646,
      "duration": "48i"
    },
    {
      "time": "9744i",
      "midiNote": 68,
      "noteName": "G#4",
      "velocity": 0.5905511811023622,
      "duration": "48i"
    },
    {
      "time": "9792i",
      "midiNote": 36,
      "noteName": "C2",
      "velocity": 1,
      "duration": "160i"
    },
    {
      "time": "9888i",
      "midiNote": 33,
      "noteName": "A1",
      "velocity": 0.7244094488188977,
      "duration": "96i"
    },
    {
      "time": "9888i",
      "midiNote": 68,
      "noteName": "G#4",
      "velocity": 0.8661417322834646,
      "duration": "32i"
    },
    {
      "time": "9888i",
      "midiNote": 68,
      "noteName": "G#4",
      "velocity": 0.5905511811023622,
      "duration": "32i"
    },
    {
      "time": "9888i",
      "midiNote": 55,
      "noteName": "G3",
      "velocity": 0.7244094488188977,
      "duration": "94i"
    },
    {
      "time": "9984i",
      "midiNote": 36,
      "noteName": "C2",
      "velocity": 1,
      "duration": "160i"
    },
    {
      "time": "9984i",
      "midiNote": 35,
      "noteName": "B1",
      "velocity": 0.7244094488188977,
      "duration": "144i"
    },
    {
      "time": "9984i",
      "midiNote": 69,
      "noteName": "A4",
      "velocity": 0.8661417322834646,
      "duration": "48i"
    },
    {
      "time": "9984i",
      "midiNote": 69,
      "noteName": "A4",
      "velocity": 0.5905511811023622,
      "duration": "48i"
    },
    {
      "time": "9984i",
      "midiNote": 59,
      "noteName": "B3",
      "velocity": 1,
      "duration": "256i"
    },
    {
      "time": "10128i",
      "midiNote": 35,
      "noteName": "B1",
      "velocity": 0.7244094488188977,
      "duration": "144i"
    },
    {
      "time": "10128i",
      "midiNote": 69,
      "noteName": "A4",
      "velocity": 0.8661417322834646,
      "duration": "48i"
    },
    {
      "time": "10128i",
      "midiNote": 69,
      "noteName": "A4",
      "velocity": 0.5905511811023622,
      "duration": "48i"
    },
    {
      "time": "10176i",
      "midiNote": 36,
      "noteName": "C2",
      "velocity": 1,
      "duration": "160i"
    },
    {
      "time": "10272i",
      "midiNote": 33,
      "noteName": "A1",
      "velocity": 0.7244094488188977,
      "duration": "96i"
    },
    {
      "time": "10272i",
      "midiNote": 69,
      "noteName": "A4",
      "velocity": 0.8661417322834646,
      "duration": "32i"
    },
    {
      "time": "10272i",
      "midiNote": 69,
      "noteName": "A4",
      "velocity": 0.5905511811023622,
      "duration": "32i"
    },
    {
      "time": "10272i",
      "midiNote": 55,
      "noteName": "G3",
      "velocity": 0.7244094488188977,
      "duration": "94i"
    },
    {
      "time": "10368i",
      "midiNote": 36,
      "noteName": "C2",
      "velocity": 1,
      "duration": "160i"
    },
    {
      "time": "10368i",
      "midiNote": 35,
      "noteName": "B1",
      "velocity": 0.7244094488188977,
      "duration": "96i"
    },
    {
      "time": "10368i",
      "midiNote": 70,
      "noteName": "A#4",
      "velocity": 0.8661417322834646,
      "duration": "48i"
    },
    {
      "time": "10368i",
      "midiNote": 70,
      "noteName": "A#4",
      "velocity": 0.5905511811023622,
      "duration": "48i"
    },
    {
      "time": "10368i",
      "midiNote": 59,
      "noteName": "B3",
      "velocity": 1,
      "duration": "256i"
    },
    {
      "time": "10464i",
      "midiNote": 33,
      "noteName": "A1",
      "velocity": 0.7244094488188977,
      "duration": "96i"
    },
    {
      "time": "10512i",
      "midiNote": 70,
      "noteName": "A#4",
      "velocity": 0.8661417322834646,
      "duration": "48i"
    },
    {
      "time": "10512i",
      "midiNote": 70,
      "noteName": "A#4",
      "velocity": 0.5905511811023622,
      "duration": "48i"
    },
    {
      "time": "10560i",
      "midiNote": 36,
      "noteName": "C2",
      "velocity": 1,
      "duration": "160i"
    },
    {
      "time": "10560i",
      "midiNote": 35,
      "noteName": "B1",
      "velocity": 0.7244094488188977,
      "duration": "48i"
    },
    {
      "time": "10608i",
      "midiNote": 36,
      "noteName": "C2",
      "velocity": 0.7244094488188977,
      "duration": "48i"
    },
    {
      "time": "10656i",
      "midiNote": 37,
      "noteName": "C#2",
      "velocity": 0.7244094488188977,
      "duration": "96i"
    },
    {
      "time": "10656i",
      "midiNote": 70,
      "noteName": "A#4",
      "velocity": 0.8661417322834646,
      "duration": "32i"
    },
    {
      "time": "10656i",
      "midiNote": 70,
      "noteName": "A#4",
      "velocity": 0.5905511811023622,
      "duration": "32i"
    },
    {
      "time": "10656i",
      "midiNote": 55,
      "noteName": "G3",
      "velocity": 0.7244094488188977,
      "duration": "94i"
    },
    {
      "time": "10752i",
      "midiNote": 36,
      "noteName": "C2",
      "velocity": 1,
      "duration": "160i"
    },
    {
      "time": "10752i",
      "midiNote": 35,
      "noteName": "B1",
      "velocity": 0.7244094488188977,
      "duration": "144i"
    },
    {
      "time": "10752i",
      "midiNote": 71,
      "noteName": "B4",
      "velocity": 0.8661417322834646,
      "duration": "48i"
    },
    {
      "time": "10752i",
      "midiNote": 71,
      "noteName": "B4",
      "velocity": 0.5905511811023622,
      "duration": "48i"
    },
    {
      "time": "10752i",
      "midiNote": 59,
      "noteName": "B3",
      "velocity": 1,
      "duration": "256i"
    },
    {
      "time": "10896i",
      "midiNote": 35,
      "noteName": "B1",
      "velocity": 0.7244094488188977,
      "duration": "144i"
    },
    {
      "time": "10896i",
      "midiNote": 71,
      "noteName": "B4",
      "velocity": 0.8661417322834646,
      "duration": "48i"
    },
    {
      "time": "10896i",
      "midiNote": 71,
      "noteName": "B4",
      "velocity": 0.5905511811023622,
      "duration": "48i"
    },
    {
      "time": "10944i",
      "midiNote": 36,
      "noteName": "C2",
      "velocity": 1,
      "duration": "160i"
    },
    {
      "time": "11040i",
      "midiNote": 33,
      "noteName": "A1",
      "velocity": 0.7244094488188977,
      "duration": "96i"
    },
    {
      "time": "11040i",
      "midiNote": 71,
      "noteName": "B4",
      "velocity": 0.8661417322834646,
      "duration": "32i"
    },
    {
      "time": "11040i",
      "midiNote": 71,
      "noteName": "B4",
      "velocity": 0.5905511811023622,
      "duration": "32i"
    },
    {
      "time": "11040i",
      "midiNote": 55,
      "noteName": "G3",
      "velocity": 0.7244094488188977,
      "duration": "94i"
    },
    {
      "time": "11136i",
      "midiNote": 36,
      "noteName": "C2",
      "velocity": 1,
      "duration": "160i"
    },
    {
      "time": "11136i",
      "midiNote": 35,
      "noteName": "B1",
      "velocity": 0.7244094488188977,
      "duration": "144i"
    },
    {
      "time": "11136i",
      "midiNote": 72,
      "noteName": "C5",
      "velocity": 0.8661417322834646,
      "duration": "48i"
    },
    {
      "time": "11136i",
      "midiNote": 72,
      "noteName": "C5",
      "velocity": 0.5905511811023622,
      "duration": "48i"
    },
    {
      "time": "11136i",
      "midiNote": 59,
      "noteName": "B3",
      "velocity": 1,
      "duration": "256i"
    },
    {
      "time": "11280i",
      "midiNote": 35,
      "noteName": "B1",
      "velocity": 0.7244094488188977,
      "duration": "144i"
    },
    {
      "time": "11280i",
      "midiNote": 72,
      "noteName": "C5",
      "velocity": 0.8661417322834646,
      "duration": "48i"
    },
    {
      "time": "11280i",
      "midiNote": 72,
      "noteName": "C5",
      "velocity": 0.5905511811023622,
      "duration": "48i"
    },
    {
      "time": "11328i",
      "midiNote": 36,
      "noteName": "C2",
      "velocity": 1,
      "duration": "160i"
    },
    {
      "time": "11424i",
      "midiNote": 33,
      "noteName": "A1",
      "velocity": 0.7244094488188977,
      "duration": "96i"
    },
    {
      "time": "11424i",
      "midiNote": 72,
      "noteName": "C5",
      "velocity": 0.8661417322834646,
      "duration": "32i"
    },
    {
      "time": "11424i",
      "midiNote": 72,
      "noteName": "C5",
      "velocity": 0.5905511811023622,
      "duration": "32i"
    },
    {
      "time": "11424i",
      "midiNote": 55,
      "noteName": "G3",
      "velocity": 0.7244094488188977,
      "duration": "94i"
    },
    {
      "time": "11520i",
      "midiNote": 36,
      "noteName": "C2",
      "velocity": 1,
      "duration": "94i"
    },
    {
      "time": "11520i",
      "midiNote": 35,
      "noteName": "B1",
      "velocity": 0.7244094488188977,
      "duration": "144i"
    },
    {
      "time": "11520i",
      "midiNote": 73,
      "noteName": "C#5",
      "velocity": 0.8661417322834646,
      "duration": "48i"
    },
    {
      "time": "11520i",
      "midiNote": 73,
      "noteName": "C#5",
      "velocity": 0.5905511811023622,
      "duration": "48i"
    },
    {
      "time": "11520i",
      "midiNote": 59,
      "noteName": "B3",
      "velocity": 1,
      "duration": "256i"
    },
    {
      "time": "11616i",
      "midiNote": 36,
      "noteName": "C2",
      "velocity": 1,
      "duration": "94i"
    },
    {
      "time": "11664i",
      "midiNote": 35,
      "noteName": "B1",
      "velocity": 0.7244094488188977,
      "duration": "144i"
    },
    {
      "time": "11664i",
      "midiNote": 73,
      "noteName": "C#5",
      "velocity": 0.8661417322834646,
      "duration": "48i"
    },
    {
      "time": "11664i",
      "midiNote": 73,
      "noteName": "C#5",
      "velocity": 0.5905511811023622,
      "duration": "48i"
    },
    {
      "time": "11712i",
      "midiNote": 36,
      "noteName": "C2",
      "velocity": 1,
      "duration": "94i"
    },
    {
      "time": "11808i",
      "midiNote": 36,
      "noteName": "C2",
      "velocity": 1,
      "duration": "94i"
    },
    {
      "time": "11808i",
      "midiNote": 33,
      "noteName": "A1",
      "velocity": 0.7244094488188977,
      "duration": "96i"
    },
    {
      "time": "11808i",
      "midiNote": 73,
      "noteName": "C#5",
      "velocity": 0.8661417322834646,
      "duration": "32i"
    },
    {
      "time": "11808i",
      "midiNote": 73,
      "noteName": "C#5",
      "velocity": 0.5905511811023622,
      "duration": "32i"
    },
    {
      "time": "11808i",
      "midiNote": 55,
      "noteName": "G3",
      "velocity": 0.7244094488188977,
      "duration": "94i"
    },
    {
      "time": "11904i",
      "midiNote": 36,
      "noteName": "C2",
      "velocity": 1,
      "duration": "46i"
    },
    {
      "time": "11904i",
      "midiNote": 35,
      "noteName": "B1",
      "velocity": 0.7244094488188977,
      "duration": "96i"
    },
    {
      "time": "11904i",
      "midiNote": 74,
      "noteName": "D5",
      "velocity": 0.8661417322834646,
      "duration": "48i"
    },
    {
      "time": "11904i",
      "midiNote": 74,
      "noteName": "D5",
      "velocity": 0.5905511811023622,
      "duration": "48i"
    },
    {
      "time": "11904i",
      "midiNote": 59,
      "noteName": "B3",
      "velocity": 1,
      "duration": "256i"
    },
    {
      "time": "11952i",
      "midiNote": 36,
      "noteName": "C2",
      "velocity": 1,
      "duration": "46i"
    },
    {
      "time": "12000i",
      "midiNote": 36,
      "noteName": "C2",
      "velocity": 1,
      "duration": "46i"
    },
    {
      "time": "12000i",
      "midiNote": 33,
      "noteName": "A1",
      "velocity": 0.7244094488188977,
      "duration": "96i"
    },
    {
      "time": "12048i",
      "midiNote": 36,
      "noteName": "C2",
      "velocity": 1,
      "duration": "46i"
    },
    {
      "time": "12048i",
      "midiNote": 74,
      "noteName": "D5",
      "velocity": 0.8661417322834646,
      "duration": "48i"
    },
    {
      "time": "12048i",
      "midiNote": 74,
      "noteName": "D5",
      "velocity": 0.5905511811023622,
      "duration": "48i"
    },
    {
      "time": "12096i",
      "midiNote": 36,
      "noteName": "C2",
      "velocity": 1,
      "duration": "46i"
    },
    {
      "time": "12096i",
      "midiNote": 35,
      "noteName": "B1",
      "velocity": 0.7244094488188977,
      "duration": "48i"
    },
    {
      "time": "12144i",
      "midiNote": 36,
      "noteName": "C2",
      "velocity": 1,
      "duration": "48i"
    },
    {
      "time": "12144i",
      "midiNote": 36,
      "noteName": "C2",
      "velocity": 0.7244094488188977,
      "duration": "46i"
    },
    {
      "time": "12192i",
      "midiNote": 36,
      "noteName": "C2",
      "velocity": 1,
      "duration": "46i"
    },
    {
      "time": "12192i",
      "midiNote": 37,
      "noteName": "C#2",
      "velocity": 0.7244094488188977,
      "duration": "96i"
    },
    {
      "time": "12192i",
      "midiNote": 74,
      "noteName": "D5",
      "velocity": 0.8661417322834646,
      "duration": "32i"
    },
    {
      "time": "12192i",
      "midiNote": 74,
      "noteName": "D5",
      "velocity": 0.5905511811023622,
      "duration": "32i"
    },
    {
      "time": "12192i",
      "midiNote": 55,
      "noteName": "G3",
      "velocity": 0.7244094488188977,
      "duration": "94i"
    },
    {
      "time": "12240i",
      "midiNote": 36,
      "noteName": "C2",
      "velocity": 1,
      "duration": "46i"
    },
    {
      "time": "12288i",
      "midiNote": 36,
      "noteName": "C2",
      "velocity": 1,
      "duration": "160i"
    },
    {
      "time": "12288i",
      "midiNote": 57,
      "noteName": "A3",
      "velocity": 1,
      "duration": "160i"
    },
    {
      "time": "12288i",
      "midiNote": 35,
      "noteName": "B1",
      "velocity": 0.7244094488188977,
      "duration": "144i"
    },
    {
      "time": "12288i",
      "midiNote": 59,
      "noteName": "B3",
      "velocity": 0.8661417322834646,
      "duration": "48i"
    },
    {
      "time": "12288i",
      "midiNote": 59,
      "noteName": "B3",
      "velocity": 0.5905511811023622,
      "duration": "48i"
    },
    {
      "time": "12432i",
      "midiNote": 35,
      "noteName": "B1",
      "velocity": 0.7244094488188977,
      "duration": "144i"
    },
    {
      "time": "12432i",
      "midiNote": 59,
      "noteName": "B3",
      "velocity": 0.8661417322834646,
      "duration": "48i"
    },
    {
      "time": "12432i",
      "midiNote": 59,
      "noteName": "B3",
      "velocity": 0.5905511811023622,
      "duration": "48i"
    },
    {
      "time": "12480i",
      "midiNote": 36,
      "noteName": "C2",
      "velocity": 1,
      "duration": "160i"
    },
    {
      "time": "12480i",
      "midiNote": 39,
      "noteName": "D#2",
      "velocity": 0.7244094488188977,
      "duration": "160i"
    },
    {
      "time": "12576i",
      "midiNote": 33,
      "noteName": "A1",
      "velocity": 0.7244094488188977,
      "duration": "96i"
    },
    {
      "time": "12576i",
      "midiNote": 59,
      "noteName": "B3",
      "velocity": 0.8661417322834646,
      "duration": "32i"
    },
    {
      "time": "12576i",
      "midiNote": 59,
      "noteName": "B3",
      "velocity": 0.5905511811023622,
      "duration": "32i"
    },
    {
      "time": "12576i",
      "midiNote": 55,
      "noteName": "G3",
      "velocity": 0.7244094488188977,
      "duration": "94i"
    },
    {
      "time": "12672i",
      "midiNote": 36,
      "noteName": "C2",
      "velocity": 1,
      "duration": "160i"
    },
    {
      "time": "12672i",
      "midiNote": 35,
      "noteName": "B1",
      "velocity": 0.7244094488188977,
      "duration": "144i"
    },
    {
      "time": "12672i",
      "midiNote": 60,
      "noteName": "C4",
      "velocity": 0.8661417322834646,
      "duration": "48i"
    },
    {
      "time": "12672i",
      "midiNote": 60,
      "noteName": "C4",
      "velocity": 0.5905511811023622,
      "duration": "48i"
    },
    {
      "time": "12672i",
      "midiNote": 59,
      "noteName": "B3",
      "velocity": 1,
      "duration": "256i"
    },
    {
      "time": "12816i",
      "midiNote": 35,
      "noteName": "B1",
      "velocity": 0.7244094488188977,
      "duration": "144i"
    },
    {
      "time": "12816i",
      "midiNote": 60,
      "noteName": "C4",
      "velocity": 0.8661417322834646,
      "duration": "48i"
    },
    {
      "time": "12816i",
      "midiNote": 60,
      "noteName": "C4",
      "velocity": 0.5905511811023622,
      "duration": "48i"
    },
    {
      "time": "12864i",
      "midiNote": 36,
      "noteName": "C2",
      "velocity": 1,
      "duration": "160i"
    },
    {
      "time": "12864i",
      "midiNote": 39,
      "noteName": "D#2",
      "velocity": 0.7244094488188977,
      "duration": "160i"
    },
    {
      "time": "12960i",
      "midiNote": 33,
      "noteName": "A1",
      "velocity": 0.7244094488188977,
      "duration": "96i"
    },
    {
      "time": "12960i",
      "midiNote": 60,
      "noteName": "C4",
      "velocity": 0.8661417322834646,
      "duration": "32i"
    },
    {
      "time": "12960i",
      "midiNote": 60,
      "noteName": "C4",
      "velocity": 0.5905511811023622,
      "duration": "32i"
    },
    {
      "time": "12960i",
      "midiNote": 55,
      "noteName": "G3",
      "velocity": 0.7244094488188977,
      "duration": "94i"
    },
    {
      "time": "13056i",
      "midiNote": 36,
      "noteName": "C2",
      "velocity": 1,
      "duration": "160i"
    },
    {
      "time": "13056i",
      "midiNote": 35,
      "noteName": "B1",
      "velocity": 0.7244094488188977,
      "duration": "144i"
    },
    {
      "time": "13056i",
      "midiNote": 61,
      "noteName": "C#4",
      "velocity": 0.8661417322834646,
      "duration": "48i"
    },
    {
      "time": "13056i",
      "midiNote": 61,
      "noteName": "C#4",
      "velocity": 0.5905511811023622,
      "duration": "48i"
    },
    {
      "time": "13056i",
      "midiNote": 59,
      "noteName": "B3",
      "velocity": 1,
      "duration": "256i"
    },
    {
      "time": "13200i",
      "midiNote": 35,
      "noteName": "B1",
      "velocity": 0.7244094488188977,
      "duration": "144i"
    },
    {
      "time": "13200i",
      "midiNote": 61,
      "noteName": "C#4",
      "velocity": 0.8661417322834646,
      "duration": "48i"
    },
    {
      "time": "13200i",
      "midiNote": 61,
      "noteName": "C#4",
      "velocity": 0.5905511811023622,
      "duration": "48i"
    },
    {
      "time": "13248i",
      "midiNote": 36,
      "noteName": "C2",
      "velocity": 1,
      "duration": "192i"
    },
    {
      "time": "13248i",
      "midiNote": 39,
      "noteName": "D#2",
      "velocity": 0.7244094488188977,
      "duration": "160i"
    },
    {
      "time": "13344i",
      "midiNote": 33,
      "noteName": "A1",
      "velocity": 0.7244094488188977,
      "duration": "96i"
    },
    {
      "time": "13344i",
      "midiNote": 61,
      "noteName": "C#4",
      "velocity": 0.8661417322834646,
      "duration": "32i"
    },
    {
      "time": "13344i",
      "midiNote": 61,
      "noteName": "C#4",
      "velocity": 0.5905511811023622,
      "duration": "32i"
    },
    {
      "time": "13344i",
      "midiNote": 55,
      "noteName": "G3",
      "velocity": 0.7244094488188977,
      "duration": "94i"
    },
    {
      "time": "13440i",
      "midiNote": 36,
      "noteName": "C2",
      "velocity": 1,
      "duration": "192i"
    },
    {
      "time": "13440i",
      "midiNote": 35,
      "noteName": "B1",
      "velocity": 0.7244094488188977,
      "duration": "96i"
    },
    {
      "time": "13440i",
      "midiNote": 62,
      "noteName": "D4",
      "velocity": 0.8661417322834646,
      "duration": "48i"
    },
    {
      "time": "13440i",
      "midiNote": 62,
      "noteName": "D4",
      "velocity": 0.5905511811023622,
      "duration": "48i"
    },
    {
      "time": "13440i",
      "midiNote": 59,
      "noteName": "B3",
      "velocity": 1,
      "duration": "256i"
    },
    {
      "time": "13536i",
      "midiNote": 33,
      "noteName": "A1",
      "velocity": 0.7244094488188977,
      "duration": "96i"
    },
    {
      "time": "13584i",
      "midiNote": 62,
      "noteName": "D4",
      "velocity": 0.8661417322834646,
      "duration": "48i"
    },
    {
      "time": "13584i",
      "midiNote": 62,
      "noteName": "D4",
      "velocity": 0.5905511811023622,
      "duration": "48i"
    },
    {
      "time": "13632i",
      "midiNote": 36,
      "noteName": "C2",
      "velocity": 1,
      "duration": "192i"
    },
    {
      "time": "13632i",
      "midiNote": 35,
      "noteName": "B1",
      "velocity": 0.7244094488188977,
      "duration": "48i"
    },
    {
      "time": "13632i",
      "midiNote": 39,
      "noteName": "D#2",
      "velocity": 0.7244094488188977,
      "duration": "160i"
    },
    {
      "time": "13680i",
      "midiNote": 36,
      "noteName": "C2",
      "velocity": 0.7244094488188977,
      "duration": "48i"
    },
    {
      "time": "13728i",
      "midiNote": 37,
      "noteName": "C#2",
      "velocity": 0.7244094488188977,
      "duration": "96i"
    },
    {
      "time": "13728i",
      "midiNote": 62,
      "noteName": "D4",
      "velocity": 0.8661417322834646,
      "duration": "32i"
    },
    {
      "time": "13728i",
      "midiNote": 62,
      "noteName": "D4",
      "velocity": 0.5905511811023622,
      "duration": "32i"
    },
    {
      "time": "13728i",
      "midiNote": 55,
      "noteName": "G3",
      "velocity": 0.7244094488188977,
      "duration": "94i"
    },
    {
      "time": "13824i",
      "midiNote": 36,
      "noteName": "C2",
      "velocity": 1,
      "duration": "160i"
    },
    {
      "time": "13824i",
      "midiNote": 35,
      "noteName": "B1",
      "velocity": 0.7244094488188977,
      "duration": "144i"
    },
    {
      "time": "13824i",
      "midiNote": 63,
      "noteName": "D#4",
      "velocity": 0.8661417322834646,
      "duration": "48i"
    },
    {
      "time": "13824i",
      "midiNote": 63,
      "noteName": "D#4",
      "velocity": 0.5905511811023622,
      "duration": "48i"
    },
    {
      "time": "13824i",
      "midiNote": 59,
      "noteName": "B3",
      "velocity": 1,
      "duration": "256i"
    },
    {
      "time": "13968i",
      "midiNote": 35,
      "noteName": "B1",
      "velocity": 0.7244094488188977,
      "duration": "144i"
    },
    {
      "time": "13968i",
      "midiNote": 63,
      "noteName": "D#4",
      "velocity": 0.8661417322834646,
      "duration": "48i"
    },
    {
      "time": "13968i",
      "midiNote": 63,
      "noteName": "D#4",
      "velocity": 0.5905511811023622,
      "duration": "48i"
    },
    {
      "time": "14016i",
      "midiNote": 36,
      "noteName": "C2",
      "velocity": 1,
      "duration": "160i"
    },
    {
      "time": "14016i",
      "midiNote": 39,
      "noteName": "D#2",
      "velocity": 0.7244094488188977,
      "duration": "160i"
    },
    {
      "time": "14112i",
      "midiNote": 33,
      "noteName": "A1",
      "velocity": 0.7244094488188977,
      "duration": "96i"
    },
    {
      "time": "14112i",
      "midiNote": 63,
      "noteName": "D#4",
      "velocity": 0.8661417322834646,
      "duration": "32i"
    },
    {
      "time": "14112i",
      "midiNote": 63,
      "noteName": "D#4",
      "velocity": 0.5905511811023622,
      "duration": "32i"
    },
    {
      "time": "14112i",
      "midiNote": 55,
      "noteName": "G3",
      "velocity": 0.7244094488188977,
      "duration": "94i"
    },
    {
      "time": "14208i",
      "midiNote": 36,
      "noteName": "C2",
      "velocity": 1,
      "duration": "160i"
    },
    {
      "time": "14208i",
      "midiNote": 35,
      "noteName": "B1",
      "velocity": 0.7244094488188977,
      "duration": "144i"
    },
    {
      "time": "14208i",
      "midiNote": 64,
      "noteName": "E4",
      "velocity": 0.8661417322834646,
      "duration": "48i"
    },
    {
      "time": "14208i",
      "midiNote": 64,
      "noteName": "E4",
      "velocity": 0.5905511811023622,
      "duration": "48i"
    },
    {
      "time": "14208i",
      "midiNote": 59,
      "noteName": "B3",
      "velocity": 1,
      "duration": "256i"
    },
    {
      "time": "14352i",
      "midiNote": 35,
      "noteName": "B1",
      "velocity": 0.7244094488188977,
      "duration": "144i"
    },
    {
      "time": "14352i",
      "midiNote": 64,
      "noteName": "E4",
      "velocity": 0.8661417322834646,
      "duration": "48i"
    },
    {
      "time": "14352i",
      "midiNote": 64,
      "noteName": "E4",
      "velocity": 0.5905511811023622,
      "duration": "48i"
    },
    {
      "time": "14400i",
      "midiNote": 36,
      "noteName": "C2",
      "velocity": 1,
      "duration": "160i"
    },
    {
      "time": "14400i",
      "midiNote": 39,
      "noteName": "D#2",
      "velocity": 0.7244094488188977,
      "duration": "160i"
    },
    {
      "time": "14496i",
      "midiNote": 33,
      "noteName": "A1",
      "velocity": 0.7244094488188977,
      "duration": "96i"
    },
    {
      "time": "14496i",
      "midiNote": 64,
      "noteName": "E4",
      "velocity": 0.8661417322834646,
      "duration": "32i"
    },
    {
      "time": "14496i",
      "midiNote": 64,
      "noteName": "E4",
      "velocity": 0.5905511811023622,
      "duration": "32i"
    },
    {
      "time": "14496i",
      "midiNote": 55,
      "noteName": "G3",
      "velocity": 0.7244094488188977,
      "duration": "94i"
    },
    {
      "time": "14592i",
      "midiNote": 36,
      "noteName": "C2",
      "velocity": 1,
      "duration": "160i"
    },
    {
      "time": "14592i",
      "midiNote": 35,
      "noteName": "B1",
      "velocity": 0.7244094488188977,
      "duration": "144i"
    },
    {
      "time": "14592i",
      "midiNote": 65,
      "noteName": "F4",
      "velocity": 0.8661417322834646,
      "duration": "48i"
    },
    {
      "time": "14592i",
      "midiNote": 65,
      "noteName": "F4",
      "velocity": 0.5905511811023622,
      "duration": "48i"
    },
    {
      "time": "14592i",
      "midiNote": 59,
      "noteName": "B3",
      "velocity": 1,
      "duration": "256i"
    },
    {
      "time": "14736i",
      "midiNote": 35,
      "noteName": "B1",
      "velocity": 0.7244094488188977,
      "duration": "144i"
    },
    {
      "time": "14736i",
      "midiNote": 65,
      "noteName": "F4",
      "velocity": 0.8661417322834646,
      "duration": "48i"
    },
    {
      "time": "14736i",
      "midiNote": 65,
      "noteName": "F4",
      "velocity": 0.5905511811023622,
      "duration": "48i"
    },
    {
      "time": "14784i",
      "midiNote": 36,
      "noteName": "C2",
      "velocity": 1,
      "duration": "160i"
    },
    {
      "time": "14784i",
      "midiNote": 39,
      "noteName": "D#2",
      "velocity": 0.7244094488188977,
      "duration": "160i"
    },
    {
      "time": "14880i",
      "midiNote": 33,
      "noteName": "A1",
      "velocity": 0.7244094488188977,
      "duration": "96i"
    },
    {
      "time": "14880i",
      "midiNote": 65,
      "noteName": "F4",
      "velocity": 0.8661417322834646,
      "duration": "32i"
    },
    {
      "time": "14880i",
      "midiNote": 65,
      "noteName": "F4",
      "velocity": 0.5905511811023622,
      "duration": "32i"
    },
    {
      "time": "14880i",
      "midiNote": 55,
      "noteName": "G3",
      "velocity": 0.7244094488188977,
      "duration": "94i"
    },
    {
      "time": "14976i",
      "midiNote": 36,
      "noteName": "C2",
      "velocity": 1,
      "duration": "160i"
    },
    {
      "time": "14976i",
      "midiNote": 35,
      "noteName": "B1",
      "velocity": 0.7244094488188977,
      "duration": "96i"
    },
    {
      "time": "14976i",
      "midiNote": 66,
      "noteName": "F#4",
      "velocity": 0.8661417322834646,
      "duration": "48i"
    },
    {
      "time": "14976i",
      "midiNote": 66,
      "noteName": "F#4",
      "velocity": 0.5905511811023622,
      "duration": "48i"
    },
    {
      "time": "14976i",
      "midiNote": 59,
      "noteName": "B3",
      "velocity": 1,
      "duration": "256i"
    },
    {
      "time": "15072i",
      "midiNote": 33,
      "noteName": "A1",
      "velocity": 0.7244094488188977,
      "duration": "96i"
    },
    {
      "time": "15120i",
      "midiNote": 66,
      "noteName": "F#4",
      "velocity": 0.8661417322834646,
      "duration": "48i"
    },
    {
      "time": "15120i",
      "midiNote": 66,
      "noteName": "F#4",
      "velocity": 0.5905511811023622,
      "duration": "48i"
    },
    {
      "time": "15168i",
      "midiNote": 36,
      "noteName": "C2",
      "velocity": 1,
      "duration": "160i"
    },
    {
      "time": "15168i",
      "midiNote": 35,
      "noteName": "B1",
      "velocity": 0.7244094488188977,
      "duration": "48i"
    },
    {
      "time": "15168i",
      "midiNote": 39,
      "noteName": "D#2",
      "velocity": 0.7244094488188977,
      "duration": "160i"
    },
    {
      "time": "15216i",
      "midiNote": 36,
      "noteName": "C2",
      "velocity": 0.7244094488188977,
      "duration": "48i"
    },
    {
      "time": "15264i",
      "midiNote": 37,
      "noteName": "C#2",
      "velocity": 0.7244094488188977,
      "duration": "96i"
    },
    {
      "time": "15264i",
      "midiNote": 66,
      "noteName": "F#4",
      "velocity": 0.8661417322834646,
      "duration": "32i"
    },
    {
      "time": "15264i",
      "midiNote": 66,
      "noteName": "F#4",
      "velocity": 0.5905511811023622,
      "duration": "32i"
    },
    {
      "time": "15264i",
      "midiNote": 55,
      "noteName": "G3",
      "velocity": 0.7244094488188977,
      "duration": "94i"
    },
    {
      "time": "15360i",
      "midiNote": 36,
      "noteName": "C2",
      "velocity": 1,
      "duration": "160i"
    },
    {
      "time": "15360i",
      "midiNote": 35,
      "noteName": "B1",
      "velocity": 0.7244094488188977,
      "duration": "144i"
    },
    {
      "time": "15360i",
      "midiNote": 67,
      "noteName": "G4",
      "velocity": 0.8661417322834646,
      "duration": "48i"
    },
    {
      "time": "15360i",
      "midiNote": 67,
      "noteName": "G4",
      "velocity": 0.5905511811023622,
      "duration": "48i"
    },
    {
      "time": "15360i",
      "midiNote": 59,
      "noteName": "B3",
      "velocity": 1,
      "duration": "256i"
    },
    {
      "time": "15504i",
      "midiNote": 35,
      "noteName": "B1",
      "velocity": 0.7244094488188977,
      "duration": "144i"
    },
    {
      "time": "15504i",
      "midiNote": 67,
      "noteName": "G4",
      "velocity": 0.8661417322834646,
      "duration": "48i"
    },
    {
      "time": "15504i",
      "midiNote": 67,
      "noteName": "G4",
      "velocity": 0.5905511811023622,
      "duration": "48i"
    },
    {
      "time": "15552i",
      "midiNote": 36,
      "noteName": "C2",
      "velocity": 1,
      "duration": "160i"
    },
    {
      "time": "15552i",
      "midiNote": 39,
      "noteName": "D#2",
      "velocity": 0.7244094488188977,
      "duration": "160i"
    },
    {
      "time": "15648i",
      "midiNote": 33,
      "noteName": "A1",
      "velocity": 0.7244094488188977,
      "duration": "96i"
    },
    {
      "time": "15648i",
      "midiNote": 67,
      "noteName": "G4",
      "velocity": 0.8661417322834646,
      "duration": "32i"
    },
    {
      "time": "15648i",
      "midiNote": 67,
      "noteName": "G4",
      "velocity": 0.5905511811023622,
      "duration": "32i"
    },
    {
      "time": "15648i",
      "midiNote": 55,
      "noteName": "G3",
      "velocity": 0.7244094488188977,
      "duration": "94i"
    },
    {
      "time": "15744i",
      "midiNote": 36,
      "noteName": "C2",
      "velocity": 1,
      "duration": "160i"
    },
    {
      "time": "15744i",
      "midiNote": 35,
      "noteName": "B1",
      "velocity": 0.7244094488188977,
      "duration": "144i"
    },
    {
      "time": "15744i",
      "midiNote": 68,
      "noteName": "G#4",
      "velocity": 0.8661417322834646,
      "duration": "48i"
    },
    {
      "time": "15744i",
      "midiNote": 68,
      "noteName": "G#4",
      "velocity": 0.5905511811023622,
      "duration": "48i"
    },
    {
      "time": "15744i",
      "midiNote": 59,
      "noteName": "B3",
      "velocity": 1,
      "duration": "256i"
    },
    {
      "time": "15888i",
      "midiNote": 35,
      "noteName": "B1",
      "velocity": 0.7244094488188977,
      "duration": "144i"
    },
    {
      "time": "15888i",
      "midiNote": 68,
      "noteName": "G#4",
      "velocity": 0.8661417322834646,
      "duration": "48i"
    },
    {
      "time": "15888i",
      "midiNote": 68,
      "noteName": "G#4",
      "velocity": 0.5905511811023622,
      "duration": "48i"
    },
    {
      "time": "15936i",
      "midiNote": 36,
      "noteName": "C2",
      "velocity": 1,
      "duration": "160i"
    },
    {
      "time": "15936i",
      "midiNote": 39,
      "noteName": "D#2",
      "velocity": 0.7244094488188977,
      "duration": "160i"
    },
    {
      "time": "16032i",
      "midiNote": 33,
      "noteName": "A1",
      "velocity": 0.7244094488188977,
      "duration": "96i"
    },
    {
      "time": "16032i",
      "midiNote": 68,
      "noteName": "G#4",
      "velocity": 0.8661417322834646,
      "duration": "32i"
    },
    {
      "time": "16032i",
      "midiNote": 68,
      "noteName": "G#4",
      "velocity": 0.5905511811023622,
      "duration": "32i"
    },
    {
      "time": "16032i",
      "midiNote": 55,
      "noteName": "G3",
      "velocity": 0.7244094488188977,
      "duration": "94i"
    },
    {
      "time": "16128i",
      "midiNote": 36,
      "noteName": "C2",
      "velocity": 1,
      "duration": "160i"
    },
    {
      "time": "16128i",
      "midiNote": 35,
      "noteName": "B1",
      "velocity": 0.7244094488188977,
      "duration": "144i"
    },
    {
      "time": "16128i",
      "midiNote": 69,
      "noteName": "A4",
      "velocity": 0.8661417322834646,
      "duration": "48i"
    },
    {
      "time": "16128i",
      "midiNote": 69,
      "noteName": "A4",
      "velocity": 0.5905511811023622,
      "duration": "48i"
    },
    {
      "time": "16128i",
      "midiNote": 59,
      "noteName": "B3",
      "velocity": 1,
      "duration": "256i"
    },
    {
      "time": "16272i",
      "midiNote": 35,
      "noteName": "B1",
      "velocity": 0.7244094488188977,
      "duration": "144i"
    },
    {
      "time": "16272i",
      "midiNote": 69,
      "noteName": "A4",
      "velocity": 0.8661417322834646,
      "duration": "48i"
    },
    {
      "time": "16272i",
      "midiNote": 69,
      "noteName": "A4",
      "velocity": 0.5905511811023622,
      "duration": "48i"
    },
    {
      "time": "16320i",
      "midiNote": 36,
      "noteName": "C2",
      "velocity": 1,
      "duration": "160i"
    },
    {
      "time": "16320i",
      "midiNote": 39,
      "noteName": "D#2",
      "velocity": 0.7244094488188977,
      "duration": "160i"
    },
    {
      "time": "16416i",
      "midiNote": 33,
      "noteName": "A1",
      "velocity": 0.7244094488188977,
      "duration": "96i"
    },
    {
      "time": "16416i",
      "midiNote": 69,
      "noteName": "A4",
      "velocity": 0.8661417322834646,
      "duration": "32i"
    },
    {
      "time": "16416i",
      "midiNote": 69,
      "noteName": "A4",
      "velocity": 0.5905511811023622,
      "duration": "32i"
    },
    {
      "time": "16416i",
      "midiNote": 55,
      "noteName": "G3",
      "velocity": 0.7244094488188977,
      "duration": "94i"
    },
    {
      "time": "16512i",
      "midiNote": 36,
      "noteName": "C2",
      "velocity": 1,
      "duration": "160i"
    },
    {
      "time": "16512i",
      "midiNote": 35,
      "noteName": "B1",
      "velocity": 0.7244094488188977,
      "duration": "96i"
    },
    {
      "time": "16512i",
      "midiNote": 70,
      "noteName": "A#4",
      "velocity": 0.8661417322834646,
      "duration": "48i"
    },
    {
      "time": "16512i",
      "midiNote": 70,
      "noteName": "A#4",
      "velocity": 0.5905511811023622,
      "duration": "48i"
    },
    {
      "time": "16512i",
      "midiNote": 59,
      "noteName": "B3",
      "velocity": 1,
      "duration": "256i"
    },
    {
      "time": "16608i",
      "midiNote": 33,
      "noteName": "A1",
      "velocity": 0.7244094488188977,
      "duration": "96i"
    },
    {
      "time": "16656i",
      "midiNote": 70,
      "noteName": "A#4",
      "velocity": 0.8661417322834646,
      "duration": "48i"
    },
    {
      "time": "16656i",
      "midiNote": 70,
      "noteName": "A#4",
      "velocity": 0.5905511811023622,
      "duration": "48i"
    },
    {
      "time": "16704i",
      "midiNote": 36,
      "noteName": "C2",
      "velocity": 1,
      "duration": "160i"
    },
    {
      "time": "16704i",
      "midiNote": 35,
      "noteName": "B1",
      "velocity": 0.7244094488188977,
      "duration": "48i"
    },
    {
      "time": "16704i",
      "midiNote": 39,
      "noteName": "D#2",
      "velocity": 0.7244094488188977,
      "duration": "160i"
    },
    {
      "time": "16752i",
      "midiNote": 36,
      "noteName": "C2",
      "velocity": 0.7244094488188977,
      "duration": "48i"
    },
    {
      "time": "16800i",
      "midiNote": 37,
      "noteName": "C#2",
      "velocity": 0.7244094488188977,
      "duration": "96i"
    },
    {
      "time": "16800i",
      "midiNote": 70,
      "noteName": "A#4",
      "velocity": 0.8661417322834646,
      "duration": "32i"
    },
    {
      "time": "16800i",
      "midiNote": 70,
      "noteName": "A#4",
      "velocity": 0.5905511811023622,
      "duration": "32i"
    },
    {
      "time": "16800i",
      "midiNote": 55,
      "noteName": "G3",
      "velocity": 0.7244094488188977,
      "duration": "94i"
    },
    {
      "time": "16896i",
      "midiNote": 36,
      "noteName": "C2",
      "velocity": 1,
      "duration": "160i"
    },
    {
      "time": "16896i",
      "midiNote": 35,
      "noteName": "B1",
      "velocity": 0.7244094488188977,
      "duration": "144i"
    },
    {
      "time": "16896i",
      "midiNote": 71,
      "noteName": "B4",
      "velocity": 0.8661417322834646,
      "duration": "48i"
    },
    {
      "time": "16896i",
      "midiNote": 71,
      "noteName": "B4",
      "velocity": 0.5905511811023622,
      "duration": "48i"
    },
    {
      "time": "16896i",
      "midiNote": 59,
      "noteName": "B3",
      "velocity": 1,
      "duration": "256i"
    },
    {
      "time": "17040i",
      "midiNote": 35,
      "noteName": "B1",
      "velocity": 0.7244094488188977,
      "duration": "144i"
    },
    {
      "time": "17040i",
      "midiNote": 71,
      "noteName": "B4",
      "velocity": 0.8661417322834646,
      "duration": "48i"
    },
    {
      "time": "17040i",
      "midiNote": 71,
      "noteName": "B4",
      "velocity": 0.5905511811023622,
      "duration": "48i"
    },
    {
      "time": "17088i",
      "midiNote": 36,
      "noteName": "C2",
      "velocity": 1,
      "duration": "160i"
    },
    {
      "time": "17088i",
      "midiNote": 39,
      "noteName": "D#2",
      "velocity": 0.7244094488188977,
      "duration": "160i"
    },
    {
      "time": "17184i",
      "midiNote": 33,
      "noteName": "A1",
      "velocity": 0.7244094488188977,
      "duration": "96i"
    },
    {
      "time": "17184i",
      "midiNote": 71,
      "noteName": "B4",
      "velocity": 0.8661417322834646,
      "duration": "32i"
    },
    {
      "time": "17184i",
      "midiNote": 71,
      "noteName": "B4",
      "velocity": 0.5905511811023622,
      "duration": "32i"
    },
    {
      "time": "17184i",
      "midiNote": 55,
      "noteName": "G3",
      "velocity": 0.7244094488188977,
      "duration": "94i"
    },
    {
      "time": "17280i",
      "midiNote": 36,
      "noteName": "C2",
      "velocity": 1,
      "duration": "160i"
    },
    {
      "time": "17280i",
      "midiNote": 35,
      "noteName": "B1",
      "velocity": 0.7244094488188977,
      "duration": "144i"
    },
    {
      "time": "17280i",
      "midiNote": 72,
      "noteName": "C5",
      "velocity": 0.8661417322834646,
      "duration": "48i"
    },
    {
      "time": "17280i",
      "midiNote": 72,
      "noteName": "C5",
      "velocity": 0.5905511811023622,
      "duration": "48i"
    },
    {
      "time": "17280i",
      "midiNote": 59,
      "noteName": "B3",
      "velocity": 1,
      "duration": "256i"
    },
    {
      "time": "17424i",
      "midiNote": 35,
      "noteName": "B1",
      "velocity": 0.7244094488188977,
      "duration": "144i"
    },
    {
      "time": "17424i",
      "midiNote": 72,
      "noteName": "C5",
      "velocity": 0.8661417322834646,
      "duration": "48i"
    },
    {
      "time": "17424i",
      "midiNote": 72,
      "noteName": "C5",
      "velocity": 0.5905511811023622,
      "duration": "48i"
    },
    {
      "time": "17472i",
      "midiNote": 36,
      "noteName": "C2",
      "velocity": 1,
      "duration": "160i"
    },
    {
      "time": "17472i",
      "midiNote": 39,
      "noteName": "D#2",
      "velocity": 0.7244094488188977,
      "duration": "160i"
    },
    {
      "time": "17568i",
      "midiNote": 33,
      "noteName": "A1",
      "velocity": 0.7244094488188977,
      "duration": "96i"
    },
    {
      "time": "17568i",
      "midiNote": 72,
      "noteName": "C5",
      "velocity": 0.8661417322834646,
      "duration": "32i"
    },
    {
      "time": "17568i",
      "midiNote": 72,
      "noteName": "C5",
      "velocity": 0.5905511811023622,
      "duration": "32i"
    },
    {
      "time": "17568i",
      "midiNote": 55,
      "noteName": "G3",
      "velocity": 0.7244094488188977,
      "duration": "94i"
    },
    {
      "time": "17664i",
      "midiNote": 36,
      "noteName": "C2",
      "velocity": 1,
      "duration": "94i"
    },
    {
      "time": "17664i",
      "midiNote": 35,
      "noteName": "B1",
      "velocity": 0.7244094488188977,
      "duration": "144i"
    },
    {
      "time": "17664i",
      "midiNote": 73,
      "noteName": "C#5",
      "velocity": 0.8661417322834646,
      "duration": "48i"
    },
    {
      "time": "17664i",
      "midiNote": 73,
      "noteName": "C#5",
      "velocity": 0.5905511811023622,
      "duration": "48i"
    },
    {
      "time": "17664i",
      "midiNote": 59,
      "noteName": "B3",
      "velocity": 1,
      "duration": "256i"
    },
    {
      "time": "17760i",
      "midiNote": 36,
      "noteName": "C2",
      "velocity": 1,
      "duration": "94i"
    },
    {
      "time": "17808i",
      "midiNote": 35,
      "noteName": "B1",
      "velocity": 0.7244094488188977,
      "duration": "144i"
    },
    {
      "time": "17808i",
      "midiNote": 73,
      "noteName": "C#5",
      "velocity": 0.8661417322834646,
      "duration": "48i"
    },
    {
      "time": "17808i",
      "midiNote": 73,
      "noteName": "C#5",
      "velocity": 0.5905511811023622,
      "duration": "48i"
    },
    {
      "time": "17856i",
      "midiNote": 36,
      "noteName": "C2",
      "velocity": 1,
      "duration": "94i"
    },
    {
      "time": "17856i",
      "midiNote": 39,
      "noteName": "D#2",
      "velocity": 0.7244094488188977,
      "duration": "160i"
    },
    {
      "time": "17952i",
      "midiNote": 36,
      "noteName": "C2",
      "velocity": 1,
      "duration": "94i"
    },
    {
      "time": "17952i",
      "midiNote": 33,
      "noteName": "A1",
      "velocity": 0.7244094488188977,
      "duration": "96i"
    },
    {
      "time": "17952i",
      "midiNote": 73,
      "noteName": "C#5",
      "velocity": 0.8661417322834646,
      "duration": "32i"
    },
    {
      "time": "17952i",
      "midiNote": 73,
      "noteName": "C#5",
      "velocity": 0.5905511811023622,
      "duration": "32i"
    },
    {
      "time": "17952i",
      "midiNote": 55,
      "noteName": "G3",
      "velocity": 0.7244094488188977,
      "duration": "94i"
    },
    {
      "time": "18048i",
      "midiNote": 36,
      "noteName": "C2",
      "velocity": 1,
      "duration": "46i"
    },
    {
      "time": "18048i",
      "midiNote": 35,
      "noteName": "B1",
      "velocity": 0.7244094488188977,
      "duration": "96i"
    },
    {
      "time": "18048i",
      "midiNote": 74,
      "noteName": "D5",
      "velocity": 0.8661417322834646,
      "duration": "48i"
    },
    {
      "time": "18048i",
      "midiNote": 74,
      "noteName": "D5",
      "velocity": 0.5905511811023622,
      "duration": "48i"
    },
    {
      "time": "18048i",
      "midiNote": 59,
      "noteName": "B3",
      "velocity": 1,
      "duration": "256i"
    },
    {
      "time": "18096i",
      "midiNote": 36,
      "noteName": "C2",
      "velocity": 1,
      "duration": "46i"
    },
    {
      "time": "18144i",
      "midiNote": 36,
      "noteName": "C2",
      "velocity": 1,
      "duration": "46i"
    },
    {
      "time": "18144i",
      "midiNote": 33,
      "noteName": "A1",
      "velocity": 0.7244094488188977,
      "duration": "96i"
    },
    {
      "time": "18192i",
      "midiNote": 36,
      "noteName": "C2",
      "velocity": 1,
      "duration": "46i"
    },
    {
      "time": "18192i",
      "midiNote": 74,
      "noteName": "D5",
      "velocity": 0.8661417322834646,
      "duration": "48i"
    },
    {
      "time": "18192i",
      "midiNote": 74,
      "noteName": "D5",
      "velocity": 0.5905511811023622,
      "duration": "48i"
    },
    {
      "time": "18240i",
      "midiNote": 36,
      "noteName": "C2",
      "velocity": 1,
      "duration": "46i"
    },
    {
      "time": "18240i",
      "midiNote": 35,
      "noteName": "B1",
      "velocity": 0.7244094488188977,
      "duration": "48i"
    },
    {
      "time": "18240i",
      "midiNote": 39,
      "noteName": "D#2",
      "velocity": 0.7244094488188977,
      "duration": "160i"
    },
    {
      "time": "18288i",
      "midiNote": 36,
      "noteName": "C2",
      "velocity": 1,
      "duration": "48i"
    },
    {
      "time": "18288i",
      "midiNote": 36,
      "noteName": "C2",
      "velocity": 0.7244094488188977,
      "duration": "46i"
    },
    {
      "time": "18336i",
      "midiNote": 36,
      "noteName": "C2",
      "velocity": 1,
      "duration": "46i"
    },
    {
      "time": "18336i",
      "midiNote": 37,
      "noteName": "C#2",
      "velocity": 0.7244094488188977,
      "duration": "96i"
    },
    {
      "time": "18336i",
      "midiNote": 74,
      "noteName": "D5",
      "velocity": 0.8661417322834646,
      "duration": "10i"
    },
    {
      "time": "18336i",
      "midiNote": 74,
      "noteName": "D5",
      "velocity": 0.5905511811023622,
      "duration": "8i"
    },
    {
      "time": "18336i",
      "midiNote": 55,
      "noteName": "G3",
      "velocity": 0.7244094488188977,
      "duration": "94i"
    },
    {
      "time": "18348i",
      "midiNote": 73,
      "noteName": "C#5",
      "velocity": 0.8661417322834646,
      "duration": "10i"
    },
    {
      "time": "18348i",
      "midiNote": 73,
      "noteName": "C#5",
      "velocity": 0.5905511811023622,
      "duration": "8i"
    },
    {
      "time": "18360i",
      "midiNote": 71,
      "noteName": "B4",
      "velocity": 0.8661417322834646,
      "duration": "10i"
    },
    {
      "time": "18360i",
      "midiNote": 71,
      "noteName": "B4",
      "velocity": 0.5905511811023622,
      "duration": "8i"
    },
    {
      "time": "18372i",
      "midiNote": 69,
      "noteName": "A4",
      "velocity": 0.8661417322834646,
      "duration": "10i"
    },
    {
      "time": "18372i",
      "midiNote": 69,
      "noteName": "A4",
      "velocity": 0.5905511811023622,
      "duration": "8i"
    },
    {
      "time": "18384i",
      "midiNote": 36,
      "noteName": "C2",
      "velocity": 1,
      "duration": "46i"
    },
    {
      "time": "18384i",
      "midiNote": 69,
      "noteName": "A4",
      "velocity": 0.8661417322834646,
      "duration": "10i"
    },
    {
      "time": "18384i",
      "midiNote": 67,
      "noteName": "G4",
      "velocity": 0.5905511811023622,
      "duration": "8i"
    },
    {
      "time": "18396i",
      "midiNote": 67,
      "noteName": "G4",
      "velocity": 0.8661417322834646,
      "duration": "10i"
    },
    {
      "time": "18396i",
      "midiNote": 65,
      "noteName": "F4",
      "velocity": 0.5905511811023622,
      "duration": "8i"
    },
    {
      "time": "18408i",
      "midiNote": 65,
      "noteName": "F4",
      "velocity": 0.8661417322834646,
      "duration": "10i"
    },
    {
      "time": "18408i",
      "midiNote": 64,
      "noteName": "E4",
      "velocity": 0.5905511811023622,
      "duration": "8i"
    },
    {
      "time": "18420i",
      "midiNote": 64,
      "noteName": "E4",
      "velocity": 0.8661417322834646,
      "duration": "10i"
    },
    {
      "time": "18420i",
      "midiNote": 62,
      "noteName": "D4",
      "velocity": 0.5905511811023622,
      "duration": "8i"
    },
    {
      "time": "18432i",
      "midiNote": 36,
      "noteName": "C2",
      "velocity": 1,
      "duration": "160i"
    },
    {
      "time": "18432i",
      "midiNote": 57,
      "noteName": "A3",
      "velocity": 1,
      "duration": "160i"
    },
    {
      "time": "18432i",
      "midiNote": 35,
      "noteName": "B1",
      "velocity": 0.7244094488188977,
      "duration": "144i"
    },
    {
      "time": "18432i",
      "midiNote": 54,
      "noteName": "F#3",
      "velocity": 0.7244094488188977,
      "duration": "46i"
    },
    {
      "time": "18432i",
      "midiNote": 52,
      "noteName": "E3",
      "velocity": 0.47244094488188976,
      "duration": "96i"
    },
    {
      "time": "18480i",
      "midiNote": 54,
      "noteName": "F#3",
      "velocity": 0.7244094488188977,
      "duration": "46i"
    },
    {
      "time": "18528i",
      "midiNote": 54,
      "noteName": "F#3",
      "velocity": 0.7244094488188977,
      "duration": "46i"
    },
    {
      "time": "18528i",
      "midiNote": 71,
      "noteName": "B4",
      "velocity": 1,
      "duration": "94i"
    },
    {
      "time": "18576i",
      "midiNote": 35,
      "noteName": "B1",
      "velocity": 0.7244094488188977,
      "duration": "144i"
    },
    {
      "time": "18576i",
      "midiNote": 54,
      "noteName": "F#3",
      "velocity": 0.7244094488188977,
      "duration": "46i"
    },
    {
      "time": "18624i",
      "midiNote": 36,
      "noteName": "C2",
      "velocity": 1,
      "duration": "160i"
    },
    {
      "time": "18624i",
      "midiNote": 54,
      "noteName": "F#3",
      "velocity": 0.7244094488188977,
      "duration": "46i"
    },
    {
      "time": "18624i",
      "midiNote": 39,
      "noteName": "D#2",
      "velocity": 0.8503937007874016,
      "duration": "160i"
    },
    {
      "time": "18624i",
      "midiNote": 69,
      "noteName": "A4",
      "velocity": 1,
      "duration": "94i"
    },
    {
      "time": "18672i",
      "midiNote": 54,
      "noteName": "F#3",
      "velocity": 0.7244094488188977,
      "duration": "46i"
    },
    {
      "time": "18720i",
      "midiNote": 33,
      "noteName": "A1",
      "velocity": 0.7244094488188977,
      "duration": "96i"
    },
    {
      "time": "18720i",
      "midiNote": 54,
      "noteName": "F#3",
      "velocity": 0.7244094488188977,
      "duration": "46i"
    },
    {
      "time": "18720i",
      "midiNote": 71,
      "noteName": "B4",
      "velocity": 1,
      "duration": "94i"
    },
    {
      "time": "18768i",
      "midiNote": 54,
      "noteName": "F#3",
      "velocity": 0.7244094488188977,
      "duration": "46i"
    },
    {
      "time": "18816i",
      "midiNote": 36,
      "noteName": "C2",
      "velocity": 1,
      "duration": "160i"
    },
    {
      "time": "18816i",
      "midiNote": 35,
      "noteName": "B1",
      "velocity": 0.7244094488188977,
      "duration": "144i"
    },
    {
      "time": "18816i",
      "midiNote": 54,
      "noteName": "F#3",
      "velocity": 0.7244094488188977,
      "duration": "46i"
    },
    {
      "time": "18816i",
      "midiNote": 52,
      "noteName": "E3",
      "velocity": 0.47244094488188976,
      "duration": "32i"
    },
    {
      "time": "18864i",
      "midiNote": 54,
      "noteName": "F#3",
      "velocity": 0.7244094488188977,
      "duration": "46i"
    },
    {
      "time": "18912i",
      "midiNote": 54,
      "noteName": "F#3",
      "velocity": 0.7244094488188977,
      "duration": "46i"
    },
    {
      "time": "18912i",
      "midiNote": 71,
      "noteName": "B4",
      "velocity": 1,
      "duration": "94i"
    },
    {
      "time": "18912i",
      "midiNote": 52,
      "noteName": "E3",
      "velocity": 0.47244094488188976,
      "duration": "32i"
    },
    {
      "time": "18960i",
      "midiNote": 35,
      "noteName": "B1",
      "velocity": 0.7244094488188977,
      "duration": "144i"
    },
    {
      "time": "18960i",
      "midiNote": 54,
      "noteName": "F#3",
      "velocity": 0.7244094488188977,
      "duration": "46i"
    },
    {
      "time": "18960i",
      "midiNote": 52,
      "noteName": "E3",
      "velocity": 0.47244094488188976,
      "duration": "48i"
    },
    {
      "time": "19008i",
      "midiNote": 36,
      "noteName": "C2",
      "velocity": 1,
      "duration": "160i"
    },
    {
      "time": "19008i",
      "midiNote": 54,
      "noteName": "F#3",
      "velocity": 0.7244094488188977,
      "duration": "46i"
    },
    {
      "time": "19008i",
      "midiNote": 39,
      "noteName": "D#2",
      "velocity": 0.8503937007874016,
      "duration": "160i"
    },
    {
      "time": "19008i",
      "midiNote": 69,
      "noteName": "A4",
      "velocity": 1,
      "duration": "94i"
    },
    {
      "time": "19056i",
      "midiNote": 54,
      "noteName": "F#3",
      "velocity": 0.7244094488188977,
      "duration": "46i"
    },
    {
      "time": "19104i",
      "midiNote": 33,
      "noteName": "A1",
      "velocity": 0.7244094488188977,
      "duration": "96i"
    },
    {
      "time": "19104i",
      "midiNote": 54,
      "noteName": "F#3",
      "velocity": 0.7244094488188977,
      "duration": "46i"
    },
    {
      "time": "19104i",
      "midiNote": 71,
      "noteName": "B4",
      "velocity": 1,
      "duration": "94i"
    },
    {
      "time": "19152i",
      "midiNote": 54,
      "noteName": "F#3",
      "velocity": 0.7244094488188977,
      "duration": "46i"
    },
    {
      "time": "19200i",
      "midiNote": 36,
      "noteName": "C2",
      "velocity": 1,
      "duration": "160i"
    },
    {
      "time": "19200i",
      "midiNote": 35,
      "noteName": "B1",
      "velocity": 0.7244094488188977,
      "duration": "144i"
    },
    {
      "time": "19200i",
      "midiNote": 54,
      "noteName": "F#3",
      "velocity": 0.7244094488188977,
      "duration": "46i"
    },
    {
      "time": "19200i",
      "midiNote": 52,
      "noteName": "E3",
      "velocity": 0.47244094488188976,
      "duration": "96i"
    },
    {
      "time": "19248i",
      "midiNote": 54,
      "noteName": "F#3",
      "velocity": 0.7244094488188977,
      "duration": "46i"
    },
    {
      "time": "19296i",
      "midiNote": 54,
      "noteName": "F#3",
      "velocity": 0.7244094488188977,
      "duration": "46i"
    },
    {
      "time": "19296i",
      "midiNote": 71,
      "noteName": "B4",
      "velocity": 1,
      "duration": "94i"
    },
    {
      "time": "19344i",
      "midiNote": 35,
      "noteName": "B1",
      "velocity": 0.7244094488188977,
      "duration": "144i"
    },
    {
      "time": "19344i",
      "midiNote": 54,
      "noteName": "F#3",
      "velocity": 0.7244094488188977,
      "duration": "46i"
    },
    {
      "time": "19392i",
      "midiNote": 36,
      "noteName": "C2",
      "velocity": 1,
      "duration": "160i"
    },
    {
      "time": "19392i",
      "midiNote": 54,
      "noteName": "F#3",
      "velocity": 0.7244094488188977,
      "duration": "46i"
    },
    {
      "time": "19392i",
      "midiNote": 39,
      "noteName": "D#2",
      "velocity": 0.8503937007874016,
      "duration": "160i"
    },
    {
      "time": "19392i",
      "midiNote": 69,
      "noteName": "A4",
      "velocity": 1,
      "duration": "94i"
    },
    {
      "time": "19440i",
      "midiNote": 54,
      "noteName": "F#3",
      "velocity": 0.7244094488188977,
      "duration": "46i"
    },
    {
      "time": "19488i",
      "midiNote": 33,
      "noteName": "A1",
      "velocity": 0.7244094488188977,
      "duration": "96i"
    },
    {
      "time": "19488i",
      "midiNote": 54,
      "noteName": "F#3",
      "velocity": 0.7244094488188977,
      "duration": "46i"
    },
    {
      "time": "19488i",
      "midiNote": 71,
      "noteName": "B4",
      "velocity": 1,
      "duration": "94i"
    },
    {
      "time": "19536i",
      "midiNote": 54,
      "noteName": "F#3",
      "velocity": 0.7244094488188977,
      "duration": "46i"
    },
    {
      "time": "19584i",
      "midiNote": 36,
      "noteName": "C2",
      "velocity": 1,
      "duration": "160i"
    },
    {
      "time": "19584i",
      "midiNote": 35,
      "noteName": "B1",
      "velocity": 0.7244094488188977,
      "duration": "96i"
    },
    {
      "time": "19584i",
      "midiNote": 54,
      "noteName": "F#3",
      "velocity": 0.7244094488188977,
      "duration": "46i"
    },
    {
      "time": "19584i",
      "midiNote": 52,
      "noteName": "E3",
      "velocity": 0.47244094488188976,
      "duration": "32i"
    },
    {
      "time": "19632i",
      "midiNote": 54,
      "noteName": "F#3",
      "velocity": 0.7244094488188977,
      "duration": "46i"
    },
    {
      "time": "19680i",
      "midiNote": 33,
      "noteName": "A1",
      "velocity": 0.7244094488188977,
      "duration": "96i"
    },
    {
      "time": "19680i",
      "midiNote": 54,
      "noteName": "F#3",
      "velocity": 0.7244094488188977,
      "duration": "46i"
    },
    {
      "time": "19680i",
      "midiNote": 71,
      "noteName": "B4",
      "velocity": 1,
      "duration": "94i"
    },
    {
      "time": "19680i",
      "midiNote": 52,
      "noteName": "E3",
      "velocity": 0.47244094488188976,
      "duration": "32i"
    },
    {
      "time": "19728i",
      "midiNote": 54,
      "noteName": "F#3",
      "velocity": 0.7244094488188977,
      "duration": "46i"
    },
    {
      "time": "19728i",
      "midiNote": 52,
      "noteName": "E3",
      "velocity": 0.47244094488188976,
      "duration": "48i"
    },
    {
      "time": "19776i",
      "midiNote": 36,
      "noteName": "C2",
      "velocity": 1,
      "duration": "160i"
    },
    {
      "time": "19776i",
      "midiNote": 35,
      "noteName": "B1",
      "velocity": 0.7244094488188977,
      "duration": "48i"
    },
    {
      "time": "19776i",
      "midiNote": 54,
      "noteName": "F#3",
      "velocity": 0.7244094488188977,
      "duration": "46i"
    },
    {
      "time": "19776i",
      "midiNote": 39,
      "noteName": "D#2",
      "velocity": 0.8503937007874016,
      "duration": "160i"
    },
    {
      "time": "19776i",
      "midiNote": 72,
      "noteName": "C5",
      "velocity": 1,
      "duration": "94i"
    },
    {
      "time": "19824i",
      "midiNote": 36,
      "noteName": "C2",
      "velocity": 0.7244094488188977,
      "duration": "48i"
    },
    {
      "time": "19824i",
      "midiNote": 54,
      "noteName": "F#3",
      "velocity": 0.7244094488188977,
      "duration": "46i"
    },
    {
      "time": "19872i",
      "midiNote": 37,
      "noteName": "C#2",
      "velocity": 0.7244094488188977,
      "duration": "96i"
    },
    {
      "time": "19872i",
      "midiNote": 54,
      "noteName": "F#3",
      "velocity": 0.7244094488188977,
      "duration": "46i"
    },
    {
      "time": "19872i",
      "midiNote": 71,
      "noteName": "B4",
      "velocity": 1,
      "duration": "94i"
    },
    {
      "time": "19920i",
      "midiNote": 54,
      "noteName": "F#3",
      "velocity": 0.7244094488188977,
      "duration": "46i"
    },
    {
      "time": "19968i",
      "midiNote": 36,
      "noteName": "C2",
      "velocity": 1,
      "duration": "160i"
    },
    {
      "time": "19968i",
      "midiNote": 35,
      "noteName": "B1",
      "velocity": 0.7244094488188977,
      "duration": "144i"
    },
    {
      "time": "19968i",
      "midiNote": 54,
      "noteName": "F#3",
      "velocity": 0.7244094488188977,
      "duration": "46i"
    },
    {
      "time": "19968i",
      "midiNote": 52,
      "noteName": "E3",
      "velocity": 0.47244094488188976,
      "duration": "96i"
    },
    {
      "time": "20016i",
      "midiNote": 54,
      "noteName": "F#3",
      "velocity": 0.7244094488188977,
      "duration": "46i"
    },
    {
      "time": "20064i",
      "midiNote": 54,
      "noteName": "F#3",
      "velocity": 0.7244094488188977,
      "duration": "46i"
    },
    {
      "time": "20064i",
      "midiNote": 71,
      "noteName": "B4",
      "velocity": 1,
      "duration": "94i"
    },
    {
      "time": "20112i",
      "midiNote": 35,
      "noteName": "B1",
      "velocity": 0.7244094488188977,
      "duration": "144i"
    },
    {
      "time": "20112i",
      "midiNote": 54,
      "noteName": "F#3",
      "velocity": 0.7244094488188977,
      "duration": "46i"
    },
    {
      "time": "20160i",
      "midiNote": 36,
      "noteName": "C2",
      "velocity": 1,
      "duration": "160i"
    },
    {
      "time": "20160i",
      "midiNote": 54,
      "noteName": "F#3",
      "velocity": 0.7244094488188977,
      "duration": "46i"
    },
    {
      "time": "20160i",
      "midiNote": 39,
      "noteName": "D#2",
      "velocity": 0.8503937007874016,
      "duration": "160i"
    },
    {
      "time": "20160i",
      "midiNote": 69,
      "noteName": "A4",
      "velocity": 1,
      "duration": "94i"
    },
    {
      "time": "20208i",
      "midiNote": 54,
      "noteName": "F#3",
      "velocity": 0.7244094488188977,
      "duration": "46i"
    },
    {
      "time": "20256i",
      "midiNote": 33,
      "noteName": "A1",
      "velocity": 0.7244094488188977,
      "duration": "96i"
    },
    {
      "time": "20256i",
      "midiNote": 54,
      "noteName": "F#3",
      "velocity": 0.7244094488188977,
      "duration": "46i"
    },
    {
      "time": "20256i",
      "midiNote": 71,
      "noteName": "B4",
      "velocity": 1,
      "duration": "94i"
    },
    {
      "time": "20304i",
      "midiNote": 54,
      "noteName": "F#3",
      "velocity": 0.7244094488188977,
      "duration": "46i"
    },
    {
      "time": "20352i",
      "midiNote": 36,
      "noteName": "C2",
      "velocity": 1,
      "duration": "160i"
    },
    {
      "time": "20352i",
      "midiNote": 35,
      "noteName": "B1",
      "velocity": 0.7244094488188977,
      "duration": "144i"
    },
    {
      "time": "20352i",
      "midiNote": 54,
      "noteName": "F#3",
      "velocity": 0.7244094488188977,
      "duration": "46i"
    },
    {
      "time": "20352i",
      "midiNote": 52,
      "noteName": "E3",
      "velocity": 0.47244094488188976,
      "duration": "32i"
    },
    {
      "time": "20400i",
      "midiNote": 54,
      "noteName": "F#3",
      "velocity": 0.7244094488188977,
      "duration": "46i"
    },
    {
      "time": "20448i",
      "midiNote": 54,
      "noteName": "F#3",
      "velocity": 0.7244094488188977,
      "duration": "46i"
    },
    {
      "time": "20448i",
      "midiNote": 71,
      "noteName": "B4",
      "velocity": 1,
      "duration": "94i"
    },
    {
      "time": "20448i",
      "midiNote": 52,
      "noteName": "E3",
      "velocity": 0.47244094488188976,
      "duration": "32i"
    },
    {
      "time": "20496i",
      "midiNote": 35,
      "noteName": "B1",
      "velocity": 0.7244094488188977,
      "duration": "144i"
    },
    {
      "time": "20496i",
      "midiNote": 54,
      "noteName": "F#3",
      "velocity": 0.7244094488188977,
      "duration": "46i"
    },
    {
      "time": "20496i",
      "midiNote": 52,
      "noteName": "E3",
      "velocity": 0.47244094488188976,
      "duration": "48i"
    },
    {
      "time": "20544i",
      "midiNote": 36,
      "noteName": "C2",
      "velocity": 1,
      "duration": "160i"
    },
    {
      "time": "20544i",
      "midiNote": 54,
      "noteName": "F#3",
      "velocity": 0.7244094488188977,
      "duration": "46i"
    },
    {
      "time": "20544i",
      "midiNote": 39,
      "noteName": "D#2",
      "velocity": 0.8503937007874016,
      "duration": "160i"
    },
    {
      "time": "20544i",
      "midiNote": 69,
      "noteName": "A4",
      "velocity": 1,
      "duration": "94i"
    },
    {
      "time": "20592i",
      "midiNote": 54,
      "noteName": "F#3",
      "velocity": 0.7244094488188977,
      "duration": "46i"
    },
    {
      "time": "20640i",
      "midiNote": 33,
      "noteName": "A1",
      "velocity": 0.7244094488188977,
      "duration": "96i"
    },
    {
      "time": "20640i",
      "midiNote": 54,
      "noteName": "F#3",
      "velocity": 0.7244094488188977,
      "duration": "46i"
    },
    {
      "time": "20640i",
      "midiNote": 71,
      "noteName": "B4",
      "velocity": 1,
      "duration": "94i"
    },
    {
      "time": "20688i",
      "midiNote": 54,
      "noteName": "F#3",
      "velocity": 0.7244094488188977,
      "duration": "46i"
    },
    {
      "time": "20736i",
      "midiNote": 36,
      "noteName": "C2",
      "velocity": 1,
      "duration": "160i"
    },
    {
      "time": "20736i",
      "midiNote": 35,
      "noteName": "B1",
      "velocity": 0.7244094488188977,
      "duration": "144i"
    },
    {
      "time": "20736i",
      "midiNote": 54,
      "noteName": "F#3",
      "velocity": 0.7244094488188977,
      "duration": "46i"
    },
    {
      "time": "20736i",
      "midiNote": 52,
      "noteName": "E3",
      "velocity": 0.47244094488188976,
      "duration": "96i"
    },
    {
      "time": "20784i",
      "midiNote": 54,
      "noteName": "F#3",
      "velocity": 0.7244094488188977,
      "duration": "46i"
    },
    {
      "time": "20832i",
      "midiNote": 54,
      "noteName": "F#3",
      "velocity": 0.7244094488188977,
      "duration": "46i"
    },
    {
      "time": "20832i",
      "midiNote": 71,
      "noteName": "B4",
      "velocity": 1,
      "duration": "94i"
    },
    {
      "time": "20880i",
      "midiNote": 35,
      "noteName": "B1",
      "velocity": 0.7244094488188977,
      "duration": "144i"
    },
    {
      "time": "20880i",
      "midiNote": 54,
      "noteName": "F#3",
      "velocity": 0.7244094488188977,
      "duration": "46i"
    },
    {
      "time": "20928i",
      "midiNote": 36,
      "noteName": "C2",
      "velocity": 1,
      "duration": "160i"
    },
    {
      "time": "20928i",
      "midiNote": 54,
      "noteName": "F#3",
      "velocity": 0.7244094488188977,
      "duration": "46i"
    },
    {
      "time": "20928i",
      "midiNote": 39,
      "noteName": "D#2",
      "velocity": 0.8503937007874016,
      "duration": "160i"
    },
    {
      "time": "20928i",
      "midiNote": 69,
      "noteName": "A4",
      "velocity": 1,
      "duration": "94i"
    },
    {
      "time": "20976i",
      "midiNote": 54,
      "noteName": "F#3",
      "velocity": 0.7244094488188977,
      "duration": "46i"
    },
    {
      "time": "21024i",
      "midiNote": 33,
      "noteName": "A1",
      "velocity": 0.7244094488188977,
      "duration": "96i"
    },
    {
      "time": "21024i",
      "midiNote": 54,
      "noteName": "F#3",
      "velocity": 0.7244094488188977,
      "duration": "46i"
    },
    {
      "time": "21024i",
      "midiNote": 71,
      "noteName": "B4",
      "velocity": 1,
      "duration": "94i"
    },
    {
      "time": "21072i",
      "midiNote": 54,
      "noteName": "F#3",
      "velocity": 0.7244094488188977,
      "duration": "46i"
    },
    {
      "time": "21120i",
      "midiNote": 36,
      "noteName": "C2",
      "velocity": 1,
      "duration": "160i"
    },
    {
      "time": "21120i",
      "midiNote": 35,
      "noteName": "B1",
      "velocity": 0.7244094488188977,
      "duration": "96i"
    },
    {
      "time": "21120i",
      "midiNote": 54,
      "noteName": "F#3",
      "velocity": 0.7244094488188977,
      "duration": "46i"
    },
    {
      "time": "21120i",
      "midiNote": 52,
      "noteName": "E3",
      "velocity": 0.47244094488188976,
      "duration": "32i"
    },
    {
      "time": "21168i",
      "midiNote": 54,
      "noteName": "F#3",
      "velocity": 0.7244094488188977,
      "duration": "46i"
    },
    {
      "time": "21216i",
      "midiNote": 33,
      "noteName": "A1",
      "velocity": 0.7244094488188977,
      "duration": "96i"
    },
    {
      "time": "21216i",
      "midiNote": 54,
      "noteName": "F#3",
      "velocity": 0.7244094488188977,
      "duration": "46i"
    },
    {
      "time": "21216i",
      "midiNote": 69,
      "noteName": "A4",
      "velocity": 1,
      "duration": "94i"
    },
    {
      "time": "21216i",
      "midiNote": 52,
      "noteName": "E3",
      "velocity": 0.47244094488188976,
      "duration": "32i"
    },
    {
      "time": "21264i",
      "midiNote": 54,
      "noteName": "F#3",
      "velocity": 0.7244094488188977,
      "duration": "46i"
    },
    {
      "time": "21264i",
      "midiNote": 52,
      "noteName": "E3",
      "velocity": 0.47244094488188976,
      "duration": "48i"
    },
    {
      "time": "21312i",
      "midiNote": 36,
      "noteName": "C2",
      "velocity": 1,
      "duration": "160i"
    },
    {
      "time": "21312i",
      "midiNote": 35,
      "noteName": "B1",
      "velocity": 0.7244094488188977,
      "duration": "48i"
    },
    {
      "time": "21312i",
      "midiNote": 54,
      "noteName": "F#3",
      "velocity": 0.7244094488188977,
      "duration": "46i"
    },
    {
      "time": "21312i",
      "midiNote": 39,
      "noteName": "D#2",
      "velocity": 0.8503937007874016,
      "duration": "160i"
    },
    {
      "time": "21312i",
      "midiNote": 72,
      "noteName": "C5",
      "velocity": 1,
      "duration": "94i"
    },
    {
      "time": "21360i",
      "midiNote": 36,
      "noteName": "C2",
      "velocity": 0.7244094488188977,
      "duration": "48i"
    },
    {
      "time": "21360i",
      "midiNote": 54,
      "noteName": "F#3",
      "velocity": 0.7244094488188977,
      "duration": "46i"
    },
    {
      "time": "21408i",
      "midiNote": 37,
      "noteName": "C#2",
      "velocity": 0.7244094488188977,
      "duration": "96i"
    },
    {
      "time": "21408i",
      "midiNote": 54,
      "noteName": "F#3",
      "velocity": 0.7244094488188977,
      "duration": "46i"
    },
    {
      "time": "21408i",
      "midiNote": 71,
      "noteName": "B4",
      "velocity": 1,
      "duration": "94i"
    },
    {
      "time": "21456i",
      "midiNote": 54,
      "noteName": "F#3",
      "velocity": 0.7244094488188977,
      "duration": "46i"
    },
    {
      "time": "21504i",
      "midiNote": 36,
      "noteName": "C2",
      "velocity": 1,
      "duration": "160i"
    },
    {
      "time": "21504i",
      "midiNote": 35,
      "noteName": "B1",
      "velocity": 0.7244094488188977,
      "duration": "144i"
    },
    {
      "time": "21504i",
      "midiNote": 54,
      "noteName": "F#3",
      "velocity": 0.7244094488188977,
      "duration": "46i"
    },
    {
      "time": "21504i",
      "midiNote": 52,
      "noteName": "E3",
      "velocity": 0.47244094488188976,
      "duration": "96i"
    },
    {
      "time": "21552i",
      "midiNote": 54,
      "noteName": "F#3",
      "velocity": 0.7244094488188977,
      "duration": "46i"
    },
    {
      "time": "21600i",
      "midiNote": 54,
      "noteName": "F#3",
      "velocity": 0.7244094488188977,
      "duration": "46i"
    },
    {
      "time": "21600i",
      "midiNote": 71,
      "noteName": "B4",
      "velocity": 1,
      "duration": "94i"
    },
    {
      "time": "21648i",
      "midiNote": 35,
      "noteName": "B1",
      "velocity": 0.7244094488188977,
      "duration": "144i"
    },
    {
      "time": "21648i",
      "midiNote": 54,
      "noteName": "F#3",
      "velocity": 0.7244094488188977,
      "duration": "46i"
    },
    {
      "time": "21696i",
      "midiNote": 36,
      "noteName": "C2",
      "velocity": 1,
      "duration": "160i"
    },
    {
      "time": "21696i",
      "midiNote": 54,
      "noteName": "F#3",
      "velocity": 0.7244094488188977,
      "duration": "46i"
    },
    {
      "time": "21696i",
      "midiNote": 39,
      "noteName": "D#2",
      "velocity": 0.8503937007874016,
      "duration": "160i"
    },
    {
      "time": "21696i",
      "midiNote": 69,
      "noteName": "A4",
      "velocity": 1,
      "duration": "94i"
    },
    {
      "time": "21744i",
      "midiNote": 54,
      "noteName": "F#3",
      "velocity": 0.7244094488188977,
      "duration": "46i"
    },
    {
      "time": "21792i",
      "midiNote": 33,
      "noteName": "A1",
      "velocity": 0.7244094488188977,
      "duration": "96i"
    },
    {
      "time": "21792i",
      "midiNote": 54,
      "noteName": "F#3",
      "velocity": 0.7244094488188977,
      "duration": "46i"
    },
    {
      "time": "21792i",
      "midiNote": 71,
      "noteName": "B4",
      "velocity": 1,
      "duration": "94i"
    },
    {
      "time": "21840i",
      "midiNote": 54,
      "noteName": "F#3",
      "velocity": 0.7244094488188977,
      "duration": "46i"
    },
    {
      "time": "21888i",
      "midiNote": 36,
      "noteName": "C2",
      "velocity": 1,
      "duration": "160i"
    },
    {
      "time": "21888i",
      "midiNote": 35,
      "noteName": "B1",
      "velocity": 0.7244094488188977,
      "duration": "144i"
    },
    {
      "time": "21888i",
      "midiNote": 54,
      "noteName": "F#3",
      "velocity": 0.7244094488188977,
      "duration": "46i"
    },
    {
      "time": "21888i",
      "midiNote": 52,
      "noteName": "E3",
      "velocity": 0.47244094488188976,
      "duration": "32i"
    },
    {
      "time": "21936i",
      "midiNote": 54,
      "noteName": "F#3",
      "velocity": 0.7244094488188977,
      "duration": "46i"
    },
    {
      "time": "21984i",
      "midiNote": 54,
      "noteName": "F#3",
      "velocity": 0.7244094488188977,
      "duration": "46i"
    },
    {
      "time": "21984i",
      "midiNote": 71,
      "noteName": "B4",
      "velocity": 1,
      "duration": "94i"
    },
    {
      "time": "21984i",
      "midiNote": 52,
      "noteName": "E3",
      "velocity": 0.47244094488188976,
      "duration": "32i"
    },
    {
      "time": "22032i",
      "midiNote": 35,
      "noteName": "B1",
      "velocity": 0.7244094488188977,
      "duration": "144i"
    },
    {
      "time": "22032i",
      "midiNote": 54,
      "noteName": "F#3",
      "velocity": 0.7244094488188977,
      "duration": "46i"
    },
    {
      "time": "22032i",
      "midiNote": 52,
      "noteName": "E3",
      "velocity": 0.47244094488188976,
      "duration": "48i"
    },
    {
      "time": "22080i",
      "midiNote": 36,
      "noteName": "C2",
      "velocity": 1,
      "duration": "160i"
    },
    {
      "time": "22080i",
      "midiNote": 54,
      "noteName": "F#3",
      "velocity": 0.7244094488188977,
      "duration": "46i"
    },
    {
      "time": "22080i",
      "midiNote": 39,
      "noteName": "D#2",
      "velocity": 0.8503937007874016,
      "duration": "160i"
    },
    {
      "time": "22080i",
      "midiNote": 69,
      "noteName": "A4",
      "velocity": 1,
      "duration": "94i"
    },
    {
      "time": "22128i",
      "midiNote": 54,
      "noteName": "F#3",
      "velocity": 0.7244094488188977,
      "duration": "46i"
    },
    {
      "time": "22176i",
      "midiNote": 33,
      "noteName": "A1",
      "velocity": 0.7244094488188977,
      "duration": "96i"
    },
    {
      "time": "22176i",
      "midiNote": 54,
      "noteName": "F#3",
      "velocity": 0.7244094488188977,
      "duration": "46i"
    },
    {
      "time": "22176i",
      "midiNote": 71,
      "noteName": "B4",
      "velocity": 1,
      "duration": "94i"
    },
    {
      "time": "22224i",
      "midiNote": 54,
      "noteName": "F#3",
      "velocity": 0.7244094488188977,
      "duration": "46i"
    },
    {
      "time": "22272i",
      "midiNote": 36,
      "noteName": "C2",
      "velocity": 1,
      "duration": "160i"
    },
    {
      "time": "22272i",
      "midiNote": 35,
      "noteName": "B1",
      "velocity": 0.7244094488188977,
      "duration": "144i"
    },
    {
      "time": "22272i",
      "midiNote": 54,
      "noteName": "F#3",
      "velocity": 0.7244094488188977,
      "duration": "46i"
    },
    {
      "time": "22272i",
      "midiNote": 52,
      "noteName": "E3",
      "velocity": 0.47244094488188976,
      "duration": "96i"
    },
    {
      "time": "22320i",
      "midiNote": 54,
      "noteName": "F#3",
      "velocity": 0.7244094488188977,
      "duration": "46i"
    },
    {
      "time": "22368i",
      "midiNote": 54,
      "noteName": "F#3",
      "velocity": 0.7244094488188977,
      "duration": "46i"
    },
    {
      "time": "22368i",
      "midiNote": 71,
      "noteName": "B4",
      "velocity": 1,
      "duration": "94i"
    },
    {
      "time": "22416i",
      "midiNote": 35,
      "noteName": "B1",
      "velocity": 0.7244094488188977,
      "duration": "144i"
    },
    {
      "time": "22416i",
      "midiNote": 54,
      "noteName": "F#3",
      "velocity": 0.7244094488188977,
      "duration": "46i"
    },
    {
      "time": "22464i",
      "midiNote": 36,
      "noteName": "C2",
      "velocity": 1,
      "duration": "160i"
    },
    {
      "time": "22464i",
      "midiNote": 54,
      "noteName": "F#3",
      "velocity": 0.7244094488188977,
      "duration": "46i"
    },
    {
      "time": "22464i",
      "midiNote": 39,
      "noteName": "D#2",
      "velocity": 0.8503937007874016,
      "duration": "160i"
    },
    {
      "time": "22464i",
      "midiNote": 69,
      "noteName": "A4",
      "velocity": 1,
      "duration": "94i"
    },
    {
      "time": "22512i",
      "midiNote": 54,
      "noteName": "F#3",
      "velocity": 0.7244094488188977,
      "duration": "46i"
    },
    {
      "time": "22560i",
      "midiNote": 33,
      "noteName": "A1",
      "velocity": 0.7244094488188977,
      "duration": "96i"
    },
    {
      "time": "22560i",
      "midiNote": 54,
      "noteName": "F#3",
      "velocity": 0.7244094488188977,
      "duration": "46i"
    },
    {
      "time": "22560i",
      "midiNote": 71,
      "noteName": "B4",
      "velocity": 1,
      "duration": "94i"
    },
    {
      "time": "22608i",
      "midiNote": 54,
      "noteName": "F#3",
      "velocity": 0.7244094488188977,
      "duration": "46i"
    },
    {
      "time": "22656i",
      "midiNote": 36,
      "noteName": "C2",
      "velocity": 1,
      "duration": "160i"
    },
    {
      "time": "22656i",
      "midiNote": 35,
      "noteName": "B1",
      "velocity": 0.7244094488188977,
      "duration": "96i"
    },
    {
      "time": "22656i",
      "midiNote": 54,
      "noteName": "F#3",
      "velocity": 0.7244094488188977,
      "duration": "46i"
    },
    {
      "time": "22656i",
      "midiNote": 52,
      "noteName": "E3",
      "velocity": 0.47244094488188976,
      "duration": "32i"
    },
    {
      "time": "22704i",
      "midiNote": 54,
      "noteName": "F#3",
      "velocity": 0.7244094488188977,
      "duration": "46i"
    },
    {
      "time": "22752i",
      "midiNote": 33,
      "noteName": "A1",
      "velocity": 0.7244094488188977,
      "duration": "96i"
    },
    {
      "time": "22752i",
      "midiNote": 54,
      "noteName": "F#3",
      "velocity": 0.7244094488188977,
      "duration": "46i"
    },
    {
      "time": "22752i",
      "midiNote": 71,
      "noteName": "B4",
      "velocity": 1,
      "duration": "94i"
    },
    {
      "time": "22752i",
      "midiNote": 52,
      "noteName": "E3",
      "velocity": 0.47244094488188976,
      "duration": "32i"
    },
    {
      "time": "22800i",
      "midiNote": 54,
      "noteName": "F#3",
      "velocity": 0.7244094488188977,
      "duration": "46i"
    },
    {
      "time": "22800i",
      "midiNote": 52,
      "noteName": "E3",
      "velocity": 0.47244094488188976,
      "duration": "48i"
    },
    {
      "time": "22848i",
      "midiNote": 36,
      "noteName": "C2",
      "velocity": 1,
      "duration": "160i"
    },
    {
      "time": "22848i",
      "midiNote": 35,
      "noteName": "B1",
      "velocity": 0.7244094488188977,
      "duration": "48i"
    },
    {
      "time": "22848i",
      "midiNote": 54,
      "noteName": "F#3",
      "velocity": 0.7244094488188977,
      "duration": "46i"
    },
    {
      "time": "22848i",
      "midiNote": 39,
      "noteName": "D#2",
      "velocity": 0.8503937007874016,
      "duration": "160i"
    },
    {
      "time": "22848i",
      "midiNote": 72,
      "noteName": "C5",
      "velocity": 1,
      "duration": "94i"
    },
    {
      "time": "22896i",
      "midiNote": 36,
      "noteName": "C2",
      "velocity": 0.7244094488188977,
      "duration": "48i"
    },
    {
      "time": "22896i",
      "midiNote": 54,
      "noteName": "F#3",
      "velocity": 0.7244094488188977,
      "duration": "46i"
    },
    {
      "time": "22944i",
      "midiNote": 37,
      "noteName": "C#2",
      "velocity": 0.7244094488188977,
      "duration": "96i"
    },
    {
      "time": "22944i",
      "midiNote": 54,
      "noteName": "F#3",
      "velocity": 0.7244094488188977,
      "duration": "46i"
    },
    {
      "time": "22944i",
      "midiNote": 71,
      "noteName": "B4",
      "velocity": 1,
      "duration": "94i"
    },
    {
      "time": "22992i",
      "midiNote": 54,
      "noteName": "F#3",
      "velocity": 0.7244094488188977,
      "duration": "46i"
    },
    {
      "time": "23040i",
      "midiNote": 36,
      "noteName": "C2",
      "velocity": 1,
      "duration": "160i"
    },
    {
      "time": "23040i",
      "midiNote": 35,
      "noteName": "B1",
      "velocity": 0.7244094488188977,
      "duration": "144i"
    },
    {
      "time": "23040i",
      "midiNote": 54,
      "noteName": "F#3",
      "velocity": 0.7244094488188977,
      "duration": "46i"
    },
    {
      "time": "23040i",
      "midiNote": 52,
      "noteName": "E3",
      "velocity": 0.47244094488188976,
      "duration": "96i"
    },
    {
      "time": "23088i",
      "midiNote": 54,
      "noteName": "F#3",
      "velocity": 0.7244094488188977,
      "duration": "46i"
    },
    {
      "time": "23136i",
      "midiNote": 54,
      "noteName": "F#3",
      "velocity": 0.7244094488188977,
      "duration": "46i"
    },
    {
      "time": "23136i",
      "midiNote": 71,
      "noteName": "B4",
      "velocity": 1,
      "duration": "94i"
    },
    {
      "time": "23184i",
      "midiNote": 35,
      "noteName": "B1",
      "velocity": 0.7244094488188977,
      "duration": "144i"
    },
    {
      "time": "23184i",
      "midiNote": 54,
      "noteName": "F#3",
      "velocity": 0.7244094488188977,
      "duration": "46i"
    },
    {
      "time": "23232i",
      "midiNote": 36,
      "noteName": "C2",
      "velocity": 1,
      "duration": "160i"
    },
    {
      "time": "23232i",
      "midiNote": 54,
      "noteName": "F#3",
      "velocity": 0.7244094488188977,
      "duration": "46i"
    },
    {
      "time": "23232i",
      "midiNote": 39,
      "noteName": "D#2",
      "velocity": 0.8503937007874016,
      "duration": "160i"
    },
    {
      "time": "23232i",
      "midiNote": 69,
      "noteName": "A4",
      "velocity": 1,
      "duration": "94i"
    },
    {
      "time": "23280i",
      "midiNote": 54,
      "noteName": "F#3",
      "velocity": 0.7244094488188977,
      "duration": "46i"
    },
    {
      "time": "23328i",
      "midiNote": 33,
      "noteName": "A1",
      "velocity": 0.7244094488188977,
      "duration": "96i"
    },
    {
      "time": "23328i",
      "midiNote": 54,
      "noteName": "F#3",
      "velocity": 0.7244094488188977,
      "duration": "46i"
    },
    {
      "time": "23328i",
      "midiNote": 71,
      "noteName": "B4",
      "velocity": 1,
      "duration": "94i"
    },
    {
      "time": "23376i",
      "midiNote": 54,
      "noteName": "F#3",
      "velocity": 0.7244094488188977,
      "duration": "46i"
    },
    {
      "time": "23424i",
      "midiNote": 36,
      "noteName": "C2",
      "velocity": 1,
      "duration": "160i"
    },
    {
      "time": "23424i",
      "midiNote": 35,
      "noteName": "B1",
      "velocity": 0.7244094488188977,
      "duration": "144i"
    },
    {
      "time": "23424i",
      "midiNote": 54,
      "noteName": "F#3",
      "velocity": 0.7244094488188977,
      "duration": "46i"
    },
    {
      "time": "23424i",
      "midiNote": 52,
      "noteName": "E3",
      "velocity": 0.47244094488188976,
      "duration": "32i"
    },
    {
      "time": "23472i",
      "midiNote": 54,
      "noteName": "F#3",
      "velocity": 0.7244094488188977,
      "duration": "46i"
    },
    {
      "time": "23520i",
      "midiNote": 54,
      "noteName": "F#3",
      "velocity": 0.7244094488188977,
      "duration": "46i"
    },
    {
      "time": "23520i",
      "midiNote": 71,
      "noteName": "B4",
      "velocity": 1,
      "duration": "94i"
    },
    {
      "time": "23520i",
      "midiNote": 52,
      "noteName": "E3",
      "velocity": 0.47244094488188976,
      "duration": "32i"
    },
    {
      "time": "23568i",
      "midiNote": 35,
      "noteName": "B1",
      "velocity": 0.7244094488188977,
      "duration": "144i"
    },
    {
      "time": "23568i",
      "midiNote": 54,
      "noteName": "F#3",
      "velocity": 0.7244094488188977,
      "duration": "46i"
    },
    {
      "time": "23568i",
      "midiNote": 52,
      "noteName": "E3",
      "velocity": 0.47244094488188976,
      "duration": "48i"
    },
    {
      "time": "23616i",
      "midiNote": 36,
      "noteName": "C2",
      "velocity": 1,
      "duration": "160i"
    },
    {
      "time": "23616i",
      "midiNote": 54,
      "noteName": "F#3",
      "velocity": 0.7244094488188977,
      "duration": "46i"
    },
    {
      "time": "23616i",
      "midiNote": 39,
      "noteName": "D#2",
      "velocity": 0.8503937007874016,
      "duration": "160i"
    },
    {
      "time": "23616i",
      "midiNote": 69,
      "noteName": "A4",
      "velocity": 1,
      "duration": "94i"
    },
    {
      "time": "23664i",
      "midiNote": 54,
      "noteName": "F#3",
      "velocity": 0.7244094488188977,
      "duration": "46i"
    },
    {
      "time": "23712i",
      "midiNote": 33,
      "noteName": "A1",
      "velocity": 0.7244094488188977,
      "duration": "96i"
    },
    {
      "time": "23712i",
      "midiNote": 54,
      "noteName": "F#3",
      "velocity": 0.7244094488188977,
      "duration": "46i"
    },
    {
      "time": "23712i",
      "midiNote": 71,
      "noteName": "B4",
      "velocity": 1,
      "duration": "94i"
    },
    {
      "time": "23760i",
      "midiNote": 54,
      "noteName": "F#3",
      "velocity": 0.7244094488188977,
      "duration": "46i"
    },
    {
      "time": "23808i",
      "midiNote": 36,
      "noteName": "C2",
      "velocity": 1,
      "duration": "160i"
    },
    {
      "time": "23808i",
      "midiNote": 35,
      "noteName": "B1",
      "velocity": 0.7244094488188977,
      "duration": "144i"
    },
    {
      "time": "23808i",
      "midiNote": 54,
      "noteName": "F#3",
      "velocity": 0.7244094488188977,
      "duration": "46i"
    },
    {
      "time": "23808i",
      "midiNote": 52,
      "noteName": "E3",
      "velocity": 0.47244094488188976,
      "duration": "96i"
    },
    {
      "time": "23856i",
      "midiNote": 54,
      "noteName": "F#3",
      "velocity": 0.7244094488188977,
      "duration": "46i"
    },
    {
      "time": "23904i",
      "midiNote": 54,
      "noteName": "F#3",
      "velocity": 0.7244094488188977,
      "duration": "46i"
    },
    {
      "time": "23904i",
      "midiNote": 71,
      "noteName": "B4",
      "velocity": 1,
      "duration": "94i"
    },
    {
      "time": "23952i",
      "midiNote": 35,
      "noteName": "B1",
      "velocity": 0.7244094488188977,
      "duration": "144i"
    },
    {
      "time": "23952i",
      "midiNote": 54,
      "noteName": "F#3",
      "velocity": 0.7244094488188977,
      "duration": "46i"
    },
    {
      "time": "24000i",
      "midiNote": 36,
      "noteName": "C2",
      "velocity": 1,
      "duration": "160i"
    },
    {
      "time": "24000i",
      "midiNote": 54,
      "noteName": "F#3",
      "velocity": 0.7244094488188977,
      "duration": "46i"
    },
    {
      "time": "24000i",
      "midiNote": 39,
      "noteName": "D#2",
      "velocity": 0.8503937007874016,
      "duration": "160i"
    },
    {
      "time": "24000i",
      "midiNote": 69,
      "noteName": "A4",
      "velocity": 1,
      "duration": "94i"
    },
    {
      "time": "24048i",
      "midiNote": 54,
      "noteName": "F#3",
      "velocity": 0.7244094488188977,
      "duration": "46i"
    },
    {
      "time": "24096i",
      "midiNote": 33,
      "noteName": "A1",
      "velocity": 0.7244094488188977,
      "duration": "96i"
    },
    {
      "time": "24096i",
      "midiNote": 54,
      "noteName": "F#3",
      "velocity": 0.7244094488188977,
      "duration": "46i"
    },
    {
      "time": "24096i",
      "midiNote": 71,
      "noteName": "B4",
      "velocity": 1,
      "duration": "94i"
    },
    {
      "time": "24144i",
      "midiNote": 54,
      "noteName": "F#3",
      "velocity": 0.7244094488188977,
      "duration": "46i"
    },
    {
      "time": "24192i",
      "midiNote": 36,
      "noteName": "C2",
      "velocity": 1,
      "duration": "160i"
    },
    {
      "time": "24192i",
      "midiNote": 35,
      "noteName": "B1",
      "velocity": 0.7244094488188977,
      "duration": "96i"
    },
    {
      "time": "24192i",
      "midiNote": 54,
      "noteName": "F#3",
      "velocity": 0.7244094488188977,
      "duration": "46i"
    },
    {
      "time": "24192i",
      "midiNote": 52,
      "noteName": "E3",
      "velocity": 0.47244094488188976,
      "duration": "32i"
    },
    {
      "time": "24240i",
      "midiNote": 54,
      "noteName": "F#3",
      "velocity": 0.7244094488188977,
      "duration": "46i"
    },
    {
      "time": "24288i",
      "midiNote": 33,
      "noteName": "A1",
      "velocity": 0.7244094488188977,
      "duration": "96i"
    },
    {
      "time": "24288i",
      "midiNote": 54,
      "noteName": "F#3",
      "velocity": 0.7244094488188977,
      "duration": "46i"
    },
    {
      "time": "24288i",
      "midiNote": 69,
      "noteName": "A4",
      "velocity": 1,
      "duration": "94i"
    },
    {
      "time": "24288i",
      "midiNote": 52,
      "noteName": "E3",
      "velocity": 0.47244094488188976,
      "duration": "32i"
    },
    {
      "time": "24336i",
      "midiNote": 54,
      "noteName": "F#3",
      "velocity": 0.7244094488188977,
      "duration": "46i"
    },
    {
      "time": "24336i",
      "midiNote": 52,
      "noteName": "E3",
      "velocity": 0.47244094488188976,
      "duration": "48i"
    },
    {
      "time": "24384i",
      "midiNote": 36,
      "noteName": "C2",
      "velocity": 1,
      "duration": "160i"
    },
    {
      "time": "24384i",
      "midiNote": 35,
      "noteName": "B1",
      "velocity": 0.7244094488188977,
      "duration": "48i"
    },
    {
      "time": "24384i",
      "midiNote": 54,
      "noteName": "F#3",
      "velocity": 0.7244094488188977,
      "duration": "46i"
    },
    {
      "time": "24384i",
      "midiNote": 39,
      "noteName": "D#2",
      "velocity": 0.8503937007874016,
      "duration": "160i"
    },
    {
      "time": "24384i",
      "midiNote": 72,
      "noteName": "C5",
      "velocity": 1,
      "duration": "94i"
    },
    {
      "time": "24432i",
      "midiNote": 36,
      "noteName": "C2",
      "velocity": 0.7244094488188977,
      "duration": "48i"
    },
    {
      "time": "24432i",
      "midiNote": 54,
      "noteName": "F#3",
      "velocity": 0.7244094488188977,
      "duration": "46i"
    },
    {
      "time": "24480i",
      "midiNote": 37,
      "noteName": "C#2",
      "velocity": 0.7244094488188977,
      "duration": "96i"
    },
    {
      "time": "24480i",
      "midiNote": 54,
      "noteName": "F#3",
      "velocity": 0.7244094488188977,
      "duration": "46i"
    },
    {
      "time": "24480i",
      "midiNote": 71,
      "noteName": "B4",
      "velocity": 1,
      "duration": "94i"
    },
    {
      "time": "24528i",
      "midiNote": 54,
      "noteName": "F#3",
      "velocity": 0.7244094488188977,
      "duration": "46i"
    },
    {
      "time": "24576i",
      "midiNote": 36,
      "noteName": "C2",
      "velocity": 1,
      "duration": "160i"
    },
    {
      "time": "24576i",
      "midiNote": 57,
      "noteName": "A3",
      "velocity": 1,
      "duration": "160i"
    },
    {
      "time": "24576i",
      "midiNote": 35,
      "noteName": "B1",
      "velocity": 0.7244094488188977,
      "duration": "144i"
    },
    {
      "time": "24576i",
      "midiNote": 54,
      "noteName": "F#3",
      "velocity": 0.7244094488188977,
      "duration": "46i"
    },
    {
      "time": "24576i",
      "midiNote": 52,
      "noteName": "E3",
      "velocity": 0.47244094488188976,
      "duration": "96i"
    },
    {
      "time": "24624i",
      "midiNote": 54,
      "noteName": "F#3",
      "velocity": 0.7244094488188977,
      "duration": "46i"
    },
    {
      "time": "24672i",
      "midiNote": 54,
      "noteName": "F#3",
      "velocity": 0.7244094488188977,
      "duration": "46i"
    },
    {
      "time": "24672i",
      "midiNote": 71,
      "noteName": "B4",
      "velocity": 1,
      "duration": "94i"
    },
    {
      "time": "24720i",
      "midiNote": 35,
      "noteName": "B1",
      "velocity": 0.7244094488188977,
      "duration": "144i"
    },
    {
      "time": "24720i",
      "midiNote": 54,
      "noteName": "F#3",
      "velocity": 0.7244094488188977,
      "duration": "46i"
    },
    {
      "time": "24768i",
      "midiNote": 36,
      "noteName": "C2",
      "velocity": 1,
      "duration": "160i"
    },
    {
      "time": "24768i",
      "midiNote": 54,
      "noteName": "F#3",
      "velocity": 0.7244094488188977,
      "duration": "46i"
    },
    {
      "time": "24768i",
      "midiNote": 39,
      "noteName": "D#2",
      "velocity": 0.8503937007874016,
      "duration": "160i"
    },
    {
      "time": "24768i",
      "midiNote": 69,
      "noteName": "A4",
      "velocity": 1,
      "duration": "94i"
    },
    {
      "time": "24816i",
      "midiNote": 54,
      "noteName": "F#3",
      "velocity": 0.7244094488188977,
      "duration": "46i"
    },
    {
      "time": "24864i",
      "midiNote": 33,
      "noteName": "A1",
      "velocity": 0.7244094488188977,
      "duration": "96i"
    },
    {
      "time": "24864i",
      "midiNote": 54,
      "noteName": "F#3",
      "velocity": 0.7244094488188977,
      "duration": "46i"
    },
    {
      "time": "24864i",
      "midiNote": 71,
      "noteName": "B4",
      "velocity": 1,
      "duration": "94i"
    },
    {
      "time": "24912i",
      "midiNote": 54,
      "noteName": "F#3",
      "velocity": 0.7244094488188977,
      "duration": "46i"
    },
    {
      "time": "24960i",
      "midiNote": 36,
      "noteName": "C2",
      "velocity": 1,
      "duration": "160i"
    },
    {
      "time": "24960i",
      "midiNote": 35,
      "noteName": "B1",
      "velocity": 0.7244094488188977,
      "duration": "144i"
    },
    {
      "time": "24960i",
      "midiNote": 54,
      "noteName": "F#3",
      "velocity": 0.7244094488188977,
      "duration": "46i"
    },
    {
      "time": "24960i",
      "midiNote": 52,
      "noteName": "E3",
      "velocity": 0.47244094488188976,
      "duration": "32i"
    },
    {
      "time": "25008i",
      "midiNote": 54,
      "noteName": "F#3",
      "velocity": 0.7244094488188977,
      "duration": "46i"
    },
    {
      "time": "25056i",
      "midiNote": 54,
      "noteName": "F#3",
      "velocity": 0.7244094488188977,
      "duration": "46i"
    },
    {
      "time": "25056i",
      "midiNote": 71,
      "noteName": "B4",
      "velocity": 1,
      "duration": "94i"
    },
    {
      "time": "25056i",
      "midiNote": 52,
      "noteName": "E3",
      "velocity": 0.47244094488188976,
      "duration": "32i"
    },
    {
      "time": "25104i",
      "midiNote": 35,
      "noteName": "B1",
      "velocity": 0.7244094488188977,
      "duration": "144i"
    },
    {
      "time": "25104i",
      "midiNote": 54,
      "noteName": "F#3",
      "velocity": 0.7244094488188977,
      "duration": "46i"
    },
    {
      "time": "25104i",
      "midiNote": 52,
      "noteName": "E3",
      "velocity": 0.47244094488188976,
      "duration": "48i"
    },
    {
      "time": "25152i",
      "midiNote": 36,
      "noteName": "C2",
      "velocity": 1,
      "duration": "160i"
    },
    {
      "time": "25152i",
      "midiNote": 54,
      "noteName": "F#3",
      "velocity": 0.7244094488188977,
      "duration": "46i"
    },
    {
      "time": "25152i",
      "midiNote": 39,
      "noteName": "D#2",
      "velocity": 0.8503937007874016,
      "duration": "160i"
    },
    {
      "time": "25152i",
      "midiNote": 69,
      "noteName": "A4",
      "velocity": 1,
      "duration": "94i"
    },
    {
      "time": "25200i",
      "midiNote": 54,
      "noteName": "F#3",
      "velocity": 0.7244094488188977,
      "duration": "46i"
    },
    {
      "time": "25248i",
      "midiNote": 71,
      "noteName": "B4",
      "velocity": 1,
      "duration": "94i"
    },
    {
      "time": "25248i",
      "midiNote": 54,
      "noteName": "F#3",
      "velocity": 0.7244094488188977,
      "duration": "46i"
    },
    {
      "time": "25248i",
      "midiNote": 33,
      "noteName": "A1",
      "velocity": 0.7244094488188977,
      "duration": "96i"
    },
    {
      "time": "25296i",
      "midiNote": 54,
      "noteName": "F#3",
      "velocity": 0.7244094488188977,
      "duration": "46i"
    },
    {
      "time": "25344i",
      "midiNote": 36,
      "noteName": "C2",
      "velocity": 1,
      "duration": "160i"
    },
    {
      "time": "25344i",
      "midiNote": 35,
      "noteName": "B1",
      "velocity": 0.7244094488188977,
      "duration": "144i"
    },
    {
      "time": "25344i",
      "midiNote": 54,
      "noteName": "F#3",
      "velocity": 0.7244094488188977,
      "duration": "46i"
    },
    {
      "time": "25344i",
      "midiNote": 52,
      "noteName": "E3",
      "velocity": 0.47244094488188976,
      "duration": "96i"
    },
    {
      "time": "25392i",
      "midiNote": 54,
      "noteName": "F#3",
      "velocity": 0.7244094488188977,
      "duration": "46i"
    },
    {
      "time": "25440i",
      "midiNote": 54,
      "noteName": "F#3",
      "velocity": 0.7244094488188977,
      "duration": "46i"
    },
    {
      "time": "25440i",
      "midiNote": 71,
      "noteName": "B4",
      "velocity": 1,
      "duration": "94i"
    },
    {
      "time": "25488i",
      "midiNote": 35,
      "noteName": "B1",
      "velocity": 0.7244094488188977,
      "duration": "144i"
    },
    {
      "time": "25488i",
      "midiNote": 54,
      "noteName": "F#3",
      "velocity": 0.7244094488188977,
      "duration": "46i"
    },
    {
      "time": "25536i",
      "midiNote": 36,
      "noteName": "C2",
      "velocity": 1,
      "duration": "160i"
    },
    {
      "time": "25536i",
      "midiNote": 54,
      "noteName": "F#3",
      "velocity": 0.7244094488188977,
      "duration": "46i"
    },
    {
      "time": "25536i",
      "midiNote": 39,
      "noteName": "D#2",
      "velocity": 0.8503937007874016,
      "duration": "160i"
    },
    {
      "time": "25536i",
      "midiNote": 69,
      "noteName": "A4",
      "velocity": 1,
      "duration": "94i"
    },
    {
      "time": "25584i",
      "midiNote": 54,
      "noteName": "F#3",
      "velocity": 0.7244094488188977,
      "duration": "46i"
    },
    {
      "time": "25632i",
      "midiNote": 33,
      "noteName": "A1",
      "velocity": 0.7244094488188977,
      "duration": "96i"
    },
    {
      "time": "25632i",
      "midiNote": 54,
      "noteName": "F#3",
      "velocity": 0.7244094488188977,
      "duration": "46i"
    },
    {
      "time": "25632i",
      "midiNote": 71,
      "noteName": "B4",
      "velocity": 1,
      "duration": "94i"
    },
    {
      "time": "25680i",
      "midiNote": 54,
      "noteName": "F#3",
      "velocity": 0.7244094488188977,
      "duration": "46i"
    },
    {
      "time": "25728i",
      "midiNote": 36,
      "noteName": "C2",
      "velocity": 1,
      "duration": "160i"
    },
    {
      "time": "25728i",
      "midiNote": 35,
      "noteName": "B1",
      "velocity": 0.7244094488188977,
      "duration": "96i"
    },
    {
      "time": "25728i",
      "midiNote": 54,
      "noteName": "F#3",
      "velocity": 0.7244094488188977,
      "duration": "46i"
    },
    {
      "time": "25728i",
      "midiNote": 52,
      "noteName": "E3",
      "velocity": 0.47244094488188976,
      "duration": "32i"
    },
    {
      "time": "25776i",
      "midiNote": 54,
      "noteName": "F#3",
      "velocity": 0.7244094488188977,
      "duration": "46i"
    },
    {
      "time": "25824i",
      "midiNote": 33,
      "noteName": "A1",
      "velocity": 0.7244094488188977,
      "duration": "96i"
    },
    {
      "time": "25824i",
      "midiNote": 54,
      "noteName": "F#3",
      "velocity": 0.7244094488188977,
      "duration": "46i"
    },
    {
      "time": "25824i",
      "midiNote": 71,
      "noteName": "B4",
      "velocity": 1,
      "duration": "94i"
    },
    {
      "time": "25824i",
      "midiNote": 52,
      "noteName": "E3",
      "velocity": 0.47244094488188976,
      "duration": "32i"
    },
    {
      "time": "25872i",
      "midiNote": 54,
      "noteName": "F#3",
      "velocity": 0.7244094488188977,
      "duration": "46i"
    },
    {
      "time": "25872i",
      "midiNote": 52,
      "noteName": "E3",
      "velocity": 0.47244094488188976,
      "duration": "48i"
    },
    {
      "time": "25920i",
      "midiNote": 36,
      "noteName": "C2",
      "velocity": 1,
      "duration": "160i"
    },
    {
      "time": "25920i",
      "midiNote": 35,
      "noteName": "B1",
      "velocity": 0.7244094488188977,
      "duration": "48i"
    },
    {
      "time": "25920i",
      "midiNote": 54,
      "noteName": "F#3",
      "velocity": 0.7244094488188977,
      "duration": "46i"
    },
    {
      "time": "25920i",
      "midiNote": 39,
      "noteName": "D#2",
      "velocity": 0.8503937007874016,
      "duration": "160i"
    },
    {
      "time": "25920i",
      "midiNote": 72,
      "noteName": "C5",
      "velocity": 1,
      "duration": "94i"
    },
    {
      "time": "25968i",
      "midiNote": 36,
      "noteName": "C2",
      "velocity": 0.7244094488188977,
      "duration": "48i"
    },
    {
      "time": "25968i",
      "midiNote": 54,
      "noteName": "F#3",
      "velocity": 0.7244094488188977,
      "duration": "46i"
    },
    {
      "time": "26016i",
      "midiNote": 37,
      "noteName": "C#2",
      "velocity": 0.7244094488188977,
      "duration": "96i"
    },
    {
      "time": "26016i",
      "midiNote": 54,
      "noteName": "F#3",
      "velocity": 0.7244094488188977,
      "duration": "46i"
    },
    {
      "time": "26016i",
      "midiNote": 71,
      "noteName": "B4",
      "velocity": 1,
      "duration": "94i"
    },
    {
      "time": "26064i",
      "midiNote": 54,
      "noteName": "F#3",
      "velocity": 0.7244094488188977,
      "duration": "46i"
    },
    {
      "time": "26112i",
      "midiNote": 36,
      "noteName": "C2",
      "velocity": 1,
      "duration": "160i"
    },
    {
      "time": "26112i",
      "midiNote": 35,
      "noteName": "B1",
      "velocity": 0.7244094488188977,
      "duration": "144i"
    },
    {
      "time": "26112i",
      "midiNote": 54,
      "noteName": "F#3",
      "velocity": 0.7244094488188977,
      "duration": "46i"
    },
    {
      "time": "26112i",
      "midiNote": 52,
      "noteName": "E3",
      "velocity": 0.47244094488188976,
      "duration": "96i"
    },
    {
      "time": "26160i",
      "midiNote": 54,
      "noteName": "F#3",
      "velocity": 0.7244094488188977,
      "duration": "46i"
    },
    {
      "time": "26208i",
      "midiNote": 54,
      "noteName": "F#3",
      "velocity": 0.7244094488188977,
      "duration": "46i"
    },
    {
      "time": "26208i",
      "midiNote": 71,
      "noteName": "B4",
      "velocity": 1,
      "duration": "94i"
    },
    {
      "time": "26256i",
      "midiNote": 35,
      "noteName": "B1",
      "velocity": 0.7244094488188977,
      "duration": "144i"
    },
    {
      "time": "26256i",
      "midiNote": 54,
      "noteName": "F#3",
      "velocity": 0.7244094488188977,
      "duration": "46i"
    },
    {
      "time": "26304i",
      "midiNote": 36,
      "noteName": "C2",
      "velocity": 1,
      "duration": "160i"
    },
    {
      "time": "26304i",
      "midiNote": 54,
      "noteName": "F#3",
      "velocity": 0.7244094488188977,
      "duration": "46i"
    },
    {
      "time": "26304i",
      "midiNote": 39,
      "noteName": "D#2",
      "velocity": 0.8503937007874016,
      "duration": "160i"
    },
    {
      "time": "26304i",
      "midiNote": 69,
      "noteName": "A4",
      "velocity": 1,
      "duration": "94i"
    },
    {
      "time": "26352i",
      "midiNote": 54,
      "noteName": "F#3",
      "velocity": 0.7244094488188977,
      "duration": "46i"
    },
    {
      "time": "26400i",
      "midiNote": 33,
      "noteName": "A1",
      "velocity": 0.7244094488188977,
      "duration": "96i"
    },
    {
      "time": "26400i",
      "midiNote": 54,
      "noteName": "F#3",
      "velocity": 0.7244094488188977,
      "duration": "46i"
    },
    {
      "time": "26400i",
      "midiNote": 71,
      "noteName": "B4",
      "velocity": 1,
      "duration": "94i"
    },
    {
      "time": "26448i",
      "midiNote": 54,
      "noteName": "F#3",
      "velocity": 0.7244094488188977,
      "duration": "46i"
    },
    {
      "time": "26496i",
      "midiNote": 36,
      "noteName": "C2",
      "velocity": 1,
      "duration": "160i"
    },
    {
      "time": "26496i",
      "midiNote": 35,
      "noteName": "B1",
      "velocity": 0.7244094488188977,
      "duration": "144i"
    },
    {
      "time": "26496i",
      "midiNote": 54,
      "noteName": "F#3",
      "velocity": 0.7244094488188977,
      "duration": "46i"
    },
    {
      "time": "26496i",
      "midiNote": 52,
      "noteName": "E3",
      "velocity": 0.47244094488188976,
      "duration": "32i"
    },
    {
      "time": "26544i",
      "midiNote": 54,
      "noteName": "F#3",
      "velocity": 0.7244094488188977,
      "duration": "46i"
    },
    {
      "time": "26592i",
      "midiNote": 54,
      "noteName": "F#3",
      "velocity": 0.7244094488188977,
      "duration": "46i"
    },
    {
      "time": "26592i",
      "midiNote": 71,
      "noteName": "B4",
      "velocity": 1,
      "duration": "94i"
    },
    {
      "time": "26592i",
      "midiNote": 52,
      "noteName": "E3",
      "velocity": 0.47244094488188976,
      "duration": "32i"
    },
    {
      "time": "26640i",
      "midiNote": 35,
      "noteName": "B1",
      "velocity": 0.7244094488188977,
      "duration": "144i"
    },
    {
      "time": "26640i",
      "midiNote": 54,
      "noteName": "F#3",
      "velocity": 0.7244094488188977,
      "duration": "46i"
    },
    {
      "time": "26640i",
      "midiNote": 52,
      "noteName": "E3",
      "velocity": 0.47244094488188976,
      "duration": "48i"
    },
    {
      "time": "26688i",
      "midiNote": 36,
      "noteName": "C2",
      "velocity": 1,
      "duration": "160i"
    },
    {
      "time": "26688i",
      "midiNote": 54,
      "noteName": "F#3",
      "velocity": 0.7244094488188977,
      "duration": "46i"
    },
    {
      "time": "26688i",
      "midiNote": 39,
      "noteName": "D#2",
      "velocity": 0.8503937007874016,
      "duration": "160i"
    },
    {
      "time": "26688i",
      "midiNote": 69,
      "noteName": "A4",
      "velocity": 1,
      "duration": "94i"
    },
    {
      "time": "26736i",
      "midiNote": 54,
      "noteName": "F#3",
      "velocity": 0.7244094488188977,
      "duration": "46i"
    },
    {
      "time": "26784i",
      "midiNote": 33,
      "noteName": "A1",
      "velocity": 0.7244094488188977,
      "duration": "96i"
    },
    {
      "time": "26784i",
      "midiNote": 54,
      "noteName": "F#3",
      "velocity": 0.7244094488188977,
      "duration": "46i"
    },
    {
      "time": "26784i",
      "midiNote": 71,
      "noteName": "B4",
      "velocity": 1,
      "duration": "94i"
    },
    {
      "time": "26832i",
      "midiNote": 54,
      "noteName": "F#3",
      "velocity": 0.7244094488188977,
      "duration": "46i"
    },
    {
      "time": "26880i",
      "midiNote": 36,
      "noteName": "C2",
      "velocity": 1,
      "duration": "160i"
    },
    {
      "time": "26880i",
      "midiNote": 35,
      "noteName": "B1",
      "velocity": 0.7244094488188977,
      "duration": "144i"
    },
    {
      "time": "26880i",
      "midiNote": 54,
      "noteName": "F#3",
      "velocity": 0.7244094488188977,
      "duration": "46i"
    },
    {
      "time": "26880i",
      "midiNote": 52,
      "noteName": "E3",
      "velocity": 0.47244094488188976,
      "duration": "96i"
    },
    {
      "time": "26928i",
      "midiNote": 54,
      "noteName": "F#3",
      "velocity": 0.7244094488188977,
      "duration": "46i"
    },
    {
      "time": "26976i",
      "midiNote": 54,
      "noteName": "F#3",
      "velocity": 0.7244094488188977,
      "duration": "46i"
    },
    {
      "time": "26976i",
      "midiNote": 71,
      "noteName": "B4",
      "velocity": 1,
      "duration": "94i"
    },
    {
      "time": "27024i",
      "midiNote": 35,
      "noteName": "B1",
      "velocity": 0.7244094488188977,
      "duration": "144i"
    },
    {
      "time": "27024i",
      "midiNote": 54,
      "noteName": "F#3",
      "velocity": 0.7244094488188977,
      "duration": "46i"
    },
    {
      "time": "27072i",
      "midiNote": 36,
      "noteName": "C2",
      "velocity": 1,
      "duration": "160i"
    },
    {
      "time": "27072i",
      "midiNote": 54,
      "noteName": "F#3",
      "velocity": 0.7244094488188977,
      "duration": "46i"
    },
    {
      "time": "27072i",
      "midiNote": 39,
      "noteName": "D#2",
      "velocity": 0.8503937007874016,
      "duration": "160i"
    },
    {
      "time": "27072i",
      "midiNote": 69,
      "noteName": "A4",
      "velocity": 1,
      "duration": "94i"
    },
    {
      "time": "27120i",
      "midiNote": 54,
      "noteName": "F#3",
      "velocity": 0.7244094488188977,
      "duration": "46i"
    },
    {
      "time": "27168i",
      "midiNote": 33,
      "noteName": "A1",
      "velocity": 0.7244094488188977,
      "duration": "96i"
    },
    {
      "time": "27168i",
      "midiNote": 54,
      "noteName": "F#3",
      "velocity": 0.7244094488188977,
      "duration": "46i"
    },
    {
      "time": "27168i",
      "midiNote": 71,
      "noteName": "B4",
      "velocity": 1,
      "duration": "94i"
    },
    {
      "time": "27216i",
      "midiNote": 54,
      "noteName": "F#3",
      "velocity": 0.7244094488188977,
      "duration": "46i"
    },
    {
      "time": "27264i",
      "midiNote": 36,
      "noteName": "C2",
      "velocity": 1,
      "duration": "160i"
    },
    {
      "time": "27264i",
      "midiNote": 35,
      "noteName": "B1",
      "velocity": 0.7244094488188977,
      "duration": "96i"
    },
    {
      "time": "27264i",
      "midiNote": 54,
      "noteName": "F#3",
      "velocity": 0.7244094488188977,
      "duration": "46i"
    },
    {
      "time": "27264i",
      "midiNote": 52,
      "noteName": "E3",
      "velocity": 0.47244094488188976,
      "duration": "32i"
    },
    {
      "time": "27312i",
      "midiNote": 54,
      "noteName": "F#3",
      "velocity": 0.7244094488188977,
      "duration": "46i"
    },
    {
      "time": "27360i",
      "midiNote": 33,
      "noteName": "A1",
      "velocity": 0.7244094488188977,
      "duration": "96i"
    },
    {
      "time": "27360i",
      "midiNote": 54,
      "noteName": "F#3",
      "velocity": 0.7244094488188977,
      "duration": "46i"
    },
    {
      "time": "27360i",
      "midiNote": 69,
      "noteName": "A4",
      "velocity": 1,
      "duration": "94i"
    },
    {
      "time": "27360i",
      "midiNote": 52,
      "noteName": "E3",
      "velocity": 0.47244094488188976,
      "duration": "32i"
    },
    {
      "time": "27408i",
      "midiNote": 54,
      "noteName": "F#3",
      "velocity": 0.7244094488188977,
      "duration": "46i"
    },
    {
      "time": "27408i",
      "midiNote": 52,
      "noteName": "E3",
      "velocity": 0.47244094488188976,
      "duration": "48i"
    },
    {
      "time": "27456i",
      "midiNote": 36,
      "noteName": "C2",
      "velocity": 1,
      "duration": "160i"
    },
    {
      "time": "27456i",
      "midiNote": 35,
      "noteName": "B1",
      "velocity": 0.7244094488188977,
      "duration": "48i"
    },
    {
      "time": "27456i",
      "midiNote": 54,
      "noteName": "F#3",
      "velocity": 0.7244094488188977,
      "duration": "46i"
    },
    {
      "time": "27456i",
      "midiNote": 39,
      "noteName": "D#2",
      "velocity": 0.8503937007874016,
      "duration": "160i"
    },
    {
      "time": "27456i",
      "midiNote": 72,
      "noteName": "C5",
      "velocity": 1,
      "duration": "94i"
    },
    {
      "time": "27504i",
      "midiNote": 36,
      "noteName": "C2",
      "velocity": 0.7244094488188977,
      "duration": "48i"
    },
    {
      "time": "27504i",
      "midiNote": 54,
      "noteName": "F#3",
      "velocity": 0.7244094488188977,
      "duration": "46i"
    },
    {
      "time": "27552i",
      "midiNote": 37,
      "noteName": "C#2",
      "velocity": 0.7244094488188977,
      "duration": "96i"
    },
    {
      "time": "27552i",
      "midiNote": 54,
      "noteName": "F#3",
      "velocity": 0.7244094488188977,
      "duration": "46i"
    },
    {
      "time": "27552i",
      "midiNote": 71,
      "noteName": "B4",
      "velocity": 1,
      "duration": "94i"
    },
    {
      "time": "27600i",
      "midiNote": 54,
      "noteName": "F#3",
      "velocity": 0.7244094488188977,
      "duration": "46i"
    },
    {
      "time": "27648i",
      "midiNote": 36,
      "noteName": "C2",
      "velocity": 1,
      "duration": "160i"
    },
    {
      "time": "27648i",
      "midiNote": 57,
      "noteName": "A3",
      "velocity": 1,
      "duration": "160i"
    },
    {
      "time": "27648i",
      "midiNote": 35,
      "noteName": "B1",
      "velocity": 0.7244094488188977,
      "duration": "144i"
    },
    {
      "time": "27648i",
      "midiNote": 54,
      "noteName": "F#3",
      "velocity": 0.7244094488188977,
      "duration": "46i"
    },
    {
      "time": "27648i",
      "midiNote": 52,
      "noteName": "E3",
      "velocity": 0.47244094488188976,
      "duration": "96i"
    },
    {
      "time": "27696i",
      "midiNote": 54,
      "noteName": "F#3",
      "velocity": 0.7244094488188977,
      "duration": "46i"
    },
    {
      "time": "27744i",
      "midiNote": 54,
      "noteName": "F#3",
      "velocity": 0.7244094488188977,
      "duration": "46i"
    },
    {
      "time": "27744i",
      "midiNote": 71,
      "noteName": "B4",
      "velocity": 1,
      "duration": "94i"
    },
    {
      "time": "27792i",
      "midiNote": 35,
      "noteName": "B1",
      "velocity": 0.7244094488188977,
      "duration": "144i"
    },
    {
      "time": "27792i",
      "midiNote": 54,
      "noteName": "F#3",
      "velocity": 0.7244094488188977,
      "duration": "46i"
    },
    {
      "time": "27840i",
      "midiNote": 36,
      "noteName": "C2",
      "velocity": 1,
      "duration": "160i"
    },
    {
      "time": "27840i",
      "midiNote": 54,
      "noteName": "F#3",
      "velocity": 0.7244094488188977,
      "duration": "46i"
    },
    {
      "time": "27840i",
      "midiNote": 39,
      "noteName": "D#2",
      "velocity": 0.8503937007874016,
      "duration": "160i"
    },
    {
      "time": "27840i",
      "midiNote": 69,
      "noteName": "A4",
      "velocity": 1,
      "duration": "94i"
    },
    {
      "time": "27888i",
      "midiNote": 54,
      "noteName": "F#3",
      "velocity": 0.7244094488188977,
      "duration": "46i"
    },
    {
      "time": "27936i",
      "midiNote": 33,
      "noteName": "A1",
      "velocity": 0.7244094488188977,
      "duration": "96i"
    },
    {
      "time": "27936i",
      "midiNote": 54,
      "noteName": "F#3",
      "velocity": 0.7244094488188977,
      "duration": "46i"
    },
    {
      "time": "27936i",
      "midiNote": 71,
      "noteName": "B4",
      "velocity": 1,
      "duration": "94i"
    },
    {
      "time": "27984i",
      "midiNote": 54,
      "noteName": "F#3",
      "velocity": 0.7244094488188977,
      "duration": "46i"
    },
    {
      "time": "28032i",
      "midiNote": 36,
      "noteName": "C2",
      "velocity": 1,
      "duration": "160i"
    },
    {
      "time": "28032i",
      "midiNote": 35,
      "noteName": "B1",
      "velocity": 0.7244094488188977,
      "duration": "144i"
    },
    {
      "time": "28032i",
      "midiNote": 54,
      "noteName": "F#3",
      "velocity": 0.7244094488188977,
      "duration": "46i"
    },
    {
      "time": "28032i",
      "midiNote": 52,
      "noteName": "E3",
      "velocity": 0.47244094488188976,
      "duration": "32i"
    },
    {
      "time": "28080i",
      "midiNote": 54,
      "noteName": "F#3",
      "velocity": 0.7244094488188977,
      "duration": "46i"
    },
    {
      "time": "28128i",
      "midiNote": 54,
      "noteName": "F#3",
      "velocity": 0.7244094488188977,
      "duration": "46i"
    },
    {
      "time": "28128i",
      "midiNote": 71,
      "noteName": "B4",
      "velocity": 1,
      "duration": "94i"
    },
    {
      "time": "28128i",
      "midiNote": 52,
      "noteName": "E3",
      "velocity": 0.47244094488188976,
      "duration": "32i"
    },
    {
      "time": "28176i",
      "midiNote": 35,
      "noteName": "B1",
      "velocity": 0.7244094488188977,
      "duration": "144i"
    },
    {
      "time": "28176i",
      "midiNote": 54,
      "noteName": "F#3",
      "velocity": 0.7244094488188977,
      "duration": "46i"
    },
    {
      "time": "28176i",
      "midiNote": 52,
      "noteName": "E3",
      "velocity": 0.47244094488188976,
      "duration": "48i"
    },
    {
      "time": "28224i",
      "midiNote": 36,
      "noteName": "C2",
      "velocity": 1,
      "duration": "160i"
    },
    {
      "time": "28224i",
      "midiNote": 54,
      "noteName": "F#3",
      "velocity": 0.7244094488188977,
      "duration": "46i"
    },
    {
      "time": "28224i",
      "midiNote": 39,
      "noteName": "D#2",
      "velocity": 0.8503937007874016,
      "duration": "160i"
    },
    {
      "time": "28224i",
      "midiNote": 69,
      "noteName": "A4",
      "velocity": 1,
      "duration": "94i"
    },
    {
      "time": "28272i",
      "midiNote": 54,
      "noteName": "F#3",
      "velocity": 0.7244094488188977,
      "duration": "46i"
    },
    {
      "time": "28320i",
      "midiNote": 33,
      "noteName": "A1",
      "velocity": 0.7244094488188977,
      "duration": "96i"
    },
    {
      "time": "28320i",
      "midiNote": 54,
      "noteName": "F#3",
      "velocity": 0.7244094488188977,
      "duration": "46i"
    },
    {
      "time": "28320i",
      "midiNote": 71,
      "noteName": "B4",
      "velocity": 1,
      "duration": "94i"
    },
    {
      "time": "28368i",
      "midiNote": 54,
      "noteName": "F#3",
      "velocity": 0.7244094488188977,
      "duration": "46i"
    },
    {
      "time": "28416i",
      "midiNote": 36,
      "noteName": "C2",
      "velocity": 1,
      "duration": "160i"
    },
    {
      "time": "28416i",
      "midiNote": 35,
      "noteName": "B1",
      "velocity": 0.7244094488188977,
      "duration": "144i"
    },
    {
      "time": "28416i",
      "midiNote": 54,
      "noteName": "F#3",
      "velocity": 0.7244094488188977,
      "duration": "46i"
    },
    {
      "time": "28416i",
      "midiNote": 52,
      "noteName": "E3",
      "velocity": 0.47244094488188976,
      "duration": "96i"
    },
    {
      "time": "28464i",
      "midiNote": 54,
      "noteName": "F#3",
      "velocity": 0.7244094488188977,
      "duration": "46i"
    },
    {
      "time": "28512i",
      "midiNote": 54,
      "noteName": "F#3",
      "velocity": 0.7244094488188977,
      "duration": "46i"
    },
    {
      "time": "28512i",
      "midiNote": 71,
      "noteName": "B4",
      "velocity": 1,
      "duration": "94i"
    },
    {
      "time": "28560i",
      "midiNote": 35,
      "noteName": "B1",
      "velocity": 0.7244094488188977,
      "duration": "144i"
    },
    {
      "time": "28560i",
      "midiNote": 54,
      "noteName": "F#3",
      "velocity": 0.7244094488188977,
      "duration": "46i"
    },
    {
      "time": "28608i",
      "midiNote": 36,
      "noteName": "C2",
      "velocity": 1,
      "duration": "160i"
    },
    {
      "time": "28608i",
      "midiNote": 54,
      "noteName": "F#3",
      "velocity": 0.7244094488188977,
      "duration": "46i"
    },
    {
      "time": "28608i",
      "midiNote": 39,
      "noteName": "D#2",
      "velocity": 0.8503937007874016,
      "duration": "160i"
    },
    {
      "time": "28608i",
      "midiNote": 69,
      "noteName": "A4",
      "velocity": 1,
      "duration": "94i"
    },
    {
      "time": "28656i",
      "midiNote": 54,
      "noteName": "F#3",
      "velocity": 0.7244094488188977,
      "duration": "46i"
    },
    {
      "time": "28704i",
      "midiNote": 33,
      "noteName": "A1",
      "velocity": 0.7244094488188977,
      "duration": "96i"
    },
    {
      "time": "28704i",
      "midiNote": 54,
      "noteName": "F#3",
      "velocity": 0.7244094488188977,
      "duration": "46i"
    },
    {
      "time": "28704i",
      "midiNote": 71,
      "noteName": "B4",
      "velocity": 1,
      "duration": "94i"
    },
    {
      "time": "28752i",
      "midiNote": 54,
      "noteName": "F#3",
      "velocity": 0.7244094488188977,
      "duration": "46i"
    },
    {
      "time": "28800i",
      "midiNote": 36,
      "noteName": "C2",
      "velocity": 1,
      "duration": "160i"
    },
    {
      "time": "28800i",
      "midiNote": 35,
      "noteName": "B1",
      "velocity": 0.7244094488188977,
      "duration": "96i"
    },
    {
      "time": "28800i",
      "midiNote": 54,
      "noteName": "F#3",
      "velocity": 0.7244094488188977,
      "duration": "46i"
    },
    {
      "time": "28800i",
      "midiNote": 52,
      "noteName": "E3",
      "velocity": 0.47244094488188976,
      "duration": "32i"
    },
    {
      "time": "28848i",
      "midiNote": 54,
      "noteName": "F#3",
      "velocity": 0.7244094488188977,
      "duration": "46i"
    },
    {
      "time": "28896i",
      "midiNote": 33,
      "noteName": "A1",
      "velocity": 0.7244094488188977,
      "duration": "96i"
    },
    {
      "time": "28896i",
      "midiNote": 54,
      "noteName": "F#3",
      "velocity": 0.7244094488188977,
      "duration": "46i"
    },
    {
      "time": "28896i",
      "midiNote": 71,
      "noteName": "B4",
      "velocity": 1,
      "duration": "94i"
    },
    {
      "time": "28896i",
      "midiNote": 52,
      "noteName": "E3",
      "velocity": 0.47244094488188976,
      "duration": "32i"
    },
    {
      "time": "28944i",
      "midiNote": 54,
      "noteName": "F#3",
      "velocity": 0.7244094488188977,
      "duration": "46i"
    },
    {
      "time": "28944i",
      "midiNote": 52,
      "noteName": "E3",
      "velocity": 0.47244094488188976,
      "duration": "48i"
    },
    {
      "time": "28992i",
      "midiNote": 36,
      "noteName": "C2",
      "velocity": 1,
      "duration": "160i"
    },
    {
      "time": "28992i",
      "midiNote": 35,
      "noteName": "B1",
      "velocity": 0.7244094488188977,
      "duration": "48i"
    },
    {
      "time": "28992i",
      "midiNote": 54,
      "noteName": "F#3",
      "velocity": 0.7244094488188977,
      "duration": "46i"
    },
    {
      "time": "28992i",
      "midiNote": 39,
      "noteName": "D#2",
      "velocity": 0.8503937007874016,
      "duration": "160i"
    },
    {
      "time": "28992i",
      "midiNote": 72,
      "noteName": "C5",
      "velocity": 1,
      "duration": "94i"
    },
    {
      "time": "29040i",
      "midiNote": 36,
      "noteName": "C2",
      "velocity": 0.7244094488188977,
      "duration": "48i"
    },
    {
      "time": "29040i",
      "midiNote": 54,
      "noteName": "F#3",
      "velocity": 0.7244094488188977,
      "duration": "46i"
    },
    {
      "time": "29088i",
      "midiNote": 37,
      "noteName": "C#2",
      "velocity": 0.7244094488188977,
      "duration": "96i"
    },
    {
      "time": "29088i",
      "midiNote": 54,
      "noteName": "F#3",
      "velocity": 0.7244094488188977,
      "duration": "46i"
    },
    {
      "time": "29088i",
      "midiNote": 71,
      "noteName": "B4",
      "velocity": 1,
      "duration": "94i"
    },
    {
      "time": "29136i",
      "midiNote": 54,
      "noteName": "F#3",
      "velocity": 0.7244094488188977,
      "duration": "46i"
    },
    {
      "time": "29184i",
      "midiNote": 36,
      "noteName": "C2",
      "velocity": 1,
      "duration": "160i"
    },
    {
      "time": "29184i",
      "midiNote": 35,
      "noteName": "B1",
      "velocity": 0.7244094488188977,
      "duration": "144i"
    },
    {
      "time": "29184i",
      "midiNote": 59,
      "noteName": "B3",
      "velocity": 0.8503937007874016,
      "duration": "34i"
    },
    {
      "time": "29184i",
      "midiNote": 59,
      "noteName": "B3",
      "velocity": 0.5905511811023622,
      "duration": "24i"
    },
    {
      "time": "29184i",
      "midiNote": 52,
      "noteName": "E3",
      "velocity": 0.47244094488188976,
      "duration": "96i"
    },
    {
      "time": "29220i",
      "midiNote": 59,
      "noteName": "B3",
      "velocity": 0.8503937007874016,
      "duration": "34i"
    },
    {
      "time": "29220i",
      "midiNote": 59,
      "noteName": "B3",
      "velocity": 0.5905511811023622,
      "duration": "24i"
    },
    {
      "time": "29256i",
      "midiNote": 59,
      "noteName": "B3",
      "velocity": 0.8503937007874016,
      "duration": "22i"
    },
    {
      "time": "29256i",
      "midiNote": 59,
      "noteName": "B3",
      "velocity": 0.5905511811023622,
      "duration": "16i"
    },
    {
      "time": "29280i",
      "midiNote": 60,
      "noteName": "C4",
      "velocity": 0.8503937007874016,
      "duration": "34i"
    },
    {
      "time": "29280i",
      "midiNote": 60,
      "noteName": "C4",
      "velocity": 0.5905511811023622,
      "duration": "24i"
    },
    {
      "time": "29280i",
      "midiNote": 71,
      "noteName": "B4",
      "velocity": 1,
      "duration": "94i"
    },
    {
      "time": "29316i",
      "midiNote": 60,
      "noteName": "C4",
      "velocity": 0.8503937007874016,
      "duration": "34i"
    },
    {
      "time": "29316i",
      "midiNote": 60,
      "noteName": "C4",
      "velocity": 0.5905511811023622,
      "duration": "24i"
    },
    {
      "time": "29328i",
      "midiNote": 35,
      "noteName": "B1",
      "velocity": 0.7244094488188977,
      "duration": "144i"
    },
    {
      "time": "29352i",
      "midiNote": 60,
      "noteName": "C4",
      "velocity": 0.8503937007874016,
      "duration": "22i"
    },
    {
      "time": "29352i",
      "midiNote": 60,
      "noteName": "C4",
      "velocity": 0.5905511811023622,
      "duration": "16i"
    },
    {
      "time": "29376i",
      "midiNote": 36,
      "noteName": "C2",
      "velocity": 1,
      "duration": "160i"
    },
    {
      "time": "29376i",
      "midiNote": 61,
      "noteName": "C#4",
      "velocity": 0.8503937007874016,
      "duration": "34i"
    },
    {
      "time": "29376i",
      "midiNote": 61,
      "noteName": "C#4",
      "velocity": 0.5905511811023622,
      "duration": "24i"
    },
    {
      "time": "29376i",
      "midiNote": 39,
      "noteName": "D#2",
      "velocity": 0.8503937007874016,
      "duration": "160i"
    },
    {
      "time": "29376i",
      "midiNote": 69,
      "noteName": "A4",
      "velocity": 1,
      "duration": "94i"
    },
    {
      "time": "29412i",
      "midiNote": 61,
      "noteName": "C#4",
      "velocity": 0.8503937007874016,
      "duration": "34i"
    },
    {
      "time": "29412i",
      "midiNote": 61,
      "noteName": "C#4",
      "velocity": 0.5905511811023622,
      "duration": "24i"
    },
    {
      "time": "29448i",
      "midiNote": 61,
      "noteName": "C#4",
      "velocity": 0.8503937007874016,
      "duration": "22i"
    },
    {
      "time": "29448i",
      "midiNote": 61,
      "noteName": "C#4",
      "velocity": 0.5905511811023622,
      "duration": "16i"
    },
    {
      "time": "29472i",
      "midiNote": 33,
      "noteName": "A1",
      "velocity": 0.7244094488188977,
      "duration": "96i"
    },
    {
      "time": "29472i",
      "midiNote": 62,
      "noteName": "D4",
      "velocity": 0.8503937007874016,
      "duration": "34i"
    },
    {
      "time": "29472i",
      "midiNote": 62,
      "noteName": "D4",
      "velocity": 0.5905511811023622,
      "duration": "24i"
    },
    {
      "time": "29472i",
      "midiNote": 71,
      "noteName": "B4",
      "velocity": 1,
      "duration": "94i"
    },
    {
      "time": "29508i",
      "midiNote": 62,
      "noteName": "D4",
      "velocity": 0.8503937007874016,
      "duration": "34i"
    },
    {
      "time": "29508i",
      "midiNote": 62,
      "noteName": "D4",
      "velocity": 0.5905511811023622,
      "duration": "24i"
    },
    {
      "time": "29544i",
      "midiNote": 62,
      "noteName": "D4",
      "velocity": 0.8503937007874016,
      "duration": "22i"
    },
    {
      "time": "29544i",
      "midiNote": 62,
      "noteName": "D4",
      "velocity": 0.5905511811023622,
      "duration": "16i"
    },
    {
      "time": "29568i",
      "midiNote": 36,
      "noteName": "C2",
      "velocity": 1,
      "duration": "160i"
    },
    {
      "time": "29568i",
      "midiNote": 35,
      "noteName": "B1",
      "velocity": 0.7244094488188977,
      "duration": "144i"
    },
    {
      "time": "29568i",
      "midiNote": 63,
      "noteName": "D#4",
      "velocity": 0.8503937007874016,
      "duration": "34i"
    },
    {
      "time": "29568i",
      "midiNote": 63,
      "noteName": "D#4",
      "velocity": 0.5905511811023622,
      "duration": "24i"
    },
    {
      "time": "29568i",
      "midiNote": 52,
      "noteName": "E3",
      "velocity": 0.47244094488188976,
      "duration": "32i"
    },
    {
      "time": "29604i",
      "midiNote": 63,
      "noteName": "D#4",
      "velocity": 0.8503937007874016,
      "duration": "34i"
    },
    {
      "time": "29604i",
      "midiNote": 63,
      "noteName": "D#4",
      "velocity": 0.5905511811023622,
      "duration": "24i"
    },
    {
      "time": "29640i",
      "midiNote": 63,
      "noteName": "D#4",
      "velocity": 0.8503937007874016,
      "duration": "22i"
    },
    {
      "time": "29640i",
      "midiNote": 63,
      "noteName": "D#4",
      "velocity": 0.5905511811023622,
      "duration": "16i"
    },
    {
      "time": "29664i",
      "midiNote": 64,
      "noteName": "E4",
      "velocity": 0.8503937007874016,
      "duration": "34i"
    },
    {
      "time": "29664i",
      "midiNote": 64,
      "noteName": "E4",
      "velocity": 0.5905511811023622,
      "duration": "24i"
    },
    {
      "time": "29664i",
      "midiNote": 71,
      "noteName": "B4",
      "velocity": 1,
      "duration": "94i"
    },
    {
      "time": "29664i",
      "midiNote": 52,
      "noteName": "E3",
      "velocity": 0.47244094488188976,
      "duration": "32i"
    },
    {
      "time": "29700i",
      "midiNote": 64,
      "noteName": "E4",
      "velocity": 0.8503937007874016,
      "duration": "34i"
    },
    {
      "time": "29700i",
      "midiNote": 64,
      "noteName": "E4",
      "velocity": 0.5905511811023622,
      "duration": "24i"
    },
    {
      "time": "29712i",
      "midiNote": 35,
      "noteName": "B1",
      "velocity": 0.7244094488188977,
      "duration": "144i"
    },
    {
      "time": "29712i",
      "midiNote": 52,
      "noteName": "E3",
      "velocity": 0.47244094488188976,
      "duration": "48i"
    },
    {
      "time": "29736i",
      "midiNote": 64,
      "noteName": "E4",
      "velocity": 0.8503937007874016,
      "duration": "22i"
    },
    {
      "time": "29736i",
      "midiNote": 64,
      "noteName": "E4",
      "velocity": 0.5905511811023622,
      "duration": "16i"
    },
    {
      "time": "29760i",
      "midiNote": 36,
      "noteName": "C2",
      "velocity": 1,
      "duration": "160i"
    },
    {
      "time": "29760i",
      "midiNote": 65,
      "noteName": "F4",
      "velocity": 0.8503937007874016,
      "duration": "34i"
    },
    {
      "time": "29760i",
      "midiNote": 65,
      "noteName": "F4",
      "velocity": 0.5905511811023622,
      "duration": "24i"
    },
    {
      "time": "29760i",
      "midiNote": 39,
      "noteName": "D#2",
      "velocity": 0.8503937007874016,
      "duration": "160i"
    },
    {
      "time": "29760i",
      "midiNote": 69,
      "noteName": "A4",
      "velocity": 1,
      "duration": "94i"
    },
    {
      "time": "29796i",
      "midiNote": 65,
      "noteName": "F4",
      "velocity": 0.8503937007874016,
      "duration": "34i"
    },
    {
      "time": "29796i",
      "midiNote": 65,
      "noteName": "F4",
      "velocity": 0.5905511811023622,
      "duration": "24i"
    },
    {
      "time": "29832i",
      "midiNote": 65,
      "noteName": "F4",
      "velocity": 0.8503937007874016,
      "duration": "22i"
    },
    {
      "time": "29832i",
      "midiNote": 65,
      "noteName": "F4",
      "velocity": 0.5905511811023622,
      "duration": "16i"
    },
    {
      "time": "29856i",
      "midiNote": 33,
      "noteName": "A1",
      "velocity": 0.7244094488188977,
      "duration": "96i"
    },
    {
      "time": "29856i",
      "midiNote": 66,
      "noteName": "F#4",
      "velocity": 0.8503937007874016,
      "duration": "34i"
    },
    {
      "time": "29856i",
      "midiNote": 66,
      "noteName": "F#4",
      "velocity": 0.5905511811023622,
      "duration": "24i"
    },
    {
      "time": "29856i",
      "midiNote": 71,
      "noteName": "B4",
      "velocity": 1,
      "duration": "94i"
    },
    {
      "time": "29892i",
      "midiNote": 66,
      "noteName": "F#4",
      "velocity": 0.8503937007874016,
      "duration": "34i"
    },
    {
      "time": "29892i",
      "midiNote": 66,
      "noteName": "F#4",
      "velocity": 0.5905511811023622,
      "duration": "24i"
    },
    {
      "time": "29928i",
      "midiNote": 66,
      "noteName": "F#4",
      "velocity": 0.8503937007874016,
      "duration": "22i"
    },
    {
      "time": "29928i",
      "midiNote": 66,
      "noteName": "F#4",
      "velocity": 0.5905511811023622,
      "duration": "16i"
    },
    {
      "time": "29952i",
      "midiNote": 36,
      "noteName": "C2",
      "velocity": 1,
      "duration": "94i"
    },
    {
      "time": "29952i",
      "midiNote": 35,
      "noteName": "B1",
      "velocity": 0.7244094488188977,
      "duration": "144i"
    },
    {
      "time": "29952i",
      "midiNote": 67,
      "noteName": "G4",
      "velocity": 0.8503937007874016,
      "duration": "34i"
    },
    {
      "time": "29952i",
      "midiNote": 67,
      "noteName": "G4",
      "velocity": 0.5905511811023622,
      "duration": "24i"
    },
    {
      "time": "29952i",
      "midiNote": 52,
      "noteName": "E3",
      "velocity": 0.47244094488188976,
      "duration": "96i"
    },
    {
      "time": "29988i",
      "midiNote": 67,
      "noteName": "G4",
      "velocity": 0.8503937007874016,
      "duration": "34i"
    },
    {
      "time": "29988i",
      "midiNote": 67,
      "noteName": "G4",
      "velocity": 0.5905511811023622,
      "duration": "24i"
    },
    {
      "time": "30024i",
      "midiNote": 67,
      "noteName": "G4",
      "velocity": 0.8503937007874016,
      "duration": "22i"
    },
    {
      "time": "30024i",
      "midiNote": 67,
      "noteName": "G4",
      "velocity": 0.5905511811023622,
      "duration": "16i"
    },
    {
      "time": "30048i",
      "midiNote": 36,
      "noteName": "C2",
      "velocity": 1,
      "duration": "94i"
    },
    {
      "time": "30048i",
      "midiNote": 68,
      "noteName": "G#4",
      "velocity": 0.8503937007874016,
      "duration": "34i"
    },
    {
      "time": "30048i",
      "midiNote": 68,
      "noteName": "G#4",
      "velocity": 0.5905511811023622,
      "duration": "24i"
    },
    {
      "time": "30048i",
      "midiNote": 71,
      "noteName": "B4",
      "velocity": 1,
      "duration": "94i"
    },
    {
      "time": "30084i",
      "midiNote": 68,
      "noteName": "G#4",
      "velocity": 0.8503937007874016,
      "duration": "34i"
    },
    {
      "time": "30084i",
      "midiNote": 68,
      "noteName": "G#4",
      "velocity": 0.5905511811023622,
      "duration": "24i"
    },
    {
      "time": "30096i",
      "midiNote": 35,
      "noteName": "B1",
      "velocity": 0.7244094488188977,
      "duration": "144i"
    },
    {
      "time": "30120i",
      "midiNote": 68,
      "noteName": "G#4",
      "velocity": 0.8503937007874016,
      "duration": "22i"
    },
    {
      "time": "30120i",
      "midiNote": 68,
      "noteName": "G#4",
      "velocity": 0.5905511811023622,
      "duration": "16i"
    },
    {
      "time": "30144i",
      "midiNote": 36,
      "noteName": "C2",
      "velocity": 1,
      "duration": "94i"
    },
    {
      "time": "30144i",
      "midiNote": 69,
      "noteName": "A4",
      "velocity": 0.8503937007874016,
      "duration": "94i"
    },
    {
      "time": "30144i",
      "midiNote": 69,
      "noteName": "A4",
      "velocity": 0.5905511811023622,
      "duration": "34i"
    },
    {
      "time": "30144i",
      "midiNote": 39,
      "noteName": "D#2",
      "velocity": 0.8503937007874016,
      "duration": "160i"
    },
    {
      "time": "30144i",
      "midiNote": 69,
      "noteName": "A4",
      "velocity": 1,
      "duration": "24i"
    },
    {
      "time": "30180i",
      "midiNote": 69,
      "noteName": "A4",
      "velocity": 0.8503937007874016,
      "duration": "34i"
    },
    {
      "time": "30180i",
      "midiNote": 69,
      "noteName": "A4",
      "velocity": 0.5905511811023622,
      "duration": "24i"
    },
    {
      "time": "30216i",
      "midiNote": 69,
      "noteName": "A4",
      "velocity": 0.8503937007874016,
      "duration": "22i"
    },
    {
      "time": "30216i",
      "midiNote": 69,
      "noteName": "A4",
      "velocity": 0.5905511811023622,
      "duration": "16i"
    },
    {
      "time": "30240i",
      "midiNote": 36,
      "noteName": "C2",
      "velocity": 1,
      "duration": "94i"
    },
    {
      "time": "30240i",
      "midiNote": 33,
      "noteName": "A1",
      "velocity": 0.7244094488188977,
      "duration": "96i"
    },
    {
      "time": "30240i",
      "midiNote": 70,
      "noteName": "A#4",
      "velocity": 0.8503937007874016,
      "duration": "34i"
    },
    {
      "time": "30240i",
      "midiNote": 70,
      "noteName": "A#4",
      "velocity": 0.5905511811023622,
      "duration": "24i"
    },
    {
      "time": "30240i",
      "midiNote": 71,
      "noteName": "B4",
      "velocity": 1,
      "duration": "94i"
    },
    {
      "time": "30276i",
      "midiNote": 70,
      "noteName": "A#4",
      "velocity": 0.8503937007874016,
      "duration": "34i"
    },
    {
      "time": "30276i",
      "midiNote": 70,
      "noteName": "A#4",
      "velocity": 0.5905511811023622,
      "duration": "24i"
    },
    {
      "time": "30312i",
      "midiNote": 70,
      "noteName": "A#4",
      "velocity": 0.8503937007874016,
      "duration": "22i"
    },
    {
      "time": "30312i",
      "midiNote": 70,
      "noteName": "A#4",
      "velocity": 0.5905511811023622,
      "duration": "16i"
    },
    {
      "time": "30336i",
      "midiNote": 36,
      "noteName": "C2",
      "velocity": 1,
      "duration": "46i"
    },
    {
      "time": "30336i",
      "midiNote": 35,
      "noteName": "B1",
      "velocity": 0.7244094488188977,
      "duration": "96i"
    },
    {
      "time": "30336i",
      "midiNote": 71,
      "noteName": "B4",
      "velocity": 0.8503937007874016,
      "duration": "34i"
    },
    {
      "time": "30336i",
      "midiNote": 71,
      "noteName": "B4",
      "velocity": 0.5905511811023622,
      "duration": "24i"
    },
    {
      "time": "30336i",
      "midiNote": 52,
      "noteName": "E3",
      "velocity": 0.47244094488188976,
      "duration": "32i"
    },
    {
      "time": "30372i",
      "midiNote": 71,
      "noteName": "B4",
      "velocity": 0.8503937007874016,
      "duration": "34i"
    },
    {
      "time": "30372i",
      "midiNote": 71,
      "noteName": "B4",
      "velocity": 0.5905511811023622,
      "duration": "24i"
    },
    {
      "time": "30384i",
      "midiNote": 36,
      "noteName": "C2",
      "velocity": 1,
      "duration": "46i"
    },
    {
      "time": "30408i",
      "midiNote": 71,
      "noteName": "B4",
      "velocity": 0.8503937007874016,
      "duration": "22i"
    },
    {
      "time": "30408i",
      "midiNote": 71,
      "noteName": "B4",
      "velocity": 0.5905511811023622,
      "duration": "16i"
    },
    {
      "time": "30432i",
      "midiNote": 36,
      "noteName": "C2",
      "velocity": 1,
      "duration": "46i"
    },
    {
      "time": "30432i",
      "midiNote": 33,
      "noteName": "A1",
      "velocity": 0.7244094488188977,
      "duration": "96i"
    },
    {
      "time": "30432i",
      "midiNote": 72,
      "noteName": "C5",
      "velocity": 0.8503937007874016,
      "duration": "34i"
    },
    {
      "time": "30432i",
      "midiNote": 72,
      "noteName": "C5",
      "velocity": 0.5905511811023622,
      "duration": "24i"
    },
    {
      "time": "30432i",
      "midiNote": 69,
      "noteName": "A4",
      "velocity": 1,
      "duration": "94i"
    },
    {
      "time": "30432i",
      "midiNote": 52,
      "noteName": "E3",
      "velocity": 0.47244094488188976,
      "duration": "32i"
    },
    {
      "time": "30468i",
      "midiNote": 72,
      "noteName": "C5",
      "velocity": 0.8503937007874016,
      "duration": "34i"
    },
    {
      "time": "30468i",
      "midiNote": 72,
      "noteName": "C5",
      "velocity": 0.5905511811023622,
      "duration": "24i"
    },
    {
      "time": "30480i",
      "midiNote": 36,
      "noteName": "C2",
      "velocity": 1,
      "duration": "46i"
    },
    {
      "time": "30480i",
      "midiNote": 52,
      "noteName": "E3",
      "velocity": 0.47244094488188976,
      "duration": "48i"
    },
    {
      "time": "30504i",
      "midiNote": 72,
      "noteName": "C5",
      "velocity": 0.8503937007874016,
      "duration": "22i"
    },
    {
      "time": "30504i",
      "midiNote": 72,
      "noteName": "C5",
      "velocity": 0.5905511811023622,
      "duration": "16i"
    },
    {
      "time": "30528i",
      "midiNote": 36,
      "noteName": "C2",
      "velocity": 1,
      "duration": "46i"
    },
    {
      "time": "30528i",
      "midiNote": 35,
      "noteName": "B1",
      "velocity": 0.7244094488188977,
      "duration": "48i"
    },
    {
      "time": "30528i",
      "midiNote": 73,
      "noteName": "C#5",
      "velocity": 0.8503937007874016,
      "duration": "34i"
    },
    {
      "time": "30528i",
      "midiNote": 73,
      "noteName": "C#5",
      "velocity": 0.5905511811023622,
      "duration": "24i"
    },
    {
      "time": "30528i",
      "midiNote": 39,
      "noteName": "D#2",
      "velocity": 0.8503937007874016,
      "duration": "160i"
    },
    {
      "time": "30528i",
      "midiNote": 72,
      "noteName": "C5",
      "velocity": 1,
      "duration": "94i"
    },
    {
      "time": "30564i",
      "midiNote": 73,
      "noteName": "C#5",
      "velocity": 0.8503937007874016,
      "duration": "34i"
    },
    {
      "time": "30564i",
      "midiNote": 73,
      "noteName": "C#5",
      "velocity": 0.5905511811023622,
      "duration": "24i"
    },
    {
      "time": "30576i",
      "midiNote": 36,
      "noteName": "C2",
      "velocity": 1,
      "duration": "48i"
    },
    {
      "time": "30576i",
      "midiNote": 36,
      "noteName": "C2",
      "velocity": 0.7244094488188977,
      "duration": "46i"
    },
    {
      "time": "30600i",
      "midiNote": 73,
      "noteName": "C#5",
      "velocity": 0.8503937007874016,
      "duration": "22i"
    },
    {
      "time": "30600i",
      "midiNote": 73,
      "noteName": "C#5",
      "velocity": 0.5905511811023622,
      "duration": "16i"
    },
    {
      "time": "30624i",
      "midiNote": 36,
      "noteName": "C2",
      "velocity": 1,
      "duration": "46i"
    },
    {
      "time": "30624i",
      "midiNote": 37,
      "noteName": "C#2",
      "velocity": 0.7244094488188977,
      "duration": "96i"
    },
    {
      "time": "30624i",
      "midiNote": 74,
      "noteName": "D5",
      "velocity": 0.8503937007874016,
      "duration": "34i"
    },
    {
      "time": "30624i",
      "midiNote": 74,
      "noteName": "D5",
      "velocity": 0.5905511811023622,
      "duration": "24i"
    },
    {
      "time": "30624i",
      "midiNote": 71,
      "noteName": "B4",
      "velocity": 1,
      "duration": "94i"
    },
    {
      "time": "30660i",
      "midiNote": 74,
      "noteName": "D5",
      "velocity": 0.8503937007874016,
      "duration": "34i"
    },
    {
      "time": "30660i",
      "midiNote": 74,
      "noteName": "D5",
      "velocity": 0.5905511811023622,
      "duration": "24i"
    },
    {
      "time": "30672i",
      "midiNote": 36,
      "noteName": "C2",
      "velocity": 1,
      "duration": "46i"
    },
    {
      "time": "30696i",
      "midiNote": 74,
      "noteName": "D5",
      "velocity": 0.8503937007874016,
      "duration": "22i"
    },
    {
      "time": "30696i",
      "midiNote": 74,
      "noteName": "D5",
      "velocity": 0.5905511811023622,
      "duration": "16i"
    },
    {
      "time": "30720i",
      "midiNote": 57,
      "noteName": "A3",
      "velocity": 1,
      "duration": "720i"
    },
    {
      "time": "30720i",
      "midiNote": 35,
      "noteName": "B1",
      "velocity": 0.8503937007874016,
      "duration": "192i"
    },
    {
      "time": "30720i",
      "midiNote": 59,
      "noteName": "B3",
      "velocity": 0.7244094488188977,
      "duration": "94i"
    },
    {
      "time": "30720i",
      "midiNote": 63,
      "noteName": "D#4",
      "velocity": 0.8661417322834646,
      "duration": "94i"
    },
    {
      "time": "30720i",
      "midiNote": 63,
      "noteName": "D#4",
      "velocity": 0.07874015748031496,
      "duration": "94i"
    },
    {
      "time": "30816i",
      "midiNote": 59,
      "noteName": "B3",
      "velocity": 0.7244094488188977,
      "duration": "94i"
    },
    {
      "time": "30816i",
      "midiNote": 70,
      "noteName": "A#4",
      "velocity": 0.8661417322834646,
      "duration": "94i"
    },
    {
      "time": "30816i",
      "midiNote": 70,
      "noteName": "A#4",
      "velocity": 0.07874015748031496,
      "duration": "94i"
    },
    {
      "time": "30912i",
      "midiNote": 59,
      "noteName": "B3",
      "velocity": 0.7244094488188977,
      "duration": "94i"
    },
    {
      "time": "30912i",
      "midiNote": 75,
      "noteName": "D#5",
      "velocity": 0.8661417322834646,
      "duration": "94i"
    },
    {
      "time": "30912i",
      "midiNote": 75,
      "noteName": "D#5",
      "velocity": 0.07874015748031496,
      "duration": "94i"
    },
    {
      "time": "31008i",
      "midiNote": 59,
      "noteName": "B3",
      "velocity": 0.7244094488188977,
      "duration": "94i"
    },
    {
      "time": "31008i",
      "midiNote": 61,
      "noteName": "C#4",
      "velocity": 0.8661417322834646,
      "duration": "94i"
    },
    {
      "time": "31008i",
      "midiNote": 61,
      "noteName": "C#4",
      "velocity": 0.07874015748031496,
      "duration": "94i"
    },
    {
      "time": "31104i",
      "midiNote": 59,
      "noteName": "B3",
      "velocity": 0.7244094488188977,
      "duration": "94i"
    },
    {
      "time": "31104i",
      "midiNote": 68,
      "noteName": "G#4",
      "velocity": 0.8661417322834646,
      "duration": "94i"
    },
    {
      "time": "31104i",
      "midiNote": 68,
      "noteName": "G#4",
      "velocity": 0.07874015748031496,
      "duration": "94i"
    },
    {
      "time": "31200i",
      "midiNote": 59,
      "noteName": "B3",
      "velocity": 0.7244094488188977,
      "duration": "94i"
    },
    {
      "time": "31200i",
      "midiNote": 73,
      "noteName": "C#5",
      "velocity": 0.8661417322834646,
      "duration": "94i"
    },
    {
      "time": "31200i",
      "midiNote": 73,
      "noteName": "C#5",
      "velocity": 0.07874015748031496,
      "duration": "94i"
    },
    {
      "time": "31296i",
      "midiNote": 59,
      "noteName": "B3",
      "velocity": 0.7244094488188977,
      "duration": "94i"
    },
    {
      "time": "31296i",
      "midiNote": 66,
      "noteName": "F#4",
      "velocity": 0.8661417322834646,
      "duration": "94i"
    },
    {
      "time": "31296i",
      "midiNote": 66,
      "noteName": "F#4",
      "velocity": 0.07874015748031496,
      "duration": "94i"
    },
    {
      "time": "31392i",
      "midiNote": 59,
      "noteName": "B3",
      "velocity": 0.7244094488188977,
      "duration": "94i"
    },
    {
      "time": "31392i",
      "midiNote": 68,
      "noteName": "G#4",
      "velocity": 0.8661417322834646,
      "duration": "94i"
    },
    {
      "time": "31392i",
      "midiNote": 68,
      "noteName": "G#4",
      "velocity": 0.07874015748031496,
      "duration": "94i"
    },
    {
      "time": "31488i",
      "midiNote": 35,
      "noteName": "B1",
      "velocity": 0.8503937007874016,
      "duration": "192i"
    },
    {
      "time": "31488i",
      "midiNote": 59,
      "noteName": "B3",
      "velocity": 0.7244094488188977,
      "duration": "94i"
    },
    {
      "time": "31488i",
      "midiNote": 63,
      "noteName": "D#4",
      "velocity": 0.8661417322834646,
      "duration": "94i"
    },
    {
      "time": "31488i",
      "midiNote": 63,
      "noteName": "D#4",
      "velocity": 0.07874015748031496,
      "duration": "94i"
    },
    {
      "time": "31584i",
      "midiNote": 59,
      "noteName": "B3",
      "velocity": 0.7244094488188977,
      "duration": "94i"
    },
    {
      "time": "31584i",
      "midiNote": 70,
      "noteName": "A#4",
      "velocity": 0.8661417322834646,
      "duration": "94i"
    },
    {
      "time": "31584i",
      "midiNote": 70,
      "noteName": "A#4",
      "velocity": 0.07874015748031496,
      "duration": "94i"
    },
    {
      "time": "31680i",
      "midiNote": 59,
      "noteName": "B3",
      "velocity": 0.7244094488188977,
      "duration": "94i"
    },
    {
      "time": "31680i",
      "midiNote": 75,
      "noteName": "D#5",
      "velocity": 0.8661417322834646,
      "duration": "94i"
    },
    {
      "time": "31680i",
      "midiNote": 75,
      "noteName": "D#5",
      "velocity": 0.07874015748031496,
      "duration": "94i"
    },
    {
      "time": "31776i",
      "midiNote": 59,
      "noteName": "B3",
      "velocity": 0.7244094488188977,
      "duration": "94i"
    },
    {
      "time": "31776i",
      "midiNote": 61,
      "noteName": "C#4",
      "velocity": 0.8661417322834646,
      "duration": "94i"
    },
    {
      "time": "31776i",
      "midiNote": 61,
      "noteName": "C#4",
      "velocity": 0.07874015748031496,
      "duration": "94i"
    },
    {
      "time": "31872i",
      "midiNote": 59,
      "noteName": "B3",
      "velocity": 0.7244094488188977,
      "duration": "94i"
    },
    {
      "time": "31872i",
      "midiNote": 68,
      "noteName": "G#4",
      "velocity": 0.8661417322834646,
      "duration": "94i"
    },
    {
      "time": "31872i",
      "midiNote": 68,
      "noteName": "G#4",
      "velocity": 0.07874015748031496,
      "duration": "94i"
    },
    {
      "time": "31968i",
      "midiNote": 59,
      "noteName": "B3",
      "velocity": 0.7244094488188977,
      "duration": "94i"
    },
    {
      "time": "31968i",
      "midiNote": 73,
      "noteName": "C#5",
      "velocity": 0.8661417322834646,
      "duration": "94i"
    },
    {
      "time": "31968i",
      "midiNote": 73,
      "noteName": "C#5",
      "velocity": 0.07874015748031496,
      "duration": "94i"
    },
    {
      "time": "32064i",
      "midiNote": 59,
      "noteName": "B3",
      "velocity": 0.7244094488188977,
      "duration": "94i"
    },
    {
      "time": "32064i",
      "midiNote": 66,
      "noteName": "F#4",
      "velocity": 0.8661417322834646,
      "duration": "94i"
    },
    {
      "time": "32064i",
      "midiNote": 66,
      "noteName": "F#4",
      "velocity": 0.07874015748031496,
      "duration": "94i"
    },
    {
      "time": "32160i",
      "midiNote": 59,
      "noteName": "B3",
      "velocity": 0.7244094488188977,
      "duration": "46i"
    },
    {
      "time": "32160i",
      "midiNote": 65,
      "noteName": "F4",
      "velocity": 0.8661417322834646,
      "duration": "94i"
    },
    {
      "time": "32160i",
      "midiNote": 65,
      "noteName": "F4",
      "velocity": 0.07874015748031496,
      "duration": "94i"
    },
    {
      "time": "32208i",
      "midiNote": 59,
      "noteName": "B3",
      "velocity": 0.7244094488188977,
      "duration": "46i"
    },
    {
      "time": "32256i",
      "midiNote": 35,
      "noteName": "B1",
      "velocity": 0.8503937007874016,
      "duration": "192i"
    },
    {
      "time": "32256i",
      "midiNote": 59,
      "noteName": "B3",
      "velocity": 0.7244094488188977,
      "duration": "94i"
    },
    {
      "time": "32256i",
      "midiNote": 63,
      "noteName": "D#4",
      "velocity": 0.8661417322834646,
      "duration": "94i"
    },
    {
      "time": "32256i",
      "midiNote": 63,
      "noteName": "D#4",
      "velocity": 0.07874015748031496,
      "duration": "94i"
    },
    {
      "time": "32352i",
      "midiNote": 59,
      "noteName": "B3",
      "velocity": 0.7244094488188977,
      "duration": "94i"
    },
    {
      "time": "32352i",
      "midiNote": 70,
      "noteName": "A#4",
      "velocity": 0.8661417322834646,
      "duration": "94i"
    },
    {
      "time": "32352i",
      "midiNote": 70,
      "noteName": "A#4",
      "velocity": 0.07874015748031496,
      "duration": "94i"
    },
    {
      "time": "32448i",
      "midiNote": 59,
      "noteName": "B3",
      "velocity": 0.7244094488188977,
      "duration": "94i"
    },
    {
      "time": "32448i",
      "midiNote": 75,
      "noteName": "D#5",
      "velocity": 0.8661417322834646,
      "duration": "94i"
    },
    {
      "time": "32448i",
      "midiNote": 75,
      "noteName": "D#5",
      "velocity": 0.07874015748031496,
      "duration": "94i"
    },
    {
      "time": "32544i",
      "midiNote": 59,
      "noteName": "B3",
      "velocity": 0.7244094488188977,
      "duration": "94i"
    },
    {
      "time": "32544i",
      "midiNote": 61,
      "noteName": "C#4",
      "velocity": 0.8661417322834646,
      "duration": "94i"
    },
    {
      "time": "32544i",
      "midiNote": 61,
      "noteName": "C#4",
      "velocity": 0.07874015748031496,
      "duration": "94i"
    },
    {
      "time": "32640i",
      "midiNote": 59,
      "noteName": "B3",
      "velocity": 0.7244094488188977,
      "duration": "94i"
    },
    {
      "time": "32640i",
      "midiNote": 68,
      "noteName": "G#4",
      "velocity": 0.8661417322834646,
      "duration": "94i"
    },
    {
      "time": "32640i",
      "midiNote": 68,
      "noteName": "G#4",
      "velocity": 0.07874015748031496,
      "duration": "94i"
    },
    {
      "time": "32736i",
      "midiNote": 59,
      "noteName": "B3",
      "velocity": 0.7244094488188977,
      "duration": "94i"
    },
    {
      "time": "32736i",
      "midiNote": 73,
      "noteName": "C#5",
      "velocity": 0.8661417322834646,
      "duration": "94i"
    },
    {
      "time": "32736i",
      "midiNote": 73,
      "noteName": "C#5",
      "velocity": 0.07874015748031496,
      "duration": "94i"
    },
    {
      "time": "32832i",
      "midiNote": 59,
      "noteName": "B3",
      "velocity": 0.7244094488188977,
      "duration": "94i"
    },
    {
      "time": "32832i",
      "midiNote": 66,
      "noteName": "F#4",
      "velocity": 0.8661417322834646,
      "duration": "94i"
    },
    {
      "time": "32832i",
      "midiNote": 66,
      "noteName": "F#4",
      "velocity": 0.07874015748031496,
      "duration": "94i"
    },
    {
      "time": "32928i",
      "midiNote": 59,
      "noteName": "B3",
      "velocity": 0.7244094488188977,
      "duration": "94i"
    },
    {
      "time": "32928i",
      "midiNote": 68,
      "noteName": "G#4",
      "velocity": 0.8661417322834646,
      "duration": "94i"
    },
    {
      "time": "32928i",
      "midiNote": 68,
      "noteName": "G#4",
      "velocity": 0.07874015748031496,
      "duration": "94i"
    },
    {
      "time": "33024i",
      "midiNote": 35,
      "noteName": "B1",
      "velocity": 0.8503937007874016,
      "duration": "192i"
    },
    {
      "time": "33024i",
      "midiNote": 59,
      "noteName": "B3",
      "velocity": 0.7244094488188977,
      "duration": "94i"
    },
    {
      "time": "33024i",
      "midiNote": 63,
      "noteName": "D#4",
      "velocity": 0.8661417322834646,
      "duration": "94i"
    },
    {
      "time": "33024i",
      "midiNote": 63,
      "noteName": "D#4",
      "velocity": 0.07874015748031496,
      "duration": "94i"
    },
    {
      "time": "33120i",
      "midiNote": 59,
      "noteName": "B3",
      "velocity": 0.7244094488188977,
      "duration": "94i"
    },
    {
      "time": "33120i",
      "midiNote": 70,
      "noteName": "A#4",
      "velocity": 0.8661417322834646,
      "duration": "94i"
    },
    {
      "time": "33120i",
      "midiNote": 70,
      "noteName": "A#4",
      "velocity": 0.07874015748031496,
      "duration": "94i"
    },
    {
      "time": "33216i",
      "midiNote": 59,
      "noteName": "B3",
      "velocity": 0.7244094488188977,
      "duration": "94i"
    },
    {
      "time": "33216i",
      "midiNote": 75,
      "noteName": "D#5",
      "velocity": 0.8661417322834646,
      "duration": "94i"
    },
    {
      "time": "33216i",
      "midiNote": 75,
      "noteName": "D#5",
      "velocity": 0.07874015748031496,
      "duration": "94i"
    },
    {
      "time": "33312i",
      "midiNote": 59,
      "noteName": "B3",
      "velocity": 0.7244094488188977,
      "duration": "94i"
    },
    {
      "time": "33312i",
      "midiNote": 61,
      "noteName": "C#4",
      "velocity": 0.8661417322834646,
      "duration": "94i"
    },
    {
      "time": "33312i",
      "midiNote": 61,
      "noteName": "C#4",
      "velocity": 0.07874015748031496,
      "duration": "94i"
    },
    {
      "time": "33408i",
      "midiNote": 59,
      "noteName": "B3",
      "velocity": 0.7244094488188977,
      "duration": "94i"
    },
    {
      "time": "33408i",
      "midiNote": 68,
      "noteName": "G#4",
      "velocity": 0.8661417322834646,
      "duration": "94i"
    },
    {
      "time": "33408i",
      "midiNote": 68,
      "noteName": "G#4",
      "velocity": 0.07874015748031496,
      "duration": "94i"
    },
    {
      "time": "33504i",
      "midiNote": 59,
      "noteName": "B3",
      "velocity": 0.7244094488188977,
      "duration": "94i"
    },
    {
      "time": "33504i",
      "midiNote": 73,
      "noteName": "C#5",
      "velocity": 0.8661417322834646,
      "duration": "94i"
    },
    {
      "time": "33504i",
      "midiNote": 73,
      "noteName": "C#5",
      "velocity": 0.07874015748031496,
      "duration": "94i"
    },
    {
      "time": "33600i",
      "midiNote": 59,
      "noteName": "B3",
      "velocity": 0.7244094488188977,
      "duration": "94i"
    },
    {
      "time": "33600i",
      "midiNote": 66,
      "noteName": "F#4",
      "velocity": 0.8661417322834646,
      "duration": "94i"
    },
    {
      "time": "33600i",
      "midiNote": 66,
      "noteName": "F#4",
      "velocity": 0.07874015748031496,
      "duration": "94i"
    },
    {
      "time": "33696i",
      "midiNote": 59,
      "noteName": "B3",
      "velocity": 0.7244094488188977,
      "duration": "94i"
    },
    {
      "time": "33696i",
      "midiNote": 65,
      "noteName": "F4",
      "velocity": 0.8661417322834646,
      "duration": "94i"
    },
    {
      "time": "33696i",
      "midiNote": 65,
      "noteName": "F4",
      "velocity": 0.07874015748031496,
      "duration": "94i"
    },
    {
      "time": "33792i",
      "midiNote": 35,
      "noteName": "B1",
      "velocity": 0.8503937007874016,
      "duration": "192i"
    },
    {
      "time": "33792i",
      "midiNote": 54,
      "noteName": "F#3",
      "velocity": 0.7244094488188977,
      "duration": "46i"
    },
    {
      "time": "33792i",
      "midiNote": 63,
      "noteName": "D#4",
      "velocity": 0.8661417322834646,
      "duration": "94i"
    },
    {
      "time": "33792i",
      "midiNote": 63,
      "noteName": "D#4",
      "velocity": 0.07874015748031496,
      "duration": "94i"
    },
    {
      "time": "33840i",
      "midiNote": 54,
      "noteName": "F#3",
      "velocity": 0.7244094488188977,
      "duration": "46i"
    },
    {
      "time": "33888i",
      "midiNote": 54,
      "noteName": "F#3",
      "velocity": 0.7244094488188977,
      "duration": "46i"
    },
    {
      "time": "33888i",
      "midiNote": 70,
      "noteName": "A#4",
      "velocity": 0.8661417322834646,
      "duration": "94i"
    },
    {
      "time": "33888i",
      "midiNote": 70,
      "noteName": "A#4",
      "velocity": 0.07874015748031496,
      "duration": "94i"
    },
    {
      "time": "33936i",
      "midiNote": 54,
      "noteName": "F#3",
      "velocity": 0.7244094488188977,
      "duration": "46i"
    },
    {
      "time": "33984i",
      "midiNote": 54,
      "noteName": "F#3",
      "velocity": 0.7244094488188977,
      "duration": "46i"
    },
    {
      "time": "33984i",
      "midiNote": 75,
      "noteName": "D#5",
      "velocity": 0.8661417322834646,
      "duration": "94i"
    },
    {
      "time": "33984i",
      "midiNote": 75,
      "noteName": "D#5",
      "velocity": 0.07874015748031496,
      "duration": "94i"
    },
    {
      "time": "34032i",
      "midiNote": 54,
      "noteName": "F#3",
      "velocity": 0.7244094488188977,
      "duration": "46i"
    },
    {
      "time": "34080i",
      "midiNote": 54,
      "noteName": "F#3",
      "velocity": 0.7244094488188977,
      "duration": "46i"
    },
    {
      "time": "34080i",
      "midiNote": 61,
      "noteName": "C#4",
      "velocity": 0.8661417322834646,
      "duration": "94i"
    },
    {
      "time": "34080i",
      "midiNote": 61,
      "noteName": "C#4",
      "velocity": 0.07874015748031496,
      "duration": "94i"
    },
    {
      "time": "34128i",
      "midiNote": 54,
      "noteName": "F#3",
      "velocity": 0.7244094488188977,
      "duration": "46i"
    },
    {
      "time": "34176i",
      "midiNote": 54,
      "noteName": "F#3",
      "velocity": 0.7244094488188977,
      "duration": "46i"
    },
    {
      "time": "34176i",
      "midiNote": 68,
      "noteName": "G#4",
      "velocity": 0.8661417322834646,
      "duration": "94i"
    },
    {
      "time": "34176i",
      "midiNote": 68,
      "noteName": "G#4",
      "velocity": 0.07874015748031496,
      "duration": "94i"
    },
    {
      "time": "34224i",
      "midiNote": 54,
      "noteName": "F#3",
      "velocity": 0.7244094488188977,
      "duration": "46i"
    },
    {
      "time": "34272i",
      "midiNote": 54,
      "noteName": "F#3",
      "velocity": 0.7244094488188977,
      "duration": "46i"
    },
    {
      "time": "34272i",
      "midiNote": 73,
      "noteName": "C#5",
      "velocity": 0.8661417322834646,
      "duration": "94i"
    },
    {
      "time": "34272i",
      "midiNote": 73,
      "noteName": "C#5",
      "velocity": 0.07874015748031496,
      "duration": "94i"
    },
    {
      "time": "34320i",
      "midiNote": 54,
      "noteName": "F#3",
      "velocity": 0.7244094488188977,
      "duration": "46i"
    },
    {
      "time": "34368i",
      "midiNote": 54,
      "noteName": "F#3",
      "velocity": 0.7244094488188977,
      "duration": "46i"
    },
    {
      "time": "34368i",
      "midiNote": 66,
      "noteName": "F#4",
      "velocity": 0.8661417322834646,
      "duration": "94i"
    },
    {
      "time": "34368i",
      "midiNote": 66,
      "noteName": "F#4",
      "velocity": 0.07874015748031496,
      "duration": "94i"
    },
    {
      "time": "34416i",
      "midiNote": 54,
      "noteName": "F#3",
      "velocity": 0.7244094488188977,
      "duration": "46i"
    },
    {
      "time": "34464i",
      "midiNote": 54,
      "noteName": "F#3",
      "velocity": 0.7244094488188977,
      "duration": "46i"
    },
    {
      "time": "34464i",
      "midiNote": 68,
      "noteName": "G#4",
      "velocity": 0.8661417322834646,
      "duration": "94i"
    },
    {
      "time": "34464i",
      "midiNote": 68,
      "noteName": "G#4",
      "velocity": 0.07874015748031496,
      "duration": "94i"
    },
    {
      "time": "34512i",
      "midiNote": 54,
      "noteName": "F#3",
      "velocity": 0.7244094488188977,
      "duration": "46i"
    },
    {
      "time": "34560i",
      "midiNote": 35,
      "noteName": "B1",
      "velocity": 0.8503937007874016,
      "duration": "192i"
    },
    {
      "time": "34560i",
      "midiNote": 54,
      "noteName": "F#3",
      "velocity": 0.7244094488188977,
      "duration": "46i"
    },
    {
      "time": "34560i",
      "midiNote": 63,
      "noteName": "D#4",
      "velocity": 0.8661417322834646,
      "duration": "94i"
    },
    {
      "time": "34560i",
      "midiNote": 63,
      "noteName": "D#4",
      "velocity": 0.07874015748031496,
      "duration": "94i"
    },
    {
      "time": "34608i",
      "midiNote": 54,
      "noteName": "F#3",
      "velocity": 0.7244094488188977,
      "duration": "46i"
    },
    {
      "time": "34656i",
      "midiNote": 54,
      "noteName": "F#3",
      "velocity": 0.7244094488188977,
      "duration": "46i"
    },
    {
      "time": "34656i",
      "midiNote": 70,
      "noteName": "A#4",
      "velocity": 0.8661417322834646,
      "duration": "94i"
    },
    {
      "time": "34656i",
      "midiNote": 70,
      "noteName": "A#4",
      "velocity": 0.07874015748031496,
      "duration": "94i"
    },
    {
      "time": "34704i",
      "midiNote": 54,
      "noteName": "F#3",
      "velocity": 0.7244094488188977,
      "duration": "46i"
    },
    {
      "time": "34752i",
      "midiNote": 54,
      "noteName": "F#3",
      "velocity": 0.7244094488188977,
      "duration": "46i"
    },
    {
      "time": "34752i",
      "midiNote": 75,
      "noteName": "D#5",
      "velocity": 0.8661417322834646,
      "duration": "94i"
    },
    {
      "time": "34752i",
      "midiNote": 75,
      "noteName": "D#5",
      "velocity": 0.07874015748031496,
      "duration": "94i"
    },
    {
      "time": "34800i",
      "midiNote": 54,
      "noteName": "F#3",
      "velocity": 0.7244094488188977,
      "duration": "46i"
    },
    {
      "time": "34848i",
      "midiNote": 54,
      "noteName": "F#3",
      "velocity": 0.7244094488188977,
      "duration": "46i"
    },
    {
      "time": "34848i",
      "midiNote": 61,
      "noteName": "C#4",
      "velocity": 0.8661417322834646,
      "duration": "94i"
    },
    {
      "time": "34848i",
      "midiNote": 61,
      "noteName": "C#4",
      "velocity": 0.07874015748031496,
      "duration": "94i"
    },
    {
      "time": "34896i",
      "midiNote": 54,
      "noteName": "F#3",
      "velocity": 0.7244094488188977,
      "duration": "46i"
    },
    {
      "time": "34944i",
      "midiNote": 54,
      "noteName": "F#3",
      "velocity": 0.7244094488188977,
      "duration": "46i"
    },
    {
      "time": "34944i",
      "midiNote": 68,
      "noteName": "G#4",
      "velocity": 0.8661417322834646,
      "duration": "94i"
    },
    {
      "time": "34944i",
      "midiNote": 68,
      "noteName": "G#4",
      "velocity": 0.07874015748031496,
      "duration": "94i"
    },
    {
      "time": "34992i",
      "midiNote": 54,
      "noteName": "F#3",
      "velocity": 0.7244094488188977,
      "duration": "46i"
    },
    {
      "time": "35040i",
      "midiNote": 54,
      "noteName": "F#3",
      "velocity": 0.7244094488188977,
      "duration": "46i"
    },
    {
      "time": "35040i",
      "midiNote": 73,
      "noteName": "C#5",
      "velocity": 0.8661417322834646,
      "duration": "94i"
    },
    {
      "time": "35040i",
      "midiNote": 73,
      "noteName": "C#5",
      "velocity": 0.07874015748031496,
      "duration": "94i"
    },
    {
      "time": "35088i",
      "midiNote": 54,
      "noteName": "F#3",
      "velocity": 0.7244094488188977,
      "duration": "46i"
    },
    {
      "time": "35136i",
      "midiNote": 66,
      "noteName": "F#4",
      "velocity": 0.8661417322834646,
      "duration": "94i"
    },
    {
      "time": "35136i",
      "midiNote": 54,
      "noteName": "F#3",
      "velocity": 0.7244094488188977,
      "duration": "46i"
    },
    {
      "time": "35136i",
      "midiNote": 66,
      "noteName": "F#4",
      "velocity": 0.07874015748031496,
      "duration": "94i"
    },
    {
      "time": "35184i",
      "midiNote": 54,
      "noteName": "F#3",
      "velocity": 0.7244094488188977,
      "duration": "46i"
    },
    {
      "time": "35232i",
      "midiNote": 54,
      "noteName": "F#3",
      "velocity": 0.7244094488188977,
      "duration": "46i"
    },
    {
      "time": "35232i",
      "midiNote": 65,
      "noteName": "F4",
      "velocity": 0.8661417322834646,
      "duration": "94i"
    },
    {
      "time": "35232i",
      "midiNote": 65,
      "noteName": "F4",
      "velocity": 0.07874015748031496,
      "duration": "94i"
    },
    {
      "time": "35280i",
      "midiNote": 54,
      "noteName": "F#3",
      "velocity": 0.7244094488188977,
      "duration": "46i"
    },
    {
      "time": "35328i",
      "midiNote": 35,
      "noteName": "B1",
      "velocity": 0.8503937007874016,
      "duration": "192i"
    },
    {
      "time": "35328i",
      "midiNote": 54,
      "noteName": "F#3",
      "velocity": 0.7244094488188977,
      "duration": "32i"
    },
    {
      "time": "35328i",
      "midiNote": 63,
      "noteName": "D#4",
      "velocity": 0.8661417322834646,
      "duration": "32i"
    },
    {
      "time": "35328i",
      "midiNote": 63,
      "noteName": "D#4",
      "velocity": 0.07874015748031496,
      "duration": "32i"
    },
    {
      "time": "35424i",
      "midiNote": 54,
      "noteName": "F#3",
      "velocity": 0.7244094488188977,
      "duration": "32i"
    },
    {
      "time": "35424i",
      "midiNote": 70,
      "noteName": "A#4",
      "velocity": 0.8661417322834646,
      "duration": "32i"
    },
    {
      "time": "35424i",
      "midiNote": 70,
      "noteName": "A#4",
      "velocity": 0.07874015748031496,
      "duration": "32i"
    },
    {
      "time": "35520i",
      "midiNote": 54,
      "noteName": "F#3",
      "velocity": 0.7244094488188977,
      "duration": "32i"
    },
    {
      "time": "35520i",
      "midiNote": 75,
      "noteName": "D#5",
      "velocity": 0.8661417322834646,
      "duration": "32i"
    },
    {
      "time": "35520i",
      "midiNote": 75,
      "noteName": "D#5",
      "velocity": 0.07874015748031496,
      "duration": "32i"
    },
    {
      "time": "35616i",
      "midiNote": 54,
      "noteName": "F#3",
      "velocity": 0.7244094488188977,
      "duration": "32i"
    },
    {
      "time": "35616i",
      "midiNote": 61,
      "noteName": "C#4",
      "velocity": 0.8661417322834646,
      "duration": "32i"
    },
    {
      "time": "35616i",
      "midiNote": 61,
      "noteName": "C#4",
      "velocity": 0.07874015748031496,
      "duration": "32i"
    },
    {
      "time": "35712i",
      "midiNote": 54,
      "noteName": "F#3",
      "velocity": 0.7244094488188977,
      "duration": "32i"
    },
    {
      "time": "35712i",
      "midiNote": 68,
      "noteName": "G#4",
      "velocity": 0.8661417322834646,
      "duration": "32i"
    },
    {
      "time": "35712i",
      "midiNote": 68,
      "noteName": "G#4",
      "velocity": 0.07874015748031496,
      "duration": "32i"
    },
    {
      "time": "35808i",
      "midiNote": 54,
      "noteName": "F#3",
      "velocity": 0.7244094488188977,
      "duration": "32i"
    },
    {
      "time": "35808i",
      "midiNote": 73,
      "noteName": "C#5",
      "velocity": 0.8661417322834646,
      "duration": "32i"
    },
    {
      "time": "35808i",
      "midiNote": 73,
      "noteName": "C#5",
      "velocity": 0.07874015748031496,
      "duration": "32i"
    },
    {
      "time": "35904i",
      "midiNote": 54,
      "noteName": "F#3",
      "velocity": 0.7244094488188977,
      "duration": "32i"
    },
    {
      "time": "35904i",
      "midiNote": 66,
      "noteName": "F#4",
      "velocity": 0.8661417322834646,
      "duration": "32i"
    },
    {
      "time": "35904i",
      "midiNote": 66,
      "noteName": "F#4",
      "velocity": 0.07874015748031496,
      "duration": "32i"
    },
    {
      "time": "36000i",
      "midiNote": 54,
      "noteName": "F#3",
      "velocity": 0.7244094488188977,
      "duration": "32i"
    },
    {
      "time": "36000i",
      "midiNote": 68,
      "noteName": "G#4",
      "velocity": 0.8661417322834646,
      "duration": "32i"
    },
    {
      "time": "36000i",
      "midiNote": 68,
      "noteName": "G#4",
      "velocity": 0.07874015748031496,
      "duration": "32i"
    },
    {
      "time": "36096i",
      "midiNote": 35,
      "noteName": "B1",
      "velocity": 0.8503937007874016,
      "duration": "192i"
    },
    {
      "time": "36096i",
      "midiNote": 54,
      "noteName": "F#3",
      "velocity": 0.7244094488188977,
      "duration": "32i"
    },
    {
      "time": "36096i",
      "midiNote": 63,
      "noteName": "D#4",
      "velocity": 0.8661417322834646,
      "duration": "32i"
    },
    {
      "time": "36096i",
      "midiNote": 63,
      "noteName": "D#4",
      "velocity": 0.07874015748031496,
      "duration": "32i"
    },
    {
      "time": "36192i",
      "midiNote": 54,
      "noteName": "F#3",
      "velocity": 0.7244094488188977,
      "duration": "32i"
    },
    {
      "time": "36192i",
      "midiNote": 70,
      "noteName": "A#4",
      "velocity": 0.8661417322834646,
      "duration": "32i"
    },
    {
      "time": "36192i",
      "midiNote": 70,
      "noteName": "A#4",
      "velocity": 0.07874015748031496,
      "duration": "32i"
    },
    {
      "time": "36288i",
      "midiNote": 54,
      "noteName": "F#3",
      "velocity": 0.7244094488188977,
      "duration": "32i"
    },
    {
      "time": "36288i",
      "midiNote": 75,
      "noteName": "D#5",
      "velocity": 0.8661417322834646,
      "duration": "32i"
    },
    {
      "time": "36288i",
      "midiNote": 75,
      "noteName": "D#5",
      "velocity": 0.07874015748031496,
      "duration": "32i"
    },
    {
      "time": "36384i",
      "midiNote": 54,
      "noteName": "F#3",
      "velocity": 0.7244094488188977,
      "duration": "32i"
    },
    {
      "time": "36384i",
      "midiNote": 61,
      "noteName": "C#4",
      "velocity": 0.8661417322834646,
      "duration": "32i"
    },
    {
      "time": "36384i",
      "midiNote": 61,
      "noteName": "C#4",
      "velocity": 0.07874015748031496,
      "duration": "32i"
    },
    {
      "time": "36480i",
      "midiNote": 54,
      "noteName": "F#3",
      "velocity": 0.7244094488188977,
      "duration": "32i"
    },
    {
      "time": "36480i",
      "midiNote": 68,
      "noteName": "G#4",
      "velocity": 0.8661417322834646,
      "duration": "32i"
    },
    {
      "time": "36480i",
      "midiNote": 68,
      "noteName": "G#4",
      "velocity": 0.07874015748031496,
      "duration": "32i"
    },
    {
      "time": "36576i",
      "midiNote": 54,
      "noteName": "F#3",
      "velocity": 0.7244094488188977,
      "duration": "32i"
    },
    {
      "time": "36576i",
      "midiNote": 73,
      "noteName": "C#5",
      "velocity": 0.8661417322834646,
      "duration": "32i"
    },
    {
      "time": "36576i",
      "midiNote": 73,
      "noteName": "C#5",
      "velocity": 0.07874015748031496,
      "duration": "32i"
    },
    {
      "time": "36672i",
      "midiNote": 54,
      "noteName": "F#3",
      "velocity": 0.7244094488188977,
      "duration": "32i"
    },
    {
      "time": "36672i",
      "midiNote": 66,
      "noteName": "F#4",
      "velocity": 0.8661417322834646,
      "duration": "32i"
    },
    {
      "time": "36672i",
      "midiNote": 66,
      "noteName": "F#4",
      "velocity": 0.07874015748031496,
      "duration": "32i"
    },
    {
      "time": "36768i",
      "midiNote": 54,
      "noteName": "F#3",
      "velocity": 0.7244094488188977,
      "duration": "32i"
    },
    {
      "time": "36768i",
      "midiNote": 65,
      "noteName": "F4",
      "velocity": 0.8661417322834646,
      "duration": "32i"
    },
    {
      "time": "36768i",
      "midiNote": 65,
      "noteName": "F4",
      "velocity": 0.07874015748031496,
      "duration": "32i"
    },
    {
      "time": "36864i",
      "midiNote": 36,
      "noteName": "C2",
      "velocity": 1,
      "duration": "160i"
    },
    {
      "time": "36864i",
      "midiNote": 57,
      "noteName": "A3",
      "velocity": 1,
      "duration": "160i"
    },
    {
      "time": "36864i",
      "midiNote": 35,
      "noteName": "B1",
      "velocity": 0.8503937007874016,
      "duration": "160i"
    },
    {
      "time": "36864i",
      "midiNote": 54,
      "noteName": "F#3",
      "velocity": 0.7244094488188977,
      "duration": "46i"
    },
    {
      "time": "36864i",
      "midiNote": 63,
      "noteName": "D#4",
      "velocity": 0.8661417322834646,
      "duration": "94i"
    },
    {
      "time": "36864i",
      "midiNote": 63,
      "noteName": "D#4",
      "velocity": 0.07874015748031496,
      "duration": "94i"
    },
    {
      "time": "36912i",
      "midiNote": 54,
      "noteName": "F#3",
      "velocity": 0.7244094488188977,
      "duration": "46i"
    },
    {
      "time": "36960i",
      "midiNote": 54,
      "noteName": "F#3",
      "velocity": 0.7244094488188977,
      "duration": "46i"
    },
    {
      "time": "36960i",
      "midiNote": 70,
      "noteName": "A#4",
      "velocity": 0.8661417322834646,
      "duration": "94i"
    },
    {
      "time": "36960i",
      "midiNote": 70,
      "noteName": "A#4",
      "velocity": 0.07874015748031496,
      "duration": "94i"
    },
    {
      "time": "37008i",
      "midiNote": 54,
      "noteName": "F#3",
      "velocity": 0.7244094488188977,
      "duration": "46i"
    },
    {
      "time": "37056i",
      "midiNote": 36,
      "noteName": "C2",
      "velocity": 1,
      "duration": "160i"
    },
    {
      "time": "37056i",
      "midiNote": 35,
      "noteName": "B1",
      "velocity": 0.8503937007874016,
      "duration": "94i"
    },
    {
      "time": "37056i",
      "midiNote": 54,
      "noteName": "F#3",
      "velocity": 0.7244094488188977,
      "duration": "46i"
    },
    {
      "time": "37056i",
      "midiNote": 75,
      "noteName": "D#5",
      "velocity": 0.8661417322834646,
      "duration": "94i"
    },
    {
      "time": "37056i",
      "midiNote": 75,
      "noteName": "D#5",
      "velocity": 0.07874015748031496,
      "duration": "94i"
    },
    {
      "time": "37104i",
      "midiNote": 54,
      "noteName": "F#3",
      "velocity": 0.7244094488188977,
      "duration": "46i"
    },
    {
      "time": "37152i",
      "midiNote": 33,
      "noteName": "A1",
      "velocity": 0.8503937007874016,
      "duration": "94i"
    },
    {
      "time": "37152i",
      "midiNote": 54,
      "noteName": "F#3",
      "velocity": 0.7244094488188977,
      "duration": "46i"
    },
    {
      "time": "37152i",
      "midiNote": 61,
      "noteName": "C#4",
      "velocity": 0.8661417322834646,
      "duration": "94i"
    },
    {
      "time": "37152i",
      "midiNote": 61,
      "noteName": "C#4",
      "velocity": 0.07874015748031496,
      "duration": "94i"
    },
    {
      "time": "37200i",
      "midiNote": 54,
      "noteName": "F#3",
      "velocity": 0.7244094488188977,
      "duration": "46i"
    },
    {
      "time": "37248i",
      "midiNote": 36,
      "noteName": "C2",
      "velocity": 1,
      "duration": "160i"
    },
    {
      "time": "37248i",
      "midiNote": 35,
      "noteName": "B1",
      "velocity": 0.8503937007874016,
      "duration": "160i"
    },
    {
      "time": "37248i",
      "midiNote": 54,
      "noteName": "F#3",
      "velocity": 0.7244094488188977,
      "duration": "46i"
    },
    {
      "time": "37248i",
      "midiNote": 68,
      "noteName": "G#4",
      "velocity": 0.8661417322834646,
      "duration": "94i"
    },
    {
      "time": "37248i",
      "midiNote": 68,
      "noteName": "G#4",
      "velocity": 0.07874015748031496,
      "duration": "94i"
    },
    {
      "time": "37296i",
      "midiNote": 54,
      "noteName": "F#3",
      "velocity": 0.7244094488188977,
      "duration": "46i"
    },
    {
      "time": "37344i",
      "midiNote": 54,
      "noteName": "F#3",
      "velocity": 0.7244094488188977,
      "duration": "46i"
    },
    {
      "time": "37344i",
      "midiNote": 73,
      "noteName": "C#5",
      "velocity": 0.8661417322834646,
      "duration": "94i"
    },
    {
      "time": "37344i",
      "midiNote": 73,
      "noteName": "C#5",
      "velocity": 0.07874015748031496,
      "duration": "94i"
    },
    {
      "time": "37392i",
      "midiNote": 54,
      "noteName": "F#3",
      "velocity": 0.7244094488188977,
      "duration": "46i"
    },
    {
      "time": "37440i",
      "midiNote": 36,
      "noteName": "C2",
      "velocity": 1,
      "duration": "160i"
    },
    {
      "time": "37440i",
      "midiNote": 35,
      "noteName": "B1",
      "velocity": 0.8503937007874016,
      "duration": "94i"
    },
    {
      "time": "37440i",
      "midiNote": 54,
      "noteName": "F#3",
      "velocity": 0.7244094488188977,
      "duration": "46i"
    },
    {
      "time": "37440i",
      "midiNote": 66,
      "noteName": "F#4",
      "velocity": 0.8661417322834646,
      "duration": "94i"
    },
    {
      "time": "37440i",
      "midiNote": 66,
      "noteName": "F#4",
      "velocity": 0.07874015748031496,
      "duration": "94i"
    },
    {
      "time": "37488i",
      "midiNote": 54,
      "noteName": "F#3",
      "velocity": 0.7244094488188977,
      "duration": "46i"
    },
    {
      "time": "37536i",
      "midiNote": 33,
      "noteName": "A1",
      "velocity": 0.8503937007874016,
      "duration": "94i"
    },
    {
      "time": "37536i",
      "midiNote": 54,
      "noteName": "F#3",
      "velocity": 0.7244094488188977,
      "duration": "46i"
    },
    {
      "time": "37536i",
      "midiNote": 68,
      "noteName": "G#4",
      "velocity": 0.8661417322834646,
      "duration": "94i"
    },
    {
      "time": "37536i",
      "midiNote": 68,
      "noteName": "G#4",
      "velocity": 0.07874015748031496,
      "duration": "94i"
    },
    {
      "time": "37584i",
      "midiNote": 54,
      "noteName": "F#3",
      "velocity": 0.7244094488188977,
      "duration": "46i"
    },
    {
      "time": "37632i",
      "midiNote": 36,
      "noteName": "C2",
      "velocity": 1,
      "duration": "160i"
    },
    {
      "time": "37632i",
      "midiNote": 35,
      "noteName": "B1",
      "velocity": 0.8503937007874016,
      "duration": "160i"
    },
    {
      "time": "37632i",
      "midiNote": 54,
      "noteName": "F#3",
      "velocity": 0.7244094488188977,
      "duration": "46i"
    },
    {
      "time": "37632i",
      "midiNote": 63,
      "noteName": "D#4",
      "velocity": 0.8661417322834646,
      "duration": "94i"
    },
    {
      "time": "37632i",
      "midiNote": 63,
      "noteName": "D#4",
      "velocity": 0.07874015748031496,
      "duration": "94i"
    },
    {
      "time": "37680i",
      "midiNote": 54,
      "noteName": "F#3",
      "velocity": 0.7244094488188977,
      "duration": "46i"
    },
    {
      "time": "37728i",
      "midiNote": 54,
      "noteName": "F#3",
      "velocity": 0.7244094488188977,
      "duration": "46i"
    },
    {
      "time": "37728i",
      "midiNote": 70,
      "noteName": "A#4",
      "velocity": 0.8661417322834646,
      "duration": "94i"
    },
    {
      "time": "37728i",
      "midiNote": 70,
      "noteName": "A#4",
      "velocity": 0.07874015748031496,
      "duration": "94i"
    },
    {
      "time": "37776i",
      "midiNote": 54,
      "noteName": "F#3",
      "velocity": 0.7244094488188977,
      "duration": "46i"
    },
    {
      "time": "37824i",
      "midiNote": 36,
      "noteName": "C2",
      "velocity": 1,
      "duration": "160i"
    },
    {
      "time": "37824i",
      "midiNote": 35,
      "noteName": "B1",
      "velocity": 0.8503937007874016,
      "duration": "94i"
    },
    {
      "time": "37824i",
      "midiNote": 54,
      "noteName": "F#3",
      "velocity": 0.7244094488188977,
      "duration": "46i"
    },
    {
      "time": "37824i",
      "midiNote": 75,
      "noteName": "D#5",
      "velocity": 0.8661417322834646,
      "duration": "94i"
    },
    {
      "time": "37824i",
      "midiNote": 75,
      "noteName": "D#5",
      "velocity": 0.07874015748031496,
      "duration": "94i"
    },
    {
      "time": "37872i",
      "midiNote": 54,
      "noteName": "F#3",
      "velocity": 0.7244094488188977,
      "duration": "46i"
    },
    {
      "time": "37920i",
      "midiNote": 33,
      "noteName": "A1",
      "velocity": 0.8503937007874016,
      "duration": "94i"
    },
    {
      "time": "37920i",
      "midiNote": 54,
      "noteName": "F#3",
      "velocity": 0.7244094488188977,
      "duration": "46i"
    },
    {
      "time": "37920i",
      "midiNote": 61,
      "noteName": "C#4",
      "velocity": 0.8661417322834646,
      "duration": "94i"
    },
    {
      "time": "37920i",
      "midiNote": 61,
      "noteName": "C#4",
      "velocity": 0.07874015748031496,
      "duration": "94i"
    },
    {
      "time": "37968i",
      "midiNote": 54,
      "noteName": "F#3",
      "velocity": 0.7244094488188977,
      "duration": "46i"
    },
    {
      "time": "38016i",
      "midiNote": 36,
      "noteName": "C2",
      "velocity": 1,
      "duration": "160i"
    },
    {
      "time": "38016i",
      "midiNote": 35,
      "noteName": "B1",
      "velocity": 0.8503937007874016,
      "duration": "94i"
    },
    {
      "time": "38016i",
      "midiNote": 54,
      "noteName": "F#3",
      "velocity": 0.7244094488188977,
      "duration": "46i"
    },
    {
      "time": "38016i",
      "midiNote": 68,
      "noteName": "G#4",
      "velocity": 0.8661417322834646,
      "duration": "94i"
    },
    {
      "time": "38016i",
      "midiNote": 68,
      "noteName": "G#4",
      "velocity": 0.07874015748031496,
      "duration": "94i"
    },
    {
      "time": "38064i",
      "midiNote": 54,
      "noteName": "F#3",
      "velocity": 0.7244094488188977,
      "duration": "46i"
    },
    {
      "time": "38112i",
      "midiNote": 33,
      "noteName": "A1",
      "velocity": 0.8503937007874016,
      "duration": "94i"
    },
    {
      "time": "38112i",
      "midiNote": 54,
      "noteName": "F#3",
      "velocity": 0.7244094488188977,
      "duration": "46i"
    },
    {
      "time": "38112i",
      "midiNote": 73,
      "noteName": "C#5",
      "velocity": 0.8661417322834646,
      "duration": "94i"
    },
    {
      "time": "38112i",
      "midiNote": 73,
      "noteName": "C#5",
      "velocity": 0.07874015748031496,
      "duration": "94i"
    },
    {
      "time": "38160i",
      "midiNote": 54,
      "noteName": "F#3",
      "velocity": 0.7244094488188977,
      "duration": "46i"
    },
    {
      "time": "38208i",
      "midiNote": 36,
      "noteName": "C2",
      "velocity": 1,
      "duration": "160i"
    },
    {
      "time": "38208i",
      "midiNote": 35,
      "noteName": "B1",
      "velocity": 0.8503937007874016,
      "duration": "94i"
    },
    {
      "time": "38208i",
      "midiNote": 54,
      "noteName": "F#3",
      "velocity": 0.7244094488188977,
      "duration": "46i"
    },
    {
      "time": "38208i",
      "midiNote": 66,
      "noteName": "F#4",
      "velocity": 0.8661417322834646,
      "duration": "94i"
    },
    {
      "time": "38208i",
      "midiNote": 66,
      "noteName": "F#4",
      "velocity": 0.07874015748031496,
      "duration": "94i"
    },
    {
      "time": "38256i",
      "midiNote": 54,
      "noteName": "F#3",
      "velocity": 0.7244094488188977,
      "duration": "46i"
    },
    {
      "time": "38304i",
      "midiNote": 37,
      "noteName": "C#2",
      "velocity": 0.8503937007874016,
      "duration": "94i"
    },
    {
      "time": "38304i",
      "midiNote": 54,
      "noteName": "F#3",
      "velocity": 0.7244094488188977,
      "duration": "46i"
    },
    {
      "time": "38304i",
      "midiNote": 65,
      "noteName": "F4",
      "velocity": 0.8661417322834646,
      "duration": "94i"
    },
    {
      "time": "38304i",
      "midiNote": 65,
      "noteName": "F4",
      "velocity": 0.07874015748031496,
      "duration": "94i"
    },
    {
      "time": "38352i",
      "midiNote": 54,
      "noteName": "F#3",
      "velocity": 0.7244094488188977,
      "duration": "46i"
    },
    {
      "time": "38400i",
      "midiNote": 36,
      "noteName": "C2",
      "velocity": 1,
      "duration": "160i"
    },
    {
      "time": "38400i",
      "midiNote": 35,
      "noteName": "B1",
      "velocity": 0.8503937007874016,
      "duration": "160i"
    },
    {
      "time": "38400i",
      "midiNote": 54,
      "noteName": "F#3",
      "velocity": 0.7244094488188977,
      "duration": "46i"
    },
    {
      "time": "38400i",
      "midiNote": 63,
      "noteName": "D#4",
      "velocity": 0.8661417322834646,
      "duration": "94i"
    },
    {
      "time": "38400i",
      "midiNote": 63,
      "noteName": "D#4",
      "velocity": 0.07874015748031496,
      "duration": "94i"
    },
    {
      "time": "38448i",
      "midiNote": 54,
      "noteName": "F#3",
      "velocity": 0.7244094488188977,
      "duration": "46i"
    },
    {
      "time": "38496i",
      "midiNote": 54,
      "noteName": "F#3",
      "velocity": 0.7244094488188977,
      "duration": "46i"
    },
    {
      "time": "38496i",
      "midiNote": 70,
      "noteName": "A#4",
      "velocity": 0.8661417322834646,
      "duration": "94i"
    },
    {
      "time": "38496i",
      "midiNote": 70,
      "noteName": "A#4",
      "velocity": 0.07874015748031496,
      "duration": "94i"
    },
    {
      "time": "38544i",
      "midiNote": 54,
      "noteName": "F#3",
      "velocity": 0.7244094488188977,
      "duration": "46i"
    },
    {
      "time": "38592i",
      "midiNote": 36,
      "noteName": "C2",
      "velocity": 1,
      "duration": "160i"
    },
    {
      "time": "38592i",
      "midiNote": 35,
      "noteName": "B1",
      "velocity": 0.8503937007874016,
      "duration": "94i"
    },
    {
      "time": "38592i",
      "midiNote": 54,
      "noteName": "F#3",
      "velocity": 0.7244094488188977,
      "duration": "46i"
    },
    {
      "time": "38592i",
      "midiNote": 75,
      "noteName": "D#5",
      "velocity": 0.8661417322834646,
      "duration": "94i"
    },
    {
      "time": "38592i",
      "midiNote": 75,
      "noteName": "D#5",
      "velocity": 0.07874015748031496,
      "duration": "94i"
    },
    {
      "time": "38640i",
      "midiNote": 54,
      "noteName": "F#3",
      "velocity": 0.7244094488188977,
      "duration": "46i"
    },
    {
      "time": "38688i",
      "midiNote": 33,
      "noteName": "A1",
      "velocity": 0.8503937007874016,
      "duration": "94i"
    },
    {
      "time": "38688i",
      "midiNote": 54,
      "noteName": "F#3",
      "velocity": 0.7244094488188977,
      "duration": "46i"
    },
    {
      "time": "38688i",
      "midiNote": 61,
      "noteName": "C#4",
      "velocity": 0.8661417322834646,
      "duration": "94i"
    },
    {
      "time": "38688i",
      "midiNote": 61,
      "noteName": "C#4",
      "velocity": 0.07874015748031496,
      "duration": "94i"
    },
    {
      "time": "38736i",
      "midiNote": 54,
      "noteName": "F#3",
      "velocity": 0.7244094488188977,
      "duration": "46i"
    },
    {
      "time": "38784i",
      "midiNote": 36,
      "noteName": "C2",
      "velocity": 1,
      "duration": "160i"
    },
    {
      "time": "38784i",
      "midiNote": 35,
      "noteName": "B1",
      "velocity": 0.8503937007874016,
      "duration": "160i"
    },
    {
      "time": "38784i",
      "midiNote": 54,
      "noteName": "F#3",
      "velocity": 0.7244094488188977,
      "duration": "46i"
    },
    {
      "time": "38784i",
      "midiNote": 68,
      "noteName": "G#4",
      "velocity": 0.8661417322834646,
      "duration": "94i"
    },
    {
      "time": "38784i",
      "midiNote": 68,
      "noteName": "G#4",
      "velocity": 0.07874015748031496,
      "duration": "94i"
    },
    {
      "time": "38832i",
      "midiNote": 54,
      "noteName": "F#3",
      "velocity": 0.7244094488188977,
      "duration": "46i"
    },
    {
      "time": "38880i",
      "midiNote": 54,
      "noteName": "F#3",
      "velocity": 0.7244094488188977,
      "duration": "46i"
    },
    {
      "time": "38880i",
      "midiNote": 73,
      "noteName": "C#5",
      "velocity": 0.8661417322834646,
      "duration": "94i"
    },
    {
      "time": "38880i",
      "midiNote": 73,
      "noteName": "C#5",
      "velocity": 0.07874015748031496,
      "duration": "94i"
    },
    {
      "time": "38928i",
      "midiNote": 54,
      "noteName": "F#3",
      "velocity": 0.7244094488188977,
      "duration": "46i"
    },
    {
      "time": "38976i",
      "midiNote": 36,
      "noteName": "C2",
      "velocity": 1,
      "duration": "160i"
    },
    {
      "time": "38976i",
      "midiNote": 35,
      "noteName": "B1",
      "velocity": 0.8503937007874016,
      "duration": "94i"
    },
    {
      "time": "38976i",
      "midiNote": 54,
      "noteName": "F#3",
      "velocity": 0.7244094488188977,
      "duration": "46i"
    },
    {
      "time": "38976i",
      "midiNote": 66,
      "noteName": "F#4",
      "velocity": 0.8661417322834646,
      "duration": "94i"
    },
    {
      "time": "38976i",
      "midiNote": 66,
      "noteName": "F#4",
      "velocity": 0.07874015748031496,
      "duration": "94i"
    },
    {
      "time": "39024i",
      "midiNote": 54,
      "noteName": "F#3",
      "velocity": 0.7244094488188977,
      "duration": "46i"
    },
    {
      "time": "39072i",
      "midiNote": 33,
      "noteName": "A1",
      "velocity": 0.8503937007874016,
      "duration": "94i"
    },
    {
      "time": "39072i",
      "midiNote": 54,
      "noteName": "F#3",
      "velocity": 0.7244094488188977,
      "duration": "46i"
    },
    {
      "time": "39072i",
      "midiNote": 68,
      "noteName": "G#4",
      "velocity": 0.8661417322834646,
      "duration": "94i"
    },
    {
      "time": "39072i",
      "midiNote": 68,
      "noteName": "G#4",
      "velocity": 0.07874015748031496,
      "duration": "94i"
    },
    {
      "time": "39120i",
      "midiNote": 54,
      "noteName": "F#3",
      "velocity": 0.7244094488188977,
      "duration": "46i"
    },
    {
      "time": "39168i",
      "midiNote": 36,
      "noteName": "C2",
      "velocity": 1,
      "duration": "160i"
    },
    {
      "time": "39168i",
      "midiNote": 35,
      "noteName": "B1",
      "velocity": 0.8503937007874016,
      "duration": "160i"
    },
    {
      "time": "39168i",
      "midiNote": 54,
      "noteName": "F#3",
      "velocity": 0.7244094488188977,
      "duration": "46i"
    },
    {
      "time": "39168i",
      "midiNote": 63,
      "noteName": "D#4",
      "velocity": 0.8661417322834646,
      "duration": "94i"
    },
    {
      "time": "39168i",
      "midiNote": 63,
      "noteName": "D#4",
      "velocity": 0.07874015748031496,
      "duration": "94i"
    },
    {
      "time": "39216i",
      "midiNote": 54,
      "noteName": "F#3",
      "velocity": 0.7244094488188977,
      "duration": "46i"
    },
    {
      "time": "39264i",
      "midiNote": 54,
      "noteName": "F#3",
      "velocity": 0.7244094488188977,
      "duration": "46i"
    },
    {
      "time": "39264i",
      "midiNote": 70,
      "noteName": "A#4",
      "velocity": 0.8661417322834646,
      "duration": "94i"
    },
    {
      "time": "39264i",
      "midiNote": 70,
      "noteName": "A#4",
      "velocity": 0.07874015748031496,
      "duration": "94i"
    },
    {
      "time": "39312i",
      "midiNote": 54,
      "noteName": "F#3",
      "velocity": 0.7244094488188977,
      "duration": "46i"
    },
    {
      "time": "39360i",
      "midiNote": 36,
      "noteName": "C2",
      "velocity": 1,
      "duration": "160i"
    },
    {
      "time": "39360i",
      "midiNote": 35,
      "noteName": "B1",
      "velocity": 0.8503937007874016,
      "duration": "94i"
    },
    {
      "time": "39360i",
      "midiNote": 54,
      "noteName": "F#3",
      "velocity": 0.7244094488188977,
      "duration": "46i"
    },
    {
      "time": "39360i",
      "midiNote": 75,
      "noteName": "D#5",
      "velocity": 0.8661417322834646,
      "duration": "94i"
    },
    {
      "time": "39360i",
      "midiNote": 75,
      "noteName": "D#5",
      "velocity": 0.07874015748031496,
      "duration": "94i"
    },
    {
      "time": "39408i",
      "midiNote": 54,
      "noteName": "F#3",
      "velocity": 0.7244094488188977,
      "duration": "46i"
    },
    {
      "time": "39456i",
      "midiNote": 33,
      "noteName": "A1",
      "velocity": 0.8503937007874016,
      "duration": "94i"
    },
    {
      "time": "39456i",
      "midiNote": 54,
      "noteName": "F#3",
      "velocity": 0.7244094488188977,
      "duration": "46i"
    },
    {
      "time": "39456i",
      "midiNote": 61,
      "noteName": "C#4",
      "velocity": 0.8661417322834646,
      "duration": "94i"
    },
    {
      "time": "39456i",
      "midiNote": 61,
      "noteName": "C#4",
      "velocity": 0.07874015748031496,
      "duration": "94i"
    },
    {
      "time": "39504i",
      "midiNote": 54,
      "noteName": "F#3",
      "velocity": 0.7244094488188977,
      "duration": "46i"
    },
    {
      "time": "39552i",
      "midiNote": 36,
      "noteName": "C2",
      "velocity": 1,
      "duration": "160i"
    },
    {
      "time": "39552i",
      "midiNote": 35,
      "noteName": "B1",
      "velocity": 0.8503937007874016,
      "duration": "94i"
    },
    {
      "time": "39552i",
      "midiNote": 54,
      "noteName": "F#3",
      "velocity": 0.7244094488188977,
      "duration": "46i"
    },
    {
      "time": "39552i",
      "midiNote": 68,
      "noteName": "G#4",
      "velocity": 0.8661417322834646,
      "duration": "94i"
    },
    {
      "time": "39552i",
      "midiNote": 68,
      "noteName": "G#4",
      "velocity": 0.07874015748031496,
      "duration": "94i"
    },
    {
      "time": "39600i",
      "midiNote": 54,
      "noteName": "F#3",
      "velocity": 0.7244094488188977,
      "duration": "46i"
    },
    {
      "time": "39648i",
      "midiNote": 33,
      "noteName": "A1",
      "velocity": 0.8503937007874016,
      "duration": "94i"
    },
    {
      "time": "39648i",
      "midiNote": 54,
      "noteName": "F#3",
      "velocity": 0.7244094488188977,
      "duration": "46i"
    },
    {
      "time": "39648i",
      "midiNote": 73,
      "noteName": "C#5",
      "velocity": 0.8661417322834646,
      "duration": "94i"
    },
    {
      "time": "39648i",
      "midiNote": 73,
      "noteName": "C#5",
      "velocity": 0.07874015748031496,
      "duration": "94i"
    },
    {
      "time": "39696i",
      "midiNote": 54,
      "noteName": "F#3",
      "velocity": 0.7244094488188977,
      "duration": "46i"
    },
    {
      "time": "39744i",
      "midiNote": 36,
      "noteName": "C2",
      "velocity": 1,
      "duration": "160i"
    },
    {
      "time": "39744i",
      "midiNote": 35,
      "noteName": "B1",
      "velocity": 0.8503937007874016,
      "duration": "94i"
    },
    {
      "time": "39744i",
      "midiNote": 54,
      "noteName": "F#3",
      "velocity": 0.7244094488188977,
      "duration": "46i"
    },
    {
      "time": "39744i",
      "midiNote": 66,
      "noteName": "F#4",
      "velocity": 0.8661417322834646,
      "duration": "94i"
    },
    {
      "time": "39744i",
      "midiNote": 66,
      "noteName": "F#4",
      "velocity": 0.07874015748031496,
      "duration": "94i"
    },
    {
      "time": "39792i",
      "midiNote": 54,
      "noteName": "F#3",
      "velocity": 0.7244094488188977,
      "duration": "46i"
    },
    {
      "time": "39840i",
      "midiNote": 37,
      "noteName": "C#2",
      "velocity": 0.8503937007874016,
      "duration": "94i"
    },
    {
      "time": "39840i",
      "midiNote": 54,
      "noteName": "F#3",
      "velocity": 0.7244094488188977,
      "duration": "46i"
    },
    {
      "time": "39840i",
      "midiNote": 65,
      "noteName": "F4",
      "velocity": 0.8661417322834646,
      "duration": "94i"
    },
    {
      "time": "39840i",
      "midiNote": 65,
      "noteName": "F4",
      "velocity": 0.07874015748031496,
      "duration": "94i"
    },
    {
      "time": "39888i",
      "midiNote": 54,
      "noteName": "F#3",
      "velocity": 0.7244094488188977,
      "duration": "46i"
    },
    {
      "time": "39936i",
      "midiNote": 36,
      "noteName": "C2",
      "velocity": 1,
      "duration": "160i"
    },
    {
      "time": "39936i",
      "midiNote": 35,
      "noteName": "B1",
      "velocity": 0.8503937007874016,
      "duration": "160i"
    },
    {
      "time": "39936i",
      "midiNote": 54,
      "noteName": "F#3",
      "velocity": 0.7244094488188977,
      "duration": "46i"
    },
    {
      "time": "39936i",
      "midiNote": 63,
      "noteName": "D#4",
      "velocity": 0.8661417322834646,
      "duration": "94i"
    },
    {
      "time": "39936i",
      "midiNote": 63,
      "noteName": "D#4",
      "velocity": 0.07874015748031496,
      "duration": "94i"
    },
    {
      "time": "39984i",
      "midiNote": 54,
      "noteName": "F#3",
      "velocity": 0.7244094488188977,
      "duration": "46i"
    },
    {
      "time": "40032i",
      "midiNote": 54,
      "noteName": "F#3",
      "velocity": 0.7244094488188977,
      "duration": "46i"
    },
    {
      "time": "40032i",
      "midiNote": 70,
      "noteName": "A#4",
      "velocity": 0.8661417322834646,
      "duration": "94i"
    },
    {
      "time": "40032i",
      "midiNote": 70,
      "noteName": "A#4",
      "velocity": 0.07874015748031496,
      "duration": "94i"
    },
    {
      "time": "40080i",
      "midiNote": 54,
      "noteName": "F#3",
      "velocity": 0.7244094488188977,
      "duration": "46i"
    },
    {
      "time": "40128i",
      "midiNote": 36,
      "noteName": "C2",
      "velocity": 1,
      "duration": "160i"
    },
    {
      "time": "40128i",
      "midiNote": 35,
      "noteName": "B1",
      "velocity": 0.8503937007874016,
      "duration": "94i"
    },
    {
      "time": "40128i",
      "midiNote": 54,
      "noteName": "F#3",
      "velocity": 0.7244094488188977,
      "duration": "46i"
    },
    {
      "time": "40128i",
      "midiNote": 75,
      "noteName": "D#5",
      "velocity": 0.8661417322834646,
      "duration": "94i"
    },
    {
      "time": "40128i",
      "midiNote": 75,
      "noteName": "D#5",
      "velocity": 0.07874015748031496,
      "duration": "94i"
    },
    {
      "time": "40176i",
      "midiNote": 54,
      "noteName": "F#3",
      "velocity": 0.7244094488188977,
      "duration": "46i"
    },
    {
      "time": "40224i",
      "midiNote": 33,
      "noteName": "A1",
      "velocity": 0.8503937007874016,
      "duration": "94i"
    },
    {
      "time": "40224i",
      "midiNote": 54,
      "noteName": "F#3",
      "velocity": 0.7244094488188977,
      "duration": "46i"
    },
    {
      "time": "40224i",
      "midiNote": 61,
      "noteName": "C#4",
      "velocity": 0.8661417322834646,
      "duration": "94i"
    },
    {
      "time": "40224i",
      "midiNote": 61,
      "noteName": "C#4",
      "velocity": 0.07874015748031496,
      "duration": "94i"
    },
    {
      "time": "40272i",
      "midiNote": 54,
      "noteName": "F#3",
      "velocity": 0.7244094488188977,
      "duration": "46i"
    },
    {
      "time": "40320i",
      "midiNote": 36,
      "noteName": "C2",
      "velocity": 1,
      "duration": "160i"
    },
    {
      "time": "40320i",
      "midiNote": 35,
      "noteName": "B1",
      "velocity": 0.8503937007874016,
      "duration": "160i"
    },
    {
      "time": "40320i",
      "midiNote": 54,
      "noteName": "F#3",
      "velocity": 0.7244094488188977,
      "duration": "46i"
    },
    {
      "time": "40320i",
      "midiNote": 68,
      "noteName": "G#4",
      "velocity": 0.8661417322834646,
      "duration": "94i"
    },
    {
      "time": "40320i",
      "midiNote": 68,
      "noteName": "G#4",
      "velocity": 0.07874015748031496,
      "duration": "94i"
    },
    {
      "time": "40368i",
      "midiNote": 54,
      "noteName": "F#3",
      "velocity": 0.7244094488188977,
      "duration": "46i"
    },
    {
      "time": "40416i",
      "midiNote": 54,
      "noteName": "F#3",
      "velocity": 0.7244094488188977,
      "duration": "46i"
    },
    {
      "time": "40416i",
      "midiNote": 73,
      "noteName": "C#5",
      "velocity": 0.8661417322834646,
      "duration": "94i"
    },
    {
      "time": "40416i",
      "midiNote": 73,
      "noteName": "C#5",
      "velocity": 0.07874015748031496,
      "duration": "94i"
    },
    {
      "time": "40464i",
      "midiNote": 54,
      "noteName": "F#3",
      "velocity": 0.7244094488188977,
      "duration": "46i"
    },
    {
      "time": "40512i",
      "midiNote": 36,
      "noteName": "C2",
      "velocity": 1,
      "duration": "160i"
    },
    {
      "time": "40512i",
      "midiNote": 35,
      "noteName": "B1",
      "velocity": 0.8503937007874016,
      "duration": "94i"
    },
    {
      "time": "40512i",
      "midiNote": 54,
      "noteName": "F#3",
      "velocity": 0.7244094488188977,
      "duration": "46i"
    },
    {
      "time": "40512i",
      "midiNote": 66,
      "noteName": "F#4",
      "velocity": 0.8661417322834646,
      "duration": "94i"
    },
    {
      "time": "40512i",
      "midiNote": 66,
      "noteName": "F#4",
      "velocity": 0.07874015748031496,
      "duration": "94i"
    },
    {
      "time": "40560i",
      "midiNote": 54,
      "noteName": "F#3",
      "velocity": 0.7244094488188977,
      "duration": "46i"
    },
    {
      "time": "40608i",
      "midiNote": 33,
      "noteName": "A1",
      "velocity": 0.8503937007874016,
      "duration": "94i"
    },
    {
      "time": "40608i",
      "midiNote": 54,
      "noteName": "F#3",
      "velocity": 0.7244094488188977,
      "duration": "46i"
    },
    {
      "time": "40608i",
      "midiNote": 68,
      "noteName": "G#4",
      "velocity": 0.8661417322834646,
      "duration": "94i"
    },
    {
      "time": "40608i",
      "midiNote": 68,
      "noteName": "G#4",
      "velocity": 0.07874015748031496,
      "duration": "94i"
    },
    {
      "time": "40656i",
      "midiNote": 54,
      "noteName": "F#3",
      "velocity": 0.7244094488188977,
      "duration": "46i"
    },
    {
      "time": "40704i",
      "midiNote": 36,
      "noteName": "C2",
      "velocity": 1,
      "duration": "160i"
    },
    {
      "time": "40704i",
      "midiNote": 35,
      "noteName": "B1",
      "velocity": 0.8503937007874016,
      "duration": "160i"
    },
    {
      "time": "40704i",
      "midiNote": 54,
      "noteName": "F#3",
      "velocity": 0.7244094488188977,
      "duration": "46i"
    },
    {
      "time": "40704i",
      "midiNote": 63,
      "noteName": "D#4",
      "velocity": 0.8661417322834646,
      "duration": "94i"
    },
    {
      "time": "40704i",
      "midiNote": 63,
      "noteName": "D#4",
      "velocity": 0.07874015748031496,
      "duration": "94i"
    },
    {
      "time": "40752i",
      "midiNote": 54,
      "noteName": "F#3",
      "velocity": 0.7244094488188977,
      "duration": "46i"
    },
    {
      "time": "40800i",
      "midiNote": 54,
      "noteName": "F#3",
      "velocity": 0.7244094488188977,
      "duration": "46i"
    },
    {
      "time": "40800i",
      "midiNote": 70,
      "noteName": "A#4",
      "velocity": 0.8661417322834646,
      "duration": "94i"
    },
    {
      "time": "40800i",
      "midiNote": 70,
      "noteName": "A#4",
      "velocity": 0.07874015748031496,
      "duration": "94i"
    },
    {
      "time": "40848i",
      "midiNote": 54,
      "noteName": "F#3",
      "velocity": 0.7244094488188977,
      "duration": "46i"
    },
    {
      "time": "40896i",
      "midiNote": 36,
      "noteName": "C2",
      "velocity": 1,
      "duration": "160i"
    },
    {
      "time": "40896i",
      "midiNote": 35,
      "noteName": "B1",
      "velocity": 0.8503937007874016,
      "duration": "94i"
    },
    {
      "time": "40896i",
      "midiNote": 54,
      "noteName": "F#3",
      "velocity": 0.7244094488188977,
      "duration": "46i"
    },
    {
      "time": "40896i",
      "midiNote": 75,
      "noteName": "D#5",
      "velocity": 0.8661417322834646,
      "duration": "94i"
    },
    {
      "time": "40896i",
      "midiNote": 75,
      "noteName": "D#5",
      "velocity": 0.07874015748031496,
      "duration": "94i"
    },
    {
      "time": "40944i",
      "midiNote": 54,
      "noteName": "F#3",
      "velocity": 0.7244094488188977,
      "duration": "46i"
    },
    {
      "time": "40992i",
      "midiNote": 33,
      "noteName": "A1",
      "velocity": 0.8503937007874016,
      "duration": "94i"
    },
    {
      "time": "40992i",
      "midiNote": 54,
      "noteName": "F#3",
      "velocity": 0.7244094488188977,
      "duration": "46i"
    },
    {
      "time": "40992i",
      "midiNote": 61,
      "noteName": "C#4",
      "velocity": 0.8661417322834646,
      "duration": "94i"
    },
    {
      "time": "40992i",
      "midiNote": 61,
      "noteName": "C#4",
      "velocity": 0.07874015748031496,
      "duration": "94i"
    },
    {
      "time": "41040i",
      "midiNote": 54,
      "noteName": "F#3",
      "velocity": 0.7244094488188977,
      "duration": "46i"
    },
    {
      "time": "41088i",
      "midiNote": 36,
      "noteName": "C2",
      "velocity": 1,
      "duration": "160i"
    },
    {
      "time": "41088i",
      "midiNote": 35,
      "noteName": "B1",
      "velocity": 0.8503937007874016,
      "duration": "94i"
    },
    {
      "time": "41088i",
      "midiNote": 54,
      "noteName": "F#3",
      "velocity": 0.7244094488188977,
      "duration": "46i"
    },
    {
      "time": "41088i",
      "midiNote": 68,
      "noteName": "G#4",
      "velocity": 0.8661417322834646,
      "duration": "94i"
    },
    {
      "time": "41088i",
      "midiNote": 68,
      "noteName": "G#4",
      "velocity": 0.07874015748031496,
      "duration": "94i"
    },
    {
      "time": "41136i",
      "midiNote": 54,
      "noteName": "F#3",
      "velocity": 0.7244094488188977,
      "duration": "46i"
    },
    {
      "time": "41184i",
      "midiNote": 33,
      "noteName": "A1",
      "velocity": 0.8503937007874016,
      "duration": "94i"
    },
    {
      "time": "41184i",
      "midiNote": 54,
      "noteName": "F#3",
      "velocity": 0.7244094488188977,
      "duration": "46i"
    },
    {
      "time": "41184i",
      "midiNote": 73,
      "noteName": "C#5",
      "velocity": 0.8661417322834646,
      "duration": "94i"
    },
    {
      "time": "41184i",
      "midiNote": 73,
      "noteName": "C#5",
      "velocity": 0.07874015748031496,
      "duration": "94i"
    },
    {
      "time": "41232i",
      "midiNote": 54,
      "noteName": "F#3",
      "velocity": 0.7244094488188977,
      "duration": "46i"
    },
    {
      "time": "41280i",
      "midiNote": 36,
      "noteName": "C2",
      "velocity": 1,
      "duration": "160i"
    },
    {
      "time": "41280i",
      "midiNote": 35,
      "noteName": "B1",
      "velocity": 0.8503937007874016,
      "duration": "94i"
    },
    {
      "time": "41280i",
      "midiNote": 54,
      "noteName": "F#3",
      "velocity": 0.7244094488188977,
      "duration": "46i"
    },
    {
      "time": "41280i",
      "midiNote": 66,
      "noteName": "F#4",
      "velocity": 0.8661417322834646,
      "duration": "94i"
    },
    {
      "time": "41280i",
      "midiNote": 66,
      "noteName": "F#4",
      "velocity": 0.07874015748031496,
      "duration": "94i"
    },
    {
      "time": "41328i",
      "midiNote": 54,
      "noteName": "F#3",
      "velocity": 0.7244094488188977,
      "duration": "46i"
    },
    {
      "time": "41376i",
      "midiNote": 37,
      "noteName": "C#2",
      "velocity": 0.8503937007874016,
      "duration": "94i"
    },
    {
      "time": "41376i",
      "midiNote": 54,
      "noteName": "F#3",
      "velocity": 0.7244094488188977,
      "duration": "46i"
    },
    {
      "time": "41376i",
      "midiNote": 65,
      "noteName": "F4",
      "velocity": 0.8661417322834646,
      "duration": "94i"
    },
    {
      "time": "41376i",
      "midiNote": 65,
      "noteName": "F4",
      "velocity": 0.07874015748031496,
      "duration": "94i"
    },
    {
      "time": "41424i",
      "midiNote": 54,
      "noteName": "F#3",
      "velocity": 0.7244094488188977,
      "duration": "46i"
    },
    {
      "time": "41472i",
      "midiNote": 36,
      "noteName": "C2",
      "velocity": 1,
      "duration": "160i"
    },
    {
      "time": "41472i",
      "midiNote": 35,
      "noteName": "B1",
      "velocity": 0.8503937007874016,
      "duration": "160i"
    },
    {
      "time": "41472i",
      "midiNote": 54,
      "noteName": "F#3",
      "velocity": 0.7244094488188977,
      "duration": "46i"
    },
    {
      "time": "41472i",
      "midiNote": 63,
      "noteName": "D#4",
      "velocity": 0.8661417322834646,
      "duration": "94i"
    },
    {
      "time": "41472i",
      "midiNote": 63,
      "noteName": "D#4",
      "velocity": 0.07874015748031496,
      "duration": "94i"
    },
    {
      "time": "41520i",
      "midiNote": 54,
      "noteName": "F#3",
      "velocity": 0.7244094488188977,
      "duration": "46i"
    },
    {
      "time": "41568i",
      "midiNote": 54,
      "noteName": "F#3",
      "velocity": 0.7244094488188977,
      "duration": "46i"
    },
    {
      "time": "41568i",
      "midiNote": 70,
      "noteName": "A#4",
      "velocity": 0.8661417322834646,
      "duration": "94i"
    },
    {
      "time": "41568i",
      "midiNote": 70,
      "noteName": "A#4",
      "velocity": 0.07874015748031496,
      "duration": "94i"
    },
    {
      "time": "41616i",
      "midiNote": 54,
      "noteName": "F#3",
      "velocity": 0.7244094488188977,
      "duration": "46i"
    },
    {
      "time": "41664i",
      "midiNote": 36,
      "noteName": "C2",
      "velocity": 1,
      "duration": "160i"
    },
    {
      "time": "41664i",
      "midiNote": 35,
      "noteName": "B1",
      "velocity": 0.8503937007874016,
      "duration": "94i"
    },
    {
      "time": "41664i",
      "midiNote": 54,
      "noteName": "F#3",
      "velocity": 0.7244094488188977,
      "duration": "46i"
    },
    {
      "time": "41664i",
      "midiNote": 75,
      "noteName": "D#5",
      "velocity": 0.8661417322834646,
      "duration": "94i"
    },
    {
      "time": "41664i",
      "midiNote": 75,
      "noteName": "D#5",
      "velocity": 0.07874015748031496,
      "duration": "94i"
    },
    {
      "time": "41712i",
      "midiNote": 54,
      "noteName": "F#3",
      "velocity": 0.7244094488188977,
      "duration": "46i"
    },
    {
      "time": "41760i",
      "midiNote": 33,
      "noteName": "A1",
      "velocity": 0.8503937007874016,
      "duration": "94i"
    },
    {
      "time": "41760i",
      "midiNote": 54,
      "noteName": "F#3",
      "velocity": 0.7244094488188977,
      "duration": "46i"
    },
    {
      "time": "41760i",
      "midiNote": 61,
      "noteName": "C#4",
      "velocity": 0.8661417322834646,
      "duration": "94i"
    },
    {
      "time": "41760i",
      "midiNote": 61,
      "noteName": "C#4",
      "velocity": 0.07874015748031496,
      "duration": "94i"
    },
    {
      "time": "41808i",
      "midiNote": 54,
      "noteName": "F#3",
      "velocity": 0.7244094488188977,
      "duration": "46i"
    },
    {
      "time": "41856i",
      "midiNote": 36,
      "noteName": "C2",
      "velocity": 1,
      "duration": "94i"
    },
    {
      "time": "41856i",
      "midiNote": 35,
      "noteName": "B1",
      "velocity": 0.8503937007874016,
      "duration": "160i"
    },
    {
      "time": "41856i",
      "midiNote": 54,
      "noteName": "F#3",
      "velocity": 0.7244094488188977,
      "duration": "46i"
    },
    {
      "time": "41856i",
      "midiNote": 68,
      "noteName": "G#4",
      "velocity": 0.8661417322834646,
      "duration": "94i"
    },
    {
      "time": "41856i",
      "midiNote": 68,
      "noteName": "G#4",
      "velocity": 0.07874015748031496,
      "duration": "94i"
    },
    {
      "time": "41904i",
      "midiNote": 54,
      "noteName": "F#3",
      "velocity": 0.7244094488188977,
      "duration": "46i"
    },
    {
      "time": "41952i",
      "midiNote": 36,
      "noteName": "C2",
      "velocity": 1,
      "duration": "94i"
    },
    {
      "time": "41952i",
      "midiNote": 54,
      "noteName": "F#3",
      "velocity": 0.7244094488188977,
      "duration": "46i"
    },
    {
      "time": "41952i",
      "midiNote": 73,
      "noteName": "C#5",
      "velocity": 0.8661417322834646,
      "duration": "94i"
    },
    {
      "time": "41952i",
      "midiNote": 73,
      "noteName": "C#5",
      "velocity": 0.07874015748031496,
      "duration": "94i"
    },
    {
      "time": "42000i",
      "midiNote": 54,
      "noteName": "F#3",
      "velocity": 0.7244094488188977,
      "duration": "46i"
    },
    {
      "time": "42048i",
      "midiNote": 36,
      "noteName": "C2",
      "velocity": 1,
      "duration": "94i"
    },
    {
      "time": "42048i",
      "midiNote": 35,
      "noteName": "B1",
      "velocity": 0.8503937007874016,
      "duration": "94i"
    },
    {
      "time": "42048i",
      "midiNote": 54,
      "noteName": "F#3",
      "velocity": 0.7244094488188977,
      "duration": "46i"
    },
    {
      "time": "42048i",
      "midiNote": 66,
      "noteName": "F#4",
      "velocity": 0.8661417322834646,
      "duration": "94i"
    },
    {
      "time": "42048i",
      "midiNote": 66,
      "noteName": "F#4",
      "velocity": 0.07874015748031496,
      "duration": "94i"
    },
    {
      "time": "42096i",
      "midiNote": 54,
      "noteName": "F#3",
      "velocity": 0.7244094488188977,
      "duration": "46i"
    },
    {
      "time": "42144i",
      "midiNote": 36,
      "noteName": "C2",
      "velocity": 1,
      "duration": "94i"
    },
    {
      "time": "42144i",
      "midiNote": 33,
      "noteName": "A1",
      "velocity": 0.8503937007874016,
      "duration": "94i"
    },
    {
      "time": "42144i",
      "midiNote": 54,
      "noteName": "F#3",
      "velocity": 0.7244094488188977,
      "duration": "46i"
    },
    {
      "time": "42144i",
      "midiNote": 68,
      "noteName": "G#4",
      "velocity": 0.8661417322834646,
      "duration": "94i"
    },
    {
      "time": "42144i",
      "midiNote": 68,
      "noteName": "G#4",
      "velocity": 0.07874015748031496,
      "duration": "94i"
    },
    {
      "time": "42192i",
      "midiNote": 54,
      "noteName": "F#3",
      "velocity": 0.7244094488188977,
      "duration": "46i"
    },
    {
      "time": "42240i",
      "midiNote": 35,
      "noteName": "B1",
      "velocity": 0.8503937007874016,
      "duration": "160i"
    },
    {
      "time": "42240i",
      "midiNote": 54,
      "noteName": "F#3",
      "velocity": 0.7244094488188977,
      "duration": "46i"
    },
    {
      "time": "42240i",
      "midiNote": 63,
      "noteName": "D#4",
      "velocity": 0.8661417322834646,
      "duration": "94i"
    },
    {
      "time": "42240i",
      "midiNote": 63,
      "noteName": "D#4",
      "velocity": 0.07874015748031496,
      "duration": "94i"
    },
    {
      "time": "42288i",
      "midiNote": 54,
      "noteName": "F#3",
      "velocity": 0.7244094488188977,
      "duration": "46i"
    },
    {
      "time": "42336i",
      "midiNote": 54,
      "noteName": "F#3",
      "velocity": 0.7244094488188977,
      "duration": "46i"
    },
    {
      "time": "42336i",
      "midiNote": 70,
      "noteName": "A#4",
      "velocity": 0.8661417322834646,
      "duration": "94i"
    },
    {
      "time": "42336i",
      "midiNote": 70,
      "noteName": "A#4",
      "velocity": 0.07874015748031496,
      "duration": "94i"
    },
    {
      "time": "42384i",
      "midiNote": 54,
      "noteName": "F#3",
      "velocity": 0.7244094488188977,
      "duration": "46i"
    },
    {
      "time": "42432i",
      "midiNote": 35,
      "noteName": "B1",
      "velocity": 0.8503937007874016,
      "duration": "94i"
    },
    {
      "time": "42432i",
      "midiNote": 54,
      "noteName": "F#3",
      "velocity": 0.7244094488188977,
      "duration": "46i"
    },
    {
      "time": "42432i",
      "midiNote": 75,
      "noteName": "D#5",
      "velocity": 0.8661417322834646,
      "duration": "94i"
    },
    {
      "time": "42432i",
      "midiNote": 75,
      "noteName": "D#5",
      "velocity": 0.07874015748031496,
      "duration": "94i"
    },
    {
      "time": "42480i",
      "midiNote": 54,
      "noteName": "F#3",
      "velocity": 0.7244094488188977,
      "duration": "46i"
    },
    {
      "time": "42528i",
      "midiNote": 33,
      "noteName": "A1",
      "velocity": 0.8503937007874016,
      "duration": "94i"
    },
    {
      "time": "42528i",
      "midiNote": 54,
      "noteName": "F#3",
      "velocity": 0.7244094488188977,
      "duration": "46i"
    },
    {
      "time": "42528i",
      "midiNote": 61,
      "noteName": "C#4",
      "velocity": 0.8661417322834646,
      "duration": "94i"
    },
    {
      "time": "42528i",
      "midiNote": 61,
      "noteName": "C#4",
      "velocity": 0.07874015748031496,
      "duration": "94i"
    },
    {
      "time": "42576i",
      "midiNote": 54,
      "noteName": "F#3",
      "velocity": 0.7244094488188977,
      "duration": "46i"
    },
    {
      "time": "42624i",
      "midiNote": 35,
      "noteName": "B1",
      "velocity": 0.8503937007874016,
      "duration": "94i"
    },
    {
      "time": "42624i",
      "midiNote": 54,
      "noteName": "F#3",
      "velocity": 0.7244094488188977,
      "duration": "46i"
    },
    {
      "time": "42624i",
      "midiNote": 68,
      "noteName": "G#4",
      "velocity": 0.8661417322834646,
      "duration": "94i"
    },
    {
      "time": "42624i",
      "midiNote": 68,
      "noteName": "G#4",
      "velocity": 0.07874015748031496,
      "duration": "94i"
    },
    {
      "time": "42672i",
      "midiNote": 54,
      "noteName": "F#3",
      "velocity": 0.7244094488188977,
      "duration": "46i"
    },
    {
      "time": "42720i",
      "midiNote": 33,
      "noteName": "A1",
      "velocity": 0.8503937007874016,
      "duration": "94i"
    },
    {
      "time": "42720i",
      "midiNote": 54,
      "noteName": "F#3",
      "velocity": 0.7244094488188977,
      "duration": "46i"
    },
    {
      "time": "42720i",
      "midiNote": 73,
      "noteName": "C#5",
      "velocity": 0.8661417322834646,
      "duration": "94i"
    },
    {
      "time": "42720i",
      "midiNote": 73,
      "noteName": "C#5",
      "velocity": 0.07874015748031496,
      "duration": "94i"
    },
    {
      "time": "42768i",
      "midiNote": 54,
      "noteName": "F#3",
      "velocity": 0.7244094488188977,
      "duration": "46i"
    },
    {
      "time": "42816i",
      "midiNote": 35,
      "noteName": "B1",
      "velocity": 0.8503937007874016,
      "duration": "94i"
    },
    {
      "time": "42816i",
      "midiNote": 54,
      "noteName": "F#3",
      "velocity": 0.7244094488188977,
      "duration": "46i"
    },
    {
      "time": "42816i",
      "midiNote": 66,
      "noteName": "F#4",
      "velocity": 0.8661417322834646,
      "duration": "94i"
    },
    {
      "time": "42816i",
      "midiNote": 66,
      "noteName": "F#4",
      "velocity": 0.07874015748031496,
      "duration": "94i"
    },
    {
      "time": "42864i",
      "midiNote": 54,
      "noteName": "F#3",
      "velocity": 0.7244094488188977,
      "duration": "46i"
    },
    {
      "time": "42912i",
      "midiNote": 37,
      "noteName": "C#2",
      "velocity": 0.8503937007874016,
      "duration": "94i"
    },
    {
      "time": "42912i",
      "midiNote": 54,
      "noteName": "F#3",
      "velocity": 0.7244094488188977,
      "duration": "46i"
    },
    {
      "time": "42912i",
      "midiNote": 65,
      "noteName": "F4",
      "velocity": 0.8661417322834646,
      "duration": "94i"
    },
    {
      "time": "42912i",
      "midiNote": 65,
      "noteName": "F4",
      "velocity": 0.07874015748031496,
      "duration": "94i"
    },
    {
      "time": "42960i",
      "midiNote": 54,
      "noteName": "F#3",
      "velocity": 0.7244094488188977,
      "duration": "46i"
    },
    {
      "time": "43008i",
      "midiNote": 36,
      "noteName": "C2",
      "velocity": 1,
      "duration": "160i"
    },
    {
      "time": "43008i",
      "midiNote": 57,
      "noteName": "A3",
      "velocity": 1,
      "duration": "160i"
    },
    {
      "time": "43008i",
      "midiNote": 35,
      "noteName": "B1",
      "velocity": 0.8503937007874016,
      "duration": "160i"
    },
    {
      "time": "43008i",
      "midiNote": 54,
      "noteName": "F#3",
      "velocity": 0.7244094488188977,
      "duration": "46i"
    },
    {
      "time": "43008i",
      "midiNote": 63,
      "noteName": "D#4",
      "velocity": 0.8661417322834646,
      "duration": "94i"
    },
    {
      "time": "43008i",
      "midiNote": 63,
      "noteName": "D#4",
      "velocity": 0.07874015748031496,
      "duration": "94i"
    },
    {
      "time": "43056i",
      "midiNote": 54,
      "noteName": "F#3",
      "velocity": 0.7244094488188977,
      "duration": "46i"
    },
    {
      "time": "43104i",
      "midiNote": 54,
      "noteName": "F#3",
      "velocity": 0.7244094488188977,
      "duration": "46i"
    },
    {
      "time": "43104i",
      "midiNote": 70,
      "noteName": "A#4",
      "velocity": 0.8661417322834646,
      "duration": "94i"
    },
    {
      "time": "43104i",
      "midiNote": 70,
      "noteName": "A#4",
      "velocity": 0.07874015748031496,
      "duration": "94i"
    },
    {
      "time": "43152i",
      "midiNote": 54,
      "noteName": "F#3",
      "velocity": 0.7244094488188977,
      "duration": "46i"
    },
    {
      "time": "43200i",
      "midiNote": 36,
      "noteName": "C2",
      "velocity": 1,
      "duration": "160i"
    },
    {
      "time": "43200i",
      "midiNote": 35,
      "noteName": "B1",
      "velocity": 0.8503937007874016,
      "duration": "94i"
    },
    {
      "time": "43200i",
      "midiNote": 54,
      "noteName": "F#3",
      "velocity": 0.7244094488188977,
      "duration": "46i"
    },
    {
      "time": "43200i",
      "midiNote": 39,
      "noteName": "D#2",
      "velocity": 0.8503937007874016,
      "duration": "160i"
    },
    {
      "time": "43200i",
      "midiNote": 75,
      "noteName": "D#5",
      "velocity": 0.8661417322834646,
      "duration": "94i"
    },
    {
      "time": "43200i",
      "midiNote": 75,
      "noteName": "D#5",
      "velocity": 0.07874015748031496,
      "duration": "94i"
    },
    {
      "time": "43248i",
      "midiNote": 54,
      "noteName": "F#3",
      "velocity": 0.7244094488188977,
      "duration": "46i"
    },
    {
      "time": "43296i",
      "midiNote": 33,
      "noteName": "A1",
      "velocity": 0.8503937007874016,
      "duration": "94i"
    },
    {
      "time": "43296i",
      "midiNote": 54,
      "noteName": "F#3",
      "velocity": 0.7244094488188977,
      "duration": "46i"
    },
    {
      "time": "43296i",
      "midiNote": 61,
      "noteName": "C#4",
      "velocity": 0.8661417322834646,
      "duration": "94i"
    },
    {
      "time": "43296i",
      "midiNote": 61,
      "noteName": "C#4",
      "velocity": 0.07874015748031496,
      "duration": "94i"
    },
    {
      "time": "43344i",
      "midiNote": 54,
      "noteName": "F#3",
      "velocity": 0.7244094488188977,
      "duration": "46i"
    },
    {
      "time": "43392i",
      "midiNote": 36,
      "noteName": "C2",
      "velocity": 1,
      "duration": "160i"
    },
    {
      "time": "43392i",
      "midiNote": 35,
      "noteName": "B1",
      "velocity": 0.8503937007874016,
      "duration": "160i"
    },
    {
      "time": "43392i",
      "midiNote": 54,
      "noteName": "F#3",
      "velocity": 0.7244094488188977,
      "duration": "46i"
    },
    {
      "time": "43392i",
      "midiNote": 68,
      "noteName": "G#4",
      "velocity": 0.8661417322834646,
      "duration": "94i"
    },
    {
      "time": "43392i",
      "midiNote": 68,
      "noteName": "G#4",
      "velocity": 0.07874015748031496,
      "duration": "94i"
    },
    {
      "time": "43440i",
      "midiNote": 54,
      "noteName": "F#3",
      "velocity": 0.7244094488188977,
      "duration": "46i"
    },
    {
      "time": "43488i",
      "midiNote": 54,
      "noteName": "F#3",
      "velocity": 0.7244094488188977,
      "duration": "46i"
    },
    {
      "time": "43488i",
      "midiNote": 73,
      "noteName": "C#5",
      "velocity": 0.8661417322834646,
      "duration": "94i"
    },
    {
      "time": "43488i",
      "midiNote": 73,
      "noteName": "C#5",
      "velocity": 0.07874015748031496,
      "duration": "94i"
    },
    {
      "time": "43536i",
      "midiNote": 54,
      "noteName": "F#3",
      "velocity": 0.7244094488188977,
      "duration": "46i"
    },
    {
      "time": "43584i",
      "midiNote": 36,
      "noteName": "C2",
      "velocity": 1,
      "duration": "160i"
    },
    {
      "time": "43584i",
      "midiNote": 35,
      "noteName": "B1",
      "velocity": 0.8503937007874016,
      "duration": "94i"
    },
    {
      "time": "43584i",
      "midiNote": 54,
      "noteName": "F#3",
      "velocity": 0.7244094488188977,
      "duration": "46i"
    },
    {
      "time": "43584i",
      "midiNote": 39,
      "noteName": "D#2",
      "velocity": 0.8503937007874016,
      "duration": "160i"
    },
    {
      "time": "43584i",
      "midiNote": 66,
      "noteName": "F#4",
      "velocity": 0.8661417322834646,
      "duration": "94i"
    },
    {
      "time": "43584i",
      "midiNote": 66,
      "noteName": "F#4",
      "velocity": 0.07874015748031496,
      "duration": "94i"
    },
    {
      "time": "43632i",
      "midiNote": 54,
      "noteName": "F#3",
      "velocity": 0.7244094488188977,
      "duration": "46i"
    },
    {
      "time": "43680i",
      "midiNote": 33,
      "noteName": "A1",
      "velocity": 0.8503937007874016,
      "duration": "94i"
    },
    {
      "time": "43680i",
      "midiNote": 54,
      "noteName": "F#3",
      "velocity": 0.7244094488188977,
      "duration": "46i"
    },
    {
      "time": "43680i",
      "midiNote": 68,
      "noteName": "G#4",
      "velocity": 0.8661417322834646,
      "duration": "94i"
    },
    {
      "time": "43680i",
      "midiNote": 68,
      "noteName": "G#4",
      "velocity": 0.07874015748031496,
      "duration": "94i"
    },
    {
      "time": "43728i",
      "midiNote": 54,
      "noteName": "F#3",
      "velocity": 0.7244094488188977,
      "duration": "46i"
    },
    {
      "time": "43776i",
      "midiNote": 36,
      "noteName": "C2",
      "velocity": 1,
      "duration": "160i"
    },
    {
      "time": "43776i",
      "midiNote": 35,
      "noteName": "B1",
      "velocity": 0.8503937007874016,
      "duration": "160i"
    },
    {
      "time": "43776i",
      "midiNote": 54,
      "noteName": "F#3",
      "velocity": 0.7244094488188977,
      "duration": "46i"
    },
    {
      "time": "43776i",
      "midiNote": 63,
      "noteName": "D#4",
      "velocity": 0.8661417322834646,
      "duration": "94i"
    },
    {
      "time": "43776i",
      "midiNote": 63,
      "noteName": "D#4",
      "velocity": 0.07874015748031496,
      "duration": "94i"
    },
    {
      "time": "43824i",
      "midiNote": 54,
      "noteName": "F#3",
      "velocity": 0.7244094488188977,
      "duration": "46i"
    },
    {
      "time": "43872i",
      "midiNote": 54,
      "noteName": "F#3",
      "velocity": 0.7244094488188977,
      "duration": "46i"
    },
    {
      "time": "43872i",
      "midiNote": 70,
      "noteName": "A#4",
      "velocity": 0.8661417322834646,
      "duration": "94i"
    },
    {
      "time": "43872i",
      "midiNote": 70,
      "noteName": "A#4",
      "velocity": 0.07874015748031496,
      "duration": "94i"
    },
    {
      "time": "43920i",
      "midiNote": 54,
      "noteName": "F#3",
      "velocity": 0.7244094488188977,
      "duration": "46i"
    },
    {
      "time": "43968i",
      "midiNote": 36,
      "noteName": "C2",
      "velocity": 1,
      "duration": "160i"
    },
    {
      "time": "43968i",
      "midiNote": 35,
      "noteName": "B1",
      "velocity": 0.8503937007874016,
      "duration": "94i"
    },
    {
      "time": "43968i",
      "midiNote": 54,
      "noteName": "F#3",
      "velocity": 0.7244094488188977,
      "duration": "46i"
    },
    {
      "time": "43968i",
      "midiNote": 39,
      "noteName": "D#2",
      "velocity": 0.8503937007874016,
      "duration": "160i"
    },
    {
      "time": "43968i",
      "midiNote": 75,
      "noteName": "D#5",
      "velocity": 0.8661417322834646,
      "duration": "94i"
    },
    {
      "time": "43968i",
      "midiNote": 75,
      "noteName": "D#5",
      "velocity": 0.07874015748031496,
      "duration": "94i"
    },
    {
      "time": "44016i",
      "midiNote": 54,
      "noteName": "F#3",
      "velocity": 0.7244094488188977,
      "duration": "46i"
    },
    {
      "time": "44064i",
      "midiNote": 33,
      "noteName": "A1",
      "velocity": 0.8503937007874016,
      "duration": "94i"
    },
    {
      "time": "44064i",
      "midiNote": 54,
      "noteName": "F#3",
      "velocity": 0.7244094488188977,
      "duration": "46i"
    },
    {
      "time": "44064i",
      "midiNote": 61,
      "noteName": "C#4",
      "velocity": 0.8661417322834646,
      "duration": "94i"
    },
    {
      "time": "44064i",
      "midiNote": 61,
      "noteName": "C#4",
      "velocity": 0.07874015748031496,
      "duration": "94i"
    },
    {
      "time": "44112i",
      "midiNote": 54,
      "noteName": "F#3",
      "velocity": 0.7244094488188977,
      "duration": "46i"
    },
    {
      "time": "44160i",
      "midiNote": 36,
      "noteName": "C2",
      "velocity": 1,
      "duration": "160i"
    },
    {
      "time": "44160i",
      "midiNote": 35,
      "noteName": "B1",
      "velocity": 0.8503937007874016,
      "duration": "94i"
    },
    {
      "time": "44160i",
      "midiNote": 54,
      "noteName": "F#3",
      "velocity": 0.7244094488188977,
      "duration": "46i"
    },
    {
      "time": "44160i",
      "midiNote": 68,
      "noteName": "G#4",
      "velocity": 0.8661417322834646,
      "duration": "94i"
    },
    {
      "time": "44160i",
      "midiNote": 68,
      "noteName": "G#4",
      "velocity": 0.07874015748031496,
      "duration": "94i"
    },
    {
      "time": "44208i",
      "midiNote": 54,
      "noteName": "F#3",
      "velocity": 0.7244094488188977,
      "duration": "46i"
    },
    {
      "time": "44256i",
      "midiNote": 33,
      "noteName": "A1",
      "velocity": 0.8503937007874016,
      "duration": "94i"
    },
    {
      "time": "44256i",
      "midiNote": 54,
      "noteName": "F#3",
      "velocity": 0.7244094488188977,
      "duration": "46i"
    },
    {
      "time": "44256i",
      "midiNote": 73,
      "noteName": "C#5",
      "velocity": 0.8661417322834646,
      "duration": "94i"
    },
    {
      "time": "44256i",
      "midiNote": 73,
      "noteName": "C#5",
      "velocity": 0.07874015748031496,
      "duration": "94i"
    },
    {
      "time": "44304i",
      "midiNote": 54,
      "noteName": "F#3",
      "velocity": 0.7244094488188977,
      "duration": "46i"
    },
    {
      "time": "44352i",
      "midiNote": 36,
      "noteName": "C2",
      "velocity": 1,
      "duration": "160i"
    },
    {
      "time": "44352i",
      "midiNote": 35,
      "noteName": "B1",
      "velocity": 0.8503937007874016,
      "duration": "94i"
    },
    {
      "time": "44352i",
      "midiNote": 54,
      "noteName": "F#3",
      "velocity": 0.7244094488188977,
      "duration": "46i"
    },
    {
      "time": "44352i",
      "midiNote": 39,
      "noteName": "D#2",
      "velocity": 0.8503937007874016,
      "duration": "160i"
    },
    {
      "time": "44352i",
      "midiNote": 66,
      "noteName": "F#4",
      "velocity": 0.8661417322834646,
      "duration": "94i"
    },
    {
      "time": "44352i",
      "midiNote": 66,
      "noteName": "F#4",
      "velocity": 0.07874015748031496,
      "duration": "94i"
    },
    {
      "time": "44400i",
      "midiNote": 54,
      "noteName": "F#3",
      "velocity": 0.7244094488188977,
      "duration": "46i"
    },
    {
      "time": "44448i",
      "midiNote": 37,
      "noteName": "C#2",
      "velocity": 0.8503937007874016,
      "duration": "94i"
    },
    {
      "time": "44448i",
      "midiNote": 54,
      "noteName": "F#3",
      "velocity": 0.7244094488188977,
      "duration": "46i"
    },
    {
      "time": "44448i",
      "midiNote": 65,
      "noteName": "F4",
      "velocity": 0.8661417322834646,
      "duration": "94i"
    },
    {
      "time": "44448i",
      "midiNote": 65,
      "noteName": "F4",
      "velocity": 0.07874015748031496,
      "duration": "94i"
    },
    {
      "time": "44496i",
      "midiNote": 54,
      "noteName": "F#3",
      "velocity": 0.7244094488188977,
      "duration": "46i"
    },
    {
      "time": "44544i",
      "midiNote": 36,
      "noteName": "C2",
      "velocity": 1,
      "duration": "160i"
    },
    {
      "time": "44544i",
      "midiNote": 35,
      "noteName": "B1",
      "velocity": 0.8503937007874016,
      "duration": "160i"
    },
    {
      "time": "44544i",
      "midiNote": 54,
      "noteName": "F#3",
      "velocity": 0.7244094488188977,
      "duration": "46i"
    },
    {
      "time": "44544i",
      "midiNote": 63,
      "noteName": "D#4",
      "velocity": 0.8661417322834646,
      "duration": "94i"
    },
    {
      "time": "44544i",
      "midiNote": 63,
      "noteName": "D#4",
      "velocity": 0.07874015748031496,
      "duration": "94i"
    },
    {
      "time": "44592i",
      "midiNote": 54,
      "noteName": "F#3",
      "velocity": 0.7244094488188977,
      "duration": "46i"
    },
    {
      "time": "44640i",
      "midiNote": 54,
      "noteName": "F#3",
      "velocity": 0.7244094488188977,
      "duration": "46i"
    },
    {
      "time": "44640i",
      "midiNote": 70,
      "noteName": "A#4",
      "velocity": 0.8661417322834646,
      "duration": "94i"
    },
    {
      "time": "44640i",
      "midiNote": 70,
      "noteName": "A#4",
      "velocity": 0.07874015748031496,
      "duration": "94i"
    },
    {
      "time": "44688i",
      "midiNote": 54,
      "noteName": "F#3",
      "velocity": 0.7244094488188977,
      "duration": "46i"
    },
    {
      "time": "44736i",
      "midiNote": 36,
      "noteName": "C2",
      "velocity": 1,
      "duration": "160i"
    },
    {
      "time": "44736i",
      "midiNote": 35,
      "noteName": "B1",
      "velocity": 0.8503937007874016,
      "duration": "94i"
    },
    {
      "time": "44736i",
      "midiNote": 54,
      "noteName": "F#3",
      "velocity": 0.7244094488188977,
      "duration": "46i"
    },
    {
      "time": "44736i",
      "midiNote": 39,
      "noteName": "D#2",
      "velocity": 0.8503937007874016,
      "duration": "160i"
    },
    {
      "time": "44736i",
      "midiNote": 75,
      "noteName": "D#5",
      "velocity": 0.8661417322834646,
      "duration": "94i"
    },
    {
      "time": "44736i",
      "midiNote": 75,
      "noteName": "D#5",
      "velocity": 0.07874015748031496,
      "duration": "94i"
    },
    {
      "time": "44784i",
      "midiNote": 54,
      "noteName": "F#3",
      "velocity": 0.7244094488188977,
      "duration": "46i"
    },
    {
      "time": "44832i",
      "midiNote": 33,
      "noteName": "A1",
      "velocity": 0.8503937007874016,
      "duration": "94i"
    },
    {
      "time": "44832i",
      "midiNote": 54,
      "noteName": "F#3",
      "velocity": 0.7244094488188977,
      "duration": "46i"
    },
    {
      "time": "44832i",
      "midiNote": 61,
      "noteName": "C#4",
      "velocity": 0.8661417322834646,
      "duration": "94i"
    },
    {
      "time": "44832i",
      "midiNote": 61,
      "noteName": "C#4",
      "velocity": 0.07874015748031496,
      "duration": "94i"
    },
    {
      "time": "44880i",
      "midiNote": 54,
      "noteName": "F#3",
      "velocity": 0.7244094488188977,
      "duration": "46i"
    },
    {
      "time": "44928i",
      "midiNote": 36,
      "noteName": "C2",
      "velocity": 1,
      "duration": "160i"
    },
    {
      "time": "44928i",
      "midiNote": 35,
      "noteName": "B1",
      "velocity": 0.8503937007874016,
      "duration": "160i"
    },
    {
      "time": "44928i",
      "midiNote": 54,
      "noteName": "F#3",
      "velocity": 0.7244094488188977,
      "duration": "46i"
    },
    {
      "time": "44928i",
      "midiNote": 68,
      "noteName": "G#4",
      "velocity": 0.8661417322834646,
      "duration": "94i"
    },
    {
      "time": "44928i",
      "midiNote": 68,
      "noteName": "G#4",
      "velocity": 0.07874015748031496,
      "duration": "94i"
    },
    {
      "time": "44976i",
      "midiNote": 54,
      "noteName": "F#3",
      "velocity": 0.7244094488188977,
      "duration": "46i"
    },
    {
      "time": "45024i",
      "midiNote": 54,
      "noteName": "F#3",
      "velocity": 0.7244094488188977,
      "duration": "46i"
    },
    {
      "time": "45024i",
      "midiNote": 73,
      "noteName": "C#5",
      "velocity": 0.8661417322834646,
      "duration": "94i"
    },
    {
      "time": "45024i",
      "midiNote": 73,
      "noteName": "C#5",
      "velocity": 0.07874015748031496,
      "duration": "94i"
    },
    {
      "time": "45072i",
      "midiNote": 54,
      "noteName": "F#3",
      "velocity": 0.7244094488188977,
      "duration": "46i"
    },
    {
      "time": "45120i",
      "midiNote": 36,
      "noteName": "C2",
      "velocity": 1,
      "duration": "160i"
    },
    {
      "time": "45120i",
      "midiNote": 35,
      "noteName": "B1",
      "velocity": 0.8503937007874016,
      "duration": "94i"
    },
    {
      "time": "45120i",
      "midiNote": 54,
      "noteName": "F#3",
      "velocity": 0.7244094488188977,
      "duration": "46i"
    },
    {
      "time": "45120i",
      "midiNote": 39,
      "noteName": "D#2",
      "velocity": 0.8503937007874016,
      "duration": "160i"
    },
    {
      "time": "45120i",
      "midiNote": 66,
      "noteName": "F#4",
      "velocity": 0.8661417322834646,
      "duration": "94i"
    },
    {
      "time": "45120i",
      "midiNote": 66,
      "noteName": "F#4",
      "velocity": 0.07874015748031496,
      "duration": "94i"
    },
    {
      "time": "45168i",
      "midiNote": 54,
      "noteName": "F#3",
      "velocity": 0.7244094488188977,
      "duration": "46i"
    },
    {
      "time": "45216i",
      "midiNote": 33,
      "noteName": "A1",
      "velocity": 0.8503937007874016,
      "duration": "94i"
    },
    {
      "time": "45216i",
      "midiNote": 54,
      "noteName": "F#3",
      "velocity": 0.7244094488188977,
      "duration": "46i"
    },
    {
      "time": "45216i",
      "midiNote": 68,
      "noteName": "G#4",
      "velocity": 0.8661417322834646,
      "duration": "94i"
    },
    {
      "time": "45216i",
      "midiNote": 68,
      "noteName": "G#4",
      "velocity": 0.07874015748031496,
      "duration": "94i"
    },
    {
      "time": "45264i",
      "midiNote": 54,
      "noteName": "F#3",
      "velocity": 0.7244094488188977,
      "duration": "46i"
    },
    {
      "time": "45312i",
      "midiNote": 36,
      "noteName": "C2",
      "velocity": 1,
      "duration": "160i"
    },
    {
      "time": "45312i",
      "midiNote": 35,
      "noteName": "B1",
      "velocity": 0.8503937007874016,
      "duration": "160i"
    },
    {
      "time": "45312i",
      "midiNote": 54,
      "noteName": "F#3",
      "velocity": 0.7244094488188977,
      "duration": "46i"
    },
    {
      "time": "45312i",
      "midiNote": 63,
      "noteName": "D#4",
      "velocity": 0.8661417322834646,
      "duration": "94i"
    },
    {
      "time": "45312i",
      "midiNote": 63,
      "noteName": "D#4",
      "velocity": 0.07874015748031496,
      "duration": "94i"
    },
    {
      "time": "45360i",
      "midiNote": 54,
      "noteName": "F#3",
      "velocity": 0.7244094488188977,
      "duration": "46i"
    },
    {
      "time": "45408i",
      "midiNote": 54,
      "noteName": "F#3",
      "velocity": 0.7244094488188977,
      "duration": "46i"
    },
    {
      "time": "45408i",
      "midiNote": 70,
      "noteName": "A#4",
      "velocity": 0.8661417322834646,
      "duration": "94i"
    },
    {
      "time": "45408i",
      "midiNote": 70,
      "noteName": "A#4",
      "velocity": 0.07874015748031496,
      "duration": "94i"
    },
    {
      "time": "45456i",
      "midiNote": 54,
      "noteName": "F#3",
      "velocity": 0.7244094488188977,
      "duration": "46i"
    },
    {
      "time": "45504i",
      "midiNote": 36,
      "noteName": "C2",
      "velocity": 1,
      "duration": "160i"
    },
    {
      "time": "45504i",
      "midiNote": 35,
      "noteName": "B1",
      "velocity": 0.8503937007874016,
      "duration": "94i"
    },
    {
      "time": "45504i",
      "midiNote": 54,
      "noteName": "F#3",
      "velocity": 0.7244094488188977,
      "duration": "46i"
    },
    {
      "time": "45504i",
      "midiNote": 39,
      "noteName": "D#2",
      "velocity": 0.8503937007874016,
      "duration": "160i"
    },
    {
      "time": "45504i",
      "midiNote": 75,
      "noteName": "D#5",
      "velocity": 0.8661417322834646,
      "duration": "94i"
    },
    {
      "time": "45504i",
      "midiNote": 75,
      "noteName": "D#5",
      "velocity": 0.07874015748031496,
      "duration": "94i"
    },
    {
      "time": "45552i",
      "midiNote": 54,
      "noteName": "F#3",
      "velocity": 0.7244094488188977,
      "duration": "46i"
    },
    {
      "time": "45600i",
      "midiNote": 33,
      "noteName": "A1",
      "velocity": 0.8503937007874016,
      "duration": "94i"
    },
    {
      "time": "45600i",
      "midiNote": 54,
      "noteName": "F#3",
      "velocity": 0.7244094488188977,
      "duration": "46i"
    },
    {
      "time": "45600i",
      "midiNote": 61,
      "noteName": "C#4",
      "velocity": 0.8661417322834646,
      "duration": "94i"
    },
    {
      "time": "45600i",
      "midiNote": 61,
      "noteName": "C#4",
      "velocity": 0.07874015748031496,
      "duration": "94i"
    },
    {
      "time": "45648i",
      "midiNote": 54,
      "noteName": "F#3",
      "velocity": 0.7244094488188977,
      "duration": "46i"
    },
    {
      "time": "45696i",
      "midiNote": 36,
      "noteName": "C2",
      "velocity": 1,
      "duration": "160i"
    },
    {
      "time": "45696i",
      "midiNote": 35,
      "noteName": "B1",
      "velocity": 0.8503937007874016,
      "duration": "94i"
    },
    {
      "time": "45696i",
      "midiNote": 54,
      "noteName": "F#3",
      "velocity": 0.7244094488188977,
      "duration": "46i"
    },
    {
      "time": "45696i",
      "midiNote": 68,
      "noteName": "G#4",
      "velocity": 0.8661417322834646,
      "duration": "94i"
    },
    {
      "time": "45696i",
      "midiNote": 68,
      "noteName": "G#4",
      "velocity": 0.07874015748031496,
      "duration": "94i"
    },
    {
      "time": "45744i",
      "midiNote": 54,
      "noteName": "F#3",
      "velocity": 0.7244094488188977,
      "duration": "46i"
    },
    {
      "time": "45792i",
      "midiNote": 33,
      "noteName": "A1",
      "velocity": 0.8503937007874016,
      "duration": "94i"
    },
    {
      "time": "45792i",
      "midiNote": 54,
      "noteName": "F#3",
      "velocity": 0.7244094488188977,
      "duration": "46i"
    },
    {
      "time": "45792i",
      "midiNote": 73,
      "noteName": "C#5",
      "velocity": 0.8661417322834646,
      "duration": "94i"
    },
    {
      "time": "45792i",
      "midiNote": 73,
      "noteName": "C#5",
      "velocity": 0.07874015748031496,
      "duration": "94i"
    },
    {
      "time": "45840i",
      "midiNote": 54,
      "noteName": "F#3",
      "velocity": 0.7244094488188977,
      "duration": "46i"
    },
    {
      "time": "45888i",
      "midiNote": 36,
      "noteName": "C2",
      "velocity": 1,
      "duration": "160i"
    },
    {
      "time": "45888i",
      "midiNote": 35,
      "noteName": "B1",
      "velocity": 0.8503937007874016,
      "duration": "94i"
    },
    {
      "time": "45888i",
      "midiNote": 54,
      "noteName": "F#3",
      "velocity": 0.7244094488188977,
      "duration": "46i"
    },
    {
      "time": "45888i",
      "midiNote": 39,
      "noteName": "D#2",
      "velocity": 0.8503937007874016,
      "duration": "160i"
    },
    {
      "time": "45888i",
      "midiNote": 66,
      "noteName": "F#4",
      "velocity": 0.8661417322834646,
      "duration": "94i"
    },
    {
      "time": "45888i",
      "midiNote": 66,
      "noteName": "F#4",
      "velocity": 0.07874015748031496,
      "duration": "94i"
    },
    {
      "time": "45936i",
      "midiNote": 54,
      "noteName": "F#3",
      "velocity": 0.7244094488188977,
      "duration": "46i"
    },
    {
      "time": "45984i",
      "midiNote": 37,
      "noteName": "C#2",
      "velocity": 0.8503937007874016,
      "duration": "94i"
    },
    {
      "time": "45984i",
      "midiNote": 54,
      "noteName": "F#3",
      "velocity": 0.7244094488188977,
      "duration": "46i"
    },
    {
      "time": "45984i",
      "midiNote": 65,
      "noteName": "F4",
      "velocity": 0.8661417322834646,
      "duration": "94i"
    },
    {
      "time": "45984i",
      "midiNote": 65,
      "noteName": "F4",
      "velocity": 0.07874015748031496,
      "duration": "94i"
    },
    {
      "time": "46032i",
      "midiNote": 54,
      "noteName": "F#3",
      "velocity": 0.7244094488188977,
      "duration": "46i"
    },
    {
      "time": "46080i",
      "midiNote": 36,
      "noteName": "C2",
      "velocity": 1,
      "duration": "160i"
    },
    {
      "time": "46080i",
      "midiNote": 35,
      "noteName": "B1",
      "velocity": 0.8503937007874016,
      "duration": "160i"
    },
    {
      "time": "46080i",
      "midiNote": 54,
      "noteName": "F#3",
      "velocity": 0.7244094488188977,
      "duration": "46i"
    },
    {
      "time": "46080i",
      "midiNote": 63,
      "noteName": "D#4",
      "velocity": 0.8661417322834646,
      "duration": "94i"
    },
    {
      "time": "46080i",
      "midiNote": 63,
      "noteName": "D#4",
      "velocity": 0.07874015748031496,
      "duration": "94i"
    },
    {
      "time": "46128i",
      "midiNote": 54,
      "noteName": "F#3",
      "velocity": 0.7244094488188977,
      "duration": "46i"
    },
    {
      "time": "46176i",
      "midiNote": 54,
      "noteName": "F#3",
      "velocity": 0.7244094488188977,
      "duration": "46i"
    },
    {
      "time": "46176i",
      "midiNote": 70,
      "noteName": "A#4",
      "velocity": 0.8661417322834646,
      "duration": "94i"
    },
    {
      "time": "46176i",
      "midiNote": 70,
      "noteName": "A#4",
      "velocity": 0.07874015748031496,
      "duration": "94i"
    },
    {
      "time": "46224i",
      "midiNote": 54,
      "noteName": "F#3",
      "velocity": 0.7244094488188977,
      "duration": "46i"
    },
    {
      "time": "46272i",
      "midiNote": 36,
      "noteName": "C2",
      "velocity": 1,
      "duration": "160i"
    },
    {
      "time": "46272i",
      "midiNote": 35,
      "noteName": "B1",
      "velocity": 0.8503937007874016,
      "duration": "94i"
    },
    {
      "time": "46272i",
      "midiNote": 54,
      "noteName": "F#3",
      "velocity": 0.7244094488188977,
      "duration": "46i"
    },
    {
      "time": "46272i",
      "midiNote": 39,
      "noteName": "D#2",
      "velocity": 0.8503937007874016,
      "duration": "160i"
    },
    {
      "time": "46272i",
      "midiNote": 75,
      "noteName": "D#5",
      "velocity": 0.8661417322834646,
      "duration": "94i"
    },
    {
      "time": "46272i",
      "midiNote": 75,
      "noteName": "D#5",
      "velocity": 0.07874015748031496,
      "duration": "94i"
    },
    {
      "time": "46320i",
      "midiNote": 54,
      "noteName": "F#3",
      "velocity": 0.7244094488188977,
      "duration": "46i"
    },
    {
      "time": "46368i",
      "midiNote": 33,
      "noteName": "A1",
      "velocity": 0.8503937007874016,
      "duration": "94i"
    },
    {
      "time": "46368i",
      "midiNote": 54,
      "noteName": "F#3",
      "velocity": 0.7244094488188977,
      "duration": "46i"
    },
    {
      "time": "46368i",
      "midiNote": 61,
      "noteName": "C#4",
      "velocity": 0.8661417322834646,
      "duration": "94i"
    },
    {
      "time": "46368i",
      "midiNote": 61,
      "noteName": "C#4",
      "velocity": 0.07874015748031496,
      "duration": "94i"
    },
    {
      "time": "46416i",
      "midiNote": 54,
      "noteName": "F#3",
      "velocity": 0.7244094488188977,
      "duration": "46i"
    },
    {
      "time": "46464i",
      "midiNote": 36,
      "noteName": "C2",
      "velocity": 1,
      "duration": "160i"
    },
    {
      "time": "46464i",
      "midiNote": 35,
      "noteName": "B1",
      "velocity": 0.8503937007874016,
      "duration": "160i"
    },
    {
      "time": "46464i",
      "midiNote": 54,
      "noteName": "F#3",
      "velocity": 0.7244094488188977,
      "duration": "46i"
    },
    {
      "time": "46464i",
      "midiNote": 68,
      "noteName": "G#4",
      "velocity": 0.8661417322834646,
      "duration": "94i"
    },
    {
      "time": "46464i",
      "midiNote": 68,
      "noteName": "G#4",
      "velocity": 0.07874015748031496,
      "duration": "94i"
    },
    {
      "time": "46512i",
      "midiNote": 54,
      "noteName": "F#3",
      "velocity": 0.7244094488188977,
      "duration": "46i"
    },
    {
      "time": "46560i",
      "midiNote": 54,
      "noteName": "F#3",
      "velocity": 0.7244094488188977,
      "duration": "46i"
    },
    {
      "time": "46560i",
      "midiNote": 73,
      "noteName": "C#5",
      "velocity": 0.8661417322834646,
      "duration": "94i"
    },
    {
      "time": "46560i",
      "midiNote": 73,
      "noteName": "C#5",
      "velocity": 0.07874015748031496,
      "duration": "94i"
    },
    {
      "time": "46608i",
      "midiNote": 54,
      "noteName": "F#3",
      "velocity": 0.7244094488188977,
      "duration": "46i"
    },
    {
      "time": "46656i",
      "midiNote": 36,
      "noteName": "C2",
      "velocity": 1,
      "duration": "160i"
    },
    {
      "time": "46656i",
      "midiNote": 35,
      "noteName": "B1",
      "velocity": 0.8503937007874016,
      "duration": "94i"
    },
    {
      "time": "46656i",
      "midiNote": 54,
      "noteName": "F#3",
      "velocity": 0.7244094488188977,
      "duration": "46i"
    },
    {
      "time": "46656i",
      "midiNote": 39,
      "noteName": "D#2",
      "velocity": 0.8503937007874016,
      "duration": "160i"
    },
    {
      "time": "46656i",
      "midiNote": 66,
      "noteName": "F#4",
      "velocity": 0.8661417322834646,
      "duration": "94i"
    },
    {
      "time": "46656i",
      "midiNote": 66,
      "noteName": "F#4",
      "velocity": 0.07874015748031496,
      "duration": "94i"
    },
    {
      "time": "46704i",
      "midiNote": 54,
      "noteName": "F#3",
      "velocity": 0.7244094488188977,
      "duration": "46i"
    },
    {
      "time": "46752i",
      "midiNote": 33,
      "noteName": "A1",
      "velocity": 0.8503937007874016,
      "duration": "94i"
    },
    {
      "time": "46752i",
      "midiNote": 54,
      "noteName": "F#3",
      "velocity": 0.7244094488188977,
      "duration": "46i"
    },
    {
      "time": "46752i",
      "midiNote": 68,
      "noteName": "G#4",
      "velocity": 0.8661417322834646,
      "duration": "94i"
    },
    {
      "time": "46752i",
      "midiNote": 68,
      "noteName": "G#4",
      "velocity": 0.07874015748031496,
      "duration": "94i"
    },
    {
      "time": "46800i",
      "midiNote": 54,
      "noteName": "F#3",
      "velocity": 0.7244094488188977,
      "duration": "46i"
    },
    {
      "time": "46848i",
      "midiNote": 36,
      "noteName": "C2",
      "velocity": 1,
      "duration": "160i"
    },
    {
      "time": "46848i",
      "midiNote": 35,
      "noteName": "B1",
      "velocity": 0.8503937007874016,
      "duration": "160i"
    },
    {
      "time": "46848i",
      "midiNote": 54,
      "noteName": "F#3",
      "velocity": 0.7244094488188977,
      "duration": "46i"
    },
    {
      "time": "46848i",
      "midiNote": 63,
      "noteName": "D#4",
      "velocity": 0.8661417322834646,
      "duration": "94i"
    },
    {
      "time": "46848i",
      "midiNote": 63,
      "noteName": "D#4",
      "velocity": 0.07874015748031496,
      "duration": "94i"
    },
    {
      "time": "46896i",
      "midiNote": 54,
      "noteName": "F#3",
      "velocity": 0.7244094488188977,
      "duration": "46i"
    },
    {
      "time": "46944i",
      "midiNote": 54,
      "noteName": "F#3",
      "velocity": 0.7244094488188977,
      "duration": "46i"
    },
    {
      "time": "46944i",
      "midiNote": 70,
      "noteName": "A#4",
      "velocity": 0.8661417322834646,
      "duration": "94i"
    },
    {
      "time": "46944i",
      "midiNote": 70,
      "noteName": "A#4",
      "velocity": 0.07874015748031496,
      "duration": "94i"
    },
    {
      "time": "46992i",
      "midiNote": 54,
      "noteName": "F#3",
      "velocity": 0.7244094488188977,
      "duration": "46i"
    },
    {
      "time": "47040i",
      "midiNote": 36,
      "noteName": "C2",
      "velocity": 1,
      "duration": "160i"
    },
    {
      "time": "47040i",
      "midiNote": 35,
      "noteName": "B1",
      "velocity": 0.8503937007874016,
      "duration": "94i"
    },
    {
      "time": "47040i",
      "midiNote": 54,
      "noteName": "F#3",
      "velocity": 0.7244094488188977,
      "duration": "46i"
    },
    {
      "time": "47040i",
      "midiNote": 39,
      "noteName": "D#2",
      "velocity": 0.8503937007874016,
      "duration": "160i"
    },
    {
      "time": "47040i",
      "midiNote": 75,
      "noteName": "D#5",
      "velocity": 0.8661417322834646,
      "duration": "94i"
    },
    {
      "time": "47040i",
      "midiNote": 75,
      "noteName": "D#5",
      "velocity": 0.07874015748031496,
      "duration": "94i"
    },
    {
      "time": "47088i",
      "midiNote": 54,
      "noteName": "F#3",
      "velocity": 0.7244094488188977,
      "duration": "46i"
    },
    {
      "time": "47136i",
      "midiNote": 33,
      "noteName": "A1",
      "velocity": 0.8503937007874016,
      "duration": "94i"
    },
    {
      "time": "47136i",
      "midiNote": 54,
      "noteName": "F#3",
      "velocity": 0.7244094488188977,
      "duration": "46i"
    },
    {
      "time": "47136i",
      "midiNote": 61,
      "noteName": "C#4",
      "velocity": 0.8661417322834646,
      "duration": "94i"
    },
    {
      "time": "47136i",
      "midiNote": 61,
      "noteName": "C#4",
      "velocity": 0.07874015748031496,
      "duration": "94i"
    },
    {
      "time": "47184i",
      "midiNote": 54,
      "noteName": "F#3",
      "velocity": 0.7244094488188977,
      "duration": "46i"
    },
    {
      "time": "47232i",
      "midiNote": 36,
      "noteName": "C2",
      "velocity": 1,
      "duration": "160i"
    },
    {
      "time": "47232i",
      "midiNote": 35,
      "noteName": "B1",
      "velocity": 0.8503937007874016,
      "duration": "94i"
    },
    {
      "time": "47232i",
      "midiNote": 54,
      "noteName": "F#3",
      "velocity": 0.7244094488188977,
      "duration": "46i"
    },
    {
      "time": "47232i",
      "midiNote": 68,
      "noteName": "G#4",
      "velocity": 0.8661417322834646,
      "duration": "94i"
    },
    {
      "time": "47232i",
      "midiNote": 68,
      "noteName": "G#4",
      "velocity": 0.07874015748031496,
      "duration": "94i"
    },
    {
      "time": "47280i",
      "midiNote": 54,
      "noteName": "F#3",
      "velocity": 0.7244094488188977,
      "duration": "46i"
    },
    {
      "time": "47328i",
      "midiNote": 33,
      "noteName": "A1",
      "velocity": 0.8503937007874016,
      "duration": "94i"
    },
    {
      "time": "47328i",
      "midiNote": 54,
      "noteName": "F#3",
      "velocity": 0.7244094488188977,
      "duration": "46i"
    },
    {
      "time": "47328i",
      "midiNote": 73,
      "noteName": "C#5",
      "velocity": 0.8661417322834646,
      "duration": "94i"
    },
    {
      "time": "47328i",
      "midiNote": 73,
      "noteName": "C#5",
      "velocity": 0.07874015748031496,
      "duration": "94i"
    },
    {
      "time": "47376i",
      "midiNote": 54,
      "noteName": "F#3",
      "velocity": 0.7244094488188977,
      "duration": "46i"
    },
    {
      "time": "47424i",
      "midiNote": 36,
      "noteName": "C2",
      "velocity": 1,
      "duration": "160i"
    },
    {
      "time": "47424i",
      "midiNote": 35,
      "noteName": "B1",
      "velocity": 0.8503937007874016,
      "duration": "94i"
    },
    {
      "time": "47424i",
      "midiNote": 54,
      "noteName": "F#3",
      "velocity": 0.7244094488188977,
      "duration": "46i"
    },
    {
      "time": "47424i",
      "midiNote": 39,
      "noteName": "D#2",
      "velocity": 0.8503937007874016,
      "duration": "160i"
    },
    {
      "time": "47424i",
      "midiNote": 66,
      "noteName": "F#4",
      "velocity": 0.8661417322834646,
      "duration": "94i"
    },
    {
      "time": "47424i",
      "midiNote": 66,
      "noteName": "F#4",
      "velocity": 0.07874015748031496,
      "duration": "94i"
    },
    {
      "time": "47472i",
      "midiNote": 54,
      "noteName": "F#3",
      "velocity": 0.7244094488188977,
      "duration": "46i"
    },
    {
      "time": "47520i",
      "midiNote": 37,
      "noteName": "C#2",
      "velocity": 0.8503937007874016,
      "duration": "94i"
    },
    {
      "time": "47520i",
      "midiNote": 54,
      "noteName": "F#3",
      "velocity": 0.7244094488188977,
      "duration": "46i"
    },
    {
      "time": "47520i",
      "midiNote": 65,
      "noteName": "F4",
      "velocity": 0.8661417322834646,
      "duration": "94i"
    },
    {
      "time": "47520i",
      "midiNote": 65,
      "noteName": "F4",
      "velocity": 0.07874015748031496,
      "duration": "94i"
    },
    {
      "time": "47568i",
      "midiNote": 54,
      "noteName": "F#3",
      "velocity": 0.7244094488188977,
      "duration": "46i"
    },
    {
      "time": "47616i",
      "midiNote": 36,
      "noteName": "C2",
      "velocity": 1,
      "duration": "160i"
    },
    {
      "time": "47616i",
      "midiNote": 35,
      "noteName": "B1",
      "velocity": 0.8503937007874016,
      "duration": "160i"
    },
    {
      "time": "47616i",
      "midiNote": 59,
      "noteName": "B3",
      "velocity": 0.8503937007874016,
      "duration": "34i"
    },
    {
      "time": "47616i",
      "midiNote": 59,
      "noteName": "B3",
      "velocity": 0.5905511811023622,
      "duration": "24i"
    },
    {
      "time": "47616i",
      "midiNote": 54,
      "noteName": "F#3",
      "velocity": 0.7244094488188977,
      "duration": "46i"
    },
    {
      "time": "47616i",
      "midiNote": 63,
      "noteName": "D#4",
      "velocity": 0.8661417322834646,
      "duration": "94i"
    },
    {
      "time": "47616i",
      "midiNote": 63,
      "noteName": "D#4",
      "velocity": 0.07874015748031496,
      "duration": "94i"
    },
    {
      "time": "47652i",
      "midiNote": 59,
      "noteName": "B3",
      "velocity": 0.8503937007874016,
      "duration": "34i"
    },
    {
      "time": "47652i",
      "midiNote": 59,
      "noteName": "B3",
      "velocity": 0.5905511811023622,
      "duration": "24i"
    },
    {
      "time": "47664i",
      "midiNote": 54,
      "noteName": "F#3",
      "velocity": 0.7244094488188977,
      "duration": "46i"
    },
    {
      "time": "47688i",
      "midiNote": 59,
      "noteName": "B3",
      "velocity": 0.8503937007874016,
      "duration": "22i"
    },
    {
      "time": "47688i",
      "midiNote": 59,
      "noteName": "B3",
      "velocity": 0.5905511811023622,
      "duration": "16i"
    },
    {
      "time": "47712i",
      "midiNote": 60,
      "noteName": "C4",
      "velocity": 0.8503937007874016,
      "duration": "34i"
    },
    {
      "time": "47712i",
      "midiNote": 60,
      "noteName": "C4",
      "velocity": 0.5905511811023622,
      "duration": "24i"
    },
    {
      "time": "47712i",
      "midiNote": 54,
      "noteName": "F#3",
      "velocity": 0.7244094488188977,
      "duration": "46i"
    },
    {
      "time": "47712i",
      "midiNote": 70,
      "noteName": "A#4",
      "velocity": 0.8661417322834646,
      "duration": "94i"
    },
    {
      "time": "47712i",
      "midiNote": 70,
      "noteName": "A#4",
      "velocity": 0.07874015748031496,
      "duration": "94i"
    },
    {
      "time": "47748i",
      "midiNote": 60,
      "noteName": "C4",
      "velocity": 0.8503937007874016,
      "duration": "34i"
    },
    {
      "time": "47748i",
      "midiNote": 60,
      "noteName": "C4",
      "velocity": 0.5905511811023622,
      "duration": "24i"
    },
    {
      "time": "47760i",
      "midiNote": 54,
      "noteName": "F#3",
      "velocity": 0.7244094488188977,
      "duration": "46i"
    },
    {
      "time": "47784i",
      "midiNote": 60,
      "noteName": "C4",
      "velocity": 0.8503937007874016,
      "duration": "22i"
    },
    {
      "time": "47784i",
      "midiNote": 60,
      "noteName": "C4",
      "velocity": 0.5905511811023622,
      "duration": "16i"
    },
    {
      "time": "47808i",
      "midiNote": 36,
      "noteName": "C2",
      "velocity": 1,
      "duration": "160i"
    },
    {
      "time": "47808i",
      "midiNote": 35,
      "noteName": "B1",
      "velocity": 0.8503937007874016,
      "duration": "94i"
    },
    {
      "time": "47808i",
      "midiNote": 61,
      "noteName": "C#4",
      "velocity": 0.8503937007874016,
      "duration": "34i"
    },
    {
      "time": "47808i",
      "midiNote": 61,
      "noteName": "C#4",
      "velocity": 0.5905511811023622,
      "duration": "24i"
    },
    {
      "time": "47808i",
      "midiNote": 54,
      "noteName": "F#3",
      "velocity": 0.7244094488188977,
      "duration": "46i"
    },
    {
      "time": "47808i",
      "midiNote": 39,
      "noteName": "D#2",
      "velocity": 0.8503937007874016,
      "duration": "160i"
    },
    {
      "time": "47808i",
      "midiNote": 75,
      "noteName": "D#5",
      "velocity": 0.8661417322834646,
      "duration": "94i"
    },
    {
      "time": "47808i",
      "midiNote": 75,
      "noteName": "D#5",
      "velocity": 0.07874015748031496,
      "duration": "94i"
    },
    {
      "time": "47844i",
      "midiNote": 61,
      "noteName": "C#4",
      "velocity": 0.8503937007874016,
      "duration": "34i"
    },
    {
      "time": "47844i",
      "midiNote": 61,
      "noteName": "C#4",
      "velocity": 0.5905511811023622,
      "duration": "24i"
    },
    {
      "time": "47856i",
      "midiNote": 54,
      "noteName": "F#3",
      "velocity": 0.7244094488188977,
      "duration": "46i"
    },
    {
      "time": "47880i",
      "midiNote": 61,
      "noteName": "C#4",
      "velocity": 0.8503937007874016,
      "duration": "22i"
    },
    {
      "time": "47880i",
      "midiNote": 61,
      "noteName": "C#4",
      "velocity": 0.5905511811023622,
      "duration": "16i"
    },
    {
      "time": "47904i",
      "midiNote": 33,
      "noteName": "A1",
      "velocity": 0.8503937007874016,
      "duration": "94i"
    },
    {
      "time": "47904i",
      "midiNote": 62,
      "noteName": "D4",
      "velocity": 0.8503937007874016,
      "duration": "34i"
    },
    {
      "time": "47904i",
      "midiNote": 62,
      "noteName": "D4",
      "velocity": 0.5905511811023622,
      "duration": "24i"
    },
    {
      "time": "47904i",
      "midiNote": 54,
      "noteName": "F#3",
      "velocity": 0.7244094488188977,
      "duration": "46i"
    },
    {
      "time": "47904i",
      "midiNote": 61,
      "noteName": "C#4",
      "velocity": 0.8661417322834646,
      "duration": "94i"
    },
    {
      "time": "47904i",
      "midiNote": 61,
      "noteName": "C#4",
      "velocity": 0.07874015748031496,
      "duration": "94i"
    },
    {
      "time": "47940i",
      "midiNote": 62,
      "noteName": "D4",
      "velocity": 0.8503937007874016,
      "duration": "34i"
    },
    {
      "time": "47940i",
      "midiNote": 62,
      "noteName": "D4",
      "velocity": 0.5905511811023622,
      "duration": "24i"
    },
    {
      "time": "47952i",
      "midiNote": 54,
      "noteName": "F#3",
      "velocity": 0.7244094488188977,
      "duration": "46i"
    },
    {
      "time": "47976i",
      "midiNote": 62,
      "noteName": "D4",
      "velocity": 0.8503937007874016,
      "duration": "22i"
    },
    {
      "time": "47976i",
      "midiNote": 62,
      "noteName": "D4",
      "velocity": 0.5905511811023622,
      "duration": "16i"
    },
    {
      "time": "48000i",
      "midiNote": 36,
      "noteName": "C2",
      "velocity": 1,
      "duration": "160i"
    },
    {
      "time": "48000i",
      "midiNote": 35,
      "noteName": "B1",
      "velocity": 0.8503937007874016,
      "duration": "160i"
    },
    {
      "time": "48000i",
      "midiNote": 63,
      "noteName": "D#4",
      "velocity": 0.8503937007874016,
      "duration": "34i"
    },
    {
      "time": "48000i",
      "midiNote": 63,
      "noteName": "D#4",
      "velocity": 0.5905511811023622,
      "duration": "24i"
    },
    {
      "time": "48000i",
      "midiNote": 54,
      "noteName": "F#3",
      "velocity": 0.7244094488188977,
      "duration": "46i"
    },
    {
      "time": "48000i",
      "midiNote": 68,
      "noteName": "G#4",
      "velocity": 0.8661417322834646,
      "duration": "94i"
    },
    {
      "time": "48000i",
      "midiNote": 68,
      "noteName": "G#4",
      "velocity": 0.07874015748031496,
      "duration": "94i"
    },
    {
      "time": "48036i",
      "midiNote": 63,
      "noteName": "D#4",
      "velocity": 0.8503937007874016,
      "duration": "34i"
    },
    {
      "time": "48036i",
      "midiNote": 63,
      "noteName": "D#4",
      "velocity": 0.5905511811023622,
      "duration": "24i"
    },
    {
      "time": "48048i",
      "midiNote": 54,
      "noteName": "F#3",
      "velocity": 0.7244094488188977,
      "duration": "46i"
    },
    {
      "time": "48072i",
      "midiNote": 63,
      "noteName": "D#4",
      "velocity": 0.8503937007874016,
      "duration": "22i"
    },
    {
      "time": "48072i",
      "midiNote": 63,
      "noteName": "D#4",
      "velocity": 0.5905511811023622,
      "duration": "16i"
    },
    {
      "time": "48096i",
      "midiNote": 64,
      "noteName": "E4",
      "velocity": 0.8503937007874016,
      "duration": "34i"
    },
    {
      "time": "48096i",
      "midiNote": 64,
      "noteName": "E4",
      "velocity": 0.5905511811023622,
      "duration": "24i"
    },
    {
      "time": "48096i",
      "midiNote": 54,
      "noteName": "F#3",
      "velocity": 0.7244094488188977,
      "duration": "46i"
    },
    {
      "time": "48096i",
      "midiNote": 73,
      "noteName": "C#5",
      "velocity": 0.8661417322834646,
      "duration": "94i"
    },
    {
      "time": "48096i",
      "midiNote": 73,
      "noteName": "C#5",
      "velocity": 0.07874015748031496,
      "duration": "94i"
    },
    {
      "time": "48132i",
      "midiNote": 64,
      "noteName": "E4",
      "velocity": 0.8503937007874016,
      "duration": "34i"
    },
    {
      "time": "48132i",
      "midiNote": 64,
      "noteName": "E4",
      "velocity": 0.5905511811023622,
      "duration": "24i"
    },
    {
      "time": "48144i",
      "midiNote": 54,
      "noteName": "F#3",
      "velocity": 0.7244094488188977,
      "duration": "46i"
    },
    {
      "time": "48168i",
      "midiNote": 64,
      "noteName": "E4",
      "velocity": 0.8503937007874016,
      "duration": "22i"
    },
    {
      "time": "48168i",
      "midiNote": 64,
      "noteName": "E4",
      "velocity": 0.5905511811023622,
      "duration": "16i"
    },
    {
      "time": "48192i",
      "midiNote": 36,
      "noteName": "C2",
      "velocity": 1,
      "duration": "160i"
    },
    {
      "time": "48192i",
      "midiNote": 35,
      "noteName": "B1",
      "velocity": 0.8503937007874016,
      "duration": "94i"
    },
    {
      "time": "48192i",
      "midiNote": 65,
      "noteName": "F4",
      "velocity": 0.8503937007874016,
      "duration": "34i"
    },
    {
      "time": "48192i",
      "midiNote": 65,
      "noteName": "F4",
      "velocity": 0.5905511811023622,
      "duration": "24i"
    },
    {
      "time": "48192i",
      "midiNote": 54,
      "noteName": "F#3",
      "velocity": 0.7244094488188977,
      "duration": "46i"
    },
    {
      "time": "48192i",
      "midiNote": 39,
      "noteName": "D#2",
      "velocity": 0.8503937007874016,
      "duration": "160i"
    },
    {
      "time": "48192i",
      "midiNote": 66,
      "noteName": "F#4",
      "velocity": 0.8661417322834646,
      "duration": "94i"
    },
    {
      "time": "48192i",
      "midiNote": 66,
      "noteName": "F#4",
      "velocity": 0.07874015748031496,
      "duration": "94i"
    },
    {
      "time": "48228i",
      "midiNote": 65,
      "noteName": "F4",
      "velocity": 0.8503937007874016,
      "duration": "34i"
    },
    {
      "time": "48228i",
      "midiNote": 65,
      "noteName": "F4",
      "velocity": 0.5905511811023622,
      "duration": "24i"
    },
    {
      "time": "48240i",
      "midiNote": 54,
      "noteName": "F#3",
      "velocity": 0.7244094488188977,
      "duration": "46i"
    },
    {
      "time": "48264i",
      "midiNote": 65,
      "noteName": "F4",
      "velocity": 0.8503937007874016,
      "duration": "22i"
    },
    {
      "time": "48264i",
      "midiNote": 65,
      "noteName": "F4",
      "velocity": 0.5905511811023622,
      "duration": "16i"
    },
    {
      "time": "48288i",
      "midiNote": 33,
      "noteName": "A1",
      "velocity": 0.8503937007874016,
      "duration": "94i"
    },
    {
      "time": "48288i",
      "midiNote": 66,
      "noteName": "F#4",
      "velocity": 0.8503937007874016,
      "duration": "34i"
    },
    {
      "time": "48288i",
      "midiNote": 66,
      "noteName": "F#4",
      "velocity": 0.5905511811023622,
      "duration": "24i"
    },
    {
      "time": "48288i",
      "midiNote": 54,
      "noteName": "F#3",
      "velocity": 0.7244094488188977,
      "duration": "46i"
    },
    {
      "time": "48288i",
      "midiNote": 68,
      "noteName": "G#4",
      "velocity": 0.8661417322834646,
      "duration": "94i"
    },
    {
      "time": "48288i",
      "midiNote": 68,
      "noteName": "G#4",
      "velocity": 0.07874015748031496,
      "duration": "94i"
    },
    {
      "time": "48324i",
      "midiNote": 66,
      "noteName": "F#4",
      "velocity": 0.8503937007874016,
      "duration": "34i"
    },
    {
      "time": "48324i",
      "midiNote": 66,
      "noteName": "F#4",
      "velocity": 0.5905511811023622,
      "duration": "24i"
    },
    {
      "time": "48336i",
      "midiNote": 54,
      "noteName": "F#3",
      "velocity": 0.7244094488188977,
      "duration": "46i"
    },
    {
      "time": "48360i",
      "midiNote": 66,
      "noteName": "F#4",
      "velocity": 0.8503937007874016,
      "duration": "22i"
    },
    {
      "time": "48360i",
      "midiNote": 66,
      "noteName": "F#4",
      "velocity": 0.5905511811023622,
      "duration": "16i"
    },
    {
      "time": "48384i",
      "midiNote": 36,
      "noteName": "C2",
      "velocity": 1,
      "duration": "160i"
    },
    {
      "time": "48384i",
      "midiNote": 35,
      "noteName": "B1",
      "velocity": 0.8503937007874016,
      "duration": "160i"
    },
    {
      "time": "48384i",
      "midiNote": 67,
      "noteName": "G4",
      "velocity": 0.8503937007874016,
      "duration": "34i"
    },
    {
      "time": "48384i",
      "midiNote": 67,
      "noteName": "G4",
      "velocity": 0.5905511811023622,
      "duration": "24i"
    },
    {
      "time": "48384i",
      "midiNote": 54,
      "noteName": "F#3",
      "velocity": 0.7244094488188977,
      "duration": "46i"
    },
    {
      "time": "48384i",
      "midiNote": 63,
      "noteName": "D#4",
      "velocity": 0.8661417322834646,
      "duration": "94i"
    },
    {
      "time": "48384i",
      "midiNote": 63,
      "noteName": "D#4",
      "velocity": 0.07874015748031496,
      "duration": "94i"
    },
    {
      "time": "48420i",
      "midiNote": 67,
      "noteName": "G4",
      "velocity": 0.8503937007874016,
      "duration": "34i"
    },
    {
      "time": "48420i",
      "midiNote": 67,
      "noteName": "G4",
      "velocity": 0.5905511811023622,
      "duration": "24i"
    },
    {
      "time": "48432i",
      "midiNote": 54,
      "noteName": "F#3",
      "velocity": 0.7244094488188977,
      "duration": "46i"
    },
    {
      "time": "48456i",
      "midiNote": 67,
      "noteName": "G4",
      "velocity": 0.8503937007874016,
      "duration": "22i"
    },
    {
      "time": "48456i",
      "midiNote": 67,
      "noteName": "G4",
      "velocity": 0.5905511811023622,
      "duration": "16i"
    },
    {
      "time": "48480i",
      "midiNote": 68,
      "noteName": "G#4",
      "velocity": 0.8503937007874016,
      "duration": "34i"
    },
    {
      "time": "48480i",
      "midiNote": 68,
      "noteName": "G#4",
      "velocity": 0.5905511811023622,
      "duration": "24i"
    },
    {
      "time": "48480i",
      "midiNote": 54,
      "noteName": "F#3",
      "velocity": 0.7244094488188977,
      "duration": "46i"
    },
    {
      "time": "48480i",
      "midiNote": 70,
      "noteName": "A#4",
      "velocity": 0.8661417322834646,
      "duration": "94i"
    },
    {
      "time": "48480i",
      "midiNote": 70,
      "noteName": "A#4",
      "velocity": 0.07874015748031496,
      "duration": "94i"
    },
    {
      "time": "48516i",
      "midiNote": 68,
      "noteName": "G#4",
      "velocity": 0.8503937007874016,
      "duration": "34i"
    },
    {
      "time": "48516i",
      "midiNote": 68,
      "noteName": "G#4",
      "velocity": 0.5905511811023622,
      "duration": "24i"
    },
    {
      "time": "48528i",
      "midiNote": 54,
      "noteName": "F#3",
      "velocity": 0.7244094488188977,
      "duration": "46i"
    },
    {
      "time": "48552i",
      "midiNote": 68,
      "noteName": "G#4",
      "velocity": 0.8503937007874016,
      "duration": "22i"
    },
    {
      "time": "48552i",
      "midiNote": 68,
      "noteName": "G#4",
      "velocity": 0.5905511811023622,
      "duration": "16i"
    },
    {
      "time": "48576i",
      "midiNote": 36,
      "noteName": "C2",
      "velocity": 1,
      "duration": "160i"
    },
    {
      "time": "48576i",
      "midiNote": 35,
      "noteName": "B1",
      "velocity": 0.8503937007874016,
      "duration": "94i"
    },
    {
      "time": "48576i",
      "midiNote": 69,
      "noteName": "A4",
      "velocity": 0.8503937007874016,
      "duration": "34i"
    },
    {
      "time": "48576i",
      "midiNote": 69,
      "noteName": "A4",
      "velocity": 0.5905511811023622,
      "duration": "24i"
    },
    {
      "time": "48576i",
      "midiNote": 54,
      "noteName": "F#3",
      "velocity": 0.7244094488188977,
      "duration": "46i"
    },
    {
      "time": "48576i",
      "midiNote": 39,
      "noteName": "D#2",
      "velocity": 0.8503937007874016,
      "duration": "160i"
    },
    {
      "time": "48576i",
      "midiNote": 75,
      "noteName": "D#5",
      "velocity": 0.8661417322834646,
      "duration": "94i"
    },
    {
      "time": "48576i",
      "midiNote": 75,
      "noteName": "D#5",
      "velocity": 0.07874015748031496,
      "duration": "94i"
    },
    {
      "time": "48612i",
      "midiNote": 69,
      "noteName": "A4",
      "velocity": 0.8503937007874016,
      "duration": "34i"
    },
    {
      "time": "48612i",
      "midiNote": 69,
      "noteName": "A4",
      "velocity": 0.5905511811023622,
      "duration": "24i"
    },
    {
      "time": "48624i",
      "midiNote": 54,
      "noteName": "F#3",
      "velocity": 0.7244094488188977,
      "duration": "46i"
    },
    {
      "time": "48648i",
      "midiNote": 69,
      "noteName": "A4",
      "velocity": 0.8503937007874016,
      "duration": "22i"
    },
    {
      "time": "48648i",
      "midiNote": 69,
      "noteName": "A4",
      "velocity": 0.5905511811023622,
      "duration": "16i"
    },
    {
      "time": "48672i",
      "midiNote": 33,
      "noteName": "A1",
      "velocity": 0.8503937007874016,
      "duration": "94i"
    },
    {
      "time": "48672i",
      "midiNote": 70,
      "noteName": "A#4",
      "velocity": 0.8503937007874016,
      "duration": "34i"
    },
    {
      "time": "48672i",
      "midiNote": 70,
      "noteName": "A#4",
      "velocity": 0.5905511811023622,
      "duration": "24i"
    },
    {
      "time": "48672i",
      "midiNote": 54,
      "noteName": "F#3",
      "velocity": 0.7244094488188977,
      "duration": "46i"
    },
    {
      "time": "48672i",
      "midiNote": 61,
      "noteName": "C#4",
      "velocity": 0.8661417322834646,
      "duration": "94i"
    },
    {
      "time": "48672i",
      "midiNote": 61,
      "noteName": "C#4",
      "velocity": 0.07874015748031496,
      "duration": "94i"
    },
    {
      "time": "48708i",
      "midiNote": 70,
      "noteName": "A#4",
      "velocity": 0.8503937007874016,
      "duration": "34i"
    },
    {
      "time": "48708i",
      "midiNote": 70,
      "noteName": "A#4",
      "velocity": 0.5905511811023622,
      "duration": "24i"
    },
    {
      "time": "48720i",
      "midiNote": 54,
      "noteName": "F#3",
      "velocity": 0.7244094488188977,
      "duration": "46i"
    },
    {
      "time": "48744i",
      "midiNote": 70,
      "noteName": "A#4",
      "velocity": 0.8503937007874016,
      "duration": "22i"
    },
    {
      "time": "48744i",
      "midiNote": 70,
      "noteName": "A#4",
      "velocity": 0.5905511811023622,
      "duration": "16i"
    },
    {
      "time": "48768i",
      "midiNote": 36,
      "noteName": "C2",
      "velocity": 1,
      "duration": "94i"
    },
    {
      "time": "48768i",
      "midiNote": 35,
      "noteName": "B1",
      "velocity": 0.8503937007874016,
      "duration": "94i"
    },
    {
      "time": "48768i",
      "midiNote": 71,
      "noteName": "B4",
      "velocity": 0.8503937007874016,
      "duration": "34i"
    },
    {
      "time": "48768i",
      "midiNote": 71,
      "noteName": "B4",
      "velocity": 0.5905511811023622,
      "duration": "24i"
    },
    {
      "time": "48768i",
      "midiNote": 54,
      "noteName": "F#3",
      "velocity": 0.7244094488188977,
      "duration": "46i"
    },
    {
      "time": "48768i",
      "midiNote": 68,
      "noteName": "G#4",
      "velocity": 0.8661417322834646,
      "duration": "94i"
    },
    {
      "time": "48768i",
      "midiNote": 68,
      "noteName": "G#4",
      "velocity": 0.07874015748031496,
      "duration": "94i"
    },
    {
      "time": "48804i",
      "midiNote": 71,
      "noteName": "B4",
      "velocity": 0.8503937007874016,
      "duration": "34i"
    },
    {
      "time": "48804i",
      "midiNote": 71,
      "noteName": "B4",
      "velocity": 0.5905511811023622,
      "duration": "24i"
    },
    {
      "time": "48816i",
      "midiNote": 54,
      "noteName": "F#3",
      "velocity": 0.7244094488188977,
      "duration": "46i"
    },
    {
      "time": "48840i",
      "midiNote": 71,
      "noteName": "B4",
      "velocity": 0.8503937007874016,
      "duration": "22i"
    },
    {
      "time": "48840i",
      "midiNote": 71,
      "noteName": "B4",
      "velocity": 0.5905511811023622,
      "duration": "16i"
    },
    {
      "time": "48864i",
      "midiNote": 36,
      "noteName": "C2",
      "velocity": 1,
      "duration": "94i"
    },
    {
      "time": "48864i",
      "midiNote": 33,
      "noteName": "A1",
      "velocity": 0.8503937007874016,
      "duration": "94i"
    },
    {
      "time": "48864i",
      "midiNote": 72,
      "noteName": "C5",
      "velocity": 0.8503937007874016,
      "duration": "34i"
    },
    {
      "time": "48864i",
      "midiNote": 72,
      "noteName": "C5",
      "velocity": 0.5905511811023622,
      "duration": "24i"
    },
    {
      "time": "48864i",
      "midiNote": 54,
      "noteName": "F#3",
      "velocity": 0.7244094488188977,
      "duration": "46i"
    },
    {
      "time": "48864i",
      "midiNote": 73,
      "noteName": "C#5",
      "velocity": 0.8661417322834646,
      "duration": "94i"
    },
    {
      "time": "48864i",
      "midiNote": 73,
      "noteName": "C#5",
      "velocity": 0.07874015748031496,
      "duration": "94i"
    },
    {
      "time": "48900i",
      "midiNote": 72,
      "noteName": "C5",
      "velocity": 0.8503937007874016,
      "duration": "34i"
    },
    {
      "time": "48900i",
      "midiNote": 72,
      "noteName": "C5",
      "velocity": 0.5905511811023622,
      "duration": "24i"
    },
    {
      "time": "48912i",
      "midiNote": 54,
      "noteName": "F#3",
      "velocity": 0.7244094488188977,
      "duration": "46i"
    },
    {
      "time": "48936i",
      "midiNote": 72,
      "noteName": "C5",
      "velocity": 0.8503937007874016,
      "duration": "22i"
    },
    {
      "time": "48936i",
      "midiNote": 72,
      "noteName": "C5",
      "velocity": 0.5905511811023622,
      "duration": "16i"
    },
    {
      "time": "48960i",
      "midiNote": 36,
      "noteName": "C2",
      "velocity": 1,
      "duration": "94i"
    },
    {
      "time": "48960i",
      "midiNote": 35,
      "noteName": "B1",
      "velocity": 0.8503937007874016,
      "duration": "94i"
    },
    {
      "time": "48960i",
      "midiNote": 73,
      "noteName": "C#5",
      "velocity": 0.8503937007874016,
      "duration": "34i"
    },
    {
      "time": "48960i",
      "midiNote": 73,
      "noteName": "C#5",
      "velocity": 0.5905511811023622,
      "duration": "24i"
    },
    {
      "time": "48960i",
      "midiNote": 54,
      "noteName": "F#3",
      "velocity": 0.7244094488188977,
      "duration": "46i"
    },
    {
      "time": "48960i",
      "midiNote": 39,
      "noteName": "D#2",
      "velocity": 0.8503937007874016,
      "duration": "160i"
    },
    {
      "time": "48960i",
      "midiNote": 66,
      "noteName": "F#4",
      "velocity": 0.8661417322834646,
      "duration": "94i"
    },
    {
      "time": "48960i",
      "midiNote": 66,
      "noteName": "F#4",
      "velocity": 0.07874015748031496,
      "duration": "94i"
    },
    {
      "time": "48996i",
      "midiNote": 73,
      "noteName": "C#5",
      "velocity": 0.8503937007874016,
      "duration": "34i"
    },
    {
      "time": "48996i",
      "midiNote": 73,
      "noteName": "C#5",
      "velocity": 0.5905511811023622,
      "duration": "24i"
    },
    {
      "time": "49008i",
      "midiNote": 54,
      "noteName": "F#3",
      "velocity": 0.7244094488188977,
      "duration": "46i"
    },
    {
      "time": "49032i",
      "midiNote": 73,
      "noteName": "C#5",
      "velocity": 0.8503937007874016,
      "duration": "22i"
    },
    {
      "time": "49032i",
      "midiNote": 73,
      "noteName": "C#5",
      "velocity": 0.5905511811023622,
      "duration": "16i"
    },
    {
      "time": "49056i",
      "midiNote": 36,
      "noteName": "C2",
      "velocity": 1,
      "duration": "94i"
    },
    {
      "time": "49056i",
      "midiNote": 37,
      "noteName": "C#2",
      "velocity": 0.8503937007874016,
      "duration": "94i"
    },
    {
      "time": "49056i",
      "midiNote": 74,
      "noteName": "D5",
      "velocity": 0.8503937007874016,
      "duration": "34i"
    },
    {
      "time": "49056i",
      "midiNote": 74,
      "noteName": "D5",
      "velocity": 0.5905511811023622,
      "duration": "24i"
    },
    {
      "time": "49056i",
      "midiNote": 54,
      "noteName": "F#3",
      "velocity": 0.7244094488188977,
      "duration": "46i"
    },
    {
      "time": "49056i",
      "midiNote": 65,
      "noteName": "F4",
      "velocity": 0.8661417322834646,
      "duration": "94i"
    },
    {
      "time": "49056i",
      "midiNote": 65,
      "noteName": "F4",
      "velocity": 0.07874015748031496,
      "duration": "94i"
    },
    {
      "time": "49092i",
      "midiNote": 74,
      "noteName": "D5",
      "velocity": 0.8503937007874016,
      "duration": "34i"
    },
    {
      "time": "49092i",
      "midiNote": 74,
      "noteName": "D5",
      "velocity": 0.5905511811023622,
      "duration": "24i"
    },
    {
      "time": "49104i",
      "midiNote": 54,
      "noteName": "F#3",
      "velocity": 0.7244094488188977,
      "duration": "46i"
    },
    {
      "time": "49128i",
      "midiNote": 74,
      "noteName": "D5",
      "velocity": 0.8503937007874016,
      "duration": "22i"
    },
    {
      "time": "49128i",
      "midiNote": 74,
      "noteName": "D5",
      "velocity": 0.5905511811023622,
      "duration": "16i"
    },
    {
      "time": "49152i",
      "midiNote": 35,
      "noteName": "B1",
      "velocity": 0.8503937007874016,
      "duration": "160i"
    },
    {
      "time": "49152i",
      "midiNote": 74,
      "noteName": "D5",
      "velocity": 0.8503937007874016,
      "duration": "48i"
    },
    {
      "time": "49152i",
      "midiNote": 74,
      "noteName": "D5",
      "velocity": 0.8503937007874016,
      "duration": "48i"
    },
    {
      "time": "49152i",
      "midiNote": 54,
      "noteName": "F#3",
      "velocity": 0.7244094488188977,
      "duration": "46i"
    },
    {
      "time": "49152i",
      "midiNote": 65,
      "noteName": "F4",
      "velocity": 0.3543307086614173,
      "duration": "142i"
    },
    {
      "time": "49152i",
      "midiNote": 65,
      "noteName": "F4",
      "velocity": 0.3543307086614173,
      "duration": "142i"
    },
    {
      "time": "49200i",
      "midiNote": 54,
      "noteName": "F#3",
      "velocity": 0.7244094488188977,
      "duration": "46i"
    },
    {
      "time": "49248i",
      "midiNote": 54,
      "noteName": "F#3",
      "velocity": 0.7244094488188977,
      "duration": "46i"
    },
    {
      "time": "49296i",
      "midiNote": 73,
      "noteName": "C#5",
      "velocity": 0.8503937007874016,
      "duration": "48i"
    },
    {
      "time": "49296i",
      "midiNote": 73,
      "noteName": "C#5",
      "velocity": 0.8503937007874016,
      "duration": "48i"
    },
    {
      "time": "49296i",
      "midiNote": 54,
      "noteName": "F#3",
      "velocity": 0.7244094488188977,
      "duration": "46i"
    },
    {
      "time": "49296i",
      "midiNote": 65,
      "noteName": "F4",
      "velocity": 0.3543307086614173,
      "duration": "142i"
    },
    {
      "time": "49296i",
      "midiNote": 65,
      "noteName": "F4",
      "velocity": 0.3543307086614173,
      "duration": "142i"
    },
    {
      "time": "49344i",
      "midiNote": 35,
      "noteName": "B1",
      "velocity": 0.8503937007874016,
      "duration": "94i"
    },
    {
      "time": "49344i",
      "midiNote": 54,
      "noteName": "F#3",
      "velocity": 0.7244094488188977,
      "duration": "46i"
    },
    {
      "time": "49344i",
      "midiNote": 39,
      "noteName": "D#2",
      "velocity": 0.8503937007874016,
      "duration": "160i"
    },
    {
      "time": "49392i",
      "midiNote": 54,
      "noteName": "F#3",
      "velocity": 0.7244094488188977,
      "duration": "46i"
    },
    {
      "time": "49440i",
      "midiNote": 33,
      "noteName": "A1",
      "velocity": 0.8503937007874016,
      "duration": "94i"
    },
    {
      "time": "49440i",
      "midiNote": 72,
      "noteName": "C5",
      "velocity": 0.8503937007874016,
      "duration": "48i"
    },
    {
      "time": "49440i",
      "midiNote": 72,
      "noteName": "C5",
      "velocity": 0.8503937007874016,
      "duration": "48i"
    },
    {
      "time": "49440i",
      "midiNote": 54,
      "noteName": "F#3",
      "velocity": 0.7244094488188977,
      "duration": "46i"
    },
    {
      "time": "49440i",
      "midiNote": 65,
      "noteName": "F4",
      "velocity": 0.3543307086614173,
      "duration": "142i"
    },
    {
      "time": "49440i",
      "midiNote": 65,
      "noteName": "F4",
      "velocity": 0.3543307086614173,
      "duration": "142i"
    },
    {
      "time": "49488i",
      "midiNote": 54,
      "noteName": "F#3",
      "velocity": 0.7244094488188977,
      "duration": "46i"
    },
    {
      "time": "49536i",
      "midiNote": 35,
      "noteName": "B1",
      "velocity": 0.8503937007874016,
      "duration": "160i"
    },
    {
      "time": "49536i",
      "midiNote": 54,
      "noteName": "F#3",
      "velocity": 0.7244094488188977,
      "duration": "46i"
    },
    {
      "time": "49584i",
      "midiNote": 71,
      "noteName": "B4",
      "velocity": 0.8503937007874016,
      "duration": "48i"
    },
    {
      "time": "49584i",
      "midiNote": 71,
      "noteName": "B4",
      "velocity": 0.8503937007874016,
      "duration": "48i"
    },
    {
      "time": "49584i",
      "midiNote": 54,
      "noteName": "F#3",
      "velocity": 0.7244094488188977,
      "duration": "46i"
    },
    {
      "time": "49584i",
      "midiNote": 65,
      "noteName": "F4",
      "velocity": 0.3543307086614173,
      "duration": "94i"
    },
    {
      "time": "49584i",
      "midiNote": 65,
      "noteName": "F4",
      "velocity": 0.3543307086614173,
      "duration": "94i"
    },
    {
      "time": "49632i",
      "midiNote": 54,
      "noteName": "F#3",
      "velocity": 0.7244094488188977,
      "duration": "46i"
    },
    {
      "time": "49680i",
      "midiNote": 54,
      "noteName": "F#3",
      "velocity": 0.7244094488188977,
      "duration": "46i"
    },
    {
      "time": "49680i",
      "midiNote": 65,
      "noteName": "F4",
      "velocity": 0.3543307086614173,
      "duration": "94i"
    },
    {
      "time": "49680i",
      "midiNote": 65,
      "noteName": "F4",
      "velocity": 0.3543307086614173,
      "duration": "94i"
    },
    {
      "time": "49728i",
      "midiNote": 35,
      "noteName": "B1",
      "velocity": 0.8503937007874016,
      "duration": "94i"
    },
    {
      "time": "49728i",
      "midiNote": 70,
      "noteName": "A#4",
      "velocity": 0.8503937007874016,
      "duration": "32i"
    },
    {
      "time": "49728i",
      "midiNote": 70,
      "noteName": "A#4",
      "velocity": 0.8503937007874016,
      "duration": "32i"
    },
    {
      "time": "49728i",
      "midiNote": 54,
      "noteName": "F#3",
      "velocity": 0.7244094488188977,
      "duration": "46i"
    },
    {
      "time": "49728i",
      "midiNote": 39,
      "noteName": "D#2",
      "velocity": 0.8503937007874016,
      "duration": "160i"
    },
    {
      "time": "49776i",
      "midiNote": 54,
      "noteName": "F#3",
      "velocity": 0.7244094488188977,
      "duration": "46i"
    },
    {
      "time": "49776i",
      "midiNote": 65,
      "noteName": "F4",
      "velocity": 0.3543307086614173,
      "duration": "142i"
    },
    {
      "time": "49776i",
      "midiNote": 65,
      "noteName": "F4",
      "velocity": 0.3543307086614173,
      "duration": "142i"
    },
    {
      "time": "49824i",
      "midiNote": 33,
      "noteName": "A1",
      "velocity": 0.8503937007874016,
      "duration": "94i"
    },
    {
      "time": "49824i",
      "midiNote": 69,
      "noteName": "A4",
      "velocity": 0.8503937007874016,
      "duration": "32i"
    },
    {
      "time": "49824i",
      "midiNote": 69,
      "noteName": "A4",
      "velocity": 0.8503937007874016,
      "duration": "32i"
    },
    {
      "time": "49824i",
      "midiNote": 54,
      "noteName": "F#3",
      "velocity": 0.7244094488188977,
      "duration": "46i"
    },
    {
      "time": "49872i",
      "midiNote": 54,
      "noteName": "F#3",
      "velocity": 0.7244094488188977,
      "duration": "46i"
    },
    {
      "time": "49920i",
      "midiNote": 35,
      "noteName": "B1",
      "velocity": 0.8503937007874016,
      "duration": "160i"
    },
    {
      "time": "49920i",
      "midiNote": 68,
      "noteName": "G#4",
      "velocity": 0.8503937007874016,
      "duration": "48i"
    },
    {
      "time": "49920i",
      "midiNote": 68,
      "noteName": "G#4",
      "velocity": 0.8503937007874016,
      "duration": "48i"
    },
    {
      "time": "49920i",
      "midiNote": 54,
      "noteName": "F#3",
      "velocity": 0.7244094488188977,
      "duration": "46i"
    },
    {
      "time": "49968i",
      "midiNote": 54,
      "noteName": "F#3",
      "velocity": 0.7244094488188977,
      "duration": "46i"
    },
    {
      "time": "50016i",
      "midiNote": 54,
      "noteName": "F#3",
      "velocity": 0.7244094488188977,
      "duration": "46i"
    },
    {
      "time": "50064i",
      "midiNote": 67,
      "noteName": "G4",
      "velocity": 0.8503937007874016,
      "duration": "48i"
    },
    {
      "time": "50064i",
      "midiNote": 67,
      "noteName": "G4",
      "velocity": 0.8503937007874016,
      "duration": "48i"
    },
    {
      "time": "50064i",
      "midiNote": 54,
      "noteName": "F#3",
      "velocity": 0.7244094488188977,
      "duration": "46i"
    },
    {
      "time": "50112i",
      "midiNote": 35,
      "noteName": "B1",
      "velocity": 0.8503937007874016,
      "duration": "94i"
    },
    {
      "time": "50112i",
      "midiNote": 54,
      "noteName": "F#3",
      "velocity": 0.7244094488188977,
      "duration": "46i"
    },
    {
      "time": "50112i",
      "midiNote": 39,
      "noteName": "D#2",
      "velocity": 0.8503937007874016,
      "duration": "160i"
    },
    {
      "time": "50160i",
      "midiNote": 54,
      "noteName": "F#3",
      "velocity": 0.7244094488188977,
      "duration": "46i"
    },
    {
      "time": "50208i",
      "midiNote": 33,
      "noteName": "A1",
      "velocity": 0.8503937007874016,
      "duration": "94i"
    },
    {
      "time": "50208i",
      "midiNote": 66,
      "noteName": "F#4",
      "velocity": 0.8503937007874016,
      "duration": "48i"
    },
    {
      "time": "50208i",
      "midiNote": 66,
      "noteName": "F#4",
      "velocity": 0.8503937007874016,
      "duration": "48i"
    },
    {
      "time": "50208i",
      "midiNote": 54,
      "noteName": "F#3",
      "velocity": 0.7244094488188977,
      "duration": "46i"
    },
    {
      "time": "50256i",
      "midiNote": 54,
      "noteName": "F#3",
      "velocity": 0.7244094488188977,
      "duration": "46i"
    },
    {
      "time": "50304i",
      "midiNote": 35,
      "noteName": "B1",
      "velocity": 0.8503937007874016,
      "duration": "94i"
    },
    {
      "time": "50304i",
      "midiNote": 54,
      "noteName": "F#3",
      "velocity": 0.7244094488188977,
      "duration": "46i"
    },
    {
      "time": "50352i",
      "midiNote": 65,
      "noteName": "F4",
      "velocity": 0.8503937007874016,
      "duration": "48i"
    },
    {
      "time": "50352i",
      "midiNote": 65,
      "noteName": "F4",
      "velocity": 0.8503937007874016,
      "duration": "48i"
    },
    {
      "time": "50352i",
      "midiNote": 54,
      "noteName": "F#3",
      "velocity": 0.7244094488188977,
      "duration": "46i"
    },
    {
      "time": "50400i",
      "midiNote": 33,
      "noteName": "A1",
      "velocity": 0.8503937007874016,
      "duration": "94i"
    },
    {
      "time": "50400i",
      "midiNote": 54,
      "noteName": "F#3",
      "velocity": 0.7244094488188977,
      "duration": "46i"
    },
    {
      "time": "50448i",
      "midiNote": 54,
      "noteName": "F#3",
      "velocity": 0.7244094488188977,
      "duration": "46i"
    },
    {
      "time": "50496i",
      "midiNote": 35,
      "noteName": "B1",
      "velocity": 0.8503937007874016,
      "duration": "94i"
    },
    {
      "time": "50496i",
      "midiNote": 64,
      "noteName": "E4",
      "velocity": 0.8503937007874016,
      "duration": "32i"
    },
    {
      "time": "50496i",
      "midiNote": 64,
      "noteName": "E4",
      "velocity": 0.8503937007874016,
      "duration": "32i"
    },
    {
      "time": "50496i",
      "midiNote": 54,
      "noteName": "F#3",
      "velocity": 0.7244094488188977,
      "duration": "46i"
    },
    {
      "time": "50496i",
      "midiNote": 39,
      "noteName": "D#2",
      "velocity": 0.8503937007874016,
      "duration": "160i"
    },
    {
      "time": "50544i",
      "midiNote": 54,
      "noteName": "F#3",
      "velocity": 0.7244094488188977,
      "duration": "46i"
    },
    {
      "time": "50592i",
      "midiNote": 37,
      "noteName": "C#2",
      "velocity": 0.8503937007874016,
      "duration": "94i"
    },
    {
      "time": "50592i",
      "midiNote": 63,
      "noteName": "D#4",
      "velocity": 0.8503937007874016,
      "duration": "32i"
    },
    {
      "time": "50592i",
      "midiNote": 63,
      "noteName": "D#4",
      "velocity": 0.8503937007874016,
      "duration": "32i"
    },
    {
      "time": "50592i",
      "midiNote": 54,
      "noteName": "F#3",
      "velocity": 0.7244094488188977,
      "duration": "46i"
    },
    {
      "time": "50640i",
      "midiNote": 54,
      "noteName": "F#3",
      "velocity": 0.7244094488188977,
      "duration": "46i"
    },
    {
      "time": "50688i",
      "midiNote": 35,
      "noteName": "B1",
      "velocity": 0.8503937007874016,
      "duration": "160i"
    },
    {
      "time": "50688i",
      "midiNote": 62,
      "noteName": "D4",
      "velocity": 0.8503937007874016,
      "duration": "48i"
    },
    {
      "time": "50688i",
      "midiNote": 62,
      "noteName": "D4",
      "velocity": 0.8503937007874016,
      "duration": "48i"
    },
    {
      "time": "50688i",
      "midiNote": 54,
      "noteName": "F#3",
      "velocity": 0.7244094488188977,
      "duration": "46i"
    },
    {
      "time": "50736i",
      "midiNote": 54,
      "noteName": "F#3",
      "velocity": 0.7244094488188977,
      "duration": "46i"
    },
    {
      "time": "50784i",
      "midiNote": 54,
      "noteName": "F#3",
      "velocity": 0.7244094488188977,
      "duration": "46i"
    },
    {
      "time": "50832i",
      "midiNote": 61,
      "noteName": "C#4",
      "velocity": 0.8503937007874016,
      "duration": "48i"
    },
    {
      "time": "50832i",
      "midiNote": 61,
      "noteName": "C#4",
      "velocity": 0.8503937007874016,
      "duration": "48i"
    },
    {
      "time": "50832i",
      "midiNote": 54,
      "noteName": "F#3",
      "velocity": 0.7244094488188977,
      "duration": "46i"
    },
    {
      "time": "50880i",
      "midiNote": 35,
      "noteName": "B1",
      "velocity": 0.8503937007874016,
      "duration": "94i"
    },
    {
      "time": "50880i",
      "midiNote": 54,
      "noteName": "F#3",
      "velocity": 0.7244094488188977,
      "duration": "46i"
    },
    {
      "time": "50880i",
      "midiNote": 39,
      "noteName": "D#2",
      "velocity": 0.8503937007874016,
      "duration": "160i"
    },
    {
      "time": "50928i",
      "midiNote": 54,
      "noteName": "F#3",
      "velocity": 0.7244094488188977,
      "duration": "46i"
    },
    {
      "time": "50976i",
      "midiNote": 33,
      "noteName": "A1",
      "velocity": 0.8503937007874016,
      "duration": "94i"
    },
    {
      "time": "50976i",
      "midiNote": 60,
      "noteName": "C4",
      "velocity": 0.8503937007874016,
      "duration": "48i"
    },
    {
      "time": "50976i",
      "midiNote": 60,
      "noteName": "C4",
      "velocity": 0.8503937007874016,
      "duration": "48i"
    },
    {
      "time": "50976i",
      "midiNote": 54,
      "noteName": "F#3",
      "velocity": 0.7244094488188977,
      "duration": "46i"
    },
    {
      "time": "51024i",
      "midiNote": 54,
      "noteName": "F#3",
      "velocity": 0.7244094488188977,
      "duration": "46i"
    },
    {
      "time": "51072i",
      "midiNote": 35,
      "noteName": "B1",
      "velocity": 0.8503937007874016,
      "duration": "160i"
    },
    {
      "time": "51072i",
      "midiNote": 54,
      "noteName": "F#3",
      "velocity": 0.7244094488188977,
      "duration": "46i"
    },
    {
      "time": "51120i",
      "midiNote": 59,
      "noteName": "B3",
      "velocity": 0.8503937007874016,
      "duration": "48i"
    },
    {
      "time": "51120i",
      "midiNote": 59,
      "noteName": "B3",
      "velocity": 0.8503937007874016,
      "duration": "48i"
    },
    {
      "time": "51120i",
      "midiNote": 54,
      "noteName": "F#3",
      "velocity": 0.7244094488188977,
      "duration": "46i"
    },
    {
      "time": "51168i",
      "midiNote": 54,
      "noteName": "F#3",
      "velocity": 0.7244094488188977,
      "duration": "46i"
    },
    {
      "time": "51216i",
      "midiNote": 54,
      "noteName": "F#3",
      "velocity": 0.7244094488188977,
      "duration": "46i"
    },
    {
      "time": "51264i",
      "midiNote": 35,
      "noteName": "B1",
      "velocity": 0.8503937007874016,
      "duration": "94i"
    },
    {
      "time": "51264i",
      "midiNote": 58,
      "noteName": "A#3",
      "velocity": 0.8503937007874016,
      "duration": "32i"
    },
    {
      "time": "51264i",
      "midiNote": 58,
      "noteName": "A#3",
      "velocity": 0.8503937007874016,
      "duration": "32i"
    },
    {
      "time": "51264i",
      "midiNote": 54,
      "noteName": "F#3",
      "velocity": 0.7244094488188977,
      "duration": "46i"
    },
    {
      "time": "51264i",
      "midiNote": 39,
      "noteName": "D#2",
      "velocity": 0.8503937007874016,
      "duration": "160i"
    },
    {
      "time": "51312i",
      "midiNote": 54,
      "noteName": "F#3",
      "velocity": 0.7244094488188977,
      "duration": "46i"
    },
    {
      "time": "51360i",
      "midiNote": 33,
      "noteName": "A1",
      "velocity": 0.8503937007874016,
      "duration": "94i"
    },
    {
      "time": "51360i",
      "midiNote": 57,
      "noteName": "A3",
      "velocity": 0.8503937007874016,
      "duration": "32i"
    },
    {
      "time": "51360i",
      "midiNote": 57,
      "noteName": "A3",
      "velocity": 0.8503937007874016,
      "duration": "32i"
    },
    {
      "time": "51360i",
      "midiNote": 54,
      "noteName": "F#3",
      "velocity": 0.7244094488188977,
      "duration": "46i"
    },
    {
      "time": "51408i",
      "midiNote": 54,
      "noteName": "F#3",
      "velocity": 0.7244094488188977,
      "duration": "46i"
    },
    {
      "time": "51456i",
      "midiNote": 35,
      "noteName": "B1",
      "velocity": 0.8503937007874016,
      "duration": "160i"
    },
    {
      "time": "51456i",
      "midiNote": 58,
      "noteName": "A#3",
      "velocity": 0.8503937007874016,
      "duration": "48i"
    },
    {
      "time": "51456i",
      "midiNote": 58,
      "noteName": "A#3",
      "velocity": 0.8503937007874016,
      "duration": "48i"
    },
    {
      "time": "51456i",
      "midiNote": 54,
      "noteName": "F#3",
      "velocity": 0.7244094488188977,
      "duration": "46i"
    },
    {
      "time": "51504i",
      "midiNote": 54,
      "noteName": "F#3",
      "velocity": 0.7244094488188977,
      "duration": "46i"
    },
    {
      "time": "51552i",
      "midiNote": 54,
      "noteName": "F#3",
      "velocity": 0.7244094488188977,
      "duration": "46i"
    },
    {
      "time": "51600i",
      "midiNote": 59,
      "noteName": "B3",
      "velocity": 0.8503937007874016,
      "duration": "48i"
    },
    {
      "time": "51600i",
      "midiNote": 59,
      "noteName": "B3",
      "velocity": 0.8503937007874016,
      "duration": "48i"
    },
    {
      "time": "51600i",
      "midiNote": 54,
      "noteName": "F#3",
      "velocity": 0.7244094488188977,
      "duration": "46i"
    },
    {
      "time": "51648i",
      "midiNote": 35,
      "noteName": "B1",
      "velocity": 0.8503937007874016,
      "duration": "94i"
    },
    {
      "time": "51648i",
      "midiNote": 54,
      "noteName": "F#3",
      "velocity": 0.7244094488188977,
      "duration": "46i"
    },
    {
      "time": "51648i",
      "midiNote": 39,
      "noteName": "D#2",
      "velocity": 0.8503937007874016,
      "duration": "160i"
    },
    {
      "time": "51696i",
      "midiNote": 54,
      "noteName": "F#3",
      "velocity": 0.7244094488188977,
      "duration": "46i"
    },
    {
      "time": "51744i",
      "midiNote": 33,
      "noteName": "A1",
      "velocity": 0.8503937007874016,
      "duration": "94i"
    },
    {
      "time": "51744i",
      "midiNote": 60,
      "noteName": "C4",
      "velocity": 0.8503937007874016,
      "duration": "48i"
    },
    {
      "time": "51744i",
      "midiNote": 60,
      "noteName": "C4",
      "velocity": 0.8503937007874016,
      "duration": "48i"
    },
    {
      "time": "51744i",
      "midiNote": 54,
      "noteName": "F#3",
      "velocity": 0.7244094488188977,
      "duration": "46i"
    },
    {
      "time": "51792i",
      "midiNote": 54,
      "noteName": "F#3",
      "velocity": 0.7244094488188977,
      "duration": "46i"
    },
    {
      "time": "51840i",
      "midiNote": 35,
      "noteName": "B1",
      "velocity": 0.8503937007874016,
      "duration": "94i"
    },
    {
      "time": "51840i",
      "midiNote": 54,
      "noteName": "F#3",
      "velocity": 0.7244094488188977,
      "duration": "46i"
    },
    {
      "time": "51888i",
      "midiNote": 61,
      "noteName": "C#4",
      "velocity": 0.8503937007874016,
      "duration": "48i"
    },
    {
      "time": "51888i",
      "midiNote": 61,
      "noteName": "C#4",
      "velocity": 0.8503937007874016,
      "duration": "48i"
    },
    {
      "time": "51888i",
      "midiNote": 54,
      "noteName": "F#3",
      "velocity": 0.7244094488188977,
      "duration": "46i"
    },
    {
      "time": "51936i",
      "midiNote": 33,
      "noteName": "A1",
      "velocity": 0.8503937007874016,
      "duration": "94i"
    },
    {
      "time": "51936i",
      "midiNote": 54,
      "noteName": "F#3",
      "velocity": 0.7244094488188977,
      "duration": "46i"
    },
    {
      "time": "51984i",
      "midiNote": 54,
      "noteName": "F#3",
      "velocity": 0.7244094488188977,
      "duration": "46i"
    },
    {
      "time": "52032i",
      "midiNote": 35,
      "noteName": "B1",
      "velocity": 0.8503937007874016,
      "duration": "94i"
    },
    {
      "time": "52032i",
      "midiNote": 62,
      "noteName": "D4",
      "velocity": 0.8503937007874016,
      "duration": "32i"
    },
    {
      "time": "52032i",
      "midiNote": 62,
      "noteName": "D4",
      "velocity": 0.8503937007874016,
      "duration": "32i"
    },
    {
      "time": "52032i",
      "midiNote": 54,
      "noteName": "F#3",
      "velocity": 0.7244094488188977,
      "duration": "46i"
    },
    {
      "time": "52032i",
      "midiNote": 39,
      "noteName": "D#2",
      "velocity": 0.8503937007874016,
      "duration": "160i"
    },
    {
      "time": "52080i",
      "midiNote": 54,
      "noteName": "F#3",
      "velocity": 0.7244094488188977,
      "duration": "46i"
    },
    {
      "time": "52128i",
      "midiNote": 37,
      "noteName": "C#2",
      "velocity": 0.8503937007874016,
      "duration": "94i"
    },
    {
      "time": "52128i",
      "midiNote": 63,
      "noteName": "D#4",
      "velocity": 0.8503937007874016,
      "duration": "32i"
    },
    {
      "time": "52128i",
      "midiNote": 63,
      "noteName": "D#4",
      "velocity": 0.8503937007874016,
      "duration": "32i"
    },
    {
      "time": "52128i",
      "midiNote": 54,
      "noteName": "F#3",
      "velocity": 0.7244094488188977,
      "duration": "46i"
    },
    {
      "time": "52176i",
      "midiNote": 54,
      "noteName": "F#3",
      "velocity": 0.7244094488188977,
      "duration": "46i"
    },
    {
      "time": "52224i",
      "midiNote": 35,
      "noteName": "B1",
      "velocity": 0.8503937007874016,
      "duration": "160i"
    },
    {
      "time": "52224i",
      "midiNote": 64,
      "noteName": "E4",
      "velocity": 0.8503937007874016,
      "duration": "48i"
    },
    {
      "time": "52224i",
      "midiNote": 64,
      "noteName": "E4",
      "velocity": 0.8503937007874016,
      "duration": "48i"
    },
    {
      "time": "52224i",
      "midiNote": 54,
      "noteName": "F#3",
      "velocity": 0.7244094488188977,
      "duration": "46i"
    },
    {
      "time": "52272i",
      "midiNote": 54,
      "noteName": "F#3",
      "velocity": 0.7244094488188977,
      "duration": "46i"
    },
    {
      "time": "52320i",
      "midiNote": 54,
      "noteName": "F#3",
      "velocity": 0.7244094488188977,
      "duration": "46i"
    },
    {
      "time": "52368i",
      "midiNote": 65,
      "noteName": "F4",
      "velocity": 0.8503937007874016,
      "duration": "48i"
    },
    {
      "time": "52368i",
      "midiNote": 65,
      "noteName": "F4",
      "velocity": 0.8503937007874016,
      "duration": "48i"
    },
    {
      "time": "52368i",
      "midiNote": 54,
      "noteName": "F#3",
      "velocity": 0.7244094488188977,
      "duration": "46i"
    },
    {
      "time": "52416i",
      "midiNote": 35,
      "noteName": "B1",
      "velocity": 0.8503937007874016,
      "duration": "94i"
    },
    {
      "time": "52416i",
      "midiNote": 54,
      "noteName": "F#3",
      "velocity": 0.7244094488188977,
      "duration": "46i"
    },
    {
      "time": "52416i",
      "midiNote": 39,
      "noteName": "D#2",
      "velocity": 0.8503937007874016,
      "duration": "160i"
    },
    {
      "time": "52464i",
      "midiNote": 54,
      "noteName": "F#3",
      "velocity": 0.7244094488188977,
      "duration": "46i"
    },
    {
      "time": "52512i",
      "midiNote": 33,
      "noteName": "A1",
      "velocity": 0.8503937007874016,
      "duration": "94i"
    },
    {
      "time": "52512i",
      "midiNote": 66,
      "noteName": "F#4",
      "velocity": 0.8503937007874016,
      "duration": "48i"
    },
    {
      "time": "52512i",
      "midiNote": 54,
      "noteName": "F#3",
      "velocity": 0.7244094488188977,
      "duration": "46i"
    },
    {
      "time": "52512i",
      "midiNote": 66,
      "noteName": "F#4",
      "velocity": 0.8503937007874016,
      "duration": "48i"
    },
    {
      "time": "52560i",
      "midiNote": 54,
      "noteName": "F#3",
      "velocity": 0.7244094488188977,
      "duration": "46i"
    },
    {
      "time": "52608i",
      "midiNote": 35,
      "noteName": "B1",
      "velocity": 0.8503937007874016,
      "duration": "160i"
    },
    {
      "time": "52608i",
      "midiNote": 54,
      "noteName": "F#3",
      "velocity": 0.7244094488188977,
      "duration": "46i"
    },
    {
      "time": "52656i",
      "midiNote": 67,
      "noteName": "G4",
      "velocity": 0.8503937007874016,
      "duration": "48i"
    },
    {
      "time": "52656i",
      "midiNote": 67,
      "noteName": "G4",
      "velocity": 0.8503937007874016,
      "duration": "48i"
    },
    {
      "time": "52656i",
      "midiNote": 54,
      "noteName": "F#3",
      "velocity": 0.7244094488188977,
      "duration": "46i"
    },
    {
      "time": "52704i",
      "midiNote": 54,
      "noteName": "F#3",
      "velocity": 0.7244094488188977,
      "duration": "46i"
    },
    {
      "time": "52752i",
      "midiNote": 54,
      "noteName": "F#3",
      "velocity": 0.7244094488188977,
      "duration": "46i"
    },
    {
      "time": "52800i",
      "midiNote": 35,
      "noteName": "B1",
      "velocity": 0.8503937007874016,
      "duration": "94i"
    },
    {
      "time": "52800i",
      "midiNote": 68,
      "noteName": "G#4",
      "velocity": 0.8503937007874016,
      "duration": "32i"
    },
    {
      "time": "52800i",
      "midiNote": 68,
      "noteName": "G#4",
      "velocity": 0.8503937007874016,
      "duration": "32i"
    },
    {
      "time": "52800i",
      "midiNote": 54,
      "noteName": "F#3",
      "velocity": 0.7244094488188977,
      "duration": "46i"
    },
    {
      "time": "52800i",
      "midiNote": 39,
      "noteName": "D#2",
      "velocity": 0.8503937007874016,
      "duration": "160i"
    },
    {
      "time": "52848i",
      "midiNote": 54,
      "noteName": "F#3",
      "velocity": 0.7244094488188977,
      "duration": "46i"
    },
    {
      "time": "52896i",
      "midiNote": 33,
      "noteName": "A1",
      "velocity": 0.8503937007874016,
      "duration": "94i"
    },
    {
      "time": "52896i",
      "midiNote": 69,
      "noteName": "A4",
      "velocity": 0.8503937007874016,
      "duration": "32i"
    },
    {
      "time": "52896i",
      "midiNote": 69,
      "noteName": "A4",
      "velocity": 0.8503937007874016,
      "duration": "32i"
    },
    {
      "time": "52896i",
      "midiNote": 54,
      "noteName": "F#3",
      "velocity": 0.7244094488188977,
      "duration": "46i"
    },
    {
      "time": "52944i",
      "midiNote": 54,
      "noteName": "F#3",
      "velocity": 0.7244094488188977,
      "duration": "46i"
    },
    {
      "time": "52992i",
      "midiNote": 35,
      "noteName": "B1",
      "velocity": 0.8503937007874016,
      "duration": "160i"
    },
    {
      "time": "52992i",
      "midiNote": 70,
      "noteName": "A#4",
      "velocity": 0.8503937007874016,
      "duration": "48i"
    },
    {
      "time": "52992i",
      "midiNote": 70,
      "noteName": "A#4",
      "velocity": 0.8503937007874016,
      "duration": "48i"
    },
    {
      "time": "52992i",
      "midiNote": 54,
      "noteName": "F#3",
      "velocity": 0.7244094488188977,
      "duration": "46i"
    },
    {
      "time": "53040i",
      "midiNote": 54,
      "noteName": "F#3",
      "velocity": 0.7244094488188977,
      "duration": "46i"
    },
    {
      "time": "53088i",
      "midiNote": 54,
      "noteName": "F#3",
      "velocity": 0.7244094488188977,
      "duration": "46i"
    },
    {
      "time": "53136i",
      "midiNote": 71,
      "noteName": "B4",
      "velocity": 0.8503937007874016,
      "duration": "48i"
    },
    {
      "time": "53136i",
      "midiNote": 71,
      "noteName": "B4",
      "velocity": 0.8503937007874016,
      "duration": "48i"
    },
    {
      "time": "53136i",
      "midiNote": 54,
      "noteName": "F#3",
      "velocity": 0.7244094488188977,
      "duration": "46i"
    },
    {
      "time": "53184i",
      "midiNote": 35,
      "noteName": "B1",
      "velocity": 0.8503937007874016,
      "duration": "94i"
    },
    {
      "time": "53184i",
      "midiNote": 54,
      "noteName": "F#3",
      "velocity": 0.7244094488188977,
      "duration": "46i"
    },
    {
      "time": "53184i",
      "midiNote": 39,
      "noteName": "D#2",
      "velocity": 0.8503937007874016,
      "duration": "160i"
    },
    {
      "time": "53232i",
      "midiNote": 54,
      "noteName": "F#3",
      "velocity": 0.7244094488188977,
      "duration": "46i"
    },
    {
      "time": "53280i",
      "midiNote": 33,
      "noteName": "A1",
      "velocity": 0.8503937007874016,
      "duration": "94i"
    },
    {
      "time": "53280i",
      "midiNote": 72,
      "noteName": "C5",
      "velocity": 0.8503937007874016,
      "duration": "48i"
    },
    {
      "time": "53280i",
      "midiNote": 72,
      "noteName": "C5",
      "velocity": 0.8503937007874016,
      "duration": "48i"
    },
    {
      "time": "53280i",
      "midiNote": 54,
      "noteName": "F#3",
      "velocity": 0.7244094488188977,
      "duration": "46i"
    },
    {
      "time": "53328i",
      "midiNote": 54,
      "noteName": "F#3",
      "velocity": 0.7244094488188977,
      "duration": "46i"
    },
    {
      "time": "53376i",
      "midiNote": 59,
      "noteName": "B3",
      "velocity": 1,
      "duration": "46i"
    },
    {
      "time": "53376i",
      "midiNote": 35,
      "noteName": "B1",
      "velocity": 0.8503937007874016,
      "duration": "94i"
    },
    {
      "time": "53376i",
      "midiNote": 54,
      "noteName": "F#3",
      "velocity": 0.7244094488188977,
      "duration": "46i"
    },
    {
      "time": "53424i",
      "midiNote": 59,
      "noteName": "B3",
      "velocity": 1,
      "duration": "46i"
    },
    {
      "time": "53424i",
      "midiNote": 73,
      "noteName": "C#5",
      "velocity": 0.8503937007874016,
      "duration": "48i"
    },
    {
      "time": "53424i",
      "midiNote": 73,
      "noteName": "C#5",
      "velocity": 0.8503937007874016,
      "duration": "48i"
    },
    {
      "time": "53424i",
      "midiNote": 54,
      "noteName": "F#3",
      "velocity": 0.7244094488188977,
      "duration": "46i"
    },
    {
      "time": "53472i",
      "midiNote": 59,
      "noteName": "B3",
      "velocity": 1,
      "duration": "94i"
    },
    {
      "time": "53472i",
      "midiNote": 33,
      "noteName": "A1",
      "velocity": 0.8503937007874016,
      "duration": "94i"
    },
    {
      "time": "53472i",
      "midiNote": 54,
      "noteName": "F#3",
      "velocity": 0.7244094488188977,
      "duration": "46i"
    },
    {
      "time": "53520i",
      "midiNote": 54,
      "noteName": "F#3",
      "velocity": 0.7244094488188977,
      "duration": "46i"
    },
    {
      "time": "53568i",
      "midiNote": 59,
      "noteName": "B3",
      "velocity": 1,
      "duration": "160i"
    },
    {
      "time": "53568i",
      "midiNote": 35,
      "noteName": "B1",
      "velocity": 0.8503937007874016,
      "duration": "94i"
    },
    {
      "time": "53568i",
      "midiNote": 74,
      "noteName": "D5",
      "velocity": 0.8503937007874016,
      "duration": "32i"
    },
    {
      "time": "53568i",
      "midiNote": 74,
      "noteName": "D5",
      "velocity": 0.8503937007874016,
      "duration": "32i"
    },
    {
      "time": "53568i",
      "midiNote": 54,
      "noteName": "F#3",
      "velocity": 0.7244094488188977,
      "duration": "46i"
    },
    {
      "time": "53568i",
      "midiNote": 39,
      "noteName": "D#2",
      "velocity": 0.8503937007874016,
      "duration": "160i"
    },
    {
      "time": "53616i",
      "midiNote": 54,
      "noteName": "F#3",
      "velocity": 0.7244094488188977,
      "duration": "46i"
    },
    {
      "time": "53664i",
      "midiNote": 37,
      "noteName": "C#2",
      "velocity": 0.8503937007874016,
      "duration": "94i"
    },
    {
      "time": "53664i",
      "midiNote": 75,
      "noteName": "D#5",
      "velocity": 0.8503937007874016,
      "duration": "32i"
    },
    {
      "time": "53664i",
      "midiNote": 75,
      "noteName": "D#5",
      "velocity": 0.8503937007874016,
      "duration": "32i"
    },
    {
      "time": "53664i",
      "midiNote": 54,
      "noteName": "F#3",
      "velocity": 0.7244094488188977,
      "duration": "46i"
    },
    {
      "time": "53712i",
      "midiNote": 54,
      "noteName": "F#3",
      "velocity": 0.7244094488188977,
      "duration": "46i"
    },
    {
      "time": "53760i",
      "midiNote": 36,
      "noteName": "C2",
      "velocity": 1,
      "duration": "160i"
    },
    {
      "time": "53760i",
      "midiNote": 57,
      "noteName": "A3",
      "velocity": 1,
      "duration": "160i"
    },
    {
      "time": "53760i",
      "midiNote": 35,
      "noteName": "B1",
      "velocity": 0.8503937007874016,
      "duration": "160i"
    },
    {
      "time": "53760i",
      "midiNote": 74,
      "noteName": "D5",
      "velocity": 0.8503937007874016,
      "duration": "48i"
    },
    {
      "time": "53760i",
      "midiNote": 74,
      "noteName": "D5",
      "velocity": 0.8503937007874016,
      "duration": "48i"
    },
    {
      "time": "53760i",
      "midiNote": 54,
      "noteName": "F#3",
      "velocity": 0.7244094488188977,
      "duration": "46i"
    },
    {
      "time": "53808i",
      "midiNote": 54,
      "noteName": "F#3",
      "velocity": 0.7244094488188977,
      "duration": "46i"
    },
    {
      "time": "53856i",
      "midiNote": 54,
      "noteName": "F#3",
      "velocity": 0.7244094488188977,
      "duration": "46i"
    },
    {
      "time": "53904i",
      "midiNote": 73,
      "noteName": "C#5",
      "velocity": 0.8503937007874016,
      "duration": "48i"
    },
    {
      "time": "53904i",
      "midiNote": 73,
      "noteName": "C#5",
      "velocity": 0.8503937007874016,
      "duration": "48i"
    },
    {
      "time": "53904i",
      "midiNote": 54,
      "noteName": "F#3",
      "velocity": 0.7244094488188977,
      "duration": "46i"
    },
    {
      "time": "53952i",
      "midiNote": 36,
      "noteName": "C2",
      "velocity": 1,
      "duration": "160i"
    },
    {
      "time": "53952i",
      "midiNote": 35,
      "noteName": "B1",
      "velocity": 0.8503937007874016,
      "duration": "94i"
    },
    {
      "time": "53952i",
      "midiNote": 54,
      "noteName": "F#3",
      "velocity": 0.7244094488188977,
      "duration": "46i"
    },
    {
      "time": "53952i",
      "midiNote": 39,
      "noteName": "D#2",
      "velocity": 0.8503937007874016,
      "duration": "160i"
    },
    {
      "time": "54000i",
      "midiNote": 54,
      "noteName": "F#3",
      "velocity": 0.7244094488188977,
      "duration": "46i"
    },
    {
      "time": "54048i",
      "midiNote": 33,
      "noteName": "A1",
      "velocity": 0.8503937007874016,
      "duration": "94i"
    },
    {
      "time": "54048i",
      "midiNote": 72,
      "noteName": "C5",
      "velocity": 0.8503937007874016,
      "duration": "48i"
    },
    {
      "time": "54048i",
      "midiNote": 72,
      "noteName": "C5",
      "velocity": 0.8503937007874016,
      "duration": "48i"
    },
    {
      "time": "54048i",
      "midiNote": 54,
      "noteName": "F#3",
      "velocity": 0.7244094488188977,
      "duration": "46i"
    },
    {
      "time": "54096i",
      "midiNote": 54,
      "noteName": "F#3",
      "velocity": 0.7244094488188977,
      "duration": "46i"
    },
    {
      "time": "54144i",
      "midiNote": 36,
      "noteName": "C2",
      "velocity": 1,
      "duration": "160i"
    },
    {
      "time": "54144i",
      "midiNote": 35,
      "noteName": "B1",
      "velocity": 0.8503937007874016,
      "duration": "160i"
    },
    {
      "time": "54144i",
      "midiNote": 54,
      "noteName": "F#3",
      "velocity": 0.7244094488188977,
      "duration": "46i"
    },
    {
      "time": "54192i",
      "midiNote": 71,
      "noteName": "B4",
      "velocity": 0.8503937007874016,
      "duration": "48i"
    },
    {
      "time": "54192i",
      "midiNote": 71,
      "noteName": "B4",
      "velocity": 0.8503937007874016,
      "duration": "48i"
    },
    {
      "time": "54192i",
      "midiNote": 54,
      "noteName": "F#3",
      "velocity": 0.7244094488188977,
      "duration": "46i"
    },
    {
      "time": "54240i",
      "midiNote": 54,
      "noteName": "F#3",
      "velocity": 0.7244094488188977,
      "duration": "46i"
    },
    {
      "time": "54288i",
      "midiNote": 54,
      "noteName": "F#3",
      "velocity": 0.7244094488188977,
      "duration": "46i"
    },
    {
      "time": "54336i",
      "midiNote": 36,
      "noteName": "C2",
      "velocity": 1,
      "duration": "160i"
    },
    {
      "time": "54336i",
      "midiNote": 35,
      "noteName": "B1",
      "velocity": 0.8503937007874016,
      "duration": "94i"
    },
    {
      "time": "54336i",
      "midiNote": 70,
      "noteName": "A#4",
      "velocity": 0.8503937007874016,
      "duration": "32i"
    },
    {
      "time": "54336i",
      "midiNote": 70,
      "noteName": "A#4",
      "velocity": 0.8503937007874016,
      "duration": "32i"
    },
    {
      "time": "54336i",
      "midiNote": 54,
      "noteName": "F#3",
      "velocity": 0.7244094488188977,
      "duration": "46i"
    },
    {
      "time": "54336i",
      "midiNote": 39,
      "noteName": "D#2",
      "velocity": 0.8503937007874016,
      "duration": "160i"
    },
    {
      "time": "54384i",
      "midiNote": 54,
      "noteName": "F#3",
      "velocity": 0.7244094488188977,
      "duration": "46i"
    },
    {
      "time": "54432i",
      "midiNote": 33,
      "noteName": "A1",
      "velocity": 0.8503937007874016,
      "duration": "94i"
    },
    {
      "time": "54432i",
      "midiNote": 69,
      "noteName": "A4",
      "velocity": 0.8503937007874016,
      "duration": "32i"
    },
    {
      "time": "54432i",
      "midiNote": 69,
      "noteName": "A4",
      "velocity": 0.8503937007874016,
      "duration": "32i"
    },
    {
      "time": "54432i",
      "midiNote": 54,
      "noteName": "F#3",
      "velocity": 0.7244094488188977,
      "duration": "46i"
    },
    {
      "time": "54480i",
      "midiNote": 54,
      "noteName": "F#3",
      "velocity": 0.7244094488188977,
      "duration": "46i"
    },
    {
      "time": "54528i",
      "midiNote": 36,
      "noteName": "C2",
      "velocity": 1,
      "duration": "160i"
    },
    {
      "time": "54528i",
      "midiNote": 35,
      "noteName": "B1",
      "velocity": 0.8503937007874016,
      "duration": "160i"
    },
    {
      "time": "54528i",
      "midiNote": 68,
      "noteName": "G#4",
      "velocity": 0.8503937007874016,
      "duration": "48i"
    },
    {
      "time": "54528i",
      "midiNote": 68,
      "noteName": "G#4",
      "velocity": 0.8503937007874016,
      "duration": "48i"
    },
    {
      "time": "54528i",
      "midiNote": 54,
      "noteName": "F#3",
      "velocity": 0.7244094488188977,
      "duration": "46i"
    },
    {
      "time": "54576i",
      "midiNote": 54,
      "noteName": "F#3",
      "velocity": 0.7244094488188977,
      "duration": "46i"
    },
    {
      "time": "54624i",
      "midiNote": 54,
      "noteName": "F#3",
      "velocity": 0.7244094488188977,
      "duration": "46i"
    },
    {
      "time": "54672i",
      "midiNote": 67,
      "noteName": "G4",
      "velocity": 0.8503937007874016,
      "duration": "48i"
    },
    {
      "time": "54672i",
      "midiNote": 67,
      "noteName": "G4",
      "velocity": 0.8503937007874016,
      "duration": "48i"
    },
    {
      "time": "54672i",
      "midiNote": 54,
      "noteName": "F#3",
      "velocity": 0.7244094488188977,
      "duration": "46i"
    },
    {
      "time": "54720i",
      "midiNote": 36,
      "noteName": "C2",
      "velocity": 1,
      "duration": "160i"
    },
    {
      "time": "54720i",
      "midiNote": 35,
      "noteName": "B1",
      "velocity": 0.8503937007874016,
      "duration": "94i"
    },
    {
      "time": "54720i",
      "midiNote": 54,
      "noteName": "F#3",
      "velocity": 0.7244094488188977,
      "duration": "46i"
    },
    {
      "time": "54720i",
      "midiNote": 39,
      "noteName": "D#2",
      "velocity": 0.8503937007874016,
      "duration": "160i"
    },
    {
      "time": "54768i",
      "midiNote": 54,
      "noteName": "F#3",
      "velocity": 0.7244094488188977,
      "duration": "46i"
    },
    {
      "time": "54816i",
      "midiNote": 33,
      "noteName": "A1",
      "velocity": 0.8503937007874016,
      "duration": "94i"
    },
    {
      "time": "54816i",
      "midiNote": 66,
      "noteName": "F#4",
      "velocity": 0.8503937007874016,
      "duration": "48i"
    },
    {
      "time": "54816i",
      "midiNote": 66,
      "noteName": "F#4",
      "velocity": 0.8503937007874016,
      "duration": "48i"
    },
    {
      "time": "54816i",
      "midiNote": 54,
      "noteName": "F#3",
      "velocity": 0.7244094488188977,
      "duration": "46i"
    },
    {
      "time": "54864i",
      "midiNote": 54,
      "noteName": "F#3",
      "velocity": 0.7244094488188977,
      "duration": "46i"
    },
    {
      "time": "54912i",
      "midiNote": 36,
      "noteName": "C2",
      "velocity": 1,
      "duration": "94i"
    },
    {
      "time": "54912i",
      "midiNote": 35,
      "noteName": "B1",
      "velocity": 0.8503937007874016,
      "duration": "94i"
    },
    {
      "time": "54912i",
      "midiNote": 54,
      "noteName": "F#3",
      "velocity": 0.7244094488188977,
      "duration": "46i"
    },
    {
      "time": "54960i",
      "midiNote": 65,
      "noteName": "F4",
      "velocity": 0.8503937007874016,
      "duration": "48i"
    },
    {
      "time": "54960i",
      "midiNote": 65,
      "noteName": "F4",
      "velocity": 0.8503937007874016,
      "duration": "48i"
    },
    {
      "time": "54960i",
      "midiNote": 54,
      "noteName": "F#3",
      "velocity": 0.7244094488188977,
      "duration": "46i"
    },
    {
      "time": "55008i",
      "midiNote": 36,
      "noteName": "C2",
      "velocity": 1,
      "duration": "94i"
    },
    {
      "time": "55008i",
      "midiNote": 33,
      "noteName": "A1",
      "velocity": 0.8503937007874016,
      "duration": "94i"
    },
    {
      "time": "55008i",
      "midiNote": 54,
      "noteName": "F#3",
      "velocity": 0.7244094488188977,
      "duration": "46i"
    },
    {
      "time": "55056i",
      "midiNote": 54,
      "noteName": "F#3",
      "velocity": 0.7244094488188977,
      "duration": "46i"
    },
    {
      "time": "55104i",
      "midiNote": 36,
      "noteName": "C2",
      "velocity": 1,
      "duration": "94i"
    },
    {
      "time": "55104i",
      "midiNote": 35,
      "noteName": "B1",
      "velocity": 0.8503937007874016,
      "duration": "94i"
    },
    {
      "time": "55104i",
      "midiNote": 64,
      "noteName": "E4",
      "velocity": 0.8503937007874016,
      "duration": "32i"
    },
    {
      "time": "55104i",
      "midiNote": 64,
      "noteName": "E4",
      "velocity": 0.8503937007874016,
      "duration": "32i"
    },
    {
      "time": "55104i",
      "midiNote": 54,
      "noteName": "F#3",
      "velocity": 0.7244094488188977,
      "duration": "46i"
    },
    {
      "time": "55104i",
      "midiNote": 39,
      "noteName": "D#2",
      "velocity": 0.8503937007874016,
      "duration": "160i"
    },
    {
      "time": "55152i",
      "midiNote": 54,
      "noteName": "F#3",
      "velocity": 0.7244094488188977,
      "duration": "46i"
    },
    {
      "time": "55200i",
      "midiNote": 36,
      "noteName": "C2",
      "velocity": 1,
      "duration": "94i"
    },
    {
      "time": "55200i",
      "midiNote": 37,
      "noteName": "C#2",
      "velocity": 0.8503937007874016,
      "duration": "94i"
    },
    {
      "time": "55200i",
      "midiNote": 63,
      "noteName": "D#4",
      "velocity": 0.8503937007874016,
      "duration": "32i"
    },
    {
      "time": "55200i",
      "midiNote": 63,
      "noteName": "D#4",
      "velocity": 0.8503937007874016,
      "duration": "32i"
    },
    {
      "time": "55200i",
      "midiNote": 54,
      "noteName": "F#3",
      "velocity": 0.7244094488188977,
      "duration": "46i"
    },
    {
      "time": "55248i",
      "midiNote": 54,
      "noteName": "F#3",
      "velocity": 0.7244094488188977,
      "duration": "46i"
    },
    {
      "time": "55296i",
      "midiNote": 36,
      "noteName": "C2",
      "velocity": 1,
      "duration": "160i"
    },
    {
      "time": "55296i",
      "midiNote": 35,
      "noteName": "B1",
      "velocity": 0.8503937007874016,
      "duration": "160i"
    },
    {
      "time": "55296i",
      "midiNote": 62,
      "noteName": "D4",
      "velocity": 0.8503937007874016,
      "duration": "48i"
    },
    {
      "time": "55296i",
      "midiNote": 62,
      "noteName": "D4",
      "velocity": 0.8503937007874016,
      "duration": "48i"
    },
    {
      "time": "55296i",
      "midiNote": 54,
      "noteName": "F#3",
      "velocity": 0.7244094488188977,
      "duration": "46i"
    },
    {
      "time": "55344i",
      "midiNote": 54,
      "noteName": "F#3",
      "velocity": 0.7244094488188977,
      "duration": "46i"
    },
    {
      "time": "55392i",
      "midiNote": 54,
      "noteName": "F#3",
      "velocity": 0.7244094488188977,
      "duration": "46i"
    },
    {
      "time": "55440i",
      "midiNote": 61,
      "noteName": "C#4",
      "velocity": 0.8503937007874016,
      "duration": "48i"
    },
    {
      "time": "55440i",
      "midiNote": 61,
      "noteName": "C#4",
      "velocity": 0.8503937007874016,
      "duration": "48i"
    },
    {
      "time": "55440i",
      "midiNote": 54,
      "noteName": "F#3",
      "velocity": 0.7244094488188977,
      "duration": "46i"
    },
    {
      "time": "55488i",
      "midiNote": 36,
      "noteName": "C2",
      "velocity": 1,
      "duration": "160i"
    },
    {
      "time": "55488i",
      "midiNote": 35,
      "noteName": "B1",
      "velocity": 0.8503937007874016,
      "duration": "94i"
    },
    {
      "time": "55488i",
      "midiNote": 54,
      "noteName": "F#3",
      "velocity": 0.7244094488188977,
      "duration": "46i"
    },
    {
      "time": "55488i",
      "midiNote": 39,
      "noteName": "D#2",
      "velocity": 0.8503937007874016,
      "duration": "160i"
    },
    {
      "time": "55536i",
      "midiNote": 54,
      "noteName": "F#3",
      "velocity": 0.7244094488188977,
      "duration": "46i"
    },
    {
      "time": "55584i",
      "midiNote": 33,
      "noteName": "A1",
      "velocity": 0.8503937007874016,
      "duration": "94i"
    },
    {
      "time": "55584i",
      "midiNote": 60,
      "noteName": "C4",
      "velocity": 0.8503937007874016,
      "duration": "48i"
    },
    {
      "time": "55584i",
      "midiNote": 60,
      "noteName": "C4",
      "velocity": 0.8503937007874016,
      "duration": "48i"
    },
    {
      "time": "55584i",
      "midiNote": 54,
      "noteName": "F#3",
      "velocity": 0.7244094488188977,
      "duration": "46i"
    },
    {
      "time": "55632i",
      "midiNote": 54,
      "noteName": "F#3",
      "velocity": 0.7244094488188977,
      "duration": "46i"
    },
    {
      "time": "55680i",
      "midiNote": 36,
      "noteName": "C2",
      "velocity": 1,
      "duration": "160i"
    },
    {
      "time": "55680i",
      "midiNote": 35,
      "noteName": "B1",
      "velocity": 0.8503937007874016,
      "duration": "160i"
    },
    {
      "time": "55680i",
      "midiNote": 54,
      "noteName": "F#3",
      "velocity": 0.7244094488188977,
      "duration": "46i"
    },
    {
      "time": "55728i",
      "midiNote": 59,
      "noteName": "B3",
      "velocity": 0.8503937007874016,
      "duration": "48i"
    },
    {
      "time": "55728i",
      "midiNote": 59,
      "noteName": "B3",
      "velocity": 0.8503937007874016,
      "duration": "48i"
    },
    {
      "time": "55728i",
      "midiNote": 54,
      "noteName": "F#3",
      "velocity": 0.7244094488188977,
      "duration": "46i"
    },
    {
      "time": "55776i",
      "midiNote": 54,
      "noteName": "F#3",
      "velocity": 0.7244094488188977,
      "duration": "46i"
    },
    {
      "time": "55824i",
      "midiNote": 54,
      "noteName": "F#3",
      "velocity": 0.7244094488188977,
      "duration": "46i"
    },
    {
      "time": "55872i",
      "midiNote": 36,
      "noteName": "C2",
      "velocity": 1,
      "duration": "160i"
    },
    {
      "time": "55872i",
      "midiNote": 35,
      "noteName": "B1",
      "velocity": 0.8503937007874016,
      "duration": "94i"
    },
    {
      "time": "55872i",
      "midiNote": 58,
      "noteName": "A#3",
      "velocity": 0.8503937007874016,
      "duration": "32i"
    },
    {
      "time": "55872i",
      "midiNote": 58,
      "noteName": "A#3",
      "velocity": 0.8503937007874016,
      "duration": "32i"
    },
    {
      "time": "55872i",
      "midiNote": 54,
      "noteName": "F#3",
      "velocity": 0.7244094488188977,
      "duration": "46i"
    },
    {
      "time": "55872i",
      "midiNote": 39,
      "noteName": "D#2",
      "velocity": 0.8503937007874016,
      "duration": "160i"
    },
    {
      "time": "55920i",
      "midiNote": 54,
      "noteName": "F#3",
      "velocity": 0.7244094488188977,
      "duration": "46i"
    },
    {
      "time": "55968i",
      "midiNote": 33,
      "noteName": "A1",
      "velocity": 0.8503937007874016,
      "duration": "94i"
    },
    {
      "time": "55968i",
      "midiNote": 57,
      "noteName": "A3",
      "velocity": 0.8503937007874016,
      "duration": "32i"
    },
    {
      "time": "55968i",
      "midiNote": 57,
      "noteName": "A3",
      "velocity": 0.8503937007874016,
      "duration": "32i"
    },
    {
      "time": "55968i",
      "midiNote": 54,
      "noteName": "F#3",
      "velocity": 0.7244094488188977,
      "duration": "46i"
    },
    {
      "time": "56016i",
      "midiNote": 54,
      "noteName": "F#3",
      "velocity": 0.7244094488188977,
      "duration": "46i"
    },
    {
      "time": "56064i",
      "midiNote": 36,
      "noteName": "C2",
      "velocity": 1,
      "duration": "160i"
    },
    {
      "time": "56064i",
      "midiNote": 35,
      "noteName": "B1",
      "velocity": 0.8503937007874016,
      "duration": "160i"
    },
    {
      "time": "56064i",
      "midiNote": 58,
      "noteName": "A#3",
      "velocity": 0.8503937007874016,
      "duration": "48i"
    },
    {
      "time": "56064i",
      "midiNote": 58,
      "noteName": "A#3",
      "velocity": 0.8503937007874016,
      "duration": "48i"
    },
    {
      "time": "56064i",
      "midiNote": 54,
      "noteName": "F#3",
      "velocity": 0.7244094488188977,
      "duration": "46i"
    },
    {
      "time": "56112i",
      "midiNote": 54,
      "noteName": "F#3",
      "velocity": 0.7244094488188977,
      "duration": "46i"
    },
    {
      "time": "56160i",
      "midiNote": 54,
      "noteName": "F#3",
      "velocity": 0.7244094488188977,
      "duration": "46i"
    },
    {
      "time": "56208i",
      "midiNote": 59,
      "noteName": "B3",
      "velocity": 0.8503937007874016,
      "duration": "48i"
    },
    {
      "time": "56208i",
      "midiNote": 59,
      "noteName": "B3",
      "velocity": 0.8503937007874016,
      "duration": "48i"
    },
    {
      "time": "56208i",
      "midiNote": 54,
      "noteName": "F#3",
      "velocity": 0.7244094488188977,
      "duration": "46i"
    },
    {
      "time": "56256i",
      "midiNote": 36,
      "noteName": "C2",
      "velocity": 1,
      "duration": "160i"
    },
    {
      "time": "56256i",
      "midiNote": 35,
      "noteName": "B1",
      "velocity": 0.8503937007874016,
      "duration": "94i"
    },
    {
      "time": "56256i",
      "midiNote": 54,
      "noteName": "F#3",
      "velocity": 0.7244094488188977,
      "duration": "46i"
    },
    {
      "time": "56256i",
      "midiNote": 39,
      "noteName": "D#2",
      "velocity": 0.8503937007874016,
      "duration": "160i"
    },
    {
      "time": "56304i",
      "midiNote": 54,
      "noteName": "F#3",
      "velocity": 0.7244094488188977,
      "duration": "46i"
    },
    {
      "time": "56352i",
      "midiNote": 33,
      "noteName": "A1",
      "velocity": 0.8503937007874016,
      "duration": "94i"
    },
    {
      "time": "56352i",
      "midiNote": 60,
      "noteName": "C4",
      "velocity": 0.8503937007874016,
      "duration": "48i"
    },
    {
      "time": "56352i",
      "midiNote": 60,
      "noteName": "C4",
      "velocity": 0.8503937007874016,
      "duration": "48i"
    },
    {
      "time": "56352i",
      "midiNote": 54,
      "noteName": "F#3",
      "velocity": 0.7244094488188977,
      "duration": "46i"
    },
    {
      "time": "56400i",
      "midiNote": 54,
      "noteName": "F#3",
      "velocity": 0.7244094488188977,
      "duration": "46i"
    },
    {
      "time": "56448i",
      "midiNote": 36,
      "noteName": "C2",
      "velocity": 1,
      "duration": "94i"
    },
    {
      "time": "56448i",
      "midiNote": 35,
      "noteName": "B1",
      "velocity": 0.8503937007874016,
      "duration": "94i"
    },
    {
      "time": "56448i",
      "midiNote": 54,
      "noteName": "F#3",
      "velocity": 0.7244094488188977,
      "duration": "46i"
    },
    {
      "time": "56496i",
      "midiNote": 61,
      "noteName": "C#4",
      "velocity": 0.8503937007874016,
      "duration": "48i"
    },
    {
      "time": "56496i",
      "midiNote": 61,
      "noteName": "C#4",
      "velocity": 0.8503937007874016,
      "duration": "48i"
    },
    {
      "time": "56496i",
      "midiNote": 54,
      "noteName": "F#3",
      "velocity": 0.7244094488188977,
      "duration": "46i"
    },
    {
      "time": "56544i",
      "midiNote": 36,
      "noteName": "C2",
      "velocity": 1,
      "duration": "94i"
    },
    {
      "time": "56544i",
      "midiNote": 33,
      "noteName": "A1",
      "velocity": 0.8503937007874016,
      "duration": "94i"
    },
    {
      "time": "56544i",
      "midiNote": 54,
      "noteName": "F#3",
      "velocity": 0.7244094488188977,
      "duration": "46i"
    },
    {
      "time": "56592i",
      "midiNote": 54,
      "noteName": "F#3",
      "velocity": 0.7244094488188977,
      "duration": "46i"
    },
    {
      "time": "56640i",
      "midiNote": 36,
      "noteName": "C2",
      "velocity": 1,
      "duration": "94i"
    },
    {
      "time": "56640i",
      "midiNote": 35,
      "noteName": "B1",
      "velocity": 0.8503937007874016,
      "duration": "94i"
    },
    {
      "time": "56640i",
      "midiNote": 62,
      "noteName": "D4",
      "velocity": 0.8503937007874016,
      "duration": "32i"
    },
    {
      "time": "56640i",
      "midiNote": 62,
      "noteName": "D4",
      "velocity": 0.8503937007874016,
      "duration": "32i"
    },
    {
      "time": "56640i",
      "midiNote": 54,
      "noteName": "F#3",
      "velocity": 0.7244094488188977,
      "duration": "46i"
    },
    {
      "time": "56640i",
      "midiNote": 39,
      "noteName": "D#2",
      "velocity": 0.8503937007874016,
      "duration": "160i"
    },
    {
      "time": "56688i",
      "midiNote": 54,
      "noteName": "F#3",
      "velocity": 0.7244094488188977,
      "duration": "46i"
    },
    {
      "time": "56736i",
      "midiNote": 36,
      "noteName": "C2",
      "velocity": 1,
      "duration": "94i"
    },
    {
      "time": "56736i",
      "midiNote": 37,
      "noteName": "C#2",
      "velocity": 0.8503937007874016,
      "duration": "94i"
    },
    {
      "time": "56736i",
      "midiNote": 63,
      "noteName": "D#4",
      "velocity": 0.8503937007874016,
      "duration": "32i"
    },
    {
      "time": "56736i",
      "midiNote": 63,
      "noteName": "D#4",
      "velocity": 0.8503937007874016,
      "duration": "32i"
    },
    {
      "time": "56736i",
      "midiNote": 54,
      "noteName": "F#3",
      "velocity": 0.7244094488188977,
      "duration": "46i"
    },
    {
      "time": "56784i",
      "midiNote": 54,
      "noteName": "F#3",
      "velocity": 0.7244094488188977,
      "duration": "46i"
    },
    {
      "time": "56832i",
      "midiNote": 36,
      "noteName": "C2",
      "velocity": 1,
      "duration": "160i"
    },
    {
      "time": "56832i",
      "midiNote": 35,
      "noteName": "B1",
      "velocity": 0.8503937007874016,
      "duration": "160i"
    },
    {
      "time": "56832i",
      "midiNote": 64,
      "noteName": "E4",
      "velocity": 0.8503937007874016,
      "duration": "48i"
    },
    {
      "time": "56832i",
      "midiNote": 64,
      "noteName": "E4",
      "velocity": 0.8503937007874016,
      "duration": "48i"
    },
    {
      "time": "56832i",
      "midiNote": 54,
      "noteName": "F#3",
      "velocity": 0.7244094488188977,
      "duration": "46i"
    },
    {
      "time": "56880i",
      "midiNote": 54,
      "noteName": "F#3",
      "velocity": 0.7244094488188977,
      "duration": "46i"
    },
    {
      "time": "56928i",
      "midiNote": 54,
      "noteName": "F#3",
      "velocity": 0.7244094488188977,
      "duration": "46i"
    },
    {
      "time": "56976i",
      "midiNote": 65,
      "noteName": "F4",
      "velocity": 0.8503937007874016,
      "duration": "48i"
    },
    {
      "time": "56976i",
      "midiNote": 65,
      "noteName": "F4",
      "velocity": 0.8503937007874016,
      "duration": "48i"
    },
    {
      "time": "56976i",
      "midiNote": 54,
      "noteName": "F#3",
      "velocity": 0.7244094488188977,
      "duration": "46i"
    },
    {
      "time": "57024i",
      "midiNote": 36,
      "noteName": "C2",
      "velocity": 1,
      "duration": "160i"
    },
    {
      "time": "57024i",
      "midiNote": 35,
      "noteName": "B1",
      "velocity": 0.8503937007874016,
      "duration": "94i"
    },
    {
      "time": "57024i",
      "midiNote": 54,
      "noteName": "F#3",
      "velocity": 0.7244094488188977,
      "duration": "46i"
    },
    {
      "time": "57024i",
      "midiNote": 39,
      "noteName": "D#2",
      "velocity": 0.8503937007874016,
      "duration": "160i"
    },
    {
      "time": "57072i",
      "midiNote": 54,
      "noteName": "F#3",
      "velocity": 0.7244094488188977,
      "duration": "46i"
    },
    {
      "time": "57120i",
      "midiNote": 33,
      "noteName": "A1",
      "velocity": 0.8503937007874016,
      "duration": "94i"
    },
    {
      "time": "57120i",
      "midiNote": 66,
      "noteName": "F#4",
      "velocity": 0.8503937007874016,
      "duration": "48i"
    },
    {
      "time": "57120i",
      "midiNote": 66,
      "noteName": "F#4",
      "velocity": 0.8503937007874016,
      "duration": "48i"
    },
    {
      "time": "57120i",
      "midiNote": 54,
      "noteName": "F#3",
      "velocity": 0.7244094488188977,
      "duration": "46i"
    },
    {
      "time": "57168i",
      "midiNote": 54,
      "noteName": "F#3",
      "velocity": 0.7244094488188977,
      "duration": "46i"
    },
    {
      "time": "57216i",
      "midiNote": 36,
      "noteName": "C2",
      "velocity": 1,
      "duration": "160i"
    },
    {
      "time": "57216i",
      "midiNote": 35,
      "noteName": "B1",
      "velocity": 0.8503937007874016,
      "duration": "160i"
    },
    {
      "time": "57216i",
      "midiNote": 54,
      "noteName": "F#3",
      "velocity": 0.7244094488188977,
      "duration": "46i"
    },
    {
      "time": "57264i",
      "midiNote": 67,
      "noteName": "G4",
      "velocity": 0.8503937007874016,
      "duration": "48i"
    },
    {
      "time": "57264i",
      "midiNote": 67,
      "noteName": "G4",
      "velocity": 0.8503937007874016,
      "duration": "48i"
    },
    {
      "time": "57264i",
      "midiNote": 54,
      "noteName": "F#3",
      "velocity": 0.7244094488188977,
      "duration": "46i"
    },
    {
      "time": "57312i",
      "midiNote": 54,
      "noteName": "F#3",
      "velocity": 0.7244094488188977,
      "duration": "46i"
    },
    {
      "time": "57360i",
      "midiNote": 54,
      "noteName": "F#3",
      "velocity": 0.7244094488188977,
      "duration": "46i"
    },
    {
      "time": "57408i",
      "midiNote": 36,
      "noteName": "C2",
      "velocity": 1,
      "duration": "160i"
    },
    {
      "time": "57408i",
      "midiNote": 35,
      "noteName": "B1",
      "velocity": 0.8503937007874016,
      "duration": "94i"
    },
    {
      "time": "57408i",
      "midiNote": 68,
      "noteName": "G#4",
      "velocity": 0.8503937007874016,
      "duration": "32i"
    },
    {
      "time": "57408i",
      "midiNote": 68,
      "noteName": "G#4",
      "velocity": 0.8503937007874016,
      "duration": "32i"
    },
    {
      "time": "57408i",
      "midiNote": 54,
      "noteName": "F#3",
      "velocity": 0.7244094488188977,
      "duration": "46i"
    },
    {
      "time": "57408i",
      "midiNote": 39,
      "noteName": "D#2",
      "velocity": 0.8503937007874016,
      "duration": "160i"
    },
    {
      "time": "57456i",
      "midiNote": 54,
      "noteName": "F#3",
      "velocity": 0.7244094488188977,
      "duration": "46i"
    },
    {
      "time": "57504i",
      "midiNote": 33,
      "noteName": "A1",
      "velocity": 0.8503937007874016,
      "duration": "94i"
    },
    {
      "time": "57504i",
      "midiNote": 69,
      "noteName": "A4",
      "velocity": 0.8503937007874016,
      "duration": "32i"
    },
    {
      "time": "57504i",
      "midiNote": 69,
      "noteName": "A4",
      "velocity": 0.8503937007874016,
      "duration": "32i"
    },
    {
      "time": "57504i",
      "midiNote": 54,
      "noteName": "F#3",
      "velocity": 0.7244094488188977,
      "duration": "46i"
    },
    {
      "time": "57552i",
      "midiNote": 54,
      "noteName": "F#3",
      "velocity": 0.7244094488188977,
      "duration": "46i"
    },
    {
      "time": "57600i",
      "midiNote": 36,
      "noteName": "C2",
      "velocity": 1,
      "duration": "160i"
    },
    {
      "time": "57600i",
      "midiNote": 35,
      "noteName": "B1",
      "velocity": 0.8503937007874016,
      "duration": "160i"
    },
    {
      "time": "57600i",
      "midiNote": 70,
      "noteName": "A#4",
      "velocity": 0.8503937007874016,
      "duration": "48i"
    },
    {
      "time": "57600i",
      "midiNote": 70,
      "noteName": "A#4",
      "velocity": 0.8503937007874016,
      "duration": "48i"
    },
    {
      "time": "57600i",
      "midiNote": 54,
      "noteName": "F#3",
      "velocity": 0.7244094488188977,
      "duration": "46i"
    },
    {
      "time": "57648i",
      "midiNote": 54,
      "noteName": "F#3",
      "velocity": 0.7244094488188977,
      "duration": "46i"
    },
    {
      "time": "57696i",
      "midiNote": 54,
      "noteName": "F#3",
      "velocity": 0.7244094488188977,
      "duration": "46i"
    },
    {
      "time": "57744i",
      "midiNote": 71,
      "noteName": "B4",
      "velocity": 0.8503937007874016,
      "duration": "48i"
    },
    {
      "time": "57744i",
      "midiNote": 71,
      "noteName": "B4",
      "velocity": 0.8503937007874016,
      "duration": "48i"
    },
    {
      "time": "57744i",
      "midiNote": 54,
      "noteName": "F#3",
      "velocity": 0.7244094488188977,
      "duration": "46i"
    },
    {
      "time": "57792i",
      "midiNote": 36,
      "noteName": "C2",
      "velocity": 1,
      "duration": "160i"
    },
    {
      "time": "57792i",
      "midiNote": 69,
      "noteName": "A4",
      "velocity": 1,
      "duration": "94i"
    },
    {
      "time": "57792i",
      "midiNote": 35,
      "noteName": "B1",
      "velocity": 0.8503937007874016,
      "duration": "94i"
    },
    {
      "time": "57792i",
      "midiNote": 54,
      "noteName": "F#3",
      "velocity": 0.7244094488188977,
      "duration": "46i"
    },
    {
      "time": "57792i",
      "midiNote": 39,
      "noteName": "D#2",
      "velocity": 0.8503937007874016,
      "duration": "160i"
    },
    {
      "time": "57840i",
      "midiNote": 54,
      "noteName": "F#3",
      "velocity": 0.7244094488188977,
      "duration": "46i"
    },
    {
      "time": "57888i",
      "midiNote": 69,
      "noteName": "A4",
      "velocity": 1,
      "duration": "94i"
    },
    {
      "time": "57888i",
      "midiNote": 33,
      "noteName": "A1",
      "velocity": 0.8503937007874016,
      "duration": "94i"
    },
    {
      "time": "57888i",
      "midiNote": 72,
      "noteName": "C5",
      "velocity": 0.8503937007874016,
      "duration": "48i"
    },
    {
      "time": "57888i",
      "midiNote": 72,
      "noteName": "C5",
      "velocity": 0.8503937007874016,
      "duration": "48i"
    },
    {
      "time": "57888i",
      "midiNote": 54,
      "noteName": "F#3",
      "velocity": 0.7244094488188977,
      "duration": "46i"
    },
    {
      "time": "57936i",
      "midiNote": 54,
      "noteName": "F#3",
      "velocity": 0.7244094488188977,
      "duration": "46i"
    },
    {
      "time": "57984i",
      "midiNote": 36,
      "noteName": "C2",
      "velocity": 1,
      "duration": "94i"
    },
    {
      "time": "57984i",
      "midiNote": 69,
      "noteName": "A4",
      "velocity": 1,
      "duration": "94i"
    },
    {
      "time": "57984i",
      "midiNote": 35,
      "noteName": "B1",
      "velocity": 0.8503937007874016,
      "duration": "94i"
    },
    {
      "time": "57984i",
      "midiNote": 54,
      "noteName": "F#3",
      "velocity": 0.7244094488188977,
      "duration": "46i"
    },
    {
      "time": "58032i",
      "midiNote": 73,
      "noteName": "C#5",
      "velocity": 0.8503937007874016,
      "duration": "48i"
    },
    {
      "time": "58032i",
      "midiNote": 73,
      "noteName": "C#5",
      "velocity": 0.8503937007874016,
      "duration": "48i"
    },
    {
      "time": "58032i",
      "midiNote": 54,
      "noteName": "F#3",
      "velocity": 0.7244094488188977,
      "duration": "46i"
    },
    {
      "time": "58080i",
      "midiNote": 36,
      "noteName": "C2",
      "velocity": 1,
      "duration": "94i"
    },
    {
      "time": "58080i",
      "midiNote": 69,
      "noteName": "A4",
      "velocity": 1,
      "duration": "94i"
    },
    {
      "time": "58080i",
      "midiNote": 33,
      "noteName": "A1",
      "velocity": 0.8503937007874016,
      "duration": "94i"
    },
    {
      "time": "58080i",
      "midiNote": 54,
      "noteName": "F#3",
      "velocity": 0.7244094488188977,
      "duration": "46i"
    },
    {
      "time": "58128i",
      "midiNote": 54,
      "noteName": "F#3",
      "velocity": 0.7244094488188977,
      "duration": "46i"
    },
    {
      "time": "58176i",
      "midiNote": 36,
      "noteName": "C2",
      "velocity": 1,
      "duration": "94i"
    },
    {
      "time": "58176i",
      "midiNote": 69,
      "noteName": "A4",
      "velocity": 1,
      "duration": "94i"
    },
    {
      "time": "58176i",
      "midiNote": 35,
      "noteName": "B1",
      "velocity": 0.8503937007874016,
      "duration": "94i"
    },
    {
      "time": "58176i",
      "midiNote": 74,
      "noteName": "D5",
      "velocity": 0.8503937007874016,
      "duration": "32i"
    },
    {
      "time": "58176i",
      "midiNote": 74,
      "noteName": "D5",
      "velocity": 0.8503937007874016,
      "duration": "32i"
    },
    {
      "time": "58176i",
      "midiNote": 54,
      "noteName": "F#3",
      "velocity": 0.7244094488188977,
      "duration": "46i"
    },
    {
      "time": "58176i",
      "midiNote": 39,
      "noteName": "D#2",
      "velocity": 0.8503937007874016,
      "duration": "160i"
    },
    {
      "time": "58224i",
      "midiNote": 54,
      "noteName": "F#3",
      "velocity": 0.7244094488188977,
      "duration": "46i"
    },
    {
      "time": "58272i",
      "midiNote": 36,
      "noteName": "C2",
      "velocity": 1,
      "duration": "94i"
    },
    {
      "time": "58272i",
      "midiNote": 69,
      "noteName": "A4",
      "velocity": 1,
      "duration": "94i"
    },
    {
      "time": "58272i",
      "midiNote": 37,
      "noteName": "C#2",
      "velocity": 0.8503937007874016,
      "duration": "94i"
    },
    {
      "time": "58272i",
      "midiNote": 75,
      "noteName": "D#5",
      "velocity": 0.8503937007874016,
      "duration": "32i"
    },
    {
      "time": "58272i",
      "midiNote": 75,
      "noteName": "D#5",
      "velocity": 0.8503937007874016,
      "duration": "32i"
    },
    {
      "time": "58272i",
      "midiNote": 54,
      "noteName": "F#3",
      "velocity": 0.7244094488188977,
      "duration": "46i"
    },
    {
      "time": "58320i",
      "midiNote": 54,
      "noteName": "F#3",
      "velocity": 0.7244094488188977,
      "duration": "46i"
    },
    {
      "time": "58368i",
      "midiNote": 36,
      "noteName": "C2",
      "velocity": 1,
      "duration": "160i"
    },
    {
      "time": "58368i",
      "midiNote": 57,
      "noteName": "A3",
      "velocity": 1,
      "duration": "160i"
    },
    {
      "time": "58368i",
      "midiNote": 35,
      "noteName": "B1",
      "velocity": 0.8503937007874016,
      "duration": "160i"
    },
    {
      "time": "58368i",
      "midiNote": 54,
      "noteName": "F#3",
      "velocity": 0.7244094488188977,
      "duration": "46i"
    },
    {
      "time": "58368i",
      "midiNote": 63,
      "noteName": "D#4",
      "velocity": 0.8503937007874016,
      "duration": "184i"
    },
    {
      "time": "58368i",
      "midiNote": 63,
      "noteName": "D#4",
      "velocity": 0.5905511811023622,
      "duration": "94i"
    },
    {
      "time": "58392i",
      "midiNote": 63,
      "noteName": "D#4",
      "velocity": 0.7244094488188977,
      "duration": "24i"
    },
    {
      "time": "58416i",
      "midiNote": 54,
      "noteName": "F#3",
      "velocity": 0.7244094488188977,
      "duration": "46i"
    },
    {
      "time": "58464i",
      "midiNote": 54,
      "noteName": "F#3",
      "velocity": 0.7244094488188977,
      "duration": "46i"
    },
    {
      "time": "58512i",
      "midiNote": 54,
      "noteName": "F#3",
      "velocity": 0.7244094488188977,
      "duration": "46i"
    },
    {
      "time": "58560i",
      "midiNote": 36,
      "noteName": "C2",
      "velocity": 1,
      "duration": "160i"
    },
    {
      "time": "58560i",
      "midiNote": 35,
      "noteName": "B1",
      "velocity": 0.8503937007874016,
      "duration": "94i"
    },
    {
      "time": "58560i",
      "midiNote": 54,
      "noteName": "F#3",
      "velocity": 0.7244094488188977,
      "duration": "46i"
    },
    {
      "time": "58560i",
      "midiNote": 39,
      "noteName": "D#2",
      "velocity": 0.8503937007874016,
      "duration": "160i"
    },
    {
      "time": "58560i",
      "midiNote": 63,
      "noteName": "D#4",
      "velocity": 0.8503937007874016,
      "duration": "184i"
    },
    {
      "time": "58560i",
      "midiNote": 63,
      "noteName": "D#4",
      "velocity": 0.5905511811023622,
      "duration": "94i"
    },
    {
      "time": "58584i",
      "midiNote": 63,
      "noteName": "D#4",
      "velocity": 0.7244094488188977,
      "duration": "24i"
    },
    {
      "time": "58608i",
      "midiNote": 54,
      "noteName": "F#3",
      "velocity": 0.7244094488188977,
      "duration": "46i"
    },
    {
      "time": "58656i",
      "midiNote": 30,
      "noteName": "F#1",
      "velocity": 0.8503937007874016,
      "duration": "94i"
    },
    {
      "time": "58656i",
      "midiNote": 54,
      "noteName": "F#3",
      "velocity": 0.7244094488188977,
      "duration": "46i"
    },
    {
      "time": "58704i",
      "midiNote": 54,
      "noteName": "F#3",
      "velocity": 0.7244094488188977,
      "duration": "46i"
    },
    {
      "time": "58752i",
      "midiNote": 36,
      "noteName": "C2",
      "velocity": 1,
      "duration": "160i"
    },
    {
      "time": "58752i",
      "midiNote": 35,
      "noteName": "B1",
      "velocity": 0.8503937007874016,
      "duration": "160i"
    },
    {
      "time": "58752i",
      "midiNote": 54,
      "noteName": "F#3",
      "velocity": 0.7244094488188977,
      "duration": "46i"
    },
    {
      "time": "58752i",
      "midiNote": 63,
      "noteName": "D#4",
      "velocity": 0.8503937007874016,
      "duration": "184i"
    },
    {
      "time": "58752i",
      "midiNote": 63,
      "noteName": "D#4",
      "velocity": 0.5905511811023622,
      "duration": "94i"
    },
    {
      "time": "58776i",
      "midiNote": 63,
      "noteName": "D#4",
      "velocity": 0.7244094488188977,
      "duration": "24i"
    },
    {
      "time": "58800i",
      "midiNote": 54,
      "noteName": "F#3",
      "velocity": 0.7244094488188977,
      "duration": "46i"
    },
    {
      "time": "58848i",
      "midiNote": 54,
      "noteName": "F#3",
      "velocity": 0.7244094488188977,
      "duration": "46i"
    },
    {
      "time": "58896i",
      "midiNote": 54,
      "noteName": "F#3",
      "velocity": 0.7244094488188977,
      "duration": "46i"
    },
    {
      "time": "58944i",
      "midiNote": 36,
      "noteName": "C2",
      "velocity": 1,
      "duration": "160i"
    },
    {
      "time": "58944i",
      "midiNote": 35,
      "noteName": "B1",
      "velocity": 0.8503937007874016,
      "duration": "94i"
    },
    {
      "time": "58944i",
      "midiNote": 54,
      "noteName": "F#3",
      "velocity": 0.7244094488188977,
      "duration": "46i"
    },
    {
      "time": "58944i",
      "midiNote": 39,
      "noteName": "D#2",
      "velocity": 0.8503937007874016,
      "duration": "160i"
    },
    {
      "time": "58944i",
      "midiNote": 63,
      "noteName": "D#4",
      "velocity": 0.8503937007874016,
      "duration": "214i"
    },
    {
      "time": "58944i",
      "midiNote": 63,
      "noteName": "D#4",
      "velocity": 0.5905511811023622,
      "duration": "94i"
    },
    {
      "time": "58968i",
      "midiNote": 63,
      "noteName": "D#4",
      "velocity": 0.7244094488188977,
      "duration": "24i"
    },
    {
      "time": "58992i",
      "midiNote": 54,
      "noteName": "F#3",
      "velocity": 0.7244094488188977,
      "duration": "46i"
    },
    {
      "time": "59040i",
      "midiNote": 30,
      "noteName": "F#1",
      "velocity": 0.8503937007874016,
      "duration": "94i"
    },
    {
      "time": "59040i",
      "midiNote": 54,
      "noteName": "F#3",
      "velocity": 0.7244094488188977,
      "duration": "46i"
    },
    {
      "time": "59088i",
      "midiNote": 54,
      "noteName": "F#3",
      "velocity": 0.7244094488188977,
      "duration": "46i"
    },
    {
      "time": "59136i",
      "midiNote": 36,
      "noteName": "C2",
      "velocity": 1,
      "duration": "160i"
    },
    {
      "time": "59136i",
      "midiNote": 35,
      "noteName": "B1",
      "velocity": 0.8503937007874016,
      "duration": "160i"
    },
    {
      "time": "59136i",
      "midiNote": 54,
      "noteName": "F#3",
      "velocity": 0.7244094488188977,
      "duration": "46i"
    },
    {
      "time": "59136i",
      "midiNote": 66,
      "noteName": "F#4",
      "velocity": 0.8503937007874016,
      "duration": "184i"
    },
    {
      "time": "59136i",
      "midiNote": 66,
      "noteName": "F#4",
      "velocity": 0.5905511811023622,
      "duration": "94i"
    },
    {
      "time": "59160i",
      "midiNote": 66,
      "noteName": "F#4",
      "velocity": 0.7244094488188977,
      "duration": "24i"
    },
    {
      "time": "59184i",
      "midiNote": 54,
      "noteName": "F#3",
      "velocity": 0.7244094488188977,
      "duration": "46i"
    },
    {
      "time": "59232i",
      "midiNote": 54,
      "noteName": "F#3",
      "velocity": 0.7244094488188977,
      "duration": "46i"
    },
    {
      "time": "59280i",
      "midiNote": 54,
      "noteName": "F#3",
      "velocity": 0.7244094488188977,
      "duration": "46i"
    },
    {
      "time": "59328i",
      "midiNote": 36,
      "noteName": "C2",
      "velocity": 1,
      "duration": "160i"
    },
    {
      "time": "59328i",
      "midiNote": 35,
      "noteName": "B1",
      "velocity": 0.8503937007874016,
      "duration": "94i"
    },
    {
      "time": "59328i",
      "midiNote": 54,
      "noteName": "F#3",
      "velocity": 0.7244094488188977,
      "duration": "46i"
    },
    {
      "time": "59328i",
      "midiNote": 39,
      "noteName": "D#2",
      "velocity": 0.8503937007874016,
      "duration": "160i"
    },
    {
      "time": "59328i",
      "midiNote": 66,
      "noteName": "F#4",
      "velocity": 0.8503937007874016,
      "duration": "184i"
    },
    {
      "time": "59328i",
      "midiNote": 66,
      "noteName": "F#4",
      "velocity": 0.5905511811023622,
      "duration": "94i"
    },
    {
      "time": "59352i",
      "midiNote": 66,
      "noteName": "F#4",
      "velocity": 0.7244094488188977,
      "duration": "24i"
    },
    {
      "time": "59376i",
      "midiNote": 54,
      "noteName": "F#3",
      "velocity": 0.7244094488188977,
      "duration": "46i"
    },
    {
      "time": "59424i",
      "midiNote": 30,
      "noteName": "F#1",
      "velocity": 0.8503937007874016,
      "duration": "94i"
    },
    {
      "time": "59424i",
      "midiNote": 54,
      "noteName": "F#3",
      "velocity": 0.7244094488188977,
      "duration": "46i"
    },
    {
      "time": "59472i",
      "midiNote": 54,
      "noteName": "F#3",
      "velocity": 0.7244094488188977,
      "duration": "46i"
    },
    {
      "time": "59520i",
      "midiNote": 36,
      "noteName": "C2",
      "velocity": 1,
      "duration": "160i"
    },
    {
      "time": "59520i",
      "midiNote": 35,
      "noteName": "B1",
      "velocity": 0.8503937007874016,
      "duration": "160i"
    },
    {
      "time": "59520i",
      "midiNote": 54,
      "noteName": "F#3",
      "velocity": 0.7244094488188977,
      "duration": "46i"
    },
    {
      "time": "59520i",
      "midiNote": 66,
      "noteName": "F#4",
      "velocity": 0.8503937007874016,
      "duration": "184i"
    },
    {
      "time": "59520i",
      "midiNote": 66,
      "noteName": "F#4",
      "velocity": 0.5905511811023622,
      "duration": "94i"
    },
    {
      "time": "59544i",
      "midiNote": 66,
      "noteName": "F#4",
      "velocity": 0.7244094488188977,
      "duration": "24i"
    },
    {
      "time": "59568i",
      "midiNote": 54,
      "noteName": "F#3",
      "velocity": 0.7244094488188977,
      "duration": "46i"
    },
    {
      "time": "59616i",
      "midiNote": 54,
      "noteName": "F#3",
      "velocity": 0.7244094488188977,
      "duration": "46i"
    },
    {
      "time": "59664i",
      "midiNote": 54,
      "noteName": "F#3",
      "velocity": 0.7244094488188977,
      "duration": "46i"
    },
    {
      "time": "59712i",
      "midiNote": 36,
      "noteName": "C2",
      "velocity": 1,
      "duration": "160i"
    },
    {
      "time": "59712i",
      "midiNote": 35,
      "noteName": "B1",
      "velocity": 0.8503937007874016,
      "duration": "94i"
    },
    {
      "time": "59712i",
      "midiNote": 54,
      "noteName": "F#3",
      "velocity": 0.7244094488188977,
      "duration": "46i"
    },
    {
      "time": "59712i",
      "midiNote": 39,
      "noteName": "D#2",
      "velocity": 0.8503937007874016,
      "duration": "160i"
    },
    {
      "time": "59712i",
      "midiNote": 66,
      "noteName": "F#4",
      "velocity": 0.8503937007874016,
      "duration": "214i"
    },
    {
      "time": "59712i",
      "midiNote": 66,
      "noteName": "F#4",
      "velocity": 0.5905511811023622,
      "duration": "94i"
    },
    {
      "time": "59736i",
      "midiNote": 66,
      "noteName": "F#4",
      "velocity": 0.7244094488188977,
      "duration": "24i"
    },
    {
      "time": "59760i",
      "midiNote": 54,
      "noteName": "F#3",
      "velocity": 0.7244094488188977,
      "duration": "46i"
    },
    {
      "time": "59808i",
      "midiNote": 30,
      "noteName": "F#1",
      "velocity": 0.8503937007874016,
      "duration": "94i"
    },
    {
      "time": "59808i",
      "midiNote": 54,
      "noteName": "F#3",
      "velocity": 0.7244094488188977,
      "duration": "46i"
    },
    {
      "time": "59856i",
      "midiNote": 54,
      "noteName": "F#3",
      "velocity": 0.7244094488188977,
      "duration": "46i"
    },
    {
      "time": "59904i",
      "midiNote": 36,
      "noteName": "C2",
      "velocity": 1,
      "duration": "160i"
    },
    {
      "time": "59904i",
      "midiNote": 35,
      "noteName": "B1",
      "velocity": 0.8503937007874016,
      "duration": "160i"
    },
    {
      "time": "59904i",
      "midiNote": 54,
      "noteName": "F#3",
      "velocity": 0.7244094488188977,
      "duration": "46i"
    },
    {
      "time": "59904i",
      "midiNote": 65,
      "noteName": "F4",
      "velocity": 0.8503937007874016,
      "duration": "184i"
    },
    {
      "time": "59904i",
      "midiNote": 65,
      "noteName": "F4",
      "velocity": 0.5905511811023622,
      "duration": "94i"
    },
    {
      "time": "59928i",
      "midiNote": 65,
      "noteName": "F4",
      "velocity": 0.7244094488188977,
      "duration": "24i"
    },
    {
      "time": "59952i",
      "midiNote": 54,
      "noteName": "F#3",
      "velocity": 0.7244094488188977,
      "duration": "46i"
    },
    {
      "time": "60000i",
      "midiNote": 54,
      "noteName": "F#3",
      "velocity": 0.7244094488188977,
      "duration": "46i"
    },
    {
      "time": "60048i",
      "midiNote": 54,
      "noteName": "F#3",
      "velocity": 0.7244094488188977,
      "duration": "46i"
    },
    {
      "time": "60096i",
      "midiNote": 36,
      "noteName": "C2",
      "velocity": 1,
      "duration": "160i"
    },
    {
      "time": "60096i",
      "midiNote": 35,
      "noteName": "B1",
      "velocity": 0.8503937007874016,
      "duration": "94i"
    },
    {
      "time": "60096i",
      "midiNote": 54,
      "noteName": "F#3",
      "velocity": 0.7244094488188977,
      "duration": "46i"
    },
    {
      "time": "60096i",
      "midiNote": 39,
      "noteName": "D#2",
      "velocity": 0.8503937007874016,
      "duration": "160i"
    },
    {
      "time": "60096i",
      "midiNote": 65,
      "noteName": "F4",
      "velocity": 0.8503937007874016,
      "duration": "184i"
    },
    {
      "time": "60096i",
      "midiNote": 65,
      "noteName": "F4",
      "velocity": 0.5905511811023622,
      "duration": "94i"
    },
    {
      "time": "60120i",
      "midiNote": 65,
      "noteName": "F4",
      "velocity": 0.7244094488188977,
      "duration": "24i"
    },
    {
      "time": "60144i",
      "midiNote": 54,
      "noteName": "F#3",
      "velocity": 0.7244094488188977,
      "duration": "46i"
    },
    {
      "time": "60192i",
      "midiNote": 30,
      "noteName": "F#1",
      "velocity": 0.8503937007874016,
      "duration": "94i"
    },
    {
      "time": "60192i",
      "midiNote": 54,
      "noteName": "F#3",
      "velocity": 0.7244094488188977,
      "duration": "46i"
    },
    {
      "time": "60240i",
      "midiNote": 54,
      "noteName": "F#3",
      "velocity": 0.7244094488188977,
      "duration": "46i"
    },
    {
      "time": "60288i",
      "midiNote": 36,
      "noteName": "C2",
      "velocity": 1,
      "duration": "160i"
    },
    {
      "time": "60288i",
      "midiNote": 35,
      "noteName": "B1",
      "velocity": 0.8503937007874016,
      "duration": "160i"
    },
    {
      "time": "60288i",
      "midiNote": 54,
      "noteName": "F#3",
      "velocity": 0.7244094488188977,
      "duration": "46i"
    },
    {
      "time": "60288i",
      "midiNote": 65,
      "noteName": "F4",
      "velocity": 0.8503937007874016,
      "duration": "184i"
    },
    {
      "time": "60288i",
      "midiNote": 65,
      "noteName": "F4",
      "velocity": 0.5905511811023622,
      "duration": "94i"
    },
    {
      "time": "60312i",
      "midiNote": 65,
      "noteName": "F4",
      "velocity": 0.7244094488188977,
      "duration": "24i"
    },
    {
      "time": "60336i",
      "midiNote": 54,
      "noteName": "F#3",
      "velocity": 0.7244094488188977,
      "duration": "46i"
    },
    {
      "time": "60384i",
      "midiNote": 54,
      "noteName": "F#3",
      "velocity": 0.7244094488188977,
      "duration": "46i"
    },
    {
      "time": "60432i",
      "midiNote": 54,
      "noteName": "F#3",
      "velocity": 0.7244094488188977,
      "duration": "46i"
    },
    {
      "time": "60480i",
      "midiNote": 36,
      "noteName": "C2",
      "velocity": 1,
      "duration": "160i"
    },
    {
      "time": "60480i",
      "midiNote": 35,
      "noteName": "B1",
      "velocity": 0.8503937007874016,
      "duration": "94i"
    },
    {
      "time": "60480i",
      "midiNote": 54,
      "noteName": "F#3",
      "velocity": 0.7244094488188977,
      "duration": "46i"
    },
    {
      "time": "60480i",
      "midiNote": 39,
      "noteName": "D#2",
      "velocity": 0.8503937007874016,
      "duration": "160i"
    },
    {
      "time": "60480i",
      "midiNote": 65,
      "noteName": "F4",
      "velocity": 0.8503937007874016,
      "duration": "310i"
    },
    {
      "time": "60480i",
      "midiNote": 65,
      "noteName": "F4",
      "velocity": 0.5905511811023622,
      "duration": "94i"
    },
    {
      "time": "60504i",
      "midiNote": 65,
      "noteName": "F4",
      "velocity": 0.7244094488188977,
      "duration": "24i"
    },
    {
      "time": "60528i",
      "midiNote": 54,
      "noteName": "F#3",
      "velocity": 0.7244094488188977,
      "duration": "46i"
    },
    {
      "time": "60576i",
      "midiNote": 30,
      "noteName": "F#1",
      "velocity": 0.8503937007874016,
      "duration": "94i"
    },
    {
      "time": "60576i",
      "midiNote": 54,
      "noteName": "F#3",
      "velocity": 0.7244094488188977,
      "duration": "46i"
    },
    {
      "time": "60624i",
      "midiNote": 54,
      "noteName": "F#3",
      "velocity": 0.7244094488188977,
      "duration": "46i"
    },
    {
      "time": "60672i",
      "midiNote": 36,
      "noteName": "C2",
      "velocity": 1,
      "duration": "160i"
    },
    {
      "time": "60672i",
      "midiNote": 35,
      "noteName": "B1",
      "velocity": 0.8503937007874016,
      "duration": "160i"
    },
    {
      "time": "60672i",
      "midiNote": 54,
      "noteName": "F#3",
      "velocity": 0.7244094488188977,
      "duration": "46i"
    },
    {
      "time": "60672i",
      "midiNote": 65,
      "noteName": "F4",
      "velocity": 0.8503937007874016,
      "duration": "94i"
    },
    {
      "time": "60672i",
      "midiNote": 65,
      "noteName": "F4",
      "velocity": 0.5905511811023622,
      "duration": "22i"
    },
    {
      "time": "60696i",
      "midiNote": 65,
      "noteName": "F4",
      "velocity": 0.7244094488188977,
      "duration": "8i"
    },
    {
      "time": "60720i",
      "midiNote": 54,
      "noteName": "F#3",
      "velocity": 0.7244094488188977,
      "duration": "46i"
    },
    {
      "time": "60768i",
      "midiNote": 54,
      "noteName": "F#3",
      "velocity": 0.7244094488188977,
      "duration": "46i"
    },
    {
      "time": "60768i",
      "midiNote": 68,
      "noteName": "G#4",
      "velocity": 0.8503937007874016,
      "duration": "56i"
    },
    {
      "time": "60792i",
      "midiNote": 68,
      "noteName": "G#4",
      "velocity": 0.7244094488188977,
      "duration": "8i"
    },
    {
      "time": "60816i",
      "midiNote": 54,
      "noteName": "F#3",
      "velocity": 0.7244094488188977,
      "duration": "46i"
    },
    {
      "time": "60864i",
      "midiNote": 36,
      "noteName": "C2",
      "velocity": 1,
      "duration": "160i"
    },
    {
      "time": "60864i",
      "midiNote": 35,
      "noteName": "B1",
      "velocity": 0.8503937007874016,
      "duration": "94i"
    },
    {
      "time": "60864i",
      "midiNote": 54,
      "noteName": "F#3",
      "velocity": 0.7244094488188977,
      "duration": "46i"
    },
    {
      "time": "60864i",
      "midiNote": 39,
      "noteName": "D#2",
      "velocity": 0.8503937007874016,
      "duration": "160i"
    },
    {
      "time": "60864i",
      "midiNote": 68,
      "noteName": "G#4",
      "velocity": 0.8503937007874016,
      "duration": "184i"
    },
    {
      "time": "60864i",
      "midiNote": 68,
      "noteName": "G#4",
      "velocity": 0.5905511811023622,
      "duration": "94i"
    },
    {
      "time": "60888i",
      "midiNote": 68,
      "noteName": "G#4",
      "velocity": 0.7244094488188977,
      "duration": "24i"
    },
    {
      "time": "60912i",
      "midiNote": 54,
      "noteName": "F#3",
      "velocity": 0.7244094488188977,
      "duration": "46i"
    },
    {
      "time": "60960i",
      "midiNote": 30,
      "noteName": "F#1",
      "velocity": 0.8503937007874016,
      "duration": "94i"
    },
    {
      "time": "60960i",
      "midiNote": 54,
      "noteName": "F#3",
      "velocity": 0.7244094488188977,
      "duration": "46i"
    },
    {
      "time": "61008i",
      "midiNote": 54,
      "noteName": "F#3",
      "velocity": 0.7244094488188977,
      "duration": "46i"
    },
    {
      "time": "61056i",
      "midiNote": 36,
      "noteName": "C2",
      "velocity": 1,
      "duration": "160i"
    },
    {
      "time": "61056i",
      "midiNote": 35,
      "noteName": "B1",
      "velocity": 0.8503937007874016,
      "duration": "160i"
    },
    {
      "time": "61056i",
      "midiNote": 54,
      "noteName": "F#3",
      "velocity": 0.7244094488188977,
      "duration": "46i"
    },
    {
      "time": "61056i",
      "midiNote": 68,
      "noteName": "G#4",
      "velocity": 0.8503937007874016,
      "duration": "184i"
    },
    {
      "time": "61056i",
      "midiNote": 68,
      "noteName": "G#4",
      "velocity": 0.5905511811023622,
      "duration": "94i"
    },
    {
      "time": "61080i",
      "midiNote": 68,
      "noteName": "G#4",
      "velocity": 0.7244094488188977,
      "duration": "24i"
    },
    {
      "time": "61104i",
      "midiNote": 54,
      "noteName": "F#3",
      "velocity": 0.7244094488188977,
      "duration": "46i"
    },
    {
      "time": "61152i",
      "midiNote": 54,
      "noteName": "F#3",
      "velocity": 0.7244094488188977,
      "duration": "46i"
    },
    {
      "time": "61200i",
      "midiNote": 54,
      "noteName": "F#3",
      "velocity": 0.7244094488188977,
      "duration": "46i"
    },
    {
      "time": "61248i",
      "midiNote": 36,
      "noteName": "C2",
      "velocity": 1,
      "duration": "160i"
    },
    {
      "time": "61248i",
      "midiNote": 35,
      "noteName": "B1",
      "velocity": 0.8503937007874016,
      "duration": "94i"
    },
    {
      "time": "61248i",
      "midiNote": 54,
      "noteName": "F#3",
      "velocity": 0.7244094488188977,
      "duration": "46i"
    },
    {
      "time": "61248i",
      "midiNote": 39,
      "noteName": "D#2",
      "velocity": 0.8503937007874016,
      "duration": "160i"
    },
    {
      "time": "61248i",
      "midiNote": 68,
      "noteName": "G#4",
      "velocity": 0.8503937007874016,
      "duration": "214i"
    },
    {
      "time": "61248i",
      "midiNote": 68,
      "noteName": "G#4",
      "velocity": 0.5905511811023622,
      "duration": "94i"
    },
    {
      "time": "61272i",
      "midiNote": 68,
      "noteName": "G#4",
      "velocity": 0.7244094488188977,
      "duration": "24i"
    },
    {
      "time": "61296i",
      "midiNote": 54,
      "noteName": "F#3",
      "velocity": 0.7244094488188977,
      "duration": "46i"
    },
    {
      "time": "61344i",
      "midiNote": 30,
      "noteName": "F#1",
      "velocity": 0.8503937007874016,
      "duration": "94i"
    },
    {
      "time": "61344i",
      "midiNote": 54,
      "noteName": "F#3",
      "velocity": 0.7244094488188977,
      "duration": "46i"
    },
    {
      "time": "61392i",
      "midiNote": 54,
      "noteName": "F#3",
      "velocity": 0.7244094488188977,
      "duration": "46i"
    },
    {
      "time": "61440i",
      "midiNote": 36,
      "noteName": "C2",
      "velocity": 1,
      "duration": "160i"
    },
    {
      "time": "61440i",
      "midiNote": 35,
      "noteName": "B1",
      "velocity": 0.8503937007874016,
      "duration": "160i"
    },
    {
      "time": "61440i",
      "midiNote": 54,
      "noteName": "F#3",
      "velocity": 0.7244094488188977,
      "duration": "46i"
    },
    {
      "time": "61440i",
      "midiNote": 63,
      "noteName": "D#4",
      "velocity": 0.8503937007874016,
      "duration": "184i"
    },
    {
      "time": "61440i",
      "midiNote": 63,
      "noteName": "D#4",
      "velocity": 0.5905511811023622,
      "duration": "94i"
    },
    {
      "time": "61464i",
      "midiNote": 63,
      "noteName": "D#4",
      "velocity": 0.7244094488188977,
      "duration": "24i"
    },
    {
      "time": "61488i",
      "midiNote": 54,
      "noteName": "F#3",
      "velocity": 0.7244094488188977,
      "duration": "46i"
    },
    {
      "time": "61536i",
      "midiNote": 54,
      "noteName": "F#3",
      "velocity": 0.7244094488188977,
      "duration": "46i"
    },
    {
      "time": "61584i",
      "midiNote": 54,
      "noteName": "F#3",
      "velocity": 0.7244094488188977,
      "duration": "46i"
    },
    {
      "time": "61632i",
      "midiNote": 36,
      "noteName": "C2",
      "velocity": 1,
      "duration": "160i"
    },
    {
      "time": "61632i",
      "midiNote": 35,
      "noteName": "B1",
      "velocity": 0.8503937007874016,
      "duration": "94i"
    },
    {
      "time": "61632i",
      "midiNote": 54,
      "noteName": "F#3",
      "velocity": 0.7244094488188977,
      "duration": "46i"
    },
    {
      "time": "61632i",
      "midiNote": 39,
      "noteName": "D#2",
      "velocity": 0.8503937007874016,
      "duration": "160i"
    },
    {
      "time": "61632i",
      "midiNote": 63,
      "noteName": "D#4",
      "velocity": 0.8503937007874016,
      "duration": "184i"
    },
    {
      "time": "61632i",
      "midiNote": 63,
      "noteName": "D#4",
      "velocity": 0.5905511811023622,
      "duration": "94i"
    },
    {
      "time": "61656i",
      "midiNote": 63,
      "noteName": "D#4",
      "velocity": 0.7244094488188977,
      "duration": "24i"
    },
    {
      "time": "61680i",
      "midiNote": 54,
      "noteName": "F#3",
      "velocity": 0.7244094488188977,
      "duration": "46i"
    },
    {
      "time": "61728i",
      "midiNote": 30,
      "noteName": "F#1",
      "velocity": 0.8503937007874016,
      "duration": "94i"
    },
    {
      "time": "61728i",
      "midiNote": 54,
      "noteName": "F#3",
      "velocity": 0.7244094488188977,
      "duration": "46i"
    },
    {
      "time": "61776i",
      "midiNote": 54,
      "noteName": "F#3",
      "velocity": 0.7244094488188977,
      "duration": "46i"
    },
    {
      "time": "61824i",
      "midiNote": 36,
      "noteName": "C2",
      "velocity": 1,
      "duration": "160i"
    },
    {
      "time": "61824i",
      "midiNote": 35,
      "noteName": "B1",
      "velocity": 0.8503937007874016,
      "duration": "160i"
    },
    {
      "time": "61824i",
      "midiNote": 54,
      "noteName": "F#3",
      "velocity": 0.7244094488188977,
      "duration": "46i"
    },
    {
      "time": "61824i",
      "midiNote": 63,
      "noteName": "D#4",
      "velocity": 0.8503937007874016,
      "duration": "184i"
    },
    {
      "time": "61824i",
      "midiNote": 63,
      "noteName": "D#4",
      "velocity": 0.5905511811023622,
      "duration": "94i"
    },
    {
      "time": "61848i",
      "midiNote": 63,
      "noteName": "D#4",
      "velocity": 0.7244094488188977,
      "duration": "24i"
    },
    {
      "time": "61872i",
      "midiNote": 54,
      "noteName": "F#3",
      "velocity": 0.7244094488188977,
      "duration": "46i"
    },
    {
      "time": "61920i",
      "midiNote": 54,
      "noteName": "F#3",
      "velocity": 0.7244094488188977,
      "duration": "46i"
    },
    {
      "time": "61968i",
      "midiNote": 54,
      "noteName": "F#3",
      "velocity": 0.7244094488188977,
      "duration": "46i"
    },
    {
      "time": "62016i",
      "midiNote": 63,
      "noteName": "D#4",
      "velocity": 0.8503937007874016,
      "duration": "214i"
    },
    {
      "time": "62016i",
      "midiNote": 39,
      "noteName": "D#2",
      "velocity": 0.8503937007874016,
      "duration": "160i"
    },
    {
      "time": "62016i",
      "midiNote": 54,
      "noteName": "F#3",
      "velocity": 0.7244094488188977,
      "duration": "46i"
    },
    {
      "time": "62016i",
      "midiNote": 35,
      "noteName": "B1",
      "velocity": 0.8503937007874016,
      "duration": "94i"
    },
    {
      "time": "62016i",
      "midiNote": 36,
      "noteName": "C2",
      "velocity": 1,
      "duration": "160i"
    },
    {
      "time": "62016i",
      "midiNote": 63,
      "noteName": "D#4",
      "velocity": 0.5905511811023622,
      "duration": "94i"
    },
    {
      "time": "62040i",
      "midiNote": 63,
      "noteName": "D#4",
      "velocity": 0.7244094488188977,
      "duration": "24i"
    },
    {
      "time": "62064i",
      "midiNote": 54,
      "noteName": "F#3",
      "velocity": 0.7244094488188977,
      "duration": "46i"
    },
    {
      "time": "62112i",
      "midiNote": 30,
      "noteName": "F#1",
      "velocity": 0.8503937007874016,
      "duration": "94i"
    },
    {
      "time": "62112i",
      "midiNote": 54,
      "noteName": "F#3",
      "velocity": 0.7244094488188977,
      "duration": "46i"
    },
    {
      "time": "62160i",
      "midiNote": 54,
      "noteName": "F#3",
      "velocity": 0.7244094488188977,
      "duration": "46i"
    },
    {
      "time": "62208i",
      "midiNote": 36,
      "noteName": "C2",
      "velocity": 1,
      "duration": "160i"
    },
    {
      "time": "62208i",
      "midiNote": 35,
      "noteName": "B1",
      "velocity": 0.8503937007874016,
      "duration": "160i"
    },
    {
      "time": "62208i",
      "midiNote": 54,
      "noteName": "F#3",
      "velocity": 0.7244094488188977,
      "duration": "46i"
    },
    {
      "time": "62208i",
      "midiNote": 66,
      "noteName": "F#4",
      "velocity": 0.8503937007874016,
      "duration": "184i"
    },
    {
      "time": "62208i",
      "midiNote": 66,
      "noteName": "F#4",
      "velocity": 0.5905511811023622,
      "duration": "94i"
    },
    {
      "time": "62232i",
      "midiNote": 66,
      "noteName": "F#4",
      "velocity": 0.7244094488188977,
      "duration": "24i"
    },
    {
      "time": "62256i",
      "midiNote": 54,
      "noteName": "F#3",
      "velocity": 0.7244094488188977,
      "duration": "46i"
    },
    {
      "time": "62304i",
      "midiNote": 54,
      "noteName": "F#3",
      "velocity": 0.7244094488188977,
      "duration": "46i"
    },
    {
      "time": "62352i",
      "midiNote": 54,
      "noteName": "F#3",
      "velocity": 0.7244094488188977,
      "duration": "46i"
    },
    {
      "time": "62400i",
      "midiNote": 36,
      "noteName": "C2",
      "velocity": 1,
      "duration": "160i"
    },
    {
      "time": "62400i",
      "midiNote": 35,
      "noteName": "B1",
      "velocity": 0.8503937007874016,
      "duration": "94i"
    },
    {
      "time": "62400i",
      "midiNote": 54,
      "noteName": "F#3",
      "velocity": 0.7244094488188977,
      "duration": "46i"
    },
    {
      "time": "62400i",
      "midiNote": 39,
      "noteName": "D#2",
      "velocity": 0.8503937007874016,
      "duration": "160i"
    },
    {
      "time": "62400i",
      "midiNote": 66,
      "noteName": "F#4",
      "velocity": 0.8503937007874016,
      "duration": "184i"
    },
    {
      "time": "62400i",
      "midiNote": 66,
      "noteName": "F#4",
      "velocity": 0.5905511811023622,
      "duration": "94i"
    },
    {
      "time": "62424i",
      "midiNote": 66,
      "noteName": "F#4",
      "velocity": 0.7244094488188977,
      "duration": "24i"
    },
    {
      "time": "62448i",
      "midiNote": 54,
      "noteName": "F#3",
      "velocity": 0.7244094488188977,
      "duration": "46i"
    },
    {
      "time": "62496i",
      "midiNote": 30,
      "noteName": "F#1",
      "velocity": 0.8503937007874016,
      "duration": "94i"
    },
    {
      "time": "62496i",
      "midiNote": 54,
      "noteName": "F#3",
      "velocity": 0.7244094488188977,
      "duration": "46i"
    },
    {
      "time": "62544i",
      "midiNote": 54,
      "noteName": "F#3",
      "velocity": 0.7244094488188977,
      "duration": "46i"
    },
    {
      "time": "62592i",
      "midiNote": 36,
      "noteName": "C2",
      "velocity": 1,
      "duration": "160i"
    },
    {
      "time": "62592i",
      "midiNote": 35,
      "noteName": "B1",
      "velocity": 0.8503937007874016,
      "duration": "160i"
    },
    {
      "time": "62592i",
      "midiNote": 54,
      "noteName": "F#3",
      "velocity": 0.7244094488188977,
      "duration": "46i"
    },
    {
      "time": "62592i",
      "midiNote": 66,
      "noteName": "F#4",
      "velocity": 0.8503937007874016,
      "duration": "184i"
    },
    {
      "time": "62592i",
      "midiNote": 66,
      "noteName": "F#4",
      "velocity": 0.5905511811023622,
      "duration": "94i"
    },
    {
      "time": "62616i",
      "midiNote": 66,
      "noteName": "F#4",
      "velocity": 0.7244094488188977,
      "duration": "24i"
    },
    {
      "time": "62640i",
      "midiNote": 54,
      "noteName": "F#3",
      "velocity": 0.7244094488188977,
      "duration": "46i"
    },
    {
      "time": "62688i",
      "midiNote": 54,
      "noteName": "F#3",
      "velocity": 0.7244094488188977,
      "duration": "46i"
    },
    {
      "time": "62736i",
      "midiNote": 54,
      "noteName": "F#3",
      "velocity": 0.7244094488188977,
      "duration": "46i"
    },
    {
      "time": "62784i",
      "midiNote": 36,
      "noteName": "C2",
      "velocity": 1,
      "duration": "160i"
    },
    {
      "time": "62784i",
      "midiNote": 35,
      "noteName": "B1",
      "velocity": 0.8503937007874016,
      "duration": "94i"
    },
    {
      "time": "62784i",
      "midiNote": 54,
      "noteName": "F#3",
      "velocity": 0.7244094488188977,
      "duration": "46i"
    },
    {
      "time": "62784i",
      "midiNote": 39,
      "noteName": "D#2",
      "velocity": 0.8503937007874016,
      "duration": "160i"
    },
    {
      "time": "62784i",
      "midiNote": 66,
      "noteName": "F#4",
      "velocity": 0.8503937007874016,
      "duration": "214i"
    },
    {
      "time": "62784i",
      "midiNote": 66,
      "noteName": "F#4",
      "velocity": 0.5905511811023622,
      "duration": "94i"
    },
    {
      "time": "62808i",
      "midiNote": 66,
      "noteName": "F#4",
      "velocity": 0.7244094488188977,
      "duration": "24i"
    },
    {
      "time": "62832i",
      "midiNote": 54,
      "noteName": "F#3",
      "velocity": 0.7244094488188977,
      "duration": "46i"
    },
    {
      "time": "62880i",
      "midiNote": 30,
      "noteName": "F#1",
      "velocity": 0.8503937007874016,
      "duration": "94i"
    },
    {
      "time": "62880i",
      "midiNote": 54,
      "noteName": "F#3",
      "velocity": 0.7244094488188977,
      "duration": "46i"
    },
    {
      "time": "62928i",
      "midiNote": 54,
      "noteName": "F#3",
      "velocity": 0.7244094488188977,
      "duration": "46i"
    },
    {
      "time": "62976i",
      "midiNote": 36,
      "noteName": "C2",
      "velocity": 1,
      "duration": "160i"
    },
    {
      "time": "62976i",
      "midiNote": 35,
      "noteName": "B1",
      "velocity": 0.8503937007874016,
      "duration": "160i"
    },
    {
      "time": "62976i",
      "midiNote": 54,
      "noteName": "F#3",
      "velocity": 0.7244094488188977,
      "duration": "46i"
    },
    {
      "time": "62976i",
      "midiNote": 65,
      "noteName": "F4",
      "velocity": 0.8503937007874016,
      "duration": "184i"
    },
    {
      "time": "62976i",
      "midiNote": 65,
      "noteName": "F4",
      "velocity": 0.5905511811023622,
      "duration": "94i"
    },
    {
      "time": "63000i",
      "midiNote": 65,
      "noteName": "F4",
      "velocity": 0.7244094488188977,
      "duration": "24i"
    },
    {
      "time": "63024i",
      "midiNote": 54,
      "noteName": "F#3",
      "velocity": 0.7244094488188977,
      "duration": "46i"
    },
    {
      "time": "63072i",
      "midiNote": 54,
      "noteName": "F#3",
      "velocity": 0.7244094488188977,
      "duration": "46i"
    },
    {
      "time": "63120i",
      "midiNote": 54,
      "noteName": "F#3",
      "velocity": 0.7244094488188977,
      "duration": "46i"
    },
    {
      "time": "63168i",
      "midiNote": 36,
      "noteName": "C2",
      "velocity": 1,
      "duration": "160i"
    },
    {
      "time": "63168i",
      "midiNote": 35,
      "noteName": "B1",
      "velocity": 0.8503937007874016,
      "duration": "94i"
    },
    {
      "time": "63168i",
      "midiNote": 54,
      "noteName": "F#3",
      "velocity": 0.7244094488188977,
      "duration": "46i"
    },
    {
      "time": "63168i",
      "midiNote": 39,
      "noteName": "D#2",
      "velocity": 0.8503937007874016,
      "duration": "160i"
    },
    {
      "time": "63168i",
      "midiNote": 65,
      "noteName": "F4",
      "velocity": 0.8503937007874016,
      "duration": "184i"
    },
    {
      "time": "63168i",
      "midiNote": 65,
      "noteName": "F4",
      "velocity": 0.5905511811023622,
      "duration": "94i"
    },
    {
      "time": "63192i",
      "midiNote": 65,
      "noteName": "F4",
      "velocity": 0.7244094488188977,
      "duration": "24i"
    },
    {
      "time": "63216i",
      "midiNote": 54,
      "noteName": "F#3",
      "velocity": 0.7244094488188977,
      "duration": "46i"
    },
    {
      "time": "63264i",
      "midiNote": 30,
      "noteName": "F#1",
      "velocity": 0.8503937007874016,
      "duration": "94i"
    },
    {
      "time": "63264i",
      "midiNote": 54,
      "noteName": "F#3",
      "velocity": 0.7244094488188977,
      "duration": "46i"
    },
    {
      "time": "63312i",
      "midiNote": 54,
      "noteName": "F#3",
      "velocity": 0.7244094488188977,
      "duration": "46i"
    },
    {
      "time": "63360i",
      "midiNote": 36,
      "noteName": "C2",
      "velocity": 1,
      "duration": "160i"
    },
    {
      "time": "63360i",
      "midiNote": 35,
      "noteName": "B1",
      "velocity": 0.8503937007874016,
      "duration": "160i"
    },
    {
      "time": "63360i",
      "midiNote": 54,
      "noteName": "F#3",
      "velocity": 0.7244094488188977,
      "duration": "46i"
    },
    {
      "time": "63360i",
      "midiNote": 65,
      "noteName": "F4",
      "velocity": 0.8503937007874016,
      "duration": "184i"
    },
    {
      "time": "63360i",
      "midiNote": 65,
      "noteName": "F4",
      "velocity": 0.5905511811023622,
      "duration": "94i"
    },
    {
      "time": "63384i",
      "midiNote": 65,
      "noteName": "F4",
      "velocity": 0.7244094488188977,
      "duration": "24i"
    },
    {
      "time": "63408i",
      "midiNote": 54,
      "noteName": "F#3",
      "velocity": 0.7244094488188977,
      "duration": "46i"
    },
    {
      "time": "63456i",
      "midiNote": 54,
      "noteName": "F#3",
      "velocity": 0.7244094488188977,
      "duration": "46i"
    },
    {
      "time": "63504i",
      "midiNote": 54,
      "noteName": "F#3",
      "velocity": 0.7244094488188977,
      "duration": "46i"
    },
    {
      "time": "63552i",
      "midiNote": 36,
      "noteName": "C2",
      "velocity": 1,
      "duration": "160i"
    },
    {
      "time": "63552i",
      "midiNote": 35,
      "noteName": "B1",
      "velocity": 0.8503937007874016,
      "duration": "94i"
    },
    {
      "time": "63552i",
      "midiNote": 54,
      "noteName": "F#3",
      "velocity": 0.7244094488188977,
      "duration": "46i"
    },
    {
      "time": "63552i",
      "midiNote": 39,
      "noteName": "D#2",
      "velocity": 0.8503937007874016,
      "duration": "160i"
    },
    {
      "time": "63552i",
      "midiNote": 65,
      "noteName": "F4",
      "velocity": 0.8503937007874016,
      "duration": "310i"
    },
    {
      "time": "63552i",
      "midiNote": 65,
      "noteName": "F4",
      "velocity": 0.5905511811023622,
      "duration": "94i"
    },
    {
      "time": "63576i",
      "midiNote": 65,
      "noteName": "F4",
      "velocity": 0.7244094488188977,
      "duration": "24i"
    },
    {
      "time": "63600i",
      "midiNote": 54,
      "noteName": "F#3",
      "velocity": 0.7244094488188977,
      "duration": "46i"
    },
    {
      "time": "63648i",
      "midiNote": 30,
      "noteName": "F#1",
      "velocity": 0.8503937007874016,
      "duration": "94i"
    },
    {
      "time": "63648i",
      "midiNote": 54,
      "noteName": "F#3",
      "velocity": 0.7244094488188977,
      "duration": "46i"
    },
    {
      "time": "63696i",
      "midiNote": 54,
      "noteName": "F#3",
      "velocity": 0.7244094488188977,
      "duration": "46i"
    },
    {
      "time": "63744i",
      "midiNote": 36,
      "noteName": "C2",
      "velocity": 1,
      "duration": "160i"
    },
    {
      "time": "63744i",
      "midiNote": 35,
      "noteName": "B1",
      "velocity": 0.8503937007874016,
      "duration": "160i"
    },
    {
      "time": "63744i",
      "midiNote": 54,
      "noteName": "F#3",
      "velocity": 0.7244094488188977,
      "duration": "46i"
    },
    {
      "time": "63744i",
      "midiNote": 65,
      "noteName": "F4",
      "velocity": 0.8503937007874016,
      "duration": "94i"
    },
    {
      "time": "63744i",
      "midiNote": 65,
      "noteName": "F4",
      "velocity": 0.5905511811023622,
      "duration": "22i"
    },
    {
      "time": "63768i",
      "midiNote": 65,
      "noteName": "F4",
      "velocity": 0.7244094488188977,
      "duration": "8i"
    },
    {
      "time": "63792i",
      "midiNote": 54,
      "noteName": "F#3",
      "velocity": 0.7244094488188977,
      "duration": "46i"
    },
    {
      "time": "63840i",
      "midiNote": 54,
      "noteName": "F#3",
      "velocity": 0.7244094488188977,
      "duration": "46i"
    },
    {
      "time": "63840i",
      "midiNote": 68,
      "noteName": "G#4",
      "velocity": 0.8503937007874016,
      "duration": "56i"
    },
    {
      "time": "63864i",
      "midiNote": 68,
      "noteName": "G#4",
      "velocity": 0.7244094488188977,
      "duration": "8i"
    },
    {
      "time": "63888i",
      "midiNote": 54,
      "noteName": "F#3",
      "velocity": 0.7244094488188977,
      "duration": "46i"
    },
    {
      "time": "63936i",
      "midiNote": 36,
      "noteName": "C2",
      "velocity": 1,
      "duration": "160i"
    },
    {
      "time": "63936i",
      "midiNote": 35,
      "noteName": "B1",
      "velocity": 0.8503937007874016,
      "duration": "94i"
    },
    {
      "time": "63936i",
      "midiNote": 54,
      "noteName": "F#3",
      "velocity": 0.7244094488188977,
      "duration": "46i"
    },
    {
      "time": "63936i",
      "midiNote": 39,
      "noteName": "D#2",
      "velocity": 0.8503937007874016,
      "duration": "160i"
    },
    {
      "time": "63936i",
      "midiNote": 68,
      "noteName": "G#4",
      "velocity": 0.8503937007874016,
      "duration": "184i"
    },
    {
      "time": "63936i",
      "midiNote": 68,
      "noteName": "G#4",
      "velocity": 0.5905511811023622,
      "duration": "94i"
    },
    {
      "time": "63960i",
      "midiNote": 68,
      "noteName": "G#4",
      "velocity": 0.7244094488188977,
      "duration": "24i"
    },
    {
      "time": "63984i",
      "midiNote": 54,
      "noteName": "F#3",
      "velocity": 0.7244094488188977,
      "duration": "46i"
    },
    {
      "time": "64032i",
      "midiNote": 30,
      "noteName": "F#1",
      "velocity": 0.8503937007874016,
      "duration": "94i"
    },
    {
      "time": "64032i",
      "midiNote": 54,
      "noteName": "F#3",
      "velocity": 0.7244094488188977,
      "duration": "46i"
    },
    {
      "time": "64080i",
      "midiNote": 54,
      "noteName": "F#3",
      "velocity": 0.7244094488188977,
      "duration": "46i"
    },
    {
      "time": "64128i",
      "midiNote": 36,
      "noteName": "C2",
      "velocity": 1,
      "duration": "160i"
    },
    {
      "time": "64128i",
      "midiNote": 35,
      "noteName": "B1",
      "velocity": 0.8503937007874016,
      "duration": "160i"
    },
    {
      "time": "64128i",
      "midiNote": 54,
      "noteName": "F#3",
      "velocity": 0.7244094488188977,
      "duration": "46i"
    },
    {
      "time": "64128i",
      "midiNote": 68,
      "noteName": "G#4",
      "velocity": 0.8503937007874016,
      "duration": "184i"
    },
    {
      "time": "64128i",
      "midiNote": 68,
      "noteName": "G#4",
      "velocity": 0.5905511811023622,
      "duration": "94i"
    },
    {
      "time": "64152i",
      "midiNote": 68,
      "noteName": "G#4",
      "velocity": 0.7244094488188977,
      "duration": "24i"
    },
    {
      "time": "64176i",
      "midiNote": 54,
      "noteName": "F#3",
      "velocity": 0.7244094488188977,
      "duration": "46i"
    },
    {
      "time": "64224i",
      "midiNote": 54,
      "noteName": "F#3",
      "velocity": 0.7244094488188977,
      "duration": "46i"
    },
    {
      "time": "64272i",
      "midiNote": 54,
      "noteName": "F#3",
      "velocity": 0.7244094488188977,
      "duration": "46i"
    },
    {
      "time": "64320i",
      "midiNote": 36,
      "noteName": "C2",
      "velocity": 1,
      "duration": "160i"
    },
    {
      "time": "64320i",
      "midiNote": 35,
      "noteName": "B1",
      "velocity": 0.8503937007874016,
      "duration": "94i"
    },
    {
      "time": "64320i",
      "midiNote": 54,
      "noteName": "F#3",
      "velocity": 0.7244094488188977,
      "duration": "46i"
    },
    {
      "time": "64320i",
      "midiNote": 39,
      "noteName": "D#2",
      "velocity": 0.8503937007874016,
      "duration": "160i"
    },
    {
      "time": "64320i",
      "midiNote": 68,
      "noteName": "G#4",
      "velocity": 0.8503937007874016,
      "duration": "190i"
    },
    {
      "time": "64320i",
      "midiNote": 68,
      "noteName": "G#4",
      "velocity": 0.5905511811023622,
      "duration": "94i"
    },
    {
      "time": "64344i",
      "midiNote": 68,
      "noteName": "G#4",
      "velocity": 0.7244094488188977,
      "duration": "24i"
    },
    {
      "time": "64368i",
      "midiNote": 54,
      "noteName": "F#3",
      "velocity": 0.7244094488188977,
      "duration": "46i"
    },
    {
      "time": "64416i",
      "midiNote": 30,
      "noteName": "F#1",
      "velocity": 0.8503937007874016,
      "duration": "94i"
    },
    {
      "time": "64416i",
      "midiNote": 54,
      "noteName": "F#3",
      "velocity": 0.7244094488188977,
      "duration": "46i"
    },
    {
      "time": "64464i",
      "midiNote": 54,
      "noteName": "F#3",
      "velocity": 0.7244094488188977,
      "duration": "46i"
    },
    {
      "time": "64512i",
      "midiNote": 36,
      "noteName": "C2",
      "velocity": 1,
      "duration": "160i"
    },
    {
      "ticks": 64512,
      "time": 64512,
      "note": 35,
      "midiNote": 35,
      "noteName": "B1",
      "velocity": 0.8503937007874016
    },
    {
      "time": "64512i",
      "midiNote": 54,
      "noteName": "F#3",
      "velocity": 0.7244094488188977,
      "duration": "160i"
    },
    {
      "time": "64608i",
      "midiNote": 63,
      "noteName": "D#4",
      "velocity": 0.7244094488188977,
      "duration": "94i"
    },
    {
      "time": "64704i",
      "midiNote": 36,
      "noteName": "C2",
      "velocity": 1,
      "duration": "160i"
    },
    {
      "time": "64704i",
      "midiNote": 54,
      "noteName": "F#3",
      "velocity": 0.7244094488188977,
      "duration": "160i"
    },
    {
      "time": "64704i",
      "midiNote": 39,
      "noteName": "D#2",
      "velocity": 0.8503937007874016,
      "duration": "160i"
    },
    {
      "time": "64800i",
      "midiNote": 63,
      "noteName": "D#4",
      "velocity": 0.7244094488188977,
      "duration": "94i"
    },
    {
      "time": "64896i",
      "midiNote": 36,
      "noteName": "C2",
      "velocity": 1,
      "duration": "160i"
    },
    {
      "time": "64896i",
      "midiNote": 54,
      "noteName": "F#3",
      "velocity": 0.7244094488188977,
      "duration": "160i"
    },
    {
      "time": "64992i",
      "midiNote": 63,
      "noteName": "D#4",
      "velocity": 0.7244094488188977,
      "duration": "94i"
    },
    {
      "time": "65088i",
      "midiNote": 36,
      "noteName": "C2",
      "velocity": 1,
      "duration": "160i"
    },
    {
      "time": "65088i",
      "midiNote": 54,
      "noteName": "F#3",
      "velocity": 0.7244094488188977,
      "duration": "160i"
    },
    {
      "time": "65088i",
      "midiNote": 39,
      "noteName": "D#2",
      "velocity": 0.8503937007874016,
      "duration": "160i"
    },
    {
      "time": "65184i",
      "midiNote": 63,
      "noteName": "D#4",
      "velocity": 0.7244094488188977,
      "duration": "94i"
    },
    {
      "time": "65280i",
      "midiNote": 36,
      "noteName": "C2",
      "velocity": 1,
      "duration": "160i"
    },
    {
      "time": "65280i",
      "midiNote": 54,
      "noteName": "F#3",
      "velocity": 0.7244094488188977,
      "duration": "160i"
    },
    {
      "time": "65376i",
      "midiNote": 66,
      "noteName": "F#4",
      "velocity": 0.7244094488188977,
      "duration": "94i"
    },
    {
      "time": "65472i",
      "midiNote": 36,
      "noteName": "C2",
      "velocity": 1,
      "duration": "160i"
    },
    {
      "time": "65472i",
      "midiNote": 54,
      "noteName": "F#3",
      "velocity": 0.7244094488188977,
      "duration": "160i"
    },
    {
      "time": "65472i",
      "midiNote": 39,
      "noteName": "D#2",
      "velocity": 0.8503937007874016,
      "duration": "160i"
    },
    {
      "time": "65568i",
      "midiNote": 66,
      "noteName": "F#4",
      "velocity": 0.7244094488188977,
      "duration": "94i"
    },
    {
      "time": "65664i",
      "midiNote": 36,
      "noteName": "C2",
      "velocity": 1,
      "duration": "160i"
    },
    {
      "time": "65664i",
      "midiNote": 54,
      "noteName": "F#3",
      "velocity": 0.7244094488188977,
      "duration": "160i"
    },
    {
      "time": "65760i",
      "midiNote": 66,
      "noteName": "F#4",
      "velocity": 0.7244094488188977,
      "duration": "94i"
    },
    {
      "time": "65856i",
      "midiNote": 36,
      "noteName": "C2",
      "velocity": 1,
      "duration": "160i"
    },
    {
      "time": "65856i",
      "midiNote": 54,
      "noteName": "F#3",
      "velocity": 0.7244094488188977,
      "duration": "160i"
    },
    {
      "time": "65856i",
      "midiNote": 39,
      "noteName": "D#2",
      "velocity": 0.8503937007874016,
      "duration": "160i"
    },
    {
      "time": "65952i",
      "midiNote": 66,
      "noteName": "F#4",
      "velocity": 0.7244094488188977,
      "duration": "94i"
    },
    {
      "time": "66048i",
      "midiNote": 36,
      "noteName": "C2",
      "velocity": 1,
      "duration": "160i"
    },
    {
      "time": "66048i",
      "midiNote": 54,
      "noteName": "F#3",
      "velocity": 0.7244094488188977,
      "duration": "160i"
    },
    {
      "time": "66144i",
      "midiNote": 65,
      "noteName": "F4",
      "velocity": 0.7244094488188977,
      "duration": "94i"
    },
    {
      "time": "66240i",
      "midiNote": 36,
      "noteName": "C2",
      "velocity": 1,
      "duration": "160i"
    },
    {
      "time": "66240i",
      "midiNote": 54,
      "noteName": "F#3",
      "velocity": 0.7244094488188977,
      "duration": "160i"
    },
    {
      "time": "66240i",
      "midiNote": 39,
      "noteName": "D#2",
      "velocity": 0.8503937007874016,
      "duration": "160i"
    },
    {
      "time": "66336i",
      "midiNote": 65,
      "noteName": "F4",
      "velocity": 0.7244094488188977,
      "duration": "94i"
    },
    {
      "time": "66432i",
      "midiNote": 36,
      "noteName": "C2",
      "velocity": 1,
      "duration": "160i"
    },
    {
      "time": "66432i",
      "midiNote": 54,
      "noteName": "F#3",
      "velocity": 0.7244094488188977,
      "duration": "160i"
    },
    {
      "time": "66528i",
      "midiNote": 65,
      "noteName": "F4",
      "velocity": 0.7244094488188977,
      "duration": "94i"
    },
    {
      "time": "66624i",
      "midiNote": 36,
      "noteName": "C2",
      "velocity": 1,
      "duration": "160i"
    },
    {
      "time": "66624i",
      "midiNote": 54,
      "noteName": "F#3",
      "velocity": 0.7244094488188977,
      "duration": "160i"
    },
    {
      "time": "66624i",
      "midiNote": 39,
      "noteName": "D#2",
      "velocity": 0.8503937007874016,
      "duration": "160i"
    },
    {
      "time": "66720i",
      "midiNote": 65,
      "noteName": "F4",
      "velocity": 0.7244094488188977,
      "duration": "94i"
    },
    {
      "time": "66816i",
      "midiNote": 36,
      "noteName": "C2",
      "velocity": 1,
      "duration": "160i"
    },
    {
      "time": "66816i",
      "midiNote": 54,
      "noteName": "F#3",
      "velocity": 0.7244094488188977,
      "duration": "160i"
    },
    {
      "time": "66912i",
      "midiNote": 68,
      "noteName": "G#4",
      "velocity": 0.7244094488188977,
      "duration": "94i"
    },
    {
      "time": "67008i",
      "midiNote": 36,
      "noteName": "C2",
      "velocity": 1,
      "duration": "160i"
    },
    {
      "time": "67008i",
      "midiNote": 54,
      "noteName": "F#3",
      "velocity": 0.7244094488188977,
      "duration": "160i"
    },
    {
      "time": "67008i",
      "midiNote": 39,
      "noteName": "D#2",
      "velocity": 0.8503937007874016,
      "duration": "160i"
    },
    {
      "time": "67104i",
      "midiNote": 68,
      "noteName": "G#4",
      "velocity": 0.7244094488188977,
      "duration": "94i"
    },
    {
      "time": "67200i",
      "midiNote": 36,
      "noteName": "C2",
      "velocity": 1,
      "duration": "160i"
    },
    {
      "time": "67200i",
      "midiNote": 54,
      "noteName": "F#3",
      "velocity": 0.7244094488188977,
      "duration": "160i"
    },
    {
      "time": "67296i",
      "midiNote": 68,
      "noteName": "G#4",
      "velocity": 0.7244094488188977,
      "duration": "94i"
    },
    {
      "time": "67392i",
      "midiNote": 36,
      "noteName": "C2",
      "velocity": 1,
      "duration": "160i"
    },
    {
      "time": "67392i",
      "midiNote": 54,
      "noteName": "F#3",
      "velocity": 0.7244094488188977,
      "duration": "160i"
    },
    {
      "time": "67392i",
      "midiNote": 39,
      "noteName": "D#2",
      "velocity": 0.8503937007874016,
      "duration": "160i"
    },
    {
      "time": "67488i",
      "midiNote": 68,
      "noteName": "G#4",
      "velocity": 0.7244094488188977,
      "duration": "94i"
    },
    {
      "time": "67584i",
      "midiNote": 36,
      "noteName": "C2",
      "velocity": 1,
      "duration": "160i"
    },
    {
      "time": "67584i",
      "midiNote": 54,
      "noteName": "F#3",
      "velocity": 0.7244094488188977,
      "duration": "160i"
    },
    {
      "time": "67680i",
      "midiNote": 63,
      "noteName": "D#4",
      "velocity": 0.7244094488188977,
      "duration": "94i"
    },
    {
      "time": "67776i",
      "midiNote": 36,
      "noteName": "C2",
      "velocity": 1,
      "duration": "160i"
    },
    {
      "time": "67776i",
      "midiNote": 54,
      "noteName": "F#3",
      "velocity": 0.7244094488188977,
      "duration": "160i"
    },
    {
      "time": "67776i",
      "midiNote": 39,
      "noteName": "D#2",
      "velocity": 0.8503937007874016,
      "duration": "160i"
    },
    {
      "time": "67872i",
      "midiNote": 63,
      "noteName": "D#4",
      "velocity": 0.7244094488188977,
      "duration": "94i"
    },
    {
      "time": "67968i",
      "midiNote": 36,
      "noteName": "C2",
      "velocity": 1,
      "duration": "160i"
    },
    {
      "time": "67968i",
      "midiNote": 54,
      "noteName": "F#3",
      "velocity": 0.7244094488188977,
      "duration": "160i"
    },
    {
      "time": "68064i",
      "midiNote": 63,
      "noteName": "D#4",
      "velocity": 0.7244094488188977,
      "duration": "94i"
    },
    {
      "time": "68160i",
      "midiNote": 36,
      "noteName": "C2",
      "velocity": 1,
      "duration": "160i"
    },
    {
      "time": "68160i",
      "midiNote": 54,
      "noteName": "F#3",
      "velocity": 0.7244094488188977,
      "duration": "160i"
    },
    {
      "time": "68160i",
      "midiNote": 39,
      "noteName": "D#2",
      "velocity": 0.8503937007874016,
      "duration": "160i"
    },
    {
      "time": "68256i",
      "midiNote": 63,
      "noteName": "D#4",
      "velocity": 0.7244094488188977,
      "duration": "94i"
    },
    {
      "time": "68352i",
      "midiNote": 36,
      "noteName": "C2",
      "velocity": 1,
      "duration": "160i"
    },
    {
      "time": "68352i",
      "midiNote": 54,
      "noteName": "F#3",
      "velocity": 0.7244094488188977,
      "duration": "160i"
    },
    {
      "time": "68448i",
      "midiNote": 66,
      "noteName": "F#4",
      "velocity": 0.7244094488188977,
      "duration": "94i"
    },
    {
      "time": "68544i",
      "midiNote": 36,
      "noteName": "C2",
      "velocity": 1,
      "duration": "160i"
    },
    {
      "time": "68544i",
      "midiNote": 54,
      "noteName": "F#3",
      "velocity": 0.7244094488188977,
      "duration": "160i"
    },
    {
      "time": "68544i",
      "midiNote": 39,
      "noteName": "D#2",
      "velocity": 0.8503937007874016,
      "duration": "160i"
    },
    {
      "time": "68640i",
      "midiNote": 66,
      "noteName": "F#4",
      "velocity": 0.7244094488188977,
      "duration": "94i"
    },
    {
      "time": "68736i",
      "midiNote": 36,
      "noteName": "C2",
      "velocity": 1,
      "duration": "160i"
    },
    {
      "time": "68736i",
      "midiNote": 54,
      "noteName": "F#3",
      "velocity": 0.7244094488188977,
      "duration": "160i"
    },
    {
      "time": "68832i",
      "midiNote": 66,
      "noteName": "F#4",
      "velocity": 0.7244094488188977,
      "duration": "94i"
    },
    {
      "time": "68928i",
      "midiNote": 36,
      "noteName": "C2",
      "velocity": 1,
      "duration": "160i"
    },
    {
      "time": "68928i",
      "midiNote": 54,
      "noteName": "F#3",
      "velocity": 0.7244094488188977,
      "duration": "160i"
    },
    {
      "time": "68928i",
      "midiNote": 39,
      "noteName": "D#2",
      "velocity": 0.8503937007874016,
      "duration": "160i"
    },
    {
      "time": "69024i",
      "midiNote": 66,
      "noteName": "F#4",
      "velocity": 0.7244094488188977,
      "duration": "94i"
    },
    {
      "time": "69120i",
      "midiNote": 36,
      "noteName": "C2",
      "velocity": 1,
      "duration": "160i"
    },
    {
      "time": "69120i",
      "midiNote": 54,
      "noteName": "F#3",
      "velocity": 0.7244094488188977,
      "duration": "160i"
    },
    {
      "time": "69216i",
      "midiNote": 65,
      "noteName": "F4",
      "velocity": 0.7244094488188977,
      "duration": "94i"
    },
    {
      "time": "69312i",
      "midiNote": 36,
      "noteName": "C2",
      "velocity": 1,
      "duration": "160i"
    },
    {
      "time": "69312i",
      "midiNote": 54,
      "noteName": "F#3",
      "velocity": 0.7244094488188977,
      "duration": "160i"
    },
    {
      "time": "69312i",
      "midiNote": 39,
      "noteName": "D#2",
      "velocity": 0.8503937007874016,
      "duration": "160i"
    },
    {
      "time": "69408i",
      "midiNote": 65,
      "noteName": "F4",
      "velocity": 0.7244094488188977,
      "duration": "94i"
    },
    {
      "time": "69504i",
      "midiNote": 36,
      "noteName": "C2",
      "velocity": 1,
      "duration": "160i"
    },
    {
      "time": "69504i",
      "midiNote": 54,
      "noteName": "F#3",
      "velocity": 0.7244094488188977,
      "duration": "160i"
    },
    {
      "time": "69600i",
      "midiNote": 65,
      "noteName": "F4",
      "velocity": 0.7244094488188977,
      "duration": "94i"
    },
    {
      "time": "69696i",
      "midiNote": 36,
      "noteName": "C2",
      "velocity": 1,
      "duration": "160i"
    },
    {
      "time": "69696i",
      "midiNote": 54,
      "noteName": "F#3",
      "velocity": 0.7244094488188977,
      "duration": "160i"
    },
    {
      "time": "69696i",
      "midiNote": 39,
      "noteName": "D#2",
      "velocity": 0.8503937007874016,
      "duration": "160i"
    },
    {
      "time": "69792i",
      "midiNote": 65,
      "noteName": "F4",
      "velocity": 0.7244094488188977,
      "duration": "94i"
    },
    {
      "time": "69888i",
      "midiNote": 36,
      "noteName": "C2",
      "velocity": 1,
      "duration": "160i"
    },
    {
      "time": "69888i",
      "midiNote": 54,
      "noteName": "F#3",
      "velocity": 0.7244094488188977,
      "duration": "160i"
    },
    {
      "time": "69984i",
      "midiNote": 68,
      "noteName": "G#4",
      "velocity": 0.7244094488188977,
      "duration": "94i"
    },
    {
      "time": "70080i",
      "midiNote": 36,
      "noteName": "C2",
      "velocity": 1,
      "duration": "160i"
    },
    {
      "time": "70080i",
      "midiNote": 54,
      "noteName": "F#3",
      "velocity": 0.7244094488188977,
      "duration": "160i"
    },
    {
      "time": "70080i",
      "midiNote": 39,
      "noteName": "D#2",
      "velocity": 0.8503937007874016,
      "duration": "160i"
    },
    {
      "time": "70176i",
      "midiNote": 68,
      "noteName": "G#4",
      "velocity": 0.7244094488188977,
      "duration": "94i"
    },
    {
      "time": "70272i",
      "midiNote": 36,
      "noteName": "C2",
      "velocity": 1,
      "duration": "160i"
    },
    {
      "time": "70272i",
      "midiNote": 54,
      "noteName": "F#3",
      "velocity": 0.7244094488188977,
      "duration": "160i"
    },
    {
      "time": "70368i",
      "midiNote": 68,
      "noteName": "G#4",
      "velocity": 0.7244094488188977,
      "duration": "94i"
    },
    {
      "time": "70464i",
      "midiNote": 36,
      "noteName": "C2",
      "velocity": 1,
      "duration": "160i"
    },
    {
      "time": "70464i",
      "midiNote": 54,
      "noteName": "F#3",
      "velocity": 0.7244094488188977,
      "duration": "160i"
    },
    {
      "time": "70464i",
      "midiNote": 39,
      "noteName": "D#2",
      "velocity": 0.8503937007874016,
      "duration": "160i"
    },
    {
      "time": "70560i",
      "midiNote": 68,
      "noteName": "G#4",
      "velocity": 0.7244094488188977,
      "duration": "94i"
    },
    {
      "time": "70656i",
      "midiNote": 54,
      "noteName": "F#3",
      "velocity": 0.7244094488188977,
      "duration": "160i"
    },
    {
      "time": "70752i",
      "midiNote": 63,
      "noteName": "D#4",
      "velocity": 0.7244094488188977,
      "duration": "94i"
    },
    {
      "time": "70848i",
      "midiNote": 54,
      "noteName": "F#3",
      "velocity": 0.7244094488188977,
      "duration": "160i"
    },
    {
      "time": "70944i",
      "midiNote": 63,
      "noteName": "D#4",
      "velocity": 0.7244094488188977,
      "duration": "94i"
    },
    {
      "time": "71040i",
      "midiNote": 54,
      "noteName": "F#3",
      "velocity": 0.7244094488188977,
      "duration": "160i"
    },
    {
      "time": "71136i",
      "midiNote": 63,
      "noteName": "D#4",
      "velocity": 0.7244094488188977,
      "duration": "94i"
    },
    {
      "time": "71232i",
      "midiNote": 54,
      "noteName": "F#3",
      "velocity": 0.7244094488188977,
      "duration": "160i"
    },
    {
      "time": "71328i",
      "midiNote": 63,
      "noteName": "D#4",
      "velocity": 0.7244094488188977,
      "duration": "94i"
    },
    {
      "time": "71424i",
      "midiNote": 54,
      "noteName": "F#3",
      "velocity": 0.7244094488188977,
      "duration": "160i"
    },
    {
      "time": "71520i",
      "midiNote": 66,
      "noteName": "F#4",
      "velocity": 0.7244094488188977,
      "duration": "94i"
    },
    {
      "time": "71616i",
      "midiNote": 54,
      "noteName": "F#3",
      "velocity": 0.7244094488188977,
      "duration": "160i"
    },
    {
      "time": "71712i",
      "midiNote": 66,
      "noteName": "F#4",
      "velocity": 0.7244094488188977,
      "duration": "94i"
    },
    {
      "time": "71808i",
      "midiNote": 54,
      "noteName": "F#3",
      "velocity": 0.7244094488188977,
      "duration": "160i"
    },
    {
      "time": "71904i",
      "midiNote": 66,
      "noteName": "F#4",
      "velocity": 0.7244094488188977,
      "duration": "94i"
    },
    {
      "time": "72000i",
      "midiNote": 54,
      "noteName": "F#3",
      "velocity": 0.7244094488188977,
      "duration": "160i"
    },
    {
      "time": "72096i",
      "midiNote": 66,
      "noteName": "F#4",
      "velocity": 0.7244094488188977,
      "duration": "94i"
    },
    {
      "time": "72288i",
      "midiNote": 65,
      "noteName": "F4",
      "velocity": 0.7244094488188977,
      "duration": "94i"
    },
    {
      "time": "72480i",
      "midiNote": 65,
      "noteName": "F4",
      "velocity": 0.7244094488188977,
      "duration": "94i"
    },
    {
      "time": "72672i",
      "midiNote": 65,
      "noteName": "F4",
      "velocity": 0.7244094488188977,
      "duration": "94i"
    },
    {
      "time": "72864i",
      "midiNote": 65,
      "noteName": "F4",
      "velocity": 0.7244094488188977,
      "duration": "94i"
    },
    {
      "time": "73056i",
      "midiNote": 36,
      "noteName": "C2",
      "velocity": 1,
      "duration": "640i"
    },
    {
      "time": "73056i",
      "midiNote": 57,
      "noteName": "A3",
      "velocity": 1,
      "duration": "640i"
    },
    {
      "time": "73056i",
      "midiNote": 68,
      "noteName": "G#4",
      "velocity": 0.7244094488188977,
      "duration": "94i"
    },
    {
      "time": "73248i",
      "midiNote": 68,
      "noteName": "G#4",
      "velocity": 0.7244094488188977,
      "duration": "94i"
    },
    {
      "time": "73440i",
      "midiNote": 68,
      "noteName": "G#4",
      "velocity": 0.7244094488188977,
      "duration": "94i"
    },
    {
      "time": "73632i",
      "midiNote": 68,
      "noteName": "G#4",
      "velocity": 0.7244094488188977,
      "duration": "94i"
    }
  ]
]

buildTrack = parseMidi(parts: parts, transport: transport)
