require('v1/midi')

transport = {
  "bpm": 240,
  "timeSignature": [
    4,
    8
  ]
}

parts = [
  [
    {
      "time": "768i",
      "midiNote": 52,
      "noteName": "E3",
      "velocity": 0.8661417322834646,
      "duration": "384i"
    },
    {
      "time": "1152i",
      "midiNote": 54,
      "noteName": "F#3",
      "velocity": 0.8661417322834646,
      "duration": "192i"
    },
    {
      "time": "1344i",
      "midiNote": 55,
      "noteName": "G3",
      "velocity": 0.8661417322834646,
      "duration": "192i"
    },
    {
      "time": "1536i",
      "midiNote": 54,
      "noteName": "F#3",
      "velocity": 0.8661417322834646,
      "duration": "192i"
    },
    {
      "time": "1728i",
      "midiNote": 57,
      "noteName": "A3",
      "velocity": 0.8661417322834646,
      "duration": "192i"
    },
    {
      "time": "1920i",
      "midiNote": 55,
      "noteName": "G3",
      "velocity": 0.8661417322834646,
      "duration": "192i"
    },
    {
      "time": "2112i",
      "midiNote": 54,
      "noteName": "F#3",
      "velocity": 0.8661417322834646,
      "duration": "192i"
    },
    {
      "time": "2304i",
      "midiNote": 52,
      "noteName": "E3",
      "velocity": 0.8661417322834646,
      "duration": "1104i"
    },
    {
      "time": "3456i",
      "midiNote": 59,
      "noteName": "B3",
      "velocity": 0.8661417322834646,
      "duration": "192i"
    },
    {
      "time": "3648i",
      "midiNote": 61,
      "noteName": "C#4",
      "velocity": 0.8661417322834646,
      "duration": "192i"
    },
    {
      "time": "3840i",
      "midiNote": 62,
      "noteName": "D4",
      "velocity": 0.8661417322834646,
      "duration": "576i"
    },
    {
      "time": "4416i",
      "midiNote": 61,
      "noteName": "C#4",
      "velocity": 0.8661417322834646,
      "duration": "192i"
    },
    {
      "time": "4608i",
      "midiNote": 57,
      "noteName": "A3",
      "velocity": 0.8661417322834646,
      "duration": "192i"
    },
    {
      "time": "4800i",
      "midiNote": 61,
      "noteName": "C#4",
      "velocity": 0.8661417322834646,
      "duration": "192i"
    },
    {
      "time": "4992i",
      "midiNote": 59,
      "noteName": "B3",
      "velocity": 0.8661417322834646,
      "duration": "1104i"
    },
    {
      "time": "6144i",
      "midiNote": 47,
      "noteName": "B2",
      "velocity": 0.8661417322834646,
      "duration": "192i"
    },
    {
      "time": "6336i",
      "midiNote": 50,
      "noteName": "D3",
      "velocity": 0.8661417322834646,
      "duration": "192i"
    },
    {
      "time": "6528i",
      "midiNote": 52,
      "noteName": "E3",
      "velocity": 0.8661417322834646,
      "duration": "192i"
    },
    {
      "time": "6720i",
      "midiNote": 55,
      "noteName": "G3",
      "velocity": 0.8661417322834646,
      "duration": "192i"
    },
    {
      "time": "6912i",
      "midiNote": 57,
      "noteName": "A3",
      "velocity": 0.8661417322834646,
      "duration": "192i"
    },
    {
      "time": "7104i",
      "midiNote": 54,
      "noteName": "F#3",
      "velocity": 0.8661417322834646,
      "duration": "528i"
    },
    {
      "time": "7680i",
      "midiNote": 52,
      "noteName": "E3",
      "velocity": 0.8661417322834646,
      "duration": "192i"
    },
    {
      "time": "7872i",
      "midiNote": 55,
      "noteName": "G3",
      "velocity": 0.8661417322834646,
      "duration": "192i"
    },
    {
      "time": "8064i",
      "midiNote": 54,
      "noteName": "F#3",
      "velocity": 0.8661417322834646,
      "duration": "192i"
    },
    {
      "time": "8256i",
      "midiNote": 52,
      "noteName": "E3",
      "velocity": 0.8661417322834646,
      "duration": "192i"
    },
    {
      "time": "8448i",
      "midiNote": 54,
      "noteName": "F#3",
      "velocity": 0.8661417322834646,
      "duration": "192i"
    },
    {
      "time": "8640i",
      "midiNote": 50,
      "noteName": "D3",
      "velocity": 0.8661417322834646,
      "duration": "528i"
    },
    {
      "time": "9216i",
      "midiNote": 52,
      "noteName": "E3",
      "velocity": 0.8661417322834646,
      "duration": "1488i"
    },
    {
      "time": "42816i",
      "midiNote": 52,
      "noteName": "E3",
      "velocity": 0.5905511811023622,
      "duration": "3024i"
    },
    {
      "time": "43584i",
      "midiNote": 54,
      "noteName": "F#3",
      "velocity": 0.5905511811023622,
      "duration": "2256i"
    },
    {
      "time": "44352i",
      "midiNote": 55,
      "noteName": "G3",
      "velocity": 0.5905511811023622,
      "duration": "1488i"
    },
    {
      "time": "44352i",
      "midiNote": 59,
      "noteName": "B3",
      "velocity": 0.5905511811023622,
      "duration": "720i"
    },
    {
      "time": "45120i",
      "midiNote": 57,
      "noteName": "A3",
      "velocity": 0.5905511811023622,
      "duration": "720i"
    },
    {
      "time": "45120i",
      "midiNote": 61,
      "noteName": "C#4",
      "velocity": 0.5905511811023622,
      "duration": "720i"
    },
    {
      "time": "45888i",
      "midiNote": 52,
      "noteName": "E3",
      "velocity": 0.5905511811023622,
      "duration": "6096i"
    },
    {
      "time": "46656i",
      "midiNote": 54,
      "noteName": "F#3",
      "velocity": 0.5905511811023622,
      "duration": "5328i"
    },
    {
      "time": "47424i",
      "midiNote": 55,
      "noteName": "G3",
      "velocity": 0.5905511811023622,
      "duration": "4560i"
    },
    {
      "time": "47424i",
      "midiNote": 59,
      "noteName": "B3",
      "velocity": 0.5905511811023622,
      "duration": "720i"
    },
    {
      "time": "48192i",
      "midiNote": 57,
      "noteName": "A3",
      "velocity": 0.5905511811023622,
      "duration": "3792i"
    },
    {
      "time": "48192i",
      "midiNote": 61,
      "noteName": "C#4",
      "velocity": 0.5905511811023622,
      "duration": "3792i"
    },
    {
      "time": "52800i",
      "midiNote": 52,
      "noteName": "E3",
      "velocity": 0.7244094488188977,
      "duration": "384i"
    },
    {
      "time": "53184i",
      "midiNote": 54,
      "noteName": "F#3",
      "velocity": 0.7244094488188977,
      "duration": "192i"
    },
    {
      "time": "53376i",
      "midiNote": 55,
      "noteName": "G3",
      "velocity": 0.7244094488188977,
      "duration": "192i"
    },
    {
      "time": "53568i",
      "midiNote": 54,
      "noteName": "F#3",
      "velocity": 0.7244094488188977,
      "duration": "192i"
    },
    {
      "time": "53760i",
      "midiNote": 57,
      "noteName": "A3",
      "velocity": 0.7244094488188977,
      "duration": "192i"
    },
    {
      "time": "53952i",
      "midiNote": 55,
      "noteName": "G3",
      "velocity": 0.7244094488188977,
      "duration": "192i"
    },
    {
      "time": "54144i",
      "midiNote": 54,
      "noteName": "F#3",
      "velocity": 0.7244094488188977,
      "duration": "192i"
    },
    {
      "time": "54336i",
      "midiNote": 52,
      "noteName": "E3",
      "velocity": 0.7244094488188977,
      "duration": "1104i"
    },
    {
      "time": "55488i",
      "midiNote": 59,
      "noteName": "B3",
      "velocity": 0.7244094488188977,
      "duration": "192i"
    },
    {
      "time": "55680i",
      "midiNote": 61,
      "noteName": "C#4",
      "velocity": 0.7244094488188977,
      "duration": "192i"
    },
    {
      "time": "55872i",
      "midiNote": 62,
      "noteName": "D4",
      "velocity": 0.7244094488188977,
      "duration": "576i"
    },
    {
      "time": "56448i",
      "midiNote": 61,
      "noteName": "C#4",
      "velocity": 0.7244094488188977,
      "duration": "192i"
    },
    {
      "time": "56640i",
      "midiNote": 57,
      "noteName": "A3",
      "velocity": 0.7244094488188977,
      "duration": "192i"
    },
    {
      "time": "56832i",
      "midiNote": 61,
      "noteName": "C#4",
      "velocity": 0.7244094488188977,
      "duration": "192i"
    },
    {
      "time": "57024i",
      "midiNote": 59,
      "noteName": "B3",
      "velocity": 0.7244094488188977,
      "duration": "1104i"
    },
    {
      "time": "58176i",
      "midiNote": 47,
      "noteName": "B2",
      "velocity": 0.7244094488188977,
      "duration": "192i"
    },
    {
      "time": "58368i",
      "midiNote": 50,
      "noteName": "D3",
      "velocity": 0.7244094488188977,
      "duration": "192i"
    },
    {
      "time": "58560i",
      "midiNote": 52,
      "noteName": "E3",
      "velocity": 0.7244094488188977,
      "duration": "192i"
    },
    {
      "time": "58752i",
      "midiNote": 55,
      "noteName": "G3",
      "velocity": 0.7244094488188977,
      "duration": "192i"
    },
    {
      "time": "58944i",
      "midiNote": 57,
      "noteName": "A3",
      "velocity": 0.7244094488188977,
      "duration": "192i"
    },
    {
      "time": "59136i",
      "midiNote": 54,
      "noteName": "F#3",
      "velocity": 0.7244094488188977,
      "duration": "528i"
    },
    {
      "time": "59712i",
      "midiNote": 52,
      "noteName": "E3",
      "velocity": 0.7244094488188977,
      "duration": "192i"
    },
    {
      "time": "59904i",
      "midiNote": 55,
      "noteName": "G3",
      "velocity": 0.7244094488188977,
      "duration": "192i"
    },
    {
      "time": "60096i",
      "midiNote": 54,
      "noteName": "F#3",
      "velocity": 0.7244094488188977,
      "duration": "192i"
    },
    {
      "time": "60288i",
      "midiNote": 52,
      "noteName": "E3",
      "velocity": 0.7244094488188977,
      "duration": "192i"
    },
    {
      "time": "60480i",
      "midiNote": 54,
      "noteName": "F#3",
      "velocity": 0.7244094488188977,
      "duration": "192i"
    },
    {
      "time": "60672i",
      "midiNote": 50,
      "noteName": "D3",
      "velocity": 0.7244094488188977,
      "duration": "528i"
    },
    {
      "time": "61248i",
      "midiNote": 52,
      "noteName": "E3",
      "velocity": 0.7244094488188977,
      "duration": "2256i"
    }
  ],
  [
    {
      "time": "0i",
      "midiNote": 28,
      "noteName": "E1",
      "velocity": 0.8661417322834646,
      "duration": "11472i"
    },
    {
      "time": "0i",
      "midiNote": 40,
      "noteName": "E2",
      "velocity": 0.8661417322834646,
      "duration": "11472i"
    },
    {
      "time": "14592i",
      "midiNote": 64,
      "noteName": "E4",
      "velocity": 0.8661417322834646,
      "duration": "1152i"
    },
    {
      "time": "15744i",
      "midiNote": 66,
      "noteName": "F#4",
      "velocity": 0.8661417322834646,
      "duration": "192i"
    },
    {
      "time": "15936i",
      "midiNote": 67,
      "noteName": "G4",
      "velocity": 0.8661417322834646,
      "duration": "192i"
    },
    {
      "time": "16128i",
      "midiNote": 69,
      "noteName": "A4",
      "velocity": 0.8661417322834646,
      "duration": "4560i"
    },
    {
      "time": "16896i",
      "midiNote": 71,
      "noteName": "B4",
      "velocity": 0.8661417322834646,
      "duration": "720i"
    },
    {
      "time": "17664i",
      "midiNote": 73,
      "noteName": "C#5",
      "velocity": 0.8661417322834646,
      "duration": "720i"
    },
    {
      "time": "18432i",
      "midiNote": 74,
      "noteName": "D5",
      "velocity": 0.8661417322834646,
      "duration": "336i"
    },
    {
      "time": "18816i",
      "midiNote": 76,
      "noteName": "E5",
      "velocity": 0.8661417322834646,
      "duration": "160i"
    },
    {
      "time": "19008i",
      "midiNote": 78,
      "noteName": "F#5",
      "velocity": 0.8661417322834646,
      "duration": "160i"
    },
    {
      "time": "19200i",
      "midiNote": 79,
      "noteName": "G5",
      "velocity": 0.8661417322834646,
      "duration": "336i"
    },
    {
      "time": "19584i",
      "midiNote": 81,
      "noteName": "A5",
      "velocity": 0.8661417322834646,
      "duration": "336i"
    },
    {
      "time": "19968i",
      "midiNote": 83,
      "noteName": "B5",
      "velocity": 0.8661417322834646,
      "duration": "1488i"
    },
    {
      "time": "23808i",
      "midiNote": 71,
      "noteName": "B4",
      "velocity": 0.8661417322834646,
      "duration": "160i"
    },
    {
      "time": "24048i",
      "midiNote": 71,
      "noteName": "B4",
      "velocity": 0.8661417322834646,
      "duration": "70i"
    },
    {
      "time": "24120i",
      "midiNote": 73,
      "noteName": "C#5",
      "velocity": 0.8661417322834646,
      "duration": "70i"
    },
    {
      "time": "24192i",
      "midiNote": 74,
      "noteName": "D5",
      "velocity": 0.8661417322834646,
      "duration": "160i"
    },
    {
      "time": "24432i",
      "midiNote": 71,
      "noteName": "B4",
      "velocity": 0.8661417322834646,
      "duration": "70i"
    },
    {
      "time": "24504i",
      "midiNote": 74,
      "noteName": "D5",
      "velocity": 0.8661417322834646,
      "duration": "70i"
    },
    {
      "time": "24576i",
      "midiNote": 73,
      "noteName": "C#5",
      "velocity": 0.8661417322834646,
      "duration": "62i"
    },
    {
      "time": "24640i",
      "midiNote": 71,
      "noteName": "B4",
      "velocity": 0.8661417322834646,
      "duration": "62i"
    },
    {
      "time": "24704i",
      "midiNote": 69,
      "noteName": "A4",
      "velocity": 0.8661417322834646,
      "duration": "62i"
    },
    {
      "time": "24768i",
      "midiNote": 64,
      "noteName": "E4",
      "velocity": 0.8661417322834646,
      "duration": "142i"
    },
    {
      "time": "24912i",
      "midiNote": 69,
      "noteName": "A4",
      "velocity": 0.8661417322834646,
      "duration": "46i"
    },
    {
      "time": "24960i",
      "midiNote": 64,
      "noteName": "E4",
      "velocity": 0.8661417322834646,
      "duration": "70i"
    },
    {
      "time": "25032i",
      "midiNote": 71,
      "noteName": "B4",
      "velocity": 0.8661417322834646,
      "duration": "62i"
    },
    {
      "time": "25096i",
      "midiNote": 73,
      "noteName": "C#5",
      "velocity": 0.8661417322834646,
      "duration": "62i"
    },
    {
      "time": "25160i",
      "midiNote": 71,
      "noteName": "B4",
      "velocity": 0.8661417322834646,
      "duration": "62i"
    },
    {
      "time": "25224i",
      "midiNote": 69,
      "noteName": "A4",
      "velocity": 0.8661417322834646,
      "duration": "70i"
    },
    {
      "time": "25296i",
      "midiNote": 64,
      "noteName": "E4",
      "velocity": 0.8661417322834646,
      "duration": "46i"
    },
    {
      "time": "25344i",
      "midiNote": 71,
      "noteName": "B4",
      "velocity": 0.8661417322834646,
      "duration": "160i"
    },
    {
      "time": "25584i",
      "midiNote": 73,
      "noteName": "C#5",
      "velocity": 0.8661417322834646,
      "duration": "70i"
    },
    {
      "time": "25656i",
      "midiNote": 74,
      "noteName": "D5",
      "velocity": 0.8661417322834646,
      "duration": "70i"
    },
    {
      "time": "25728i",
      "midiNote": 76,
      "noteName": "E5",
      "velocity": 0.8661417322834646,
      "duration": "256i"
    },
    {
      "time": "26160i",
      "midiNote": 74,
      "noteName": "D5",
      "velocity": 0.8661417322834646,
      "duration": "70i"
    },
    {
      "time": "26232i",
      "midiNote": 73,
      "noteName": "C#5",
      "velocity": 0.8661417322834646,
      "duration": "70i"
    },
    {
      "time": "26304i",
      "midiNote": 74,
      "noteName": "D5",
      "velocity": 0.8661417322834646,
      "duration": "62i"
    },
    {
      "time": "26368i",
      "midiNote": 73,
      "noteName": "C#5",
      "velocity": 0.8661417322834646,
      "duration": "62i"
    },
    {
      "time": "26432i",
      "midiNote": 71,
      "noteName": "B4",
      "velocity": 0.8661417322834646,
      "duration": "62i"
    },
    {
      "time": "26496i",
      "midiNote": 76,
      "noteName": "E5",
      "velocity": 0.8661417322834646,
      "duration": "62i"
    },
    {
      "time": "26560i",
      "midiNote": 74,
      "noteName": "D5",
      "velocity": 0.8661417322834646,
      "duration": "62i"
    },
    {
      "time": "26624i",
      "midiNote": 73,
      "noteName": "C#5",
      "velocity": 0.8661417322834646,
      "duration": "62i"
    },
    {
      "time": "26688i",
      "midiNote": 71,
      "noteName": "B4",
      "velocity": 0.8661417322834646,
      "duration": "62i"
    },
    {
      "time": "26752i",
      "midiNote": 74,
      "noteName": "D5",
      "velocity": 0.8661417322834646,
      "duration": "62i"
    },
    {
      "time": "26816i",
      "midiNote": 76,
      "noteName": "E5",
      "velocity": 0.8661417322834646,
      "duration": "62i"
    },
    {
      "time": "26880i",
      "midiNote": 78,
      "noteName": "F#5",
      "velocity": 0.8661417322834646,
      "duration": "62i"
    },
    {
      "time": "26944i",
      "midiNote": 74,
      "noteName": "D5",
      "velocity": 0.8661417322834646,
      "duration": "62i"
    },
    {
      "time": "27008i",
      "midiNote": 71,
      "noteName": "B4",
      "velocity": 0.8661417322834646,
      "duration": "62i"
    },
    {
      "time": "27072i",
      "midiNote": 81,
      "noteName": "A5",
      "velocity": 0.8661417322834646,
      "duration": "238i"
    },
    {
      "time": "27312i",
      "midiNote": 81,
      "noteName": "A5",
      "velocity": 0.8661417322834646,
      "duration": "70i"
    },
    {
      "time": "27384i",
      "midiNote": 78,
      "noteName": "F#5",
      "velocity": 0.8661417322834646,
      "duration": "70i"
    },
    {
      "time": "27456i",
      "midiNote": 81,
      "noteName": "A5",
      "velocity": 0.8661417322834646,
      "duration": "46i"
    },
    {
      "time": "27504i",
      "midiNote": 79,
      "noteName": "G5",
      "velocity": 0.8661417322834646,
      "duration": "46i"
    },
    {
      "time": "27552i",
      "midiNote": 81,
      "noteName": "A5",
      "velocity": 0.8661417322834646,
      "duration": "94i"
    },
    {
      "time": "27648i",
      "midiNote": 76,
      "noteName": "E5",
      "velocity": 0.8661417322834646,
      "duration": "62i"
    },
    {
      "time": "27712i",
      "midiNote": 74,
      "noteName": "D5",
      "velocity": 0.8661417322834646,
      "duration": "62i"
    },
    {
      "time": "27776i",
      "midiNote": 71,
      "noteName": "B4",
      "velocity": 0.8661417322834646,
      "duration": "62i"
    },
    {
      "time": "27840i",
      "midiNote": 81,
      "noteName": "A5",
      "velocity": 0.8661417322834646,
      "duration": "256i"
    },
    {
      "time": "28128i",
      "midiNote": 74,
      "noteName": "D5",
      "velocity": 0.8661417322834646,
      "duration": "62i"
    },
    {
      "time": "28192i",
      "midiNote": 76,
      "noteName": "E5",
      "velocity": 0.8661417322834646,
      "duration": "62i"
    },
    {
      "time": "28256i",
      "midiNote": 78,
      "noteName": "F#5",
      "velocity": 0.8661417322834646,
      "duration": "62i"
    },
    {
      "time": "28320i",
      "midiNote": 79,
      "noteName": "G5",
      "velocity": 0.8661417322834646,
      "duration": "46i"
    },
    {
      "time": "28368i",
      "midiNote": 81,
      "noteName": "A5",
      "velocity": 0.8661417322834646,
      "duration": "46i"
    },
    {
      "time": "28416i",
      "midiNote": 76,
      "noteName": "E5",
      "velocity": 0.8661417322834646,
      "duration": "160i"
    },
    {
      "time": "28656i",
      "midiNote": 74,
      "noteName": "D5",
      "velocity": 0.8661417322834646,
      "duration": "70i"
    },
    {
      "time": "28728i",
      "midiNote": 76,
      "noteName": "E5",
      "velocity": 0.8661417322834646,
      "duration": "70i"
    },
    {
      "time": "28800i",
      "midiNote": 78,
      "noteName": "F#5",
      "velocity": 0.8661417322834646,
      "duration": "160i"
    },
    {
      "time": "29040i",
      "midiNote": 76,
      "noteName": "E5",
      "velocity": 0.8661417322834646,
      "duration": "62i"
    },
    {
      "time": "29104i",
      "midiNote": 78,
      "noteName": "F#5",
      "velocity": 0.8661417322834646,
      "duration": "62i"
    },
    {
      "time": "29168i",
      "midiNote": 79,
      "noteName": "G5",
      "velocity": 0.8661417322834646,
      "duration": "62i"
    },
    {
      "time": "29232i",
      "midiNote": 78,
      "noteName": "F#5",
      "velocity": 0.8661417322834646,
      "duration": "62i"
    },
    {
      "time": "29296i",
      "midiNote": 76,
      "noteName": "E5",
      "velocity": 0.8661417322834646,
      "duration": "62i"
    },
    {
      "time": "29360i",
      "midiNote": 78,
      "noteName": "F#5",
      "velocity": 0.8661417322834646,
      "duration": "62i"
    },
    {
      "time": "29424i",
      "midiNote": 76,
      "noteName": "E5",
      "velocity": 0.8661417322834646,
      "duration": "70i"
    },
    {
      "time": "29496i",
      "midiNote": 74,
      "noteName": "D5",
      "velocity": 0.8661417322834646,
      "duration": "70i"
    },
    {
      "time": "29568i",
      "midiNote": 73,
      "noteName": "C#5",
      "velocity": 0.8661417322834646,
      "duration": "142i"
    },
    {
      "time": "29712i",
      "midiNote": 74,
      "noteName": "D5",
      "velocity": 0.8661417322834646,
      "duration": "142i"
    },
    {
      "time": "29856i",
      "midiNote": 76,
      "noteName": "E5",
      "velocity": 0.8661417322834646,
      "duration": "94i"
    },
    {
      "time": "29952i",
      "midiNote": 76,
      "noteName": "E5",
      "velocity": 0.8661417322834646,
      "duration": "160i"
    },
    {
      "time": "30192i",
      "midiNote": 76,
      "noteName": "E5",
      "velocity": 0.8661417322834646,
      "duration": "70i"
    },
    {
      "time": "30264i",
      "midiNote": 78,
      "noteName": "F#5",
      "velocity": 0.8661417322834646,
      "duration": "70i"
    },
    {
      "time": "30336i",
      "midiNote": 79,
      "noteName": "G5",
      "velocity": 0.8661417322834646,
      "duration": "160i"
    },
    {
      "time": "30576i",
      "midiNote": 76,
      "noteName": "E5",
      "velocity": 0.8661417322834646,
      "duration": "70i"
    },
    {
      "time": "30648i",
      "midiNote": 79,
      "noteName": "G5",
      "velocity": 0.8661417322834646,
      "duration": "70i"
    },
    {
      "time": "30720i",
      "midiNote": 78,
      "noteName": "F#5",
      "velocity": 0.8661417322834646,
      "duration": "62i"
    },
    {
      "time": "30784i",
      "midiNote": 76,
      "noteName": "E5",
      "velocity": 0.8661417322834646,
      "duration": "62i"
    },
    {
      "time": "30848i",
      "midiNote": 74,
      "noteName": "D5",
      "velocity": 0.8661417322834646,
      "duration": "62i"
    },
    {
      "time": "30912i",
      "midiNote": 66,
      "noteName": "F#4",
      "velocity": 0.8661417322834646,
      "duration": "62i"
    },
    {
      "time": "30976i",
      "midiNote": 64,
      "noteName": "E4",
      "velocity": 0.8661417322834646,
      "duration": "62i"
    },
    {
      "time": "31040i",
      "midiNote": 62,
      "noteName": "D4",
      "velocity": 0.8661417322834646,
      "duration": "62i"
    },
    {
      "time": "31104i",
      "midiNote": 74,
      "noteName": "D5",
      "velocity": 0.8661417322834646,
      "duration": "62i"
    },
    {
      "time": "31168i",
      "midiNote": 73,
      "noteName": "C#5",
      "velocity": 0.8661417322834646,
      "duration": "62i"
    },
    {
      "time": "31232i",
      "midiNote": 74,
      "noteName": "D5",
      "velocity": 0.8661417322834646,
      "duration": "62i"
    },
    {
      "time": "31296i",
      "midiNote": 74,
      "noteName": "D5",
      "velocity": 0.8661417322834646,
      "duration": "62i"
    },
    {
      "time": "31360i",
      "midiNote": 73,
      "noteName": "C#5",
      "velocity": 0.8661417322834646,
      "duration": "62i"
    },
    {
      "time": "31424i",
      "midiNote": 74,
      "noteName": "D5",
      "velocity": 0.8661417322834646,
      "duration": "62i"
    },
    {
      "time": "31488i",
      "midiNote": 67,
      "noteName": "G4",
      "velocity": 0.8661417322834646,
      "duration": "1104i"
    },
    {
      "time": "32760i",
      "midiNote": 69,
      "noteName": "A4",
      "velocity": 0.8661417322834646,
      "duration": "1288i"
    },
    {
      "time": "37152i",
      "midiNote": 71,
      "noteName": "B4",
      "velocity": 0.8661417322834646,
      "duration": "94i"
    },
    {
      "time": "37296i",
      "midiNote": 76,
      "noteName": "E5",
      "velocity": 0.8661417322834646,
      "duration": "94i"
    },
    {
      "time": "37440i",
      "midiNote": 78,
      "noteName": "F#5",
      "velocity": 0.8661417322834646,
      "duration": "70i"
    },
    {
      "time": "37512i",
      "midiNote": 79,
      "noteName": "G5",
      "velocity": 0.8661417322834646,
      "duration": "62i"
    },
    {
      "time": "37576i",
      "midiNote": 78,
      "noteName": "F#5",
      "velocity": 0.8661417322834646,
      "duration": "62i"
    },
    {
      "time": "37640i",
      "midiNote": 76,
      "noteName": "E5",
      "velocity": 0.8661417322834646,
      "duration": "62i"
    },
    {
      "time": "37704i",
      "midiNote": 74,
      "noteName": "D5",
      "velocity": 0.8661417322834646,
      "duration": "142i"
    },
    {
      "time": "37848i",
      "midiNote": 71,
      "noteName": "B4",
      "velocity": 0.8661417322834646,
      "duration": "70i"
    },
    {
      "time": "37920i",
      "midiNote": 76,
      "noteName": "E5",
      "velocity": 0.8661417322834646,
      "duration": "62i"
    },
    {
      "time": "37984i",
      "midiNote": 71,
      "noteName": "B4",
      "velocity": 0.8661417322834646,
      "duration": "62i"
    },
    {
      "time": "38048i",
      "midiNote": 78,
      "noteName": "F#5",
      "velocity": 0.8661417322834646,
      "duration": "62i"
    },
    {
      "time": "38112i",
      "midiNote": 71,
      "noteName": "B4",
      "velocity": 0.8661417322834646,
      "duration": "62i"
    },
    {
      "time": "38176i",
      "midiNote": 79,
      "noteName": "G5",
      "velocity": 0.8661417322834646,
      "duration": "62i"
    },
    {
      "time": "38240i",
      "midiNote": 71,
      "noteName": "B4",
      "velocity": 0.8661417322834646,
      "duration": "62i"
    },
    {
      "time": "38304i",
      "midiNote": 81,
      "noteName": "A5",
      "velocity": 0.8661417322834646,
      "duration": "142i"
    },
    {
      "time": "38448i",
      "midiNote": 79,
      "noteName": "G5",
      "velocity": 0.8661417322834646,
      "duration": "62i"
    },
    {
      "time": "38512i",
      "midiNote": 78,
      "noteName": "F#5",
      "velocity": 0.8661417322834646,
      "duration": "62i"
    },
    {
      "time": "38576i",
      "midiNote": 76,
      "noteName": "E5",
      "velocity": 0.8661417322834646,
      "duration": "62i"
    },
    {
      "time": "38640i",
      "midiNote": 74,
      "noteName": "D5",
      "velocity": 0.8661417322834646,
      "duration": "46i"
    },
    {
      "time": "38688i",
      "midiNote": 71,
      "noteName": "B4",
      "velocity": 0.8661417322834646,
      "duration": "94i"
    },
    {
      "time": "38832i",
      "midiNote": 76,
      "noteName": "E5",
      "velocity": 0.8661417322834646,
      "duration": "94i"
    },
    {
      "time": "38976i",
      "midiNote": 78,
      "noteName": "F#5",
      "velocity": 0.8661417322834646,
      "duration": "70i"
    },
    {
      "time": "39048i",
      "midiNote": 79,
      "noteName": "G5",
      "velocity": 0.8661417322834646,
      "duration": "62i"
    },
    {
      "time": "39112i",
      "midiNote": 78,
      "noteName": "F#5",
      "velocity": 0.8661417322834646,
      "duration": "62i"
    },
    {
      "time": "39176i",
      "midiNote": 76,
      "noteName": "E5",
      "velocity": 0.8661417322834646,
      "duration": "62i"
    },
    {
      "time": "39240i",
      "midiNote": 74,
      "noteName": "D5",
      "velocity": 0.8661417322834646,
      "duration": "142i"
    },
    {
      "time": "39384i",
      "midiNote": 71,
      "noteName": "B4",
      "velocity": 0.8661417322834646,
      "duration": "70i"
    },
    {
      "time": "39456i",
      "midiNote": 76,
      "noteName": "E5",
      "velocity": 0.8661417322834646,
      "duration": "62i"
    },
    {
      "time": "39520i",
      "midiNote": 71,
      "noteName": "B4",
      "velocity": 0.8661417322834646,
      "duration": "62i"
    },
    {
      "time": "39584i",
      "midiNote": 78,
      "noteName": "F#5",
      "velocity": 0.8661417322834646,
      "duration": "62i"
    },
    {
      "time": "39648i",
      "midiNote": 71,
      "noteName": "B4",
      "velocity": 0.8661417322834646,
      "duration": "62i"
    },
    {
      "time": "39712i",
      "midiNote": 79,
      "noteName": "G5",
      "velocity": 0.8661417322834646,
      "duration": "62i"
    },
    {
      "time": "39776i",
      "midiNote": 71,
      "noteName": "B4",
      "velocity": 0.8661417322834646,
      "duration": "62i"
    },
    {
      "time": "39840i",
      "midiNote": 81,
      "noteName": "A5",
      "velocity": 0.8661417322834646,
      "duration": "142i"
    },
    {
      "time": "39984i",
      "midiNote": 79,
      "noteName": "G5",
      "velocity": 0.8661417322834646,
      "duration": "62i"
    },
    {
      "time": "40048i",
      "midiNote": 78,
      "noteName": "F#5",
      "velocity": 0.8661417322834646,
      "duration": "62i"
    },
    {
      "time": "40112i",
      "midiNote": 76,
      "noteName": "E5",
      "velocity": 0.8661417322834646,
      "duration": "62i"
    },
    {
      "time": "40176i",
      "midiNote": 74,
      "noteName": "D5",
      "velocity": 0.8661417322834646,
      "duration": "46i"
    },
    {
      "time": "40224i",
      "midiNote": 67,
      "noteName": "G4",
      "velocity": 0.8661417322834646,
      "duration": "1104i"
    },
    {
      "time": "41496i",
      "midiNote": 69,
      "noteName": "A4",
      "velocity": 0.8661417322834646,
      "duration": "1288i"
    },
    {
      "time": "52032i",
      "midiNote": 28,
      "noteName": "E1",
      "velocity": 0.8661417322834646,
      "duration": "7632i"
    },
    {
      "time": "52032i",
      "midiNote": 40,
      "noteName": "E2",
      "velocity": 0.8661417322834646,
      "duration": "7632i"
    }
  ],
  [
    {
      "time": "384i",
      "midiNote": 49,
      "noteName": "C#3",
      "velocity": 0.8661417322834646,
      "duration": "336i"
    },
    {
      "time": "3072i",
      "midiNote": 49,
      "noteName": "C#3",
      "velocity": 0.3543307086614173,
      "duration": "22i"
    },
    {
      "time": "3096i",
      "midiNote": 49,
      "noteName": "C#3",
      "velocity": 0.3543307086614173,
      "duration": "22i"
    },
    {
      "time": "3120i",
      "midiNote": 49,
      "noteName": "C#3",
      "velocity": 0.47244094488188976,
      "duration": "22i"
    },
    {
      "time": "3144i",
      "midiNote": 49,
      "noteName": "C#3",
      "velocity": 0.47244094488188976,
      "duration": "22i"
    },
    {
      "time": "3168i",
      "midiNote": 49,
      "noteName": "C#3",
      "velocity": 0.5905511811023622,
      "duration": "22i"
    },
    {
      "time": "3192i",
      "midiNote": 49,
      "noteName": "C#3",
      "velocity": 0.5905511811023622,
      "duration": "22i"
    },
    {
      "time": "3216i",
      "midiNote": 49,
      "noteName": "C#3",
      "velocity": 0.7244094488188977,
      "duration": "22i"
    },
    {
      "time": "3240i",
      "midiNote": 49,
      "noteName": "C#3",
      "velocity": 0.7244094488188977,
      "duration": "22i"
    },
    {
      "time": "3264i",
      "midiNote": 49,
      "noteName": "C#3",
      "velocity": 0.8503937007874016,
      "duration": "22i"
    },
    {
      "time": "3288i",
      "midiNote": 49,
      "noteName": "C#3",
      "velocity": 0.8503937007874016,
      "duration": "22i"
    },
    {
      "time": "3312i",
      "midiNote": 49,
      "noteName": "C#3",
      "velocity": 0.8503937007874016,
      "duration": "22i"
    },
    {
      "time": "3336i",
      "midiNote": 49,
      "noteName": "C#3",
      "velocity": 1,
      "duration": "22i"
    },
    {
      "time": "9216i",
      "midiNote": 41,
      "noteName": "F2",
      "velocity": 0.3543307086614173,
      "duration": "142i"
    },
    {
      "time": "9360i",
      "midiNote": 41,
      "noteName": "F2",
      "velocity": 0.3543307086614173,
      "duration": "46i"
    },
    {
      "time": "9408i",
      "midiNote": 50,
      "noteName": "D3",
      "velocity": 0.3543307086614173,
      "duration": "142i"
    },
    {
      "time": "9408i",
      "midiNote": 62,
      "noteName": "D4",
      "velocity": 0.3543307086614173,
      "duration": "142i"
    },
    {
      "time": "9552i",
      "midiNote": 50,
      "noteName": "D3",
      "velocity": 0.47244094488188976,
      "duration": "142i"
    },
    {
      "time": "9552i",
      "midiNote": 62,
      "noteName": "D4",
      "velocity": 0.47244094488188976,
      "duration": "142i"
    },
    {
      "time": "9696i",
      "midiNote": 41,
      "noteName": "F2",
      "velocity": 0.5905511811023622,
      "duration": "46i"
    },
    {
      "time": "9744i",
      "midiNote": 50,
      "noteName": "D3",
      "velocity": 0.5905511811023622,
      "duration": "70i"
    },
    {
      "time": "9744i",
      "midiNote": 62,
      "noteName": "D4",
      "velocity": 0.5905511811023622,
      "duration": "70i"
    },
    {
      "time": "9816i",
      "midiNote": 41,
      "noteName": "F2",
      "velocity": 0.5905511811023622,
      "duration": "46i"
    },
    {
      "time": "9864i",
      "midiNote": 50,
      "noteName": "D3",
      "velocity": 0.5905511811023622,
      "duration": "70i"
    },
    {
      "time": "9864i",
      "midiNote": 62,
      "noteName": "D4",
      "velocity": 0.5905511811023622,
      "duration": "70i"
    },
    {
      "time": "9936i",
      "midiNote": 41,
      "noteName": "F2",
      "velocity": 0.5905511811023622,
      "duration": "46i"
    },
    {
      "time": "9984i",
      "midiNote": 41,
      "noteName": "F2",
      "velocity": 0.7244094488188977,
      "duration": "142i"
    },
    {
      "time": "10128i",
      "midiNote": 41,
      "noteName": "F2",
      "velocity": 0.7244094488188977,
      "duration": "46i"
    },
    {
      "time": "10176i",
      "midiNote": 50,
      "noteName": "D3",
      "velocity": 0.7244094488188977,
      "duration": "142i"
    },
    {
      "time": "10176i",
      "midiNote": 62,
      "noteName": "D4",
      "velocity": 0.7244094488188977,
      "duration": "142i"
    },
    {
      "time": "10320i",
      "midiNote": 50,
      "noteName": "D3",
      "velocity": 0.7244094488188977,
      "duration": "46i"
    },
    {
      "time": "10320i",
      "midiNote": 62,
      "noteName": "D4",
      "velocity": 0.7244094488188977,
      "duration": "46i"
    },
    {
      "time": "10368i",
      "midiNote": 41,
      "noteName": "F2",
      "velocity": 0.7244094488188977,
      "duration": "142i"
    },
    {
      "time": "10512i",
      "midiNote": 41,
      "noteName": "F2",
      "velocity": 0.7244094488188977,
      "duration": "46i"
    },
    {
      "time": "10560i",
      "midiNote": 50,
      "noteName": "D3",
      "velocity": 0.7244094488188977,
      "duration": "142i"
    },
    {
      "time": "10560i",
      "midiNote": 62,
      "noteName": "D4",
      "velocity": 0.7244094488188977,
      "duration": "142i"
    },
    {
      "time": "10704i",
      "midiNote": 50,
      "noteName": "D3",
      "velocity": 0.7244094488188977,
      "duration": "46i"
    },
    {
      "time": "10704i",
      "midiNote": 62,
      "noteName": "D4",
      "velocity": 0.7244094488188977,
      "duration": "46i"
    },
    {
      "time": "10752i",
      "midiNote": 41,
      "noteName": "F2",
      "velocity": 0.7244094488188977,
      "duration": "142i"
    },
    {
      "time": "10896i",
      "midiNote": 41,
      "noteName": "F2",
      "velocity": 0.7244094488188977,
      "duration": "46i"
    },
    {
      "time": "10944i",
      "midiNote": 50,
      "noteName": "D3",
      "velocity": 0.7244094488188977,
      "duration": "142i"
    },
    {
      "time": "10944i",
      "midiNote": 62,
      "noteName": "D4",
      "velocity": 0.7244094488188977,
      "duration": "142i"
    },
    {
      "time": "11088i",
      "midiNote": 50,
      "noteName": "D3",
      "velocity": 0.7244094488188977,
      "duration": "142i"
    },
    {
      "time": "11088i",
      "midiNote": 62,
      "noteName": "D4",
      "velocity": 0.7244094488188977,
      "duration": "142i"
    },
    {
      "time": "11232i",
      "midiNote": 41,
      "noteName": "F2",
      "velocity": 0.7244094488188977,
      "duration": "46i"
    },
    {
      "time": "11280i",
      "midiNote": 50,
      "noteName": "D3",
      "velocity": 0.7244094488188977,
      "duration": "70i"
    },
    {
      "time": "11280i",
      "midiNote": 62,
      "noteName": "D4",
      "velocity": 0.7244094488188977,
      "duration": "70i"
    },
    {
      "time": "11352i",
      "midiNote": 41,
      "noteName": "F2",
      "velocity": 0.7244094488188977,
      "duration": "46i"
    },
    {
      "time": "11400i",
      "midiNote": 50,
      "noteName": "D3",
      "velocity": 0.7244094488188977,
      "duration": "70i"
    },
    {
      "time": "11400i",
      "midiNote": 62,
      "noteName": "D4",
      "velocity": 0.7244094488188977,
      "duration": "70i"
    },
    {
      "time": "11472i",
      "midiNote": 41,
      "noteName": "F2",
      "velocity": 0.7244094488188977,
      "duration": "46i"
    },
    {
      "time": "11520i",
      "midiNote": 41,
      "noteName": "F2",
      "velocity": 0.7244094488188977,
      "duration": "142i"
    },
    {
      "time": "11664i",
      "midiNote": 41,
      "noteName": "F2",
      "velocity": 0.7244094488188977,
      "duration": "46i"
    },
    {
      "time": "11712i",
      "midiNote": 50,
      "noteName": "D3",
      "velocity": 0.7244094488188977,
      "duration": "142i"
    },
    {
      "time": "11712i",
      "midiNote": 62,
      "noteName": "D4",
      "velocity": 0.7244094488188977,
      "duration": "142i"
    },
    {
      "time": "11856i",
      "midiNote": 50,
      "noteName": "D3",
      "velocity": 0.7244094488188977,
      "duration": "46i"
    },
    {
      "time": "11856i",
      "midiNote": 62,
      "noteName": "D4",
      "velocity": 0.7244094488188977,
      "duration": "46i"
    },
    {
      "time": "11904i",
      "midiNote": 41,
      "noteName": "F2",
      "velocity": 0.7244094488188977,
      "duration": "142i"
    },
    {
      "time": "12048i",
      "midiNote": 41,
      "noteName": "F2",
      "velocity": 0.7244094488188977,
      "duration": "46i"
    },
    {
      "time": "12096i",
      "midiNote": 50,
      "noteName": "D3",
      "velocity": 0.7244094488188977,
      "duration": "142i"
    },
    {
      "time": "12096i",
      "midiNote": 62,
      "noteName": "D4",
      "velocity": 0.7244094488188977,
      "duration": "142i"
    },
    {
      "time": "12240i",
      "midiNote": 50,
      "noteName": "D3",
      "velocity": 0.7244094488188977,
      "duration": "46i"
    },
    {
      "time": "12240i",
      "midiNote": 62,
      "noteName": "D4",
      "velocity": 0.7244094488188977,
      "duration": "46i"
    },
    {
      "time": "12288i",
      "midiNote": 41,
      "noteName": "F2",
      "velocity": 0.7244094488188977,
      "duration": "142i"
    },
    {
      "time": "12432i",
      "midiNote": 41,
      "noteName": "F2",
      "velocity": 0.7244094488188977,
      "duration": "46i"
    },
    {
      "time": "12480i",
      "midiNote": 50,
      "noteName": "D3",
      "velocity": 0.7244094488188977,
      "duration": "142i"
    },
    {
      "time": "12480i",
      "midiNote": 62,
      "noteName": "D4",
      "velocity": 0.7244094488188977,
      "duration": "142i"
    },
    {
      "time": "12624i",
      "midiNote": 50,
      "noteName": "D3",
      "velocity": 0.7244094488188977,
      "duration": "142i"
    },
    {
      "time": "12624i",
      "midiNote": 62,
      "noteName": "D4",
      "velocity": 0.7244094488188977,
      "duration": "142i"
    },
    {
      "time": "12768i",
      "midiNote": 41,
      "noteName": "F2",
      "velocity": 0.7244094488188977,
      "duration": "46i"
    },
    {
      "time": "12816i",
      "midiNote": 50,
      "noteName": "D3",
      "velocity": 0.7244094488188977,
      "duration": "70i"
    },
    {
      "time": "12816i",
      "midiNote": 62,
      "noteName": "D4",
      "velocity": 0.7244094488188977,
      "duration": "70i"
    },
    {
      "time": "12888i",
      "midiNote": 41,
      "noteName": "F2",
      "velocity": 0.7244094488188977,
      "duration": "46i"
    },
    {
      "time": "12936i",
      "midiNote": 50,
      "noteName": "D3",
      "velocity": 0.7244094488188977,
      "duration": "70i"
    },
    {
      "time": "12936i",
      "midiNote": 62,
      "noteName": "D4",
      "velocity": 0.7244094488188977,
      "duration": "70i"
    },
    {
      "time": "13008i",
      "midiNote": 41,
      "noteName": "F2",
      "velocity": 0.7244094488188977,
      "duration": "46i"
    },
    {
      "time": "13056i",
      "midiNote": 41,
      "noteName": "F2",
      "velocity": 0.7244094488188977,
      "duration": "142i"
    },
    {
      "time": "13200i",
      "midiNote": 41,
      "noteName": "F2",
      "velocity": 0.7244094488188977,
      "duration": "46i"
    },
    {
      "time": "13248i",
      "midiNote": 50,
      "noteName": "D3",
      "velocity": 0.7244094488188977,
      "duration": "142i"
    },
    {
      "time": "13248i",
      "midiNote": 62,
      "noteName": "D4",
      "velocity": 0.7244094488188977,
      "duration": "142i"
    },
    {
      "time": "13392i",
      "midiNote": 50,
      "noteName": "D3",
      "velocity": 0.7244094488188977,
      "duration": "46i"
    },
    {
      "time": "13392i",
      "midiNote": 62,
      "noteName": "D4",
      "velocity": 0.7244094488188977,
      "duration": "46i"
    },
    {
      "time": "13440i",
      "midiNote": 41,
      "noteName": "F2",
      "velocity": 0.7244094488188977,
      "duration": "142i"
    },
    {
      "time": "13584i",
      "midiNote": 41,
      "noteName": "F2",
      "velocity": 0.7244094488188977,
      "duration": "46i"
    },
    {
      "time": "13632i",
      "midiNote": 50,
      "noteName": "D3",
      "velocity": 0.7244094488188977,
      "duration": "142i"
    },
    {
      "time": "13632i",
      "midiNote": 62,
      "noteName": "D4",
      "velocity": 0.7244094488188977,
      "duration": "142i"
    },
    {
      "time": "13776i",
      "midiNote": 50,
      "noteName": "D3",
      "velocity": 0.7244094488188977,
      "duration": "46i"
    },
    {
      "time": "13776i",
      "midiNote": 62,
      "noteName": "D4",
      "velocity": 0.7244094488188977,
      "duration": "46i"
    },
    {
      "time": "13824i",
      "midiNote": 41,
      "noteName": "F2",
      "velocity": 0.7244094488188977,
      "duration": "142i"
    },
    {
      "time": "13968i",
      "midiNote": 41,
      "noteName": "F2",
      "velocity": 0.7244094488188977,
      "duration": "46i"
    },
    {
      "time": "14016i",
      "midiNote": 50,
      "noteName": "D3",
      "velocity": 0.7244094488188977,
      "duration": "142i"
    },
    {
      "time": "14016i",
      "midiNote": 62,
      "noteName": "D4",
      "velocity": 0.7244094488188977,
      "duration": "142i"
    },
    {
      "time": "14160i",
      "midiNote": 50,
      "noteName": "D3",
      "velocity": 0.7244094488188977,
      "duration": "142i"
    },
    {
      "time": "14160i",
      "midiNote": 62,
      "noteName": "D4",
      "velocity": 0.7244094488188977,
      "duration": "142i"
    },
    {
      "time": "14304i",
      "midiNote": 41,
      "noteName": "F2",
      "velocity": 0.7244094488188977,
      "duration": "46i"
    },
    {
      "time": "14352i",
      "midiNote": 50,
      "noteName": "D3",
      "velocity": 0.7244094488188977,
      "duration": "70i"
    },
    {
      "time": "14352i",
      "midiNote": 62,
      "noteName": "D4",
      "velocity": 0.7244094488188977,
      "duration": "70i"
    },
    {
      "time": "14424i",
      "midiNote": 41,
      "noteName": "F2",
      "velocity": 0.7244094488188977,
      "duration": "46i"
    },
    {
      "time": "14472i",
      "midiNote": 50,
      "noteName": "D3",
      "velocity": 0.7244094488188977,
      "duration": "70i"
    },
    {
      "time": "14472i",
      "midiNote": 62,
      "noteName": "D4",
      "velocity": 0.7244094488188977,
      "duration": "70i"
    },
    {
      "time": "14544i",
      "midiNote": 41,
      "noteName": "F2",
      "velocity": 0.7244094488188977,
      "duration": "46i"
    },
    {
      "time": "14592i",
      "midiNote": 41,
      "noteName": "F2",
      "velocity": 0.7244094488188977,
      "duration": "142i"
    },
    {
      "time": "14736i",
      "midiNote": 41,
      "noteName": "F2",
      "velocity": 0.7244094488188977,
      "duration": "46i"
    },
    {
      "time": "14784i",
      "midiNote": 50,
      "noteName": "D3",
      "velocity": 0.7244094488188977,
      "duration": "142i"
    },
    {
      "time": "14784i",
      "midiNote": 62,
      "noteName": "D4",
      "velocity": 0.7244094488188977,
      "duration": "142i"
    },
    {
      "time": "14928i",
      "midiNote": 50,
      "noteName": "D3",
      "velocity": 0.7244094488188977,
      "duration": "46i"
    },
    {
      "time": "14928i",
      "midiNote": 62,
      "noteName": "D4",
      "velocity": 0.7244094488188977,
      "duration": "46i"
    },
    {
      "time": "14976i",
      "midiNote": 41,
      "noteName": "F2",
      "velocity": 0.7244094488188977,
      "duration": "142i"
    },
    {
      "time": "15120i",
      "midiNote": 41,
      "noteName": "F2",
      "velocity": 0.7244094488188977,
      "duration": "46i"
    },
    {
      "time": "15168i",
      "midiNote": 50,
      "noteName": "D3",
      "velocity": 0.7244094488188977,
      "duration": "142i"
    },
    {
      "time": "15168i",
      "midiNote": 62,
      "noteName": "D4",
      "velocity": 0.7244094488188977,
      "duration": "142i"
    },
    {
      "time": "15312i",
      "midiNote": 50,
      "noteName": "D3",
      "velocity": 0.7244094488188977,
      "duration": "46i"
    },
    {
      "time": "15312i",
      "midiNote": 62,
      "noteName": "D4",
      "velocity": 0.7244094488188977,
      "duration": "46i"
    },
    {
      "time": "15360i",
      "midiNote": 41,
      "noteName": "F2",
      "velocity": 0.7244094488188977,
      "duration": "142i"
    },
    {
      "time": "15504i",
      "midiNote": 41,
      "noteName": "F2",
      "velocity": 0.7244094488188977,
      "duration": "46i"
    },
    {
      "time": "15552i",
      "midiNote": 50,
      "noteName": "D3",
      "velocity": 0.7244094488188977,
      "duration": "142i"
    },
    {
      "time": "15552i",
      "midiNote": 62,
      "noteName": "D4",
      "velocity": 0.7244094488188977,
      "duration": "142i"
    },
    {
      "time": "15696i",
      "midiNote": 50,
      "noteName": "D3",
      "velocity": 0.7244094488188977,
      "duration": "142i"
    },
    {
      "time": "15696i",
      "midiNote": 62,
      "noteName": "D4",
      "velocity": 0.7244094488188977,
      "duration": "142i"
    },
    {
      "time": "15840i",
      "midiNote": 41,
      "noteName": "F2",
      "velocity": 0.7244094488188977,
      "duration": "46i"
    },
    {
      "time": "15888i",
      "midiNote": 50,
      "noteName": "D3",
      "velocity": 0.7244094488188977,
      "duration": "70i"
    },
    {
      "time": "15888i",
      "midiNote": 62,
      "noteName": "D4",
      "velocity": 0.7244094488188977,
      "duration": "70i"
    },
    {
      "time": "15960i",
      "midiNote": 41,
      "noteName": "F2",
      "velocity": 0.7244094488188977,
      "duration": "46i"
    },
    {
      "time": "16008i",
      "midiNote": 50,
      "noteName": "D3",
      "velocity": 0.7244094488188977,
      "duration": "70i"
    },
    {
      "time": "16008i",
      "midiNote": 62,
      "noteName": "D4",
      "velocity": 0.7244094488188977,
      "duration": "70i"
    },
    {
      "time": "16080i",
      "midiNote": 41,
      "noteName": "F2",
      "velocity": 0.7244094488188977,
      "duration": "46i"
    },
    {
      "time": "16128i",
      "midiNote": 41,
      "noteName": "F2",
      "velocity": 0.7244094488188977,
      "duration": "142i"
    },
    {
      "time": "16272i",
      "midiNote": 41,
      "noteName": "F2",
      "velocity": 0.7244094488188977,
      "duration": "46i"
    },
    {
      "time": "16320i",
      "midiNote": 50,
      "noteName": "D3",
      "velocity": 0.7244094488188977,
      "duration": "142i"
    },
    {
      "time": "16320i",
      "midiNote": 62,
      "noteName": "D4",
      "velocity": 0.7244094488188977,
      "duration": "142i"
    },
    {
      "time": "16464i",
      "midiNote": 50,
      "noteName": "D3",
      "velocity": 0.7244094488188977,
      "duration": "46i"
    },
    {
      "time": "16464i",
      "midiNote": 62,
      "noteName": "D4",
      "velocity": 0.7244094488188977,
      "duration": "46i"
    },
    {
      "time": "16512i",
      "midiNote": 41,
      "noteName": "F2",
      "velocity": 0.7244094488188977,
      "duration": "142i"
    },
    {
      "time": "16656i",
      "midiNote": 41,
      "noteName": "F2",
      "velocity": 0.7244094488188977,
      "duration": "46i"
    },
    {
      "time": "16704i",
      "midiNote": 50,
      "noteName": "D3",
      "velocity": 0.7244094488188977,
      "duration": "142i"
    },
    {
      "time": "16704i",
      "midiNote": 62,
      "noteName": "D4",
      "velocity": 0.7244094488188977,
      "duration": "142i"
    },
    {
      "time": "16848i",
      "midiNote": 50,
      "noteName": "D3",
      "velocity": 0.7244094488188977,
      "duration": "46i"
    },
    {
      "time": "16848i",
      "midiNote": 62,
      "noteName": "D4",
      "velocity": 0.7244094488188977,
      "duration": "46i"
    },
    {
      "time": "16896i",
      "midiNote": 41,
      "noteName": "F2",
      "velocity": 0.7244094488188977,
      "duration": "142i"
    },
    {
      "time": "17040i",
      "midiNote": 41,
      "noteName": "F2",
      "velocity": 0.7244094488188977,
      "duration": "46i"
    },
    {
      "time": "17088i",
      "midiNote": 50,
      "noteName": "D3",
      "velocity": 0.7244094488188977,
      "duration": "142i"
    },
    {
      "time": "17088i",
      "midiNote": 62,
      "noteName": "D4",
      "velocity": 0.7244094488188977,
      "duration": "142i"
    },
    {
      "time": "17232i",
      "midiNote": 50,
      "noteName": "D3",
      "velocity": 0.7244094488188977,
      "duration": "142i"
    },
    {
      "time": "17232i",
      "midiNote": 62,
      "noteName": "D4",
      "velocity": 0.7244094488188977,
      "duration": "142i"
    },
    {
      "time": "17376i",
      "midiNote": 41,
      "noteName": "F2",
      "velocity": 0.7244094488188977,
      "duration": "46i"
    },
    {
      "time": "17424i",
      "midiNote": 50,
      "noteName": "D3",
      "velocity": 0.7244094488188977,
      "duration": "70i"
    },
    {
      "time": "17424i",
      "midiNote": 62,
      "noteName": "D4",
      "velocity": 0.7244094488188977,
      "duration": "70i"
    },
    {
      "time": "17496i",
      "midiNote": 41,
      "noteName": "F2",
      "velocity": 0.7244094488188977,
      "duration": "46i"
    },
    {
      "time": "17544i",
      "midiNote": 50,
      "noteName": "D3",
      "velocity": 0.7244094488188977,
      "duration": "70i"
    },
    {
      "time": "17544i",
      "midiNote": 62,
      "noteName": "D4",
      "velocity": 0.7244094488188977,
      "duration": "70i"
    },
    {
      "time": "17616i",
      "midiNote": 41,
      "noteName": "F2",
      "velocity": 0.7244094488188977,
      "duration": "46i"
    },
    {
      "time": "17664i",
      "midiNote": 41,
      "noteName": "F2",
      "velocity": 0.7244094488188977,
      "duration": "142i"
    },
    {
      "time": "17808i",
      "midiNote": 41,
      "noteName": "F2",
      "velocity": 0.7244094488188977,
      "duration": "46i"
    },
    {
      "time": "17856i",
      "midiNote": 50,
      "noteName": "D3",
      "velocity": 0.7244094488188977,
      "duration": "142i"
    },
    {
      "time": "17856i",
      "midiNote": 62,
      "noteName": "D4",
      "velocity": 0.7244094488188977,
      "duration": "142i"
    },
    {
      "time": "18000i",
      "midiNote": 50,
      "noteName": "D3",
      "velocity": 0.7244094488188977,
      "duration": "46i"
    },
    {
      "time": "18000i",
      "midiNote": 62,
      "noteName": "D4",
      "velocity": 0.7244094488188977,
      "duration": "46i"
    },
    {
      "time": "18048i",
      "midiNote": 41,
      "noteName": "F2",
      "velocity": 0.7244094488188977,
      "duration": "142i"
    },
    {
      "time": "18192i",
      "midiNote": 41,
      "noteName": "F2",
      "velocity": 0.7244094488188977,
      "duration": "46i"
    },
    {
      "time": "18240i",
      "midiNote": 50,
      "noteName": "D3",
      "velocity": 0.7244094488188977,
      "duration": "142i"
    },
    {
      "time": "18240i",
      "midiNote": 62,
      "noteName": "D4",
      "velocity": 0.7244094488188977,
      "duration": "142i"
    },
    {
      "time": "18384i",
      "midiNote": 50,
      "noteName": "D3",
      "velocity": 0.7244094488188977,
      "duration": "46i"
    },
    {
      "time": "18384i",
      "midiNote": 62,
      "noteName": "D4",
      "velocity": 0.7244094488188977,
      "duration": "46i"
    },
    {
      "time": "18432i",
      "midiNote": 41,
      "noteName": "F2",
      "velocity": 0.7244094488188977,
      "duration": "142i"
    },
    {
      "time": "18576i",
      "midiNote": 41,
      "noteName": "F2",
      "velocity": 0.7244094488188977,
      "duration": "46i"
    },
    {
      "time": "18624i",
      "midiNote": 50,
      "noteName": "D3",
      "velocity": 0.7244094488188977,
      "duration": "142i"
    },
    {
      "time": "18624i",
      "midiNote": 62,
      "noteName": "D4",
      "velocity": 0.7244094488188977,
      "duration": "142i"
    },
    {
      "time": "18768i",
      "midiNote": 50,
      "noteName": "D3",
      "velocity": 0.7244094488188977,
      "duration": "142i"
    },
    {
      "time": "18768i",
      "midiNote": 62,
      "noteName": "D4",
      "velocity": 0.7244094488188977,
      "duration": "142i"
    },
    {
      "time": "18912i",
      "midiNote": 41,
      "noteName": "F2",
      "velocity": 0.7244094488188977,
      "duration": "46i"
    },
    {
      "time": "18960i",
      "midiNote": 50,
      "noteName": "D3",
      "velocity": 0.7244094488188977,
      "duration": "70i"
    },
    {
      "time": "18960i",
      "midiNote": 62,
      "noteName": "D4",
      "velocity": 0.7244094488188977,
      "duration": "70i"
    },
    {
      "time": "19032i",
      "midiNote": 41,
      "noteName": "F2",
      "velocity": 0.7244094488188977,
      "duration": "46i"
    },
    {
      "time": "19080i",
      "midiNote": 50,
      "noteName": "D3",
      "velocity": 0.7244094488188977,
      "duration": "70i"
    },
    {
      "time": "19080i",
      "midiNote": 62,
      "noteName": "D4",
      "velocity": 0.7244094488188977,
      "duration": "70i"
    },
    {
      "time": "19152i",
      "midiNote": 41,
      "noteName": "F2",
      "velocity": 0.7244094488188977,
      "duration": "46i"
    },
    {
      "time": "19200i",
      "midiNote": 41,
      "noteName": "F2",
      "velocity": 0.7244094488188977,
      "duration": "142i"
    },
    {
      "time": "19344i",
      "midiNote": 41,
      "noteName": "F2",
      "velocity": 0.7244094488188977,
      "duration": "46i"
    },
    {
      "time": "19392i",
      "midiNote": 50,
      "noteName": "D3",
      "velocity": 0.7244094488188977,
      "duration": "142i"
    },
    {
      "time": "19392i",
      "midiNote": 62,
      "noteName": "D4",
      "velocity": 0.7244094488188977,
      "duration": "142i"
    },
    {
      "time": "19536i",
      "midiNote": 50,
      "noteName": "D3",
      "velocity": 0.7244094488188977,
      "duration": "46i"
    },
    {
      "time": "19536i",
      "midiNote": 62,
      "noteName": "D4",
      "velocity": 0.7244094488188977,
      "duration": "46i"
    },
    {
      "time": "19584i",
      "midiNote": 41,
      "noteName": "F2",
      "velocity": 0.7244094488188977,
      "duration": "142i"
    },
    {
      "time": "19728i",
      "midiNote": 41,
      "noteName": "F2",
      "velocity": 0.7244094488188977,
      "duration": "46i"
    },
    {
      "time": "19776i",
      "midiNote": 50,
      "noteName": "D3",
      "velocity": 0.7244094488188977,
      "duration": "142i"
    },
    {
      "time": "19776i",
      "midiNote": 62,
      "noteName": "D4",
      "velocity": 0.7244094488188977,
      "duration": "142i"
    },
    {
      "time": "19920i",
      "midiNote": 50,
      "noteName": "D3",
      "velocity": 0.7244094488188977,
      "duration": "46i"
    },
    {
      "time": "19920i",
      "midiNote": 62,
      "noteName": "D4",
      "velocity": 0.7244094488188977,
      "duration": "46i"
    },
    {
      "time": "19968i",
      "midiNote": 41,
      "noteName": "F2",
      "velocity": 0.7244094488188977,
      "duration": "142i"
    },
    {
      "time": "20112i",
      "midiNote": 41,
      "noteName": "F2",
      "velocity": 0.7244094488188977,
      "duration": "46i"
    },
    {
      "time": "20160i",
      "midiNote": 50,
      "noteName": "D3",
      "velocity": 0.7244094488188977,
      "duration": "142i"
    },
    {
      "time": "20160i",
      "midiNote": 62,
      "noteName": "D4",
      "velocity": 0.7244094488188977,
      "duration": "142i"
    },
    {
      "time": "20304i",
      "midiNote": 50,
      "noteName": "D3",
      "velocity": 0.7244094488188977,
      "duration": "142i"
    },
    {
      "time": "20304i",
      "midiNote": 62,
      "noteName": "D4",
      "velocity": 0.7244094488188977,
      "duration": "142i"
    },
    {
      "time": "20448i",
      "midiNote": 41,
      "noteName": "F2",
      "velocity": 0.7244094488188977,
      "duration": "46i"
    },
    {
      "time": "20496i",
      "midiNote": 50,
      "noteName": "D3",
      "velocity": 0.7244094488188977,
      "duration": "70i"
    },
    {
      "time": "20496i",
      "midiNote": 62,
      "noteName": "D4",
      "velocity": 0.7244094488188977,
      "duration": "70i"
    },
    {
      "time": "20568i",
      "midiNote": 41,
      "noteName": "F2",
      "velocity": 0.7244094488188977,
      "duration": "46i"
    },
    {
      "time": "20616i",
      "midiNote": 50,
      "noteName": "D3",
      "velocity": 0.7244094488188977,
      "duration": "70i"
    },
    {
      "time": "20616i",
      "midiNote": 62,
      "noteName": "D4",
      "velocity": 0.7244094488188977,
      "duration": "70i"
    },
    {
      "time": "20688i",
      "midiNote": 41,
      "noteName": "F2",
      "velocity": 0.7244094488188977,
      "duration": "46i"
    },
    {
      "time": "20736i",
      "midiNote": 41,
      "noteName": "F2",
      "velocity": 0.7244094488188977,
      "duration": "142i"
    },
    {
      "time": "20880i",
      "midiNote": 41,
      "noteName": "F2",
      "velocity": 0.7244094488188977,
      "duration": "46i"
    },
    {
      "time": "20928i",
      "midiNote": 50,
      "noteName": "D3",
      "velocity": 0.7244094488188977,
      "duration": "142i"
    },
    {
      "time": "20928i",
      "midiNote": 62,
      "noteName": "D4",
      "velocity": 0.7244094488188977,
      "duration": "142i"
    },
    {
      "time": "21072i",
      "midiNote": 50,
      "noteName": "D3",
      "velocity": 0.7244094488188977,
      "duration": "46i"
    },
    {
      "time": "21072i",
      "midiNote": 62,
      "noteName": "D4",
      "velocity": 0.7244094488188977,
      "duration": "46i"
    },
    {
      "time": "21120i",
      "midiNote": 41,
      "noteName": "F2",
      "velocity": 0.7244094488188977,
      "duration": "142i"
    },
    {
      "time": "21264i",
      "midiNote": 41,
      "noteName": "F2",
      "velocity": 0.7244094488188977,
      "duration": "46i"
    },
    {
      "time": "21312i",
      "midiNote": 50,
      "noteName": "D3",
      "velocity": 0.7244094488188977,
      "duration": "142i"
    },
    {
      "time": "21312i",
      "midiNote": 62,
      "noteName": "D4",
      "velocity": 0.7244094488188977,
      "duration": "142i"
    },
    {
      "time": "21456i",
      "midiNote": 50,
      "noteName": "D3",
      "velocity": 0.7244094488188977,
      "duration": "46i"
    },
    {
      "time": "21456i",
      "midiNote": 62,
      "noteName": "D4",
      "velocity": 0.7244094488188977,
      "duration": "46i"
    },
    {
      "time": "21504i",
      "midiNote": 41,
      "noteName": "F2",
      "velocity": 0.7244094488188977,
      "duration": "142i"
    },
    {
      "time": "21648i",
      "midiNote": 41,
      "noteName": "F2",
      "velocity": 0.7244094488188977,
      "duration": "46i"
    },
    {
      "time": "21696i",
      "midiNote": 50,
      "noteName": "D3",
      "velocity": 0.7244094488188977,
      "duration": "142i"
    },
    {
      "time": "21696i",
      "midiNote": 62,
      "noteName": "D4",
      "velocity": 0.7244094488188977,
      "duration": "142i"
    },
    {
      "time": "21840i",
      "midiNote": 50,
      "noteName": "D3",
      "velocity": 0.7244094488188977,
      "duration": "142i"
    },
    {
      "time": "21840i",
      "midiNote": 62,
      "noteName": "D4",
      "velocity": 0.7244094488188977,
      "duration": "142i"
    },
    {
      "time": "21984i",
      "midiNote": 41,
      "noteName": "F2",
      "velocity": 0.7244094488188977,
      "duration": "46i"
    },
    {
      "time": "22032i",
      "midiNote": 50,
      "noteName": "D3",
      "velocity": 0.7244094488188977,
      "duration": "70i"
    },
    {
      "time": "22032i",
      "midiNote": 62,
      "noteName": "D4",
      "velocity": 0.7244094488188977,
      "duration": "70i"
    },
    {
      "time": "22104i",
      "midiNote": 41,
      "noteName": "F2",
      "velocity": 0.7244094488188977,
      "duration": "46i"
    },
    {
      "time": "22152i",
      "midiNote": 50,
      "noteName": "D3",
      "velocity": 0.7244094488188977,
      "duration": "70i"
    },
    {
      "time": "22152i",
      "midiNote": 62,
      "noteName": "D4",
      "velocity": 0.7244094488188977,
      "duration": "70i"
    },
    {
      "time": "22224i",
      "midiNote": 41,
      "noteName": "F2",
      "velocity": 0.7244094488188977,
      "duration": "46i"
    },
    {
      "time": "22272i",
      "midiNote": 41,
      "noteName": "F2",
      "velocity": 0.7244094488188977,
      "duration": "142i"
    },
    {
      "time": "22416i",
      "midiNote": 41,
      "noteName": "F2",
      "velocity": 0.7244094488188977,
      "duration": "46i"
    },
    {
      "time": "22464i",
      "midiNote": 50,
      "noteName": "D3",
      "velocity": 0.7244094488188977,
      "duration": "142i"
    },
    {
      "time": "22464i",
      "midiNote": 62,
      "noteName": "D4",
      "velocity": 0.7244094488188977,
      "duration": "142i"
    },
    {
      "time": "22608i",
      "midiNote": 50,
      "noteName": "D3",
      "velocity": 0.7244094488188977,
      "duration": "46i"
    },
    {
      "time": "22608i",
      "midiNote": 62,
      "noteName": "D4",
      "velocity": 0.7244094488188977,
      "duration": "46i"
    },
    {
      "time": "22656i",
      "midiNote": 41,
      "noteName": "F2",
      "velocity": 0.7244094488188977,
      "duration": "142i"
    },
    {
      "time": "22800i",
      "midiNote": 41,
      "noteName": "F2",
      "velocity": 0.7244094488188977,
      "duration": "46i"
    },
    {
      "time": "22848i",
      "midiNote": 50,
      "noteName": "D3",
      "velocity": 0.7244094488188977,
      "duration": "142i"
    },
    {
      "time": "22848i",
      "midiNote": 62,
      "noteName": "D4",
      "velocity": 0.7244094488188977,
      "duration": "142i"
    },
    {
      "time": "22992i",
      "midiNote": 50,
      "noteName": "D3",
      "velocity": 0.7244094488188977,
      "duration": "46i"
    },
    {
      "time": "22992i",
      "midiNote": 62,
      "noteName": "D4",
      "velocity": 0.7244094488188977,
      "duration": "46i"
    },
    {
      "time": "23040i",
      "midiNote": 41,
      "noteName": "F2",
      "velocity": 0.7244094488188977,
      "duration": "142i"
    },
    {
      "time": "23184i",
      "midiNote": 41,
      "noteName": "F2",
      "velocity": 0.7244094488188977,
      "duration": "46i"
    },
    {
      "time": "23232i",
      "midiNote": 50,
      "noteName": "D3",
      "velocity": 0.7244094488188977,
      "duration": "142i"
    },
    {
      "time": "23232i",
      "midiNote": 62,
      "noteName": "D4",
      "velocity": 0.7244094488188977,
      "duration": "142i"
    },
    {
      "time": "23376i",
      "midiNote": 50,
      "noteName": "D3",
      "velocity": 0.7244094488188977,
      "duration": "142i"
    },
    {
      "time": "23376i",
      "midiNote": 62,
      "noteName": "D4",
      "velocity": 0.7244094488188977,
      "duration": "142i"
    },
    {
      "time": "23520i",
      "midiNote": 41,
      "noteName": "F2",
      "velocity": 0.7244094488188977,
      "duration": "46i"
    },
    {
      "time": "23568i",
      "midiNote": 50,
      "noteName": "D3",
      "velocity": 0.7244094488188977,
      "duration": "70i"
    },
    {
      "time": "23568i",
      "midiNote": 62,
      "noteName": "D4",
      "velocity": 0.7244094488188977,
      "duration": "70i"
    },
    {
      "time": "23640i",
      "midiNote": 41,
      "noteName": "F2",
      "velocity": 0.7244094488188977,
      "duration": "46i"
    },
    {
      "time": "23688i",
      "midiNote": 50,
      "noteName": "D3",
      "velocity": 0.7244094488188977,
      "duration": "70i"
    },
    {
      "time": "23688i",
      "midiNote": 62,
      "noteName": "D4",
      "velocity": 0.7244094488188977,
      "duration": "70i"
    },
    {
      "time": "23760i",
      "midiNote": 41,
      "noteName": "F2",
      "velocity": 0.7244094488188977,
      "duration": "46i"
    },
    {
      "time": "23808i",
      "midiNote": 41,
      "noteName": "F2",
      "velocity": 0.7244094488188977,
      "duration": "142i"
    },
    {
      "time": "23808i",
      "midiNote": 49,
      "noteName": "C#3",
      "velocity": 0.7244094488188977,
      "duration": "142i"
    },
    {
      "time": "23952i",
      "midiNote": 41,
      "noteName": "F2",
      "velocity": 0.7244094488188977,
      "duration": "46i"
    },
    {
      "time": "24000i",
      "midiNote": 50,
      "noteName": "D3",
      "velocity": 0.7244094488188977,
      "duration": "142i"
    },
    {
      "time": "24000i",
      "midiNote": 62,
      "noteName": "D4",
      "velocity": 0.7244094488188977,
      "duration": "142i"
    },
    {
      "time": "24144i",
      "midiNote": 50,
      "noteName": "D3",
      "velocity": 0.7244094488188977,
      "duration": "46i"
    },
    {
      "time": "24144i",
      "midiNote": 62,
      "noteName": "D4",
      "velocity": 0.7244094488188977,
      "duration": "46i"
    },
    {
      "time": "24192i",
      "midiNote": 41,
      "noteName": "F2",
      "velocity": 0.7244094488188977,
      "duration": "142i"
    },
    {
      "time": "24336i",
      "midiNote": 41,
      "noteName": "F2",
      "velocity": 0.7244094488188977,
      "duration": "46i"
    },
    {
      "time": "24384i",
      "midiNote": 50,
      "noteName": "D3",
      "velocity": 0.7244094488188977,
      "duration": "142i"
    },
    {
      "time": "24384i",
      "midiNote": 62,
      "noteName": "D4",
      "velocity": 0.7244094488188977,
      "duration": "142i"
    },
    {
      "time": "24528i",
      "midiNote": 50,
      "noteName": "D3",
      "velocity": 0.7244094488188977,
      "duration": "46i"
    },
    {
      "time": "24528i",
      "midiNote": 62,
      "noteName": "D4",
      "velocity": 0.7244094488188977,
      "duration": "46i"
    },
    {
      "time": "24576i",
      "midiNote": 41,
      "noteName": "F2",
      "velocity": 0.7244094488188977,
      "duration": "142i"
    },
    {
      "time": "24720i",
      "midiNote": 41,
      "noteName": "F2",
      "velocity": 0.7244094488188977,
      "duration": "46i"
    },
    {
      "time": "24768i",
      "midiNote": 50,
      "noteName": "D3",
      "velocity": 0.7244094488188977,
      "duration": "142i"
    },
    {
      "time": "24768i",
      "midiNote": 62,
      "noteName": "D4",
      "velocity": 0.7244094488188977,
      "duration": "142i"
    },
    {
      "time": "24912i",
      "midiNote": 50,
      "noteName": "D3",
      "velocity": 0.7244094488188977,
      "duration": "142i"
    },
    {
      "time": "24912i",
      "midiNote": 62,
      "noteName": "D4",
      "velocity": 0.7244094488188977,
      "duration": "142i"
    },
    {
      "time": "25056i",
      "midiNote": 41,
      "noteName": "F2",
      "velocity": 0.7244094488188977,
      "duration": "46i"
    },
    {
      "time": "25104i",
      "midiNote": 50,
      "noteName": "D3",
      "velocity": 0.7244094488188977,
      "duration": "70i"
    },
    {
      "time": "25104i",
      "midiNote": 62,
      "noteName": "D4",
      "velocity": 0.7244094488188977,
      "duration": "70i"
    },
    {
      "time": "25176i",
      "midiNote": 41,
      "noteName": "F2",
      "velocity": 0.7244094488188977,
      "duration": "46i"
    },
    {
      "time": "25224i",
      "midiNote": 50,
      "noteName": "D3",
      "velocity": 0.7244094488188977,
      "duration": "70i"
    },
    {
      "time": "25224i",
      "midiNote": 62,
      "noteName": "D4",
      "velocity": 0.7244094488188977,
      "duration": "70i"
    },
    {
      "time": "25296i",
      "midiNote": 41,
      "noteName": "F2",
      "velocity": 0.7244094488188977,
      "duration": "46i"
    },
    {
      "time": "25344i",
      "midiNote": 41,
      "noteName": "F2",
      "velocity": 0.7244094488188977,
      "duration": "142i"
    },
    {
      "time": "25488i",
      "midiNote": 41,
      "noteName": "F2",
      "velocity": 0.7244094488188977,
      "duration": "46i"
    },
    {
      "time": "25536i",
      "midiNote": 50,
      "noteName": "D3",
      "velocity": 0.7244094488188977,
      "duration": "142i"
    },
    {
      "time": "25536i",
      "midiNote": 62,
      "noteName": "D4",
      "velocity": 0.7244094488188977,
      "duration": "142i"
    },
    {
      "time": "25680i",
      "midiNote": 50,
      "noteName": "D3",
      "velocity": 0.7244094488188977,
      "duration": "46i"
    },
    {
      "time": "25680i",
      "midiNote": 62,
      "noteName": "D4",
      "velocity": 0.7244094488188977,
      "duration": "46i"
    },
    {
      "time": "25728i",
      "midiNote": 41,
      "noteName": "F2",
      "velocity": 0.7244094488188977,
      "duration": "142i"
    },
    {
      "time": "25872i",
      "midiNote": 41,
      "noteName": "F2",
      "velocity": 0.7244094488188977,
      "duration": "46i"
    },
    {
      "time": "25920i",
      "midiNote": 50,
      "noteName": "D3",
      "velocity": 0.7244094488188977,
      "duration": "142i"
    },
    {
      "time": "25920i",
      "midiNote": 62,
      "noteName": "D4",
      "velocity": 0.7244094488188977,
      "duration": "142i"
    },
    {
      "time": "26064i",
      "midiNote": 50,
      "noteName": "D3",
      "velocity": 0.7244094488188977,
      "duration": "46i"
    },
    {
      "time": "26064i",
      "midiNote": 62,
      "noteName": "D4",
      "velocity": 0.7244094488188977,
      "duration": "46i"
    },
    {
      "time": "26112i",
      "midiNote": 41,
      "noteName": "F2",
      "velocity": 0.7244094488188977,
      "duration": "142i"
    },
    {
      "time": "26256i",
      "midiNote": 41,
      "noteName": "F2",
      "velocity": 0.7244094488188977,
      "duration": "46i"
    },
    {
      "time": "26304i",
      "midiNote": 50,
      "noteName": "D3",
      "velocity": 0.7244094488188977,
      "duration": "142i"
    },
    {
      "time": "26304i",
      "midiNote": 62,
      "noteName": "D4",
      "velocity": 0.7244094488188977,
      "duration": "142i"
    },
    {
      "time": "26448i",
      "midiNote": 50,
      "noteName": "D3",
      "velocity": 0.7244094488188977,
      "duration": "142i"
    },
    {
      "time": "26448i",
      "midiNote": 62,
      "noteName": "D4",
      "velocity": 0.7244094488188977,
      "duration": "142i"
    },
    {
      "time": "26592i",
      "midiNote": 41,
      "noteName": "F2",
      "velocity": 0.7244094488188977,
      "duration": "46i"
    },
    {
      "time": "26640i",
      "midiNote": 50,
      "noteName": "D3",
      "velocity": 0.7244094488188977,
      "duration": "70i"
    },
    {
      "time": "26640i",
      "midiNote": 62,
      "noteName": "D4",
      "velocity": 0.7244094488188977,
      "duration": "70i"
    },
    {
      "time": "26712i",
      "midiNote": 41,
      "noteName": "F2",
      "velocity": 0.7244094488188977,
      "duration": "46i"
    },
    {
      "time": "26760i",
      "midiNote": 50,
      "noteName": "D3",
      "velocity": 0.7244094488188977,
      "duration": "70i"
    },
    {
      "time": "26760i",
      "midiNote": 62,
      "noteName": "D4",
      "velocity": 0.7244094488188977,
      "duration": "70i"
    },
    {
      "time": "26832i",
      "midiNote": 41,
      "noteName": "F2",
      "velocity": 0.7244094488188977,
      "duration": "46i"
    },
    {
      "time": "26880i",
      "midiNote": 41,
      "noteName": "F2",
      "velocity": 0.7244094488188977,
      "duration": "142i"
    },
    {
      "time": "27024i",
      "midiNote": 41,
      "noteName": "F2",
      "velocity": 0.7244094488188977,
      "duration": "46i"
    },
    {
      "time": "27072i",
      "midiNote": 50,
      "noteName": "D3",
      "velocity": 0.7244094488188977,
      "duration": "142i"
    },
    {
      "time": "27072i",
      "midiNote": 62,
      "noteName": "D4",
      "velocity": 0.7244094488188977,
      "duration": "142i"
    },
    {
      "time": "27216i",
      "midiNote": 50,
      "noteName": "D3",
      "velocity": 0.7244094488188977,
      "duration": "46i"
    },
    {
      "time": "27216i",
      "midiNote": 62,
      "noteName": "D4",
      "velocity": 0.7244094488188977,
      "duration": "46i"
    },
    {
      "time": "27264i",
      "midiNote": 41,
      "noteName": "F2",
      "velocity": 0.7244094488188977,
      "duration": "142i"
    },
    {
      "time": "27408i",
      "midiNote": 41,
      "noteName": "F2",
      "velocity": 0.7244094488188977,
      "duration": "46i"
    },
    {
      "time": "27456i",
      "midiNote": 50,
      "noteName": "D3",
      "velocity": 0.7244094488188977,
      "duration": "142i"
    },
    {
      "time": "27456i",
      "midiNote": 62,
      "noteName": "D4",
      "velocity": 0.7244094488188977,
      "duration": "142i"
    },
    {
      "time": "27600i",
      "midiNote": 50,
      "noteName": "D3",
      "velocity": 0.7244094488188977,
      "duration": "46i"
    },
    {
      "time": "27600i",
      "midiNote": 62,
      "noteName": "D4",
      "velocity": 0.7244094488188977,
      "duration": "46i"
    },
    {
      "time": "27648i",
      "midiNote": 41,
      "noteName": "F2",
      "velocity": 0.7244094488188977,
      "duration": "142i"
    },
    {
      "time": "27792i",
      "midiNote": 41,
      "noteName": "F2",
      "velocity": 0.7244094488188977,
      "duration": "46i"
    },
    {
      "time": "27840i",
      "midiNote": 50,
      "noteName": "D3",
      "velocity": 0.7244094488188977,
      "duration": "142i"
    },
    {
      "time": "27840i",
      "midiNote": 62,
      "noteName": "D4",
      "velocity": 0.7244094488188977,
      "duration": "142i"
    },
    {
      "time": "27984i",
      "midiNote": 50,
      "noteName": "D3",
      "velocity": 0.7244094488188977,
      "duration": "142i"
    },
    {
      "time": "27984i",
      "midiNote": 62,
      "noteName": "D4",
      "velocity": 0.7244094488188977,
      "duration": "142i"
    },
    {
      "time": "28128i",
      "midiNote": 41,
      "noteName": "F2",
      "velocity": 0.7244094488188977,
      "duration": "46i"
    },
    {
      "time": "28176i",
      "midiNote": 50,
      "noteName": "D3",
      "velocity": 0.7244094488188977,
      "duration": "70i"
    },
    {
      "time": "28176i",
      "midiNote": 62,
      "noteName": "D4",
      "velocity": 0.7244094488188977,
      "duration": "70i"
    },
    {
      "time": "28248i",
      "midiNote": 41,
      "noteName": "F2",
      "velocity": 0.7244094488188977,
      "duration": "46i"
    },
    {
      "time": "28296i",
      "midiNote": 50,
      "noteName": "D3",
      "velocity": 0.7244094488188977,
      "duration": "70i"
    },
    {
      "time": "28296i",
      "midiNote": 62,
      "noteName": "D4",
      "velocity": 0.7244094488188977,
      "duration": "70i"
    },
    {
      "time": "28368i",
      "midiNote": 41,
      "noteName": "F2",
      "velocity": 0.7244094488188977,
      "duration": "46i"
    },
    {
      "time": "28416i",
      "midiNote": 41,
      "noteName": "F2",
      "velocity": 0.7244094488188977,
      "duration": "142i"
    },
    {
      "time": "28560i",
      "midiNote": 41,
      "noteName": "F2",
      "velocity": 0.7244094488188977,
      "duration": "46i"
    },
    {
      "time": "28608i",
      "midiNote": 50,
      "noteName": "D3",
      "velocity": 0.7244094488188977,
      "duration": "142i"
    },
    {
      "time": "28608i",
      "midiNote": 62,
      "noteName": "D4",
      "velocity": 0.7244094488188977,
      "duration": "142i"
    },
    {
      "time": "28752i",
      "midiNote": 50,
      "noteName": "D3",
      "velocity": 0.7244094488188977,
      "duration": "46i"
    },
    {
      "time": "28752i",
      "midiNote": 62,
      "noteName": "D4",
      "velocity": 0.7244094488188977,
      "duration": "46i"
    },
    {
      "time": "28800i",
      "midiNote": 41,
      "noteName": "F2",
      "velocity": 0.7244094488188977,
      "duration": "142i"
    },
    {
      "time": "28944i",
      "midiNote": 41,
      "noteName": "F2",
      "velocity": 0.7244094488188977,
      "duration": "46i"
    },
    {
      "time": "28992i",
      "midiNote": 50,
      "noteName": "D3",
      "velocity": 0.7244094488188977,
      "duration": "142i"
    },
    {
      "time": "28992i",
      "midiNote": 62,
      "noteName": "D4",
      "velocity": 0.7244094488188977,
      "duration": "142i"
    },
    {
      "time": "29136i",
      "midiNote": 50,
      "noteName": "D3",
      "velocity": 0.7244094488188977,
      "duration": "46i"
    },
    {
      "time": "29136i",
      "midiNote": 62,
      "noteName": "D4",
      "velocity": 0.7244094488188977,
      "duration": "46i"
    },
    {
      "time": "29184i",
      "midiNote": 41,
      "noteName": "F2",
      "velocity": 0.7244094488188977,
      "duration": "142i"
    },
    {
      "time": "29328i",
      "midiNote": 41,
      "noteName": "F2",
      "velocity": 0.7244094488188977,
      "duration": "46i"
    },
    {
      "time": "29376i",
      "midiNote": 50,
      "noteName": "D3",
      "velocity": 0.7244094488188977,
      "duration": "142i"
    },
    {
      "time": "29376i",
      "midiNote": 62,
      "noteName": "D4",
      "velocity": 0.7244094488188977,
      "duration": "142i"
    },
    {
      "time": "29520i",
      "midiNote": 50,
      "noteName": "D3",
      "velocity": 0.7244094488188977,
      "duration": "142i"
    },
    {
      "time": "29520i",
      "midiNote": 62,
      "noteName": "D4",
      "velocity": 0.7244094488188977,
      "duration": "142i"
    },
    {
      "time": "29664i",
      "midiNote": 41,
      "noteName": "F2",
      "velocity": 0.7244094488188977,
      "duration": "46i"
    },
    {
      "time": "29712i",
      "midiNote": 50,
      "noteName": "D3",
      "velocity": 0.7244094488188977,
      "duration": "70i"
    },
    {
      "time": "29712i",
      "midiNote": 62,
      "noteName": "D4",
      "velocity": 0.7244094488188977,
      "duration": "70i"
    },
    {
      "time": "29784i",
      "midiNote": 41,
      "noteName": "F2",
      "velocity": 0.7244094488188977,
      "duration": "46i"
    },
    {
      "time": "29832i",
      "midiNote": 50,
      "noteName": "D3",
      "velocity": 0.7244094488188977,
      "duration": "70i"
    },
    {
      "time": "29832i",
      "midiNote": 62,
      "noteName": "D4",
      "velocity": 0.7244094488188977,
      "duration": "70i"
    },
    {
      "time": "29904i",
      "midiNote": 41,
      "noteName": "F2",
      "velocity": 0.7244094488188977,
      "duration": "46i"
    },
    {
      "time": "29952i",
      "midiNote": 41,
      "noteName": "F2",
      "velocity": 0.7244094488188977,
      "duration": "142i"
    },
    {
      "time": "30096i",
      "midiNote": 41,
      "noteName": "F2",
      "velocity": 0.7244094488188977,
      "duration": "46i"
    },
    {
      "time": "30144i",
      "midiNote": 50,
      "noteName": "D3",
      "velocity": 0.7244094488188977,
      "duration": "142i"
    },
    {
      "time": "30144i",
      "midiNote": 62,
      "noteName": "D4",
      "velocity": 0.7244094488188977,
      "duration": "142i"
    },
    {
      "time": "30288i",
      "midiNote": 50,
      "noteName": "D3",
      "velocity": 0.7244094488188977,
      "duration": "46i"
    },
    {
      "time": "30288i",
      "midiNote": 62,
      "noteName": "D4",
      "velocity": 0.7244094488188977,
      "duration": "46i"
    },
    {
      "time": "30336i",
      "midiNote": 41,
      "noteName": "F2",
      "velocity": 0.7244094488188977,
      "duration": "142i"
    },
    {
      "time": "30480i",
      "midiNote": 41,
      "noteName": "F2",
      "velocity": 0.7244094488188977,
      "duration": "46i"
    },
    {
      "time": "30528i",
      "midiNote": 50,
      "noteName": "D3",
      "velocity": 0.7244094488188977,
      "duration": "142i"
    },
    {
      "time": "30528i",
      "midiNote": 62,
      "noteName": "D4",
      "velocity": 0.7244094488188977,
      "duration": "142i"
    },
    {
      "time": "30672i",
      "midiNote": 50,
      "noteName": "D3",
      "velocity": 0.7244094488188977,
      "duration": "46i"
    },
    {
      "time": "30672i",
      "midiNote": 62,
      "noteName": "D4",
      "velocity": 0.7244094488188977,
      "duration": "46i"
    },
    {
      "time": "30720i",
      "midiNote": 41,
      "noteName": "F2",
      "velocity": 0.7244094488188977,
      "duration": "142i"
    },
    {
      "time": "30864i",
      "midiNote": 41,
      "noteName": "F2",
      "velocity": 0.7244094488188977,
      "duration": "46i"
    },
    {
      "time": "30912i",
      "midiNote": 50,
      "noteName": "D3",
      "velocity": 0.7244094488188977,
      "duration": "142i"
    },
    {
      "time": "30912i",
      "midiNote": 62,
      "noteName": "D4",
      "velocity": 0.7244094488188977,
      "duration": "142i"
    },
    {
      "time": "31056i",
      "midiNote": 50,
      "noteName": "D3",
      "velocity": 0.7244094488188977,
      "duration": "46i"
    },
    {
      "time": "31056i",
      "midiNote": 62,
      "noteName": "D4",
      "velocity": 0.7244094488188977,
      "duration": "46i"
    },
    {
      "time": "31104i",
      "midiNote": 41,
      "noteName": "F2",
      "velocity": 0.8503937007874016,
      "duration": "62i"
    },
    {
      "time": "31168i",
      "midiNote": 41,
      "noteName": "F2",
      "velocity": 0.8503937007874016,
      "duration": "62i"
    },
    {
      "time": "31232i",
      "midiNote": 41,
      "noteName": "F2",
      "velocity": 0.8503937007874016,
      "duration": "62i"
    },
    {
      "time": "31296i",
      "midiNote": 41,
      "noteName": "F2",
      "velocity": 0.8503937007874016,
      "duration": "62i"
    },
    {
      "time": "31360i",
      "midiNote": 41,
      "noteName": "F2",
      "velocity": 0.8503937007874016,
      "duration": "62i"
    },
    {
      "time": "31424i",
      "midiNote": 41,
      "noteName": "F2",
      "velocity": 0.8503937007874016,
      "duration": "62i"
    },
    {
      "time": "31488i",
      "midiNote": 41,
      "noteName": "F2",
      "velocity": 0.7244094488188977,
      "duration": "160i"
    },
    {
      "time": "31680i",
      "midiNote": 49,
      "noteName": "C#3",
      "velocity": 0.7244094488188977,
      "duration": "160i"
    },
    {
      "time": "32760i",
      "midiNote": 41,
      "noteName": "F2",
      "velocity": 0.7244094488188977,
      "duration": "160i"
    },
    {
      "time": "32952i",
      "midiNote": 49,
      "noteName": "C#3",
      "velocity": 0.7244094488188977,
      "duration": "190i"
    },
    {
      "time": "34080i",
      "midiNote": 41,
      "noteName": "F2",
      "velocity": 0.7244094488188977,
      "duration": "142i"
    },
    {
      "time": "34224i",
      "midiNote": 41,
      "noteName": "F2",
      "velocity": 0.7244094488188977,
      "duration": "46i"
    },
    {
      "time": "34272i",
      "midiNote": 50,
      "noteName": "D3",
      "velocity": 0.7244094488188977,
      "duration": "142i"
    },
    {
      "time": "34272i",
      "midiNote": 62,
      "noteName": "D4",
      "velocity": 0.7244094488188977,
      "duration": "142i"
    },
    {
      "time": "34416i",
      "midiNote": 50,
      "noteName": "D3",
      "velocity": 0.7244094488188977,
      "duration": "46i"
    },
    {
      "time": "34416i",
      "midiNote": 62,
      "noteName": "D4",
      "velocity": 0.7244094488188977,
      "duration": "46i"
    },
    {
      "time": "34464i",
      "midiNote": 41,
      "noteName": "F2",
      "velocity": 0.7244094488188977,
      "duration": "142i"
    },
    {
      "time": "34608i",
      "midiNote": 41,
      "noteName": "F2",
      "velocity": 0.7244094488188977,
      "duration": "46i"
    },
    {
      "time": "34656i",
      "midiNote": 50,
      "noteName": "D3",
      "velocity": 0.7244094488188977,
      "duration": "142i"
    },
    {
      "time": "34656i",
      "midiNote": 62,
      "noteName": "D4",
      "velocity": 0.7244094488188977,
      "duration": "142i"
    },
    {
      "time": "34800i",
      "midiNote": 50,
      "noteName": "D3",
      "velocity": 0.7244094488188977,
      "duration": "46i"
    },
    {
      "time": "34800i",
      "midiNote": 62,
      "noteName": "D4",
      "velocity": 0.7244094488188977,
      "duration": "46i"
    },
    {
      "time": "34848i",
      "midiNote": 41,
      "noteName": "F2",
      "velocity": 0.7244094488188977,
      "duration": "142i"
    },
    {
      "time": "34992i",
      "midiNote": 41,
      "noteName": "F2",
      "velocity": 0.7244094488188977,
      "duration": "46i"
    },
    {
      "time": "35040i",
      "midiNote": 50,
      "noteName": "D3",
      "velocity": 0.7244094488188977,
      "duration": "142i"
    },
    {
      "time": "35040i",
      "midiNote": 62,
      "noteName": "D4",
      "velocity": 0.7244094488188977,
      "duration": "142i"
    },
    {
      "time": "35184i",
      "midiNote": 50,
      "noteName": "D3",
      "velocity": 0.7244094488188977,
      "duration": "142i"
    },
    {
      "time": "35184i",
      "midiNote": 62,
      "noteName": "D4",
      "velocity": 0.7244094488188977,
      "duration": "142i"
    },
    {
      "time": "35328i",
      "midiNote": 41,
      "noteName": "F2",
      "velocity": 0.7244094488188977,
      "duration": "46i"
    },
    {
      "time": "35376i",
      "midiNote": 50,
      "noteName": "D3",
      "velocity": 0.7244094488188977,
      "duration": "70i"
    },
    {
      "time": "35376i",
      "midiNote": 62,
      "noteName": "D4",
      "velocity": 0.7244094488188977,
      "duration": "70i"
    },
    {
      "time": "35448i",
      "midiNote": 41,
      "noteName": "F2",
      "velocity": 0.7244094488188977,
      "duration": "46i"
    },
    {
      "time": "35496i",
      "midiNote": 50,
      "noteName": "D3",
      "velocity": 0.7244094488188977,
      "duration": "70i"
    },
    {
      "time": "35496i",
      "midiNote": 62,
      "noteName": "D4",
      "velocity": 0.7244094488188977,
      "duration": "70i"
    },
    {
      "time": "35568i",
      "midiNote": 41,
      "noteName": "F2",
      "velocity": 0.7244094488188977,
      "duration": "46i"
    },
    {
      "time": "35616i",
      "midiNote": 41,
      "noteName": "F2",
      "velocity": 0.7244094488188977,
      "duration": "142i"
    },
    {
      "time": "35760i",
      "midiNote": 41,
      "noteName": "F2",
      "velocity": 0.7244094488188977,
      "duration": "46i"
    },
    {
      "time": "35808i",
      "midiNote": 50,
      "noteName": "D3",
      "velocity": 0.7244094488188977,
      "duration": "142i"
    },
    {
      "time": "35808i",
      "midiNote": 62,
      "noteName": "D4",
      "velocity": 0.7244094488188977,
      "duration": "142i"
    },
    {
      "time": "35952i",
      "midiNote": 50,
      "noteName": "D3",
      "velocity": 0.7244094488188977,
      "duration": "46i"
    },
    {
      "time": "35952i",
      "midiNote": 62,
      "noteName": "D4",
      "velocity": 0.7244094488188977,
      "duration": "46i"
    },
    {
      "time": "36000i",
      "midiNote": 41,
      "noteName": "F2",
      "velocity": 0.7244094488188977,
      "duration": "142i"
    },
    {
      "time": "36144i",
      "midiNote": 41,
      "noteName": "F2",
      "velocity": 0.7244094488188977,
      "duration": "46i"
    },
    {
      "time": "36192i",
      "midiNote": 50,
      "noteName": "D3",
      "velocity": 0.7244094488188977,
      "duration": "142i"
    },
    {
      "time": "36192i",
      "midiNote": 62,
      "noteName": "D4",
      "velocity": 0.7244094488188977,
      "duration": "142i"
    },
    {
      "time": "36336i",
      "midiNote": 50,
      "noteName": "D3",
      "velocity": 0.7244094488188977,
      "duration": "46i"
    },
    {
      "time": "36336i",
      "midiNote": 62,
      "noteName": "D4",
      "velocity": 0.7244094488188977,
      "duration": "46i"
    },
    {
      "time": "36384i",
      "midiNote": 41,
      "noteName": "F2",
      "velocity": 0.7244094488188977,
      "duration": "142i"
    },
    {
      "time": "36528i",
      "midiNote": 41,
      "noteName": "F2",
      "velocity": 0.7244094488188977,
      "duration": "46i"
    },
    {
      "time": "36576i",
      "midiNote": 50,
      "noteName": "D3",
      "velocity": 0.7244094488188977,
      "duration": "142i"
    },
    {
      "time": "36576i",
      "midiNote": 62,
      "noteName": "D4",
      "velocity": 0.7244094488188977,
      "duration": "142i"
    },
    {
      "time": "36720i",
      "midiNote": 50,
      "noteName": "D3",
      "velocity": 0.7244094488188977,
      "duration": "142i"
    },
    {
      "time": "36720i",
      "midiNote": 62,
      "noteName": "D4",
      "velocity": 0.7244094488188977,
      "duration": "142i"
    },
    {
      "time": "36864i",
      "midiNote": 41,
      "noteName": "F2",
      "velocity": 0.7244094488188977,
      "duration": "46i"
    },
    {
      "time": "36912i",
      "midiNote": 50,
      "noteName": "D3",
      "velocity": 0.7244094488188977,
      "duration": "70i"
    },
    {
      "time": "36912i",
      "midiNote": 62,
      "noteName": "D4",
      "velocity": 0.7244094488188977,
      "duration": "70i"
    },
    {
      "time": "36984i",
      "midiNote": 41,
      "noteName": "F2",
      "velocity": 0.7244094488188977,
      "duration": "46i"
    },
    {
      "time": "37032i",
      "midiNote": 50,
      "noteName": "D3",
      "velocity": 0.7244094488188977,
      "duration": "70i"
    },
    {
      "time": "37032i",
      "midiNote": 62,
      "noteName": "D4",
      "velocity": 0.7244094488188977,
      "duration": "70i"
    },
    {
      "time": "37104i",
      "midiNote": 41,
      "noteName": "F2",
      "velocity": 0.7244094488188977,
      "duration": "46i"
    },
    {
      "time": "37152i",
      "midiNote": 41,
      "noteName": "F2",
      "velocity": 0.7244094488188977,
      "duration": "142i"
    },
    {
      "time": "37296i",
      "midiNote": 41,
      "noteName": "F2",
      "velocity": 0.7244094488188977,
      "duration": "46i"
    },
    {
      "time": "37344i",
      "midiNote": 50,
      "noteName": "D3",
      "velocity": 0.7244094488188977,
      "duration": "142i"
    },
    {
      "time": "37344i",
      "midiNote": 62,
      "noteName": "D4",
      "velocity": 0.7244094488188977,
      "duration": "142i"
    },
    {
      "time": "37488i",
      "midiNote": 50,
      "noteName": "D3",
      "velocity": 0.7244094488188977,
      "duration": "46i"
    },
    {
      "time": "37488i",
      "midiNote": 62,
      "noteName": "D4",
      "velocity": 0.7244094488188977,
      "duration": "46i"
    },
    {
      "time": "37536i",
      "midiNote": 41,
      "noteName": "F2",
      "velocity": 0.7244094488188977,
      "duration": "142i"
    },
    {
      "time": "37680i",
      "midiNote": 41,
      "noteName": "F2",
      "velocity": 0.7244094488188977,
      "duration": "46i"
    },
    {
      "time": "37728i",
      "midiNote": 50,
      "noteName": "D3",
      "velocity": 0.7244094488188977,
      "duration": "142i"
    },
    {
      "time": "37728i",
      "midiNote": 62,
      "noteName": "D4",
      "velocity": 0.7244094488188977,
      "duration": "142i"
    },
    {
      "time": "37872i",
      "midiNote": 50,
      "noteName": "D3",
      "velocity": 0.7244094488188977,
      "duration": "46i"
    },
    {
      "time": "37872i",
      "midiNote": 62,
      "noteName": "D4",
      "velocity": 0.7244094488188977,
      "duration": "46i"
    },
    {
      "time": "37920i",
      "midiNote": 41,
      "noteName": "F2",
      "velocity": 0.7244094488188977,
      "duration": "142i"
    },
    {
      "time": "38064i",
      "midiNote": 41,
      "noteName": "F2",
      "velocity": 0.7244094488188977,
      "duration": "46i"
    },
    {
      "time": "38112i",
      "midiNote": 50,
      "noteName": "D3",
      "velocity": 0.7244094488188977,
      "duration": "142i"
    },
    {
      "time": "38112i",
      "midiNote": 62,
      "noteName": "D4",
      "velocity": 0.7244094488188977,
      "duration": "142i"
    },
    {
      "time": "38256i",
      "midiNote": 50,
      "noteName": "D3",
      "velocity": 0.7244094488188977,
      "duration": "142i"
    },
    {
      "time": "38256i",
      "midiNote": 62,
      "noteName": "D4",
      "velocity": 0.7244094488188977,
      "duration": "142i"
    },
    {
      "time": "38400i",
      "midiNote": 41,
      "noteName": "F2",
      "velocity": 0.7244094488188977,
      "duration": "46i"
    },
    {
      "time": "38448i",
      "midiNote": 50,
      "noteName": "D3",
      "velocity": 0.7244094488188977,
      "duration": "70i"
    },
    {
      "time": "38448i",
      "midiNote": 62,
      "noteName": "D4",
      "velocity": 0.7244094488188977,
      "duration": "70i"
    },
    {
      "time": "38520i",
      "midiNote": 41,
      "noteName": "F2",
      "velocity": 0.7244094488188977,
      "duration": "46i"
    },
    {
      "time": "38568i",
      "midiNote": 50,
      "noteName": "D3",
      "velocity": 0.7244094488188977,
      "duration": "70i"
    },
    {
      "time": "38568i",
      "midiNote": 62,
      "noteName": "D4",
      "velocity": 0.7244094488188977,
      "duration": "70i"
    },
    {
      "time": "38640i",
      "midiNote": 41,
      "noteName": "F2",
      "velocity": 0.7244094488188977,
      "duration": "46i"
    },
    {
      "time": "38688i",
      "midiNote": 41,
      "noteName": "F2",
      "velocity": 0.7244094488188977,
      "duration": "142i"
    },
    {
      "time": "38832i",
      "midiNote": 41,
      "noteName": "F2",
      "velocity": 0.7244094488188977,
      "duration": "46i"
    },
    {
      "time": "38880i",
      "midiNote": 50,
      "noteName": "D3",
      "velocity": 0.7244094488188977,
      "duration": "142i"
    },
    {
      "time": "38880i",
      "midiNote": 62,
      "noteName": "D4",
      "velocity": 0.7244094488188977,
      "duration": "142i"
    },
    {
      "time": "39024i",
      "midiNote": 50,
      "noteName": "D3",
      "velocity": 0.7244094488188977,
      "duration": "46i"
    },
    {
      "time": "39024i",
      "midiNote": 62,
      "noteName": "D4",
      "velocity": 0.7244094488188977,
      "duration": "46i"
    },
    {
      "time": "39072i",
      "midiNote": 41,
      "noteName": "F2",
      "velocity": 0.7244094488188977,
      "duration": "142i"
    },
    {
      "time": "39216i",
      "midiNote": 41,
      "noteName": "F2",
      "velocity": 0.7244094488188977,
      "duration": "46i"
    },
    {
      "time": "39264i",
      "midiNote": 50,
      "noteName": "D3",
      "velocity": 0.7244094488188977,
      "duration": "142i"
    },
    {
      "time": "39264i",
      "midiNote": 62,
      "noteName": "D4",
      "velocity": 0.7244094488188977,
      "duration": "142i"
    },
    {
      "time": "39408i",
      "midiNote": 50,
      "noteName": "D3",
      "velocity": 0.7244094488188977,
      "duration": "46i"
    },
    {
      "time": "39408i",
      "midiNote": 62,
      "noteName": "D4",
      "velocity": 0.7244094488188977,
      "duration": "46i"
    },
    {
      "time": "39456i",
      "midiNote": 41,
      "noteName": "F2",
      "velocity": 0.7244094488188977,
      "duration": "142i"
    },
    {
      "time": "39600i",
      "midiNote": 41,
      "noteName": "F2",
      "velocity": 0.7244094488188977,
      "duration": "46i"
    },
    {
      "time": "39648i",
      "midiNote": 50,
      "noteName": "D3",
      "velocity": 0.7244094488188977,
      "duration": "142i"
    },
    {
      "time": "39648i",
      "midiNote": 62,
      "noteName": "D4",
      "velocity": 0.7244094488188977,
      "duration": "142i"
    },
    {
      "time": "39792i",
      "midiNote": 50,
      "noteName": "D3",
      "velocity": 0.7244094488188977,
      "duration": "46i"
    },
    {
      "time": "39792i",
      "midiNote": 62,
      "noteName": "D4",
      "velocity": 0.7244094488188977,
      "duration": "46i"
    },
    {
      "time": "39840i",
      "midiNote": 41,
      "noteName": "F2",
      "velocity": 0.8503937007874016,
      "duration": "62i"
    },
    {
      "time": "39904i",
      "midiNote": 41,
      "noteName": "F2",
      "velocity": 0.8503937007874016,
      "duration": "62i"
    },
    {
      "time": "39968i",
      "midiNote": 41,
      "noteName": "F2",
      "velocity": 0.8503937007874016,
      "duration": "62i"
    },
    {
      "time": "40032i",
      "midiNote": 41,
      "noteName": "F2",
      "velocity": 0.8503937007874016,
      "duration": "62i"
    },
    {
      "time": "40096i",
      "midiNote": 41,
      "noteName": "F2",
      "velocity": 0.8503937007874016,
      "duration": "62i"
    },
    {
      "time": "40160i",
      "midiNote": 41,
      "noteName": "F2",
      "velocity": 0.8503937007874016,
      "duration": "62i"
    },
    {
      "time": "40224i",
      "midiNote": 41,
      "noteName": "F2",
      "velocity": 0.7244094488188977,
      "duration": "160i"
    },
    {
      "time": "40416i",
      "midiNote": 49,
      "noteName": "C#3",
      "velocity": 0.7244094488188977,
      "duration": "160i"
    },
    {
      "time": "41496i",
      "midiNote": 41,
      "noteName": "F2",
      "velocity": 0.7244094488188977,
      "duration": "160i"
    },
    {
      "time": "41688i",
      "midiNote": 49,
      "noteName": "C#3",
      "velocity": 0.7244094488188977,
      "duration": "190i"
    },
    {
      "time": "42816i",
      "midiNote": 41,
      "noteName": "F2",
      "velocity": 0.7244094488188977,
      "duration": "142i"
    },
    {
      "time": "42960i",
      "midiNote": 41,
      "noteName": "F2",
      "velocity": 0.7244094488188977,
      "duration": "46i"
    },
    {
      "time": "43008i",
      "midiNote": 50,
      "noteName": "D3",
      "velocity": 0.7244094488188977,
      "duration": "142i"
    },
    {
      "time": "43008i",
      "midiNote": 62,
      "noteName": "D4",
      "velocity": 0.7244094488188977,
      "duration": "142i"
    },
    {
      "time": "43152i",
      "midiNote": 50,
      "noteName": "D3",
      "velocity": 0.7244094488188977,
      "duration": "46i"
    },
    {
      "time": "43152i",
      "midiNote": 62,
      "noteName": "D4",
      "velocity": 0.7244094488188977,
      "duration": "46i"
    },
    {
      "time": "43200i",
      "midiNote": 41,
      "noteName": "F2",
      "velocity": 0.7244094488188977,
      "duration": "142i"
    },
    {
      "time": "43344i",
      "midiNote": 41,
      "noteName": "F2",
      "velocity": 0.7244094488188977,
      "duration": "46i"
    },
    {
      "time": "43392i",
      "midiNote": 50,
      "noteName": "D3",
      "velocity": 0.7244094488188977,
      "duration": "142i"
    },
    {
      "time": "43392i",
      "midiNote": 62,
      "noteName": "D4",
      "velocity": 0.7244094488188977,
      "duration": "142i"
    },
    {
      "time": "43536i",
      "midiNote": 50,
      "noteName": "D3",
      "velocity": 0.7244094488188977,
      "duration": "46i"
    },
    {
      "time": "43536i",
      "midiNote": 62,
      "noteName": "D4",
      "velocity": 0.7244094488188977,
      "duration": "46i"
    },
    {
      "time": "43584i",
      "midiNote": 41,
      "noteName": "F2",
      "velocity": 0.7244094488188977,
      "duration": "142i"
    },
    {
      "time": "43728i",
      "midiNote": 41,
      "noteName": "F2",
      "velocity": 0.7244094488188977,
      "duration": "46i"
    },
    {
      "time": "43776i",
      "midiNote": 50,
      "noteName": "D3",
      "velocity": 0.7244094488188977,
      "duration": "142i"
    },
    {
      "time": "43776i",
      "midiNote": 62,
      "noteName": "D4",
      "velocity": 0.7244094488188977,
      "duration": "142i"
    },
    {
      "time": "43920i",
      "midiNote": 50,
      "noteName": "D3",
      "velocity": 0.7244094488188977,
      "duration": "142i"
    },
    {
      "time": "43920i",
      "midiNote": 62,
      "noteName": "D4",
      "velocity": 0.7244094488188977,
      "duration": "142i"
    },
    {
      "time": "44064i",
      "midiNote": 41,
      "noteName": "F2",
      "velocity": 0.7244094488188977,
      "duration": "46i"
    },
    {
      "time": "44112i",
      "midiNote": 50,
      "noteName": "D3",
      "velocity": 0.7244094488188977,
      "duration": "70i"
    },
    {
      "time": "44112i",
      "midiNote": 62,
      "noteName": "D4",
      "velocity": 0.7244094488188977,
      "duration": "70i"
    },
    {
      "time": "44184i",
      "midiNote": 41,
      "noteName": "F2",
      "velocity": 0.7244094488188977,
      "duration": "46i"
    },
    {
      "time": "44232i",
      "midiNote": 50,
      "noteName": "D3",
      "velocity": 0.7244094488188977,
      "duration": "70i"
    },
    {
      "time": "44232i",
      "midiNote": 62,
      "noteName": "D4",
      "velocity": 0.7244094488188977,
      "duration": "70i"
    },
    {
      "time": "44304i",
      "midiNote": 41,
      "noteName": "F2",
      "velocity": 0.7244094488188977,
      "duration": "46i"
    },
    {
      "time": "44352i",
      "midiNote": 41,
      "noteName": "F2",
      "velocity": 0.7244094488188977,
      "duration": "142i"
    },
    {
      "time": "44496i",
      "midiNote": 41,
      "noteName": "F2",
      "velocity": 0.7244094488188977,
      "duration": "46i"
    },
    {
      "time": "44544i",
      "midiNote": 50,
      "noteName": "D3",
      "velocity": 0.7244094488188977,
      "duration": "142i"
    },
    {
      "time": "44544i",
      "midiNote": 62,
      "noteName": "D4",
      "velocity": 0.7244094488188977,
      "duration": "142i"
    },
    {
      "time": "44688i",
      "midiNote": 50,
      "noteName": "D3",
      "velocity": 0.7244094488188977,
      "duration": "46i"
    },
    {
      "time": "44688i",
      "midiNote": 62,
      "noteName": "D4",
      "velocity": 0.7244094488188977,
      "duration": "46i"
    },
    {
      "time": "44736i",
      "midiNote": 41,
      "noteName": "F2",
      "velocity": 0.7244094488188977,
      "duration": "142i"
    },
    {
      "time": "44880i",
      "midiNote": 41,
      "noteName": "F2",
      "velocity": 0.7244094488188977,
      "duration": "46i"
    },
    {
      "time": "44928i",
      "midiNote": 50,
      "noteName": "D3",
      "velocity": 0.7244094488188977,
      "duration": "142i"
    },
    {
      "time": "44928i",
      "midiNote": 62,
      "noteName": "D4",
      "velocity": 0.7244094488188977,
      "duration": "142i"
    },
    {
      "time": "45072i",
      "midiNote": 50,
      "noteName": "D3",
      "velocity": 0.7244094488188977,
      "duration": "46i"
    },
    {
      "time": "45072i",
      "midiNote": 62,
      "noteName": "D4",
      "velocity": 0.7244094488188977,
      "duration": "46i"
    },
    {
      "time": "45120i",
      "midiNote": 41,
      "noteName": "F2",
      "velocity": 0.7244094488188977,
      "duration": "142i"
    },
    {
      "time": "45264i",
      "midiNote": 41,
      "noteName": "F2",
      "velocity": 0.7244094488188977,
      "duration": "46i"
    },
    {
      "time": "45312i",
      "midiNote": 50,
      "noteName": "D3",
      "velocity": 0.7244094488188977,
      "duration": "142i"
    },
    {
      "time": "45312i",
      "midiNote": 62,
      "noteName": "D4",
      "velocity": 0.7244094488188977,
      "duration": "142i"
    },
    {
      "time": "45456i",
      "midiNote": 50,
      "noteName": "D3",
      "velocity": 0.7244094488188977,
      "duration": "142i"
    },
    {
      "time": "45456i",
      "midiNote": 62,
      "noteName": "D4",
      "velocity": 0.7244094488188977,
      "duration": "142i"
    },
    {
      "time": "45600i",
      "midiNote": 41,
      "noteName": "F2",
      "velocity": 0.7244094488188977,
      "duration": "46i"
    },
    {
      "time": "45648i",
      "midiNote": 50,
      "noteName": "D3",
      "velocity": 0.7244094488188977,
      "duration": "70i"
    },
    {
      "time": "45648i",
      "midiNote": 62,
      "noteName": "D4",
      "velocity": 0.7244094488188977,
      "duration": "70i"
    },
    {
      "time": "45720i",
      "midiNote": 41,
      "noteName": "F2",
      "velocity": 0.7244094488188977,
      "duration": "46i"
    },
    {
      "time": "45768i",
      "midiNote": 50,
      "noteName": "D3",
      "velocity": 0.7244094488188977,
      "duration": "70i"
    },
    {
      "time": "45768i",
      "midiNote": 62,
      "noteName": "D4",
      "velocity": 0.7244094488188977,
      "duration": "70i"
    },
    {
      "time": "45840i",
      "midiNote": 41,
      "noteName": "F2",
      "velocity": 0.7244094488188977,
      "duration": "46i"
    },
    {
      "time": "45888i",
      "midiNote": 41,
      "noteName": "F2",
      "velocity": 0.7244094488188977,
      "duration": "142i"
    },
    {
      "time": "46032i",
      "midiNote": 41,
      "noteName": "F2",
      "velocity": 0.7244094488188977,
      "duration": "46i"
    },
    {
      "time": "46080i",
      "midiNote": 50,
      "noteName": "D3",
      "velocity": 0.7244094488188977,
      "duration": "142i"
    },
    {
      "time": "46080i",
      "midiNote": 62,
      "noteName": "D4",
      "velocity": 0.7244094488188977,
      "duration": "142i"
    },
    {
      "time": "46224i",
      "midiNote": 50,
      "noteName": "D3",
      "velocity": 0.7244094488188977,
      "duration": "46i"
    },
    {
      "time": "46224i",
      "midiNote": 62,
      "noteName": "D4",
      "velocity": 0.7244094488188977,
      "duration": "46i"
    },
    {
      "time": "46272i",
      "midiNote": 41,
      "noteName": "F2",
      "velocity": 0.7244094488188977,
      "duration": "142i"
    },
    {
      "time": "46416i",
      "midiNote": 41,
      "noteName": "F2",
      "velocity": 0.7244094488188977,
      "duration": "46i"
    },
    {
      "time": "46464i",
      "midiNote": 50,
      "noteName": "D3",
      "velocity": 0.7244094488188977,
      "duration": "142i"
    },
    {
      "time": "46464i",
      "midiNote": 62,
      "noteName": "D4",
      "velocity": 0.7244094488188977,
      "duration": "142i"
    },
    {
      "time": "46608i",
      "midiNote": 50,
      "noteName": "D3",
      "velocity": 0.7244094488188977,
      "duration": "46i"
    },
    {
      "time": "46608i",
      "midiNote": 62,
      "noteName": "D4",
      "velocity": 0.7244094488188977,
      "duration": "46i"
    },
    {
      "time": "46656i",
      "midiNote": 41,
      "noteName": "F2",
      "velocity": 0.7244094488188977,
      "duration": "142i"
    },
    {
      "time": "46800i",
      "midiNote": 41,
      "noteName": "F2",
      "velocity": 0.7244094488188977,
      "duration": "46i"
    },
    {
      "time": "46848i",
      "midiNote": 50,
      "noteName": "D3",
      "velocity": 0.7244094488188977,
      "duration": "142i"
    },
    {
      "time": "46848i",
      "midiNote": 62,
      "noteName": "D4",
      "velocity": 0.7244094488188977,
      "duration": "142i"
    },
    {
      "time": "46992i",
      "midiNote": 50,
      "noteName": "D3",
      "velocity": 0.7244094488188977,
      "duration": "142i"
    },
    {
      "time": "46992i",
      "midiNote": 62,
      "noteName": "D4",
      "velocity": 0.7244094488188977,
      "duration": "142i"
    },
    {
      "time": "47136i",
      "midiNote": 41,
      "noteName": "F2",
      "velocity": 0.7244094488188977,
      "duration": "46i"
    },
    {
      "time": "47184i",
      "midiNote": 50,
      "noteName": "D3",
      "velocity": 0.7244094488188977,
      "duration": "70i"
    },
    {
      "time": "47184i",
      "midiNote": 62,
      "noteName": "D4",
      "velocity": 0.7244094488188977,
      "duration": "70i"
    },
    {
      "time": "47256i",
      "midiNote": 41,
      "noteName": "F2",
      "velocity": 0.7244094488188977,
      "duration": "46i"
    },
    {
      "time": "47304i",
      "midiNote": 50,
      "noteName": "D3",
      "velocity": 0.7244094488188977,
      "duration": "70i"
    },
    {
      "time": "47304i",
      "midiNote": 62,
      "noteName": "D4",
      "velocity": 0.7244094488188977,
      "duration": "70i"
    },
    {
      "time": "47376i",
      "midiNote": 41,
      "noteName": "F2",
      "velocity": 0.7244094488188977,
      "duration": "46i"
    },
    {
      "time": "47424i",
      "midiNote": 41,
      "noteName": "F2",
      "velocity": 0.7244094488188977,
      "duration": "142i"
    },
    {
      "time": "47568i",
      "midiNote": 41,
      "noteName": "F2",
      "velocity": 0.7244094488188977,
      "duration": "46i"
    },
    {
      "time": "47616i",
      "midiNote": 50,
      "noteName": "D3",
      "velocity": 0.7244094488188977,
      "duration": "142i"
    },
    {
      "time": "47616i",
      "midiNote": 62,
      "noteName": "D4",
      "velocity": 0.7244094488188977,
      "duration": "142i"
    },
    {
      "time": "47760i",
      "midiNote": 50,
      "noteName": "D3",
      "velocity": 0.7244094488188977,
      "duration": "46i"
    },
    {
      "time": "47760i",
      "midiNote": 62,
      "noteName": "D4",
      "velocity": 0.7244094488188977,
      "duration": "46i"
    },
    {
      "time": "47808i",
      "midiNote": 41,
      "noteName": "F2",
      "velocity": 0.7244094488188977,
      "duration": "142i"
    },
    {
      "time": "47952i",
      "midiNote": 41,
      "noteName": "F2",
      "velocity": 0.7244094488188977,
      "duration": "46i"
    },
    {
      "time": "48000i",
      "midiNote": 50,
      "noteName": "D3",
      "velocity": 0.7244094488188977,
      "duration": "142i"
    },
    {
      "time": "48000i",
      "midiNote": 62,
      "noteName": "D4",
      "velocity": 0.7244094488188977,
      "duration": "142i"
    },
    {
      "time": "48144i",
      "midiNote": 50,
      "noteName": "D3",
      "velocity": 0.7244094488188977,
      "duration": "46i"
    },
    {
      "time": "48144i",
      "midiNote": 62,
      "noteName": "D4",
      "velocity": 0.7244094488188977,
      "duration": "46i"
    },
    {
      "time": "48192i",
      "midiNote": 41,
      "noteName": "F2",
      "velocity": 0.7244094488188977,
      "duration": "142i"
    },
    {
      "time": "48336i",
      "midiNote": 41,
      "noteName": "F2",
      "velocity": 0.7244094488188977,
      "duration": "46i"
    },
    {
      "time": "48384i",
      "midiNote": 50,
      "noteName": "D3",
      "velocity": 0.7244094488188977,
      "duration": "142i"
    },
    {
      "time": "48384i",
      "midiNote": 62,
      "noteName": "D4",
      "velocity": 0.7244094488188977,
      "duration": "142i"
    },
    {
      "time": "48528i",
      "midiNote": 50,
      "noteName": "D3",
      "velocity": 0.7244094488188977,
      "duration": "142i"
    },
    {
      "time": "48528i",
      "midiNote": 62,
      "noteName": "D4",
      "velocity": 0.7244094488188977,
      "duration": "142i"
    },
    {
      "time": "48672i",
      "midiNote": 41,
      "noteName": "F2",
      "velocity": 0.7244094488188977,
      "duration": "46i"
    },
    {
      "time": "48720i",
      "midiNote": 50,
      "noteName": "D3",
      "velocity": 0.7244094488188977,
      "duration": "70i"
    },
    {
      "time": "48720i",
      "midiNote": 62,
      "noteName": "D4",
      "velocity": 0.7244094488188977,
      "duration": "70i"
    },
    {
      "time": "48792i",
      "midiNote": 41,
      "noteName": "F2",
      "velocity": 0.7244094488188977,
      "duration": "46i"
    },
    {
      "time": "48840i",
      "midiNote": 50,
      "noteName": "D3",
      "velocity": 0.7244094488188977,
      "duration": "70i"
    },
    {
      "time": "48840i",
      "midiNote": 62,
      "noteName": "D4",
      "velocity": 0.7244094488188977,
      "duration": "70i"
    },
    {
      "time": "48912i",
      "midiNote": 41,
      "noteName": "F2",
      "velocity": 0.7244094488188977,
      "duration": "46i"
    },
    {
      "time": "52416i",
      "midiNote": 49,
      "noteName": "C#3",
      "velocity": 0.7244094488188977,
      "duration": "336i"
    },
    {
      "time": "55104i",
      "midiNote": 49,
      "noteName": "C#3",
      "velocity": 0.3543307086614173,
      "duration": "22i"
    },
    {
      "time": "55128i",
      "midiNote": 49,
      "noteName": "C#3",
      "velocity": 0.3543307086614173,
      "duration": "22i"
    },
    {
      "time": "55152i",
      "midiNote": 49,
      "noteName": "C#3",
      "velocity": 0.47244094488188976,
      "duration": "22i"
    },
    {
      "time": "55176i",
      "midiNote": 49,
      "noteName": "C#3",
      "velocity": 0.47244094488188976,
      "duration": "22i"
    },
    {
      "time": "55200i",
      "midiNote": 49,
      "noteName": "C#3",
      "velocity": 0.5905511811023622,
      "duration": "22i"
    },
    {
      "time": "55224i",
      "midiNote": 49,
      "noteName": "C#3",
      "velocity": 0.5905511811023622,
      "duration": "22i"
    },
    {
      "time": "55248i",
      "midiNote": 49,
      "noteName": "C#3",
      "velocity": 0.7244094488188977,
      "duration": "22i"
    },
    {
      "time": "55272i",
      "midiNote": 49,
      "noteName": "C#3",
      "velocity": 0.7244094488188977,
      "duration": "22i"
    },
    {
      "time": "55296i",
      "midiNote": 49,
      "noteName": "C#3",
      "velocity": 0.8503937007874016,
      "duration": "22i"
    },
    {
      "time": "55320i",
      "midiNote": 49,
      "noteName": "C#3",
      "velocity": 0.8503937007874016,
      "duration": "22i"
    },
    {
      "time": "55344i",
      "midiNote": 49,
      "noteName": "C#3",
      "velocity": 0.8503937007874016,
      "duration": "22i"
    },
    {
      "time": "55368i",
      "midiNote": 49,
      "noteName": "C#3",
      "velocity": 1,
      "duration": "22i"
    }
  ],
  [
    {
      "time": "11520i",
      "midiNote": 52,
      "noteName": "E3",
      "velocity": 0.8661417322834646,
      "duration": "62i"
    },
    {
      "time": "11584i",
      "midiNote": 52,
      "noteName": "E3",
      "velocity": 0.8661417322834646,
      "duration": "62i"
    },
    {
      "time": "11648i",
      "midiNote": 52,
      "noteName": "E3",
      "velocity": 0.8661417322834646,
      "duration": "62i"
    },
    {
      "time": "11712i",
      "midiNote": 64,
      "noteName": "E4",
      "velocity": 0.8661417322834646,
      "duration": "528i"
    },
    {
      "time": "12288i",
      "midiNote": 52,
      "noteName": "E3",
      "velocity": 0.8661417322834646,
      "duration": "62i"
    },
    {
      "time": "12352i",
      "midiNote": 52,
      "noteName": "E3",
      "velocity": 0.8661417322834646,
      "duration": "62i"
    },
    {
      "time": "12416i",
      "midiNote": 52,
      "noteName": "E3",
      "velocity": 0.8661417322834646,
      "duration": "62i"
    },
    {
      "time": "12480i",
      "midiNote": 66,
      "noteName": "F#4",
      "velocity": 0.8661417322834646,
      "duration": "528i"
    },
    {
      "time": "13056i",
      "midiNote": 52,
      "noteName": "E3",
      "velocity": 0.8661417322834646,
      "duration": "62i"
    },
    {
      "time": "13120i",
      "midiNote": 52,
      "noteName": "E3",
      "velocity": 0.8661417322834646,
      "duration": "62i"
    },
    {
      "time": "13184i",
      "midiNote": 52,
      "noteName": "E3",
      "velocity": 0.8661417322834646,
      "duration": "62i"
    },
    {
      "time": "13248i",
      "midiNote": 67,
      "noteName": "G4",
      "velocity": 0.8661417322834646,
      "duration": "528i"
    },
    {
      "time": "13824i",
      "midiNote": 52,
      "noteName": "E3",
      "velocity": 0.8661417322834646,
      "duration": "62i"
    },
    {
      "time": "13888i",
      "midiNote": 52,
      "noteName": "E3",
      "velocity": 0.8661417322834646,
      "duration": "62i"
    },
    {
      "time": "13952i",
      "midiNote": 52,
      "noteName": "E3",
      "velocity": 0.8661417322834646,
      "duration": "62i"
    },
    {
      "time": "14016i",
      "midiNote": 69,
      "noteName": "A4",
      "velocity": 0.8661417322834646,
      "duration": "160i"
    },
    {
      "time": "14208i",
      "midiNote": 52,
      "noteName": "E3",
      "velocity": 0.8661417322834646,
      "duration": "62i"
    },
    {
      "time": "14272i",
      "midiNote": 69,
      "noteName": "A4",
      "velocity": 0.8661417322834646,
      "duration": "62i"
    },
    {
      "time": "14336i",
      "midiNote": 52,
      "noteName": "E3",
      "velocity": 0.8661417322834646,
      "duration": "62i"
    },
    {
      "time": "14400i",
      "midiNote": 69,
      "noteName": "A4",
      "velocity": 0.8661417322834646,
      "duration": "62i"
    },
    {
      "time": "14464i",
      "midiNote": 67,
      "noteName": "G4",
      "velocity": 0.8661417322834646,
      "duration": "62i"
    },
    {
      "time": "14528i",
      "midiNote": 66,
      "noteName": "F#4",
      "velocity": 0.8661417322834646,
      "duration": "62i"
    },
    {
      "time": "14592i",
      "midiNote": 52,
      "noteName": "E3",
      "velocity": 0.8661417322834646,
      "duration": "62i"
    },
    {
      "time": "14656i",
      "midiNote": 52,
      "noteName": "E3",
      "velocity": 0.8661417322834646,
      "duration": "62i"
    },
    {
      "time": "14720i",
      "midiNote": 52,
      "noteName": "E3",
      "velocity": 0.8661417322834646,
      "duration": "62i"
    },
    {
      "time": "14784i",
      "midiNote": 64,
      "noteName": "E4",
      "velocity": 0.8661417322834646,
      "duration": "528i"
    },
    {
      "time": "15360i",
      "midiNote": 52,
      "noteName": "E3",
      "velocity": 0.8661417322834646,
      "duration": "62i"
    },
    {
      "time": "15424i",
      "midiNote": 52,
      "noteName": "E3",
      "velocity": 0.8661417322834646,
      "duration": "62i"
    },
    {
      "time": "15488i",
      "midiNote": 52,
      "noteName": "E3",
      "velocity": 0.8661417322834646,
      "duration": "62i"
    },
    {
      "time": "15552i",
      "midiNote": 66,
      "noteName": "F#4",
      "velocity": 0.8661417322834646,
      "duration": "528i"
    },
    {
      "time": "16128i",
      "midiNote": 52,
      "noteName": "E3",
      "velocity": 0.8661417322834646,
      "duration": "62i"
    },
    {
      "time": "16192i",
      "midiNote": 52,
      "noteName": "E3",
      "velocity": 0.8661417322834646,
      "duration": "62i"
    },
    {
      "time": "16256i",
      "midiNote": 52,
      "noteName": "E3",
      "velocity": 0.8661417322834646,
      "duration": "62i"
    },
    {
      "time": "16320i",
      "midiNote": 67,
      "noteName": "G4",
      "velocity": 0.8661417322834646,
      "duration": "528i"
    },
    {
      "time": "16896i",
      "midiNote": 52,
      "noteName": "E3",
      "velocity": 0.8661417322834646,
      "duration": "62i"
    },
    {
      "time": "16960i",
      "midiNote": 52,
      "noteName": "E3",
      "velocity": 0.8661417322834646,
      "duration": "62i"
    },
    {
      "time": "17024i",
      "midiNote": 52,
      "noteName": "E3",
      "velocity": 0.8661417322834646,
      "duration": "62i"
    },
    {
      "time": "17088i",
      "midiNote": 69,
      "noteName": "A4",
      "velocity": 0.8661417322834646,
      "duration": "160i"
    },
    {
      "time": "17280i",
      "midiNote": 52,
      "noteName": "E3",
      "velocity": 0.8661417322834646,
      "duration": "62i"
    },
    {
      "time": "17344i",
      "midiNote": 69,
      "noteName": "A4",
      "velocity": 0.8661417322834646,
      "duration": "62i"
    },
    {
      "time": "17408i",
      "midiNote": 52,
      "noteName": "E3",
      "velocity": 0.8661417322834646,
      "duration": "62i"
    },
    {
      "time": "17472i",
      "midiNote": 69,
      "noteName": "A4",
      "velocity": 0.8661417322834646,
      "duration": "62i"
    },
    {
      "time": "17536i",
      "midiNote": 67,
      "noteName": "G4",
      "velocity": 0.8661417322834646,
      "duration": "62i"
    },
    {
      "time": "17600i",
      "midiNote": 66,
      "noteName": "F#4",
      "velocity": 0.8661417322834646,
      "duration": "62i"
    },
    {
      "time": "17664i",
      "midiNote": 52,
      "noteName": "E3",
      "velocity": 0.8661417322834646,
      "duration": "62i"
    },
    {
      "time": "17728i",
      "midiNote": 52,
      "noteName": "E3",
      "velocity": 0.8661417322834646,
      "duration": "62i"
    },
    {
      "time": "17792i",
      "midiNote": 52,
      "noteName": "E3",
      "velocity": 0.8661417322834646,
      "duration": "62i"
    },
    {
      "time": "17856i",
      "midiNote": 64,
      "noteName": "E4",
      "velocity": 0.8661417322834646,
      "duration": "160i"
    },
    {
      "time": "18048i",
      "midiNote": 52,
      "noteName": "E3",
      "velocity": 0.8661417322834646,
      "duration": "62i"
    },
    {
      "time": "18112i",
      "midiNote": 52,
      "noteName": "E3",
      "velocity": 0.8661417322834646,
      "duration": "62i"
    },
    {
      "time": "18176i",
      "midiNote": 52,
      "noteName": "E3",
      "velocity": 0.8661417322834646,
      "duration": "62i"
    },
    {
      "time": "18240i",
      "midiNote": 69,
      "noteName": "A4",
      "velocity": 0.8661417322834646,
      "duration": "160i"
    },
    {
      "time": "18432i",
      "midiNote": 52,
      "noteName": "E3",
      "velocity": 0.8661417322834646,
      "duration": "62i"
    },
    {
      "time": "18496i",
      "midiNote": 52,
      "noteName": "E3",
      "velocity": 0.8661417322834646,
      "duration": "62i"
    },
    {
      "time": "18560i",
      "midiNote": 52,
      "noteName": "E3",
      "velocity": 0.8661417322834646,
      "duration": "62i"
    },
    {
      "time": "18624i",
      "midiNote": 66,
      "noteName": "F#4",
      "velocity": 0.8661417322834646,
      "duration": "160i"
    },
    {
      "time": "18816i",
      "midiNote": 52,
      "noteName": "E3",
      "velocity": 0.8661417322834646,
      "duration": "62i"
    },
    {
      "time": "18880i",
      "midiNote": 52,
      "noteName": "E3",
      "velocity": 0.8661417322834646,
      "duration": "62i"
    },
    {
      "time": "18944i",
      "midiNote": 52,
      "noteName": "E3",
      "velocity": 0.8661417322834646,
      "duration": "62i"
    },
    {
      "time": "19008i",
      "midiNote": 66,
      "noteName": "F#4",
      "velocity": 0.8661417322834646,
      "duration": "62i"
    },
    {
      "time": "19072i",
      "midiNote": 66,
      "noteName": "F#4",
      "velocity": 0.8661417322834646,
      "duration": "62i"
    },
    {
      "time": "19136i",
      "midiNote": 64,
      "noteName": "E4",
      "velocity": 0.8661417322834646,
      "duration": "62i"
    },
    {
      "time": "19200i",
      "midiNote": 52,
      "noteName": "E3",
      "velocity": 0.8661417322834646,
      "duration": "62i"
    },
    {
      "time": "19264i",
      "midiNote": 52,
      "noteName": "E3",
      "velocity": 0.8661417322834646,
      "duration": "62i"
    },
    {
      "time": "19328i",
      "midiNote": 52,
      "noteName": "E3",
      "velocity": 0.8661417322834646,
      "duration": "62i"
    },
    {
      "time": "19392i",
      "midiNote": 64,
      "noteName": "E4",
      "velocity": 0.8661417322834646,
      "duration": "160i"
    },
    {
      "time": "19584i",
      "midiNote": 52,
      "noteName": "E3",
      "velocity": 0.8661417322834646,
      "duration": "62i"
    },
    {
      "time": "19648i",
      "midiNote": 52,
      "noteName": "E3",
      "velocity": 0.8661417322834646,
      "duration": "62i"
    },
    {
      "time": "19712i",
      "midiNote": 52,
      "noteName": "E3",
      "velocity": 0.8661417322834646,
      "duration": "62i"
    },
    {
      "time": "19776i",
      "midiNote": 66,
      "noteName": "F#4",
      "velocity": 0.8661417322834646,
      "duration": "62i"
    },
    {
      "time": "19840i",
      "midiNote": 66,
      "noteName": "F#4",
      "velocity": 0.8661417322834646,
      "duration": "62i"
    },
    {
      "time": "19904i",
      "midiNote": 64,
      "noteName": "E4",
      "velocity": 0.8661417322834646,
      "duration": "62i"
    },
    {
      "time": "19968i",
      "midiNote": 52,
      "noteName": "E3",
      "velocity": 0.8661417322834646,
      "duration": "62i"
    },
    {
      "time": "20032i",
      "midiNote": 52,
      "noteName": "E3",
      "velocity": 0.8661417322834646,
      "duration": "62i"
    },
    {
      "time": "20096i",
      "midiNote": 52,
      "noteName": "E3",
      "velocity": 0.8661417322834646,
      "duration": "62i"
    },
    {
      "time": "20160i",
      "midiNote": 69,
      "noteName": "A4",
      "velocity": 0.8661417322834646,
      "duration": "160i"
    },
    {
      "time": "20352i",
      "midiNote": 52,
      "noteName": "E3",
      "velocity": 0.8661417322834646,
      "duration": "62i"
    },
    {
      "time": "20416i",
      "midiNote": 69,
      "noteName": "A4",
      "velocity": 0.8661417322834646,
      "duration": "62i"
    },
    {
      "time": "20480i",
      "midiNote": 52,
      "noteName": "E3",
      "velocity": 0.8661417322834646,
      "duration": "62i"
    },
    {
      "time": "20544i",
      "midiNote": 69,
      "noteName": "A4",
      "velocity": 0.8661417322834646,
      "duration": "62i"
    },
    {
      "time": "20608i",
      "midiNote": 67,
      "noteName": "G4",
      "velocity": 0.8661417322834646,
      "duration": "62i"
    },
    {
      "time": "20672i",
      "midiNote": 66,
      "noteName": "F#4",
      "velocity": 0.8661417322834646,
      "duration": "62i"
    },
    {
      "time": "20736i",
      "midiNote": 52,
      "noteName": "E3",
      "velocity": 0.8661417322834646,
      "duration": "62i"
    },
    {
      "time": "20800i",
      "midiNote": 52,
      "noteName": "E3",
      "velocity": 0.8661417322834646,
      "duration": "62i"
    },
    {
      "time": "20864i",
      "midiNote": 52,
      "noteName": "E3",
      "velocity": 0.8661417322834646,
      "duration": "62i"
    },
    {
      "time": "20928i",
      "midiNote": 64,
      "noteName": "E4",
      "velocity": 0.8661417322834646,
      "duration": "160i"
    },
    {
      "time": "21120i",
      "midiNote": 52,
      "noteName": "E3",
      "velocity": 0.8661417322834646,
      "duration": "62i"
    },
    {
      "time": "21184i",
      "midiNote": 52,
      "noteName": "E3",
      "velocity": 0.8661417322834646,
      "duration": "62i"
    },
    {
      "time": "21248i",
      "midiNote": 52,
      "noteName": "E3",
      "velocity": 0.8661417322834646,
      "duration": "62i"
    },
    {
      "time": "21312i",
      "midiNote": 67,
      "noteName": "G4",
      "velocity": 0.8661417322834646,
      "duration": "160i"
    },
    {
      "time": "21504i",
      "midiNote": 52,
      "noteName": "E3",
      "velocity": 0.8661417322834646,
      "duration": "62i"
    },
    {
      "time": "21568i",
      "midiNote": 52,
      "noteName": "E3",
      "velocity": 0.8661417322834646,
      "duration": "62i"
    },
    {
      "time": "21632i",
      "midiNote": 52,
      "noteName": "E3",
      "velocity": 0.8661417322834646,
      "duration": "62i"
    },
    {
      "time": "21696i",
      "midiNote": 69,
      "noteName": "A4",
      "velocity": 0.8661417322834646,
      "duration": "160i"
    },
    {
      "time": "21888i",
      "midiNote": 52,
      "noteName": "E3",
      "velocity": 0.8661417322834646,
      "duration": "62i"
    },
    {
      "time": "21952i",
      "midiNote": 69,
      "noteName": "A4",
      "velocity": 0.8661417322834646,
      "duration": "62i"
    },
    {
      "time": "22016i",
      "midiNote": 52,
      "noteName": "E3",
      "velocity": 0.8661417322834646,
      "duration": "62i"
    },
    {
      "time": "22080i",
      "midiNote": 69,
      "noteName": "A4",
      "velocity": 0.8661417322834646,
      "duration": "62i"
    },
    {
      "time": "22144i",
      "midiNote": 67,
      "noteName": "G4",
      "velocity": 0.8661417322834646,
      "duration": "62i"
    },
    {
      "time": "22208i",
      "midiNote": 66,
      "noteName": "F#4",
      "velocity": 0.8661417322834646,
      "duration": "62i"
    },
    {
      "time": "22272i",
      "midiNote": 52,
      "noteName": "E3",
      "velocity": 0.8661417322834646,
      "duration": "62i"
    },
    {
      "time": "22336i",
      "midiNote": 52,
      "noteName": "E3",
      "velocity": 0.8661417322834646,
      "duration": "62i"
    },
    {
      "time": "22400i",
      "midiNote": 52,
      "noteName": "E3",
      "velocity": 0.8661417322834646,
      "duration": "62i"
    },
    {
      "time": "22464i",
      "midiNote": 64,
      "noteName": "E4",
      "velocity": 0.8661417322834646,
      "duration": "160i"
    },
    {
      "time": "22656i",
      "midiNote": 52,
      "noteName": "E3",
      "velocity": 0.8661417322834646,
      "duration": "62i"
    },
    {
      "time": "22720i",
      "midiNote": 52,
      "noteName": "E3",
      "velocity": 0.8661417322834646,
      "duration": "62i"
    },
    {
      "time": "22784i",
      "midiNote": 52,
      "noteName": "E3",
      "velocity": 0.8661417322834646,
      "duration": "62i"
    },
    {
      "time": "22848i",
      "midiNote": 67,
      "noteName": "G4",
      "velocity": 0.8661417322834646,
      "duration": "160i"
    },
    {
      "time": "23040i",
      "midiNote": 52,
      "noteName": "E3",
      "velocity": 0.8661417322834646,
      "duration": "62i"
    },
    {
      "time": "23104i",
      "midiNote": 52,
      "noteName": "E3",
      "velocity": 0.8661417322834646,
      "duration": "62i"
    },
    {
      "time": "23168i",
      "midiNote": 52,
      "noteName": "E3",
      "velocity": 0.8661417322834646,
      "duration": "62i"
    },
    {
      "time": "23232i",
      "midiNote": 69,
      "noteName": "A4",
      "velocity": 0.8661417322834646,
      "duration": "160i"
    },
    {
      "time": "23424i",
      "midiNote": 52,
      "noteName": "E3",
      "velocity": 0.8661417322834646,
      "duration": "62i"
    },
    {
      "time": "23488i",
      "midiNote": 69,
      "noteName": "A4",
      "velocity": 0.8661417322834646,
      "duration": "62i"
    },
    {
      "time": "23552i",
      "midiNote": 52,
      "noteName": "E3",
      "velocity": 0.8661417322834646,
      "duration": "62i"
    },
    {
      "time": "23616i",
      "midiNote": 69,
      "noteName": "A4",
      "velocity": 0.8661417322834646,
      "duration": "62i"
    },
    {
      "time": "23680i",
      "midiNote": 67,
      "noteName": "G4",
      "velocity": 0.8661417322834646,
      "duration": "62i"
    },
    {
      "time": "23744i",
      "midiNote": 66,
      "noteName": "F#4",
      "velocity": 0.8661417322834646,
      "duration": "62i"
    },
    {
      "time": "23808i",
      "midiNote": 52,
      "noteName": "E3",
      "velocity": 0.8661417322834646,
      "duration": "62i"
    },
    {
      "time": "23872i",
      "midiNote": 52,
      "noteName": "E3",
      "velocity": 0.8661417322834646,
      "duration": "62i"
    },
    {
      "time": "23936i",
      "midiNote": 52,
      "noteName": "E3",
      "velocity": 0.8661417322834646,
      "duration": "62i"
    },
    {
      "time": "24000i",
      "midiNote": 64,
      "noteName": "E4",
      "velocity": 0.8661417322834646,
      "duration": "528i"
    },
    {
      "time": "24576i",
      "midiNote": 52,
      "noteName": "E3",
      "velocity": 0.8661417322834646,
      "duration": "62i"
    },
    {
      "time": "24640i",
      "midiNote": 52,
      "noteName": "E3",
      "velocity": 0.8661417322834646,
      "duration": "62i"
    },
    {
      "time": "24704i",
      "midiNote": 52,
      "noteName": "E3",
      "velocity": 0.8661417322834646,
      "duration": "62i"
    },
    {
      "time": "24768i",
      "midiNote": 66,
      "noteName": "F#4",
      "velocity": 0.8661417322834646,
      "duration": "528i"
    },
    {
      "time": "25344i",
      "midiNote": 52,
      "noteName": "E3",
      "velocity": 0.8661417322834646,
      "duration": "62i"
    },
    {
      "time": "25408i",
      "midiNote": 52,
      "noteName": "E3",
      "velocity": 0.8661417322834646,
      "duration": "62i"
    },
    {
      "time": "25472i",
      "midiNote": 52,
      "noteName": "E3",
      "velocity": 0.8661417322834646,
      "duration": "62i"
    },
    {
      "time": "25536i",
      "midiNote": 67,
      "noteName": "G4",
      "velocity": 0.8661417322834646,
      "duration": "528i"
    },
    {
      "time": "26112i",
      "midiNote": 52,
      "noteName": "E3",
      "velocity": 0.8661417322834646,
      "duration": "62i"
    },
    {
      "time": "26176i",
      "midiNote": 52,
      "noteName": "E3",
      "velocity": 0.8661417322834646,
      "duration": "62i"
    },
    {
      "time": "26240i",
      "midiNote": 52,
      "noteName": "E3",
      "velocity": 0.8661417322834646,
      "duration": "62i"
    },
    {
      "time": "26304i",
      "midiNote": 69,
      "noteName": "A4",
      "velocity": 0.8661417322834646,
      "duration": "160i"
    },
    {
      "time": "26496i",
      "midiNote": 52,
      "noteName": "E3",
      "velocity": 0.8661417322834646,
      "duration": "62i"
    },
    {
      "time": "26560i",
      "midiNote": 69,
      "noteName": "A4",
      "velocity": 0.8661417322834646,
      "duration": "62i"
    },
    {
      "time": "26624i",
      "midiNote": 52,
      "noteName": "E3",
      "velocity": 0.8661417322834646,
      "duration": "62i"
    },
    {
      "time": "26688i",
      "midiNote": 69,
      "noteName": "A4",
      "velocity": 0.8661417322834646,
      "duration": "62i"
    },
    {
      "time": "26752i",
      "midiNote": 67,
      "noteName": "G4",
      "velocity": 0.8661417322834646,
      "duration": "62i"
    },
    {
      "time": "26816i",
      "midiNote": 66,
      "noteName": "F#4",
      "velocity": 0.8661417322834646,
      "duration": "62i"
    },
    {
      "time": "26880i",
      "midiNote": 52,
      "noteName": "E3",
      "velocity": 0.8661417322834646,
      "duration": "62i"
    },
    {
      "time": "26944i",
      "midiNote": 52,
      "noteName": "E3",
      "velocity": 0.8661417322834646,
      "duration": "62i"
    },
    {
      "time": "27008i",
      "midiNote": 52,
      "noteName": "E3",
      "velocity": 0.8661417322834646,
      "duration": "62i"
    },
    {
      "time": "27072i",
      "midiNote": 64,
      "noteName": "E4",
      "velocity": 0.8661417322834646,
      "duration": "160i"
    },
    {
      "time": "27264i",
      "midiNote": 52,
      "noteName": "E3",
      "velocity": 0.8661417322834646,
      "duration": "62i"
    },
    {
      "time": "27328i",
      "midiNote": 52,
      "noteName": "E3",
      "velocity": 0.8661417322834646,
      "duration": "62i"
    },
    {
      "time": "27392i",
      "midiNote": 52,
      "noteName": "E3",
      "velocity": 0.8661417322834646,
      "duration": "62i"
    },
    {
      "time": "27456i",
      "midiNote": 66,
      "noteName": "F#4",
      "velocity": 0.8661417322834646,
      "duration": "160i"
    },
    {
      "time": "27648i",
      "midiNote": 52,
      "noteName": "E3",
      "velocity": 0.8661417322834646,
      "duration": "62i"
    },
    {
      "time": "27712i",
      "midiNote": 52,
      "noteName": "E3",
      "velocity": 0.8661417322834646,
      "duration": "62i"
    },
    {
      "time": "27776i",
      "midiNote": 52,
      "noteName": "E3",
      "velocity": 0.8661417322834646,
      "duration": "62i"
    },
    {
      "time": "27840i",
      "midiNote": 67,
      "noteName": "G4",
      "velocity": 0.8661417322834646,
      "duration": "160i"
    },
    {
      "time": "28032i",
      "midiNote": 52,
      "noteName": "E3",
      "velocity": 0.8661417322834646,
      "duration": "62i"
    },
    {
      "time": "28096i",
      "midiNote": 52,
      "noteName": "E3",
      "velocity": 0.8661417322834646,
      "duration": "62i"
    },
    {
      "time": "28160i",
      "midiNote": 52,
      "noteName": "E3",
      "velocity": 0.8661417322834646,
      "duration": "62i"
    },
    {
      "time": "28224i",
      "midiNote": 69,
      "noteName": "A4",
      "velocity": 0.8661417322834646,
      "duration": "160i"
    },
    {
      "time": "28416i",
      "midiNote": 52,
      "noteName": "E3",
      "velocity": 0.8661417322834646,
      "duration": "62i"
    },
    {
      "time": "28480i",
      "midiNote": 52,
      "noteName": "E3",
      "velocity": 0.8661417322834646,
      "duration": "62i"
    },
    {
      "time": "28544i",
      "midiNote": 52,
      "noteName": "E3",
      "velocity": 0.8661417322834646,
      "duration": "62i"
    },
    {
      "time": "28608i",
      "midiNote": 64,
      "noteName": "E4",
      "velocity": 0.8661417322834646,
      "duration": "160i"
    },
    {
      "time": "28800i",
      "midiNote": 52,
      "noteName": "E3",
      "velocity": 0.8661417322834646,
      "duration": "62i"
    },
    {
      "time": "28864i",
      "midiNote": 52,
      "noteName": "E3",
      "velocity": 0.8661417322834646,
      "duration": "62i"
    },
    {
      "time": "28928i",
      "midiNote": 52,
      "noteName": "E3",
      "velocity": 0.8661417322834646,
      "duration": "62i"
    },
    {
      "time": "28992i",
      "midiNote": 66,
      "noteName": "F#4",
      "velocity": 0.8661417322834646,
      "duration": "160i"
    },
    {
      "time": "29184i",
      "midiNote": 52,
      "noteName": "E3",
      "velocity": 0.8661417322834646,
      "duration": "62i"
    },
    {
      "time": "29248i",
      "midiNote": 52,
      "noteName": "E3",
      "velocity": 0.8661417322834646,
      "duration": "62i"
    },
    {
      "time": "29312i",
      "midiNote": 52,
      "noteName": "E3",
      "velocity": 0.8661417322834646,
      "duration": "62i"
    },
    {
      "time": "29376i",
      "midiNote": 67,
      "noteName": "G4",
      "velocity": 0.8661417322834646,
      "duration": "160i"
    },
    {
      "time": "29568i",
      "midiNote": 52,
      "noteName": "E3",
      "velocity": 0.8661417322834646,
      "duration": "62i"
    },
    {
      "time": "29632i",
      "midiNote": 52,
      "noteName": "E3",
      "velocity": 0.8661417322834646,
      "duration": "62i"
    },
    {
      "time": "29696i",
      "midiNote": 52,
      "noteName": "E3",
      "velocity": 0.8661417322834646,
      "duration": "62i"
    },
    {
      "time": "29760i",
      "midiNote": 69,
      "noteName": "A4",
      "velocity": 0.8661417322834646,
      "duration": "160i"
    },
    {
      "time": "29952i",
      "midiNote": 52,
      "noteName": "E3",
      "velocity": 0.8661417322834646,
      "duration": "62i"
    },
    {
      "time": "30016i",
      "midiNote": 52,
      "noteName": "E3",
      "velocity": 0.8661417322834646,
      "duration": "62i"
    },
    {
      "time": "30080i",
      "midiNote": 52,
      "noteName": "E3",
      "velocity": 0.8661417322834646,
      "duration": "62i"
    },
    {
      "time": "30144i",
      "midiNote": 64,
      "noteName": "E4",
      "velocity": 0.8661417322834646,
      "duration": "160i"
    },
    {
      "time": "30144i",
      "midiNote": 76,
      "noteName": "E5",
      "velocity": 0.8661417322834646,
      "duration": "160i"
    },
    {
      "time": "30336i",
      "midiNote": 52,
      "noteName": "E3",
      "velocity": 0.8661417322834646,
      "duration": "62i"
    },
    {
      "time": "30400i",
      "midiNote": 52,
      "noteName": "E3",
      "velocity": 0.8661417322834646,
      "duration": "62i"
    },
    {
      "time": "30464i",
      "midiNote": 52,
      "noteName": "E3",
      "velocity": 0.8661417322834646,
      "duration": "62i"
    },
    {
      "time": "30528i",
      "midiNote": 66,
      "noteName": "F#4",
      "velocity": 0.8661417322834646,
      "duration": "160i"
    },
    {
      "time": "30528i",
      "midiNote": 78,
      "noteName": "F#5",
      "velocity": 0.8661417322834646,
      "duration": "160i"
    },
    {
      "time": "30720i",
      "midiNote": 52,
      "noteName": "E3",
      "velocity": 0.8661417322834646,
      "duration": "62i"
    },
    {
      "time": "30784i",
      "midiNote": 52,
      "noteName": "E3",
      "velocity": 0.8661417322834646,
      "duration": "62i"
    },
    {
      "time": "30848i",
      "midiNote": 52,
      "noteName": "E3",
      "velocity": 0.8661417322834646,
      "duration": "62i"
    },
    {
      "time": "30912i",
      "midiNote": 67,
      "noteName": "G4",
      "velocity": 0.8661417322834646,
      "duration": "160i"
    },
    {
      "time": "30912i",
      "midiNote": 79,
      "noteName": "G5",
      "velocity": 0.8661417322834646,
      "duration": "160i"
    },
    {
      "time": "31104i",
      "midiNote": 52,
      "noteName": "E3",
      "velocity": 0.8661417322834646,
      "duration": "62i"
    },
    {
      "time": "31168i",
      "midiNote": 52,
      "noteName": "E3",
      "velocity": 0.8661417322834646,
      "duration": "62i"
    },
    {
      "time": "31232i",
      "midiNote": 52,
      "noteName": "E3",
      "velocity": 0.8661417322834646,
      "duration": "62i"
    },
    {
      "time": "31296i",
      "midiNote": 69,
      "noteName": "A4",
      "velocity": 0.8661417322834646,
      "duration": "160i"
    },
    {
      "time": "31296i",
      "midiNote": 81,
      "noteName": "A5",
      "velocity": 0.8661417322834646,
      "duration": "160i"
    },
    {
      "time": "34080i",
      "midiNote": 52,
      "noteName": "E3",
      "velocity": 0.8661417322834646,
      "duration": "62i"
    },
    {
      "time": "34144i",
      "midiNote": 52,
      "noteName": "E3",
      "velocity": 0.8661417322834646,
      "duration": "62i"
    },
    {
      "time": "34208i",
      "midiNote": 52,
      "noteName": "E3",
      "velocity": 0.8661417322834646,
      "duration": "62i"
    },
    {
      "time": "34272i",
      "midiNote": 64,
      "noteName": "E4",
      "velocity": 0.8661417322834646,
      "duration": "160i"
    },
    {
      "time": "34464i",
      "midiNote": 52,
      "noteName": "E3",
      "velocity": 0.8661417322834646,
      "duration": "62i"
    },
    {
      "time": "34528i",
      "midiNote": 52,
      "noteName": "E3",
      "velocity": 0.8661417322834646,
      "duration": "62i"
    },
    {
      "time": "34592i",
      "midiNote": 52,
      "noteName": "E3",
      "velocity": 0.8661417322834646,
      "duration": "62i"
    },
    {
      "time": "34656i",
      "midiNote": 67,
      "noteName": "G4",
      "velocity": 0.8661417322834646,
      "duration": "160i"
    },
    {
      "time": "34848i",
      "midiNote": 52,
      "noteName": "E3",
      "velocity": 0.8661417322834646,
      "duration": "62i"
    },
    {
      "time": "34912i",
      "midiNote": 52,
      "noteName": "E3",
      "velocity": 0.8661417322834646,
      "duration": "62i"
    },
    {
      "time": "34976i",
      "midiNote": 52,
      "noteName": "E3",
      "velocity": 0.8661417322834646,
      "duration": "62i"
    },
    {
      "time": "35040i",
      "midiNote": 69,
      "noteName": "A4",
      "velocity": 0.8661417322834646,
      "duration": "160i"
    },
    {
      "time": "35232i",
      "midiNote": 52,
      "noteName": "E3",
      "velocity": 0.8661417322834646,
      "duration": "62i"
    },
    {
      "time": "35296i",
      "midiNote": 69,
      "noteName": "A4",
      "velocity": 0.8661417322834646,
      "duration": "62i"
    },
    {
      "time": "35360i",
      "midiNote": 52,
      "noteName": "E3",
      "velocity": 0.8661417322834646,
      "duration": "62i"
    },
    {
      "time": "35424i",
      "midiNote": 69,
      "noteName": "A4",
      "velocity": 0.8661417322834646,
      "duration": "62i"
    },
    {
      "time": "35488i",
      "midiNote": 67,
      "noteName": "G4",
      "velocity": 0.8661417322834646,
      "duration": "62i"
    },
    {
      "time": "35552i",
      "midiNote": 66,
      "noteName": "F#4",
      "velocity": 0.8661417322834646,
      "duration": "62i"
    },
    {
      "time": "35616i",
      "midiNote": 52,
      "noteName": "E3",
      "velocity": 0.8661417322834646,
      "duration": "62i"
    },
    {
      "time": "35680i",
      "midiNote": 52,
      "noteName": "E3",
      "velocity": 0.8661417322834646,
      "duration": "62i"
    },
    {
      "time": "35744i",
      "midiNote": 52,
      "noteName": "E3",
      "velocity": 0.8661417322834646,
      "duration": "62i"
    },
    {
      "time": "35808i",
      "midiNote": 64,
      "noteName": "E4",
      "velocity": 0.8661417322834646,
      "duration": "160i"
    },
    {
      "time": "36000i",
      "midiNote": 52,
      "noteName": "E3",
      "velocity": 0.8661417322834646,
      "duration": "62i"
    },
    {
      "time": "36064i",
      "midiNote": 52,
      "noteName": "E3",
      "velocity": 0.8661417322834646,
      "duration": "62i"
    },
    {
      "time": "36128i",
      "midiNote": 52,
      "noteName": "E3",
      "velocity": 0.8661417322834646,
      "duration": "62i"
    },
    {
      "time": "36192i",
      "midiNote": 67,
      "noteName": "G4",
      "velocity": 0.8661417322834646,
      "duration": "160i"
    },
    {
      "time": "36384i",
      "midiNote": 52,
      "noteName": "E3",
      "velocity": 0.8661417322834646,
      "duration": "62i"
    },
    {
      "time": "36448i",
      "midiNote": 52,
      "noteName": "E3",
      "velocity": 0.8661417322834646,
      "duration": "62i"
    },
    {
      "time": "36512i",
      "midiNote": 52,
      "noteName": "E3",
      "velocity": 0.8661417322834646,
      "duration": "62i"
    },
    {
      "time": "36576i",
      "midiNote": 69,
      "noteName": "A4",
      "velocity": 0.8661417322834646,
      "duration": "160i"
    },
    {
      "time": "36768i",
      "midiNote": 52,
      "noteName": "E3",
      "velocity": 0.8661417322834646,
      "duration": "62i"
    },
    {
      "time": "36832i",
      "midiNote": 69,
      "noteName": "A4",
      "velocity": 0.8661417322834646,
      "duration": "62i"
    },
    {
      "time": "36896i",
      "midiNote": 52,
      "noteName": "E3",
      "velocity": 0.8661417322834646,
      "duration": "62i"
    },
    {
      "time": "36960i",
      "midiNote": 69,
      "noteName": "A4",
      "velocity": 0.8661417322834646,
      "duration": "62i"
    },
    {
      "time": "37024i",
      "midiNote": 67,
      "noteName": "G4",
      "velocity": 0.8661417322834646,
      "duration": "62i"
    },
    {
      "time": "37088i",
      "midiNote": 66,
      "noteName": "F#4",
      "velocity": 0.8661417322834646,
      "duration": "62i"
    },
    {
      "time": "37152i",
      "midiNote": 52,
      "noteName": "E3",
      "velocity": 0.8661417322834646,
      "duration": "62i"
    },
    {
      "time": "37216i",
      "midiNote": 52,
      "noteName": "E3",
      "velocity": 0.8661417322834646,
      "duration": "62i"
    },
    {
      "time": "37280i",
      "midiNote": 52,
      "noteName": "E3",
      "velocity": 0.8661417322834646,
      "duration": "62i"
    },
    {
      "time": "37344i",
      "midiNote": 64,
      "noteName": "E4",
      "velocity": 0.8661417322834646,
      "duration": "160i"
    },
    {
      "time": "37536i",
      "midiNote": 52,
      "noteName": "E3",
      "velocity": 0.8661417322834646,
      "duration": "62i"
    },
    {
      "time": "37600i",
      "midiNote": 52,
      "noteName": "E3",
      "velocity": 0.8661417322834646,
      "duration": "62i"
    },
    {
      "time": "37664i",
      "midiNote": 52,
      "noteName": "E3",
      "velocity": 0.8661417322834646,
      "duration": "62i"
    },
    {
      "time": "37728i",
      "midiNote": 67,
      "noteName": "G4",
      "velocity": 0.8661417322834646,
      "duration": "160i"
    },
    {
      "time": "37920i",
      "midiNote": 52,
      "noteName": "E3",
      "velocity": 0.8661417322834646,
      "duration": "62i"
    },
    {
      "time": "37984i",
      "midiNote": 52,
      "noteName": "E3",
      "velocity": 0.8661417322834646,
      "duration": "62i"
    },
    {
      "time": "38048i",
      "midiNote": 52,
      "noteName": "E3",
      "velocity": 0.8661417322834646,
      "duration": "62i"
    },
    {
      "time": "38112i",
      "midiNote": 69,
      "noteName": "A4",
      "velocity": 0.8661417322834646,
      "duration": "160i"
    },
    {
      "time": "38304i",
      "midiNote": 52,
      "noteName": "E3",
      "velocity": 0.8661417322834646,
      "duration": "62i"
    },
    {
      "time": "38368i",
      "midiNote": 69,
      "noteName": "A4",
      "velocity": 0.8661417322834646,
      "duration": "62i"
    },
    {
      "time": "38432i",
      "midiNote": 52,
      "noteName": "E3",
      "velocity": 0.8661417322834646,
      "duration": "62i"
    },
    {
      "time": "38496i",
      "midiNote": 69,
      "noteName": "A4",
      "velocity": 0.8661417322834646,
      "duration": "62i"
    },
    {
      "time": "38560i",
      "midiNote": 67,
      "noteName": "G4",
      "velocity": 0.8661417322834646,
      "duration": "62i"
    },
    {
      "time": "38624i",
      "midiNote": 66,
      "noteName": "F#4",
      "velocity": 0.8661417322834646,
      "duration": "62i"
    },
    {
      "time": "38688i",
      "midiNote": 52,
      "noteName": "E3",
      "velocity": 0.8661417322834646,
      "duration": "62i"
    },
    {
      "time": "38752i",
      "midiNote": 52,
      "noteName": "E3",
      "velocity": 0.8661417322834646,
      "duration": "62i"
    },
    {
      "time": "38816i",
      "midiNote": 52,
      "noteName": "E3",
      "velocity": 0.8661417322834646,
      "duration": "62i"
    },
    {
      "time": "38880i",
      "midiNote": 64,
      "noteName": "E4",
      "velocity": 0.8661417322834646,
      "duration": "160i"
    },
    {
      "time": "39072i",
      "midiNote": 52,
      "noteName": "E3",
      "velocity": 0.8661417322834646,
      "duration": "62i"
    },
    {
      "time": "39136i",
      "midiNote": 52,
      "noteName": "E3",
      "velocity": 0.8661417322834646,
      "duration": "62i"
    },
    {
      "time": "39200i",
      "midiNote": 52,
      "noteName": "E3",
      "velocity": 0.8661417322834646,
      "duration": "62i"
    },
    {
      "time": "39264i",
      "midiNote": 67,
      "noteName": "G4",
      "velocity": 0.8661417322834646,
      "duration": "160i"
    },
    {
      "time": "39456i",
      "midiNote": 52,
      "noteName": "E3",
      "velocity": 0.8661417322834646,
      "duration": "62i"
    },
    {
      "time": "39520i",
      "midiNote": 52,
      "noteName": "E3",
      "velocity": 0.8661417322834646,
      "duration": "62i"
    },
    {
      "time": "39584i",
      "midiNote": 52,
      "noteName": "E3",
      "velocity": 0.8661417322834646,
      "duration": "62i"
    },
    {
      "time": "39648i",
      "midiNote": 69,
      "noteName": "A4",
      "velocity": 0.8661417322834646,
      "duration": "160i"
    },
    {
      "time": "39840i",
      "midiNote": 52,
      "noteName": "E3",
      "velocity": 0.8661417322834646,
      "duration": "62i"
    },
    {
      "time": "39904i",
      "midiNote": 69,
      "noteName": "A4",
      "velocity": 0.8661417322834646,
      "duration": "62i"
    },
    {
      "time": "39968i",
      "midiNote": 52,
      "noteName": "E3",
      "velocity": 0.8661417322834646,
      "duration": "62i"
    },
    {
      "time": "40032i",
      "midiNote": 69,
      "noteName": "A4",
      "velocity": 0.8661417322834646,
      "duration": "62i"
    },
    {
      "time": "40096i",
      "midiNote": 67,
      "noteName": "G4",
      "velocity": 0.8661417322834646,
      "duration": "62i"
    },
    {
      "time": "40160i",
      "midiNote": 66,
      "noteName": "F#4",
      "velocity": 0.8661417322834646,
      "duration": "62i"
    },
    {
      "time": "42816i",
      "midiNote": 52,
      "noteName": "E3",
      "velocity": 0.8661417322834646,
      "duration": "62i"
    },
    {
      "time": "42880i",
      "midiNote": 52,
      "noteName": "E3",
      "velocity": 0.8661417322834646,
      "duration": "62i"
    },
    {
      "time": "42944i",
      "midiNote": 52,
      "noteName": "E3",
      "velocity": 0.8661417322834646,
      "duration": "62i"
    },
    {
      "time": "43008i",
      "midiNote": 64,
      "noteName": "E4",
      "velocity": 0.8661417322834646,
      "duration": "528i"
    },
    {
      "time": "43584i",
      "midiNote": 52,
      "noteName": "E3",
      "velocity": 0.8661417322834646,
      "duration": "62i"
    },
    {
      "time": "43648i",
      "midiNote": 52,
      "noteName": "E3",
      "velocity": 0.8661417322834646,
      "duration": "62i"
    },
    {
      "time": "43712i",
      "midiNote": 52,
      "noteName": "E3",
      "velocity": 0.8661417322834646,
      "duration": "62i"
    },
    {
      "time": "43776i",
      "midiNote": 66,
      "noteName": "F#4",
      "velocity": 0.8661417322834646,
      "duration": "528i"
    },
    {
      "time": "44352i",
      "midiNote": 52,
      "noteName": "E3",
      "velocity": 0.8661417322834646,
      "duration": "62i"
    },
    {
      "time": "44416i",
      "midiNote": 52,
      "noteName": "E3",
      "velocity": 0.8661417322834646,
      "duration": "62i"
    },
    {
      "time": "44480i",
      "midiNote": 52,
      "noteName": "E3",
      "velocity": 0.8661417322834646,
      "duration": "62i"
    },
    {
      "time": "44544i",
      "midiNote": 67,
      "noteName": "G4",
      "velocity": 0.8661417322834646,
      "duration": "528i"
    },
    {
      "time": "45120i",
      "midiNote": 52,
      "noteName": "E3",
      "velocity": 0.8661417322834646,
      "duration": "62i"
    },
    {
      "time": "45184i",
      "midiNote": 52,
      "noteName": "E3",
      "velocity": 0.8661417322834646,
      "duration": "62i"
    },
    {
      "time": "45248i",
      "midiNote": 52,
      "noteName": "E3",
      "velocity": 0.8661417322834646,
      "duration": "62i"
    },
    {
      "time": "45312i",
      "midiNote": 69,
      "noteName": "A4",
      "velocity": 0.8661417322834646,
      "duration": "160i"
    },
    {
      "time": "45504i",
      "midiNote": 52,
      "noteName": "E3",
      "velocity": 0.8661417322834646,
      "duration": "62i"
    },
    {
      "time": "45568i",
      "midiNote": 69,
      "noteName": "A4",
      "velocity": 0.8661417322834646,
      "duration": "62i"
    },
    {
      "time": "45632i",
      "midiNote": 52,
      "noteName": "E3",
      "velocity": 0.8661417322834646,
      "duration": "62i"
    },
    {
      "time": "45696i",
      "midiNote": 69,
      "noteName": "A4",
      "velocity": 0.8661417322834646,
      "duration": "62i"
    },
    {
      "time": "45760i",
      "midiNote": 67,
      "noteName": "G4",
      "velocity": 0.8661417322834646,
      "duration": "62i"
    },
    {
      "time": "45824i",
      "midiNote": 66,
      "noteName": "F#4",
      "velocity": 0.8661417322834646,
      "duration": "62i"
    },
    {
      "time": "45888i",
      "midiNote": 52,
      "noteName": "E3",
      "velocity": 0.8661417322834646,
      "duration": "62i"
    },
    {
      "time": "45952i",
      "midiNote": 52,
      "noteName": "E3",
      "velocity": 0.8661417322834646,
      "duration": "62i"
    },
    {
      "time": "46016i",
      "midiNote": 52,
      "noteName": "E3",
      "velocity": 0.8661417322834646,
      "duration": "62i"
    },
    {
      "time": "46080i",
      "midiNote": 64,
      "noteName": "E4",
      "velocity": 0.8661417322834646,
      "duration": "528i"
    },
    {
      "time": "46656i",
      "midiNote": 52,
      "noteName": "E3",
      "velocity": 0.8661417322834646,
      "duration": "62i"
    },
    {
      "time": "46720i",
      "midiNote": 52,
      "noteName": "E3",
      "velocity": 0.8661417322834646,
      "duration": "62i"
    },
    {
      "time": "46784i",
      "midiNote": 52,
      "noteName": "E3",
      "velocity": 0.8661417322834646,
      "duration": "62i"
    },
    {
      "time": "46848i",
      "midiNote": 66,
      "noteName": "F#4",
      "velocity": 0.8661417322834646,
      "duration": "528i"
    },
    {
      "time": "47424i",
      "midiNote": 52,
      "noteName": "E3",
      "velocity": 0.8661417322834646,
      "duration": "62i"
    },
    {
      "time": "47488i",
      "midiNote": 52,
      "noteName": "E3",
      "velocity": 0.8661417322834646,
      "duration": "62i"
    },
    {
      "time": "47552i",
      "midiNote": 52,
      "noteName": "E3",
      "velocity": 0.8661417322834646,
      "duration": "62i"
    },
    {
      "time": "47616i",
      "midiNote": 67,
      "noteName": "G4",
      "velocity": 0.8661417322834646,
      "duration": "528i"
    },
    {
      "time": "48192i",
      "midiNote": 52,
      "noteName": "E3",
      "velocity": 0.8661417322834646,
      "duration": "62i"
    },
    {
      "time": "48256i",
      "midiNote": 52,
      "noteName": "E3",
      "velocity": 0.8661417322834646,
      "duration": "62i"
    },
    {
      "time": "48320i",
      "midiNote": 52,
      "noteName": "E3",
      "velocity": 0.8661417322834646,
      "duration": "62i"
    },
    {
      "time": "48384i",
      "midiNote": 69,
      "noteName": "A4",
      "velocity": 0.8661417322834646,
      "duration": "160i"
    },
    {
      "time": "48576i",
      "midiNote": 52,
      "noteName": "E3",
      "velocity": 0.8661417322834646,
      "duration": "62i"
    },
    {
      "time": "48640i",
      "midiNote": 69,
      "noteName": "A4",
      "velocity": 0.8661417322834646,
      "duration": "62i"
    },
    {
      "time": "48704i",
      "midiNote": 52,
      "noteName": "E3",
      "velocity": 0.8661417322834646,
      "duration": "62i"
    },
    {
      "time": "48768i",
      "midiNote": 69,
      "noteName": "A4",
      "velocity": 0.8661417322834646,
      "duration": "62i"
    },
    {
      "time": "48832i",
      "midiNote": 67,
      "noteName": "G4",
      "velocity": 0.8661417322834646,
      "duration": "62i"
    },
    {
      "time": "48896i",
      "midiNote": 66,
      "noteName": "F#4",
      "velocity": 0.8661417322834646,
      "duration": "62i"
    }
  ],
  [
    {
      "time": "17280i",
      "midiNote": 66,
      "noteName": "F#4",
      "velocity": 0.8661417322834646,
      "duration": "192i"
    },
    {
      "time": "17472i",
      "midiNote": 67,
      "noteName": "G4",
      "velocity": 0.8661417322834646,
      "duration": "3216i"
    },
    {
      "time": "25968i",
      "midiNote": 66,
      "noteName": "F#4",
      "velocity": 0.8661417322834646,
      "duration": "70i"
    },
    {
      "time": "26040i",
      "midiNote": 67,
      "noteName": "G4",
      "velocity": 0.8661417322834646,
      "duration": "70i"
    },
    {
      "time": "26112i",
      "midiNote": 69,
      "noteName": "A4",
      "velocity": 0.8661417322834646,
      "duration": "720i"
    },
    {
      "time": "27168i",
      "midiNote": 67,
      "noteName": "G4",
      "velocity": 0.7244094488188977,
      "duration": "46i"
    },
    {
      "time": "27216i",
      "midiNote": 67,
      "noteName": "G4",
      "velocity": 0.7244094488188977,
      "duration": "46i"
    },
    {
      "time": "27264i",
      "midiNote": 69,
      "noteName": "A4",
      "velocity": 0.7244094488188977,
      "duration": "160i"
    },
    {
      "time": "27936i",
      "midiNote": 67,
      "noteName": "G4",
      "velocity": 0.7244094488188977,
      "duration": "46i"
    },
    {
      "time": "27984i",
      "midiNote": 67,
      "noteName": "G4",
      "velocity": 0.7244094488188977,
      "duration": "46i"
    },
    {
      "time": "28032i",
      "midiNote": 69,
      "noteName": "A4",
      "velocity": 0.7244094488188977,
      "duration": "160i"
    },
    {
      "time": "29952i",
      "midiNote": 88,
      "noteName": "E6",
      "velocity": 0.7244094488188977,
      "duration": "928i"
    },
    {
      "time": "30912i",
      "midiNote": 90,
      "noteName": "F#6",
      "velocity": 0.7244094488188977,
      "duration": "62i"
    },
    {
      "time": "30976i",
      "midiNote": 88,
      "noteName": "E6",
      "velocity": 0.7244094488188977,
      "duration": "62i"
    },
    {
      "time": "31040i",
      "midiNote": 86,
      "noteName": "D6",
      "velocity": 0.7244094488188977,
      "duration": "62i"
    },
    {
      "time": "31488i",
      "midiNote": 67,
      "noteName": "G4",
      "velocity": 0.7244094488188977,
      "duration": "62i"
    },
    {
      "time": "31552i",
      "midiNote": 74,
      "noteName": "D5",
      "velocity": 0.7244094488188977,
      "duration": "62i"
    },
    {
      "time": "31616i",
      "midiNote": 79,
      "noteName": "G5",
      "velocity": 0.7244094488188977,
      "duration": "62i"
    },
    {
      "time": "31680i",
      "midiNote": 67,
      "noteName": "G4",
      "velocity": 0.7244094488188977,
      "duration": "62i"
    },
    {
      "time": "31744i",
      "midiNote": 74,
      "noteName": "D5",
      "velocity": 0.7244094488188977,
      "duration": "62i"
    },
    {
      "time": "31808i",
      "midiNote": 72,
      "noteName": "C5",
      "velocity": 0.7244094488188977,
      "duration": "62i"
    },
    {
      "time": "31872i",
      "midiNote": 79,
      "noteName": "G5",
      "velocity": 0.7244094488188977,
      "duration": "62i"
    },
    {
      "time": "31936i",
      "midiNote": 74,
      "noteName": "D5",
      "velocity": 0.7244094488188977,
      "duration": "62i"
    },
    {
      "time": "32000i",
      "midiNote": 77,
      "noteName": "F5",
      "velocity": 0.7244094488188977,
      "duration": "62i"
    },
    {
      "time": "32064i",
      "midiNote": 72,
      "noteName": "C5",
      "velocity": 0.7244094488188977,
      "duration": "62i"
    },
    {
      "time": "32128i",
      "midiNote": 79,
      "noteName": "G5",
      "velocity": 0.7244094488188977,
      "duration": "62i"
    },
    {
      "time": "32192i",
      "midiNote": 74,
      "noteName": "D5",
      "velocity": 0.7244094488188977,
      "duration": "62i"
    },
    {
      "time": "32256i",
      "midiNote": 77,
      "noteName": "F5",
      "velocity": 0.7244094488188977,
      "duration": "62i"
    },
    {
      "time": "32320i",
      "midiNote": 72,
      "noteName": "C5",
      "velocity": 0.7244094488188977,
      "duration": "62i"
    },
    {
      "time": "32384i",
      "midiNote": 79,
      "noteName": "G5",
      "velocity": 0.7244094488188977,
      "duration": "62i"
    },
    {
      "time": "32448i",
      "midiNote": 81,
      "noteName": "A5",
      "velocity": 0.7244094488188977,
      "duration": "62i"
    },
    {
      "time": "32512i",
      "midiNote": 82,
      "noteName": "A#5",
      "velocity": 0.7244094488188977,
      "duration": "62i"
    },
    {
      "time": "32576i",
      "midiNote": 84,
      "noteName": "C6",
      "velocity": 0.7244094488188977,
      "duration": "62i"
    },
    {
      "time": "32640i",
      "midiNote": 82,
      "noteName": "A#5",
      "velocity": 0.7244094488188977,
      "duration": "62i"
    },
    {
      "time": "32704i",
      "midiNote": 81,
      "noteName": "A5",
      "velocity": 0.7244094488188977,
      "duration": "62i"
    },
    {
      "time": "32768i",
      "midiNote": 76,
      "noteName": "E5",
      "velocity": 0.7244094488188977,
      "duration": "62i"
    },
    {
      "time": "32832i",
      "midiNote": 79,
      "noteName": "G5",
      "velocity": 0.7244094488188977,
      "duration": "62i"
    },
    {
      "time": "32896i",
      "midiNote": 74,
      "noteName": "D5",
      "velocity": 0.7244094488188977,
      "duration": "62i"
    },
    {
      "time": "32960i",
      "midiNote": 81,
      "noteName": "A5",
      "velocity": 0.7244094488188977,
      "duration": "62i"
    },
    {
      "time": "33024i",
      "midiNote": 76,
      "noteName": "E5",
      "velocity": 0.7244094488188977,
      "duration": "62i"
    },
    {
      "time": "33088i",
      "midiNote": 79,
      "noteName": "G5",
      "velocity": 0.7244094488188977,
      "duration": "62i"
    },
    {
      "time": "33152i",
      "midiNote": 74,
      "noteName": "D5",
      "velocity": 0.7244094488188977,
      "duration": "62i"
    },
    {
      "time": "33216i",
      "midiNote": 81,
      "noteName": "A5",
      "velocity": 0.7244094488188977,
      "duration": "62i"
    },
    {
      "time": "33280i",
      "midiNote": 76,
      "noteName": "E5",
      "velocity": 0.7244094488188977,
      "duration": "62i"
    },
    {
      "time": "33344i",
      "midiNote": 79,
      "noteName": "G5",
      "velocity": 0.7244094488188977,
      "duration": "62i"
    },
    {
      "time": "33408i",
      "midiNote": 74,
      "noteName": "D5",
      "velocity": 0.7244094488188977,
      "duration": "62i"
    },
    {
      "time": "33472i",
      "midiNote": 81,
      "noteName": "A5",
      "velocity": 0.7244094488188977,
      "duration": "62i"
    },
    {
      "time": "33536i",
      "midiNote": 76,
      "noteName": "E5",
      "velocity": 0.7244094488188977,
      "duration": "62i"
    },
    {
      "time": "33600i",
      "midiNote": 79,
      "noteName": "G5",
      "velocity": 0.7244094488188977,
      "duration": "62i"
    },
    {
      "time": "33664i",
      "midiNote": 74,
      "noteName": "D5",
      "velocity": 0.7244094488188977,
      "duration": "62i"
    },
    {
      "time": "33728i",
      "midiNote": 78,
      "noteName": "F#5",
      "velocity": 0.7244094488188977,
      "duration": "62i"
    },
    {
      "time": "33792i",
      "midiNote": 79,
      "noteName": "G5",
      "velocity": 0.7244094488188977,
      "duration": "62i"
    },
    {
      "time": "33856i",
      "midiNote": 78,
      "noteName": "F#5",
      "velocity": 0.7244094488188977,
      "duration": "62i"
    },
    {
      "time": "33920i",
      "midiNote": 76,
      "noteName": "E5",
      "velocity": 0.7244094488188977,
      "duration": "62i"
    },
    {
      "time": "33984i",
      "midiNote": 74,
      "noteName": "D5",
      "velocity": 0.7244094488188977,
      "duration": "94i"
    },
    {
      "time": "34080i",
      "midiNote": 64,
      "noteName": "E4",
      "velocity": 0.7244094488188977,
      "duration": "6096i"
    },
    {
      "time": "40224i",
      "midiNote": 67,
      "noteName": "G4",
      "velocity": 0.7244094488188977,
      "duration": "62i"
    },
    {
      "time": "40288i",
      "midiNote": 74,
      "noteName": "D5",
      "velocity": 0.7244094488188977,
      "duration": "62i"
    },
    {
      "time": "40352i",
      "midiNote": 79,
      "noteName": "G5",
      "velocity": 0.7244094488188977,
      "duration": "62i"
    },
    {
      "time": "40416i",
      "midiNote": 67,
      "noteName": "G4",
      "velocity": 0.7244094488188977,
      "duration": "62i"
    },
    {
      "time": "40480i",
      "midiNote": 74,
      "noteName": "D5",
      "velocity": 0.7244094488188977,
      "duration": "62i"
    },
    {
      "time": "40544i",
      "midiNote": 72,
      "noteName": "C5",
      "velocity": 0.7244094488188977,
      "duration": "62i"
    },
    {
      "time": "40608i",
      "midiNote": 79,
      "noteName": "G5",
      "velocity": 0.7244094488188977,
      "duration": "62i"
    },
    {
      "time": "40672i",
      "midiNote": 74,
      "noteName": "D5",
      "velocity": 0.7244094488188977,
      "duration": "62i"
    },
    {
      "time": "40736i",
      "midiNote": 77,
      "noteName": "F5",
      "velocity": 0.7244094488188977,
      "duration": "62i"
    },
    {
      "time": "40800i",
      "midiNote": 72,
      "noteName": "C5",
      "velocity": 0.7244094488188977,
      "duration": "62i"
    },
    {
      "time": "40864i",
      "midiNote": 79,
      "noteName": "G5",
      "velocity": 0.7244094488188977,
      "duration": "62i"
    },
    {
      "time": "40928i",
      "midiNote": 74,
      "noteName": "D5",
      "velocity": 0.7244094488188977,
      "duration": "62i"
    },
    {
      "time": "40992i",
      "midiNote": 77,
      "noteName": "F5",
      "velocity": 0.7244094488188977,
      "duration": "62i"
    },
    {
      "time": "41056i",
      "midiNote": 72,
      "noteName": "C5",
      "velocity": 0.7244094488188977,
      "duration": "62i"
    },
    {
      "time": "41120i",
      "midiNote": 79,
      "noteName": "G5",
      "velocity": 0.7244094488188977,
      "duration": "62i"
    },
    {
      "time": "41184i",
      "midiNote": 81,
      "noteName": "A5",
      "velocity": 0.7244094488188977,
      "duration": "62i"
    },
    {
      "time": "41248i",
      "midiNote": 82,
      "noteName": "A#5",
      "velocity": 0.7244094488188977,
      "duration": "62i"
    },
    {
      "time": "41312i",
      "midiNote": 84,
      "noteName": "C6",
      "velocity": 0.7244094488188977,
      "duration": "62i"
    },
    {
      "time": "41376i",
      "midiNote": 82,
      "noteName": "A#5",
      "velocity": 0.7244094488188977,
      "duration": "62i"
    },
    {
      "time": "41440i",
      "midiNote": 81,
      "noteName": "A5",
      "velocity": 0.7244094488188977,
      "duration": "62i"
    },
    {
      "time": "41504i",
      "midiNote": 76,
      "noteName": "E5",
      "velocity": 0.7244094488188977,
      "duration": "62i"
    },
    {
      "time": "41568i",
      "midiNote": 79,
      "noteName": "G5",
      "velocity": 0.7244094488188977,
      "duration": "62i"
    },
    {
      "time": "41632i",
      "midiNote": 74,
      "noteName": "D5",
      "velocity": 0.7244094488188977,
      "duration": "62i"
    },
    {
      "time": "41696i",
      "midiNote": 81,
      "noteName": "A5",
      "velocity": 0.7244094488188977,
      "duration": "62i"
    },
    {
      "time": "41760i",
      "midiNote": 76,
      "noteName": "E5",
      "velocity": 0.7244094488188977,
      "duration": "62i"
    },
    {
      "time": "41824i",
      "midiNote": 79,
      "noteName": "G5",
      "velocity": 0.7244094488188977,
      "duration": "62i"
    },
    {
      "time": "41888i",
      "midiNote": 74,
      "noteName": "D5",
      "velocity": 0.7244094488188977,
      "duration": "62i"
    },
    {
      "time": "41952i",
      "midiNote": 81,
      "noteName": "A5",
      "velocity": 0.7244094488188977,
      "duration": "62i"
    },
    {
      "time": "42016i",
      "midiNote": 76,
      "noteName": "E5",
      "velocity": 0.7244094488188977,
      "duration": "62i"
    },
    {
      "time": "42080i",
      "midiNote": 79,
      "noteName": "G5",
      "velocity": 0.7244094488188977,
      "duration": "62i"
    },
    {
      "time": "42144i",
      "midiNote": 74,
      "noteName": "D5",
      "velocity": 0.7244094488188977,
      "duration": "62i"
    },
    {
      "time": "42208i",
      "midiNote": 81,
      "noteName": "A5",
      "velocity": 0.7244094488188977,
      "duration": "62i"
    },
    {
      "time": "42272i",
      "midiNote": 76,
      "noteName": "E5",
      "velocity": 0.7244094488188977,
      "duration": "62i"
    },
    {
      "time": "42336i",
      "midiNote": 79,
      "noteName": "G5",
      "velocity": 0.7244094488188977,
      "duration": "62i"
    },
    {
      "time": "42400i",
      "midiNote": 74,
      "noteName": "D5",
      "velocity": 0.7244094488188977,
      "duration": "62i"
    },
    {
      "time": "42464i",
      "midiNote": 78,
      "noteName": "F#5",
      "velocity": 0.7244094488188977,
      "duration": "62i"
    },
    {
      "time": "42528i",
      "midiNote": 79,
      "noteName": "G5",
      "velocity": 0.7244094488188977,
      "duration": "62i"
    },
    {
      "time": "42592i",
      "midiNote": 78,
      "noteName": "F#5",
      "velocity": 0.7244094488188977,
      "duration": "62i"
    },
    {
      "time": "42656i",
      "midiNote": 76,
      "noteName": "E5",
      "velocity": 0.7244094488188977,
      "duration": "62i"
    },
    {
      "time": "42720i",
      "midiNote": 74,
      "noteName": "D5",
      "velocity": 0.7244094488188977,
      "duration": "94i"
    },
    {
      "time": "42816i",
      "midiNote": 64,
      "noteName": "E4",
      "velocity": 0.7244094488188977,
      "duration": "768i"
    },
    {
      "time": "43584i",
      "midiNote": 66,
      "noteName": "F#4",
      "velocity": 0.7244094488188977,
      "duration": "768i"
    },
    {
      "time": "44352i",
      "midiNote": 67,
      "noteName": "G4",
      "velocity": 0.7244094488188977,
      "duration": "768i"
    },
    {
      "time": "45120i",
      "midiNote": 69,
      "noteName": "A4",
      "velocity": 0.7244094488188977,
      "duration": "768i"
    },
    {
      "time": "45888i",
      "midiNote": 64,
      "noteName": "E4",
      "velocity": 0.7244094488188977,
      "duration": "384i"
    },
    {
      "time": "46272i",
      "midiNote": 66,
      "noteName": "F#4",
      "velocity": 0.7244094488188977,
      "duration": "192i"
    },
    {
      "time": "46464i",
      "midiNote": 67,
      "noteName": "G4",
      "velocity": 0.7244094488188977,
      "duration": "192i"
    },
    {
      "time": "46656i",
      "midiNote": 69,
      "noteName": "A4",
      "velocity": 0.7244094488188977,
      "duration": "768i"
    },
    {
      "time": "47424i",
      "midiNote": 71,
      "noteName": "B4",
      "velocity": 0.7244094488188977,
      "duration": "384i"
    },
    {
      "time": "47808i",
      "midiNote": 66,
      "noteName": "F#4",
      "velocity": 0.7244094488188977,
      "duration": "192i"
    },
    {
      "time": "48000i",
      "midiNote": 67,
      "noteName": "G4",
      "velocity": 0.7244094488188977,
      "duration": "192i"
    },
    {
      "time": "48192i",
      "midiNote": 73,
      "noteName": "C#5",
      "velocity": 0.7244094488188977,
      "duration": "768i"
    },
    {
      "time": "48960i",
      "midiNote": 74,
      "noteName": "D5",
      "velocity": 0.7244094488188977,
      "duration": "384i"
    },
    {
      "time": "49344i",
      "midiNote": 76,
      "noteName": "E5",
      "velocity": 0.7244094488188977,
      "duration": "192i"
    },
    {
      "time": "49536i",
      "midiNote": 78,
      "noteName": "F#5",
      "velocity": 0.7244094488188977,
      "duration": "192i"
    },
    {
      "time": "49728i",
      "midiNote": 79,
      "noteName": "G5",
      "velocity": 0.7244094488188977,
      "duration": "384i"
    },
    {
      "time": "50112i",
      "midiNote": 81,
      "noteName": "A5",
      "velocity": 0.7244094488188977,
      "duration": "336i"
    },
    {
      "time": "50496i",
      "midiNote": 83,
      "noteName": "B5",
      "velocity": 0.7244094488188977,
      "duration": "1488i"
    }
  ],
  [
    {
      "time": "20736i",
      "midiNote": 40,
      "noteName": "E2",
      "velocity": 0.8661417322834646,
      "duration": "624i"
    },
    {
      "time": "21456i",
      "midiNote": 40,
      "noteName": "E2",
      "velocity": 0.8661417322834646,
      "duration": "46i"
    },
    {
      "time": "21504i",
      "midiNote": 40,
      "noteName": "E2",
      "velocity": 0.8661417322834646,
      "duration": "720i"
    },
    {
      "time": "22272i",
      "midiNote": 40,
      "noteName": "E2",
      "velocity": 0.8661417322834646,
      "duration": "624i"
    },
    {
      "time": "22992i",
      "midiNote": 40,
      "noteName": "E2",
      "velocity": 0.8661417322834646,
      "duration": "46i"
    },
    {
      "time": "23040i",
      "midiNote": 40,
      "noteName": "E2",
      "velocity": 0.8661417322834646,
      "duration": "720i"
    },
    {
      "time": "23808i",
      "midiNote": 40,
      "noteName": "E2",
      "velocity": 0.8661417322834646,
      "duration": "624i"
    },
    {
      "time": "24528i",
      "midiNote": 40,
      "noteName": "E2",
      "velocity": 0.8661417322834646,
      "duration": "46i"
    },
    {
      "time": "24576i",
      "midiNote": 40,
      "noteName": "E2",
      "velocity": 0.8661417322834646,
      "duration": "720i"
    },
    {
      "time": "25344i",
      "midiNote": 40,
      "noteName": "E2",
      "velocity": 0.8661417322834646,
      "duration": "624i"
    },
    {
      "time": "26064i",
      "midiNote": 40,
      "noteName": "E2",
      "velocity": 0.8661417322834646,
      "duration": "46i"
    },
    {
      "time": "26112i",
      "midiNote": 40,
      "noteName": "E2",
      "velocity": 0.8661417322834646,
      "duration": "720i"
    },
    {
      "time": "26880i",
      "midiNote": 40,
      "noteName": "E2",
      "velocity": 0.8661417322834646,
      "duration": "624i"
    },
    {
      "time": "27600i",
      "midiNote": 40,
      "noteName": "E2",
      "velocity": 0.8661417322834646,
      "duration": "46i"
    },
    {
      "time": "27648i",
      "midiNote": 40,
      "noteName": "E2",
      "velocity": 0.8661417322834646,
      "duration": "720i"
    },
    {
      "time": "28416i",
      "midiNote": 40,
      "noteName": "E2",
      "velocity": 0.8661417322834646,
      "duration": "624i"
    },
    {
      "time": "29136i",
      "midiNote": 40,
      "noteName": "E2",
      "velocity": 0.8661417322834646,
      "duration": "46i"
    },
    {
      "time": "29184i",
      "midiNote": 40,
      "noteName": "E2",
      "velocity": 0.8661417322834646,
      "duration": "720i"
    },
    {
      "time": "29952i",
      "midiNote": 40,
      "noteName": "E2",
      "velocity": 0.8661417322834646,
      "duration": "624i"
    },
    {
      "time": "30672i",
      "midiNote": 40,
      "noteName": "E2",
      "velocity": 0.8661417322834646,
      "duration": "46i"
    },
    {
      "time": "30720i",
      "midiNote": 40,
      "noteName": "E2",
      "velocity": 0.8661417322834646,
      "duration": "336i"
    },
    {
      "time": "31104i",
      "midiNote": 40,
      "noteName": "E2",
      "velocity": 0.8661417322834646,
      "duration": "62i"
    },
    {
      "time": "31168i",
      "midiNote": 40,
      "noteName": "E2",
      "velocity": 0.8661417322834646,
      "duration": "62i"
    },
    {
      "time": "31232i",
      "midiNote": 40,
      "noteName": "E2",
      "velocity": 0.8661417322834646,
      "duration": "62i"
    },
    {
      "time": "31296i",
      "midiNote": 40,
      "noteName": "E2",
      "velocity": 0.8661417322834646,
      "duration": "62i"
    },
    {
      "time": "31360i",
      "midiNote": 40,
      "noteName": "E2",
      "velocity": 0.8661417322834646,
      "duration": "62i"
    },
    {
      "time": "31424i",
      "midiNote": 40,
      "noteName": "E2",
      "velocity": 0.8661417322834646,
      "duration": "62i"
    },
    {
      "time": "31488i",
      "midiNote": 40,
      "noteName": "E2",
      "velocity": 0.8661417322834646,
      "duration": "160i"
    },
    {
      "time": "32760i",
      "midiNote": 40,
      "noteName": "E2",
      "velocity": 0.8661417322834646,
      "duration": "160i"
    },
    {
      "time": "34080i",
      "midiNote": 40,
      "noteName": "E2",
      "velocity": 0.8661417322834646,
      "duration": "624i"
    },
    {
      "time": "34800i",
      "midiNote": 40,
      "noteName": "E2",
      "velocity": 0.8661417322834646,
      "duration": "46i"
    },
    {
      "time": "34848i",
      "midiNote": 40,
      "noteName": "E2",
      "velocity": 0.8661417322834646,
      "duration": "720i"
    },
    {
      "time": "35616i",
      "midiNote": 40,
      "noteName": "E2",
      "velocity": 0.8661417322834646,
      "duration": "624i"
    },
    {
      "time": "36336i",
      "midiNote": 40,
      "noteName": "E2",
      "velocity": 0.8661417322834646,
      "duration": "46i"
    },
    {
      "time": "36384i",
      "midiNote": 40,
      "noteName": "E2",
      "velocity": 0.8661417322834646,
      "duration": "720i"
    },
    {
      "time": "37152i",
      "midiNote": 40,
      "noteName": "E2",
      "velocity": 0.8661417322834646,
      "duration": "624i"
    },
    {
      "time": "37872i",
      "midiNote": 40,
      "noteName": "E2",
      "velocity": 0.8661417322834646,
      "duration": "46i"
    },
    {
      "time": "37920i",
      "midiNote": 40,
      "noteName": "E2",
      "velocity": 0.8661417322834646,
      "duration": "720i"
    },
    {
      "time": "38688i",
      "midiNote": 40,
      "noteName": "E2",
      "velocity": 0.8661417322834646,
      "duration": "624i"
    },
    {
      "time": "39408i",
      "midiNote": 40,
      "noteName": "E2",
      "velocity": 0.8661417322834646,
      "duration": "46i"
    },
    {
      "time": "39456i",
      "midiNote": 40,
      "noteName": "E2",
      "velocity": 0.8661417322834646,
      "duration": "336i"
    },
    {
      "time": "39840i",
      "midiNote": 40,
      "noteName": "E2",
      "velocity": 0.8661417322834646,
      "duration": "62i"
    },
    {
      "time": "39904i",
      "midiNote": 40,
      "noteName": "E2",
      "velocity": 0.8661417322834646,
      "duration": "62i"
    },
    {
      "time": "39968i",
      "midiNote": 40,
      "noteName": "E2",
      "velocity": 0.8661417322834646,
      "duration": "62i"
    },
    {
      "time": "40032i",
      "midiNote": 40,
      "noteName": "E2",
      "velocity": 0.8661417322834646,
      "duration": "62i"
    },
    {
      "time": "40096i",
      "midiNote": 40,
      "noteName": "E2",
      "velocity": 0.8661417322834646,
      "duration": "62i"
    },
    {
      "time": "40160i",
      "midiNote": 40,
      "noteName": "E2",
      "velocity": 0.8661417322834646,
      "duration": "62i"
    },
    {
      "time": "40224i",
      "midiNote": 40,
      "noteName": "E2",
      "velocity": 0.8661417322834646,
      "duration": "160i"
    },
    {
      "time": "41496i",
      "midiNote": 40,
      "noteName": "E2",
      "velocity": 0.8661417322834646,
      "duration": "160i"
    }
  ],
  [
    {
      "time": "28608i",
      "midiNote": 52,
      "noteName": "E3",
      "velocity": 0.8503937007874016,
      "duration": "160i"
    },
    {
      "time": "28992i",
      "midiNote": 52,
      "noteName": "E3",
      "velocity": 0.8503937007874016,
      "duration": "160i"
    },
    {
      "time": "29376i",
      "midiNote": 52,
      "noteName": "E3",
      "velocity": 0.8503937007874016,
      "duration": "160i"
    },
    {
      "time": "29760i",
      "midiNote": 52,
      "noteName": "E3",
      "velocity": 0.8503937007874016,
      "duration": "160i"
    },
    {
      "time": "30144i",
      "midiNote": 52,
      "noteName": "E3",
      "velocity": 0.8503937007874016,
      "duration": "160i"
    },
    {
      "time": "30528i",
      "midiNote": 52,
      "noteName": "E3",
      "velocity": 0.8503937007874016,
      "duration": "160i"
    },
    {
      "time": "30912i",
      "midiNote": 52,
      "noteName": "E3",
      "velocity": 0.8503937007874016,
      "duration": "160i"
    },
    {
      "time": "31296i",
      "midiNote": 52,
      "noteName": "E3",
      "velocity": 0.8503937007874016,
      "duration": "160i"
    },
    {
      "time": "31680i",
      "midiNote": 52,
      "noteName": "E3",
      "velocity": 0.8503937007874016,
      "duration": "160i"
    },
    {
      "time": "32952i",
      "midiNote": 52,
      "noteName": "E3",
      "velocity": 0.8503937007874016,
      "duration": "190i"
    },
    {
      "time": "37344i",
      "midiNote": 52,
      "noteName": "E3",
      "velocity": 0.8503937007874016,
      "duration": "160i"
    },
    {
      "time": "37728i",
      "midiNote": 52,
      "noteName": "E3",
      "velocity": 0.8503937007874016,
      "duration": "160i"
    },
    {
      "time": "38112i",
      "midiNote": 52,
      "noteName": "E3",
      "velocity": 0.8503937007874016,
      "duration": "160i"
    },
    {
      "time": "38496i",
      "midiNote": 52,
      "noteName": "E3",
      "velocity": 0.8503937007874016,
      "duration": "160i"
    },
    {
      "time": "38880i",
      "midiNote": 52,
      "noteName": "E3",
      "velocity": 0.8503937007874016,
      "duration": "160i"
    },
    {
      "time": "39264i",
      "midiNote": 52,
      "noteName": "E3",
      "velocity": 0.8503937007874016,
      "duration": "160i"
    },
    {
      "time": "39648i",
      "midiNote": 52,
      "noteName": "E3",
      "velocity": 0.8503937007874016,
      "duration": "160i"
    },
    {
      "time": "40032i",
      "midiNote": 52,
      "noteName": "E3",
      "velocity": 0.8503937007874016,
      "duration": "160i"
    },
    {
      "time": "40416i",
      "midiNote": 52,
      "noteName": "E3",
      "velocity": 0.8503937007874016,
      "duration": "160i"
    },
    {
      "time": "41688i",
      "midiNote": 52,
      "noteName": "E3",
      "velocity": 0.8503937007874016,
      "duration": "190i"
    }
  ],
  [
    {
      "time": "816i",
      "midiNote": 52,
      "noteName": "E3",
      "velocity": 0.8661417322834646,
      "duration": "384i"
    },
    {
      "time": "1200i",
      "midiNote": 54,
      "noteName": "F#3",
      "velocity": 0.8661417322834646,
      "duration": "192i"
    },
    {
      "time": "1392i",
      "midiNote": 55,
      "noteName": "G3",
      "velocity": 0.8661417322834646,
      "duration": "192i"
    },
    {
      "time": "1584i",
      "midiNote": 54,
      "noteName": "F#3",
      "velocity": 0.8661417322834646,
      "duration": "192i"
    },
    {
      "time": "1776i",
      "midiNote": 57,
      "noteName": "A3",
      "velocity": 0.8661417322834646,
      "duration": "192i"
    },
    {
      "time": "1968i",
      "midiNote": 55,
      "noteName": "G3",
      "velocity": 0.8661417322834646,
      "duration": "192i"
    },
    {
      "time": "2160i",
      "midiNote": 54,
      "noteName": "F#3",
      "velocity": 0.8661417322834646,
      "duration": "192i"
    },
    {
      "time": "2352i",
      "midiNote": 52,
      "noteName": "E3",
      "velocity": 0.8661417322834646,
      "duration": "1104i"
    },
    {
      "time": "3504i",
      "midiNote": 59,
      "noteName": "B3",
      "velocity": 0.8661417322834646,
      "duration": "192i"
    },
    {
      "time": "3696i",
      "midiNote": 61,
      "noteName": "C#4",
      "velocity": 0.8661417322834646,
      "duration": "192i"
    },
    {
      "time": "3888i",
      "midiNote": 62,
      "noteName": "D4",
      "velocity": 0.8661417322834646,
      "duration": "576i"
    },
    {
      "time": "4464i",
      "midiNote": 61,
      "noteName": "C#4",
      "velocity": 0.8661417322834646,
      "duration": "192i"
    },
    {
      "time": "4656i",
      "midiNote": 57,
      "noteName": "A3",
      "velocity": 0.8661417322834646,
      "duration": "192i"
    },
    {
      "time": "4848i",
      "midiNote": 61,
      "noteName": "C#4",
      "velocity": 0.8661417322834646,
      "duration": "192i"
    },
    {
      "time": "5040i",
      "midiNote": 59,
      "noteName": "B3",
      "velocity": 0.8661417322834646,
      "duration": "1104i"
    },
    {
      "time": "6192i",
      "midiNote": 47,
      "noteName": "B2",
      "velocity": 0.8661417322834646,
      "duration": "192i"
    },
    {
      "time": "6384i",
      "midiNote": 50,
      "noteName": "D3",
      "velocity": 0.8661417322834646,
      "duration": "192i"
    },
    {
      "time": "6576i",
      "midiNote": 52,
      "noteName": "E3",
      "velocity": 0.8661417322834646,
      "duration": "192i"
    },
    {
      "time": "6768i",
      "midiNote": 55,
      "noteName": "G3",
      "velocity": 0.8661417322834646,
      "duration": "192i"
    },
    {
      "time": "6960i",
      "midiNote": 57,
      "noteName": "A3",
      "velocity": 0.8661417322834646,
      "duration": "192i"
    },
    {
      "time": "7152i",
      "midiNote": 54,
      "noteName": "F#3",
      "velocity": 0.8661417322834646,
      "duration": "528i"
    },
    {
      "time": "7728i",
      "midiNote": 52,
      "noteName": "E3",
      "velocity": 0.8661417322834646,
      "duration": "192i"
    },
    {
      "time": "7920i",
      "midiNote": 55,
      "noteName": "G3",
      "velocity": 0.8661417322834646,
      "duration": "192i"
    },
    {
      "time": "8112i",
      "midiNote": 54,
      "noteName": "F#3",
      "velocity": 0.8661417322834646,
      "duration": "192i"
    },
    {
      "time": "8304i",
      "midiNote": 52,
      "noteName": "E3",
      "velocity": 0.8661417322834646,
      "duration": "192i"
    },
    {
      "time": "8496i",
      "midiNote": 54,
      "noteName": "F#3",
      "velocity": 0.8661417322834646,
      "duration": "192i"
    },
    {
      "time": "8688i",
      "midiNote": 50,
      "noteName": "D3",
      "velocity": 0.8661417322834646,
      "duration": "528i"
    },
    {
      "time": "9264i",
      "midiNote": 52,
      "noteName": "E3",
      "velocity": 0.8661417322834646,
      "duration": "1488i"
    },
    {
      "time": "42864i",
      "midiNote": 52,
      "noteName": "E3",
      "velocity": 0.5905511811023622,
      "duration": "3024i"
    },
    {
      "time": "43632i",
      "midiNote": 54,
      "noteName": "F#3",
      "velocity": 0.5905511811023622,
      "duration": "2256i"
    },
    {
      "time": "44400i",
      "midiNote": 55,
      "noteName": "G3",
      "velocity": 0.5905511811023622,
      "duration": "1488i"
    },
    {
      "time": "44400i",
      "midiNote": 59,
      "noteName": "B3",
      "velocity": 0.5905511811023622,
      "duration": "720i"
    },
    {
      "time": "45168i",
      "midiNote": 57,
      "noteName": "A3",
      "velocity": 0.5905511811023622,
      "duration": "720i"
    },
    {
      "time": "45168i",
      "midiNote": 61,
      "noteName": "C#4",
      "velocity": 0.5905511811023622,
      "duration": "720i"
    },
    {
      "time": "45936i",
      "midiNote": 52,
      "noteName": "E3",
      "velocity": 0.5905511811023622,
      "duration": "6096i"
    },
    {
      "time": "46704i",
      "midiNote": 54,
      "noteName": "F#3",
      "velocity": 0.5905511811023622,
      "duration": "5328i"
    },
    {
      "time": "47472i",
      "midiNote": 55,
      "noteName": "G3",
      "velocity": 0.5905511811023622,
      "duration": "4560i"
    },
    {
      "time": "47472i",
      "midiNote": 59,
      "noteName": "B3",
      "velocity": 0.5905511811023622,
      "duration": "720i"
    },
    {
      "time": "48240i",
      "midiNote": 57,
      "noteName": "A3",
      "velocity": 0.5905511811023622,
      "duration": "3792i"
    },
    {
      "time": "48240i",
      "midiNote": 61,
      "noteName": "C#4",
      "velocity": 0.5905511811023622,
      "duration": "3792i"
    },
    {
      "time": "52848i",
      "midiNote": 52,
      "noteName": "E3",
      "velocity": 0.7244094488188977,
      "duration": "384i"
    },
    {
      "time": "53232i",
      "midiNote": 54,
      "noteName": "F#3",
      "velocity": 0.7244094488188977,
      "duration": "192i"
    },
    {
      "time": "53424i",
      "midiNote": 55,
      "noteName": "G3",
      "velocity": 0.7244094488188977,
      "duration": "192i"
    },
    {
      "time": "53616i",
      "midiNote": 54,
      "noteName": "F#3",
      "velocity": 0.7244094488188977,
      "duration": "192i"
    },
    {
      "time": "53808i",
      "midiNote": 57,
      "noteName": "A3",
      "velocity": 0.7244094488188977,
      "duration": "192i"
    },
    {
      "time": "54000i",
      "midiNote": 55,
      "noteName": "G3",
      "velocity": 0.7244094488188977,
      "duration": "192i"
    },
    {
      "time": "54192i",
      "midiNote": 54,
      "noteName": "F#3",
      "velocity": 0.7244094488188977,
      "duration": "192i"
    },
    {
      "time": "54384i",
      "midiNote": 52,
      "noteName": "E3",
      "velocity": 0.7244094488188977,
      "duration": "1104i"
    },
    {
      "time": "55536i",
      "midiNote": 59,
      "noteName": "B3",
      "velocity": 0.7244094488188977,
      "duration": "192i"
    },
    {
      "time": "55728i",
      "midiNote": 61,
      "noteName": "C#4",
      "velocity": 0.7244094488188977,
      "duration": "192i"
    },
    {
      "time": "55920i",
      "midiNote": 62,
      "noteName": "D4",
      "velocity": 0.7244094488188977,
      "duration": "576i"
    },
    {
      "time": "56496i",
      "midiNote": 61,
      "noteName": "C#4",
      "velocity": 0.7244094488188977,
      "duration": "192i"
    },
    {
      "time": "56688i",
      "midiNote": 57,
      "noteName": "A3",
      "velocity": 0.7244094488188977,
      "duration": "192i"
    },
    {
      "time": "56880i",
      "midiNote": 61,
      "noteName": "C#4",
      "velocity": 0.7244094488188977,
      "duration": "192i"
    },
    {
      "time": "57072i",
      "midiNote": 59,
      "noteName": "B3",
      "velocity": 0.7244094488188977,
      "duration": "1104i"
    },
    {
      "time": "58224i",
      "midiNote": 47,
      "noteName": "B2",
      "velocity": 0.7244094488188977,
      "duration": "192i"
    },
    {
      "time": "58416i",
      "midiNote": 50,
      "noteName": "D3",
      "velocity": 0.7244094488188977,
      "duration": "192i"
    },
    {
      "time": "58608i",
      "midiNote": 52,
      "noteName": "E3",
      "velocity": 0.7244094488188977,
      "duration": "192i"
    },
    {
      "time": "58800i",
      "midiNote": 55,
      "noteName": "G3",
      "velocity": 0.7244094488188977,
      "duration": "192i"
    },
    {
      "time": "58992i",
      "midiNote": 57,
      "noteName": "A3",
      "velocity": 0.7244094488188977,
      "duration": "192i"
    },
    {
      "time": "59184i",
      "midiNote": 54,
      "noteName": "F#3",
      "velocity": 0.7244094488188977,
      "duration": "528i"
    },
    {
      "time": "59760i",
      "midiNote": 52,
      "noteName": "E3",
      "velocity": 0.7244094488188977,
      "duration": "192i"
    },
    {
      "time": "59952i",
      "midiNote": 55,
      "noteName": "G3",
      "velocity": 0.7244094488188977,
      "duration": "192i"
    },
    {
      "time": "60144i",
      "midiNote": 54,
      "noteName": "F#3",
      "velocity": 0.7244094488188977,
      "duration": "192i"
    },
    {
      "time": "60336i",
      "midiNote": 52,
      "noteName": "E3",
      "velocity": 0.7244094488188977,
      "duration": "192i"
    },
    {
      "time": "60528i",
      "midiNote": 54,
      "noteName": "F#3",
      "velocity": 0.7244094488188977,
      "duration": "192i"
    },
    {
      "time": "60720i",
      "midiNote": 50,
      "noteName": "D3",
      "velocity": 0.7244094488188977,
      "duration": "528i"
    },
    {
      "time": "61296i",
      "midiNote": 52,
      "noteName": "E3",
      "velocity": 0.7244094488188977,
      "duration": "2256i"
    }
  ]
]

buildTrack = parseMidi(parts: parts, transport: transport)
