require('v1/midi')

transport = {
  "bpm": 480,
  "timeSignature": [
    4,
    4
  ]
}

parts = [
  [
    {
      "time": "0i",
      "midiNote": 50,
      "noteName": "D3",
      "velocity": 0.5039370078740157,
      "duration": "1536i"
    },
    {
      "time": "384i",
      "midiNote": 57,
      "noteName": "A3",
      "velocity": 0.5039370078740157,
      "duration": "192i"
    },
    {
      "time": "576i",
      "midiNote": 59,
      "noteName": "B3",
      "velocity": 0.5039370078740157,
      "duration": "192i"
    },
    {
      "time": "768i",
      "midiNote": 60,
      "noteName": "C4",
      "velocity": 0.5039370078740157,
      "duration": "576i"
    },
    {
      "time": "960i",
      "midiNote": 53,
      "noteName": "F3",
      "velocity": 0.5039370078740157,
      "duration": "192i"
    },
    {
      "time": "1152i",
      "midiNote": 57,
      "noteName": "A3",
      "velocity": 0.5039370078740157,
      "duration": "192i"
    },
    {
      "time": "1344i",
      "midiNote": 55,
      "noteName": "G3",
      "velocity": 0.5039370078740157,
      "duration": "192i"
    },
    {
      "time": "1344i",
      "midiNote": 59,
      "noteName": "B3",
      "velocity": 0.5039370078740157,
      "duration": "192i"
    },
    {
      "time": "1536i",
      "midiNote": 50,
      "noteName": "D3",
      "velocity": 0.5039370078740157,
      "duration": "2496i"
    },
    {
      "time": "1920i",
      "midiNote": 53,
      "noteName": "F3",
      "velocity": 0.5039370078740157,
      "duration": "192i"
    },
    {
      "time": "2112i",
      "midiNote": 55,
      "noteName": "G3",
      "velocity": 0.5039370078740157,
      "duration": "192i"
    },
    {
      "time": "2304i",
      "midiNote": 57,
      "noteName": "A3",
      "velocity": 0.5039370078740157,
      "duration": "576i"
    },
    {
      "time": "2496i",
      "midiNote": 48,
      "noteName": "C3",
      "velocity": 0.5039370078740157,
      "duration": "192i"
    },
    {
      "time": "2688i",
      "midiNote": 53,
      "noteName": "F3",
      "velocity": 0.5039370078740157,
      "duration": "192i"
    },
    {
      "time": "2880i",
      "midiNote": 52,
      "noteName": "E3",
      "velocity": 0.5039370078740157,
      "duration": "192i"
    },
    {
      "time": "2880i",
      "midiNote": 55,
      "noteName": "G3",
      "velocity": 0.5039370078740157,
      "duration": "192i"
    },
    {
      "time": "3072i",
      "midiNote": 50,
      "noteName": "D3",
      "velocity": 0.5039370078740157,
      "duration": "960i"
    },
    {
      "time": "3456i",
      "midiNote": 57,
      "noteName": "A3",
      "velocity": 0.5039370078740157,
      "duration": "192i"
    },
    {
      "time": "3648i",
      "midiNote": 60,
      "noteName": "C4",
      "velocity": 0.5039370078740157,
      "duration": "192i"
    },
    {
      "time": "3840i",
      "midiNote": 62,
      "noteName": "D4",
      "velocity": 0.5039370078740157,
      "duration": "576i"
    },
    {
      "time": "4032i",
      "midiNote": 55,
      "noteName": "G3",
      "velocity": 0.5039370078740157,
      "duration": "192i"
    },
    {
      "time": "4032i",
      "midiNote": 55,
      "noteName": "G3",
      "velocity": 0.5039370078740157,
      "duration": "192i"
    },
    {
      "time": "4224i",
      "midiNote": 59,
      "noteName": "B3",
      "velocity": 0.5039370078740157,
      "duration": "192i"
    },
    {
      "time": "4224i",
      "midiNote": 59,
      "noteName": "B3",
      "velocity": 0.5039370078740157,
      "duration": "192i"
    },
    {
      "time": "4416i",
      "midiNote": 57,
      "noteName": "A3",
      "velocity": 0.5039370078740157,
      "duration": "192i"
    },
    {
      "time": "4416i",
      "midiNote": 60,
      "noteName": "C4",
      "velocity": 0.5039370078740157,
      "duration": "192i"
    },
    {
      "time": "4416i",
      "midiNote": 57,
      "noteName": "A3",
      "velocity": 0.5039370078740157,
      "duration": "192i"
    },
    {
      "time": "4608i",
      "midiNote": 59,
      "noteName": "B3",
      "velocity": 0.5039370078740157,
      "duration": "384i"
    },
    {
      "time": "4608i",
      "midiNote": 55,
      "noteName": "G3",
      "velocity": 0.5039370078740157,
      "duration": "384i"
    },
    {
      "time": "4608i",
      "midiNote": 62,
      "noteName": "D4",
      "velocity": 0.5039370078740157,
      "duration": "384i"
    },
    {
      "time": "4992i",
      "midiNote": 57,
      "noteName": "A3",
      "velocity": 0.5039370078740157,
      "duration": "384i"
    },
    {
      "time": "4992i",
      "midiNote": 53,
      "noteName": "F3",
      "velocity": 0.5039370078740157,
      "duration": "384i"
    },
    {
      "time": "4992i",
      "midiNote": 50,
      "noteName": "D3",
      "velocity": 0.5039370078740157,
      "duration": "384i"
    },
    {
      "time": "5376i",
      "midiNote": 55,
      "noteName": "G3",
      "velocity": 0.5039370078740157,
      "duration": "384i"
    },
    {
      "time": "5376i",
      "midiNote": 59,
      "noteName": "B3",
      "velocity": 0.5039370078740157,
      "duration": "384i"
    },
    {
      "time": "5376i",
      "midiNote": 62,
      "noteName": "D4",
      "velocity": 0.5039370078740157,
      "duration": "384i"
    },
    {
      "time": "5760i",
      "midiNote": 57,
      "noteName": "A3",
      "velocity": 0.5039370078740157,
      "duration": "192i"
    },
    {
      "time": "5760i",
      "midiNote": 57,
      "noteName": "A3",
      "velocity": 0.5039370078740157,
      "duration": "192i"
    },
    {
      "time": "5760i",
      "midiNote": 53,
      "noteName": "F3",
      "velocity": 0.5039370078740157,
      "duration": "192i"
    },
    {
      "time": "5952i",
      "midiNote": 59,
      "noteName": "B3",
      "velocity": 0.5039370078740157,
      "duration": "576i"
    },
    {
      "time": "5952i",
      "midiNote": 59,
      "noteName": "B3",
      "velocity": 0.5039370078740157,
      "duration": "192i"
    },
    {
      "time": "5952i",
      "midiNote": 52,
      "noteName": "E3",
      "velocity": 0.5039370078740157,
      "duration": "192i"
    },
    {
      "time": "6144i",
      "midiNote": 59,
      "noteName": "B3",
      "velocity": 0.5039370078740157,
      "duration": "0i"
    },
    {
      "time": "6144i",
      "midiNote": 54,
      "noteName": "F#3",
      "velocity": 0.5039370078740157,
      "duration": "768i"
    },
    {
      "time": "6144i",
      "midiNote": 47,
      "noteName": "B2",
      "velocity": 0.5039370078740157,
      "duration": "768i"
    },
    {
      "time": "6528i",
      "midiNote": 59,
      "noteName": "B3",
      "velocity": 0.5039370078740157,
      "duration": "192i"
    },
    {
      "time": "6720i",
      "midiNote": 60,
      "noteName": "C4",
      "velocity": 0.5039370078740157,
      "duration": "192i"
    },
    {
      "time": "6912i",
      "midiNote": 57,
      "noteName": "A3",
      "velocity": 0.5039370078740157,
      "duration": "1536i"
    },
    {
      "time": "6912i",
      "midiNote": 52,
      "noteName": "E3",
      "velocity": 0.5039370078740157,
      "duration": "768i"
    },
    {
      "time": "6912i",
      "midiNote": 57,
      "noteName": "A3",
      "velocity": 0.5039370078740157,
      "duration": "192i"
    },
    {
      "time": "7104i",
      "midiNote": 55,
      "noteName": "G3",
      "velocity": 0.5039370078740157,
      "duration": "192i"
    },
    {
      "time": "7296i",
      "midiNote": 53,
      "noteName": "F3",
      "velocity": 0.5039370078740157,
      "duration": "192i"
    },
    {
      "time": "7488i",
      "midiNote": 50,
      "noteName": "D3",
      "velocity": 0.5039370078740157,
      "duration": "192i"
    },
    {
      "time": "7680i",
      "midiNote": 57,
      "noteName": "A3",
      "velocity": 0.5039370078740157,
      "duration": "0i"
    },
    {
      "time": "7680i",
      "midiNote": 55,
      "noteName": "G3",
      "velocity": 0.5039370078740157,
      "duration": "768i"
    },
    {
      "time": "7872i",
      "midiNote": 48,
      "noteName": "C3",
      "velocity": 0.5039370078740157,
      "duration": "192i"
    },
    {
      "time": "8064i",
      "midiNote": 45,
      "noteName": "A2",
      "velocity": 0.5039370078740157,
      "duration": "192i"
    },
    {
      "time": "8256i",
      "midiNote": 47,
      "noteName": "B2",
      "velocity": 0.5039370078740157,
      "duration": "384i"
    },
    {
      "time": "8448i",
      "midiNote": 57,
      "noteName": "A3",
      "velocity": 0.5039370078740157,
      "duration": "768i"
    },
    {
      "time": "8640i",
      "midiNote": 48,
      "noteName": "C3",
      "velocity": 0.5039370078740157,
      "duration": "576i"
    },
    {
      "time": "8832i",
      "midiNote": 60,
      "noteName": "C4",
      "velocity": 0.5039370078740157,
      "duration": "1152i"
    },
    {
      "time": "9216i",
      "midiNote": 60,
      "noteName": "C4",
      "velocity": 0.5039370078740157,
      "duration": "0i"
    },
    {
      "time": "9216i",
      "midiNote": 53,
      "noteName": "F3",
      "velocity": 0.5039370078740157,
      "duration": "768i"
    },
    {
      "time": "9216i",
      "midiNote": 50,
      "noteName": "D3",
      "velocity": 0.5039370078740157,
      "duration": "1536i"
    },
    {
      "time": "9984i",
      "midiNote": 55,
      "noteName": "G3",
      "velocity": 0.5039370078740157,
      "duration": "768i"
    },
    {
      "time": "9984i",
      "midiNote": 62,
      "noteName": "D4",
      "velocity": 0.5039370078740157,
      "duration": "768i"
    },
    {
      "time": "9984i",
      "midiNote": 50,
      "noteName": "D3",
      "velocity": 0.5039370078740157,
      "duration": "0i"
    }
  ]
]

buildTrack = parseMidi(parts: parts, transport: transport)
