require('v1/midi')

transport = {
  "bpm": 340,
  "timeSignature": [
    2,
    1
  ]
}

parts = [
  [
    {
      "time": "0i",
      "midiNote": 36,
      "noteName": "C2",
      "velocity": 1,
      "duration": "382i"
    },
    {
      "time": "384i",
      "midiNote": 36,
      "noteName": "C2",
      "velocity": 0.8818897637795275,
      "duration": "382i"
    },
    {
      "time": "768i",
      "midiNote": 36,
      "noteName": "C2",
      "velocity": 1,
      "duration": "382i"
    },
    {
      "time": "1152i",
      "midiNote": 36,
      "noteName": "C2",
      "velocity": 0.905511811023622,
      "duration": "382i"
    },
    {
      "time": "1212i",
      "midiNote": 38,
      "noteName": "D2",
      "velocity": 0.30708661417322836,
      "duration": "10i"
    },
    {
      "time": "1228i",
      "midiNote": 38,
      "noteName": "D2",
      "velocity": 0.5984251968503937,
      "duration": "62i"
    },
    {
      "time": "1344i",
      "midiNote": 38,
      "noteName": "D2",
      "velocity": 0.6062992125984252,
      "duration": "62i"
    },
    {
      "time": "1408i",
      "midiNote": 38,
      "noteName": "D2",
      "velocity": 0.2283464566929134,
      "duration": "62i"
    },
    {
      "time": "1472i",
      "midiNote": 38,
      "noteName": "D2",
      "velocity": 0.4881889763779528,
      "duration": "62i"
    },
    {
      "time": "1536i",
      "midiNote": 36,
      "noteName": "C2",
      "velocity": 1,
      "duration": "382i"
    },
    {
      "time": "1920i",
      "midiNote": 36,
      "noteName": "C2",
      "velocity": 0.8818897637795275,
      "duration": "382i"
    },
    {
      "time": "2304i",
      "midiNote": 36,
      "noteName": "C2",
      "velocity": 1,
      "duration": "382i"
    },
    {
      "time": "2688i",
      "midiNote": 36,
      "noteName": "C2",
      "velocity": 0.905511811023622,
      "duration": "382i"
    },
    {
      "time": "3072i",
      "midiNote": 36,
      "noteName": "C2",
      "velocity": 1,
      "duration": "382i"
    },
    {
      "time": "3456i",
      "midiNote": 36,
      "noteName": "C2",
      "velocity": 0.8818897637795275,
      "duration": "382i"
    },
    {
      "time": "3840i",
      "midiNote": 36,
      "noteName": "C2",
      "velocity": 1,
      "duration": "382i"
    },
    {
      "time": "4224i",
      "midiNote": 36,
      "noteName": "C2",
      "velocity": 0.905511811023622,
      "duration": "382i"
    },
    {
      "time": "4284i",
      "midiNote": 38,
      "noteName": "D2",
      "velocity": 0.30708661417322836,
      "duration": "10i"
    },
    {
      "time": "4300i",
      "midiNote": 38,
      "noteName": "D2",
      "velocity": 0.5984251968503937,
      "duration": "62i"
    },
    {
      "time": "4416i",
      "midiNote": 38,
      "noteName": "D2",
      "velocity": 0.6062992125984252,
      "duration": "62i"
    },
    {
      "time": "4480i",
      "midiNote": 38,
      "noteName": "D2",
      "velocity": 0.2283464566929134,
      "duration": "62i"
    },
    {
      "time": "4544i",
      "midiNote": 38,
      "noteName": "D2",
      "velocity": 0.4881889763779528,
      "duration": "62i"
    },
    {
      "time": "4608i",
      "midiNote": 36,
      "noteName": "C2",
      "velocity": 1,
      "duration": "382i"
    },
    {
      "time": "4992i",
      "midiNote": 36,
      "noteName": "C2",
      "velocity": 0.8818897637795275,
      "duration": "382i"
    },
    {
      "time": "5376i",
      "midiNote": 36,
      "noteName": "C2",
      "velocity": 1,
      "duration": "382i"
    },
    {
      "time": "5760i",
      "midiNote": 36,
      "noteName": "C2",
      "velocity": 0.905511811023622,
      "duration": "382i"
    },
    {
      "time": "6144i",
      "midiNote": 36,
      "noteName": "C2",
      "velocity": 1,
      "duration": "382i"
    },
    {
      "time": "6528i",
      "midiNote": 36,
      "noteName": "C2",
      "velocity": 0.8818897637795275,
      "duration": "382i"
    },
    {
      "time": "6912i",
      "midiNote": 36,
      "noteName": "C2",
      "velocity": 1,
      "duration": "382i"
    },
    {
      "time": "7296i",
      "midiNote": 36,
      "noteName": "C2",
      "velocity": 0.905511811023622,
      "duration": "382i"
    },
    {
      "time": "7356i",
      "midiNote": 38,
      "noteName": "D2",
      "velocity": 0.30708661417322836,
      "duration": "10i"
    },
    {
      "time": "7372i",
      "midiNote": 38,
      "noteName": "D2",
      "velocity": 0.5984251968503937,
      "duration": "62i"
    },
    {
      "time": "7488i",
      "midiNote": 38,
      "noteName": "D2",
      "velocity": 0.6062992125984252,
      "duration": "62i"
    },
    {
      "time": "7552i",
      "midiNote": 38,
      "noteName": "D2",
      "velocity": 0.2283464566929134,
      "duration": "62i"
    },
    {
      "time": "7616i",
      "midiNote": 38,
      "noteName": "D2",
      "velocity": 0.4881889763779528,
      "duration": "62i"
    },
    {
      "time": "7680i",
      "midiNote": 36,
      "noteName": "C2",
      "velocity": 1,
      "duration": "382i"
    },
    {
      "time": "8064i",
      "midiNote": 36,
      "noteName": "C2",
      "velocity": 0.8818897637795275,
      "duration": "382i"
    },
    {
      "time": "8448i",
      "midiNote": 36,
      "noteName": "C2",
      "velocity": 1,
      "duration": "382i"
    },
    {
      "time": "8832i",
      "midiNote": 36,
      "noteName": "C2",
      "velocity": 0.905511811023622,
      "duration": "382i"
    },
    {
      "time": "9216i",
      "midiNote": 36,
      "noteName": "C2",
      "velocity": 1,
      "duration": "382i"
    },
    {
      "time": "9600i",
      "midiNote": 36,
      "noteName": "C2",
      "velocity": 0.8818897637795275,
      "duration": "382i"
    },
    {
      "time": "9984i",
      "midiNote": 36,
      "noteName": "C2",
      "velocity": 1,
      "duration": "382i"
    },
    {
      "time": "10368i",
      "midiNote": 36,
      "noteName": "C2",
      "velocity": 0.905511811023622,
      "duration": "382i"
    },
    {
      "time": "10428i",
      "midiNote": 38,
      "noteName": "D2",
      "velocity": 0.30708661417322836,
      "duration": "10i"
    },
    {
      "time": "10444i",
      "midiNote": 38,
      "noteName": "D2",
      "velocity": 0.5984251968503937,
      "duration": "62i"
    },
    {
      "time": "10560i",
      "midiNote": 38,
      "noteName": "D2",
      "velocity": 0.6062992125984252,
      "duration": "62i"
    },
    {
      "time": "10624i",
      "midiNote": 38,
      "noteName": "D2",
      "velocity": 0.2283464566929134,
      "duration": "62i"
    },
    {
      "time": "10688i",
      "midiNote": 38,
      "noteName": "D2",
      "velocity": 0.4881889763779528,
      "duration": "62i"
    },
    {
      "time": "10752i",
      "midiNote": 36,
      "noteName": "C2",
      "velocity": 1,
      "duration": "382i"
    },
    {
      "time": "11136i",
      "midiNote": 36,
      "noteName": "C2",
      "velocity": 0.8818897637795275,
      "duration": "382i"
    },
    {
      "time": "11520i",
      "midiNote": 36,
      "noteName": "C2",
      "velocity": 1,
      "duration": "382i"
    },
    {
      "time": "11904i",
      "midiNote": 36,
      "noteName": "C2",
      "velocity": 0.905511811023622,
      "duration": "382i"
    },
    {
      "time": "12288i",
      "midiNote": 36,
      "noteName": "C2",
      "velocity": 1,
      "duration": "382i"
    },
    {
      "time": "12672i",
      "midiNote": 36,
      "noteName": "C2",
      "velocity": 0.8818897637795275,
      "duration": "382i"
    },
    {
      "time": "13056i",
      "midiNote": 36,
      "noteName": "C2",
      "velocity": 1,
      "duration": "382i"
    },
    {
      "time": "13440i",
      "midiNote": 36,
      "noteName": "C2",
      "velocity": 0.905511811023622,
      "duration": "382i"
    },
    {
      "time": "13500i",
      "midiNote": 38,
      "noteName": "D2",
      "velocity": 0.30708661417322836,
      "duration": "10i"
    },
    {
      "time": "13516i",
      "midiNote": 38,
      "noteName": "D2",
      "velocity": 0.5984251968503937,
      "duration": "62i"
    },
    {
      "time": "13632i",
      "midiNote": 38,
      "noteName": "D2",
      "velocity": 0.6062992125984252,
      "duration": "62i"
    },
    {
      "time": "13696i",
      "midiNote": 38,
      "noteName": "D2",
      "velocity": 0.2283464566929134,
      "duration": "62i"
    },
    {
      "time": "13760i",
      "midiNote": 38,
      "noteName": "D2",
      "velocity": 0.4881889763779528,
      "duration": "62i"
    },
    {
      "time": "13824i",
      "midiNote": 36,
      "noteName": "C2",
      "velocity": 1,
      "duration": "382i"
    },
    {
      "time": "14208i",
      "midiNote": 36,
      "noteName": "C2",
      "velocity": 0.8818897637795275,
      "duration": "382i"
    },
    {
      "time": "14592i",
      "midiNote": 36,
      "noteName": "C2",
      "velocity": 1,
      "duration": "382i"
    },
    {
      "time": "14976i",
      "midiNote": 36,
      "noteName": "C2",
      "velocity": 0.905511811023622,
      "duration": "382i"
    },
    {
      "time": "15360i",
      "midiNote": 36,
      "noteName": "C2",
      "velocity": 1,
      "duration": "382i"
    },
    {
      "time": "15744i",
      "midiNote": 36,
      "noteName": "C2",
      "velocity": 0.8818897637795275,
      "duration": "382i"
    },
    {
      "time": "16128i",
      "midiNote": 36,
      "noteName": "C2",
      "velocity": 1,
      "duration": "382i"
    },
    {
      "time": "16512i",
      "midiNote": 36,
      "noteName": "C2",
      "velocity": 0.905511811023622,
      "duration": "382i"
    },
    {
      "time": "16572i",
      "midiNote": 38,
      "noteName": "D2",
      "velocity": 0.30708661417322836,
      "duration": "10i"
    },
    {
      "time": "16588i",
      "midiNote": 38,
      "noteName": "D2",
      "velocity": 0.5984251968503937,
      "duration": "62i"
    },
    {
      "time": "16704i",
      "midiNote": 38,
      "noteName": "D2",
      "velocity": 0.6062992125984252,
      "duration": "62i"
    },
    {
      "time": "16768i",
      "midiNote": 38,
      "noteName": "D2",
      "velocity": 0.2283464566929134,
      "duration": "62i"
    },
    {
      "time": "16832i",
      "midiNote": 38,
      "noteName": "D2",
      "velocity": 0.4881889763779528,
      "duration": "62i"
    },
    {
      "time": "16896i",
      "midiNote": 36,
      "noteName": "C2",
      "velocity": 1,
      "duration": "382i"
    },
    {
      "time": "17280i",
      "midiNote": 36,
      "noteName": "C2",
      "velocity": 0.8818897637795275,
      "duration": "382i"
    },
    {
      "time": "17664i",
      "midiNote": 36,
      "noteName": "C2",
      "velocity": 1,
      "duration": "382i"
    },
    {
      "time": "18048i",
      "midiNote": 36,
      "noteName": "C2",
      "velocity": 0.905511811023622,
      "duration": "382i"
    },
    {
      "time": "18432i",
      "midiNote": 36,
      "noteName": "C2",
      "velocity": 1,
      "duration": "382i"
    },
    {
      "time": "18432i",
      "midiNote": 43,
      "noteName": "G2",
      "velocity": 1,
      "duration": "384i"
    },
    {
      "time": "18432i",
      "midiNote": 57,
      "noteName": "A3",
      "velocity": 1,
      "duration": "14i"
    },
    {
      "time": "18816i",
      "midiNote": 36,
      "noteName": "C2",
      "velocity": 0.8818897637795275,
      "duration": "382i"
    },
    {
      "time": "18816i",
      "midiNote": 41,
      "noteName": "F2",
      "velocity": 0.8503937007874016,
      "duration": "158i"
    },
    {
      "time": "19008i",
      "midiNote": 43,
      "noteName": "G2",
      "velocity": 1,
      "duration": "14i"
    },
    {
      "time": "19008i",
      "midiNote": 38,
      "noteName": "D2",
      "velocity": 0.9606299212598425,
      "duration": "14i"
    },
    {
      "time": "19072i",
      "midiNote": 43,
      "noteName": "G2",
      "velocity": 0.48031496062992124,
      "duration": "14i"
    },
    {
      "time": "19072i",
      "midiNote": 38,
      "noteName": "D2",
      "velocity": 0.7559055118110236,
      "duration": "14i"
    },
    {
      "time": "19136i",
      "midiNote": 43,
      "noteName": "G2",
      "velocity": 0.84251968503937,
      "duration": "14i"
    },
    {
      "time": "19136i",
      "midiNote": 38,
      "noteName": "D2",
      "velocity": 0.8740157480314961,
      "duration": "14i"
    },
    {
      "time": "19200i",
      "midiNote": 36,
      "noteName": "C2",
      "velocity": 1,
      "duration": "382i"
    },
    {
      "time": "19200i",
      "midiNote": 43,
      "noteName": "G2",
      "velocity": 1,
      "duration": "704i"
    },
    {
      "time": "19200i",
      "midiNote": 38,
      "noteName": "D2",
      "velocity": 1,
      "duration": "14i"
    },
    {
      "time": "19200i",
      "midiNote": 57,
      "noteName": "A3",
      "velocity": 1,
      "duration": "14i"
    },
    {
      "time": "19584i",
      "midiNote": 36,
      "noteName": "C2",
      "velocity": 0.905511811023622,
      "duration": "382i"
    },
    {
      "time": "19968i",
      "midiNote": 43,
      "noteName": "G2",
      "velocity": 1,
      "duration": "384i"
    },
    {
      "time": "19968i",
      "midiNote": 36,
      "noteName": "C2",
      "velocity": 1,
      "duration": "382i"
    },
    {
      "time": "19968i",
      "midiNote": 57,
      "noteName": "A3",
      "velocity": 1,
      "duration": "14i"
    },
    {
      "time": "20352i",
      "midiNote": 41,
      "noteName": "F2",
      "velocity": 0.8503937007874016,
      "duration": "158i"
    },
    {
      "time": "20352i",
      "midiNote": 36,
      "noteName": "C2",
      "velocity": 0.8818897637795275,
      "duration": "382i"
    },
    {
      "time": "20544i",
      "midiNote": 43,
      "noteName": "G2",
      "velocity": 1,
      "duration": "14i"
    },
    {
      "time": "20544i",
      "midiNote": 38,
      "noteName": "D2",
      "velocity": 0.9606299212598425,
      "duration": "14i"
    },
    {
      "time": "20608i",
      "midiNote": 43,
      "noteName": "G2",
      "velocity": 0.48031496062992124,
      "duration": "14i"
    },
    {
      "time": "20608i",
      "midiNote": 38,
      "noteName": "D2",
      "velocity": 0.7559055118110236,
      "duration": "14i"
    },
    {
      "time": "20672i",
      "midiNote": 43,
      "noteName": "G2",
      "velocity": 0.84251968503937,
      "duration": "14i"
    },
    {
      "time": "20672i",
      "midiNote": 38,
      "noteName": "D2",
      "velocity": 0.8740157480314961,
      "duration": "14i"
    },
    {
      "time": "20736i",
      "midiNote": 43,
      "noteName": "G2",
      "velocity": 1,
      "duration": "704i"
    },
    {
      "time": "20736i",
      "midiNote": 36,
      "noteName": "C2",
      "velocity": 1,
      "duration": "382i"
    },
    {
      "time": "20736i",
      "midiNote": 38,
      "noteName": "D2",
      "velocity": 1,
      "duration": "14i"
    },
    {
      "time": "20736i",
      "midiNote": 57,
      "noteName": "A3",
      "velocity": 1,
      "duration": "14i"
    },
    {
      "time": "20736i",
      "midiNote": 63,
      "noteName": "D#4",
      "velocity": 1,
      "duration": "60i"
    },
    {
      "time": "20800i",
      "midiNote": 60,
      "noteName": "C4",
      "velocity": 0.3858267716535433,
      "duration": "60i"
    },
    {
      "time": "20864i",
      "midiNote": 61,
      "noteName": "C#4",
      "velocity": 0.5196850393700787,
      "duration": "60i"
    },
    {
      "time": "20928i",
      "midiNote": 62,
      "noteName": "D4",
      "velocity": 1,
      "duration": "60i"
    },
    {
      "time": "21056i",
      "midiNote": 60,
      "noteName": "C4",
      "velocity": 0.5196850393700787,
      "duration": "60i"
    },
    {
      "time": "21120i",
      "midiNote": 36,
      "noteName": "C2",
      "velocity": 0.905511811023622,
      "duration": "382i"
    },
    {
      "time": "21120i",
      "midiNote": 60,
      "noteName": "C4",
      "velocity": 0.3937007874015748,
      "duration": "60i"
    },
    {
      "time": "21248i",
      "midiNote": 61,
      "noteName": "C#4",
      "velocity": 0.6850393700787402,
      "duration": "60i"
    },
    {
      "time": "21312i",
      "midiNote": 62,
      "noteName": "D4",
      "velocity": 0.8661417322834646,
      "duration": "60i"
    },
    {
      "time": "21376i",
      "midiNote": 63,
      "noteName": "D#4",
      "velocity": 1,
      "duration": "60i"
    },
    {
      "time": "21440i",
      "midiNote": 64,
      "noteName": "E4",
      "velocity": 0.8267716535433071,
      "duration": "60i"
    },
    {
      "time": "21504i",
      "midiNote": 63,
      "noteName": "D#4",
      "velocity": 1,
      "duration": "60i"
    },
    {
      "time": "21504i",
      "midiNote": 57,
      "noteName": "A3",
      "velocity": 1,
      "duration": "14i"
    },
    {
      "time": "21504i",
      "midiNote": 36,
      "noteName": "C2",
      "velocity": 1,
      "duration": "382i"
    },
    {
      "time": "21504i",
      "midiNote": 43,
      "noteName": "G2",
      "velocity": 1,
      "duration": "384i"
    },
    {
      "time": "21568i",
      "midiNote": 60,
      "noteName": "C4",
      "velocity": 0.3858267716535433,
      "duration": "60i"
    },
    {
      "time": "21632i",
      "midiNote": 61,
      "noteName": "C#4",
      "velocity": 0.5196850393700787,
      "duration": "60i"
    },
    {
      "time": "21696i",
      "midiNote": 62,
      "noteName": "D4",
      "velocity": 1,
      "duration": "60i"
    },
    {
      "time": "21824i",
      "midiNote": 60,
      "noteName": "C4",
      "velocity": 0.5196850393700787,
      "duration": "60i"
    },
    {
      "time": "21888i",
      "midiNote": 60,
      "noteName": "C4",
      "velocity": 0.3937007874015748,
      "duration": "60i"
    },
    {
      "time": "21888i",
      "midiNote": 36,
      "noteName": "C2",
      "velocity": 0.8818897637795275,
      "duration": "190i"
    },
    {
      "time": "21888i",
      "midiNote": 41,
      "noteName": "F2",
      "velocity": 0.8503937007874016,
      "duration": "158i"
    },
    {
      "time": "22016i",
      "midiNote": 61,
      "noteName": "C#4",
      "velocity": 0.6850393700787402,
      "duration": "60i"
    },
    {
      "time": "22080i",
      "midiNote": 62,
      "noteName": "D4",
      "velocity": 0.8661417322834646,
      "duration": "60i"
    },
    {
      "time": "22080i",
      "midiNote": 38,
      "noteName": "D2",
      "velocity": 0.9606299212598425,
      "duration": "14i"
    },
    {
      "time": "22080i",
      "midiNote": 36,
      "noteName": "C2",
      "velocity": 0.8818897637795275,
      "duration": "126i"
    },
    {
      "time": "22080i",
      "midiNote": 43,
      "noteName": "G2",
      "velocity": 1,
      "duration": "14i"
    },
    {
      "time": "22144i",
      "midiNote": 63,
      "noteName": "D#4",
      "velocity": 1,
      "duration": "60i"
    },
    {
      "time": "22144i",
      "midiNote": 38,
      "noteName": "D2",
      "velocity": 0.7559055118110236,
      "duration": "14i"
    },
    {
      "time": "22144i",
      "midiNote": 43,
      "noteName": "G2",
      "velocity": 0.48031496062992124,
      "duration": "14i"
    },
    {
      "time": "22208i",
      "midiNote": 64,
      "noteName": "E4",
      "velocity": 0.8267716535433071,
      "duration": "60i"
    },
    {
      "time": "22208i",
      "midiNote": 43,
      "noteName": "G2",
      "velocity": 0.84251968503937,
      "duration": "14i"
    },
    {
      "time": "22208i",
      "midiNote": 38,
      "noteName": "D2",
      "velocity": 0.8740157480314961,
      "duration": "14i"
    },
    {
      "time": "22208i",
      "midiNote": 36,
      "noteName": "C2",
      "velocity": 0.8818897637795275,
      "duration": "62i"
    },
    {
      "time": "22272i",
      "midiNote": 43,
      "noteName": "G2",
      "velocity": 1,
      "duration": "704i"
    },
    {
      "time": "22272i",
      "midiNote": 63,
      "noteName": "D#4",
      "velocity": 1,
      "duration": "60i"
    },
    {
      "time": "22272i",
      "midiNote": 38,
      "noteName": "D2",
      "velocity": 1,
      "duration": "14i"
    },
    {
      "time": "22272i",
      "midiNote": 57,
      "noteName": "A3",
      "velocity": 1,
      "duration": "14i"
    },
    {
      "time": "22272i",
      "midiNote": 36,
      "noteName": "C2",
      "velocity": 1,
      "duration": "766i"
    },
    {
      "time": "22336i",
      "midiNote": 60,
      "noteName": "C4",
      "velocity": 0.3858267716535433,
      "duration": "60i"
    },
    {
      "time": "22400i",
      "midiNote": 61,
      "noteName": "C#4",
      "velocity": 0.5196850393700787,
      "duration": "60i"
    },
    {
      "time": "22464i",
      "midiNote": 62,
      "noteName": "D4",
      "velocity": 1,
      "duration": "60i"
    },
    {
      "time": "22592i",
      "midiNote": 60,
      "noteName": "C4",
      "velocity": 0.5196850393700787,
      "duration": "60i"
    },
    {
      "time": "22656i",
      "midiNote": 60,
      "noteName": "C4",
      "velocity": 0.3937007874015748,
      "duration": "60i"
    },
    {
      "time": "22784i",
      "midiNote": 61,
      "noteName": "C#4",
      "velocity": 0.6850393700787402,
      "duration": "60i"
    },
    {
      "time": "22848i",
      "midiNote": 62,
      "noteName": "D4",
      "velocity": 0.8661417322834646,
      "duration": "60i"
    },
    {
      "time": "22912i",
      "midiNote": 63,
      "noteName": "D#4",
      "velocity": 1,
      "duration": "60i"
    },
    {
      "time": "22976i",
      "midiNote": 64,
      "noteName": "E4",
      "velocity": 0.8267716535433071,
      "duration": "60i"
    },
    {
      "time": "23040i",
      "midiNote": 36,
      "noteName": "C2",
      "velocity": 1,
      "duration": "382i"
    },
    {
      "time": "23040i",
      "midiNote": 43,
      "noteName": "G2",
      "velocity": 1,
      "duration": "384i"
    },
    {
      "time": "23040i",
      "midiNote": 57,
      "noteName": "A3",
      "velocity": 1,
      "duration": "14i"
    },
    {
      "time": "23040i",
      "midiNote": 63,
      "noteName": "D#4",
      "velocity": 1,
      "duration": "60i"
    },
    {
      "time": "23104i",
      "midiNote": 60,
      "noteName": "C4",
      "velocity": 0.3858267716535433,
      "duration": "60i"
    },
    {
      "time": "23168i",
      "midiNote": 61,
      "noteName": "C#4",
      "velocity": 0.5196850393700787,
      "duration": "60i"
    },
    {
      "time": "23232i",
      "midiNote": 62,
      "noteName": "D4",
      "velocity": 1,
      "duration": "60i"
    },
    {
      "time": "23360i",
      "midiNote": 60,
      "noteName": "C4",
      "velocity": 0.5196850393700787,
      "duration": "60i"
    },
    {
      "time": "23424i",
      "midiNote": 36,
      "noteName": "C2",
      "velocity": 0.8818897637795275,
      "duration": "190i"
    },
    {
      "time": "23424i",
      "midiNote": 41,
      "noteName": "F2",
      "velocity": 0.8503937007874016,
      "duration": "158i"
    },
    {
      "time": "23424i",
      "midiNote": 60,
      "noteName": "C4",
      "velocity": 0.3937007874015748,
      "duration": "60i"
    },
    {
      "time": "23552i",
      "midiNote": 61,
      "noteName": "C#4",
      "velocity": 0.6850393700787402,
      "duration": "60i"
    },
    {
      "time": "23616i",
      "midiNote": 36,
      "noteName": "C2",
      "velocity": 0.8818897637795275,
      "duration": "126i"
    },
    {
      "time": "23616i",
      "midiNote": 43,
      "noteName": "G2",
      "velocity": 1,
      "duration": "14i"
    },
    {
      "time": "23616i",
      "midiNote": 38,
      "noteName": "D2",
      "velocity": 0.9606299212598425,
      "duration": "14i"
    },
    {
      "time": "23616i",
      "midiNote": 62,
      "noteName": "D4",
      "velocity": 0.8661417322834646,
      "duration": "60i"
    },
    {
      "time": "23680i",
      "midiNote": 43,
      "noteName": "G2",
      "velocity": 0.48031496062992124,
      "duration": "14i"
    },
    {
      "time": "23680i",
      "midiNote": 38,
      "noteName": "D2",
      "velocity": 0.7559055118110236,
      "duration": "14i"
    },
    {
      "time": "23680i",
      "midiNote": 63,
      "noteName": "D#4",
      "velocity": 1,
      "duration": "60i"
    },
    {
      "time": "23744i",
      "midiNote": 36,
      "noteName": "C2",
      "velocity": 0.8818897637795275,
      "duration": "62i"
    },
    {
      "time": "23744i",
      "midiNote": 43,
      "noteName": "G2",
      "velocity": 0.84251968503937,
      "duration": "14i"
    },
    {
      "time": "23744i",
      "midiNote": 38,
      "noteName": "D2",
      "velocity": 0.8740157480314961,
      "duration": "14i"
    },
    {
      "time": "23744i",
      "midiNote": 64,
      "noteName": "E4",
      "velocity": 0.8267716535433071,
      "duration": "60i"
    },
    {
      "time": "23808i",
      "midiNote": 36,
      "noteName": "C2",
      "velocity": 1,
      "duration": "766i"
    },
    {
      "time": "23808i",
      "midiNote": 43,
      "noteName": "G2",
      "velocity": 1,
      "duration": "704i"
    },
    {
      "time": "23808i",
      "midiNote": 38,
      "noteName": "D2",
      "velocity": 1,
      "duration": "14i"
    },
    {
      "time": "23808i",
      "midiNote": 57,
      "noteName": "A3",
      "velocity": 1,
      "duration": "14i"
    },
    {
      "time": "23808i",
      "midiNote": 63,
      "noteName": "D#4",
      "velocity": 1,
      "duration": "60i"
    },
    {
      "time": "23872i",
      "midiNote": 60,
      "noteName": "C4",
      "velocity": 0.3858267716535433,
      "duration": "60i"
    },
    {
      "time": "23936i",
      "midiNote": 61,
      "noteName": "C#4",
      "velocity": 0.5196850393700787,
      "duration": "60i"
    },
    {
      "time": "24000i",
      "midiNote": 62,
      "noteName": "D4",
      "velocity": 1,
      "duration": "60i"
    },
    {
      "time": "24128i",
      "midiNote": 60,
      "noteName": "C4",
      "velocity": 0.5196850393700787,
      "duration": "60i"
    },
    {
      "time": "24192i",
      "midiNote": 60,
      "noteName": "C4",
      "velocity": 0.3937007874015748,
      "duration": "60i"
    },
    {
      "time": "24320i",
      "midiNote": 61,
      "noteName": "C#4",
      "velocity": 0.6850393700787402,
      "duration": "60i"
    },
    {
      "time": "24384i",
      "midiNote": 62,
      "noteName": "D4",
      "velocity": 0.8661417322834646,
      "duration": "60i"
    },
    {
      "time": "24448i",
      "midiNote": 63,
      "noteName": "D#4",
      "velocity": 1,
      "duration": "60i"
    },
    {
      "time": "24512i",
      "midiNote": 64,
      "noteName": "E4",
      "velocity": 0.8267716535433071,
      "duration": "60i"
    },
    {
      "time": "24576i",
      "midiNote": 36,
      "noteName": "C2",
      "velocity": 1,
      "duration": "382i"
    },
    {
      "time": "24576i",
      "midiNote": 43,
      "noteName": "G2",
      "velocity": 1,
      "duration": "384i"
    },
    {
      "time": "24576i",
      "midiNote": 57,
      "noteName": "A3",
      "velocity": 1,
      "duration": "14i"
    },
    {
      "time": "24576i",
      "midiNote": 63,
      "noteName": "D#4",
      "velocity": 1,
      "duration": "60i"
    },
    {
      "time": "24640i",
      "midiNote": 60,
      "noteName": "C4",
      "velocity": 0.3858267716535433,
      "duration": "60i"
    },
    {
      "time": "24704i",
      "midiNote": 61,
      "noteName": "C#4",
      "velocity": 0.5196850393700787,
      "duration": "60i"
    },
    {
      "time": "24768i",
      "midiNote": 62,
      "noteName": "D4",
      "velocity": 1,
      "duration": "60i"
    },
    {
      "time": "24896i",
      "midiNote": 60,
      "noteName": "C4",
      "velocity": 0.5196850393700787,
      "duration": "60i"
    },
    {
      "time": "24960i",
      "midiNote": 36,
      "noteName": "C2",
      "velocity": 0.8818897637795275,
      "duration": "190i"
    },
    {
      "time": "24960i",
      "midiNote": 41,
      "noteName": "F2",
      "velocity": 0.8503937007874016,
      "duration": "158i"
    },
    {
      "time": "24960i",
      "midiNote": 60,
      "noteName": "C4",
      "velocity": 0.3937007874015748,
      "duration": "60i"
    },
    {
      "time": "25088i",
      "midiNote": 61,
      "noteName": "C#4",
      "velocity": 0.6850393700787402,
      "duration": "60i"
    },
    {
      "time": "25152i",
      "midiNote": 36,
      "noteName": "C2",
      "velocity": 0.8818897637795275,
      "duration": "126i"
    },
    {
      "time": "25152i",
      "midiNote": 43,
      "noteName": "G2",
      "velocity": 1,
      "duration": "14i"
    },
    {
      "time": "25152i",
      "midiNote": 38,
      "noteName": "D2",
      "velocity": 0.9606299212598425,
      "duration": "14i"
    },
    {
      "time": "25152i",
      "midiNote": 62,
      "noteName": "D4",
      "velocity": 0.8661417322834646,
      "duration": "60i"
    },
    {
      "time": "25216i",
      "midiNote": 43,
      "noteName": "G2",
      "velocity": 0.48031496062992124,
      "duration": "14i"
    },
    {
      "time": "25216i",
      "midiNote": 38,
      "noteName": "D2",
      "velocity": 0.7559055118110236,
      "duration": "14i"
    },
    {
      "time": "25216i",
      "midiNote": 63,
      "noteName": "D#4",
      "velocity": 1,
      "duration": "60i"
    },
    {
      "time": "25280i",
      "midiNote": 36,
      "noteName": "C2",
      "velocity": 0.8818897637795275,
      "duration": "62i"
    },
    {
      "time": "25280i",
      "midiNote": 43,
      "noteName": "G2",
      "velocity": 0.84251968503937,
      "duration": "14i"
    },
    {
      "time": "25280i",
      "midiNote": 38,
      "noteName": "D2",
      "velocity": 0.8740157480314961,
      "duration": "14i"
    },
    {
      "time": "25280i",
      "midiNote": 64,
      "noteName": "E4",
      "velocity": 0.8267716535433071,
      "duration": "60i"
    },
    {
      "time": "25344i",
      "midiNote": 36,
      "noteName": "C2",
      "velocity": 1,
      "duration": "766i"
    },
    {
      "time": "25344i",
      "midiNote": 43,
      "noteName": "G2",
      "velocity": 1,
      "duration": "704i"
    },
    {
      "time": "25344i",
      "midiNote": 63,
      "noteName": "D#4",
      "velocity": 1,
      "duration": "60i"
    },
    {
      "time": "25344i",
      "midiNote": 38,
      "noteName": "D2",
      "velocity": 1,
      "duration": "14i"
    },
    {
      "time": "25344i",
      "midiNote": 57,
      "noteName": "A3",
      "velocity": 1,
      "duration": "14i"
    },
    {
      "time": "25408i",
      "midiNote": 60,
      "noteName": "C4",
      "velocity": 0.3858267716535433,
      "duration": "60i"
    },
    {
      "time": "25472i",
      "midiNote": 61,
      "noteName": "C#4",
      "velocity": 0.5196850393700787,
      "duration": "60i"
    },
    {
      "time": "25536i",
      "midiNote": 62,
      "noteName": "D4",
      "velocity": 1,
      "duration": "60i"
    },
    {
      "time": "25664i",
      "midiNote": 60,
      "noteName": "C4",
      "velocity": 0.5196850393700787,
      "duration": "60i"
    },
    {
      "time": "25728i",
      "midiNote": 60,
      "noteName": "C4",
      "velocity": 0.3937007874015748,
      "duration": "60i"
    },
    {
      "time": "25856i",
      "midiNote": 61,
      "noteName": "C#4",
      "velocity": 0.6850393700787402,
      "duration": "60i"
    },
    {
      "time": "25920i",
      "midiNote": 62,
      "noteName": "D4",
      "velocity": 0.8661417322834646,
      "duration": "60i"
    },
    {
      "time": "25984i",
      "midiNote": 63,
      "noteName": "D#4",
      "velocity": 1,
      "duration": "60i"
    },
    {
      "time": "26048i",
      "midiNote": 64,
      "noteName": "E4",
      "velocity": 0.8267716535433071,
      "duration": "60i"
    },
    {
      "time": "26112i",
      "midiNote": 36,
      "noteName": "C2",
      "velocity": 1,
      "duration": "382i"
    },
    {
      "time": "26112i",
      "midiNote": 43,
      "noteName": "G2",
      "velocity": 1,
      "duration": "384i"
    },
    {
      "time": "26112i",
      "midiNote": 57,
      "noteName": "A3",
      "velocity": 1,
      "duration": "14i"
    },
    {
      "time": "26112i",
      "midiNote": 63,
      "noteName": "D#4",
      "velocity": 1,
      "duration": "60i"
    },
    {
      "time": "26176i",
      "midiNote": 60,
      "noteName": "C4",
      "velocity": 0.3858267716535433,
      "duration": "60i"
    },
    {
      "time": "26240i",
      "midiNote": 61,
      "noteName": "C#4",
      "velocity": 0.5196850393700787,
      "duration": "60i"
    },
    {
      "time": "26304i",
      "midiNote": 62,
      "noteName": "D4",
      "velocity": 1,
      "duration": "60i"
    },
    {
      "time": "26432i",
      "midiNote": 60,
      "noteName": "C4",
      "velocity": 0.5196850393700787,
      "duration": "60i"
    },
    {
      "time": "26496i",
      "midiNote": 36,
      "noteName": "C2",
      "velocity": 0.8818897637795275,
      "duration": "190i"
    },
    {
      "time": "26496i",
      "midiNote": 41,
      "noteName": "F2",
      "velocity": 0.8503937007874016,
      "duration": "158i"
    },
    {
      "time": "26496i",
      "midiNote": 60,
      "noteName": "C4",
      "velocity": 0.3937007874015748,
      "duration": "60i"
    },
    {
      "time": "26624i",
      "midiNote": 61,
      "noteName": "C#4",
      "velocity": 0.6850393700787402,
      "duration": "60i"
    },
    {
      "time": "26688i",
      "midiNote": 36,
      "noteName": "C2",
      "velocity": 0.8818897637795275,
      "duration": "126i"
    },
    {
      "time": "26688i",
      "midiNote": 43,
      "noteName": "G2",
      "velocity": 1,
      "duration": "14i"
    },
    {
      "time": "26688i",
      "midiNote": 38,
      "noteName": "D2",
      "velocity": 0.9606299212598425,
      "duration": "14i"
    },
    {
      "time": "26688i",
      "midiNote": 62,
      "noteName": "D4",
      "velocity": 0.8661417322834646,
      "duration": "60i"
    },
    {
      "time": "26752i",
      "midiNote": 43,
      "noteName": "G2",
      "velocity": 0.48031496062992124,
      "duration": "14i"
    },
    {
      "time": "26752i",
      "midiNote": 38,
      "noteName": "D2",
      "velocity": 0.7559055118110236,
      "duration": "14i"
    },
    {
      "time": "26752i",
      "midiNote": 63,
      "noteName": "D#4",
      "velocity": 1,
      "duration": "60i"
    },
    {
      "time": "26816i",
      "midiNote": 36,
      "noteName": "C2",
      "velocity": 0.8818897637795275,
      "duration": "62i"
    },
    {
      "time": "26816i",
      "midiNote": 43,
      "noteName": "G2",
      "velocity": 0.84251968503937,
      "duration": "14i"
    },
    {
      "time": "26816i",
      "midiNote": 38,
      "noteName": "D2",
      "velocity": 0.8740157480314961,
      "duration": "14i"
    },
    {
      "time": "26816i",
      "midiNote": 64,
      "noteName": "E4",
      "velocity": 0.8267716535433071,
      "duration": "60i"
    },
    {
      "time": "26880i",
      "midiNote": 36,
      "noteName": "C2",
      "velocity": 1,
      "duration": "766i"
    },
    {
      "time": "26880i",
      "midiNote": 43,
      "noteName": "G2",
      "velocity": 1,
      "duration": "704i"
    },
    {
      "time": "26880i",
      "midiNote": 63,
      "noteName": "D#4",
      "velocity": 1,
      "duration": "60i"
    },
    {
      "time": "26880i",
      "midiNote": 38,
      "noteName": "D2",
      "velocity": 1,
      "duration": "14i"
    },
    {
      "time": "26880i",
      "midiNote": 57,
      "noteName": "A3",
      "velocity": 1,
      "duration": "14i"
    },
    {
      "time": "26944i",
      "midiNote": 60,
      "noteName": "C4",
      "velocity": 0.3858267716535433,
      "duration": "60i"
    },
    {
      "time": "27008i",
      "midiNote": 61,
      "noteName": "C#4",
      "velocity": 0.5196850393700787,
      "duration": "60i"
    },
    {
      "time": "27072i",
      "midiNote": 62,
      "noteName": "D4",
      "velocity": 1,
      "duration": "60i"
    },
    {
      "time": "27200i",
      "midiNote": 60,
      "noteName": "C4",
      "velocity": 0.5196850393700787,
      "duration": "60i"
    },
    {
      "time": "27264i",
      "midiNote": 60,
      "noteName": "C4",
      "velocity": 0.3937007874015748,
      "duration": "60i"
    },
    {
      "time": "27392i",
      "midiNote": 61,
      "noteName": "C#4",
      "velocity": 0.6850393700787402,
      "duration": "60i"
    },
    {
      "time": "27456i",
      "midiNote": 62,
      "noteName": "D4",
      "velocity": 0.8661417322834646,
      "duration": "60i"
    },
    {
      "time": "27520i",
      "midiNote": 63,
      "noteName": "D#4",
      "velocity": 1,
      "duration": "60i"
    },
    {
      "time": "27584i",
      "midiNote": 64,
      "noteName": "E4",
      "velocity": 0.8267716535433071,
      "duration": "60i"
    },
    {
      "time": "27648i",
      "midiNote": 36,
      "noteName": "C2",
      "velocity": 1,
      "duration": "382i"
    },
    {
      "time": "27648i",
      "midiNote": 57,
      "noteName": "A3",
      "velocity": 1,
      "duration": "14i"
    },
    {
      "time": "27648i",
      "midiNote": 43,
      "noteName": "G2",
      "velocity": 1,
      "duration": "384i"
    },
    {
      "time": "27648i",
      "midiNote": 63,
      "noteName": "D#4",
      "velocity": 1,
      "duration": "60i"
    },
    {
      "time": "27712i",
      "midiNote": 60,
      "noteName": "C4",
      "velocity": 0.3858267716535433,
      "duration": "60i"
    },
    {
      "time": "27776i",
      "midiNote": 61,
      "noteName": "C#4",
      "velocity": 0.5196850393700787,
      "duration": "60i"
    },
    {
      "time": "27840i",
      "midiNote": 62,
      "noteName": "D4",
      "velocity": 1,
      "duration": "60i"
    },
    {
      "time": "27968i",
      "midiNote": 60,
      "noteName": "C4",
      "velocity": 0.5196850393700787,
      "duration": "60i"
    },
    {
      "time": "28032i",
      "midiNote": 36,
      "noteName": "C2",
      "velocity": 0.8818897637795275,
      "duration": "190i"
    },
    {
      "time": "28032i",
      "midiNote": 41,
      "noteName": "F2",
      "velocity": 0.8503937007874016,
      "duration": "158i"
    },
    {
      "time": "28032i",
      "midiNote": 60,
      "noteName": "C4",
      "velocity": 0.3937007874015748,
      "duration": "60i"
    },
    {
      "time": "28160i",
      "midiNote": 61,
      "noteName": "C#4",
      "velocity": 0.6850393700787402,
      "duration": "60i"
    },
    {
      "time": "28224i",
      "midiNote": 36,
      "noteName": "C2",
      "velocity": 0.8818897637795275,
      "duration": "126i"
    },
    {
      "time": "28224i",
      "midiNote": 62,
      "noteName": "D4",
      "velocity": 0.8661417322834646,
      "duration": "60i"
    },
    {
      "time": "28224i",
      "midiNote": 38,
      "noteName": "D2",
      "velocity": 0.9606299212598425,
      "duration": "14i"
    },
    {
      "time": "28224i",
      "midiNote": 43,
      "noteName": "G2",
      "velocity": 1,
      "duration": "14i"
    },
    {
      "time": "28288i",
      "midiNote": 63,
      "noteName": "D#4",
      "velocity": 1,
      "duration": "60i"
    },
    {
      "time": "28288i",
      "midiNote": 38,
      "noteName": "D2",
      "velocity": 0.7559055118110236,
      "duration": "14i"
    },
    {
      "time": "28288i",
      "midiNote": 43,
      "noteName": "G2",
      "velocity": 0.48031496062992124,
      "duration": "14i"
    },
    {
      "time": "28352i",
      "midiNote": 36,
      "noteName": "C2",
      "velocity": 0.8818897637795275,
      "duration": "62i"
    },
    {
      "time": "28352i",
      "midiNote": 64,
      "noteName": "E4",
      "velocity": 0.8267716535433071,
      "duration": "60i"
    },
    {
      "time": "28352i",
      "midiNote": 38,
      "noteName": "D2",
      "velocity": 0.8740157480314961,
      "duration": "14i"
    },
    {
      "time": "28352i",
      "midiNote": 43,
      "noteName": "G2",
      "velocity": 0.84251968503937,
      "duration": "14i"
    },
    {
      "time": "28416i",
      "midiNote": 36,
      "noteName": "C2",
      "velocity": 1,
      "duration": "766i"
    },
    {
      "time": "28416i",
      "midiNote": 38,
      "noteName": "D2",
      "velocity": 1,
      "duration": "14i"
    },
    {
      "time": "28416i",
      "midiNote": 57,
      "noteName": "A3",
      "velocity": 1,
      "duration": "14i"
    },
    {
      "time": "28416i",
      "midiNote": 63,
      "noteName": "D#4",
      "velocity": 1,
      "duration": "60i"
    },
    {
      "time": "28416i",
      "midiNote": 43,
      "noteName": "G2",
      "velocity": 1,
      "duration": "704i"
    },
    {
      "time": "28480i",
      "midiNote": 60,
      "noteName": "C4",
      "velocity": 0.3858267716535433,
      "duration": "60i"
    },
    {
      "time": "28544i",
      "midiNote": 61,
      "noteName": "C#4",
      "velocity": 0.5196850393700787,
      "duration": "60i"
    },
    {
      "time": "28608i",
      "midiNote": 62,
      "noteName": "D4",
      "velocity": 1,
      "duration": "60i"
    },
    {
      "time": "28736i",
      "midiNote": 60,
      "noteName": "C4",
      "velocity": 0.5196850393700787,
      "duration": "60i"
    },
    {
      "time": "28800i",
      "midiNote": 60,
      "noteName": "C4",
      "velocity": 0.3937007874015748,
      "duration": "60i"
    },
    {
      "time": "28928i",
      "midiNote": 61,
      "noteName": "C#4",
      "velocity": 0.6850393700787402,
      "duration": "60i"
    },
    {
      "time": "28992i",
      "midiNote": 62,
      "noteName": "D4",
      "velocity": 0.8661417322834646,
      "duration": "60i"
    },
    {
      "time": "29056i",
      "midiNote": 63,
      "noteName": "D#4",
      "velocity": 1,
      "duration": "60i"
    },
    {
      "time": "29120i",
      "midiNote": 64,
      "noteName": "E4",
      "velocity": 0.8267716535433071,
      "duration": "60i"
    },
    {
      "time": "29184i",
      "midiNote": 36,
      "noteName": "C2",
      "velocity": 1,
      "duration": "382i"
    },
    {
      "time": "29184i",
      "midiNote": 43,
      "noteName": "G2",
      "velocity": 1,
      "duration": "384i"
    },
    {
      "time": "29184i",
      "midiNote": 57,
      "noteName": "A3",
      "velocity": 1,
      "duration": "14i"
    },
    {
      "time": "29184i",
      "midiNote": 63,
      "noteName": "D#4",
      "velocity": 1,
      "duration": "60i"
    },
    {
      "time": "29248i",
      "midiNote": 60,
      "noteName": "C4",
      "velocity": 0.3858267716535433,
      "duration": "60i"
    },
    {
      "time": "29312i",
      "midiNote": 61,
      "noteName": "C#4",
      "velocity": 0.5196850393700787,
      "duration": "60i"
    },
    {
      "time": "29376i",
      "midiNote": 62,
      "noteName": "D4",
      "velocity": 1,
      "duration": "60i"
    },
    {
      "time": "29504i",
      "midiNote": 60,
      "noteName": "C4",
      "velocity": 0.5196850393700787,
      "duration": "60i"
    },
    {
      "time": "29568i",
      "midiNote": 36,
      "noteName": "C2",
      "velocity": 0.8818897637795275,
      "duration": "190i"
    },
    {
      "time": "29568i",
      "midiNote": 41,
      "noteName": "F2",
      "velocity": 0.8503937007874016,
      "duration": "158i"
    },
    {
      "time": "29568i",
      "midiNote": 60,
      "noteName": "C4",
      "velocity": 0.3937007874015748,
      "duration": "60i"
    },
    {
      "time": "29696i",
      "midiNote": 61,
      "noteName": "C#4",
      "velocity": 0.6850393700787402,
      "duration": "60i"
    },
    {
      "time": "29760i",
      "midiNote": 36,
      "noteName": "C2",
      "velocity": 0.8818897637795275,
      "duration": "126i"
    },
    {
      "time": "29760i",
      "midiNote": 43,
      "noteName": "G2",
      "velocity": 1,
      "duration": "14i"
    },
    {
      "time": "29760i",
      "midiNote": 38,
      "noteName": "D2",
      "velocity": 0.9606299212598425,
      "duration": "14i"
    },
    {
      "time": "29760i",
      "midiNote": 62,
      "noteName": "D4",
      "velocity": 0.8661417322834646,
      "duration": "60i"
    },
    {
      "time": "29824i",
      "midiNote": 43,
      "noteName": "G2",
      "velocity": 0.48031496062992124,
      "duration": "14i"
    },
    {
      "time": "29824i",
      "midiNote": 38,
      "noteName": "D2",
      "velocity": 0.7559055118110236,
      "duration": "14i"
    },
    {
      "time": "29824i",
      "midiNote": 63,
      "noteName": "D#4",
      "velocity": 1,
      "duration": "60i"
    },
    {
      "time": "29888i",
      "midiNote": 36,
      "noteName": "C2",
      "velocity": 0.8818897637795275,
      "duration": "62i"
    },
    {
      "time": "29888i",
      "midiNote": 43,
      "noteName": "G2",
      "velocity": 0.84251968503937,
      "duration": "14i"
    },
    {
      "time": "29888i",
      "midiNote": 38,
      "noteName": "D2",
      "velocity": 0.8740157480314961,
      "duration": "14i"
    },
    {
      "time": "29888i",
      "midiNote": 64,
      "noteName": "E4",
      "velocity": 0.8267716535433071,
      "duration": "60i"
    },
    {
      "time": "29952i",
      "midiNote": 36,
      "noteName": "C2",
      "velocity": 1,
      "duration": "766i"
    },
    {
      "time": "29952i",
      "midiNote": 43,
      "noteName": "G2",
      "velocity": 1,
      "duration": "704i"
    },
    {
      "time": "29952i",
      "midiNote": 63,
      "noteName": "D#4",
      "velocity": 1,
      "duration": "60i"
    },
    {
      "time": "29952i",
      "midiNote": 38,
      "noteName": "D2",
      "velocity": 1,
      "duration": "14i"
    },
    {
      "time": "29952i",
      "midiNote": 57,
      "noteName": "A3",
      "velocity": 1,
      "duration": "14i"
    },
    {
      "time": "30016i",
      "midiNote": 60,
      "noteName": "C4",
      "velocity": 0.3858267716535433,
      "duration": "60i"
    },
    {
      "time": "30080i",
      "midiNote": 61,
      "noteName": "C#4",
      "velocity": 0.5196850393700787,
      "duration": "60i"
    },
    {
      "time": "30144i",
      "midiNote": 62,
      "noteName": "D4",
      "velocity": 1,
      "duration": "60i"
    },
    {
      "time": "30272i",
      "midiNote": 60,
      "noteName": "C4",
      "velocity": 0.5196850393700787,
      "duration": "60i"
    },
    {
      "time": "30336i",
      "midiNote": 60,
      "noteName": "C4",
      "velocity": 0.3937007874015748,
      "duration": "60i"
    },
    {
      "time": "30464i",
      "midiNote": 61,
      "noteName": "C#4",
      "velocity": 0.6850393700787402,
      "duration": "60i"
    },
    {
      "time": "30528i",
      "midiNote": 62,
      "noteName": "D4",
      "velocity": 0.8661417322834646,
      "duration": "60i"
    },
    {
      "time": "30592i",
      "midiNote": 63,
      "noteName": "D#4",
      "velocity": 1,
      "duration": "60i"
    },
    {
      "time": "30656i",
      "midiNote": 64,
      "noteName": "E4",
      "velocity": 0.8267716535433071,
      "duration": "60i"
    },
    {
      "time": "30720i",
      "midiNote": 36,
      "noteName": "C2",
      "velocity": 1,
      "duration": "382i"
    },
    {
      "time": "30720i",
      "midiNote": 63,
      "noteName": "D#4",
      "velocity": 1,
      "duration": "60i"
    },
    {
      "time": "30720i",
      "midiNote": 57,
      "noteName": "A3",
      "velocity": 1,
      "duration": "14i"
    },
    {
      "time": "30720i",
      "midiNote": 43,
      "noteName": "G2",
      "velocity": 1,
      "duration": "384i"
    },
    {
      "time": "30784i",
      "midiNote": 60,
      "noteName": "C4",
      "velocity": 0.3858267716535433,
      "duration": "60i"
    },
    {
      "time": "30848i",
      "midiNote": 61,
      "noteName": "C#4",
      "velocity": 0.5196850393700787,
      "duration": "60i"
    },
    {
      "time": "30912i",
      "midiNote": 62,
      "noteName": "D4",
      "velocity": 1,
      "duration": "60i"
    },
    {
      "time": "31040i",
      "midiNote": 60,
      "noteName": "C4",
      "velocity": 0.5196850393700787,
      "duration": "60i"
    },
    {
      "time": "31104i",
      "midiNote": 36,
      "noteName": "C2",
      "velocity": 0.8818897637795275,
      "duration": "190i"
    },
    {
      "time": "31104i",
      "midiNote": 41,
      "noteName": "F2",
      "velocity": 0.8503937007874016,
      "duration": "158i"
    },
    {
      "time": "31104i",
      "midiNote": 60,
      "noteName": "C4",
      "velocity": 0.3937007874015748,
      "duration": "60i"
    },
    {
      "time": "31232i",
      "midiNote": 61,
      "noteName": "C#4",
      "velocity": 0.6850393700787402,
      "duration": "60i"
    },
    {
      "time": "31296i",
      "midiNote": 36,
      "noteName": "C2",
      "velocity": 0.8818897637795275,
      "duration": "126i"
    },
    {
      "time": "31296i",
      "midiNote": 43,
      "noteName": "G2",
      "velocity": 1,
      "duration": "14i"
    },
    {
      "time": "31296i",
      "midiNote": 62,
      "noteName": "D4",
      "velocity": 0.8661417322834646,
      "duration": "60i"
    },
    {
      "time": "31296i",
      "midiNote": 38,
      "noteName": "D2",
      "velocity": 0.9606299212598425,
      "duration": "14i"
    },
    {
      "time": "31360i",
      "midiNote": 43,
      "noteName": "G2",
      "velocity": 0.48031496062992124,
      "duration": "14i"
    },
    {
      "time": "31360i",
      "midiNote": 63,
      "noteName": "D#4",
      "velocity": 1,
      "duration": "60i"
    },
    {
      "time": "31360i",
      "midiNote": 38,
      "noteName": "D2",
      "velocity": 0.7559055118110236,
      "duration": "14i"
    },
    {
      "time": "31424i",
      "midiNote": 36,
      "noteName": "C2",
      "velocity": 0.8818897637795275,
      "duration": "62i"
    },
    {
      "time": "31424i",
      "midiNote": 43,
      "noteName": "G2",
      "velocity": 0.84251968503937,
      "duration": "14i"
    },
    {
      "time": "31424i",
      "midiNote": 64,
      "noteName": "E4",
      "velocity": 0.8267716535433071,
      "duration": "60i"
    },
    {
      "time": "31424i",
      "midiNote": 38,
      "noteName": "D2",
      "velocity": 0.8740157480314961,
      "duration": "14i"
    },
    {
      "time": "31488i",
      "midiNote": 36,
      "noteName": "C2",
      "velocity": 1,
      "duration": "766i"
    },
    {
      "time": "31488i",
      "midiNote": 43,
      "noteName": "G2",
      "velocity": 1,
      "duration": "704i"
    },
    {
      "time": "31488i",
      "midiNote": 38,
      "noteName": "D2",
      "velocity": 1,
      "duration": "14i"
    },
    {
      "time": "31488i",
      "midiNote": 57,
      "noteName": "A3",
      "velocity": 1,
      "duration": "14i"
    },
    {
      "time": "31488i",
      "midiNote": 63,
      "noteName": "D#4",
      "velocity": 1,
      "duration": "60i"
    },
    {
      "time": "31552i",
      "midiNote": 60,
      "noteName": "C4",
      "velocity": 0.3858267716535433,
      "duration": "60i"
    },
    {
      "time": "31616i",
      "midiNote": 61,
      "noteName": "C#4",
      "velocity": 0.5196850393700787,
      "duration": "60i"
    },
    {
      "time": "31680i",
      "midiNote": 62,
      "noteName": "D4",
      "velocity": 1,
      "duration": "60i"
    },
    {
      "time": "31808i",
      "midiNote": 60,
      "noteName": "C4",
      "velocity": 0.5196850393700787,
      "duration": "60i"
    },
    {
      "time": "31872i",
      "midiNote": 60,
      "noteName": "C4",
      "velocity": 0.3937007874015748,
      "duration": "60i"
    },
    {
      "time": "32000i",
      "midiNote": 61,
      "noteName": "C#4",
      "velocity": 0.6850393700787402,
      "duration": "60i"
    },
    {
      "time": "32064i",
      "midiNote": 62,
      "noteName": "D4",
      "velocity": 0.8661417322834646,
      "duration": "60i"
    },
    {
      "time": "32128i",
      "midiNote": 63,
      "noteName": "D#4",
      "velocity": 1,
      "duration": "60i"
    },
    {
      "time": "32192i",
      "midiNote": 64,
      "noteName": "E4",
      "velocity": 0.8267716535433071,
      "duration": "60i"
    },
    {
      "time": "32256i",
      "midiNote": 57,
      "noteName": "A3",
      "velocity": 1,
      "duration": "14i"
    },
    {
      "time": "32256i",
      "midiNote": 43,
      "noteName": "G2",
      "velocity": 1,
      "duration": "384i"
    },
    {
      "time": "32640i",
      "midiNote": 41,
      "noteName": "F2",
      "velocity": 0.8503937007874016,
      "duration": "158i"
    },
    {
      "time": "32704i",
      "midiNote": 38,
      "noteName": "D2",
      "velocity": 0.7874015748031497,
      "duration": "56i"
    },
    {
      "time": "32768i",
      "midiNote": 38,
      "noteName": "D2",
      "velocity": 0.8661417322834646,
      "duration": "56i"
    },
    {
      "time": "32832i",
      "midiNote": 38,
      "noteName": "D2",
      "velocity": 0.9606299212598425,
      "duration": "14i"
    },
    {
      "time": "32832i",
      "midiNote": 43,
      "noteName": "G2",
      "velocity": 1,
      "duration": "14i"
    },
    {
      "time": "32896i",
      "midiNote": 38,
      "noteName": "D2",
      "velocity": 0.7559055118110236,
      "duration": "14i"
    },
    {
      "time": "32896i",
      "midiNote": 43,
      "noteName": "G2",
      "velocity": 0.48031496062992124,
      "duration": "14i"
    },
    {
      "time": "32960i",
      "midiNote": 38,
      "noteName": "D2",
      "velocity": 0.8740157480314961,
      "duration": "14i"
    },
    {
      "time": "32960i",
      "midiNote": 43,
      "noteName": "G2",
      "velocity": 0.84251968503937,
      "duration": "14i"
    },
    {
      "time": "33024i",
      "midiNote": 38,
      "noteName": "D2",
      "velocity": 1,
      "duration": "14i"
    },
    {
      "time": "33024i",
      "midiNote": 57,
      "noteName": "A3",
      "velocity": 1,
      "duration": "14i"
    },
    {
      "time": "33024i",
      "midiNote": 43,
      "noteName": "G2",
      "velocity": 1,
      "duration": "704i"
    }
  ],
  [
    {
      "time": "21508i",
      "midiNote": 52,
      "noteName": "E3",
      "velocity": 0.9921259842519685,
      "duration": "376i"
    },
    {
      "time": "21888i",
      "midiNote": 47,
      "noteName": "B2",
      "velocity": 0.9921259842519685,
      "duration": "184i"
    },
    {
      "time": "22084i",
      "midiNote": 52,
      "noteName": "E3",
      "velocity": 0.9921259842519685,
      "duration": "120i"
    },
    {
      "time": "22212i",
      "midiNote": 52,
      "noteName": "E3",
      "velocity": 0.9921259842519685,
      "duration": "56i"
    },
    {
      "time": "22272i",
      "midiNote": 52,
      "noteName": "E3",
      "velocity": 0.9921259842519685,
      "duration": "760i"
    },
    {
      "time": "23044i",
      "midiNote": 52,
      "noteName": "E3",
      "velocity": 0.9921259842519685,
      "duration": "376i"
    },
    {
      "time": "23424i",
      "midiNote": 47,
      "noteName": "B2",
      "velocity": 0.9921259842519685,
      "duration": "184i"
    },
    {
      "time": "23620i",
      "midiNote": 52,
      "noteName": "E3",
      "velocity": 0.9921259842519685,
      "duration": "120i"
    },
    {
      "time": "23748i",
      "midiNote": 52,
      "noteName": "E3",
      "velocity": 0.9921259842519685,
      "duration": "56i"
    },
    {
      "time": "23808i",
      "midiNote": 52,
      "noteName": "E3",
      "velocity": 0.9921259842519685,
      "duration": "760i"
    },
    {
      "time": "24580i",
      "midiNote": 52,
      "noteName": "E3",
      "velocity": 0.9921259842519685,
      "duration": "376i"
    },
    {
      "time": "24960i",
      "midiNote": 47,
      "noteName": "B2",
      "velocity": 0.9921259842519685,
      "duration": "184i"
    },
    {
      "time": "25156i",
      "midiNote": 52,
      "noteName": "E3",
      "velocity": 0.9921259842519685,
      "duration": "120i"
    },
    {
      "time": "25284i",
      "midiNote": 52,
      "noteName": "E3",
      "velocity": 0.9921259842519685,
      "duration": "56i"
    },
    {
      "time": "25344i",
      "midiNote": 52,
      "noteName": "E3",
      "velocity": 0.9921259842519685,
      "duration": "760i"
    },
    {
      "time": "26116i",
      "midiNote": 52,
      "noteName": "E3",
      "velocity": 0.9921259842519685,
      "duration": "376i"
    },
    {
      "time": "26496i",
      "midiNote": 47,
      "noteName": "B2",
      "velocity": 0.9921259842519685,
      "duration": "184i"
    },
    {
      "time": "26692i",
      "midiNote": 52,
      "noteName": "E3",
      "velocity": 0.9921259842519685,
      "duration": "120i"
    },
    {
      "time": "26820i",
      "midiNote": 52,
      "noteName": "E3",
      "velocity": 0.9921259842519685,
      "duration": "56i"
    },
    {
      "time": "26880i",
      "midiNote": 52,
      "noteName": "E3",
      "velocity": 0.9921259842519685,
      "duration": "760i"
    },
    {
      "time": "27652i",
      "midiNote": 52,
      "noteName": "E3",
      "velocity": 0.9921259842519685,
      "duration": "376i"
    },
    {
      "time": "28032i",
      "midiNote": 47,
      "noteName": "B2",
      "velocity": 0.9921259842519685,
      "duration": "184i"
    },
    {
      "time": "28228i",
      "midiNote": 52,
      "noteName": "E3",
      "velocity": 0.9921259842519685,
      "duration": "120i"
    },
    {
      "time": "28356i",
      "midiNote": 52,
      "noteName": "E3",
      "velocity": 0.9921259842519685,
      "duration": "56i"
    },
    {
      "time": "28416i",
      "midiNote": 52,
      "noteName": "E3",
      "velocity": 0.9921259842519685,
      "duration": "760i"
    },
    {
      "time": "29188i",
      "midiNote": 52,
      "noteName": "E3",
      "velocity": 0.9921259842519685,
      "duration": "376i"
    },
    {
      "time": "29568i",
      "midiNote": 47,
      "noteName": "B2",
      "velocity": 0.9921259842519685,
      "duration": "184i"
    },
    {
      "time": "29764i",
      "midiNote": 52,
      "noteName": "E3",
      "velocity": 0.9921259842519685,
      "duration": "120i"
    },
    {
      "time": "29892i",
      "midiNote": 52,
      "noteName": "E3",
      "velocity": 0.9921259842519685,
      "duration": "56i"
    },
    {
      "time": "29952i",
      "midiNote": 52,
      "noteName": "E3",
      "velocity": 0.9921259842519685,
      "duration": "760i"
    },
    {
      "time": "30724i",
      "midiNote": 52,
      "noteName": "E3",
      "velocity": 0.9921259842519685,
      "duration": "376i"
    },
    {
      "time": "31104i",
      "midiNote": 47,
      "noteName": "B2",
      "velocity": 0.9921259842519685,
      "duration": "184i"
    },
    {
      "time": "31300i",
      "midiNote": 52,
      "noteName": "E3",
      "velocity": 0.9921259842519685,
      "duration": "120i"
    },
    {
      "time": "31428i",
      "midiNote": 52,
      "noteName": "E3",
      "velocity": 0.9921259842519685,
      "duration": "56i"
    },
    {
      "time": "31488i",
      "midiNote": 52,
      "noteName": "E3",
      "velocity": 0.9921259842519685,
      "duration": "760i"
    }
  ],
  [
    {
      "time": "0i",
      "midiNote": 54,
      "noteName": "F#3",
      "velocity": 1,
      "duration": "62i"
    },
    {
      "time": "0i",
      "midiNote": 47,
      "noteName": "B2",
      "velocity": 1,
      "duration": "62i"
    },
    {
      "time": "64i",
      "midiNote": 47,
      "noteName": "B2",
      "velocity": 0.8818897637795275,
      "duration": "62i"
    },
    {
      "time": "128i",
      "midiNote": 47,
      "noteName": "B2",
      "velocity": 0.8031496062992126,
      "duration": "62i"
    },
    {
      "time": "192i",
      "midiNote": 54,
      "noteName": "F#3",
      "velocity": 0.6614173228346457,
      "duration": "62i"
    },
    {
      "time": "192i",
      "midiNote": 47,
      "noteName": "B2",
      "velocity": 0.6614173228346457,
      "duration": "62i"
    },
    {
      "time": "320i",
      "midiNote": 54,
      "noteName": "F#3",
      "velocity": 0.5669291338582677,
      "duration": "62i"
    },
    {
      "time": "320i",
      "midiNote": 47,
      "noteName": "B2",
      "velocity": 0.5669291338582677,
      "duration": "62i"
    },
    {
      "time": "384i",
      "midiNote": 54,
      "noteName": "F#3",
      "velocity": 1,
      "duration": "62i"
    },
    {
      "time": "384i",
      "midiNote": 47,
      "noteName": "B2",
      "velocity": 1,
      "duration": "62i"
    },
    {
      "time": "448i",
      "midiNote": 47,
      "noteName": "B2",
      "velocity": 0.8818897637795275,
      "duration": "62i"
    },
    {
      "time": "512i",
      "midiNote": 47,
      "noteName": "B2",
      "velocity": 0.8031496062992126,
      "duration": "62i"
    },
    {
      "time": "576i",
      "midiNote": 54,
      "noteName": "F#3",
      "velocity": 0.6614173228346457,
      "duration": "62i"
    },
    {
      "time": "576i",
      "midiNote": 47,
      "noteName": "B2",
      "velocity": 0.6614173228346457,
      "duration": "62i"
    },
    {
      "time": "640i",
      "midiNote": 47,
      "noteName": "B2",
      "velocity": 0.3543307086614173,
      "duration": "62i"
    },
    {
      "time": "640i",
      "midiNote": 54,
      "noteName": "F#3",
      "velocity": 0.3543307086614173,
      "duration": "62i"
    },
    {
      "time": "704i",
      "midiNote": 54,
      "noteName": "F#3",
      "velocity": 0.5669291338582677,
      "duration": "62i"
    },
    {
      "time": "704i",
      "midiNote": 47,
      "noteName": "B2",
      "velocity": 0.5669291338582677,
      "duration": "62i"
    },
    {
      "time": "768i",
      "midiNote": 54,
      "noteName": "F#3",
      "velocity": 1,
      "duration": "62i"
    },
    {
      "time": "768i",
      "midiNote": 47,
      "noteName": "B2",
      "velocity": 1,
      "duration": "62i"
    },
    {
      "time": "832i",
      "midiNote": 47,
      "noteName": "B2",
      "velocity": 0.8818897637795275,
      "duration": "62i"
    },
    {
      "time": "896i",
      "midiNote": 47,
      "noteName": "B2",
      "velocity": 0.8031496062992126,
      "duration": "62i"
    },
    {
      "time": "960i",
      "midiNote": 47,
      "noteName": "B2",
      "velocity": 0.6614173228346457,
      "duration": "62i"
    },
    {
      "time": "960i",
      "midiNote": 54,
      "noteName": "F#3",
      "velocity": 0.6614173228346457,
      "duration": "62i"
    },
    {
      "time": "1088i",
      "midiNote": 54,
      "noteName": "F#3",
      "velocity": 0.5669291338582677,
      "duration": "62i"
    },
    {
      "time": "1088i",
      "midiNote": 47,
      "noteName": "B2",
      "velocity": 0.5669291338582677,
      "duration": "62i"
    },
    {
      "time": "1152i",
      "midiNote": 47,
      "noteName": "B2",
      "velocity": 0.7480314960629921,
      "duration": "62i"
    },
    {
      "time": "1152i",
      "midiNote": 54,
      "noteName": "F#3",
      "velocity": 0.7480314960629921,
      "duration": "62i"
    },
    {
      "time": "1216i",
      "midiNote": 47,
      "noteName": "B2",
      "velocity": 0.984251968503937,
      "duration": "62i"
    },
    {
      "time": "1280i",
      "midiNote": 47,
      "noteName": "B2",
      "velocity": 0.7244094488188977,
      "duration": "62i"
    },
    {
      "time": "1344i",
      "midiNote": 54,
      "noteName": "F#3",
      "velocity": 1,
      "duration": "62i"
    },
    {
      "time": "1344i",
      "midiNote": 47,
      "noteName": "B2",
      "velocity": 1,
      "duration": "62i"
    },
    {
      "time": "1408i",
      "midiNote": 47,
      "noteName": "B2",
      "velocity": 0.7480314960629921,
      "duration": "62i"
    },
    {
      "time": "1472i",
      "midiNote": 47,
      "noteName": "B2",
      "velocity": 0.5669291338582677,
      "duration": "62i"
    },
    {
      "time": "1472i",
      "midiNote": 54,
      "noteName": "F#3",
      "velocity": 0.5669291338582677,
      "duration": "62i"
    },
    {
      "time": "1536i",
      "midiNote": 54,
      "noteName": "F#3",
      "velocity": 1,
      "duration": "62i"
    },
    {
      "time": "1536i",
      "midiNote": 40,
      "noteName": "E2",
      "velocity": 1,
      "duration": "62i"
    },
    {
      "time": "1600i",
      "midiNote": 40,
      "noteName": "E2",
      "velocity": 0.8818897637795275,
      "duration": "62i"
    },
    {
      "time": "1664i",
      "midiNote": 40,
      "noteName": "E2",
      "velocity": 0.8031496062992126,
      "duration": "62i"
    },
    {
      "time": "1728i",
      "midiNote": 54,
      "noteName": "F#3",
      "velocity": 0.6614173228346457,
      "duration": "62i"
    },
    {
      "time": "1728i",
      "midiNote": 40,
      "noteName": "E2",
      "velocity": 0.6614173228346457,
      "duration": "62i"
    },
    {
      "time": "1856i",
      "midiNote": 54,
      "noteName": "F#3",
      "velocity": 0.5669291338582677,
      "duration": "62i"
    },
    {
      "time": "1856i",
      "midiNote": 40,
      "noteName": "E2",
      "velocity": 0.5669291338582677,
      "duration": "62i"
    },
    {
      "time": "1920i",
      "midiNote": 54,
      "noteName": "F#3",
      "velocity": 1,
      "duration": "62i"
    },
    {
      "time": "1920i",
      "midiNote": 40,
      "noteName": "E2",
      "velocity": 1,
      "duration": "62i"
    },
    {
      "time": "1984i",
      "midiNote": 40,
      "noteName": "E2",
      "velocity": 0.8818897637795275,
      "duration": "62i"
    },
    {
      "time": "2048i",
      "midiNote": 40,
      "noteName": "E2",
      "velocity": 0.8031496062992126,
      "duration": "62i"
    },
    {
      "time": "2112i",
      "midiNote": 40,
      "noteName": "E2",
      "velocity": 0.6614173228346457,
      "duration": "62i"
    },
    {
      "time": "2112i",
      "midiNote": 54,
      "noteName": "F#3",
      "velocity": 0.6614173228346457,
      "duration": "62i"
    },
    {
      "time": "2176i",
      "midiNote": 54,
      "noteName": "F#3",
      "velocity": 0.3543307086614173,
      "duration": "62i"
    },
    {
      "time": "2176i",
      "midiNote": 40,
      "noteName": "E2",
      "velocity": 0.3543307086614173,
      "duration": "62i"
    },
    {
      "time": "2240i",
      "midiNote": 40,
      "noteName": "E2",
      "velocity": 0.5669291338582677,
      "duration": "62i"
    },
    {
      "time": "2240i",
      "midiNote": 54,
      "noteName": "F#3",
      "velocity": 0.5669291338582677,
      "duration": "62i"
    },
    {
      "time": "2304i",
      "midiNote": 40,
      "noteName": "E2",
      "velocity": 1,
      "duration": "62i"
    },
    {
      "time": "2304i",
      "midiNote": 54,
      "noteName": "F#3",
      "velocity": 1,
      "duration": "62i"
    },
    {
      "time": "2368i",
      "midiNote": 40,
      "noteName": "E2",
      "velocity": 0.8818897637795275,
      "duration": "62i"
    },
    {
      "time": "2432i",
      "midiNote": 40,
      "noteName": "E2",
      "velocity": 0.8031496062992126,
      "duration": "62i"
    },
    {
      "time": "2496i",
      "midiNote": 54,
      "noteName": "F#3",
      "velocity": 0.6614173228346457,
      "duration": "62i"
    },
    {
      "time": "2496i",
      "midiNote": 40,
      "noteName": "E2",
      "velocity": 0.6614173228346457,
      "duration": "62i"
    },
    {
      "time": "2624i",
      "midiNote": 40,
      "noteName": "E2",
      "velocity": 0.5669291338582677,
      "duration": "62i"
    },
    {
      "time": "2624i",
      "midiNote": 54,
      "noteName": "F#3",
      "velocity": 0.5669291338582677,
      "duration": "62i"
    },
    {
      "time": "2688i",
      "midiNote": 40,
      "noteName": "E2",
      "velocity": 0.7874015748031497,
      "duration": "62i"
    },
    {
      "time": "2688i",
      "midiNote": 54,
      "noteName": "F#3",
      "velocity": 0.7874015748031497,
      "duration": "62i"
    },
    {
      "time": "2744i",
      "midiNote": 67,
      "noteName": "G4",
      "velocity": 0.5826771653543307,
      "duration": "6i"
    },
    {
      "time": "2744i",
      "midiNote": 61,
      "noteName": "C#4",
      "velocity": 0.5826771653543307,
      "duration": "6i"
    },
    {
      "time": "2752i",
      "midiNote": 40,
      "noteName": "E2",
      "velocity": 1,
      "duration": "62i"
    },
    {
      "time": "2752i",
      "midiNote": 61,
      "noteName": "C#4",
      "velocity": 1,
      "duration": "62i"
    },
    {
      "time": "2752i",
      "midiNote": 67,
      "noteName": "G4",
      "velocity": 1,
      "duration": "62i"
    },
    {
      "time": "2816i",
      "midiNote": 40,
      "noteName": "E2",
      "velocity": 0.6771653543307087,
      "duration": "62i"
    },
    {
      "time": "2880i",
      "midiNote": 40,
      "noteName": "E2",
      "velocity": 1,
      "duration": "62i"
    },
    {
      "time": "2880i",
      "midiNote": 54,
      "noteName": "F#3",
      "velocity": 1,
      "duration": "62i"
    },
    {
      "time": "2880i",
      "midiNote": 61,
      "noteName": "C#4",
      "velocity": 0.984251968503937,
      "duration": "62i"
    },
    {
      "time": "2880i",
      "midiNote": 67,
      "noteName": "G4",
      "velocity": 1,
      "duration": "62i"
    },
    {
      "time": "2944i",
      "midiNote": 54,
      "noteName": "F#3",
      "velocity": 0.6771653543307087,
      "duration": "62i"
    },
    {
      "time": "2944i",
      "midiNote": 40,
      "noteName": "E2",
      "velocity": 0.6771653543307087,
      "duration": "62i"
    },
    {
      "time": "3008i",
      "midiNote": 40,
      "noteName": "E2",
      "velocity": 0.984251968503937,
      "duration": "62i"
    },
    {
      "time": "3008i",
      "midiNote": 54,
      "noteName": "F#3",
      "velocity": 0.984251968503937,
      "duration": "62i"
    },
    {
      "time": "3008i",
      "midiNote": 61,
      "noteName": "C#4",
      "velocity": 0.984251968503937,
      "duration": "62i"
    },
    {
      "time": "3008i",
      "midiNote": 67,
      "noteName": "G4",
      "velocity": 1,
      "duration": "62i"
    },
    {
      "time": "3072i",
      "midiNote": 54,
      "noteName": "F#3",
      "velocity": 1,
      "duration": "62i"
    },
    {
      "time": "3072i",
      "midiNote": 47,
      "noteName": "B2",
      "velocity": 1,
      "duration": "62i"
    },
    {
      "time": "3136i",
      "midiNote": 47,
      "noteName": "B2",
      "velocity": 0.8818897637795275,
      "duration": "62i"
    },
    {
      "time": "3200i",
      "midiNote": 47,
      "noteName": "B2",
      "velocity": 0.8031496062992126,
      "duration": "62i"
    },
    {
      "time": "3264i",
      "midiNote": 54,
      "noteName": "F#3",
      "velocity": 0.6614173228346457,
      "duration": "62i"
    },
    {
      "time": "3264i",
      "midiNote": 47,
      "noteName": "B2",
      "velocity": 0.6614173228346457,
      "duration": "62i"
    },
    {
      "time": "3392i",
      "midiNote": 54,
      "noteName": "F#3",
      "velocity": 0.5669291338582677,
      "duration": "62i"
    },
    {
      "time": "3392i",
      "midiNote": 47,
      "noteName": "B2",
      "velocity": 0.5669291338582677,
      "duration": "62i"
    },
    {
      "time": "3456i",
      "midiNote": 54,
      "noteName": "F#3",
      "velocity": 1,
      "duration": "62i"
    },
    {
      "time": "3456i",
      "midiNote": 47,
      "noteName": "B2",
      "velocity": 1,
      "duration": "62i"
    },
    {
      "time": "3520i",
      "midiNote": 47,
      "noteName": "B2",
      "velocity": 0.8818897637795275,
      "duration": "62i"
    },
    {
      "time": "3584i",
      "midiNote": 47,
      "noteName": "B2",
      "velocity": 0.8031496062992126,
      "duration": "62i"
    },
    {
      "time": "3648i",
      "midiNote": 54,
      "noteName": "F#3",
      "velocity": 0.6614173228346457,
      "duration": "62i"
    },
    {
      "time": "3648i",
      "midiNote": 47,
      "noteName": "B2",
      "velocity": 0.6614173228346457,
      "duration": "62i"
    },
    {
      "time": "3712i",
      "midiNote": 47,
      "noteName": "B2",
      "velocity": 0.3543307086614173,
      "duration": "62i"
    },
    {
      "time": "3712i",
      "midiNote": 54,
      "noteName": "F#3",
      "velocity": 0.3543307086614173,
      "duration": "62i"
    },
    {
      "time": "3776i",
      "midiNote": 54,
      "noteName": "F#3",
      "velocity": 0.5669291338582677,
      "duration": "62i"
    },
    {
      "time": "3776i",
      "midiNote": 47,
      "noteName": "B2",
      "velocity": 0.5669291338582677,
      "duration": "62i"
    },
    {
      "time": "3840i",
      "midiNote": 54,
      "noteName": "F#3",
      "velocity": 1,
      "duration": "62i"
    },
    {
      "time": "3840i",
      "midiNote": 47,
      "noteName": "B2",
      "velocity": 1,
      "duration": "62i"
    },
    {
      "time": "3904i",
      "midiNote": 47,
      "noteName": "B2",
      "velocity": 0.8818897637795275,
      "duration": "62i"
    },
    {
      "time": "3968i",
      "midiNote": 47,
      "noteName": "B2",
      "velocity": 0.8031496062992126,
      "duration": "62i"
    },
    {
      "time": "4032i",
      "midiNote": 47,
      "noteName": "B2",
      "velocity": 0.6614173228346457,
      "duration": "62i"
    },
    {
      "time": "4032i",
      "midiNote": 54,
      "noteName": "F#3",
      "velocity": 0.6614173228346457,
      "duration": "62i"
    },
    {
      "time": "4160i",
      "midiNote": 54,
      "noteName": "F#3",
      "velocity": 0.5669291338582677,
      "duration": "62i"
    },
    {
      "time": "4160i",
      "midiNote": 47,
      "noteName": "B2",
      "velocity": 0.5669291338582677,
      "duration": "62i"
    },
    {
      "time": "4224i",
      "midiNote": 47,
      "noteName": "B2",
      "velocity": 0.7480314960629921,
      "duration": "62i"
    },
    {
      "time": "4224i",
      "midiNote": 54,
      "noteName": "F#3",
      "velocity": 0.7480314960629921,
      "duration": "62i"
    },
    {
      "time": "4288i",
      "midiNote": 47,
      "noteName": "B2",
      "velocity": 0.984251968503937,
      "duration": "62i"
    },
    {
      "time": "4352i",
      "midiNote": 47,
      "noteName": "B2",
      "velocity": 0.7244094488188977,
      "duration": "62i"
    },
    {
      "time": "4416i",
      "midiNote": 54,
      "noteName": "F#3",
      "velocity": 1,
      "duration": "62i"
    },
    {
      "time": "4416i",
      "midiNote": 47,
      "noteName": "B2",
      "velocity": 1,
      "duration": "62i"
    },
    {
      "time": "4480i",
      "midiNote": 47,
      "noteName": "B2",
      "velocity": 0.7480314960629921,
      "duration": "62i"
    },
    {
      "time": "4544i",
      "midiNote": 47,
      "noteName": "B2",
      "velocity": 0.5669291338582677,
      "duration": "62i"
    },
    {
      "time": "4544i",
      "midiNote": 54,
      "noteName": "F#3",
      "velocity": 0.5669291338582677,
      "duration": "62i"
    },
    {
      "time": "4608i",
      "midiNote": 54,
      "noteName": "F#3",
      "velocity": 1,
      "duration": "62i"
    },
    {
      "time": "4608i",
      "midiNote": 40,
      "noteName": "E2",
      "velocity": 1,
      "duration": "62i"
    },
    {
      "time": "4672i",
      "midiNote": 40,
      "noteName": "E2",
      "velocity": 0.8818897637795275,
      "duration": "62i"
    },
    {
      "time": "4736i",
      "midiNote": 40,
      "noteName": "E2",
      "velocity": 0.8031496062992126,
      "duration": "62i"
    },
    {
      "time": "4800i",
      "midiNote": 54,
      "noteName": "F#3",
      "velocity": 0.6614173228346457,
      "duration": "62i"
    },
    {
      "time": "4800i",
      "midiNote": 40,
      "noteName": "E2",
      "velocity": 0.6614173228346457,
      "duration": "62i"
    },
    {
      "time": "4928i",
      "midiNote": 54,
      "noteName": "F#3",
      "velocity": 0.5669291338582677,
      "duration": "62i"
    },
    {
      "time": "4928i",
      "midiNote": 40,
      "noteName": "E2",
      "velocity": 0.5669291338582677,
      "duration": "62i"
    },
    {
      "time": "4992i",
      "midiNote": 54,
      "noteName": "F#3",
      "velocity": 1,
      "duration": "62i"
    },
    {
      "time": "4992i",
      "midiNote": 40,
      "noteName": "E2",
      "velocity": 1,
      "duration": "62i"
    },
    {
      "time": "5056i",
      "midiNote": 40,
      "noteName": "E2",
      "velocity": 0.8818897637795275,
      "duration": "62i"
    },
    {
      "time": "5120i",
      "midiNote": 40,
      "noteName": "E2",
      "velocity": 0.8031496062992126,
      "duration": "62i"
    },
    {
      "time": "5184i",
      "midiNote": 40,
      "noteName": "E2",
      "velocity": 0.6614173228346457,
      "duration": "62i"
    },
    {
      "time": "5184i",
      "midiNote": 54,
      "noteName": "F#3",
      "velocity": 0.6614173228346457,
      "duration": "62i"
    },
    {
      "time": "5248i",
      "midiNote": 54,
      "noteName": "F#3",
      "velocity": 0.3543307086614173,
      "duration": "62i"
    },
    {
      "time": "5248i",
      "midiNote": 40,
      "noteName": "E2",
      "velocity": 0.3543307086614173,
      "duration": "62i"
    },
    {
      "time": "5312i",
      "midiNote": 40,
      "noteName": "E2",
      "velocity": 0.5669291338582677,
      "duration": "62i"
    },
    {
      "time": "5312i",
      "midiNote": 54,
      "noteName": "F#3",
      "velocity": 0.5669291338582677,
      "duration": "62i"
    },
    {
      "time": "5376i",
      "midiNote": 40,
      "noteName": "E2",
      "velocity": 1,
      "duration": "62i"
    },
    {
      "time": "5376i",
      "midiNote": 54,
      "noteName": "F#3",
      "velocity": 1,
      "duration": "62i"
    },
    {
      "time": "5440i",
      "midiNote": 40,
      "noteName": "E2",
      "velocity": 0.8818897637795275,
      "duration": "62i"
    },
    {
      "time": "5504i",
      "midiNote": 40,
      "noteName": "E2",
      "velocity": 0.8031496062992126,
      "duration": "62i"
    },
    {
      "time": "5568i",
      "midiNote": 54,
      "noteName": "F#3",
      "velocity": 0.6614173228346457,
      "duration": "62i"
    },
    {
      "time": "5568i",
      "midiNote": 40,
      "noteName": "E2",
      "velocity": 0.6614173228346457,
      "duration": "62i"
    },
    {
      "time": "5696i",
      "midiNote": 40,
      "noteName": "E2",
      "velocity": 0.5669291338582677,
      "duration": "62i"
    },
    {
      "time": "5696i",
      "midiNote": 54,
      "noteName": "F#3",
      "velocity": 0.5669291338582677,
      "duration": "62i"
    },
    {
      "time": "5760i",
      "midiNote": 40,
      "noteName": "E2",
      "velocity": 0.7874015748031497,
      "duration": "62i"
    },
    {
      "time": "5760i",
      "midiNote": 54,
      "noteName": "F#3",
      "velocity": 0.7874015748031497,
      "duration": "62i"
    },
    {
      "time": "5816i",
      "midiNote": 67,
      "noteName": "G4",
      "velocity": 0.5826771653543307,
      "duration": "6i"
    },
    {
      "time": "5816i",
      "midiNote": 61,
      "noteName": "C#4",
      "velocity": 0.5826771653543307,
      "duration": "6i"
    },
    {
      "time": "5824i",
      "midiNote": 40,
      "noteName": "E2",
      "velocity": 1,
      "duration": "62i"
    },
    {
      "time": "5824i",
      "midiNote": 61,
      "noteName": "C#4",
      "velocity": 1,
      "duration": "62i"
    },
    {
      "time": "5824i",
      "midiNote": 67,
      "noteName": "G4",
      "velocity": 1,
      "duration": "62i"
    },
    {
      "time": "5888i",
      "midiNote": 40,
      "noteName": "E2",
      "velocity": 0.6771653543307087,
      "duration": "62i"
    },
    {
      "time": "5952i",
      "midiNote": 40,
      "noteName": "E2",
      "velocity": 1,
      "duration": "62i"
    },
    {
      "time": "5952i",
      "midiNote": 54,
      "noteName": "F#3",
      "velocity": 1,
      "duration": "62i"
    },
    {
      "time": "5952i",
      "midiNote": 61,
      "noteName": "C#4",
      "velocity": 0.984251968503937,
      "duration": "62i"
    },
    {
      "time": "5952i",
      "midiNote": 67,
      "noteName": "G4",
      "velocity": 1,
      "duration": "62i"
    },
    {
      "time": "6016i",
      "midiNote": 54,
      "noteName": "F#3",
      "velocity": 0.6771653543307087,
      "duration": "62i"
    },
    {
      "time": "6016i",
      "midiNote": 40,
      "noteName": "E2",
      "velocity": 0.6771653543307087,
      "duration": "62i"
    },
    {
      "time": "6080i",
      "midiNote": 40,
      "noteName": "E2",
      "velocity": 0.984251968503937,
      "duration": "62i"
    },
    {
      "time": "6080i",
      "midiNote": 54,
      "noteName": "F#3",
      "velocity": 0.984251968503937,
      "duration": "62i"
    },
    {
      "time": "6080i",
      "midiNote": 61,
      "noteName": "C#4",
      "velocity": 0.984251968503937,
      "duration": "62i"
    },
    {
      "time": "6080i",
      "midiNote": 67,
      "noteName": "G4",
      "velocity": 1,
      "duration": "62i"
    },
    {
      "time": "6144i",
      "midiNote": 54,
      "noteName": "F#3",
      "velocity": 1,
      "duration": "62i"
    },
    {
      "time": "6144i",
      "midiNote": 47,
      "noteName": "B2",
      "velocity": 1,
      "duration": "62i"
    },
    {
      "time": "6208i",
      "midiNote": 47,
      "noteName": "B2",
      "velocity": 0.8818897637795275,
      "duration": "62i"
    },
    {
      "time": "6272i",
      "midiNote": 47,
      "noteName": "B2",
      "velocity": 0.8031496062992126,
      "duration": "62i"
    },
    {
      "time": "6336i",
      "midiNote": 54,
      "noteName": "F#3",
      "velocity": 0.6614173228346457,
      "duration": "62i"
    },
    {
      "time": "6336i",
      "midiNote": 47,
      "noteName": "B2",
      "velocity": 0.6614173228346457,
      "duration": "62i"
    },
    {
      "time": "6464i",
      "midiNote": 54,
      "noteName": "F#3",
      "velocity": 0.5669291338582677,
      "duration": "62i"
    },
    {
      "time": "6464i",
      "midiNote": 47,
      "noteName": "B2",
      "velocity": 0.5669291338582677,
      "duration": "62i"
    },
    {
      "time": "6528i",
      "midiNote": 54,
      "noteName": "F#3",
      "velocity": 1,
      "duration": "62i"
    },
    {
      "time": "6528i",
      "midiNote": 47,
      "noteName": "B2",
      "velocity": 1,
      "duration": "62i"
    },
    {
      "time": "6592i",
      "midiNote": 47,
      "noteName": "B2",
      "velocity": 0.8818897637795275,
      "duration": "62i"
    },
    {
      "time": "6656i",
      "midiNote": 47,
      "noteName": "B2",
      "velocity": 0.8031496062992126,
      "duration": "62i"
    },
    {
      "time": "6720i",
      "midiNote": 54,
      "noteName": "F#3",
      "velocity": 0.6614173228346457,
      "duration": "62i"
    },
    {
      "time": "6720i",
      "midiNote": 47,
      "noteName": "B2",
      "velocity": 0.6614173228346457,
      "duration": "62i"
    },
    {
      "time": "6784i",
      "midiNote": 47,
      "noteName": "B2",
      "velocity": 0.3543307086614173,
      "duration": "62i"
    },
    {
      "time": "6784i",
      "midiNote": 54,
      "noteName": "F#3",
      "velocity": 0.3543307086614173,
      "duration": "62i"
    },
    {
      "time": "6848i",
      "midiNote": 54,
      "noteName": "F#3",
      "velocity": 0.5669291338582677,
      "duration": "62i"
    },
    {
      "time": "6848i",
      "midiNote": 47,
      "noteName": "B2",
      "velocity": 0.5669291338582677,
      "duration": "62i"
    },
    {
      "time": "6912i",
      "midiNote": 54,
      "noteName": "F#3",
      "velocity": 1,
      "duration": "62i"
    },
    {
      "time": "6912i",
      "midiNote": 47,
      "noteName": "B2",
      "velocity": 1,
      "duration": "62i"
    },
    {
      "time": "6976i",
      "midiNote": 47,
      "noteName": "B2",
      "velocity": 0.8818897637795275,
      "duration": "62i"
    },
    {
      "time": "7040i",
      "midiNote": 47,
      "noteName": "B2",
      "velocity": 0.8031496062992126,
      "duration": "62i"
    },
    {
      "time": "7104i",
      "midiNote": 47,
      "noteName": "B2",
      "velocity": 0.6614173228346457,
      "duration": "62i"
    },
    {
      "time": "7104i",
      "midiNote": 54,
      "noteName": "F#3",
      "velocity": 0.6614173228346457,
      "duration": "62i"
    },
    {
      "time": "7232i",
      "midiNote": 54,
      "noteName": "F#3",
      "velocity": 0.5669291338582677,
      "duration": "62i"
    },
    {
      "time": "7232i",
      "midiNote": 47,
      "noteName": "B2",
      "velocity": 0.5669291338582677,
      "duration": "62i"
    },
    {
      "time": "7296i",
      "midiNote": 47,
      "noteName": "B2",
      "velocity": 0.7480314960629921,
      "duration": "62i"
    },
    {
      "time": "7296i",
      "midiNote": 54,
      "noteName": "F#3",
      "velocity": 0.7480314960629921,
      "duration": "62i"
    },
    {
      "time": "7360i",
      "midiNote": 47,
      "noteName": "B2",
      "velocity": 0.984251968503937,
      "duration": "62i"
    },
    {
      "time": "7424i",
      "midiNote": 47,
      "noteName": "B2",
      "velocity": 0.7244094488188977,
      "duration": "62i"
    },
    {
      "time": "7488i",
      "midiNote": 54,
      "noteName": "F#3",
      "velocity": 1,
      "duration": "62i"
    },
    {
      "time": "7488i",
      "midiNote": 47,
      "noteName": "B2",
      "velocity": 1,
      "duration": "62i"
    },
    {
      "time": "7552i",
      "midiNote": 47,
      "noteName": "B2",
      "velocity": 0.7480314960629921,
      "duration": "62i"
    },
    {
      "time": "7616i",
      "midiNote": 47,
      "noteName": "B2",
      "velocity": 0.5669291338582677,
      "duration": "62i"
    },
    {
      "time": "7616i",
      "midiNote": 54,
      "noteName": "F#3",
      "velocity": 0.5669291338582677,
      "duration": "62i"
    },
    {
      "time": "7680i",
      "midiNote": 54,
      "noteName": "F#3",
      "velocity": 1,
      "duration": "62i"
    },
    {
      "time": "7680i",
      "midiNote": 40,
      "noteName": "E2",
      "velocity": 1,
      "duration": "62i"
    },
    {
      "time": "7744i",
      "midiNote": 40,
      "noteName": "E2",
      "velocity": 0.8818897637795275,
      "duration": "62i"
    },
    {
      "time": "7808i",
      "midiNote": 40,
      "noteName": "E2",
      "velocity": 0.8031496062992126,
      "duration": "62i"
    },
    {
      "time": "7872i",
      "midiNote": 54,
      "noteName": "F#3",
      "velocity": 0.6614173228346457,
      "duration": "62i"
    },
    {
      "time": "7872i",
      "midiNote": 40,
      "noteName": "E2",
      "velocity": 0.6614173228346457,
      "duration": "62i"
    },
    {
      "time": "8000i",
      "midiNote": 54,
      "noteName": "F#3",
      "velocity": 0.5669291338582677,
      "duration": "62i"
    },
    {
      "time": "8000i",
      "midiNote": 40,
      "noteName": "E2",
      "velocity": 0.5669291338582677,
      "duration": "62i"
    },
    {
      "time": "8064i",
      "midiNote": 54,
      "noteName": "F#3",
      "velocity": 1,
      "duration": "62i"
    },
    {
      "time": "8064i",
      "midiNote": 40,
      "noteName": "E2",
      "velocity": 1,
      "duration": "62i"
    },
    {
      "time": "8128i",
      "midiNote": 40,
      "noteName": "E2",
      "velocity": 0.8818897637795275,
      "duration": "62i"
    },
    {
      "time": "8192i",
      "midiNote": 40,
      "noteName": "E2",
      "velocity": 0.8031496062992126,
      "duration": "62i"
    },
    {
      "time": "8256i",
      "midiNote": 40,
      "noteName": "E2",
      "velocity": 0.6614173228346457,
      "duration": "62i"
    },
    {
      "time": "8256i",
      "midiNote": 54,
      "noteName": "F#3",
      "velocity": 0.6614173228346457,
      "duration": "62i"
    },
    {
      "time": "8320i",
      "midiNote": 54,
      "noteName": "F#3",
      "velocity": 0.3543307086614173,
      "duration": "62i"
    },
    {
      "time": "8320i",
      "midiNote": 40,
      "noteName": "E2",
      "velocity": 0.3543307086614173,
      "duration": "62i"
    },
    {
      "time": "8384i",
      "midiNote": 40,
      "noteName": "E2",
      "velocity": 0.5669291338582677,
      "duration": "62i"
    },
    {
      "time": "8384i",
      "midiNote": 54,
      "noteName": "F#3",
      "velocity": 0.5669291338582677,
      "duration": "62i"
    },
    {
      "time": "8448i",
      "midiNote": 40,
      "noteName": "E2",
      "velocity": 1,
      "duration": "62i"
    },
    {
      "time": "8448i",
      "midiNote": 54,
      "noteName": "F#3",
      "velocity": 1,
      "duration": "62i"
    },
    {
      "time": "8512i",
      "midiNote": 40,
      "noteName": "E2",
      "velocity": 0.8818897637795275,
      "duration": "62i"
    },
    {
      "time": "8576i",
      "midiNote": 40,
      "noteName": "E2",
      "velocity": 0.8031496062992126,
      "duration": "62i"
    },
    {
      "time": "8640i",
      "midiNote": 54,
      "noteName": "F#3",
      "velocity": 0.6614173228346457,
      "duration": "62i"
    },
    {
      "time": "8640i",
      "midiNote": 40,
      "noteName": "E2",
      "velocity": 0.6614173228346457,
      "duration": "62i"
    },
    {
      "time": "8768i",
      "midiNote": 40,
      "noteName": "E2",
      "velocity": 0.5669291338582677,
      "duration": "62i"
    },
    {
      "time": "8768i",
      "midiNote": 54,
      "noteName": "F#3",
      "velocity": 0.5669291338582677,
      "duration": "62i"
    },
    {
      "time": "8832i",
      "midiNote": 40,
      "noteName": "E2",
      "velocity": 0.7874015748031497,
      "duration": "62i"
    },
    {
      "time": "8832i",
      "midiNote": 54,
      "noteName": "F#3",
      "velocity": 0.7874015748031497,
      "duration": "62i"
    },
    {
      "time": "8888i",
      "midiNote": 67,
      "noteName": "G4",
      "velocity": 0.5826771653543307,
      "duration": "6i"
    },
    {
      "time": "8888i",
      "midiNote": 61,
      "noteName": "C#4",
      "velocity": 0.5826771653543307,
      "duration": "6i"
    },
    {
      "time": "8896i",
      "midiNote": 40,
      "noteName": "E2",
      "velocity": 1,
      "duration": "62i"
    },
    {
      "time": "8896i",
      "midiNote": 61,
      "noteName": "C#4",
      "velocity": 1,
      "duration": "62i"
    },
    {
      "time": "8896i",
      "midiNote": 67,
      "noteName": "G4",
      "velocity": 1,
      "duration": "62i"
    },
    {
      "time": "8960i",
      "midiNote": 40,
      "noteName": "E2",
      "velocity": 0.6771653543307087,
      "duration": "62i"
    },
    {
      "time": "9024i",
      "midiNote": 40,
      "noteName": "E2",
      "velocity": 1,
      "duration": "62i"
    },
    {
      "time": "9024i",
      "midiNote": 54,
      "noteName": "F#3",
      "velocity": 1,
      "duration": "62i"
    },
    {
      "time": "9024i",
      "midiNote": 61,
      "noteName": "C#4",
      "velocity": 0.984251968503937,
      "duration": "62i"
    },
    {
      "time": "9024i",
      "midiNote": 67,
      "noteName": "G4",
      "velocity": 1,
      "duration": "62i"
    },
    {
      "time": "9088i",
      "midiNote": 54,
      "noteName": "F#3",
      "velocity": 0.6771653543307087,
      "duration": "62i"
    },
    {
      "time": "9088i",
      "midiNote": 40,
      "noteName": "E2",
      "velocity": 0.6771653543307087,
      "duration": "62i"
    },
    {
      "time": "9152i",
      "midiNote": 40,
      "noteName": "E2",
      "velocity": 0.984251968503937,
      "duration": "62i"
    },
    {
      "time": "9152i",
      "midiNote": 54,
      "noteName": "F#3",
      "velocity": 0.984251968503937,
      "duration": "62i"
    },
    {
      "time": "9152i",
      "midiNote": 61,
      "noteName": "C#4",
      "velocity": 0.984251968503937,
      "duration": "62i"
    },
    {
      "time": "9152i",
      "midiNote": 67,
      "noteName": "G4",
      "velocity": 1,
      "duration": "62i"
    },
    {
      "time": "9216i",
      "midiNote": 54,
      "noteName": "F#3",
      "velocity": 1,
      "duration": "62i"
    },
    {
      "time": "9216i",
      "midiNote": 47,
      "noteName": "B2",
      "velocity": 1,
      "duration": "62i"
    },
    {
      "time": "9280i",
      "midiNote": 47,
      "noteName": "B2",
      "velocity": 0.8818897637795275,
      "duration": "62i"
    },
    {
      "time": "9344i",
      "midiNote": 47,
      "noteName": "B2",
      "velocity": 0.8031496062992126,
      "duration": "62i"
    },
    {
      "time": "9408i",
      "midiNote": 54,
      "noteName": "F#3",
      "velocity": 0.6614173228346457,
      "duration": "62i"
    },
    {
      "time": "9408i",
      "midiNote": 47,
      "noteName": "B2",
      "velocity": 0.6614173228346457,
      "duration": "62i"
    },
    {
      "time": "9536i",
      "midiNote": 54,
      "noteName": "F#3",
      "velocity": 0.5669291338582677,
      "duration": "62i"
    },
    {
      "time": "9536i",
      "midiNote": 47,
      "noteName": "B2",
      "velocity": 0.5669291338582677,
      "duration": "62i"
    },
    {
      "time": "9600i",
      "midiNote": 54,
      "noteName": "F#3",
      "velocity": 1,
      "duration": "62i"
    },
    {
      "time": "9600i",
      "midiNote": 47,
      "noteName": "B2",
      "velocity": 1,
      "duration": "62i"
    },
    {
      "time": "9664i",
      "midiNote": 47,
      "noteName": "B2",
      "velocity": 0.8818897637795275,
      "duration": "62i"
    },
    {
      "time": "9728i",
      "midiNote": 47,
      "noteName": "B2",
      "velocity": 0.8031496062992126,
      "duration": "62i"
    },
    {
      "time": "9792i",
      "midiNote": 54,
      "noteName": "F#3",
      "velocity": 0.6614173228346457,
      "duration": "62i"
    },
    {
      "time": "9792i",
      "midiNote": 47,
      "noteName": "B2",
      "velocity": 0.6614173228346457,
      "duration": "62i"
    },
    {
      "time": "9856i",
      "midiNote": 47,
      "noteName": "B2",
      "velocity": 0.3543307086614173,
      "duration": "62i"
    },
    {
      "time": "9856i",
      "midiNote": 54,
      "noteName": "F#3",
      "velocity": 0.3543307086614173,
      "duration": "62i"
    },
    {
      "time": "9920i",
      "midiNote": 54,
      "noteName": "F#3",
      "velocity": 0.5669291338582677,
      "duration": "62i"
    },
    {
      "time": "9920i",
      "midiNote": 47,
      "noteName": "B2",
      "velocity": 0.5669291338582677,
      "duration": "62i"
    },
    {
      "time": "9984i",
      "midiNote": 54,
      "noteName": "F#3",
      "velocity": 1,
      "duration": "62i"
    },
    {
      "time": "9984i",
      "midiNote": 47,
      "noteName": "B2",
      "velocity": 1,
      "duration": "62i"
    },
    {
      "time": "10048i",
      "midiNote": 47,
      "noteName": "B2",
      "velocity": 0.8818897637795275,
      "duration": "62i"
    },
    {
      "time": "10112i",
      "midiNote": 47,
      "noteName": "B2",
      "velocity": 0.8031496062992126,
      "duration": "62i"
    },
    {
      "time": "10176i",
      "midiNote": 47,
      "noteName": "B2",
      "velocity": 0.6614173228346457,
      "duration": "62i"
    },
    {
      "time": "10176i",
      "midiNote": 54,
      "noteName": "F#3",
      "velocity": 0.6614173228346457,
      "duration": "62i"
    },
    {
      "time": "10304i",
      "midiNote": 54,
      "noteName": "F#3",
      "velocity": 0.5669291338582677,
      "duration": "62i"
    },
    {
      "time": "10304i",
      "midiNote": 47,
      "noteName": "B2",
      "velocity": 0.5669291338582677,
      "duration": "62i"
    },
    {
      "time": "10368i",
      "midiNote": 47,
      "noteName": "B2",
      "velocity": 0.7480314960629921,
      "duration": "62i"
    },
    {
      "time": "10368i",
      "midiNote": 54,
      "noteName": "F#3",
      "velocity": 0.7480314960629921,
      "duration": "62i"
    },
    {
      "time": "10432i",
      "midiNote": 47,
      "noteName": "B2",
      "velocity": 0.984251968503937,
      "duration": "62i"
    },
    {
      "time": "10496i",
      "midiNote": 47,
      "noteName": "B2",
      "velocity": 0.7244094488188977,
      "duration": "62i"
    },
    {
      "time": "10560i",
      "midiNote": 54,
      "noteName": "F#3",
      "velocity": 1,
      "duration": "62i"
    },
    {
      "time": "10560i",
      "midiNote": 47,
      "noteName": "B2",
      "velocity": 1,
      "duration": "62i"
    },
    {
      "time": "10624i",
      "midiNote": 47,
      "noteName": "B2",
      "velocity": 0.7480314960629921,
      "duration": "62i"
    },
    {
      "time": "10688i",
      "midiNote": 47,
      "noteName": "B2",
      "velocity": 0.5669291338582677,
      "duration": "62i"
    },
    {
      "time": "10688i",
      "midiNote": 54,
      "noteName": "F#3",
      "velocity": 0.5669291338582677,
      "duration": "62i"
    },
    {
      "time": "10752i",
      "midiNote": 54,
      "noteName": "F#3",
      "velocity": 1,
      "duration": "62i"
    },
    {
      "time": "10752i",
      "midiNote": 40,
      "noteName": "E2",
      "velocity": 1,
      "duration": "62i"
    },
    {
      "time": "10816i",
      "midiNote": 40,
      "noteName": "E2",
      "velocity": 0.8818897637795275,
      "duration": "62i"
    },
    {
      "time": "10880i",
      "midiNote": 40,
      "noteName": "E2",
      "velocity": 0.8031496062992126,
      "duration": "62i"
    },
    {
      "time": "10944i",
      "midiNote": 54,
      "noteName": "F#3",
      "velocity": 0.6614173228346457,
      "duration": "62i"
    },
    {
      "time": "10944i",
      "midiNote": 40,
      "noteName": "E2",
      "velocity": 0.6614173228346457,
      "duration": "62i"
    },
    {
      "time": "11072i",
      "midiNote": 54,
      "noteName": "F#3",
      "velocity": 0.5669291338582677,
      "duration": "62i"
    },
    {
      "time": "11072i",
      "midiNote": 40,
      "noteName": "E2",
      "velocity": 0.5669291338582677,
      "duration": "62i"
    },
    {
      "time": "11136i",
      "midiNote": 54,
      "noteName": "F#3",
      "velocity": 1,
      "duration": "62i"
    },
    {
      "time": "11136i",
      "midiNote": 40,
      "noteName": "E2",
      "velocity": 1,
      "duration": "62i"
    },
    {
      "time": "11200i",
      "midiNote": 40,
      "noteName": "E2",
      "velocity": 0.8818897637795275,
      "duration": "62i"
    },
    {
      "time": "11264i",
      "midiNote": 40,
      "noteName": "E2",
      "velocity": 0.8031496062992126,
      "duration": "62i"
    },
    {
      "time": "11328i",
      "midiNote": 40,
      "noteName": "E2",
      "velocity": 0.6614173228346457,
      "duration": "62i"
    },
    {
      "time": "11328i",
      "midiNote": 54,
      "noteName": "F#3",
      "velocity": 0.6614173228346457,
      "duration": "62i"
    },
    {
      "time": "11392i",
      "midiNote": 54,
      "noteName": "F#3",
      "velocity": 0.3543307086614173,
      "duration": "62i"
    },
    {
      "time": "11392i",
      "midiNote": 40,
      "noteName": "E2",
      "velocity": 0.3543307086614173,
      "duration": "62i"
    },
    {
      "time": "11456i",
      "midiNote": 40,
      "noteName": "E2",
      "velocity": 0.5669291338582677,
      "duration": "62i"
    },
    {
      "time": "11456i",
      "midiNote": 54,
      "noteName": "F#3",
      "velocity": 0.5669291338582677,
      "duration": "62i"
    },
    {
      "time": "11520i",
      "midiNote": 40,
      "noteName": "E2",
      "velocity": 1,
      "duration": "62i"
    },
    {
      "time": "11520i",
      "midiNote": 54,
      "noteName": "F#3",
      "velocity": 1,
      "duration": "62i"
    },
    {
      "time": "11584i",
      "midiNote": 40,
      "noteName": "E2",
      "velocity": 0.8818897637795275,
      "duration": "62i"
    },
    {
      "time": "11648i",
      "midiNote": 40,
      "noteName": "E2",
      "velocity": 0.8031496062992126,
      "duration": "62i"
    },
    {
      "time": "11712i",
      "midiNote": 54,
      "noteName": "F#3",
      "velocity": 0.6614173228346457,
      "duration": "62i"
    },
    {
      "time": "11712i",
      "midiNote": 40,
      "noteName": "E2",
      "velocity": 0.6614173228346457,
      "duration": "62i"
    },
    {
      "time": "11840i",
      "midiNote": 40,
      "noteName": "E2",
      "velocity": 0.5669291338582677,
      "duration": "62i"
    },
    {
      "time": "11840i",
      "midiNote": 54,
      "noteName": "F#3",
      "velocity": 0.5669291338582677,
      "duration": "62i"
    },
    {
      "time": "11904i",
      "midiNote": 40,
      "noteName": "E2",
      "velocity": 0.7874015748031497,
      "duration": "62i"
    },
    {
      "time": "11904i",
      "midiNote": 54,
      "noteName": "F#3",
      "velocity": 0.7874015748031497,
      "duration": "62i"
    },
    {
      "time": "11960i",
      "midiNote": 67,
      "noteName": "G4",
      "velocity": 0.5826771653543307,
      "duration": "6i"
    },
    {
      "time": "11960i",
      "midiNote": 61,
      "noteName": "C#4",
      "velocity": 0.5826771653543307,
      "duration": "6i"
    },
    {
      "time": "11968i",
      "midiNote": 40,
      "noteName": "E2",
      "velocity": 1,
      "duration": "62i"
    },
    {
      "time": "11968i",
      "midiNote": 61,
      "noteName": "C#4",
      "velocity": 1,
      "duration": "62i"
    },
    {
      "time": "11968i",
      "midiNote": 67,
      "noteName": "G4",
      "velocity": 1,
      "duration": "62i"
    },
    {
      "time": "12032i",
      "midiNote": 40,
      "noteName": "E2",
      "velocity": 0.6771653543307087,
      "duration": "62i"
    },
    {
      "time": "12096i",
      "midiNote": 40,
      "noteName": "E2",
      "velocity": 1,
      "duration": "62i"
    },
    {
      "time": "12096i",
      "midiNote": 54,
      "noteName": "F#3",
      "velocity": 1,
      "duration": "62i"
    },
    {
      "time": "12096i",
      "midiNote": 61,
      "noteName": "C#4",
      "velocity": 0.984251968503937,
      "duration": "62i"
    },
    {
      "time": "12096i",
      "midiNote": 67,
      "noteName": "G4",
      "velocity": 1,
      "duration": "62i"
    },
    {
      "time": "12160i",
      "midiNote": 54,
      "noteName": "F#3",
      "velocity": 0.6771653543307087,
      "duration": "62i"
    },
    {
      "time": "12160i",
      "midiNote": 40,
      "noteName": "E2",
      "velocity": 0.6771653543307087,
      "duration": "62i"
    },
    {
      "time": "12224i",
      "midiNote": 40,
      "noteName": "E2",
      "velocity": 0.984251968503937,
      "duration": "62i"
    },
    {
      "time": "12224i",
      "midiNote": 54,
      "noteName": "F#3",
      "velocity": 0.984251968503937,
      "duration": "62i"
    },
    {
      "time": "12224i",
      "midiNote": 61,
      "noteName": "C#4",
      "velocity": 0.984251968503937,
      "duration": "62i"
    },
    {
      "time": "12224i",
      "midiNote": 67,
      "noteName": "G4",
      "velocity": 1,
      "duration": "62i"
    },
    {
      "time": "12288i",
      "midiNote": 54,
      "noteName": "F#3",
      "velocity": 1,
      "duration": "62i"
    },
    {
      "time": "12288i",
      "midiNote": 47,
      "noteName": "B2",
      "velocity": 1,
      "duration": "62i"
    },
    {
      "time": "12352i",
      "midiNote": 47,
      "noteName": "B2",
      "velocity": 0.8818897637795275,
      "duration": "62i"
    },
    {
      "time": "12416i",
      "midiNote": 47,
      "noteName": "B2",
      "velocity": 0.8031496062992126,
      "duration": "62i"
    },
    {
      "time": "12480i",
      "midiNote": 54,
      "noteName": "F#3",
      "velocity": 0.6614173228346457,
      "duration": "62i"
    },
    {
      "time": "12480i",
      "midiNote": 47,
      "noteName": "B2",
      "velocity": 0.6614173228346457,
      "duration": "62i"
    },
    {
      "time": "12608i",
      "midiNote": 54,
      "noteName": "F#3",
      "velocity": 0.5669291338582677,
      "duration": "62i"
    },
    {
      "time": "12608i",
      "midiNote": 47,
      "noteName": "B2",
      "velocity": 0.5669291338582677,
      "duration": "62i"
    },
    {
      "time": "12672i",
      "midiNote": 54,
      "noteName": "F#3",
      "velocity": 1,
      "duration": "62i"
    },
    {
      "time": "12672i",
      "midiNote": 47,
      "noteName": "B2",
      "velocity": 1,
      "duration": "62i"
    },
    {
      "time": "12736i",
      "midiNote": 47,
      "noteName": "B2",
      "velocity": 0.8818897637795275,
      "duration": "62i"
    },
    {
      "time": "12800i",
      "midiNote": 47,
      "noteName": "B2",
      "velocity": 0.8031496062992126,
      "duration": "62i"
    },
    {
      "time": "12864i",
      "midiNote": 54,
      "noteName": "F#3",
      "velocity": 0.6614173228346457,
      "duration": "62i"
    },
    {
      "time": "12864i",
      "midiNote": 47,
      "noteName": "B2",
      "velocity": 0.6614173228346457,
      "duration": "62i"
    },
    {
      "time": "12928i",
      "midiNote": 47,
      "noteName": "B2",
      "velocity": 0.3543307086614173,
      "duration": "62i"
    },
    {
      "time": "12928i",
      "midiNote": 54,
      "noteName": "F#3",
      "velocity": 0.3543307086614173,
      "duration": "62i"
    },
    {
      "time": "12992i",
      "midiNote": 54,
      "noteName": "F#3",
      "velocity": 0.5669291338582677,
      "duration": "62i"
    },
    {
      "time": "12992i",
      "midiNote": 47,
      "noteName": "B2",
      "velocity": 0.5669291338582677,
      "duration": "62i"
    },
    {
      "time": "13056i",
      "midiNote": 54,
      "noteName": "F#3",
      "velocity": 1,
      "duration": "62i"
    },
    {
      "time": "13056i",
      "midiNote": 47,
      "noteName": "B2",
      "velocity": 1,
      "duration": "62i"
    },
    {
      "time": "13120i",
      "midiNote": 47,
      "noteName": "B2",
      "velocity": 0.8818897637795275,
      "duration": "62i"
    },
    {
      "time": "13184i",
      "midiNote": 47,
      "noteName": "B2",
      "velocity": 0.8031496062992126,
      "duration": "62i"
    },
    {
      "time": "13248i",
      "midiNote": 47,
      "noteName": "B2",
      "velocity": 0.6614173228346457,
      "duration": "62i"
    },
    {
      "time": "13248i",
      "midiNote": 54,
      "noteName": "F#3",
      "velocity": 0.6614173228346457,
      "duration": "62i"
    },
    {
      "time": "13376i",
      "midiNote": 54,
      "noteName": "F#3",
      "velocity": 0.5669291338582677,
      "duration": "62i"
    },
    {
      "time": "13376i",
      "midiNote": 47,
      "noteName": "B2",
      "velocity": 0.5669291338582677,
      "duration": "62i"
    },
    {
      "time": "13440i",
      "midiNote": 47,
      "noteName": "B2",
      "velocity": 0.7480314960629921,
      "duration": "62i"
    },
    {
      "time": "13440i",
      "midiNote": 54,
      "noteName": "F#3",
      "velocity": 0.7480314960629921,
      "duration": "62i"
    },
    {
      "time": "13504i",
      "midiNote": 47,
      "noteName": "B2",
      "velocity": 0.984251968503937,
      "duration": "62i"
    },
    {
      "time": "13568i",
      "midiNote": 47,
      "noteName": "B2",
      "velocity": 0.7244094488188977,
      "duration": "62i"
    },
    {
      "time": "13632i",
      "midiNote": 54,
      "noteName": "F#3",
      "velocity": 1,
      "duration": "62i"
    },
    {
      "time": "13632i",
      "midiNote": 47,
      "noteName": "B2",
      "velocity": 1,
      "duration": "62i"
    },
    {
      "time": "13696i",
      "midiNote": 47,
      "noteName": "B2",
      "velocity": 0.7480314960629921,
      "duration": "62i"
    },
    {
      "time": "13760i",
      "midiNote": 47,
      "noteName": "B2",
      "velocity": 0.5669291338582677,
      "duration": "62i"
    },
    {
      "time": "13760i",
      "midiNote": 54,
      "noteName": "F#3",
      "velocity": 0.5669291338582677,
      "duration": "62i"
    },
    {
      "time": "13824i",
      "midiNote": 54,
      "noteName": "F#3",
      "velocity": 1,
      "duration": "62i"
    },
    {
      "time": "13824i",
      "midiNote": 40,
      "noteName": "E2",
      "velocity": 1,
      "duration": "62i"
    },
    {
      "time": "13888i",
      "midiNote": 40,
      "noteName": "E2",
      "velocity": 0.8818897637795275,
      "duration": "62i"
    },
    {
      "time": "13952i",
      "midiNote": 40,
      "noteName": "E2",
      "velocity": 0.8031496062992126,
      "duration": "62i"
    },
    {
      "time": "14016i",
      "midiNote": 54,
      "noteName": "F#3",
      "velocity": 0.6614173228346457,
      "duration": "62i"
    },
    {
      "time": "14016i",
      "midiNote": 40,
      "noteName": "E2",
      "velocity": 0.6614173228346457,
      "duration": "62i"
    },
    {
      "time": "14144i",
      "midiNote": 54,
      "noteName": "F#3",
      "velocity": 0.5669291338582677,
      "duration": "62i"
    },
    {
      "time": "14144i",
      "midiNote": 40,
      "noteName": "E2",
      "velocity": 0.5669291338582677,
      "duration": "62i"
    },
    {
      "time": "14208i",
      "midiNote": 54,
      "noteName": "F#3",
      "velocity": 1,
      "duration": "62i"
    },
    {
      "time": "14208i",
      "midiNote": 40,
      "noteName": "E2",
      "velocity": 1,
      "duration": "62i"
    },
    {
      "time": "14272i",
      "midiNote": 40,
      "noteName": "E2",
      "velocity": 0.8818897637795275,
      "duration": "62i"
    },
    {
      "time": "14336i",
      "midiNote": 40,
      "noteName": "E2",
      "velocity": 0.8031496062992126,
      "duration": "62i"
    },
    {
      "time": "14400i",
      "midiNote": 40,
      "noteName": "E2",
      "velocity": 0.6614173228346457,
      "duration": "62i"
    },
    {
      "time": "14400i",
      "midiNote": 54,
      "noteName": "F#3",
      "velocity": 0.6614173228346457,
      "duration": "62i"
    },
    {
      "time": "14464i",
      "midiNote": 54,
      "noteName": "F#3",
      "velocity": 0.3543307086614173,
      "duration": "62i"
    },
    {
      "time": "14464i",
      "midiNote": 40,
      "noteName": "E2",
      "velocity": 0.3543307086614173,
      "duration": "62i"
    },
    {
      "time": "14528i",
      "midiNote": 40,
      "noteName": "E2",
      "velocity": 0.5669291338582677,
      "duration": "62i"
    },
    {
      "time": "14528i",
      "midiNote": 54,
      "noteName": "F#3",
      "velocity": 0.5669291338582677,
      "duration": "62i"
    },
    {
      "time": "14592i",
      "midiNote": 40,
      "noteName": "E2",
      "velocity": 1,
      "duration": "62i"
    },
    {
      "time": "14592i",
      "midiNote": 54,
      "noteName": "F#3",
      "velocity": 1,
      "duration": "62i"
    },
    {
      "time": "14656i",
      "midiNote": 40,
      "noteName": "E2",
      "velocity": 0.8818897637795275,
      "duration": "62i"
    },
    {
      "time": "14720i",
      "midiNote": 40,
      "noteName": "E2",
      "velocity": 0.8031496062992126,
      "duration": "62i"
    },
    {
      "time": "14784i",
      "midiNote": 54,
      "noteName": "F#3",
      "velocity": 0.6614173228346457,
      "duration": "62i"
    },
    {
      "time": "14784i",
      "midiNote": 40,
      "noteName": "E2",
      "velocity": 0.6614173228346457,
      "duration": "62i"
    },
    {
      "time": "14912i",
      "midiNote": 40,
      "noteName": "E2",
      "velocity": 0.5669291338582677,
      "duration": "62i"
    },
    {
      "time": "14912i",
      "midiNote": 54,
      "noteName": "F#3",
      "velocity": 0.5669291338582677,
      "duration": "62i"
    },
    {
      "time": "14976i",
      "midiNote": 40,
      "noteName": "E2",
      "velocity": 0.7874015748031497,
      "duration": "62i"
    },
    {
      "time": "14976i",
      "midiNote": 54,
      "noteName": "F#3",
      "velocity": 0.7874015748031497,
      "duration": "62i"
    },
    {
      "time": "15032i",
      "midiNote": 67,
      "noteName": "G4",
      "velocity": 0.5826771653543307,
      "duration": "6i"
    },
    {
      "time": "15032i",
      "midiNote": 61,
      "noteName": "C#4",
      "velocity": 0.5826771653543307,
      "duration": "6i"
    },
    {
      "time": "15040i",
      "midiNote": 40,
      "noteName": "E2",
      "velocity": 1,
      "duration": "62i"
    },
    {
      "time": "15040i",
      "midiNote": 61,
      "noteName": "C#4",
      "velocity": 1,
      "duration": "62i"
    },
    {
      "time": "15040i",
      "midiNote": 67,
      "noteName": "G4",
      "velocity": 1,
      "duration": "62i"
    },
    {
      "time": "15104i",
      "midiNote": 40,
      "noteName": "E2",
      "velocity": 0.6771653543307087,
      "duration": "62i"
    },
    {
      "time": "15168i",
      "midiNote": 40,
      "noteName": "E2",
      "velocity": 1,
      "duration": "62i"
    },
    {
      "time": "15168i",
      "midiNote": 54,
      "noteName": "F#3",
      "velocity": 1,
      "duration": "62i"
    },
    {
      "time": "15168i",
      "midiNote": 61,
      "noteName": "C#4",
      "velocity": 0.984251968503937,
      "duration": "62i"
    },
    {
      "time": "15168i",
      "midiNote": 67,
      "noteName": "G4",
      "velocity": 1,
      "duration": "62i"
    },
    {
      "time": "15232i",
      "midiNote": 54,
      "noteName": "F#3",
      "velocity": 0.6771653543307087,
      "duration": "62i"
    },
    {
      "time": "15232i",
      "midiNote": 40,
      "noteName": "E2",
      "velocity": 0.6771653543307087,
      "duration": "62i"
    },
    {
      "time": "15296i",
      "midiNote": 40,
      "noteName": "E2",
      "velocity": 0.984251968503937,
      "duration": "62i"
    },
    {
      "time": "15296i",
      "midiNote": 54,
      "noteName": "F#3",
      "velocity": 0.984251968503937,
      "duration": "62i"
    },
    {
      "time": "15296i",
      "midiNote": 61,
      "noteName": "C#4",
      "velocity": 0.984251968503937,
      "duration": "62i"
    },
    {
      "time": "15296i",
      "midiNote": 67,
      "noteName": "G4",
      "velocity": 1,
      "duration": "62i"
    },
    {
      "time": "15360i",
      "midiNote": 54,
      "noteName": "F#3",
      "velocity": 1,
      "duration": "62i"
    },
    {
      "time": "15360i",
      "midiNote": 47,
      "noteName": "B2",
      "velocity": 1,
      "duration": "62i"
    },
    {
      "time": "15424i",
      "midiNote": 47,
      "noteName": "B2",
      "velocity": 0.8818897637795275,
      "duration": "62i"
    },
    {
      "time": "15424i",
      "midiNote": 55,
      "noteName": "G3",
      "velocity": 0.7480314960629921,
      "duration": "14i"
    },
    {
      "time": "15456i",
      "midiNote": 56,
      "noteName": "G#3",
      "velocity": 0.6456692913385826,
      "duration": "14i"
    },
    {
      "time": "15488i",
      "midiNote": 47,
      "noteName": "B2",
      "velocity": 0.8031496062992126,
      "duration": "62i"
    },
    {
      "time": "15488i",
      "midiNote": 55,
      "noteName": "G3",
      "velocity": 0.8346456692913385,
      "duration": "14i"
    },
    {
      "time": "15552i",
      "midiNote": 54,
      "noteName": "F#3",
      "velocity": 0.6614173228346457,
      "duration": "62i"
    },
    {
      "time": "15552i",
      "midiNote": 47,
      "noteName": "B2",
      "velocity": 0.6614173228346457,
      "duration": "62i"
    },
    {
      "time": "15552i",
      "midiNote": 54,
      "noteName": "F#3",
      "velocity": 0.8818897637795275,
      "duration": "14i"
    },
    {
      "time": "15680i",
      "midiNote": 54,
      "noteName": "F#3",
      "velocity": 0.5669291338582677,
      "duration": "62i"
    },
    {
      "time": "15680i",
      "midiNote": 47,
      "noteName": "B2",
      "velocity": 0.5669291338582677,
      "duration": "62i"
    },
    {
      "time": "15680i",
      "midiNote": 54,
      "noteName": "F#3",
      "velocity": 0.6299212598425197,
      "duration": "14i"
    },
    {
      "time": "15744i",
      "midiNote": 54,
      "noteName": "F#3",
      "velocity": 1,
      "duration": "62i"
    },
    {
      "time": "15744i",
      "midiNote": 47,
      "noteName": "B2",
      "velocity": 1,
      "duration": "62i"
    },
    {
      "time": "15808i",
      "midiNote": 47,
      "noteName": "B2",
      "velocity": 0.8818897637795275,
      "duration": "62i"
    },
    {
      "time": "15808i",
      "midiNote": 55,
      "noteName": "G3",
      "velocity": 0.7480314960629921,
      "duration": "14i"
    },
    {
      "time": "15840i",
      "midiNote": 56,
      "noteName": "G#3",
      "velocity": 0.6456692913385826,
      "duration": "14i"
    },
    {
      "time": "15872i",
      "midiNote": 47,
      "noteName": "B2",
      "velocity": 0.8031496062992126,
      "duration": "62i"
    },
    {
      "time": "15872i",
      "midiNote": 55,
      "noteName": "G3",
      "velocity": 0.8346456692913385,
      "duration": "14i"
    },
    {
      "time": "15936i",
      "midiNote": 54,
      "noteName": "F#3",
      "velocity": 0.6614173228346457,
      "duration": "62i"
    },
    {
      "time": "15936i",
      "midiNote": 47,
      "noteName": "B2",
      "velocity": 0.6614173228346457,
      "duration": "62i"
    },
    {
      "time": "15936i",
      "midiNote": 54,
      "noteName": "F#3",
      "velocity": 0.8818897637795275,
      "duration": "14i"
    },
    {
      "time": "16000i",
      "midiNote": 47,
      "noteName": "B2",
      "velocity": 0.3543307086614173,
      "duration": "62i"
    },
    {
      "time": "16000i",
      "midiNote": 54,
      "noteName": "F#3",
      "velocity": 0.3543307086614173,
      "duration": "62i"
    },
    {
      "time": "16064i",
      "midiNote": 54,
      "noteName": "F#3",
      "velocity": 0.5669291338582677,
      "duration": "62i"
    },
    {
      "time": "16064i",
      "midiNote": 47,
      "noteName": "B2",
      "velocity": 0.5669291338582677,
      "duration": "62i"
    },
    {
      "time": "16064i",
      "midiNote": 54,
      "noteName": "F#3",
      "velocity": 0.6299212598425197,
      "duration": "14i"
    },
    {
      "time": "16128i",
      "midiNote": 54,
      "noteName": "F#3",
      "velocity": 1,
      "duration": "62i"
    },
    {
      "time": "16128i",
      "midiNote": 47,
      "noteName": "B2",
      "velocity": 1,
      "duration": "62i"
    },
    {
      "time": "16192i",
      "midiNote": 47,
      "noteName": "B2",
      "velocity": 0.8818897637795275,
      "duration": "62i"
    },
    {
      "time": "16192i",
      "midiNote": 55,
      "noteName": "G3",
      "velocity": 0.7480314960629921,
      "duration": "14i"
    },
    {
      "time": "16224i",
      "midiNote": 56,
      "noteName": "G#3",
      "velocity": 0.6456692913385826,
      "duration": "14i"
    },
    {
      "time": "16256i",
      "midiNote": 47,
      "noteName": "B2",
      "velocity": 0.8031496062992126,
      "duration": "62i"
    },
    {
      "time": "16256i",
      "midiNote": 55,
      "noteName": "G3",
      "velocity": 0.8346456692913385,
      "duration": "14i"
    },
    {
      "time": "16320i",
      "midiNote": 47,
      "noteName": "B2",
      "velocity": 0.6614173228346457,
      "duration": "62i"
    },
    {
      "time": "16320i",
      "midiNote": 54,
      "noteName": "F#3",
      "velocity": 0.6614173228346457,
      "duration": "62i"
    },
    {
      "time": "16320i",
      "midiNote": 54,
      "noteName": "F#3",
      "velocity": 0.8818897637795275,
      "duration": "14i"
    },
    {
      "time": "16448i",
      "midiNote": 54,
      "noteName": "F#3",
      "velocity": 0.5669291338582677,
      "duration": "62i"
    },
    {
      "time": "16448i",
      "midiNote": 47,
      "noteName": "B2",
      "velocity": 0.5669291338582677,
      "duration": "62i"
    },
    {
      "time": "16448i",
      "midiNote": 54,
      "noteName": "F#3",
      "velocity": 0.6299212598425197,
      "duration": "14i"
    },
    {
      "time": "16512i",
      "midiNote": 47,
      "noteName": "B2",
      "velocity": 0.7480314960629921,
      "duration": "62i"
    },
    {
      "time": "16512i",
      "midiNote": 54,
      "noteName": "F#3",
      "velocity": 0.7480314960629921,
      "duration": "62i"
    },
    {
      "time": "16576i",
      "midiNote": 47,
      "noteName": "B2",
      "velocity": 0.984251968503937,
      "duration": "62i"
    },
    {
      "time": "16576i",
      "midiNote": 55,
      "noteName": "G3",
      "velocity": 0.7480314960629921,
      "duration": "14i"
    },
    {
      "time": "16608i",
      "midiNote": 56,
      "noteName": "G#3",
      "velocity": 0.6456692913385826,
      "duration": "14i"
    },
    {
      "time": "16640i",
      "midiNote": 47,
      "noteName": "B2",
      "velocity": 0.7244094488188977,
      "duration": "62i"
    },
    {
      "time": "16640i",
      "midiNote": 55,
      "noteName": "G3",
      "velocity": 0.8346456692913385,
      "duration": "14i"
    },
    {
      "time": "16704i",
      "midiNote": 54,
      "noteName": "F#3",
      "velocity": 1,
      "duration": "62i"
    },
    {
      "time": "16704i",
      "midiNote": 47,
      "noteName": "B2",
      "velocity": 1,
      "duration": "62i"
    },
    {
      "time": "16704i",
      "midiNote": 54,
      "noteName": "F#3",
      "velocity": 0.8818897637795275,
      "duration": "14i"
    },
    {
      "time": "16768i",
      "midiNote": 47,
      "noteName": "B2",
      "velocity": 0.7480314960629921,
      "duration": "62i"
    },
    {
      "time": "16832i",
      "midiNote": 54,
      "noteName": "F#3",
      "velocity": 0.6299212598425197,
      "duration": "62i"
    },
    {
      "time": "16832i",
      "midiNote": 47,
      "noteName": "B2",
      "velocity": 0.5669291338582677,
      "duration": "62i"
    },
    {
      "time": "16832i",
      "midiNote": 54,
      "noteName": "F#3",
      "velocity": 0.5669291338582677,
      "duration": "14i"
    },
    {
      "time": "16896i",
      "midiNote": 54,
      "noteName": "F#3",
      "velocity": 1,
      "duration": "62i"
    },
    {
      "time": "16896i",
      "midiNote": 40,
      "noteName": "E2",
      "velocity": 1,
      "duration": "62i"
    },
    {
      "time": "16960i",
      "midiNote": 55,
      "noteName": "G3",
      "velocity": 0.7480314960629921,
      "duration": "14i"
    },
    {
      "time": "16960i",
      "midiNote": 40,
      "noteName": "E2",
      "velocity": 0.8818897637795275,
      "duration": "62i"
    },
    {
      "time": "16992i",
      "midiNote": 56,
      "noteName": "G#3",
      "velocity": 0.6456692913385826,
      "duration": "14i"
    },
    {
      "time": "17024i",
      "midiNote": 55,
      "noteName": "G3",
      "velocity": 0.8346456692913385,
      "duration": "14i"
    },
    {
      "time": "17024i",
      "midiNote": 40,
      "noteName": "E2",
      "velocity": 0.8031496062992126,
      "duration": "62i"
    },
    {
      "time": "17088i",
      "midiNote": 54,
      "noteName": "F#3",
      "velocity": 0.8818897637795275,
      "duration": "62i"
    },
    {
      "time": "17088i",
      "midiNote": 54,
      "noteName": "F#3",
      "velocity": 0.6614173228346457,
      "duration": "14i"
    },
    {
      "time": "17088i",
      "midiNote": 40,
      "noteName": "E2",
      "velocity": 0.6614173228346457,
      "duration": "62i"
    },
    {
      "time": "17216i",
      "midiNote": 54,
      "noteName": "F#3",
      "velocity": 0.6299212598425197,
      "duration": "62i"
    },
    {
      "time": "17216i",
      "midiNote": 54,
      "noteName": "F#3",
      "velocity": 0.5669291338582677,
      "duration": "14i"
    },
    {
      "time": "17216i",
      "midiNote": 40,
      "noteName": "E2",
      "velocity": 0.5669291338582677,
      "duration": "62i"
    },
    {
      "time": "17280i",
      "midiNote": 54,
      "noteName": "F#3",
      "velocity": 1,
      "duration": "62i"
    },
    {
      "time": "17280i",
      "midiNote": 40,
      "noteName": "E2",
      "velocity": 1,
      "duration": "62i"
    },
    {
      "time": "17344i",
      "midiNote": 55,
      "noteName": "G3",
      "velocity": 0.7480314960629921,
      "duration": "14i"
    },
    {
      "time": "17344i",
      "midiNote": 40,
      "noteName": "E2",
      "velocity": 0.8818897637795275,
      "duration": "62i"
    },
    {
      "time": "17376i",
      "midiNote": 56,
      "noteName": "G#3",
      "velocity": 0.6456692913385826,
      "duration": "14i"
    },
    {
      "time": "17408i",
      "midiNote": 55,
      "noteName": "G3",
      "velocity": 0.8346456692913385,
      "duration": "14i"
    },
    {
      "time": "17408i",
      "midiNote": 40,
      "noteName": "E2",
      "velocity": 0.8031496062992126,
      "duration": "62i"
    },
    {
      "time": "17472i",
      "midiNote": 54,
      "noteName": "F#3",
      "velocity": 0.8818897637795275,
      "duration": "62i"
    },
    {
      "time": "17472i",
      "midiNote": 40,
      "noteName": "E2",
      "velocity": 0.6614173228346457,
      "duration": "62i"
    },
    {
      "time": "17472i",
      "midiNote": 54,
      "noteName": "F#3",
      "velocity": 0.6614173228346457,
      "duration": "14i"
    },
    {
      "time": "17536i",
      "midiNote": 54,
      "noteName": "F#3",
      "velocity": 0.3543307086614173,
      "duration": "62i"
    },
    {
      "time": "17536i",
      "midiNote": 40,
      "noteName": "E2",
      "velocity": 0.3543307086614173,
      "duration": "62i"
    },
    {
      "time": "17600i",
      "midiNote": 54,
      "noteName": "F#3",
      "velocity": 0.6299212598425197,
      "duration": "62i"
    },
    {
      "time": "17600i",
      "midiNote": 40,
      "noteName": "E2",
      "velocity": 0.5669291338582677,
      "duration": "62i"
    },
    {
      "time": "17600i",
      "midiNote": 54,
      "noteName": "F#3",
      "velocity": 0.5669291338582677,
      "duration": "14i"
    },
    {
      "time": "17664i",
      "midiNote": 40,
      "noteName": "E2",
      "velocity": 1,
      "duration": "62i"
    },
    {
      "time": "17664i",
      "midiNote": 54,
      "noteName": "F#3",
      "velocity": 1,
      "duration": "62i"
    },
    {
      "time": "17728i",
      "midiNote": 40,
      "noteName": "E2",
      "velocity": 0.8818897637795275,
      "duration": "62i"
    },
    {
      "time": "17728i",
      "midiNote": 55,
      "noteName": "G3",
      "velocity": 0.7480314960629921,
      "duration": "14i"
    },
    {
      "time": "17760i",
      "midiNote": 56,
      "noteName": "G#3",
      "velocity": 0.6456692913385826,
      "duration": "14i"
    },
    {
      "time": "17792i",
      "midiNote": 40,
      "noteName": "E2",
      "velocity": 0.8031496062992126,
      "duration": "62i"
    },
    {
      "time": "17792i",
      "midiNote": 55,
      "noteName": "G3",
      "velocity": 0.8346456692913385,
      "duration": "14i"
    },
    {
      "time": "17856i",
      "midiNote": 54,
      "noteName": "F#3",
      "velocity": 0.6614173228346457,
      "duration": "62i"
    },
    {
      "time": "17856i",
      "midiNote": 40,
      "noteName": "E2",
      "velocity": 0.6614173228346457,
      "duration": "62i"
    },
    {
      "time": "17856i",
      "midiNote": 54,
      "noteName": "F#3",
      "velocity": 0.8818897637795275,
      "duration": "14i"
    },
    {
      "time": "17984i",
      "midiNote": 40,
      "noteName": "E2",
      "velocity": 0.5669291338582677,
      "duration": "62i"
    },
    {
      "time": "17984i",
      "midiNote": 54,
      "noteName": "F#3",
      "velocity": 0.5669291338582677,
      "duration": "62i"
    },
    {
      "time": "17984i",
      "midiNote": 54,
      "noteName": "F#3",
      "velocity": 0.6299212598425197,
      "duration": "14i"
    },
    {
      "time": "18048i",
      "midiNote": 40,
      "noteName": "E2",
      "velocity": 0.7874015748031497,
      "duration": "62i"
    },
    {
      "time": "18048i",
      "midiNote": 54,
      "noteName": "F#3",
      "velocity": 0.7874015748031497,
      "duration": "62i"
    },
    {
      "time": "18104i",
      "midiNote": 67,
      "noteName": "G4",
      "velocity": 0.5826771653543307,
      "duration": "6i"
    },
    {
      "time": "18104i",
      "midiNote": 61,
      "noteName": "C#4",
      "velocity": 0.5826771653543307,
      "duration": "6i"
    },
    {
      "time": "18112i",
      "midiNote": 40,
      "noteName": "E2",
      "velocity": 1,
      "duration": "62i"
    },
    {
      "time": "18112i",
      "midiNote": 61,
      "noteName": "C#4",
      "velocity": 1,
      "duration": "62i"
    },
    {
      "time": "18112i",
      "midiNote": 67,
      "noteName": "G4",
      "velocity": 1,
      "duration": "62i"
    },
    {
      "time": "18112i",
      "midiNote": 55,
      "noteName": "G3",
      "velocity": 0.7480314960629921,
      "duration": "14i"
    },
    {
      "time": "18144i",
      "midiNote": 56,
      "noteName": "G#3",
      "velocity": 0.6456692913385826,
      "duration": "14i"
    },
    {
      "time": "18176i",
      "midiNote": 40,
      "noteName": "E2",
      "velocity": 0.6771653543307087,
      "duration": "62i"
    },
    {
      "time": "18176i",
      "midiNote": 55,
      "noteName": "G3",
      "velocity": 0.8346456692913385,
      "duration": "14i"
    },
    {
      "time": "18240i",
      "midiNote": 40,
      "noteName": "E2",
      "velocity": 1,
      "duration": "62i"
    },
    {
      "time": "18240i",
      "midiNote": 54,
      "noteName": "F#3",
      "velocity": 1,
      "duration": "62i"
    },
    {
      "time": "18240i",
      "midiNote": 61,
      "noteName": "C#4",
      "velocity": 0.984251968503937,
      "duration": "62i"
    },
    {
      "time": "18240i",
      "midiNote": 67,
      "noteName": "G4",
      "velocity": 1,
      "duration": "62i"
    },
    {
      "time": "18240i",
      "midiNote": 54,
      "noteName": "F#3",
      "velocity": 0.8818897637795275,
      "duration": "14i"
    },
    {
      "time": "18304i",
      "midiNote": 54,
      "noteName": "F#3",
      "velocity": 0.6771653543307087,
      "duration": "62i"
    },
    {
      "time": "18304i",
      "midiNote": 40,
      "noteName": "E2",
      "velocity": 0.6771653543307087,
      "duration": "62i"
    },
    {
      "time": "18368i",
      "midiNote": 40,
      "noteName": "E2",
      "velocity": 0.984251968503937,
      "duration": "62i"
    },
    {
      "time": "18368i",
      "midiNote": 54,
      "noteName": "F#3",
      "velocity": 0.984251968503937,
      "duration": "62i"
    },
    {
      "time": "18368i",
      "midiNote": 61,
      "noteName": "C#4",
      "velocity": 0.984251968503937,
      "duration": "62i"
    },
    {
      "time": "18368i",
      "midiNote": 67,
      "noteName": "G4",
      "velocity": 1,
      "duration": "62i"
    },
    {
      "time": "18368i",
      "midiNote": 54,
      "noteName": "F#3",
      "velocity": 0.6299212598425197,
      "duration": "14i"
    },
    {
      "time": "18432i",
      "midiNote": 54,
      "noteName": "F#3",
      "velocity": 1,
      "duration": "62i"
    },
    {
      "time": "18432i",
      "midiNote": 40,
      "noteName": "E2",
      "velocity": 1,
      "duration": "62i"
    },
    {
      "time": "18496i",
      "midiNote": 55,
      "noteName": "G3",
      "velocity": 0.7480314960629921,
      "duration": "14i"
    },
    {
      "time": "18496i",
      "midiNote": 40,
      "noteName": "E2",
      "velocity": 0.8818897637795275,
      "duration": "62i"
    },
    {
      "time": "18528i",
      "midiNote": 56,
      "noteName": "G#3",
      "velocity": 0.6456692913385826,
      "duration": "14i"
    },
    {
      "time": "18560i",
      "midiNote": 55,
      "noteName": "G3",
      "velocity": 0.8346456692913385,
      "duration": "14i"
    },
    {
      "time": "18560i",
      "midiNote": 40,
      "noteName": "E2",
      "velocity": 0.8031496062992126,
      "duration": "62i"
    },
    {
      "time": "18624i",
      "midiNote": 54,
      "noteName": "F#3",
      "velocity": 0.8818897637795275,
      "duration": "62i"
    },
    {
      "time": "18624i",
      "midiNote": 54,
      "noteName": "F#3",
      "velocity": 0.6614173228346457,
      "duration": "14i"
    },
    {
      "time": "18624i",
      "midiNote": 40,
      "noteName": "E2",
      "velocity": 0.6614173228346457,
      "duration": "62i"
    },
    {
      "time": "18752i",
      "midiNote": 54,
      "noteName": "F#3",
      "velocity": 0.6299212598425197,
      "duration": "62i"
    },
    {
      "time": "18752i",
      "midiNote": 54,
      "noteName": "F#3",
      "velocity": 0.5669291338582677,
      "duration": "14i"
    },
    {
      "time": "18752i",
      "midiNote": 40,
      "noteName": "E2",
      "velocity": 0.5669291338582677,
      "duration": "62i"
    },
    {
      "time": "18816i",
      "midiNote": 54,
      "noteName": "F#3",
      "velocity": 1,
      "duration": "62i"
    },
    {
      "time": "18816i",
      "midiNote": 40,
      "noteName": "E2",
      "velocity": 1,
      "duration": "62i"
    },
    {
      "time": "18880i",
      "midiNote": 55,
      "noteName": "G3",
      "velocity": 0.7480314960629921,
      "duration": "14i"
    },
    {
      "time": "18880i",
      "midiNote": 40,
      "noteName": "E2",
      "velocity": 0.8818897637795275,
      "duration": "62i"
    },
    {
      "time": "18912i",
      "midiNote": 56,
      "noteName": "G#3",
      "velocity": 0.6456692913385826,
      "duration": "14i"
    },
    {
      "time": "18944i",
      "midiNote": 55,
      "noteName": "G3",
      "velocity": 0.8346456692913385,
      "duration": "14i"
    },
    {
      "time": "18944i",
      "midiNote": 40,
      "noteName": "E2",
      "velocity": 0.8031496062992126,
      "duration": "62i"
    },
    {
      "time": "19008i",
      "midiNote": 54,
      "noteName": "F#3",
      "velocity": 0.8818897637795275,
      "duration": "62i"
    },
    {
      "time": "19008i",
      "midiNote": 40,
      "noteName": "E2",
      "velocity": 0.6614173228346457,
      "duration": "62i"
    },
    {
      "time": "19008i",
      "midiNote": 54,
      "noteName": "F#3",
      "velocity": 0.6614173228346457,
      "duration": "14i"
    },
    {
      "time": "19072i",
      "midiNote": 54,
      "noteName": "F#3",
      "velocity": 0.3543307086614173,
      "duration": "62i"
    },
    {
      "time": "19072i",
      "midiNote": 40,
      "noteName": "E2",
      "velocity": 0.3543307086614173,
      "duration": "62i"
    },
    {
      "time": "19136i",
      "midiNote": 54,
      "noteName": "F#3",
      "velocity": 0.6299212598425197,
      "duration": "62i"
    },
    {
      "time": "19136i",
      "midiNote": 40,
      "noteName": "E2",
      "velocity": 0.5669291338582677,
      "duration": "62i"
    },
    {
      "time": "19136i",
      "midiNote": 54,
      "noteName": "F#3",
      "velocity": 0.5669291338582677,
      "duration": "14i"
    },
    {
      "time": "19200i",
      "midiNote": 40,
      "noteName": "E2",
      "velocity": 1,
      "duration": "62i"
    },
    {
      "time": "19200i",
      "midiNote": 54,
      "noteName": "F#3",
      "velocity": 1,
      "duration": "62i"
    },
    {
      "time": "19264i",
      "midiNote": 55,
      "noteName": "G3",
      "velocity": 0.7480314960629921,
      "duration": "14i"
    },
    {
      "time": "19264i",
      "midiNote": 40,
      "noteName": "E2",
      "velocity": 0.8818897637795275,
      "duration": "62i"
    },
    {
      "time": "19296i",
      "midiNote": 56,
      "noteName": "G#3",
      "velocity": 0.6456692913385826,
      "duration": "14i"
    },
    {
      "time": "19328i",
      "midiNote": 55,
      "noteName": "G3",
      "velocity": 0.8346456692913385,
      "duration": "14i"
    },
    {
      "time": "19328i",
      "midiNote": 40,
      "noteName": "E2",
      "velocity": 0.8031496062992126,
      "duration": "62i"
    },
    {
      "time": "19392i",
      "midiNote": 54,
      "noteName": "F#3",
      "velocity": 0.8818897637795275,
      "duration": "62i"
    },
    {
      "time": "19392i",
      "midiNote": 54,
      "noteName": "F#3",
      "velocity": 0.6614173228346457,
      "duration": "14i"
    },
    {
      "time": "19392i",
      "midiNote": 40,
      "noteName": "E2",
      "velocity": 0.6614173228346457,
      "duration": "62i"
    },
    {
      "time": "19520i",
      "midiNote": 54,
      "noteName": "F#3",
      "velocity": 0.6299212598425197,
      "duration": "62i"
    },
    {
      "time": "19520i",
      "midiNote": 40,
      "noteName": "E2",
      "velocity": 0.5669291338582677,
      "duration": "62i"
    },
    {
      "time": "19520i",
      "midiNote": 54,
      "noteName": "F#3",
      "velocity": 0.5669291338582677,
      "duration": "14i"
    },
    {
      "time": "19584i",
      "midiNote": 40,
      "noteName": "E2",
      "velocity": 0.7874015748031497,
      "duration": "62i"
    },
    {
      "time": "19584i",
      "midiNote": 54,
      "noteName": "F#3",
      "velocity": 0.7874015748031497,
      "duration": "62i"
    },
    {
      "time": "19640i",
      "midiNote": 67,
      "noteName": "G4",
      "velocity": 0.5826771653543307,
      "duration": "6i"
    },
    {
      "time": "19640i",
      "midiNote": 61,
      "noteName": "C#4",
      "velocity": 0.5826771653543307,
      "duration": "6i"
    },
    {
      "time": "19648i",
      "midiNote": 55,
      "noteName": "G3",
      "velocity": 0.7480314960629921,
      "duration": "14i"
    },
    {
      "time": "19648i",
      "midiNote": 40,
      "noteName": "E2",
      "velocity": 1,
      "duration": "62i"
    },
    {
      "time": "19648i",
      "midiNote": 61,
      "noteName": "C#4",
      "velocity": 1,
      "duration": "62i"
    },
    {
      "time": "19648i",
      "midiNote": 67,
      "noteName": "G4",
      "velocity": 1,
      "duration": "62i"
    },
    {
      "time": "19680i",
      "midiNote": 56,
      "noteName": "G#3",
      "velocity": 0.6456692913385826,
      "duration": "14i"
    },
    {
      "time": "19712i",
      "midiNote": 55,
      "noteName": "G3",
      "velocity": 0.8346456692913385,
      "duration": "14i"
    },
    {
      "time": "19712i",
      "midiNote": 40,
      "noteName": "E2",
      "velocity": 0.6771653543307087,
      "duration": "62i"
    },
    {
      "time": "19776i",
      "midiNote": 54,
      "noteName": "F#3",
      "velocity": 0.8818897637795275,
      "duration": "62i"
    },
    {
      "time": "19776i",
      "midiNote": 40,
      "noteName": "E2",
      "velocity": 1,
      "duration": "62i"
    },
    {
      "time": "19776i",
      "midiNote": 54,
      "noteName": "F#3",
      "velocity": 1,
      "duration": "14i"
    },
    {
      "time": "19776i",
      "midiNote": 61,
      "noteName": "C#4",
      "velocity": 0.984251968503937,
      "duration": "62i"
    },
    {
      "time": "19776i",
      "midiNote": 67,
      "noteName": "G4",
      "velocity": 1,
      "duration": "62i"
    },
    {
      "time": "19840i",
      "midiNote": 54,
      "noteName": "F#3",
      "velocity": 0.6771653543307087,
      "duration": "62i"
    },
    {
      "time": "19840i",
      "midiNote": 40,
      "noteName": "E2",
      "velocity": 0.6771653543307087,
      "duration": "62i"
    },
    {
      "time": "19904i",
      "midiNote": 54,
      "noteName": "F#3",
      "velocity": 0.6299212598425197,
      "duration": "62i"
    },
    {
      "time": "19904i",
      "midiNote": 40,
      "noteName": "E2",
      "velocity": 0.984251968503937,
      "duration": "62i"
    },
    {
      "time": "19904i",
      "midiNote": 54,
      "noteName": "F#3",
      "velocity": 0.984251968503937,
      "duration": "14i"
    },
    {
      "time": "19904i",
      "midiNote": 61,
      "noteName": "C#4",
      "velocity": 0.984251968503937,
      "duration": "62i"
    },
    {
      "time": "19904i",
      "midiNote": 67,
      "noteName": "G4",
      "velocity": 1,
      "duration": "62i"
    },
    {
      "time": "19968i",
      "midiNote": 54,
      "noteName": "F#3",
      "velocity": 1,
      "duration": "62i"
    },
    {
      "time": "19968i",
      "midiNote": 40,
      "noteName": "E2",
      "velocity": 1,
      "duration": "62i"
    },
    {
      "time": "20032i",
      "midiNote": 55,
      "noteName": "G3",
      "velocity": 0.7480314960629921,
      "duration": "14i"
    },
    {
      "time": "20032i",
      "midiNote": 40,
      "noteName": "E2",
      "velocity": 0.8818897637795275,
      "duration": "62i"
    },
    {
      "time": "20064i",
      "midiNote": 56,
      "noteName": "G#3",
      "velocity": 0.6456692913385826,
      "duration": "14i"
    },
    {
      "time": "20096i",
      "midiNote": 55,
      "noteName": "G3",
      "velocity": 0.8346456692913385,
      "duration": "14i"
    },
    {
      "time": "20096i",
      "midiNote": 40,
      "noteName": "E2",
      "velocity": 0.8031496062992126,
      "duration": "62i"
    },
    {
      "time": "20160i",
      "midiNote": 54,
      "noteName": "F#3",
      "velocity": 0.8818897637795275,
      "duration": "62i"
    },
    {
      "time": "20160i",
      "midiNote": 54,
      "noteName": "F#3",
      "velocity": 0.6614173228346457,
      "duration": "14i"
    },
    {
      "time": "20160i",
      "midiNote": 40,
      "noteName": "E2",
      "velocity": 0.6614173228346457,
      "duration": "62i"
    },
    {
      "time": "20288i",
      "midiNote": 54,
      "noteName": "F#3",
      "velocity": 0.6299212598425197,
      "duration": "62i"
    },
    {
      "time": "20288i",
      "midiNote": 54,
      "noteName": "F#3",
      "velocity": 0.5669291338582677,
      "duration": "14i"
    },
    {
      "time": "20288i",
      "midiNote": 40,
      "noteName": "E2",
      "velocity": 0.5669291338582677,
      "duration": "62i"
    },
    {
      "time": "20352i",
      "midiNote": 54,
      "noteName": "F#3",
      "velocity": 1,
      "duration": "62i"
    },
    {
      "time": "20352i",
      "midiNote": 40,
      "noteName": "E2",
      "velocity": 1,
      "duration": "62i"
    },
    {
      "time": "20416i",
      "midiNote": 55,
      "noteName": "G3",
      "velocity": 0.7480314960629921,
      "duration": "14i"
    },
    {
      "time": "20416i",
      "midiNote": 40,
      "noteName": "E2",
      "velocity": 0.8818897637795275,
      "duration": "62i"
    },
    {
      "time": "20448i",
      "midiNote": 56,
      "noteName": "G#3",
      "velocity": 0.6456692913385826,
      "duration": "14i"
    },
    {
      "time": "20480i",
      "midiNote": 55,
      "noteName": "G3",
      "velocity": 0.8346456692913385,
      "duration": "14i"
    },
    {
      "time": "20480i",
      "midiNote": 40,
      "noteName": "E2",
      "velocity": 0.8031496062992126,
      "duration": "62i"
    },
    {
      "time": "20544i",
      "midiNote": 54,
      "noteName": "F#3",
      "velocity": 0.8818897637795275,
      "duration": "62i"
    },
    {
      "time": "20544i",
      "midiNote": 40,
      "noteName": "E2",
      "velocity": 0.6614173228346457,
      "duration": "62i"
    },
    {
      "time": "20544i",
      "midiNote": 54,
      "noteName": "F#3",
      "velocity": 0.6614173228346457,
      "duration": "14i"
    },
    {
      "time": "20608i",
      "midiNote": 54,
      "noteName": "F#3",
      "velocity": 0.3543307086614173,
      "duration": "62i"
    },
    {
      "time": "20608i",
      "midiNote": 40,
      "noteName": "E2",
      "velocity": 0.3543307086614173,
      "duration": "62i"
    },
    {
      "time": "20672i",
      "midiNote": 54,
      "noteName": "F#3",
      "velocity": 0.6299212598425197,
      "duration": "62i"
    },
    {
      "time": "20672i",
      "midiNote": 40,
      "noteName": "E2",
      "velocity": 0.5669291338582677,
      "duration": "62i"
    },
    {
      "time": "20672i",
      "midiNote": 54,
      "noteName": "F#3",
      "velocity": 0.5669291338582677,
      "duration": "14i"
    },
    {
      "time": "20736i",
      "midiNote": 40,
      "noteName": "E2",
      "velocity": 1,
      "duration": "62i"
    },
    {
      "time": "20736i",
      "midiNote": 54,
      "noteName": "F#3",
      "velocity": 1,
      "duration": "62i"
    },
    {
      "time": "20800i",
      "midiNote": 40,
      "noteName": "E2",
      "velocity": 0.8818897637795275,
      "duration": "62i"
    },
    {
      "time": "20800i",
      "midiNote": 55,
      "noteName": "G3",
      "velocity": 0.7480314960629921,
      "duration": "14i"
    },
    {
      "time": "20832i",
      "midiNote": 56,
      "noteName": "G#3",
      "velocity": 0.6456692913385826,
      "duration": "14i"
    },
    {
      "time": "20864i",
      "midiNote": 40,
      "noteName": "E2",
      "velocity": 0.8031496062992126,
      "duration": "62i"
    },
    {
      "time": "20864i",
      "midiNote": 55,
      "noteName": "G3",
      "velocity": 0.8346456692913385,
      "duration": "14i"
    },
    {
      "time": "20928i",
      "midiNote": 54,
      "noteName": "F#3",
      "velocity": 0.6614173228346457,
      "duration": "62i"
    },
    {
      "time": "20928i",
      "midiNote": 40,
      "noteName": "E2",
      "velocity": 0.6614173228346457,
      "duration": "62i"
    },
    {
      "time": "20928i",
      "midiNote": 54,
      "noteName": "F#3",
      "velocity": 0.8818897637795275,
      "duration": "14i"
    },
    {
      "time": "21056i",
      "midiNote": 40,
      "noteName": "E2",
      "velocity": 0.5669291338582677,
      "duration": "62i"
    },
    {
      "time": "21056i",
      "midiNote": 54,
      "noteName": "F#3",
      "velocity": 0.5669291338582677,
      "duration": "62i"
    },
    {
      "time": "21056i",
      "midiNote": 54,
      "noteName": "F#3",
      "velocity": 0.6299212598425197,
      "duration": "14i"
    },
    {
      "time": "21120i",
      "midiNote": 40,
      "noteName": "E2",
      "velocity": 0.7874015748031497,
      "duration": "62i"
    },
    {
      "time": "21120i",
      "midiNote": 54,
      "noteName": "F#3",
      "velocity": 0.7874015748031497,
      "duration": "62i"
    },
    {
      "time": "21176i",
      "midiNote": 67,
      "noteName": "G4",
      "velocity": 0.5826771653543307,
      "duration": "6i"
    },
    {
      "time": "21176i",
      "midiNote": 61,
      "noteName": "C#4",
      "velocity": 0.5826771653543307,
      "duration": "6i"
    },
    {
      "time": "21184i",
      "midiNote": 40,
      "noteName": "E2",
      "velocity": 1,
      "duration": "62i"
    },
    {
      "time": "21184i",
      "midiNote": 61,
      "noteName": "C#4",
      "velocity": 1,
      "duration": "62i"
    },
    {
      "time": "21184i",
      "midiNote": 67,
      "noteName": "G4",
      "velocity": 1,
      "duration": "62i"
    },
    {
      "time": "21184i",
      "midiNote": 55,
      "noteName": "G3",
      "velocity": 0.7480314960629921,
      "duration": "14i"
    },
    {
      "time": "21216i",
      "midiNote": 56,
      "noteName": "G#3",
      "velocity": 0.6456692913385826,
      "duration": "14i"
    },
    {
      "time": "21248i",
      "midiNote": 40,
      "noteName": "E2",
      "velocity": 0.6771653543307087,
      "duration": "62i"
    },
    {
      "time": "21248i",
      "midiNote": 55,
      "noteName": "G3",
      "velocity": 0.8346456692913385,
      "duration": "14i"
    },
    {
      "time": "21312i",
      "midiNote": 40,
      "noteName": "E2",
      "velocity": 1,
      "duration": "62i"
    },
    {
      "time": "21312i",
      "midiNote": 54,
      "noteName": "F#3",
      "velocity": 1,
      "duration": "62i"
    },
    {
      "time": "21312i",
      "midiNote": 61,
      "noteName": "C#4",
      "velocity": 0.984251968503937,
      "duration": "62i"
    },
    {
      "time": "21312i",
      "midiNote": 67,
      "noteName": "G4",
      "velocity": 1,
      "duration": "62i"
    },
    {
      "time": "21312i",
      "midiNote": 54,
      "noteName": "F#3",
      "velocity": 0.8818897637795275,
      "duration": "14i"
    },
    {
      "time": "21376i",
      "midiNote": 54,
      "noteName": "F#3",
      "velocity": 0.6771653543307087,
      "duration": "62i"
    },
    {
      "time": "21376i",
      "midiNote": 40,
      "noteName": "E2",
      "velocity": 0.6771653543307087,
      "duration": "62i"
    },
    {
      "time": "21440i",
      "midiNote": 40,
      "noteName": "E2",
      "velocity": 0.984251968503937,
      "duration": "62i"
    },
    {
      "time": "21440i",
      "midiNote": 54,
      "noteName": "F#3",
      "velocity": 0.984251968503937,
      "duration": "62i"
    },
    {
      "time": "21440i",
      "midiNote": 61,
      "noteName": "C#4",
      "velocity": 0.984251968503937,
      "duration": "62i"
    },
    {
      "time": "21440i",
      "midiNote": 67,
      "noteName": "G4",
      "velocity": 1,
      "duration": "62i"
    },
    {
      "time": "21440i",
      "midiNote": 54,
      "noteName": "F#3",
      "velocity": 0.6299212598425197,
      "duration": "14i"
    },
    {
      "time": "21504i",
      "midiNote": 54,
      "noteName": "F#3",
      "velocity": 1,
      "duration": "62i"
    },
    {
      "time": "21504i",
      "midiNote": 40,
      "noteName": "E2",
      "velocity": 1,
      "duration": "62i"
    },
    {
      "time": "21568i",
      "midiNote": 55,
      "noteName": "G3",
      "velocity": 0.7480314960629921,
      "duration": "14i"
    },
    {
      "time": "21568i",
      "midiNote": 40,
      "noteName": "E2",
      "velocity": 0.8818897637795275,
      "duration": "62i"
    },
    {
      "time": "21600i",
      "midiNote": 56,
      "noteName": "G#3",
      "velocity": 0.6456692913385826,
      "duration": "14i"
    },
    {
      "time": "21632i",
      "midiNote": 55,
      "noteName": "G3",
      "velocity": 0.8346456692913385,
      "duration": "14i"
    },
    {
      "time": "21632i",
      "midiNote": 40,
      "noteName": "E2",
      "velocity": 0.8031496062992126,
      "duration": "62i"
    },
    {
      "time": "21696i",
      "midiNote": 54,
      "noteName": "F#3",
      "velocity": 0.8818897637795275,
      "duration": "62i"
    },
    {
      "time": "21696i",
      "midiNote": 54,
      "noteName": "F#3",
      "velocity": 0.6614173228346457,
      "duration": "14i"
    },
    {
      "time": "21696i",
      "midiNote": 40,
      "noteName": "E2",
      "velocity": 0.6614173228346457,
      "duration": "62i"
    },
    {
      "time": "21824i",
      "midiNote": 54,
      "noteName": "F#3",
      "velocity": 0.6299212598425197,
      "duration": "62i"
    },
    {
      "time": "21824i",
      "midiNote": 54,
      "noteName": "F#3",
      "velocity": 0.5669291338582677,
      "duration": "14i"
    },
    {
      "time": "21824i",
      "midiNote": 40,
      "noteName": "E2",
      "velocity": 0.5669291338582677,
      "duration": "62i"
    },
    {
      "time": "21888i",
      "midiNote": 54,
      "noteName": "F#3",
      "velocity": 1,
      "duration": "62i"
    },
    {
      "time": "21888i",
      "midiNote": 40,
      "noteName": "E2",
      "velocity": 1,
      "duration": "62i"
    },
    {
      "time": "21952i",
      "midiNote": 55,
      "noteName": "G3",
      "velocity": 0.7480314960629921,
      "duration": "14i"
    },
    {
      "time": "21952i",
      "midiNote": 40,
      "noteName": "E2",
      "velocity": 0.8818897637795275,
      "duration": "62i"
    },
    {
      "time": "21984i",
      "midiNote": 56,
      "noteName": "G#3",
      "velocity": 0.6456692913385826,
      "duration": "14i"
    },
    {
      "time": "22016i",
      "midiNote": 55,
      "noteName": "G3",
      "velocity": 0.8346456692913385,
      "duration": "14i"
    },
    {
      "time": "22016i",
      "midiNote": 40,
      "noteName": "E2",
      "velocity": 0.8031496062992126,
      "duration": "62i"
    },
    {
      "time": "22080i",
      "midiNote": 54,
      "noteName": "F#3",
      "velocity": 0.8818897637795275,
      "duration": "62i"
    },
    {
      "time": "22080i",
      "midiNote": 40,
      "noteName": "E2",
      "velocity": 0.6614173228346457,
      "duration": "62i"
    },
    {
      "time": "22080i",
      "midiNote": 54,
      "noteName": "F#3",
      "velocity": 0.6614173228346457,
      "duration": "14i"
    },
    {
      "time": "22144i",
      "midiNote": 54,
      "noteName": "F#3",
      "velocity": 0.3543307086614173,
      "duration": "62i"
    },
    {
      "time": "22144i",
      "midiNote": 40,
      "noteName": "E2",
      "velocity": 0.3543307086614173,
      "duration": "62i"
    },
    {
      "time": "22208i",
      "midiNote": 54,
      "noteName": "F#3",
      "velocity": 0.6299212598425197,
      "duration": "62i"
    },
    {
      "time": "22208i",
      "midiNote": 40,
      "noteName": "E2",
      "velocity": 0.5669291338582677,
      "duration": "62i"
    },
    {
      "time": "22208i",
      "midiNote": 54,
      "noteName": "F#3",
      "velocity": 0.5669291338582677,
      "duration": "14i"
    },
    {
      "time": "22272i",
      "midiNote": 40,
      "noteName": "E2",
      "velocity": 1,
      "duration": "62i"
    },
    {
      "time": "22272i",
      "midiNote": 54,
      "noteName": "F#3",
      "velocity": 1,
      "duration": "62i"
    },
    {
      "time": "22336i",
      "midiNote": 55,
      "noteName": "G3",
      "velocity": 0.7480314960629921,
      "duration": "14i"
    },
    {
      "time": "22336i",
      "midiNote": 40,
      "noteName": "E2",
      "velocity": 0.8818897637795275,
      "duration": "62i"
    },
    {
      "time": "22368i",
      "midiNote": 56,
      "noteName": "G#3",
      "velocity": 0.6456692913385826,
      "duration": "14i"
    },
    {
      "time": "22400i",
      "midiNote": 55,
      "noteName": "G3",
      "velocity": 0.8346456692913385,
      "duration": "14i"
    },
    {
      "time": "22400i",
      "midiNote": 40,
      "noteName": "E2",
      "velocity": 0.8031496062992126,
      "duration": "62i"
    },
    {
      "time": "22464i",
      "midiNote": 54,
      "noteName": "F#3",
      "velocity": 0.8818897637795275,
      "duration": "62i"
    },
    {
      "time": "22464i",
      "midiNote": 54,
      "noteName": "F#3",
      "velocity": 0.6614173228346457,
      "duration": "14i"
    },
    {
      "time": "22464i",
      "midiNote": 40,
      "noteName": "E2",
      "velocity": 0.6614173228346457,
      "duration": "62i"
    },
    {
      "time": "22592i",
      "midiNote": 54,
      "noteName": "F#3",
      "velocity": 0.6299212598425197,
      "duration": "62i"
    },
    {
      "time": "22592i",
      "midiNote": 40,
      "noteName": "E2",
      "velocity": 0.5669291338582677,
      "duration": "62i"
    },
    {
      "time": "22592i",
      "midiNote": 54,
      "noteName": "F#3",
      "velocity": 0.5669291338582677,
      "duration": "14i"
    },
    {
      "time": "22656i",
      "midiNote": 40,
      "noteName": "E2",
      "velocity": 0.7874015748031497,
      "duration": "62i"
    },
    {
      "time": "22656i",
      "midiNote": 54,
      "noteName": "F#3",
      "velocity": 0.7874015748031497,
      "duration": "62i"
    },
    {
      "time": "22712i",
      "midiNote": 67,
      "noteName": "G4",
      "velocity": 0.5826771653543307,
      "duration": "6i"
    },
    {
      "time": "22712i",
      "midiNote": 61,
      "noteName": "C#4",
      "velocity": 0.5826771653543307,
      "duration": "6i"
    },
    {
      "time": "22720i",
      "midiNote": 55,
      "noteName": "G3",
      "velocity": 0.7480314960629921,
      "duration": "14i"
    },
    {
      "time": "22720i",
      "midiNote": 40,
      "noteName": "E2",
      "velocity": 1,
      "duration": "62i"
    },
    {
      "time": "22720i",
      "midiNote": 61,
      "noteName": "C#4",
      "velocity": 1,
      "duration": "62i"
    },
    {
      "time": "22720i",
      "midiNote": 67,
      "noteName": "G4",
      "velocity": 1,
      "duration": "62i"
    },
    {
      "time": "22752i",
      "midiNote": 56,
      "noteName": "G#3",
      "velocity": 0.6456692913385826,
      "duration": "14i"
    },
    {
      "time": "22784i",
      "midiNote": 55,
      "noteName": "G3",
      "velocity": 0.8346456692913385,
      "duration": "14i"
    },
    {
      "time": "22784i",
      "midiNote": 40,
      "noteName": "E2",
      "velocity": 0.6771653543307087,
      "duration": "62i"
    },
    {
      "time": "22848i",
      "midiNote": 54,
      "noteName": "F#3",
      "velocity": 0.8818897637795275,
      "duration": "62i"
    },
    {
      "time": "22848i",
      "midiNote": 40,
      "noteName": "E2",
      "velocity": 1,
      "duration": "62i"
    },
    {
      "time": "22848i",
      "midiNote": 54,
      "noteName": "F#3",
      "velocity": 1,
      "duration": "14i"
    },
    {
      "time": "22848i",
      "midiNote": 61,
      "noteName": "C#4",
      "velocity": 0.984251968503937,
      "duration": "62i"
    },
    {
      "time": "22848i",
      "midiNote": 67,
      "noteName": "G4",
      "velocity": 1,
      "duration": "62i"
    },
    {
      "time": "22912i",
      "midiNote": 54,
      "noteName": "F#3",
      "velocity": 0.6771653543307087,
      "duration": "62i"
    },
    {
      "time": "22912i",
      "midiNote": 40,
      "noteName": "E2",
      "velocity": 0.6771653543307087,
      "duration": "62i"
    },
    {
      "time": "22976i",
      "midiNote": 40,
      "noteName": "E2",
      "velocity": 0.984251968503937,
      "duration": "62i"
    },
    {
      "time": "22976i",
      "midiNote": 54,
      "noteName": "F#3",
      "velocity": 0.984251968503937,
      "duration": "62i"
    },
    {
      "time": "22976i",
      "midiNote": 61,
      "noteName": "C#4",
      "velocity": 0.984251968503937,
      "duration": "62i"
    },
    {
      "time": "22976i",
      "midiNote": 67,
      "noteName": "G4",
      "velocity": 1,
      "duration": "62i"
    },
    {
      "time": "22976i",
      "midiNote": 54,
      "noteName": "F#3",
      "velocity": 0.6299212598425197,
      "duration": "14i"
    },
    {
      "time": "23040i",
      "midiNote": 54,
      "noteName": "F#3",
      "velocity": 1,
      "duration": "62i"
    },
    {
      "time": "23040i",
      "midiNote": 40,
      "noteName": "E2",
      "velocity": 1,
      "duration": "62i"
    },
    {
      "time": "23104i",
      "midiNote": 40,
      "noteName": "E2",
      "velocity": 0.8818897637795275,
      "duration": "62i"
    },
    {
      "time": "23104i",
      "midiNote": 55,
      "noteName": "G3",
      "velocity": 0.7480314960629921,
      "duration": "14i"
    },
    {
      "time": "23136i",
      "midiNote": 56,
      "noteName": "G#3",
      "velocity": 0.6456692913385826,
      "duration": "14i"
    },
    {
      "time": "23168i",
      "midiNote": 40,
      "noteName": "E2",
      "velocity": 0.8031496062992126,
      "duration": "62i"
    },
    {
      "time": "23168i",
      "midiNote": 55,
      "noteName": "G3",
      "velocity": 0.8346456692913385,
      "duration": "14i"
    },
    {
      "time": "23232i",
      "midiNote": 54,
      "noteName": "F#3",
      "velocity": 0.6614173228346457,
      "duration": "62i"
    },
    {
      "time": "23232i",
      "midiNote": 40,
      "noteName": "E2",
      "velocity": 0.6614173228346457,
      "duration": "62i"
    },
    {
      "time": "23232i",
      "midiNote": 54,
      "noteName": "F#3",
      "velocity": 0.8818897637795275,
      "duration": "14i"
    },
    {
      "time": "23360i",
      "midiNote": 54,
      "noteName": "F#3",
      "velocity": 0.5669291338582677,
      "duration": "62i"
    },
    {
      "time": "23360i",
      "midiNote": 40,
      "noteName": "E2",
      "velocity": 0.5669291338582677,
      "duration": "62i"
    },
    {
      "time": "23360i",
      "midiNote": 54,
      "noteName": "F#3",
      "velocity": 0.6299212598425197,
      "duration": "14i"
    },
    {
      "time": "23424i",
      "midiNote": 54,
      "noteName": "F#3",
      "velocity": 1,
      "duration": "62i"
    },
    {
      "time": "23424i",
      "midiNote": 40,
      "noteName": "E2",
      "velocity": 1,
      "duration": "62i"
    },
    {
      "time": "23488i",
      "midiNote": 40,
      "noteName": "E2",
      "velocity": 0.8818897637795275,
      "duration": "62i"
    },
    {
      "time": "23488i",
      "midiNote": 55,
      "noteName": "G3",
      "velocity": 0.7480314960629921,
      "duration": "14i"
    },
    {
      "time": "23520i",
      "midiNote": 56,
      "noteName": "G#3",
      "velocity": 0.6456692913385826,
      "duration": "14i"
    },
    {
      "time": "23552i",
      "midiNote": 40,
      "noteName": "E2",
      "velocity": 0.8031496062992126,
      "duration": "62i"
    },
    {
      "time": "23552i",
      "midiNote": 55,
      "noteName": "G3",
      "velocity": 0.8346456692913385,
      "duration": "14i"
    },
    {
      "time": "23616i",
      "midiNote": 40,
      "noteName": "E2",
      "velocity": 0.6614173228346457,
      "duration": "62i"
    },
    {
      "time": "23616i",
      "midiNote": 54,
      "noteName": "F#3",
      "velocity": 0.6614173228346457,
      "duration": "62i"
    },
    {
      "time": "23616i",
      "midiNote": 54,
      "noteName": "F#3",
      "velocity": 0.8818897637795275,
      "duration": "14i"
    },
    {
      "time": "23680i",
      "midiNote": 54,
      "noteName": "F#3",
      "velocity": 0.3543307086614173,
      "duration": "62i"
    },
    {
      "time": "23680i",
      "midiNote": 40,
      "noteName": "E2",
      "velocity": 0.3543307086614173,
      "duration": "62i"
    },
    {
      "time": "23744i",
      "midiNote": 40,
      "noteName": "E2",
      "velocity": 0.5669291338582677,
      "duration": "62i"
    },
    {
      "time": "23744i",
      "midiNote": 54,
      "noteName": "F#3",
      "velocity": 0.5669291338582677,
      "duration": "62i"
    },
    {
      "time": "23744i",
      "midiNote": 54,
      "noteName": "F#3",
      "velocity": 0.6299212598425197,
      "duration": "14i"
    },
    {
      "time": "23808i",
      "midiNote": 40,
      "noteName": "E2",
      "velocity": 1,
      "duration": "62i"
    },
    {
      "time": "23808i",
      "midiNote": 54,
      "noteName": "F#3",
      "velocity": 1,
      "duration": "62i"
    },
    {
      "time": "23872i",
      "midiNote": 55,
      "noteName": "G3",
      "velocity": 0.7480314960629921,
      "duration": "14i"
    },
    {
      "time": "23872i",
      "midiNote": 40,
      "noteName": "E2",
      "velocity": 0.8818897637795275,
      "duration": "62i"
    },
    {
      "time": "23904i",
      "midiNote": 56,
      "noteName": "G#3",
      "velocity": 0.6456692913385826,
      "duration": "14i"
    },
    {
      "time": "23936i",
      "midiNote": 55,
      "noteName": "G3",
      "velocity": 0.8346456692913385,
      "duration": "14i"
    },
    {
      "time": "23936i",
      "midiNote": 40,
      "noteName": "E2",
      "velocity": 0.8031496062992126,
      "duration": "62i"
    },
    {
      "time": "24000i",
      "midiNote": 54,
      "noteName": "F#3",
      "velocity": 0.8818897637795275,
      "duration": "62i"
    },
    {
      "time": "24000i",
      "midiNote": 54,
      "noteName": "F#3",
      "velocity": 0.6614173228346457,
      "duration": "14i"
    },
    {
      "time": "24000i",
      "midiNote": 40,
      "noteName": "E2",
      "velocity": 0.6614173228346457,
      "duration": "62i"
    },
    {
      "time": "24128i",
      "midiNote": 54,
      "noteName": "F#3",
      "velocity": 0.6299212598425197,
      "duration": "62i"
    },
    {
      "time": "24128i",
      "midiNote": 40,
      "noteName": "E2",
      "velocity": 0.5669291338582677,
      "duration": "62i"
    },
    {
      "time": "24128i",
      "midiNote": 54,
      "noteName": "F#3",
      "velocity": 0.5669291338582677,
      "duration": "14i"
    },
    {
      "time": "24192i",
      "midiNote": 40,
      "noteName": "E2",
      "velocity": 0.7874015748031497,
      "duration": "62i"
    },
    {
      "time": "24192i",
      "midiNote": 54,
      "noteName": "F#3",
      "velocity": 0.7874015748031497,
      "duration": "62i"
    },
    {
      "time": "24248i",
      "midiNote": 67,
      "noteName": "G4",
      "velocity": 0.5826771653543307,
      "duration": "6i"
    },
    {
      "time": "24248i",
      "midiNote": 61,
      "noteName": "C#4",
      "velocity": 0.5826771653543307,
      "duration": "6i"
    },
    {
      "time": "24256i",
      "midiNote": 55,
      "noteName": "G3",
      "velocity": 0.7480314960629921,
      "duration": "14i"
    },
    {
      "time": "24256i",
      "midiNote": 40,
      "noteName": "E2",
      "velocity": 1,
      "duration": "62i"
    },
    {
      "time": "24256i",
      "midiNote": 61,
      "noteName": "C#4",
      "velocity": 1,
      "duration": "62i"
    },
    {
      "time": "24256i",
      "midiNote": 67,
      "noteName": "G4",
      "velocity": 1,
      "duration": "62i"
    },
    {
      "time": "24288i",
      "midiNote": 56,
      "noteName": "G#3",
      "velocity": 0.6456692913385826,
      "duration": "14i"
    },
    {
      "time": "24320i",
      "midiNote": 55,
      "noteName": "G3",
      "velocity": 0.8346456692913385,
      "duration": "14i"
    },
    {
      "time": "24320i",
      "midiNote": 40,
      "noteName": "E2",
      "velocity": 0.6771653543307087,
      "duration": "62i"
    },
    {
      "time": "24384i",
      "midiNote": 54,
      "noteName": "F#3",
      "velocity": 0.8818897637795275,
      "duration": "62i"
    },
    {
      "time": "24384i",
      "midiNote": 40,
      "noteName": "E2",
      "velocity": 1,
      "duration": "62i"
    },
    {
      "time": "24384i",
      "midiNote": 54,
      "noteName": "F#3",
      "velocity": 1,
      "duration": "14i"
    },
    {
      "time": "24384i",
      "midiNote": 61,
      "noteName": "C#4",
      "velocity": 0.984251968503937,
      "duration": "62i"
    },
    {
      "time": "24384i",
      "midiNote": 67,
      "noteName": "G4",
      "velocity": 1,
      "duration": "62i"
    },
    {
      "time": "24448i",
      "midiNote": 54,
      "noteName": "F#3",
      "velocity": 0.6771653543307087,
      "duration": "62i"
    },
    {
      "time": "24448i",
      "midiNote": 40,
      "noteName": "E2",
      "velocity": 0.6771653543307087,
      "duration": "62i"
    },
    {
      "time": "24512i",
      "midiNote": 40,
      "noteName": "E2",
      "velocity": 0.984251968503937,
      "duration": "62i"
    },
    {
      "time": "24512i",
      "midiNote": 54,
      "noteName": "F#3",
      "velocity": 0.984251968503937,
      "duration": "62i"
    },
    {
      "time": "24512i",
      "midiNote": 61,
      "noteName": "C#4",
      "velocity": 0.984251968503937,
      "duration": "62i"
    },
    {
      "time": "24512i",
      "midiNote": 67,
      "noteName": "G4",
      "velocity": 1,
      "duration": "62i"
    },
    {
      "time": "24512i",
      "midiNote": 54,
      "noteName": "F#3",
      "velocity": 0.6299212598425197,
      "duration": "14i"
    },
    {
      "time": "24576i",
      "midiNote": 54,
      "noteName": "F#3",
      "velocity": 1,
      "duration": "62i"
    },
    {
      "time": "24576i",
      "midiNote": 40,
      "noteName": "E2",
      "velocity": 1,
      "duration": "62i"
    },
    {
      "time": "24640i",
      "midiNote": 40,
      "noteName": "E2",
      "velocity": 0.8818897637795275,
      "duration": "62i"
    },
    {
      "time": "24640i",
      "midiNote": 55,
      "noteName": "G3",
      "velocity": 0.7480314960629921,
      "duration": "14i"
    },
    {
      "time": "24672i",
      "midiNote": 56,
      "noteName": "G#3",
      "velocity": 0.6456692913385826,
      "duration": "14i"
    },
    {
      "time": "24704i",
      "midiNote": 40,
      "noteName": "E2",
      "velocity": 0.8031496062992126,
      "duration": "62i"
    },
    {
      "time": "24704i",
      "midiNote": 55,
      "noteName": "G3",
      "velocity": 0.8346456692913385,
      "duration": "14i"
    },
    {
      "time": "24768i",
      "midiNote": 54,
      "noteName": "F#3",
      "velocity": 0.6614173228346457,
      "duration": "62i"
    },
    {
      "time": "24768i",
      "midiNote": 40,
      "noteName": "E2",
      "velocity": 0.6614173228346457,
      "duration": "62i"
    },
    {
      "time": "24768i",
      "midiNote": 54,
      "noteName": "F#3",
      "velocity": 0.8818897637795275,
      "duration": "14i"
    },
    {
      "time": "24896i",
      "midiNote": 54,
      "noteName": "F#3",
      "velocity": 0.5669291338582677,
      "duration": "62i"
    },
    {
      "time": "24896i",
      "midiNote": 40,
      "noteName": "E2",
      "velocity": 0.5669291338582677,
      "duration": "62i"
    },
    {
      "time": "24896i",
      "midiNote": 54,
      "noteName": "F#3",
      "velocity": 0.6299212598425197,
      "duration": "14i"
    },
    {
      "time": "24960i",
      "midiNote": 54,
      "noteName": "F#3",
      "velocity": 1,
      "duration": "62i"
    },
    {
      "time": "24960i",
      "midiNote": 40,
      "noteName": "E2",
      "velocity": 1,
      "duration": "62i"
    },
    {
      "time": "25024i",
      "midiNote": 40,
      "noteName": "E2",
      "velocity": 0.8818897637795275,
      "duration": "62i"
    },
    {
      "time": "25024i",
      "midiNote": 55,
      "noteName": "G3",
      "velocity": 0.7480314960629921,
      "duration": "14i"
    },
    {
      "time": "25056i",
      "midiNote": 56,
      "noteName": "G#3",
      "velocity": 0.6456692913385826,
      "duration": "14i"
    },
    {
      "time": "25088i",
      "midiNote": 40,
      "noteName": "E2",
      "velocity": 0.8031496062992126,
      "duration": "62i"
    },
    {
      "time": "25088i",
      "midiNote": 55,
      "noteName": "G3",
      "velocity": 0.8346456692913385,
      "duration": "14i"
    },
    {
      "time": "25152i",
      "midiNote": 40,
      "noteName": "E2",
      "velocity": 0.6614173228346457,
      "duration": "62i"
    },
    {
      "time": "25152i",
      "midiNote": 54,
      "noteName": "F#3",
      "velocity": 0.6614173228346457,
      "duration": "62i"
    },
    {
      "time": "25152i",
      "midiNote": 54,
      "noteName": "F#3",
      "velocity": 0.8818897637795275,
      "duration": "14i"
    },
    {
      "time": "25216i",
      "midiNote": 54,
      "noteName": "F#3",
      "velocity": 0.3543307086614173,
      "duration": "62i"
    },
    {
      "time": "25216i",
      "midiNote": 40,
      "noteName": "E2",
      "velocity": 0.3543307086614173,
      "duration": "62i"
    },
    {
      "time": "25280i",
      "midiNote": 40,
      "noteName": "E2",
      "velocity": 0.5669291338582677,
      "duration": "62i"
    },
    {
      "time": "25280i",
      "midiNote": 54,
      "noteName": "F#3",
      "velocity": 0.5669291338582677,
      "duration": "62i"
    },
    {
      "time": "25280i",
      "midiNote": 54,
      "noteName": "F#3",
      "velocity": 0.6299212598425197,
      "duration": "14i"
    },
    {
      "time": "25344i",
      "midiNote": 40,
      "noteName": "E2",
      "velocity": 1,
      "duration": "62i"
    },
    {
      "time": "25344i",
      "midiNote": 54,
      "noteName": "F#3",
      "velocity": 1,
      "duration": "62i"
    },
    {
      "time": "25408i",
      "midiNote": 40,
      "noteName": "E2",
      "velocity": 0.8818897637795275,
      "duration": "62i"
    },
    {
      "time": "25408i",
      "midiNote": 55,
      "noteName": "G3",
      "velocity": 0.7480314960629921,
      "duration": "14i"
    },
    {
      "time": "25440i",
      "midiNote": 56,
      "noteName": "G#3",
      "velocity": 0.6456692913385826,
      "duration": "14i"
    },
    {
      "time": "25472i",
      "midiNote": 40,
      "noteName": "E2",
      "velocity": 0.8031496062992126,
      "duration": "62i"
    },
    {
      "time": "25472i",
      "midiNote": 55,
      "noteName": "G3",
      "velocity": 0.8346456692913385,
      "duration": "14i"
    },
    {
      "time": "25536i",
      "midiNote": 54,
      "noteName": "F#3",
      "velocity": 0.6614173228346457,
      "duration": "62i"
    },
    {
      "time": "25536i",
      "midiNote": 40,
      "noteName": "E2",
      "velocity": 0.6614173228346457,
      "duration": "62i"
    },
    {
      "time": "25536i",
      "midiNote": 54,
      "noteName": "F#3",
      "velocity": 0.8818897637795275,
      "duration": "14i"
    },
    {
      "time": "25664i",
      "midiNote": 40,
      "noteName": "E2",
      "velocity": 0.5669291338582677,
      "duration": "62i"
    },
    {
      "time": "25664i",
      "midiNote": 54,
      "noteName": "F#3",
      "velocity": 0.5669291338582677,
      "duration": "62i"
    },
    {
      "time": "25664i",
      "midiNote": 54,
      "noteName": "F#3",
      "velocity": 0.6299212598425197,
      "duration": "14i"
    },
    {
      "time": "25728i",
      "midiNote": 40,
      "noteName": "E2",
      "velocity": 0.7874015748031497,
      "duration": "62i"
    },
    {
      "time": "25728i",
      "midiNote": 54,
      "noteName": "F#3",
      "velocity": 0.7874015748031497,
      "duration": "62i"
    },
    {
      "time": "25784i",
      "midiNote": 67,
      "noteName": "G4",
      "velocity": 0.5826771653543307,
      "duration": "6i"
    },
    {
      "time": "25784i",
      "midiNote": 61,
      "noteName": "C#4",
      "velocity": 0.5826771653543307,
      "duration": "6i"
    },
    {
      "time": "25792i",
      "midiNote": 40,
      "noteName": "E2",
      "velocity": 1,
      "duration": "62i"
    },
    {
      "time": "25792i",
      "midiNote": 61,
      "noteName": "C#4",
      "velocity": 1,
      "duration": "62i"
    },
    {
      "time": "25792i",
      "midiNote": 67,
      "noteName": "G4",
      "velocity": 1,
      "duration": "62i"
    },
    {
      "time": "25792i",
      "midiNote": 55,
      "noteName": "G3",
      "velocity": 0.7480314960629921,
      "duration": "14i"
    },
    {
      "time": "25824i",
      "midiNote": 56,
      "noteName": "G#3",
      "velocity": 0.6456692913385826,
      "duration": "14i"
    },
    {
      "time": "25856i",
      "midiNote": 40,
      "noteName": "E2",
      "velocity": 0.6771653543307087,
      "duration": "62i"
    },
    {
      "time": "25856i",
      "midiNote": 55,
      "noteName": "G3",
      "velocity": 0.8346456692913385,
      "duration": "14i"
    },
    {
      "time": "25920i",
      "midiNote": 40,
      "noteName": "E2",
      "velocity": 1,
      "duration": "62i"
    },
    {
      "time": "25920i",
      "midiNote": 54,
      "noteName": "F#3",
      "velocity": 1,
      "duration": "62i"
    },
    {
      "time": "25920i",
      "midiNote": 61,
      "noteName": "C#4",
      "velocity": 0.984251968503937,
      "duration": "62i"
    },
    {
      "time": "25920i",
      "midiNote": 67,
      "noteName": "G4",
      "velocity": 1,
      "duration": "62i"
    },
    {
      "time": "25920i",
      "midiNote": 54,
      "noteName": "F#3",
      "velocity": 0.8818897637795275,
      "duration": "14i"
    },
    {
      "time": "25984i",
      "midiNote": 54,
      "noteName": "F#3",
      "velocity": 0.6771653543307087,
      "duration": "62i"
    },
    {
      "time": "25984i",
      "midiNote": 40,
      "noteName": "E2",
      "velocity": 0.6771653543307087,
      "duration": "62i"
    },
    {
      "time": "26048i",
      "midiNote": 54,
      "noteName": "F#3",
      "velocity": 0.6299212598425197,
      "duration": "62i"
    },
    {
      "time": "26048i",
      "midiNote": 40,
      "noteName": "E2",
      "velocity": 0.984251968503937,
      "duration": "62i"
    },
    {
      "time": "26048i",
      "midiNote": 54,
      "noteName": "F#3",
      "velocity": 0.984251968503937,
      "duration": "14i"
    },
    {
      "time": "26048i",
      "midiNote": 61,
      "noteName": "C#4",
      "velocity": 0.984251968503937,
      "duration": "62i"
    },
    {
      "time": "26048i",
      "midiNote": 67,
      "noteName": "G4",
      "velocity": 1,
      "duration": "62i"
    },
    {
      "time": "26112i",
      "midiNote": 54,
      "noteName": "F#3",
      "velocity": 1,
      "duration": "62i"
    },
    {
      "time": "26112i",
      "midiNote": 40,
      "noteName": "E2",
      "velocity": 1,
      "duration": "62i"
    },
    {
      "time": "26176i",
      "midiNote": 40,
      "noteName": "E2",
      "velocity": 0.8818897637795275,
      "duration": "62i"
    },
    {
      "time": "26176i",
      "midiNote": 55,
      "noteName": "G3",
      "velocity": 0.7480314960629921,
      "duration": "14i"
    },
    {
      "time": "26208i",
      "midiNote": 56,
      "noteName": "G#3",
      "velocity": 0.6456692913385826,
      "duration": "14i"
    },
    {
      "time": "26240i",
      "midiNote": 40,
      "noteName": "E2",
      "velocity": 0.8031496062992126,
      "duration": "62i"
    },
    {
      "time": "26240i",
      "midiNote": 55,
      "noteName": "G3",
      "velocity": 0.8346456692913385,
      "duration": "14i"
    },
    {
      "time": "26304i",
      "midiNote": 54,
      "noteName": "F#3",
      "velocity": 0.6614173228346457,
      "duration": "62i"
    },
    {
      "time": "26304i",
      "midiNote": 40,
      "noteName": "E2",
      "velocity": 0.6614173228346457,
      "duration": "62i"
    },
    {
      "time": "26304i",
      "midiNote": 54,
      "noteName": "F#3",
      "velocity": 0.8818897637795275,
      "duration": "14i"
    },
    {
      "time": "26432i",
      "midiNote": 54,
      "noteName": "F#3",
      "velocity": 0.5669291338582677,
      "duration": "62i"
    },
    {
      "time": "26432i",
      "midiNote": 40,
      "noteName": "E2",
      "velocity": 0.5669291338582677,
      "duration": "62i"
    },
    {
      "time": "26432i",
      "midiNote": 54,
      "noteName": "F#3",
      "velocity": 0.6299212598425197,
      "duration": "14i"
    },
    {
      "time": "26496i",
      "midiNote": 54,
      "noteName": "F#3",
      "velocity": 1,
      "duration": "62i"
    },
    {
      "time": "26496i",
      "midiNote": 40,
      "noteName": "E2",
      "velocity": 1,
      "duration": "62i"
    },
    {
      "time": "26560i",
      "midiNote": 40,
      "noteName": "E2",
      "velocity": 0.8818897637795275,
      "duration": "62i"
    },
    {
      "time": "26560i",
      "midiNote": 55,
      "noteName": "G3",
      "velocity": 0.7480314960629921,
      "duration": "14i"
    },
    {
      "time": "26592i",
      "midiNote": 56,
      "noteName": "G#3",
      "velocity": 0.6456692913385826,
      "duration": "14i"
    },
    {
      "time": "26624i",
      "midiNote": 40,
      "noteName": "E2",
      "velocity": 0.8031496062992126,
      "duration": "62i"
    },
    {
      "time": "26624i",
      "midiNote": 55,
      "noteName": "G3",
      "velocity": 0.8346456692913385,
      "duration": "14i"
    },
    {
      "time": "26688i",
      "midiNote": 40,
      "noteName": "E2",
      "velocity": 0.6614173228346457,
      "duration": "62i"
    },
    {
      "time": "26688i",
      "midiNote": 54,
      "noteName": "F#3",
      "velocity": 0.6614173228346457,
      "duration": "62i"
    },
    {
      "time": "26688i",
      "midiNote": 54,
      "noteName": "F#3",
      "velocity": 0.8818897637795275,
      "duration": "14i"
    },
    {
      "time": "26752i",
      "midiNote": 54,
      "noteName": "F#3",
      "velocity": 0.3543307086614173,
      "duration": "62i"
    },
    {
      "time": "26752i",
      "midiNote": 40,
      "noteName": "E2",
      "velocity": 0.3543307086614173,
      "duration": "62i"
    },
    {
      "time": "26816i",
      "midiNote": 40,
      "noteName": "E2",
      "velocity": 0.5669291338582677,
      "duration": "62i"
    },
    {
      "time": "26816i",
      "midiNote": 54,
      "noteName": "F#3",
      "velocity": 0.5669291338582677,
      "duration": "62i"
    },
    {
      "time": "26816i",
      "midiNote": 54,
      "noteName": "F#3",
      "velocity": 0.6299212598425197,
      "duration": "14i"
    },
    {
      "time": "26880i",
      "midiNote": 40,
      "noteName": "E2",
      "velocity": 1,
      "duration": "62i"
    },
    {
      "time": "26880i",
      "midiNote": 54,
      "noteName": "F#3",
      "velocity": 1,
      "duration": "62i"
    },
    {
      "time": "26944i",
      "midiNote": 55,
      "noteName": "G3",
      "velocity": 0.7480314960629921,
      "duration": "14i"
    },
    {
      "time": "26944i",
      "midiNote": 40,
      "noteName": "E2",
      "velocity": 0.8818897637795275,
      "duration": "62i"
    },
    {
      "time": "26976i",
      "midiNote": 56,
      "noteName": "G#3",
      "velocity": 0.6456692913385826,
      "duration": "14i"
    },
    {
      "time": "27008i",
      "midiNote": 55,
      "noteName": "G3",
      "velocity": 0.8346456692913385,
      "duration": "14i"
    },
    {
      "time": "27008i",
      "midiNote": 40,
      "noteName": "E2",
      "velocity": 0.8031496062992126,
      "duration": "62i"
    },
    {
      "time": "27072i",
      "midiNote": 54,
      "noteName": "F#3",
      "velocity": 0.8818897637795275,
      "duration": "62i"
    },
    {
      "time": "27072i",
      "midiNote": 54,
      "noteName": "F#3",
      "velocity": 0.6614173228346457,
      "duration": "14i"
    },
    {
      "time": "27072i",
      "midiNote": 40,
      "noteName": "E2",
      "velocity": 0.6614173228346457,
      "duration": "62i"
    },
    {
      "time": "27200i",
      "midiNote": 54,
      "noteName": "F#3",
      "velocity": 0.6299212598425197,
      "duration": "62i"
    },
    {
      "time": "27200i",
      "midiNote": 40,
      "noteName": "E2",
      "velocity": 0.5669291338582677,
      "duration": "62i"
    },
    {
      "time": "27200i",
      "midiNote": 54,
      "noteName": "F#3",
      "velocity": 0.5669291338582677,
      "duration": "14i"
    },
    {
      "time": "27264i",
      "midiNote": 40,
      "noteName": "E2",
      "velocity": 0.7874015748031497,
      "duration": "62i"
    },
    {
      "time": "27264i",
      "midiNote": 54,
      "noteName": "F#3",
      "velocity": 0.7874015748031497,
      "duration": "62i"
    },
    {
      "time": "27320i",
      "midiNote": 67,
      "noteName": "G4",
      "velocity": 0.5826771653543307,
      "duration": "6i"
    },
    {
      "time": "27320i",
      "midiNote": 61,
      "noteName": "C#4",
      "velocity": 0.5826771653543307,
      "duration": "6i"
    },
    {
      "time": "27328i",
      "midiNote": 55,
      "noteName": "G3",
      "velocity": 0.7480314960629921,
      "duration": "14i"
    },
    {
      "time": "27328i",
      "midiNote": 40,
      "noteName": "E2",
      "velocity": 1,
      "duration": "62i"
    },
    {
      "time": "27328i",
      "midiNote": 61,
      "noteName": "C#4",
      "velocity": 1,
      "duration": "62i"
    },
    {
      "time": "27328i",
      "midiNote": 67,
      "noteName": "G4",
      "velocity": 1,
      "duration": "62i"
    },
    {
      "time": "27360i",
      "midiNote": 56,
      "noteName": "G#3",
      "velocity": 0.6456692913385826,
      "duration": "14i"
    },
    {
      "time": "27392i",
      "midiNote": 55,
      "noteName": "G3",
      "velocity": 0.8346456692913385,
      "duration": "14i"
    },
    {
      "time": "27392i",
      "midiNote": 40,
      "noteName": "E2",
      "velocity": 0.6771653543307087,
      "duration": "62i"
    },
    {
      "time": "27456i",
      "midiNote": 54,
      "noteName": "F#3",
      "velocity": 0.8818897637795275,
      "duration": "62i"
    },
    {
      "time": "27456i",
      "midiNote": 40,
      "noteName": "E2",
      "velocity": 1,
      "duration": "62i"
    },
    {
      "time": "27456i",
      "midiNote": 54,
      "noteName": "F#3",
      "velocity": 1,
      "duration": "14i"
    },
    {
      "time": "27456i",
      "midiNote": 61,
      "noteName": "C#4",
      "velocity": 0.984251968503937,
      "duration": "62i"
    },
    {
      "time": "27456i",
      "midiNote": 67,
      "noteName": "G4",
      "velocity": 1,
      "duration": "62i"
    },
    {
      "time": "27520i",
      "midiNote": 54,
      "noteName": "F#3",
      "velocity": 0.6771653543307087,
      "duration": "62i"
    },
    {
      "time": "27520i",
      "midiNote": 40,
      "noteName": "E2",
      "velocity": 0.6771653543307087,
      "duration": "62i"
    },
    {
      "time": "27584i",
      "midiNote": 54,
      "noteName": "F#3",
      "velocity": 0.6299212598425197,
      "duration": "62i"
    },
    {
      "time": "27584i",
      "midiNote": 40,
      "noteName": "E2",
      "velocity": 0.984251968503937,
      "duration": "62i"
    },
    {
      "time": "27584i",
      "midiNote": 54,
      "noteName": "F#3",
      "velocity": 0.984251968503937,
      "duration": "14i"
    },
    {
      "time": "27584i",
      "midiNote": 61,
      "noteName": "C#4",
      "velocity": 0.984251968503937,
      "duration": "62i"
    },
    {
      "time": "27584i",
      "midiNote": 67,
      "noteName": "G4",
      "velocity": 1,
      "duration": "62i"
    },
    {
      "time": "27648i",
      "midiNote": 54,
      "noteName": "F#3",
      "velocity": 1,
      "duration": "62i"
    },
    {
      "time": "27648i",
      "midiNote": 40,
      "noteName": "E2",
      "velocity": 1,
      "duration": "62i"
    },
    {
      "time": "27712i",
      "midiNote": 55,
      "noteName": "G3",
      "velocity": 0.7480314960629921,
      "duration": "14i"
    },
    {
      "time": "27712i",
      "midiNote": 40,
      "noteName": "E2",
      "velocity": 0.8818897637795275,
      "duration": "62i"
    },
    {
      "time": "27744i",
      "midiNote": 56,
      "noteName": "G#3",
      "velocity": 0.6456692913385826,
      "duration": "14i"
    },
    {
      "time": "27776i",
      "midiNote": 55,
      "noteName": "G3",
      "velocity": 0.8346456692913385,
      "duration": "14i"
    },
    {
      "time": "27776i",
      "midiNote": 40,
      "noteName": "E2",
      "velocity": 0.8031496062992126,
      "duration": "62i"
    },
    {
      "time": "27840i",
      "midiNote": 54,
      "noteName": "F#3",
      "velocity": 0.8818897637795275,
      "duration": "62i"
    },
    {
      "time": "27840i",
      "midiNote": 54,
      "noteName": "F#3",
      "velocity": 0.6614173228346457,
      "duration": "14i"
    },
    {
      "time": "27840i",
      "midiNote": 40,
      "noteName": "E2",
      "velocity": 0.6614173228346457,
      "duration": "62i"
    },
    {
      "time": "27968i",
      "midiNote": 54,
      "noteName": "F#3",
      "velocity": 0.6299212598425197,
      "duration": "62i"
    },
    {
      "time": "27968i",
      "midiNote": 54,
      "noteName": "F#3",
      "velocity": 0.5669291338582677,
      "duration": "14i"
    },
    {
      "time": "27968i",
      "midiNote": 40,
      "noteName": "E2",
      "velocity": 0.5669291338582677,
      "duration": "62i"
    },
    {
      "time": "28032i",
      "midiNote": 54,
      "noteName": "F#3",
      "velocity": 1,
      "duration": "62i"
    },
    {
      "time": "28032i",
      "midiNote": 40,
      "noteName": "E2",
      "velocity": 1,
      "duration": "62i"
    },
    {
      "time": "28096i",
      "midiNote": 55,
      "noteName": "G3",
      "velocity": 0.7480314960629921,
      "duration": "14i"
    },
    {
      "time": "28096i",
      "midiNote": 40,
      "noteName": "E2",
      "velocity": 0.8818897637795275,
      "duration": "62i"
    },
    {
      "time": "28128i",
      "midiNote": 56,
      "noteName": "G#3",
      "velocity": 0.6456692913385826,
      "duration": "14i"
    },
    {
      "time": "28160i",
      "midiNote": 55,
      "noteName": "G3",
      "velocity": 0.8346456692913385,
      "duration": "14i"
    },
    {
      "time": "28160i",
      "midiNote": 40,
      "noteName": "E2",
      "velocity": 0.8031496062992126,
      "duration": "62i"
    },
    {
      "time": "28224i",
      "midiNote": 54,
      "noteName": "F#3",
      "velocity": 0.8818897637795275,
      "duration": "62i"
    },
    {
      "time": "28224i",
      "midiNote": 40,
      "noteName": "E2",
      "velocity": 0.6614173228346457,
      "duration": "62i"
    },
    {
      "time": "28224i",
      "midiNote": 54,
      "noteName": "F#3",
      "velocity": 0.6614173228346457,
      "duration": "14i"
    },
    {
      "time": "28288i",
      "midiNote": 54,
      "noteName": "F#3",
      "velocity": 0.3543307086614173,
      "duration": "62i"
    },
    {
      "time": "28288i",
      "midiNote": 40,
      "noteName": "E2",
      "velocity": 0.3543307086614173,
      "duration": "62i"
    },
    {
      "time": "28352i",
      "midiNote": 40,
      "noteName": "E2",
      "velocity": 0.5669291338582677,
      "duration": "62i"
    },
    {
      "time": "28352i",
      "midiNote": 54,
      "noteName": "F#3",
      "velocity": 0.5669291338582677,
      "duration": "62i"
    },
    {
      "time": "28352i",
      "midiNote": 54,
      "noteName": "F#3",
      "velocity": 0.6299212598425197,
      "duration": "14i"
    },
    {
      "time": "28416i",
      "midiNote": 40,
      "noteName": "E2",
      "velocity": 1,
      "duration": "62i"
    },
    {
      "time": "28416i",
      "midiNote": 54,
      "noteName": "F#3",
      "velocity": 1,
      "duration": "62i"
    },
    {
      "time": "28480i",
      "midiNote": 40,
      "noteName": "E2",
      "velocity": 0.8818897637795275,
      "duration": "62i"
    },
    {
      "time": "28480i",
      "midiNote": 55,
      "noteName": "G3",
      "velocity": 0.7480314960629921,
      "duration": "14i"
    },
    {
      "time": "28512i",
      "midiNote": 56,
      "noteName": "G#3",
      "velocity": 0.6456692913385826,
      "duration": "14i"
    },
    {
      "time": "28544i",
      "midiNote": 40,
      "noteName": "E2",
      "velocity": 0.8031496062992126,
      "duration": "62i"
    },
    {
      "time": "28544i",
      "midiNote": 55,
      "noteName": "G3",
      "velocity": 0.8346456692913385,
      "duration": "14i"
    },
    {
      "time": "28608i",
      "midiNote": 54,
      "noteName": "F#3",
      "velocity": 0.6614173228346457,
      "duration": "62i"
    },
    {
      "time": "28608i",
      "midiNote": 40,
      "noteName": "E2",
      "velocity": 0.6614173228346457,
      "duration": "62i"
    },
    {
      "time": "28608i",
      "midiNote": 54,
      "noteName": "F#3",
      "velocity": 0.8818897637795275,
      "duration": "14i"
    },
    {
      "time": "28736i",
      "midiNote": 40,
      "noteName": "E2",
      "velocity": 0.5669291338582677,
      "duration": "62i"
    },
    {
      "time": "28736i",
      "midiNote": 54,
      "noteName": "F#3",
      "velocity": 0.5669291338582677,
      "duration": "62i"
    },
    {
      "time": "28736i",
      "midiNote": 54,
      "noteName": "F#3",
      "velocity": 0.6299212598425197,
      "duration": "14i"
    },
    {
      "time": "28800i",
      "midiNote": 40,
      "noteName": "E2",
      "velocity": 0.7874015748031497,
      "duration": "62i"
    },
    {
      "time": "28800i",
      "midiNote": 54,
      "noteName": "F#3",
      "velocity": 0.7874015748031497,
      "duration": "62i"
    },
    {
      "time": "28856i",
      "midiNote": 67,
      "noteName": "G4",
      "velocity": 0.5826771653543307,
      "duration": "6i"
    },
    {
      "time": "28856i",
      "midiNote": 61,
      "noteName": "C#4",
      "velocity": 0.5826771653543307,
      "duration": "6i"
    },
    {
      "time": "28864i",
      "midiNote": 40,
      "noteName": "E2",
      "velocity": 1,
      "duration": "62i"
    },
    {
      "time": "28864i",
      "midiNote": 61,
      "noteName": "C#4",
      "velocity": 1,
      "duration": "62i"
    },
    {
      "time": "28864i",
      "midiNote": 67,
      "noteName": "G4",
      "velocity": 1,
      "duration": "62i"
    },
    {
      "time": "28864i",
      "midiNote": 55,
      "noteName": "G3",
      "velocity": 0.7480314960629921,
      "duration": "14i"
    },
    {
      "time": "28896i",
      "midiNote": 56,
      "noteName": "G#3",
      "velocity": 0.6456692913385826,
      "duration": "14i"
    },
    {
      "time": "28928i",
      "midiNote": 40,
      "noteName": "E2",
      "velocity": 0.6771653543307087,
      "duration": "62i"
    },
    {
      "time": "28928i",
      "midiNote": 55,
      "noteName": "G3",
      "velocity": 0.8346456692913385,
      "duration": "14i"
    },
    {
      "time": "28992i",
      "midiNote": 40,
      "noteName": "E2",
      "velocity": 1,
      "duration": "62i"
    },
    {
      "time": "28992i",
      "midiNote": 54,
      "noteName": "F#3",
      "velocity": 1,
      "duration": "62i"
    },
    {
      "time": "28992i",
      "midiNote": 61,
      "noteName": "C#4",
      "velocity": 0.984251968503937,
      "duration": "62i"
    },
    {
      "time": "28992i",
      "midiNote": 67,
      "noteName": "G4",
      "velocity": 1,
      "duration": "62i"
    },
    {
      "time": "28992i",
      "midiNote": 54,
      "noteName": "F#3",
      "velocity": 0.8818897637795275,
      "duration": "14i"
    },
    {
      "time": "29056i",
      "midiNote": 54,
      "noteName": "F#3",
      "velocity": 0.6771653543307087,
      "duration": "62i"
    },
    {
      "time": "29056i",
      "midiNote": 40,
      "noteName": "E2",
      "velocity": 0.6771653543307087,
      "duration": "62i"
    },
    {
      "time": "29120i",
      "midiNote": 40,
      "noteName": "E2",
      "velocity": 0.984251968503937,
      "duration": "62i"
    },
    {
      "time": "29120i",
      "midiNote": 54,
      "noteName": "F#3",
      "velocity": 0.984251968503937,
      "duration": "62i"
    },
    {
      "time": "29120i",
      "midiNote": 61,
      "noteName": "C#4",
      "velocity": 0.984251968503937,
      "duration": "62i"
    },
    {
      "time": "29120i",
      "midiNote": 67,
      "noteName": "G4",
      "velocity": 1,
      "duration": "62i"
    },
    {
      "time": "29120i",
      "midiNote": 54,
      "noteName": "F#3",
      "velocity": 0.6299212598425197,
      "duration": "14i"
    },
    {
      "time": "29184i",
      "midiNote": 54,
      "noteName": "F#3",
      "velocity": 1,
      "duration": "62i"
    },
    {
      "time": "29184i",
      "midiNote": 40,
      "noteName": "E2",
      "velocity": 1,
      "duration": "62i"
    },
    {
      "time": "29248i",
      "midiNote": 40,
      "noteName": "E2",
      "velocity": 0.8818897637795275,
      "duration": "62i"
    },
    {
      "time": "29248i",
      "midiNote": 55,
      "noteName": "G3",
      "velocity": 0.7480314960629921,
      "duration": "14i"
    },
    {
      "time": "29280i",
      "midiNote": 56,
      "noteName": "G#3",
      "velocity": 0.6456692913385826,
      "duration": "14i"
    },
    {
      "time": "29312i",
      "midiNote": 40,
      "noteName": "E2",
      "velocity": 0.8031496062992126,
      "duration": "62i"
    },
    {
      "time": "29312i",
      "midiNote": 55,
      "noteName": "G3",
      "velocity": 0.8346456692913385,
      "duration": "14i"
    },
    {
      "time": "29376i",
      "midiNote": 54,
      "noteName": "F#3",
      "velocity": 0.6614173228346457,
      "duration": "62i"
    },
    {
      "time": "29376i",
      "midiNote": 40,
      "noteName": "E2",
      "velocity": 0.6614173228346457,
      "duration": "62i"
    },
    {
      "time": "29376i",
      "midiNote": 54,
      "noteName": "F#3",
      "velocity": 0.8818897637795275,
      "duration": "14i"
    },
    {
      "time": "29504i",
      "midiNote": 54,
      "noteName": "F#3",
      "velocity": 0.5669291338582677,
      "duration": "62i"
    },
    {
      "time": "29504i",
      "midiNote": 40,
      "noteName": "E2",
      "velocity": 0.5669291338582677,
      "duration": "62i"
    },
    {
      "time": "29504i",
      "midiNote": 54,
      "noteName": "F#3",
      "velocity": 0.6299212598425197,
      "duration": "14i"
    },
    {
      "time": "29568i",
      "midiNote": 54,
      "noteName": "F#3",
      "velocity": 1,
      "duration": "62i"
    },
    {
      "time": "29568i",
      "midiNote": 40,
      "noteName": "E2",
      "velocity": 1,
      "duration": "62i"
    },
    {
      "time": "29632i",
      "midiNote": 40,
      "noteName": "E2",
      "velocity": 0.8818897637795275,
      "duration": "62i"
    },
    {
      "time": "29632i",
      "midiNote": 55,
      "noteName": "G3",
      "velocity": 0.7480314960629921,
      "duration": "14i"
    },
    {
      "time": "29664i",
      "midiNote": 56,
      "noteName": "G#3",
      "velocity": 0.6456692913385826,
      "duration": "14i"
    },
    {
      "time": "29696i",
      "midiNote": 40,
      "noteName": "E2",
      "velocity": 0.8031496062992126,
      "duration": "62i"
    },
    {
      "time": "29696i",
      "midiNote": 55,
      "noteName": "G3",
      "velocity": 0.8346456692913385,
      "duration": "14i"
    },
    {
      "time": "29760i",
      "midiNote": 40,
      "noteName": "E2",
      "velocity": 0.6614173228346457,
      "duration": "62i"
    },
    {
      "time": "29760i",
      "midiNote": 54,
      "noteName": "F#3",
      "velocity": 0.6614173228346457,
      "duration": "62i"
    },
    {
      "time": "29760i",
      "midiNote": 54,
      "noteName": "F#3",
      "velocity": 0.8818897637795275,
      "duration": "14i"
    },
    {
      "time": "29824i",
      "midiNote": 54,
      "noteName": "F#3",
      "velocity": 0.3543307086614173,
      "duration": "62i"
    },
    {
      "time": "29824i",
      "midiNote": 40,
      "noteName": "E2",
      "velocity": 0.3543307086614173,
      "duration": "62i"
    },
    {
      "time": "29888i",
      "midiNote": 40,
      "noteName": "E2",
      "velocity": 0.5669291338582677,
      "duration": "62i"
    },
    {
      "time": "29888i",
      "midiNote": 54,
      "noteName": "F#3",
      "velocity": 0.5669291338582677,
      "duration": "62i"
    },
    {
      "time": "29888i",
      "midiNote": 54,
      "noteName": "F#3",
      "velocity": 0.6299212598425197,
      "duration": "14i"
    },
    {
      "time": "29952i",
      "midiNote": 40,
      "noteName": "E2",
      "velocity": 1,
      "duration": "62i"
    },
    {
      "time": "29952i",
      "midiNote": 54,
      "noteName": "F#3",
      "velocity": 1,
      "duration": "62i"
    },
    {
      "time": "30016i",
      "midiNote": 40,
      "noteName": "E2",
      "velocity": 0.8818897637795275,
      "duration": "62i"
    },
    {
      "time": "30016i",
      "midiNote": 55,
      "noteName": "G3",
      "velocity": 0.7480314960629921,
      "duration": "14i"
    },
    {
      "time": "30048i",
      "midiNote": 56,
      "noteName": "G#3",
      "velocity": 0.6456692913385826,
      "duration": "14i"
    },
    {
      "time": "30080i",
      "midiNote": 40,
      "noteName": "E2",
      "velocity": 0.8031496062992126,
      "duration": "62i"
    },
    {
      "time": "30080i",
      "midiNote": 55,
      "noteName": "G3",
      "velocity": 0.8346456692913385,
      "duration": "14i"
    },
    {
      "time": "30144i",
      "midiNote": 54,
      "noteName": "F#3",
      "velocity": 0.6614173228346457,
      "duration": "62i"
    },
    {
      "time": "30144i",
      "midiNote": 40,
      "noteName": "E2",
      "velocity": 0.6614173228346457,
      "duration": "62i"
    },
    {
      "time": "30144i",
      "midiNote": 54,
      "noteName": "F#3",
      "velocity": 0.8818897637795275,
      "duration": "14i"
    },
    {
      "time": "30272i",
      "midiNote": 40,
      "noteName": "E2",
      "velocity": 0.5669291338582677,
      "duration": "62i"
    },
    {
      "time": "30272i",
      "midiNote": 54,
      "noteName": "F#3",
      "velocity": 0.5669291338582677,
      "duration": "62i"
    },
    {
      "time": "30272i",
      "midiNote": 54,
      "noteName": "F#3",
      "velocity": 0.6299212598425197,
      "duration": "14i"
    },
    {
      "time": "30336i",
      "midiNote": 40,
      "noteName": "E2",
      "velocity": 0.7874015748031497,
      "duration": "62i"
    },
    {
      "time": "30336i",
      "midiNote": 54,
      "noteName": "F#3",
      "velocity": 0.7874015748031497,
      "duration": "62i"
    },
    {
      "time": "30392i",
      "midiNote": 67,
      "noteName": "G4",
      "velocity": 0.5826771653543307,
      "duration": "6i"
    },
    {
      "time": "30392i",
      "midiNote": 61,
      "noteName": "C#4",
      "velocity": 0.5826771653543307,
      "duration": "6i"
    },
    {
      "time": "30400i",
      "midiNote": 40,
      "noteName": "E2",
      "velocity": 1,
      "duration": "62i"
    },
    {
      "time": "30400i",
      "midiNote": 61,
      "noteName": "C#4",
      "velocity": 1,
      "duration": "62i"
    },
    {
      "time": "30400i",
      "midiNote": 67,
      "noteName": "G4",
      "velocity": 1,
      "duration": "62i"
    },
    {
      "time": "30400i",
      "midiNote": 55,
      "noteName": "G3",
      "velocity": 0.7480314960629921,
      "duration": "14i"
    },
    {
      "time": "30432i",
      "midiNote": 56,
      "noteName": "G#3",
      "velocity": 0.6456692913385826,
      "duration": "14i"
    },
    {
      "time": "30464i",
      "midiNote": 40,
      "noteName": "E2",
      "velocity": 0.6771653543307087,
      "duration": "62i"
    },
    {
      "time": "30464i",
      "midiNote": 55,
      "noteName": "G3",
      "velocity": 0.8346456692913385,
      "duration": "14i"
    },
    {
      "time": "30528i",
      "midiNote": 40,
      "noteName": "E2",
      "velocity": 1,
      "duration": "62i"
    },
    {
      "time": "30528i",
      "midiNote": 54,
      "noteName": "F#3",
      "velocity": 1,
      "duration": "62i"
    },
    {
      "time": "30528i",
      "midiNote": 61,
      "noteName": "C#4",
      "velocity": 0.984251968503937,
      "duration": "62i"
    },
    {
      "time": "30528i",
      "midiNote": 67,
      "noteName": "G4",
      "velocity": 1,
      "duration": "62i"
    },
    {
      "time": "30528i",
      "midiNote": 54,
      "noteName": "F#3",
      "velocity": 0.8818897637795275,
      "duration": "14i"
    },
    {
      "time": "30592i",
      "midiNote": 54,
      "noteName": "F#3",
      "velocity": 0.6771653543307087,
      "duration": "62i"
    },
    {
      "time": "30592i",
      "midiNote": 40,
      "noteName": "E2",
      "velocity": 0.6771653543307087,
      "duration": "62i"
    },
    {
      "time": "30656i",
      "midiNote": 54,
      "noteName": "F#3",
      "velocity": 0.6299212598425197,
      "duration": "62i"
    },
    {
      "time": "30656i",
      "midiNote": 40,
      "noteName": "E2",
      "velocity": 0.984251968503937,
      "duration": "62i"
    },
    {
      "time": "30656i",
      "midiNote": 54,
      "noteName": "F#3",
      "velocity": 0.984251968503937,
      "duration": "14i"
    },
    {
      "time": "30656i",
      "midiNote": 61,
      "noteName": "C#4",
      "velocity": 0.984251968503937,
      "duration": "62i"
    },
    {
      "time": "30656i",
      "midiNote": 67,
      "noteName": "G4",
      "velocity": 1,
      "duration": "62i"
    },
    {
      "time": "30720i",
      "midiNote": 54,
      "noteName": "F#3",
      "velocity": 1,
      "duration": "62i"
    },
    {
      "time": "30720i",
      "midiNote": 40,
      "noteName": "E2",
      "velocity": 1,
      "duration": "62i"
    },
    {
      "time": "30784i",
      "midiNote": 40,
      "noteName": "E2",
      "velocity": 0.8818897637795275,
      "duration": "62i"
    },
    {
      "time": "30784i",
      "midiNote": 55,
      "noteName": "G3",
      "velocity": 0.7480314960629921,
      "duration": "14i"
    },
    {
      "time": "30816i",
      "midiNote": 56,
      "noteName": "G#3",
      "velocity": 0.6456692913385826,
      "duration": "14i"
    },
    {
      "time": "30848i",
      "midiNote": 40,
      "noteName": "E2",
      "velocity": 0.8031496062992126,
      "duration": "62i"
    },
    {
      "time": "30848i",
      "midiNote": 55,
      "noteName": "G3",
      "velocity": 0.8346456692913385,
      "duration": "14i"
    },
    {
      "time": "30912i",
      "midiNote": 54,
      "noteName": "F#3",
      "velocity": 0.6614173228346457,
      "duration": "62i"
    },
    {
      "time": "30912i",
      "midiNote": 40,
      "noteName": "E2",
      "velocity": 0.6614173228346457,
      "duration": "62i"
    },
    {
      "time": "30912i",
      "midiNote": 54,
      "noteName": "F#3",
      "velocity": 0.8818897637795275,
      "duration": "14i"
    },
    {
      "time": "31040i",
      "midiNote": 54,
      "noteName": "F#3",
      "velocity": 0.5669291338582677,
      "duration": "62i"
    },
    {
      "time": "31040i",
      "midiNote": 40,
      "noteName": "E2",
      "velocity": 0.5669291338582677,
      "duration": "62i"
    },
    {
      "time": "31040i",
      "midiNote": 54,
      "noteName": "F#3",
      "velocity": 0.6299212598425197,
      "duration": "14i"
    },
    {
      "time": "31104i",
      "midiNote": 54,
      "noteName": "F#3",
      "velocity": 1,
      "duration": "62i"
    },
    {
      "time": "31104i",
      "midiNote": 40,
      "noteName": "E2",
      "velocity": 1,
      "duration": "62i"
    },
    {
      "time": "31168i",
      "midiNote": 40,
      "noteName": "E2",
      "velocity": 0.8818897637795275,
      "duration": "62i"
    },
    {
      "time": "31168i",
      "midiNote": 55,
      "noteName": "G3",
      "velocity": 0.7480314960629921,
      "duration": "14i"
    },
    {
      "time": "31200i",
      "midiNote": 56,
      "noteName": "G#3",
      "velocity": 0.6456692913385826,
      "duration": "14i"
    },
    {
      "time": "31232i",
      "midiNote": 40,
      "noteName": "E2",
      "velocity": 0.8031496062992126,
      "duration": "62i"
    },
    {
      "time": "31232i",
      "midiNote": 55,
      "noteName": "G3",
      "velocity": 0.8346456692913385,
      "duration": "14i"
    },
    {
      "time": "31296i",
      "midiNote": 40,
      "noteName": "E2",
      "velocity": 0.6614173228346457,
      "duration": "62i"
    },
    {
      "time": "31296i",
      "midiNote": 54,
      "noteName": "F#3",
      "velocity": 0.6614173228346457,
      "duration": "62i"
    },
    {
      "time": "31296i",
      "midiNote": 54,
      "noteName": "F#3",
      "velocity": 0.8818897637795275,
      "duration": "14i"
    },
    {
      "time": "31360i",
      "midiNote": 54,
      "noteName": "F#3",
      "velocity": 0.3543307086614173,
      "duration": "62i"
    },
    {
      "time": "31360i",
      "midiNote": 40,
      "noteName": "E2",
      "velocity": 0.3543307086614173,
      "duration": "62i"
    },
    {
      "time": "31424i",
      "midiNote": 54,
      "noteName": "F#3",
      "velocity": 0.6299212598425197,
      "duration": "62i"
    },
    {
      "time": "31424i",
      "midiNote": 40,
      "noteName": "E2",
      "velocity": 0.5669291338582677,
      "duration": "62i"
    },
    {
      "time": "31424i",
      "midiNote": 54,
      "noteName": "F#3",
      "velocity": 0.5669291338582677,
      "duration": "14i"
    },
    {
      "time": "31488i",
      "midiNote": 40,
      "noteName": "E2",
      "velocity": 1,
      "duration": "62i"
    },
    {
      "time": "31488i",
      "midiNote": 54,
      "noteName": "F#3",
      "velocity": 1,
      "duration": "62i"
    },
    {
      "time": "31552i",
      "midiNote": 55,
      "noteName": "G3",
      "velocity": 0.7480314960629921,
      "duration": "14i"
    },
    {
      "time": "31552i",
      "midiNote": 40,
      "noteName": "E2",
      "velocity": 0.8818897637795275,
      "duration": "62i"
    },
    {
      "time": "31584i",
      "midiNote": 56,
      "noteName": "G#3",
      "velocity": 0.6456692913385826,
      "duration": "14i"
    },
    {
      "time": "31616i",
      "midiNote": 55,
      "noteName": "G3",
      "velocity": 0.8346456692913385,
      "duration": "14i"
    },
    {
      "time": "31616i",
      "midiNote": 40,
      "noteName": "E2",
      "velocity": 0.8031496062992126,
      "duration": "62i"
    },
    {
      "time": "31680i",
      "midiNote": 54,
      "noteName": "F#3",
      "velocity": 0.8818897637795275,
      "duration": "62i"
    },
    {
      "time": "31680i",
      "midiNote": 54,
      "noteName": "F#3",
      "velocity": 0.6614173228346457,
      "duration": "14i"
    },
    {
      "time": "31680i",
      "midiNote": 40,
      "noteName": "E2",
      "velocity": 0.6614173228346457,
      "duration": "62i"
    },
    {
      "time": "31808i",
      "midiNote": 54,
      "noteName": "F#3",
      "velocity": 0.6299212598425197,
      "duration": "62i"
    },
    {
      "time": "31808i",
      "midiNote": 40,
      "noteName": "E2",
      "velocity": 0.5669291338582677,
      "duration": "62i"
    },
    {
      "time": "31808i",
      "midiNote": 54,
      "noteName": "F#3",
      "velocity": 0.5669291338582677,
      "duration": "14i"
    },
    {
      "time": "31872i",
      "midiNote": 40,
      "noteName": "E2",
      "velocity": 0.7874015748031497,
      "duration": "62i"
    },
    {
      "time": "31872i",
      "midiNote": 54,
      "noteName": "F#3",
      "velocity": 0.7874015748031497,
      "duration": "62i"
    },
    {
      "time": "31928i",
      "midiNote": 67,
      "noteName": "G4",
      "velocity": 0.5826771653543307,
      "duration": "6i"
    },
    {
      "time": "31928i",
      "midiNote": 61,
      "noteName": "C#4",
      "velocity": 0.5826771653543307,
      "duration": "6i"
    },
    {
      "time": "31936i",
      "midiNote": 55,
      "noteName": "G3",
      "velocity": 0.7480314960629921,
      "duration": "14i"
    },
    {
      "time": "31936i",
      "midiNote": 40,
      "noteName": "E2",
      "velocity": 1,
      "duration": "62i"
    },
    {
      "time": "31936i",
      "midiNote": 61,
      "noteName": "C#4",
      "velocity": 1,
      "duration": "62i"
    },
    {
      "time": "31936i",
      "midiNote": 67,
      "noteName": "G4",
      "velocity": 1,
      "duration": "62i"
    },
    {
      "time": "31968i",
      "midiNote": 56,
      "noteName": "G#3",
      "velocity": 0.6456692913385826,
      "duration": "14i"
    },
    {
      "time": "32000i",
      "midiNote": 55,
      "noteName": "G3",
      "velocity": 0.8346456692913385,
      "duration": "14i"
    },
    {
      "time": "32000i",
      "midiNote": 40,
      "noteName": "E2",
      "velocity": 0.6771653543307087,
      "duration": "62i"
    },
    {
      "time": "32064i",
      "midiNote": 54,
      "noteName": "F#3",
      "velocity": 0.8818897637795275,
      "duration": "62i"
    },
    {
      "time": "32064i",
      "midiNote": 40,
      "noteName": "E2",
      "velocity": 1,
      "duration": "62i"
    },
    {
      "time": "32064i",
      "midiNote": 54,
      "noteName": "F#3",
      "velocity": 1,
      "duration": "14i"
    },
    {
      "time": "32064i",
      "midiNote": 61,
      "noteName": "C#4",
      "velocity": 0.984251968503937,
      "duration": "62i"
    },
    {
      "time": "32064i",
      "midiNote": 67,
      "noteName": "G4",
      "velocity": 1,
      "duration": "62i"
    },
    {
      "time": "32128i",
      "midiNote": 54,
      "noteName": "F#3",
      "velocity": 0.6771653543307087,
      "duration": "62i"
    },
    {
      "time": "32128i",
      "midiNote": 40,
      "noteName": "E2",
      "velocity": 0.6771653543307087,
      "duration": "62i"
    },
    {
      "time": "32192i",
      "midiNote": 54,
      "noteName": "F#3",
      "velocity": 0.6299212598425197,
      "duration": "62i"
    },
    {
      "time": "32192i",
      "midiNote": 40,
      "noteName": "E2",
      "velocity": 0.984251968503937,
      "duration": "62i"
    },
    {
      "time": "32192i",
      "midiNote": 54,
      "noteName": "F#3",
      "velocity": 0.984251968503937,
      "duration": "14i"
    },
    {
      "time": "32192i",
      "midiNote": 61,
      "noteName": "C#4",
      "velocity": 0.984251968503937,
      "duration": "62i"
    },
    {
      "time": "32192i",
      "midiNote": 67,
      "noteName": "G4",
      "velocity": 1,
      "duration": "62i"
    },
    {
      "time": "32256i",
      "midiNote": 54,
      "noteName": "F#3",
      "velocity": 1,
      "duration": "62i"
    },
    {
      "time": "32256i",
      "midiNote": 47,
      "noteName": "B2",
      "velocity": 1,
      "duration": "62i"
    },
    {
      "time": "32256i",
      "midiNote": 40,
      "noteName": "E2",
      "velocity": 1,
      "duration": "62i"
    },
    {
      "time": "32320i",
      "midiNote": 40,
      "noteName": "E2",
      "velocity": 0.8818897637795275,
      "duration": "62i"
    },
    {
      "time": "32320i",
      "midiNote": 47,
      "noteName": "B2",
      "velocity": 0.8818897637795275,
      "duration": "62i"
    },
    {
      "time": "32320i",
      "midiNote": 55,
      "noteName": "G3",
      "velocity": 0.7480314960629921,
      "duration": "14i"
    },
    {
      "time": "32320i",
      "midiNote": 58,
      "noteName": "A#3",
      "velocity": 0.7480314960629921,
      "duration": "14i"
    },
    {
      "time": "32352i",
      "midiNote": 56,
      "noteName": "G#3",
      "velocity": 0.6456692913385826,
      "duration": "14i"
    },
    {
      "time": "32352i",
      "midiNote": 59,
      "noteName": "B3",
      "velocity": 0.6456692913385826,
      "duration": "14i"
    },
    {
      "time": "32384i",
      "midiNote": 40,
      "noteName": "E2",
      "velocity": 0.8031496062992126,
      "duration": "62i"
    },
    {
      "time": "32384i",
      "midiNote": 47,
      "noteName": "B2",
      "velocity": 0.8031496062992126,
      "duration": "62i"
    },
    {
      "time": "32384i",
      "midiNote": 58,
      "noteName": "A#3",
      "velocity": 0.8346456692913385,
      "duration": "14i"
    },
    {
      "time": "32384i",
      "midiNote": 55,
      "noteName": "G3",
      "velocity": 0.8346456692913385,
      "duration": "14i"
    },
    {
      "time": "32448i",
      "midiNote": 54,
      "noteName": "F#3",
      "velocity": 0.6614173228346457,
      "duration": "62i"
    },
    {
      "time": "32448i",
      "midiNote": 47,
      "noteName": "B2",
      "velocity": 0.6614173228346457,
      "duration": "62i"
    },
    {
      "time": "32448i",
      "midiNote": 40,
      "noteName": "E2",
      "velocity": 0.6614173228346457,
      "duration": "62i"
    },
    {
      "time": "32448i",
      "midiNote": 57,
      "noteName": "A3",
      "velocity": 0.8818897637795275,
      "duration": "14i"
    },
    {
      "time": "32448i",
      "midiNote": 54,
      "noteName": "F#3",
      "velocity": 0.8818897637795275,
      "duration": "14i"
    },
    {
      "time": "32576i",
      "midiNote": 54,
      "noteName": "F#3",
      "velocity": 0.5669291338582677,
      "duration": "62i"
    },
    {
      "time": "32576i",
      "midiNote": 47,
      "noteName": "B2",
      "velocity": 0.5669291338582677,
      "duration": "62i"
    },
    {
      "time": "32576i",
      "midiNote": 40,
      "noteName": "E2",
      "velocity": 0.5669291338582677,
      "duration": "62i"
    },
    {
      "time": "32576i",
      "midiNote": 54,
      "noteName": "F#3",
      "velocity": 0.6299212598425197,
      "duration": "14i"
    },
    {
      "time": "32576i",
      "midiNote": 57,
      "noteName": "A3",
      "velocity": 0.6299212598425197,
      "duration": "14i"
    },
    {
      "time": "32640i",
      "midiNote": 40,
      "noteName": "E2",
      "velocity": 1,
      "duration": "62i"
    },
    {
      "time": "32640i",
      "midiNote": 47,
      "noteName": "B2",
      "velocity": 1,
      "duration": "62i"
    },
    {
      "time": "32640i",
      "midiNote": 54,
      "noteName": "F#3",
      "velocity": 1,
      "duration": "62i"
    },
    {
      "time": "32704i",
      "midiNote": 47,
      "noteName": "B2",
      "velocity": 0.8818897637795275,
      "duration": "62i"
    },
    {
      "time": "32704i",
      "midiNote": 40,
      "noteName": "E2",
      "velocity": 0.8818897637795275,
      "duration": "62i"
    },
    {
      "time": "32704i",
      "midiNote": 58,
      "noteName": "A#3",
      "velocity": 0.7480314960629921,
      "duration": "14i"
    },
    {
      "time": "32704i",
      "midiNote": 55,
      "noteName": "G3",
      "velocity": 0.7480314960629921,
      "duration": "14i"
    },
    {
      "time": "32736i",
      "midiNote": 56,
      "noteName": "G#3",
      "velocity": 0.6456692913385826,
      "duration": "14i"
    },
    {
      "time": "32736i",
      "midiNote": 59,
      "noteName": "B3",
      "velocity": 0.6456692913385826,
      "duration": "14i"
    },
    {
      "time": "32768i",
      "midiNote": 40,
      "noteName": "E2",
      "velocity": 0.8031496062992126,
      "duration": "62i"
    },
    {
      "time": "32768i",
      "midiNote": 47,
      "noteName": "B2",
      "velocity": 0.8031496062992126,
      "duration": "62i"
    },
    {
      "time": "32768i",
      "midiNote": 55,
      "noteName": "G3",
      "velocity": 0.8346456692913385,
      "duration": "14i"
    },
    {
      "time": "32768i",
      "midiNote": 58,
      "noteName": "A#3",
      "velocity": 0.8346456692913385,
      "duration": "14i"
    },
    {
      "time": "32832i",
      "midiNote": 40,
      "noteName": "E2",
      "velocity": 0.6614173228346457,
      "duration": "62i"
    },
    {
      "time": "32832i",
      "midiNote": 47,
      "noteName": "B2",
      "velocity": 0.6614173228346457,
      "duration": "62i"
    },
    {
      "time": "32832i",
      "midiNote": 54,
      "noteName": "F#3",
      "velocity": 0.6614173228346457,
      "duration": "62i"
    },
    {
      "time": "32832i",
      "midiNote": 54,
      "noteName": "F#3",
      "velocity": 0.8818897637795275,
      "duration": "14i"
    },
    {
      "time": "32832i",
      "midiNote": 57,
      "noteName": "A3",
      "velocity": 0.8818897637795275,
      "duration": "14i"
    },
    {
      "time": "32896i",
      "midiNote": 54,
      "noteName": "F#3",
      "velocity": 0.3543307086614173,
      "duration": "62i"
    },
    {
      "time": "32896i",
      "midiNote": 47,
      "noteName": "B2",
      "velocity": 0.3543307086614173,
      "duration": "62i"
    },
    {
      "time": "32896i",
      "midiNote": 40,
      "noteName": "E2",
      "velocity": 0.3543307086614173,
      "duration": "62i"
    },
    {
      "time": "32960i",
      "midiNote": 40,
      "noteName": "E2",
      "velocity": 0.5669291338582677,
      "duration": "62i"
    },
    {
      "time": "32960i",
      "midiNote": 47,
      "noteName": "B2",
      "velocity": 0.5669291338582677,
      "duration": "62i"
    },
    {
      "time": "32960i",
      "midiNote": 54,
      "noteName": "F#3",
      "velocity": 0.5669291338582677,
      "duration": "62i"
    },
    {
      "time": "32960i",
      "midiNote": 54,
      "noteName": "F#3",
      "velocity": 0.6299212598425197,
      "duration": "14i"
    },
    {
      "time": "32960i",
      "midiNote": 57,
      "noteName": "A3",
      "velocity": 0.6299212598425197,
      "duration": "14i"
    },
    {
      "time": "33024i",
      "midiNote": 40,
      "noteName": "E2",
      "velocity": 1,
      "duration": "62i"
    },
    {
      "time": "33024i",
      "midiNote": 47,
      "noteName": "B2",
      "velocity": 1,
      "duration": "62i"
    },
    {
      "time": "33024i",
      "midiNote": 54,
      "noteName": "F#3",
      "velocity": 1,
      "duration": "62i"
    }
  ],
  [
    {
      "time": "8i",
      "midiNote": 40,
      "noteName": "E2",
      "velocity": 1,
      "duration": "62i"
    },
    {
      "time": "8i",
      "midiNote": 54,
      "noteName": "F#3",
      "velocity": 1,
      "duration": "62i"
    },
    {
      "time": "72i",
      "midiNote": 40,
      "noteName": "E2",
      "velocity": 0.8818897637795275,
      "duration": "62i"
    },
    {
      "time": "136i",
      "midiNote": 40,
      "noteName": "E2",
      "velocity": 0.8031496062992126,
      "duration": "62i"
    },
    {
      "time": "200i",
      "midiNote": 40,
      "noteName": "E2",
      "velocity": 0.6614173228346457,
      "duration": "62i"
    },
    {
      "time": "200i",
      "midiNote": 54,
      "noteName": "F#3",
      "velocity": 0.6614173228346457,
      "duration": "62i"
    },
    {
      "time": "328i",
      "midiNote": 40,
      "noteName": "E2",
      "velocity": 0.5669291338582677,
      "duration": "62i"
    },
    {
      "time": "328i",
      "midiNote": 54,
      "noteName": "F#3",
      "velocity": 0.5669291338582677,
      "duration": "62i"
    },
    {
      "time": "392i",
      "midiNote": 40,
      "noteName": "E2",
      "velocity": 1,
      "duration": "62i"
    },
    {
      "time": "392i",
      "midiNote": 54,
      "noteName": "F#3",
      "velocity": 1,
      "duration": "62i"
    },
    {
      "time": "456i",
      "midiNote": 40,
      "noteName": "E2",
      "velocity": 0.8818897637795275,
      "duration": "62i"
    },
    {
      "time": "520i",
      "midiNote": 40,
      "noteName": "E2",
      "velocity": 0.8031496062992126,
      "duration": "62i"
    },
    {
      "time": "584i",
      "midiNote": 40,
      "noteName": "E2",
      "velocity": 0.6614173228346457,
      "duration": "62i"
    },
    {
      "time": "584i",
      "midiNote": 54,
      "noteName": "F#3",
      "velocity": 0.6614173228346457,
      "duration": "62i"
    },
    {
      "time": "648i",
      "midiNote": 54,
      "noteName": "F#3",
      "velocity": 0.3543307086614173,
      "duration": "62i"
    },
    {
      "time": "648i",
      "midiNote": 40,
      "noteName": "E2",
      "velocity": 0.3543307086614173,
      "duration": "62i"
    },
    {
      "time": "712i",
      "midiNote": 40,
      "noteName": "E2",
      "velocity": 0.5669291338582677,
      "duration": "62i"
    },
    {
      "time": "712i",
      "midiNote": 54,
      "noteName": "F#3",
      "velocity": 0.5669291338582677,
      "duration": "62i"
    },
    {
      "time": "776i",
      "midiNote": 40,
      "noteName": "E2",
      "velocity": 1,
      "duration": "62i"
    },
    {
      "time": "776i",
      "midiNote": 54,
      "noteName": "F#3",
      "velocity": 1,
      "duration": "62i"
    },
    {
      "time": "840i",
      "midiNote": 40,
      "noteName": "E2",
      "velocity": 0.8818897637795275,
      "duration": "62i"
    },
    {
      "time": "904i",
      "midiNote": 40,
      "noteName": "E2",
      "velocity": 0.8031496062992126,
      "duration": "62i"
    },
    {
      "time": "968i",
      "midiNote": 54,
      "noteName": "F#3",
      "velocity": 0.6614173228346457,
      "duration": "62i"
    },
    {
      "time": "968i",
      "midiNote": 40,
      "noteName": "E2",
      "velocity": 0.6614173228346457,
      "duration": "62i"
    },
    {
      "time": "1096i",
      "midiNote": 40,
      "noteName": "E2",
      "velocity": 0.5669291338582677,
      "duration": "62i"
    },
    {
      "time": "1096i",
      "midiNote": 54,
      "noteName": "F#3",
      "velocity": 0.5669291338582677,
      "duration": "62i"
    },
    {
      "time": "1160i",
      "midiNote": 54,
      "noteName": "F#3",
      "velocity": 0.7480314960629921,
      "duration": "62i"
    },
    {
      "time": "1160i",
      "midiNote": 40,
      "noteName": "E2",
      "velocity": 0.7480314960629921,
      "duration": "62i"
    },
    {
      "time": "1224i",
      "midiNote": 40,
      "noteName": "E2",
      "velocity": 0.984251968503937,
      "duration": "62i"
    },
    {
      "time": "1288i",
      "midiNote": 40,
      "noteName": "E2",
      "velocity": 0.7244094488188977,
      "duration": "62i"
    },
    {
      "time": "1352i",
      "midiNote": 40,
      "noteName": "E2",
      "velocity": 1,
      "duration": "62i"
    },
    {
      "time": "1352i",
      "midiNote": 54,
      "noteName": "F#3",
      "velocity": 1,
      "duration": "62i"
    },
    {
      "time": "1416i",
      "midiNote": 40,
      "noteName": "E2",
      "velocity": 0.7480314960629921,
      "duration": "62i"
    },
    {
      "time": "1480i",
      "midiNote": 54,
      "noteName": "F#3",
      "velocity": 0.5669291338582677,
      "duration": "62i"
    },
    {
      "time": "1480i",
      "midiNote": 40,
      "noteName": "E2",
      "velocity": 0.5669291338582677,
      "duration": "62i"
    },
    {
      "time": "1544i",
      "midiNote": 40,
      "noteName": "E2",
      "velocity": 1,
      "duration": "62i"
    },
    {
      "time": "1544i",
      "midiNote": 47,
      "noteName": "B2",
      "velocity": 1,
      "duration": "62i"
    },
    {
      "time": "1608i",
      "midiNote": 47,
      "noteName": "B2",
      "velocity": 0.8818897637795275,
      "duration": "62i"
    },
    {
      "time": "1608i",
      "midiNote": 40,
      "noteName": "E2",
      "velocity": 0.8818897637795275,
      "duration": "62i"
    },
    {
      "time": "1672i",
      "midiNote": 47,
      "noteName": "B2",
      "velocity": 0.8031496062992126,
      "duration": "62i"
    },
    {
      "time": "1672i",
      "midiNote": 40,
      "noteName": "E2",
      "velocity": 0.8031496062992126,
      "duration": "62i"
    },
    {
      "time": "1736i",
      "midiNote": 40,
      "noteName": "E2",
      "velocity": 0.6614173228346457,
      "duration": "62i"
    },
    {
      "time": "1736i",
      "midiNote": 47,
      "noteName": "B2",
      "velocity": 0.6614173228346457,
      "duration": "62i"
    },
    {
      "time": "1864i",
      "midiNote": 40,
      "noteName": "E2",
      "velocity": 0.5669291338582677,
      "duration": "62i"
    },
    {
      "time": "1864i",
      "midiNote": 47,
      "noteName": "B2",
      "velocity": 0.5669291338582677,
      "duration": "62i"
    },
    {
      "time": "1928i",
      "midiNote": 40,
      "noteName": "E2",
      "velocity": 1,
      "duration": "62i"
    },
    {
      "time": "1928i",
      "midiNote": 47,
      "noteName": "B2",
      "velocity": 1,
      "duration": "62i"
    },
    {
      "time": "1992i",
      "midiNote": 40,
      "noteName": "E2",
      "velocity": 0.8818897637795275,
      "duration": "62i"
    },
    {
      "time": "1992i",
      "midiNote": 47,
      "noteName": "B2",
      "velocity": 0.8818897637795275,
      "duration": "62i"
    },
    {
      "time": "2056i",
      "midiNote": 47,
      "noteName": "B2",
      "velocity": 0.8031496062992126,
      "duration": "62i"
    },
    {
      "time": "2056i",
      "midiNote": 40,
      "noteName": "E2",
      "velocity": 0.8031496062992126,
      "duration": "62i"
    },
    {
      "time": "2120i",
      "midiNote": 47,
      "noteName": "B2",
      "velocity": 0.6614173228346457,
      "duration": "62i"
    },
    {
      "time": "2120i",
      "midiNote": 40,
      "noteName": "E2",
      "velocity": 0.6614173228346457,
      "duration": "62i"
    },
    {
      "time": "2184i",
      "midiNote": 40,
      "noteName": "E2",
      "velocity": 0.3543307086614173,
      "duration": "62i"
    },
    {
      "time": "2184i",
      "midiNote": 47,
      "noteName": "B2",
      "velocity": 0.3543307086614173,
      "duration": "62i"
    },
    {
      "time": "2248i",
      "midiNote": 47,
      "noteName": "B2",
      "velocity": 0.5669291338582677,
      "duration": "62i"
    },
    {
      "time": "2248i",
      "midiNote": 40,
      "noteName": "E2",
      "velocity": 0.5669291338582677,
      "duration": "62i"
    },
    {
      "time": "2312i",
      "midiNote": 47,
      "noteName": "B2",
      "velocity": 1,
      "duration": "62i"
    },
    {
      "time": "2312i",
      "midiNote": 40,
      "noteName": "E2",
      "velocity": 1,
      "duration": "62i"
    },
    {
      "time": "2376i",
      "midiNote": 40,
      "noteName": "E2",
      "velocity": 0.8818897637795275,
      "duration": "62i"
    },
    {
      "time": "2376i",
      "midiNote": 47,
      "noteName": "B2",
      "velocity": 0.8818897637795275,
      "duration": "62i"
    },
    {
      "time": "2440i",
      "midiNote": 47,
      "noteName": "B2",
      "velocity": 0.8031496062992126,
      "duration": "62i"
    },
    {
      "time": "2440i",
      "midiNote": 40,
      "noteName": "E2",
      "velocity": 0.8031496062992126,
      "duration": "62i"
    },
    {
      "time": "2504i",
      "midiNote": 40,
      "noteName": "E2",
      "velocity": 0.6614173228346457,
      "duration": "62i"
    },
    {
      "time": "2504i",
      "midiNote": 47,
      "noteName": "B2",
      "velocity": 0.6614173228346457,
      "duration": "62i"
    },
    {
      "time": "2632i",
      "midiNote": 47,
      "noteName": "B2",
      "velocity": 0.5669291338582677,
      "duration": "62i"
    },
    {
      "time": "2632i",
      "midiNote": 40,
      "noteName": "E2",
      "velocity": 0.5669291338582677,
      "duration": "62i"
    },
    {
      "time": "2696i",
      "midiNote": 47,
      "noteName": "B2",
      "velocity": 0.7874015748031497,
      "duration": "62i"
    },
    {
      "time": "2696i",
      "midiNote": 40,
      "noteName": "E2",
      "velocity": 0.7874015748031497,
      "duration": "62i"
    },
    {
      "time": "2752i",
      "midiNote": 61,
      "noteName": "C#4",
      "velocity": 0.5826771653543307,
      "duration": "6i"
    },
    {
      "time": "2752i",
      "midiNote": 67,
      "noteName": "G4",
      "velocity": 0.5826771653543307,
      "duration": "6i"
    },
    {
      "time": "2760i",
      "midiNote": 67,
      "noteName": "G4",
      "velocity": 1,
      "duration": "62i"
    },
    {
      "time": "2760i",
      "midiNote": 61,
      "noteName": "C#4",
      "velocity": 1,
      "duration": "62i"
    },
    {
      "time": "2760i",
      "midiNote": 47,
      "noteName": "B2",
      "velocity": 1,
      "duration": "62i"
    },
    {
      "time": "2760i",
      "midiNote": 40,
      "noteName": "E2",
      "velocity": 1,
      "duration": "62i"
    },
    {
      "time": "2824i",
      "midiNote": 40,
      "noteName": "E2",
      "velocity": 0.6771653543307087,
      "duration": "62i"
    },
    {
      "time": "2824i",
      "midiNote": 47,
      "noteName": "B2",
      "velocity": 0.6771653543307087,
      "duration": "62i"
    },
    {
      "time": "2888i",
      "midiNote": 67,
      "noteName": "G4",
      "velocity": 1,
      "duration": "62i"
    },
    {
      "time": "2888i",
      "midiNote": 61,
      "noteName": "C#4",
      "velocity": 0.984251968503937,
      "duration": "62i"
    },
    {
      "time": "2888i",
      "midiNote": 47,
      "noteName": "B2",
      "velocity": 1,
      "duration": "62i"
    },
    {
      "time": "2888i",
      "midiNote": 40,
      "noteName": "E2",
      "velocity": 1,
      "duration": "62i"
    },
    {
      "time": "2952i",
      "midiNote": 40,
      "noteName": "E2",
      "velocity": 0.6771653543307087,
      "duration": "62i"
    },
    {
      "time": "2952i",
      "midiNote": 47,
      "noteName": "B2",
      "velocity": 0.6771653543307087,
      "duration": "62i"
    },
    {
      "time": "3016i",
      "midiNote": 67,
      "noteName": "G4",
      "velocity": 1,
      "duration": "62i"
    },
    {
      "time": "3016i",
      "midiNote": 61,
      "noteName": "C#4",
      "velocity": 0.984251968503937,
      "duration": "62i"
    },
    {
      "time": "3016i",
      "midiNote": 47,
      "noteName": "B2",
      "velocity": 0.984251968503937,
      "duration": "62i"
    },
    {
      "time": "3016i",
      "midiNote": 40,
      "noteName": "E2",
      "velocity": 0.984251968503937,
      "duration": "62i"
    },
    {
      "time": "3080i",
      "midiNote": 40,
      "noteName": "E2",
      "velocity": 1,
      "duration": "62i"
    },
    {
      "time": "3080i",
      "midiNote": 54,
      "noteName": "F#3",
      "velocity": 1,
      "duration": "62i"
    },
    {
      "time": "3144i",
      "midiNote": 40,
      "noteName": "E2",
      "velocity": 0.8818897637795275,
      "duration": "62i"
    },
    {
      "time": "3208i",
      "midiNote": 40,
      "noteName": "E2",
      "velocity": 0.8031496062992126,
      "duration": "62i"
    },
    {
      "time": "3272i",
      "midiNote": 40,
      "noteName": "E2",
      "velocity": 0.6614173228346457,
      "duration": "62i"
    },
    {
      "time": "3272i",
      "midiNote": 54,
      "noteName": "F#3",
      "velocity": 0.6614173228346457,
      "duration": "62i"
    },
    {
      "time": "3400i",
      "midiNote": 40,
      "noteName": "E2",
      "velocity": 0.5669291338582677,
      "duration": "62i"
    },
    {
      "time": "3400i",
      "midiNote": 54,
      "noteName": "F#3",
      "velocity": 0.5669291338582677,
      "duration": "62i"
    },
    {
      "time": "3464i",
      "midiNote": 40,
      "noteName": "E2",
      "velocity": 1,
      "duration": "62i"
    },
    {
      "time": "3464i",
      "midiNote": 54,
      "noteName": "F#3",
      "velocity": 1,
      "duration": "62i"
    },
    {
      "time": "3528i",
      "midiNote": 40,
      "noteName": "E2",
      "velocity": 0.8818897637795275,
      "duration": "62i"
    },
    {
      "time": "3592i",
      "midiNote": 40,
      "noteName": "E2",
      "velocity": 0.8031496062992126,
      "duration": "62i"
    },
    {
      "time": "3656i",
      "midiNote": 40,
      "noteName": "E2",
      "velocity": 0.6614173228346457,
      "duration": "62i"
    },
    {
      "time": "3656i",
      "midiNote": 54,
      "noteName": "F#3",
      "velocity": 0.6614173228346457,
      "duration": "62i"
    },
    {
      "time": "3720i",
      "midiNote": 54,
      "noteName": "F#3",
      "velocity": 0.3543307086614173,
      "duration": "62i"
    },
    {
      "time": "3720i",
      "midiNote": 40,
      "noteName": "E2",
      "velocity": 0.3543307086614173,
      "duration": "62i"
    },
    {
      "time": "3784i",
      "midiNote": 40,
      "noteName": "E2",
      "velocity": 0.5669291338582677,
      "duration": "62i"
    },
    {
      "time": "3784i",
      "midiNote": 54,
      "noteName": "F#3",
      "velocity": 0.5669291338582677,
      "duration": "62i"
    },
    {
      "time": "3848i",
      "midiNote": 40,
      "noteName": "E2",
      "velocity": 1,
      "duration": "62i"
    },
    {
      "time": "3848i",
      "midiNote": 54,
      "noteName": "F#3",
      "velocity": 1,
      "duration": "62i"
    },
    {
      "time": "3912i",
      "midiNote": 40,
      "noteName": "E2",
      "velocity": 0.8818897637795275,
      "duration": "62i"
    },
    {
      "time": "3976i",
      "midiNote": 40,
      "noteName": "E2",
      "velocity": 0.8031496062992126,
      "duration": "62i"
    },
    {
      "time": "4040i",
      "midiNote": 54,
      "noteName": "F#3",
      "velocity": 0.6614173228346457,
      "duration": "62i"
    },
    {
      "time": "4040i",
      "midiNote": 40,
      "noteName": "E2",
      "velocity": 0.6614173228346457,
      "duration": "62i"
    },
    {
      "time": "4168i",
      "midiNote": 40,
      "noteName": "E2",
      "velocity": 0.5669291338582677,
      "duration": "62i"
    },
    {
      "time": "4168i",
      "midiNote": 54,
      "noteName": "F#3",
      "velocity": 0.5669291338582677,
      "duration": "62i"
    },
    {
      "time": "4232i",
      "midiNote": 54,
      "noteName": "F#3",
      "velocity": 0.7480314960629921,
      "duration": "62i"
    },
    {
      "time": "4232i",
      "midiNote": 40,
      "noteName": "E2",
      "velocity": 0.7480314960629921,
      "duration": "62i"
    },
    {
      "time": "4296i",
      "midiNote": 40,
      "noteName": "E2",
      "velocity": 0.984251968503937,
      "duration": "62i"
    },
    {
      "time": "4360i",
      "midiNote": 40,
      "noteName": "E2",
      "velocity": 0.7244094488188977,
      "duration": "62i"
    },
    {
      "time": "4424i",
      "midiNote": 40,
      "noteName": "E2",
      "velocity": 1,
      "duration": "62i"
    },
    {
      "time": "4424i",
      "midiNote": 54,
      "noteName": "F#3",
      "velocity": 1,
      "duration": "62i"
    },
    {
      "time": "4488i",
      "midiNote": 40,
      "noteName": "E2",
      "velocity": 0.7480314960629921,
      "duration": "62i"
    },
    {
      "time": "4552i",
      "midiNote": 54,
      "noteName": "F#3",
      "velocity": 0.5669291338582677,
      "duration": "62i"
    },
    {
      "time": "4552i",
      "midiNote": 40,
      "noteName": "E2",
      "velocity": 0.5669291338582677,
      "duration": "62i"
    },
    {
      "time": "4616i",
      "midiNote": 40,
      "noteName": "E2",
      "velocity": 1,
      "duration": "62i"
    },
    {
      "time": "4616i",
      "midiNote": 47,
      "noteName": "B2",
      "velocity": 1,
      "duration": "62i"
    },
    {
      "time": "4680i",
      "midiNote": 47,
      "noteName": "B2",
      "velocity": 0.8818897637795275,
      "duration": "62i"
    },
    {
      "time": "4680i",
      "midiNote": 40,
      "noteName": "E2",
      "velocity": 0.8818897637795275,
      "duration": "62i"
    },
    {
      "time": "4744i",
      "midiNote": 47,
      "noteName": "B2",
      "velocity": 0.8031496062992126,
      "duration": "62i"
    },
    {
      "time": "4744i",
      "midiNote": 40,
      "noteName": "E2",
      "velocity": 0.8031496062992126,
      "duration": "62i"
    },
    {
      "time": "4808i",
      "midiNote": 40,
      "noteName": "E2",
      "velocity": 0.6614173228346457,
      "duration": "62i"
    },
    {
      "time": "4808i",
      "midiNote": 47,
      "noteName": "B2",
      "velocity": 0.6614173228346457,
      "duration": "62i"
    },
    {
      "time": "4936i",
      "midiNote": 40,
      "noteName": "E2",
      "velocity": 0.5669291338582677,
      "duration": "62i"
    },
    {
      "time": "4936i",
      "midiNote": 47,
      "noteName": "B2",
      "velocity": 0.5669291338582677,
      "duration": "62i"
    },
    {
      "time": "5000i",
      "midiNote": 40,
      "noteName": "E2",
      "velocity": 1,
      "duration": "62i"
    },
    {
      "time": "5000i",
      "midiNote": 47,
      "noteName": "B2",
      "velocity": 1,
      "duration": "62i"
    },
    {
      "time": "5064i",
      "midiNote": 40,
      "noteName": "E2",
      "velocity": 0.8818897637795275,
      "duration": "62i"
    },
    {
      "time": "5064i",
      "midiNote": 47,
      "noteName": "B2",
      "velocity": 0.8818897637795275,
      "duration": "62i"
    },
    {
      "time": "5128i",
      "midiNote": 47,
      "noteName": "B2",
      "velocity": 0.8031496062992126,
      "duration": "62i"
    },
    {
      "time": "5128i",
      "midiNote": 40,
      "noteName": "E2",
      "velocity": 0.8031496062992126,
      "duration": "62i"
    },
    {
      "time": "5192i",
      "midiNote": 47,
      "noteName": "B2",
      "velocity": 0.6614173228346457,
      "duration": "62i"
    },
    {
      "time": "5192i",
      "midiNote": 40,
      "noteName": "E2",
      "velocity": 0.6614173228346457,
      "duration": "62i"
    },
    {
      "time": "5256i",
      "midiNote": 40,
      "noteName": "E2",
      "velocity": 0.3543307086614173,
      "duration": "62i"
    },
    {
      "time": "5256i",
      "midiNote": 47,
      "noteName": "B2",
      "velocity": 0.3543307086614173,
      "duration": "62i"
    },
    {
      "time": "5320i",
      "midiNote": 47,
      "noteName": "B2",
      "velocity": 0.5669291338582677,
      "duration": "62i"
    },
    {
      "time": "5320i",
      "midiNote": 40,
      "noteName": "E2",
      "velocity": 0.5669291338582677,
      "duration": "62i"
    },
    {
      "time": "5384i",
      "midiNote": 47,
      "noteName": "B2",
      "velocity": 1,
      "duration": "62i"
    },
    {
      "time": "5384i",
      "midiNote": 40,
      "noteName": "E2",
      "velocity": 1,
      "duration": "62i"
    },
    {
      "time": "5448i",
      "midiNote": 40,
      "noteName": "E2",
      "velocity": 0.8818897637795275,
      "duration": "62i"
    },
    {
      "time": "5448i",
      "midiNote": 47,
      "noteName": "B2",
      "velocity": 0.8818897637795275,
      "duration": "62i"
    },
    {
      "time": "5512i",
      "midiNote": 47,
      "noteName": "B2",
      "velocity": 0.8031496062992126,
      "duration": "62i"
    },
    {
      "time": "5512i",
      "midiNote": 40,
      "noteName": "E2",
      "velocity": 0.8031496062992126,
      "duration": "62i"
    },
    {
      "time": "5576i",
      "midiNote": 40,
      "noteName": "E2",
      "velocity": 0.6614173228346457,
      "duration": "62i"
    },
    {
      "time": "5576i",
      "midiNote": 47,
      "noteName": "B2",
      "velocity": 0.6614173228346457,
      "duration": "62i"
    },
    {
      "time": "5704i",
      "midiNote": 47,
      "noteName": "B2",
      "velocity": 0.5669291338582677,
      "duration": "62i"
    },
    {
      "time": "5704i",
      "midiNote": 40,
      "noteName": "E2",
      "velocity": 0.5669291338582677,
      "duration": "62i"
    },
    {
      "time": "5768i",
      "midiNote": 47,
      "noteName": "B2",
      "velocity": 0.7874015748031497,
      "duration": "62i"
    },
    {
      "time": "5768i",
      "midiNote": 40,
      "noteName": "E2",
      "velocity": 0.7874015748031497,
      "duration": "62i"
    },
    {
      "time": "5824i",
      "midiNote": 61,
      "noteName": "C#4",
      "velocity": 0.5826771653543307,
      "duration": "6i"
    },
    {
      "time": "5824i",
      "midiNote": 67,
      "noteName": "G4",
      "velocity": 0.5826771653543307,
      "duration": "6i"
    },
    {
      "time": "5832i",
      "midiNote": 67,
      "noteName": "G4",
      "velocity": 1,
      "duration": "62i"
    },
    {
      "time": "5832i",
      "midiNote": 61,
      "noteName": "C#4",
      "velocity": 1,
      "duration": "62i"
    },
    {
      "time": "5832i",
      "midiNote": 47,
      "noteName": "B2",
      "velocity": 1,
      "duration": "62i"
    },
    {
      "time": "5832i",
      "midiNote": 40,
      "noteName": "E2",
      "velocity": 1,
      "duration": "62i"
    },
    {
      "time": "5896i",
      "midiNote": 40,
      "noteName": "E2",
      "velocity": 0.6771653543307087,
      "duration": "62i"
    },
    {
      "time": "5896i",
      "midiNote": 47,
      "noteName": "B2",
      "velocity": 0.6771653543307087,
      "duration": "62i"
    },
    {
      "time": "5960i",
      "midiNote": 67,
      "noteName": "G4",
      "velocity": 1,
      "duration": "62i"
    },
    {
      "time": "5960i",
      "midiNote": 61,
      "noteName": "C#4",
      "velocity": 0.984251968503937,
      "duration": "62i"
    },
    {
      "time": "5960i",
      "midiNote": 47,
      "noteName": "B2",
      "velocity": 1,
      "duration": "62i"
    },
    {
      "time": "5960i",
      "midiNote": 40,
      "noteName": "E2",
      "velocity": 1,
      "duration": "62i"
    },
    {
      "time": "6024i",
      "midiNote": 40,
      "noteName": "E2",
      "velocity": 0.6771653543307087,
      "duration": "62i"
    },
    {
      "time": "6024i",
      "midiNote": 47,
      "noteName": "B2",
      "velocity": 0.6771653543307087,
      "duration": "62i"
    },
    {
      "time": "6088i",
      "midiNote": 67,
      "noteName": "G4",
      "velocity": 1,
      "duration": "62i"
    },
    {
      "time": "6088i",
      "midiNote": 61,
      "noteName": "C#4",
      "velocity": 0.984251968503937,
      "duration": "62i"
    },
    {
      "time": "6088i",
      "midiNote": 47,
      "noteName": "B2",
      "velocity": 0.984251968503937,
      "duration": "62i"
    },
    {
      "time": "6088i",
      "midiNote": 40,
      "noteName": "E2",
      "velocity": 0.984251968503937,
      "duration": "62i"
    },
    {
      "time": "6152i",
      "midiNote": 40,
      "noteName": "E2",
      "velocity": 1,
      "duration": "62i"
    },
    {
      "time": "6152i",
      "midiNote": 54,
      "noteName": "F#3",
      "velocity": 1,
      "duration": "62i"
    },
    {
      "time": "6216i",
      "midiNote": 40,
      "noteName": "E2",
      "velocity": 0.8818897637795275,
      "duration": "62i"
    },
    {
      "time": "6280i",
      "midiNote": 40,
      "noteName": "E2",
      "velocity": 0.8031496062992126,
      "duration": "62i"
    },
    {
      "time": "6344i",
      "midiNote": 40,
      "noteName": "E2",
      "velocity": 0.6614173228346457,
      "duration": "62i"
    },
    {
      "time": "6344i",
      "midiNote": 54,
      "noteName": "F#3",
      "velocity": 0.6614173228346457,
      "duration": "62i"
    },
    {
      "time": "6472i",
      "midiNote": 40,
      "noteName": "E2",
      "velocity": 0.5669291338582677,
      "duration": "62i"
    },
    {
      "time": "6472i",
      "midiNote": 54,
      "noteName": "F#3",
      "velocity": 0.5669291338582677,
      "duration": "62i"
    },
    {
      "time": "6536i",
      "midiNote": 40,
      "noteName": "E2",
      "velocity": 1,
      "duration": "62i"
    },
    {
      "time": "6536i",
      "midiNote": 54,
      "noteName": "F#3",
      "velocity": 1,
      "duration": "62i"
    },
    {
      "time": "6600i",
      "midiNote": 40,
      "noteName": "E2",
      "velocity": 0.8818897637795275,
      "duration": "62i"
    },
    {
      "time": "6664i",
      "midiNote": 40,
      "noteName": "E2",
      "velocity": 0.8031496062992126,
      "duration": "62i"
    },
    {
      "time": "6728i",
      "midiNote": 40,
      "noteName": "E2",
      "velocity": 0.6614173228346457,
      "duration": "62i"
    },
    {
      "time": "6728i",
      "midiNote": 54,
      "noteName": "F#3",
      "velocity": 0.6614173228346457,
      "duration": "62i"
    },
    {
      "time": "6792i",
      "midiNote": 54,
      "noteName": "F#3",
      "velocity": 0.3543307086614173,
      "duration": "62i"
    },
    {
      "time": "6792i",
      "midiNote": 40,
      "noteName": "E2",
      "velocity": 0.3543307086614173,
      "duration": "62i"
    },
    {
      "time": "6856i",
      "midiNote": 40,
      "noteName": "E2",
      "velocity": 0.5669291338582677,
      "duration": "62i"
    },
    {
      "time": "6856i",
      "midiNote": 54,
      "noteName": "F#3",
      "velocity": 0.5669291338582677,
      "duration": "62i"
    },
    {
      "time": "6920i",
      "midiNote": 40,
      "noteName": "E2",
      "velocity": 1,
      "duration": "62i"
    },
    {
      "time": "6920i",
      "midiNote": 54,
      "noteName": "F#3",
      "velocity": 1,
      "duration": "62i"
    },
    {
      "time": "6984i",
      "midiNote": 40,
      "noteName": "E2",
      "velocity": 0.8818897637795275,
      "duration": "62i"
    },
    {
      "time": "7048i",
      "midiNote": 40,
      "noteName": "E2",
      "velocity": 0.8031496062992126,
      "duration": "62i"
    },
    {
      "time": "7112i",
      "midiNote": 54,
      "noteName": "F#3",
      "velocity": 0.6614173228346457,
      "duration": "62i"
    },
    {
      "time": "7112i",
      "midiNote": 40,
      "noteName": "E2",
      "velocity": 0.6614173228346457,
      "duration": "62i"
    },
    {
      "time": "7240i",
      "midiNote": 40,
      "noteName": "E2",
      "velocity": 0.5669291338582677,
      "duration": "62i"
    },
    {
      "time": "7240i",
      "midiNote": 54,
      "noteName": "F#3",
      "velocity": 0.5669291338582677,
      "duration": "62i"
    },
    {
      "time": "7304i",
      "midiNote": 54,
      "noteName": "F#3",
      "velocity": 0.7480314960629921,
      "duration": "62i"
    },
    {
      "time": "7304i",
      "midiNote": 40,
      "noteName": "E2",
      "velocity": 0.7480314960629921,
      "duration": "62i"
    },
    {
      "time": "7368i",
      "midiNote": 40,
      "noteName": "E2",
      "velocity": 0.984251968503937,
      "duration": "62i"
    },
    {
      "time": "7432i",
      "midiNote": 40,
      "noteName": "E2",
      "velocity": 0.7244094488188977,
      "duration": "62i"
    },
    {
      "time": "7496i",
      "midiNote": 40,
      "noteName": "E2",
      "velocity": 1,
      "duration": "62i"
    },
    {
      "time": "7496i",
      "midiNote": 54,
      "noteName": "F#3",
      "velocity": 1,
      "duration": "62i"
    },
    {
      "time": "7560i",
      "midiNote": 40,
      "noteName": "E2",
      "velocity": 0.7480314960629921,
      "duration": "62i"
    },
    {
      "time": "7624i",
      "midiNote": 54,
      "noteName": "F#3",
      "velocity": 0.5669291338582677,
      "duration": "62i"
    },
    {
      "time": "7624i",
      "midiNote": 40,
      "noteName": "E2",
      "velocity": 0.5669291338582677,
      "duration": "62i"
    },
    {
      "time": "7688i",
      "midiNote": 40,
      "noteName": "E2",
      "velocity": 1,
      "duration": "62i"
    },
    {
      "time": "7688i",
      "midiNote": 47,
      "noteName": "B2",
      "velocity": 1,
      "duration": "62i"
    },
    {
      "time": "7752i",
      "midiNote": 47,
      "noteName": "B2",
      "velocity": 0.8818897637795275,
      "duration": "62i"
    },
    {
      "time": "7752i",
      "midiNote": 40,
      "noteName": "E2",
      "velocity": 0.8818897637795275,
      "duration": "62i"
    },
    {
      "time": "7816i",
      "midiNote": 47,
      "noteName": "B2",
      "velocity": 0.8031496062992126,
      "duration": "62i"
    },
    {
      "time": "7816i",
      "midiNote": 40,
      "noteName": "E2",
      "velocity": 0.8031496062992126,
      "duration": "62i"
    },
    {
      "time": "7880i",
      "midiNote": 40,
      "noteName": "E2",
      "velocity": 0.6614173228346457,
      "duration": "62i"
    },
    {
      "time": "7880i",
      "midiNote": 47,
      "noteName": "B2",
      "velocity": 0.6614173228346457,
      "duration": "62i"
    },
    {
      "time": "8008i",
      "midiNote": 40,
      "noteName": "E2",
      "velocity": 0.5669291338582677,
      "duration": "62i"
    },
    {
      "time": "8008i",
      "midiNote": 47,
      "noteName": "B2",
      "velocity": 0.5669291338582677,
      "duration": "62i"
    },
    {
      "time": "8072i",
      "midiNote": 40,
      "noteName": "E2",
      "velocity": 1,
      "duration": "62i"
    },
    {
      "time": "8072i",
      "midiNote": 47,
      "noteName": "B2",
      "velocity": 1,
      "duration": "62i"
    },
    {
      "time": "8136i",
      "midiNote": 40,
      "noteName": "E2",
      "velocity": 0.8818897637795275,
      "duration": "62i"
    },
    {
      "time": "8136i",
      "midiNote": 47,
      "noteName": "B2",
      "velocity": 0.8818897637795275,
      "duration": "62i"
    },
    {
      "time": "8200i",
      "midiNote": 47,
      "noteName": "B2",
      "velocity": 0.8031496062992126,
      "duration": "62i"
    },
    {
      "time": "8200i",
      "midiNote": 40,
      "noteName": "E2",
      "velocity": 0.8031496062992126,
      "duration": "62i"
    },
    {
      "time": "8264i",
      "midiNote": 47,
      "noteName": "B2",
      "velocity": 0.6614173228346457,
      "duration": "62i"
    },
    {
      "time": "8264i",
      "midiNote": 40,
      "noteName": "E2",
      "velocity": 0.6614173228346457,
      "duration": "62i"
    },
    {
      "time": "8328i",
      "midiNote": 40,
      "noteName": "E2",
      "velocity": 0.3543307086614173,
      "duration": "62i"
    },
    {
      "time": "8328i",
      "midiNote": 47,
      "noteName": "B2",
      "velocity": 0.3543307086614173,
      "duration": "62i"
    },
    {
      "time": "8392i",
      "midiNote": 47,
      "noteName": "B2",
      "velocity": 0.5669291338582677,
      "duration": "62i"
    },
    {
      "time": "8392i",
      "midiNote": 40,
      "noteName": "E2",
      "velocity": 0.5669291338582677,
      "duration": "62i"
    },
    {
      "time": "8456i",
      "midiNote": 47,
      "noteName": "B2",
      "velocity": 1,
      "duration": "62i"
    },
    {
      "time": "8456i",
      "midiNote": 40,
      "noteName": "E2",
      "velocity": 1,
      "duration": "62i"
    },
    {
      "time": "8520i",
      "midiNote": 40,
      "noteName": "E2",
      "velocity": 0.8818897637795275,
      "duration": "62i"
    },
    {
      "time": "8520i",
      "midiNote": 47,
      "noteName": "B2",
      "velocity": 0.8818897637795275,
      "duration": "62i"
    },
    {
      "time": "8584i",
      "midiNote": 47,
      "noteName": "B2",
      "velocity": 0.8031496062992126,
      "duration": "62i"
    },
    {
      "time": "8584i",
      "midiNote": 40,
      "noteName": "E2",
      "velocity": 0.8031496062992126,
      "duration": "62i"
    },
    {
      "time": "8648i",
      "midiNote": 40,
      "noteName": "E2",
      "velocity": 0.6614173228346457,
      "duration": "62i"
    },
    {
      "time": "8648i",
      "midiNote": 47,
      "noteName": "B2",
      "velocity": 0.6614173228346457,
      "duration": "62i"
    },
    {
      "time": "8776i",
      "midiNote": 47,
      "noteName": "B2",
      "velocity": 0.5669291338582677,
      "duration": "62i"
    },
    {
      "time": "8776i",
      "midiNote": 40,
      "noteName": "E2",
      "velocity": 0.5669291338582677,
      "duration": "62i"
    },
    {
      "time": "8840i",
      "midiNote": 47,
      "noteName": "B2",
      "velocity": 0.7874015748031497,
      "duration": "62i"
    },
    {
      "time": "8840i",
      "midiNote": 40,
      "noteName": "E2",
      "velocity": 0.7874015748031497,
      "duration": "62i"
    },
    {
      "time": "8896i",
      "midiNote": 61,
      "noteName": "C#4",
      "velocity": 0.5826771653543307,
      "duration": "6i"
    },
    {
      "time": "8896i",
      "midiNote": 67,
      "noteName": "G4",
      "velocity": 0.5826771653543307,
      "duration": "6i"
    },
    {
      "time": "8904i",
      "midiNote": 67,
      "noteName": "G4",
      "velocity": 1,
      "duration": "62i"
    },
    {
      "time": "8904i",
      "midiNote": 61,
      "noteName": "C#4",
      "velocity": 1,
      "duration": "62i"
    },
    {
      "time": "8904i",
      "midiNote": 47,
      "noteName": "B2",
      "velocity": 1,
      "duration": "62i"
    },
    {
      "time": "8904i",
      "midiNote": 40,
      "noteName": "E2",
      "velocity": 1,
      "duration": "62i"
    },
    {
      "time": "8968i",
      "midiNote": 40,
      "noteName": "E2",
      "velocity": 0.6771653543307087,
      "duration": "62i"
    },
    {
      "time": "8968i",
      "midiNote": 47,
      "noteName": "B2",
      "velocity": 0.6771653543307087,
      "duration": "62i"
    },
    {
      "time": "9032i",
      "midiNote": 67,
      "noteName": "G4",
      "velocity": 1,
      "duration": "62i"
    },
    {
      "time": "9032i",
      "midiNote": 61,
      "noteName": "C#4",
      "velocity": 0.984251968503937,
      "duration": "62i"
    },
    {
      "time": "9032i",
      "midiNote": 47,
      "noteName": "B2",
      "velocity": 1,
      "duration": "62i"
    },
    {
      "time": "9032i",
      "midiNote": 40,
      "noteName": "E2",
      "velocity": 1,
      "duration": "62i"
    },
    {
      "time": "9096i",
      "midiNote": 40,
      "noteName": "E2",
      "velocity": 0.6771653543307087,
      "duration": "62i"
    },
    {
      "time": "9096i",
      "midiNote": 47,
      "noteName": "B2",
      "velocity": 0.6771653543307087,
      "duration": "62i"
    },
    {
      "time": "9160i",
      "midiNote": 67,
      "noteName": "G4",
      "velocity": 1,
      "duration": "62i"
    },
    {
      "time": "9160i",
      "midiNote": 61,
      "noteName": "C#4",
      "velocity": 0.984251968503937,
      "duration": "62i"
    },
    {
      "time": "9160i",
      "midiNote": 47,
      "noteName": "B2",
      "velocity": 0.984251968503937,
      "duration": "62i"
    },
    {
      "time": "9160i",
      "midiNote": 40,
      "noteName": "E2",
      "velocity": 0.984251968503937,
      "duration": "62i"
    },
    {
      "time": "9224i",
      "midiNote": 40,
      "noteName": "E2",
      "velocity": 1,
      "duration": "62i"
    },
    {
      "time": "9224i",
      "midiNote": 54,
      "noteName": "F#3",
      "velocity": 1,
      "duration": "62i"
    },
    {
      "time": "9288i",
      "midiNote": 40,
      "noteName": "E2",
      "velocity": 0.8818897637795275,
      "duration": "62i"
    },
    {
      "time": "9352i",
      "midiNote": 40,
      "noteName": "E2",
      "velocity": 0.8031496062992126,
      "duration": "62i"
    },
    {
      "time": "9416i",
      "midiNote": 40,
      "noteName": "E2",
      "velocity": 0.6614173228346457,
      "duration": "62i"
    },
    {
      "time": "9416i",
      "midiNote": 54,
      "noteName": "F#3",
      "velocity": 0.6614173228346457,
      "duration": "62i"
    },
    {
      "time": "9544i",
      "midiNote": 40,
      "noteName": "E2",
      "velocity": 0.5669291338582677,
      "duration": "62i"
    },
    {
      "time": "9544i",
      "midiNote": 54,
      "noteName": "F#3",
      "velocity": 0.5669291338582677,
      "duration": "62i"
    },
    {
      "time": "9608i",
      "midiNote": 40,
      "noteName": "E2",
      "velocity": 1,
      "duration": "62i"
    },
    {
      "time": "9608i",
      "midiNote": 54,
      "noteName": "F#3",
      "velocity": 1,
      "duration": "62i"
    },
    {
      "time": "9672i",
      "midiNote": 40,
      "noteName": "E2",
      "velocity": 0.8818897637795275,
      "duration": "62i"
    },
    {
      "time": "9736i",
      "midiNote": 40,
      "noteName": "E2",
      "velocity": 0.8031496062992126,
      "duration": "62i"
    },
    {
      "time": "9800i",
      "midiNote": 40,
      "noteName": "E2",
      "velocity": 0.6614173228346457,
      "duration": "62i"
    },
    {
      "time": "9800i",
      "midiNote": 54,
      "noteName": "F#3",
      "velocity": 0.6614173228346457,
      "duration": "62i"
    },
    {
      "time": "9864i",
      "midiNote": 54,
      "noteName": "F#3",
      "velocity": 0.3543307086614173,
      "duration": "62i"
    },
    {
      "time": "9864i",
      "midiNote": 40,
      "noteName": "E2",
      "velocity": 0.3543307086614173,
      "duration": "62i"
    },
    {
      "time": "9928i",
      "midiNote": 40,
      "noteName": "E2",
      "velocity": 0.5669291338582677,
      "duration": "62i"
    },
    {
      "time": "9928i",
      "midiNote": 54,
      "noteName": "F#3",
      "velocity": 0.5669291338582677,
      "duration": "62i"
    },
    {
      "time": "9992i",
      "midiNote": 40,
      "noteName": "E2",
      "velocity": 1,
      "duration": "62i"
    },
    {
      "time": "9992i",
      "midiNote": 54,
      "noteName": "F#3",
      "velocity": 1,
      "duration": "62i"
    },
    {
      "time": "10056i",
      "midiNote": 40,
      "noteName": "E2",
      "velocity": 0.8818897637795275,
      "duration": "62i"
    },
    {
      "time": "10120i",
      "midiNote": 40,
      "noteName": "E2",
      "velocity": 0.8031496062992126,
      "duration": "62i"
    },
    {
      "time": "10184i",
      "midiNote": 54,
      "noteName": "F#3",
      "velocity": 0.6614173228346457,
      "duration": "62i"
    },
    {
      "time": "10184i",
      "midiNote": 40,
      "noteName": "E2",
      "velocity": 0.6614173228346457,
      "duration": "62i"
    },
    {
      "time": "10312i",
      "midiNote": 40,
      "noteName": "E2",
      "velocity": 0.5669291338582677,
      "duration": "62i"
    },
    {
      "time": "10312i",
      "midiNote": 54,
      "noteName": "F#3",
      "velocity": 0.5669291338582677,
      "duration": "62i"
    },
    {
      "time": "10376i",
      "midiNote": 54,
      "noteName": "F#3",
      "velocity": 0.7480314960629921,
      "duration": "62i"
    },
    {
      "time": "10376i",
      "midiNote": 40,
      "noteName": "E2",
      "velocity": 0.7480314960629921,
      "duration": "62i"
    },
    {
      "time": "10440i",
      "midiNote": 40,
      "noteName": "E2",
      "velocity": 0.984251968503937,
      "duration": "62i"
    },
    {
      "time": "10504i",
      "midiNote": 40,
      "noteName": "E2",
      "velocity": 0.7244094488188977,
      "duration": "62i"
    },
    {
      "time": "10568i",
      "midiNote": 40,
      "noteName": "E2",
      "velocity": 1,
      "duration": "62i"
    },
    {
      "time": "10568i",
      "midiNote": 54,
      "noteName": "F#3",
      "velocity": 1,
      "duration": "62i"
    },
    {
      "time": "10632i",
      "midiNote": 40,
      "noteName": "E2",
      "velocity": 0.7480314960629921,
      "duration": "62i"
    },
    {
      "time": "10696i",
      "midiNote": 54,
      "noteName": "F#3",
      "velocity": 0.5669291338582677,
      "duration": "62i"
    },
    {
      "time": "10696i",
      "midiNote": 40,
      "noteName": "E2",
      "velocity": 0.5669291338582677,
      "duration": "62i"
    },
    {
      "time": "10760i",
      "midiNote": 40,
      "noteName": "E2",
      "velocity": 1,
      "duration": "62i"
    },
    {
      "time": "10760i",
      "midiNote": 47,
      "noteName": "B2",
      "velocity": 1,
      "duration": "62i"
    },
    {
      "time": "10824i",
      "midiNote": 47,
      "noteName": "B2",
      "velocity": 0.8818897637795275,
      "duration": "62i"
    },
    {
      "time": "10824i",
      "midiNote": 40,
      "noteName": "E2",
      "velocity": 0.8818897637795275,
      "duration": "62i"
    },
    {
      "time": "10888i",
      "midiNote": 47,
      "noteName": "B2",
      "velocity": 0.8031496062992126,
      "duration": "62i"
    },
    {
      "time": "10888i",
      "midiNote": 40,
      "noteName": "E2",
      "velocity": 0.8031496062992126,
      "duration": "62i"
    },
    {
      "time": "10952i",
      "midiNote": 40,
      "noteName": "E2",
      "velocity": 0.6614173228346457,
      "duration": "62i"
    },
    {
      "time": "10952i",
      "midiNote": 47,
      "noteName": "B2",
      "velocity": 0.6614173228346457,
      "duration": "62i"
    },
    {
      "time": "11080i",
      "midiNote": 40,
      "noteName": "E2",
      "velocity": 0.5669291338582677,
      "duration": "62i"
    },
    {
      "time": "11080i",
      "midiNote": 47,
      "noteName": "B2",
      "velocity": 0.5669291338582677,
      "duration": "62i"
    },
    {
      "time": "11144i",
      "midiNote": 40,
      "noteName": "E2",
      "velocity": 1,
      "duration": "62i"
    },
    {
      "time": "11144i",
      "midiNote": 47,
      "noteName": "B2",
      "velocity": 1,
      "duration": "62i"
    },
    {
      "time": "11208i",
      "midiNote": 40,
      "noteName": "E2",
      "velocity": 0.8818897637795275,
      "duration": "62i"
    },
    {
      "time": "11208i",
      "midiNote": 47,
      "noteName": "B2",
      "velocity": 0.8818897637795275,
      "duration": "62i"
    },
    {
      "time": "11272i",
      "midiNote": 47,
      "noteName": "B2",
      "velocity": 0.8031496062992126,
      "duration": "62i"
    },
    {
      "time": "11272i",
      "midiNote": 40,
      "noteName": "E2",
      "velocity": 0.8031496062992126,
      "duration": "62i"
    },
    {
      "time": "11336i",
      "midiNote": 47,
      "noteName": "B2",
      "velocity": 0.6614173228346457,
      "duration": "62i"
    },
    {
      "time": "11336i",
      "midiNote": 40,
      "noteName": "E2",
      "velocity": 0.6614173228346457,
      "duration": "62i"
    },
    {
      "time": "11400i",
      "midiNote": 40,
      "noteName": "E2",
      "velocity": 0.3543307086614173,
      "duration": "62i"
    },
    {
      "time": "11400i",
      "midiNote": 47,
      "noteName": "B2",
      "velocity": 0.3543307086614173,
      "duration": "62i"
    },
    {
      "time": "11464i",
      "midiNote": 47,
      "noteName": "B2",
      "velocity": 0.5669291338582677,
      "duration": "62i"
    },
    {
      "time": "11464i",
      "midiNote": 40,
      "noteName": "E2",
      "velocity": 0.5669291338582677,
      "duration": "62i"
    },
    {
      "time": "11528i",
      "midiNote": 47,
      "noteName": "B2",
      "velocity": 1,
      "duration": "62i"
    },
    {
      "time": "11528i",
      "midiNote": 40,
      "noteName": "E2",
      "velocity": 1,
      "duration": "62i"
    },
    {
      "time": "11592i",
      "midiNote": 40,
      "noteName": "E2",
      "velocity": 0.8818897637795275,
      "duration": "62i"
    },
    {
      "time": "11592i",
      "midiNote": 47,
      "noteName": "B2",
      "velocity": 0.8818897637795275,
      "duration": "62i"
    },
    {
      "time": "11656i",
      "midiNote": 47,
      "noteName": "B2",
      "velocity": 0.8031496062992126,
      "duration": "62i"
    },
    {
      "time": "11656i",
      "midiNote": 40,
      "noteName": "E2",
      "velocity": 0.8031496062992126,
      "duration": "62i"
    },
    {
      "time": "11720i",
      "midiNote": 40,
      "noteName": "E2",
      "velocity": 0.6614173228346457,
      "duration": "62i"
    },
    {
      "time": "11720i",
      "midiNote": 47,
      "noteName": "B2",
      "velocity": 0.6614173228346457,
      "duration": "62i"
    },
    {
      "time": "11848i",
      "midiNote": 47,
      "noteName": "B2",
      "velocity": 0.5669291338582677,
      "duration": "62i"
    },
    {
      "time": "11848i",
      "midiNote": 40,
      "noteName": "E2",
      "velocity": 0.5669291338582677,
      "duration": "62i"
    },
    {
      "time": "11912i",
      "midiNote": 47,
      "noteName": "B2",
      "velocity": 0.7874015748031497,
      "duration": "62i"
    },
    {
      "time": "11912i",
      "midiNote": 40,
      "noteName": "E2",
      "velocity": 0.7874015748031497,
      "duration": "62i"
    },
    {
      "time": "11968i",
      "midiNote": 61,
      "noteName": "C#4",
      "velocity": 0.5826771653543307,
      "duration": "6i"
    },
    {
      "time": "11968i",
      "midiNote": 67,
      "noteName": "G4",
      "velocity": 0.5826771653543307,
      "duration": "6i"
    },
    {
      "time": "11976i",
      "midiNote": 67,
      "noteName": "G4",
      "velocity": 1,
      "duration": "62i"
    },
    {
      "time": "11976i",
      "midiNote": 61,
      "noteName": "C#4",
      "velocity": 1,
      "duration": "62i"
    },
    {
      "time": "11976i",
      "midiNote": 47,
      "noteName": "B2",
      "velocity": 1,
      "duration": "62i"
    },
    {
      "time": "11976i",
      "midiNote": 40,
      "noteName": "E2",
      "velocity": 1,
      "duration": "62i"
    },
    {
      "time": "12040i",
      "midiNote": 40,
      "noteName": "E2",
      "velocity": 0.6771653543307087,
      "duration": "62i"
    },
    {
      "time": "12040i",
      "midiNote": 47,
      "noteName": "B2",
      "velocity": 0.6771653543307087,
      "duration": "62i"
    },
    {
      "time": "12104i",
      "midiNote": 67,
      "noteName": "G4",
      "velocity": 1,
      "duration": "62i"
    },
    {
      "time": "12104i",
      "midiNote": 61,
      "noteName": "C#4",
      "velocity": 0.984251968503937,
      "duration": "62i"
    },
    {
      "time": "12104i",
      "midiNote": 47,
      "noteName": "B2",
      "velocity": 1,
      "duration": "62i"
    },
    {
      "time": "12104i",
      "midiNote": 40,
      "noteName": "E2",
      "velocity": 1,
      "duration": "62i"
    },
    {
      "time": "12168i",
      "midiNote": 40,
      "noteName": "E2",
      "velocity": 0.6771653543307087,
      "duration": "62i"
    },
    {
      "time": "12168i",
      "midiNote": 47,
      "noteName": "B2",
      "velocity": 0.6771653543307087,
      "duration": "62i"
    },
    {
      "time": "12232i",
      "midiNote": 67,
      "noteName": "G4",
      "velocity": 1,
      "duration": "62i"
    },
    {
      "time": "12232i",
      "midiNote": 61,
      "noteName": "C#4",
      "velocity": 0.984251968503937,
      "duration": "62i"
    },
    {
      "time": "12232i",
      "midiNote": 47,
      "noteName": "B2",
      "velocity": 0.984251968503937,
      "duration": "62i"
    },
    {
      "time": "12232i",
      "midiNote": 40,
      "noteName": "E2",
      "velocity": 0.984251968503937,
      "duration": "62i"
    },
    {
      "time": "12296i",
      "midiNote": 40,
      "noteName": "E2",
      "velocity": 1,
      "duration": "62i"
    },
    {
      "time": "12296i",
      "midiNote": 54,
      "noteName": "F#3",
      "velocity": 1,
      "duration": "62i"
    },
    {
      "time": "12360i",
      "midiNote": 40,
      "noteName": "E2",
      "velocity": 0.8818897637795275,
      "duration": "62i"
    },
    {
      "time": "12424i",
      "midiNote": 40,
      "noteName": "E2",
      "velocity": 0.8031496062992126,
      "duration": "62i"
    },
    {
      "time": "12488i",
      "midiNote": 40,
      "noteName": "E2",
      "velocity": 0.6614173228346457,
      "duration": "62i"
    },
    {
      "time": "12488i",
      "midiNote": 54,
      "noteName": "F#3",
      "velocity": 0.6614173228346457,
      "duration": "62i"
    },
    {
      "time": "12616i",
      "midiNote": 40,
      "noteName": "E2",
      "velocity": 0.5669291338582677,
      "duration": "62i"
    },
    {
      "time": "12616i",
      "midiNote": 54,
      "noteName": "F#3",
      "velocity": 0.5669291338582677,
      "duration": "62i"
    },
    {
      "time": "12680i",
      "midiNote": 40,
      "noteName": "E2",
      "velocity": 1,
      "duration": "62i"
    },
    {
      "time": "12680i",
      "midiNote": 54,
      "noteName": "F#3",
      "velocity": 1,
      "duration": "62i"
    },
    {
      "time": "12744i",
      "midiNote": 40,
      "noteName": "E2",
      "velocity": 0.8818897637795275,
      "duration": "62i"
    },
    {
      "time": "12808i",
      "midiNote": 40,
      "noteName": "E2",
      "velocity": 0.8031496062992126,
      "duration": "62i"
    },
    {
      "time": "12872i",
      "midiNote": 40,
      "noteName": "E2",
      "velocity": 0.6614173228346457,
      "duration": "62i"
    },
    {
      "time": "12872i",
      "midiNote": 54,
      "noteName": "F#3",
      "velocity": 0.6614173228346457,
      "duration": "62i"
    },
    {
      "time": "12936i",
      "midiNote": 54,
      "noteName": "F#3",
      "velocity": 0.3543307086614173,
      "duration": "62i"
    },
    {
      "time": "12936i",
      "midiNote": 40,
      "noteName": "E2",
      "velocity": 0.3543307086614173,
      "duration": "62i"
    },
    {
      "time": "13000i",
      "midiNote": 40,
      "noteName": "E2",
      "velocity": 0.5669291338582677,
      "duration": "62i"
    },
    {
      "time": "13000i",
      "midiNote": 54,
      "noteName": "F#3",
      "velocity": 0.5669291338582677,
      "duration": "62i"
    },
    {
      "time": "13064i",
      "midiNote": 40,
      "noteName": "E2",
      "velocity": 1,
      "duration": "62i"
    },
    {
      "time": "13064i",
      "midiNote": 54,
      "noteName": "F#3",
      "velocity": 1,
      "duration": "62i"
    },
    {
      "time": "13128i",
      "midiNote": 40,
      "noteName": "E2",
      "velocity": 0.8818897637795275,
      "duration": "62i"
    },
    {
      "time": "13192i",
      "midiNote": 40,
      "noteName": "E2",
      "velocity": 0.8031496062992126,
      "duration": "62i"
    },
    {
      "time": "13256i",
      "midiNote": 54,
      "noteName": "F#3",
      "velocity": 0.6614173228346457,
      "duration": "62i"
    },
    {
      "time": "13256i",
      "midiNote": 40,
      "noteName": "E2",
      "velocity": 0.6614173228346457,
      "duration": "62i"
    },
    {
      "time": "13384i",
      "midiNote": 40,
      "noteName": "E2",
      "velocity": 0.5669291338582677,
      "duration": "62i"
    },
    {
      "time": "13384i",
      "midiNote": 54,
      "noteName": "F#3",
      "velocity": 0.5669291338582677,
      "duration": "62i"
    },
    {
      "time": "13448i",
      "midiNote": 54,
      "noteName": "F#3",
      "velocity": 0.7480314960629921,
      "duration": "62i"
    },
    {
      "time": "13448i",
      "midiNote": 40,
      "noteName": "E2",
      "velocity": 0.7480314960629921,
      "duration": "62i"
    },
    {
      "time": "13512i",
      "midiNote": 40,
      "noteName": "E2",
      "velocity": 0.984251968503937,
      "duration": "62i"
    },
    {
      "time": "13576i",
      "midiNote": 40,
      "noteName": "E2",
      "velocity": 0.7244094488188977,
      "duration": "62i"
    },
    {
      "time": "13640i",
      "midiNote": 40,
      "noteName": "E2",
      "velocity": 1,
      "duration": "62i"
    },
    {
      "time": "13640i",
      "midiNote": 54,
      "noteName": "F#3",
      "velocity": 1,
      "duration": "62i"
    },
    {
      "time": "13704i",
      "midiNote": 40,
      "noteName": "E2",
      "velocity": 0.7480314960629921,
      "duration": "62i"
    },
    {
      "time": "13768i",
      "midiNote": 54,
      "noteName": "F#3",
      "velocity": 0.5669291338582677,
      "duration": "62i"
    },
    {
      "time": "13768i",
      "midiNote": 40,
      "noteName": "E2",
      "velocity": 0.5669291338582677,
      "duration": "62i"
    },
    {
      "time": "13832i",
      "midiNote": 40,
      "noteName": "E2",
      "velocity": 1,
      "duration": "62i"
    },
    {
      "time": "13832i",
      "midiNote": 47,
      "noteName": "B2",
      "velocity": 1,
      "duration": "62i"
    },
    {
      "time": "13896i",
      "midiNote": 47,
      "noteName": "B2",
      "velocity": 0.8818897637795275,
      "duration": "62i"
    },
    {
      "time": "13896i",
      "midiNote": 40,
      "noteName": "E2",
      "velocity": 0.8818897637795275,
      "duration": "62i"
    },
    {
      "time": "13960i",
      "midiNote": 47,
      "noteName": "B2",
      "velocity": 0.8031496062992126,
      "duration": "62i"
    },
    {
      "time": "13960i",
      "midiNote": 40,
      "noteName": "E2",
      "velocity": 0.8031496062992126,
      "duration": "62i"
    },
    {
      "time": "14024i",
      "midiNote": 40,
      "noteName": "E2",
      "velocity": 0.6614173228346457,
      "duration": "62i"
    },
    {
      "time": "14024i",
      "midiNote": 47,
      "noteName": "B2",
      "velocity": 0.6614173228346457,
      "duration": "62i"
    },
    {
      "time": "14152i",
      "midiNote": 40,
      "noteName": "E2",
      "velocity": 0.5669291338582677,
      "duration": "62i"
    },
    {
      "time": "14152i",
      "midiNote": 47,
      "noteName": "B2",
      "velocity": 0.5669291338582677,
      "duration": "62i"
    },
    {
      "time": "14216i",
      "midiNote": 40,
      "noteName": "E2",
      "velocity": 1,
      "duration": "62i"
    },
    {
      "time": "14216i",
      "midiNote": 47,
      "noteName": "B2",
      "velocity": 1,
      "duration": "62i"
    },
    {
      "time": "14280i",
      "midiNote": 40,
      "noteName": "E2",
      "velocity": 0.8818897637795275,
      "duration": "62i"
    },
    {
      "time": "14280i",
      "midiNote": 47,
      "noteName": "B2",
      "velocity": 0.8818897637795275,
      "duration": "62i"
    },
    {
      "time": "14344i",
      "midiNote": 47,
      "noteName": "B2",
      "velocity": 0.8031496062992126,
      "duration": "62i"
    },
    {
      "time": "14344i",
      "midiNote": 40,
      "noteName": "E2",
      "velocity": 0.8031496062992126,
      "duration": "62i"
    },
    {
      "time": "14408i",
      "midiNote": 47,
      "noteName": "B2",
      "velocity": 0.6614173228346457,
      "duration": "62i"
    },
    {
      "time": "14408i",
      "midiNote": 40,
      "noteName": "E2",
      "velocity": 0.6614173228346457,
      "duration": "62i"
    },
    {
      "time": "14472i",
      "midiNote": 40,
      "noteName": "E2",
      "velocity": 0.3543307086614173,
      "duration": "62i"
    },
    {
      "time": "14472i",
      "midiNote": 47,
      "noteName": "B2",
      "velocity": 0.3543307086614173,
      "duration": "62i"
    },
    {
      "time": "14536i",
      "midiNote": 47,
      "noteName": "B2",
      "velocity": 0.5669291338582677,
      "duration": "62i"
    },
    {
      "time": "14536i",
      "midiNote": 40,
      "noteName": "E2",
      "velocity": 0.5669291338582677,
      "duration": "62i"
    },
    {
      "time": "14600i",
      "midiNote": 47,
      "noteName": "B2",
      "velocity": 1,
      "duration": "62i"
    },
    {
      "time": "14600i",
      "midiNote": 40,
      "noteName": "E2",
      "velocity": 1,
      "duration": "62i"
    },
    {
      "time": "14664i",
      "midiNote": 40,
      "noteName": "E2",
      "velocity": 0.8818897637795275,
      "duration": "62i"
    },
    {
      "time": "14664i",
      "midiNote": 47,
      "noteName": "B2",
      "velocity": 0.8818897637795275,
      "duration": "62i"
    },
    {
      "time": "14728i",
      "midiNote": 47,
      "noteName": "B2",
      "velocity": 0.8031496062992126,
      "duration": "62i"
    },
    {
      "time": "14728i",
      "midiNote": 40,
      "noteName": "E2",
      "velocity": 0.8031496062992126,
      "duration": "62i"
    },
    {
      "time": "14792i",
      "midiNote": 40,
      "noteName": "E2",
      "velocity": 0.6614173228346457,
      "duration": "62i"
    },
    {
      "time": "14792i",
      "midiNote": 47,
      "noteName": "B2",
      "velocity": 0.6614173228346457,
      "duration": "62i"
    },
    {
      "time": "14920i",
      "midiNote": 47,
      "noteName": "B2",
      "velocity": 0.5669291338582677,
      "duration": "62i"
    },
    {
      "time": "14920i",
      "midiNote": 40,
      "noteName": "E2",
      "velocity": 0.5669291338582677,
      "duration": "62i"
    },
    {
      "time": "14984i",
      "midiNote": 47,
      "noteName": "B2",
      "velocity": 0.7874015748031497,
      "duration": "62i"
    },
    {
      "time": "14984i",
      "midiNote": 40,
      "noteName": "E2",
      "velocity": 0.7874015748031497,
      "duration": "62i"
    },
    {
      "time": "15040i",
      "midiNote": 61,
      "noteName": "C#4",
      "velocity": 0.5826771653543307,
      "duration": "6i"
    },
    {
      "time": "15040i",
      "midiNote": 67,
      "noteName": "G4",
      "velocity": 0.5826771653543307,
      "duration": "6i"
    },
    {
      "time": "15048i",
      "midiNote": 67,
      "noteName": "G4",
      "velocity": 1,
      "duration": "62i"
    },
    {
      "time": "15048i",
      "midiNote": 61,
      "noteName": "C#4",
      "velocity": 1,
      "duration": "62i"
    },
    {
      "time": "15048i",
      "midiNote": 47,
      "noteName": "B2",
      "velocity": 1,
      "duration": "62i"
    },
    {
      "time": "15048i",
      "midiNote": 40,
      "noteName": "E2",
      "velocity": 1,
      "duration": "62i"
    },
    {
      "time": "15112i",
      "midiNote": 40,
      "noteName": "E2",
      "velocity": 0.6771653543307087,
      "duration": "62i"
    },
    {
      "time": "15112i",
      "midiNote": 47,
      "noteName": "B2",
      "velocity": 0.6771653543307087,
      "duration": "62i"
    },
    {
      "time": "15176i",
      "midiNote": 67,
      "noteName": "G4",
      "velocity": 1,
      "duration": "62i"
    },
    {
      "time": "15176i",
      "midiNote": 61,
      "noteName": "C#4",
      "velocity": 0.984251968503937,
      "duration": "62i"
    },
    {
      "time": "15176i",
      "midiNote": 47,
      "noteName": "B2",
      "velocity": 1,
      "duration": "62i"
    },
    {
      "time": "15176i",
      "midiNote": 40,
      "noteName": "E2",
      "velocity": 1,
      "duration": "62i"
    },
    {
      "time": "15240i",
      "midiNote": 40,
      "noteName": "E2",
      "velocity": 0.6771653543307087,
      "duration": "62i"
    },
    {
      "time": "15240i",
      "midiNote": 47,
      "noteName": "B2",
      "velocity": 0.6771653543307087,
      "duration": "62i"
    },
    {
      "time": "15304i",
      "midiNote": 67,
      "noteName": "G4",
      "velocity": 1,
      "duration": "62i"
    },
    {
      "time": "15304i",
      "midiNote": 61,
      "noteName": "C#4",
      "velocity": 0.984251968503937,
      "duration": "62i"
    },
    {
      "time": "15304i",
      "midiNote": 47,
      "noteName": "B2",
      "velocity": 0.984251968503937,
      "duration": "62i"
    },
    {
      "time": "15304i",
      "midiNote": 40,
      "noteName": "E2",
      "velocity": 0.984251968503937,
      "duration": "62i"
    },
    {
      "time": "15368i",
      "midiNote": 40,
      "noteName": "E2",
      "velocity": 1,
      "duration": "62i"
    },
    {
      "time": "15368i",
      "midiNote": 54,
      "noteName": "F#3",
      "velocity": 1,
      "duration": "62i"
    },
    {
      "time": "15428i",
      "midiNote": 58,
      "noteName": "A#3",
      "velocity": 0.7480314960629921,
      "duration": "14i"
    },
    {
      "time": "15432i",
      "midiNote": 40,
      "noteName": "E2",
      "velocity": 0.8818897637795275,
      "duration": "62i"
    },
    {
      "time": "15460i",
      "midiNote": 59,
      "noteName": "B3",
      "velocity": 0.6456692913385826,
      "duration": "14i"
    },
    {
      "time": "15492i",
      "midiNote": 58,
      "noteName": "A#3",
      "velocity": 0.8346456692913385,
      "duration": "14i"
    },
    {
      "time": "15496i",
      "midiNote": 40,
      "noteName": "E2",
      "velocity": 0.8031496062992126,
      "duration": "62i"
    },
    {
      "time": "15556i",
      "midiNote": 57,
      "noteName": "A3",
      "velocity": 0.8818897637795275,
      "duration": "14i"
    },
    {
      "time": "15560i",
      "midiNote": 40,
      "noteName": "E2",
      "velocity": 0.6614173228346457,
      "duration": "62i"
    },
    {
      "time": "15560i",
      "midiNote": 54,
      "noteName": "F#3",
      "velocity": 0.6614173228346457,
      "duration": "62i"
    },
    {
      "time": "15684i",
      "midiNote": 57,
      "noteName": "A3",
      "velocity": 0.6299212598425197,
      "duration": "14i"
    },
    {
      "time": "15688i",
      "midiNote": 40,
      "noteName": "E2",
      "velocity": 0.5669291338582677,
      "duration": "62i"
    },
    {
      "time": "15688i",
      "midiNote": 54,
      "noteName": "F#3",
      "velocity": 0.5669291338582677,
      "duration": "62i"
    },
    {
      "time": "15752i",
      "midiNote": 40,
      "noteName": "E2",
      "velocity": 1,
      "duration": "62i"
    },
    {
      "time": "15752i",
      "midiNote": 54,
      "noteName": "F#3",
      "velocity": 1,
      "duration": "62i"
    },
    {
      "time": "15812i",
      "midiNote": 58,
      "noteName": "A#3",
      "velocity": 0.7480314960629921,
      "duration": "14i"
    },
    {
      "time": "15816i",
      "midiNote": 40,
      "noteName": "E2",
      "velocity": 0.8818897637795275,
      "duration": "62i"
    },
    {
      "time": "15844i",
      "midiNote": 59,
      "noteName": "B3",
      "velocity": 0.6456692913385826,
      "duration": "14i"
    },
    {
      "time": "15876i",
      "midiNote": 58,
      "noteName": "A#3",
      "velocity": 0.8346456692913385,
      "duration": "14i"
    },
    {
      "time": "15880i",
      "midiNote": 40,
      "noteName": "E2",
      "velocity": 0.8031496062992126,
      "duration": "62i"
    },
    {
      "time": "15940i",
      "midiNote": 57,
      "noteName": "A3",
      "velocity": 0.8818897637795275,
      "duration": "14i"
    },
    {
      "time": "15944i",
      "midiNote": 40,
      "noteName": "E2",
      "velocity": 0.6614173228346457,
      "duration": "62i"
    },
    {
      "time": "15944i",
      "midiNote": 54,
      "noteName": "F#3",
      "velocity": 0.6614173228346457,
      "duration": "62i"
    },
    {
      "time": "16008i",
      "midiNote": 54,
      "noteName": "F#3",
      "velocity": 0.3543307086614173,
      "duration": "62i"
    },
    {
      "time": "16008i",
      "midiNote": 40,
      "noteName": "E2",
      "velocity": 0.3543307086614173,
      "duration": "62i"
    },
    {
      "time": "16068i",
      "midiNote": 57,
      "noteName": "A3",
      "velocity": 0.6299212598425197,
      "duration": "14i"
    },
    {
      "time": "16072i",
      "midiNote": 40,
      "noteName": "E2",
      "velocity": 0.5669291338582677,
      "duration": "62i"
    },
    {
      "time": "16072i",
      "midiNote": 54,
      "noteName": "F#3",
      "velocity": 0.5669291338582677,
      "duration": "62i"
    },
    {
      "time": "16136i",
      "midiNote": 40,
      "noteName": "E2",
      "velocity": 1,
      "duration": "62i"
    },
    {
      "time": "16136i",
      "midiNote": 54,
      "noteName": "F#3",
      "velocity": 1,
      "duration": "62i"
    },
    {
      "time": "16196i",
      "midiNote": 58,
      "noteName": "A#3",
      "velocity": 0.7480314960629921,
      "duration": "14i"
    },
    {
      "time": "16200i",
      "midiNote": 40,
      "noteName": "E2",
      "velocity": 0.8818897637795275,
      "duration": "62i"
    },
    {
      "time": "16228i",
      "midiNote": 59,
      "noteName": "B3",
      "velocity": 0.6456692913385826,
      "duration": "14i"
    },
    {
      "time": "16260i",
      "midiNote": 58,
      "noteName": "A#3",
      "velocity": 0.8346456692913385,
      "duration": "14i"
    },
    {
      "time": "16264i",
      "midiNote": 40,
      "noteName": "E2",
      "velocity": 0.8031496062992126,
      "duration": "62i"
    },
    {
      "time": "16324i",
      "midiNote": 57,
      "noteName": "A3",
      "velocity": 0.8818897637795275,
      "duration": "14i"
    },
    {
      "time": "16328i",
      "midiNote": 54,
      "noteName": "F#3",
      "velocity": 0.6614173228346457,
      "duration": "62i"
    },
    {
      "time": "16328i",
      "midiNote": 40,
      "noteName": "E2",
      "velocity": 0.6614173228346457,
      "duration": "62i"
    },
    {
      "time": "16452i",
      "midiNote": 57,
      "noteName": "A3",
      "velocity": 0.6299212598425197,
      "duration": "14i"
    },
    {
      "time": "16456i",
      "midiNote": 40,
      "noteName": "E2",
      "velocity": 0.5669291338582677,
      "duration": "62i"
    },
    {
      "time": "16456i",
      "midiNote": 54,
      "noteName": "F#3",
      "velocity": 0.5669291338582677,
      "duration": "62i"
    },
    {
      "time": "16520i",
      "midiNote": 54,
      "noteName": "F#3",
      "velocity": 0.7480314960629921,
      "duration": "62i"
    },
    {
      "time": "16520i",
      "midiNote": 40,
      "noteName": "E2",
      "velocity": 0.7480314960629921,
      "duration": "62i"
    },
    {
      "time": "16580i",
      "midiNote": 58,
      "noteName": "A#3",
      "velocity": 0.7480314960629921,
      "duration": "14i"
    },
    {
      "time": "16584i",
      "midiNote": 40,
      "noteName": "E2",
      "velocity": 0.984251968503937,
      "duration": "62i"
    },
    {
      "time": "16612i",
      "midiNote": 59,
      "noteName": "B3",
      "velocity": 0.6456692913385826,
      "duration": "14i"
    },
    {
      "time": "16644i",
      "midiNote": 58,
      "noteName": "A#3",
      "velocity": 0.8346456692913385,
      "duration": "14i"
    },
    {
      "time": "16648i",
      "midiNote": 40,
      "noteName": "E2",
      "velocity": 0.7244094488188977,
      "duration": "62i"
    },
    {
      "time": "16708i",
      "midiNote": 57,
      "noteName": "A3",
      "velocity": 0.8818897637795275,
      "duration": "14i"
    },
    {
      "time": "16712i",
      "midiNote": 40,
      "noteName": "E2",
      "velocity": 1,
      "duration": "62i"
    },
    {
      "time": "16712i",
      "midiNote": 54,
      "noteName": "F#3",
      "velocity": 1,
      "duration": "62i"
    },
    {
      "time": "16776i",
      "midiNote": 40,
      "noteName": "E2",
      "velocity": 0.7480314960629921,
      "duration": "62i"
    },
    {
      "time": "16836i",
      "midiNote": 57,
      "noteName": "A3",
      "velocity": 0.6299212598425197,
      "duration": "14i"
    },
    {
      "time": "16840i",
      "midiNote": 54,
      "noteName": "F#3",
      "velocity": 0.5669291338582677,
      "duration": "62i"
    },
    {
      "time": "16840i",
      "midiNote": 40,
      "noteName": "E2",
      "velocity": 0.5669291338582677,
      "duration": "62i"
    },
    {
      "time": "16904i",
      "midiNote": 40,
      "noteName": "E2",
      "velocity": 1,
      "duration": "62i"
    },
    {
      "time": "16904i",
      "midiNote": 47,
      "noteName": "B2",
      "velocity": 1,
      "duration": "62i"
    },
    {
      "time": "16964i",
      "midiNote": 58,
      "noteName": "A#3",
      "velocity": 0.7480314960629921,
      "duration": "14i"
    },
    {
      "time": "16968i",
      "midiNote": 47,
      "noteName": "B2",
      "velocity": 0.8818897637795275,
      "duration": "62i"
    },
    {
      "time": "16968i",
      "midiNote": 40,
      "noteName": "E2",
      "velocity": 0.8818897637795275,
      "duration": "62i"
    },
    {
      "time": "16996i",
      "midiNote": 59,
      "noteName": "B3",
      "velocity": 0.6456692913385826,
      "duration": "14i"
    },
    {
      "time": "17028i",
      "midiNote": 58,
      "noteName": "A#3",
      "velocity": 0.8346456692913385,
      "duration": "14i"
    },
    {
      "time": "17032i",
      "midiNote": 47,
      "noteName": "B2",
      "velocity": 0.8031496062992126,
      "duration": "62i"
    },
    {
      "time": "17032i",
      "midiNote": 40,
      "noteName": "E2",
      "velocity": 0.8031496062992126,
      "duration": "62i"
    },
    {
      "time": "17092i",
      "midiNote": 57,
      "noteName": "A3",
      "velocity": 0.8818897637795275,
      "duration": "14i"
    },
    {
      "time": "17096i",
      "midiNote": 40,
      "noteName": "E2",
      "velocity": 0.6614173228346457,
      "duration": "62i"
    },
    {
      "time": "17096i",
      "midiNote": 47,
      "noteName": "B2",
      "velocity": 0.6614173228346457,
      "duration": "62i"
    },
    {
      "time": "17220i",
      "midiNote": 57,
      "noteName": "A3",
      "velocity": 0.6299212598425197,
      "duration": "14i"
    },
    {
      "time": "17224i",
      "midiNote": 40,
      "noteName": "E2",
      "velocity": 0.5669291338582677,
      "duration": "62i"
    },
    {
      "time": "17224i",
      "midiNote": 47,
      "noteName": "B2",
      "velocity": 0.5669291338582677,
      "duration": "62i"
    },
    {
      "time": "17288i",
      "midiNote": 40,
      "noteName": "E2",
      "velocity": 1,
      "duration": "62i"
    },
    {
      "time": "17288i",
      "midiNote": 47,
      "noteName": "B2",
      "velocity": 1,
      "duration": "62i"
    },
    {
      "time": "17348i",
      "midiNote": 58,
      "noteName": "A#3",
      "velocity": 0.7480314960629921,
      "duration": "14i"
    },
    {
      "time": "17352i",
      "midiNote": 40,
      "noteName": "E2",
      "velocity": 0.8818897637795275,
      "duration": "62i"
    },
    {
      "time": "17352i",
      "midiNote": 47,
      "noteName": "B2",
      "velocity": 0.8818897637795275,
      "duration": "62i"
    },
    {
      "time": "17380i",
      "midiNote": 59,
      "noteName": "B3",
      "velocity": 0.6456692913385826,
      "duration": "14i"
    },
    {
      "time": "17412i",
      "midiNote": 58,
      "noteName": "A#3",
      "velocity": 0.8346456692913385,
      "duration": "14i"
    },
    {
      "time": "17416i",
      "midiNote": 47,
      "noteName": "B2",
      "velocity": 0.8031496062992126,
      "duration": "62i"
    },
    {
      "time": "17416i",
      "midiNote": 40,
      "noteName": "E2",
      "velocity": 0.8031496062992126,
      "duration": "62i"
    },
    {
      "time": "17476i",
      "midiNote": 57,
      "noteName": "A3",
      "velocity": 0.8818897637795275,
      "duration": "14i"
    },
    {
      "time": "17480i",
      "midiNote": 47,
      "noteName": "B2",
      "velocity": 0.6614173228346457,
      "duration": "62i"
    },
    {
      "time": "17480i",
      "midiNote": 40,
      "noteName": "E2",
      "velocity": 0.6614173228346457,
      "duration": "62i"
    },
    {
      "time": "17544i",
      "midiNote": 40,
      "noteName": "E2",
      "velocity": 0.3543307086614173,
      "duration": "62i"
    },
    {
      "time": "17544i",
      "midiNote": 47,
      "noteName": "B2",
      "velocity": 0.3543307086614173,
      "duration": "62i"
    },
    {
      "time": "17604i",
      "midiNote": 57,
      "noteName": "A3",
      "velocity": 0.6299212598425197,
      "duration": "14i"
    },
    {
      "time": "17608i",
      "midiNote": 47,
      "noteName": "B2",
      "velocity": 0.5669291338582677,
      "duration": "62i"
    },
    {
      "time": "17608i",
      "midiNote": 40,
      "noteName": "E2",
      "velocity": 0.5669291338582677,
      "duration": "62i"
    },
    {
      "time": "17672i",
      "midiNote": 47,
      "noteName": "B2",
      "velocity": 1,
      "duration": "62i"
    },
    {
      "time": "17672i",
      "midiNote": 40,
      "noteName": "E2",
      "velocity": 1,
      "duration": "62i"
    },
    {
      "time": "17732i",
      "midiNote": 58,
      "noteName": "A#3",
      "velocity": 0.7480314960629921,
      "duration": "14i"
    },
    {
      "time": "17736i",
      "midiNote": 40,
      "noteName": "E2",
      "velocity": 0.8818897637795275,
      "duration": "62i"
    },
    {
      "time": "17736i",
      "midiNote": 47,
      "noteName": "B2",
      "velocity": 0.8818897637795275,
      "duration": "62i"
    },
    {
      "time": "17764i",
      "midiNote": 59,
      "noteName": "B3",
      "velocity": 0.6456692913385826,
      "duration": "14i"
    },
    {
      "time": "17796i",
      "midiNote": 58,
      "noteName": "A#3",
      "velocity": 0.8346456692913385,
      "duration": "14i"
    },
    {
      "time": "17800i",
      "midiNote": 47,
      "noteName": "B2",
      "velocity": 0.8031496062992126,
      "duration": "62i"
    },
    {
      "time": "17800i",
      "midiNote": 40,
      "noteName": "E2",
      "velocity": 0.8031496062992126,
      "duration": "62i"
    },
    {
      "time": "17860i",
      "midiNote": 57,
      "noteName": "A3",
      "velocity": 0.8818897637795275,
      "duration": "14i"
    },
    {
      "time": "17864i",
      "midiNote": 40,
      "noteName": "E2",
      "velocity": 0.6614173228346457,
      "duration": "62i"
    },
    {
      "time": "17864i",
      "midiNote": 47,
      "noteName": "B2",
      "velocity": 0.6614173228346457,
      "duration": "62i"
    },
    {
      "time": "17988i",
      "midiNote": 57,
      "noteName": "A3",
      "velocity": 0.6299212598425197,
      "duration": "14i"
    },
    {
      "time": "17992i",
      "midiNote": 47,
      "noteName": "B2",
      "velocity": 0.5669291338582677,
      "duration": "62i"
    },
    {
      "time": "17992i",
      "midiNote": 40,
      "noteName": "E2",
      "velocity": 0.5669291338582677,
      "duration": "62i"
    },
    {
      "time": "18056i",
      "midiNote": 47,
      "noteName": "B2",
      "velocity": 0.7874015748031497,
      "duration": "62i"
    },
    {
      "time": "18056i",
      "midiNote": 40,
      "noteName": "E2",
      "velocity": 0.7874015748031497,
      "duration": "62i"
    },
    {
      "time": "18112i",
      "midiNote": 61,
      "noteName": "C#4",
      "velocity": 0.5826771653543307,
      "duration": "6i"
    },
    {
      "time": "18112i",
      "midiNote": 67,
      "noteName": "G4",
      "velocity": 0.5826771653543307,
      "duration": "6i"
    },
    {
      "time": "18116i",
      "midiNote": 58,
      "noteName": "A#3",
      "velocity": 0.7480314960629921,
      "duration": "14i"
    },
    {
      "time": "18120i",
      "midiNote": 67,
      "noteName": "G4",
      "velocity": 1,
      "duration": "62i"
    },
    {
      "time": "18120i",
      "midiNote": 61,
      "noteName": "C#4",
      "velocity": 1,
      "duration": "62i"
    },
    {
      "time": "18120i",
      "midiNote": 47,
      "noteName": "B2",
      "velocity": 1,
      "duration": "62i"
    },
    {
      "time": "18120i",
      "midiNote": 40,
      "noteName": "E2",
      "velocity": 1,
      "duration": "62i"
    },
    {
      "time": "18148i",
      "midiNote": 59,
      "noteName": "B3",
      "velocity": 0.6456692913385826,
      "duration": "14i"
    },
    {
      "time": "18180i",
      "midiNote": 58,
      "noteName": "A#3",
      "velocity": 0.8346456692913385,
      "duration": "14i"
    },
    {
      "time": "18184i",
      "midiNote": 40,
      "noteName": "E2",
      "velocity": 0.6771653543307087,
      "duration": "62i"
    },
    {
      "time": "18184i",
      "midiNote": 47,
      "noteName": "B2",
      "velocity": 0.6771653543307087,
      "duration": "62i"
    },
    {
      "time": "18244i",
      "midiNote": 57,
      "noteName": "A3",
      "velocity": 0.8818897637795275,
      "duration": "14i"
    },
    {
      "time": "18248i",
      "midiNote": 67,
      "noteName": "G4",
      "velocity": 1,
      "duration": "62i"
    },
    {
      "time": "18248i",
      "midiNote": 61,
      "noteName": "C#4",
      "velocity": 0.984251968503937,
      "duration": "62i"
    },
    {
      "time": "18248i",
      "midiNote": 47,
      "noteName": "B2",
      "velocity": 1,
      "duration": "62i"
    },
    {
      "time": "18248i",
      "midiNote": 40,
      "noteName": "E2",
      "velocity": 1,
      "duration": "62i"
    },
    {
      "time": "18312i",
      "midiNote": 40,
      "noteName": "E2",
      "velocity": 0.6771653543307087,
      "duration": "62i"
    },
    {
      "time": "18312i",
      "midiNote": 47,
      "noteName": "B2",
      "velocity": 0.6771653543307087,
      "duration": "62i"
    },
    {
      "time": "18372i",
      "midiNote": 57,
      "noteName": "A3",
      "velocity": 0.6299212598425197,
      "duration": "14i"
    },
    {
      "time": "18376i",
      "midiNote": 67,
      "noteName": "G4",
      "velocity": 1,
      "duration": "62i"
    },
    {
      "time": "18376i",
      "midiNote": 61,
      "noteName": "C#4",
      "velocity": 0.984251968503937,
      "duration": "62i"
    },
    {
      "time": "18376i",
      "midiNote": 47,
      "noteName": "B2",
      "velocity": 0.984251968503937,
      "duration": "62i"
    },
    {
      "time": "18376i",
      "midiNote": 40,
      "noteName": "E2",
      "velocity": 0.984251968503937,
      "duration": "62i"
    },
    {
      "time": "18440i",
      "midiNote": 40,
      "noteName": "E2",
      "velocity": 1,
      "duration": "62i"
    },
    {
      "time": "18440i",
      "midiNote": 47,
      "noteName": "B2",
      "velocity": 1,
      "duration": "62i"
    },
    {
      "time": "18500i",
      "midiNote": 58,
      "noteName": "A#3",
      "velocity": 0.7480314960629921,
      "duration": "14i"
    },
    {
      "time": "18504i",
      "midiNote": 47,
      "noteName": "B2",
      "velocity": 0.8818897637795275,
      "duration": "62i"
    },
    {
      "time": "18504i",
      "midiNote": 40,
      "noteName": "E2",
      "velocity": 0.8818897637795275,
      "duration": "62i"
    },
    {
      "time": "18532i",
      "midiNote": 59,
      "noteName": "B3",
      "velocity": 0.6456692913385826,
      "duration": "14i"
    },
    {
      "time": "18564i",
      "midiNote": 58,
      "noteName": "A#3",
      "velocity": 0.8346456692913385,
      "duration": "14i"
    },
    {
      "time": "18568i",
      "midiNote": 47,
      "noteName": "B2",
      "velocity": 0.8031496062992126,
      "duration": "62i"
    },
    {
      "time": "18568i",
      "midiNote": 40,
      "noteName": "E2",
      "velocity": 0.8031496062992126,
      "duration": "62i"
    },
    {
      "time": "18628i",
      "midiNote": 57,
      "noteName": "A3",
      "velocity": 0.8818897637795275,
      "duration": "14i"
    },
    {
      "time": "18632i",
      "midiNote": 40,
      "noteName": "E2",
      "velocity": 0.6614173228346457,
      "duration": "62i"
    },
    {
      "time": "18632i",
      "midiNote": 47,
      "noteName": "B2",
      "velocity": 0.6614173228346457,
      "duration": "62i"
    },
    {
      "time": "18756i",
      "midiNote": 57,
      "noteName": "A3",
      "velocity": 0.6299212598425197,
      "duration": "14i"
    },
    {
      "time": "18760i",
      "midiNote": 40,
      "noteName": "E2",
      "velocity": 0.5669291338582677,
      "duration": "62i"
    },
    {
      "time": "18760i",
      "midiNote": 47,
      "noteName": "B2",
      "velocity": 0.5669291338582677,
      "duration": "62i"
    },
    {
      "time": "18824i",
      "midiNote": 40,
      "noteName": "E2",
      "velocity": 1,
      "duration": "62i"
    },
    {
      "time": "18824i",
      "midiNote": 47,
      "noteName": "B2",
      "velocity": 1,
      "duration": "62i"
    },
    {
      "time": "18884i",
      "midiNote": 58,
      "noteName": "A#3",
      "velocity": 0.7480314960629921,
      "duration": "14i"
    },
    {
      "time": "18888i",
      "midiNote": 40,
      "noteName": "E2",
      "velocity": 0.8818897637795275,
      "duration": "62i"
    },
    {
      "time": "18888i",
      "midiNote": 47,
      "noteName": "B2",
      "velocity": 0.8818897637795275,
      "duration": "62i"
    },
    {
      "time": "18916i",
      "midiNote": 59,
      "noteName": "B3",
      "velocity": 0.6456692913385826,
      "duration": "14i"
    },
    {
      "time": "18948i",
      "midiNote": 58,
      "noteName": "A#3",
      "velocity": 0.8346456692913385,
      "duration": "14i"
    },
    {
      "time": "18952i",
      "midiNote": 47,
      "noteName": "B2",
      "velocity": 0.8031496062992126,
      "duration": "62i"
    },
    {
      "time": "18952i",
      "midiNote": 40,
      "noteName": "E2",
      "velocity": 0.8031496062992126,
      "duration": "62i"
    },
    {
      "time": "19012i",
      "midiNote": 57,
      "noteName": "A3",
      "velocity": 0.8818897637795275,
      "duration": "14i"
    },
    {
      "time": "19016i",
      "midiNote": 47,
      "noteName": "B2",
      "velocity": 0.6614173228346457,
      "duration": "62i"
    },
    {
      "time": "19016i",
      "midiNote": 40,
      "noteName": "E2",
      "velocity": 0.6614173228346457,
      "duration": "62i"
    },
    {
      "time": "19080i",
      "midiNote": 40,
      "noteName": "E2",
      "velocity": 0.3543307086614173,
      "duration": "62i"
    },
    {
      "time": "19080i",
      "midiNote": 47,
      "noteName": "B2",
      "velocity": 0.3543307086614173,
      "duration": "62i"
    },
    {
      "time": "19140i",
      "midiNote": 57,
      "noteName": "A3",
      "velocity": 0.6299212598425197,
      "duration": "14i"
    },
    {
      "time": "19144i",
      "midiNote": 47,
      "noteName": "B2",
      "velocity": 0.5669291338582677,
      "duration": "62i"
    },
    {
      "time": "19144i",
      "midiNote": 40,
      "noteName": "E2",
      "velocity": 0.5669291338582677,
      "duration": "62i"
    },
    {
      "time": "19208i",
      "midiNote": 47,
      "noteName": "B2",
      "velocity": 1,
      "duration": "62i"
    },
    {
      "time": "19208i",
      "midiNote": 40,
      "noteName": "E2",
      "velocity": 1,
      "duration": "62i"
    },
    {
      "time": "19268i",
      "midiNote": 58,
      "noteName": "A#3",
      "velocity": 0.7480314960629921,
      "duration": "14i"
    },
    {
      "time": "19272i",
      "midiNote": 40,
      "noteName": "E2",
      "velocity": 0.8818897637795275,
      "duration": "62i"
    },
    {
      "time": "19272i",
      "midiNote": 47,
      "noteName": "B2",
      "velocity": 0.8818897637795275,
      "duration": "62i"
    },
    {
      "time": "19300i",
      "midiNote": 59,
      "noteName": "B3",
      "velocity": 0.6456692913385826,
      "duration": "14i"
    },
    {
      "time": "19332i",
      "midiNote": 58,
      "noteName": "A#3",
      "velocity": 0.8346456692913385,
      "duration": "14i"
    },
    {
      "time": "19336i",
      "midiNote": 47,
      "noteName": "B2",
      "velocity": 0.8031496062992126,
      "duration": "62i"
    },
    {
      "time": "19336i",
      "midiNote": 40,
      "noteName": "E2",
      "velocity": 0.8031496062992126,
      "duration": "62i"
    },
    {
      "time": "19396i",
      "midiNote": 57,
      "noteName": "A3",
      "velocity": 0.8818897637795275,
      "duration": "14i"
    },
    {
      "time": "19400i",
      "midiNote": 40,
      "noteName": "E2",
      "velocity": 0.6614173228346457,
      "duration": "62i"
    },
    {
      "time": "19400i",
      "midiNote": 47,
      "noteName": "B2",
      "velocity": 0.6614173228346457,
      "duration": "62i"
    },
    {
      "time": "19524i",
      "midiNote": 57,
      "noteName": "A3",
      "velocity": 0.6299212598425197,
      "duration": "14i"
    },
    {
      "time": "19528i",
      "midiNote": 47,
      "noteName": "B2",
      "velocity": 0.5669291338582677,
      "duration": "62i"
    },
    {
      "time": "19528i",
      "midiNote": 40,
      "noteName": "E2",
      "velocity": 0.5669291338582677,
      "duration": "62i"
    },
    {
      "time": "19592i",
      "midiNote": 47,
      "noteName": "B2",
      "velocity": 0.7874015748031497,
      "duration": "62i"
    },
    {
      "time": "19592i",
      "midiNote": 40,
      "noteName": "E2",
      "velocity": 0.7874015748031497,
      "duration": "62i"
    },
    {
      "time": "19648i",
      "midiNote": 61,
      "noteName": "C#4",
      "velocity": 0.5826771653543307,
      "duration": "6i"
    },
    {
      "time": "19648i",
      "midiNote": 67,
      "noteName": "G4",
      "velocity": 0.5826771653543307,
      "duration": "6i"
    },
    {
      "time": "19652i",
      "midiNote": 58,
      "noteName": "A#3",
      "velocity": 0.7480314960629921,
      "duration": "14i"
    },
    {
      "time": "19656i",
      "midiNote": 67,
      "noteName": "G4",
      "velocity": 1,
      "duration": "62i"
    },
    {
      "time": "19656i",
      "midiNote": 61,
      "noteName": "C#4",
      "velocity": 1,
      "duration": "62i"
    },
    {
      "time": "19656i",
      "midiNote": 47,
      "noteName": "B2",
      "velocity": 1,
      "duration": "62i"
    },
    {
      "time": "19656i",
      "midiNote": 40,
      "noteName": "E2",
      "velocity": 1,
      "duration": "62i"
    },
    {
      "time": "19684i",
      "midiNote": 59,
      "noteName": "B3",
      "velocity": 0.6456692913385826,
      "duration": "14i"
    },
    {
      "time": "19716i",
      "midiNote": 58,
      "noteName": "A#3",
      "velocity": 0.8346456692913385,
      "duration": "14i"
    },
    {
      "time": "19720i",
      "midiNote": 40,
      "noteName": "E2",
      "velocity": 0.6771653543307087,
      "duration": "62i"
    },
    {
      "time": "19720i",
      "midiNote": 47,
      "noteName": "B2",
      "velocity": 0.6771653543307087,
      "duration": "62i"
    },
    {
      "time": "19780i",
      "midiNote": 57,
      "noteName": "A3",
      "velocity": 0.8818897637795275,
      "duration": "14i"
    },
    {
      "time": "19784i",
      "midiNote": 67,
      "noteName": "G4",
      "velocity": 1,
      "duration": "62i"
    },
    {
      "time": "19784i",
      "midiNote": 61,
      "noteName": "C#4",
      "velocity": 0.984251968503937,
      "duration": "62i"
    },
    {
      "time": "19784i",
      "midiNote": 47,
      "noteName": "B2",
      "velocity": 1,
      "duration": "62i"
    },
    {
      "time": "19784i",
      "midiNote": 40,
      "noteName": "E2",
      "velocity": 1,
      "duration": "62i"
    },
    {
      "time": "19848i",
      "midiNote": 40,
      "noteName": "E2",
      "velocity": 0.6771653543307087,
      "duration": "62i"
    },
    {
      "time": "19848i",
      "midiNote": 47,
      "noteName": "B2",
      "velocity": 0.6771653543307087,
      "duration": "62i"
    },
    {
      "time": "19908i",
      "midiNote": 57,
      "noteName": "A3",
      "velocity": 0.6299212598425197,
      "duration": "14i"
    },
    {
      "time": "19912i",
      "midiNote": 67,
      "noteName": "G4",
      "velocity": 1,
      "duration": "62i"
    },
    {
      "time": "19912i",
      "midiNote": 61,
      "noteName": "C#4",
      "velocity": 0.984251968503937,
      "duration": "62i"
    },
    {
      "time": "19912i",
      "midiNote": 47,
      "noteName": "B2",
      "velocity": 0.984251968503937,
      "duration": "62i"
    },
    {
      "time": "19912i",
      "midiNote": 40,
      "noteName": "E2",
      "velocity": 0.984251968503937,
      "duration": "62i"
    },
    {
      "time": "19976i",
      "midiNote": 40,
      "noteName": "E2",
      "velocity": 1,
      "duration": "62i"
    },
    {
      "time": "19976i",
      "midiNote": 47,
      "noteName": "B2",
      "velocity": 1,
      "duration": "62i"
    },
    {
      "time": "20036i",
      "midiNote": 58,
      "noteName": "A#3",
      "velocity": 0.7480314960629921,
      "duration": "14i"
    },
    {
      "time": "20040i",
      "midiNote": 47,
      "noteName": "B2",
      "velocity": 0.8818897637795275,
      "duration": "62i"
    },
    {
      "time": "20040i",
      "midiNote": 40,
      "noteName": "E2",
      "velocity": 0.8818897637795275,
      "duration": "62i"
    },
    {
      "time": "20068i",
      "midiNote": 59,
      "noteName": "B3",
      "velocity": 0.6456692913385826,
      "duration": "14i"
    },
    {
      "time": "20100i",
      "midiNote": 58,
      "noteName": "A#3",
      "velocity": 0.8346456692913385,
      "duration": "14i"
    },
    {
      "time": "20104i",
      "midiNote": 47,
      "noteName": "B2",
      "velocity": 0.8031496062992126,
      "duration": "62i"
    },
    {
      "time": "20104i",
      "midiNote": 40,
      "noteName": "E2",
      "velocity": 0.8031496062992126,
      "duration": "62i"
    },
    {
      "time": "20164i",
      "midiNote": 57,
      "noteName": "A3",
      "velocity": 0.8818897637795275,
      "duration": "14i"
    },
    {
      "time": "20168i",
      "midiNote": 40,
      "noteName": "E2",
      "velocity": 0.6614173228346457,
      "duration": "62i"
    },
    {
      "time": "20168i",
      "midiNote": 47,
      "noteName": "B2",
      "velocity": 0.6614173228346457,
      "duration": "62i"
    },
    {
      "time": "20292i",
      "midiNote": 57,
      "noteName": "A3",
      "velocity": 0.6299212598425197,
      "duration": "14i"
    },
    {
      "time": "20296i",
      "midiNote": 40,
      "noteName": "E2",
      "velocity": 0.5669291338582677,
      "duration": "62i"
    },
    {
      "time": "20296i",
      "midiNote": 47,
      "noteName": "B2",
      "velocity": 0.5669291338582677,
      "duration": "62i"
    },
    {
      "time": "20360i",
      "midiNote": 40,
      "noteName": "E2",
      "velocity": 1,
      "duration": "62i"
    },
    {
      "time": "20360i",
      "midiNote": 47,
      "noteName": "B2",
      "velocity": 1,
      "duration": "62i"
    },
    {
      "time": "20420i",
      "midiNote": 58,
      "noteName": "A#3",
      "velocity": 0.7480314960629921,
      "duration": "14i"
    },
    {
      "time": "20424i",
      "midiNote": 40,
      "noteName": "E2",
      "velocity": 0.8818897637795275,
      "duration": "62i"
    },
    {
      "time": "20424i",
      "midiNote": 47,
      "noteName": "B2",
      "velocity": 0.8818897637795275,
      "duration": "62i"
    },
    {
      "time": "20452i",
      "midiNote": 59,
      "noteName": "B3",
      "velocity": 0.6456692913385826,
      "duration": "14i"
    },
    {
      "time": "20484i",
      "midiNote": 58,
      "noteName": "A#3",
      "velocity": 0.8346456692913385,
      "duration": "14i"
    },
    {
      "time": "20488i",
      "midiNote": 47,
      "noteName": "B2",
      "velocity": 0.8031496062992126,
      "duration": "62i"
    },
    {
      "time": "20488i",
      "midiNote": 40,
      "noteName": "E2",
      "velocity": 0.8031496062992126,
      "duration": "62i"
    },
    {
      "time": "20548i",
      "midiNote": 57,
      "noteName": "A3",
      "velocity": 0.8818897637795275,
      "duration": "14i"
    },
    {
      "time": "20552i",
      "midiNote": 47,
      "noteName": "B2",
      "velocity": 0.6614173228346457,
      "duration": "62i"
    },
    {
      "time": "20552i",
      "midiNote": 40,
      "noteName": "E2",
      "velocity": 0.6614173228346457,
      "duration": "62i"
    },
    {
      "time": "20616i",
      "midiNote": 40,
      "noteName": "E2",
      "velocity": 0.3543307086614173,
      "duration": "62i"
    },
    {
      "time": "20616i",
      "midiNote": 47,
      "noteName": "B2",
      "velocity": 0.3543307086614173,
      "duration": "62i"
    },
    {
      "time": "20676i",
      "midiNote": 57,
      "noteName": "A3",
      "velocity": 0.6299212598425197,
      "duration": "14i"
    },
    {
      "time": "20680i",
      "midiNote": 47,
      "noteName": "B2",
      "velocity": 0.5669291338582677,
      "duration": "62i"
    },
    {
      "time": "20680i",
      "midiNote": 40,
      "noteName": "E2",
      "velocity": 0.5669291338582677,
      "duration": "62i"
    },
    {
      "time": "20744i",
      "midiNote": 47,
      "noteName": "B2",
      "velocity": 1,
      "duration": "62i"
    },
    {
      "time": "20744i",
      "midiNote": 40,
      "noteName": "E2",
      "velocity": 1,
      "duration": "62i"
    },
    {
      "time": "20804i",
      "midiNote": 58,
      "noteName": "A#3",
      "velocity": 0.7480314960629921,
      "duration": "14i"
    },
    {
      "time": "20808i",
      "midiNote": 40,
      "noteName": "E2",
      "velocity": 0.8818897637795275,
      "duration": "62i"
    },
    {
      "time": "20808i",
      "midiNote": 47,
      "noteName": "B2",
      "velocity": 0.8818897637795275,
      "duration": "62i"
    },
    {
      "time": "20836i",
      "midiNote": 59,
      "noteName": "B3",
      "velocity": 0.6456692913385826,
      "duration": "14i"
    },
    {
      "time": "20868i",
      "midiNote": 58,
      "noteName": "A#3",
      "velocity": 0.8346456692913385,
      "duration": "14i"
    },
    {
      "time": "20872i",
      "midiNote": 47,
      "noteName": "B2",
      "velocity": 0.8031496062992126,
      "duration": "62i"
    },
    {
      "time": "20872i",
      "midiNote": 40,
      "noteName": "E2",
      "velocity": 0.8031496062992126,
      "duration": "62i"
    },
    {
      "time": "20932i",
      "midiNote": 57,
      "noteName": "A3",
      "velocity": 0.8818897637795275,
      "duration": "14i"
    },
    {
      "time": "20936i",
      "midiNote": 40,
      "noteName": "E2",
      "velocity": 0.6614173228346457,
      "duration": "62i"
    },
    {
      "time": "20936i",
      "midiNote": 47,
      "noteName": "B2",
      "velocity": 0.6614173228346457,
      "duration": "62i"
    },
    {
      "time": "21060i",
      "midiNote": 57,
      "noteName": "A3",
      "velocity": 0.6299212598425197,
      "duration": "14i"
    },
    {
      "time": "21064i",
      "midiNote": 47,
      "noteName": "B2",
      "velocity": 0.5669291338582677,
      "duration": "62i"
    },
    {
      "time": "21064i",
      "midiNote": 40,
      "noteName": "E2",
      "velocity": 0.5669291338582677,
      "duration": "62i"
    },
    {
      "time": "21128i",
      "midiNote": 47,
      "noteName": "B2",
      "velocity": 0.7874015748031497,
      "duration": "62i"
    },
    {
      "time": "21128i",
      "midiNote": 40,
      "noteName": "E2",
      "velocity": 0.7874015748031497,
      "duration": "62i"
    },
    {
      "time": "21184i",
      "midiNote": 61,
      "noteName": "C#4",
      "velocity": 0.5826771653543307,
      "duration": "6i"
    },
    {
      "time": "21184i",
      "midiNote": 67,
      "noteName": "G4",
      "velocity": 0.5826771653543307,
      "duration": "6i"
    },
    {
      "time": "21188i",
      "midiNote": 58,
      "noteName": "A#3",
      "velocity": 0.7480314960629921,
      "duration": "14i"
    },
    {
      "time": "21192i",
      "midiNote": 67,
      "noteName": "G4",
      "velocity": 1,
      "duration": "62i"
    },
    {
      "time": "21192i",
      "midiNote": 61,
      "noteName": "C#4",
      "velocity": 1,
      "duration": "62i"
    },
    {
      "time": "21192i",
      "midiNote": 47,
      "noteName": "B2",
      "velocity": 1,
      "duration": "62i"
    },
    {
      "time": "21192i",
      "midiNote": 40,
      "noteName": "E2",
      "velocity": 1,
      "duration": "62i"
    },
    {
      "time": "21220i",
      "midiNote": 59,
      "noteName": "B3",
      "velocity": 0.6456692913385826,
      "duration": "14i"
    },
    {
      "time": "21252i",
      "midiNote": 58,
      "noteName": "A#3",
      "velocity": 0.8346456692913385,
      "duration": "14i"
    },
    {
      "time": "21256i",
      "midiNote": 40,
      "noteName": "E2",
      "velocity": 0.6771653543307087,
      "duration": "62i"
    },
    {
      "time": "21256i",
      "midiNote": 47,
      "noteName": "B2",
      "velocity": 0.6771653543307087,
      "duration": "62i"
    },
    {
      "time": "21316i",
      "midiNote": 57,
      "noteName": "A3",
      "velocity": 0.8818897637795275,
      "duration": "14i"
    },
    {
      "time": "21320i",
      "midiNote": 67,
      "noteName": "G4",
      "velocity": 1,
      "duration": "62i"
    },
    {
      "time": "21320i",
      "midiNote": 61,
      "noteName": "C#4",
      "velocity": 0.984251968503937,
      "duration": "62i"
    },
    {
      "time": "21320i",
      "midiNote": 47,
      "noteName": "B2",
      "velocity": 1,
      "duration": "62i"
    },
    {
      "time": "21320i",
      "midiNote": 40,
      "noteName": "E2",
      "velocity": 1,
      "duration": "62i"
    },
    {
      "time": "21384i",
      "midiNote": 40,
      "noteName": "E2",
      "velocity": 0.6771653543307087,
      "duration": "62i"
    },
    {
      "time": "21384i",
      "midiNote": 47,
      "noteName": "B2",
      "velocity": 0.6771653543307087,
      "duration": "62i"
    },
    {
      "time": "21444i",
      "midiNote": 57,
      "noteName": "A3",
      "velocity": 0.6299212598425197,
      "duration": "14i"
    },
    {
      "time": "21448i",
      "midiNote": 67,
      "noteName": "G4",
      "velocity": 1,
      "duration": "62i"
    },
    {
      "time": "21448i",
      "midiNote": 61,
      "noteName": "C#4",
      "velocity": 0.984251968503937,
      "duration": "62i"
    },
    {
      "time": "21448i",
      "midiNote": 47,
      "noteName": "B2",
      "velocity": 0.984251968503937,
      "duration": "62i"
    },
    {
      "time": "21448i",
      "midiNote": 40,
      "noteName": "E2",
      "velocity": 0.984251968503937,
      "duration": "62i"
    },
    {
      "time": "21512i",
      "midiNote": 40,
      "noteName": "E2",
      "velocity": 1,
      "duration": "62i"
    },
    {
      "time": "21512i",
      "midiNote": 47,
      "noteName": "B2",
      "velocity": 1,
      "duration": "62i"
    },
    {
      "time": "21572i",
      "midiNote": 58,
      "noteName": "A#3",
      "velocity": 0.7480314960629921,
      "duration": "14i"
    },
    {
      "time": "21576i",
      "midiNote": 47,
      "noteName": "B2",
      "velocity": 0.8818897637795275,
      "duration": "62i"
    },
    {
      "time": "21576i",
      "midiNote": 40,
      "noteName": "E2",
      "velocity": 0.8818897637795275,
      "duration": "62i"
    },
    {
      "time": "21604i",
      "midiNote": 59,
      "noteName": "B3",
      "velocity": 0.6456692913385826,
      "duration": "14i"
    },
    {
      "time": "21636i",
      "midiNote": 58,
      "noteName": "A#3",
      "velocity": 0.8346456692913385,
      "duration": "14i"
    },
    {
      "time": "21640i",
      "midiNote": 47,
      "noteName": "B2",
      "velocity": 0.8031496062992126,
      "duration": "62i"
    },
    {
      "time": "21640i",
      "midiNote": 40,
      "noteName": "E2",
      "velocity": 0.8031496062992126,
      "duration": "62i"
    },
    {
      "time": "21700i",
      "midiNote": 57,
      "noteName": "A3",
      "velocity": 0.8818897637795275,
      "duration": "14i"
    },
    {
      "time": "21704i",
      "midiNote": 40,
      "noteName": "E2",
      "velocity": 0.6614173228346457,
      "duration": "62i"
    },
    {
      "time": "21704i",
      "midiNote": 47,
      "noteName": "B2",
      "velocity": 0.6614173228346457,
      "duration": "62i"
    },
    {
      "time": "21828i",
      "midiNote": 57,
      "noteName": "A3",
      "velocity": 0.6299212598425197,
      "duration": "14i"
    },
    {
      "time": "21832i",
      "midiNote": 40,
      "noteName": "E2",
      "velocity": 0.5669291338582677,
      "duration": "62i"
    },
    {
      "time": "21832i",
      "midiNote": 47,
      "noteName": "B2",
      "velocity": 0.5669291338582677,
      "duration": "62i"
    },
    {
      "time": "21896i",
      "midiNote": 40,
      "noteName": "E2",
      "velocity": 1,
      "duration": "62i"
    },
    {
      "time": "21896i",
      "midiNote": 47,
      "noteName": "B2",
      "velocity": 1,
      "duration": "62i"
    },
    {
      "time": "21956i",
      "midiNote": 58,
      "noteName": "A#3",
      "velocity": 0.7480314960629921,
      "duration": "14i"
    },
    {
      "time": "21960i",
      "midiNote": 40,
      "noteName": "E2",
      "velocity": 0.8818897637795275,
      "duration": "62i"
    },
    {
      "time": "21960i",
      "midiNote": 47,
      "noteName": "B2",
      "velocity": 0.8818897637795275,
      "duration": "62i"
    },
    {
      "time": "21988i",
      "midiNote": 59,
      "noteName": "B3",
      "velocity": 0.6456692913385826,
      "duration": "14i"
    },
    {
      "time": "22020i",
      "midiNote": 58,
      "noteName": "A#3",
      "velocity": 0.8346456692913385,
      "duration": "14i"
    },
    {
      "time": "22024i",
      "midiNote": 47,
      "noteName": "B2",
      "velocity": 0.8031496062992126,
      "duration": "62i"
    },
    {
      "time": "22024i",
      "midiNote": 40,
      "noteName": "E2",
      "velocity": 0.8031496062992126,
      "duration": "62i"
    },
    {
      "time": "22084i",
      "midiNote": 57,
      "noteName": "A3",
      "velocity": 0.8818897637795275,
      "duration": "14i"
    },
    {
      "time": "22088i",
      "midiNote": 47,
      "noteName": "B2",
      "velocity": 0.6614173228346457,
      "duration": "62i"
    },
    {
      "time": "22088i",
      "midiNote": 40,
      "noteName": "E2",
      "velocity": 0.6614173228346457,
      "duration": "62i"
    },
    {
      "time": "22152i",
      "midiNote": 40,
      "noteName": "E2",
      "velocity": 0.3543307086614173,
      "duration": "62i"
    },
    {
      "time": "22152i",
      "midiNote": 47,
      "noteName": "B2",
      "velocity": 0.3543307086614173,
      "duration": "62i"
    },
    {
      "time": "22212i",
      "midiNote": 57,
      "noteName": "A3",
      "velocity": 0.6299212598425197,
      "duration": "14i"
    },
    {
      "time": "22216i",
      "midiNote": 47,
      "noteName": "B2",
      "velocity": 0.5669291338582677,
      "duration": "62i"
    },
    {
      "time": "22216i",
      "midiNote": 40,
      "noteName": "E2",
      "velocity": 0.5669291338582677,
      "duration": "62i"
    },
    {
      "time": "22280i",
      "midiNote": 47,
      "noteName": "B2",
      "velocity": 1,
      "duration": "62i"
    },
    {
      "time": "22280i",
      "midiNote": 40,
      "noteName": "E2",
      "velocity": 1,
      "duration": "62i"
    },
    {
      "time": "22340i",
      "midiNote": 58,
      "noteName": "A#3",
      "velocity": 0.7480314960629921,
      "duration": "14i"
    },
    {
      "time": "22344i",
      "midiNote": 40,
      "noteName": "E2",
      "velocity": 0.8818897637795275,
      "duration": "62i"
    },
    {
      "time": "22344i",
      "midiNote": 47,
      "noteName": "B2",
      "velocity": 0.8818897637795275,
      "duration": "62i"
    },
    {
      "time": "22372i",
      "midiNote": 59,
      "noteName": "B3",
      "velocity": 0.6456692913385826,
      "duration": "14i"
    },
    {
      "time": "22404i",
      "midiNote": 58,
      "noteName": "A#3",
      "velocity": 0.8346456692913385,
      "duration": "14i"
    },
    {
      "time": "22408i",
      "midiNote": 47,
      "noteName": "B2",
      "velocity": 0.8031496062992126,
      "duration": "62i"
    },
    {
      "time": "22408i",
      "midiNote": 40,
      "noteName": "E2",
      "velocity": 0.8031496062992126,
      "duration": "62i"
    },
    {
      "time": "22468i",
      "midiNote": 57,
      "noteName": "A3",
      "velocity": 0.8818897637795275,
      "duration": "14i"
    },
    {
      "time": "22472i",
      "midiNote": 40,
      "noteName": "E2",
      "velocity": 0.6614173228346457,
      "duration": "62i"
    },
    {
      "time": "22472i",
      "midiNote": 47,
      "noteName": "B2",
      "velocity": 0.6614173228346457,
      "duration": "62i"
    },
    {
      "time": "22596i",
      "midiNote": 57,
      "noteName": "A3",
      "velocity": 0.6299212598425197,
      "duration": "14i"
    },
    {
      "time": "22600i",
      "midiNote": 47,
      "noteName": "B2",
      "velocity": 0.5669291338582677,
      "duration": "62i"
    },
    {
      "time": "22600i",
      "midiNote": 40,
      "noteName": "E2",
      "velocity": 0.5669291338582677,
      "duration": "62i"
    },
    {
      "time": "22664i",
      "midiNote": 47,
      "noteName": "B2",
      "velocity": 0.7874015748031497,
      "duration": "62i"
    },
    {
      "time": "22664i",
      "midiNote": 40,
      "noteName": "E2",
      "velocity": 0.7874015748031497,
      "duration": "62i"
    },
    {
      "time": "22720i",
      "midiNote": 61,
      "noteName": "C#4",
      "velocity": 0.5826771653543307,
      "duration": "6i"
    },
    {
      "time": "22720i",
      "midiNote": 67,
      "noteName": "G4",
      "velocity": 0.5826771653543307,
      "duration": "6i"
    },
    {
      "time": "22724i",
      "midiNote": 58,
      "noteName": "A#3",
      "velocity": 0.7480314960629921,
      "duration": "14i"
    },
    {
      "time": "22728i",
      "midiNote": 67,
      "noteName": "G4",
      "velocity": 1,
      "duration": "62i"
    },
    {
      "time": "22728i",
      "midiNote": 61,
      "noteName": "C#4",
      "velocity": 1,
      "duration": "62i"
    },
    {
      "time": "22728i",
      "midiNote": 47,
      "noteName": "B2",
      "velocity": 1,
      "duration": "62i"
    },
    {
      "time": "22728i",
      "midiNote": 40,
      "noteName": "E2",
      "velocity": 1,
      "duration": "62i"
    },
    {
      "time": "22756i",
      "midiNote": 59,
      "noteName": "B3",
      "velocity": 0.6456692913385826,
      "duration": "14i"
    },
    {
      "time": "22788i",
      "midiNote": 58,
      "noteName": "A#3",
      "velocity": 0.8346456692913385,
      "duration": "14i"
    },
    {
      "time": "22792i",
      "midiNote": 40,
      "noteName": "E2",
      "velocity": 0.6771653543307087,
      "duration": "62i"
    },
    {
      "time": "22792i",
      "midiNote": 47,
      "noteName": "B2",
      "velocity": 0.6771653543307087,
      "duration": "62i"
    },
    {
      "time": "22852i",
      "midiNote": 57,
      "noteName": "A3",
      "velocity": 0.8818897637795275,
      "duration": "14i"
    },
    {
      "time": "22856i",
      "midiNote": 67,
      "noteName": "G4",
      "velocity": 1,
      "duration": "62i"
    },
    {
      "time": "22856i",
      "midiNote": 61,
      "noteName": "C#4",
      "velocity": 0.984251968503937,
      "duration": "62i"
    },
    {
      "time": "22856i",
      "midiNote": 47,
      "noteName": "B2",
      "velocity": 1,
      "duration": "62i"
    },
    {
      "time": "22856i",
      "midiNote": 40,
      "noteName": "E2",
      "velocity": 1,
      "duration": "62i"
    },
    {
      "time": "22920i",
      "midiNote": 40,
      "noteName": "E2",
      "velocity": 0.6771653543307087,
      "duration": "62i"
    },
    {
      "time": "22920i",
      "midiNote": 47,
      "noteName": "B2",
      "velocity": 0.6771653543307087,
      "duration": "62i"
    },
    {
      "time": "22980i",
      "midiNote": 57,
      "noteName": "A3",
      "velocity": 0.6299212598425197,
      "duration": "14i"
    },
    {
      "time": "22984i",
      "midiNote": 67,
      "noteName": "G4",
      "velocity": 1,
      "duration": "62i"
    },
    {
      "time": "22984i",
      "midiNote": 61,
      "noteName": "C#4",
      "velocity": 0.984251968503937,
      "duration": "62i"
    },
    {
      "time": "22984i",
      "midiNote": 47,
      "noteName": "B2",
      "velocity": 0.984251968503937,
      "duration": "62i"
    },
    {
      "time": "22984i",
      "midiNote": 40,
      "noteName": "E2",
      "velocity": 0.984251968503937,
      "duration": "62i"
    },
    {
      "time": "23048i",
      "midiNote": 40,
      "noteName": "E2",
      "velocity": 1,
      "duration": "62i"
    },
    {
      "time": "23048i",
      "midiNote": 47,
      "noteName": "B2",
      "velocity": 1,
      "duration": "62i"
    },
    {
      "time": "23108i",
      "midiNote": 58,
      "noteName": "A#3",
      "velocity": 0.7480314960629921,
      "duration": "14i"
    },
    {
      "time": "23112i",
      "midiNote": 47,
      "noteName": "B2",
      "velocity": 0.8818897637795275,
      "duration": "62i"
    },
    {
      "time": "23112i",
      "midiNote": 40,
      "noteName": "E2",
      "velocity": 0.8818897637795275,
      "duration": "62i"
    },
    {
      "time": "23140i",
      "midiNote": 59,
      "noteName": "B3",
      "velocity": 0.6456692913385826,
      "duration": "14i"
    },
    {
      "time": "23172i",
      "midiNote": 58,
      "noteName": "A#3",
      "velocity": 0.8346456692913385,
      "duration": "14i"
    },
    {
      "time": "23176i",
      "midiNote": 47,
      "noteName": "B2",
      "velocity": 0.8031496062992126,
      "duration": "62i"
    },
    {
      "time": "23176i",
      "midiNote": 40,
      "noteName": "E2",
      "velocity": 0.8031496062992126,
      "duration": "62i"
    },
    {
      "time": "23236i",
      "midiNote": 57,
      "noteName": "A3",
      "velocity": 0.8818897637795275,
      "duration": "14i"
    },
    {
      "time": "23240i",
      "midiNote": 40,
      "noteName": "E2",
      "velocity": 0.6614173228346457,
      "duration": "62i"
    },
    {
      "time": "23240i",
      "midiNote": 47,
      "noteName": "B2",
      "velocity": 0.6614173228346457,
      "duration": "62i"
    },
    {
      "time": "23364i",
      "midiNote": 57,
      "noteName": "A3",
      "velocity": 0.6299212598425197,
      "duration": "14i"
    },
    {
      "time": "23368i",
      "midiNote": 40,
      "noteName": "E2",
      "velocity": 0.5669291338582677,
      "duration": "62i"
    },
    {
      "time": "23368i",
      "midiNote": 47,
      "noteName": "B2",
      "velocity": 0.5669291338582677,
      "duration": "62i"
    },
    {
      "time": "23432i",
      "midiNote": 40,
      "noteName": "E2",
      "velocity": 1,
      "duration": "62i"
    },
    {
      "time": "23432i",
      "midiNote": 47,
      "noteName": "B2",
      "velocity": 1,
      "duration": "62i"
    },
    {
      "time": "23492i",
      "midiNote": 58,
      "noteName": "A#3",
      "velocity": 0.7480314960629921,
      "duration": "14i"
    },
    {
      "time": "23496i",
      "midiNote": 40,
      "noteName": "E2",
      "velocity": 0.8818897637795275,
      "duration": "62i"
    },
    {
      "time": "23496i",
      "midiNote": 47,
      "noteName": "B2",
      "velocity": 0.8818897637795275,
      "duration": "62i"
    },
    {
      "time": "23524i",
      "midiNote": 59,
      "noteName": "B3",
      "velocity": 0.6456692913385826,
      "duration": "14i"
    },
    {
      "time": "23556i",
      "midiNote": 58,
      "noteName": "A#3",
      "velocity": 0.8346456692913385,
      "duration": "14i"
    },
    {
      "time": "23560i",
      "midiNote": 47,
      "noteName": "B2",
      "velocity": 0.8031496062992126,
      "duration": "62i"
    },
    {
      "time": "23560i",
      "midiNote": 40,
      "noteName": "E2",
      "velocity": 0.8031496062992126,
      "duration": "62i"
    },
    {
      "time": "23620i",
      "midiNote": 57,
      "noteName": "A3",
      "velocity": 0.8818897637795275,
      "duration": "14i"
    },
    {
      "time": "23624i",
      "midiNote": 47,
      "noteName": "B2",
      "velocity": 0.6614173228346457,
      "duration": "62i"
    },
    {
      "time": "23624i",
      "midiNote": 40,
      "noteName": "E2",
      "velocity": 0.6614173228346457,
      "duration": "62i"
    },
    {
      "time": "23688i",
      "midiNote": 40,
      "noteName": "E2",
      "velocity": 0.3543307086614173,
      "duration": "62i"
    },
    {
      "time": "23688i",
      "midiNote": 47,
      "noteName": "B2",
      "velocity": 0.3543307086614173,
      "duration": "62i"
    },
    {
      "time": "23748i",
      "midiNote": 57,
      "noteName": "A3",
      "velocity": 0.6299212598425197,
      "duration": "14i"
    },
    {
      "time": "23752i",
      "midiNote": 47,
      "noteName": "B2",
      "velocity": 0.5669291338582677,
      "duration": "62i"
    },
    {
      "time": "23752i",
      "midiNote": 40,
      "noteName": "E2",
      "velocity": 0.5669291338582677,
      "duration": "62i"
    },
    {
      "time": "23816i",
      "midiNote": 47,
      "noteName": "B2",
      "velocity": 1,
      "duration": "62i"
    },
    {
      "time": "23816i",
      "midiNote": 40,
      "noteName": "E2",
      "velocity": 1,
      "duration": "62i"
    },
    {
      "time": "23876i",
      "midiNote": 58,
      "noteName": "A#3",
      "velocity": 0.7480314960629921,
      "duration": "14i"
    },
    {
      "time": "23880i",
      "midiNote": 40,
      "noteName": "E2",
      "velocity": 0.8818897637795275,
      "duration": "62i"
    },
    {
      "time": "23880i",
      "midiNote": 47,
      "noteName": "B2",
      "velocity": 0.8818897637795275,
      "duration": "62i"
    },
    {
      "time": "23908i",
      "midiNote": 59,
      "noteName": "B3",
      "velocity": 0.6456692913385826,
      "duration": "14i"
    },
    {
      "time": "23940i",
      "midiNote": 58,
      "noteName": "A#3",
      "velocity": 0.8346456692913385,
      "duration": "14i"
    },
    {
      "time": "23944i",
      "midiNote": 47,
      "noteName": "B2",
      "velocity": 0.8031496062992126,
      "duration": "62i"
    },
    {
      "time": "23944i",
      "midiNote": 40,
      "noteName": "E2",
      "velocity": 0.8031496062992126,
      "duration": "62i"
    },
    {
      "time": "24004i",
      "midiNote": 57,
      "noteName": "A3",
      "velocity": 0.8818897637795275,
      "duration": "14i"
    },
    {
      "time": "24008i",
      "midiNote": 40,
      "noteName": "E2",
      "velocity": 0.6614173228346457,
      "duration": "62i"
    },
    {
      "time": "24008i",
      "midiNote": 47,
      "noteName": "B2",
      "velocity": 0.6614173228346457,
      "duration": "62i"
    },
    {
      "time": "24132i",
      "midiNote": 57,
      "noteName": "A3",
      "velocity": 0.6299212598425197,
      "duration": "14i"
    },
    {
      "time": "24136i",
      "midiNote": 47,
      "noteName": "B2",
      "velocity": 0.5669291338582677,
      "duration": "62i"
    },
    {
      "time": "24136i",
      "midiNote": 40,
      "noteName": "E2",
      "velocity": 0.5669291338582677,
      "duration": "62i"
    },
    {
      "time": "24200i",
      "midiNote": 47,
      "noteName": "B2",
      "velocity": 0.7874015748031497,
      "duration": "62i"
    },
    {
      "time": "24200i",
      "midiNote": 40,
      "noteName": "E2",
      "velocity": 0.7874015748031497,
      "duration": "62i"
    },
    {
      "time": "24256i",
      "midiNote": 61,
      "noteName": "C#4",
      "velocity": 0.5826771653543307,
      "duration": "6i"
    },
    {
      "time": "24256i",
      "midiNote": 67,
      "noteName": "G4",
      "velocity": 0.5826771653543307,
      "duration": "6i"
    },
    {
      "time": "24260i",
      "midiNote": 58,
      "noteName": "A#3",
      "velocity": 0.7480314960629921,
      "duration": "14i"
    },
    {
      "time": "24264i",
      "midiNote": 67,
      "noteName": "G4",
      "velocity": 1,
      "duration": "62i"
    },
    {
      "time": "24264i",
      "midiNote": 61,
      "noteName": "C#4",
      "velocity": 1,
      "duration": "62i"
    },
    {
      "time": "24264i",
      "midiNote": 47,
      "noteName": "B2",
      "velocity": 1,
      "duration": "62i"
    },
    {
      "time": "24264i",
      "midiNote": 40,
      "noteName": "E2",
      "velocity": 1,
      "duration": "62i"
    },
    {
      "time": "24292i",
      "midiNote": 59,
      "noteName": "B3",
      "velocity": 0.6456692913385826,
      "duration": "14i"
    },
    {
      "time": "24324i",
      "midiNote": 58,
      "noteName": "A#3",
      "velocity": 0.8346456692913385,
      "duration": "14i"
    },
    {
      "time": "24328i",
      "midiNote": 40,
      "noteName": "E2",
      "velocity": 0.6771653543307087,
      "duration": "62i"
    },
    {
      "time": "24328i",
      "midiNote": 47,
      "noteName": "B2",
      "velocity": 0.6771653543307087,
      "duration": "62i"
    },
    {
      "time": "24388i",
      "midiNote": 57,
      "noteName": "A3",
      "velocity": 0.8818897637795275,
      "duration": "14i"
    },
    {
      "time": "24392i",
      "midiNote": 67,
      "noteName": "G4",
      "velocity": 1,
      "duration": "62i"
    },
    {
      "time": "24392i",
      "midiNote": 61,
      "noteName": "C#4",
      "velocity": 0.984251968503937,
      "duration": "62i"
    },
    {
      "time": "24392i",
      "midiNote": 47,
      "noteName": "B2",
      "velocity": 1,
      "duration": "62i"
    },
    {
      "time": "24392i",
      "midiNote": 40,
      "noteName": "E2",
      "velocity": 1,
      "duration": "62i"
    },
    {
      "time": "24456i",
      "midiNote": 40,
      "noteName": "E2",
      "velocity": 0.6771653543307087,
      "duration": "62i"
    },
    {
      "time": "24456i",
      "midiNote": 47,
      "noteName": "B2",
      "velocity": 0.6771653543307087,
      "duration": "62i"
    },
    {
      "time": "24516i",
      "midiNote": 57,
      "noteName": "A3",
      "velocity": 0.6299212598425197,
      "duration": "14i"
    },
    {
      "time": "24520i",
      "midiNote": 67,
      "noteName": "G4",
      "velocity": 1,
      "duration": "62i"
    },
    {
      "time": "24520i",
      "midiNote": 61,
      "noteName": "C#4",
      "velocity": 0.984251968503937,
      "duration": "62i"
    },
    {
      "time": "24520i",
      "midiNote": 47,
      "noteName": "B2",
      "velocity": 0.984251968503937,
      "duration": "62i"
    },
    {
      "time": "24520i",
      "midiNote": 40,
      "noteName": "E2",
      "velocity": 0.984251968503937,
      "duration": "62i"
    },
    {
      "time": "24584i",
      "midiNote": 40,
      "noteName": "E2",
      "velocity": 1,
      "duration": "62i"
    },
    {
      "time": "24584i",
      "midiNote": 47,
      "noteName": "B2",
      "velocity": 1,
      "duration": "62i"
    },
    {
      "time": "24644i",
      "midiNote": 58,
      "noteName": "A#3",
      "velocity": 0.7480314960629921,
      "duration": "14i"
    },
    {
      "time": "24648i",
      "midiNote": 47,
      "noteName": "B2",
      "velocity": 0.8818897637795275,
      "duration": "62i"
    },
    {
      "time": "24648i",
      "midiNote": 40,
      "noteName": "E2",
      "velocity": 0.8818897637795275,
      "duration": "62i"
    },
    {
      "time": "24676i",
      "midiNote": 59,
      "noteName": "B3",
      "velocity": 0.6456692913385826,
      "duration": "14i"
    },
    {
      "time": "24708i",
      "midiNote": 58,
      "noteName": "A#3",
      "velocity": 0.8346456692913385,
      "duration": "14i"
    },
    {
      "time": "24712i",
      "midiNote": 47,
      "noteName": "B2",
      "velocity": 0.8031496062992126,
      "duration": "62i"
    },
    {
      "time": "24712i",
      "midiNote": 40,
      "noteName": "E2",
      "velocity": 0.8031496062992126,
      "duration": "62i"
    },
    {
      "time": "24772i",
      "midiNote": 57,
      "noteName": "A3",
      "velocity": 0.8818897637795275,
      "duration": "14i"
    },
    {
      "time": "24776i",
      "midiNote": 40,
      "noteName": "E2",
      "velocity": 0.6614173228346457,
      "duration": "62i"
    },
    {
      "time": "24776i",
      "midiNote": 47,
      "noteName": "B2",
      "velocity": 0.6614173228346457,
      "duration": "62i"
    },
    {
      "time": "24900i",
      "midiNote": 57,
      "noteName": "A3",
      "velocity": 0.6299212598425197,
      "duration": "14i"
    },
    {
      "time": "24904i",
      "midiNote": 40,
      "noteName": "E2",
      "velocity": 0.5669291338582677,
      "duration": "62i"
    },
    {
      "time": "24904i",
      "midiNote": 47,
      "noteName": "B2",
      "velocity": 0.5669291338582677,
      "duration": "62i"
    },
    {
      "time": "24968i",
      "midiNote": 40,
      "noteName": "E2",
      "velocity": 1,
      "duration": "62i"
    },
    {
      "time": "24968i",
      "midiNote": 47,
      "noteName": "B2",
      "velocity": 1,
      "duration": "62i"
    },
    {
      "time": "25028i",
      "midiNote": 58,
      "noteName": "A#3",
      "velocity": 0.7480314960629921,
      "duration": "14i"
    },
    {
      "time": "25032i",
      "midiNote": 40,
      "noteName": "E2",
      "velocity": 0.8818897637795275,
      "duration": "62i"
    },
    {
      "time": "25032i",
      "midiNote": 47,
      "noteName": "B2",
      "velocity": 0.8818897637795275,
      "duration": "62i"
    },
    {
      "time": "25060i",
      "midiNote": 59,
      "noteName": "B3",
      "velocity": 0.6456692913385826,
      "duration": "14i"
    },
    {
      "time": "25092i",
      "midiNote": 58,
      "noteName": "A#3",
      "velocity": 0.8346456692913385,
      "duration": "14i"
    },
    {
      "time": "25096i",
      "midiNote": 47,
      "noteName": "B2",
      "velocity": 0.8031496062992126,
      "duration": "62i"
    },
    {
      "time": "25096i",
      "midiNote": 40,
      "noteName": "E2",
      "velocity": 0.8031496062992126,
      "duration": "62i"
    },
    {
      "time": "25156i",
      "midiNote": 57,
      "noteName": "A3",
      "velocity": 0.8818897637795275,
      "duration": "14i"
    },
    {
      "time": "25160i",
      "midiNote": 47,
      "noteName": "B2",
      "velocity": 0.6614173228346457,
      "duration": "62i"
    },
    {
      "time": "25160i",
      "midiNote": 40,
      "noteName": "E2",
      "velocity": 0.6614173228346457,
      "duration": "62i"
    },
    {
      "time": "25224i",
      "midiNote": 40,
      "noteName": "E2",
      "velocity": 0.3543307086614173,
      "duration": "62i"
    },
    {
      "time": "25224i",
      "midiNote": 47,
      "noteName": "B2",
      "velocity": 0.3543307086614173,
      "duration": "62i"
    },
    {
      "time": "25284i",
      "midiNote": 57,
      "noteName": "A3",
      "velocity": 0.6299212598425197,
      "duration": "14i"
    },
    {
      "time": "25288i",
      "midiNote": 47,
      "noteName": "B2",
      "velocity": 0.5669291338582677,
      "duration": "62i"
    },
    {
      "time": "25288i",
      "midiNote": 40,
      "noteName": "E2",
      "velocity": 0.5669291338582677,
      "duration": "62i"
    },
    {
      "time": "25352i",
      "midiNote": 47,
      "noteName": "B2",
      "velocity": 1,
      "duration": "62i"
    },
    {
      "time": "25352i",
      "midiNote": 40,
      "noteName": "E2",
      "velocity": 1,
      "duration": "62i"
    },
    {
      "time": "25412i",
      "midiNote": 58,
      "noteName": "A#3",
      "velocity": 0.7480314960629921,
      "duration": "14i"
    },
    {
      "time": "25416i",
      "midiNote": 40,
      "noteName": "E2",
      "velocity": 0.8818897637795275,
      "duration": "62i"
    },
    {
      "time": "25416i",
      "midiNote": 47,
      "noteName": "B2",
      "velocity": 0.8818897637795275,
      "duration": "62i"
    },
    {
      "time": "25444i",
      "midiNote": 59,
      "noteName": "B3",
      "velocity": 0.6456692913385826,
      "duration": "14i"
    },
    {
      "time": "25476i",
      "midiNote": 58,
      "noteName": "A#3",
      "velocity": 0.8346456692913385,
      "duration": "14i"
    },
    {
      "time": "25480i",
      "midiNote": 47,
      "noteName": "B2",
      "velocity": 0.8031496062992126,
      "duration": "62i"
    },
    {
      "time": "25480i",
      "midiNote": 40,
      "noteName": "E2",
      "velocity": 0.8031496062992126,
      "duration": "62i"
    },
    {
      "time": "25540i",
      "midiNote": 57,
      "noteName": "A3",
      "velocity": 0.8818897637795275,
      "duration": "14i"
    },
    {
      "time": "25544i",
      "midiNote": 40,
      "noteName": "E2",
      "velocity": 0.6614173228346457,
      "duration": "62i"
    },
    {
      "time": "25544i",
      "midiNote": 47,
      "noteName": "B2",
      "velocity": 0.6614173228346457,
      "duration": "62i"
    },
    {
      "time": "25668i",
      "midiNote": 57,
      "noteName": "A3",
      "velocity": 0.6299212598425197,
      "duration": "14i"
    },
    {
      "time": "25672i",
      "midiNote": 47,
      "noteName": "B2",
      "velocity": 0.5669291338582677,
      "duration": "62i"
    },
    {
      "time": "25672i",
      "midiNote": 40,
      "noteName": "E2",
      "velocity": 0.5669291338582677,
      "duration": "62i"
    },
    {
      "time": "25736i",
      "midiNote": 47,
      "noteName": "B2",
      "velocity": 0.7874015748031497,
      "duration": "62i"
    },
    {
      "time": "25736i",
      "midiNote": 40,
      "noteName": "E2",
      "velocity": 0.7874015748031497,
      "duration": "62i"
    },
    {
      "time": "25792i",
      "midiNote": 61,
      "noteName": "C#4",
      "velocity": 0.5826771653543307,
      "duration": "6i"
    },
    {
      "time": "25792i",
      "midiNote": 67,
      "noteName": "G4",
      "velocity": 0.5826771653543307,
      "duration": "6i"
    },
    {
      "time": "25796i",
      "midiNote": 58,
      "noteName": "A#3",
      "velocity": 0.7480314960629921,
      "duration": "14i"
    },
    {
      "time": "25800i",
      "midiNote": 67,
      "noteName": "G4",
      "velocity": 1,
      "duration": "62i"
    },
    {
      "time": "25800i",
      "midiNote": 61,
      "noteName": "C#4",
      "velocity": 1,
      "duration": "62i"
    },
    {
      "time": "25800i",
      "midiNote": 47,
      "noteName": "B2",
      "velocity": 1,
      "duration": "62i"
    },
    {
      "time": "25800i",
      "midiNote": 40,
      "noteName": "E2",
      "velocity": 1,
      "duration": "62i"
    },
    {
      "time": "25828i",
      "midiNote": 59,
      "noteName": "B3",
      "velocity": 0.6456692913385826,
      "duration": "14i"
    },
    {
      "time": "25860i",
      "midiNote": 58,
      "noteName": "A#3",
      "velocity": 0.8346456692913385,
      "duration": "14i"
    },
    {
      "time": "25864i",
      "midiNote": 40,
      "noteName": "E2",
      "velocity": 0.6771653543307087,
      "duration": "62i"
    },
    {
      "time": "25864i",
      "midiNote": 47,
      "noteName": "B2",
      "velocity": 0.6771653543307087,
      "duration": "62i"
    },
    {
      "time": "25924i",
      "midiNote": 57,
      "noteName": "A3",
      "velocity": 0.8818897637795275,
      "duration": "14i"
    },
    {
      "time": "25928i",
      "midiNote": 67,
      "noteName": "G4",
      "velocity": 1,
      "duration": "62i"
    },
    {
      "time": "25928i",
      "midiNote": 61,
      "noteName": "C#4",
      "velocity": 0.984251968503937,
      "duration": "62i"
    },
    {
      "time": "25928i",
      "midiNote": 47,
      "noteName": "B2",
      "velocity": 1,
      "duration": "62i"
    },
    {
      "time": "25928i",
      "midiNote": 40,
      "noteName": "E2",
      "velocity": 1,
      "duration": "62i"
    },
    {
      "time": "25992i",
      "midiNote": 40,
      "noteName": "E2",
      "velocity": 0.6771653543307087,
      "duration": "62i"
    },
    {
      "time": "25992i",
      "midiNote": 47,
      "noteName": "B2",
      "velocity": 0.6771653543307087,
      "duration": "62i"
    },
    {
      "time": "26052i",
      "midiNote": 57,
      "noteName": "A3",
      "velocity": 0.6299212598425197,
      "duration": "14i"
    },
    {
      "time": "26056i",
      "midiNote": 67,
      "noteName": "G4",
      "velocity": 1,
      "duration": "62i"
    },
    {
      "time": "26056i",
      "midiNote": 61,
      "noteName": "C#4",
      "velocity": 0.984251968503937,
      "duration": "62i"
    },
    {
      "time": "26056i",
      "midiNote": 47,
      "noteName": "B2",
      "velocity": 0.984251968503937,
      "duration": "62i"
    },
    {
      "time": "26056i",
      "midiNote": 40,
      "noteName": "E2",
      "velocity": 0.984251968503937,
      "duration": "62i"
    },
    {
      "time": "26120i",
      "midiNote": 40,
      "noteName": "E2",
      "velocity": 1,
      "duration": "62i"
    },
    {
      "time": "26120i",
      "midiNote": 47,
      "noteName": "B2",
      "velocity": 1,
      "duration": "62i"
    },
    {
      "time": "26180i",
      "midiNote": 58,
      "noteName": "A#3",
      "velocity": 0.7480314960629921,
      "duration": "14i"
    },
    {
      "time": "26184i",
      "midiNote": 47,
      "noteName": "B2",
      "velocity": 0.8818897637795275,
      "duration": "62i"
    },
    {
      "time": "26184i",
      "midiNote": 40,
      "noteName": "E2",
      "velocity": 0.8818897637795275,
      "duration": "62i"
    },
    {
      "time": "26212i",
      "midiNote": 59,
      "noteName": "B3",
      "velocity": 0.6456692913385826,
      "duration": "14i"
    },
    {
      "time": "26244i",
      "midiNote": 58,
      "noteName": "A#3",
      "velocity": 0.8346456692913385,
      "duration": "14i"
    },
    {
      "time": "26248i",
      "midiNote": 47,
      "noteName": "B2",
      "velocity": 0.8031496062992126,
      "duration": "62i"
    },
    {
      "time": "26248i",
      "midiNote": 40,
      "noteName": "E2",
      "velocity": 0.8031496062992126,
      "duration": "62i"
    },
    {
      "time": "26308i",
      "midiNote": 57,
      "noteName": "A3",
      "velocity": 0.8818897637795275,
      "duration": "14i"
    },
    {
      "time": "26312i",
      "midiNote": 40,
      "noteName": "E2",
      "velocity": 0.6614173228346457,
      "duration": "62i"
    },
    {
      "time": "26312i",
      "midiNote": 47,
      "noteName": "B2",
      "velocity": 0.6614173228346457,
      "duration": "62i"
    },
    {
      "time": "26436i",
      "midiNote": 57,
      "noteName": "A3",
      "velocity": 0.6299212598425197,
      "duration": "14i"
    },
    {
      "time": "26440i",
      "midiNote": 40,
      "noteName": "E2",
      "velocity": 0.5669291338582677,
      "duration": "62i"
    },
    {
      "time": "26440i",
      "midiNote": 47,
      "noteName": "B2",
      "velocity": 0.5669291338582677,
      "duration": "62i"
    },
    {
      "time": "26504i",
      "midiNote": 40,
      "noteName": "E2",
      "velocity": 1,
      "duration": "62i"
    },
    {
      "time": "26504i",
      "midiNote": 47,
      "noteName": "B2",
      "velocity": 1,
      "duration": "62i"
    },
    {
      "time": "26564i",
      "midiNote": 58,
      "noteName": "A#3",
      "velocity": 0.7480314960629921,
      "duration": "14i"
    },
    {
      "time": "26568i",
      "midiNote": 40,
      "noteName": "E2",
      "velocity": 0.8818897637795275,
      "duration": "62i"
    },
    {
      "time": "26568i",
      "midiNote": 47,
      "noteName": "B2",
      "velocity": 0.8818897637795275,
      "duration": "62i"
    },
    {
      "time": "26596i",
      "midiNote": 59,
      "noteName": "B3",
      "velocity": 0.6456692913385826,
      "duration": "14i"
    },
    {
      "time": "26628i",
      "midiNote": 58,
      "noteName": "A#3",
      "velocity": 0.8346456692913385,
      "duration": "14i"
    },
    {
      "time": "26632i",
      "midiNote": 47,
      "noteName": "B2",
      "velocity": 0.8031496062992126,
      "duration": "62i"
    },
    {
      "time": "26632i",
      "midiNote": 40,
      "noteName": "E2",
      "velocity": 0.8031496062992126,
      "duration": "62i"
    },
    {
      "time": "26692i",
      "midiNote": 57,
      "noteName": "A3",
      "velocity": 0.8818897637795275,
      "duration": "14i"
    },
    {
      "time": "26696i",
      "midiNote": 47,
      "noteName": "B2",
      "velocity": 0.6614173228346457,
      "duration": "62i"
    },
    {
      "time": "26696i",
      "midiNote": 40,
      "noteName": "E2",
      "velocity": 0.6614173228346457,
      "duration": "62i"
    },
    {
      "time": "26760i",
      "midiNote": 40,
      "noteName": "E2",
      "velocity": 0.3543307086614173,
      "duration": "62i"
    },
    {
      "time": "26760i",
      "midiNote": 47,
      "noteName": "B2",
      "velocity": 0.3543307086614173,
      "duration": "62i"
    },
    {
      "time": "26820i",
      "midiNote": 57,
      "noteName": "A3",
      "velocity": 0.6299212598425197,
      "duration": "14i"
    },
    {
      "time": "26824i",
      "midiNote": 47,
      "noteName": "B2",
      "velocity": 0.5669291338582677,
      "duration": "62i"
    },
    {
      "time": "26824i",
      "midiNote": 40,
      "noteName": "E2",
      "velocity": 0.5669291338582677,
      "duration": "62i"
    },
    {
      "time": "26888i",
      "midiNote": 47,
      "noteName": "B2",
      "velocity": 1,
      "duration": "62i"
    },
    {
      "time": "26888i",
      "midiNote": 40,
      "noteName": "E2",
      "velocity": 1,
      "duration": "62i"
    },
    {
      "time": "26948i",
      "midiNote": 58,
      "noteName": "A#3",
      "velocity": 0.7480314960629921,
      "duration": "14i"
    },
    {
      "time": "26952i",
      "midiNote": 40,
      "noteName": "E2",
      "velocity": 0.8818897637795275,
      "duration": "62i"
    },
    {
      "time": "26952i",
      "midiNote": 47,
      "noteName": "B2",
      "velocity": 0.8818897637795275,
      "duration": "62i"
    },
    {
      "time": "26980i",
      "midiNote": 59,
      "noteName": "B3",
      "velocity": 0.6456692913385826,
      "duration": "14i"
    },
    {
      "time": "27012i",
      "midiNote": 58,
      "noteName": "A#3",
      "velocity": 0.8346456692913385,
      "duration": "14i"
    },
    {
      "time": "27016i",
      "midiNote": 47,
      "noteName": "B2",
      "velocity": 0.8031496062992126,
      "duration": "62i"
    },
    {
      "time": "27016i",
      "midiNote": 40,
      "noteName": "E2",
      "velocity": 0.8031496062992126,
      "duration": "62i"
    },
    {
      "time": "27076i",
      "midiNote": 57,
      "noteName": "A3",
      "velocity": 0.8818897637795275,
      "duration": "14i"
    },
    {
      "time": "27080i",
      "midiNote": 40,
      "noteName": "E2",
      "velocity": 0.6614173228346457,
      "duration": "62i"
    },
    {
      "time": "27080i",
      "midiNote": 47,
      "noteName": "B2",
      "velocity": 0.6614173228346457,
      "duration": "62i"
    },
    {
      "time": "27204i",
      "midiNote": 57,
      "noteName": "A3",
      "velocity": 0.6299212598425197,
      "duration": "14i"
    },
    {
      "time": "27208i",
      "midiNote": 47,
      "noteName": "B2",
      "velocity": 0.5669291338582677,
      "duration": "62i"
    },
    {
      "time": "27208i",
      "midiNote": 40,
      "noteName": "E2",
      "velocity": 0.5669291338582677,
      "duration": "62i"
    },
    {
      "time": "27272i",
      "midiNote": 47,
      "noteName": "B2",
      "velocity": 0.7874015748031497,
      "duration": "62i"
    },
    {
      "time": "27272i",
      "midiNote": 40,
      "noteName": "E2",
      "velocity": 0.7874015748031497,
      "duration": "62i"
    },
    {
      "time": "27328i",
      "midiNote": 61,
      "noteName": "C#4",
      "velocity": 0.5826771653543307,
      "duration": "6i"
    },
    {
      "time": "27328i",
      "midiNote": 67,
      "noteName": "G4",
      "velocity": 0.5826771653543307,
      "duration": "6i"
    },
    {
      "time": "27332i",
      "midiNote": 58,
      "noteName": "A#3",
      "velocity": 0.7480314960629921,
      "duration": "14i"
    },
    {
      "time": "27336i",
      "midiNote": 67,
      "noteName": "G4",
      "velocity": 1,
      "duration": "62i"
    },
    {
      "time": "27336i",
      "midiNote": 61,
      "noteName": "C#4",
      "velocity": 1,
      "duration": "62i"
    },
    {
      "time": "27336i",
      "midiNote": 47,
      "noteName": "B2",
      "velocity": 1,
      "duration": "62i"
    },
    {
      "time": "27336i",
      "midiNote": 40,
      "noteName": "E2",
      "velocity": 1,
      "duration": "62i"
    },
    {
      "time": "27364i",
      "midiNote": 59,
      "noteName": "B3",
      "velocity": 0.6456692913385826,
      "duration": "14i"
    },
    {
      "time": "27396i",
      "midiNote": 58,
      "noteName": "A#3",
      "velocity": 0.8346456692913385,
      "duration": "14i"
    },
    {
      "time": "27400i",
      "midiNote": 40,
      "noteName": "E2",
      "velocity": 0.6771653543307087,
      "duration": "62i"
    },
    {
      "time": "27400i",
      "midiNote": 47,
      "noteName": "B2",
      "velocity": 0.6771653543307087,
      "duration": "62i"
    },
    {
      "time": "27460i",
      "midiNote": 57,
      "noteName": "A3",
      "velocity": 0.8818897637795275,
      "duration": "14i"
    },
    {
      "time": "27464i",
      "midiNote": 67,
      "noteName": "G4",
      "velocity": 1,
      "duration": "62i"
    },
    {
      "time": "27464i",
      "midiNote": 61,
      "noteName": "C#4",
      "velocity": 0.984251968503937,
      "duration": "62i"
    },
    {
      "time": "27464i",
      "midiNote": 47,
      "noteName": "B2",
      "velocity": 1,
      "duration": "62i"
    },
    {
      "time": "27464i",
      "midiNote": 40,
      "noteName": "E2",
      "velocity": 1,
      "duration": "62i"
    },
    {
      "time": "27528i",
      "midiNote": 40,
      "noteName": "E2",
      "velocity": 0.6771653543307087,
      "duration": "62i"
    },
    {
      "time": "27528i",
      "midiNote": 47,
      "noteName": "B2",
      "velocity": 0.6771653543307087,
      "duration": "62i"
    },
    {
      "time": "27588i",
      "midiNote": 57,
      "noteName": "A3",
      "velocity": 0.6299212598425197,
      "duration": "14i"
    },
    {
      "time": "27592i",
      "midiNote": 67,
      "noteName": "G4",
      "velocity": 1,
      "duration": "62i"
    },
    {
      "time": "27592i",
      "midiNote": 61,
      "noteName": "C#4",
      "velocity": 0.984251968503937,
      "duration": "62i"
    },
    {
      "time": "27592i",
      "midiNote": 47,
      "noteName": "B2",
      "velocity": 0.984251968503937,
      "duration": "62i"
    },
    {
      "time": "27592i",
      "midiNote": 40,
      "noteName": "E2",
      "velocity": 0.984251968503937,
      "duration": "62i"
    },
    {
      "time": "27656i",
      "midiNote": 40,
      "noteName": "E2",
      "velocity": 1,
      "duration": "62i"
    },
    {
      "time": "27656i",
      "midiNote": 47,
      "noteName": "B2",
      "velocity": 1,
      "duration": "62i"
    },
    {
      "time": "27716i",
      "midiNote": 58,
      "noteName": "A#3",
      "velocity": 0.7480314960629921,
      "duration": "14i"
    },
    {
      "time": "27720i",
      "midiNote": 47,
      "noteName": "B2",
      "velocity": 0.8818897637795275,
      "duration": "62i"
    },
    {
      "time": "27720i",
      "midiNote": 40,
      "noteName": "E2",
      "velocity": 0.8818897637795275,
      "duration": "62i"
    },
    {
      "time": "27748i",
      "midiNote": 59,
      "noteName": "B3",
      "velocity": 0.6456692913385826,
      "duration": "14i"
    },
    {
      "time": "27780i",
      "midiNote": 58,
      "noteName": "A#3",
      "velocity": 0.8346456692913385,
      "duration": "14i"
    },
    {
      "time": "27784i",
      "midiNote": 47,
      "noteName": "B2",
      "velocity": 0.8031496062992126,
      "duration": "62i"
    },
    {
      "time": "27784i",
      "midiNote": 40,
      "noteName": "E2",
      "velocity": 0.8031496062992126,
      "duration": "62i"
    },
    {
      "time": "27844i",
      "midiNote": 57,
      "noteName": "A3",
      "velocity": 0.8818897637795275,
      "duration": "14i"
    },
    {
      "time": "27848i",
      "midiNote": 40,
      "noteName": "E2",
      "velocity": 0.6614173228346457,
      "duration": "62i"
    },
    {
      "time": "27848i",
      "midiNote": 47,
      "noteName": "B2",
      "velocity": 0.6614173228346457,
      "duration": "62i"
    },
    {
      "time": "27972i",
      "midiNote": 57,
      "noteName": "A3",
      "velocity": 0.6299212598425197,
      "duration": "14i"
    },
    {
      "time": "27976i",
      "midiNote": 40,
      "noteName": "E2",
      "velocity": 0.5669291338582677,
      "duration": "62i"
    },
    {
      "time": "27976i",
      "midiNote": 47,
      "noteName": "B2",
      "velocity": 0.5669291338582677,
      "duration": "62i"
    },
    {
      "time": "28040i",
      "midiNote": 40,
      "noteName": "E2",
      "velocity": 1,
      "duration": "62i"
    },
    {
      "time": "28040i",
      "midiNote": 47,
      "noteName": "B2",
      "velocity": 1,
      "duration": "62i"
    },
    {
      "time": "28100i",
      "midiNote": 58,
      "noteName": "A#3",
      "velocity": 0.7480314960629921,
      "duration": "14i"
    },
    {
      "time": "28104i",
      "midiNote": 40,
      "noteName": "E2",
      "velocity": 0.8818897637795275,
      "duration": "62i"
    },
    {
      "time": "28104i",
      "midiNote": 47,
      "noteName": "B2",
      "velocity": 0.8818897637795275,
      "duration": "62i"
    },
    {
      "time": "28132i",
      "midiNote": 59,
      "noteName": "B3",
      "velocity": 0.6456692913385826,
      "duration": "14i"
    },
    {
      "time": "28164i",
      "midiNote": 58,
      "noteName": "A#3",
      "velocity": 0.8346456692913385,
      "duration": "14i"
    },
    {
      "time": "28168i",
      "midiNote": 47,
      "noteName": "B2",
      "velocity": 0.8031496062992126,
      "duration": "62i"
    },
    {
      "time": "28168i",
      "midiNote": 40,
      "noteName": "E2",
      "velocity": 0.8031496062992126,
      "duration": "62i"
    },
    {
      "time": "28228i",
      "midiNote": 57,
      "noteName": "A3",
      "velocity": 0.8818897637795275,
      "duration": "14i"
    },
    {
      "time": "28232i",
      "midiNote": 47,
      "noteName": "B2",
      "velocity": 0.6614173228346457,
      "duration": "62i"
    },
    {
      "time": "28232i",
      "midiNote": 40,
      "noteName": "E2",
      "velocity": 0.6614173228346457,
      "duration": "62i"
    },
    {
      "time": "28296i",
      "midiNote": 40,
      "noteName": "E2",
      "velocity": 0.3543307086614173,
      "duration": "62i"
    },
    {
      "time": "28296i",
      "midiNote": 47,
      "noteName": "B2",
      "velocity": 0.3543307086614173,
      "duration": "62i"
    },
    {
      "time": "28356i",
      "midiNote": 57,
      "noteName": "A3",
      "velocity": 0.6299212598425197,
      "duration": "14i"
    },
    {
      "time": "28360i",
      "midiNote": 47,
      "noteName": "B2",
      "velocity": 0.5669291338582677,
      "duration": "62i"
    },
    {
      "time": "28360i",
      "midiNote": 40,
      "noteName": "E2",
      "velocity": 0.5669291338582677,
      "duration": "62i"
    },
    {
      "time": "28424i",
      "midiNote": 47,
      "noteName": "B2",
      "velocity": 1,
      "duration": "62i"
    },
    {
      "time": "28424i",
      "midiNote": 40,
      "noteName": "E2",
      "velocity": 1,
      "duration": "62i"
    },
    {
      "time": "28484i",
      "midiNote": 58,
      "noteName": "A#3",
      "velocity": 0.7480314960629921,
      "duration": "14i"
    },
    {
      "time": "28488i",
      "midiNote": 40,
      "noteName": "E2",
      "velocity": 0.8818897637795275,
      "duration": "62i"
    },
    {
      "time": "28488i",
      "midiNote": 47,
      "noteName": "B2",
      "velocity": 0.8818897637795275,
      "duration": "62i"
    },
    {
      "time": "28516i",
      "midiNote": 59,
      "noteName": "B3",
      "velocity": 0.6456692913385826,
      "duration": "14i"
    },
    {
      "time": "28548i",
      "midiNote": 58,
      "noteName": "A#3",
      "velocity": 0.8346456692913385,
      "duration": "14i"
    },
    {
      "time": "28552i",
      "midiNote": 47,
      "noteName": "B2",
      "velocity": 0.8031496062992126,
      "duration": "62i"
    },
    {
      "time": "28552i",
      "midiNote": 40,
      "noteName": "E2",
      "velocity": 0.8031496062992126,
      "duration": "62i"
    },
    {
      "time": "28612i",
      "midiNote": 57,
      "noteName": "A3",
      "velocity": 0.8818897637795275,
      "duration": "14i"
    },
    {
      "time": "28616i",
      "midiNote": 40,
      "noteName": "E2",
      "velocity": 0.6614173228346457,
      "duration": "62i"
    },
    {
      "time": "28616i",
      "midiNote": 47,
      "noteName": "B2",
      "velocity": 0.6614173228346457,
      "duration": "62i"
    },
    {
      "time": "28740i",
      "midiNote": 57,
      "noteName": "A3",
      "velocity": 0.6299212598425197,
      "duration": "14i"
    },
    {
      "time": "28744i",
      "midiNote": 47,
      "noteName": "B2",
      "velocity": 0.5669291338582677,
      "duration": "62i"
    },
    {
      "time": "28744i",
      "midiNote": 40,
      "noteName": "E2",
      "velocity": 0.5669291338582677,
      "duration": "62i"
    },
    {
      "time": "28808i",
      "midiNote": 47,
      "noteName": "B2",
      "velocity": 0.7874015748031497,
      "duration": "62i"
    },
    {
      "time": "28808i",
      "midiNote": 40,
      "noteName": "E2",
      "velocity": 0.7874015748031497,
      "duration": "62i"
    },
    {
      "time": "28864i",
      "midiNote": 61,
      "noteName": "C#4",
      "velocity": 0.5826771653543307,
      "duration": "6i"
    },
    {
      "time": "28864i",
      "midiNote": 67,
      "noteName": "G4",
      "velocity": 0.5826771653543307,
      "duration": "6i"
    },
    {
      "time": "28868i",
      "midiNote": 58,
      "noteName": "A#3",
      "velocity": 0.7480314960629921,
      "duration": "14i"
    },
    {
      "time": "28872i",
      "midiNote": 67,
      "noteName": "G4",
      "velocity": 1,
      "duration": "62i"
    },
    {
      "time": "28872i",
      "midiNote": 61,
      "noteName": "C#4",
      "velocity": 1,
      "duration": "62i"
    },
    {
      "time": "28872i",
      "midiNote": 47,
      "noteName": "B2",
      "velocity": 1,
      "duration": "62i"
    },
    {
      "time": "28872i",
      "midiNote": 40,
      "noteName": "E2",
      "velocity": 1,
      "duration": "62i"
    },
    {
      "time": "28900i",
      "midiNote": 59,
      "noteName": "B3",
      "velocity": 0.6456692913385826,
      "duration": "14i"
    },
    {
      "time": "28932i",
      "midiNote": 58,
      "noteName": "A#3",
      "velocity": 0.8346456692913385,
      "duration": "14i"
    },
    {
      "time": "28936i",
      "midiNote": 40,
      "noteName": "E2",
      "velocity": 0.6771653543307087,
      "duration": "62i"
    },
    {
      "time": "28936i",
      "midiNote": 47,
      "noteName": "B2",
      "velocity": 0.6771653543307087,
      "duration": "62i"
    },
    {
      "time": "28996i",
      "midiNote": 57,
      "noteName": "A3",
      "velocity": 0.8818897637795275,
      "duration": "14i"
    },
    {
      "time": "29000i",
      "midiNote": 67,
      "noteName": "G4",
      "velocity": 1,
      "duration": "62i"
    },
    {
      "time": "29000i",
      "midiNote": 61,
      "noteName": "C#4",
      "velocity": 0.984251968503937,
      "duration": "62i"
    },
    {
      "time": "29000i",
      "midiNote": 47,
      "noteName": "B2",
      "velocity": 1,
      "duration": "62i"
    },
    {
      "time": "29000i",
      "midiNote": 40,
      "noteName": "E2",
      "velocity": 1,
      "duration": "62i"
    },
    {
      "time": "29064i",
      "midiNote": 40,
      "noteName": "E2",
      "velocity": 0.6771653543307087,
      "duration": "62i"
    },
    {
      "time": "29064i",
      "midiNote": 47,
      "noteName": "B2",
      "velocity": 0.6771653543307087,
      "duration": "62i"
    },
    {
      "time": "29124i",
      "midiNote": 57,
      "noteName": "A3",
      "velocity": 0.6299212598425197,
      "duration": "14i"
    },
    {
      "time": "29128i",
      "midiNote": 67,
      "noteName": "G4",
      "velocity": 1,
      "duration": "62i"
    },
    {
      "time": "29128i",
      "midiNote": 61,
      "noteName": "C#4",
      "velocity": 0.984251968503937,
      "duration": "62i"
    },
    {
      "time": "29128i",
      "midiNote": 47,
      "noteName": "B2",
      "velocity": 0.984251968503937,
      "duration": "62i"
    },
    {
      "time": "29128i",
      "midiNote": 40,
      "noteName": "E2",
      "velocity": 0.984251968503937,
      "duration": "62i"
    },
    {
      "time": "29192i",
      "midiNote": 40,
      "noteName": "E2",
      "velocity": 1,
      "duration": "62i"
    },
    {
      "time": "29192i",
      "midiNote": 47,
      "noteName": "B2",
      "velocity": 1,
      "duration": "62i"
    },
    {
      "time": "29252i",
      "midiNote": 58,
      "noteName": "A#3",
      "velocity": 0.7480314960629921,
      "duration": "14i"
    },
    {
      "time": "29256i",
      "midiNote": 47,
      "noteName": "B2",
      "velocity": 0.8818897637795275,
      "duration": "62i"
    },
    {
      "time": "29256i",
      "midiNote": 40,
      "noteName": "E2",
      "velocity": 0.8818897637795275,
      "duration": "62i"
    },
    {
      "time": "29284i",
      "midiNote": 59,
      "noteName": "B3",
      "velocity": 0.6456692913385826,
      "duration": "14i"
    },
    {
      "time": "29316i",
      "midiNote": 58,
      "noteName": "A#3",
      "velocity": 0.8346456692913385,
      "duration": "14i"
    },
    {
      "time": "29320i",
      "midiNote": 47,
      "noteName": "B2",
      "velocity": 0.8031496062992126,
      "duration": "62i"
    },
    {
      "time": "29320i",
      "midiNote": 40,
      "noteName": "E2",
      "velocity": 0.8031496062992126,
      "duration": "62i"
    },
    {
      "time": "29380i",
      "midiNote": 57,
      "noteName": "A3",
      "velocity": 0.8818897637795275,
      "duration": "14i"
    },
    {
      "time": "29384i",
      "midiNote": 40,
      "noteName": "E2",
      "velocity": 0.6614173228346457,
      "duration": "62i"
    },
    {
      "time": "29384i",
      "midiNote": 47,
      "noteName": "B2",
      "velocity": 0.6614173228346457,
      "duration": "62i"
    },
    {
      "time": "29508i",
      "midiNote": 57,
      "noteName": "A3",
      "velocity": 0.6299212598425197,
      "duration": "14i"
    },
    {
      "time": "29512i",
      "midiNote": 40,
      "noteName": "E2",
      "velocity": 0.5669291338582677,
      "duration": "62i"
    },
    {
      "time": "29512i",
      "midiNote": 47,
      "noteName": "B2",
      "velocity": 0.5669291338582677,
      "duration": "62i"
    },
    {
      "time": "29576i",
      "midiNote": 40,
      "noteName": "E2",
      "velocity": 1,
      "duration": "62i"
    },
    {
      "time": "29576i",
      "midiNote": 47,
      "noteName": "B2",
      "velocity": 1,
      "duration": "62i"
    },
    {
      "time": "29636i",
      "midiNote": 58,
      "noteName": "A#3",
      "velocity": 0.7480314960629921,
      "duration": "14i"
    },
    {
      "time": "29640i",
      "midiNote": 40,
      "noteName": "E2",
      "velocity": 0.8818897637795275,
      "duration": "62i"
    },
    {
      "time": "29640i",
      "midiNote": 47,
      "noteName": "B2",
      "velocity": 0.8818897637795275,
      "duration": "62i"
    },
    {
      "time": "29668i",
      "midiNote": 59,
      "noteName": "B3",
      "velocity": 0.6456692913385826,
      "duration": "14i"
    },
    {
      "time": "29700i",
      "midiNote": 58,
      "noteName": "A#3",
      "velocity": 0.8346456692913385,
      "duration": "14i"
    },
    {
      "time": "29704i",
      "midiNote": 47,
      "noteName": "B2",
      "velocity": 0.8031496062992126,
      "duration": "62i"
    },
    {
      "time": "29704i",
      "midiNote": 40,
      "noteName": "E2",
      "velocity": 0.8031496062992126,
      "duration": "62i"
    },
    {
      "time": "29764i",
      "midiNote": 57,
      "noteName": "A3",
      "velocity": 0.8818897637795275,
      "duration": "14i"
    },
    {
      "time": "29768i",
      "midiNote": 47,
      "noteName": "B2",
      "velocity": 0.6614173228346457,
      "duration": "62i"
    },
    {
      "time": "29768i",
      "midiNote": 40,
      "noteName": "E2",
      "velocity": 0.6614173228346457,
      "duration": "62i"
    },
    {
      "time": "29832i",
      "midiNote": 40,
      "noteName": "E2",
      "velocity": 0.3543307086614173,
      "duration": "62i"
    },
    {
      "time": "29832i",
      "midiNote": 47,
      "noteName": "B2",
      "velocity": 0.3543307086614173,
      "duration": "62i"
    },
    {
      "time": "29892i",
      "midiNote": 57,
      "noteName": "A3",
      "velocity": 0.6299212598425197,
      "duration": "14i"
    },
    {
      "time": "29896i",
      "midiNote": 47,
      "noteName": "B2",
      "velocity": 0.5669291338582677,
      "duration": "62i"
    },
    {
      "time": "29896i",
      "midiNote": 40,
      "noteName": "E2",
      "velocity": 0.5669291338582677,
      "duration": "62i"
    },
    {
      "time": "29960i",
      "midiNote": 47,
      "noteName": "B2",
      "velocity": 1,
      "duration": "62i"
    },
    {
      "time": "29960i",
      "midiNote": 40,
      "noteName": "E2",
      "velocity": 1,
      "duration": "62i"
    },
    {
      "time": "30020i",
      "midiNote": 58,
      "noteName": "A#3",
      "velocity": 0.7480314960629921,
      "duration": "14i"
    },
    {
      "time": "30024i",
      "midiNote": 40,
      "noteName": "E2",
      "velocity": 0.8818897637795275,
      "duration": "62i"
    },
    {
      "time": "30024i",
      "midiNote": 47,
      "noteName": "B2",
      "velocity": 0.8818897637795275,
      "duration": "62i"
    },
    {
      "time": "30052i",
      "midiNote": 59,
      "noteName": "B3",
      "velocity": 0.6456692913385826,
      "duration": "14i"
    },
    {
      "time": "30084i",
      "midiNote": 58,
      "noteName": "A#3",
      "velocity": 0.8346456692913385,
      "duration": "14i"
    },
    {
      "time": "30088i",
      "midiNote": 47,
      "noteName": "B2",
      "velocity": 0.8031496062992126,
      "duration": "62i"
    },
    {
      "time": "30088i",
      "midiNote": 40,
      "noteName": "E2",
      "velocity": 0.8031496062992126,
      "duration": "62i"
    },
    {
      "time": "30148i",
      "midiNote": 57,
      "noteName": "A3",
      "velocity": 0.8818897637795275,
      "duration": "14i"
    },
    {
      "time": "30152i",
      "midiNote": 40,
      "noteName": "E2",
      "velocity": 0.6614173228346457,
      "duration": "62i"
    },
    {
      "time": "30152i",
      "midiNote": 47,
      "noteName": "B2",
      "velocity": 0.6614173228346457,
      "duration": "62i"
    },
    {
      "time": "30276i",
      "midiNote": 57,
      "noteName": "A3",
      "velocity": 0.6299212598425197,
      "duration": "14i"
    },
    {
      "time": "30280i",
      "midiNote": 47,
      "noteName": "B2",
      "velocity": 0.5669291338582677,
      "duration": "62i"
    },
    {
      "time": "30280i",
      "midiNote": 40,
      "noteName": "E2",
      "velocity": 0.5669291338582677,
      "duration": "62i"
    },
    {
      "time": "30344i",
      "midiNote": 47,
      "noteName": "B2",
      "velocity": 0.7874015748031497,
      "duration": "62i"
    },
    {
      "time": "30344i",
      "midiNote": 40,
      "noteName": "E2",
      "velocity": 0.7874015748031497,
      "duration": "62i"
    },
    {
      "time": "30400i",
      "midiNote": 61,
      "noteName": "C#4",
      "velocity": 0.5826771653543307,
      "duration": "6i"
    },
    {
      "time": "30400i",
      "midiNote": 67,
      "noteName": "G4",
      "velocity": 0.5826771653543307,
      "duration": "6i"
    },
    {
      "time": "30404i",
      "midiNote": 58,
      "noteName": "A#3",
      "velocity": 0.7480314960629921,
      "duration": "14i"
    },
    {
      "time": "30408i",
      "midiNote": 67,
      "noteName": "G4",
      "velocity": 1,
      "duration": "62i"
    },
    {
      "time": "30408i",
      "midiNote": 61,
      "noteName": "C#4",
      "velocity": 1,
      "duration": "62i"
    },
    {
      "time": "30408i",
      "midiNote": 47,
      "noteName": "B2",
      "velocity": 1,
      "duration": "62i"
    },
    {
      "time": "30408i",
      "midiNote": 40,
      "noteName": "E2",
      "velocity": 1,
      "duration": "62i"
    },
    {
      "time": "30436i",
      "midiNote": 59,
      "noteName": "B3",
      "velocity": 0.6456692913385826,
      "duration": "14i"
    },
    {
      "time": "30468i",
      "midiNote": 58,
      "noteName": "A#3",
      "velocity": 0.8346456692913385,
      "duration": "14i"
    },
    {
      "time": "30472i",
      "midiNote": 40,
      "noteName": "E2",
      "velocity": 0.6771653543307087,
      "duration": "62i"
    },
    {
      "time": "30472i",
      "midiNote": 47,
      "noteName": "B2",
      "velocity": 0.6771653543307087,
      "duration": "62i"
    },
    {
      "time": "30532i",
      "midiNote": 57,
      "noteName": "A3",
      "velocity": 0.8818897637795275,
      "duration": "14i"
    },
    {
      "time": "30536i",
      "midiNote": 67,
      "noteName": "G4",
      "velocity": 1,
      "duration": "62i"
    },
    {
      "time": "30536i",
      "midiNote": 61,
      "noteName": "C#4",
      "velocity": 0.984251968503937,
      "duration": "62i"
    },
    {
      "time": "30536i",
      "midiNote": 47,
      "noteName": "B2",
      "velocity": 1,
      "duration": "62i"
    },
    {
      "time": "30536i",
      "midiNote": 40,
      "noteName": "E2",
      "velocity": 1,
      "duration": "62i"
    },
    {
      "time": "30600i",
      "midiNote": 40,
      "noteName": "E2",
      "velocity": 0.6771653543307087,
      "duration": "62i"
    },
    {
      "time": "30600i",
      "midiNote": 47,
      "noteName": "B2",
      "velocity": 0.6771653543307087,
      "duration": "62i"
    },
    {
      "time": "30660i",
      "midiNote": 57,
      "noteName": "A3",
      "velocity": 0.6299212598425197,
      "duration": "14i"
    },
    {
      "time": "30664i",
      "midiNote": 67,
      "noteName": "G4",
      "velocity": 1,
      "duration": "62i"
    },
    {
      "time": "30664i",
      "midiNote": 61,
      "noteName": "C#4",
      "velocity": 0.984251968503937,
      "duration": "62i"
    },
    {
      "time": "30664i",
      "midiNote": 47,
      "noteName": "B2",
      "velocity": 0.984251968503937,
      "duration": "62i"
    },
    {
      "time": "30664i",
      "midiNote": 40,
      "noteName": "E2",
      "velocity": 0.984251968503937,
      "duration": "62i"
    },
    {
      "time": "30728i",
      "midiNote": 40,
      "noteName": "E2",
      "velocity": 1,
      "duration": "62i"
    },
    {
      "time": "30728i",
      "midiNote": 47,
      "noteName": "B2",
      "velocity": 1,
      "duration": "62i"
    },
    {
      "time": "30788i",
      "midiNote": 58,
      "noteName": "A#3",
      "velocity": 0.7480314960629921,
      "duration": "14i"
    },
    {
      "time": "30792i",
      "midiNote": 47,
      "noteName": "B2",
      "velocity": 0.8818897637795275,
      "duration": "62i"
    },
    {
      "time": "30792i",
      "midiNote": 40,
      "noteName": "E2",
      "velocity": 0.8818897637795275,
      "duration": "62i"
    },
    {
      "time": "30820i",
      "midiNote": 59,
      "noteName": "B3",
      "velocity": 0.6456692913385826,
      "duration": "14i"
    },
    {
      "time": "30852i",
      "midiNote": 58,
      "noteName": "A#3",
      "velocity": 0.8346456692913385,
      "duration": "14i"
    },
    {
      "time": "30856i",
      "midiNote": 47,
      "noteName": "B2",
      "velocity": 0.8031496062992126,
      "duration": "62i"
    },
    {
      "time": "30856i",
      "midiNote": 40,
      "noteName": "E2",
      "velocity": 0.8031496062992126,
      "duration": "62i"
    },
    {
      "time": "30916i",
      "midiNote": 57,
      "noteName": "A3",
      "velocity": 0.8818897637795275,
      "duration": "14i"
    },
    {
      "time": "30920i",
      "midiNote": 40,
      "noteName": "E2",
      "velocity": 0.6614173228346457,
      "duration": "62i"
    },
    {
      "time": "30920i",
      "midiNote": 47,
      "noteName": "B2",
      "velocity": 0.6614173228346457,
      "duration": "62i"
    },
    {
      "time": "31044i",
      "midiNote": 57,
      "noteName": "A3",
      "velocity": 0.6299212598425197,
      "duration": "14i"
    },
    {
      "time": "31048i",
      "midiNote": 40,
      "noteName": "E2",
      "velocity": 0.5669291338582677,
      "duration": "62i"
    },
    {
      "time": "31048i",
      "midiNote": 47,
      "noteName": "B2",
      "velocity": 0.5669291338582677,
      "duration": "62i"
    },
    {
      "time": "31112i",
      "midiNote": 40,
      "noteName": "E2",
      "velocity": 1,
      "duration": "62i"
    },
    {
      "time": "31112i",
      "midiNote": 47,
      "noteName": "B2",
      "velocity": 1,
      "duration": "62i"
    },
    {
      "time": "31172i",
      "midiNote": 58,
      "noteName": "A#3",
      "velocity": 0.7480314960629921,
      "duration": "14i"
    },
    {
      "time": "31176i",
      "midiNote": 40,
      "noteName": "E2",
      "velocity": 0.8818897637795275,
      "duration": "62i"
    },
    {
      "time": "31176i",
      "midiNote": 47,
      "noteName": "B2",
      "velocity": 0.8818897637795275,
      "duration": "62i"
    },
    {
      "time": "31204i",
      "midiNote": 59,
      "noteName": "B3",
      "velocity": 0.6456692913385826,
      "duration": "14i"
    },
    {
      "time": "31236i",
      "midiNote": 58,
      "noteName": "A#3",
      "velocity": 0.8346456692913385,
      "duration": "14i"
    },
    {
      "time": "31240i",
      "midiNote": 47,
      "noteName": "B2",
      "velocity": 0.8031496062992126,
      "duration": "62i"
    },
    {
      "time": "31240i",
      "midiNote": 40,
      "noteName": "E2",
      "velocity": 0.8031496062992126,
      "duration": "62i"
    },
    {
      "time": "31300i",
      "midiNote": 57,
      "noteName": "A3",
      "velocity": 0.8818897637795275,
      "duration": "14i"
    },
    {
      "time": "31304i",
      "midiNote": 47,
      "noteName": "B2",
      "velocity": 0.6614173228346457,
      "duration": "62i"
    },
    {
      "time": "31304i",
      "midiNote": 40,
      "noteName": "E2",
      "velocity": 0.6614173228346457,
      "duration": "62i"
    },
    {
      "time": "31368i",
      "midiNote": 40,
      "noteName": "E2",
      "velocity": 0.3543307086614173,
      "duration": "62i"
    },
    {
      "time": "31368i",
      "midiNote": 47,
      "noteName": "B2",
      "velocity": 0.3543307086614173,
      "duration": "62i"
    },
    {
      "time": "31428i",
      "midiNote": 57,
      "noteName": "A3",
      "velocity": 0.6299212598425197,
      "duration": "14i"
    },
    {
      "time": "31432i",
      "midiNote": 47,
      "noteName": "B2",
      "velocity": 0.5669291338582677,
      "duration": "62i"
    },
    {
      "time": "31432i",
      "midiNote": 40,
      "noteName": "E2",
      "velocity": 0.5669291338582677,
      "duration": "62i"
    },
    {
      "time": "31496i",
      "midiNote": 47,
      "noteName": "B2",
      "velocity": 1,
      "duration": "62i"
    },
    {
      "time": "31496i",
      "midiNote": 40,
      "noteName": "E2",
      "velocity": 1,
      "duration": "62i"
    },
    {
      "time": "31556i",
      "midiNote": 58,
      "noteName": "A#3",
      "velocity": 0.7480314960629921,
      "duration": "14i"
    },
    {
      "time": "31560i",
      "midiNote": 40,
      "noteName": "E2",
      "velocity": 0.8818897637795275,
      "duration": "62i"
    },
    {
      "time": "31560i",
      "midiNote": 47,
      "noteName": "B2",
      "velocity": 0.8818897637795275,
      "duration": "62i"
    },
    {
      "time": "31588i",
      "midiNote": 59,
      "noteName": "B3",
      "velocity": 0.6456692913385826,
      "duration": "14i"
    },
    {
      "time": "31620i",
      "midiNote": 58,
      "noteName": "A#3",
      "velocity": 0.8346456692913385,
      "duration": "14i"
    },
    {
      "time": "31624i",
      "midiNote": 47,
      "noteName": "B2",
      "velocity": 0.8031496062992126,
      "duration": "62i"
    },
    {
      "time": "31624i",
      "midiNote": 40,
      "noteName": "E2",
      "velocity": 0.8031496062992126,
      "duration": "62i"
    },
    {
      "time": "31684i",
      "midiNote": 57,
      "noteName": "A3",
      "velocity": 0.8818897637795275,
      "duration": "14i"
    },
    {
      "time": "31688i",
      "midiNote": 40,
      "noteName": "E2",
      "velocity": 0.6614173228346457,
      "duration": "62i"
    },
    {
      "time": "31688i",
      "midiNote": 47,
      "noteName": "B2",
      "velocity": 0.6614173228346457,
      "duration": "62i"
    },
    {
      "time": "31812i",
      "midiNote": 57,
      "noteName": "A3",
      "velocity": 0.6299212598425197,
      "duration": "14i"
    },
    {
      "time": "31816i",
      "midiNote": 47,
      "noteName": "B2",
      "velocity": 0.5669291338582677,
      "duration": "62i"
    },
    {
      "time": "31816i",
      "midiNote": 40,
      "noteName": "E2",
      "velocity": 0.5669291338582677,
      "duration": "62i"
    },
    {
      "time": "31880i",
      "midiNote": 47,
      "noteName": "B2",
      "velocity": 0.7874015748031497,
      "duration": "62i"
    },
    {
      "time": "31880i",
      "midiNote": 40,
      "noteName": "E2",
      "velocity": 0.7874015748031497,
      "duration": "62i"
    },
    {
      "time": "31936i",
      "midiNote": 61,
      "noteName": "C#4",
      "velocity": 0.5826771653543307,
      "duration": "6i"
    },
    {
      "time": "31936i",
      "midiNote": 67,
      "noteName": "G4",
      "velocity": 0.5826771653543307,
      "duration": "6i"
    },
    {
      "time": "31940i",
      "midiNote": 58,
      "noteName": "A#3",
      "velocity": 0.7480314960629921,
      "duration": "14i"
    },
    {
      "time": "31944i",
      "midiNote": 67,
      "noteName": "G4",
      "velocity": 1,
      "duration": "62i"
    },
    {
      "time": "31944i",
      "midiNote": 61,
      "noteName": "C#4",
      "velocity": 1,
      "duration": "62i"
    },
    {
      "time": "31944i",
      "midiNote": 47,
      "noteName": "B2",
      "velocity": 1,
      "duration": "62i"
    },
    {
      "time": "31944i",
      "midiNote": 40,
      "noteName": "E2",
      "velocity": 1,
      "duration": "62i"
    },
    {
      "time": "31972i",
      "midiNote": 59,
      "noteName": "B3",
      "velocity": 0.6456692913385826,
      "duration": "14i"
    },
    {
      "time": "32004i",
      "midiNote": 58,
      "noteName": "A#3",
      "velocity": 0.8346456692913385,
      "duration": "14i"
    },
    {
      "time": "32008i",
      "midiNote": 40,
      "noteName": "E2",
      "velocity": 0.6771653543307087,
      "duration": "62i"
    },
    {
      "time": "32008i",
      "midiNote": 47,
      "noteName": "B2",
      "velocity": 0.6771653543307087,
      "duration": "62i"
    },
    {
      "time": "32068i",
      "midiNote": 57,
      "noteName": "A3",
      "velocity": 0.8818897637795275,
      "duration": "14i"
    },
    {
      "time": "32072i",
      "midiNote": 67,
      "noteName": "G4",
      "velocity": 1,
      "duration": "62i"
    },
    {
      "time": "32072i",
      "midiNote": 61,
      "noteName": "C#4",
      "velocity": 0.984251968503937,
      "duration": "62i"
    },
    {
      "time": "32072i",
      "midiNote": 47,
      "noteName": "B2",
      "velocity": 1,
      "duration": "62i"
    },
    {
      "time": "32072i",
      "midiNote": 40,
      "noteName": "E2",
      "velocity": 1,
      "duration": "62i"
    },
    {
      "time": "32136i",
      "midiNote": 40,
      "noteName": "E2",
      "velocity": 0.6771653543307087,
      "duration": "62i"
    },
    {
      "time": "32136i",
      "midiNote": 47,
      "noteName": "B2",
      "velocity": 0.6771653543307087,
      "duration": "62i"
    },
    {
      "time": "32196i",
      "midiNote": 57,
      "noteName": "A3",
      "velocity": 0.6299212598425197,
      "duration": "14i"
    },
    {
      "time": "32200i",
      "midiNote": 67,
      "noteName": "G4",
      "velocity": 1,
      "duration": "62i"
    },
    {
      "time": "32200i",
      "midiNote": 61,
      "noteName": "C#4",
      "velocity": 0.984251968503937,
      "duration": "62i"
    },
    {
      "time": "32200i",
      "midiNote": 47,
      "noteName": "B2",
      "velocity": 0.984251968503937,
      "duration": "62i"
    },
    {
      "time": "32200i",
      "midiNote": 40,
      "noteName": "E2",
      "velocity": 0.984251968503937,
      "duration": "62i"
    },
    {
      "time": "32264i",
      "midiNote": 40,
      "noteName": "E2",
      "velocity": 1,
      "duration": "62i"
    },
    {
      "time": "32264i",
      "midiNote": 47,
      "noteName": "B2",
      "velocity": 1,
      "duration": "62i"
    },
    {
      "time": "32264i",
      "midiNote": 54,
      "noteName": "F#3",
      "velocity": 1,
      "duration": "62i"
    },
    {
      "time": "32328i",
      "midiNote": 58,
      "noteName": "A#3",
      "velocity": 0.7480314960629921,
      "duration": "14i"
    },
    {
      "time": "32328i",
      "midiNote": 55,
      "noteName": "G3",
      "velocity": 0.7480314960629921,
      "duration": "14i"
    },
    {
      "time": "32328i",
      "midiNote": 47,
      "noteName": "B2",
      "velocity": 0.8818897637795275,
      "duration": "62i"
    },
    {
      "time": "32328i",
      "midiNote": 40,
      "noteName": "E2",
      "velocity": 0.8818897637795275,
      "duration": "62i"
    },
    {
      "time": "32360i",
      "midiNote": 59,
      "noteName": "B3",
      "velocity": 0.6456692913385826,
      "duration": "14i"
    },
    {
      "time": "32360i",
      "midiNote": 56,
      "noteName": "G#3",
      "velocity": 0.6456692913385826,
      "duration": "14i"
    },
    {
      "time": "32392i",
      "midiNote": 55,
      "noteName": "G3",
      "velocity": 0.8346456692913385,
      "duration": "14i"
    },
    {
      "time": "32392i",
      "midiNote": 58,
      "noteName": "A#3",
      "velocity": 0.8346456692913385,
      "duration": "14i"
    },
    {
      "time": "32392i",
      "midiNote": 47,
      "noteName": "B2",
      "velocity": 0.8031496062992126,
      "duration": "62i"
    },
    {
      "time": "32392i",
      "midiNote": 40,
      "noteName": "E2",
      "velocity": 0.8031496062992126,
      "duration": "62i"
    },
    {
      "time": "32456i",
      "midiNote": 54,
      "noteName": "F#3",
      "velocity": 0.8818897637795275,
      "duration": "62i"
    },
    {
      "time": "32456i",
      "midiNote": 57,
      "noteName": "A3",
      "velocity": 0.8818897637795275,
      "duration": "14i"
    },
    {
      "time": "32456i",
      "midiNote": 40,
      "noteName": "E2",
      "velocity": 0.6614173228346457,
      "duration": "62i"
    },
    {
      "time": "32456i",
      "midiNote": 47,
      "noteName": "B2",
      "velocity": 0.6614173228346457,
      "duration": "62i"
    },
    {
      "time": "32456i",
      "midiNote": 54,
      "noteName": "F#3",
      "velocity": 0.6614173228346457,
      "duration": "14i"
    },
    {
      "time": "32584i",
      "midiNote": 57,
      "noteName": "A3",
      "velocity": 0.6299212598425197,
      "duration": "14i"
    },
    {
      "time": "32584i",
      "midiNote": 54,
      "noteName": "F#3",
      "velocity": 0.6299212598425197,
      "duration": "62i"
    },
    {
      "time": "32584i",
      "midiNote": 40,
      "noteName": "E2",
      "velocity": 0.5669291338582677,
      "duration": "62i"
    },
    {
      "time": "32584i",
      "midiNote": 47,
      "noteName": "B2",
      "velocity": 0.5669291338582677,
      "duration": "62i"
    },
    {
      "time": "32584i",
      "midiNote": 54,
      "noteName": "F#3",
      "velocity": 0.5669291338582677,
      "duration": "14i"
    },
    {
      "time": "32648i",
      "midiNote": 54,
      "noteName": "F#3",
      "velocity": 1,
      "duration": "62i"
    },
    {
      "time": "32648i",
      "midiNote": 47,
      "noteName": "B2",
      "velocity": 1,
      "duration": "62i"
    },
    {
      "time": "32648i",
      "midiNote": 40,
      "noteName": "E2",
      "velocity": 1,
      "duration": "62i"
    },
    {
      "time": "32712i",
      "midiNote": 55,
      "noteName": "G3",
      "velocity": 0.7480314960629921,
      "duration": "14i"
    },
    {
      "time": "32712i",
      "midiNote": 58,
      "noteName": "A#3",
      "velocity": 0.7480314960629921,
      "duration": "14i"
    },
    {
      "time": "32712i",
      "midiNote": 40,
      "noteName": "E2",
      "velocity": 0.8818897637795275,
      "duration": "62i"
    },
    {
      "time": "32712i",
      "midiNote": 47,
      "noteName": "B2",
      "velocity": 0.8818897637795275,
      "duration": "62i"
    },
    {
      "time": "32744i",
      "midiNote": 59,
      "noteName": "B3",
      "velocity": 0.6456692913385826,
      "duration": "14i"
    },
    {
      "time": "32744i",
      "midiNote": 56,
      "noteName": "G#3",
      "velocity": 0.6456692913385826,
      "duration": "14i"
    },
    {
      "time": "32776i",
      "midiNote": 58,
      "noteName": "A#3",
      "velocity": 0.8346456692913385,
      "duration": "14i"
    },
    {
      "time": "32776i",
      "midiNote": 55,
      "noteName": "G3",
      "velocity": 0.8346456692913385,
      "duration": "14i"
    },
    {
      "time": "32776i",
      "midiNote": 47,
      "noteName": "B2",
      "velocity": 0.8031496062992126,
      "duration": "62i"
    },
    {
      "time": "32776i",
      "midiNote": 40,
      "noteName": "E2",
      "velocity": 0.8031496062992126,
      "duration": "62i"
    },
    {
      "time": "32840i",
      "midiNote": 57,
      "noteName": "A3",
      "velocity": 0.8818897637795275,
      "duration": "14i"
    },
    {
      "time": "32840i",
      "midiNote": 54,
      "noteName": "F#3",
      "velocity": 0.8818897637795275,
      "duration": "62i"
    },
    {
      "time": "32840i",
      "midiNote": 54,
      "noteName": "F#3",
      "velocity": 0.6614173228346457,
      "duration": "14i"
    },
    {
      "time": "32840i",
      "midiNote": 47,
      "noteName": "B2",
      "velocity": 0.6614173228346457,
      "duration": "62i"
    },
    {
      "time": "32840i",
      "midiNote": 40,
      "noteName": "E2",
      "velocity": 0.6614173228346457,
      "duration": "62i"
    },
    {
      "time": "32904i",
      "midiNote": 40,
      "noteName": "E2",
      "velocity": 0.3543307086614173,
      "duration": "62i"
    },
    {
      "time": "32904i",
      "midiNote": 47,
      "noteName": "B2",
      "velocity": 0.3543307086614173,
      "duration": "62i"
    },
    {
      "time": "32904i",
      "midiNote": 54,
      "noteName": "F#3",
      "velocity": 0.3543307086614173,
      "duration": "62i"
    },
    {
      "time": "32968i",
      "midiNote": 57,
      "noteName": "A3",
      "velocity": 0.6299212598425197,
      "duration": "14i"
    },
    {
      "time": "32968i",
      "midiNote": 54,
      "noteName": "F#3",
      "velocity": 0.6299212598425197,
      "duration": "62i"
    },
    {
      "time": "32968i",
      "midiNote": 54,
      "noteName": "F#3",
      "velocity": 0.5669291338582677,
      "duration": "14i"
    },
    {
      "time": "32968i",
      "midiNote": 47,
      "noteName": "B2",
      "velocity": 0.5669291338582677,
      "duration": "62i"
    },
    {
      "time": "32968i",
      "midiNote": 40,
      "noteName": "E2",
      "velocity": 0.5669291338582677,
      "duration": "62i"
    },
    {
      "time": "33032i",
      "midiNote": 54,
      "noteName": "F#3",
      "velocity": 1,
      "duration": "62i"
    },
    {
      "time": "33032i",
      "midiNote": 47,
      "noteName": "B2",
      "velocity": 1,
      "duration": "62i"
    },
    {
      "time": "33032i",
      "midiNote": 40,
      "noteName": "E2",
      "velocity": 1,
      "duration": "62i"
    }
  ],
  [
    {
      "time": "2688i",
      "midiNote": 60,
      "noteName": "C4",
      "velocity": 1,
      "duration": "570i"
    },
    {
      "time": "7296i",
      "midiNote": 60,
      "noteName": "C4",
      "velocity": 1,
      "duration": "570i"
    },
    {
      "time": "13440i",
      "midiNote": 60,
      "noteName": "C4",
      "velocity": 1,
      "duration": "570i"
    },
    {
      "time": "18048i",
      "midiNote": 60,
      "noteName": "C4",
      "velocity": 1,
      "duration": "570i"
    },
    {
      "time": "21120i",
      "midiNote": 60,
      "noteName": "C4",
      "velocity": 1,
      "duration": "570i"
    },
    {
      "time": "24192i",
      "midiNote": 60,
      "noteName": "C4",
      "velocity": 1,
      "duration": "570i"
    },
    {
      "time": "28032i",
      "midiNote": 60,
      "noteName": "C4",
      "velocity": 1,
      "duration": "570i"
    },
    {
      "time": "30336i",
      "midiNote": 60,
      "noteName": "C4",
      "velocity": 1,
      "duration": "570i"
    }
  ],
  [
    {
      "time": "2704i",
      "midiNote": 60,
      "noteName": "C4",
      "velocity": 1,
      "duration": "570i"
    },
    {
      "time": "7312i",
      "midiNote": 60,
      "noteName": "C4",
      "velocity": 1,
      "duration": "570i"
    },
    {
      "time": "13456i",
      "midiNote": 60,
      "noteName": "C4",
      "velocity": 1,
      "duration": "570i"
    },
    {
      "time": "18064i",
      "midiNote": 60,
      "noteName": "C4",
      "velocity": 1,
      "duration": "570i"
    },
    {
      "time": "21136i",
      "midiNote": 60,
      "noteName": "C4",
      "velocity": 1,
      "duration": "570i"
    },
    {
      "time": "24208i",
      "midiNote": 60,
      "noteName": "C4",
      "velocity": 1,
      "duration": "570i"
    },
    {
      "time": "28048i",
      "midiNote": 60,
      "noteName": "C4",
      "velocity": 1,
      "duration": "570i"
    },
    {
      "time": "30352i",
      "midiNote": 60,
      "noteName": "C4",
      "velocity": 1,
      "duration": "570i"
    }
  ],
  [
    {
      "time": "3072i",
      "midiNote": 52,
      "noteName": "E3",
      "velocity": 1,
      "duration": "42i"
    },
    {
      "time": "3072i",
      "midiNote": 40,
      "noteName": "E2",
      "velocity": 1,
      "duration": "42i"
    },
    {
      "time": "3072i",
      "midiNote": 28,
      "noteName": "E1",
      "velocity": 1,
      "duration": "42i"
    },
    {
      "time": "3136i",
      "midiNote": 52,
      "noteName": "E3",
      "velocity": 0.6850393700787402,
      "duration": "42i"
    },
    {
      "time": "3136i",
      "midiNote": 28,
      "noteName": "E1",
      "velocity": 0.6850393700787402,
      "duration": "42i"
    },
    {
      "time": "3136i",
      "midiNote": 40,
      "noteName": "E2",
      "velocity": 0.6850393700787402,
      "duration": "42i"
    },
    {
      "time": "3200i",
      "midiNote": 52,
      "noteName": "E3",
      "velocity": 0.84251968503937,
      "duration": "42i"
    },
    {
      "time": "3200i",
      "midiNote": 40,
      "noteName": "E2",
      "velocity": 0.84251968503937,
      "duration": "42i"
    },
    {
      "time": "3200i",
      "midiNote": 28,
      "noteName": "E1",
      "velocity": 0.84251968503937,
      "duration": "42i"
    },
    {
      "time": "3264i",
      "midiNote": 64,
      "noteName": "E4",
      "velocity": 1,
      "duration": "550i"
    },
    {
      "time": "3264i",
      "midiNote": 59,
      "noteName": "B3",
      "velocity": 1,
      "duration": "550i"
    },
    {
      "time": "3264i",
      "midiNote": 47,
      "noteName": "B2",
      "velocity": 1,
      "duration": "550i"
    },
    {
      "time": "3264i",
      "midiNote": 52,
      "noteName": "E3",
      "velocity": 1,
      "duration": "550i"
    },
    {
      "time": "3840i",
      "midiNote": 52,
      "noteName": "E3",
      "velocity": 1,
      "duration": "42i"
    },
    {
      "time": "3840i",
      "midiNote": 40,
      "noteName": "E2",
      "velocity": 1,
      "duration": "42i"
    },
    {
      "time": "3840i",
      "midiNote": 28,
      "noteName": "E1",
      "velocity": 1,
      "duration": "42i"
    },
    {
      "time": "3904i",
      "midiNote": 52,
      "noteName": "E3",
      "velocity": 0.6850393700787402,
      "duration": "42i"
    },
    {
      "time": "3904i",
      "midiNote": 40,
      "noteName": "E2",
      "velocity": 0.6850393700787402,
      "duration": "42i"
    },
    {
      "time": "3904i",
      "midiNote": 28,
      "noteName": "E1",
      "velocity": 0.6850393700787402,
      "duration": "42i"
    },
    {
      "time": "3968i",
      "midiNote": 52,
      "noteName": "E3",
      "velocity": 0.84251968503937,
      "duration": "42i"
    },
    {
      "time": "3968i",
      "midiNote": 28,
      "noteName": "E1",
      "velocity": 0.84251968503937,
      "duration": "42i"
    },
    {
      "time": "3968i",
      "midiNote": 40,
      "noteName": "E2",
      "velocity": 0.84251968503937,
      "duration": "42i"
    },
    {
      "time": "4032i",
      "midiNote": 61,
      "noteName": "C#4",
      "velocity": 1,
      "duration": "550i"
    },
    {
      "time": "4032i",
      "midiNote": 67,
      "noteName": "G4",
      "velocity": 1,
      "duration": "550i"
    },
    {
      "time": "4032i",
      "midiNote": 49,
      "noteName": "C#3",
      "velocity": 1,
      "duration": "550i"
    },
    {
      "time": "4032i",
      "midiNote": 55,
      "noteName": "G3",
      "velocity": 1,
      "duration": "550i"
    },
    {
      "time": "4608i",
      "midiNote": 52,
      "noteName": "E3",
      "velocity": 1,
      "duration": "42i"
    },
    {
      "time": "4608i",
      "midiNote": 28,
      "noteName": "E1",
      "velocity": 1,
      "duration": "42i"
    },
    {
      "time": "4608i",
      "midiNote": 40,
      "noteName": "E2",
      "velocity": 1,
      "duration": "42i"
    },
    {
      "time": "4672i",
      "midiNote": 52,
      "noteName": "E3",
      "velocity": 0.6850393700787402,
      "duration": "42i"
    },
    {
      "time": "4672i",
      "midiNote": 28,
      "noteName": "E1",
      "velocity": 0.6850393700787402,
      "duration": "42i"
    },
    {
      "time": "4672i",
      "midiNote": 40,
      "noteName": "E2",
      "velocity": 0.6850393700787402,
      "duration": "42i"
    },
    {
      "time": "4736i",
      "midiNote": 52,
      "noteName": "E3",
      "velocity": 0.84251968503937,
      "duration": "42i"
    },
    {
      "time": "4736i",
      "midiNote": 40,
      "noteName": "E2",
      "velocity": 0.84251968503937,
      "duration": "42i"
    },
    {
      "time": "4736i",
      "midiNote": 28,
      "noteName": "E1",
      "velocity": 0.84251968503937,
      "duration": "42i"
    },
    {
      "time": "4800i",
      "midiNote": 69,
      "noteName": "A4",
      "velocity": 1,
      "duration": "550i"
    },
    {
      "time": "4800i",
      "midiNote": 60,
      "noteName": "C4",
      "velocity": 1,
      "duration": "550i"
    },
    {
      "time": "4800i",
      "midiNote": 48,
      "noteName": "C3",
      "velocity": 1,
      "duration": "550i"
    },
    {
      "time": "4800i",
      "midiNote": 57,
      "noteName": "A3",
      "velocity": 1,
      "duration": "550i"
    },
    {
      "time": "5376i",
      "midiNote": 52,
      "noteName": "E3",
      "velocity": 1,
      "duration": "42i"
    },
    {
      "time": "5376i",
      "midiNote": 40,
      "noteName": "E2",
      "velocity": 1,
      "duration": "42i"
    },
    {
      "time": "5376i",
      "midiNote": 28,
      "noteName": "E1",
      "velocity": 1,
      "duration": "42i"
    },
    {
      "time": "5440i",
      "midiNote": 52,
      "noteName": "E3",
      "velocity": 0.6850393700787402,
      "duration": "42i"
    },
    {
      "time": "5440i",
      "midiNote": 28,
      "noteName": "E1",
      "velocity": 0.6850393700787402,
      "duration": "42i"
    },
    {
      "time": "5440i",
      "midiNote": 40,
      "noteName": "E2",
      "velocity": 0.6850393700787402,
      "duration": "42i"
    },
    {
      "time": "5504i",
      "midiNote": 52,
      "noteName": "E3",
      "velocity": 0.84251968503937,
      "duration": "42i"
    },
    {
      "time": "5504i",
      "midiNote": 28,
      "noteName": "E1",
      "velocity": 0.84251968503937,
      "duration": "42i"
    },
    {
      "time": "5504i",
      "midiNote": 40,
      "noteName": "E2",
      "velocity": 0.84251968503937,
      "duration": "42i"
    },
    {
      "time": "5568i",
      "midiNote": 62,
      "noteName": "D4",
      "velocity": 1,
      "duration": "550i"
    },
    {
      "time": "5568i",
      "midiNote": 67,
      "noteName": "G4",
      "velocity": 1,
      "duration": "358i"
    },
    {
      "time": "5568i",
      "midiNote": 50,
      "noteName": "D3",
      "velocity": 1,
      "duration": "550i"
    },
    {
      "time": "5568i",
      "midiNote": 55,
      "noteName": "G3",
      "velocity": 1,
      "duration": "358i"
    },
    {
      "time": "5952i",
      "midiNote": 67,
      "noteName": "G4",
      "velocity": 1,
      "duration": "38i"
    },
    {
      "time": "5952i",
      "midiNote": 55,
      "noteName": "G3",
      "velocity": 1,
      "duration": "38i"
    },
    {
      "time": "6016i",
      "midiNote": 66,
      "noteName": "F#4",
      "velocity": 1,
      "duration": "38i"
    },
    {
      "time": "6016i",
      "midiNote": 54,
      "noteName": "F#3",
      "velocity": 1,
      "duration": "38i"
    },
    {
      "time": "6080i",
      "midiNote": 64,
      "noteName": "E4",
      "velocity": 1,
      "duration": "38i"
    },
    {
      "time": "6080i",
      "midiNote": 52,
      "noteName": "E3",
      "velocity": 1,
      "duration": "38i"
    },
    {
      "time": "6144i",
      "midiNote": 52,
      "noteName": "E3",
      "velocity": 1,
      "duration": "42i"
    },
    {
      "time": "6144i",
      "midiNote": 40,
      "noteName": "E2",
      "velocity": 1,
      "duration": "42i"
    },
    {
      "time": "6144i",
      "midiNote": 28,
      "noteName": "E1",
      "velocity": 1,
      "duration": "42i"
    },
    {
      "time": "6208i",
      "midiNote": 52,
      "noteName": "E3",
      "velocity": 0.6850393700787402,
      "duration": "42i"
    },
    {
      "time": "6208i",
      "midiNote": 28,
      "noteName": "E1",
      "velocity": 0.6850393700787402,
      "duration": "42i"
    },
    {
      "time": "6208i",
      "midiNote": 40,
      "noteName": "E2",
      "velocity": 0.6850393700787402,
      "duration": "42i"
    },
    {
      "time": "6272i",
      "midiNote": 52,
      "noteName": "E3",
      "velocity": 0.84251968503937,
      "duration": "42i"
    },
    {
      "time": "6272i",
      "midiNote": 40,
      "noteName": "E2",
      "velocity": 0.84251968503937,
      "duration": "42i"
    },
    {
      "time": "6272i",
      "midiNote": 28,
      "noteName": "E1",
      "velocity": 0.84251968503937,
      "duration": "42i"
    },
    {
      "time": "6336i",
      "midiNote": 64,
      "noteName": "E4",
      "velocity": 1,
      "duration": "550i"
    },
    {
      "time": "6336i",
      "midiNote": 59,
      "noteName": "B3",
      "velocity": 1,
      "duration": "550i"
    },
    {
      "time": "6336i",
      "midiNote": 47,
      "noteName": "B2",
      "velocity": 1,
      "duration": "550i"
    },
    {
      "time": "6336i",
      "midiNote": 52,
      "noteName": "E3",
      "velocity": 1,
      "duration": "550i"
    },
    {
      "time": "6912i",
      "midiNote": 52,
      "noteName": "E3",
      "velocity": 1,
      "duration": "42i"
    },
    {
      "time": "6912i",
      "midiNote": 40,
      "noteName": "E2",
      "velocity": 1,
      "duration": "42i"
    },
    {
      "time": "6912i",
      "midiNote": 28,
      "noteName": "E1",
      "velocity": 1,
      "duration": "42i"
    },
    {
      "time": "6976i",
      "midiNote": 52,
      "noteName": "E3",
      "velocity": 0.6850393700787402,
      "duration": "42i"
    },
    {
      "time": "6976i",
      "midiNote": 40,
      "noteName": "E2",
      "velocity": 0.6850393700787402,
      "duration": "42i"
    },
    {
      "time": "6976i",
      "midiNote": 28,
      "noteName": "E1",
      "velocity": 0.6850393700787402,
      "duration": "42i"
    },
    {
      "time": "7040i",
      "midiNote": 52,
      "noteName": "E3",
      "velocity": 0.84251968503937,
      "duration": "42i"
    },
    {
      "time": "7040i",
      "midiNote": 28,
      "noteName": "E1",
      "velocity": 0.84251968503937,
      "duration": "42i"
    },
    {
      "time": "7040i",
      "midiNote": 40,
      "noteName": "E2",
      "velocity": 0.84251968503937,
      "duration": "42i"
    },
    {
      "time": "7104i",
      "midiNote": 61,
      "noteName": "C#4",
      "velocity": 1,
      "duration": "550i"
    },
    {
      "time": "7104i",
      "midiNote": 67,
      "noteName": "G4",
      "velocity": 1,
      "duration": "550i"
    },
    {
      "time": "7104i",
      "midiNote": 49,
      "noteName": "C#3",
      "velocity": 1,
      "duration": "550i"
    },
    {
      "time": "7104i",
      "midiNote": 55,
      "noteName": "G3",
      "velocity": 1,
      "duration": "550i"
    },
    {
      "time": "7680i",
      "midiNote": 52,
      "noteName": "E3",
      "velocity": 1,
      "duration": "42i"
    },
    {
      "time": "7680i",
      "midiNote": 28,
      "noteName": "E1",
      "velocity": 1,
      "duration": "42i"
    },
    {
      "time": "7680i",
      "midiNote": 40,
      "noteName": "E2",
      "velocity": 1,
      "duration": "42i"
    },
    {
      "time": "7744i",
      "midiNote": 52,
      "noteName": "E3",
      "velocity": 0.6850393700787402,
      "duration": "42i"
    },
    {
      "time": "7744i",
      "midiNote": 28,
      "noteName": "E1",
      "velocity": 0.6850393700787402,
      "duration": "42i"
    },
    {
      "time": "7744i",
      "midiNote": 40,
      "noteName": "E2",
      "velocity": 0.6850393700787402,
      "duration": "42i"
    },
    {
      "time": "7808i",
      "midiNote": 52,
      "noteName": "E3",
      "velocity": 0.84251968503937,
      "duration": "42i"
    },
    {
      "time": "7808i",
      "midiNote": 40,
      "noteName": "E2",
      "velocity": 0.84251968503937,
      "duration": "42i"
    },
    {
      "time": "7808i",
      "midiNote": 28,
      "noteName": "E1",
      "velocity": 0.84251968503937,
      "duration": "42i"
    },
    {
      "time": "7872i",
      "midiNote": 69,
      "noteName": "A4",
      "velocity": 1,
      "duration": "550i"
    },
    {
      "time": "7872i",
      "midiNote": 60,
      "noteName": "C4",
      "velocity": 1,
      "duration": "550i"
    },
    {
      "time": "7872i",
      "midiNote": 48,
      "noteName": "C3",
      "velocity": 1,
      "duration": "550i"
    },
    {
      "time": "7872i",
      "midiNote": 57,
      "noteName": "A3",
      "velocity": 1,
      "duration": "550i"
    },
    {
      "time": "8448i",
      "midiNote": 52,
      "noteName": "E3",
      "velocity": 1,
      "duration": "42i"
    },
    {
      "time": "8448i",
      "midiNote": 40,
      "noteName": "E2",
      "velocity": 1,
      "duration": "42i"
    },
    {
      "time": "8448i",
      "midiNote": 28,
      "noteName": "E1",
      "velocity": 1,
      "duration": "42i"
    },
    {
      "time": "8512i",
      "midiNote": 52,
      "noteName": "E3",
      "velocity": 0.6850393700787402,
      "duration": "42i"
    },
    {
      "time": "8512i",
      "midiNote": 28,
      "noteName": "E1",
      "velocity": 0.6850393700787402,
      "duration": "42i"
    },
    {
      "time": "8512i",
      "midiNote": 40,
      "noteName": "E2",
      "velocity": 0.6850393700787402,
      "duration": "42i"
    },
    {
      "time": "8576i",
      "midiNote": 52,
      "noteName": "E3",
      "velocity": 0.84251968503937,
      "duration": "42i"
    },
    {
      "time": "8576i",
      "midiNote": 28,
      "noteName": "E1",
      "velocity": 0.84251968503937,
      "duration": "42i"
    },
    {
      "time": "8576i",
      "midiNote": 40,
      "noteName": "E2",
      "velocity": 0.84251968503937,
      "duration": "42i"
    },
    {
      "time": "8640i",
      "midiNote": 62,
      "noteName": "D4",
      "velocity": 1,
      "duration": "550i"
    },
    {
      "time": "8640i",
      "midiNote": 67,
      "noteName": "G4",
      "velocity": 1,
      "duration": "358i"
    },
    {
      "time": "8640i",
      "midiNote": 50,
      "noteName": "D3",
      "velocity": 1,
      "duration": "550i"
    },
    {
      "time": "8640i",
      "midiNote": 55,
      "noteName": "G3",
      "velocity": 1,
      "duration": "358i"
    },
    {
      "time": "9024i",
      "midiNote": 67,
      "noteName": "G4",
      "velocity": 1,
      "duration": "38i"
    },
    {
      "time": "9024i",
      "midiNote": 55,
      "noteName": "G3",
      "velocity": 1,
      "duration": "38i"
    },
    {
      "time": "9088i",
      "midiNote": 66,
      "noteName": "F#4",
      "velocity": 1,
      "duration": "38i"
    },
    {
      "time": "9088i",
      "midiNote": 54,
      "noteName": "F#3",
      "velocity": 1,
      "duration": "38i"
    },
    {
      "time": "9152i",
      "midiNote": 64,
      "noteName": "E4",
      "velocity": 1,
      "duration": "38i"
    },
    {
      "time": "9152i",
      "midiNote": 52,
      "noteName": "E3",
      "velocity": 1,
      "duration": "38i"
    },
    {
      "time": "9216i",
      "midiNote": 52,
      "noteName": "E3",
      "velocity": 1,
      "duration": "42i"
    },
    {
      "time": "9216i",
      "midiNote": 40,
      "noteName": "E2",
      "velocity": 1,
      "duration": "42i"
    },
    {
      "time": "9216i",
      "midiNote": 28,
      "noteName": "E1",
      "velocity": 1,
      "duration": "42i"
    },
    {
      "time": "9280i",
      "midiNote": 52,
      "noteName": "E3",
      "velocity": 0.6850393700787402,
      "duration": "42i"
    },
    {
      "time": "9280i",
      "midiNote": 28,
      "noteName": "E1",
      "velocity": 0.6850393700787402,
      "duration": "42i"
    },
    {
      "time": "9280i",
      "midiNote": 40,
      "noteName": "E2",
      "velocity": 0.6850393700787402,
      "duration": "42i"
    },
    {
      "time": "9344i",
      "midiNote": 52,
      "noteName": "E3",
      "velocity": 0.84251968503937,
      "duration": "42i"
    },
    {
      "time": "9344i",
      "midiNote": 40,
      "noteName": "E2",
      "velocity": 0.84251968503937,
      "duration": "42i"
    },
    {
      "time": "9344i",
      "midiNote": 28,
      "noteName": "E1",
      "velocity": 0.84251968503937,
      "duration": "42i"
    },
    {
      "time": "9408i",
      "midiNote": 64,
      "noteName": "E4",
      "velocity": 1,
      "duration": "550i"
    },
    {
      "time": "9408i",
      "midiNote": 59,
      "noteName": "B3",
      "velocity": 1,
      "duration": "550i"
    },
    {
      "time": "9408i",
      "midiNote": 47,
      "noteName": "B2",
      "velocity": 1,
      "duration": "550i"
    },
    {
      "time": "9408i",
      "midiNote": 52,
      "noteName": "E3",
      "velocity": 1,
      "duration": "550i"
    },
    {
      "time": "9984i",
      "midiNote": 52,
      "noteName": "E3",
      "velocity": 1,
      "duration": "42i"
    },
    {
      "time": "9984i",
      "midiNote": 40,
      "noteName": "E2",
      "velocity": 1,
      "duration": "42i"
    },
    {
      "time": "9984i",
      "midiNote": 28,
      "noteName": "E1",
      "velocity": 1,
      "duration": "42i"
    },
    {
      "time": "10048i",
      "midiNote": 52,
      "noteName": "E3",
      "velocity": 0.6850393700787402,
      "duration": "42i"
    },
    {
      "time": "10048i",
      "midiNote": 40,
      "noteName": "E2",
      "velocity": 0.6850393700787402,
      "duration": "42i"
    },
    {
      "time": "10048i",
      "midiNote": 28,
      "noteName": "E1",
      "velocity": 0.6850393700787402,
      "duration": "42i"
    },
    {
      "time": "10112i",
      "midiNote": 52,
      "noteName": "E3",
      "velocity": 0.84251968503937,
      "duration": "42i"
    },
    {
      "time": "10112i",
      "midiNote": 28,
      "noteName": "E1",
      "velocity": 0.84251968503937,
      "duration": "42i"
    },
    {
      "time": "10112i",
      "midiNote": 40,
      "noteName": "E2",
      "velocity": 0.84251968503937,
      "duration": "42i"
    },
    {
      "time": "10176i",
      "midiNote": 61,
      "noteName": "C#4",
      "velocity": 1,
      "duration": "550i"
    },
    {
      "time": "10176i",
      "midiNote": 67,
      "noteName": "G4",
      "velocity": 1,
      "duration": "550i"
    },
    {
      "time": "10176i",
      "midiNote": 49,
      "noteName": "C#3",
      "velocity": 1,
      "duration": "550i"
    },
    {
      "time": "10176i",
      "midiNote": 55,
      "noteName": "G3",
      "velocity": 1,
      "duration": "550i"
    },
    {
      "time": "10752i",
      "midiNote": 52,
      "noteName": "E3",
      "velocity": 1,
      "duration": "42i"
    },
    {
      "time": "10752i",
      "midiNote": 28,
      "noteName": "E1",
      "velocity": 1,
      "duration": "42i"
    },
    {
      "time": "10752i",
      "midiNote": 40,
      "noteName": "E2",
      "velocity": 1,
      "duration": "42i"
    },
    {
      "time": "10816i",
      "midiNote": 52,
      "noteName": "E3",
      "velocity": 0.6850393700787402,
      "duration": "42i"
    },
    {
      "time": "10816i",
      "midiNote": 28,
      "noteName": "E1",
      "velocity": 0.6850393700787402,
      "duration": "42i"
    },
    {
      "time": "10816i",
      "midiNote": 40,
      "noteName": "E2",
      "velocity": 0.6850393700787402,
      "duration": "42i"
    },
    {
      "time": "10880i",
      "midiNote": 52,
      "noteName": "E3",
      "velocity": 0.84251968503937,
      "duration": "42i"
    },
    {
      "time": "10880i",
      "midiNote": 40,
      "noteName": "E2",
      "velocity": 0.84251968503937,
      "duration": "42i"
    },
    {
      "time": "10880i",
      "midiNote": 28,
      "noteName": "E1",
      "velocity": 0.84251968503937,
      "duration": "42i"
    },
    {
      "time": "10944i",
      "midiNote": 69,
      "noteName": "A4",
      "velocity": 1,
      "duration": "550i"
    },
    {
      "time": "10944i",
      "midiNote": 60,
      "noteName": "C4",
      "velocity": 1,
      "duration": "550i"
    },
    {
      "time": "10944i",
      "midiNote": 48,
      "noteName": "C3",
      "velocity": 1,
      "duration": "550i"
    },
    {
      "time": "10944i",
      "midiNote": 57,
      "noteName": "A3",
      "velocity": 1,
      "duration": "550i"
    },
    {
      "time": "11520i",
      "midiNote": 52,
      "noteName": "E3",
      "velocity": 1,
      "duration": "42i"
    },
    {
      "time": "11520i",
      "midiNote": 40,
      "noteName": "E2",
      "velocity": 1,
      "duration": "42i"
    },
    {
      "time": "11520i",
      "midiNote": 28,
      "noteName": "E1",
      "velocity": 1,
      "duration": "42i"
    },
    {
      "time": "11584i",
      "midiNote": 52,
      "noteName": "E3",
      "velocity": 0.6850393700787402,
      "duration": "42i"
    },
    {
      "time": "11584i",
      "midiNote": 28,
      "noteName": "E1",
      "velocity": 0.6850393700787402,
      "duration": "42i"
    },
    {
      "time": "11584i",
      "midiNote": 40,
      "noteName": "E2",
      "velocity": 0.6850393700787402,
      "duration": "42i"
    },
    {
      "time": "11648i",
      "midiNote": 52,
      "noteName": "E3",
      "velocity": 0.84251968503937,
      "duration": "42i"
    },
    {
      "time": "11648i",
      "midiNote": 28,
      "noteName": "E1",
      "velocity": 0.84251968503937,
      "duration": "42i"
    },
    {
      "time": "11648i",
      "midiNote": 40,
      "noteName": "E2",
      "velocity": 0.84251968503937,
      "duration": "42i"
    },
    {
      "time": "11712i",
      "midiNote": 62,
      "noteName": "D4",
      "velocity": 1,
      "duration": "550i"
    },
    {
      "time": "11712i",
      "midiNote": 67,
      "noteName": "G4",
      "velocity": 1,
      "duration": "358i"
    },
    {
      "time": "11712i",
      "midiNote": 50,
      "noteName": "D3",
      "velocity": 1,
      "duration": "550i"
    },
    {
      "time": "11712i",
      "midiNote": 55,
      "noteName": "G3",
      "velocity": 1,
      "duration": "358i"
    },
    {
      "time": "12096i",
      "midiNote": 67,
      "noteName": "G4",
      "velocity": 1,
      "duration": "38i"
    },
    {
      "time": "12096i",
      "midiNote": 55,
      "noteName": "G3",
      "velocity": 1,
      "duration": "38i"
    },
    {
      "time": "12160i",
      "midiNote": 66,
      "noteName": "F#4",
      "velocity": 1,
      "duration": "38i"
    },
    {
      "time": "12160i",
      "midiNote": 54,
      "noteName": "F#3",
      "velocity": 1,
      "duration": "38i"
    },
    {
      "time": "12224i",
      "midiNote": 64,
      "noteName": "E4",
      "velocity": 1,
      "duration": "38i"
    },
    {
      "time": "12224i",
      "midiNote": 52,
      "noteName": "E3",
      "velocity": 1,
      "duration": "38i"
    },
    {
      "time": "12288i",
      "midiNote": 52,
      "noteName": "E3",
      "velocity": 1,
      "duration": "42i"
    },
    {
      "time": "12288i",
      "midiNote": 40,
      "noteName": "E2",
      "velocity": 1,
      "duration": "42i"
    },
    {
      "time": "12288i",
      "midiNote": 28,
      "noteName": "E1",
      "velocity": 1,
      "duration": "42i"
    },
    {
      "time": "12352i",
      "midiNote": 52,
      "noteName": "E3",
      "velocity": 0.6850393700787402,
      "duration": "42i"
    },
    {
      "time": "12352i",
      "midiNote": 28,
      "noteName": "E1",
      "velocity": 0.6850393700787402,
      "duration": "42i"
    },
    {
      "time": "12352i",
      "midiNote": 40,
      "noteName": "E2",
      "velocity": 0.6850393700787402,
      "duration": "42i"
    },
    {
      "time": "12416i",
      "midiNote": 52,
      "noteName": "E3",
      "velocity": 0.84251968503937,
      "duration": "42i"
    },
    {
      "time": "12416i",
      "midiNote": 40,
      "noteName": "E2",
      "velocity": 0.84251968503937,
      "duration": "42i"
    },
    {
      "time": "12416i",
      "midiNote": 28,
      "noteName": "E1",
      "velocity": 0.84251968503937,
      "duration": "42i"
    },
    {
      "time": "12480i",
      "midiNote": 64,
      "noteName": "E4",
      "velocity": 1,
      "duration": "550i"
    },
    {
      "time": "12480i",
      "midiNote": 59,
      "noteName": "B3",
      "velocity": 1,
      "duration": "550i"
    },
    {
      "time": "12480i",
      "midiNote": 47,
      "noteName": "B2",
      "velocity": 1,
      "duration": "550i"
    },
    {
      "time": "12480i",
      "midiNote": 52,
      "noteName": "E3",
      "velocity": 1,
      "duration": "550i"
    },
    {
      "time": "13056i",
      "midiNote": 52,
      "noteName": "E3",
      "velocity": 1,
      "duration": "42i"
    },
    {
      "time": "13056i",
      "midiNote": 40,
      "noteName": "E2",
      "velocity": 1,
      "duration": "42i"
    },
    {
      "time": "13056i",
      "midiNote": 28,
      "noteName": "E1",
      "velocity": 1,
      "duration": "42i"
    },
    {
      "time": "13120i",
      "midiNote": 52,
      "noteName": "E3",
      "velocity": 0.6850393700787402,
      "duration": "42i"
    },
    {
      "time": "13120i",
      "midiNote": 40,
      "noteName": "E2",
      "velocity": 0.6850393700787402,
      "duration": "42i"
    },
    {
      "time": "13120i",
      "midiNote": 28,
      "noteName": "E1",
      "velocity": 0.6850393700787402,
      "duration": "42i"
    },
    {
      "time": "13184i",
      "midiNote": 52,
      "noteName": "E3",
      "velocity": 0.84251968503937,
      "duration": "42i"
    },
    {
      "time": "13184i",
      "midiNote": 28,
      "noteName": "E1",
      "velocity": 0.84251968503937,
      "duration": "42i"
    },
    {
      "time": "13184i",
      "midiNote": 40,
      "noteName": "E2",
      "velocity": 0.84251968503937,
      "duration": "42i"
    },
    {
      "time": "13248i",
      "midiNote": 61,
      "noteName": "C#4",
      "velocity": 1,
      "duration": "550i"
    },
    {
      "time": "13248i",
      "midiNote": 67,
      "noteName": "G4",
      "velocity": 1,
      "duration": "550i"
    },
    {
      "time": "13248i",
      "midiNote": 49,
      "noteName": "C#3",
      "velocity": 1,
      "duration": "550i"
    },
    {
      "time": "13248i",
      "midiNote": 55,
      "noteName": "G3",
      "velocity": 1,
      "duration": "550i"
    },
    {
      "time": "13824i",
      "midiNote": 52,
      "noteName": "E3",
      "velocity": 1,
      "duration": "42i"
    },
    {
      "time": "13824i",
      "midiNote": 28,
      "noteName": "E1",
      "velocity": 1,
      "duration": "42i"
    },
    {
      "time": "13824i",
      "midiNote": 40,
      "noteName": "E2",
      "velocity": 1,
      "duration": "42i"
    },
    {
      "time": "13888i",
      "midiNote": 52,
      "noteName": "E3",
      "velocity": 0.6850393700787402,
      "duration": "42i"
    },
    {
      "time": "13888i",
      "midiNote": 28,
      "noteName": "E1",
      "velocity": 0.6850393700787402,
      "duration": "42i"
    },
    {
      "time": "13888i",
      "midiNote": 40,
      "noteName": "E2",
      "velocity": 0.6850393700787402,
      "duration": "42i"
    },
    {
      "time": "13952i",
      "midiNote": 52,
      "noteName": "E3",
      "velocity": 0.84251968503937,
      "duration": "42i"
    },
    {
      "time": "13952i",
      "midiNote": 40,
      "noteName": "E2",
      "velocity": 0.84251968503937,
      "duration": "42i"
    },
    {
      "time": "13952i",
      "midiNote": 28,
      "noteName": "E1",
      "velocity": 0.84251968503937,
      "duration": "42i"
    },
    {
      "time": "14016i",
      "midiNote": 69,
      "noteName": "A4",
      "velocity": 1,
      "duration": "550i"
    },
    {
      "time": "14016i",
      "midiNote": 60,
      "noteName": "C4",
      "velocity": 1,
      "duration": "550i"
    },
    {
      "time": "14016i",
      "midiNote": 48,
      "noteName": "C3",
      "velocity": 1,
      "duration": "550i"
    },
    {
      "time": "14016i",
      "midiNote": 57,
      "noteName": "A3",
      "velocity": 1,
      "duration": "550i"
    },
    {
      "time": "14592i",
      "midiNote": 52,
      "noteName": "E3",
      "velocity": 1,
      "duration": "42i"
    },
    {
      "time": "14592i",
      "midiNote": 40,
      "noteName": "E2",
      "velocity": 1,
      "duration": "42i"
    },
    {
      "time": "14592i",
      "midiNote": 28,
      "noteName": "E1",
      "velocity": 1,
      "duration": "42i"
    },
    {
      "time": "14656i",
      "midiNote": 52,
      "noteName": "E3",
      "velocity": 0.6850393700787402,
      "duration": "42i"
    },
    {
      "time": "14656i",
      "midiNote": 28,
      "noteName": "E1",
      "velocity": 0.6850393700787402,
      "duration": "42i"
    },
    {
      "time": "14656i",
      "midiNote": 40,
      "noteName": "E2",
      "velocity": 0.6850393700787402,
      "duration": "42i"
    },
    {
      "time": "14720i",
      "midiNote": 52,
      "noteName": "E3",
      "velocity": 0.84251968503937,
      "duration": "42i"
    },
    {
      "time": "14720i",
      "midiNote": 28,
      "noteName": "E1",
      "velocity": 0.84251968503937,
      "duration": "42i"
    },
    {
      "time": "14720i",
      "midiNote": 40,
      "noteName": "E2",
      "velocity": 0.84251968503937,
      "duration": "42i"
    },
    {
      "time": "14784i",
      "midiNote": 62,
      "noteName": "D4",
      "velocity": 1,
      "duration": "550i"
    },
    {
      "time": "14784i",
      "midiNote": 67,
      "noteName": "G4",
      "velocity": 1,
      "duration": "358i"
    },
    {
      "time": "14784i",
      "midiNote": 50,
      "noteName": "D3",
      "velocity": 1,
      "duration": "550i"
    },
    {
      "time": "14784i",
      "midiNote": 55,
      "noteName": "G3",
      "velocity": 1,
      "duration": "358i"
    },
    {
      "time": "15168i",
      "midiNote": 67,
      "noteName": "G4",
      "velocity": 1,
      "duration": "38i"
    },
    {
      "time": "15168i",
      "midiNote": 55,
      "noteName": "G3",
      "velocity": 1,
      "duration": "38i"
    },
    {
      "time": "15232i",
      "midiNote": 66,
      "noteName": "F#4",
      "velocity": 1,
      "duration": "38i"
    },
    {
      "time": "15232i",
      "midiNote": 54,
      "noteName": "F#3",
      "velocity": 1,
      "duration": "38i"
    },
    {
      "time": "15296i",
      "midiNote": 64,
      "noteName": "E4",
      "velocity": 1,
      "duration": "38i"
    },
    {
      "time": "15296i",
      "midiNote": 52,
      "noteName": "E3",
      "velocity": 1,
      "duration": "38i"
    },
    {
      "time": "15360i",
      "midiNote": 52,
      "noteName": "E3",
      "velocity": 1,
      "duration": "42i"
    },
    {
      "time": "15360i",
      "midiNote": 28,
      "noteName": "E1",
      "velocity": 1,
      "duration": "42i"
    },
    {
      "time": "15360i",
      "midiNote": 40,
      "noteName": "E2",
      "velocity": 1,
      "duration": "42i"
    },
    {
      "time": "15424i",
      "midiNote": 47,
      "noteName": "B2",
      "velocity": 1,
      "duration": "38i"
    },
    {
      "time": "15424i",
      "midiNote": 52,
      "noteName": "E3",
      "velocity": 1,
      "duration": "38i"
    },
    {
      "time": "15424i",
      "midiNote": 64,
      "noteName": "E4",
      "velocity": 1,
      "duration": "38i"
    },
    {
      "time": "15424i",
      "midiNote": 59,
      "noteName": "B3",
      "velocity": 1,
      "duration": "38i"
    },
    {
      "time": "15488i",
      "midiNote": 28,
      "noteName": "E1",
      "velocity": 0.7874015748031497,
      "duration": "42i"
    },
    {
      "time": "15488i",
      "midiNote": 40,
      "noteName": "E2",
      "velocity": 0.7874015748031497,
      "duration": "42i"
    },
    {
      "time": "15488i",
      "midiNote": 52,
      "noteName": "E3",
      "velocity": 0.7874015748031497,
      "duration": "42i"
    },
    {
      "time": "15552i",
      "midiNote": 59,
      "noteName": "B3",
      "velocity": 1,
      "duration": "102i"
    },
    {
      "time": "15552i",
      "midiNote": 64,
      "noteName": "E4",
      "velocity": 1,
      "duration": "102i"
    },
    {
      "time": "15552i",
      "midiNote": 52,
      "noteName": "E3",
      "velocity": 1,
      "duration": "102i"
    },
    {
      "time": "15552i",
      "midiNote": 47,
      "noteName": "B2",
      "velocity": 1,
      "duration": "102i"
    },
    {
      "time": "15680i",
      "midiNote": 59,
      "noteName": "B3",
      "velocity": 0.8818897637795275,
      "duration": "38i"
    },
    {
      "time": "15680i",
      "midiNote": 64,
      "noteName": "E4",
      "velocity": 0.8818897637795275,
      "duration": "38i"
    },
    {
      "time": "15680i",
      "midiNote": 52,
      "noteName": "E3",
      "velocity": 0.8818897637795275,
      "duration": "38i"
    },
    {
      "time": "15680i",
      "midiNote": 47,
      "noteName": "B2",
      "velocity": 0.8818897637795275,
      "duration": "38i"
    },
    {
      "time": "15744i",
      "midiNote": 40,
      "noteName": "E2",
      "velocity": 1,
      "duration": "42i"
    },
    {
      "time": "15744i",
      "midiNote": 28,
      "noteName": "E1",
      "velocity": 1,
      "duration": "42i"
    },
    {
      "time": "15744i",
      "midiNote": 52,
      "noteName": "E3",
      "velocity": 1,
      "duration": "42i"
    },
    {
      "time": "15808i",
      "midiNote": 61,
      "noteName": "C#4",
      "velocity": 1,
      "duration": "38i"
    },
    {
      "time": "15808i",
      "midiNote": 67,
      "noteName": "G4",
      "velocity": 1,
      "duration": "38i"
    },
    {
      "time": "15808i",
      "midiNote": 55,
      "noteName": "G3",
      "velocity": 1,
      "duration": "38i"
    },
    {
      "time": "15808i",
      "midiNote": 49,
      "noteName": "C#3",
      "velocity": 1,
      "duration": "38i"
    },
    {
      "time": "15872i",
      "midiNote": 28,
      "noteName": "E1",
      "velocity": 0.7874015748031497,
      "duration": "42i"
    },
    {
      "time": "15872i",
      "midiNote": 40,
      "noteName": "E2",
      "velocity": 0.7874015748031497,
      "duration": "42i"
    },
    {
      "time": "15872i",
      "midiNote": 52,
      "noteName": "E3",
      "velocity": 0.7874015748031497,
      "duration": "42i"
    },
    {
      "time": "15936i",
      "midiNote": 61,
      "noteName": "C#4",
      "velocity": 1,
      "duration": "102i"
    },
    {
      "time": "15936i",
      "midiNote": 67,
      "noteName": "G4",
      "velocity": 1,
      "duration": "102i"
    },
    {
      "time": "15936i",
      "midiNote": 55,
      "noteName": "G3",
      "velocity": 1,
      "duration": "102i"
    },
    {
      "time": "15936i",
      "midiNote": 49,
      "noteName": "C#3",
      "velocity": 1,
      "duration": "102i"
    },
    {
      "time": "16064i",
      "midiNote": 49,
      "noteName": "C#3",
      "velocity": 0.8818897637795275,
      "duration": "38i"
    },
    {
      "time": "16064i",
      "midiNote": 55,
      "noteName": "G3",
      "velocity": 0.8818897637795275,
      "duration": "38i"
    },
    {
      "time": "16064i",
      "midiNote": 67,
      "noteName": "G4",
      "velocity": 0.8818897637795275,
      "duration": "38i"
    },
    {
      "time": "16064i",
      "midiNote": 61,
      "noteName": "C#4",
      "velocity": 0.8818897637795275,
      "duration": "38i"
    },
    {
      "time": "16128i",
      "midiNote": 28,
      "noteName": "E1",
      "velocity": 1,
      "duration": "42i"
    },
    {
      "time": "16128i",
      "midiNote": 52,
      "noteName": "E3",
      "velocity": 1,
      "duration": "42i"
    },
    {
      "time": "16128i",
      "midiNote": 28,
      "noteName": "E1",
      "velocity": 1,
      "duration": "42i"
    },
    {
      "time": "16128i",
      "midiNote": 40,
      "noteName": "E2",
      "velocity": 1,
      "duration": "42i"
    },
    {
      "time": "16192i",
      "midiNote": 28,
      "noteName": "E1",
      "velocity": 0.6850393700787402,
      "duration": "42i"
    },
    {
      "time": "16192i",
      "midiNote": 48,
      "noteName": "C3",
      "velocity": 1,
      "duration": "38i"
    },
    {
      "time": "16192i",
      "midiNote": 57,
      "noteName": "A3",
      "velocity": 1,
      "duration": "38i"
    },
    {
      "time": "16192i",
      "midiNote": 69,
      "noteName": "A4",
      "velocity": 1,
      "duration": "38i"
    },
    {
      "time": "16192i",
      "midiNote": 60,
      "noteName": "C4",
      "velocity": 1,
      "duration": "38i"
    },
    {
      "time": "16256i",
      "midiNote": 28,
      "noteName": "E1",
      "velocity": 0.7874015748031497,
      "duration": "42i"
    },
    {
      "time": "16256i",
      "midiNote": 40,
      "noteName": "E2",
      "velocity": 0.7874015748031497,
      "duration": "42i"
    },
    {
      "time": "16256i",
      "midiNote": 52,
      "noteName": "E3",
      "velocity": 0.7874015748031497,
      "duration": "42i"
    },
    {
      "time": "16256i",
      "midiNote": 28,
      "noteName": "E1",
      "velocity": 0.84251968503937,
      "duration": "42i"
    },
    {
      "time": "16320i",
      "midiNote": 60,
      "noteName": "C4",
      "velocity": 1,
      "duration": "102i"
    },
    {
      "time": "16320i",
      "midiNote": 69,
      "noteName": "A4",
      "velocity": 1,
      "duration": "102i"
    },
    {
      "time": "16320i",
      "midiNote": 57,
      "noteName": "A3",
      "velocity": 1,
      "duration": "102i"
    },
    {
      "time": "16320i",
      "midiNote": 48,
      "noteName": "C3",
      "velocity": 1,
      "duration": "102i"
    },
    {
      "time": "16448i",
      "midiNote": 60,
      "noteName": "C4",
      "velocity": 0.8818897637795275,
      "duration": "38i"
    },
    {
      "time": "16448i",
      "midiNote": 69,
      "noteName": "A4",
      "velocity": 0.8818897637795275,
      "duration": "38i"
    },
    {
      "time": "16448i",
      "midiNote": 57,
      "noteName": "A3",
      "velocity": 0.8818897637795275,
      "duration": "38i"
    },
    {
      "time": "16448i",
      "midiNote": 48,
      "noteName": "C3",
      "velocity": 0.8818897637795275,
      "duration": "38i"
    },
    {
      "time": "16512i",
      "midiNote": 40,
      "noteName": "E2",
      "velocity": 1,
      "duration": "42i"
    },
    {
      "time": "16512i",
      "midiNote": 28,
      "noteName": "E1",
      "velocity": 1,
      "duration": "42i"
    },
    {
      "time": "16512i",
      "midiNote": 52,
      "noteName": "E3",
      "velocity": 1,
      "duration": "42i"
    },
    {
      "time": "16576i",
      "midiNote": 62,
      "noteName": "D4",
      "velocity": 1,
      "duration": "38i"
    },
    {
      "time": "16576i",
      "midiNote": 67,
      "noteName": "G4",
      "velocity": 1,
      "duration": "38i"
    },
    {
      "time": "16576i",
      "midiNote": 55,
      "noteName": "G3",
      "velocity": 1,
      "duration": "38i"
    },
    {
      "time": "16576i",
      "midiNote": 50,
      "noteName": "D3",
      "velocity": 1,
      "duration": "38i"
    },
    {
      "time": "16640i",
      "midiNote": 28,
      "noteName": "E1",
      "velocity": 0.7874015748031497,
      "duration": "42i"
    },
    {
      "time": "16640i",
      "midiNote": 40,
      "noteName": "E2",
      "velocity": 0.7874015748031497,
      "duration": "42i"
    },
    {
      "time": "16640i",
      "midiNote": 52,
      "noteName": "E3",
      "velocity": 0.7874015748031497,
      "duration": "42i"
    },
    {
      "time": "16704i",
      "midiNote": 55,
      "noteName": "G3",
      "velocity": 1,
      "duration": "38i"
    },
    {
      "time": "16704i",
      "midiNote": 62,
      "noteName": "D4",
      "velocity": 1,
      "duration": "102i"
    },
    {
      "time": "16704i",
      "midiNote": 67,
      "noteName": "G4",
      "velocity": 1,
      "duration": "38i"
    },
    {
      "time": "16704i",
      "midiNote": 50,
      "noteName": "D3",
      "velocity": 1,
      "duration": "102i"
    },
    {
      "time": "16768i",
      "midiNote": 54,
      "noteName": "F#3",
      "velocity": 1,
      "duration": "38i"
    },
    {
      "time": "16768i",
      "midiNote": 66,
      "noteName": "F#4",
      "velocity": 1,
      "duration": "38i"
    },
    {
      "time": "16832i",
      "midiNote": 52,
      "noteName": "E3",
      "velocity": 1,
      "duration": "38i"
    },
    {
      "time": "16832i",
      "midiNote": 64,
      "noteName": "E4",
      "velocity": 1,
      "duration": "38i"
    },
    {
      "time": "16832i",
      "midiNote": 50,
      "noteName": "D3",
      "velocity": 0.8818897637795275,
      "duration": "38i"
    },
    {
      "time": "16832i",
      "midiNote": 62,
      "noteName": "D4",
      "velocity": 0.8818897637795275,
      "duration": "38i"
    },
    {
      "time": "16896i",
      "midiNote": 52,
      "noteName": "E3",
      "velocity": 1,
      "duration": "42i"
    },
    {
      "time": "16896i",
      "midiNote": 28,
      "noteName": "E1",
      "velocity": 1,
      "duration": "42i"
    },
    {
      "time": "16896i",
      "midiNote": 40,
      "noteName": "E2",
      "velocity": 1,
      "duration": "42i"
    },
    {
      "time": "16960i",
      "midiNote": 47,
      "noteName": "B2",
      "velocity": 1,
      "duration": "38i"
    },
    {
      "time": "16960i",
      "midiNote": 52,
      "noteName": "E3",
      "velocity": 1,
      "duration": "38i"
    },
    {
      "time": "16960i",
      "midiNote": 64,
      "noteName": "E4",
      "velocity": 1,
      "duration": "38i"
    },
    {
      "time": "16960i",
      "midiNote": 59,
      "noteName": "B3",
      "velocity": 1,
      "duration": "38i"
    },
    {
      "time": "17024i",
      "midiNote": 28,
      "noteName": "E1",
      "velocity": 0.7874015748031497,
      "duration": "42i"
    },
    {
      "time": "17024i",
      "midiNote": 40,
      "noteName": "E2",
      "velocity": 0.7874015748031497,
      "duration": "42i"
    },
    {
      "time": "17024i",
      "midiNote": 52,
      "noteName": "E3",
      "velocity": 0.7874015748031497,
      "duration": "42i"
    },
    {
      "time": "17088i",
      "midiNote": 59,
      "noteName": "B3",
      "velocity": 1,
      "duration": "102i"
    },
    {
      "time": "17088i",
      "midiNote": 64,
      "noteName": "E4",
      "velocity": 1,
      "duration": "102i"
    },
    {
      "time": "17088i",
      "midiNote": 52,
      "noteName": "E3",
      "velocity": 1,
      "duration": "102i"
    },
    {
      "time": "17088i",
      "midiNote": 47,
      "noteName": "B2",
      "velocity": 1,
      "duration": "102i"
    },
    {
      "time": "17216i",
      "midiNote": 59,
      "noteName": "B3",
      "velocity": 0.8818897637795275,
      "duration": "38i"
    },
    {
      "time": "17216i",
      "midiNote": 64,
      "noteName": "E4",
      "velocity": 0.8818897637795275,
      "duration": "38i"
    },
    {
      "time": "17216i",
      "midiNote": 52,
      "noteName": "E3",
      "velocity": 0.8818897637795275,
      "duration": "38i"
    },
    {
      "time": "17216i",
      "midiNote": 47,
      "noteName": "B2",
      "velocity": 0.8818897637795275,
      "duration": "38i"
    },
    {
      "time": "17280i",
      "midiNote": 40,
      "noteName": "E2",
      "velocity": 1,
      "duration": "42i"
    },
    {
      "time": "17280i",
      "midiNote": 28,
      "noteName": "E1",
      "velocity": 1,
      "duration": "42i"
    },
    {
      "time": "17280i",
      "midiNote": 52,
      "noteName": "E3",
      "velocity": 1,
      "duration": "42i"
    },
    {
      "time": "17344i",
      "midiNote": 61,
      "noteName": "C#4",
      "velocity": 1,
      "duration": "38i"
    },
    {
      "time": "17344i",
      "midiNote": 67,
      "noteName": "G4",
      "velocity": 1,
      "duration": "38i"
    },
    {
      "time": "17344i",
      "midiNote": 55,
      "noteName": "G3",
      "velocity": 1,
      "duration": "38i"
    },
    {
      "time": "17344i",
      "midiNote": 49,
      "noteName": "C#3",
      "velocity": 1,
      "duration": "38i"
    },
    {
      "time": "17408i",
      "midiNote": 28,
      "noteName": "E1",
      "velocity": 0.7874015748031497,
      "duration": "42i"
    },
    {
      "time": "17408i",
      "midiNote": 40,
      "noteName": "E2",
      "velocity": 0.7874015748031497,
      "duration": "42i"
    },
    {
      "time": "17408i",
      "midiNote": 52,
      "noteName": "E3",
      "velocity": 0.7874015748031497,
      "duration": "42i"
    },
    {
      "time": "17472i",
      "midiNote": 61,
      "noteName": "C#4",
      "velocity": 1,
      "duration": "102i"
    },
    {
      "time": "17472i",
      "midiNote": 67,
      "noteName": "G4",
      "velocity": 1,
      "duration": "102i"
    },
    {
      "time": "17472i",
      "midiNote": 55,
      "noteName": "G3",
      "velocity": 1,
      "duration": "102i"
    },
    {
      "time": "17472i",
      "midiNote": 49,
      "noteName": "C#3",
      "velocity": 1,
      "duration": "102i"
    },
    {
      "time": "17600i",
      "midiNote": 49,
      "noteName": "C#3",
      "velocity": 0.8818897637795275,
      "duration": "38i"
    },
    {
      "time": "17600i",
      "midiNote": 55,
      "noteName": "G3",
      "velocity": 0.8818897637795275,
      "duration": "38i"
    },
    {
      "time": "17600i",
      "midiNote": 67,
      "noteName": "G4",
      "velocity": 0.8818897637795275,
      "duration": "38i"
    },
    {
      "time": "17600i",
      "midiNote": 61,
      "noteName": "C#4",
      "velocity": 0.8818897637795275,
      "duration": "38i"
    },
    {
      "time": "17664i",
      "midiNote": 28,
      "noteName": "E1",
      "velocity": 1,
      "duration": "42i"
    },
    {
      "time": "17664i",
      "midiNote": 52,
      "noteName": "E3",
      "velocity": 1,
      "duration": "42i"
    },
    {
      "time": "17664i",
      "midiNote": 28,
      "noteName": "E1",
      "velocity": 1,
      "duration": "42i"
    },
    {
      "time": "17664i",
      "midiNote": 40,
      "noteName": "E2",
      "velocity": 1,
      "duration": "42i"
    },
    {
      "time": "17728i",
      "midiNote": 28,
      "noteName": "E1",
      "velocity": 0.6850393700787402,
      "duration": "42i"
    },
    {
      "time": "17728i",
      "midiNote": 48,
      "noteName": "C3",
      "velocity": 1,
      "duration": "38i"
    },
    {
      "time": "17728i",
      "midiNote": 57,
      "noteName": "A3",
      "velocity": 1,
      "duration": "38i"
    },
    {
      "time": "17728i",
      "midiNote": 69,
      "noteName": "A4",
      "velocity": 1,
      "duration": "38i"
    },
    {
      "time": "17728i",
      "midiNote": 60,
      "noteName": "C4",
      "velocity": 1,
      "duration": "38i"
    },
    {
      "time": "17792i",
      "midiNote": 28,
      "noteName": "E1",
      "velocity": 0.7874015748031497,
      "duration": "42i"
    },
    {
      "time": "17792i",
      "midiNote": 40,
      "noteName": "E2",
      "velocity": 0.7874015748031497,
      "duration": "42i"
    },
    {
      "time": "17792i",
      "midiNote": 52,
      "noteName": "E3",
      "velocity": 0.7874015748031497,
      "duration": "42i"
    },
    {
      "time": "17792i",
      "midiNote": 28,
      "noteName": "E1",
      "velocity": 0.84251968503937,
      "duration": "42i"
    },
    {
      "time": "17856i",
      "midiNote": 60,
      "noteName": "C4",
      "velocity": 1,
      "duration": "102i"
    },
    {
      "time": "17856i",
      "midiNote": 69,
      "noteName": "A4",
      "velocity": 1,
      "duration": "102i"
    },
    {
      "time": "17856i",
      "midiNote": 57,
      "noteName": "A3",
      "velocity": 1,
      "duration": "102i"
    },
    {
      "time": "17856i",
      "midiNote": 48,
      "noteName": "C3",
      "velocity": 1,
      "duration": "102i"
    },
    {
      "time": "17984i",
      "midiNote": 60,
      "noteName": "C4",
      "velocity": 0.8818897637795275,
      "duration": "38i"
    },
    {
      "time": "17984i",
      "midiNote": 69,
      "noteName": "A4",
      "velocity": 0.8818897637795275,
      "duration": "38i"
    },
    {
      "time": "17984i",
      "midiNote": 57,
      "noteName": "A3",
      "velocity": 0.8818897637795275,
      "duration": "38i"
    },
    {
      "time": "17984i",
      "midiNote": 48,
      "noteName": "C3",
      "velocity": 0.8818897637795275,
      "duration": "38i"
    },
    {
      "time": "18048i",
      "midiNote": 40,
      "noteName": "E2",
      "velocity": 1,
      "duration": "42i"
    },
    {
      "time": "18048i",
      "midiNote": 28,
      "noteName": "E1",
      "velocity": 1,
      "duration": "42i"
    },
    {
      "time": "18048i",
      "midiNote": 52,
      "noteName": "E3",
      "velocity": 1,
      "duration": "42i"
    },
    {
      "time": "18112i",
      "midiNote": 62,
      "noteName": "D4",
      "velocity": 1,
      "duration": "38i"
    },
    {
      "time": "18112i",
      "midiNote": 67,
      "noteName": "G4",
      "velocity": 1,
      "duration": "38i"
    },
    {
      "time": "18112i",
      "midiNote": 55,
      "noteName": "G3",
      "velocity": 1,
      "duration": "38i"
    },
    {
      "time": "18112i",
      "midiNote": 50,
      "noteName": "D3",
      "velocity": 1,
      "duration": "38i"
    },
    {
      "time": "18176i",
      "midiNote": 28,
      "noteName": "E1",
      "velocity": 0.7874015748031497,
      "duration": "42i"
    },
    {
      "time": "18176i",
      "midiNote": 40,
      "noteName": "E2",
      "velocity": 0.7874015748031497,
      "duration": "42i"
    },
    {
      "time": "18176i",
      "midiNote": 52,
      "noteName": "E3",
      "velocity": 0.7874015748031497,
      "duration": "42i"
    },
    {
      "time": "18240i",
      "midiNote": 55,
      "noteName": "G3",
      "velocity": 1,
      "duration": "38i"
    },
    {
      "time": "18240i",
      "midiNote": 62,
      "noteName": "D4",
      "velocity": 1,
      "duration": "102i"
    },
    {
      "time": "18240i",
      "midiNote": 67,
      "noteName": "G4",
      "velocity": 1,
      "duration": "38i"
    },
    {
      "time": "18240i",
      "midiNote": 50,
      "noteName": "D3",
      "velocity": 1,
      "duration": "102i"
    },
    {
      "time": "18304i",
      "midiNote": 54,
      "noteName": "F#3",
      "velocity": 1,
      "duration": "38i"
    },
    {
      "time": "18304i",
      "midiNote": 66,
      "noteName": "F#4",
      "velocity": 1,
      "duration": "38i"
    },
    {
      "time": "18368i",
      "midiNote": 52,
      "noteName": "E3",
      "velocity": 1,
      "duration": "38i"
    },
    {
      "time": "18368i",
      "midiNote": 64,
      "noteName": "E4",
      "velocity": 1,
      "duration": "38i"
    },
    {
      "time": "18368i",
      "midiNote": 50,
      "noteName": "D3",
      "velocity": 0.8818897637795275,
      "duration": "38i"
    },
    {
      "time": "18368i",
      "midiNote": 62,
      "noteName": "D4",
      "velocity": 0.8818897637795275,
      "duration": "38i"
    },
    {
      "time": "18432i",
      "midiNote": 55,
      "noteName": "G3",
      "velocity": 1,
      "duration": "774i"
    },
    {
      "time": "18432i",
      "midiNote": 43,
      "noteName": "G2",
      "velocity": 1,
      "duration": "774i"
    },
    {
      "time": "18432i",
      "midiNote": 31,
      "noteName": "G1",
      "velocity": 1,
      "duration": "774i"
    },
    {
      "time": "18496i",
      "midiNote": 47,
      "noteName": "B2",
      "velocity": 1,
      "duration": "38i"
    },
    {
      "time": "18496i",
      "midiNote": 59,
      "noteName": "B3",
      "velocity": 1,
      "duration": "38i"
    },
    {
      "time": "18560i",
      "midiNote": 61,
      "noteName": "C#4",
      "velocity": 0.8582677165354331,
      "duration": "38i"
    },
    {
      "time": "18560i",
      "midiNote": 49,
      "noteName": "C#3",
      "velocity": 0.8582677165354331,
      "duration": "38i"
    },
    {
      "time": "18624i",
      "midiNote": 62,
      "noteName": "D4",
      "velocity": 0.952755905511811,
      "duration": "230i"
    },
    {
      "time": "18624i",
      "midiNote": 50,
      "noteName": "D3",
      "velocity": 0.952755905511811,
      "duration": "230i"
    },
    {
      "time": "18880i",
      "midiNote": 49,
      "noteName": "C#3",
      "velocity": 0.937007874015748,
      "duration": "38i"
    },
    {
      "time": "18880i",
      "midiNote": 61,
      "noteName": "C#4",
      "velocity": 0.937007874015748,
      "duration": "38i"
    },
    {
      "time": "18944i",
      "midiNote": 50,
      "noteName": "D3",
      "velocity": 0.7795275590551181,
      "duration": "38i"
    },
    {
      "time": "18944i",
      "midiNote": 62,
      "noteName": "D4",
      "velocity": 0.7795275590551181,
      "duration": "38i"
    },
    {
      "time": "19008i",
      "midiNote": 52,
      "noteName": "E3",
      "velocity": 0.8818897637795275,
      "duration": "38i"
    },
    {
      "time": "19008i",
      "midiNote": 64,
      "noteName": "E4",
      "velocity": 0.8818897637795275,
      "duration": "38i"
    },
    {
      "time": "19072i",
      "midiNote": 62,
      "noteName": "D4",
      "velocity": 0.8976377952755905,
      "duration": "38i"
    },
    {
      "time": "19072i",
      "midiNote": 50,
      "noteName": "D3",
      "velocity": 0.8976377952755905,
      "duration": "38i"
    },
    {
      "time": "19136i",
      "midiNote": 49,
      "noteName": "C#3",
      "velocity": 0.7165354330708661,
      "duration": "38i"
    },
    {
      "time": "19136i",
      "midiNote": 61,
      "noteName": "C#4",
      "velocity": 0.7165354330708661,
      "duration": "38i"
    },
    {
      "time": "19200i",
      "midiNote": 33,
      "noteName": "A1",
      "velocity": 1,
      "duration": "774i"
    },
    {
      "time": "19200i",
      "midiNote": 45,
      "noteName": "A2",
      "velocity": 1,
      "duration": "774i"
    },
    {
      "time": "19200i",
      "midiNote": 57,
      "noteName": "A3",
      "velocity": 1,
      "duration": "646i"
    },
    {
      "time": "19264i",
      "midiNote": 61,
      "noteName": "C#4",
      "velocity": 1,
      "duration": "38i"
    },
    {
      "time": "19264i",
      "midiNote": 49,
      "noteName": "C#3",
      "velocity": 1,
      "duration": "38i"
    },
    {
      "time": "19328i",
      "midiNote": 50,
      "noteName": "D3",
      "velocity": 0.8582677165354331,
      "duration": "38i"
    },
    {
      "time": "19328i",
      "midiNote": 62,
      "noteName": "D4",
      "velocity": 0.8582677165354331,
      "duration": "38i"
    },
    {
      "time": "19392i",
      "midiNote": 64,
      "noteName": "E4",
      "velocity": 0.952755905511811,
      "duration": "230i"
    },
    {
      "time": "19392i",
      "midiNote": 52,
      "noteName": "E3",
      "velocity": 0.952755905511811,
      "duration": "230i"
    },
    {
      "time": "19648i",
      "midiNote": 50,
      "noteName": "D3",
      "velocity": 0.8740157480314961,
      "duration": "38i"
    },
    {
      "time": "19648i",
      "midiNote": 62,
      "noteName": "D4",
      "velocity": 0.8740157480314961,
      "duration": "38i"
    },
    {
      "time": "19712i",
      "midiNote": 52,
      "noteName": "E3",
      "velocity": 0.7716535433070866,
      "duration": "38i"
    },
    {
      "time": "19712i",
      "midiNote": 64,
      "noteName": "E4",
      "velocity": 0.7716535433070866,
      "duration": "38i"
    },
    {
      "time": "19776i",
      "midiNote": 54,
      "noteName": "F#3",
      "velocity": 0.8582677165354331,
      "duration": "38i"
    },
    {
      "time": "19776i",
      "midiNote": 66,
      "noteName": "F#4",
      "velocity": 0.8582677165354331,
      "duration": "38i"
    },
    {
      "time": "19840i",
      "midiNote": 55,
      "noteName": "G3",
      "velocity": 0.9133858267716536,
      "duration": "38i"
    },
    {
      "time": "19840i",
      "midiNote": 67,
      "noteName": "G4",
      "velocity": 0.9133858267716536,
      "duration": "38i"
    },
    {
      "time": "19904i",
      "midiNote": 57,
      "noteName": "A3",
      "velocity": 0.9606299212598425,
      "duration": "38i"
    },
    {
      "time": "19904i",
      "midiNote": 69,
      "noteName": "A4",
      "velocity": 0.9606299212598425,
      "duration": "38i"
    },
    {
      "time": "19968i",
      "midiNote": 30,
      "noteName": "F#1",
      "velocity": 1,
      "duration": "774i"
    },
    {
      "time": "19968i",
      "midiNote": 42,
      "noteName": "F#2",
      "velocity": 1,
      "duration": "774i"
    },
    {
      "time": "19968i",
      "midiNote": 59,
      "noteName": "B3",
      "velocity": 1,
      "duration": "774i"
    },
    {
      "time": "19968i",
      "midiNote": 71,
      "noteName": "B4",
      "velocity": 1,
      "duration": "774i"
    },
    {
      "time": "33024i",
      "midiNote": 40,
      "noteName": "E2",
      "velocity": 1,
      "duration": "1526i"
    },
    {
      "time": "33024i",
      "midiNote": 28,
      "noteName": "E1",
      "velocity": 1,
      "duration": "1530i"
    }
  ],
  [
    {
      "time": "3072i",
      "midiNote": 52,
      "noteName": "E3",
      "velocity": 1,
      "duration": "42i"
    },
    {
      "time": "3072i",
      "midiNote": 40,
      "noteName": "E2",
      "velocity": 1,
      "duration": "42i"
    },
    {
      "time": "3072i",
      "midiNote": 28,
      "noteName": "E1",
      "velocity": 1,
      "duration": "42i"
    },
    {
      "time": "3136i",
      "midiNote": 52,
      "noteName": "E3",
      "velocity": 0.6850393700787402,
      "duration": "42i"
    },
    {
      "time": "3136i",
      "midiNote": 28,
      "noteName": "E1",
      "velocity": 0.6850393700787402,
      "duration": "42i"
    },
    {
      "time": "3136i",
      "midiNote": 40,
      "noteName": "E2",
      "velocity": 0.6850393700787402,
      "duration": "42i"
    },
    {
      "time": "3200i",
      "midiNote": 52,
      "noteName": "E3",
      "velocity": 0.84251968503937,
      "duration": "42i"
    },
    {
      "time": "3200i",
      "midiNote": 40,
      "noteName": "E2",
      "velocity": 0.84251968503937,
      "duration": "42i"
    },
    {
      "time": "3200i",
      "midiNote": 28,
      "noteName": "E1",
      "velocity": 0.84251968503937,
      "duration": "42i"
    },
    {
      "time": "3264i",
      "midiNote": 64,
      "noteName": "E4",
      "velocity": 1,
      "duration": "550i"
    },
    {
      "time": "3264i",
      "midiNote": 59,
      "noteName": "B3",
      "velocity": 1,
      "duration": "550i"
    },
    {
      "time": "3264i",
      "midiNote": 47,
      "noteName": "B2",
      "velocity": 1,
      "duration": "550i"
    },
    {
      "time": "3264i",
      "midiNote": 52,
      "noteName": "E3",
      "velocity": 1,
      "duration": "550i"
    },
    {
      "time": "3840i",
      "midiNote": 52,
      "noteName": "E3",
      "velocity": 1,
      "duration": "42i"
    },
    {
      "time": "3840i",
      "midiNote": 40,
      "noteName": "E2",
      "velocity": 1,
      "duration": "42i"
    },
    {
      "time": "3840i",
      "midiNote": 28,
      "noteName": "E1",
      "velocity": 1,
      "duration": "42i"
    },
    {
      "time": "3904i",
      "midiNote": 52,
      "noteName": "E3",
      "velocity": 0.6850393700787402,
      "duration": "42i"
    },
    {
      "time": "3904i",
      "midiNote": 40,
      "noteName": "E2",
      "velocity": 0.6850393700787402,
      "duration": "42i"
    },
    {
      "time": "3904i",
      "midiNote": 28,
      "noteName": "E1",
      "velocity": 0.6850393700787402,
      "duration": "42i"
    },
    {
      "time": "3968i",
      "midiNote": 52,
      "noteName": "E3",
      "velocity": 0.84251968503937,
      "duration": "42i"
    },
    {
      "time": "3968i",
      "midiNote": 28,
      "noteName": "E1",
      "velocity": 0.84251968503937,
      "duration": "42i"
    },
    {
      "time": "3968i",
      "midiNote": 40,
      "noteName": "E2",
      "velocity": 0.84251968503937,
      "duration": "42i"
    },
    {
      "time": "4032i",
      "midiNote": 61,
      "noteName": "C#4",
      "velocity": 1,
      "duration": "550i"
    },
    {
      "time": "4032i",
      "midiNote": 67,
      "noteName": "G4",
      "velocity": 1,
      "duration": "550i"
    },
    {
      "time": "4032i",
      "midiNote": 49,
      "noteName": "C#3",
      "velocity": 1,
      "duration": "550i"
    },
    {
      "time": "4032i",
      "midiNote": 55,
      "noteName": "G3",
      "velocity": 1,
      "duration": "550i"
    },
    {
      "time": "4608i",
      "midiNote": 52,
      "noteName": "E3",
      "velocity": 1,
      "duration": "42i"
    },
    {
      "time": "4608i",
      "midiNote": 28,
      "noteName": "E1",
      "velocity": 1,
      "duration": "42i"
    },
    {
      "time": "4608i",
      "midiNote": 40,
      "noteName": "E2",
      "velocity": 1,
      "duration": "42i"
    },
    {
      "time": "4672i",
      "midiNote": 52,
      "noteName": "E3",
      "velocity": 0.6850393700787402,
      "duration": "42i"
    },
    {
      "time": "4672i",
      "midiNote": 28,
      "noteName": "E1",
      "velocity": 0.6850393700787402,
      "duration": "42i"
    },
    {
      "time": "4672i",
      "midiNote": 40,
      "noteName": "E2",
      "velocity": 0.6850393700787402,
      "duration": "42i"
    },
    {
      "time": "4736i",
      "midiNote": 52,
      "noteName": "E3",
      "velocity": 0.84251968503937,
      "duration": "42i"
    },
    {
      "time": "4736i",
      "midiNote": 40,
      "noteName": "E2",
      "velocity": 0.84251968503937,
      "duration": "42i"
    },
    {
      "time": "4736i",
      "midiNote": 28,
      "noteName": "E1",
      "velocity": 0.84251968503937,
      "duration": "42i"
    },
    {
      "time": "4800i",
      "midiNote": 69,
      "noteName": "A4",
      "velocity": 1,
      "duration": "550i"
    },
    {
      "time": "4800i",
      "midiNote": 60,
      "noteName": "C4",
      "velocity": 1,
      "duration": "550i"
    },
    {
      "time": "4800i",
      "midiNote": 48,
      "noteName": "C3",
      "velocity": 1,
      "duration": "550i"
    },
    {
      "time": "4800i",
      "midiNote": 57,
      "noteName": "A3",
      "velocity": 1,
      "duration": "550i"
    },
    {
      "time": "5376i",
      "midiNote": 52,
      "noteName": "E3",
      "velocity": 1,
      "duration": "42i"
    },
    {
      "time": "5376i",
      "midiNote": 40,
      "noteName": "E2",
      "velocity": 1,
      "duration": "42i"
    },
    {
      "time": "5376i",
      "midiNote": 28,
      "noteName": "E1",
      "velocity": 1,
      "duration": "42i"
    },
    {
      "time": "5440i",
      "midiNote": 52,
      "noteName": "E3",
      "velocity": 0.6850393700787402,
      "duration": "42i"
    },
    {
      "time": "5440i",
      "midiNote": 28,
      "noteName": "E1",
      "velocity": 0.6850393700787402,
      "duration": "42i"
    },
    {
      "time": "5440i",
      "midiNote": 40,
      "noteName": "E2",
      "velocity": 0.6850393700787402,
      "duration": "42i"
    },
    {
      "time": "5504i",
      "midiNote": 52,
      "noteName": "E3",
      "velocity": 0.84251968503937,
      "duration": "42i"
    },
    {
      "time": "5504i",
      "midiNote": 28,
      "noteName": "E1",
      "velocity": 0.84251968503937,
      "duration": "42i"
    },
    {
      "time": "5504i",
      "midiNote": 40,
      "noteName": "E2",
      "velocity": 0.84251968503937,
      "duration": "42i"
    },
    {
      "time": "5568i",
      "midiNote": 62,
      "noteName": "D4",
      "velocity": 1,
      "duration": "550i"
    },
    {
      "time": "5568i",
      "midiNote": 67,
      "noteName": "G4",
      "velocity": 1,
      "duration": "358i"
    },
    {
      "time": "5568i",
      "midiNote": 50,
      "noteName": "D3",
      "velocity": 1,
      "duration": "550i"
    },
    {
      "time": "5568i",
      "midiNote": 55,
      "noteName": "G3",
      "velocity": 1,
      "duration": "358i"
    },
    {
      "time": "5952i",
      "midiNote": 67,
      "noteName": "G4",
      "velocity": 1,
      "duration": "38i"
    },
    {
      "time": "5952i",
      "midiNote": 55,
      "noteName": "G3",
      "velocity": 1,
      "duration": "38i"
    },
    {
      "time": "6016i",
      "midiNote": 66,
      "noteName": "F#4",
      "velocity": 1,
      "duration": "38i"
    },
    {
      "time": "6016i",
      "midiNote": 54,
      "noteName": "F#3",
      "velocity": 1,
      "duration": "38i"
    },
    {
      "time": "6080i",
      "midiNote": 64,
      "noteName": "E4",
      "velocity": 1,
      "duration": "38i"
    },
    {
      "time": "6080i",
      "midiNote": 52,
      "noteName": "E3",
      "velocity": 1,
      "duration": "38i"
    },
    {
      "time": "6144i",
      "midiNote": 52,
      "noteName": "E3",
      "velocity": 1,
      "duration": "42i"
    },
    {
      "time": "6144i",
      "midiNote": 40,
      "noteName": "E2",
      "velocity": 1,
      "duration": "42i"
    },
    {
      "time": "6144i",
      "midiNote": 28,
      "noteName": "E1",
      "velocity": 1,
      "duration": "42i"
    },
    {
      "time": "6208i",
      "midiNote": 52,
      "noteName": "E3",
      "velocity": 0.6850393700787402,
      "duration": "42i"
    },
    {
      "time": "6208i",
      "midiNote": 28,
      "noteName": "E1",
      "velocity": 0.6850393700787402,
      "duration": "42i"
    },
    {
      "time": "6208i",
      "midiNote": 40,
      "noteName": "E2",
      "velocity": 0.6850393700787402,
      "duration": "42i"
    },
    {
      "time": "6272i",
      "midiNote": 52,
      "noteName": "E3",
      "velocity": 0.84251968503937,
      "duration": "42i"
    },
    {
      "time": "6272i",
      "midiNote": 40,
      "noteName": "E2",
      "velocity": 0.84251968503937,
      "duration": "42i"
    },
    {
      "time": "6272i",
      "midiNote": 28,
      "noteName": "E1",
      "velocity": 0.84251968503937,
      "duration": "42i"
    },
    {
      "time": "6336i",
      "midiNote": 64,
      "noteName": "E4",
      "velocity": 1,
      "duration": "550i"
    },
    {
      "time": "6336i",
      "midiNote": 59,
      "noteName": "B3",
      "velocity": 1,
      "duration": "550i"
    },
    {
      "time": "6336i",
      "midiNote": 47,
      "noteName": "B2",
      "velocity": 1,
      "duration": "550i"
    },
    {
      "time": "6336i",
      "midiNote": 52,
      "noteName": "E3",
      "velocity": 1,
      "duration": "550i"
    },
    {
      "time": "6912i",
      "midiNote": 52,
      "noteName": "E3",
      "velocity": 1,
      "duration": "42i"
    },
    {
      "time": "6912i",
      "midiNote": 40,
      "noteName": "E2",
      "velocity": 1,
      "duration": "42i"
    },
    {
      "time": "6912i",
      "midiNote": 28,
      "noteName": "E1",
      "velocity": 1,
      "duration": "42i"
    },
    {
      "time": "6976i",
      "midiNote": 52,
      "noteName": "E3",
      "velocity": 0.6850393700787402,
      "duration": "42i"
    },
    {
      "time": "6976i",
      "midiNote": 40,
      "noteName": "E2",
      "velocity": 0.6850393700787402,
      "duration": "42i"
    },
    {
      "time": "6976i",
      "midiNote": 28,
      "noteName": "E1",
      "velocity": 0.6850393700787402,
      "duration": "42i"
    },
    {
      "time": "7040i",
      "midiNote": 52,
      "noteName": "E3",
      "velocity": 0.84251968503937,
      "duration": "42i"
    },
    {
      "time": "7040i",
      "midiNote": 28,
      "noteName": "E1",
      "velocity": 0.84251968503937,
      "duration": "42i"
    },
    {
      "time": "7040i",
      "midiNote": 40,
      "noteName": "E2",
      "velocity": 0.84251968503937,
      "duration": "42i"
    },
    {
      "time": "7104i",
      "midiNote": 61,
      "noteName": "C#4",
      "velocity": 1,
      "duration": "550i"
    },
    {
      "time": "7104i",
      "midiNote": 67,
      "noteName": "G4",
      "velocity": 1,
      "duration": "550i"
    },
    {
      "time": "7104i",
      "midiNote": 49,
      "noteName": "C#3",
      "velocity": 1,
      "duration": "550i"
    },
    {
      "time": "7104i",
      "midiNote": 55,
      "noteName": "G3",
      "velocity": 1,
      "duration": "550i"
    },
    {
      "time": "7680i",
      "midiNote": 52,
      "noteName": "E3",
      "velocity": 1,
      "duration": "42i"
    },
    {
      "time": "7680i",
      "midiNote": 28,
      "noteName": "E1",
      "velocity": 1,
      "duration": "42i"
    },
    {
      "time": "7680i",
      "midiNote": 40,
      "noteName": "E2",
      "velocity": 1,
      "duration": "42i"
    },
    {
      "time": "7744i",
      "midiNote": 52,
      "noteName": "E3",
      "velocity": 0.6850393700787402,
      "duration": "42i"
    },
    {
      "time": "7744i",
      "midiNote": 28,
      "noteName": "E1",
      "velocity": 0.6850393700787402,
      "duration": "42i"
    },
    {
      "time": "7744i",
      "midiNote": 40,
      "noteName": "E2",
      "velocity": 0.6850393700787402,
      "duration": "42i"
    },
    {
      "time": "7808i",
      "midiNote": 52,
      "noteName": "E3",
      "velocity": 0.84251968503937,
      "duration": "42i"
    },
    {
      "time": "7808i",
      "midiNote": 40,
      "noteName": "E2",
      "velocity": 0.84251968503937,
      "duration": "42i"
    },
    {
      "time": "7808i",
      "midiNote": 28,
      "noteName": "E1",
      "velocity": 0.84251968503937,
      "duration": "42i"
    },
    {
      "time": "7872i",
      "midiNote": 69,
      "noteName": "A4",
      "velocity": 1,
      "duration": "550i"
    },
    {
      "time": "7872i",
      "midiNote": 60,
      "noteName": "C4",
      "velocity": 1,
      "duration": "550i"
    },
    {
      "time": "7872i",
      "midiNote": 48,
      "noteName": "C3",
      "velocity": 1,
      "duration": "550i"
    },
    {
      "time": "7872i",
      "midiNote": 57,
      "noteName": "A3",
      "velocity": 1,
      "duration": "550i"
    },
    {
      "time": "8448i",
      "midiNote": 52,
      "noteName": "E3",
      "velocity": 1,
      "duration": "42i"
    },
    {
      "time": "8448i",
      "midiNote": 40,
      "noteName": "E2",
      "velocity": 1,
      "duration": "42i"
    },
    {
      "time": "8448i",
      "midiNote": 28,
      "noteName": "E1",
      "velocity": 1,
      "duration": "42i"
    },
    {
      "time": "8512i",
      "midiNote": 52,
      "noteName": "E3",
      "velocity": 0.6850393700787402,
      "duration": "42i"
    },
    {
      "time": "8512i",
      "midiNote": 28,
      "noteName": "E1",
      "velocity": 0.6850393700787402,
      "duration": "42i"
    },
    {
      "time": "8512i",
      "midiNote": 40,
      "noteName": "E2",
      "velocity": 0.6850393700787402,
      "duration": "42i"
    },
    {
      "time": "8576i",
      "midiNote": 52,
      "noteName": "E3",
      "velocity": 0.84251968503937,
      "duration": "42i"
    },
    {
      "time": "8576i",
      "midiNote": 28,
      "noteName": "E1",
      "velocity": 0.84251968503937,
      "duration": "42i"
    },
    {
      "time": "8576i",
      "midiNote": 40,
      "noteName": "E2",
      "velocity": 0.84251968503937,
      "duration": "42i"
    },
    {
      "time": "8640i",
      "midiNote": 62,
      "noteName": "D4",
      "velocity": 1,
      "duration": "550i"
    },
    {
      "time": "8640i",
      "midiNote": 67,
      "noteName": "G4",
      "velocity": 1,
      "duration": "358i"
    },
    {
      "time": "8640i",
      "midiNote": 50,
      "noteName": "D3",
      "velocity": 1,
      "duration": "550i"
    },
    {
      "time": "8640i",
      "midiNote": 55,
      "noteName": "G3",
      "velocity": 1,
      "duration": "358i"
    },
    {
      "time": "9024i",
      "midiNote": 67,
      "noteName": "G4",
      "velocity": 1,
      "duration": "38i"
    },
    {
      "time": "9024i",
      "midiNote": 55,
      "noteName": "G3",
      "velocity": 1,
      "duration": "38i"
    },
    {
      "time": "9088i",
      "midiNote": 66,
      "noteName": "F#4",
      "velocity": 1,
      "duration": "38i"
    },
    {
      "time": "9088i",
      "midiNote": 54,
      "noteName": "F#3",
      "velocity": 1,
      "duration": "38i"
    },
    {
      "time": "9152i",
      "midiNote": 64,
      "noteName": "E4",
      "velocity": 1,
      "duration": "38i"
    },
    {
      "time": "9152i",
      "midiNote": 52,
      "noteName": "E3",
      "velocity": 1,
      "duration": "38i"
    },
    {
      "time": "9216i",
      "midiNote": 52,
      "noteName": "E3",
      "velocity": 1,
      "duration": "42i"
    },
    {
      "time": "9216i",
      "midiNote": 40,
      "noteName": "E2",
      "velocity": 1,
      "duration": "42i"
    },
    {
      "time": "9216i",
      "midiNote": 28,
      "noteName": "E1",
      "velocity": 1,
      "duration": "42i"
    },
    {
      "time": "9280i",
      "midiNote": 52,
      "noteName": "E3",
      "velocity": 0.6850393700787402,
      "duration": "42i"
    },
    {
      "time": "9280i",
      "midiNote": 28,
      "noteName": "E1",
      "velocity": 0.6850393700787402,
      "duration": "42i"
    },
    {
      "time": "9280i",
      "midiNote": 40,
      "noteName": "E2",
      "velocity": 0.6850393700787402,
      "duration": "42i"
    },
    {
      "time": "9344i",
      "midiNote": 52,
      "noteName": "E3",
      "velocity": 0.84251968503937,
      "duration": "42i"
    },
    {
      "time": "9344i",
      "midiNote": 40,
      "noteName": "E2",
      "velocity": 0.84251968503937,
      "duration": "42i"
    },
    {
      "time": "9344i",
      "midiNote": 28,
      "noteName": "E1",
      "velocity": 0.84251968503937,
      "duration": "42i"
    },
    {
      "time": "9408i",
      "midiNote": 64,
      "noteName": "E4",
      "velocity": 1,
      "duration": "550i"
    },
    {
      "time": "9408i",
      "midiNote": 59,
      "noteName": "B3",
      "velocity": 1,
      "duration": "550i"
    },
    {
      "time": "9408i",
      "midiNote": 47,
      "noteName": "B2",
      "velocity": 1,
      "duration": "550i"
    },
    {
      "time": "9408i",
      "midiNote": 52,
      "noteName": "E3",
      "velocity": 1,
      "duration": "550i"
    },
    {
      "time": "9984i",
      "midiNote": 52,
      "noteName": "E3",
      "velocity": 1,
      "duration": "42i"
    },
    {
      "time": "9984i",
      "midiNote": 40,
      "noteName": "E2",
      "velocity": 1,
      "duration": "42i"
    },
    {
      "time": "9984i",
      "midiNote": 28,
      "noteName": "E1",
      "velocity": 1,
      "duration": "42i"
    },
    {
      "time": "10048i",
      "midiNote": 52,
      "noteName": "E3",
      "velocity": 0.6850393700787402,
      "duration": "42i"
    },
    {
      "time": "10048i",
      "midiNote": 40,
      "noteName": "E2",
      "velocity": 0.6850393700787402,
      "duration": "42i"
    },
    {
      "time": "10048i",
      "midiNote": 28,
      "noteName": "E1",
      "velocity": 0.6850393700787402,
      "duration": "42i"
    },
    {
      "time": "10112i",
      "midiNote": 52,
      "noteName": "E3",
      "velocity": 0.84251968503937,
      "duration": "42i"
    },
    {
      "time": "10112i",
      "midiNote": 28,
      "noteName": "E1",
      "velocity": 0.84251968503937,
      "duration": "42i"
    },
    {
      "time": "10112i",
      "midiNote": 40,
      "noteName": "E2",
      "velocity": 0.84251968503937,
      "duration": "42i"
    },
    {
      "time": "10176i",
      "midiNote": 61,
      "noteName": "C#4",
      "velocity": 1,
      "duration": "550i"
    },
    {
      "time": "10176i",
      "midiNote": 67,
      "noteName": "G4",
      "velocity": 1,
      "duration": "550i"
    },
    {
      "time": "10176i",
      "midiNote": 49,
      "noteName": "C#3",
      "velocity": 1,
      "duration": "550i"
    },
    {
      "time": "10176i",
      "midiNote": 55,
      "noteName": "G3",
      "velocity": 1,
      "duration": "550i"
    },
    {
      "time": "10752i",
      "midiNote": 52,
      "noteName": "E3",
      "velocity": 1,
      "duration": "42i"
    },
    {
      "time": "10752i",
      "midiNote": 28,
      "noteName": "E1",
      "velocity": 1,
      "duration": "42i"
    },
    {
      "time": "10752i",
      "midiNote": 40,
      "noteName": "E2",
      "velocity": 1,
      "duration": "42i"
    },
    {
      "time": "10816i",
      "midiNote": 52,
      "noteName": "E3",
      "velocity": 0.6850393700787402,
      "duration": "42i"
    },
    {
      "time": "10816i",
      "midiNote": 28,
      "noteName": "E1",
      "velocity": 0.6850393700787402,
      "duration": "42i"
    },
    {
      "time": "10816i",
      "midiNote": 40,
      "noteName": "E2",
      "velocity": 0.6850393700787402,
      "duration": "42i"
    },
    {
      "time": "10880i",
      "midiNote": 52,
      "noteName": "E3",
      "velocity": 0.84251968503937,
      "duration": "42i"
    },
    {
      "time": "10880i",
      "midiNote": 40,
      "noteName": "E2",
      "velocity": 0.84251968503937,
      "duration": "42i"
    },
    {
      "time": "10880i",
      "midiNote": 28,
      "noteName": "E1",
      "velocity": 0.84251968503937,
      "duration": "42i"
    },
    {
      "time": "10944i",
      "midiNote": 69,
      "noteName": "A4",
      "velocity": 1,
      "duration": "550i"
    },
    {
      "time": "10944i",
      "midiNote": 60,
      "noteName": "C4",
      "velocity": 1,
      "duration": "550i"
    },
    {
      "time": "10944i",
      "midiNote": 48,
      "noteName": "C3",
      "velocity": 1,
      "duration": "550i"
    },
    {
      "time": "10944i",
      "midiNote": 57,
      "noteName": "A3",
      "velocity": 1,
      "duration": "550i"
    },
    {
      "time": "11520i",
      "midiNote": 52,
      "noteName": "E3",
      "velocity": 1,
      "duration": "42i"
    },
    {
      "time": "11520i",
      "midiNote": 40,
      "noteName": "E2",
      "velocity": 1,
      "duration": "42i"
    },
    {
      "time": "11520i",
      "midiNote": 28,
      "noteName": "E1",
      "velocity": 1,
      "duration": "42i"
    },
    {
      "time": "11584i",
      "midiNote": 52,
      "noteName": "E3",
      "velocity": 0.6850393700787402,
      "duration": "42i"
    },
    {
      "time": "11584i",
      "midiNote": 28,
      "noteName": "E1",
      "velocity": 0.6850393700787402,
      "duration": "42i"
    },
    {
      "time": "11584i",
      "midiNote": 40,
      "noteName": "E2",
      "velocity": 0.6850393700787402,
      "duration": "42i"
    },
    {
      "time": "11648i",
      "midiNote": 52,
      "noteName": "E3",
      "velocity": 0.84251968503937,
      "duration": "42i"
    },
    {
      "time": "11648i",
      "midiNote": 28,
      "noteName": "E1",
      "velocity": 0.84251968503937,
      "duration": "42i"
    },
    {
      "time": "11648i",
      "midiNote": 40,
      "noteName": "E2",
      "velocity": 0.84251968503937,
      "duration": "42i"
    },
    {
      "time": "11712i",
      "midiNote": 62,
      "noteName": "D4",
      "velocity": 1,
      "duration": "550i"
    },
    {
      "time": "11712i",
      "midiNote": 67,
      "noteName": "G4",
      "velocity": 1,
      "duration": "358i"
    },
    {
      "time": "11712i",
      "midiNote": 50,
      "noteName": "D3",
      "velocity": 1,
      "duration": "550i"
    },
    {
      "time": "11712i",
      "midiNote": 55,
      "noteName": "G3",
      "velocity": 1,
      "duration": "358i"
    },
    {
      "time": "12096i",
      "midiNote": 67,
      "noteName": "G4",
      "velocity": 1,
      "duration": "38i"
    },
    {
      "time": "12096i",
      "midiNote": 55,
      "noteName": "G3",
      "velocity": 1,
      "duration": "38i"
    },
    {
      "time": "12160i",
      "midiNote": 66,
      "noteName": "F#4",
      "velocity": 1,
      "duration": "38i"
    },
    {
      "time": "12160i",
      "midiNote": 54,
      "noteName": "F#3",
      "velocity": 1,
      "duration": "38i"
    },
    {
      "time": "12224i",
      "midiNote": 64,
      "noteName": "E4",
      "velocity": 1,
      "duration": "38i"
    },
    {
      "time": "12224i",
      "midiNote": 52,
      "noteName": "E3",
      "velocity": 1,
      "duration": "38i"
    },
    {
      "time": "12288i",
      "midiNote": 52,
      "noteName": "E3",
      "velocity": 1,
      "duration": "42i"
    },
    {
      "time": "12288i",
      "midiNote": 40,
      "noteName": "E2",
      "velocity": 1,
      "duration": "42i"
    },
    {
      "time": "12288i",
      "midiNote": 28,
      "noteName": "E1",
      "velocity": 1,
      "duration": "42i"
    },
    {
      "time": "12352i",
      "midiNote": 52,
      "noteName": "E3",
      "velocity": 0.6850393700787402,
      "duration": "42i"
    },
    {
      "time": "12352i",
      "midiNote": 28,
      "noteName": "E1",
      "velocity": 0.6850393700787402,
      "duration": "42i"
    },
    {
      "time": "12352i",
      "midiNote": 40,
      "noteName": "E2",
      "velocity": 0.6850393700787402,
      "duration": "42i"
    },
    {
      "time": "12416i",
      "midiNote": 52,
      "noteName": "E3",
      "velocity": 0.84251968503937,
      "duration": "42i"
    },
    {
      "time": "12416i",
      "midiNote": 40,
      "noteName": "E2",
      "velocity": 0.84251968503937,
      "duration": "42i"
    },
    {
      "time": "12416i",
      "midiNote": 28,
      "noteName": "E1",
      "velocity": 0.84251968503937,
      "duration": "42i"
    },
    {
      "time": "12480i",
      "midiNote": 64,
      "noteName": "E4",
      "velocity": 1,
      "duration": "550i"
    },
    {
      "time": "12480i",
      "midiNote": 59,
      "noteName": "B3",
      "velocity": 1,
      "duration": "550i"
    },
    {
      "time": "12480i",
      "midiNote": 47,
      "noteName": "B2",
      "velocity": 1,
      "duration": "550i"
    },
    {
      "time": "12480i",
      "midiNote": 52,
      "noteName": "E3",
      "velocity": 1,
      "duration": "550i"
    },
    {
      "time": "13056i",
      "midiNote": 52,
      "noteName": "E3",
      "velocity": 1,
      "duration": "42i"
    },
    {
      "time": "13056i",
      "midiNote": 40,
      "noteName": "E2",
      "velocity": 1,
      "duration": "42i"
    },
    {
      "time": "13056i",
      "midiNote": 28,
      "noteName": "E1",
      "velocity": 1,
      "duration": "42i"
    },
    {
      "time": "13120i",
      "midiNote": 52,
      "noteName": "E3",
      "velocity": 0.6850393700787402,
      "duration": "42i"
    },
    {
      "time": "13120i",
      "midiNote": 40,
      "noteName": "E2",
      "velocity": 0.6850393700787402,
      "duration": "42i"
    },
    {
      "time": "13120i",
      "midiNote": 28,
      "noteName": "E1",
      "velocity": 0.6850393700787402,
      "duration": "42i"
    },
    {
      "time": "13184i",
      "midiNote": 52,
      "noteName": "E3",
      "velocity": 0.84251968503937,
      "duration": "42i"
    },
    {
      "time": "13184i",
      "midiNote": 28,
      "noteName": "E1",
      "velocity": 0.84251968503937,
      "duration": "42i"
    },
    {
      "time": "13184i",
      "midiNote": 40,
      "noteName": "E2",
      "velocity": 0.84251968503937,
      "duration": "42i"
    },
    {
      "time": "13248i",
      "midiNote": 61,
      "noteName": "C#4",
      "velocity": 1,
      "duration": "550i"
    },
    {
      "time": "13248i",
      "midiNote": 67,
      "noteName": "G4",
      "velocity": 1,
      "duration": "550i"
    },
    {
      "time": "13248i",
      "midiNote": 49,
      "noteName": "C#3",
      "velocity": 1,
      "duration": "550i"
    },
    {
      "time": "13248i",
      "midiNote": 55,
      "noteName": "G3",
      "velocity": 1,
      "duration": "550i"
    },
    {
      "time": "13824i",
      "midiNote": 52,
      "noteName": "E3",
      "velocity": 1,
      "duration": "42i"
    },
    {
      "time": "13824i",
      "midiNote": 28,
      "noteName": "E1",
      "velocity": 1,
      "duration": "42i"
    },
    {
      "time": "13824i",
      "midiNote": 40,
      "noteName": "E2",
      "velocity": 1,
      "duration": "42i"
    },
    {
      "time": "13888i",
      "midiNote": 52,
      "noteName": "E3",
      "velocity": 0.6850393700787402,
      "duration": "42i"
    },
    {
      "time": "13888i",
      "midiNote": 28,
      "noteName": "E1",
      "velocity": 0.6850393700787402,
      "duration": "42i"
    },
    {
      "time": "13888i",
      "midiNote": 40,
      "noteName": "E2",
      "velocity": 0.6850393700787402,
      "duration": "42i"
    },
    {
      "time": "13952i",
      "midiNote": 52,
      "noteName": "E3",
      "velocity": 0.84251968503937,
      "duration": "42i"
    },
    {
      "time": "13952i",
      "midiNote": 40,
      "noteName": "E2",
      "velocity": 0.84251968503937,
      "duration": "42i"
    },
    {
      "time": "13952i",
      "midiNote": 28,
      "noteName": "E1",
      "velocity": 0.84251968503937,
      "duration": "42i"
    },
    {
      "time": "14016i",
      "midiNote": 69,
      "noteName": "A4",
      "velocity": 1,
      "duration": "550i"
    },
    {
      "time": "14016i",
      "midiNote": 60,
      "noteName": "C4",
      "velocity": 1,
      "duration": "550i"
    },
    {
      "time": "14016i",
      "midiNote": 48,
      "noteName": "C3",
      "velocity": 1,
      "duration": "550i"
    },
    {
      "time": "14016i",
      "midiNote": 57,
      "noteName": "A3",
      "velocity": 1,
      "duration": "550i"
    },
    {
      "time": "14592i",
      "midiNote": 52,
      "noteName": "E3",
      "velocity": 1,
      "duration": "42i"
    },
    {
      "time": "14592i",
      "midiNote": 40,
      "noteName": "E2",
      "velocity": 1,
      "duration": "42i"
    },
    {
      "time": "14592i",
      "midiNote": 28,
      "noteName": "E1",
      "velocity": 1,
      "duration": "42i"
    },
    {
      "time": "14656i",
      "midiNote": 52,
      "noteName": "E3",
      "velocity": 0.6850393700787402,
      "duration": "42i"
    },
    {
      "time": "14656i",
      "midiNote": 28,
      "noteName": "E1",
      "velocity": 0.6850393700787402,
      "duration": "42i"
    },
    {
      "time": "14656i",
      "midiNote": 40,
      "noteName": "E2",
      "velocity": 0.6850393700787402,
      "duration": "42i"
    },
    {
      "time": "14720i",
      "midiNote": 52,
      "noteName": "E3",
      "velocity": 0.84251968503937,
      "duration": "42i"
    },
    {
      "time": "14720i",
      "midiNote": 28,
      "noteName": "E1",
      "velocity": 0.84251968503937,
      "duration": "42i"
    },
    {
      "time": "14720i",
      "midiNote": 40,
      "noteName": "E2",
      "velocity": 0.84251968503937,
      "duration": "42i"
    },
    {
      "time": "14784i",
      "midiNote": 62,
      "noteName": "D4",
      "velocity": 1,
      "duration": "550i"
    },
    {
      "time": "14784i",
      "midiNote": 67,
      "noteName": "G4",
      "velocity": 1,
      "duration": "358i"
    },
    {
      "time": "14784i",
      "midiNote": 50,
      "noteName": "D3",
      "velocity": 1,
      "duration": "550i"
    },
    {
      "time": "14784i",
      "midiNote": 55,
      "noteName": "G3",
      "velocity": 1,
      "duration": "358i"
    },
    {
      "time": "15168i",
      "midiNote": 67,
      "noteName": "G4",
      "velocity": 1,
      "duration": "38i"
    },
    {
      "time": "15168i",
      "midiNote": 55,
      "noteName": "G3",
      "velocity": 1,
      "duration": "38i"
    },
    {
      "time": "15232i",
      "midiNote": 66,
      "noteName": "F#4",
      "velocity": 1,
      "duration": "38i"
    },
    {
      "time": "15232i",
      "midiNote": 54,
      "noteName": "F#3",
      "velocity": 1,
      "duration": "38i"
    },
    {
      "time": "15296i",
      "midiNote": 64,
      "noteName": "E4",
      "velocity": 1,
      "duration": "38i"
    },
    {
      "time": "15296i",
      "midiNote": 52,
      "noteName": "E3",
      "velocity": 1,
      "duration": "38i"
    },
    {
      "time": "15360i",
      "midiNote": 52,
      "noteName": "E3",
      "velocity": 1,
      "duration": "42i"
    },
    {
      "time": "15360i",
      "midiNote": 28,
      "noteName": "E1",
      "velocity": 1,
      "duration": "42i"
    },
    {
      "time": "15360i",
      "midiNote": 40,
      "noteName": "E2",
      "velocity": 1,
      "duration": "42i"
    },
    {
      "time": "15424i",
      "midiNote": 47,
      "noteName": "B2",
      "velocity": 1,
      "duration": "38i"
    },
    {
      "time": "15424i",
      "midiNote": 52,
      "noteName": "E3",
      "velocity": 1,
      "duration": "38i"
    },
    {
      "time": "15424i",
      "midiNote": 64,
      "noteName": "E4",
      "velocity": 1,
      "duration": "38i"
    },
    {
      "time": "15424i",
      "midiNote": 59,
      "noteName": "B3",
      "velocity": 1,
      "duration": "38i"
    },
    {
      "time": "15488i",
      "midiNote": 28,
      "noteName": "E1",
      "velocity": 0.7874015748031497,
      "duration": "42i"
    },
    {
      "time": "15488i",
      "midiNote": 40,
      "noteName": "E2",
      "velocity": 0.7874015748031497,
      "duration": "42i"
    },
    {
      "time": "15488i",
      "midiNote": 52,
      "noteName": "E3",
      "velocity": 0.7874015748031497,
      "duration": "42i"
    },
    {
      "time": "15552i",
      "midiNote": 59,
      "noteName": "B3",
      "velocity": 1,
      "duration": "102i"
    },
    {
      "time": "15552i",
      "midiNote": 64,
      "noteName": "E4",
      "velocity": 1,
      "duration": "102i"
    },
    {
      "time": "15552i",
      "midiNote": 52,
      "noteName": "E3",
      "velocity": 1,
      "duration": "102i"
    },
    {
      "time": "15552i",
      "midiNote": 47,
      "noteName": "B2",
      "velocity": 1,
      "duration": "102i"
    },
    {
      "time": "15680i",
      "midiNote": 59,
      "noteName": "B3",
      "velocity": 0.8818897637795275,
      "duration": "38i"
    },
    {
      "time": "15680i",
      "midiNote": 64,
      "noteName": "E4",
      "velocity": 0.8818897637795275,
      "duration": "38i"
    },
    {
      "time": "15680i",
      "midiNote": 52,
      "noteName": "E3",
      "velocity": 0.8818897637795275,
      "duration": "38i"
    },
    {
      "time": "15680i",
      "midiNote": 47,
      "noteName": "B2",
      "velocity": 0.8818897637795275,
      "duration": "38i"
    },
    {
      "time": "15744i",
      "midiNote": 40,
      "noteName": "E2",
      "velocity": 1,
      "duration": "42i"
    },
    {
      "time": "15744i",
      "midiNote": 28,
      "noteName": "E1",
      "velocity": 1,
      "duration": "42i"
    },
    {
      "time": "15744i",
      "midiNote": 52,
      "noteName": "E3",
      "velocity": 1,
      "duration": "42i"
    },
    {
      "time": "15808i",
      "midiNote": 61,
      "noteName": "C#4",
      "velocity": 1,
      "duration": "38i"
    },
    {
      "time": "15808i",
      "midiNote": 67,
      "noteName": "G4",
      "velocity": 1,
      "duration": "38i"
    },
    {
      "time": "15808i",
      "midiNote": 55,
      "noteName": "G3",
      "velocity": 1,
      "duration": "38i"
    },
    {
      "time": "15808i",
      "midiNote": 49,
      "noteName": "C#3",
      "velocity": 1,
      "duration": "38i"
    },
    {
      "time": "15872i",
      "midiNote": 28,
      "noteName": "E1",
      "velocity": 0.7874015748031497,
      "duration": "42i"
    },
    {
      "time": "15872i",
      "midiNote": 40,
      "noteName": "E2",
      "velocity": 0.7874015748031497,
      "duration": "42i"
    },
    {
      "time": "15872i",
      "midiNote": 52,
      "noteName": "E3",
      "velocity": 0.7874015748031497,
      "duration": "42i"
    },
    {
      "time": "15936i",
      "midiNote": 61,
      "noteName": "C#4",
      "velocity": 1,
      "duration": "102i"
    },
    {
      "time": "15936i",
      "midiNote": 67,
      "noteName": "G4",
      "velocity": 1,
      "duration": "102i"
    },
    {
      "time": "15936i",
      "midiNote": 55,
      "noteName": "G3",
      "velocity": 1,
      "duration": "102i"
    },
    {
      "time": "15936i",
      "midiNote": 49,
      "noteName": "C#3",
      "velocity": 1,
      "duration": "102i"
    },
    {
      "time": "16064i",
      "midiNote": 49,
      "noteName": "C#3",
      "velocity": 0.8818897637795275,
      "duration": "38i"
    },
    {
      "time": "16064i",
      "midiNote": 55,
      "noteName": "G3",
      "velocity": 0.8818897637795275,
      "duration": "38i"
    },
    {
      "time": "16064i",
      "midiNote": 67,
      "noteName": "G4",
      "velocity": 0.8818897637795275,
      "duration": "38i"
    },
    {
      "time": "16064i",
      "midiNote": 61,
      "noteName": "C#4",
      "velocity": 0.8818897637795275,
      "duration": "38i"
    },
    {
      "time": "16128i",
      "midiNote": 28,
      "noteName": "E1",
      "velocity": 1,
      "duration": "42i"
    },
    {
      "time": "16128i",
      "midiNote": 52,
      "noteName": "E3",
      "velocity": 1,
      "duration": "42i"
    },
    {
      "time": "16128i",
      "midiNote": 28,
      "noteName": "E1",
      "velocity": 1,
      "duration": "42i"
    },
    {
      "time": "16128i",
      "midiNote": 40,
      "noteName": "E2",
      "velocity": 1,
      "duration": "42i"
    },
    {
      "time": "16192i",
      "midiNote": 28,
      "noteName": "E1",
      "velocity": 0.6850393700787402,
      "duration": "42i"
    },
    {
      "time": "16192i",
      "midiNote": 48,
      "noteName": "C3",
      "velocity": 1,
      "duration": "38i"
    },
    {
      "time": "16192i",
      "midiNote": 57,
      "noteName": "A3",
      "velocity": 1,
      "duration": "38i"
    },
    {
      "time": "16192i",
      "midiNote": 69,
      "noteName": "A4",
      "velocity": 1,
      "duration": "38i"
    },
    {
      "time": "16192i",
      "midiNote": 60,
      "noteName": "C4",
      "velocity": 1,
      "duration": "38i"
    },
    {
      "time": "16256i",
      "midiNote": 28,
      "noteName": "E1",
      "velocity": 0.7874015748031497,
      "duration": "42i"
    },
    {
      "time": "16256i",
      "midiNote": 40,
      "noteName": "E2",
      "velocity": 0.7874015748031497,
      "duration": "42i"
    },
    {
      "time": "16256i",
      "midiNote": 52,
      "noteName": "E3",
      "velocity": 0.7874015748031497,
      "duration": "42i"
    },
    {
      "time": "16256i",
      "midiNote": 28,
      "noteName": "E1",
      "velocity": 0.84251968503937,
      "duration": "42i"
    },
    {
      "time": "16320i",
      "midiNote": 60,
      "noteName": "C4",
      "velocity": 1,
      "duration": "102i"
    },
    {
      "time": "16320i",
      "midiNote": 69,
      "noteName": "A4",
      "velocity": 1,
      "duration": "102i"
    },
    {
      "time": "16320i",
      "midiNote": 57,
      "noteName": "A3",
      "velocity": 1,
      "duration": "102i"
    },
    {
      "time": "16320i",
      "midiNote": 48,
      "noteName": "C3",
      "velocity": 1,
      "duration": "102i"
    },
    {
      "time": "16448i",
      "midiNote": 60,
      "noteName": "C4",
      "velocity": 0.8818897637795275,
      "duration": "38i"
    },
    {
      "time": "16448i",
      "midiNote": 69,
      "noteName": "A4",
      "velocity": 0.8818897637795275,
      "duration": "38i"
    },
    {
      "time": "16448i",
      "midiNote": 57,
      "noteName": "A3",
      "velocity": 0.8818897637795275,
      "duration": "38i"
    },
    {
      "time": "16448i",
      "midiNote": 48,
      "noteName": "C3",
      "velocity": 0.8818897637795275,
      "duration": "38i"
    },
    {
      "time": "16512i",
      "midiNote": 40,
      "noteName": "E2",
      "velocity": 1,
      "duration": "42i"
    },
    {
      "time": "16512i",
      "midiNote": 28,
      "noteName": "E1",
      "velocity": 1,
      "duration": "42i"
    },
    {
      "time": "16512i",
      "midiNote": 52,
      "noteName": "E3",
      "velocity": 1,
      "duration": "42i"
    },
    {
      "time": "16576i",
      "midiNote": 62,
      "noteName": "D4",
      "velocity": 1,
      "duration": "38i"
    },
    {
      "time": "16576i",
      "midiNote": 67,
      "noteName": "G4",
      "velocity": 1,
      "duration": "38i"
    },
    {
      "time": "16576i",
      "midiNote": 55,
      "noteName": "G3",
      "velocity": 1,
      "duration": "38i"
    },
    {
      "time": "16576i",
      "midiNote": 50,
      "noteName": "D3",
      "velocity": 1,
      "duration": "38i"
    },
    {
      "time": "16640i",
      "midiNote": 28,
      "noteName": "E1",
      "velocity": 0.7874015748031497,
      "duration": "42i"
    },
    {
      "time": "16640i",
      "midiNote": 40,
      "noteName": "E2",
      "velocity": 0.7874015748031497,
      "duration": "42i"
    },
    {
      "time": "16640i",
      "midiNote": 52,
      "noteName": "E3",
      "velocity": 0.7874015748031497,
      "duration": "42i"
    },
    {
      "time": "16704i",
      "midiNote": 55,
      "noteName": "G3",
      "velocity": 1,
      "duration": "38i"
    },
    {
      "time": "16704i",
      "midiNote": 62,
      "noteName": "D4",
      "velocity": 1,
      "duration": "102i"
    },
    {
      "time": "16704i",
      "midiNote": 67,
      "noteName": "G4",
      "velocity": 1,
      "duration": "38i"
    },
    {
      "time": "16704i",
      "midiNote": 50,
      "noteName": "D3",
      "velocity": 1,
      "duration": "102i"
    },
    {
      "time": "16768i",
      "midiNote": 54,
      "noteName": "F#3",
      "velocity": 1,
      "duration": "38i"
    },
    {
      "time": "16768i",
      "midiNote": 66,
      "noteName": "F#4",
      "velocity": 1,
      "duration": "38i"
    },
    {
      "time": "16832i",
      "midiNote": 52,
      "noteName": "E3",
      "velocity": 1,
      "duration": "38i"
    },
    {
      "time": "16832i",
      "midiNote": 64,
      "noteName": "E4",
      "velocity": 1,
      "duration": "38i"
    },
    {
      "time": "16832i",
      "midiNote": 50,
      "noteName": "D3",
      "velocity": 0.8818897637795275,
      "duration": "38i"
    },
    {
      "time": "16832i",
      "midiNote": 62,
      "noteName": "D4",
      "velocity": 0.8818897637795275,
      "duration": "38i"
    },
    {
      "time": "16896i",
      "midiNote": 52,
      "noteName": "E3",
      "velocity": 1,
      "duration": "42i"
    },
    {
      "time": "16896i",
      "midiNote": 28,
      "noteName": "E1",
      "velocity": 1,
      "duration": "42i"
    },
    {
      "time": "16896i",
      "midiNote": 40,
      "noteName": "E2",
      "velocity": 1,
      "duration": "42i"
    },
    {
      "time": "16960i",
      "midiNote": 47,
      "noteName": "B2",
      "velocity": 1,
      "duration": "38i"
    },
    {
      "time": "16960i",
      "midiNote": 52,
      "noteName": "E3",
      "velocity": 1,
      "duration": "38i"
    },
    {
      "time": "16960i",
      "midiNote": 64,
      "noteName": "E4",
      "velocity": 1,
      "duration": "38i"
    },
    {
      "time": "16960i",
      "midiNote": 59,
      "noteName": "B3",
      "velocity": 1,
      "duration": "38i"
    },
    {
      "time": "17024i",
      "midiNote": 28,
      "noteName": "E1",
      "velocity": 0.7874015748031497,
      "duration": "42i"
    },
    {
      "time": "17024i",
      "midiNote": 40,
      "noteName": "E2",
      "velocity": 0.7874015748031497,
      "duration": "42i"
    },
    {
      "time": "17024i",
      "midiNote": 52,
      "noteName": "E3",
      "velocity": 0.7874015748031497,
      "duration": "42i"
    },
    {
      "time": "17088i",
      "midiNote": 59,
      "noteName": "B3",
      "velocity": 1,
      "duration": "102i"
    },
    {
      "time": "17088i",
      "midiNote": 64,
      "noteName": "E4",
      "velocity": 1,
      "duration": "102i"
    },
    {
      "time": "17088i",
      "midiNote": 52,
      "noteName": "E3",
      "velocity": 1,
      "duration": "102i"
    },
    {
      "time": "17088i",
      "midiNote": 47,
      "noteName": "B2",
      "velocity": 1,
      "duration": "102i"
    },
    {
      "time": "17216i",
      "midiNote": 59,
      "noteName": "B3",
      "velocity": 0.8818897637795275,
      "duration": "38i"
    },
    {
      "time": "17216i",
      "midiNote": 64,
      "noteName": "E4",
      "velocity": 0.8818897637795275,
      "duration": "38i"
    },
    {
      "time": "17216i",
      "midiNote": 52,
      "noteName": "E3",
      "velocity": 0.8818897637795275,
      "duration": "38i"
    },
    {
      "time": "17216i",
      "midiNote": 47,
      "noteName": "B2",
      "velocity": 0.8818897637795275,
      "duration": "38i"
    },
    {
      "time": "17280i",
      "midiNote": 40,
      "noteName": "E2",
      "velocity": 1,
      "duration": "42i"
    },
    {
      "time": "17280i",
      "midiNote": 28,
      "noteName": "E1",
      "velocity": 1,
      "duration": "42i"
    },
    {
      "time": "17280i",
      "midiNote": 52,
      "noteName": "E3",
      "velocity": 1,
      "duration": "42i"
    },
    {
      "time": "17344i",
      "midiNote": 61,
      "noteName": "C#4",
      "velocity": 1,
      "duration": "38i"
    },
    {
      "time": "17344i",
      "midiNote": 67,
      "noteName": "G4",
      "velocity": 1,
      "duration": "38i"
    },
    {
      "time": "17344i",
      "midiNote": 55,
      "noteName": "G3",
      "velocity": 1,
      "duration": "38i"
    },
    {
      "time": "17344i",
      "midiNote": 49,
      "noteName": "C#3",
      "velocity": 1,
      "duration": "38i"
    },
    {
      "time": "17408i",
      "midiNote": 28,
      "noteName": "E1",
      "velocity": 0.7874015748031497,
      "duration": "42i"
    },
    {
      "time": "17408i",
      "midiNote": 40,
      "noteName": "E2",
      "velocity": 0.7874015748031497,
      "duration": "42i"
    },
    {
      "time": "17408i",
      "midiNote": 52,
      "noteName": "E3",
      "velocity": 0.7874015748031497,
      "duration": "42i"
    },
    {
      "time": "17472i",
      "midiNote": 61,
      "noteName": "C#4",
      "velocity": 1,
      "duration": "102i"
    },
    {
      "time": "17472i",
      "midiNote": 67,
      "noteName": "G4",
      "velocity": 1,
      "duration": "102i"
    },
    {
      "time": "17472i",
      "midiNote": 55,
      "noteName": "G3",
      "velocity": 1,
      "duration": "102i"
    },
    {
      "time": "17472i",
      "midiNote": 49,
      "noteName": "C#3",
      "velocity": 1,
      "duration": "102i"
    },
    {
      "time": "17600i",
      "midiNote": 49,
      "noteName": "C#3",
      "velocity": 0.8818897637795275,
      "duration": "38i"
    },
    {
      "time": "17600i",
      "midiNote": 55,
      "noteName": "G3",
      "velocity": 0.8818897637795275,
      "duration": "38i"
    },
    {
      "time": "17600i",
      "midiNote": 67,
      "noteName": "G4",
      "velocity": 0.8818897637795275,
      "duration": "38i"
    },
    {
      "time": "17600i",
      "midiNote": 61,
      "noteName": "C#4",
      "velocity": 0.8818897637795275,
      "duration": "38i"
    },
    {
      "time": "17664i",
      "midiNote": 28,
      "noteName": "E1",
      "velocity": 1,
      "duration": "42i"
    },
    {
      "time": "17664i",
      "midiNote": 52,
      "noteName": "E3",
      "velocity": 1,
      "duration": "42i"
    },
    {
      "time": "17664i",
      "midiNote": 28,
      "noteName": "E1",
      "velocity": 1,
      "duration": "42i"
    },
    {
      "time": "17664i",
      "midiNote": 40,
      "noteName": "E2",
      "velocity": 1,
      "duration": "42i"
    },
    {
      "time": "17728i",
      "midiNote": 28,
      "noteName": "E1",
      "velocity": 0.6850393700787402,
      "duration": "42i"
    },
    {
      "time": "17728i",
      "midiNote": 48,
      "noteName": "C3",
      "velocity": 1,
      "duration": "38i"
    },
    {
      "time": "17728i",
      "midiNote": 57,
      "noteName": "A3",
      "velocity": 1,
      "duration": "38i"
    },
    {
      "time": "17728i",
      "midiNote": 69,
      "noteName": "A4",
      "velocity": 1,
      "duration": "38i"
    },
    {
      "time": "17728i",
      "midiNote": 60,
      "noteName": "C4",
      "velocity": 1,
      "duration": "38i"
    },
    {
      "time": "17792i",
      "midiNote": 28,
      "noteName": "E1",
      "velocity": 0.7874015748031497,
      "duration": "42i"
    },
    {
      "time": "17792i",
      "midiNote": 40,
      "noteName": "E2",
      "velocity": 0.7874015748031497,
      "duration": "42i"
    },
    {
      "time": "17792i",
      "midiNote": 52,
      "noteName": "E3",
      "velocity": 0.7874015748031497,
      "duration": "42i"
    },
    {
      "time": "17792i",
      "midiNote": 28,
      "noteName": "E1",
      "velocity": 0.84251968503937,
      "duration": "42i"
    },
    {
      "time": "17856i",
      "midiNote": 60,
      "noteName": "C4",
      "velocity": 1,
      "duration": "102i"
    },
    {
      "time": "17856i",
      "midiNote": 69,
      "noteName": "A4",
      "velocity": 1,
      "duration": "102i"
    },
    {
      "time": "17856i",
      "midiNote": 57,
      "noteName": "A3",
      "velocity": 1,
      "duration": "102i"
    },
    {
      "time": "17856i",
      "midiNote": 48,
      "noteName": "C3",
      "velocity": 1,
      "duration": "102i"
    },
    {
      "time": "17984i",
      "midiNote": 60,
      "noteName": "C4",
      "velocity": 0.8818897637795275,
      "duration": "38i"
    },
    {
      "time": "17984i",
      "midiNote": 69,
      "noteName": "A4",
      "velocity": 0.8818897637795275,
      "duration": "38i"
    },
    {
      "time": "17984i",
      "midiNote": 57,
      "noteName": "A3",
      "velocity": 0.8818897637795275,
      "duration": "38i"
    },
    {
      "time": "17984i",
      "midiNote": 48,
      "noteName": "C3",
      "velocity": 0.8818897637795275,
      "duration": "38i"
    },
    {
      "time": "18048i",
      "midiNote": 40,
      "noteName": "E2",
      "velocity": 1,
      "duration": "42i"
    },
    {
      "time": "18048i",
      "midiNote": 28,
      "noteName": "E1",
      "velocity": 1,
      "duration": "42i"
    },
    {
      "time": "18048i",
      "midiNote": 52,
      "noteName": "E3",
      "velocity": 1,
      "duration": "42i"
    },
    {
      "time": "18112i",
      "midiNote": 62,
      "noteName": "D4",
      "velocity": 1,
      "duration": "38i"
    },
    {
      "time": "18112i",
      "midiNote": 67,
      "noteName": "G4",
      "velocity": 1,
      "duration": "38i"
    },
    {
      "time": "18112i",
      "midiNote": 55,
      "noteName": "G3",
      "velocity": 1,
      "duration": "38i"
    },
    {
      "time": "18112i",
      "midiNote": 50,
      "noteName": "D3",
      "velocity": 1,
      "duration": "38i"
    },
    {
      "time": "18176i",
      "midiNote": 28,
      "noteName": "E1",
      "velocity": 0.7874015748031497,
      "duration": "42i"
    },
    {
      "time": "18176i",
      "midiNote": 40,
      "noteName": "E2",
      "velocity": 0.7874015748031497,
      "duration": "42i"
    },
    {
      "time": "18176i",
      "midiNote": 52,
      "noteName": "E3",
      "velocity": 0.7874015748031497,
      "duration": "42i"
    },
    {
      "time": "18240i",
      "midiNote": 55,
      "noteName": "G3",
      "velocity": 1,
      "duration": "38i"
    },
    {
      "time": "18240i",
      "midiNote": 62,
      "noteName": "D4",
      "velocity": 1,
      "duration": "102i"
    },
    {
      "time": "18240i",
      "midiNote": 67,
      "noteName": "G4",
      "velocity": 1,
      "duration": "38i"
    },
    {
      "time": "18240i",
      "midiNote": 50,
      "noteName": "D3",
      "velocity": 1,
      "duration": "102i"
    },
    {
      "time": "18304i",
      "midiNote": 54,
      "noteName": "F#3",
      "velocity": 1,
      "duration": "38i"
    },
    {
      "time": "18304i",
      "midiNote": 66,
      "noteName": "F#4",
      "velocity": 1,
      "duration": "38i"
    },
    {
      "time": "18368i",
      "midiNote": 52,
      "noteName": "E3",
      "velocity": 1,
      "duration": "38i"
    },
    {
      "time": "18368i",
      "midiNote": 64,
      "noteName": "E4",
      "velocity": 1,
      "duration": "38i"
    },
    {
      "time": "18368i",
      "midiNote": 50,
      "noteName": "D3",
      "velocity": 0.8818897637795275,
      "duration": "38i"
    },
    {
      "time": "18368i",
      "midiNote": 62,
      "noteName": "D4",
      "velocity": 0.8818897637795275,
      "duration": "38i"
    },
    {
      "time": "18432i",
      "midiNote": 55,
      "noteName": "G3",
      "velocity": 1,
      "duration": "774i"
    },
    {
      "time": "18432i",
      "midiNote": 43,
      "noteName": "G2",
      "velocity": 1,
      "duration": "774i"
    },
    {
      "time": "18432i",
      "midiNote": 31,
      "noteName": "G1",
      "velocity": 1,
      "duration": "774i"
    },
    {
      "time": "18496i",
      "midiNote": 47,
      "noteName": "B2",
      "velocity": 1,
      "duration": "38i"
    },
    {
      "time": "18496i",
      "midiNote": 59,
      "noteName": "B3",
      "velocity": 1,
      "duration": "38i"
    },
    {
      "time": "18560i",
      "midiNote": 61,
      "noteName": "C#4",
      "velocity": 0.8582677165354331,
      "duration": "38i"
    },
    {
      "time": "18560i",
      "midiNote": 49,
      "noteName": "C#3",
      "velocity": 0.8582677165354331,
      "duration": "38i"
    },
    {
      "time": "18624i",
      "midiNote": 62,
      "noteName": "D4",
      "velocity": 0.952755905511811,
      "duration": "230i"
    },
    {
      "time": "18624i",
      "midiNote": 50,
      "noteName": "D3",
      "velocity": 0.952755905511811,
      "duration": "230i"
    },
    {
      "time": "18880i",
      "midiNote": 49,
      "noteName": "C#3",
      "velocity": 0.937007874015748,
      "duration": "38i"
    },
    {
      "time": "18880i",
      "midiNote": 61,
      "noteName": "C#4",
      "velocity": 0.937007874015748,
      "duration": "38i"
    },
    {
      "time": "18944i",
      "midiNote": 50,
      "noteName": "D3",
      "velocity": 0.7795275590551181,
      "duration": "38i"
    },
    {
      "time": "18944i",
      "midiNote": 62,
      "noteName": "D4",
      "velocity": 0.7795275590551181,
      "duration": "38i"
    },
    {
      "time": "19008i",
      "midiNote": 52,
      "noteName": "E3",
      "velocity": 0.8818897637795275,
      "duration": "38i"
    },
    {
      "time": "19008i",
      "midiNote": 64,
      "noteName": "E4",
      "velocity": 0.8818897637795275,
      "duration": "38i"
    },
    {
      "time": "19072i",
      "midiNote": 62,
      "noteName": "D4",
      "velocity": 0.8976377952755905,
      "duration": "38i"
    },
    {
      "time": "19072i",
      "midiNote": 50,
      "noteName": "D3",
      "velocity": 0.8976377952755905,
      "duration": "38i"
    },
    {
      "time": "19136i",
      "midiNote": 49,
      "noteName": "C#3",
      "velocity": 0.7165354330708661,
      "duration": "38i"
    },
    {
      "time": "19136i",
      "midiNote": 61,
      "noteName": "C#4",
      "velocity": 0.7165354330708661,
      "duration": "38i"
    },
    {
      "time": "19200i",
      "midiNote": 33,
      "noteName": "A1",
      "velocity": 1,
      "duration": "774i"
    },
    {
      "time": "19200i",
      "midiNote": 45,
      "noteName": "A2",
      "velocity": 1,
      "duration": "774i"
    },
    {
      "time": "19200i",
      "midiNote": 57,
      "noteName": "A3",
      "velocity": 1,
      "duration": "646i"
    },
    {
      "time": "19264i",
      "midiNote": 61,
      "noteName": "C#4",
      "velocity": 1,
      "duration": "38i"
    },
    {
      "time": "19264i",
      "midiNote": 49,
      "noteName": "C#3",
      "velocity": 1,
      "duration": "38i"
    },
    {
      "time": "19328i",
      "midiNote": 50,
      "noteName": "D3",
      "velocity": 0.8582677165354331,
      "duration": "38i"
    },
    {
      "time": "19328i",
      "midiNote": 62,
      "noteName": "D4",
      "velocity": 0.8582677165354331,
      "duration": "38i"
    },
    {
      "time": "19392i",
      "midiNote": 64,
      "noteName": "E4",
      "velocity": 0.952755905511811,
      "duration": "230i"
    },
    {
      "time": "19392i",
      "midiNote": 52,
      "noteName": "E3",
      "velocity": 0.952755905511811,
      "duration": "230i"
    },
    {
      "time": "19648i",
      "midiNote": 50,
      "noteName": "D3",
      "velocity": 0.8740157480314961,
      "duration": "38i"
    },
    {
      "time": "19648i",
      "midiNote": 62,
      "noteName": "D4",
      "velocity": 0.8740157480314961,
      "duration": "38i"
    },
    {
      "time": "19712i",
      "midiNote": 52,
      "noteName": "E3",
      "velocity": 0.7716535433070866,
      "duration": "38i"
    },
    {
      "time": "19712i",
      "midiNote": 64,
      "noteName": "E4",
      "velocity": 0.7716535433070866,
      "duration": "38i"
    },
    {
      "time": "19776i",
      "midiNote": 54,
      "noteName": "F#3",
      "velocity": 0.8582677165354331,
      "duration": "38i"
    },
    {
      "time": "19776i",
      "midiNote": 66,
      "noteName": "F#4",
      "velocity": 0.8582677165354331,
      "duration": "38i"
    },
    {
      "time": "19840i",
      "midiNote": 55,
      "noteName": "G3",
      "velocity": 0.9133858267716536,
      "duration": "38i"
    },
    {
      "time": "19840i",
      "midiNote": 67,
      "noteName": "G4",
      "velocity": 0.9133858267716536,
      "duration": "38i"
    },
    {
      "time": "19904i",
      "midiNote": 57,
      "noteName": "A3",
      "velocity": 0.9606299212598425,
      "duration": "38i"
    },
    {
      "time": "19904i",
      "midiNote": 69,
      "noteName": "A4",
      "velocity": 0.9606299212598425,
      "duration": "38i"
    },
    {
      "time": "19968i",
      "midiNote": 30,
      "noteName": "F#1",
      "velocity": 1,
      "duration": "774i"
    },
    {
      "time": "19968i",
      "midiNote": 42,
      "noteName": "F#2",
      "velocity": 1,
      "duration": "774i"
    },
    {
      "time": "19968i",
      "midiNote": 59,
      "noteName": "B3",
      "velocity": 1,
      "duration": "774i"
    },
    {
      "time": "19968i",
      "midiNote": 71,
      "noteName": "B4",
      "velocity": 1,
      "duration": "774i"
    },
    {
      "time": "33024i",
      "midiNote": 40,
      "noteName": "E2",
      "velocity": 1,
      "duration": "1526i"
    },
    {
      "time": "33024i",
      "midiNote": 28,
      "noteName": "E1",
      "velocity": 1,
      "duration": "1530i"
    }
  ],
  [
    {
      "time": "1344i",
      "midiNote": 54,
      "noteName": "F#3",
      "velocity": 1,
      "duration": "186i"
    },
    {
      "time": "1344i",
      "midiNote": 42,
      "noteName": "F#2",
      "velocity": 1,
      "duration": "188i"
    },
    {
      "time": "1536i",
      "midiNote": 47,
      "noteName": "B2",
      "velocity": 0.984251968503937,
      "duration": "1246i"
    },
    {
      "time": "1536i",
      "midiNote": 40,
      "noteName": "E2",
      "velocity": 0.984251968503937,
      "duration": "1234i"
    },
    {
      "time": "2816i",
      "midiNote": 47,
      "noteName": "B2",
      "velocity": 0.984251968503937,
      "duration": "54i"
    },
    {
      "time": "2880i",
      "midiNote": 43,
      "noteName": "G2",
      "velocity": 0.905511811023622,
      "duration": "58i"
    },
    {
      "time": "2880i",
      "midiNote": 57,
      "noteName": "A3",
      "velocity": 0.905511811023622,
      "duration": "54i"
    },
    {
      "time": "2944i",
      "midiNote": 55,
      "noteName": "G3",
      "velocity": 0.9448818897637795,
      "duration": "54i"
    },
    {
      "time": "2944i",
      "midiNote": 47,
      "noteName": "B2",
      "velocity": 0.9448818897637795,
      "duration": "58i"
    },
    {
      "time": "3008i",
      "midiNote": 54,
      "noteName": "F#3",
      "velocity": 0.9763779527559056,
      "duration": "54i"
    },
    {
      "time": "3008i",
      "midiNote": 43,
      "noteName": "G2",
      "velocity": 0.9763779527559056,
      "duration": "58i"
    },
    {
      "time": "3072i",
      "midiNote": 40,
      "noteName": "E2",
      "velocity": 1,
      "duration": "54i"
    },
    {
      "time": "3072i",
      "midiNote": 47,
      "noteName": "B2",
      "velocity": 1,
      "duration": "54i"
    },
    {
      "time": "3072i",
      "midiNote": 52,
      "noteName": "E3",
      "velocity": 1,
      "duration": "54i"
    },
    {
      "time": "3136i",
      "midiNote": 40,
      "noteName": "E2",
      "velocity": 0.7480314960629921,
      "duration": "54i"
    },
    {
      "time": "3136i",
      "midiNote": 47,
      "noteName": "B2",
      "velocity": 0.7480314960629921,
      "duration": "54i"
    },
    {
      "time": "3136i",
      "midiNote": 52,
      "noteName": "E3",
      "velocity": 0.7480314960629921,
      "duration": "54i"
    },
    {
      "time": "3200i",
      "midiNote": 52,
      "noteName": "E3",
      "velocity": 0.5826771653543307,
      "duration": "54i"
    },
    {
      "time": "3200i",
      "midiNote": 47,
      "noteName": "B2",
      "velocity": 0.5826771653543307,
      "duration": "54i"
    },
    {
      "time": "3200i",
      "midiNote": 40,
      "noteName": "E2",
      "velocity": 0.5826771653543307,
      "duration": "54i"
    },
    {
      "time": "3264i",
      "midiNote": 40,
      "noteName": "E2",
      "velocity": 0.7007874015748031,
      "duration": "118i"
    },
    {
      "time": "3264i",
      "midiNote": 47,
      "noteName": "B2",
      "velocity": 0.7007874015748031,
      "duration": "118i"
    },
    {
      "time": "3264i",
      "midiNote": 52,
      "noteName": "E3",
      "velocity": 0.7007874015748031,
      "duration": "118i"
    },
    {
      "time": "3392i",
      "midiNote": 52,
      "noteName": "E3",
      "velocity": 0.84251968503937,
      "duration": "54i"
    },
    {
      "time": "3392i",
      "midiNote": 47,
      "noteName": "B2",
      "velocity": 0.84251968503937,
      "duration": "54i"
    },
    {
      "time": "3392i",
      "midiNote": 40,
      "noteName": "E2",
      "velocity": 0.84251968503937,
      "duration": "54i"
    },
    {
      "time": "3456i",
      "midiNote": 40,
      "noteName": "E2",
      "velocity": 1,
      "duration": "54i"
    },
    {
      "time": "3456i",
      "midiNote": 47,
      "noteName": "B2",
      "velocity": 1,
      "duration": "54i"
    },
    {
      "time": "3456i",
      "midiNote": 52,
      "noteName": "E3",
      "velocity": 1,
      "duration": "54i"
    },
    {
      "time": "3520i",
      "midiNote": 40,
      "noteName": "E2",
      "velocity": 0.7401574803149606,
      "duration": "54i"
    },
    {
      "time": "3520i",
      "midiNote": 47,
      "noteName": "B2",
      "velocity": 0.7401574803149606,
      "duration": "54i"
    },
    {
      "time": "3520i",
      "midiNote": 52,
      "noteName": "E3",
      "velocity": 0.7401574803149606,
      "duration": "54i"
    },
    {
      "time": "3584i",
      "midiNote": 52,
      "noteName": "E3",
      "velocity": 0.6062992125984252,
      "duration": "54i"
    },
    {
      "time": "3584i",
      "midiNote": 47,
      "noteName": "B2",
      "velocity": 0.6062992125984252,
      "duration": "54i"
    },
    {
      "time": "3584i",
      "midiNote": 40,
      "noteName": "E2",
      "velocity": 0.6062992125984252,
      "duration": "54i"
    },
    {
      "time": "3648i",
      "midiNote": 40,
      "noteName": "E2",
      "velocity": 0.7165354330708661,
      "duration": "118i"
    },
    {
      "time": "3648i",
      "midiNote": 47,
      "noteName": "B2",
      "velocity": 0.7165354330708661,
      "duration": "118i"
    },
    {
      "time": "3648i",
      "midiNote": 52,
      "noteName": "E3",
      "velocity": 0.7165354330708661,
      "duration": "118i"
    },
    {
      "time": "3776i",
      "midiNote": 40,
      "noteName": "E2",
      "velocity": 0.8582677165354331,
      "duration": "54i"
    },
    {
      "time": "3776i",
      "midiNote": 47,
      "noteName": "B2",
      "velocity": 0.8582677165354331,
      "duration": "54i"
    },
    {
      "time": "3776i",
      "midiNote": 52,
      "noteName": "E3",
      "velocity": 0.8582677165354331,
      "duration": "54i"
    },
    {
      "time": "3840i",
      "midiNote": 52,
      "noteName": "E3",
      "velocity": 1,
      "duration": "54i"
    },
    {
      "time": "3840i",
      "midiNote": 47,
      "noteName": "B2",
      "velocity": 1,
      "duration": "54i"
    },
    {
      "time": "3840i",
      "midiNote": 40,
      "noteName": "E2",
      "velocity": 1,
      "duration": "54i"
    },
    {
      "time": "3904i",
      "midiNote": 52,
      "noteName": "E3",
      "velocity": 0.7952755905511811,
      "duration": "54i"
    },
    {
      "time": "3904i",
      "midiNote": 47,
      "noteName": "B2",
      "velocity": 0.7952755905511811,
      "duration": "54i"
    },
    {
      "time": "3904i",
      "midiNote": 40,
      "noteName": "E2",
      "velocity": 0.7952755905511811,
      "duration": "54i"
    },
    {
      "time": "3968i",
      "midiNote": 52,
      "noteName": "E3",
      "velocity": 0.6062992125984252,
      "duration": "54i"
    },
    {
      "time": "3968i",
      "midiNote": 47,
      "noteName": "B2",
      "velocity": 0.6062992125984252,
      "duration": "54i"
    },
    {
      "time": "3968i",
      "midiNote": 40,
      "noteName": "E2",
      "velocity": 0.6062992125984252,
      "duration": "54i"
    },
    {
      "time": "4032i",
      "midiNote": 40,
      "noteName": "E2",
      "velocity": 0.7086614173228346,
      "duration": "118i"
    },
    {
      "time": "4032i",
      "midiNote": 47,
      "noteName": "B2",
      "velocity": 0.7086614173228346,
      "duration": "118i"
    },
    {
      "time": "4032i",
      "midiNote": 52,
      "noteName": "E3",
      "velocity": 0.7086614173228346,
      "duration": "118i"
    },
    {
      "time": "4160i",
      "midiNote": 40,
      "noteName": "E2",
      "velocity": 0.8740157480314961,
      "duration": "54i"
    },
    {
      "time": "4160i",
      "midiNote": 47,
      "noteName": "B2",
      "velocity": 0.8740157480314961,
      "duration": "54i"
    },
    {
      "time": "4160i",
      "midiNote": 52,
      "noteName": "E3",
      "velocity": 0.8740157480314961,
      "duration": "54i"
    },
    {
      "time": "4224i",
      "midiNote": 52,
      "noteName": "E3",
      "velocity": 1,
      "duration": "54i"
    },
    {
      "time": "4224i",
      "midiNote": 47,
      "noteName": "B2",
      "velocity": 1,
      "duration": "54i"
    },
    {
      "time": "4224i",
      "midiNote": 40,
      "noteName": "E2",
      "velocity": 1,
      "duration": "54i"
    },
    {
      "time": "4288i",
      "midiNote": 40,
      "noteName": "E2",
      "velocity": 0.7716535433070866,
      "duration": "54i"
    },
    {
      "time": "4288i",
      "midiNote": 47,
      "noteName": "B2",
      "velocity": 0.7716535433070866,
      "duration": "54i"
    },
    {
      "time": "4288i",
      "midiNote": 52,
      "noteName": "E3",
      "velocity": 0.7716535433070866,
      "duration": "54i"
    },
    {
      "time": "4352i",
      "midiNote": 52,
      "noteName": "E3",
      "velocity": 0.7086614173228346,
      "duration": "54i"
    },
    {
      "time": "4352i",
      "midiNote": 47,
      "noteName": "B2",
      "velocity": 0.7086614173228346,
      "duration": "54i"
    },
    {
      "time": "4352i",
      "midiNote": 40,
      "noteName": "E2",
      "velocity": 0.7086614173228346,
      "duration": "54i"
    },
    {
      "time": "4416i",
      "midiNote": 40,
      "noteName": "E2",
      "velocity": 0.8031496062992126,
      "duration": "54i"
    },
    {
      "time": "4416i",
      "midiNote": 47,
      "noteName": "B2",
      "velocity": 0.8031496062992126,
      "duration": "54i"
    },
    {
      "time": "4416i",
      "midiNote": 52,
      "noteName": "E3",
      "velocity": 0.8031496062992126,
      "duration": "54i"
    },
    {
      "time": "4480i",
      "midiNote": 52,
      "noteName": "E3",
      "velocity": 0.7952755905511811,
      "duration": "106i"
    },
    {
      "time": "4480i",
      "midiNote": 64,
      "noteName": "E4",
      "velocity": 0.7952755905511811,
      "duration": "106i"
    },
    {
      "time": "4480i",
      "midiNote": 47,
      "noteName": "B2",
      "velocity": 0.8031496062992126,
      "duration": "106i"
    },
    {
      "time": "4608i",
      "midiNote": 40,
      "noteName": "E2",
      "velocity": 1,
      "duration": "54i"
    },
    {
      "time": "4608i",
      "midiNote": 47,
      "noteName": "B2",
      "velocity": 1,
      "duration": "54i"
    },
    {
      "time": "4608i",
      "midiNote": 52,
      "noteName": "E3",
      "velocity": 1,
      "duration": "54i"
    },
    {
      "time": "4672i",
      "midiNote": 40,
      "noteName": "E2",
      "velocity": 0.7480314960629921,
      "duration": "54i"
    },
    {
      "time": "4672i",
      "midiNote": 47,
      "noteName": "B2",
      "velocity": 0.7480314960629921,
      "duration": "54i"
    },
    {
      "time": "4672i",
      "midiNote": 52,
      "noteName": "E3",
      "velocity": 0.7480314960629921,
      "duration": "54i"
    },
    {
      "time": "4736i",
      "midiNote": 52,
      "noteName": "E3",
      "velocity": 0.5826771653543307,
      "duration": "54i"
    },
    {
      "time": "4736i",
      "midiNote": 47,
      "noteName": "B2",
      "velocity": 0.5826771653543307,
      "duration": "54i"
    },
    {
      "time": "4736i",
      "midiNote": 40,
      "noteName": "E2",
      "velocity": 0.5826771653543307,
      "duration": "54i"
    },
    {
      "time": "4800i",
      "midiNote": 40,
      "noteName": "E2",
      "velocity": 0.7007874015748031,
      "duration": "118i"
    },
    {
      "time": "4800i",
      "midiNote": 47,
      "noteName": "B2",
      "velocity": 0.7007874015748031,
      "duration": "118i"
    },
    {
      "time": "4800i",
      "midiNote": 52,
      "noteName": "E3",
      "velocity": 0.7007874015748031,
      "duration": "118i"
    },
    {
      "time": "4928i",
      "midiNote": 52,
      "noteName": "E3",
      "velocity": 0.84251968503937,
      "duration": "54i"
    },
    {
      "time": "4928i",
      "midiNote": 47,
      "noteName": "B2",
      "velocity": 0.84251968503937,
      "duration": "54i"
    },
    {
      "time": "4928i",
      "midiNote": 40,
      "noteName": "E2",
      "velocity": 0.84251968503937,
      "duration": "54i"
    },
    {
      "time": "4992i",
      "midiNote": 40,
      "noteName": "E2",
      "velocity": 1,
      "duration": "54i"
    },
    {
      "time": "4992i",
      "midiNote": 47,
      "noteName": "B2",
      "velocity": 1,
      "duration": "54i"
    },
    {
      "time": "4992i",
      "midiNote": 52,
      "noteName": "E3",
      "velocity": 1,
      "duration": "54i"
    },
    {
      "time": "5056i",
      "midiNote": 40,
      "noteName": "E2",
      "velocity": 0.7401574803149606,
      "duration": "54i"
    },
    {
      "time": "5056i",
      "midiNote": 47,
      "noteName": "B2",
      "velocity": 0.7401574803149606,
      "duration": "54i"
    },
    {
      "time": "5056i",
      "midiNote": 52,
      "noteName": "E3",
      "velocity": 0.7401574803149606,
      "duration": "54i"
    },
    {
      "time": "5120i",
      "midiNote": 52,
      "noteName": "E3",
      "velocity": 0.6062992125984252,
      "duration": "54i"
    },
    {
      "time": "5120i",
      "midiNote": 47,
      "noteName": "B2",
      "velocity": 0.6062992125984252,
      "duration": "54i"
    },
    {
      "time": "5120i",
      "midiNote": 40,
      "noteName": "E2",
      "velocity": 0.6062992125984252,
      "duration": "54i"
    },
    {
      "time": "5184i",
      "midiNote": 40,
      "noteName": "E2",
      "velocity": 0.7165354330708661,
      "duration": "118i"
    },
    {
      "time": "5184i",
      "midiNote": 47,
      "noteName": "B2",
      "velocity": 0.7165354330708661,
      "duration": "118i"
    },
    {
      "time": "5184i",
      "midiNote": 52,
      "noteName": "E3",
      "velocity": 0.7165354330708661,
      "duration": "118i"
    },
    {
      "time": "5312i",
      "midiNote": 40,
      "noteName": "E2",
      "velocity": 0.8582677165354331,
      "duration": "54i"
    },
    {
      "time": "5312i",
      "midiNote": 47,
      "noteName": "B2",
      "velocity": 0.8582677165354331,
      "duration": "54i"
    },
    {
      "time": "5312i",
      "midiNote": 52,
      "noteName": "E3",
      "velocity": 0.8582677165354331,
      "duration": "54i"
    },
    {
      "time": "5376i",
      "midiNote": 52,
      "noteName": "E3",
      "velocity": 1,
      "duration": "54i"
    },
    {
      "time": "5376i",
      "midiNote": 47,
      "noteName": "B2",
      "velocity": 1,
      "duration": "54i"
    },
    {
      "time": "5376i",
      "midiNote": 40,
      "noteName": "E2",
      "velocity": 1,
      "duration": "54i"
    },
    {
      "time": "5440i",
      "midiNote": 52,
      "noteName": "E3",
      "velocity": 0.7952755905511811,
      "duration": "54i"
    },
    {
      "time": "5440i",
      "midiNote": 47,
      "noteName": "B2",
      "velocity": 0.7952755905511811,
      "duration": "54i"
    },
    {
      "time": "5440i",
      "midiNote": 40,
      "noteName": "E2",
      "velocity": 0.7952755905511811,
      "duration": "54i"
    },
    {
      "time": "5504i",
      "midiNote": 52,
      "noteName": "E3",
      "velocity": 0.6062992125984252,
      "duration": "54i"
    },
    {
      "time": "5504i",
      "midiNote": 47,
      "noteName": "B2",
      "velocity": 0.6062992125984252,
      "duration": "54i"
    },
    {
      "time": "5504i",
      "midiNote": 40,
      "noteName": "E2",
      "velocity": 0.6062992125984252,
      "duration": "54i"
    },
    {
      "time": "5568i",
      "midiNote": 40,
      "noteName": "E2",
      "velocity": 0.7086614173228346,
      "duration": "118i"
    },
    {
      "time": "5568i",
      "midiNote": 47,
      "noteName": "B2",
      "velocity": 0.7086614173228346,
      "duration": "118i"
    },
    {
      "time": "5568i",
      "midiNote": 52,
      "noteName": "E3",
      "velocity": 0.7086614173228346,
      "duration": "118i"
    },
    {
      "time": "5696i",
      "midiNote": 40,
      "noteName": "E2",
      "velocity": 0.8740157480314961,
      "duration": "54i"
    },
    {
      "time": "5696i",
      "midiNote": 47,
      "noteName": "B2",
      "velocity": 0.8740157480314961,
      "duration": "54i"
    },
    {
      "time": "5696i",
      "midiNote": 52,
      "noteName": "E3",
      "velocity": 0.8740157480314961,
      "duration": "54i"
    },
    {
      "time": "5760i",
      "midiNote": 52,
      "noteName": "E3",
      "velocity": 1,
      "duration": "54i"
    },
    {
      "time": "5760i",
      "midiNote": 47,
      "noteName": "B2",
      "velocity": 1,
      "duration": "54i"
    },
    {
      "time": "5760i",
      "midiNote": 40,
      "noteName": "E2",
      "velocity": 1,
      "duration": "54i"
    },
    {
      "time": "5824i",
      "midiNote": 40,
      "noteName": "E2",
      "velocity": 0.7716535433070866,
      "duration": "54i"
    },
    {
      "time": "5824i",
      "midiNote": 47,
      "noteName": "B2",
      "velocity": 0.7716535433070866,
      "duration": "54i"
    },
    {
      "time": "5824i",
      "midiNote": 52,
      "noteName": "E3",
      "velocity": 0.7716535433070866,
      "duration": "54i"
    },
    {
      "time": "5888i",
      "midiNote": 52,
      "noteName": "E3",
      "velocity": 0.7086614173228346,
      "duration": "54i"
    },
    {
      "time": "5888i",
      "midiNote": 47,
      "noteName": "B2",
      "velocity": 0.7086614173228346,
      "duration": "54i"
    },
    {
      "time": "5888i",
      "midiNote": 40,
      "noteName": "E2",
      "velocity": 0.7086614173228346,
      "duration": "54i"
    },
    {
      "time": "5952i",
      "midiNote": 40,
      "noteName": "E2",
      "velocity": 0.8031496062992126,
      "duration": "54i"
    },
    {
      "time": "5952i",
      "midiNote": 47,
      "noteName": "B2",
      "velocity": 0.8031496062992126,
      "duration": "54i"
    },
    {
      "time": "5952i",
      "midiNote": 52,
      "noteName": "E3",
      "velocity": 0.8031496062992126,
      "duration": "54i"
    },
    {
      "time": "6016i",
      "midiNote": 52,
      "noteName": "E3",
      "velocity": 0.7952755905511811,
      "duration": "106i"
    },
    {
      "time": "6016i",
      "midiNote": 64,
      "noteName": "E4",
      "velocity": 0.7952755905511811,
      "duration": "106i"
    },
    {
      "time": "6016i",
      "midiNote": 47,
      "noteName": "B2",
      "velocity": 0.8031496062992126,
      "duration": "106i"
    },
    {
      "time": "6144i",
      "midiNote": 40,
      "noteName": "E2",
      "velocity": 1,
      "duration": "54i"
    },
    {
      "time": "6144i",
      "midiNote": 47,
      "noteName": "B2",
      "velocity": 1,
      "duration": "54i"
    },
    {
      "time": "6144i",
      "midiNote": 52,
      "noteName": "E3",
      "velocity": 1,
      "duration": "54i"
    },
    {
      "time": "6208i",
      "midiNote": 40,
      "noteName": "E2",
      "velocity": 0.7480314960629921,
      "duration": "54i"
    },
    {
      "time": "6208i",
      "midiNote": 47,
      "noteName": "B2",
      "velocity": 0.7480314960629921,
      "duration": "54i"
    },
    {
      "time": "6208i",
      "midiNote": 52,
      "noteName": "E3",
      "velocity": 0.7480314960629921,
      "duration": "54i"
    },
    {
      "time": "6272i",
      "midiNote": 52,
      "noteName": "E3",
      "velocity": 0.5826771653543307,
      "duration": "54i"
    },
    {
      "time": "6272i",
      "midiNote": 47,
      "noteName": "B2",
      "velocity": 0.5826771653543307,
      "duration": "54i"
    },
    {
      "time": "6272i",
      "midiNote": 40,
      "noteName": "E2",
      "velocity": 0.5826771653543307,
      "duration": "54i"
    },
    {
      "time": "6336i",
      "midiNote": 40,
      "noteName": "E2",
      "velocity": 0.7007874015748031,
      "duration": "118i"
    },
    {
      "time": "6336i",
      "midiNote": 47,
      "noteName": "B2",
      "velocity": 0.7007874015748031,
      "duration": "118i"
    },
    {
      "time": "6336i",
      "midiNote": 52,
      "noteName": "E3",
      "velocity": 0.7007874015748031,
      "duration": "118i"
    },
    {
      "time": "6464i",
      "midiNote": 52,
      "noteName": "E3",
      "velocity": 0.84251968503937,
      "duration": "54i"
    },
    {
      "time": "6464i",
      "midiNote": 47,
      "noteName": "B2",
      "velocity": 0.84251968503937,
      "duration": "54i"
    },
    {
      "time": "6464i",
      "midiNote": 40,
      "noteName": "E2",
      "velocity": 0.84251968503937,
      "duration": "54i"
    },
    {
      "time": "6528i",
      "midiNote": 40,
      "noteName": "E2",
      "velocity": 1,
      "duration": "54i"
    },
    {
      "time": "6528i",
      "midiNote": 47,
      "noteName": "B2",
      "velocity": 1,
      "duration": "54i"
    },
    {
      "time": "6528i",
      "midiNote": 52,
      "noteName": "E3",
      "velocity": 1,
      "duration": "54i"
    },
    {
      "time": "6592i",
      "midiNote": 40,
      "noteName": "E2",
      "velocity": 0.7401574803149606,
      "duration": "54i"
    },
    {
      "time": "6592i",
      "midiNote": 47,
      "noteName": "B2",
      "velocity": 0.7401574803149606,
      "duration": "54i"
    },
    {
      "time": "6592i",
      "midiNote": 52,
      "noteName": "E3",
      "velocity": 0.7401574803149606,
      "duration": "54i"
    },
    {
      "time": "6656i",
      "midiNote": 52,
      "noteName": "E3",
      "velocity": 0.6062992125984252,
      "duration": "54i"
    },
    {
      "time": "6656i",
      "midiNote": 47,
      "noteName": "B2",
      "velocity": 0.6062992125984252,
      "duration": "54i"
    },
    {
      "time": "6656i",
      "midiNote": 40,
      "noteName": "E2",
      "velocity": 0.6062992125984252,
      "duration": "54i"
    },
    {
      "time": "6720i",
      "midiNote": 40,
      "noteName": "E2",
      "velocity": 0.7165354330708661,
      "duration": "118i"
    },
    {
      "time": "6720i",
      "midiNote": 47,
      "noteName": "B2",
      "velocity": 0.7165354330708661,
      "duration": "118i"
    },
    {
      "time": "6720i",
      "midiNote": 52,
      "noteName": "E3",
      "velocity": 0.7165354330708661,
      "duration": "118i"
    },
    {
      "time": "6848i",
      "midiNote": 40,
      "noteName": "E2",
      "velocity": 0.8582677165354331,
      "duration": "54i"
    },
    {
      "time": "6848i",
      "midiNote": 47,
      "noteName": "B2",
      "velocity": 0.8582677165354331,
      "duration": "54i"
    },
    {
      "time": "6848i",
      "midiNote": 52,
      "noteName": "E3",
      "velocity": 0.8582677165354331,
      "duration": "54i"
    },
    {
      "time": "6912i",
      "midiNote": 52,
      "noteName": "E3",
      "velocity": 1,
      "duration": "54i"
    },
    {
      "time": "6912i",
      "midiNote": 47,
      "noteName": "B2",
      "velocity": 1,
      "duration": "54i"
    },
    {
      "time": "6912i",
      "midiNote": 40,
      "noteName": "E2",
      "velocity": 1,
      "duration": "54i"
    },
    {
      "time": "6976i",
      "midiNote": 52,
      "noteName": "E3",
      "velocity": 0.7952755905511811,
      "duration": "54i"
    },
    {
      "time": "6976i",
      "midiNote": 47,
      "noteName": "B2",
      "velocity": 0.7952755905511811,
      "duration": "54i"
    },
    {
      "time": "6976i",
      "midiNote": 40,
      "noteName": "E2",
      "velocity": 0.7952755905511811,
      "duration": "54i"
    },
    {
      "time": "7040i",
      "midiNote": 52,
      "noteName": "E3",
      "velocity": 0.6062992125984252,
      "duration": "54i"
    },
    {
      "time": "7040i",
      "midiNote": 47,
      "noteName": "B2",
      "velocity": 0.6062992125984252,
      "duration": "54i"
    },
    {
      "time": "7040i",
      "midiNote": 40,
      "noteName": "E2",
      "velocity": 0.6062992125984252,
      "duration": "54i"
    },
    {
      "time": "7104i",
      "midiNote": 40,
      "noteName": "E2",
      "velocity": 0.7086614173228346,
      "duration": "118i"
    },
    {
      "time": "7104i",
      "midiNote": 47,
      "noteName": "B2",
      "velocity": 0.7086614173228346,
      "duration": "118i"
    },
    {
      "time": "7104i",
      "midiNote": 52,
      "noteName": "E3",
      "velocity": 0.7086614173228346,
      "duration": "118i"
    },
    {
      "time": "7232i",
      "midiNote": 40,
      "noteName": "E2",
      "velocity": 0.8740157480314961,
      "duration": "54i"
    },
    {
      "time": "7232i",
      "midiNote": 47,
      "noteName": "B2",
      "velocity": 0.8740157480314961,
      "duration": "54i"
    },
    {
      "time": "7232i",
      "midiNote": 52,
      "noteName": "E3",
      "velocity": 0.8740157480314961,
      "duration": "54i"
    },
    {
      "time": "7296i",
      "midiNote": 52,
      "noteName": "E3",
      "velocity": 1,
      "duration": "54i"
    },
    {
      "time": "7296i",
      "midiNote": 47,
      "noteName": "B2",
      "velocity": 1,
      "duration": "54i"
    },
    {
      "time": "7296i",
      "midiNote": 40,
      "noteName": "E2",
      "velocity": 1,
      "duration": "54i"
    },
    {
      "time": "7360i",
      "midiNote": 40,
      "noteName": "E2",
      "velocity": 0.7716535433070866,
      "duration": "54i"
    },
    {
      "time": "7360i",
      "midiNote": 47,
      "noteName": "B2",
      "velocity": 0.7716535433070866,
      "duration": "54i"
    },
    {
      "time": "7360i",
      "midiNote": 52,
      "noteName": "E3",
      "velocity": 0.7716535433070866,
      "duration": "54i"
    },
    {
      "time": "7424i",
      "midiNote": 52,
      "noteName": "E3",
      "velocity": 0.7086614173228346,
      "duration": "54i"
    },
    {
      "time": "7424i",
      "midiNote": 47,
      "noteName": "B2",
      "velocity": 0.7086614173228346,
      "duration": "54i"
    },
    {
      "time": "7424i",
      "midiNote": 40,
      "noteName": "E2",
      "velocity": 0.7086614173228346,
      "duration": "54i"
    },
    {
      "time": "7488i",
      "midiNote": 40,
      "noteName": "E2",
      "velocity": 0.8031496062992126,
      "duration": "54i"
    },
    {
      "time": "7488i",
      "midiNote": 47,
      "noteName": "B2",
      "velocity": 0.8031496062992126,
      "duration": "54i"
    },
    {
      "time": "7488i",
      "midiNote": 52,
      "noteName": "E3",
      "velocity": 0.8031496062992126,
      "duration": "54i"
    },
    {
      "time": "7552i",
      "midiNote": 52,
      "noteName": "E3",
      "velocity": 0.7952755905511811,
      "duration": "106i"
    },
    {
      "time": "7552i",
      "midiNote": 64,
      "noteName": "E4",
      "velocity": 0.7952755905511811,
      "duration": "106i"
    },
    {
      "time": "7552i",
      "midiNote": 47,
      "noteName": "B2",
      "velocity": 0.8031496062992126,
      "duration": "106i"
    },
    {
      "time": "7680i",
      "midiNote": 40,
      "noteName": "E2",
      "velocity": 1,
      "duration": "54i"
    },
    {
      "time": "7680i",
      "midiNote": 47,
      "noteName": "B2",
      "velocity": 1,
      "duration": "54i"
    },
    {
      "time": "7680i",
      "midiNote": 52,
      "noteName": "E3",
      "velocity": 1,
      "duration": "54i"
    },
    {
      "time": "7744i",
      "midiNote": 40,
      "noteName": "E2",
      "velocity": 0.7480314960629921,
      "duration": "54i"
    },
    {
      "time": "7744i",
      "midiNote": 47,
      "noteName": "B2",
      "velocity": 0.7480314960629921,
      "duration": "54i"
    },
    {
      "time": "7744i",
      "midiNote": 52,
      "noteName": "E3",
      "velocity": 0.7480314960629921,
      "duration": "54i"
    },
    {
      "time": "7808i",
      "midiNote": 52,
      "noteName": "E3",
      "velocity": 0.5826771653543307,
      "duration": "54i"
    },
    {
      "time": "7808i",
      "midiNote": 47,
      "noteName": "B2",
      "velocity": 0.5826771653543307,
      "duration": "54i"
    },
    {
      "time": "7808i",
      "midiNote": 40,
      "noteName": "E2",
      "velocity": 0.5826771653543307,
      "duration": "54i"
    },
    {
      "time": "7872i",
      "midiNote": 40,
      "noteName": "E2",
      "velocity": 0.7007874015748031,
      "duration": "118i"
    },
    {
      "time": "7872i",
      "midiNote": 47,
      "noteName": "B2",
      "velocity": 0.7007874015748031,
      "duration": "118i"
    },
    {
      "time": "7872i",
      "midiNote": 52,
      "noteName": "E3",
      "velocity": 0.7007874015748031,
      "duration": "118i"
    },
    {
      "time": "8000i",
      "midiNote": 52,
      "noteName": "E3",
      "velocity": 0.84251968503937,
      "duration": "54i"
    },
    {
      "time": "8000i",
      "midiNote": 47,
      "noteName": "B2",
      "velocity": 0.84251968503937,
      "duration": "54i"
    },
    {
      "time": "8000i",
      "midiNote": 40,
      "noteName": "E2",
      "velocity": 0.84251968503937,
      "duration": "54i"
    },
    {
      "time": "8064i",
      "midiNote": 40,
      "noteName": "E2",
      "velocity": 1,
      "duration": "54i"
    },
    {
      "time": "8064i",
      "midiNote": 47,
      "noteName": "B2",
      "velocity": 1,
      "duration": "54i"
    },
    {
      "time": "8064i",
      "midiNote": 52,
      "noteName": "E3",
      "velocity": 1,
      "duration": "54i"
    },
    {
      "time": "8128i",
      "midiNote": 40,
      "noteName": "E2",
      "velocity": 0.7401574803149606,
      "duration": "54i"
    },
    {
      "time": "8128i",
      "midiNote": 47,
      "noteName": "B2",
      "velocity": 0.7401574803149606,
      "duration": "54i"
    },
    {
      "time": "8128i",
      "midiNote": 52,
      "noteName": "E3",
      "velocity": 0.7401574803149606,
      "duration": "54i"
    },
    {
      "time": "8192i",
      "midiNote": 52,
      "noteName": "E3",
      "velocity": 0.6062992125984252,
      "duration": "54i"
    },
    {
      "time": "8192i",
      "midiNote": 47,
      "noteName": "B2",
      "velocity": 0.6062992125984252,
      "duration": "54i"
    },
    {
      "time": "8192i",
      "midiNote": 40,
      "noteName": "E2",
      "velocity": 0.6062992125984252,
      "duration": "54i"
    },
    {
      "time": "8256i",
      "midiNote": 40,
      "noteName": "E2",
      "velocity": 0.7165354330708661,
      "duration": "118i"
    },
    {
      "time": "8256i",
      "midiNote": 47,
      "noteName": "B2",
      "velocity": 0.7165354330708661,
      "duration": "118i"
    },
    {
      "time": "8256i",
      "midiNote": 52,
      "noteName": "E3",
      "velocity": 0.7165354330708661,
      "duration": "118i"
    },
    {
      "time": "8384i",
      "midiNote": 40,
      "noteName": "E2",
      "velocity": 0.8582677165354331,
      "duration": "54i"
    },
    {
      "time": "8384i",
      "midiNote": 47,
      "noteName": "B2",
      "velocity": 0.8582677165354331,
      "duration": "54i"
    },
    {
      "time": "8384i",
      "midiNote": 52,
      "noteName": "E3",
      "velocity": 0.8582677165354331,
      "duration": "54i"
    },
    {
      "time": "8448i",
      "midiNote": 52,
      "noteName": "E3",
      "velocity": 1,
      "duration": "54i"
    },
    {
      "time": "8448i",
      "midiNote": 47,
      "noteName": "B2",
      "velocity": 1,
      "duration": "54i"
    },
    {
      "time": "8448i",
      "midiNote": 40,
      "noteName": "E2",
      "velocity": 1,
      "duration": "54i"
    },
    {
      "time": "8512i",
      "midiNote": 52,
      "noteName": "E3",
      "velocity": 0.7952755905511811,
      "duration": "54i"
    },
    {
      "time": "8512i",
      "midiNote": 47,
      "noteName": "B2",
      "velocity": 0.7952755905511811,
      "duration": "54i"
    },
    {
      "time": "8512i",
      "midiNote": 40,
      "noteName": "E2",
      "velocity": 0.7952755905511811,
      "duration": "54i"
    },
    {
      "time": "8576i",
      "midiNote": 52,
      "noteName": "E3",
      "velocity": 0.6062992125984252,
      "duration": "54i"
    },
    {
      "time": "8576i",
      "midiNote": 47,
      "noteName": "B2",
      "velocity": 0.6062992125984252,
      "duration": "54i"
    },
    {
      "time": "8576i",
      "midiNote": 40,
      "noteName": "E2",
      "velocity": 0.6062992125984252,
      "duration": "54i"
    },
    {
      "time": "8640i",
      "midiNote": 40,
      "noteName": "E2",
      "velocity": 0.7086614173228346,
      "duration": "118i"
    },
    {
      "time": "8640i",
      "midiNote": 47,
      "noteName": "B2",
      "velocity": 0.7086614173228346,
      "duration": "118i"
    },
    {
      "time": "8640i",
      "midiNote": 52,
      "noteName": "E3",
      "velocity": 0.7086614173228346,
      "duration": "118i"
    },
    {
      "time": "8768i",
      "midiNote": 40,
      "noteName": "E2",
      "velocity": 0.8740157480314961,
      "duration": "54i"
    },
    {
      "time": "8768i",
      "midiNote": 47,
      "noteName": "B2",
      "velocity": 0.8740157480314961,
      "duration": "54i"
    },
    {
      "time": "8768i",
      "midiNote": 52,
      "noteName": "E3",
      "velocity": 0.8740157480314961,
      "duration": "54i"
    },
    {
      "time": "8832i",
      "midiNote": 52,
      "noteName": "E3",
      "velocity": 1,
      "duration": "54i"
    },
    {
      "time": "8832i",
      "midiNote": 47,
      "noteName": "B2",
      "velocity": 1,
      "duration": "54i"
    },
    {
      "time": "8832i",
      "midiNote": 40,
      "noteName": "E2",
      "velocity": 1,
      "duration": "54i"
    },
    {
      "time": "8896i",
      "midiNote": 40,
      "noteName": "E2",
      "velocity": 0.7716535433070866,
      "duration": "54i"
    },
    {
      "time": "8896i",
      "midiNote": 47,
      "noteName": "B2",
      "velocity": 0.7716535433070866,
      "duration": "54i"
    },
    {
      "time": "8896i",
      "midiNote": 52,
      "noteName": "E3",
      "velocity": 0.7716535433070866,
      "duration": "54i"
    },
    {
      "time": "8960i",
      "midiNote": 52,
      "noteName": "E3",
      "velocity": 0.7086614173228346,
      "duration": "54i"
    },
    {
      "time": "8960i",
      "midiNote": 47,
      "noteName": "B2",
      "velocity": 0.7086614173228346,
      "duration": "54i"
    },
    {
      "time": "8960i",
      "midiNote": 40,
      "noteName": "E2",
      "velocity": 0.7086614173228346,
      "duration": "54i"
    },
    {
      "time": "9024i",
      "midiNote": 40,
      "noteName": "E2",
      "velocity": 0.8031496062992126,
      "duration": "54i"
    },
    {
      "time": "9024i",
      "midiNote": 47,
      "noteName": "B2",
      "velocity": 0.8031496062992126,
      "duration": "54i"
    },
    {
      "time": "9024i",
      "midiNote": 52,
      "noteName": "E3",
      "velocity": 0.8031496062992126,
      "duration": "54i"
    },
    {
      "time": "9088i",
      "midiNote": 52,
      "noteName": "E3",
      "velocity": 0.7952755905511811,
      "duration": "106i"
    },
    {
      "time": "9088i",
      "midiNote": 64,
      "noteName": "E4",
      "velocity": 0.7952755905511811,
      "duration": "106i"
    },
    {
      "time": "9088i",
      "midiNote": 47,
      "noteName": "B2",
      "velocity": 0.8031496062992126,
      "duration": "106i"
    },
    {
      "time": "9216i",
      "midiNote": 40,
      "noteName": "E2",
      "velocity": 1,
      "duration": "54i"
    },
    {
      "time": "9216i",
      "midiNote": 47,
      "noteName": "B2",
      "velocity": 1,
      "duration": "54i"
    },
    {
      "time": "9216i",
      "midiNote": 52,
      "noteName": "E3",
      "velocity": 1,
      "duration": "54i"
    },
    {
      "time": "9280i",
      "midiNote": 40,
      "noteName": "E2",
      "velocity": 0.7480314960629921,
      "duration": "54i"
    },
    {
      "time": "9280i",
      "midiNote": 47,
      "noteName": "B2",
      "velocity": 0.7480314960629921,
      "duration": "54i"
    },
    {
      "time": "9280i",
      "midiNote": 52,
      "noteName": "E3",
      "velocity": 0.7480314960629921,
      "duration": "54i"
    },
    {
      "time": "9344i",
      "midiNote": 52,
      "noteName": "E3",
      "velocity": 0.5826771653543307,
      "duration": "54i"
    },
    {
      "time": "9344i",
      "midiNote": 47,
      "noteName": "B2",
      "velocity": 0.5826771653543307,
      "duration": "54i"
    },
    {
      "time": "9344i",
      "midiNote": 40,
      "noteName": "E2",
      "velocity": 0.5826771653543307,
      "duration": "54i"
    },
    {
      "time": "9408i",
      "midiNote": 40,
      "noteName": "E2",
      "velocity": 0.7007874015748031,
      "duration": "118i"
    },
    {
      "time": "9408i",
      "midiNote": 47,
      "noteName": "B2",
      "velocity": 0.7007874015748031,
      "duration": "118i"
    },
    {
      "time": "9408i",
      "midiNote": 52,
      "noteName": "E3",
      "velocity": 0.7007874015748031,
      "duration": "118i"
    },
    {
      "time": "9536i",
      "midiNote": 52,
      "noteName": "E3",
      "velocity": 0.84251968503937,
      "duration": "54i"
    },
    {
      "time": "9536i",
      "midiNote": 47,
      "noteName": "B2",
      "velocity": 0.84251968503937,
      "duration": "54i"
    },
    {
      "time": "9536i",
      "midiNote": 40,
      "noteName": "E2",
      "velocity": 0.84251968503937,
      "duration": "54i"
    },
    {
      "time": "9600i",
      "midiNote": 40,
      "noteName": "E2",
      "velocity": 1,
      "duration": "54i"
    },
    {
      "time": "9600i",
      "midiNote": 47,
      "noteName": "B2",
      "velocity": 1,
      "duration": "54i"
    },
    {
      "time": "9600i",
      "midiNote": 52,
      "noteName": "E3",
      "velocity": 1,
      "duration": "54i"
    },
    {
      "time": "9664i",
      "midiNote": 40,
      "noteName": "E2",
      "velocity": 0.7401574803149606,
      "duration": "54i"
    },
    {
      "time": "9664i",
      "midiNote": 47,
      "noteName": "B2",
      "velocity": 0.7401574803149606,
      "duration": "54i"
    },
    {
      "time": "9664i",
      "midiNote": 52,
      "noteName": "E3",
      "velocity": 0.7401574803149606,
      "duration": "54i"
    },
    {
      "time": "9728i",
      "midiNote": 52,
      "noteName": "E3",
      "velocity": 0.6062992125984252,
      "duration": "54i"
    },
    {
      "time": "9728i",
      "midiNote": 47,
      "noteName": "B2",
      "velocity": 0.6062992125984252,
      "duration": "54i"
    },
    {
      "time": "9728i",
      "midiNote": 40,
      "noteName": "E2",
      "velocity": 0.6062992125984252,
      "duration": "54i"
    },
    {
      "time": "9792i",
      "midiNote": 40,
      "noteName": "E2",
      "velocity": 0.7165354330708661,
      "duration": "118i"
    },
    {
      "time": "9792i",
      "midiNote": 47,
      "noteName": "B2",
      "velocity": 0.7165354330708661,
      "duration": "118i"
    },
    {
      "time": "9792i",
      "midiNote": 52,
      "noteName": "E3",
      "velocity": 0.7165354330708661,
      "duration": "118i"
    },
    {
      "time": "9920i",
      "midiNote": 40,
      "noteName": "E2",
      "velocity": 0.8582677165354331,
      "duration": "54i"
    },
    {
      "time": "9920i",
      "midiNote": 47,
      "noteName": "B2",
      "velocity": 0.8582677165354331,
      "duration": "54i"
    },
    {
      "time": "9920i",
      "midiNote": 52,
      "noteName": "E3",
      "velocity": 0.8582677165354331,
      "duration": "54i"
    },
    {
      "time": "9984i",
      "midiNote": 52,
      "noteName": "E3",
      "velocity": 1,
      "duration": "54i"
    },
    {
      "time": "9984i",
      "midiNote": 47,
      "noteName": "B2",
      "velocity": 1,
      "duration": "54i"
    },
    {
      "time": "9984i",
      "midiNote": 40,
      "noteName": "E2",
      "velocity": 1,
      "duration": "54i"
    },
    {
      "time": "10048i",
      "midiNote": 52,
      "noteName": "E3",
      "velocity": 0.7952755905511811,
      "duration": "54i"
    },
    {
      "time": "10048i",
      "midiNote": 47,
      "noteName": "B2",
      "velocity": 0.7952755905511811,
      "duration": "54i"
    },
    {
      "time": "10048i",
      "midiNote": 40,
      "noteName": "E2",
      "velocity": 0.7952755905511811,
      "duration": "54i"
    },
    {
      "time": "10112i",
      "midiNote": 52,
      "noteName": "E3",
      "velocity": 0.6062992125984252,
      "duration": "54i"
    },
    {
      "time": "10112i",
      "midiNote": 47,
      "noteName": "B2",
      "velocity": 0.6062992125984252,
      "duration": "54i"
    },
    {
      "time": "10112i",
      "midiNote": 40,
      "noteName": "E2",
      "velocity": 0.6062992125984252,
      "duration": "54i"
    },
    {
      "time": "10176i",
      "midiNote": 40,
      "noteName": "E2",
      "velocity": 0.7086614173228346,
      "duration": "118i"
    },
    {
      "time": "10176i",
      "midiNote": 47,
      "noteName": "B2",
      "velocity": 0.7086614173228346,
      "duration": "118i"
    },
    {
      "time": "10176i",
      "midiNote": 52,
      "noteName": "E3",
      "velocity": 0.7086614173228346,
      "duration": "118i"
    },
    {
      "time": "10304i",
      "midiNote": 40,
      "noteName": "E2",
      "velocity": 0.8740157480314961,
      "duration": "54i"
    },
    {
      "time": "10304i",
      "midiNote": 47,
      "noteName": "B2",
      "velocity": 0.8740157480314961,
      "duration": "54i"
    },
    {
      "time": "10304i",
      "midiNote": 52,
      "noteName": "E3",
      "velocity": 0.8740157480314961,
      "duration": "54i"
    },
    {
      "time": "10368i",
      "midiNote": 52,
      "noteName": "E3",
      "velocity": 1,
      "duration": "54i"
    },
    {
      "time": "10368i",
      "midiNote": 47,
      "noteName": "B2",
      "velocity": 1,
      "duration": "54i"
    },
    {
      "time": "10368i",
      "midiNote": 40,
      "noteName": "E2",
      "velocity": 1,
      "duration": "54i"
    },
    {
      "time": "10432i",
      "midiNote": 40,
      "noteName": "E2",
      "velocity": 0.7716535433070866,
      "duration": "54i"
    },
    {
      "time": "10432i",
      "midiNote": 47,
      "noteName": "B2",
      "velocity": 0.7716535433070866,
      "duration": "54i"
    },
    {
      "time": "10432i",
      "midiNote": 52,
      "noteName": "E3",
      "velocity": 0.7716535433070866,
      "duration": "54i"
    },
    {
      "time": "10496i",
      "midiNote": 52,
      "noteName": "E3",
      "velocity": 0.7086614173228346,
      "duration": "54i"
    },
    {
      "time": "10496i",
      "midiNote": 47,
      "noteName": "B2",
      "velocity": 0.7086614173228346,
      "duration": "54i"
    },
    {
      "time": "10496i",
      "midiNote": 40,
      "noteName": "E2",
      "velocity": 0.7086614173228346,
      "duration": "54i"
    },
    {
      "time": "10560i",
      "midiNote": 40,
      "noteName": "E2",
      "velocity": 0.8031496062992126,
      "duration": "54i"
    },
    {
      "time": "10560i",
      "midiNote": 47,
      "noteName": "B2",
      "velocity": 0.8031496062992126,
      "duration": "54i"
    },
    {
      "time": "10560i",
      "midiNote": 52,
      "noteName": "E3",
      "velocity": 0.8031496062992126,
      "duration": "54i"
    },
    {
      "time": "10624i",
      "midiNote": 52,
      "noteName": "E3",
      "velocity": 0.7952755905511811,
      "duration": "106i"
    },
    {
      "time": "10624i",
      "midiNote": 64,
      "noteName": "E4",
      "velocity": 0.7952755905511811,
      "duration": "106i"
    },
    {
      "time": "10624i",
      "midiNote": 47,
      "noteName": "B2",
      "velocity": 0.8031496062992126,
      "duration": "106i"
    },
    {
      "time": "10752i",
      "midiNote": 40,
      "noteName": "E2",
      "velocity": 1,
      "duration": "54i"
    },
    {
      "time": "10752i",
      "midiNote": 47,
      "noteName": "B2",
      "velocity": 1,
      "duration": "54i"
    },
    {
      "time": "10752i",
      "midiNote": 52,
      "noteName": "E3",
      "velocity": 1,
      "duration": "54i"
    },
    {
      "time": "10816i",
      "midiNote": 40,
      "noteName": "E2",
      "velocity": 0.7480314960629921,
      "duration": "54i"
    },
    {
      "time": "10816i",
      "midiNote": 47,
      "noteName": "B2",
      "velocity": 0.7480314960629921,
      "duration": "54i"
    },
    {
      "time": "10816i",
      "midiNote": 52,
      "noteName": "E3",
      "velocity": 0.7480314960629921,
      "duration": "54i"
    },
    {
      "time": "10880i",
      "midiNote": 52,
      "noteName": "E3",
      "velocity": 0.5826771653543307,
      "duration": "54i"
    },
    {
      "time": "10880i",
      "midiNote": 47,
      "noteName": "B2",
      "velocity": 0.5826771653543307,
      "duration": "54i"
    },
    {
      "time": "10880i",
      "midiNote": 40,
      "noteName": "E2",
      "velocity": 0.5826771653543307,
      "duration": "54i"
    },
    {
      "time": "10944i",
      "midiNote": 40,
      "noteName": "E2",
      "velocity": 0.7007874015748031,
      "duration": "118i"
    },
    {
      "time": "10944i",
      "midiNote": 47,
      "noteName": "B2",
      "velocity": 0.7007874015748031,
      "duration": "118i"
    },
    {
      "time": "10944i",
      "midiNote": 52,
      "noteName": "E3",
      "velocity": 0.7007874015748031,
      "duration": "118i"
    },
    {
      "time": "11072i",
      "midiNote": 52,
      "noteName": "E3",
      "velocity": 0.84251968503937,
      "duration": "54i"
    },
    {
      "time": "11072i",
      "midiNote": 47,
      "noteName": "B2",
      "velocity": 0.84251968503937,
      "duration": "54i"
    },
    {
      "time": "11072i",
      "midiNote": 40,
      "noteName": "E2",
      "velocity": 0.84251968503937,
      "duration": "54i"
    },
    {
      "time": "11136i",
      "midiNote": 40,
      "noteName": "E2",
      "velocity": 1,
      "duration": "54i"
    },
    {
      "time": "11136i",
      "midiNote": 47,
      "noteName": "B2",
      "velocity": 1,
      "duration": "54i"
    },
    {
      "time": "11136i",
      "midiNote": 52,
      "noteName": "E3",
      "velocity": 1,
      "duration": "54i"
    },
    {
      "time": "11200i",
      "midiNote": 40,
      "noteName": "E2",
      "velocity": 0.7401574803149606,
      "duration": "54i"
    },
    {
      "time": "11200i",
      "midiNote": 47,
      "noteName": "B2",
      "velocity": 0.7401574803149606,
      "duration": "54i"
    },
    {
      "time": "11200i",
      "midiNote": 52,
      "noteName": "E3",
      "velocity": 0.7401574803149606,
      "duration": "54i"
    },
    {
      "time": "11264i",
      "midiNote": 52,
      "noteName": "E3",
      "velocity": 0.6062992125984252,
      "duration": "54i"
    },
    {
      "time": "11264i",
      "midiNote": 47,
      "noteName": "B2",
      "velocity": 0.6062992125984252,
      "duration": "54i"
    },
    {
      "time": "11264i",
      "midiNote": 40,
      "noteName": "E2",
      "velocity": 0.6062992125984252,
      "duration": "54i"
    },
    {
      "time": "11328i",
      "midiNote": 40,
      "noteName": "E2",
      "velocity": 0.7165354330708661,
      "duration": "118i"
    },
    {
      "time": "11328i",
      "midiNote": 47,
      "noteName": "B2",
      "velocity": 0.7165354330708661,
      "duration": "118i"
    },
    {
      "time": "11328i",
      "midiNote": 52,
      "noteName": "E3",
      "velocity": 0.7165354330708661,
      "duration": "118i"
    },
    {
      "time": "11456i",
      "midiNote": 40,
      "noteName": "E2",
      "velocity": 0.8582677165354331,
      "duration": "54i"
    },
    {
      "time": "11456i",
      "midiNote": 47,
      "noteName": "B2",
      "velocity": 0.8582677165354331,
      "duration": "54i"
    },
    {
      "time": "11456i",
      "midiNote": 52,
      "noteName": "E3",
      "velocity": 0.8582677165354331,
      "duration": "54i"
    },
    {
      "time": "11520i",
      "midiNote": 52,
      "noteName": "E3",
      "velocity": 1,
      "duration": "54i"
    },
    {
      "time": "11520i",
      "midiNote": 47,
      "noteName": "B2",
      "velocity": 1,
      "duration": "54i"
    },
    {
      "time": "11520i",
      "midiNote": 40,
      "noteName": "E2",
      "velocity": 1,
      "duration": "54i"
    },
    {
      "time": "11584i",
      "midiNote": 52,
      "noteName": "E3",
      "velocity": 0.7952755905511811,
      "duration": "54i"
    },
    {
      "time": "11584i",
      "midiNote": 47,
      "noteName": "B2",
      "velocity": 0.7952755905511811,
      "duration": "54i"
    },
    {
      "time": "11584i",
      "midiNote": 40,
      "noteName": "E2",
      "velocity": 0.7952755905511811,
      "duration": "54i"
    },
    {
      "time": "11648i",
      "midiNote": 52,
      "noteName": "E3",
      "velocity": 0.6062992125984252,
      "duration": "54i"
    },
    {
      "time": "11648i",
      "midiNote": 47,
      "noteName": "B2",
      "velocity": 0.6062992125984252,
      "duration": "54i"
    },
    {
      "time": "11648i",
      "midiNote": 40,
      "noteName": "E2",
      "velocity": 0.6062992125984252,
      "duration": "54i"
    },
    {
      "time": "11712i",
      "midiNote": 40,
      "noteName": "E2",
      "velocity": 0.7086614173228346,
      "duration": "118i"
    },
    {
      "time": "11712i",
      "midiNote": 47,
      "noteName": "B2",
      "velocity": 0.7086614173228346,
      "duration": "118i"
    },
    {
      "time": "11712i",
      "midiNote": 52,
      "noteName": "E3",
      "velocity": 0.7086614173228346,
      "duration": "118i"
    },
    {
      "time": "11840i",
      "midiNote": 40,
      "noteName": "E2",
      "velocity": 0.8740157480314961,
      "duration": "54i"
    },
    {
      "time": "11840i",
      "midiNote": 47,
      "noteName": "B2",
      "velocity": 0.8740157480314961,
      "duration": "54i"
    },
    {
      "time": "11840i",
      "midiNote": 52,
      "noteName": "E3",
      "velocity": 0.8740157480314961,
      "duration": "54i"
    },
    {
      "time": "11904i",
      "midiNote": 52,
      "noteName": "E3",
      "velocity": 1,
      "duration": "54i"
    },
    {
      "time": "11904i",
      "midiNote": 47,
      "noteName": "B2",
      "velocity": 1,
      "duration": "54i"
    },
    {
      "time": "11904i",
      "midiNote": 40,
      "noteName": "E2",
      "velocity": 1,
      "duration": "54i"
    },
    {
      "time": "11968i",
      "midiNote": 40,
      "noteName": "E2",
      "velocity": 0.7716535433070866,
      "duration": "54i"
    },
    {
      "time": "11968i",
      "midiNote": 47,
      "noteName": "B2",
      "velocity": 0.7716535433070866,
      "duration": "54i"
    },
    {
      "time": "11968i",
      "midiNote": 52,
      "noteName": "E3",
      "velocity": 0.7716535433070866,
      "duration": "54i"
    },
    {
      "time": "12032i",
      "midiNote": 52,
      "noteName": "E3",
      "velocity": 0.7086614173228346,
      "duration": "54i"
    },
    {
      "time": "12032i",
      "midiNote": 47,
      "noteName": "B2",
      "velocity": 0.7086614173228346,
      "duration": "54i"
    },
    {
      "time": "12032i",
      "midiNote": 40,
      "noteName": "E2",
      "velocity": 0.7086614173228346,
      "duration": "54i"
    },
    {
      "time": "12096i",
      "midiNote": 40,
      "noteName": "E2",
      "velocity": 0.8031496062992126,
      "duration": "54i"
    },
    {
      "time": "12096i",
      "midiNote": 47,
      "noteName": "B2",
      "velocity": 0.8031496062992126,
      "duration": "54i"
    },
    {
      "time": "12096i",
      "midiNote": 52,
      "noteName": "E3",
      "velocity": 0.8031496062992126,
      "duration": "54i"
    },
    {
      "time": "12160i",
      "midiNote": 52,
      "noteName": "E3",
      "velocity": 0.7952755905511811,
      "duration": "106i"
    },
    {
      "time": "12160i",
      "midiNote": 64,
      "noteName": "E4",
      "velocity": 0.7952755905511811,
      "duration": "106i"
    },
    {
      "time": "12160i",
      "midiNote": 47,
      "noteName": "B2",
      "velocity": 0.8031496062992126,
      "duration": "106i"
    },
    {
      "time": "12288i",
      "midiNote": 40,
      "noteName": "E2",
      "velocity": 1,
      "duration": "54i"
    },
    {
      "time": "12288i",
      "midiNote": 47,
      "noteName": "B2",
      "velocity": 1,
      "duration": "54i"
    },
    {
      "time": "12288i",
      "midiNote": 52,
      "noteName": "E3",
      "velocity": 1,
      "duration": "54i"
    },
    {
      "time": "12352i",
      "midiNote": 40,
      "noteName": "E2",
      "velocity": 0.7480314960629921,
      "duration": "54i"
    },
    {
      "time": "12352i",
      "midiNote": 47,
      "noteName": "B2",
      "velocity": 0.7480314960629921,
      "duration": "54i"
    },
    {
      "time": "12352i",
      "midiNote": 52,
      "noteName": "E3",
      "velocity": 0.7480314960629921,
      "duration": "54i"
    },
    {
      "time": "12416i",
      "midiNote": 52,
      "noteName": "E3",
      "velocity": 0.5826771653543307,
      "duration": "54i"
    },
    {
      "time": "12416i",
      "midiNote": 47,
      "noteName": "B2",
      "velocity": 0.5826771653543307,
      "duration": "54i"
    },
    {
      "time": "12416i",
      "midiNote": 40,
      "noteName": "E2",
      "velocity": 0.5826771653543307,
      "duration": "54i"
    },
    {
      "time": "12480i",
      "midiNote": 40,
      "noteName": "E2",
      "velocity": 0.7007874015748031,
      "duration": "118i"
    },
    {
      "time": "12480i",
      "midiNote": 47,
      "noteName": "B2",
      "velocity": 0.7007874015748031,
      "duration": "118i"
    },
    {
      "time": "12480i",
      "midiNote": 52,
      "noteName": "E3",
      "velocity": 0.7007874015748031,
      "duration": "118i"
    },
    {
      "time": "12608i",
      "midiNote": 52,
      "noteName": "E3",
      "velocity": 0.84251968503937,
      "duration": "54i"
    },
    {
      "time": "12608i",
      "midiNote": 47,
      "noteName": "B2",
      "velocity": 0.84251968503937,
      "duration": "54i"
    },
    {
      "time": "12608i",
      "midiNote": 40,
      "noteName": "E2",
      "velocity": 0.84251968503937,
      "duration": "54i"
    },
    {
      "time": "12672i",
      "midiNote": 40,
      "noteName": "E2",
      "velocity": 1,
      "duration": "54i"
    },
    {
      "time": "12672i",
      "midiNote": 47,
      "noteName": "B2",
      "velocity": 1,
      "duration": "54i"
    },
    {
      "time": "12672i",
      "midiNote": 52,
      "noteName": "E3",
      "velocity": 1,
      "duration": "54i"
    },
    {
      "time": "12736i",
      "midiNote": 40,
      "noteName": "E2",
      "velocity": 0.7401574803149606,
      "duration": "54i"
    },
    {
      "time": "12736i",
      "midiNote": 47,
      "noteName": "B2",
      "velocity": 0.7401574803149606,
      "duration": "54i"
    },
    {
      "time": "12736i",
      "midiNote": 52,
      "noteName": "E3",
      "velocity": 0.7401574803149606,
      "duration": "54i"
    },
    {
      "time": "12800i",
      "midiNote": 52,
      "noteName": "E3",
      "velocity": 0.6062992125984252,
      "duration": "54i"
    },
    {
      "time": "12800i",
      "midiNote": 47,
      "noteName": "B2",
      "velocity": 0.6062992125984252,
      "duration": "54i"
    },
    {
      "time": "12800i",
      "midiNote": 40,
      "noteName": "E2",
      "velocity": 0.6062992125984252,
      "duration": "54i"
    },
    {
      "time": "12864i",
      "midiNote": 40,
      "noteName": "E2",
      "velocity": 0.7165354330708661,
      "duration": "118i"
    },
    {
      "time": "12864i",
      "midiNote": 47,
      "noteName": "B2",
      "velocity": 0.7165354330708661,
      "duration": "118i"
    },
    {
      "time": "12864i",
      "midiNote": 52,
      "noteName": "E3",
      "velocity": 0.7165354330708661,
      "duration": "118i"
    },
    {
      "time": "12992i",
      "midiNote": 40,
      "noteName": "E2",
      "velocity": 0.8582677165354331,
      "duration": "54i"
    },
    {
      "time": "12992i",
      "midiNote": 47,
      "noteName": "B2",
      "velocity": 0.8582677165354331,
      "duration": "54i"
    },
    {
      "time": "12992i",
      "midiNote": 52,
      "noteName": "E3",
      "velocity": 0.8582677165354331,
      "duration": "54i"
    },
    {
      "time": "13056i",
      "midiNote": 52,
      "noteName": "E3",
      "velocity": 1,
      "duration": "54i"
    },
    {
      "time": "13056i",
      "midiNote": 47,
      "noteName": "B2",
      "velocity": 1,
      "duration": "54i"
    },
    {
      "time": "13056i",
      "midiNote": 40,
      "noteName": "E2",
      "velocity": 1,
      "duration": "54i"
    },
    {
      "time": "13120i",
      "midiNote": 52,
      "noteName": "E3",
      "velocity": 0.7952755905511811,
      "duration": "54i"
    },
    {
      "time": "13120i",
      "midiNote": 47,
      "noteName": "B2",
      "velocity": 0.7952755905511811,
      "duration": "54i"
    },
    {
      "time": "13120i",
      "midiNote": 40,
      "noteName": "E2",
      "velocity": 0.7952755905511811,
      "duration": "54i"
    },
    {
      "time": "13184i",
      "midiNote": 52,
      "noteName": "E3",
      "velocity": 0.6062992125984252,
      "duration": "54i"
    },
    {
      "time": "13184i",
      "midiNote": 47,
      "noteName": "B2",
      "velocity": 0.6062992125984252,
      "duration": "54i"
    },
    {
      "time": "13184i",
      "midiNote": 40,
      "noteName": "E2",
      "velocity": 0.6062992125984252,
      "duration": "54i"
    },
    {
      "time": "13248i",
      "midiNote": 40,
      "noteName": "E2",
      "velocity": 0.7086614173228346,
      "duration": "118i"
    },
    {
      "time": "13248i",
      "midiNote": 47,
      "noteName": "B2",
      "velocity": 0.7086614173228346,
      "duration": "118i"
    },
    {
      "time": "13248i",
      "midiNote": 52,
      "noteName": "E3",
      "velocity": 0.7086614173228346,
      "duration": "118i"
    },
    {
      "time": "13376i",
      "midiNote": 40,
      "noteName": "E2",
      "velocity": 0.8740157480314961,
      "duration": "54i"
    },
    {
      "time": "13376i",
      "midiNote": 47,
      "noteName": "B2",
      "velocity": 0.8740157480314961,
      "duration": "54i"
    },
    {
      "time": "13376i",
      "midiNote": 52,
      "noteName": "E3",
      "velocity": 0.8740157480314961,
      "duration": "54i"
    },
    {
      "time": "13440i",
      "midiNote": 52,
      "noteName": "E3",
      "velocity": 1,
      "duration": "54i"
    },
    {
      "time": "13440i",
      "midiNote": 47,
      "noteName": "B2",
      "velocity": 1,
      "duration": "54i"
    },
    {
      "time": "13440i",
      "midiNote": 40,
      "noteName": "E2",
      "velocity": 1,
      "duration": "54i"
    },
    {
      "time": "13504i",
      "midiNote": 40,
      "noteName": "E2",
      "velocity": 0.7716535433070866,
      "duration": "54i"
    },
    {
      "time": "13504i",
      "midiNote": 47,
      "noteName": "B2",
      "velocity": 0.7716535433070866,
      "duration": "54i"
    },
    {
      "time": "13504i",
      "midiNote": 52,
      "noteName": "E3",
      "velocity": 0.7716535433070866,
      "duration": "54i"
    },
    {
      "time": "13568i",
      "midiNote": 52,
      "noteName": "E3",
      "velocity": 0.7086614173228346,
      "duration": "54i"
    },
    {
      "time": "13568i",
      "midiNote": 47,
      "noteName": "B2",
      "velocity": 0.7086614173228346,
      "duration": "54i"
    },
    {
      "time": "13568i",
      "midiNote": 40,
      "noteName": "E2",
      "velocity": 0.7086614173228346,
      "duration": "54i"
    },
    {
      "time": "13632i",
      "midiNote": 40,
      "noteName": "E2",
      "velocity": 0.8031496062992126,
      "duration": "54i"
    },
    {
      "time": "13632i",
      "midiNote": 47,
      "noteName": "B2",
      "velocity": 0.8031496062992126,
      "duration": "54i"
    },
    {
      "time": "13632i",
      "midiNote": 52,
      "noteName": "E3",
      "velocity": 0.8031496062992126,
      "duration": "54i"
    },
    {
      "time": "13696i",
      "midiNote": 52,
      "noteName": "E3",
      "velocity": 0.7952755905511811,
      "duration": "106i"
    },
    {
      "time": "13696i",
      "midiNote": 64,
      "noteName": "E4",
      "velocity": 0.7952755905511811,
      "duration": "106i"
    },
    {
      "time": "13696i",
      "midiNote": 47,
      "noteName": "B2",
      "velocity": 0.8031496062992126,
      "duration": "106i"
    },
    {
      "time": "13824i",
      "midiNote": 40,
      "noteName": "E2",
      "velocity": 1,
      "duration": "54i"
    },
    {
      "time": "13824i",
      "midiNote": 47,
      "noteName": "B2",
      "velocity": 1,
      "duration": "54i"
    },
    {
      "time": "13824i",
      "midiNote": 52,
      "noteName": "E3",
      "velocity": 1,
      "duration": "54i"
    },
    {
      "time": "13888i",
      "midiNote": 40,
      "noteName": "E2",
      "velocity": 0.7480314960629921,
      "duration": "54i"
    },
    {
      "time": "13888i",
      "midiNote": 47,
      "noteName": "B2",
      "velocity": 0.7480314960629921,
      "duration": "54i"
    },
    {
      "time": "13888i",
      "midiNote": 52,
      "noteName": "E3",
      "velocity": 0.7480314960629921,
      "duration": "54i"
    },
    {
      "time": "13952i",
      "midiNote": 52,
      "noteName": "E3",
      "velocity": 0.5826771653543307,
      "duration": "54i"
    },
    {
      "time": "13952i",
      "midiNote": 47,
      "noteName": "B2",
      "velocity": 0.5826771653543307,
      "duration": "54i"
    },
    {
      "time": "13952i",
      "midiNote": 40,
      "noteName": "E2",
      "velocity": 0.5826771653543307,
      "duration": "54i"
    },
    {
      "time": "14016i",
      "midiNote": 40,
      "noteName": "E2",
      "velocity": 0.7007874015748031,
      "duration": "118i"
    },
    {
      "time": "14016i",
      "midiNote": 47,
      "noteName": "B2",
      "velocity": 0.7007874015748031,
      "duration": "118i"
    },
    {
      "time": "14016i",
      "midiNote": 52,
      "noteName": "E3",
      "velocity": 0.7007874015748031,
      "duration": "118i"
    },
    {
      "time": "14144i",
      "midiNote": 52,
      "noteName": "E3",
      "velocity": 0.84251968503937,
      "duration": "54i"
    },
    {
      "time": "14144i",
      "midiNote": 47,
      "noteName": "B2",
      "velocity": 0.84251968503937,
      "duration": "54i"
    },
    {
      "time": "14144i",
      "midiNote": 40,
      "noteName": "E2",
      "velocity": 0.84251968503937,
      "duration": "54i"
    },
    {
      "time": "14208i",
      "midiNote": 40,
      "noteName": "E2",
      "velocity": 1,
      "duration": "54i"
    },
    {
      "time": "14208i",
      "midiNote": 47,
      "noteName": "B2",
      "velocity": 1,
      "duration": "54i"
    },
    {
      "time": "14208i",
      "midiNote": 52,
      "noteName": "E3",
      "velocity": 1,
      "duration": "54i"
    },
    {
      "time": "14272i",
      "midiNote": 40,
      "noteName": "E2",
      "velocity": 0.7401574803149606,
      "duration": "54i"
    },
    {
      "time": "14272i",
      "midiNote": 47,
      "noteName": "B2",
      "velocity": 0.7401574803149606,
      "duration": "54i"
    },
    {
      "time": "14272i",
      "midiNote": 52,
      "noteName": "E3",
      "velocity": 0.7401574803149606,
      "duration": "54i"
    },
    {
      "time": "14336i",
      "midiNote": 52,
      "noteName": "E3",
      "velocity": 0.6062992125984252,
      "duration": "54i"
    },
    {
      "time": "14336i",
      "midiNote": 47,
      "noteName": "B2",
      "velocity": 0.6062992125984252,
      "duration": "54i"
    },
    {
      "time": "14336i",
      "midiNote": 40,
      "noteName": "E2",
      "velocity": 0.6062992125984252,
      "duration": "54i"
    },
    {
      "time": "14400i",
      "midiNote": 40,
      "noteName": "E2",
      "velocity": 0.7165354330708661,
      "duration": "118i"
    },
    {
      "time": "14400i",
      "midiNote": 47,
      "noteName": "B2",
      "velocity": 0.7165354330708661,
      "duration": "118i"
    },
    {
      "time": "14400i",
      "midiNote": 52,
      "noteName": "E3",
      "velocity": 0.7165354330708661,
      "duration": "118i"
    },
    {
      "time": "14528i",
      "midiNote": 40,
      "noteName": "E2",
      "velocity": 0.8582677165354331,
      "duration": "54i"
    },
    {
      "time": "14528i",
      "midiNote": 47,
      "noteName": "B2",
      "velocity": 0.8582677165354331,
      "duration": "54i"
    },
    {
      "time": "14528i",
      "midiNote": 52,
      "noteName": "E3",
      "velocity": 0.8582677165354331,
      "duration": "54i"
    },
    {
      "time": "14592i",
      "midiNote": 52,
      "noteName": "E3",
      "velocity": 1,
      "duration": "54i"
    },
    {
      "time": "14592i",
      "midiNote": 47,
      "noteName": "B2",
      "velocity": 1,
      "duration": "54i"
    },
    {
      "time": "14592i",
      "midiNote": 40,
      "noteName": "E2",
      "velocity": 1,
      "duration": "54i"
    },
    {
      "time": "14656i",
      "midiNote": 52,
      "noteName": "E3",
      "velocity": 0.7952755905511811,
      "duration": "54i"
    },
    {
      "time": "14656i",
      "midiNote": 47,
      "noteName": "B2",
      "velocity": 0.7952755905511811,
      "duration": "54i"
    },
    {
      "time": "14656i",
      "midiNote": 40,
      "noteName": "E2",
      "velocity": 0.7952755905511811,
      "duration": "54i"
    },
    {
      "time": "14720i",
      "midiNote": 52,
      "noteName": "E3",
      "velocity": 0.6062992125984252,
      "duration": "54i"
    },
    {
      "time": "14720i",
      "midiNote": 47,
      "noteName": "B2",
      "velocity": 0.6062992125984252,
      "duration": "54i"
    },
    {
      "time": "14720i",
      "midiNote": 40,
      "noteName": "E2",
      "velocity": 0.6062992125984252,
      "duration": "54i"
    },
    {
      "time": "14784i",
      "midiNote": 40,
      "noteName": "E2",
      "velocity": 0.7086614173228346,
      "duration": "118i"
    },
    {
      "time": "14784i",
      "midiNote": 47,
      "noteName": "B2",
      "velocity": 0.7086614173228346,
      "duration": "118i"
    },
    {
      "time": "14784i",
      "midiNote": 52,
      "noteName": "E3",
      "velocity": 0.7086614173228346,
      "duration": "118i"
    },
    {
      "time": "14912i",
      "midiNote": 40,
      "noteName": "E2",
      "velocity": 0.8740157480314961,
      "duration": "54i"
    },
    {
      "time": "14912i",
      "midiNote": 47,
      "noteName": "B2",
      "velocity": 0.8740157480314961,
      "duration": "54i"
    },
    {
      "time": "14912i",
      "midiNote": 52,
      "noteName": "E3",
      "velocity": 0.8740157480314961,
      "duration": "54i"
    },
    {
      "time": "14976i",
      "midiNote": 52,
      "noteName": "E3",
      "velocity": 1,
      "duration": "54i"
    },
    {
      "time": "14976i",
      "midiNote": 47,
      "noteName": "B2",
      "velocity": 1,
      "duration": "54i"
    },
    {
      "time": "14976i",
      "midiNote": 40,
      "noteName": "E2",
      "velocity": 1,
      "duration": "54i"
    },
    {
      "time": "15040i",
      "midiNote": 40,
      "noteName": "E2",
      "velocity": 0.7716535433070866,
      "duration": "54i"
    },
    {
      "time": "15040i",
      "midiNote": 47,
      "noteName": "B2",
      "velocity": 0.7716535433070866,
      "duration": "54i"
    },
    {
      "time": "15040i",
      "midiNote": 52,
      "noteName": "E3",
      "velocity": 0.7716535433070866,
      "duration": "54i"
    },
    {
      "time": "15104i",
      "midiNote": 52,
      "noteName": "E3",
      "velocity": 0.7086614173228346,
      "duration": "54i"
    },
    {
      "time": "15104i",
      "midiNote": 47,
      "noteName": "B2",
      "velocity": 0.7086614173228346,
      "duration": "54i"
    },
    {
      "time": "15104i",
      "midiNote": 40,
      "noteName": "E2",
      "velocity": 0.7086614173228346,
      "duration": "54i"
    },
    {
      "time": "15168i",
      "midiNote": 40,
      "noteName": "E2",
      "velocity": 0.8031496062992126,
      "duration": "54i"
    },
    {
      "time": "15168i",
      "midiNote": 47,
      "noteName": "B2",
      "velocity": 0.8031496062992126,
      "duration": "54i"
    },
    {
      "time": "15168i",
      "midiNote": 52,
      "noteName": "E3",
      "velocity": 0.8031496062992126,
      "duration": "54i"
    },
    {
      "time": "15232i",
      "midiNote": 52,
      "noteName": "E3",
      "velocity": 0.7952755905511811,
      "duration": "106i"
    },
    {
      "time": "15232i",
      "midiNote": 64,
      "noteName": "E4",
      "velocity": 0.7952755905511811,
      "duration": "106i"
    },
    {
      "time": "15232i",
      "midiNote": 47,
      "noteName": "B2",
      "velocity": 0.8031496062992126,
      "duration": "106i"
    },
    {
      "time": "15360i",
      "midiNote": 40,
      "noteName": "E2",
      "velocity": 1,
      "duration": "54i"
    },
    {
      "time": "15360i",
      "midiNote": 47,
      "noteName": "B2",
      "velocity": 1,
      "duration": "54i"
    },
    {
      "time": "15360i",
      "midiNote": 52,
      "noteName": "E3",
      "velocity": 1,
      "duration": "54i"
    },
    {
      "time": "15424i",
      "midiNote": 40,
      "noteName": "E2",
      "velocity": 0.7480314960629921,
      "duration": "54i"
    },
    {
      "time": "15424i",
      "midiNote": 47,
      "noteName": "B2",
      "velocity": 0.7480314960629921,
      "duration": "54i"
    },
    {
      "time": "15424i",
      "midiNote": 52,
      "noteName": "E3",
      "velocity": 0.7480314960629921,
      "duration": "54i"
    },
    {
      "time": "15488i",
      "midiNote": 52,
      "noteName": "E3",
      "velocity": 0.5826771653543307,
      "duration": "54i"
    },
    {
      "time": "15488i",
      "midiNote": 47,
      "noteName": "B2",
      "velocity": 0.5826771653543307,
      "duration": "54i"
    },
    {
      "time": "15488i",
      "midiNote": 40,
      "noteName": "E2",
      "velocity": 0.5826771653543307,
      "duration": "54i"
    },
    {
      "time": "15552i",
      "midiNote": 40,
      "noteName": "E2",
      "velocity": 0.7007874015748031,
      "duration": "118i"
    },
    {
      "time": "15552i",
      "midiNote": 47,
      "noteName": "B2",
      "velocity": 0.7007874015748031,
      "duration": "118i"
    },
    {
      "time": "15552i",
      "midiNote": 52,
      "noteName": "E3",
      "velocity": 0.7007874015748031,
      "duration": "118i"
    },
    {
      "time": "15680i",
      "midiNote": 52,
      "noteName": "E3",
      "velocity": 0.84251968503937,
      "duration": "54i"
    },
    {
      "time": "15680i",
      "midiNote": 47,
      "noteName": "B2",
      "velocity": 0.84251968503937,
      "duration": "54i"
    },
    {
      "time": "15680i",
      "midiNote": 40,
      "noteName": "E2",
      "velocity": 0.84251968503937,
      "duration": "54i"
    },
    {
      "time": "15744i",
      "midiNote": 52,
      "noteName": "E3",
      "velocity": 1,
      "duration": "54i"
    },
    {
      "time": "15744i",
      "midiNote": 47,
      "noteName": "B2",
      "velocity": 1,
      "duration": "54i"
    },
    {
      "time": "15744i",
      "midiNote": 40,
      "noteName": "E2",
      "velocity": 1,
      "duration": "54i"
    },
    {
      "time": "15808i",
      "midiNote": 40,
      "noteName": "E2",
      "velocity": 0.7716535433070866,
      "duration": "54i"
    },
    {
      "time": "15808i",
      "midiNote": 47,
      "noteName": "B2",
      "velocity": 0.7716535433070866,
      "duration": "54i"
    },
    {
      "time": "15808i",
      "midiNote": 52,
      "noteName": "E3",
      "velocity": 0.7716535433070866,
      "duration": "54i"
    },
    {
      "time": "15872i",
      "midiNote": 52,
      "noteName": "E3",
      "velocity": 0.7086614173228346,
      "duration": "54i"
    },
    {
      "time": "15872i",
      "midiNote": 47,
      "noteName": "B2",
      "velocity": 0.7086614173228346,
      "duration": "54i"
    },
    {
      "time": "15872i",
      "midiNote": 40,
      "noteName": "E2",
      "velocity": 0.7086614173228346,
      "duration": "54i"
    },
    {
      "time": "15936i",
      "midiNote": 52,
      "noteName": "E3",
      "velocity": 0.8031496062992126,
      "duration": "54i"
    },
    {
      "time": "15936i",
      "midiNote": 47,
      "noteName": "B2",
      "velocity": 0.8031496062992126,
      "duration": "54i"
    },
    {
      "time": "15936i",
      "midiNote": 40,
      "noteName": "E2",
      "velocity": 0.8031496062992126,
      "duration": "54i"
    },
    {
      "time": "16000i",
      "midiNote": 45,
      "noteName": "A2",
      "velocity": 0.8818897637795275,
      "duration": "60i"
    },
    {
      "time": "16000i",
      "midiNote": 52,
      "noteName": "E3",
      "velocity": 0.8818897637795275,
      "duration": "60i"
    },
    {
      "time": "16000i",
      "midiNote": 57,
      "noteName": "A3",
      "velocity": 0.7952755905511811,
      "duration": "58i"
    },
    {
      "time": "16064i",
      "midiNote": 40,
      "noteName": "E2",
      "velocity": 0.6141732283464567,
      "duration": "54i"
    },
    {
      "time": "16064i",
      "midiNote": 47,
      "noteName": "B2",
      "velocity": 0.6141732283464567,
      "duration": "54i"
    },
    {
      "time": "16064i",
      "midiNote": 52,
      "noteName": "E3",
      "velocity": 0.6141732283464567,
      "duration": "54i"
    },
    {
      "time": "16128i",
      "midiNote": 40,
      "noteName": "E2",
      "velocity": 1,
      "duration": "54i"
    },
    {
      "time": "16128i",
      "midiNote": 47,
      "noteName": "B2",
      "velocity": 1,
      "duration": "54i"
    },
    {
      "time": "16128i",
      "midiNote": 52,
      "noteName": "E3",
      "velocity": 1,
      "duration": "54i"
    },
    {
      "time": "16192i",
      "midiNote": 40,
      "noteName": "E2",
      "velocity": 0.7480314960629921,
      "duration": "54i"
    },
    {
      "time": "16192i",
      "midiNote": 47,
      "noteName": "B2",
      "velocity": 0.7480314960629921,
      "duration": "54i"
    },
    {
      "time": "16192i",
      "midiNote": 52,
      "noteName": "E3",
      "velocity": 0.7480314960629921,
      "duration": "54i"
    },
    {
      "time": "16256i",
      "midiNote": 52,
      "noteName": "E3",
      "velocity": 0.5826771653543307,
      "duration": "54i"
    },
    {
      "time": "16256i",
      "midiNote": 47,
      "noteName": "B2",
      "velocity": 0.5826771653543307,
      "duration": "54i"
    },
    {
      "time": "16256i",
      "midiNote": 40,
      "noteName": "E2",
      "velocity": 0.5826771653543307,
      "duration": "54i"
    },
    {
      "time": "16320i",
      "midiNote": 40,
      "noteName": "E2",
      "velocity": 0.7007874015748031,
      "duration": "118i"
    },
    {
      "time": "16320i",
      "midiNote": 47,
      "noteName": "B2",
      "velocity": 0.7007874015748031,
      "duration": "118i"
    },
    {
      "time": "16320i",
      "midiNote": 52,
      "noteName": "E3",
      "velocity": 0.7007874015748031,
      "duration": "118i"
    },
    {
      "time": "16448i",
      "midiNote": 52,
      "noteName": "E3",
      "velocity": 0.84251968503937,
      "duration": "54i"
    },
    {
      "time": "16448i",
      "midiNote": 47,
      "noteName": "B2",
      "velocity": 0.84251968503937,
      "duration": "54i"
    },
    {
      "time": "16448i",
      "midiNote": 40,
      "noteName": "E2",
      "velocity": 0.84251968503937,
      "duration": "54i"
    },
    {
      "time": "16512i",
      "midiNote": 52,
      "noteName": "E3",
      "velocity": 1,
      "duration": "54i"
    },
    {
      "time": "16512i",
      "midiNote": 47,
      "noteName": "B2",
      "velocity": 1,
      "duration": "54i"
    },
    {
      "time": "16512i",
      "midiNote": 40,
      "noteName": "E2",
      "velocity": 1,
      "duration": "54i"
    },
    {
      "time": "16576i",
      "midiNote": 40,
      "noteName": "E2",
      "velocity": 0.7716535433070866,
      "duration": "54i"
    },
    {
      "time": "16576i",
      "midiNote": 47,
      "noteName": "B2",
      "velocity": 0.7716535433070866,
      "duration": "54i"
    },
    {
      "time": "16576i",
      "midiNote": 52,
      "noteName": "E3",
      "velocity": 0.7716535433070866,
      "duration": "54i"
    },
    {
      "time": "16640i",
      "midiNote": 52,
      "noteName": "E3",
      "velocity": 0.7086614173228346,
      "duration": "54i"
    },
    {
      "time": "16640i",
      "midiNote": 47,
      "noteName": "B2",
      "velocity": 0.7086614173228346,
      "duration": "54i"
    },
    {
      "time": "16640i",
      "midiNote": 40,
      "noteName": "E2",
      "velocity": 0.7086614173228346,
      "duration": "54i"
    },
    {
      "time": "16704i",
      "midiNote": 52,
      "noteName": "E3",
      "velocity": 0.8031496062992126,
      "duration": "54i"
    },
    {
      "time": "16704i",
      "midiNote": 47,
      "noteName": "B2",
      "velocity": 0.8031496062992126,
      "duration": "54i"
    },
    {
      "time": "16704i",
      "midiNote": 40,
      "noteName": "E2",
      "velocity": 0.8031496062992126,
      "duration": "54i"
    },
    {
      "time": "16768i",
      "midiNote": 45,
      "noteName": "A2",
      "velocity": 0.8818897637795275,
      "duration": "60i"
    },
    {
      "time": "16768i",
      "midiNote": 52,
      "noteName": "E3",
      "velocity": 0.8818897637795275,
      "duration": "60i"
    },
    {
      "time": "16768i",
      "midiNote": 57,
      "noteName": "A3",
      "velocity": 0.7952755905511811,
      "duration": "58i"
    },
    {
      "time": "16832i",
      "midiNote": 40,
      "noteName": "E2",
      "velocity": 0.6141732283464567,
      "duration": "54i"
    },
    {
      "time": "16832i",
      "midiNote": 47,
      "noteName": "B2",
      "velocity": 0.6141732283464567,
      "duration": "54i"
    },
    {
      "time": "16832i",
      "midiNote": 52,
      "noteName": "E3",
      "velocity": 0.6141732283464567,
      "duration": "54i"
    },
    {
      "time": "16896i",
      "midiNote": 40,
      "noteName": "E2",
      "velocity": 1,
      "duration": "54i"
    },
    {
      "time": "16896i",
      "midiNote": 47,
      "noteName": "B2",
      "velocity": 1,
      "duration": "54i"
    },
    {
      "time": "16896i",
      "midiNote": 52,
      "noteName": "E3",
      "velocity": 1,
      "duration": "54i"
    },
    {
      "time": "16960i",
      "midiNote": 40,
      "noteName": "E2",
      "velocity": 0.7480314960629921,
      "duration": "54i"
    },
    {
      "time": "16960i",
      "midiNote": 47,
      "noteName": "B2",
      "velocity": 0.7480314960629921,
      "duration": "54i"
    },
    {
      "time": "16960i",
      "midiNote": 52,
      "noteName": "E3",
      "velocity": 0.7480314960629921,
      "duration": "54i"
    },
    {
      "time": "17024i",
      "midiNote": 52,
      "noteName": "E3",
      "velocity": 0.5826771653543307,
      "duration": "54i"
    },
    {
      "time": "17024i",
      "midiNote": 47,
      "noteName": "B2",
      "velocity": 0.5826771653543307,
      "duration": "54i"
    },
    {
      "time": "17024i",
      "midiNote": 40,
      "noteName": "E2",
      "velocity": 0.5826771653543307,
      "duration": "54i"
    },
    {
      "time": "17088i",
      "midiNote": 40,
      "noteName": "E2",
      "velocity": 0.7007874015748031,
      "duration": "118i"
    },
    {
      "time": "17088i",
      "midiNote": 47,
      "noteName": "B2",
      "velocity": 0.7007874015748031,
      "duration": "118i"
    },
    {
      "time": "17088i",
      "midiNote": 52,
      "noteName": "E3",
      "velocity": 0.7007874015748031,
      "duration": "118i"
    },
    {
      "time": "17216i",
      "midiNote": 52,
      "noteName": "E3",
      "velocity": 0.84251968503937,
      "duration": "54i"
    },
    {
      "time": "17216i",
      "midiNote": 47,
      "noteName": "B2",
      "velocity": 0.84251968503937,
      "duration": "54i"
    },
    {
      "time": "17216i",
      "midiNote": 40,
      "noteName": "E2",
      "velocity": 0.84251968503937,
      "duration": "54i"
    },
    {
      "time": "17280i",
      "midiNote": 52,
      "noteName": "E3",
      "velocity": 1,
      "duration": "54i"
    },
    {
      "time": "17280i",
      "midiNote": 47,
      "noteName": "B2",
      "velocity": 1,
      "duration": "54i"
    },
    {
      "time": "17280i",
      "midiNote": 40,
      "noteName": "E2",
      "velocity": 1,
      "duration": "54i"
    },
    {
      "time": "17344i",
      "midiNote": 40,
      "noteName": "E2",
      "velocity": 0.7716535433070866,
      "duration": "54i"
    },
    {
      "time": "17344i",
      "midiNote": 47,
      "noteName": "B2",
      "velocity": 0.7716535433070866,
      "duration": "54i"
    },
    {
      "time": "17344i",
      "midiNote": 52,
      "noteName": "E3",
      "velocity": 0.7716535433070866,
      "duration": "54i"
    },
    {
      "time": "17408i",
      "midiNote": 52,
      "noteName": "E3",
      "velocity": 0.7086614173228346,
      "duration": "54i"
    },
    {
      "time": "17408i",
      "midiNote": 47,
      "noteName": "B2",
      "velocity": 0.7086614173228346,
      "duration": "54i"
    },
    {
      "time": "17408i",
      "midiNote": 40,
      "noteName": "E2",
      "velocity": 0.7086614173228346,
      "duration": "54i"
    },
    {
      "time": "17472i",
      "midiNote": 52,
      "noteName": "E3",
      "velocity": 0.8031496062992126,
      "duration": "54i"
    },
    {
      "time": "17472i",
      "midiNote": 47,
      "noteName": "B2",
      "velocity": 0.8031496062992126,
      "duration": "54i"
    },
    {
      "time": "17472i",
      "midiNote": 40,
      "noteName": "E2",
      "velocity": 0.8031496062992126,
      "duration": "54i"
    },
    {
      "time": "17536i",
      "midiNote": 45,
      "noteName": "A2",
      "velocity": 0.8818897637795275,
      "duration": "60i"
    },
    {
      "time": "17536i",
      "midiNote": 52,
      "noteName": "E3",
      "velocity": 0.8818897637795275,
      "duration": "60i"
    },
    {
      "time": "17536i",
      "midiNote": 57,
      "noteName": "A3",
      "velocity": 0.7952755905511811,
      "duration": "58i"
    },
    {
      "time": "17600i",
      "midiNote": 40,
      "noteName": "E2",
      "velocity": 0.6141732283464567,
      "duration": "54i"
    },
    {
      "time": "17600i",
      "midiNote": 47,
      "noteName": "B2",
      "velocity": 0.6141732283464567,
      "duration": "54i"
    },
    {
      "time": "17600i",
      "midiNote": 52,
      "noteName": "E3",
      "velocity": 0.6141732283464567,
      "duration": "54i"
    },
    {
      "time": "17664i",
      "midiNote": 40,
      "noteName": "E2",
      "velocity": 1,
      "duration": "54i"
    },
    {
      "time": "17664i",
      "midiNote": 47,
      "noteName": "B2",
      "velocity": 1,
      "duration": "54i"
    },
    {
      "time": "17664i",
      "midiNote": 52,
      "noteName": "E3",
      "velocity": 1,
      "duration": "54i"
    },
    {
      "time": "17728i",
      "midiNote": 40,
      "noteName": "E2",
      "velocity": 0.7480314960629921,
      "duration": "54i"
    },
    {
      "time": "17728i",
      "midiNote": 47,
      "noteName": "B2",
      "velocity": 0.7480314960629921,
      "duration": "54i"
    },
    {
      "time": "17728i",
      "midiNote": 52,
      "noteName": "E3",
      "velocity": 0.7480314960629921,
      "duration": "54i"
    },
    {
      "time": "17792i",
      "midiNote": 52,
      "noteName": "E3",
      "velocity": 0.5826771653543307,
      "duration": "54i"
    },
    {
      "time": "17792i",
      "midiNote": 47,
      "noteName": "B2",
      "velocity": 0.5826771653543307,
      "duration": "54i"
    },
    {
      "time": "17792i",
      "midiNote": 40,
      "noteName": "E2",
      "velocity": 0.5826771653543307,
      "duration": "54i"
    },
    {
      "time": "17856i",
      "midiNote": 40,
      "noteName": "E2",
      "velocity": 0.7007874015748031,
      "duration": "118i"
    },
    {
      "time": "17856i",
      "midiNote": 47,
      "noteName": "B2",
      "velocity": 0.7007874015748031,
      "duration": "118i"
    },
    {
      "time": "17856i",
      "midiNote": 52,
      "noteName": "E3",
      "velocity": 0.7007874015748031,
      "duration": "118i"
    },
    {
      "time": "17984i",
      "midiNote": 52,
      "noteName": "E3",
      "velocity": 0.84251968503937,
      "duration": "54i"
    },
    {
      "time": "17984i",
      "midiNote": 47,
      "noteName": "B2",
      "velocity": 0.84251968503937,
      "duration": "54i"
    },
    {
      "time": "17984i",
      "midiNote": 40,
      "noteName": "E2",
      "velocity": 0.84251968503937,
      "duration": "54i"
    },
    {
      "time": "18048i",
      "midiNote": 52,
      "noteName": "E3",
      "velocity": 1,
      "duration": "54i"
    },
    {
      "time": "18048i",
      "midiNote": 47,
      "noteName": "B2",
      "velocity": 1,
      "duration": "54i"
    },
    {
      "time": "18048i",
      "midiNote": 40,
      "noteName": "E2",
      "velocity": 1,
      "duration": "54i"
    },
    {
      "time": "18112i",
      "midiNote": 40,
      "noteName": "E2",
      "velocity": 0.7716535433070866,
      "duration": "54i"
    },
    {
      "time": "18112i",
      "midiNote": 47,
      "noteName": "B2",
      "velocity": 0.7716535433070866,
      "duration": "54i"
    },
    {
      "time": "18112i",
      "midiNote": 52,
      "noteName": "E3",
      "velocity": 0.7716535433070866,
      "duration": "54i"
    },
    {
      "time": "18176i",
      "midiNote": 52,
      "noteName": "E3",
      "velocity": 0.7086614173228346,
      "duration": "54i"
    },
    {
      "time": "18176i",
      "midiNote": 47,
      "noteName": "B2",
      "velocity": 0.7086614173228346,
      "duration": "54i"
    },
    {
      "time": "18176i",
      "midiNote": 40,
      "noteName": "E2",
      "velocity": 0.7086614173228346,
      "duration": "54i"
    },
    {
      "time": "18240i",
      "midiNote": 54,
      "noteName": "F#3",
      "velocity": 1,
      "duration": "188i"
    },
    {
      "time": "18432i",
      "midiNote": 43,
      "noteName": "G2",
      "velocity": 1,
      "duration": "572i"
    },
    {
      "time": "18432i",
      "midiNote": 50,
      "noteName": "D3",
      "velocity": 1,
      "duration": "572i"
    },
    {
      "time": "18432i",
      "midiNote": 55,
      "noteName": "G3",
      "velocity": 1,
      "duration": "572i"
    },
    {
      "time": "18432i",
      "midiNote": 31,
      "noteName": "G1",
      "velocity": 1,
      "duration": "572i"
    },
    {
      "time": "19008i",
      "midiNote": 50,
      "noteName": "D3",
      "velocity": 1,
      "duration": "188i"
    },
    {
      "time": "19008i",
      "midiNote": 38,
      "noteName": "D2",
      "velocity": 1,
      "duration": "188i"
    },
    {
      "time": "19200i",
      "midiNote": 45,
      "noteName": "A2",
      "velocity": 1,
      "duration": "572i"
    },
    {
      "time": "19200i",
      "midiNote": 52,
      "noteName": "E3",
      "velocity": 1,
      "duration": "572i"
    },
    {
      "time": "19200i",
      "midiNote": 57,
      "noteName": "A3",
      "velocity": 1,
      "duration": "572i"
    },
    {
      "time": "19200i",
      "midiNote": 33,
      "noteName": "A1",
      "velocity": 1,
      "duration": "572i"
    },
    {
      "time": "19776i",
      "midiNote": 52,
      "noteName": "E3",
      "velocity": 0.9921259842519685,
      "duration": "188i"
    },
    {
      "time": "19776i",
      "midiNote": 40,
      "noteName": "E2",
      "velocity": 0.9921259842519685,
      "duration": "188i"
    },
    {
      "time": "19968i",
      "midiNote": 42,
      "noteName": "F#2",
      "velocity": 1,
      "duration": "764i"
    },
    {
      "time": "19968i",
      "midiNote": 49,
      "noteName": "C#3",
      "velocity": 1,
      "duration": "764i"
    },
    {
      "time": "19968i",
      "midiNote": 54,
      "noteName": "F#3",
      "velocity": 1,
      "duration": "764i"
    },
    {
      "time": "19968i",
      "midiNote": 30,
      "noteName": "F#1",
      "velocity": 1,
      "duration": "764i"
    },
    {
      "time": "20736i",
      "midiNote": 66,
      "noteName": "F#4",
      "velocity": 1,
      "duration": "572i"
    },
    {
      "time": "20736i",
      "midiNote": 59,
      "noteName": "B3",
      "velocity": 1,
      "duration": "572i"
    },
    {
      "time": "20736i",
      "midiNote": 54,
      "noteName": "F#3",
      "velocity": 1,
      "duration": "572i"
    },
    {
      "time": "20736i",
      "midiNote": 42,
      "noteName": "F#2",
      "velocity": 1,
      "duration": "572i"
    },
    {
      "time": "21312i",
      "midiNote": 43,
      "noteName": "G2",
      "velocity": 0.84251968503937,
      "duration": "188i"
    },
    {
      "time": "21312i",
      "midiNote": 31,
      "noteName": "G1",
      "velocity": 0.84251968503937,
      "duration": "188i"
    },
    {
      "time": "21312i",
      "midiNote": 55,
      "noteName": "G3",
      "velocity": 1,
      "duration": "188i"
    },
    {
      "time": "27264i",
      "midiNote": 45,
      "noteName": "A2",
      "velocity": 1,
      "duration": "252i"
    },
    {
      "time": "27264i",
      "midiNote": 33,
      "noteName": "A1",
      "velocity": 1,
      "duration": "252i"
    }
  ],
  [
    {
      "time": "1352i",
      "midiNote": 42,
      "noteName": "F#2",
      "velocity": 1,
      "duration": "188i"
    },
    {
      "time": "1352i",
      "midiNote": 54,
      "noteName": "F#3",
      "velocity": 1,
      "duration": "186i"
    },
    {
      "time": "1544i",
      "midiNote": 40,
      "noteName": "E2",
      "velocity": 0.984251968503937,
      "duration": "1234i"
    },
    {
      "time": "1544i",
      "midiNote": 47,
      "noteName": "B2",
      "velocity": 0.984251968503937,
      "duration": "1246i"
    },
    {
      "time": "2824i",
      "midiNote": 47,
      "noteName": "B2",
      "velocity": 0.984251968503937,
      "duration": "54i"
    },
    {
      "time": "2888i",
      "midiNote": 57,
      "noteName": "A3",
      "velocity": 0.905511811023622,
      "duration": "54i"
    },
    {
      "time": "2888i",
      "midiNote": 43,
      "noteName": "G2",
      "velocity": 0.905511811023622,
      "duration": "58i"
    },
    {
      "time": "2952i",
      "midiNote": 47,
      "noteName": "B2",
      "velocity": 0.9448818897637795,
      "duration": "58i"
    },
    {
      "time": "2952i",
      "midiNote": 55,
      "noteName": "G3",
      "velocity": 0.9448818897637795,
      "duration": "54i"
    },
    {
      "time": "3016i",
      "midiNote": 43,
      "noteName": "G2",
      "velocity": 0.9763779527559056,
      "duration": "58i"
    },
    {
      "time": "3016i",
      "midiNote": 54,
      "noteName": "F#3",
      "velocity": 0.9763779527559056,
      "duration": "54i"
    },
    {
      "time": "3080i",
      "midiNote": 52,
      "noteName": "E3",
      "velocity": 1,
      "duration": "54i"
    },
    {
      "time": "3080i",
      "midiNote": 47,
      "noteName": "B2",
      "velocity": 1,
      "duration": "54i"
    },
    {
      "time": "3080i",
      "midiNote": 40,
      "noteName": "E2",
      "velocity": 1,
      "duration": "54i"
    },
    {
      "time": "3144i",
      "midiNote": 52,
      "noteName": "E3",
      "velocity": 0.7480314960629921,
      "duration": "54i"
    },
    {
      "time": "3144i",
      "midiNote": 47,
      "noteName": "B2",
      "velocity": 0.7480314960629921,
      "duration": "54i"
    },
    {
      "time": "3144i",
      "midiNote": 40,
      "noteName": "E2",
      "velocity": 0.7480314960629921,
      "duration": "54i"
    },
    {
      "time": "3208i",
      "midiNote": 40,
      "noteName": "E2",
      "velocity": 0.5826771653543307,
      "duration": "54i"
    },
    {
      "time": "3208i",
      "midiNote": 47,
      "noteName": "B2",
      "velocity": 0.5826771653543307,
      "duration": "54i"
    },
    {
      "time": "3208i",
      "midiNote": 52,
      "noteName": "E3",
      "velocity": 0.5826771653543307,
      "duration": "54i"
    },
    {
      "time": "3272i",
      "midiNote": 52,
      "noteName": "E3",
      "velocity": 0.7007874015748031,
      "duration": "118i"
    },
    {
      "time": "3272i",
      "midiNote": 47,
      "noteName": "B2",
      "velocity": 0.7007874015748031,
      "duration": "118i"
    },
    {
      "time": "3272i",
      "midiNote": 40,
      "noteName": "E2",
      "velocity": 0.7007874015748031,
      "duration": "118i"
    },
    {
      "time": "3400i",
      "midiNote": 40,
      "noteName": "E2",
      "velocity": 0.84251968503937,
      "duration": "54i"
    },
    {
      "time": "3400i",
      "midiNote": 47,
      "noteName": "B2",
      "velocity": 0.84251968503937,
      "duration": "54i"
    },
    {
      "time": "3400i",
      "midiNote": 52,
      "noteName": "E3",
      "velocity": 0.84251968503937,
      "duration": "54i"
    },
    {
      "time": "3464i",
      "midiNote": 52,
      "noteName": "E3",
      "velocity": 1,
      "duration": "54i"
    },
    {
      "time": "3464i",
      "midiNote": 47,
      "noteName": "B2",
      "velocity": 1,
      "duration": "54i"
    },
    {
      "time": "3464i",
      "midiNote": 40,
      "noteName": "E2",
      "velocity": 1,
      "duration": "54i"
    },
    {
      "time": "3528i",
      "midiNote": 52,
      "noteName": "E3",
      "velocity": 0.7401574803149606,
      "duration": "54i"
    },
    {
      "time": "3528i",
      "midiNote": 47,
      "noteName": "B2",
      "velocity": 0.7401574803149606,
      "duration": "54i"
    },
    {
      "time": "3528i",
      "midiNote": 40,
      "noteName": "E2",
      "velocity": 0.7401574803149606,
      "duration": "54i"
    },
    {
      "time": "3592i",
      "midiNote": 40,
      "noteName": "E2",
      "velocity": 0.6062992125984252,
      "duration": "54i"
    },
    {
      "time": "3592i",
      "midiNote": 47,
      "noteName": "B2",
      "velocity": 0.6062992125984252,
      "duration": "54i"
    },
    {
      "time": "3592i",
      "midiNote": 52,
      "noteName": "E3",
      "velocity": 0.6062992125984252,
      "duration": "54i"
    },
    {
      "time": "3656i",
      "midiNote": 52,
      "noteName": "E3",
      "velocity": 0.7165354330708661,
      "duration": "118i"
    },
    {
      "time": "3656i",
      "midiNote": 47,
      "noteName": "B2",
      "velocity": 0.7165354330708661,
      "duration": "118i"
    },
    {
      "time": "3656i",
      "midiNote": 40,
      "noteName": "E2",
      "velocity": 0.7165354330708661,
      "duration": "118i"
    },
    {
      "time": "3784i",
      "midiNote": 52,
      "noteName": "E3",
      "velocity": 0.8582677165354331,
      "duration": "54i"
    },
    {
      "time": "3784i",
      "midiNote": 47,
      "noteName": "B2",
      "velocity": 0.8582677165354331,
      "duration": "54i"
    },
    {
      "time": "3784i",
      "midiNote": 40,
      "noteName": "E2",
      "velocity": 0.8582677165354331,
      "duration": "54i"
    },
    {
      "time": "3848i",
      "midiNote": 40,
      "noteName": "E2",
      "velocity": 1,
      "duration": "54i"
    },
    {
      "time": "3848i",
      "midiNote": 47,
      "noteName": "B2",
      "velocity": 1,
      "duration": "54i"
    },
    {
      "time": "3848i",
      "midiNote": 52,
      "noteName": "E3",
      "velocity": 1,
      "duration": "54i"
    },
    {
      "time": "3912i",
      "midiNote": 40,
      "noteName": "E2",
      "velocity": 0.7952755905511811,
      "duration": "54i"
    },
    {
      "time": "3912i",
      "midiNote": 47,
      "noteName": "B2",
      "velocity": 0.7952755905511811,
      "duration": "54i"
    },
    {
      "time": "3912i",
      "midiNote": 52,
      "noteName": "E3",
      "velocity": 0.7952755905511811,
      "duration": "54i"
    },
    {
      "time": "3976i",
      "midiNote": 40,
      "noteName": "E2",
      "velocity": 0.6062992125984252,
      "duration": "54i"
    },
    {
      "time": "3976i",
      "midiNote": 47,
      "noteName": "B2",
      "velocity": 0.6062992125984252,
      "duration": "54i"
    },
    {
      "time": "3976i",
      "midiNote": 52,
      "noteName": "E3",
      "velocity": 0.6062992125984252,
      "duration": "54i"
    },
    {
      "time": "4040i",
      "midiNote": 52,
      "noteName": "E3",
      "velocity": 0.7086614173228346,
      "duration": "118i"
    },
    {
      "time": "4040i",
      "midiNote": 47,
      "noteName": "B2",
      "velocity": 0.7086614173228346,
      "duration": "118i"
    },
    {
      "time": "4040i",
      "midiNote": 40,
      "noteName": "E2",
      "velocity": 0.7086614173228346,
      "duration": "118i"
    },
    {
      "time": "4168i",
      "midiNote": 52,
      "noteName": "E3",
      "velocity": 0.8740157480314961,
      "duration": "54i"
    },
    {
      "time": "4168i",
      "midiNote": 47,
      "noteName": "B2",
      "velocity": 0.8740157480314961,
      "duration": "54i"
    },
    {
      "time": "4168i",
      "midiNote": 40,
      "noteName": "E2",
      "velocity": 0.8740157480314961,
      "duration": "54i"
    },
    {
      "time": "4232i",
      "midiNote": 40,
      "noteName": "E2",
      "velocity": 1,
      "duration": "54i"
    },
    {
      "time": "4232i",
      "midiNote": 47,
      "noteName": "B2",
      "velocity": 1,
      "duration": "54i"
    },
    {
      "time": "4232i",
      "midiNote": 52,
      "noteName": "E3",
      "velocity": 1,
      "duration": "54i"
    },
    {
      "time": "4296i",
      "midiNote": 52,
      "noteName": "E3",
      "velocity": 0.7716535433070866,
      "duration": "54i"
    },
    {
      "time": "4296i",
      "midiNote": 47,
      "noteName": "B2",
      "velocity": 0.7716535433070866,
      "duration": "54i"
    },
    {
      "time": "4296i",
      "midiNote": 40,
      "noteName": "E2",
      "velocity": 0.7716535433070866,
      "duration": "54i"
    },
    {
      "time": "4360i",
      "midiNote": 40,
      "noteName": "E2",
      "velocity": 0.7086614173228346,
      "duration": "54i"
    },
    {
      "time": "4360i",
      "midiNote": 47,
      "noteName": "B2",
      "velocity": 0.7086614173228346,
      "duration": "54i"
    },
    {
      "time": "4360i",
      "midiNote": 52,
      "noteName": "E3",
      "velocity": 0.7086614173228346,
      "duration": "54i"
    },
    {
      "time": "4424i",
      "midiNote": 52,
      "noteName": "E3",
      "velocity": 0.8031496062992126,
      "duration": "54i"
    },
    {
      "time": "4424i",
      "midiNote": 47,
      "noteName": "B2",
      "velocity": 0.8031496062992126,
      "duration": "54i"
    },
    {
      "time": "4424i",
      "midiNote": 40,
      "noteName": "E2",
      "velocity": 0.8031496062992126,
      "duration": "54i"
    },
    {
      "time": "4488i",
      "midiNote": 47,
      "noteName": "B2",
      "velocity": 0.8031496062992126,
      "duration": "106i"
    },
    {
      "time": "4488i",
      "midiNote": 64,
      "noteName": "E4",
      "velocity": 0.7952755905511811,
      "duration": "106i"
    },
    {
      "time": "4488i",
      "midiNote": 52,
      "noteName": "E3",
      "velocity": 0.7952755905511811,
      "duration": "106i"
    },
    {
      "time": "4616i",
      "midiNote": 52,
      "noteName": "E3",
      "velocity": 1,
      "duration": "54i"
    },
    {
      "time": "4616i",
      "midiNote": 47,
      "noteName": "B2",
      "velocity": 1,
      "duration": "54i"
    },
    {
      "time": "4616i",
      "midiNote": 40,
      "noteName": "E2",
      "velocity": 1,
      "duration": "54i"
    },
    {
      "time": "4680i",
      "midiNote": 52,
      "noteName": "E3",
      "velocity": 0.7480314960629921,
      "duration": "54i"
    },
    {
      "time": "4680i",
      "midiNote": 47,
      "noteName": "B2",
      "velocity": 0.7480314960629921,
      "duration": "54i"
    },
    {
      "time": "4680i",
      "midiNote": 40,
      "noteName": "E2",
      "velocity": 0.7480314960629921,
      "duration": "54i"
    },
    {
      "time": "4744i",
      "midiNote": 40,
      "noteName": "E2",
      "velocity": 0.5826771653543307,
      "duration": "54i"
    },
    {
      "time": "4744i",
      "midiNote": 47,
      "noteName": "B2",
      "velocity": 0.5826771653543307,
      "duration": "54i"
    },
    {
      "time": "4744i",
      "midiNote": 52,
      "noteName": "E3",
      "velocity": 0.5826771653543307,
      "duration": "54i"
    },
    {
      "time": "4808i",
      "midiNote": 52,
      "noteName": "E3",
      "velocity": 0.7007874015748031,
      "duration": "118i"
    },
    {
      "time": "4808i",
      "midiNote": 47,
      "noteName": "B2",
      "velocity": 0.7007874015748031,
      "duration": "118i"
    },
    {
      "time": "4808i",
      "midiNote": 40,
      "noteName": "E2",
      "velocity": 0.7007874015748031,
      "duration": "118i"
    },
    {
      "time": "4936i",
      "midiNote": 40,
      "noteName": "E2",
      "velocity": 0.84251968503937,
      "duration": "54i"
    },
    {
      "time": "4936i",
      "midiNote": 47,
      "noteName": "B2",
      "velocity": 0.84251968503937,
      "duration": "54i"
    },
    {
      "time": "4936i",
      "midiNote": 52,
      "noteName": "E3",
      "velocity": 0.84251968503937,
      "duration": "54i"
    },
    {
      "time": "5000i",
      "midiNote": 52,
      "noteName": "E3",
      "velocity": 1,
      "duration": "54i"
    },
    {
      "time": "5000i",
      "midiNote": 47,
      "noteName": "B2",
      "velocity": 1,
      "duration": "54i"
    },
    {
      "time": "5000i",
      "midiNote": 40,
      "noteName": "E2",
      "velocity": 1,
      "duration": "54i"
    },
    {
      "time": "5064i",
      "midiNote": 52,
      "noteName": "E3",
      "velocity": 0.7401574803149606,
      "duration": "54i"
    },
    {
      "time": "5064i",
      "midiNote": 47,
      "noteName": "B2",
      "velocity": 0.7401574803149606,
      "duration": "54i"
    },
    {
      "time": "5064i",
      "midiNote": 40,
      "noteName": "E2",
      "velocity": 0.7401574803149606,
      "duration": "54i"
    },
    {
      "time": "5128i",
      "midiNote": 40,
      "noteName": "E2",
      "velocity": 0.6062992125984252,
      "duration": "54i"
    },
    {
      "time": "5128i",
      "midiNote": 47,
      "noteName": "B2",
      "velocity": 0.6062992125984252,
      "duration": "54i"
    },
    {
      "time": "5128i",
      "midiNote": 52,
      "noteName": "E3",
      "velocity": 0.6062992125984252,
      "duration": "54i"
    },
    {
      "time": "5192i",
      "midiNote": 52,
      "noteName": "E3",
      "velocity": 0.7165354330708661,
      "duration": "118i"
    },
    {
      "time": "5192i",
      "midiNote": 47,
      "noteName": "B2",
      "velocity": 0.7165354330708661,
      "duration": "118i"
    },
    {
      "time": "5192i",
      "midiNote": 40,
      "noteName": "E2",
      "velocity": 0.7165354330708661,
      "duration": "118i"
    },
    {
      "time": "5320i",
      "midiNote": 52,
      "noteName": "E3",
      "velocity": 0.8582677165354331,
      "duration": "54i"
    },
    {
      "time": "5320i",
      "midiNote": 47,
      "noteName": "B2",
      "velocity": 0.8582677165354331,
      "duration": "54i"
    },
    {
      "time": "5320i",
      "midiNote": 40,
      "noteName": "E2",
      "velocity": 0.8582677165354331,
      "duration": "54i"
    },
    {
      "time": "5384i",
      "midiNote": 40,
      "noteName": "E2",
      "velocity": 1,
      "duration": "54i"
    },
    {
      "time": "5384i",
      "midiNote": 47,
      "noteName": "B2",
      "velocity": 1,
      "duration": "54i"
    },
    {
      "time": "5384i",
      "midiNote": 52,
      "noteName": "E3",
      "velocity": 1,
      "duration": "54i"
    },
    {
      "time": "5448i",
      "midiNote": 40,
      "noteName": "E2",
      "velocity": 0.7952755905511811,
      "duration": "54i"
    },
    {
      "time": "5448i",
      "midiNote": 47,
      "noteName": "B2",
      "velocity": 0.7952755905511811,
      "duration": "54i"
    },
    {
      "time": "5448i",
      "midiNote": 52,
      "noteName": "E3",
      "velocity": 0.7952755905511811,
      "duration": "54i"
    },
    {
      "time": "5512i",
      "midiNote": 40,
      "noteName": "E2",
      "velocity": 0.6062992125984252,
      "duration": "54i"
    },
    {
      "time": "5512i",
      "midiNote": 47,
      "noteName": "B2",
      "velocity": 0.6062992125984252,
      "duration": "54i"
    },
    {
      "time": "5512i",
      "midiNote": 52,
      "noteName": "E3",
      "velocity": 0.6062992125984252,
      "duration": "54i"
    },
    {
      "time": "5576i",
      "midiNote": 52,
      "noteName": "E3",
      "velocity": 0.7086614173228346,
      "duration": "118i"
    },
    {
      "time": "5576i",
      "midiNote": 47,
      "noteName": "B2",
      "velocity": 0.7086614173228346,
      "duration": "118i"
    },
    {
      "time": "5576i",
      "midiNote": 40,
      "noteName": "E2",
      "velocity": 0.7086614173228346,
      "duration": "118i"
    },
    {
      "time": "5704i",
      "midiNote": 52,
      "noteName": "E3",
      "velocity": 0.8740157480314961,
      "duration": "54i"
    },
    {
      "time": "5704i",
      "midiNote": 47,
      "noteName": "B2",
      "velocity": 0.8740157480314961,
      "duration": "54i"
    },
    {
      "time": "5704i",
      "midiNote": 40,
      "noteName": "E2",
      "velocity": 0.8740157480314961,
      "duration": "54i"
    },
    {
      "time": "5768i",
      "midiNote": 40,
      "noteName": "E2",
      "velocity": 1,
      "duration": "54i"
    },
    {
      "time": "5768i",
      "midiNote": 47,
      "noteName": "B2",
      "velocity": 1,
      "duration": "54i"
    },
    {
      "time": "5768i",
      "midiNote": 52,
      "noteName": "E3",
      "velocity": 1,
      "duration": "54i"
    },
    {
      "time": "5832i",
      "midiNote": 52,
      "noteName": "E3",
      "velocity": 0.7716535433070866,
      "duration": "54i"
    },
    {
      "time": "5832i",
      "midiNote": 47,
      "noteName": "B2",
      "velocity": 0.7716535433070866,
      "duration": "54i"
    },
    {
      "time": "5832i",
      "midiNote": 40,
      "noteName": "E2",
      "velocity": 0.7716535433070866,
      "duration": "54i"
    },
    {
      "time": "5896i",
      "midiNote": 40,
      "noteName": "E2",
      "velocity": 0.7086614173228346,
      "duration": "54i"
    },
    {
      "time": "5896i",
      "midiNote": 47,
      "noteName": "B2",
      "velocity": 0.7086614173228346,
      "duration": "54i"
    },
    {
      "time": "5896i",
      "midiNote": 52,
      "noteName": "E3",
      "velocity": 0.7086614173228346,
      "duration": "54i"
    },
    {
      "time": "5960i",
      "midiNote": 52,
      "noteName": "E3",
      "velocity": 0.8031496062992126,
      "duration": "54i"
    },
    {
      "time": "5960i",
      "midiNote": 47,
      "noteName": "B2",
      "velocity": 0.8031496062992126,
      "duration": "54i"
    },
    {
      "time": "5960i",
      "midiNote": 40,
      "noteName": "E2",
      "velocity": 0.8031496062992126,
      "duration": "54i"
    },
    {
      "time": "6024i",
      "midiNote": 47,
      "noteName": "B2",
      "velocity": 0.8031496062992126,
      "duration": "106i"
    },
    {
      "time": "6024i",
      "midiNote": 64,
      "noteName": "E4",
      "velocity": 0.7952755905511811,
      "duration": "106i"
    },
    {
      "time": "6024i",
      "midiNote": 52,
      "noteName": "E3",
      "velocity": 0.7952755905511811,
      "duration": "106i"
    },
    {
      "time": "6152i",
      "midiNote": 52,
      "noteName": "E3",
      "velocity": 1,
      "duration": "54i"
    },
    {
      "time": "6152i",
      "midiNote": 47,
      "noteName": "B2",
      "velocity": 1,
      "duration": "54i"
    },
    {
      "time": "6152i",
      "midiNote": 40,
      "noteName": "E2",
      "velocity": 1,
      "duration": "54i"
    },
    {
      "time": "6216i",
      "midiNote": 52,
      "noteName": "E3",
      "velocity": 0.7480314960629921,
      "duration": "54i"
    },
    {
      "time": "6216i",
      "midiNote": 47,
      "noteName": "B2",
      "velocity": 0.7480314960629921,
      "duration": "54i"
    },
    {
      "time": "6216i",
      "midiNote": 40,
      "noteName": "E2",
      "velocity": 0.7480314960629921,
      "duration": "54i"
    },
    {
      "time": "6280i",
      "midiNote": 40,
      "noteName": "E2",
      "velocity": 0.5826771653543307,
      "duration": "54i"
    },
    {
      "time": "6280i",
      "midiNote": 47,
      "noteName": "B2",
      "velocity": 0.5826771653543307,
      "duration": "54i"
    },
    {
      "time": "6280i",
      "midiNote": 52,
      "noteName": "E3",
      "velocity": 0.5826771653543307,
      "duration": "54i"
    },
    {
      "time": "6344i",
      "midiNote": 52,
      "noteName": "E3",
      "velocity": 0.7007874015748031,
      "duration": "118i"
    },
    {
      "time": "6344i",
      "midiNote": 47,
      "noteName": "B2",
      "velocity": 0.7007874015748031,
      "duration": "118i"
    },
    {
      "time": "6344i",
      "midiNote": 40,
      "noteName": "E2",
      "velocity": 0.7007874015748031,
      "duration": "118i"
    },
    {
      "time": "6472i",
      "midiNote": 40,
      "noteName": "E2",
      "velocity": 0.84251968503937,
      "duration": "54i"
    },
    {
      "time": "6472i",
      "midiNote": 47,
      "noteName": "B2",
      "velocity": 0.84251968503937,
      "duration": "54i"
    },
    {
      "time": "6472i",
      "midiNote": 52,
      "noteName": "E3",
      "velocity": 0.84251968503937,
      "duration": "54i"
    },
    {
      "time": "6536i",
      "midiNote": 52,
      "noteName": "E3",
      "velocity": 1,
      "duration": "54i"
    },
    {
      "time": "6536i",
      "midiNote": 47,
      "noteName": "B2",
      "velocity": 1,
      "duration": "54i"
    },
    {
      "time": "6536i",
      "midiNote": 40,
      "noteName": "E2",
      "velocity": 1,
      "duration": "54i"
    },
    {
      "time": "6600i",
      "midiNote": 52,
      "noteName": "E3",
      "velocity": 0.7401574803149606,
      "duration": "54i"
    },
    {
      "time": "6600i",
      "midiNote": 47,
      "noteName": "B2",
      "velocity": 0.7401574803149606,
      "duration": "54i"
    },
    {
      "time": "6600i",
      "midiNote": 40,
      "noteName": "E2",
      "velocity": 0.7401574803149606,
      "duration": "54i"
    },
    {
      "time": "6664i",
      "midiNote": 40,
      "noteName": "E2",
      "velocity": 0.6062992125984252,
      "duration": "54i"
    },
    {
      "time": "6664i",
      "midiNote": 47,
      "noteName": "B2",
      "velocity": 0.6062992125984252,
      "duration": "54i"
    },
    {
      "time": "6664i",
      "midiNote": 52,
      "noteName": "E3",
      "velocity": 0.6062992125984252,
      "duration": "54i"
    },
    {
      "time": "6728i",
      "midiNote": 52,
      "noteName": "E3",
      "velocity": 0.7165354330708661,
      "duration": "118i"
    },
    {
      "time": "6728i",
      "midiNote": 47,
      "noteName": "B2",
      "velocity": 0.7165354330708661,
      "duration": "118i"
    },
    {
      "time": "6728i",
      "midiNote": 40,
      "noteName": "E2",
      "velocity": 0.7165354330708661,
      "duration": "118i"
    },
    {
      "time": "6856i",
      "midiNote": 52,
      "noteName": "E3",
      "velocity": 0.8582677165354331,
      "duration": "54i"
    },
    {
      "time": "6856i",
      "midiNote": 47,
      "noteName": "B2",
      "velocity": 0.8582677165354331,
      "duration": "54i"
    },
    {
      "time": "6856i",
      "midiNote": 40,
      "noteName": "E2",
      "velocity": 0.8582677165354331,
      "duration": "54i"
    },
    {
      "time": "6920i",
      "midiNote": 40,
      "noteName": "E2",
      "velocity": 1,
      "duration": "54i"
    },
    {
      "time": "6920i",
      "midiNote": 47,
      "noteName": "B2",
      "velocity": 1,
      "duration": "54i"
    },
    {
      "time": "6920i",
      "midiNote": 52,
      "noteName": "E3",
      "velocity": 1,
      "duration": "54i"
    },
    {
      "time": "6984i",
      "midiNote": 40,
      "noteName": "E2",
      "velocity": 0.7952755905511811,
      "duration": "54i"
    },
    {
      "time": "6984i",
      "midiNote": 47,
      "noteName": "B2",
      "velocity": 0.7952755905511811,
      "duration": "54i"
    },
    {
      "time": "6984i",
      "midiNote": 52,
      "noteName": "E3",
      "velocity": 0.7952755905511811,
      "duration": "54i"
    },
    {
      "time": "7048i",
      "midiNote": 40,
      "noteName": "E2",
      "velocity": 0.6062992125984252,
      "duration": "54i"
    },
    {
      "time": "7048i",
      "midiNote": 47,
      "noteName": "B2",
      "velocity": 0.6062992125984252,
      "duration": "54i"
    },
    {
      "time": "7048i",
      "midiNote": 52,
      "noteName": "E3",
      "velocity": 0.6062992125984252,
      "duration": "54i"
    },
    {
      "time": "7112i",
      "midiNote": 52,
      "noteName": "E3",
      "velocity": 0.7086614173228346,
      "duration": "118i"
    },
    {
      "time": "7112i",
      "midiNote": 47,
      "noteName": "B2",
      "velocity": 0.7086614173228346,
      "duration": "118i"
    },
    {
      "time": "7112i",
      "midiNote": 40,
      "noteName": "E2",
      "velocity": 0.7086614173228346,
      "duration": "118i"
    },
    {
      "time": "7240i",
      "midiNote": 52,
      "noteName": "E3",
      "velocity": 0.8740157480314961,
      "duration": "54i"
    },
    {
      "time": "7240i",
      "midiNote": 47,
      "noteName": "B2",
      "velocity": 0.8740157480314961,
      "duration": "54i"
    },
    {
      "time": "7240i",
      "midiNote": 40,
      "noteName": "E2",
      "velocity": 0.8740157480314961,
      "duration": "54i"
    },
    {
      "time": "7304i",
      "midiNote": 40,
      "noteName": "E2",
      "velocity": 1,
      "duration": "54i"
    },
    {
      "time": "7304i",
      "midiNote": 47,
      "noteName": "B2",
      "velocity": 1,
      "duration": "54i"
    },
    {
      "time": "7304i",
      "midiNote": 52,
      "noteName": "E3",
      "velocity": 1,
      "duration": "54i"
    },
    {
      "time": "7368i",
      "midiNote": 52,
      "noteName": "E3",
      "velocity": 0.7716535433070866,
      "duration": "54i"
    },
    {
      "time": "7368i",
      "midiNote": 47,
      "noteName": "B2",
      "velocity": 0.7716535433070866,
      "duration": "54i"
    },
    {
      "time": "7368i",
      "midiNote": 40,
      "noteName": "E2",
      "velocity": 0.7716535433070866,
      "duration": "54i"
    },
    {
      "time": "7432i",
      "midiNote": 40,
      "noteName": "E2",
      "velocity": 0.7086614173228346,
      "duration": "54i"
    },
    {
      "time": "7432i",
      "midiNote": 47,
      "noteName": "B2",
      "velocity": 0.7086614173228346,
      "duration": "54i"
    },
    {
      "time": "7432i",
      "midiNote": 52,
      "noteName": "E3",
      "velocity": 0.7086614173228346,
      "duration": "54i"
    },
    {
      "time": "7496i",
      "midiNote": 52,
      "noteName": "E3",
      "velocity": 0.8031496062992126,
      "duration": "54i"
    },
    {
      "time": "7496i",
      "midiNote": 47,
      "noteName": "B2",
      "velocity": 0.8031496062992126,
      "duration": "54i"
    },
    {
      "time": "7496i",
      "midiNote": 40,
      "noteName": "E2",
      "velocity": 0.8031496062992126,
      "duration": "54i"
    },
    {
      "time": "7560i",
      "midiNote": 47,
      "noteName": "B2",
      "velocity": 0.8031496062992126,
      "duration": "106i"
    },
    {
      "time": "7560i",
      "midiNote": 64,
      "noteName": "E4",
      "velocity": 0.7952755905511811,
      "duration": "106i"
    },
    {
      "time": "7560i",
      "midiNote": 52,
      "noteName": "E3",
      "velocity": 0.7952755905511811,
      "duration": "106i"
    },
    {
      "time": "7688i",
      "midiNote": 52,
      "noteName": "E3",
      "velocity": 1,
      "duration": "54i"
    },
    {
      "time": "7688i",
      "midiNote": 47,
      "noteName": "B2",
      "velocity": 1,
      "duration": "54i"
    },
    {
      "time": "7688i",
      "midiNote": 40,
      "noteName": "E2",
      "velocity": 1,
      "duration": "54i"
    },
    {
      "time": "7752i",
      "midiNote": 52,
      "noteName": "E3",
      "velocity": 0.7480314960629921,
      "duration": "54i"
    },
    {
      "time": "7752i",
      "midiNote": 47,
      "noteName": "B2",
      "velocity": 0.7480314960629921,
      "duration": "54i"
    },
    {
      "time": "7752i",
      "midiNote": 40,
      "noteName": "E2",
      "velocity": 0.7480314960629921,
      "duration": "54i"
    },
    {
      "time": "7816i",
      "midiNote": 40,
      "noteName": "E2",
      "velocity": 0.5826771653543307,
      "duration": "54i"
    },
    {
      "time": "7816i",
      "midiNote": 47,
      "noteName": "B2",
      "velocity": 0.5826771653543307,
      "duration": "54i"
    },
    {
      "time": "7816i",
      "midiNote": 52,
      "noteName": "E3",
      "velocity": 0.5826771653543307,
      "duration": "54i"
    },
    {
      "time": "7880i",
      "midiNote": 52,
      "noteName": "E3",
      "velocity": 0.7007874015748031,
      "duration": "118i"
    },
    {
      "time": "7880i",
      "midiNote": 47,
      "noteName": "B2",
      "velocity": 0.7007874015748031,
      "duration": "118i"
    },
    {
      "time": "7880i",
      "midiNote": 40,
      "noteName": "E2",
      "velocity": 0.7007874015748031,
      "duration": "118i"
    },
    {
      "time": "8008i",
      "midiNote": 40,
      "noteName": "E2",
      "velocity": 0.84251968503937,
      "duration": "54i"
    },
    {
      "time": "8008i",
      "midiNote": 47,
      "noteName": "B2",
      "velocity": 0.84251968503937,
      "duration": "54i"
    },
    {
      "time": "8008i",
      "midiNote": 52,
      "noteName": "E3",
      "velocity": 0.84251968503937,
      "duration": "54i"
    },
    {
      "time": "8072i",
      "midiNote": 52,
      "noteName": "E3",
      "velocity": 1,
      "duration": "54i"
    },
    {
      "time": "8072i",
      "midiNote": 47,
      "noteName": "B2",
      "velocity": 1,
      "duration": "54i"
    },
    {
      "time": "8072i",
      "midiNote": 40,
      "noteName": "E2",
      "velocity": 1,
      "duration": "54i"
    },
    {
      "time": "8136i",
      "midiNote": 52,
      "noteName": "E3",
      "velocity": 0.7401574803149606,
      "duration": "54i"
    },
    {
      "time": "8136i",
      "midiNote": 47,
      "noteName": "B2",
      "velocity": 0.7401574803149606,
      "duration": "54i"
    },
    {
      "time": "8136i",
      "midiNote": 40,
      "noteName": "E2",
      "velocity": 0.7401574803149606,
      "duration": "54i"
    },
    {
      "time": "8200i",
      "midiNote": 40,
      "noteName": "E2",
      "velocity": 0.6062992125984252,
      "duration": "54i"
    },
    {
      "time": "8200i",
      "midiNote": 47,
      "noteName": "B2",
      "velocity": 0.6062992125984252,
      "duration": "54i"
    },
    {
      "time": "8200i",
      "midiNote": 52,
      "noteName": "E3",
      "velocity": 0.6062992125984252,
      "duration": "54i"
    },
    {
      "time": "8264i",
      "midiNote": 52,
      "noteName": "E3",
      "velocity": 0.7165354330708661,
      "duration": "118i"
    },
    {
      "time": "8264i",
      "midiNote": 47,
      "noteName": "B2",
      "velocity": 0.7165354330708661,
      "duration": "118i"
    },
    {
      "time": "8264i",
      "midiNote": 40,
      "noteName": "E2",
      "velocity": 0.7165354330708661,
      "duration": "118i"
    },
    {
      "time": "8392i",
      "midiNote": 52,
      "noteName": "E3",
      "velocity": 0.8582677165354331,
      "duration": "54i"
    },
    {
      "time": "8392i",
      "midiNote": 47,
      "noteName": "B2",
      "velocity": 0.8582677165354331,
      "duration": "54i"
    },
    {
      "time": "8392i",
      "midiNote": 40,
      "noteName": "E2",
      "velocity": 0.8582677165354331,
      "duration": "54i"
    },
    {
      "time": "8456i",
      "midiNote": 40,
      "noteName": "E2",
      "velocity": 1,
      "duration": "54i"
    },
    {
      "time": "8456i",
      "midiNote": 47,
      "noteName": "B2",
      "velocity": 1,
      "duration": "54i"
    },
    {
      "time": "8456i",
      "midiNote": 52,
      "noteName": "E3",
      "velocity": 1,
      "duration": "54i"
    },
    {
      "time": "8520i",
      "midiNote": 40,
      "noteName": "E2",
      "velocity": 0.7952755905511811,
      "duration": "54i"
    },
    {
      "time": "8520i",
      "midiNote": 47,
      "noteName": "B2",
      "velocity": 0.7952755905511811,
      "duration": "54i"
    },
    {
      "time": "8520i",
      "midiNote": 52,
      "noteName": "E3",
      "velocity": 0.7952755905511811,
      "duration": "54i"
    },
    {
      "time": "8584i",
      "midiNote": 40,
      "noteName": "E2",
      "velocity": 0.6062992125984252,
      "duration": "54i"
    },
    {
      "time": "8584i",
      "midiNote": 47,
      "noteName": "B2",
      "velocity": 0.6062992125984252,
      "duration": "54i"
    },
    {
      "time": "8584i",
      "midiNote": 52,
      "noteName": "E3",
      "velocity": 0.6062992125984252,
      "duration": "54i"
    },
    {
      "time": "8648i",
      "midiNote": 52,
      "noteName": "E3",
      "velocity": 0.7086614173228346,
      "duration": "118i"
    },
    {
      "time": "8648i",
      "midiNote": 47,
      "noteName": "B2",
      "velocity": 0.7086614173228346,
      "duration": "118i"
    },
    {
      "time": "8648i",
      "midiNote": 40,
      "noteName": "E2",
      "velocity": 0.7086614173228346,
      "duration": "118i"
    },
    {
      "time": "8776i",
      "midiNote": 52,
      "noteName": "E3",
      "velocity": 0.8740157480314961,
      "duration": "54i"
    },
    {
      "time": "8776i",
      "midiNote": 47,
      "noteName": "B2",
      "velocity": 0.8740157480314961,
      "duration": "54i"
    },
    {
      "time": "8776i",
      "midiNote": 40,
      "noteName": "E2",
      "velocity": 0.8740157480314961,
      "duration": "54i"
    },
    {
      "time": "8840i",
      "midiNote": 40,
      "noteName": "E2",
      "velocity": 1,
      "duration": "54i"
    },
    {
      "time": "8840i",
      "midiNote": 47,
      "noteName": "B2",
      "velocity": 1,
      "duration": "54i"
    },
    {
      "time": "8840i",
      "midiNote": 52,
      "noteName": "E3",
      "velocity": 1,
      "duration": "54i"
    },
    {
      "time": "8904i",
      "midiNote": 52,
      "noteName": "E3",
      "velocity": 0.7716535433070866,
      "duration": "54i"
    },
    {
      "time": "8904i",
      "midiNote": 47,
      "noteName": "B2",
      "velocity": 0.7716535433070866,
      "duration": "54i"
    },
    {
      "time": "8904i",
      "midiNote": 40,
      "noteName": "E2",
      "velocity": 0.7716535433070866,
      "duration": "54i"
    },
    {
      "time": "8968i",
      "midiNote": 40,
      "noteName": "E2",
      "velocity": 0.7086614173228346,
      "duration": "54i"
    },
    {
      "time": "8968i",
      "midiNote": 47,
      "noteName": "B2",
      "velocity": 0.7086614173228346,
      "duration": "54i"
    },
    {
      "time": "8968i",
      "midiNote": 52,
      "noteName": "E3",
      "velocity": 0.7086614173228346,
      "duration": "54i"
    },
    {
      "time": "9032i",
      "midiNote": 52,
      "noteName": "E3",
      "velocity": 0.8031496062992126,
      "duration": "54i"
    },
    {
      "time": "9032i",
      "midiNote": 47,
      "noteName": "B2",
      "velocity": 0.8031496062992126,
      "duration": "54i"
    },
    {
      "time": "9032i",
      "midiNote": 40,
      "noteName": "E2",
      "velocity": 0.8031496062992126,
      "duration": "54i"
    },
    {
      "time": "9096i",
      "midiNote": 47,
      "noteName": "B2",
      "velocity": 0.8031496062992126,
      "duration": "106i"
    },
    {
      "time": "9096i",
      "midiNote": 64,
      "noteName": "E4",
      "velocity": 0.7952755905511811,
      "duration": "106i"
    },
    {
      "time": "9096i",
      "midiNote": 52,
      "noteName": "E3",
      "velocity": 0.7952755905511811,
      "duration": "106i"
    },
    {
      "time": "9224i",
      "midiNote": 52,
      "noteName": "E3",
      "velocity": 1,
      "duration": "54i"
    },
    {
      "time": "9224i",
      "midiNote": 47,
      "noteName": "B2",
      "velocity": 1,
      "duration": "54i"
    },
    {
      "time": "9224i",
      "midiNote": 40,
      "noteName": "E2",
      "velocity": 1,
      "duration": "54i"
    },
    {
      "time": "9288i",
      "midiNote": 52,
      "noteName": "E3",
      "velocity": 0.7480314960629921,
      "duration": "54i"
    },
    {
      "time": "9288i",
      "midiNote": 47,
      "noteName": "B2",
      "velocity": 0.7480314960629921,
      "duration": "54i"
    },
    {
      "time": "9288i",
      "midiNote": 40,
      "noteName": "E2",
      "velocity": 0.7480314960629921,
      "duration": "54i"
    },
    {
      "time": "9352i",
      "midiNote": 40,
      "noteName": "E2",
      "velocity": 0.5826771653543307,
      "duration": "54i"
    },
    {
      "time": "9352i",
      "midiNote": 47,
      "noteName": "B2",
      "velocity": 0.5826771653543307,
      "duration": "54i"
    },
    {
      "time": "9352i",
      "midiNote": 52,
      "noteName": "E3",
      "velocity": 0.5826771653543307,
      "duration": "54i"
    },
    {
      "time": "9416i",
      "midiNote": 52,
      "noteName": "E3",
      "velocity": 0.7007874015748031,
      "duration": "118i"
    },
    {
      "time": "9416i",
      "midiNote": 47,
      "noteName": "B2",
      "velocity": 0.7007874015748031,
      "duration": "118i"
    },
    {
      "time": "9416i",
      "midiNote": 40,
      "noteName": "E2",
      "velocity": 0.7007874015748031,
      "duration": "118i"
    },
    {
      "time": "9544i",
      "midiNote": 40,
      "noteName": "E2",
      "velocity": 0.84251968503937,
      "duration": "54i"
    },
    {
      "time": "9544i",
      "midiNote": 47,
      "noteName": "B2",
      "velocity": 0.84251968503937,
      "duration": "54i"
    },
    {
      "time": "9544i",
      "midiNote": 52,
      "noteName": "E3",
      "velocity": 0.84251968503937,
      "duration": "54i"
    },
    {
      "time": "9608i",
      "midiNote": 52,
      "noteName": "E3",
      "velocity": 1,
      "duration": "54i"
    },
    {
      "time": "9608i",
      "midiNote": 47,
      "noteName": "B2",
      "velocity": 1,
      "duration": "54i"
    },
    {
      "time": "9608i",
      "midiNote": 40,
      "noteName": "E2",
      "velocity": 1,
      "duration": "54i"
    },
    {
      "time": "9672i",
      "midiNote": 52,
      "noteName": "E3",
      "velocity": 0.7401574803149606,
      "duration": "54i"
    },
    {
      "time": "9672i",
      "midiNote": 47,
      "noteName": "B2",
      "velocity": 0.7401574803149606,
      "duration": "54i"
    },
    {
      "time": "9672i",
      "midiNote": 40,
      "noteName": "E2",
      "velocity": 0.7401574803149606,
      "duration": "54i"
    },
    {
      "time": "9736i",
      "midiNote": 40,
      "noteName": "E2",
      "velocity": 0.6062992125984252,
      "duration": "54i"
    },
    {
      "time": "9736i",
      "midiNote": 47,
      "noteName": "B2",
      "velocity": 0.6062992125984252,
      "duration": "54i"
    },
    {
      "time": "9736i",
      "midiNote": 52,
      "noteName": "E3",
      "velocity": 0.6062992125984252,
      "duration": "54i"
    },
    {
      "time": "9800i",
      "midiNote": 52,
      "noteName": "E3",
      "velocity": 0.7165354330708661,
      "duration": "118i"
    },
    {
      "time": "9800i",
      "midiNote": 47,
      "noteName": "B2",
      "velocity": 0.7165354330708661,
      "duration": "118i"
    },
    {
      "time": "9800i",
      "midiNote": 40,
      "noteName": "E2",
      "velocity": 0.7165354330708661,
      "duration": "118i"
    },
    {
      "time": "9928i",
      "midiNote": 52,
      "noteName": "E3",
      "velocity": 0.8582677165354331,
      "duration": "54i"
    },
    {
      "time": "9928i",
      "midiNote": 47,
      "noteName": "B2",
      "velocity": 0.8582677165354331,
      "duration": "54i"
    },
    {
      "time": "9928i",
      "midiNote": 40,
      "noteName": "E2",
      "velocity": 0.8582677165354331,
      "duration": "54i"
    },
    {
      "time": "9992i",
      "midiNote": 40,
      "noteName": "E2",
      "velocity": 1,
      "duration": "54i"
    },
    {
      "time": "9992i",
      "midiNote": 47,
      "noteName": "B2",
      "velocity": 1,
      "duration": "54i"
    },
    {
      "time": "9992i",
      "midiNote": 52,
      "noteName": "E3",
      "velocity": 1,
      "duration": "54i"
    },
    {
      "time": "10056i",
      "midiNote": 40,
      "noteName": "E2",
      "velocity": 0.7952755905511811,
      "duration": "54i"
    },
    {
      "time": "10056i",
      "midiNote": 47,
      "noteName": "B2",
      "velocity": 0.7952755905511811,
      "duration": "54i"
    },
    {
      "time": "10056i",
      "midiNote": 52,
      "noteName": "E3",
      "velocity": 0.7952755905511811,
      "duration": "54i"
    },
    {
      "time": "10120i",
      "midiNote": 40,
      "noteName": "E2",
      "velocity": 0.6062992125984252,
      "duration": "54i"
    },
    {
      "time": "10120i",
      "midiNote": 47,
      "noteName": "B2",
      "velocity": 0.6062992125984252,
      "duration": "54i"
    },
    {
      "time": "10120i",
      "midiNote": 52,
      "noteName": "E3",
      "velocity": 0.6062992125984252,
      "duration": "54i"
    },
    {
      "time": "10184i",
      "midiNote": 52,
      "noteName": "E3",
      "velocity": 0.7086614173228346,
      "duration": "118i"
    },
    {
      "time": "10184i",
      "midiNote": 47,
      "noteName": "B2",
      "velocity": 0.7086614173228346,
      "duration": "118i"
    },
    {
      "time": "10184i",
      "midiNote": 40,
      "noteName": "E2",
      "velocity": 0.7086614173228346,
      "duration": "118i"
    },
    {
      "time": "10312i",
      "midiNote": 52,
      "noteName": "E3",
      "velocity": 0.8740157480314961,
      "duration": "54i"
    },
    {
      "time": "10312i",
      "midiNote": 47,
      "noteName": "B2",
      "velocity": 0.8740157480314961,
      "duration": "54i"
    },
    {
      "time": "10312i",
      "midiNote": 40,
      "noteName": "E2",
      "velocity": 0.8740157480314961,
      "duration": "54i"
    },
    {
      "time": "10376i",
      "midiNote": 40,
      "noteName": "E2",
      "velocity": 1,
      "duration": "54i"
    },
    {
      "time": "10376i",
      "midiNote": 47,
      "noteName": "B2",
      "velocity": 1,
      "duration": "54i"
    },
    {
      "time": "10376i",
      "midiNote": 52,
      "noteName": "E3",
      "velocity": 1,
      "duration": "54i"
    },
    {
      "time": "10440i",
      "midiNote": 52,
      "noteName": "E3",
      "velocity": 0.7716535433070866,
      "duration": "54i"
    },
    {
      "time": "10440i",
      "midiNote": 47,
      "noteName": "B2",
      "velocity": 0.7716535433070866,
      "duration": "54i"
    },
    {
      "time": "10440i",
      "midiNote": 40,
      "noteName": "E2",
      "velocity": 0.7716535433070866,
      "duration": "54i"
    },
    {
      "time": "10504i",
      "midiNote": 40,
      "noteName": "E2",
      "velocity": 0.7086614173228346,
      "duration": "54i"
    },
    {
      "time": "10504i",
      "midiNote": 47,
      "noteName": "B2",
      "velocity": 0.7086614173228346,
      "duration": "54i"
    },
    {
      "time": "10504i",
      "midiNote": 52,
      "noteName": "E3",
      "velocity": 0.7086614173228346,
      "duration": "54i"
    },
    {
      "time": "10568i",
      "midiNote": 52,
      "noteName": "E3",
      "velocity": 0.8031496062992126,
      "duration": "54i"
    },
    {
      "time": "10568i",
      "midiNote": 47,
      "noteName": "B2",
      "velocity": 0.8031496062992126,
      "duration": "54i"
    },
    {
      "time": "10568i",
      "midiNote": 40,
      "noteName": "E2",
      "velocity": 0.8031496062992126,
      "duration": "54i"
    },
    {
      "time": "10632i",
      "midiNote": 47,
      "noteName": "B2",
      "velocity": 0.8031496062992126,
      "duration": "106i"
    },
    {
      "time": "10632i",
      "midiNote": 64,
      "noteName": "E4",
      "velocity": 0.7952755905511811,
      "duration": "106i"
    },
    {
      "time": "10632i",
      "midiNote": 52,
      "noteName": "E3",
      "velocity": 0.7952755905511811,
      "duration": "106i"
    },
    {
      "time": "10760i",
      "midiNote": 52,
      "noteName": "E3",
      "velocity": 1,
      "duration": "54i"
    },
    {
      "time": "10760i",
      "midiNote": 47,
      "noteName": "B2",
      "velocity": 1,
      "duration": "54i"
    },
    {
      "time": "10760i",
      "midiNote": 40,
      "noteName": "E2",
      "velocity": 1,
      "duration": "54i"
    },
    {
      "time": "10824i",
      "midiNote": 52,
      "noteName": "E3",
      "velocity": 0.7480314960629921,
      "duration": "54i"
    },
    {
      "time": "10824i",
      "midiNote": 47,
      "noteName": "B2",
      "velocity": 0.7480314960629921,
      "duration": "54i"
    },
    {
      "time": "10824i",
      "midiNote": 40,
      "noteName": "E2",
      "velocity": 0.7480314960629921,
      "duration": "54i"
    },
    {
      "time": "10888i",
      "midiNote": 40,
      "noteName": "E2",
      "velocity": 0.5826771653543307,
      "duration": "54i"
    },
    {
      "time": "10888i",
      "midiNote": 47,
      "noteName": "B2",
      "velocity": 0.5826771653543307,
      "duration": "54i"
    },
    {
      "time": "10888i",
      "midiNote": 52,
      "noteName": "E3",
      "velocity": 0.5826771653543307,
      "duration": "54i"
    },
    {
      "time": "10952i",
      "midiNote": 52,
      "noteName": "E3",
      "velocity": 0.7007874015748031,
      "duration": "118i"
    },
    {
      "time": "10952i",
      "midiNote": 47,
      "noteName": "B2",
      "velocity": 0.7007874015748031,
      "duration": "118i"
    },
    {
      "time": "10952i",
      "midiNote": 40,
      "noteName": "E2",
      "velocity": 0.7007874015748031,
      "duration": "118i"
    },
    {
      "time": "11080i",
      "midiNote": 40,
      "noteName": "E2",
      "velocity": 0.84251968503937,
      "duration": "54i"
    },
    {
      "time": "11080i",
      "midiNote": 47,
      "noteName": "B2",
      "velocity": 0.84251968503937,
      "duration": "54i"
    },
    {
      "time": "11080i",
      "midiNote": 52,
      "noteName": "E3",
      "velocity": 0.84251968503937,
      "duration": "54i"
    },
    {
      "time": "11144i",
      "midiNote": 52,
      "noteName": "E3",
      "velocity": 1,
      "duration": "54i"
    },
    {
      "time": "11144i",
      "midiNote": 47,
      "noteName": "B2",
      "velocity": 1,
      "duration": "54i"
    },
    {
      "time": "11144i",
      "midiNote": 40,
      "noteName": "E2",
      "velocity": 1,
      "duration": "54i"
    },
    {
      "time": "11208i",
      "midiNote": 52,
      "noteName": "E3",
      "velocity": 0.7401574803149606,
      "duration": "54i"
    },
    {
      "time": "11208i",
      "midiNote": 47,
      "noteName": "B2",
      "velocity": 0.7401574803149606,
      "duration": "54i"
    },
    {
      "time": "11208i",
      "midiNote": 40,
      "noteName": "E2",
      "velocity": 0.7401574803149606,
      "duration": "54i"
    },
    {
      "time": "11272i",
      "midiNote": 40,
      "noteName": "E2",
      "velocity": 0.6062992125984252,
      "duration": "54i"
    },
    {
      "time": "11272i",
      "midiNote": 47,
      "noteName": "B2",
      "velocity": 0.6062992125984252,
      "duration": "54i"
    },
    {
      "time": "11272i",
      "midiNote": 52,
      "noteName": "E3",
      "velocity": 0.6062992125984252,
      "duration": "54i"
    },
    {
      "time": "11336i",
      "midiNote": 52,
      "noteName": "E3",
      "velocity": 0.7165354330708661,
      "duration": "118i"
    },
    {
      "time": "11336i",
      "midiNote": 47,
      "noteName": "B2",
      "velocity": 0.7165354330708661,
      "duration": "118i"
    },
    {
      "time": "11336i",
      "midiNote": 40,
      "noteName": "E2",
      "velocity": 0.7165354330708661,
      "duration": "118i"
    },
    {
      "time": "11464i",
      "midiNote": 52,
      "noteName": "E3",
      "velocity": 0.8582677165354331,
      "duration": "54i"
    },
    {
      "time": "11464i",
      "midiNote": 47,
      "noteName": "B2",
      "velocity": 0.8582677165354331,
      "duration": "54i"
    },
    {
      "time": "11464i",
      "midiNote": 40,
      "noteName": "E2",
      "velocity": 0.8582677165354331,
      "duration": "54i"
    },
    {
      "time": "11528i",
      "midiNote": 40,
      "noteName": "E2",
      "velocity": 1,
      "duration": "54i"
    },
    {
      "time": "11528i",
      "midiNote": 47,
      "noteName": "B2",
      "velocity": 1,
      "duration": "54i"
    },
    {
      "time": "11528i",
      "midiNote": 52,
      "noteName": "E3",
      "velocity": 1,
      "duration": "54i"
    },
    {
      "time": "11592i",
      "midiNote": 40,
      "noteName": "E2",
      "velocity": 0.7952755905511811,
      "duration": "54i"
    },
    {
      "time": "11592i",
      "midiNote": 47,
      "noteName": "B2",
      "velocity": 0.7952755905511811,
      "duration": "54i"
    },
    {
      "time": "11592i",
      "midiNote": 52,
      "noteName": "E3",
      "velocity": 0.7952755905511811,
      "duration": "54i"
    },
    {
      "time": "11656i",
      "midiNote": 40,
      "noteName": "E2",
      "velocity": 0.6062992125984252,
      "duration": "54i"
    },
    {
      "time": "11656i",
      "midiNote": 47,
      "noteName": "B2",
      "velocity": 0.6062992125984252,
      "duration": "54i"
    },
    {
      "time": "11656i",
      "midiNote": 52,
      "noteName": "E3",
      "velocity": 0.6062992125984252,
      "duration": "54i"
    },
    {
      "time": "11720i",
      "midiNote": 52,
      "noteName": "E3",
      "velocity": 0.7086614173228346,
      "duration": "118i"
    },
    {
      "time": "11720i",
      "midiNote": 47,
      "noteName": "B2",
      "velocity": 0.7086614173228346,
      "duration": "118i"
    },
    {
      "time": "11720i",
      "midiNote": 40,
      "noteName": "E2",
      "velocity": 0.7086614173228346,
      "duration": "118i"
    },
    {
      "time": "11848i",
      "midiNote": 52,
      "noteName": "E3",
      "velocity": 0.8740157480314961,
      "duration": "54i"
    },
    {
      "time": "11848i",
      "midiNote": 47,
      "noteName": "B2",
      "velocity": 0.8740157480314961,
      "duration": "54i"
    },
    {
      "time": "11848i",
      "midiNote": 40,
      "noteName": "E2",
      "velocity": 0.8740157480314961,
      "duration": "54i"
    },
    {
      "time": "11912i",
      "midiNote": 40,
      "noteName": "E2",
      "velocity": 1,
      "duration": "54i"
    },
    {
      "time": "11912i",
      "midiNote": 47,
      "noteName": "B2",
      "velocity": 1,
      "duration": "54i"
    },
    {
      "time": "11912i",
      "midiNote": 52,
      "noteName": "E3",
      "velocity": 1,
      "duration": "54i"
    },
    {
      "time": "11976i",
      "midiNote": 52,
      "noteName": "E3",
      "velocity": 0.7716535433070866,
      "duration": "54i"
    },
    {
      "time": "11976i",
      "midiNote": 47,
      "noteName": "B2",
      "velocity": 0.7716535433070866,
      "duration": "54i"
    },
    {
      "time": "11976i",
      "midiNote": 40,
      "noteName": "E2",
      "velocity": 0.7716535433070866,
      "duration": "54i"
    },
    {
      "time": "12040i",
      "midiNote": 40,
      "noteName": "E2",
      "velocity": 0.7086614173228346,
      "duration": "54i"
    },
    {
      "time": "12040i",
      "midiNote": 47,
      "noteName": "B2",
      "velocity": 0.7086614173228346,
      "duration": "54i"
    },
    {
      "time": "12040i",
      "midiNote": 52,
      "noteName": "E3",
      "velocity": 0.7086614173228346,
      "duration": "54i"
    },
    {
      "time": "12104i",
      "midiNote": 52,
      "noteName": "E3",
      "velocity": 0.8031496062992126,
      "duration": "54i"
    },
    {
      "time": "12104i",
      "midiNote": 47,
      "noteName": "B2",
      "velocity": 0.8031496062992126,
      "duration": "54i"
    },
    {
      "time": "12104i",
      "midiNote": 40,
      "noteName": "E2",
      "velocity": 0.8031496062992126,
      "duration": "54i"
    },
    {
      "time": "12168i",
      "midiNote": 47,
      "noteName": "B2",
      "velocity": 0.8031496062992126,
      "duration": "106i"
    },
    {
      "time": "12168i",
      "midiNote": 64,
      "noteName": "E4",
      "velocity": 0.7952755905511811,
      "duration": "106i"
    },
    {
      "time": "12168i",
      "midiNote": 52,
      "noteName": "E3",
      "velocity": 0.7952755905511811,
      "duration": "106i"
    },
    {
      "time": "12296i",
      "midiNote": 52,
      "noteName": "E3",
      "velocity": 1,
      "duration": "54i"
    },
    {
      "time": "12296i",
      "midiNote": 47,
      "noteName": "B2",
      "velocity": 1,
      "duration": "54i"
    },
    {
      "time": "12296i",
      "midiNote": 40,
      "noteName": "E2",
      "velocity": 1,
      "duration": "54i"
    },
    {
      "time": "12360i",
      "midiNote": 52,
      "noteName": "E3",
      "velocity": 0.7480314960629921,
      "duration": "54i"
    },
    {
      "time": "12360i",
      "midiNote": 47,
      "noteName": "B2",
      "velocity": 0.7480314960629921,
      "duration": "54i"
    },
    {
      "time": "12360i",
      "midiNote": 40,
      "noteName": "E2",
      "velocity": 0.7480314960629921,
      "duration": "54i"
    },
    {
      "time": "12424i",
      "midiNote": 40,
      "noteName": "E2",
      "velocity": 0.5826771653543307,
      "duration": "54i"
    },
    {
      "time": "12424i",
      "midiNote": 47,
      "noteName": "B2",
      "velocity": 0.5826771653543307,
      "duration": "54i"
    },
    {
      "time": "12424i",
      "midiNote": 52,
      "noteName": "E3",
      "velocity": 0.5826771653543307,
      "duration": "54i"
    },
    {
      "time": "12488i",
      "midiNote": 52,
      "noteName": "E3",
      "velocity": 0.7007874015748031,
      "duration": "118i"
    },
    {
      "time": "12488i",
      "midiNote": 47,
      "noteName": "B2",
      "velocity": 0.7007874015748031,
      "duration": "118i"
    },
    {
      "time": "12488i",
      "midiNote": 40,
      "noteName": "E2",
      "velocity": 0.7007874015748031,
      "duration": "118i"
    },
    {
      "time": "12616i",
      "midiNote": 40,
      "noteName": "E2",
      "velocity": 0.84251968503937,
      "duration": "54i"
    },
    {
      "time": "12616i",
      "midiNote": 47,
      "noteName": "B2",
      "velocity": 0.84251968503937,
      "duration": "54i"
    },
    {
      "time": "12616i",
      "midiNote": 52,
      "noteName": "E3",
      "velocity": 0.84251968503937,
      "duration": "54i"
    },
    {
      "time": "12680i",
      "midiNote": 52,
      "noteName": "E3",
      "velocity": 1,
      "duration": "54i"
    },
    {
      "time": "12680i",
      "midiNote": 47,
      "noteName": "B2",
      "velocity": 1,
      "duration": "54i"
    },
    {
      "time": "12680i",
      "midiNote": 40,
      "noteName": "E2",
      "velocity": 1,
      "duration": "54i"
    },
    {
      "time": "12744i",
      "midiNote": 52,
      "noteName": "E3",
      "velocity": 0.7401574803149606,
      "duration": "54i"
    },
    {
      "time": "12744i",
      "midiNote": 47,
      "noteName": "B2",
      "velocity": 0.7401574803149606,
      "duration": "54i"
    },
    {
      "time": "12744i",
      "midiNote": 40,
      "noteName": "E2",
      "velocity": 0.7401574803149606,
      "duration": "54i"
    },
    {
      "time": "12808i",
      "midiNote": 40,
      "noteName": "E2",
      "velocity": 0.6062992125984252,
      "duration": "54i"
    },
    {
      "time": "12808i",
      "midiNote": 47,
      "noteName": "B2",
      "velocity": 0.6062992125984252,
      "duration": "54i"
    },
    {
      "time": "12808i",
      "midiNote": 52,
      "noteName": "E3",
      "velocity": 0.6062992125984252,
      "duration": "54i"
    },
    {
      "time": "12872i",
      "midiNote": 52,
      "noteName": "E3",
      "velocity": 0.7165354330708661,
      "duration": "118i"
    },
    {
      "time": "12872i",
      "midiNote": 47,
      "noteName": "B2",
      "velocity": 0.7165354330708661,
      "duration": "118i"
    },
    {
      "time": "12872i",
      "midiNote": 40,
      "noteName": "E2",
      "velocity": 0.7165354330708661,
      "duration": "118i"
    },
    {
      "time": "13000i",
      "midiNote": 52,
      "noteName": "E3",
      "velocity": 0.8582677165354331,
      "duration": "54i"
    },
    {
      "time": "13000i",
      "midiNote": 47,
      "noteName": "B2",
      "velocity": 0.8582677165354331,
      "duration": "54i"
    },
    {
      "time": "13000i",
      "midiNote": 40,
      "noteName": "E2",
      "velocity": 0.8582677165354331,
      "duration": "54i"
    },
    {
      "time": "13064i",
      "midiNote": 40,
      "noteName": "E2",
      "velocity": 1,
      "duration": "54i"
    },
    {
      "time": "13064i",
      "midiNote": 47,
      "noteName": "B2",
      "velocity": 1,
      "duration": "54i"
    },
    {
      "time": "13064i",
      "midiNote": 52,
      "noteName": "E3",
      "velocity": 1,
      "duration": "54i"
    },
    {
      "time": "13128i",
      "midiNote": 40,
      "noteName": "E2",
      "velocity": 0.7952755905511811,
      "duration": "54i"
    },
    {
      "time": "13128i",
      "midiNote": 47,
      "noteName": "B2",
      "velocity": 0.7952755905511811,
      "duration": "54i"
    },
    {
      "time": "13128i",
      "midiNote": 52,
      "noteName": "E3",
      "velocity": 0.7952755905511811,
      "duration": "54i"
    },
    {
      "time": "13192i",
      "midiNote": 40,
      "noteName": "E2",
      "velocity": 0.6062992125984252,
      "duration": "54i"
    },
    {
      "time": "13192i",
      "midiNote": 47,
      "noteName": "B2",
      "velocity": 0.6062992125984252,
      "duration": "54i"
    },
    {
      "time": "13192i",
      "midiNote": 52,
      "noteName": "E3",
      "velocity": 0.6062992125984252,
      "duration": "54i"
    },
    {
      "time": "13256i",
      "midiNote": 52,
      "noteName": "E3",
      "velocity": 0.7086614173228346,
      "duration": "118i"
    },
    {
      "time": "13256i",
      "midiNote": 47,
      "noteName": "B2",
      "velocity": 0.7086614173228346,
      "duration": "118i"
    },
    {
      "time": "13256i",
      "midiNote": 40,
      "noteName": "E2",
      "velocity": 0.7086614173228346,
      "duration": "118i"
    },
    {
      "time": "13384i",
      "midiNote": 52,
      "noteName": "E3",
      "velocity": 0.8740157480314961,
      "duration": "54i"
    },
    {
      "time": "13384i",
      "midiNote": 47,
      "noteName": "B2",
      "velocity": 0.8740157480314961,
      "duration": "54i"
    },
    {
      "time": "13384i",
      "midiNote": 40,
      "noteName": "E2",
      "velocity": 0.8740157480314961,
      "duration": "54i"
    },
    {
      "time": "13448i",
      "midiNote": 40,
      "noteName": "E2",
      "velocity": 1,
      "duration": "54i"
    },
    {
      "time": "13448i",
      "midiNote": 47,
      "noteName": "B2",
      "velocity": 1,
      "duration": "54i"
    },
    {
      "time": "13448i",
      "midiNote": 52,
      "noteName": "E3",
      "velocity": 1,
      "duration": "54i"
    },
    {
      "time": "13512i",
      "midiNote": 52,
      "noteName": "E3",
      "velocity": 0.7716535433070866,
      "duration": "54i"
    },
    {
      "time": "13512i",
      "midiNote": 47,
      "noteName": "B2",
      "velocity": 0.7716535433070866,
      "duration": "54i"
    },
    {
      "time": "13512i",
      "midiNote": 40,
      "noteName": "E2",
      "velocity": 0.7716535433070866,
      "duration": "54i"
    },
    {
      "time": "13576i",
      "midiNote": 40,
      "noteName": "E2",
      "velocity": 0.7086614173228346,
      "duration": "54i"
    },
    {
      "time": "13576i",
      "midiNote": 47,
      "noteName": "B2",
      "velocity": 0.7086614173228346,
      "duration": "54i"
    },
    {
      "time": "13576i",
      "midiNote": 52,
      "noteName": "E3",
      "velocity": 0.7086614173228346,
      "duration": "54i"
    },
    {
      "time": "13640i",
      "midiNote": 52,
      "noteName": "E3",
      "velocity": 0.8031496062992126,
      "duration": "54i"
    },
    {
      "time": "13640i",
      "midiNote": 47,
      "noteName": "B2",
      "velocity": 0.8031496062992126,
      "duration": "54i"
    },
    {
      "time": "13640i",
      "midiNote": 40,
      "noteName": "E2",
      "velocity": 0.8031496062992126,
      "duration": "54i"
    },
    {
      "time": "13704i",
      "midiNote": 47,
      "noteName": "B2",
      "velocity": 0.8031496062992126,
      "duration": "106i"
    },
    {
      "time": "13704i",
      "midiNote": 64,
      "noteName": "E4",
      "velocity": 0.7952755905511811,
      "duration": "106i"
    },
    {
      "time": "13704i",
      "midiNote": 52,
      "noteName": "E3",
      "velocity": 0.7952755905511811,
      "duration": "106i"
    },
    {
      "time": "13832i",
      "midiNote": 52,
      "noteName": "E3",
      "velocity": 1,
      "duration": "54i"
    },
    {
      "time": "13832i",
      "midiNote": 47,
      "noteName": "B2",
      "velocity": 1,
      "duration": "54i"
    },
    {
      "time": "13832i",
      "midiNote": 40,
      "noteName": "E2",
      "velocity": 1,
      "duration": "54i"
    },
    {
      "time": "13896i",
      "midiNote": 52,
      "noteName": "E3",
      "velocity": 0.7480314960629921,
      "duration": "54i"
    },
    {
      "time": "13896i",
      "midiNote": 47,
      "noteName": "B2",
      "velocity": 0.7480314960629921,
      "duration": "54i"
    },
    {
      "time": "13896i",
      "midiNote": 40,
      "noteName": "E2",
      "velocity": 0.7480314960629921,
      "duration": "54i"
    },
    {
      "time": "13960i",
      "midiNote": 40,
      "noteName": "E2",
      "velocity": 0.5826771653543307,
      "duration": "54i"
    },
    {
      "time": "13960i",
      "midiNote": 47,
      "noteName": "B2",
      "velocity": 0.5826771653543307,
      "duration": "54i"
    },
    {
      "time": "13960i",
      "midiNote": 52,
      "noteName": "E3",
      "velocity": 0.5826771653543307,
      "duration": "54i"
    },
    {
      "time": "14024i",
      "midiNote": 52,
      "noteName": "E3",
      "velocity": 0.7007874015748031,
      "duration": "118i"
    },
    {
      "time": "14024i",
      "midiNote": 47,
      "noteName": "B2",
      "velocity": 0.7007874015748031,
      "duration": "118i"
    },
    {
      "time": "14024i",
      "midiNote": 40,
      "noteName": "E2",
      "velocity": 0.7007874015748031,
      "duration": "118i"
    },
    {
      "time": "14152i",
      "midiNote": 40,
      "noteName": "E2",
      "velocity": 0.84251968503937,
      "duration": "54i"
    },
    {
      "time": "14152i",
      "midiNote": 47,
      "noteName": "B2",
      "velocity": 0.84251968503937,
      "duration": "54i"
    },
    {
      "time": "14152i",
      "midiNote": 52,
      "noteName": "E3",
      "velocity": 0.84251968503937,
      "duration": "54i"
    },
    {
      "time": "14216i",
      "midiNote": 52,
      "noteName": "E3",
      "velocity": 1,
      "duration": "54i"
    },
    {
      "time": "14216i",
      "midiNote": 47,
      "noteName": "B2",
      "velocity": 1,
      "duration": "54i"
    },
    {
      "time": "14216i",
      "midiNote": 40,
      "noteName": "E2",
      "velocity": 1,
      "duration": "54i"
    },
    {
      "time": "14280i",
      "midiNote": 52,
      "noteName": "E3",
      "velocity": 0.7401574803149606,
      "duration": "54i"
    },
    {
      "time": "14280i",
      "midiNote": 47,
      "noteName": "B2",
      "velocity": 0.7401574803149606,
      "duration": "54i"
    },
    {
      "time": "14280i",
      "midiNote": 40,
      "noteName": "E2",
      "velocity": 0.7401574803149606,
      "duration": "54i"
    },
    {
      "time": "14344i",
      "midiNote": 40,
      "noteName": "E2",
      "velocity": 0.6062992125984252,
      "duration": "54i"
    },
    {
      "time": "14344i",
      "midiNote": 47,
      "noteName": "B2",
      "velocity": 0.6062992125984252,
      "duration": "54i"
    },
    {
      "time": "14344i",
      "midiNote": 52,
      "noteName": "E3",
      "velocity": 0.6062992125984252,
      "duration": "54i"
    },
    {
      "time": "14408i",
      "midiNote": 52,
      "noteName": "E3",
      "velocity": 0.7165354330708661,
      "duration": "118i"
    },
    {
      "time": "14408i",
      "midiNote": 47,
      "noteName": "B2",
      "velocity": 0.7165354330708661,
      "duration": "118i"
    },
    {
      "time": "14408i",
      "midiNote": 40,
      "noteName": "E2",
      "velocity": 0.7165354330708661,
      "duration": "118i"
    },
    {
      "time": "14536i",
      "midiNote": 52,
      "noteName": "E3",
      "velocity": 0.8582677165354331,
      "duration": "54i"
    },
    {
      "time": "14536i",
      "midiNote": 47,
      "noteName": "B2",
      "velocity": 0.8582677165354331,
      "duration": "54i"
    },
    {
      "time": "14536i",
      "midiNote": 40,
      "noteName": "E2",
      "velocity": 0.8582677165354331,
      "duration": "54i"
    },
    {
      "time": "14600i",
      "midiNote": 40,
      "noteName": "E2",
      "velocity": 1,
      "duration": "54i"
    },
    {
      "time": "14600i",
      "midiNote": 47,
      "noteName": "B2",
      "velocity": 1,
      "duration": "54i"
    },
    {
      "time": "14600i",
      "midiNote": 52,
      "noteName": "E3",
      "velocity": 1,
      "duration": "54i"
    },
    {
      "time": "14664i",
      "midiNote": 40,
      "noteName": "E2",
      "velocity": 0.7952755905511811,
      "duration": "54i"
    },
    {
      "time": "14664i",
      "midiNote": 47,
      "noteName": "B2",
      "velocity": 0.7952755905511811,
      "duration": "54i"
    },
    {
      "time": "14664i",
      "midiNote": 52,
      "noteName": "E3",
      "velocity": 0.7952755905511811,
      "duration": "54i"
    },
    {
      "time": "14728i",
      "midiNote": 40,
      "noteName": "E2",
      "velocity": 0.6062992125984252,
      "duration": "54i"
    },
    {
      "time": "14728i",
      "midiNote": 47,
      "noteName": "B2",
      "velocity": 0.6062992125984252,
      "duration": "54i"
    },
    {
      "time": "14728i",
      "midiNote": 52,
      "noteName": "E3",
      "velocity": 0.6062992125984252,
      "duration": "54i"
    },
    {
      "time": "14792i",
      "midiNote": 52,
      "noteName": "E3",
      "velocity": 0.7086614173228346,
      "duration": "118i"
    },
    {
      "time": "14792i",
      "midiNote": 47,
      "noteName": "B2",
      "velocity": 0.7086614173228346,
      "duration": "118i"
    },
    {
      "time": "14792i",
      "midiNote": 40,
      "noteName": "E2",
      "velocity": 0.7086614173228346,
      "duration": "118i"
    },
    {
      "time": "14920i",
      "midiNote": 52,
      "noteName": "E3",
      "velocity": 0.8740157480314961,
      "duration": "54i"
    },
    {
      "time": "14920i",
      "midiNote": 47,
      "noteName": "B2",
      "velocity": 0.8740157480314961,
      "duration": "54i"
    },
    {
      "time": "14920i",
      "midiNote": 40,
      "noteName": "E2",
      "velocity": 0.8740157480314961,
      "duration": "54i"
    },
    {
      "time": "14984i",
      "midiNote": 40,
      "noteName": "E2",
      "velocity": 1,
      "duration": "54i"
    },
    {
      "time": "14984i",
      "midiNote": 47,
      "noteName": "B2",
      "velocity": 1,
      "duration": "54i"
    },
    {
      "time": "14984i",
      "midiNote": 52,
      "noteName": "E3",
      "velocity": 1,
      "duration": "54i"
    },
    {
      "time": "15048i",
      "midiNote": 52,
      "noteName": "E3",
      "velocity": 0.7716535433070866,
      "duration": "54i"
    },
    {
      "time": "15048i",
      "midiNote": 47,
      "noteName": "B2",
      "velocity": 0.7716535433070866,
      "duration": "54i"
    },
    {
      "time": "15048i",
      "midiNote": 40,
      "noteName": "E2",
      "velocity": 0.7716535433070866,
      "duration": "54i"
    },
    {
      "time": "15112i",
      "midiNote": 40,
      "noteName": "E2",
      "velocity": 0.7086614173228346,
      "duration": "54i"
    },
    {
      "time": "15112i",
      "midiNote": 47,
      "noteName": "B2",
      "velocity": 0.7086614173228346,
      "duration": "54i"
    },
    {
      "time": "15112i",
      "midiNote": 52,
      "noteName": "E3",
      "velocity": 0.7086614173228346,
      "duration": "54i"
    },
    {
      "time": "15176i",
      "midiNote": 52,
      "noteName": "E3",
      "velocity": 0.8031496062992126,
      "duration": "54i"
    },
    {
      "time": "15176i",
      "midiNote": 47,
      "noteName": "B2",
      "velocity": 0.8031496062992126,
      "duration": "54i"
    },
    {
      "time": "15176i",
      "midiNote": 40,
      "noteName": "E2",
      "velocity": 0.8031496062992126,
      "duration": "54i"
    },
    {
      "time": "15240i",
      "midiNote": 47,
      "noteName": "B2",
      "velocity": 0.8031496062992126,
      "duration": "106i"
    },
    {
      "time": "15240i",
      "midiNote": 64,
      "noteName": "E4",
      "velocity": 0.7952755905511811,
      "duration": "106i"
    },
    {
      "time": "15240i",
      "midiNote": 52,
      "noteName": "E3",
      "velocity": 0.7952755905511811,
      "duration": "106i"
    },
    {
      "time": "15368i",
      "midiNote": 52,
      "noteName": "E3",
      "velocity": 1,
      "duration": "54i"
    },
    {
      "time": "15368i",
      "midiNote": 47,
      "noteName": "B2",
      "velocity": 1,
      "duration": "54i"
    },
    {
      "time": "15368i",
      "midiNote": 40,
      "noteName": "E2",
      "velocity": 1,
      "duration": "54i"
    },
    {
      "time": "15432i",
      "midiNote": 52,
      "noteName": "E3",
      "velocity": 0.7480314960629921,
      "duration": "54i"
    },
    {
      "time": "15432i",
      "midiNote": 47,
      "noteName": "B2",
      "velocity": 0.7480314960629921,
      "duration": "54i"
    },
    {
      "time": "15432i",
      "midiNote": 40,
      "noteName": "E2",
      "velocity": 0.7480314960629921,
      "duration": "54i"
    },
    {
      "time": "15496i",
      "midiNote": 40,
      "noteName": "E2",
      "velocity": 0.5826771653543307,
      "duration": "54i"
    },
    {
      "time": "15496i",
      "midiNote": 47,
      "noteName": "B2",
      "velocity": 0.5826771653543307,
      "duration": "54i"
    },
    {
      "time": "15496i",
      "midiNote": 52,
      "noteName": "E3",
      "velocity": 0.5826771653543307,
      "duration": "54i"
    },
    {
      "time": "15560i",
      "midiNote": 52,
      "noteName": "E3",
      "velocity": 0.7007874015748031,
      "duration": "118i"
    },
    {
      "time": "15560i",
      "midiNote": 47,
      "noteName": "B2",
      "velocity": 0.7007874015748031,
      "duration": "118i"
    },
    {
      "time": "15560i",
      "midiNote": 40,
      "noteName": "E2",
      "velocity": 0.7007874015748031,
      "duration": "118i"
    },
    {
      "time": "15688i",
      "midiNote": 40,
      "noteName": "E2",
      "velocity": 0.84251968503937,
      "duration": "54i"
    },
    {
      "time": "15688i",
      "midiNote": 47,
      "noteName": "B2",
      "velocity": 0.84251968503937,
      "duration": "54i"
    },
    {
      "time": "15688i",
      "midiNote": 52,
      "noteName": "E3",
      "velocity": 0.84251968503937,
      "duration": "54i"
    },
    {
      "time": "15752i",
      "midiNote": 40,
      "noteName": "E2",
      "velocity": 1,
      "duration": "54i"
    },
    {
      "time": "15752i",
      "midiNote": 47,
      "noteName": "B2",
      "velocity": 1,
      "duration": "54i"
    },
    {
      "time": "15752i",
      "midiNote": 52,
      "noteName": "E3",
      "velocity": 1,
      "duration": "54i"
    },
    {
      "time": "15816i",
      "midiNote": 52,
      "noteName": "E3",
      "velocity": 0.7716535433070866,
      "duration": "54i"
    },
    {
      "time": "15816i",
      "midiNote": 47,
      "noteName": "B2",
      "velocity": 0.7716535433070866,
      "duration": "54i"
    },
    {
      "time": "15816i",
      "midiNote": 40,
      "noteName": "E2",
      "velocity": 0.7716535433070866,
      "duration": "54i"
    },
    {
      "time": "15880i",
      "midiNote": 40,
      "noteName": "E2",
      "velocity": 0.7086614173228346,
      "duration": "54i"
    },
    {
      "time": "15880i",
      "midiNote": 47,
      "noteName": "B2",
      "velocity": 0.7086614173228346,
      "duration": "54i"
    },
    {
      "time": "15880i",
      "midiNote": 52,
      "noteName": "E3",
      "velocity": 0.7086614173228346,
      "duration": "54i"
    },
    {
      "time": "15944i",
      "midiNote": 40,
      "noteName": "E2",
      "velocity": 0.8031496062992126,
      "duration": "54i"
    },
    {
      "time": "15944i",
      "midiNote": 47,
      "noteName": "B2",
      "velocity": 0.8031496062992126,
      "duration": "54i"
    },
    {
      "time": "15944i",
      "midiNote": 52,
      "noteName": "E3",
      "velocity": 0.8031496062992126,
      "duration": "54i"
    },
    {
      "time": "16008i",
      "midiNote": 57,
      "noteName": "A3",
      "velocity": 0.7952755905511811,
      "duration": "58i"
    },
    {
      "time": "16008i",
      "midiNote": 52,
      "noteName": "E3",
      "velocity": 0.8818897637795275,
      "duration": "60i"
    },
    {
      "time": "16008i",
      "midiNote": 45,
      "noteName": "A2",
      "velocity": 0.8818897637795275,
      "duration": "60i"
    },
    {
      "time": "16072i",
      "midiNote": 52,
      "noteName": "E3",
      "velocity": 0.6141732283464567,
      "duration": "54i"
    },
    {
      "time": "16072i",
      "midiNote": 47,
      "noteName": "B2",
      "velocity": 0.6141732283464567,
      "duration": "54i"
    },
    {
      "time": "16072i",
      "midiNote": 40,
      "noteName": "E2",
      "velocity": 0.6141732283464567,
      "duration": "54i"
    },
    {
      "time": "16136i",
      "midiNote": 52,
      "noteName": "E3",
      "velocity": 1,
      "duration": "54i"
    },
    {
      "time": "16136i",
      "midiNote": 47,
      "noteName": "B2",
      "velocity": 1,
      "duration": "54i"
    },
    {
      "time": "16136i",
      "midiNote": 40,
      "noteName": "E2",
      "velocity": 1,
      "duration": "54i"
    },
    {
      "time": "16200i",
      "midiNote": 52,
      "noteName": "E3",
      "velocity": 0.7480314960629921,
      "duration": "54i"
    },
    {
      "time": "16200i",
      "midiNote": 47,
      "noteName": "B2",
      "velocity": 0.7480314960629921,
      "duration": "54i"
    },
    {
      "time": "16200i",
      "midiNote": 40,
      "noteName": "E2",
      "velocity": 0.7480314960629921,
      "duration": "54i"
    },
    {
      "time": "16264i",
      "midiNote": 40,
      "noteName": "E2",
      "velocity": 0.5826771653543307,
      "duration": "54i"
    },
    {
      "time": "16264i",
      "midiNote": 47,
      "noteName": "B2",
      "velocity": 0.5826771653543307,
      "duration": "54i"
    },
    {
      "time": "16264i",
      "midiNote": 52,
      "noteName": "E3",
      "velocity": 0.5826771653543307,
      "duration": "54i"
    },
    {
      "time": "16328i",
      "midiNote": 52,
      "noteName": "E3",
      "velocity": 0.7007874015748031,
      "duration": "118i"
    },
    {
      "time": "16328i",
      "midiNote": 47,
      "noteName": "B2",
      "velocity": 0.7007874015748031,
      "duration": "118i"
    },
    {
      "time": "16328i",
      "midiNote": 40,
      "noteName": "E2",
      "velocity": 0.7007874015748031,
      "duration": "118i"
    },
    {
      "time": "16456i",
      "midiNote": 40,
      "noteName": "E2",
      "velocity": 0.84251968503937,
      "duration": "54i"
    },
    {
      "time": "16456i",
      "midiNote": 47,
      "noteName": "B2",
      "velocity": 0.84251968503937,
      "duration": "54i"
    },
    {
      "time": "16456i",
      "midiNote": 52,
      "noteName": "E3",
      "velocity": 0.84251968503937,
      "duration": "54i"
    },
    {
      "time": "16520i",
      "midiNote": 40,
      "noteName": "E2",
      "velocity": 1,
      "duration": "54i"
    },
    {
      "time": "16520i",
      "midiNote": 47,
      "noteName": "B2",
      "velocity": 1,
      "duration": "54i"
    },
    {
      "time": "16520i",
      "midiNote": 52,
      "noteName": "E3",
      "velocity": 1,
      "duration": "54i"
    },
    {
      "time": "16584i",
      "midiNote": 52,
      "noteName": "E3",
      "velocity": 0.7716535433070866,
      "duration": "54i"
    },
    {
      "time": "16584i",
      "midiNote": 47,
      "noteName": "B2",
      "velocity": 0.7716535433070866,
      "duration": "54i"
    },
    {
      "time": "16584i",
      "midiNote": 40,
      "noteName": "E2",
      "velocity": 0.7716535433070866,
      "duration": "54i"
    },
    {
      "time": "16648i",
      "midiNote": 40,
      "noteName": "E2",
      "velocity": 0.7086614173228346,
      "duration": "54i"
    },
    {
      "time": "16648i",
      "midiNote": 47,
      "noteName": "B2",
      "velocity": 0.7086614173228346,
      "duration": "54i"
    },
    {
      "time": "16648i",
      "midiNote": 52,
      "noteName": "E3",
      "velocity": 0.7086614173228346,
      "duration": "54i"
    },
    {
      "time": "16712i",
      "midiNote": 40,
      "noteName": "E2",
      "velocity": 0.8031496062992126,
      "duration": "54i"
    },
    {
      "time": "16712i",
      "midiNote": 47,
      "noteName": "B2",
      "velocity": 0.8031496062992126,
      "duration": "54i"
    },
    {
      "time": "16712i",
      "midiNote": 52,
      "noteName": "E3",
      "velocity": 0.8031496062992126,
      "duration": "54i"
    },
    {
      "time": "16776i",
      "midiNote": 57,
      "noteName": "A3",
      "velocity": 0.7952755905511811,
      "duration": "58i"
    },
    {
      "time": "16776i",
      "midiNote": 52,
      "noteName": "E3",
      "velocity": 0.8818897637795275,
      "duration": "60i"
    },
    {
      "time": "16776i",
      "midiNote": 45,
      "noteName": "A2",
      "velocity": 0.8818897637795275,
      "duration": "60i"
    },
    {
      "time": "16840i",
      "midiNote": 52,
      "noteName": "E3",
      "velocity": 0.6141732283464567,
      "duration": "54i"
    },
    {
      "time": "16840i",
      "midiNote": 47,
      "noteName": "B2",
      "velocity": 0.6141732283464567,
      "duration": "54i"
    },
    {
      "time": "16840i",
      "midiNote": 40,
      "noteName": "E2",
      "velocity": 0.6141732283464567,
      "duration": "54i"
    },
    {
      "time": "16904i",
      "midiNote": 52,
      "noteName": "E3",
      "velocity": 1,
      "duration": "54i"
    },
    {
      "time": "16904i",
      "midiNote": 47,
      "noteName": "B2",
      "velocity": 1,
      "duration": "54i"
    },
    {
      "time": "16904i",
      "midiNote": 40,
      "noteName": "E2",
      "velocity": 1,
      "duration": "54i"
    },
    {
      "time": "16968i",
      "midiNote": 52,
      "noteName": "E3",
      "velocity": 0.7480314960629921,
      "duration": "54i"
    },
    {
      "time": "16968i",
      "midiNote": 47,
      "noteName": "B2",
      "velocity": 0.7480314960629921,
      "duration": "54i"
    },
    {
      "time": "16968i",
      "midiNote": 40,
      "noteName": "E2",
      "velocity": 0.7480314960629921,
      "duration": "54i"
    },
    {
      "time": "17032i",
      "midiNote": 40,
      "noteName": "E2",
      "velocity": 0.5826771653543307,
      "duration": "54i"
    },
    {
      "time": "17032i",
      "midiNote": 47,
      "noteName": "B2",
      "velocity": 0.5826771653543307,
      "duration": "54i"
    },
    {
      "time": "17032i",
      "midiNote": 52,
      "noteName": "E3",
      "velocity": 0.5826771653543307,
      "duration": "54i"
    },
    {
      "time": "17096i",
      "midiNote": 52,
      "noteName": "E3",
      "velocity": 0.7007874015748031,
      "duration": "118i"
    },
    {
      "time": "17096i",
      "midiNote": 47,
      "noteName": "B2",
      "velocity": 0.7007874015748031,
      "duration": "118i"
    },
    {
      "time": "17096i",
      "midiNote": 40,
      "noteName": "E2",
      "velocity": 0.7007874015748031,
      "duration": "118i"
    },
    {
      "time": "17224i",
      "midiNote": 40,
      "noteName": "E2",
      "velocity": 0.84251968503937,
      "duration": "54i"
    },
    {
      "time": "17224i",
      "midiNote": 47,
      "noteName": "B2",
      "velocity": 0.84251968503937,
      "duration": "54i"
    },
    {
      "time": "17224i",
      "midiNote": 52,
      "noteName": "E3",
      "velocity": 0.84251968503937,
      "duration": "54i"
    },
    {
      "time": "17288i",
      "midiNote": 40,
      "noteName": "E2",
      "velocity": 1,
      "duration": "54i"
    },
    {
      "time": "17288i",
      "midiNote": 47,
      "noteName": "B2",
      "velocity": 1,
      "duration": "54i"
    },
    {
      "time": "17288i",
      "midiNote": 52,
      "noteName": "E3",
      "velocity": 1,
      "duration": "54i"
    },
    {
      "time": "17352i",
      "midiNote": 52,
      "noteName": "E3",
      "velocity": 0.7716535433070866,
      "duration": "54i"
    },
    {
      "time": "17352i",
      "midiNote": 47,
      "noteName": "B2",
      "velocity": 0.7716535433070866,
      "duration": "54i"
    },
    {
      "time": "17352i",
      "midiNote": 40,
      "noteName": "E2",
      "velocity": 0.7716535433070866,
      "duration": "54i"
    },
    {
      "time": "17416i",
      "midiNote": 40,
      "noteName": "E2",
      "velocity": 0.7086614173228346,
      "duration": "54i"
    },
    {
      "time": "17416i",
      "midiNote": 47,
      "noteName": "B2",
      "velocity": 0.7086614173228346,
      "duration": "54i"
    },
    {
      "time": "17416i",
      "midiNote": 52,
      "noteName": "E3",
      "velocity": 0.7086614173228346,
      "duration": "54i"
    },
    {
      "time": "17480i",
      "midiNote": 40,
      "noteName": "E2",
      "velocity": 0.8031496062992126,
      "duration": "54i"
    },
    {
      "time": "17480i",
      "midiNote": 47,
      "noteName": "B2",
      "velocity": 0.8031496062992126,
      "duration": "54i"
    },
    {
      "time": "17480i",
      "midiNote": 52,
      "noteName": "E3",
      "velocity": 0.8031496062992126,
      "duration": "54i"
    },
    {
      "time": "17544i",
      "midiNote": 57,
      "noteName": "A3",
      "velocity": 0.7952755905511811,
      "duration": "58i"
    },
    {
      "time": "17544i",
      "midiNote": 52,
      "noteName": "E3",
      "velocity": 0.8818897637795275,
      "duration": "60i"
    },
    {
      "time": "17544i",
      "midiNote": 45,
      "noteName": "A2",
      "velocity": 0.8818897637795275,
      "duration": "60i"
    },
    {
      "time": "17608i",
      "midiNote": 52,
      "noteName": "E3",
      "velocity": 0.6141732283464567,
      "duration": "54i"
    },
    {
      "time": "17608i",
      "midiNote": 47,
      "noteName": "B2",
      "velocity": 0.6141732283464567,
      "duration": "54i"
    },
    {
      "time": "17608i",
      "midiNote": 40,
      "noteName": "E2",
      "velocity": 0.6141732283464567,
      "duration": "54i"
    },
    {
      "time": "17672i",
      "midiNote": 52,
      "noteName": "E3",
      "velocity": 1,
      "duration": "54i"
    },
    {
      "time": "17672i",
      "midiNote": 47,
      "noteName": "B2",
      "velocity": 1,
      "duration": "54i"
    },
    {
      "time": "17672i",
      "midiNote": 40,
      "noteName": "E2",
      "velocity": 1,
      "duration": "54i"
    },
    {
      "time": "17736i",
      "midiNote": 52,
      "noteName": "E3",
      "velocity": 0.7480314960629921,
      "duration": "54i"
    },
    {
      "time": "17736i",
      "midiNote": 47,
      "noteName": "B2",
      "velocity": 0.7480314960629921,
      "duration": "54i"
    },
    {
      "time": "17736i",
      "midiNote": 40,
      "noteName": "E2",
      "velocity": 0.7480314960629921,
      "duration": "54i"
    },
    {
      "time": "17800i",
      "midiNote": 40,
      "noteName": "E2",
      "velocity": 0.5826771653543307,
      "duration": "54i"
    },
    {
      "time": "17800i",
      "midiNote": 47,
      "noteName": "B2",
      "velocity": 0.5826771653543307,
      "duration": "54i"
    },
    {
      "time": "17800i",
      "midiNote": 52,
      "noteName": "E3",
      "velocity": 0.5826771653543307,
      "duration": "54i"
    },
    {
      "time": "17864i",
      "midiNote": 52,
      "noteName": "E3",
      "velocity": 0.7007874015748031,
      "duration": "118i"
    },
    {
      "time": "17864i",
      "midiNote": 47,
      "noteName": "B2",
      "velocity": 0.7007874015748031,
      "duration": "118i"
    },
    {
      "time": "17864i",
      "midiNote": 40,
      "noteName": "E2",
      "velocity": 0.7007874015748031,
      "duration": "118i"
    },
    {
      "time": "17992i",
      "midiNote": 40,
      "noteName": "E2",
      "velocity": 0.84251968503937,
      "duration": "54i"
    },
    {
      "time": "17992i",
      "midiNote": 47,
      "noteName": "B2",
      "velocity": 0.84251968503937,
      "duration": "54i"
    },
    {
      "time": "17992i",
      "midiNote": 52,
      "noteName": "E3",
      "velocity": 0.84251968503937,
      "duration": "54i"
    },
    {
      "time": "18056i",
      "midiNote": 40,
      "noteName": "E2",
      "velocity": 1,
      "duration": "54i"
    },
    {
      "time": "18056i",
      "midiNote": 47,
      "noteName": "B2",
      "velocity": 1,
      "duration": "54i"
    },
    {
      "time": "18056i",
      "midiNote": 52,
      "noteName": "E3",
      "velocity": 1,
      "duration": "54i"
    },
    {
      "time": "18120i",
      "midiNote": 52,
      "noteName": "E3",
      "velocity": 0.7716535433070866,
      "duration": "54i"
    },
    {
      "time": "18120i",
      "midiNote": 47,
      "noteName": "B2",
      "velocity": 0.7716535433070866,
      "duration": "54i"
    },
    {
      "time": "18120i",
      "midiNote": 40,
      "noteName": "E2",
      "velocity": 0.7716535433070866,
      "duration": "54i"
    },
    {
      "time": "18184i",
      "midiNote": 40,
      "noteName": "E2",
      "velocity": 0.7086614173228346,
      "duration": "54i"
    },
    {
      "time": "18184i",
      "midiNote": 47,
      "noteName": "B2",
      "velocity": 0.7086614173228346,
      "duration": "54i"
    },
    {
      "time": "18184i",
      "midiNote": 52,
      "noteName": "E3",
      "velocity": 0.7086614173228346,
      "duration": "54i"
    },
    {
      "time": "18248i",
      "midiNote": 54,
      "noteName": "F#3",
      "velocity": 1,
      "duration": "176i"
    },
    {
      "time": "18444i",
      "midiNote": 31,
      "noteName": "G1",
      "velocity": 1,
      "duration": "572i"
    },
    {
      "time": "18444i",
      "midiNote": 55,
      "noteName": "G3",
      "velocity": 1,
      "duration": "572i"
    },
    {
      "time": "18444i",
      "midiNote": 50,
      "noteName": "D3",
      "velocity": 1,
      "duration": "572i"
    },
    {
      "time": "18444i",
      "midiNote": 43,
      "noteName": "G2",
      "velocity": 1,
      "duration": "572i"
    },
    {
      "time": "19020i",
      "midiNote": 38,
      "noteName": "D2",
      "velocity": 1,
      "duration": "188i"
    },
    {
      "time": "19020i",
      "midiNote": 50,
      "noteName": "D3",
      "velocity": 1,
      "duration": "188i"
    },
    {
      "time": "19212i",
      "midiNote": 33,
      "noteName": "A1",
      "velocity": 1,
      "duration": "572i"
    },
    {
      "time": "19212i",
      "midiNote": 57,
      "noteName": "A3",
      "velocity": 1,
      "duration": "572i"
    },
    {
      "time": "19212i",
      "midiNote": 52,
      "noteName": "E3",
      "velocity": 1,
      "duration": "572i"
    },
    {
      "time": "19212i",
      "midiNote": 45,
      "noteName": "A2",
      "velocity": 1,
      "duration": "572i"
    },
    {
      "time": "19788i",
      "midiNote": 40,
      "noteName": "E2",
      "velocity": 0.9921259842519685,
      "duration": "188i"
    },
    {
      "time": "19788i",
      "midiNote": 52,
      "noteName": "E3",
      "velocity": 0.9921259842519685,
      "duration": "188i"
    },
    {
      "time": "19980i",
      "midiNote": 30,
      "noteName": "F#1",
      "velocity": 1,
      "duration": "764i"
    },
    {
      "time": "19980i",
      "midiNote": 54,
      "noteName": "F#3",
      "velocity": 1,
      "duration": "764i"
    },
    {
      "time": "19980i",
      "midiNote": 49,
      "noteName": "C#3",
      "velocity": 1,
      "duration": "764i"
    },
    {
      "time": "19980i",
      "midiNote": 42,
      "noteName": "F#2",
      "velocity": 1,
      "duration": "764i"
    },
    {
      "time": "20748i",
      "midiNote": 42,
      "noteName": "F#2",
      "velocity": 1,
      "duration": "572i"
    },
    {
      "time": "20748i",
      "midiNote": 54,
      "noteName": "F#3",
      "velocity": 1,
      "duration": "572i"
    },
    {
      "time": "20748i",
      "midiNote": 59,
      "noteName": "B3",
      "velocity": 1,
      "duration": "572i"
    },
    {
      "time": "20748i",
      "midiNote": 66,
      "noteName": "F#4",
      "velocity": 1,
      "duration": "572i"
    },
    {
      "time": "21324i",
      "midiNote": 55,
      "noteName": "G3",
      "velocity": 1,
      "duration": "188i"
    },
    {
      "time": "21324i",
      "midiNote": 31,
      "noteName": "G1",
      "velocity": 0.84251968503937,
      "duration": "188i"
    },
    {
      "time": "21324i",
      "midiNote": 43,
      "noteName": "G2",
      "velocity": 0.84251968503937,
      "duration": "188i"
    },
    {
      "time": "27276i",
      "midiNote": 33,
      "noteName": "A1",
      "velocity": 1,
      "duration": "252i"
    },
    {
      "time": "27276i",
      "midiNote": 45,
      "noteName": "A2",
      "velocity": 1,
      "duration": "252i"
    }
  ],
  [
    {
      "time": "21504i",
      "midiNote": 76,
      "noteName": "E5",
      "velocity": 0.9921259842519685,
      "duration": "184i"
    },
    {
      "time": "21792i",
      "midiNote": 76,
      "noteName": "E5",
      "velocity": 0.9921259842519685,
      "duration": "44i"
    },
    {
      "time": "21840i",
      "midiNote": 74,
      "noteName": "D5",
      "velocity": 0.9921259842519685,
      "duration": "44i"
    },
    {
      "time": "21888i",
      "midiNote": 81,
      "noteName": "A5",
      "velocity": 0.9921259842519685,
      "duration": "184i"
    },
    {
      "time": "22144i",
      "midiNote": 76,
      "noteName": "E5",
      "velocity": 0.9921259842519685,
      "duration": "56i"
    },
    {
      "time": "22208i",
      "midiNote": 78,
      "noteName": "F#5",
      "velocity": 0.9921259842519685,
      "duration": "56i"
    },
    {
      "time": "22272i",
      "midiNote": 79,
      "noteName": "G5",
      "velocity": 0.9921259842519685,
      "duration": "184i"
    },
    {
      "time": "22464i",
      "midiNote": 78,
      "noteName": "F#5",
      "velocity": 0.9921259842519685,
      "duration": "184i"
    },
    {
      "time": "22656i",
      "midiNote": 76,
      "noteName": "E5",
      "velocity": 0.9921259842519685,
      "duration": "184i"
    },
    {
      "time": "22848i",
      "midiNote": 76,
      "noteName": "E5",
      "velocity": 0.9921259842519685,
      "duration": "56i"
    },
    {
      "time": "22912i",
      "midiNote": 72,
      "noteName": "C5",
      "velocity": 0.9921259842519685,
      "duration": "56i"
    },
    {
      "time": "22976i",
      "midiNote": 79,
      "noteName": "G5",
      "velocity": 0.9921259842519685,
      "duration": "56i"
    },
    {
      "time": "23040i",
      "midiNote": 71,
      "noteName": "B4",
      "velocity": 0.9921259842519685,
      "duration": "184i"
    },
    {
      "time": "23232i",
      "midiNote": 67,
      "noteName": "G4",
      "velocity": 0.9921259842519685,
      "duration": "126i"
    },
    {
      "time": "23360i",
      "midiNote": 64,
      "noteName": "E4",
      "velocity": 0.9921259842519685,
      "duration": "56i"
    },
    {
      "time": "23424i",
      "midiNote": 74,
      "noteName": "D5",
      "velocity": 0.9921259842519685,
      "duration": "118i"
    },
    {
      "time": "23552i",
      "midiNote": 69,
      "noteName": "A4",
      "velocity": 0.9921259842519685,
      "duration": "56i"
    },
    {
      "time": "23616i",
      "midiNote": 67,
      "noteName": "G4",
      "velocity": 0.9921259842519685,
      "duration": "186i"
    },
    {
      "time": "23808i",
      "midiNote": 64,
      "noteName": "E4",
      "velocity": 0.9921259842519685,
      "duration": "56i"
    },
    {
      "time": "23872i",
      "midiNote": 62,
      "noteName": "D4",
      "velocity": 0.9921259842519685,
      "duration": "124i"
    },
    {
      "time": "24000i",
      "midiNote": 59,
      "noteName": "B3",
      "velocity": 0.9921259842519685,
      "duration": "546i"
    },
    {
      "time": "24576i",
      "midiNote": 83,
      "noteName": "B5",
      "velocity": 0.9921259842519685,
      "duration": "184i"
    },
    {
      "time": "24832i",
      "midiNote": 71,
      "noteName": "B4",
      "velocity": 0.9921259842519685,
      "duration": "120i"
    },
    {
      "time": "24960i",
      "midiNote": 78,
      "noteName": "F#5",
      "velocity": 0.9921259842519685,
      "duration": "184i"
    },
    {
      "time": "25216i",
      "midiNote": 71,
      "noteName": "B4",
      "velocity": 0.9921259842519685,
      "duration": "120i"
    },
    {
      "time": "25344i",
      "midiNote": 79,
      "noteName": "G5",
      "velocity": 0.9921259842519685,
      "duration": "184i"
    },
    {
      "time": "25600i",
      "midiNote": 71,
      "noteName": "B4",
      "velocity": 0.9921259842519685,
      "duration": "120i"
    },
    {
      "time": "25728i",
      "midiNote": 81,
      "noteName": "A5",
      "velocity": 0.9921259842519685,
      "duration": "184i"
    },
    {
      "time": "25984i",
      "midiNote": 71,
      "noteName": "B4",
      "velocity": 0.9921259842519685,
      "duration": "120i"
    },
    {
      "time": "26112i",
      "midiNote": 86,
      "noteName": "D6",
      "velocity": 0.9921259842519685,
      "duration": "1144i"
    },
    {
      "time": "27520i",
      "midiNote": 76,
      "noteName": "E5",
      "velocity": 0.9921259842519685,
      "duration": "60i"
    },
    {
      "time": "27584i",
      "midiNote": 78,
      "noteName": "F#5",
      "velocity": 0.9921259842519685,
      "duration": "60i"
    },
    {
      "time": "27648i",
      "midiNote": 76,
      "noteName": "E5",
      "velocity": 0.9921259842519685,
      "duration": "280i"
    },
    {
      "time": "28032i",
      "midiNote": 74,
      "noteName": "D5",
      "velocity": 0.9921259842519685,
      "duration": "60i"
    },
    {
      "time": "28096i",
      "midiNote": 70,
      "noteName": "A#4",
      "velocity": 0.9921259842519685,
      "duration": "60i"
    },
    {
      "time": "28160i",
      "midiNote": 74,
      "noteName": "D5",
      "velocity": 0.9921259842519685,
      "duration": "60i"
    },
    {
      "time": "28224i",
      "midiNote": 70,
      "noteName": "A#4",
      "velocity": 0.9921259842519685,
      "duration": "60i"
    },
    {
      "time": "28288i",
      "midiNote": 74,
      "noteName": "D5",
      "velocity": 0.9921259842519685,
      "duration": "60i"
    },
    {
      "time": "28352i",
      "midiNote": 73,
      "noteName": "C#5",
      "velocity": 0.9921259842519685,
      "duration": "56i"
    },
    {
      "time": "28416i",
      "midiNote": 73,
      "noteName": "C#5",
      "velocity": 0.9921259842519685,
      "duration": "280i"
    },
    {
      "time": "28800i",
      "midiNote": 59,
      "noteName": "B3",
      "velocity": 0.9921259842519685,
      "duration": "56i"
    },
    {
      "time": "28864i",
      "midiNote": 64,
      "noteName": "E4",
      "velocity": 0.9921259842519685,
      "duration": "56i"
    },
    {
      "time": "28928i",
      "midiNote": 67,
      "noteName": "G4",
      "velocity": 0.9921259842519685,
      "duration": "56i"
    },
    {
      "time": "28992i",
      "midiNote": 71,
      "noteName": "B4",
      "velocity": 0.9921259842519685,
      "duration": "56i"
    },
    {
      "time": "29056i",
      "midiNote": 74,
      "noteName": "D5",
      "velocity": 0.9921259842519685,
      "duration": "56i"
    },
    {
      "time": "29120i",
      "midiNote": 71,
      "noteName": "B4",
      "velocity": 0.9921259842519685,
      "duration": "56i"
    },
    {
      "time": "29184i",
      "midiNote": 72,
      "noteName": "C5",
      "velocity": 0.9921259842519685,
      "duration": "376i"
    },
    {
      "time": "29568i",
      "midiNote": 71,
      "noteName": "B4",
      "velocity": 0.9921259842519685,
      "duration": "376i"
    },
    {
      "time": "29952i",
      "midiNote": 71,
      "noteName": "B4",
      "velocity": 0.9921259842519685,
      "duration": "188i"
    },
    {
      "time": "30144i",
      "midiNote": 67,
      "noteName": "G4",
      "velocity": 0.9921259842519685,
      "duration": "60i"
    },
    {
      "time": "30208i",
      "midiNote": 66,
      "noteName": "F#4",
      "velocity": 0.9921259842519685,
      "duration": "60i"
    },
    {
      "time": "30272i",
      "midiNote": 64,
      "noteName": "E4",
      "velocity": 0.9921259842519685,
      "duration": "60i"
    },
    {
      "time": "30336i",
      "midiNote": 62,
      "noteName": "D4",
      "velocity": 0.9921259842519685,
      "duration": "60i"
    },
    {
      "time": "30400i",
      "midiNote": 60,
      "noteName": "C4",
      "velocity": 0.9921259842519685,
      "duration": "60i"
    },
    {
      "time": "30464i",
      "midiNote": 59,
      "noteName": "B3",
      "velocity": 0.9921259842519685,
      "duration": "60i"
    },
    {
      "time": "30528i",
      "midiNote": 57,
      "noteName": "A3",
      "velocity": 0.9921259842519685,
      "duration": "60i"
    },
    {
      "time": "30592i",
      "midiNote": 55,
      "noteName": "G3",
      "velocity": 0.9921259842519685,
      "duration": "60i"
    },
    {
      "time": "30656i",
      "midiNote": 54,
      "noteName": "F#3",
      "velocity": 0.9921259842519685,
      "duration": "60i"
    },
    {
      "time": "30720i",
      "midiNote": 76,
      "noteName": "E5",
      "velocity": 0.9921259842519685,
      "duration": "184i"
    },
    {
      "time": "30976i",
      "midiNote": 71,
      "noteName": "B4",
      "velocity": 0.9921259842519685,
      "duration": "120i"
    },
    {
      "time": "31104i",
      "midiNote": 78,
      "noteName": "F#5",
      "velocity": 0.9921259842519685,
      "duration": "184i"
    },
    {
      "time": "31360i",
      "midiNote": 71,
      "noteName": "B4",
      "velocity": 0.9921259842519685,
      "duration": "120i"
    },
    {
      "time": "31488i",
      "midiNote": 79,
      "noteName": "G5",
      "velocity": 0.9921259842519685,
      "duration": "184i"
    },
    {
      "time": "31744i",
      "midiNote": 71,
      "noteName": "B4",
      "velocity": 0.9921259842519685,
      "duration": "120i"
    },
    {
      "time": "31872i",
      "midiNote": 82,
      "noteName": "A#5",
      "velocity": 0.9921259842519685,
      "duration": "184i"
    },
    {
      "time": "32128i",
      "midiNote": 71,
      "noteName": "B4",
      "velocity": 0.9921259842519685,
      "duration": "120i"
    },
    {
      "time": "32256i",
      "midiNote": 84,
      "noteName": "C6",
      "velocity": 0.9921259842519685,
      "duration": "184i"
    },
    {
      "time": "32512i",
      "midiNote": 71,
      "noteName": "B4",
      "velocity": 0.9921259842519685,
      "duration": "120i"
    },
    {
      "time": "32640i",
      "midiNote": 86,
      "noteName": "D6",
      "velocity": 0.9921259842519685,
      "duration": "184i"
    },
    {
      "time": "32834i",
      "midiNote": 86,
      "noteName": "D6",
      "velocity": 0.9921259842519685,
      "duration": "184i"
    },
    {
      "time": "33024i",
      "midiNote": 83,
      "noteName": "B5",
      "velocity": 0.9921259842519685,
      "duration": "1336i"
    },
    {
      "time": "33024i",
      "midiNote": 88,
      "noteName": "E6",
      "velocity": 0.9921259842519685,
      "duration": "1336i"
    }
  ],
  [
    {
      "time": "21696i",
      "midiNote": 76,
      "noteName": "E5",
      "velocity": 0.9921259842519685,
      "duration": "184i"
    },
    {
      "time": "21984i",
      "midiNote": 76,
      "noteName": "E5",
      "velocity": 0.9921259842519685,
      "duration": "44i"
    },
    {
      "time": "22032i",
      "midiNote": 74,
      "noteName": "D5",
      "velocity": 0.9921259842519685,
      "duration": "44i"
    },
    {
      "time": "22080i",
      "midiNote": 81,
      "noteName": "A5",
      "velocity": 0.9921259842519685,
      "duration": "184i"
    },
    {
      "time": "22336i",
      "midiNote": 76,
      "noteName": "E5",
      "velocity": 0.9921259842519685,
      "duration": "56i"
    },
    {
      "time": "22400i",
      "midiNote": 78,
      "noteName": "F#5",
      "velocity": 0.9921259842519685,
      "duration": "56i"
    },
    {
      "time": "22464i",
      "midiNote": 79,
      "noteName": "G5",
      "velocity": 0.9921259842519685,
      "duration": "184i"
    },
    {
      "time": "22656i",
      "midiNote": 78,
      "noteName": "F#5",
      "velocity": 0.9921259842519685,
      "duration": "184i"
    },
    {
      "time": "22848i",
      "midiNote": 76,
      "noteName": "E5",
      "velocity": 0.9921259842519685,
      "duration": "184i"
    },
    {
      "time": "23040i",
      "midiNote": 76,
      "noteName": "E5",
      "velocity": 0.9921259842519685,
      "duration": "56i"
    },
    {
      "time": "23104i",
      "midiNote": 72,
      "noteName": "C5",
      "velocity": 0.9921259842519685,
      "duration": "56i"
    },
    {
      "time": "23168i",
      "midiNote": 79,
      "noteName": "G5",
      "velocity": 0.9921259842519685,
      "duration": "56i"
    },
    {
      "time": "23232i",
      "midiNote": 71,
      "noteName": "B4",
      "velocity": 0.9921259842519685,
      "duration": "184i"
    },
    {
      "time": "23424i",
      "midiNote": 67,
      "noteName": "G4",
      "velocity": 0.9921259842519685,
      "duration": "126i"
    },
    {
      "time": "23552i",
      "midiNote": 64,
      "noteName": "E4",
      "velocity": 0.9921259842519685,
      "duration": "56i"
    },
    {
      "time": "23616i",
      "midiNote": 74,
      "noteName": "D5",
      "velocity": 0.9921259842519685,
      "duration": "118i"
    },
    {
      "time": "23744i",
      "midiNote": 69,
      "noteName": "A4",
      "velocity": 0.9921259842519685,
      "duration": "56i"
    },
    {
      "time": "23808i",
      "midiNote": 67,
      "noteName": "G4",
      "velocity": 0.9921259842519685,
      "duration": "186i"
    },
    {
      "time": "24000i",
      "midiNote": 64,
      "noteName": "E4",
      "velocity": 0.9921259842519685,
      "duration": "56i"
    },
    {
      "time": "24064i",
      "midiNote": 62,
      "noteName": "D4",
      "velocity": 0.9921259842519685,
      "duration": "124i"
    },
    {
      "time": "24192i",
      "midiNote": 59,
      "noteName": "B3",
      "velocity": 0.9921259842519685,
      "duration": "546i"
    },
    {
      "time": "24768i",
      "midiNote": 83,
      "noteName": "B5",
      "velocity": 0.9921259842519685,
      "duration": "184i"
    },
    {
      "time": "25024i",
      "midiNote": 71,
      "noteName": "B4",
      "velocity": 0.9921259842519685,
      "duration": "120i"
    },
    {
      "time": "25152i",
      "midiNote": 78,
      "noteName": "F#5",
      "velocity": 0.9921259842519685,
      "duration": "184i"
    },
    {
      "time": "25408i",
      "midiNote": 71,
      "noteName": "B4",
      "velocity": 0.9921259842519685,
      "duration": "120i"
    },
    {
      "time": "25536i",
      "midiNote": 79,
      "noteName": "G5",
      "velocity": 0.9921259842519685,
      "duration": "184i"
    },
    {
      "time": "25792i",
      "midiNote": 71,
      "noteName": "B4",
      "velocity": 0.9921259842519685,
      "duration": "120i"
    },
    {
      "time": "25920i",
      "midiNote": 81,
      "noteName": "A5",
      "velocity": 0.9921259842519685,
      "duration": "184i"
    },
    {
      "time": "26176i",
      "midiNote": 71,
      "noteName": "B4",
      "velocity": 0.9921259842519685,
      "duration": "120i"
    },
    {
      "time": "26304i",
      "midiNote": 86,
      "noteName": "D6",
      "velocity": 0.9921259842519685,
      "duration": "1144i"
    },
    {
      "time": "27712i",
      "midiNote": 76,
      "noteName": "E5",
      "velocity": 0.9921259842519685,
      "duration": "60i"
    },
    {
      "time": "27776i",
      "midiNote": 78,
      "noteName": "F#5",
      "velocity": 0.9921259842519685,
      "duration": "60i"
    },
    {
      "time": "27840i",
      "midiNote": 76,
      "noteName": "E5",
      "velocity": 0.9921259842519685,
      "duration": "280i"
    },
    {
      "time": "28224i",
      "midiNote": 74,
      "noteName": "D5",
      "velocity": 0.9921259842519685,
      "duration": "60i"
    },
    {
      "time": "28288i",
      "midiNote": 70,
      "noteName": "A#4",
      "velocity": 0.9921259842519685,
      "duration": "60i"
    },
    {
      "time": "28352i",
      "midiNote": 74,
      "noteName": "D5",
      "velocity": 0.9921259842519685,
      "duration": "60i"
    },
    {
      "time": "28416i",
      "midiNote": 70,
      "noteName": "A#4",
      "velocity": 0.9921259842519685,
      "duration": "60i"
    },
    {
      "time": "28480i",
      "midiNote": 74,
      "noteName": "D5",
      "velocity": 0.9921259842519685,
      "duration": "60i"
    },
    {
      "time": "28544i",
      "midiNote": 73,
      "noteName": "C#5",
      "velocity": 0.9921259842519685,
      "duration": "56i"
    },
    {
      "time": "28608i",
      "midiNote": 73,
      "noteName": "C#5",
      "velocity": 0.9921259842519685,
      "duration": "280i"
    },
    {
      "time": "28992i",
      "midiNote": 59,
      "noteName": "B3",
      "velocity": 0.9921259842519685,
      "duration": "56i"
    },
    {
      "time": "29056i",
      "midiNote": 64,
      "noteName": "E4",
      "velocity": 0.9921259842519685,
      "duration": "56i"
    },
    {
      "time": "29120i",
      "midiNote": 67,
      "noteName": "G4",
      "velocity": 0.9921259842519685,
      "duration": "56i"
    },
    {
      "time": "29184i",
      "midiNote": 71,
      "noteName": "B4",
      "velocity": 0.9921259842519685,
      "duration": "56i"
    },
    {
      "time": "29248i",
      "midiNote": 74,
      "noteName": "D5",
      "velocity": 0.9921259842519685,
      "duration": "56i"
    },
    {
      "time": "29312i",
      "midiNote": 71,
      "noteName": "B4",
      "velocity": 0.9921259842519685,
      "duration": "56i"
    },
    {
      "time": "29376i",
      "midiNote": 72,
      "noteName": "C5",
      "velocity": 0.9921259842519685,
      "duration": "376i"
    },
    {
      "time": "29760i",
      "midiNote": 71,
      "noteName": "B4",
      "velocity": 0.9921259842519685,
      "duration": "376i"
    },
    {
      "time": "30144i",
      "midiNote": 71,
      "noteName": "B4",
      "velocity": 0.9921259842519685,
      "duration": "188i"
    },
    {
      "time": "30336i",
      "midiNote": 67,
      "noteName": "G4",
      "velocity": 0.9921259842519685,
      "duration": "60i"
    },
    {
      "time": "30400i",
      "midiNote": 66,
      "noteName": "F#4",
      "velocity": 0.9921259842519685,
      "duration": "60i"
    },
    {
      "time": "30464i",
      "midiNote": 64,
      "noteName": "E4",
      "velocity": 0.9921259842519685,
      "duration": "60i"
    },
    {
      "time": "30528i",
      "midiNote": 62,
      "noteName": "D4",
      "velocity": 0.9921259842519685,
      "duration": "60i"
    },
    {
      "time": "30592i",
      "midiNote": 60,
      "noteName": "C4",
      "velocity": 0.9921259842519685,
      "duration": "60i"
    },
    {
      "time": "30656i",
      "midiNote": 59,
      "noteName": "B3",
      "velocity": 0.9921259842519685,
      "duration": "60i"
    },
    {
      "time": "30720i",
      "midiNote": 57,
      "noteName": "A3",
      "velocity": 0.9921259842519685,
      "duration": "60i"
    },
    {
      "time": "30784i",
      "midiNote": 55,
      "noteName": "G3",
      "velocity": 0.9921259842519685,
      "duration": "60i"
    },
    {
      "time": "30848i",
      "midiNote": 54,
      "noteName": "F#3",
      "velocity": 0.9921259842519685,
      "duration": "60i"
    },
    {
      "time": "30912i",
      "midiNote": 76,
      "noteName": "E5",
      "velocity": 0.9921259842519685,
      "duration": "184i"
    },
    {
      "time": "31168i",
      "midiNote": 71,
      "noteName": "B4",
      "velocity": 0.9921259842519685,
      "duration": "120i"
    },
    {
      "time": "31296i",
      "midiNote": 78,
      "noteName": "F#5",
      "velocity": 0.9921259842519685,
      "duration": "184i"
    },
    {
      "time": "31552i",
      "midiNote": 71,
      "noteName": "B4",
      "velocity": 0.9921259842519685,
      "duration": "120i"
    },
    {
      "time": "31680i",
      "midiNote": 79,
      "noteName": "G5",
      "velocity": 0.9921259842519685,
      "duration": "184i"
    },
    {
      "time": "31936i",
      "midiNote": 71,
      "noteName": "B4",
      "velocity": 0.9921259842519685,
      "duration": "120i"
    },
    {
      "time": "32064i",
      "midiNote": 82,
      "noteName": "A#5",
      "velocity": 0.9921259842519685,
      "duration": "184i"
    },
    {
      "time": "32320i",
      "midiNote": 71,
      "noteName": "B4",
      "velocity": 0.9921259842519685,
      "duration": "120i"
    },
    {
      "time": "32448i",
      "midiNote": 84,
      "noteName": "C6",
      "velocity": 0.9921259842519685,
      "duration": "184i"
    },
    {
      "time": "32704i",
      "midiNote": 71,
      "noteName": "B4",
      "velocity": 0.9921259842519685,
      "duration": "120i"
    },
    {
      "time": "32832i",
      "midiNote": 86,
      "noteName": "D6",
      "velocity": 0.9921259842519685,
      "duration": "184i"
    },
    {
      "time": "33026i",
      "midiNote": 86,
      "noteName": "D6",
      "velocity": 0.9921259842519685,
      "duration": "184i"
    },
    {
      "time": "33216i",
      "midiNote": 88,
      "noteName": "E6",
      "velocity": 0.9921259842519685,
      "duration": "1336i"
    },
    {
      "time": "33216i",
      "midiNote": 83,
      "noteName": "B5",
      "velocity": 0.9921259842519685,
      "duration": "1336i"
    }
  ],
  [
    {
      "time": "21708i",
      "midiNote": 76,
      "noteName": "E5",
      "velocity": 0.9921259842519685,
      "duration": "184i"
    },
    {
      "time": "21996i",
      "midiNote": 76,
      "noteName": "E5",
      "velocity": 0.9921259842519685,
      "duration": "44i"
    },
    {
      "time": "22044i",
      "midiNote": 74,
      "noteName": "D5",
      "velocity": 0.9921259842519685,
      "duration": "44i"
    },
    {
      "time": "22092i",
      "midiNote": 81,
      "noteName": "A5",
      "velocity": 0.9921259842519685,
      "duration": "184i"
    },
    {
      "time": "22348i",
      "midiNote": 76,
      "noteName": "E5",
      "velocity": 0.9921259842519685,
      "duration": "56i"
    },
    {
      "time": "22412i",
      "midiNote": 78,
      "noteName": "F#5",
      "velocity": 0.9921259842519685,
      "duration": "56i"
    },
    {
      "time": "22476i",
      "midiNote": 79,
      "noteName": "G5",
      "velocity": 0.9921259842519685,
      "duration": "184i"
    },
    {
      "time": "22668i",
      "midiNote": 78,
      "noteName": "F#5",
      "velocity": 0.9921259842519685,
      "duration": "184i"
    },
    {
      "time": "22860i",
      "midiNote": 76,
      "noteName": "E5",
      "velocity": 0.9921259842519685,
      "duration": "184i"
    },
    {
      "time": "23052i",
      "midiNote": 76,
      "noteName": "E5",
      "velocity": 0.9921259842519685,
      "duration": "56i"
    },
    {
      "time": "23116i",
      "midiNote": 72,
      "noteName": "C5",
      "velocity": 0.9921259842519685,
      "duration": "56i"
    },
    {
      "time": "23180i",
      "midiNote": 79,
      "noteName": "G5",
      "velocity": 0.9921259842519685,
      "duration": "56i"
    },
    {
      "time": "23244i",
      "midiNote": 71,
      "noteName": "B4",
      "velocity": 0.9921259842519685,
      "duration": "184i"
    },
    {
      "time": "23436i",
      "midiNote": 67,
      "noteName": "G4",
      "velocity": 0.9921259842519685,
      "duration": "126i"
    },
    {
      "time": "23564i",
      "midiNote": 64,
      "noteName": "E4",
      "velocity": 0.9921259842519685,
      "duration": "56i"
    },
    {
      "time": "23628i",
      "midiNote": 74,
      "noteName": "D5",
      "velocity": 0.9921259842519685,
      "duration": "118i"
    },
    {
      "time": "23756i",
      "midiNote": 69,
      "noteName": "A4",
      "velocity": 0.9921259842519685,
      "duration": "56i"
    },
    {
      "time": "23820i",
      "midiNote": 67,
      "noteName": "G4",
      "velocity": 0.9921259842519685,
      "duration": "186i"
    },
    {
      "time": "24012i",
      "midiNote": 64,
      "noteName": "E4",
      "velocity": 0.9921259842519685,
      "duration": "56i"
    },
    {
      "time": "24076i",
      "midiNote": 62,
      "noteName": "D4",
      "velocity": 0.9921259842519685,
      "duration": "124i"
    },
    {
      "time": "24204i",
      "midiNote": 59,
      "noteName": "B3",
      "velocity": 0.9921259842519685,
      "duration": "546i"
    },
    {
      "time": "24780i",
      "midiNote": 83,
      "noteName": "B5",
      "velocity": 0.9921259842519685,
      "duration": "184i"
    },
    {
      "time": "25036i",
      "midiNote": 71,
      "noteName": "B4",
      "velocity": 0.9921259842519685,
      "duration": "120i"
    },
    {
      "time": "25164i",
      "midiNote": 78,
      "noteName": "F#5",
      "velocity": 0.9921259842519685,
      "duration": "184i"
    },
    {
      "time": "25420i",
      "midiNote": 71,
      "noteName": "B4",
      "velocity": 0.9921259842519685,
      "duration": "120i"
    },
    {
      "time": "25548i",
      "midiNote": 79,
      "noteName": "G5",
      "velocity": 0.9921259842519685,
      "duration": "184i"
    },
    {
      "time": "25804i",
      "midiNote": 71,
      "noteName": "B4",
      "velocity": 0.9921259842519685,
      "duration": "120i"
    },
    {
      "time": "25932i",
      "midiNote": 81,
      "noteName": "A5",
      "velocity": 0.9921259842519685,
      "duration": "184i"
    },
    {
      "time": "26188i",
      "midiNote": 71,
      "noteName": "B4",
      "velocity": 0.9921259842519685,
      "duration": "120i"
    },
    {
      "time": "26316i",
      "midiNote": 86,
      "noteName": "D6",
      "velocity": 0.9921259842519685,
      "duration": "1144i"
    },
    {
      "time": "27724i",
      "midiNote": 76,
      "noteName": "E5",
      "velocity": 0.9921259842519685,
      "duration": "60i"
    },
    {
      "time": "27788i",
      "midiNote": 78,
      "noteName": "F#5",
      "velocity": 0.9921259842519685,
      "duration": "60i"
    },
    {
      "time": "27852i",
      "midiNote": 76,
      "noteName": "E5",
      "velocity": 0.9921259842519685,
      "duration": "280i"
    },
    {
      "time": "28236i",
      "midiNote": 74,
      "noteName": "D5",
      "velocity": 0.9921259842519685,
      "duration": "60i"
    },
    {
      "time": "28300i",
      "midiNote": 70,
      "noteName": "A#4",
      "velocity": 0.9921259842519685,
      "duration": "60i"
    },
    {
      "time": "28364i",
      "midiNote": 74,
      "noteName": "D5",
      "velocity": 0.9921259842519685,
      "duration": "60i"
    },
    {
      "time": "28428i",
      "midiNote": 70,
      "noteName": "A#4",
      "velocity": 0.9921259842519685,
      "duration": "60i"
    },
    {
      "time": "28492i",
      "midiNote": 74,
      "noteName": "D5",
      "velocity": 0.9921259842519685,
      "duration": "60i"
    },
    {
      "time": "28556i",
      "midiNote": 73,
      "noteName": "C#5",
      "velocity": 0.9921259842519685,
      "duration": "56i"
    },
    {
      "time": "28620i",
      "midiNote": 73,
      "noteName": "C#5",
      "velocity": 0.9921259842519685,
      "duration": "280i"
    },
    {
      "time": "29004i",
      "midiNote": 59,
      "noteName": "B3",
      "velocity": 0.9921259842519685,
      "duration": "56i"
    },
    {
      "time": "29068i",
      "midiNote": 64,
      "noteName": "E4",
      "velocity": 0.9921259842519685,
      "duration": "56i"
    },
    {
      "time": "29132i",
      "midiNote": 67,
      "noteName": "G4",
      "velocity": 0.9921259842519685,
      "duration": "56i"
    },
    {
      "time": "29196i",
      "midiNote": 71,
      "noteName": "B4",
      "velocity": 0.9921259842519685,
      "duration": "56i"
    },
    {
      "time": "29260i",
      "midiNote": 74,
      "noteName": "D5",
      "velocity": 0.9921259842519685,
      "duration": "56i"
    },
    {
      "time": "29324i",
      "midiNote": 71,
      "noteName": "B4",
      "velocity": 0.9921259842519685,
      "duration": "56i"
    },
    {
      "time": "29388i",
      "midiNote": 72,
      "noteName": "C5",
      "velocity": 0.9921259842519685,
      "duration": "376i"
    },
    {
      "time": "29772i",
      "midiNote": 71,
      "noteName": "B4",
      "velocity": 0.9921259842519685,
      "duration": "376i"
    },
    {
      "time": "30156i",
      "midiNote": 71,
      "noteName": "B4",
      "velocity": 0.9921259842519685,
      "duration": "188i"
    },
    {
      "time": "30348i",
      "midiNote": 67,
      "noteName": "G4",
      "velocity": 0.9921259842519685,
      "duration": "60i"
    },
    {
      "time": "30412i",
      "midiNote": 66,
      "noteName": "F#4",
      "velocity": 0.9921259842519685,
      "duration": "60i"
    },
    {
      "time": "30476i",
      "midiNote": 64,
      "noteName": "E4",
      "velocity": 0.9921259842519685,
      "duration": "60i"
    },
    {
      "time": "30540i",
      "midiNote": 62,
      "noteName": "D4",
      "velocity": 0.9921259842519685,
      "duration": "60i"
    },
    {
      "time": "30604i",
      "midiNote": 60,
      "noteName": "C4",
      "velocity": 0.9921259842519685,
      "duration": "60i"
    },
    {
      "time": "30668i",
      "midiNote": 59,
      "noteName": "B3",
      "velocity": 0.9921259842519685,
      "duration": "60i"
    },
    {
      "time": "30732i",
      "midiNote": 57,
      "noteName": "A3",
      "velocity": 0.9921259842519685,
      "duration": "60i"
    },
    {
      "time": "30796i",
      "midiNote": 55,
      "noteName": "G3",
      "velocity": 0.9921259842519685,
      "duration": "60i"
    },
    {
      "time": "30860i",
      "midiNote": 54,
      "noteName": "F#3",
      "velocity": 0.9921259842519685,
      "duration": "60i"
    },
    {
      "time": "30924i",
      "midiNote": 76,
      "noteName": "E5",
      "velocity": 0.9921259842519685,
      "duration": "184i"
    },
    {
      "time": "31180i",
      "midiNote": 71,
      "noteName": "B4",
      "velocity": 0.9921259842519685,
      "duration": "120i"
    },
    {
      "time": "31308i",
      "midiNote": 78,
      "noteName": "F#5",
      "velocity": 0.9921259842519685,
      "duration": "184i"
    },
    {
      "time": "31564i",
      "midiNote": 71,
      "noteName": "B4",
      "velocity": 0.9921259842519685,
      "duration": "120i"
    },
    {
      "time": "31692i",
      "midiNote": 79,
      "noteName": "G5",
      "velocity": 0.9921259842519685,
      "duration": "184i"
    },
    {
      "time": "31948i",
      "midiNote": 71,
      "noteName": "B4",
      "velocity": 0.9921259842519685,
      "duration": "120i"
    },
    {
      "time": "32076i",
      "midiNote": 82,
      "noteName": "A#5",
      "velocity": 0.9921259842519685,
      "duration": "184i"
    },
    {
      "time": "32332i",
      "midiNote": 71,
      "noteName": "B4",
      "velocity": 0.9921259842519685,
      "duration": "120i"
    },
    {
      "time": "32460i",
      "midiNote": 84,
      "noteName": "C6",
      "velocity": 0.9921259842519685,
      "duration": "184i"
    },
    {
      "time": "32716i",
      "midiNote": 71,
      "noteName": "B4",
      "velocity": 0.9921259842519685,
      "duration": "120i"
    },
    {
      "time": "32844i",
      "midiNote": 86,
      "noteName": "D6",
      "velocity": 0.9921259842519685,
      "duration": "184i"
    },
    {
      "time": "33038i",
      "midiNote": 86,
      "noteName": "D6",
      "velocity": 0.9921259842519685,
      "duration": "184i"
    },
    {
      "time": "33228i",
      "midiNote": 83,
      "noteName": "B5",
      "velocity": 0.9921259842519685,
      "duration": "1336i"
    },
    {
      "time": "33228i",
      "midiNote": 88,
      "noteName": "E6",
      "velocity": 0.9921259842519685,
      "duration": "1336i"
    }
  ],
  [
    {
      "time": "24576i",
      "midiNote": 64,
      "noteName": "E4",
      "velocity": 0.9921259842519685,
      "duration": "248i"
    },
    {
      "time": "24576i",
      "midiNote": 76,
      "noteName": "E5",
      "velocity": 0.9921259842519685,
      "duration": "248i"
    },
    {
      "time": "24832i",
      "midiNote": 79,
      "noteName": "G5",
      "velocity": 0.9921259842519685,
      "duration": "56i"
    },
    {
      "time": "24832i",
      "midiNote": 67,
      "noteName": "G4",
      "velocity": 0.9921259842519685,
      "duration": "56i"
    },
    {
      "time": "24896i",
      "midiNote": 76,
      "noteName": "E5",
      "velocity": 0.8582677165354331,
      "duration": "56i"
    },
    {
      "time": "24896i",
      "midiNote": 64,
      "noteName": "E4",
      "velocity": 0.8582677165354331,
      "duration": "56i"
    },
    {
      "time": "24960i",
      "midiNote": 69,
      "noteName": "A4",
      "velocity": 0.9921259842519685,
      "duration": "824i"
    },
    {
      "time": "24960i",
      "midiNote": 81,
      "noteName": "A5",
      "velocity": 0.9921259842519685,
      "duration": "824i"
    },
    {
      "time": "25792i",
      "midiNote": 82,
      "noteName": "A#5",
      "velocity": 0.9921259842519685,
      "duration": "56i"
    },
    {
      "time": "25792i",
      "midiNote": 70,
      "noteName": "A#4",
      "velocity": 0.9921259842519685,
      "duration": "56i"
    },
    {
      "time": "25856i",
      "midiNote": 82,
      "noteName": "A#5",
      "velocity": 0.9921259842519685,
      "duration": "56i"
    },
    {
      "time": "25856i",
      "midiNote": 70,
      "noteName": "A#4",
      "velocity": 0.9921259842519685,
      "duration": "56i"
    },
    {
      "time": "25920i",
      "midiNote": 82,
      "noteName": "A#5",
      "velocity": 0.9921259842519685,
      "duration": "56i"
    },
    {
      "time": "25920i",
      "midiNote": 70,
      "noteName": "A#4",
      "velocity": 0.9921259842519685,
      "duration": "56i"
    },
    {
      "time": "25984i",
      "midiNote": 69,
      "noteName": "A4",
      "velocity": 0.9921259842519685,
      "duration": "56i"
    },
    {
      "time": "25984i",
      "midiNote": 81,
      "noteName": "A5",
      "velocity": 0.9921259842519685,
      "duration": "56i"
    },
    {
      "time": "26048i",
      "midiNote": 67,
      "noteName": "G4",
      "velocity": 0.9921259842519685,
      "duration": "56i"
    },
    {
      "time": "26048i",
      "midiNote": 79,
      "noteName": "G5",
      "velocity": 0.9921259842519685,
      "duration": "56i"
    },
    {
      "time": "26112i",
      "midiNote": 76,
      "noteName": "E5",
      "velocity": 0.9921259842519685,
      "duration": "504i"
    },
    {
      "time": "26112i",
      "midiNote": 64,
      "noteName": "E4",
      "velocity": 0.9921259842519685,
      "duration": "504i"
    },
    {
      "time": "26688i",
      "midiNote": 79,
      "noteName": "G5",
      "velocity": 0.8582677165354331,
      "duration": "56i"
    },
    {
      "time": "26688i",
      "midiNote": 67,
      "noteName": "G4",
      "velocity": 0.8582677165354331,
      "duration": "56i"
    },
    {
      "time": "26752i",
      "midiNote": 69,
      "noteName": "A4",
      "velocity": 0.8582677165354331,
      "duration": "56i"
    },
    {
      "time": "26752i",
      "midiNote": 81,
      "noteName": "A5",
      "velocity": 0.8582677165354331,
      "duration": "56i"
    },
    {
      "time": "26880i",
      "midiNote": 76,
      "noteName": "E5",
      "velocity": 0.9921259842519685,
      "duration": "376i"
    },
    {
      "time": "26880i",
      "midiNote": 64,
      "noteName": "E4",
      "velocity": 0.9921259842519685,
      "duration": "376i"
    }
  ],
  [
    {
      "time": "24624i",
      "midiNote": 64,
      "noteName": "E4",
      "velocity": 0.9921259842519685,
      "duration": "248i"
    },
    {
      "time": "24624i",
      "midiNote": 76,
      "noteName": "E5",
      "velocity": 0.9921259842519685,
      "duration": "248i"
    },
    {
      "time": "24880i",
      "midiNote": 67,
      "noteName": "G4",
      "velocity": 0.9921259842519685,
      "duration": "56i"
    },
    {
      "time": "24880i",
      "midiNote": 79,
      "noteName": "G5",
      "velocity": 0.9921259842519685,
      "duration": "56i"
    },
    {
      "time": "24944i",
      "midiNote": 64,
      "noteName": "E4",
      "velocity": 0.8582677165354331,
      "duration": "56i"
    },
    {
      "time": "24944i",
      "midiNote": 76,
      "noteName": "E5",
      "velocity": 0.8582677165354331,
      "duration": "56i"
    },
    {
      "time": "25008i",
      "midiNote": 69,
      "noteName": "A4",
      "velocity": 0.9921259842519685,
      "duration": "824i"
    },
    {
      "time": "25008i",
      "midiNote": 81,
      "noteName": "A5",
      "velocity": 0.9921259842519685,
      "duration": "824i"
    },
    {
      "time": "25840i",
      "midiNote": 70,
      "noteName": "A#4",
      "velocity": 0.9921259842519685,
      "duration": "56i"
    },
    {
      "time": "25840i",
      "midiNote": 82,
      "noteName": "A#5",
      "velocity": 0.9921259842519685,
      "duration": "56i"
    },
    {
      "time": "25904i",
      "midiNote": 70,
      "noteName": "A#4",
      "velocity": 0.9921259842519685,
      "duration": "56i"
    },
    {
      "time": "25904i",
      "midiNote": 82,
      "noteName": "A#5",
      "velocity": 0.9921259842519685,
      "duration": "56i"
    },
    {
      "time": "25968i",
      "midiNote": 82,
      "noteName": "A#5",
      "velocity": 0.9921259842519685,
      "duration": "56i"
    },
    {
      "time": "25968i",
      "midiNote": 70,
      "noteName": "A#4",
      "velocity": 0.9921259842519685,
      "duration": "56i"
    },
    {
      "time": "26032i",
      "midiNote": 69,
      "noteName": "A4",
      "velocity": 0.9921259842519685,
      "duration": "56i"
    },
    {
      "time": "26032i",
      "midiNote": 81,
      "noteName": "A5",
      "velocity": 0.9921259842519685,
      "duration": "56i"
    },
    {
      "time": "26096i",
      "midiNote": 67,
      "noteName": "G4",
      "velocity": 0.9921259842519685,
      "duration": "56i"
    },
    {
      "time": "26096i",
      "midiNote": 79,
      "noteName": "G5",
      "velocity": 0.9921259842519685,
      "duration": "56i"
    },
    {
      "time": "26160i",
      "midiNote": 64,
      "noteName": "E4",
      "velocity": 0.9921259842519685,
      "duration": "504i"
    },
    {
      "time": "26160i",
      "midiNote": 76,
      "noteName": "E5",
      "velocity": 0.9921259842519685,
      "duration": "504i"
    },
    {
      "time": "26736i",
      "midiNote": 67,
      "noteName": "G4",
      "velocity": 0.8582677165354331,
      "duration": "56i"
    },
    {
      "time": "26736i",
      "midiNote": 79,
      "noteName": "G5",
      "velocity": 0.8582677165354331,
      "duration": "56i"
    },
    {
      "time": "26800i",
      "midiNote": 81,
      "noteName": "A5",
      "velocity": 0.8582677165354331,
      "duration": "56i"
    },
    {
      "time": "26800i",
      "midiNote": 69,
      "noteName": "A4",
      "velocity": 0.8582677165354331,
      "duration": "56i"
    },
    {
      "time": "26928i",
      "midiNote": 76,
      "noteName": "E5",
      "velocity": 0.9921259842519685,
      "duration": "376i"
    },
    {
      "time": "26928i",
      "midiNote": 64,
      "noteName": "E4",
      "velocity": 0.9921259842519685,
      "duration": "376i"
    }
  ],
  [
    {
      "time": "24640i",
      "midiNote": 76,
      "noteName": "E5",
      "velocity": 0.9921259842519685,
      "duration": "248i"
    },
    {
      "time": "24640i",
      "midiNote": 64,
      "noteName": "E4",
      "velocity": 0.9921259842519685,
      "duration": "248i"
    },
    {
      "time": "24896i",
      "midiNote": 67,
      "noteName": "G4",
      "velocity": 0.9921259842519685,
      "duration": "56i"
    },
    {
      "time": "24896i",
      "midiNote": 79,
      "noteName": "G5",
      "velocity": 0.9921259842519685,
      "duration": "56i"
    },
    {
      "time": "24960i",
      "midiNote": 64,
      "noteName": "E4",
      "velocity": 0.8582677165354331,
      "duration": "56i"
    },
    {
      "time": "24960i",
      "midiNote": 76,
      "noteName": "E5",
      "velocity": 0.8582677165354331,
      "duration": "56i"
    },
    {
      "time": "25024i",
      "midiNote": 81,
      "noteName": "A5",
      "velocity": 0.9921259842519685,
      "duration": "824i"
    },
    {
      "time": "25024i",
      "midiNote": 69,
      "noteName": "A4",
      "velocity": 0.9921259842519685,
      "duration": "824i"
    },
    {
      "time": "25856i",
      "midiNote": 70,
      "noteName": "A#4",
      "velocity": 0.9921259842519685,
      "duration": "56i"
    },
    {
      "time": "25856i",
      "midiNote": 82,
      "noteName": "A#5",
      "velocity": 0.9921259842519685,
      "duration": "56i"
    },
    {
      "time": "25920i",
      "midiNote": 70,
      "noteName": "A#4",
      "velocity": 0.9921259842519685,
      "duration": "56i"
    },
    {
      "time": "25920i",
      "midiNote": 82,
      "noteName": "A#5",
      "velocity": 0.9921259842519685,
      "duration": "56i"
    },
    {
      "time": "25984i",
      "midiNote": 70,
      "noteName": "A#4",
      "velocity": 0.9921259842519685,
      "duration": "56i"
    },
    {
      "time": "25984i",
      "midiNote": 82,
      "noteName": "A#5",
      "velocity": 0.9921259842519685,
      "duration": "56i"
    },
    {
      "time": "26048i",
      "midiNote": 69,
      "noteName": "A4",
      "velocity": 0.9921259842519685,
      "duration": "56i"
    },
    {
      "time": "26048i",
      "midiNote": 81,
      "noteName": "A5",
      "velocity": 0.9921259842519685,
      "duration": "56i"
    },
    {
      "time": "26112i",
      "midiNote": 67,
      "noteName": "G4",
      "velocity": 0.9921259842519685,
      "duration": "56i"
    },
    {
      "time": "26112i",
      "midiNote": 79,
      "noteName": "G5",
      "velocity": 0.9921259842519685,
      "duration": "56i"
    },
    {
      "time": "26176i",
      "midiNote": 76,
      "noteName": "E5",
      "velocity": 0.9921259842519685,
      "duration": "504i"
    },
    {
      "time": "26176i",
      "midiNote": 64,
      "noteName": "E4",
      "velocity": 0.9921259842519685,
      "duration": "504i"
    },
    {
      "time": "26752i",
      "midiNote": 79,
      "noteName": "G5",
      "velocity": 0.8582677165354331,
      "duration": "56i"
    },
    {
      "time": "26752i",
      "midiNote": 67,
      "noteName": "G4",
      "velocity": 0.8582677165354331,
      "duration": "56i"
    },
    {
      "time": "26816i",
      "midiNote": 81,
      "noteName": "A5",
      "velocity": 0.8582677165354331,
      "duration": "56i"
    },
    {
      "time": "26816i",
      "midiNote": 69,
      "noteName": "A4",
      "velocity": 0.8582677165354331,
      "duration": "56i"
    },
    {
      "time": "26944i",
      "midiNote": 76,
      "noteName": "E5",
      "velocity": 0.9921259842519685,
      "duration": "376i"
    },
    {
      "time": "26944i",
      "midiNote": 64,
      "noteName": "E4",
      "velocity": 0.9921259842519685,
      "duration": "376i"
    }
  ]
]

buildTrack = parseMidi(parts: parts, transport: transport)
