require('v1/midi')

transport = {
  "timeSignature": [
    4,
    4
  ],
  "bpm": 412
}

parts = [
  [
    {
      "time": "0i",
      "midiNote": 36,
      "noteName": "C2",
      "velocity": 0.6299212598425197,
      "duration": "48i"
    },
    {
      "time": "288i",
      "midiNote": 40,
      "noteName": "E2",
      "velocity": 0.6299212598425197,
      "duration": "48i"
    },
    {
      "time": "384i",
      "midiNote": 41,
      "noteName": "F2",
      "velocity": 0.6299212598425197,
      "duration": "48i"
    },
    {
      "time": "528i",
      "midiNote": 40,
      "noteName": "E2",
      "velocity": 0.6299212598425197,
      "duration": "48i"
    },
    {
      "time": "672i",
      "midiNote": 39,
      "noteName": "D#2",
      "velocity": 0.6299212598425197,
      "duration": "48i"
    },
    {
      "time": "768i",
      "midiNote": 38,
      "noteName": "D2",
      "velocity": 0.6299212598425197,
      "duration": "48i"
    },
    {
      "time": "912i",
      "midiNote": 38,
      "noteName": "D2",
      "velocity": 0.6299212598425197,
      "duration": "48i"
    },
    {
      "time": "1056i",
      "midiNote": 38,
      "noteName": "D2",
      "velocity": 0.6299212598425197,
      "duration": "48i"
    },
    {
      "time": "1152i",
      "midiNote": 43,
      "noteName": "G2",
      "velocity": 0.6299212598425197,
      "duration": "48i"
    },
    {
      "time": "1344i",
      "midiNote": 31,
      "noteName": "G1",
      "velocity": 0.6299212598425197,
      "duration": "48i"
    },
    {
      "time": "1536i",
      "midiNote": 36,
      "noteName": "C2",
      "velocity": 0.6299212598425197,
      "duration": "48i"
    },
    {
      "time": "1824i",
      "midiNote": 40,
      "noteName": "E2",
      "velocity": 0.6299212598425197,
      "duration": "48i"
    },
    {
      "time": "1920i",
      "midiNote": 41,
      "noteName": "F2",
      "velocity": 0.6299212598425197,
      "duration": "48i"
    },
    {
      "time": "2064i",
      "midiNote": 40,
      "noteName": "E2",
      "velocity": 0.6299212598425197,
      "duration": "48i"
    },
    {
      "time": "2208i",
      "midiNote": 39,
      "noteName": "D#2",
      "velocity": 0.6299212598425197,
      "duration": "48i"
    },
    {
      "time": "2304i",
      "midiNote": 38,
      "noteName": "D2",
      "velocity": 0.6299212598425197,
      "duration": "48i"
    },
    {
      "time": "2448i",
      "midiNote": 38,
      "noteName": "D2",
      "velocity": 0.6299212598425197,
      "duration": "48i"
    },
    {
      "time": "2592i",
      "midiNote": 38,
      "noteName": "D2",
      "velocity": 0.6299212598425197,
      "duration": "48i"
    },
    {
      "time": "2688i",
      "midiNote": 43,
      "noteName": "G2",
      "velocity": 0.6299212598425197,
      "duration": "48i"
    },
    {
      "time": "2976i",
      "midiNote": 38,
      "noteName": "D2",
      "velocity": 0.6299212598425197,
      "duration": "48i"
    },
    {
      "time": "3072i",
      "midiNote": 41,
      "noteName": "F2",
      "velocity": 0.6299212598425197,
      "duration": "48i"
    },
    {
      "time": "3360i",
      "midiNote": 41,
      "noteName": "F2",
      "velocity": 0.6299212598425197,
      "duration": "48i"
    },
    {
      "time": "3456i",
      "midiNote": 40,
      "noteName": "E2",
      "velocity": 0.6299212598425197,
      "duration": "48i"
    },
    {
      "time": "3600i",
      "midiNote": 43,
      "noteName": "G2",
      "velocity": 0.6299212598425197,
      "duration": "48i"
    },
    {
      "time": "3744i",
      "midiNote": 48,
      "noteName": "C3",
      "velocity": 0.6299212598425197,
      "duration": "48i"
    },
    {
      "time": "3840i",
      "midiNote": 44,
      "noteName": "G#2",
      "velocity": 0.6299212598425197,
      "duration": "48i"
    },
    {
      "time": "3984i",
      "midiNote": 39,
      "noteName": "D#2",
      "velocity": 0.6299212598425197,
      "duration": "48i"
    },
    {
      "time": "4128i",
      "midiNote": 44,
      "noteName": "G#2",
      "velocity": 0.6299212598425197,
      "duration": "48i"
    },
    {
      "time": "4224i",
      "midiNote": 43,
      "noteName": "G2",
      "velocity": 0.6299212598425197,
      "duration": "48i"
    },
    {
      "time": "4512i",
      "midiNote": 38,
      "noteName": "D2",
      "velocity": 0.6299212598425197,
      "duration": "48i"
    },
    {
      "time": "4608i",
      "midiNote": 36,
      "noteName": "C2",
      "velocity": 0.6299212598425197,
      "duration": "48i"
    },
    {
      "time": "4896i",
      "midiNote": 40,
      "noteName": "E2",
      "velocity": 0.6299212598425197,
      "duration": "48i"
    },
    {
      "time": "4992i",
      "midiNote": 41,
      "noteName": "F2",
      "velocity": 0.6299212598425197,
      "duration": "48i"
    },
    {
      "time": "5136i",
      "midiNote": 40,
      "noteName": "E2",
      "velocity": 0.6299212598425197,
      "duration": "48i"
    },
    {
      "time": "5280i",
      "midiNote": 39,
      "noteName": "D#2",
      "velocity": 0.6299212598425197,
      "duration": "48i"
    },
    {
      "time": "5376i",
      "midiNote": 38,
      "noteName": "D2",
      "velocity": 0.6299212598425197,
      "duration": "48i"
    },
    {
      "time": "5520i",
      "midiNote": 38,
      "noteName": "D2",
      "velocity": 0.6299212598425197,
      "duration": "48i"
    },
    {
      "time": "5664i",
      "midiNote": 38,
      "noteName": "D2",
      "velocity": 0.6299212598425197,
      "duration": "48i"
    },
    {
      "time": "5760i",
      "midiNote": 43,
      "noteName": "G2",
      "velocity": 0.6299212598425197,
      "duration": "48i"
    },
    {
      "time": "6048i",
      "midiNote": 38,
      "noteName": "D2",
      "velocity": 0.6299212598425197,
      "duration": "48i"
    },
    {
      "time": "6144i",
      "midiNote": 41,
      "noteName": "F2",
      "velocity": 0.6299212598425197,
      "duration": "48i"
    },
    {
      "time": "6432i",
      "midiNote": 41,
      "noteName": "F2",
      "velocity": 0.6299212598425197,
      "duration": "48i"
    },
    {
      "time": "6528i",
      "midiNote": 40,
      "noteName": "E2",
      "velocity": 0.6299212598425197,
      "duration": "48i"
    },
    {
      "time": "6672i",
      "midiNote": 43,
      "noteName": "G2",
      "velocity": 0.6299212598425197,
      "duration": "48i"
    },
    {
      "time": "6816i",
      "midiNote": 48,
      "noteName": "C3",
      "velocity": 0.6299212598425197,
      "duration": "48i"
    },
    {
      "time": "6912i",
      "midiNote": 36,
      "noteName": "C2",
      "velocity": 0.6299212598425197,
      "duration": "48i"
    },
    {
      "time": "7056i",
      "midiNote": 31,
      "noteName": "G1",
      "velocity": 0.6299212598425197,
      "duration": "48i"
    },
    {
      "time": "7296i",
      "midiNote": 34,
      "noteName": "A#1",
      "velocity": 0.6299212598425197,
      "duration": "48i"
    },
    {
      "time": "7440i",
      "midiNote": 36,
      "noteName": "C2",
      "velocity": 0.6299212598425197,
      "duration": "48i"
    },
    {
      "time": "7584i",
      "midiNote": 40,
      "noteName": "E2",
      "velocity": 0.6299212598425197,
      "duration": "48i"
    },
    {
      "time": "7680i",
      "midiNote": 41,
      "noteName": "F2",
      "velocity": 0.6299212598425197,
      "duration": "48i"
    },
    {
      "time": "7824i",
      "midiNote": 45,
      "noteName": "A2",
      "velocity": 0.6299212598425197,
      "duration": "48i"
    },
    {
      "time": "7968i",
      "midiNote": 48,
      "noteName": "C3",
      "velocity": 0.6299212598425197,
      "duration": "48i"
    },
    {
      "time": "8064i",
      "midiNote": 41,
      "noteName": "F2",
      "velocity": 0.6299212598425197,
      "duration": "48i"
    },
    {
      "time": "8208i",
      "midiNote": 45,
      "noteName": "A2",
      "velocity": 0.6299212598425197,
      "duration": "48i"
    },
    {
      "time": "8352i",
      "midiNote": 41,
      "noteName": "F2",
      "velocity": 0.6299212598425197,
      "duration": "48i"
    },
    {
      "time": "8448i",
      "midiNote": 40,
      "noteName": "E2",
      "velocity": 0.6299212598425197,
      "duration": "48i"
    },
    {
      "time": "8592i",
      "midiNote": 43,
      "noteName": "G2",
      "velocity": 0.6299212598425197,
      "duration": "48i"
    },
    {
      "time": "8736i",
      "midiNote": 48,
      "noteName": "C3",
      "velocity": 0.6299212598425197,
      "duration": "48i"
    },
    {
      "time": "8832i",
      "midiNote": 40,
      "noteName": "E2",
      "velocity": 0.6299212598425197,
      "duration": "48i"
    },
    {
      "time": "8976i",
      "midiNote": 43,
      "noteName": "G2",
      "velocity": 0.6299212598425197,
      "duration": "48i"
    },
    {
      "time": "9120i",
      "midiNote": 36,
      "noteName": "C2",
      "velocity": 0.6299212598425197,
      "duration": "48i"
    },
    {
      "time": "21504i",
      "midiNote": 36,
      "noteName": "C2",
      "velocity": 0.6299212598425197,
      "duration": "48i"
    },
    {
      "time": "21792i",
      "midiNote": 40,
      "noteName": "E2",
      "velocity": 0.6299212598425197,
      "duration": "48i"
    },
    {
      "time": "21888i",
      "midiNote": 41,
      "noteName": "F2",
      "velocity": 0.6299212598425197,
      "duration": "48i"
    },
    {
      "time": "22032i",
      "midiNote": 40,
      "noteName": "E2",
      "velocity": 0.6299212598425197,
      "duration": "48i"
    },
    {
      "time": "22176i",
      "midiNote": 39,
      "noteName": "D#2",
      "velocity": 0.6299212598425197,
      "duration": "48i"
    },
    {
      "time": "22272i",
      "midiNote": 38,
      "noteName": "D2",
      "velocity": 0.6299212598425197,
      "duration": "48i"
    },
    {
      "time": "22416i",
      "midiNote": 38,
      "noteName": "D2",
      "velocity": 0.6299212598425197,
      "duration": "48i"
    },
    {
      "time": "22560i",
      "midiNote": 38,
      "noteName": "D2",
      "velocity": 0.6299212598425197,
      "duration": "48i"
    },
    {
      "time": "22656i",
      "midiNote": 43,
      "noteName": "G2",
      "velocity": 0.6299212598425197,
      "duration": "48i"
    },
    {
      "time": "22944i",
      "midiNote": 38,
      "noteName": "D2",
      "velocity": 0.6299212598425197,
      "duration": "48i"
    },
    {
      "time": "23040i",
      "midiNote": 41,
      "noteName": "F2",
      "velocity": 0.6299212598425197,
      "duration": "48i"
    },
    {
      "time": "23328i",
      "midiNote": 41,
      "noteName": "F2",
      "velocity": 0.6299212598425197,
      "duration": "48i"
    },
    {
      "time": "23424i",
      "midiNote": 40,
      "noteName": "E2",
      "velocity": 0.6299212598425197,
      "duration": "48i"
    },
    {
      "time": "23568i",
      "midiNote": 43,
      "noteName": "G2",
      "velocity": 0.6299212598425197,
      "duration": "48i"
    },
    {
      "time": "23712i",
      "midiNote": 48,
      "noteName": "C3",
      "velocity": 0.6299212598425197,
      "duration": "48i"
    },
    {
      "time": "23808i",
      "midiNote": 44,
      "noteName": "G#2",
      "velocity": 0.6299212598425197,
      "duration": "48i"
    },
    {
      "time": "23952i",
      "midiNote": 39,
      "noteName": "D#2",
      "velocity": 0.6299212598425197,
      "duration": "48i"
    },
    {
      "time": "24096i",
      "midiNote": 44,
      "noteName": "G#2",
      "velocity": 0.6299212598425197,
      "duration": "48i"
    },
    {
      "time": "24192i",
      "midiNote": 43,
      "noteName": "G2",
      "velocity": 0.6299212598425197,
      "duration": "48i"
    },
    {
      "time": "24480i",
      "midiNote": 38,
      "noteName": "D2",
      "velocity": 0.6299212598425197,
      "duration": "48i"
    },
    {
      "time": "24576i",
      "midiNote": 36,
      "noteName": "C2",
      "velocity": 0.6299212598425197,
      "duration": "48i"
    },
    {
      "time": "24864i",
      "midiNote": 40,
      "noteName": "E2",
      "velocity": 0.6299212598425197,
      "duration": "48i"
    },
    {
      "time": "24960i",
      "midiNote": 41,
      "noteName": "F2",
      "velocity": 0.6299212598425197,
      "duration": "48i"
    },
    {
      "time": "25104i",
      "midiNote": 40,
      "noteName": "E2",
      "velocity": 0.6299212598425197,
      "duration": "48i"
    },
    {
      "time": "25248i",
      "midiNote": 39,
      "noteName": "D#2",
      "velocity": 0.6299212598425197,
      "duration": "48i"
    },
    {
      "time": "25344i",
      "midiNote": 38,
      "noteName": "D2",
      "velocity": 0.6299212598425197,
      "duration": "48i"
    },
    {
      "time": "25488i",
      "midiNote": 38,
      "noteName": "D2",
      "velocity": 0.6299212598425197,
      "duration": "48i"
    },
    {
      "time": "25632i",
      "midiNote": 38,
      "noteName": "D2",
      "velocity": 0.6299212598425197,
      "duration": "48i"
    },
    {
      "time": "25728i",
      "midiNote": 43,
      "noteName": "G2",
      "velocity": 0.6299212598425197,
      "duration": "48i"
    },
    {
      "time": "26016i",
      "midiNote": 38,
      "noteName": "D2",
      "velocity": 0.6299212598425197,
      "duration": "48i"
    },
    {
      "time": "26112i",
      "midiNote": 41,
      "noteName": "F2",
      "velocity": 0.6299212598425197,
      "duration": "48i"
    },
    {
      "time": "26400i",
      "midiNote": 41,
      "noteName": "F2",
      "velocity": 0.6299212598425197,
      "duration": "48i"
    },
    {
      "time": "26496i",
      "midiNote": 40,
      "noteName": "E2",
      "velocity": 0.6299212598425197,
      "duration": "48i"
    },
    {
      "time": "26640i",
      "midiNote": 43,
      "noteName": "G2",
      "velocity": 0.6299212598425197,
      "duration": "48i"
    },
    {
      "time": "26784i",
      "midiNote": 48,
      "noteName": "C3",
      "velocity": 0.6299212598425197,
      "duration": "48i"
    },
    {
      "time": "26880i",
      "midiNote": 36,
      "noteName": "C2",
      "velocity": 0.6299212598425197,
      "duration": "48i"
    },
    {
      "time": "27024i",
      "midiNote": 31,
      "noteName": "G1",
      "velocity": 0.6299212598425197,
      "duration": "48i"
    },
    {
      "time": "27264i",
      "midiNote": 34,
      "noteName": "A#1",
      "velocity": 0.6299212598425197,
      "duration": "48i"
    },
    {
      "time": "27408i",
      "midiNote": 36,
      "noteName": "C2",
      "velocity": 0.6299212598425197,
      "duration": "48i"
    },
    {
      "time": "27552i",
      "midiNote": 40,
      "noteName": "E2",
      "velocity": 0.6299212598425197,
      "duration": "48i"
    },
    {
      "time": "27648i",
      "midiNote": 41,
      "noteName": "F2",
      "velocity": 0.6299212598425197,
      "duration": "48i"
    },
    {
      "time": "27792i",
      "midiNote": 45,
      "noteName": "A2",
      "velocity": 0.6299212598425197,
      "duration": "48i"
    },
    {
      "time": "27936i",
      "midiNote": 48,
      "noteName": "C3",
      "velocity": 0.6299212598425197,
      "duration": "48i"
    },
    {
      "time": "28032i",
      "midiNote": 41,
      "noteName": "F2",
      "velocity": 0.6299212598425197,
      "duration": "48i"
    },
    {
      "time": "28176i",
      "midiNote": 45,
      "noteName": "A2",
      "velocity": 0.6299212598425197,
      "duration": "48i"
    },
    {
      "time": "28320i",
      "midiNote": 41,
      "noteName": "F2",
      "velocity": 0.6299212598425197,
      "duration": "48i"
    },
    {
      "time": "28416i",
      "midiNote": 40,
      "noteName": "E2",
      "velocity": 0.6299212598425197,
      "duration": "48i"
    },
    {
      "time": "28560i",
      "midiNote": 43,
      "noteName": "G2",
      "velocity": 0.6299212598425197,
      "duration": "48i"
    },
    {
      "time": "28704i",
      "midiNote": 48,
      "noteName": "C3",
      "velocity": 0.6299212598425197,
      "duration": "48i"
    },
    {
      "time": "28800i",
      "midiNote": 40,
      "noteName": "E2",
      "velocity": 0.6299212598425197,
      "duration": "48i"
    },
    {
      "time": "28944i",
      "midiNote": 43,
      "noteName": "G2",
      "velocity": 0.6299212598425197,
      "duration": "48i"
    },
    {
      "time": "29088i",
      "midiNote": 36,
      "noteName": "C2",
      "velocity": 0.6299212598425197,
      "duration": "48i"
    }
  ],
  [
    {
      "time": "0i",
      "midiNote": 64,
      "noteName": "E4",
      "velocity": 0.6299212598425197,
      "duration": "48i"
    },
    {
      "time": "96i",
      "midiNote": 67,
      "noteName": "G4",
      "velocity": 0.6299212598425197,
      "duration": "48i"
    },
    {
      "time": "192i",
      "midiNote": 72,
      "noteName": "C5",
      "velocity": 0.6299212598425197,
      "duration": "48i"
    },
    {
      "time": "288i",
      "midiNote": 67,
      "noteName": "G4",
      "velocity": 0.6299212598425197,
      "duration": "48i"
    },
    {
      "time": "384i",
      "midiNote": 69,
      "noteName": "A4",
      "velocity": 0.6299212598425197,
      "duration": "48i"
    },
    {
      "time": "480i",
      "midiNote": 68,
      "noteName": "G#4",
      "velocity": 0.6299212598425197,
      "duration": "48i"
    },
    {
      "time": "528i",
      "midiNote": 67,
      "noteName": "G4",
      "velocity": 0.6299212598425197,
      "duration": "48i"
    },
    {
      "time": "672i",
      "midiNote": 66,
      "noteName": "F#4",
      "velocity": 0.6299212598425197,
      "duration": "48i"
    },
    {
      "time": "768i",
      "midiNote": 65,
      "noteName": "F4",
      "velocity": 0.6299212598425197,
      "duration": "48i"
    },
    {
      "time": "864i",
      "midiNote": 60,
      "noteName": "C4",
      "velocity": 0.6299212598425197,
      "duration": "48i"
    },
    {
      "time": "912i",
      "midiNote": 65,
      "noteName": "F4",
      "velocity": 0.6299212598425197,
      "duration": "48i"
    },
    {
      "time": "1056i",
      "midiNote": 66,
      "noteName": "F#4",
      "velocity": 0.6299212598425197,
      "duration": "48i"
    },
    {
      "time": "1152i",
      "midiNote": 67,
      "noteName": "G4",
      "velocity": 0.6299212598425197,
      "duration": "48i"
    },
    {
      "time": "1536i",
      "midiNote": 64,
      "noteName": "E4",
      "velocity": 0.6299212598425197,
      "duration": "48i"
    },
    {
      "time": "1632i",
      "midiNote": 67,
      "noteName": "G4",
      "velocity": 0.6299212598425197,
      "duration": "48i"
    },
    {
      "time": "1728i",
      "midiNote": 72,
      "noteName": "C5",
      "velocity": 0.6299212598425197,
      "duration": "48i"
    },
    {
      "time": "1824i",
      "midiNote": 67,
      "noteName": "G4",
      "velocity": 0.6299212598425197,
      "duration": "48i"
    },
    {
      "time": "1920i",
      "midiNote": 69,
      "noteName": "A4",
      "velocity": 0.6299212598425197,
      "duration": "48i"
    },
    {
      "time": "2016i",
      "midiNote": 68,
      "noteName": "G#4",
      "velocity": 0.6299212598425197,
      "duration": "48i"
    },
    {
      "time": "2064i",
      "midiNote": 67,
      "noteName": "G4",
      "velocity": 0.6299212598425197,
      "duration": "48i"
    },
    {
      "time": "2208i",
      "midiNote": 66,
      "noteName": "F#4",
      "velocity": 0.6299212598425197,
      "duration": "48i"
    },
    {
      "time": "2352i",
      "midiNote": 65,
      "noteName": "F4",
      "velocity": 0.6299212598425197,
      "duration": "48i"
    },
    {
      "time": "2400i",
      "midiNote": 64,
      "noteName": "E4",
      "velocity": 0.6299212598425197,
      "duration": "48i"
    },
    {
      "time": "2496i",
      "midiNote": 60,
      "noteName": "C4",
      "velocity": 0.6299212598425197,
      "duration": "48i"
    },
    {
      "time": "2592i",
      "midiNote": 57,
      "noteName": "A3",
      "velocity": 0.6299212598425197,
      "duration": "48i"
    },
    {
      "time": "2640i",
      "midiNote": 59,
      "noteName": "B3",
      "velocity": 0.6299212598425197,
      "duration": "48i"
    },
    {
      "time": "2736i",
      "midiNote": 67,
      "noteName": "G4",
      "velocity": 0.6299212598425197,
      "duration": "48i"
    },
    {
      "time": "2976i",
      "midiNote": 67,
      "noteName": "G4",
      "velocity": 0.6299212598425197,
      "duration": "48i"
    },
    {
      "time": "3072i",
      "midiNote": 69,
      "noteName": "A4",
      "velocity": 0.6299212598425197,
      "duration": "48i"
    },
    {
      "time": "3168i",
      "midiNote": 71,
      "noteName": "B4",
      "velocity": 0.6299212598425197,
      "duration": "48i"
    },
    {
      "time": "3264i",
      "midiNote": 72,
      "noteName": "C5",
      "velocity": 0.6299212598425197,
      "duration": "48i"
    },
    {
      "time": "3360i",
      "midiNote": 77,
      "noteName": "F5",
      "velocity": 0.6299212598425197,
      "duration": "48i"
    },
    {
      "time": "3456i",
      "midiNote": 76,
      "noteName": "E5",
      "velocity": 0.6299212598425197,
      "duration": "48i"
    },
    {
      "time": "3600i",
      "midiNote": 72,
      "noteName": "C5",
      "velocity": 0.6299212598425197,
      "duration": "48i"
    },
    {
      "time": "3744i",
      "midiNote": 74,
      "noteName": "D5",
      "velocity": 0.6299212598425197,
      "duration": "48i"
    },
    {
      "time": "3840i",
      "midiNote": 75,
      "noteName": "D#5",
      "velocity": 0.6299212598425197,
      "duration": "48i"
    },
    {
      "time": "3984i",
      "midiNote": 72,
      "noteName": "C5",
      "velocity": 0.6299212598425197,
      "duration": "48i"
    },
    {
      "time": "4128i",
      "midiNote": 75,
      "noteName": "D#5",
      "velocity": 0.6299212598425197,
      "duration": "48i"
    },
    {
      "time": "4224i",
      "midiNote": 74,
      "noteName": "D5",
      "velocity": 0.6299212598425197,
      "duration": "48i"
    },
    {
      "time": "4512i",
      "midiNote": 67,
      "noteName": "G4",
      "velocity": 0.6299212598425197,
      "duration": "48i"
    },
    {
      "time": "4608i",
      "midiNote": 64,
      "noteName": "E4",
      "velocity": 0.6299212598425197,
      "duration": "48i"
    },
    {
      "time": "4704i",
      "midiNote": 67,
      "noteName": "G4",
      "velocity": 0.6299212598425197,
      "duration": "48i"
    },
    {
      "time": "4800i",
      "midiNote": 72,
      "noteName": "C5",
      "velocity": 0.6299212598425197,
      "duration": "48i"
    },
    {
      "time": "4896i",
      "midiNote": 67,
      "noteName": "G4",
      "velocity": 0.6299212598425197,
      "duration": "48i"
    },
    {
      "time": "4992i",
      "midiNote": 69,
      "noteName": "A4",
      "velocity": 0.6299212598425197,
      "duration": "48i"
    },
    {
      "time": "5088i",
      "midiNote": 68,
      "noteName": "G#4",
      "velocity": 0.6299212598425197,
      "duration": "48i"
    },
    {
      "time": "5136i",
      "midiNote": 67,
      "noteName": "G4",
      "velocity": 0.6299212598425197,
      "duration": "48i"
    },
    {
      "time": "5280i",
      "midiNote": 66,
      "noteName": "F#4",
      "velocity": 0.6299212598425197,
      "duration": "48i"
    },
    {
      "time": "5424i",
      "midiNote": 65,
      "noteName": "F4",
      "velocity": 0.6299212598425197,
      "duration": "48i"
    },
    {
      "time": "5472i",
      "midiNote": 64,
      "noteName": "E4",
      "velocity": 0.6299212598425197,
      "duration": "48i"
    },
    {
      "time": "5568i",
      "midiNote": 60,
      "noteName": "C4",
      "velocity": 0.6299212598425197,
      "duration": "48i"
    },
    {
      "time": "5664i",
      "midiNote": 57,
      "noteName": "A3",
      "velocity": 0.6299212598425197,
      "duration": "48i"
    },
    {
      "time": "5712i",
      "midiNote": 59,
      "noteName": "B3",
      "velocity": 0.6299212598425197,
      "duration": "48i"
    },
    {
      "time": "5808i",
      "midiNote": 67,
      "noteName": "G4",
      "velocity": 0.6299212598425197,
      "duration": "48i"
    },
    {
      "time": "6048i",
      "midiNote": 67,
      "noteName": "G4",
      "velocity": 0.6299212598425197,
      "duration": "48i"
    },
    {
      "time": "6144i",
      "midiNote": 69,
      "noteName": "A4",
      "velocity": 0.6299212598425197,
      "duration": "48i"
    },
    {
      "time": "6240i",
      "midiNote": 71,
      "noteName": "B4",
      "velocity": 0.6299212598425197,
      "duration": "48i"
    },
    {
      "time": "6336i",
      "midiNote": 72,
      "noteName": "C5",
      "velocity": 0.6299212598425197,
      "duration": "48i"
    },
    {
      "time": "6432i",
      "midiNote": 77,
      "noteName": "F5",
      "velocity": 0.6299212598425197,
      "duration": "48i"
    },
    {
      "time": "6528i",
      "midiNote": 76,
      "noteName": "E5",
      "velocity": 0.6299212598425197,
      "duration": "48i"
    },
    {
      "time": "6672i",
      "midiNote": 72,
      "noteName": "C5",
      "velocity": 0.6299212598425197,
      "duration": "48i"
    },
    {
      "time": "6816i",
      "midiNote": 74,
      "noteName": "D5",
      "velocity": 0.6299212598425197,
      "duration": "48i"
    },
    {
      "time": "6912i",
      "midiNote": 72,
      "noteName": "C5",
      "velocity": 0.6299212598425197,
      "duration": "48i"
    },
    {
      "time": "7056i",
      "midiNote": 64,
      "noteName": "E4",
      "velocity": 0.6299212598425197,
      "duration": "48i"
    },
    {
      "time": "7584i",
      "midiNote": 67,
      "noteName": "G4",
      "velocity": 0.6299212598425197,
      "duration": "48i"
    },
    {
      "time": "7632i",
      "midiNote": 68,
      "noteName": "G#4",
      "velocity": 0.6299212598425197,
      "duration": "48i"
    },
    {
      "time": "7680i",
      "midiNote": 69,
      "noteName": "A4",
      "velocity": 0.6299212598425197,
      "duration": "48i"
    },
    {
      "time": "7728i",
      "midiNote": 68,
      "noteName": "G#4",
      "velocity": 0.6299212598425197,
      "duration": "48i"
    },
    {
      "time": "7776i",
      "midiNote": 69,
      "noteName": "A4",
      "velocity": 0.6299212598425197,
      "duration": "48i"
    },
    {
      "time": "7824i",
      "midiNote": 72,
      "noteName": "C5",
      "velocity": 0.6299212598425197,
      "duration": "48i"
    },
    {
      "time": "7920i",
      "midiNote": 71,
      "noteName": "B4",
      "velocity": 0.6299212598425197,
      "duration": "48i"
    },
    {
      "time": "7968i",
      "midiNote": 72,
      "noteName": "C5",
      "velocity": 0.6299212598425197,
      "duration": "48i"
    },
    {
      "time": "8064i",
      "midiNote": 77,
      "noteName": "F5",
      "velocity": 0.6299212598425197,
      "duration": "48i"
    },
    {
      "time": "8208i",
      "midiNote": 72,
      "noteName": "C5",
      "velocity": 0.6299212598425197,
      "duration": "48i"
    },
    {
      "time": "8352i",
      "midiNote": 69,
      "noteName": "A4",
      "velocity": 0.6299212598425197,
      "duration": "48i"
    },
    {
      "time": "8448i",
      "midiNote": 67,
      "noteName": "G4",
      "velocity": 0.6299212598425197,
      "duration": "48i"
    },
    {
      "time": "8496i",
      "midiNote": 66,
      "noteName": "F#4",
      "velocity": 0.6299212598425197,
      "duration": "48i"
    },
    {
      "time": "8544i",
      "midiNote": 67,
      "noteName": "G4",
      "velocity": 0.6299212598425197,
      "duration": "48i"
    },
    {
      "time": "8592i",
      "midiNote": 72,
      "noteName": "C5",
      "velocity": 0.6299212598425197,
      "duration": "48i"
    },
    {
      "time": "8688i",
      "midiNote": 71,
      "noteName": "B4",
      "velocity": 0.6299212598425197,
      "duration": "48i"
    },
    {
      "time": "8736i",
      "midiNote": 72,
      "noteName": "C5",
      "velocity": 0.6299212598425197,
      "duration": "48i"
    },
    {
      "time": "8832i",
      "midiNote": 76,
      "noteName": "E5",
      "velocity": 0.6299212598425197,
      "duration": "48i"
    },
    {
      "time": "8976i",
      "midiNote": 72,
      "noteName": "C5",
      "velocity": 0.6299212598425197,
      "duration": "48i"
    },
    {
      "time": "9120i",
      "midiNote": 67,
      "noteName": "G4",
      "velocity": 0.6299212598425197,
      "duration": "48i"
    },
    {
      "time": "9216i",
      "midiNote": 65,
      "noteName": "F4",
      "velocity": 0.6299212598425197,
      "duration": "48i"
    },
    {
      "time": "9264i",
      "midiNote": 64,
      "noteName": "E4",
      "velocity": 0.6299212598425197,
      "duration": "48i"
    },
    {
      "time": "9312i",
      "midiNote": 65,
      "noteName": "F4",
      "velocity": 0.6299212598425197,
      "duration": "48i"
    },
    {
      "time": "9360i",
      "midiNote": 69,
      "noteName": "A4",
      "velocity": 0.6299212598425197,
      "duration": "48i"
    },
    {
      "time": "9456i",
      "midiNote": 68,
      "noteName": "G#4",
      "velocity": 0.6299212598425197,
      "duration": "48i"
    },
    {
      "time": "9504i",
      "midiNote": 69,
      "noteName": "A4",
      "velocity": 0.6299212598425197,
      "duration": "48i"
    },
    {
      "time": "9600i",
      "midiNote": 77,
      "noteName": "F5",
      "velocity": 0.6299212598425197,
      "duration": "48i"
    },
    {
      "time": "9696i",
      "midiNote": 72,
      "noteName": "C5",
      "velocity": 0.6299212598425197,
      "duration": "48i"
    },
    {
      "time": "9744i",
      "midiNote": 69,
      "noteName": "A4",
      "velocity": 0.6299212598425197,
      "duration": "48i"
    },
    {
      "time": "9888i",
      "midiNote": 65,
      "noteName": "F4",
      "velocity": 0.6299212598425197,
      "duration": "48i"
    },
    {
      "time": "9984i",
      "midiNote": 64,
      "noteName": "E4",
      "velocity": 0.6299212598425197,
      "duration": "48i"
    },
    {
      "time": "10128i",
      "midiNote": 67,
      "noteName": "G4",
      "velocity": 0.6299212598425197,
      "duration": "48i"
    },
    {
      "time": "10656i",
      "midiNote": 67,
      "noteName": "G4",
      "velocity": 0.6299212598425197,
      "duration": "48i"
    },
    {
      "time": "10704i",
      "midiNote": 68,
      "noteName": "G#4",
      "velocity": 0.6299212598425197,
      "duration": "48i"
    },
    {
      "time": "10752i",
      "midiNote": 69,
      "noteName": "A4",
      "velocity": 0.6299212598425197,
      "duration": "48i"
    },
    {
      "time": "10800i",
      "midiNote": 68,
      "noteName": "G#4",
      "velocity": 0.6299212598425197,
      "duration": "48i"
    },
    {
      "time": "10848i",
      "midiNote": 69,
      "noteName": "A4",
      "velocity": 0.6299212598425197,
      "duration": "48i"
    },
    {
      "time": "10896i",
      "midiNote": 72,
      "noteName": "C5",
      "velocity": 0.6299212598425197,
      "duration": "48i"
    },
    {
      "time": "10992i",
      "midiNote": 71,
      "noteName": "B4",
      "velocity": 0.6299212598425197,
      "duration": "48i"
    },
    {
      "time": "11040i",
      "midiNote": 72,
      "noteName": "C5",
      "velocity": 0.6299212598425197,
      "duration": "48i"
    },
    {
      "time": "11136i",
      "midiNote": 77,
      "noteName": "F5",
      "velocity": 0.6299212598425197,
      "duration": "48i"
    },
    {
      "time": "11280i",
      "midiNote": 72,
      "noteName": "C5",
      "velocity": 0.6299212598425197,
      "duration": "48i"
    },
    {
      "time": "11424i",
      "midiNote": 69,
      "noteName": "A4",
      "velocity": 0.6299212598425197,
      "duration": "48i"
    },
    {
      "time": "11520i",
      "midiNote": 67,
      "noteName": "G4",
      "velocity": 0.6299212598425197,
      "duration": "48i"
    },
    {
      "time": "11568i",
      "midiNote": 66,
      "noteName": "F#4",
      "velocity": 0.6299212598425197,
      "duration": "48i"
    },
    {
      "time": "11616i",
      "midiNote": 67,
      "noteName": "G4",
      "velocity": 0.6299212598425197,
      "duration": "48i"
    },
    {
      "time": "11664i",
      "midiNote": 71,
      "noteName": "B4",
      "velocity": 0.6299212598425197,
      "duration": "48i"
    },
    {
      "time": "11808i",
      "midiNote": 74,
      "noteName": "D5",
      "velocity": 0.6299212598425197,
      "duration": "48i"
    },
    {
      "time": "11904i",
      "midiNote": 73,
      "noteName": "C#5",
      "velocity": 0.6299212598425197,
      "duration": "144i"
    },
    {
      "time": "12048i",
      "midiNote": 69,
      "noteName": "A4",
      "velocity": 0.6299212598425197,
      "duration": "48i"
    },
    {
      "time": "12192i",
      "midiNote": 64,
      "noteName": "E4",
      "velocity": 0.6299212598425197,
      "duration": "48i"
    },
    {
      "time": "12288i",
      "midiNote": 65,
      "noteName": "F4",
      "velocity": 0.6299212598425197,
      "duration": "48i"
    },
    {
      "time": "12336i",
      "midiNote": 64,
      "noteName": "E4",
      "velocity": 0.6299212598425197,
      "duration": "48i"
    },
    {
      "time": "12384i",
      "midiNote": 65,
      "noteName": "F4",
      "velocity": 0.6299212598425197,
      "duration": "48i"
    },
    {
      "time": "12432i",
      "midiNote": 69,
      "noteName": "A4",
      "velocity": 0.6299212598425197,
      "duration": "48i"
    },
    {
      "time": "12528i",
      "midiNote": 68,
      "noteName": "G#4",
      "velocity": 0.6299212598425197,
      "duration": "48i"
    },
    {
      "time": "12576i",
      "midiNote": 69,
      "noteName": "A4",
      "velocity": 0.6299212598425197,
      "duration": "48i"
    },
    {
      "time": "12672i",
      "midiNote": 72,
      "noteName": "C5",
      "velocity": 0.6299212598425197,
      "duration": "48i"
    },
    {
      "time": "12816i",
      "midiNote": 69,
      "noteName": "A4",
      "velocity": 0.6299212598425197,
      "duration": "48i"
    },
    {
      "time": "12960i",
      "midiNote": 66,
      "noteName": "F#4",
      "velocity": 0.6299212598425197,
      "duration": "48i"
    },
    {
      "time": "13056i",
      "midiNote": 67,
      "noteName": "G4",
      "velocity": 0.6299212598425197,
      "duration": "48i"
    },
    {
      "time": "13728i",
      "midiNote": 62,
      "noteName": "D4",
      "velocity": 0.6299212598425197,
      "duration": "48i"
    },
    {
      "time": "13824i",
      "midiNote": 64,
      "noteName": "E4",
      "velocity": 0.6299212598425197,
      "duration": "48i"
    },
    {
      "time": "13920i",
      "midiNote": 64,
      "noteName": "E4",
      "velocity": 0.6299212598425197,
      "duration": "48i"
    },
    {
      "time": "13968i",
      "midiNote": 67,
      "noteName": "G4",
      "velocity": 0.6299212598425197,
      "duration": "48i"
    },
    {
      "time": "14064i",
      "midiNote": 64,
      "noteName": "E4",
      "velocity": 0.6299212598425197,
      "duration": "48i"
    },
    {
      "time": "14112i",
      "midiNote": 67,
      "noteName": "G4",
      "velocity": 0.6299212598425197,
      "duration": "48i"
    },
    {
      "time": "14208i",
      "midiNote": 72,
      "noteName": "C5",
      "velocity": 0.6299212598425197,
      "duration": "48i"
    },
    {
      "time": "14352i",
      "midiNote": 67,
      "noteName": "G4",
      "velocity": 0.6299212598425197,
      "duration": "48i"
    },
    {
      "time": "14496i",
      "midiNote": 72,
      "noteName": "C5",
      "velocity": 0.6299212598425197,
      "duration": "48i"
    },
    {
      "time": "14592i",
      "midiNote": 71,
      "noteName": "B4",
      "velocity": 0.6299212598425197,
      "duration": "48i"
    },
    {
      "time": "14688i",
      "midiNote": 67,
      "noteName": "G4",
      "velocity": 0.6299212598425197,
      "duration": "48i"
    },
    {
      "time": "14736i",
      "midiNote": 65,
      "noteName": "F4",
      "velocity": 0.6299212598425197,
      "duration": "48i"
    },
    {
      "time": "14832i",
      "midiNote": 64,
      "noteName": "E4",
      "velocity": 0.6299212598425197,
      "duration": "48i"
    },
    {
      "time": "14880i",
      "midiNote": 65,
      "noteName": "F4",
      "velocity": 0.6299212598425197,
      "duration": "48i"
    },
    {
      "time": "14976i",
      "midiNote": 62,
      "noteName": "D4",
      "velocity": 0.6299212598425197,
      "duration": "48i"
    },
    {
      "time": "15264i",
      "midiNote": 65,
      "noteName": "F4",
      "velocity": 0.6299212598425197,
      "duration": "48i"
    },
    {
      "time": "15360i",
      "midiNote": 71,
      "noteName": "B4",
      "velocity": 0.6299212598425197,
      "duration": "48i"
    },
    {
      "time": "15456i",
      "midiNote": 71,
      "noteName": "B4",
      "velocity": 0.6299212598425197,
      "duration": "48i"
    },
    {
      "time": "15504i",
      "midiNote": 67,
      "noteName": "G4",
      "velocity": 0.6299212598425197,
      "duration": "48i"
    },
    {
      "time": "15600i",
      "midiNote": 71,
      "noteName": "B4",
      "velocity": 0.6299212598425197,
      "duration": "48i"
    },
    {
      "time": "15648i",
      "midiNote": 69,
      "noteName": "A4",
      "velocity": 0.6299212598425197,
      "duration": "48i"
    },
    {
      "time": "15744i",
      "midiNote": 67,
      "noteName": "G4",
      "velocity": 0.6299212598425197,
      "duration": "48i"
    },
    {
      "time": "15840i",
      "midiNote": 65,
      "noteName": "F4",
      "velocity": 0.6299212598425197,
      "duration": "48i"
    },
    {
      "time": "15888i",
      "midiNote": 62,
      "noteName": "D4",
      "velocity": 0.6299212598425197,
      "duration": "48i"
    },
    {
      "time": "16032i",
      "midiNote": 65,
      "noteName": "F4",
      "velocity": 0.6299212598425197,
      "duration": "48i"
    },
    {
      "time": "16128i",
      "midiNote": 64,
      "noteName": "E4",
      "velocity": 0.6299212598425197,
      "duration": "48i"
    },
    {
      "time": "16272i",
      "midiNote": 67,
      "noteName": "G4",
      "velocity": 0.6299212598425197,
      "duration": "48i"
    },
    {
      "time": "16800i",
      "midiNote": 67,
      "noteName": "G4",
      "velocity": 0.6299212598425197,
      "duration": "48i"
    },
    {
      "time": "16848i",
      "midiNote": 68,
      "noteName": "G#4",
      "velocity": 0.6299212598425197,
      "duration": "48i"
    },
    {
      "time": "16896i",
      "midiNote": 69,
      "noteName": "A4",
      "velocity": 0.6299212598425197,
      "duration": "48i"
    },
    {
      "time": "16944i",
      "midiNote": 68,
      "noteName": "G#4",
      "velocity": 0.6299212598425197,
      "duration": "48i"
    },
    {
      "time": "16992i",
      "midiNote": 69,
      "noteName": "A4",
      "velocity": 0.6299212598425197,
      "duration": "48i"
    },
    {
      "time": "17040i",
      "midiNote": 72,
      "noteName": "C5",
      "velocity": 0.6299212598425197,
      "duration": "48i"
    },
    {
      "time": "17136i",
      "midiNote": 71,
      "noteName": "B4",
      "velocity": 0.6299212598425197,
      "duration": "48i"
    },
    {
      "time": "17184i",
      "midiNote": 72,
      "noteName": "C5",
      "velocity": 0.6299212598425197,
      "duration": "48i"
    },
    {
      "time": "17280i",
      "midiNote": 77,
      "noteName": "F5",
      "velocity": 0.6299212598425197,
      "duration": "48i"
    },
    {
      "time": "17424i",
      "midiNote": 72,
      "noteName": "C5",
      "velocity": 0.6299212598425197,
      "duration": "48i"
    },
    {
      "time": "17568i",
      "midiNote": 69,
      "noteName": "A4",
      "velocity": 0.6299212598425197,
      "duration": "48i"
    },
    {
      "time": "17664i",
      "midiNote": 67,
      "noteName": "G4",
      "velocity": 0.6299212598425197,
      "duration": "48i"
    },
    {
      "time": "17808i",
      "midiNote": 71,
      "noteName": "B4",
      "velocity": 0.6299212598425197,
      "duration": "48i"
    },
    {
      "time": "17952i",
      "midiNote": 74,
      "noteName": "D5",
      "velocity": 0.6299212598425197,
      "duration": "48i"
    },
    {
      "time": "18048i",
      "midiNote": 76,
      "noteName": "E5",
      "velocity": 0.6299212598425197,
      "duration": "48i"
    },
    {
      "time": "18192i",
      "midiNote": 73,
      "noteName": "C#5",
      "velocity": 0.6299212598425197,
      "duration": "48i"
    },
    {
      "time": "18336i",
      "midiNote": 67,
      "noteName": "G4",
      "velocity": 0.6299212598425197,
      "duration": "48i"
    },
    {
      "time": "18432i",
      "midiNote": 65,
      "noteName": "F4",
      "velocity": 0.6299212598425197,
      "duration": "48i"
    },
    {
      "time": "18528i",
      "midiNote": 69,
      "noteName": "A4",
      "velocity": 0.6299212598425197,
      "duration": "48i"
    },
    {
      "time": "18624i",
      "midiNote": 72,
      "noteName": "C5",
      "velocity": 0.6299212598425197,
      "duration": "48i"
    },
    {
      "time": "18720i",
      "midiNote": 69,
      "noteName": "A4",
      "velocity": 0.6299212598425197,
      "duration": "48i"
    },
    {
      "time": "18768i",
      "midiNote": 72,
      "noteName": "C5",
      "velocity": 0.6299212598425197,
      "duration": "48i"
    },
    {
      "time": "18864i",
      "midiNote": 72,
      "noteName": "C5",
      "velocity": 0.6299212598425197,
      "duration": "48i"
    },
    {
      "time": "18960i",
      "midiNote": 69,
      "noteName": "A4",
      "velocity": 0.6299212598425197,
      "duration": "48i"
    },
    {
      "time": "19056i",
      "midiNote": 66,
      "noteName": "F#4",
      "velocity": 0.6299212598425197,
      "duration": "48i"
    },
    {
      "time": "19104i",
      "midiNote": 69,
      "noteName": "A4",
      "velocity": 0.6299212598425197,
      "duration": "48i"
    },
    {
      "time": "19200i",
      "midiNote": 67,
      "noteName": "G4",
      "velocity": 0.6299212598425197,
      "duration": "48i"
    },
    {
      "time": "19968i",
      "midiNote": 64,
      "noteName": "E4",
      "velocity": 0.6299212598425197,
      "duration": "48i"
    },
    {
      "time": "20064i",
      "midiNote": 67,
      "noteName": "G4",
      "velocity": 0.6299212598425197,
      "duration": "48i"
    },
    {
      "time": "20112i",
      "midiNote": 72,
      "noteName": "C5",
      "velocity": 0.6299212598425197,
      "duration": "48i"
    },
    {
      "time": "20208i",
      "midiNote": 67,
      "noteName": "G4",
      "velocity": 0.6299212598425197,
      "duration": "48i"
    },
    {
      "time": "20256i",
      "midiNote": 64,
      "noteName": "E4",
      "velocity": 0.6299212598425197,
      "duration": "48i"
    },
    {
      "time": "20352i",
      "midiNote": 63,
      "noteName": "D#4",
      "velocity": 0.6299212598425197,
      "duration": "48i"
    },
    {
      "time": "20448i",
      "midiNote": 66,
      "noteName": "F#4",
      "velocity": 0.6299212598425197,
      "duration": "48i"
    },
    {
      "time": "20496i",
      "midiNote": 72,
      "noteName": "C5",
      "velocity": 0.6299212598425197,
      "duration": "48i"
    },
    {
      "time": "20592i",
      "midiNote": 66,
      "noteName": "F#4",
      "velocity": 0.6299212598425197,
      "duration": "48i"
    },
    {
      "time": "20640i",
      "midiNote": 63,
      "noteName": "D#4",
      "velocity": 0.6299212598425197,
      "duration": "48i"
    },
    {
      "time": "20736i",
      "midiNote": 62,
      "noteName": "D4",
      "velocity": 0.6299212598425197,
      "duration": "48i"
    },
    {
      "time": "20832i",
      "midiNote": 65,
      "noteName": "F4",
      "velocity": 0.6299212598425197,
      "duration": "48i"
    },
    {
      "time": "20880i",
      "midiNote": 72,
      "noteName": "C5",
      "velocity": 0.6299212598425197,
      "duration": "48i"
    },
    {
      "time": "20976i",
      "midiNote": 65,
      "noteName": "F4",
      "velocity": 0.6299212598425197,
      "duration": "48i"
    },
    {
      "time": "21024i",
      "midiNote": 66,
      "noteName": "F#4",
      "velocity": 0.6299212598425197,
      "duration": "48i"
    },
    {
      "time": "21120i",
      "midiNote": 67,
      "noteName": "G4",
      "velocity": 0.6299212598425197,
      "duration": "48i"
    },
    {
      "time": "21504i",
      "midiNote": 64,
      "noteName": "E4",
      "velocity": 0.6299212598425197,
      "duration": "48i"
    },
    {
      "time": "21600i",
      "midiNote": 67,
      "noteName": "G4",
      "velocity": 0.6299212598425197,
      "duration": "48i"
    },
    {
      "time": "21696i",
      "midiNote": 72,
      "noteName": "C5",
      "velocity": 0.6299212598425197,
      "duration": "48i"
    },
    {
      "time": "21792i",
      "midiNote": 67,
      "noteName": "G4",
      "velocity": 0.6299212598425197,
      "duration": "48i"
    },
    {
      "time": "21888i",
      "midiNote": 69,
      "noteName": "A4",
      "velocity": 0.6299212598425197,
      "duration": "48i"
    },
    {
      "time": "21984i",
      "midiNote": 68,
      "noteName": "G#4",
      "velocity": 0.6299212598425197,
      "duration": "48i"
    },
    {
      "time": "22032i",
      "midiNote": 67,
      "noteName": "G4",
      "velocity": 0.6299212598425197,
      "duration": "48i"
    },
    {
      "time": "22176i",
      "midiNote": 66,
      "noteName": "F#4",
      "velocity": 0.6299212598425197,
      "duration": "48i"
    },
    {
      "time": "22320i",
      "midiNote": 65,
      "noteName": "F4",
      "velocity": 0.6299212598425197,
      "duration": "48i"
    },
    {
      "time": "22368i",
      "midiNote": 64,
      "noteName": "E4",
      "velocity": 0.6299212598425197,
      "duration": "48i"
    },
    {
      "time": "22464i",
      "midiNote": 60,
      "noteName": "C4",
      "velocity": 0.6299212598425197,
      "duration": "48i"
    },
    {
      "time": "22560i",
      "midiNote": 57,
      "noteName": "A3",
      "velocity": 0.6299212598425197,
      "duration": "48i"
    },
    {
      "time": "22608i",
      "midiNote": 59,
      "noteName": "B3",
      "velocity": 0.6299212598425197,
      "duration": "48i"
    },
    {
      "time": "22704i",
      "midiNote": 67,
      "noteName": "G4",
      "velocity": 0.6299212598425197,
      "duration": "48i"
    },
    {
      "time": "22944i",
      "midiNote": 67,
      "noteName": "G4",
      "velocity": 0.6299212598425197,
      "duration": "48i"
    },
    {
      "time": "23040i",
      "midiNote": 69,
      "noteName": "A4",
      "velocity": 0.6299212598425197,
      "duration": "48i"
    },
    {
      "time": "23136i",
      "midiNote": 71,
      "noteName": "B4",
      "velocity": 0.6299212598425197,
      "duration": "48i"
    },
    {
      "time": "23232i",
      "midiNote": 72,
      "noteName": "C5",
      "velocity": 0.6299212598425197,
      "duration": "48i"
    },
    {
      "time": "23328i",
      "midiNote": 77,
      "noteName": "F5",
      "velocity": 0.6299212598425197,
      "duration": "48i"
    },
    {
      "time": "23424i",
      "midiNote": 76,
      "noteName": "E5",
      "velocity": 0.6299212598425197,
      "duration": "48i"
    },
    {
      "time": "23568i",
      "midiNote": 72,
      "noteName": "C5",
      "velocity": 0.6299212598425197,
      "duration": "48i"
    },
    {
      "time": "23712i",
      "midiNote": 74,
      "noteName": "D5",
      "velocity": 0.6299212598425197,
      "duration": "48i"
    },
    {
      "time": "23808i",
      "midiNote": 75,
      "noteName": "D#5",
      "velocity": 0.6299212598425197,
      "duration": "48i"
    },
    {
      "time": "23952i",
      "midiNote": 72,
      "noteName": "C5",
      "velocity": 0.6299212598425197,
      "duration": "48i"
    },
    {
      "time": "24096i",
      "midiNote": 75,
      "noteName": "D#5",
      "velocity": 0.6299212598425197,
      "duration": "48i"
    },
    {
      "time": "24192i",
      "midiNote": 74,
      "noteName": "D5",
      "velocity": 0.6299212598425197,
      "duration": "48i"
    },
    {
      "time": "24480i",
      "midiNote": 67,
      "noteName": "G4",
      "velocity": 0.6299212598425197,
      "duration": "48i"
    },
    {
      "time": "24576i",
      "midiNote": 64,
      "noteName": "E4",
      "velocity": 0.6299212598425197,
      "duration": "48i"
    },
    {
      "time": "24672i",
      "midiNote": 67,
      "noteName": "G4",
      "velocity": 0.6299212598425197,
      "duration": "48i"
    },
    {
      "time": "24768i",
      "midiNote": 72,
      "noteName": "C5",
      "velocity": 0.6299212598425197,
      "duration": "48i"
    },
    {
      "time": "24864i",
      "midiNote": 67,
      "noteName": "G4",
      "velocity": 0.6299212598425197,
      "duration": "48i"
    },
    {
      "time": "24960i",
      "midiNote": 69,
      "noteName": "A4",
      "velocity": 0.6299212598425197,
      "duration": "48i"
    },
    {
      "time": "25056i",
      "midiNote": 68,
      "noteName": "G#4",
      "velocity": 0.6299212598425197,
      "duration": "48i"
    },
    {
      "time": "25104i",
      "midiNote": 67,
      "noteName": "G4",
      "velocity": 0.6299212598425197,
      "duration": "48i"
    },
    {
      "time": "25248i",
      "midiNote": 66,
      "noteName": "F#4",
      "velocity": 0.6299212598425197,
      "duration": "48i"
    },
    {
      "time": "25392i",
      "midiNote": 65,
      "noteName": "F4",
      "velocity": 0.6299212598425197,
      "duration": "48i"
    },
    {
      "time": "25440i",
      "midiNote": 64,
      "noteName": "E4",
      "velocity": 0.6299212598425197,
      "duration": "48i"
    },
    {
      "time": "25536i",
      "midiNote": 60,
      "noteName": "C4",
      "velocity": 0.6299212598425197,
      "duration": "48i"
    },
    {
      "time": "25632i",
      "midiNote": 57,
      "noteName": "A3",
      "velocity": 0.6299212598425197,
      "duration": "48i"
    },
    {
      "time": "25680i",
      "midiNote": 59,
      "noteName": "B3",
      "velocity": 0.6299212598425197,
      "duration": "48i"
    },
    {
      "time": "25776i",
      "midiNote": 67,
      "noteName": "G4",
      "velocity": 0.6299212598425197,
      "duration": "48i"
    },
    {
      "time": "26016i",
      "midiNote": 67,
      "noteName": "G4",
      "velocity": 0.6299212598425197,
      "duration": "48i"
    },
    {
      "time": "26112i",
      "midiNote": 69,
      "noteName": "A4",
      "velocity": 0.6299212598425197,
      "duration": "48i"
    },
    {
      "time": "26208i",
      "midiNote": 71,
      "noteName": "B4",
      "velocity": 0.6299212598425197,
      "duration": "48i"
    },
    {
      "time": "26304i",
      "midiNote": 72,
      "noteName": "C5",
      "velocity": 0.6299212598425197,
      "duration": "48i"
    },
    {
      "time": "26400i",
      "midiNote": 77,
      "noteName": "F5",
      "velocity": 0.6299212598425197,
      "duration": "48i"
    },
    {
      "time": "26496i",
      "midiNote": 76,
      "noteName": "E5",
      "velocity": 0.6299212598425197,
      "duration": "48i"
    },
    {
      "time": "26640i",
      "midiNote": 72,
      "noteName": "C5",
      "velocity": 0.6299212598425197,
      "duration": "48i"
    },
    {
      "time": "26784i",
      "midiNote": 74,
      "noteName": "D5",
      "velocity": 0.6299212598425197,
      "duration": "48i"
    },
    {
      "time": "26880i",
      "midiNote": 72,
      "noteName": "C5",
      "velocity": 0.6299212598425197,
      "duration": "48i"
    },
    {
      "time": "27024i",
      "midiNote": 64,
      "noteName": "E4",
      "velocity": 0.6299212598425197,
      "duration": "48i"
    },
    {
      "time": "27552i",
      "midiNote": 67,
      "noteName": "G4",
      "velocity": 0.6299212598425197,
      "duration": "48i"
    },
    {
      "time": "27600i",
      "midiNote": 68,
      "noteName": "G#4",
      "velocity": 0.6299212598425197,
      "duration": "48i"
    },
    {
      "time": "27648i",
      "midiNote": 69,
      "noteName": "A4",
      "velocity": 0.6299212598425197,
      "duration": "48i"
    },
    {
      "time": "27696i",
      "midiNote": 68,
      "noteName": "G#4",
      "velocity": 0.6299212598425197,
      "duration": "48i"
    },
    {
      "time": "27744i",
      "midiNote": 69,
      "noteName": "A4",
      "velocity": 0.6299212598425197,
      "duration": "48i"
    },
    {
      "time": "27792i",
      "midiNote": 72,
      "noteName": "C5",
      "velocity": 0.6299212598425197,
      "duration": "48i"
    },
    {
      "time": "27888i",
      "midiNote": 71,
      "noteName": "B4",
      "velocity": 0.6299212598425197,
      "duration": "48i"
    },
    {
      "time": "27936i",
      "midiNote": 72,
      "noteName": "C5",
      "velocity": 0.6299212598425197,
      "duration": "48i"
    },
    {
      "time": "28032i",
      "midiNote": 77,
      "noteName": "F5",
      "velocity": 0.6299212598425197,
      "duration": "48i"
    },
    {
      "time": "28176i",
      "midiNote": 72,
      "noteName": "C5",
      "velocity": 0.6299212598425197,
      "duration": "48i"
    },
    {
      "time": "28320i",
      "midiNote": 69,
      "noteName": "A4",
      "velocity": 0.6299212598425197,
      "duration": "48i"
    },
    {
      "time": "28416i",
      "midiNote": 67,
      "noteName": "G4",
      "velocity": 0.6299212598425197,
      "duration": "48i"
    },
    {
      "time": "28464i",
      "midiNote": 66,
      "noteName": "F#4",
      "velocity": 0.6299212598425197,
      "duration": "48i"
    },
    {
      "time": "28512i",
      "midiNote": 67,
      "noteName": "G4",
      "velocity": 0.6299212598425197,
      "duration": "48i"
    },
    {
      "time": "28560i",
      "midiNote": 72,
      "noteName": "C5",
      "velocity": 0.6299212598425197,
      "duration": "48i"
    },
    {
      "time": "28656i",
      "midiNote": 71,
      "noteName": "B4",
      "velocity": 0.6299212598425197,
      "duration": "48i"
    },
    {
      "time": "28704i",
      "midiNote": 72,
      "noteName": "C5",
      "velocity": 0.6299212598425197,
      "duration": "48i"
    },
    {
      "time": "28800i",
      "midiNote": 76,
      "noteName": "E5",
      "velocity": 0.6299212598425197,
      "duration": "48i"
    },
    {
      "time": "28944i",
      "midiNote": 72,
      "noteName": "C5",
      "velocity": 0.6299212598425197,
      "duration": "48i"
    },
    {
      "time": "29088i",
      "midiNote": 67,
      "noteName": "G4",
      "velocity": 0.6299212598425197,
      "duration": "48i"
    },
    {
      "time": "29184i",
      "midiNote": 65,
      "noteName": "F4",
      "velocity": 0.6299212598425197,
      "duration": "48i"
    },
    {
      "time": "29232i",
      "midiNote": 64,
      "noteName": "E4",
      "velocity": 0.6299212598425197,
      "duration": "48i"
    },
    {
      "time": "29280i",
      "midiNote": 65,
      "noteName": "F4",
      "velocity": 0.6299212598425197,
      "duration": "48i"
    },
    {
      "time": "29328i",
      "midiNote": 69,
      "noteName": "A4",
      "velocity": 0.6299212598425197,
      "duration": "48i"
    },
    {
      "time": "29424i",
      "midiNote": 68,
      "noteName": "G#4",
      "velocity": 0.6299212598425197,
      "duration": "48i"
    },
    {
      "time": "29472i",
      "midiNote": 69,
      "noteName": "A4",
      "velocity": 0.6299212598425197,
      "duration": "48i"
    },
    {
      "time": "29568i",
      "midiNote": 77,
      "noteName": "F5",
      "velocity": 0.6299212598425197,
      "duration": "48i"
    },
    {
      "time": "29664i",
      "midiNote": 72,
      "noteName": "C5",
      "velocity": 0.6299212598425197,
      "duration": "48i"
    },
    {
      "time": "29712i",
      "midiNote": 69,
      "noteName": "A4",
      "velocity": 0.6299212598425197,
      "duration": "48i"
    },
    {
      "time": "29856i",
      "midiNote": 65,
      "noteName": "F4",
      "velocity": 0.6299212598425197,
      "duration": "48i"
    },
    {
      "time": "29952i",
      "midiNote": 64,
      "noteName": "E4",
      "velocity": 0.6299212598425197,
      "duration": "48i"
    },
    {
      "time": "30096i",
      "midiNote": 67,
      "noteName": "G4",
      "velocity": 0.6299212598425197,
      "duration": "48i"
    },
    {
      "time": "30624i",
      "midiNote": 67,
      "noteName": "G4",
      "velocity": 0.6299212598425197,
      "duration": "48i"
    },
    {
      "time": "30672i",
      "midiNote": 68,
      "noteName": "G#4",
      "velocity": 0.6299212598425197,
      "duration": "48i"
    },
    {
      "time": "30720i",
      "midiNote": 69,
      "noteName": "A4",
      "velocity": 0.6299212598425197,
      "duration": "48i"
    },
    {
      "time": "30768i",
      "midiNote": 68,
      "noteName": "G#4",
      "velocity": 0.6299212598425197,
      "duration": "48i"
    },
    {
      "time": "30816i",
      "midiNote": 69,
      "noteName": "A4",
      "velocity": 0.6299212598425197,
      "duration": "48i"
    },
    {
      "time": "30864i",
      "midiNote": 72,
      "noteName": "C5",
      "velocity": 0.6299212598425197,
      "duration": "48i"
    },
    {
      "time": "30960i",
      "midiNote": 71,
      "noteName": "B4",
      "velocity": 0.6299212598425197,
      "duration": "48i"
    },
    {
      "time": "31008i",
      "midiNote": 72,
      "noteName": "C5",
      "velocity": 0.6299212598425197,
      "duration": "48i"
    },
    {
      "time": "31104i",
      "midiNote": 77,
      "noteName": "F5",
      "velocity": 0.6299212598425197,
      "duration": "48i"
    },
    {
      "time": "31248i",
      "midiNote": 72,
      "noteName": "C5",
      "velocity": 0.6299212598425197,
      "duration": "48i"
    },
    {
      "time": "31392i",
      "midiNote": 69,
      "noteName": "A4",
      "velocity": 0.6299212598425197,
      "duration": "48i"
    },
    {
      "time": "31488i",
      "midiNote": 67,
      "noteName": "G4",
      "velocity": 0.6299212598425197,
      "duration": "48i"
    },
    {
      "time": "31536i",
      "midiNote": 66,
      "noteName": "F#4",
      "velocity": 0.6299212598425197,
      "duration": "48i"
    },
    {
      "time": "31584i",
      "midiNote": 67,
      "noteName": "G4",
      "velocity": 0.6299212598425197,
      "duration": "48i"
    },
    {
      "time": "31632i",
      "midiNote": 71,
      "noteName": "B4",
      "velocity": 0.6299212598425197,
      "duration": "48i"
    },
    {
      "time": "31776i",
      "midiNote": 74,
      "noteName": "D5",
      "velocity": 0.6299212598425197,
      "duration": "48i"
    },
    {
      "time": "31872i",
      "midiNote": 73,
      "noteName": "C#5",
      "velocity": 0.6299212598425197,
      "duration": "144i"
    },
    {
      "time": "32016i",
      "midiNote": 69,
      "noteName": "A4",
      "velocity": 0.6299212598425197,
      "duration": "48i"
    },
    {
      "time": "32160i",
      "midiNote": 64,
      "noteName": "E4",
      "velocity": 0.6299212598425197,
      "duration": "48i"
    },
    {
      "time": "32256i",
      "midiNote": 65,
      "noteName": "F4",
      "velocity": 0.6299212598425197,
      "duration": "48i"
    },
    {
      "time": "32304i",
      "midiNote": 64,
      "noteName": "E4",
      "velocity": 0.6299212598425197,
      "duration": "48i"
    },
    {
      "time": "32352i",
      "midiNote": 65,
      "noteName": "F4",
      "velocity": 0.6299212598425197,
      "duration": "48i"
    },
    {
      "time": "32400i",
      "midiNote": 69,
      "noteName": "A4",
      "velocity": 0.6299212598425197,
      "duration": "48i"
    },
    {
      "time": "32496i",
      "midiNote": 68,
      "noteName": "G#4",
      "velocity": 0.6299212598425197,
      "duration": "48i"
    },
    {
      "time": "32544i",
      "midiNote": 69,
      "noteName": "A4",
      "velocity": 0.6299212598425197,
      "duration": "48i"
    },
    {
      "time": "32640i",
      "midiNote": 72,
      "noteName": "C5",
      "velocity": 0.6299212598425197,
      "duration": "48i"
    },
    {
      "time": "32784i",
      "midiNote": 69,
      "noteName": "A4",
      "velocity": 0.6299212598425197,
      "duration": "48i"
    },
    {
      "time": "32928i",
      "midiNote": 66,
      "noteName": "F#4",
      "velocity": 0.6299212598425197,
      "duration": "48i"
    },
    {
      "time": "33024i",
      "midiNote": 67,
      "noteName": "G4",
      "velocity": 0.6299212598425197,
      "duration": "48i"
    },
    {
      "time": "33696i",
      "midiNote": 62,
      "noteName": "D4",
      "velocity": 0.6299212598425197,
      "duration": "48i"
    },
    {
      "time": "33792i",
      "midiNote": 64,
      "noteName": "E4",
      "velocity": 0.6299212598425197,
      "duration": "48i"
    },
    {
      "time": "33888i",
      "midiNote": 64,
      "noteName": "E4",
      "velocity": 0.6299212598425197,
      "duration": "48i"
    },
    {
      "time": "33936i",
      "midiNote": 67,
      "noteName": "G4",
      "velocity": 0.6299212598425197,
      "duration": "48i"
    },
    {
      "time": "34032i",
      "midiNote": 64,
      "noteName": "E4",
      "velocity": 0.6299212598425197,
      "duration": "48i"
    },
    {
      "time": "34080i",
      "midiNote": 67,
      "noteName": "G4",
      "velocity": 0.6299212598425197,
      "duration": "48i"
    },
    {
      "time": "34176i",
      "midiNote": 72,
      "noteName": "C5",
      "velocity": 0.6299212598425197,
      "duration": "48i"
    },
    {
      "time": "34320i",
      "midiNote": 67,
      "noteName": "G4",
      "velocity": 0.6299212598425197,
      "duration": "48i"
    },
    {
      "time": "34464i",
      "midiNote": 72,
      "noteName": "C5",
      "velocity": 0.6299212598425197,
      "duration": "48i"
    },
    {
      "time": "34560i",
      "midiNote": 71,
      "noteName": "B4",
      "velocity": 0.6299212598425197,
      "duration": "48i"
    },
    {
      "time": "34656i",
      "midiNote": 67,
      "noteName": "G4",
      "velocity": 0.6299212598425197,
      "duration": "48i"
    },
    {
      "time": "34704i",
      "midiNote": 65,
      "noteName": "F4",
      "velocity": 0.6299212598425197,
      "duration": "48i"
    },
    {
      "time": "34800i",
      "midiNote": 64,
      "noteName": "E4",
      "velocity": 0.6299212598425197,
      "duration": "48i"
    },
    {
      "time": "34848i",
      "midiNote": 65,
      "noteName": "F4",
      "velocity": 0.6299212598425197,
      "duration": "48i"
    },
    {
      "time": "34944i",
      "midiNote": 62,
      "noteName": "D4",
      "velocity": 0.6299212598425197,
      "duration": "48i"
    },
    {
      "time": "35232i",
      "midiNote": 65,
      "noteName": "F4",
      "velocity": 0.6299212598425197,
      "duration": "48i"
    },
    {
      "time": "35328i",
      "midiNote": 71,
      "noteName": "B4",
      "velocity": 0.6299212598425197,
      "duration": "48i"
    },
    {
      "time": "35424i",
      "midiNote": 71,
      "noteName": "B4",
      "velocity": 0.6299212598425197,
      "duration": "48i"
    },
    {
      "time": "35472i",
      "midiNote": 67,
      "noteName": "G4",
      "velocity": 0.6299212598425197,
      "duration": "48i"
    },
    {
      "time": "35568i",
      "midiNote": 71,
      "noteName": "B4",
      "velocity": 0.6299212598425197,
      "duration": "48i"
    },
    {
      "time": "35616i",
      "midiNote": 69,
      "noteName": "A4",
      "velocity": 0.6299212598425197,
      "duration": "48i"
    },
    {
      "time": "35712i",
      "midiNote": 67,
      "noteName": "G4",
      "velocity": 0.6299212598425197,
      "duration": "48i"
    },
    {
      "time": "35808i",
      "midiNote": 65,
      "noteName": "F4",
      "velocity": 0.6299212598425197,
      "duration": "48i"
    },
    {
      "time": "35856i",
      "midiNote": 62,
      "noteName": "D4",
      "velocity": 0.6299212598425197,
      "duration": "48i"
    },
    {
      "time": "36000i",
      "midiNote": 65,
      "noteName": "F4",
      "velocity": 0.6299212598425197,
      "duration": "48i"
    },
    {
      "time": "36096i",
      "midiNote": 64,
      "noteName": "E4",
      "velocity": 0.6299212598425197,
      "duration": "48i"
    },
    {
      "time": "36240i",
      "midiNote": 67,
      "noteName": "G4",
      "velocity": 0.6299212598425197,
      "duration": "48i"
    },
    {
      "time": "36768i",
      "midiNote": 67,
      "noteName": "G4",
      "velocity": 0.6299212598425197,
      "duration": "48i"
    },
    {
      "time": "36816i",
      "midiNote": 68,
      "noteName": "G#4",
      "velocity": 0.6299212598425197,
      "duration": "48i"
    },
    {
      "time": "36864i",
      "midiNote": 69,
      "noteName": "A4",
      "velocity": 0.6299212598425197,
      "duration": "48i"
    },
    {
      "time": "36912i",
      "midiNote": 68,
      "noteName": "G#4",
      "velocity": 0.6299212598425197,
      "duration": "48i"
    },
    {
      "time": "36960i",
      "midiNote": 69,
      "noteName": "A4",
      "velocity": 0.6299212598425197,
      "duration": "48i"
    },
    {
      "time": "37008i",
      "midiNote": 72,
      "noteName": "C5",
      "velocity": 0.6299212598425197,
      "duration": "48i"
    },
    {
      "time": "37104i",
      "midiNote": 71,
      "noteName": "B4",
      "velocity": 0.6299212598425197,
      "duration": "48i"
    },
    {
      "time": "37152i",
      "midiNote": 72,
      "noteName": "C5",
      "velocity": 0.6299212598425197,
      "duration": "48i"
    },
    {
      "time": "37248i",
      "midiNote": 77,
      "noteName": "F5",
      "velocity": 0.6299212598425197,
      "duration": "48i"
    },
    {
      "time": "37392i",
      "midiNote": 72,
      "noteName": "C5",
      "velocity": 0.6299212598425197,
      "duration": "48i"
    },
    {
      "time": "37536i",
      "midiNote": 69,
      "noteName": "A4",
      "velocity": 0.6299212598425197,
      "duration": "48i"
    },
    {
      "time": "37632i",
      "midiNote": 67,
      "noteName": "G4",
      "velocity": 0.6299212598425197,
      "duration": "48i"
    },
    {
      "time": "37776i",
      "midiNote": 71,
      "noteName": "B4",
      "velocity": 0.6299212598425197,
      "duration": "48i"
    },
    {
      "time": "37920i",
      "midiNote": 74,
      "noteName": "D5",
      "velocity": 0.6299212598425197,
      "duration": "48i"
    },
    {
      "time": "38016i",
      "midiNote": 76,
      "noteName": "E5",
      "velocity": 0.6299212598425197,
      "duration": "48i"
    },
    {
      "time": "38160i",
      "midiNote": 73,
      "noteName": "C#5",
      "velocity": 0.6299212598425197,
      "duration": "48i"
    },
    {
      "time": "38304i",
      "midiNote": 67,
      "noteName": "G4",
      "velocity": 0.6299212598425197,
      "duration": "48i"
    },
    {
      "time": "38400i",
      "midiNote": 65,
      "noteName": "F4",
      "velocity": 0.6299212598425197,
      "duration": "48i"
    },
    {
      "time": "38496i",
      "midiNote": 69,
      "noteName": "A4",
      "velocity": 0.6299212598425197,
      "duration": "48i"
    },
    {
      "time": "38592i",
      "midiNote": 72,
      "noteName": "C5",
      "velocity": 0.6299212598425197,
      "duration": "48i"
    },
    {
      "time": "38688i",
      "midiNote": 69,
      "noteName": "A4",
      "velocity": 0.6299212598425197,
      "duration": "48i"
    },
    {
      "time": "38736i",
      "midiNote": 72,
      "noteName": "C5",
      "velocity": 0.6299212598425197,
      "duration": "48i"
    },
    {
      "time": "38832i",
      "midiNote": 72,
      "noteName": "C5",
      "velocity": 0.6299212598425197,
      "duration": "48i"
    },
    {
      "time": "38928i",
      "midiNote": 69,
      "noteName": "A4",
      "velocity": 0.6299212598425197,
      "duration": "48i"
    },
    {
      "time": "39024i",
      "midiNote": 66,
      "noteName": "F#4",
      "velocity": 0.6299212598425197,
      "duration": "48i"
    },
    {
      "time": "39072i",
      "midiNote": 69,
      "noteName": "A4",
      "velocity": 0.6299212598425197,
      "duration": "48i"
    },
    {
      "time": "39168i",
      "midiNote": 67,
      "noteName": "G4",
      "velocity": 0.6299212598425197,
      "duration": "48i"
    }
  ],
  [
    {
      "time": "1344i",
      "midiNote": 67,
      "noteName": "G4",
      "velocity": 0.6299212598425197,
      "duration": "96i"
    },
    {
      "time": "4272i",
      "midiNote": 65,
      "noteName": "F4",
      "velocity": 0.6299212598425197,
      "duration": "96i"
    },
    {
      "time": "4272i",
      "midiNote": 67,
      "noteName": "G4",
      "velocity": 0.6299212598425197,
      "duration": "96i"
    },
    {
      "time": "4416i",
      "midiNote": 65,
      "noteName": "F4",
      "velocity": 0.6299212598425197,
      "duration": "96i"
    },
    {
      "time": "4416i",
      "midiNote": 67,
      "noteName": "G4",
      "velocity": 0.6299212598425197,
      "duration": "96i"
    },
    {
      "time": "7296i",
      "midiNote": 62,
      "noteName": "D4",
      "velocity": 0.6299212598425197,
      "duration": "96i"
    },
    {
      "time": "7296i",
      "midiNote": 65,
      "noteName": "F4",
      "velocity": 0.6299212598425197,
      "duration": "96i"
    },
    {
      "time": "7440i",
      "midiNote": 64,
      "noteName": "E4",
      "velocity": 0.6299212598425197,
      "duration": "96i"
    },
    {
      "time": "7440i",
      "midiNote": 67,
      "noteName": "G4",
      "velocity": 0.6299212598425197,
      "duration": "96i"
    },
    {
      "time": "10176i",
      "midiNote": 64,
      "noteName": "E4",
      "velocity": 0.6299212598425197,
      "duration": "96i"
    },
    {
      "time": "10176i",
      "midiNote": 67,
      "noteName": "G4",
      "velocity": 0.6299212598425197,
      "duration": "96i"
    },
    {
      "time": "10368i",
      "midiNote": 64,
      "noteName": "E4",
      "velocity": 0.6299212598425197,
      "duration": "96i"
    },
    {
      "time": "10368i",
      "midiNote": 69,
      "noteName": "A4",
      "velocity": 0.6299212598425197,
      "duration": "96i"
    },
    {
      "time": "10512i",
      "midiNote": 64,
      "noteName": "E4",
      "velocity": 0.6299212598425197,
      "duration": "96i"
    },
    {
      "time": "10512i",
      "midiNote": 67,
      "noteName": "G4",
      "velocity": 0.6299212598425197,
      "duration": "96i"
    },
    {
      "time": "13248i",
      "midiNote": 62,
      "noteName": "D4",
      "velocity": 0.6299212598425197,
      "duration": "96i"
    },
    {
      "time": "13248i",
      "midiNote": 67,
      "noteName": "G4",
      "velocity": 0.6299212598425197,
      "duration": "96i"
    },
    {
      "time": "13440i",
      "midiNote": 62,
      "noteName": "D4",
      "velocity": 0.6299212598425197,
      "duration": "96i"
    },
    {
      "time": "13440i",
      "midiNote": 69,
      "noteName": "A4",
      "velocity": 0.6299212598425197,
      "duration": "96i"
    },
    {
      "time": "13584i",
      "midiNote": 62,
      "noteName": "D4",
      "velocity": 0.6299212598425197,
      "duration": "96i"
    },
    {
      "time": "13584i",
      "midiNote": 67,
      "noteName": "G4",
      "velocity": 0.6299212598425197,
      "duration": "96i"
    },
    {
      "time": "16320i",
      "midiNote": 64,
      "noteName": "E4",
      "velocity": 0.6299212598425197,
      "duration": "96i"
    },
    {
      "time": "16320i",
      "midiNote": 67,
      "noteName": "G4",
      "velocity": 0.6299212598425197,
      "duration": "96i"
    },
    {
      "time": "16512i",
      "midiNote": 64,
      "noteName": "E4",
      "velocity": 0.6299212598425197,
      "duration": "96i"
    },
    {
      "time": "16512i",
      "midiNote": 69,
      "noteName": "A4",
      "velocity": 0.6299212598425197,
      "duration": "96i"
    },
    {
      "time": "16656i",
      "midiNote": 64,
      "noteName": "E4",
      "velocity": 0.6299212598425197,
      "duration": "96i"
    },
    {
      "time": "16656i",
      "midiNote": 67,
      "noteName": "G4",
      "velocity": 0.6299212598425197,
      "duration": "96i"
    },
    {
      "time": "19392i",
      "midiNote": 62,
      "noteName": "D4",
      "velocity": 0.6299212598425197,
      "duration": "96i"
    },
    {
      "time": "19392i",
      "midiNote": 67,
      "noteName": "G4",
      "velocity": 0.6299212598425197,
      "duration": "96i"
    },
    {
      "time": "19584i",
      "midiNote": 62,
      "noteName": "D4",
      "velocity": 0.6299212598425197,
      "duration": "96i"
    },
    {
      "time": "19584i",
      "midiNote": 69,
      "noteName": "A4",
      "velocity": 0.6299212598425197,
      "duration": "96i"
    },
    {
      "time": "19728i",
      "midiNote": 62,
      "noteName": "D4",
      "velocity": 0.6299212598425197,
      "duration": "96i"
    },
    {
      "time": "19728i",
      "midiNote": 67,
      "noteName": "G4",
      "velocity": 0.6299212598425197,
      "duration": "96i"
    },
    {
      "time": "21312i",
      "midiNote": 67,
      "noteName": "G4",
      "velocity": 0.6299212598425197,
      "duration": "96i"
    },
    {
      "time": "24240i",
      "midiNote": 65,
      "noteName": "F4",
      "velocity": 0.6299212598425197,
      "duration": "96i"
    },
    {
      "time": "24240i",
      "midiNote": 67,
      "noteName": "G4",
      "velocity": 0.6299212598425197,
      "duration": "96i"
    },
    {
      "time": "24384i",
      "midiNote": 65,
      "noteName": "F4",
      "velocity": 0.6299212598425197,
      "duration": "96i"
    },
    {
      "time": "24384i",
      "midiNote": 67,
      "noteName": "G4",
      "velocity": 0.6299212598425197,
      "duration": "96i"
    },
    {
      "time": "27264i",
      "midiNote": 62,
      "noteName": "D4",
      "velocity": 0.6299212598425197,
      "duration": "96i"
    },
    {
      "time": "27264i",
      "midiNote": 65,
      "noteName": "F4",
      "velocity": 0.6299212598425197,
      "duration": "96i"
    },
    {
      "time": "27408i",
      "midiNote": 64,
      "noteName": "E4",
      "velocity": 0.6299212598425197,
      "duration": "96i"
    },
    {
      "time": "27408i",
      "midiNote": 67,
      "noteName": "G4",
      "velocity": 0.6299212598425197,
      "duration": "96i"
    },
    {
      "time": "30144i",
      "midiNote": 64,
      "noteName": "E4",
      "velocity": 0.6299212598425197,
      "duration": "96i"
    },
    {
      "time": "30144i",
      "midiNote": 67,
      "noteName": "G4",
      "velocity": 0.6299212598425197,
      "duration": "96i"
    },
    {
      "time": "30336i",
      "midiNote": 64,
      "noteName": "E4",
      "velocity": 0.6299212598425197,
      "duration": "96i"
    },
    {
      "time": "30336i",
      "midiNote": 69,
      "noteName": "A4",
      "velocity": 0.6299212598425197,
      "duration": "96i"
    },
    {
      "time": "30480i",
      "midiNote": 64,
      "noteName": "E4",
      "velocity": 0.6299212598425197,
      "duration": "96i"
    },
    {
      "time": "30480i",
      "midiNote": 67,
      "noteName": "G4",
      "velocity": 0.6299212598425197,
      "duration": "96i"
    },
    {
      "time": "33216i",
      "midiNote": 62,
      "noteName": "D4",
      "velocity": 0.6299212598425197,
      "duration": "96i"
    },
    {
      "time": "33216i",
      "midiNote": 67,
      "noteName": "G4",
      "velocity": 0.6299212598425197,
      "duration": "96i"
    },
    {
      "time": "33408i",
      "midiNote": 62,
      "noteName": "D4",
      "velocity": 0.6299212598425197,
      "duration": "96i"
    },
    {
      "time": "33408i",
      "midiNote": 69,
      "noteName": "A4",
      "velocity": 0.6299212598425197,
      "duration": "96i"
    },
    {
      "time": "33552i",
      "midiNote": 62,
      "noteName": "D4",
      "velocity": 0.6299212598425197,
      "duration": "96i"
    },
    {
      "time": "33552i",
      "midiNote": 67,
      "noteName": "G4",
      "velocity": 0.6299212598425197,
      "duration": "96i"
    },
    {
      "time": "36288i",
      "midiNote": 64,
      "noteName": "E4",
      "velocity": 0.6299212598425197,
      "duration": "96i"
    },
    {
      "time": "36288i",
      "midiNote": 67,
      "noteName": "G4",
      "velocity": 0.6299212598425197,
      "duration": "96i"
    },
    {
      "time": "36480i",
      "midiNote": 64,
      "noteName": "E4",
      "velocity": 0.6299212598425197,
      "duration": "96i"
    },
    {
      "time": "36480i",
      "midiNote": 69,
      "noteName": "A4",
      "velocity": 0.6299212598425197,
      "duration": "96i"
    },
    {
      "time": "36624i",
      "midiNote": 64,
      "noteName": "E4",
      "velocity": 0.6299212598425197,
      "duration": "96i"
    },
    {
      "time": "36624i",
      "midiNote": 67,
      "noteName": "G4",
      "velocity": 0.6299212598425197,
      "duration": "96i"
    },
    {
      "time": "39360i",
      "midiNote": 62,
      "noteName": "D4",
      "velocity": 0.6299212598425197,
      "duration": "96i"
    },
    {
      "time": "39360i",
      "midiNote": 67,
      "noteName": "G4",
      "velocity": 0.6299212598425197,
      "duration": "96i"
    },
    {
      "time": "39552i",
      "midiNote": 62,
      "noteName": "D4",
      "velocity": 0.6299212598425197,
      "duration": "96i"
    },
    {
      "time": "39552i",
      "midiNote": 69,
      "noteName": "A4",
      "velocity": 0.6299212598425197,
      "duration": "96i"
    },
    {
      "time": "39696i",
      "midiNote": 62,
      "noteName": "D4",
      "velocity": 0.6299212598425197,
      "duration": "96i"
    },
    {
      "time": "39696i",
      "midiNote": 67,
      "noteName": "G4",
      "velocity": 0.6299212598425197,
      "duration": "96i"
    }
  ]
]

buildTrack = parseMidi(parts: parts, transport: transport)
