require('v1/midi')

transport = {
  "bpm": 238,
  "timeSignature": [
    12,
    12
  ]
}

parts = [
  [
    {
      "time": "0i",
      "midiNote": 36,
      "noteName": "C2",
      "velocity": 0.8503937007874016,
      "duration": "68i"
    },
    {
      "time": "96i",
      "midiNote": 36,
      "noteName": "C2",
      "velocity": 0.8503937007874016,
      "duration": "68i"
    },
    {
      "time": "256i",
      "midiNote": 36,
      "noteName": "C2",
      "velocity": 0.8503937007874016,
      "duration": "22i"
    },
    {
      "time": "288i",
      "midiNote": 33,
      "noteName": "A1",
      "velocity": 0.8503937007874016,
      "duration": "45i"
    },
    {
      "time": "352i",
      "midiNote": 36,
      "noteName": "C2",
      "velocity": 0.8503937007874016,
      "duration": "30i"
    },
    {
      "time": "480i",
      "midiNote": 38,
      "noteName": "D2",
      "velocity": 0.8503937007874016,
      "duration": "94i"
    },
    {
      "time": "576i",
      "midiNote": 40,
      "noteName": "E2",
      "velocity": 0.8503937007874016,
      "duration": "120i"
    },
    {
      "time": "768i",
      "midiNote": 36,
      "noteName": "C2",
      "velocity": 0.8503937007874016,
      "duration": "68i"
    },
    {
      "time": "864i",
      "midiNote": 36,
      "noteName": "C2",
      "velocity": 0.8503937007874016,
      "duration": "68i"
    },
    {
      "time": "1024i",
      "midiNote": 36,
      "noteName": "C2",
      "velocity": 0.8503937007874016,
      "duration": "22i"
    },
    {
      "time": "1056i",
      "midiNote": 33,
      "noteName": "A1",
      "velocity": 0.8503937007874016,
      "duration": "45i"
    },
    {
      "time": "1120i",
      "midiNote": 36,
      "noteName": "C2",
      "velocity": 0.8503937007874016,
      "duration": "42i"
    },
    {
      "time": "1536i",
      "midiNote": 41,
      "noteName": "F2",
      "velocity": 0.8503937007874016,
      "duration": "68i"
    },
    {
      "time": "1632i",
      "midiNote": 41,
      "noteName": "F2",
      "velocity": 0.8503937007874016,
      "duration": "68i"
    },
    {
      "time": "1792i",
      "midiNote": 41,
      "noteName": "F2",
      "velocity": 0.8503937007874016,
      "duration": "22i"
    },
    {
      "time": "1824i",
      "midiNote": 38,
      "noteName": "D2",
      "velocity": 0.8503937007874016,
      "duration": "45i"
    },
    {
      "time": "1888i",
      "midiNote": 41,
      "noteName": "F2",
      "velocity": 0.8503937007874016,
      "duration": "30i"
    },
    {
      "time": "2016i",
      "midiNote": 43,
      "noteName": "G2",
      "velocity": 0.8503937007874016,
      "duration": "94i"
    },
    {
      "time": "2112i",
      "midiNote": 45,
      "noteName": "A2",
      "velocity": 0.8503937007874016,
      "duration": "120i"
    },
    {
      "time": "2304i",
      "midiNote": 41,
      "noteName": "F2",
      "velocity": 0.8503937007874016,
      "duration": "68i"
    },
    {
      "time": "2400i",
      "midiNote": 41,
      "noteName": "F2",
      "velocity": 0.8503937007874016,
      "duration": "68i"
    },
    {
      "time": "2560i",
      "midiNote": 41,
      "noteName": "F2",
      "velocity": 0.8503937007874016,
      "duration": "22i"
    },
    {
      "time": "2592i",
      "midiNote": 38,
      "noteName": "D2",
      "velocity": 0.8503937007874016,
      "duration": "45i"
    },
    {
      "time": "2656i",
      "midiNote": 41,
      "noteName": "F2",
      "velocity": 0.8503937007874016,
      "duration": "42i"
    },
    {
      "time": "3072i",
      "midiNote": 36,
      "noteName": "C2",
      "velocity": 0.8503937007874016,
      "duration": "68i"
    },
    {
      "time": "3168i",
      "midiNote": 36,
      "noteName": "C2",
      "velocity": 0.8503937007874016,
      "duration": "68i"
    },
    {
      "time": "3328i",
      "midiNote": 36,
      "noteName": "C2",
      "velocity": 0.8503937007874016,
      "duration": "22i"
    },
    {
      "time": "3360i",
      "midiNote": 33,
      "noteName": "A1",
      "velocity": 0.8503937007874016,
      "duration": "45i"
    },
    {
      "time": "3424i",
      "midiNote": 36,
      "noteName": "C2",
      "velocity": 0.8503937007874016,
      "duration": "30i"
    },
    {
      "time": "3552i",
      "midiNote": 38,
      "noteName": "D2",
      "velocity": 0.8503937007874016,
      "duration": "94i"
    },
    {
      "time": "3648i",
      "midiNote": 40,
      "noteName": "E2",
      "velocity": 0.8503937007874016,
      "duration": "120i"
    },
    {
      "time": "3840i",
      "midiNote": 36,
      "noteName": "C2",
      "velocity": 0.8503937007874016,
      "duration": "62i"
    },
    {
      "time": "3904i",
      "midiNote": 36,
      "noteName": "C2",
      "velocity": 0.8503937007874016,
      "duration": "30i"
    },
    {
      "time": "4128i",
      "midiNote": 36,
      "noteName": "C2",
      "velocity": 0.8503937007874016,
      "duration": "62i"
    },
    {
      "time": "4192i",
      "midiNote": 36,
      "noteName": "C2",
      "velocity": 0.8503937007874016,
      "duration": "30i"
    },
    {
      "time": "4608i",
      "midiNote": 36,
      "noteName": "C2",
      "velocity": 0.8503937007874016,
      "duration": "68i"
    },
    {
      "time": "4704i",
      "midiNote": 36,
      "noteName": "C2",
      "velocity": 0.8503937007874016,
      "duration": "68i"
    },
    {
      "time": "4864i",
      "midiNote": 36,
      "noteName": "C2",
      "velocity": 0.8503937007874016,
      "duration": "22i"
    },
    {
      "time": "4896i",
      "midiNote": 33,
      "noteName": "A1",
      "velocity": 0.8503937007874016,
      "duration": "45i"
    },
    {
      "time": "4960i",
      "midiNote": 36,
      "noteName": "C2",
      "velocity": 0.8503937007874016,
      "duration": "30i"
    },
    {
      "time": "5088i",
      "midiNote": 38,
      "noteName": "D2",
      "velocity": 0.8503937007874016,
      "duration": "94i"
    },
    {
      "time": "5184i",
      "midiNote": 40,
      "noteName": "E2",
      "velocity": 0.8503937007874016,
      "duration": "120i"
    },
    {
      "time": "5376i",
      "midiNote": 36,
      "noteName": "C2",
      "velocity": 0.8503937007874016,
      "duration": "68i"
    },
    {
      "time": "5472i",
      "midiNote": 36,
      "noteName": "C2",
      "velocity": 0.8503937007874016,
      "duration": "68i"
    },
    {
      "time": "5632i",
      "midiNote": 36,
      "noteName": "C2",
      "velocity": 0.8503937007874016,
      "duration": "22i"
    },
    {
      "time": "5664i",
      "midiNote": 33,
      "noteName": "A1",
      "velocity": 0.8503937007874016,
      "duration": "45i"
    },
    {
      "time": "5728i",
      "midiNote": 36,
      "noteName": "C2",
      "velocity": 0.8503937007874016,
      "duration": "42i"
    },
    {
      "time": "6144i",
      "midiNote": 41,
      "noteName": "F2",
      "velocity": 0.8503937007874016,
      "duration": "68i"
    },
    {
      "time": "6240i",
      "midiNote": 41,
      "noteName": "F2",
      "velocity": 0.8503937007874016,
      "duration": "68i"
    },
    {
      "time": "6400i",
      "midiNote": 41,
      "noteName": "F2",
      "velocity": 0.8503937007874016,
      "duration": "22i"
    },
    {
      "time": "6432i",
      "midiNote": 38,
      "noteName": "D2",
      "velocity": 0.8503937007874016,
      "duration": "45i"
    },
    {
      "time": "6496i",
      "midiNote": 41,
      "noteName": "F2",
      "velocity": 0.8503937007874016,
      "duration": "30i"
    },
    {
      "time": "6624i",
      "midiNote": 43,
      "noteName": "G2",
      "velocity": 0.8503937007874016,
      "duration": "94i"
    },
    {
      "time": "6720i",
      "midiNote": 45,
      "noteName": "A2",
      "velocity": 0.8503937007874016,
      "duration": "120i"
    },
    {
      "time": "6912i",
      "midiNote": 41,
      "noteName": "F2",
      "velocity": 0.8503937007874016,
      "duration": "68i"
    },
    {
      "time": "7008i",
      "midiNote": 41,
      "noteName": "F2",
      "velocity": 0.8503937007874016,
      "duration": "68i"
    },
    {
      "time": "7168i",
      "midiNote": 41,
      "noteName": "F2",
      "velocity": 0.8503937007874016,
      "duration": "22i"
    },
    {
      "time": "7200i",
      "midiNote": 38,
      "noteName": "D2",
      "velocity": 0.8503937007874016,
      "duration": "45i"
    },
    {
      "time": "7264i",
      "midiNote": 41,
      "noteName": "F2",
      "velocity": 0.8503937007874016,
      "duration": "42i"
    },
    {
      "time": "7680i",
      "midiNote": 36,
      "noteName": "C2",
      "velocity": 0.8503937007874016,
      "duration": "68i"
    },
    {
      "time": "7776i",
      "midiNote": 36,
      "noteName": "C2",
      "velocity": 0.8503937007874016,
      "duration": "68i"
    },
    {
      "time": "7936i",
      "midiNote": 36,
      "noteName": "C2",
      "velocity": 0.8503937007874016,
      "duration": "22i"
    },
    {
      "time": "7968i",
      "midiNote": 33,
      "noteName": "A1",
      "velocity": 0.8503937007874016,
      "duration": "45i"
    },
    {
      "time": "8032i",
      "midiNote": 36,
      "noteName": "C2",
      "velocity": 0.8503937007874016,
      "duration": "30i"
    },
    {
      "time": "8160i",
      "midiNote": 38,
      "noteName": "D2",
      "velocity": 0.8503937007874016,
      "duration": "94i"
    },
    {
      "time": "8256i",
      "midiNote": 40,
      "noteName": "E2",
      "velocity": 0.8503937007874016,
      "duration": "120i"
    },
    {
      "time": "8448i",
      "midiNote": 36,
      "noteName": "C2",
      "velocity": 0.8503937007874016,
      "duration": "62i"
    },
    {
      "time": "8512i",
      "midiNote": 36,
      "noteName": "C2",
      "velocity": 0.8503937007874016,
      "duration": "30i"
    },
    {
      "time": "8736i",
      "midiNote": 36,
      "noteName": "C2",
      "velocity": 0.8503937007874016,
      "duration": "62i"
    },
    {
      "time": "8800i",
      "midiNote": 36,
      "noteName": "C2",
      "velocity": 0.8503937007874016,
      "duration": "30i"
    },
    {
      "time": "9216i",
      "midiNote": 36,
      "noteName": "C2",
      "velocity": 0.8503937007874016,
      "duration": "68i"
    },
    {
      "time": "9312i",
      "midiNote": 36,
      "noteName": "C2",
      "velocity": 0.8503937007874016,
      "duration": "68i"
    },
    {
      "time": "9472i",
      "midiNote": 36,
      "noteName": "C2",
      "velocity": 0.8503937007874016,
      "duration": "22i"
    },
    {
      "time": "9504i",
      "midiNote": 33,
      "noteName": "A1",
      "velocity": 0.8503937007874016,
      "duration": "45i"
    },
    {
      "time": "9568i",
      "midiNote": 36,
      "noteName": "C2",
      "velocity": 0.8503937007874016,
      "duration": "30i"
    },
    {
      "time": "9696i",
      "midiNote": 38,
      "noteName": "D2",
      "velocity": 0.8503937007874016,
      "duration": "94i"
    },
    {
      "time": "9792i",
      "midiNote": 40,
      "noteName": "E2",
      "velocity": 0.8503937007874016,
      "duration": "120i"
    },
    {
      "time": "9984i",
      "midiNote": 36,
      "noteName": "C2",
      "velocity": 0.8503937007874016,
      "duration": "68i"
    },
    {
      "time": "10080i",
      "midiNote": 36,
      "noteName": "C2",
      "velocity": 0.8503937007874016,
      "duration": "68i"
    },
    {
      "time": "10240i",
      "midiNote": 36,
      "noteName": "C2",
      "velocity": 0.8503937007874016,
      "duration": "22i"
    },
    {
      "time": "10272i",
      "midiNote": 33,
      "noteName": "A1",
      "velocity": 0.8503937007874016,
      "duration": "45i"
    },
    {
      "time": "10336i",
      "midiNote": 36,
      "noteName": "C2",
      "velocity": 0.8503937007874016,
      "duration": "42i"
    },
    {
      "time": "10752i",
      "midiNote": 41,
      "noteName": "F2",
      "velocity": 0.8503937007874016,
      "duration": "68i"
    },
    {
      "time": "10848i",
      "midiNote": 41,
      "noteName": "F2",
      "velocity": 0.8503937007874016,
      "duration": "68i"
    },
    {
      "time": "11008i",
      "midiNote": 41,
      "noteName": "F2",
      "velocity": 0.8503937007874016,
      "duration": "22i"
    },
    {
      "time": "11040i",
      "midiNote": 38,
      "noteName": "D2",
      "velocity": 0.8503937007874016,
      "duration": "45i"
    },
    {
      "time": "11104i",
      "midiNote": 41,
      "noteName": "F2",
      "velocity": 0.8503937007874016,
      "duration": "30i"
    },
    {
      "time": "11232i",
      "midiNote": 43,
      "noteName": "G2",
      "velocity": 0.8503937007874016,
      "duration": "94i"
    },
    {
      "time": "11328i",
      "midiNote": 45,
      "noteName": "A2",
      "velocity": 0.8503937007874016,
      "duration": "120i"
    },
    {
      "time": "11520i",
      "midiNote": 41,
      "noteName": "F2",
      "velocity": 0.8503937007874016,
      "duration": "68i"
    },
    {
      "time": "11616i",
      "midiNote": 41,
      "noteName": "F2",
      "velocity": 0.8503937007874016,
      "duration": "68i"
    },
    {
      "time": "11776i",
      "midiNote": 41,
      "noteName": "F2",
      "velocity": 0.8503937007874016,
      "duration": "22i"
    },
    {
      "time": "11808i",
      "midiNote": 38,
      "noteName": "D2",
      "velocity": 0.8503937007874016,
      "duration": "45i"
    },
    {
      "time": "11872i",
      "midiNote": 41,
      "noteName": "F2",
      "velocity": 0.8503937007874016,
      "duration": "42i"
    },
    {
      "time": "12288i",
      "midiNote": 36,
      "noteName": "C2",
      "velocity": 0.8503937007874016,
      "duration": "68i"
    },
    {
      "time": "12384i",
      "midiNote": 36,
      "noteName": "C2",
      "velocity": 0.8503937007874016,
      "duration": "68i"
    },
    {
      "time": "12544i",
      "midiNote": 36,
      "noteName": "C2",
      "velocity": 0.8503937007874016,
      "duration": "22i"
    },
    {
      "time": "12576i",
      "midiNote": 33,
      "noteName": "A1",
      "velocity": 0.8503937007874016,
      "duration": "45i"
    },
    {
      "time": "12640i",
      "midiNote": 36,
      "noteName": "C2",
      "velocity": 0.8503937007874016,
      "duration": "30i"
    },
    {
      "time": "12768i",
      "midiNote": 38,
      "noteName": "D2",
      "velocity": 0.8503937007874016,
      "duration": "94i"
    },
    {
      "time": "12864i",
      "midiNote": 40,
      "noteName": "E2",
      "velocity": 0.8503937007874016,
      "duration": "120i"
    },
    {
      "time": "13056i",
      "midiNote": 36,
      "noteName": "C2",
      "velocity": 0.8503937007874016,
      "duration": "62i"
    },
    {
      "time": "13120i",
      "midiNote": 36,
      "noteName": "C2",
      "velocity": 0.8503937007874016,
      "duration": "30i"
    },
    {
      "time": "13344i",
      "midiNote": 36,
      "noteName": "C2",
      "velocity": 0.8503937007874016,
      "duration": "62i"
    },
    {
      "time": "13408i",
      "midiNote": 36,
      "noteName": "C2",
      "velocity": 0.8503937007874016,
      "duration": "30i"
    },
    {
      "time": "13824i",
      "midiNote": 36,
      "noteName": "C2",
      "velocity": 0.8503937007874016,
      "duration": "68i"
    },
    {
      "time": "13920i",
      "midiNote": 36,
      "noteName": "C2",
      "velocity": 0.8503937007874016,
      "duration": "68i"
    },
    {
      "time": "14080i",
      "midiNote": 36,
      "noteName": "C2",
      "velocity": 0.8503937007874016,
      "duration": "22i"
    },
    {
      "time": "14112i",
      "midiNote": 33,
      "noteName": "A1",
      "velocity": 0.8503937007874016,
      "duration": "45i"
    },
    {
      "time": "14176i",
      "midiNote": 36,
      "noteName": "C2",
      "velocity": 0.8503937007874016,
      "duration": "30i"
    },
    {
      "time": "14304i",
      "midiNote": 38,
      "noteName": "D2",
      "velocity": 0.8503937007874016,
      "duration": "94i"
    },
    {
      "time": "14400i",
      "midiNote": 40,
      "noteName": "E2",
      "velocity": 0.8503937007874016,
      "duration": "120i"
    },
    {
      "time": "14592i",
      "midiNote": 36,
      "noteName": "C2",
      "velocity": 0.8503937007874016,
      "duration": "68i"
    },
    {
      "time": "14688i",
      "midiNote": 36,
      "noteName": "C2",
      "velocity": 0.8503937007874016,
      "duration": "68i"
    },
    {
      "time": "14848i",
      "midiNote": 36,
      "noteName": "C2",
      "velocity": 0.8503937007874016,
      "duration": "22i"
    },
    {
      "time": "14880i",
      "midiNote": 33,
      "noteName": "A1",
      "velocity": 0.8503937007874016,
      "duration": "45i"
    },
    {
      "time": "14944i",
      "midiNote": 36,
      "noteName": "C2",
      "velocity": 0.8503937007874016,
      "duration": "42i"
    },
    {
      "time": "15360i",
      "midiNote": 41,
      "noteName": "F2",
      "velocity": 0.8503937007874016,
      "duration": "68i"
    },
    {
      "time": "15456i",
      "midiNote": 41,
      "noteName": "F2",
      "velocity": 0.8503937007874016,
      "duration": "68i"
    },
    {
      "time": "15616i",
      "midiNote": 41,
      "noteName": "F2",
      "velocity": 0.8503937007874016,
      "duration": "22i"
    },
    {
      "time": "15648i",
      "midiNote": 38,
      "noteName": "D2",
      "velocity": 0.8503937007874016,
      "duration": "45i"
    },
    {
      "time": "15712i",
      "midiNote": 41,
      "noteName": "F2",
      "velocity": 0.8503937007874016,
      "duration": "30i"
    },
    {
      "time": "15840i",
      "midiNote": 43,
      "noteName": "G2",
      "velocity": 0.8503937007874016,
      "duration": "94i"
    },
    {
      "time": "15936i",
      "midiNote": 45,
      "noteName": "A2",
      "velocity": 0.8503937007874016,
      "duration": "120i"
    },
    {
      "time": "16128i",
      "midiNote": 41,
      "noteName": "F2",
      "velocity": 0.8503937007874016,
      "duration": "68i"
    },
    {
      "time": "16224i",
      "midiNote": 41,
      "noteName": "F2",
      "velocity": 0.8503937007874016,
      "duration": "68i"
    },
    {
      "time": "16384i",
      "midiNote": 41,
      "noteName": "F2",
      "velocity": 0.8503937007874016,
      "duration": "22i"
    },
    {
      "time": "16416i",
      "midiNote": 38,
      "noteName": "D2",
      "velocity": 0.8503937007874016,
      "duration": "45i"
    },
    {
      "time": "16480i",
      "midiNote": 41,
      "noteName": "F2",
      "velocity": 0.8503937007874016,
      "duration": "42i"
    },
    {
      "time": "16896i",
      "midiNote": 36,
      "noteName": "C2",
      "velocity": 0.8503937007874016,
      "duration": "68i"
    },
    {
      "time": "16992i",
      "midiNote": 36,
      "noteName": "C2",
      "velocity": 0.8503937007874016,
      "duration": "68i"
    },
    {
      "time": "17152i",
      "midiNote": 36,
      "noteName": "C2",
      "velocity": 0.8503937007874016,
      "duration": "22i"
    },
    {
      "time": "17184i",
      "midiNote": 33,
      "noteName": "A1",
      "velocity": 0.8503937007874016,
      "duration": "45i"
    },
    {
      "time": "17248i",
      "midiNote": 36,
      "noteName": "C2",
      "velocity": 0.8503937007874016,
      "duration": "30i"
    },
    {
      "time": "17376i",
      "midiNote": 38,
      "noteName": "D2",
      "velocity": 0.8503937007874016,
      "duration": "94i"
    },
    {
      "time": "17472i",
      "midiNote": 40,
      "noteName": "E2",
      "velocity": 0.8503937007874016,
      "duration": "120i"
    },
    {
      "time": "17664i",
      "midiNote": 36,
      "noteName": "C2",
      "velocity": 0.8503937007874016,
      "duration": "62i"
    },
    {
      "time": "17728i",
      "midiNote": 36,
      "noteName": "C2",
      "velocity": 0.8503937007874016,
      "duration": "30i"
    },
    {
      "time": "17952i",
      "midiNote": 36,
      "noteName": "C2",
      "velocity": 0.8503937007874016,
      "duration": "62i"
    },
    {
      "time": "18016i",
      "midiNote": 36,
      "noteName": "C2",
      "velocity": 0.8503937007874016,
      "duration": "30i"
    }
  ],
  [
    {
      "time": "0i",
      "midiNote": 52,
      "noteName": "E3",
      "velocity": 0.8503937007874016,
      "duration": "45i"
    },
    {
      "time": "0i",
      "midiNote": 55,
      "noteName": "G3",
      "velocity": 0.8503937007874016,
      "duration": "45i"
    },
    {
      "time": "64i",
      "midiNote": 48,
      "noteName": "C3",
      "velocity": 0.8503937007874016,
      "duration": "21i"
    },
    {
      "time": "96i",
      "midiNote": 52,
      "noteName": "E3",
      "velocity": 0.8503937007874016,
      "duration": "68i"
    },
    {
      "time": "96i",
      "midiNote": 55,
      "noteName": "G3",
      "velocity": 0.8503937007874016,
      "duration": "68i"
    },
    {
      "time": "192i",
      "midiNote": 52,
      "noteName": "E3",
      "velocity": 0.8503937007874016,
      "duration": "45i"
    },
    {
      "time": "192i",
      "midiNote": 57,
      "noteName": "A3",
      "velocity": 0.8503937007874016,
      "duration": "45i"
    },
    {
      "time": "256i",
      "midiNote": 48,
      "noteName": "C3",
      "velocity": 0.8503937007874016,
      "duration": "21i"
    },
    {
      "time": "288i",
      "midiNote": 52,
      "noteName": "E3",
      "velocity": 0.8503937007874016,
      "duration": "68i"
    },
    {
      "time": "288i",
      "midiNote": 57,
      "noteName": "A3",
      "velocity": 0.8503937007874016,
      "duration": "68i"
    },
    {
      "time": "384i",
      "midiNote": 52,
      "noteName": "E3",
      "velocity": 0.8503937007874016,
      "duration": "45i"
    },
    {
      "time": "384i",
      "midiNote": 59,
      "noteName": "B3",
      "velocity": 0.8503937007874016,
      "duration": "45i"
    },
    {
      "time": "448i",
      "midiNote": 48,
      "noteName": "C3",
      "velocity": 0.8503937007874016,
      "duration": "21i"
    },
    {
      "time": "480i",
      "midiNote": 52,
      "noteName": "E3",
      "velocity": 0.8503937007874016,
      "duration": "45i"
    },
    {
      "time": "480i",
      "midiNote": 59,
      "noteName": "B3",
      "velocity": 0.8503937007874016,
      "duration": "45i"
    },
    {
      "time": "544i",
      "midiNote": 52,
      "noteName": "E3",
      "velocity": 0.8503937007874016,
      "duration": "68i"
    },
    {
      "time": "544i",
      "midiNote": 57,
      "noteName": "A3",
      "velocity": 0.8503937007874016,
      "duration": "68i"
    },
    {
      "time": "640i",
      "midiNote": 48,
      "noteName": "C3",
      "velocity": 0.8503937007874016,
      "duration": "21i"
    },
    {
      "time": "640i",
      "midiNote": 56,
      "noteName": "G#3",
      "velocity": 0.8503937007874016,
      "duration": "21i"
    },
    {
      "time": "672i",
      "midiNote": 52,
      "noteName": "E3",
      "velocity": 0.8503937007874016,
      "duration": "68i"
    },
    {
      "time": "672i",
      "midiNote": 57,
      "noteName": "A3",
      "velocity": 0.8503937007874016,
      "duration": "68i"
    },
    {
      "time": "768i",
      "midiNote": 52,
      "noteName": "E3",
      "velocity": 0.8503937007874016,
      "duration": "45i"
    },
    {
      "time": "768i",
      "midiNote": 55,
      "noteName": "G3",
      "velocity": 0.8503937007874016,
      "duration": "45i"
    },
    {
      "time": "832i",
      "midiNote": 48,
      "noteName": "C3",
      "velocity": 0.8503937007874016,
      "duration": "21i"
    },
    {
      "time": "864i",
      "midiNote": 52,
      "noteName": "E3",
      "velocity": 0.8503937007874016,
      "duration": "68i"
    },
    {
      "time": "864i",
      "midiNote": 55,
      "noteName": "G3",
      "velocity": 0.8503937007874016,
      "duration": "68i"
    },
    {
      "time": "960i",
      "midiNote": 52,
      "noteName": "E3",
      "velocity": 0.8503937007874016,
      "duration": "45i"
    },
    {
      "time": "960i",
      "midiNote": 57,
      "noteName": "A3",
      "velocity": 0.8503937007874016,
      "duration": "45i"
    },
    {
      "time": "1024i",
      "midiNote": 48,
      "noteName": "C3",
      "velocity": 0.8503937007874016,
      "duration": "21i"
    },
    {
      "time": "1056i",
      "midiNote": 52,
      "noteName": "E3",
      "velocity": 0.8503937007874016,
      "duration": "45i"
    },
    {
      "time": "1056i",
      "midiNote": 57,
      "noteName": "A3",
      "velocity": 0.8503937007874016,
      "duration": "45i"
    },
    {
      "time": "1120i",
      "midiNote": 52,
      "noteName": "E3",
      "velocity": 0.8503937007874016,
      "duration": "32i"
    },
    {
      "time": "1120i",
      "midiNote": 59,
      "noteName": "B3",
      "velocity": 0.8503937007874016,
      "duration": "32i"
    },
    {
      "time": "1536i",
      "midiNote": 57,
      "noteName": "A3",
      "velocity": 0.8503937007874016,
      "duration": "45i"
    },
    {
      "time": "1536i",
      "midiNote": 60,
      "noteName": "C4",
      "velocity": 0.8503937007874016,
      "duration": "45i"
    },
    {
      "time": "1600i",
      "midiNote": 53,
      "noteName": "F3",
      "velocity": 0.8503937007874016,
      "duration": "21i"
    },
    {
      "time": "1632i",
      "midiNote": 57,
      "noteName": "A3",
      "velocity": 0.8503937007874016,
      "duration": "68i"
    },
    {
      "time": "1632i",
      "midiNote": 60,
      "noteName": "C4",
      "velocity": 0.8503937007874016,
      "duration": "68i"
    },
    {
      "time": "1728i",
      "midiNote": 57,
      "noteName": "A3",
      "velocity": 0.8503937007874016,
      "duration": "45i"
    },
    {
      "time": "1728i",
      "midiNote": 62,
      "noteName": "D4",
      "velocity": 0.8503937007874016,
      "duration": "45i"
    },
    {
      "time": "1792i",
      "midiNote": 53,
      "noteName": "F3",
      "velocity": 0.8503937007874016,
      "duration": "21i"
    },
    {
      "time": "1824i",
      "midiNote": 57,
      "noteName": "A3",
      "velocity": 0.8503937007874016,
      "duration": "68i"
    },
    {
      "time": "1824i",
      "midiNote": 62,
      "noteName": "D4",
      "velocity": 0.8503937007874016,
      "duration": "68i"
    },
    {
      "time": "1920i",
      "midiNote": 57,
      "noteName": "A3",
      "velocity": 0.8503937007874016,
      "duration": "45i"
    },
    {
      "time": "1920i",
      "midiNote": 64,
      "noteName": "E4",
      "velocity": 0.8503937007874016,
      "duration": "45i"
    },
    {
      "time": "1984i",
      "midiNote": 53,
      "noteName": "F3",
      "velocity": 0.8503937007874016,
      "duration": "21i"
    },
    {
      "time": "2016i",
      "midiNote": 57,
      "noteName": "A3",
      "velocity": 0.8503937007874016,
      "duration": "45i"
    },
    {
      "time": "2016i",
      "midiNote": 64,
      "noteName": "E4",
      "velocity": 0.8503937007874016,
      "duration": "45i"
    },
    {
      "time": "2080i",
      "midiNote": 57,
      "noteName": "A3",
      "velocity": 0.8503937007874016,
      "duration": "68i"
    },
    {
      "time": "2080i",
      "midiNote": 62,
      "noteName": "D4",
      "velocity": 0.8503937007874016,
      "duration": "68i"
    },
    {
      "time": "2176i",
      "midiNote": 56,
      "noteName": "G#3",
      "velocity": 0.8503937007874016,
      "duration": "21i"
    },
    {
      "time": "2176i",
      "midiNote": 61,
      "noteName": "C#4",
      "velocity": 0.8503937007874016,
      "duration": "21i"
    },
    {
      "time": "2208i",
      "midiNote": 57,
      "noteName": "A3",
      "velocity": 0.8503937007874016,
      "duration": "68i"
    },
    {
      "time": "2208i",
      "midiNote": 62,
      "noteName": "D4",
      "velocity": 0.8503937007874016,
      "duration": "68i"
    },
    {
      "time": "2304i",
      "midiNote": 57,
      "noteName": "A3",
      "velocity": 0.8503937007874016,
      "duration": "45i"
    },
    {
      "time": "2304i",
      "midiNote": 60,
      "noteName": "C4",
      "velocity": 0.8503937007874016,
      "duration": "45i"
    },
    {
      "time": "2368i",
      "midiNote": 53,
      "noteName": "F3",
      "velocity": 0.8503937007874016,
      "duration": "21i"
    },
    {
      "time": "2400i",
      "midiNote": 57,
      "noteName": "A3",
      "velocity": 0.8503937007874016,
      "duration": "68i"
    },
    {
      "time": "2400i",
      "midiNote": 60,
      "noteName": "C4",
      "velocity": 0.8503937007874016,
      "duration": "68i"
    },
    {
      "time": "2496i",
      "midiNote": 57,
      "noteName": "A3",
      "velocity": 0.8503937007874016,
      "duration": "45i"
    },
    {
      "time": "2496i",
      "midiNote": 62,
      "noteName": "D4",
      "velocity": 0.8503937007874016,
      "duration": "45i"
    },
    {
      "time": "2560i",
      "midiNote": 53,
      "noteName": "F3",
      "velocity": 0.8503937007874016,
      "duration": "21i"
    },
    {
      "time": "2592i",
      "midiNote": 57,
      "noteName": "A3",
      "velocity": 0.8503937007874016,
      "duration": "45i"
    },
    {
      "time": "2592i",
      "midiNote": 62,
      "noteName": "D4",
      "velocity": 0.8503937007874016,
      "duration": "45i"
    },
    {
      "time": "2656i",
      "midiNote": 57,
      "noteName": "A3",
      "velocity": 0.8503937007874016,
      "duration": "32i"
    },
    {
      "time": "2656i",
      "midiNote": 64,
      "noteName": "E4",
      "velocity": 0.8503937007874016,
      "duration": "32i"
    },
    {
      "time": "3072i",
      "midiNote": 52,
      "noteName": "E3",
      "velocity": 0.8503937007874016,
      "duration": "45i"
    },
    {
      "time": "3072i",
      "midiNote": 55,
      "noteName": "G3",
      "velocity": 0.8503937007874016,
      "duration": "45i"
    },
    {
      "time": "3136i",
      "midiNote": 48,
      "noteName": "C3",
      "velocity": 0.8503937007874016,
      "duration": "21i"
    },
    {
      "time": "3168i",
      "midiNote": 52,
      "noteName": "E3",
      "velocity": 0.8503937007874016,
      "duration": "68i"
    },
    {
      "time": "3168i",
      "midiNote": 55,
      "noteName": "G3",
      "velocity": 0.8503937007874016,
      "duration": "68i"
    },
    {
      "time": "3264i",
      "midiNote": 52,
      "noteName": "E3",
      "velocity": 0.8503937007874016,
      "duration": "45i"
    },
    {
      "time": "3264i",
      "midiNote": 57,
      "noteName": "A3",
      "velocity": 0.8503937007874016,
      "duration": "45i"
    },
    {
      "time": "3328i",
      "midiNote": 48,
      "noteName": "C3",
      "velocity": 0.8503937007874016,
      "duration": "21i"
    },
    {
      "time": "3360i",
      "midiNote": 52,
      "noteName": "E3",
      "velocity": 0.8503937007874016,
      "duration": "68i"
    },
    {
      "time": "3360i",
      "midiNote": 57,
      "noteName": "A3",
      "velocity": 0.8503937007874016,
      "duration": "68i"
    },
    {
      "time": "3456i",
      "midiNote": 52,
      "noteName": "E3",
      "velocity": 0.8503937007874016,
      "duration": "45i"
    },
    {
      "time": "3456i",
      "midiNote": 59,
      "noteName": "B3",
      "velocity": 0.8503937007874016,
      "duration": "45i"
    },
    {
      "time": "3520i",
      "midiNote": 48,
      "noteName": "C3",
      "velocity": 0.8503937007874016,
      "duration": "21i"
    },
    {
      "time": "3552i",
      "midiNote": 52,
      "noteName": "E3",
      "velocity": 0.8503937007874016,
      "duration": "45i"
    },
    {
      "time": "3552i",
      "midiNote": 59,
      "noteName": "B3",
      "velocity": 0.8503937007874016,
      "duration": "45i"
    },
    {
      "time": "3616i",
      "midiNote": 52,
      "noteName": "E3",
      "velocity": 0.8503937007874016,
      "duration": "68i"
    },
    {
      "time": "3616i",
      "midiNote": 57,
      "noteName": "A3",
      "velocity": 0.8503937007874016,
      "duration": "68i"
    },
    {
      "time": "3712i",
      "midiNote": 48,
      "noteName": "C3",
      "velocity": 0.8503937007874016,
      "duration": "21i"
    },
    {
      "time": "3712i",
      "midiNote": 56,
      "noteName": "G#3",
      "velocity": 0.8503937007874016,
      "duration": "21i"
    },
    {
      "time": "3744i",
      "midiNote": 52,
      "noteName": "E3",
      "velocity": 0.8503937007874016,
      "duration": "68i"
    },
    {
      "time": "3744i",
      "midiNote": 57,
      "noteName": "A3",
      "velocity": 0.8503937007874016,
      "duration": "68i"
    },
    {
      "time": "3840i",
      "midiNote": 52,
      "noteName": "E3",
      "velocity": 0.8503937007874016,
      "duration": "45i"
    },
    {
      "time": "3840i",
      "midiNote": 55,
      "noteName": "G3",
      "velocity": 0.8503937007874016,
      "duration": "45i"
    },
    {
      "time": "3840i",
      "midiNote": 60,
      "noteName": "C4",
      "velocity": 0.8503937007874016,
      "duration": "45i"
    },
    {
      "time": "3904i",
      "midiNote": 52,
      "noteName": "E3",
      "velocity": 0.8503937007874016,
      "duration": "30i"
    },
    {
      "time": "3904i",
      "midiNote": 55,
      "noteName": "G3",
      "velocity": 0.8503937007874016,
      "duration": "30i"
    },
    {
      "time": "3904i",
      "midiNote": 60,
      "noteName": "C4",
      "velocity": 0.8503937007874016,
      "duration": "30i"
    },
    {
      "time": "4128i",
      "midiNote": 52,
      "noteName": "E3",
      "velocity": 0.8503937007874016,
      "duration": "45i"
    },
    {
      "time": "4128i",
      "midiNote": 55,
      "noteName": "G3",
      "velocity": 0.8503937007874016,
      "duration": "45i"
    },
    {
      "time": "4128i",
      "midiNote": 60,
      "noteName": "C4",
      "velocity": 0.8503937007874016,
      "duration": "45i"
    },
    {
      "time": "4192i",
      "midiNote": 52,
      "noteName": "E3",
      "velocity": 0.8503937007874016,
      "duration": "30i"
    },
    {
      "time": "4192i",
      "midiNote": 55,
      "noteName": "G3",
      "velocity": 0.8503937007874016,
      "duration": "30i"
    },
    {
      "time": "4192i",
      "midiNote": 60,
      "noteName": "C4",
      "velocity": 0.8503937007874016,
      "duration": "30i"
    },
    {
      "time": "4608i",
      "midiNote": 52,
      "noteName": "E3",
      "velocity": 0.8503937007874016,
      "duration": "45i"
    },
    {
      "time": "4608i",
      "midiNote": 55,
      "noteName": "G3",
      "velocity": 0.8503937007874016,
      "duration": "45i"
    },
    {
      "time": "4672i",
      "midiNote": 48,
      "noteName": "C3",
      "velocity": 0.8503937007874016,
      "duration": "21i"
    },
    {
      "time": "4704i",
      "midiNote": 52,
      "noteName": "E3",
      "velocity": 0.8503937007874016,
      "duration": "68i"
    },
    {
      "time": "4704i",
      "midiNote": 55,
      "noteName": "G3",
      "velocity": 0.8503937007874016,
      "duration": "68i"
    },
    {
      "time": "4800i",
      "midiNote": 52,
      "noteName": "E3",
      "velocity": 0.8503937007874016,
      "duration": "45i"
    },
    {
      "time": "4800i",
      "midiNote": 57,
      "noteName": "A3",
      "velocity": 0.8503937007874016,
      "duration": "45i"
    },
    {
      "time": "4864i",
      "midiNote": 48,
      "noteName": "C3",
      "velocity": 0.8503937007874016,
      "duration": "21i"
    },
    {
      "time": "4896i",
      "midiNote": 52,
      "noteName": "E3",
      "velocity": 0.8503937007874016,
      "duration": "68i"
    },
    {
      "time": "4896i",
      "midiNote": 57,
      "noteName": "A3",
      "velocity": 0.8503937007874016,
      "duration": "68i"
    },
    {
      "time": "4992i",
      "midiNote": 52,
      "noteName": "E3",
      "velocity": 0.8503937007874016,
      "duration": "45i"
    },
    {
      "time": "4992i",
      "midiNote": 59,
      "noteName": "B3",
      "velocity": 0.8503937007874016,
      "duration": "45i"
    },
    {
      "time": "5056i",
      "midiNote": 48,
      "noteName": "C3",
      "velocity": 0.8503937007874016,
      "duration": "21i"
    },
    {
      "time": "5088i",
      "midiNote": 52,
      "noteName": "E3",
      "velocity": 0.8503937007874016,
      "duration": "45i"
    },
    {
      "time": "5088i",
      "midiNote": 59,
      "noteName": "B3",
      "velocity": 0.8503937007874016,
      "duration": "45i"
    },
    {
      "time": "5152i",
      "midiNote": 52,
      "noteName": "E3",
      "velocity": 0.8503937007874016,
      "duration": "68i"
    },
    {
      "time": "5152i",
      "midiNote": 57,
      "noteName": "A3",
      "velocity": 0.8503937007874016,
      "duration": "68i"
    },
    {
      "time": "5248i",
      "midiNote": 48,
      "noteName": "C3",
      "velocity": 0.8503937007874016,
      "duration": "21i"
    },
    {
      "time": "5248i",
      "midiNote": 56,
      "noteName": "G#3",
      "velocity": 0.8503937007874016,
      "duration": "21i"
    },
    {
      "time": "5280i",
      "midiNote": 52,
      "noteName": "E3",
      "velocity": 0.8503937007874016,
      "duration": "68i"
    },
    {
      "time": "5280i",
      "midiNote": 57,
      "noteName": "A3",
      "velocity": 0.8503937007874016,
      "duration": "68i"
    },
    {
      "time": "5376i",
      "midiNote": 52,
      "noteName": "E3",
      "velocity": 0.8503937007874016,
      "duration": "45i"
    },
    {
      "time": "5376i",
      "midiNote": 55,
      "noteName": "G3",
      "velocity": 0.8503937007874016,
      "duration": "45i"
    },
    {
      "time": "5440i",
      "midiNote": 48,
      "noteName": "C3",
      "velocity": 0.8503937007874016,
      "duration": "21i"
    },
    {
      "time": "5472i",
      "midiNote": 52,
      "noteName": "E3",
      "velocity": 0.8503937007874016,
      "duration": "68i"
    },
    {
      "time": "5472i",
      "midiNote": 55,
      "noteName": "G3",
      "velocity": 0.8503937007874016,
      "duration": "68i"
    },
    {
      "time": "5568i",
      "midiNote": 52,
      "noteName": "E3",
      "velocity": 0.8503937007874016,
      "duration": "45i"
    },
    {
      "time": "5568i",
      "midiNote": 57,
      "noteName": "A3",
      "velocity": 0.8503937007874016,
      "duration": "45i"
    },
    {
      "time": "5632i",
      "midiNote": 48,
      "noteName": "C3",
      "velocity": 0.8503937007874016,
      "duration": "21i"
    },
    {
      "time": "5664i",
      "midiNote": 52,
      "noteName": "E3",
      "velocity": 0.8503937007874016,
      "duration": "45i"
    },
    {
      "time": "5664i",
      "midiNote": 57,
      "noteName": "A3",
      "velocity": 0.8503937007874016,
      "duration": "45i"
    },
    {
      "time": "5728i",
      "midiNote": 52,
      "noteName": "E3",
      "velocity": 0.8503937007874016,
      "duration": "32i"
    },
    {
      "time": "5728i",
      "midiNote": 59,
      "noteName": "B3",
      "velocity": 0.8503937007874016,
      "duration": "32i"
    },
    {
      "time": "6144i",
      "midiNote": 57,
      "noteName": "A3",
      "velocity": 0.8503937007874016,
      "duration": "45i"
    },
    {
      "time": "6144i",
      "midiNote": 60,
      "noteName": "C4",
      "velocity": 0.8503937007874016,
      "duration": "45i"
    },
    {
      "time": "6208i",
      "midiNote": 53,
      "noteName": "F3",
      "velocity": 0.8503937007874016,
      "duration": "21i"
    },
    {
      "time": "6240i",
      "midiNote": 57,
      "noteName": "A3",
      "velocity": 0.8503937007874016,
      "duration": "68i"
    },
    {
      "time": "6240i",
      "midiNote": 60,
      "noteName": "C4",
      "velocity": 0.8503937007874016,
      "duration": "68i"
    },
    {
      "time": "6336i",
      "midiNote": 57,
      "noteName": "A3",
      "velocity": 0.8503937007874016,
      "duration": "45i"
    },
    {
      "time": "6336i",
      "midiNote": 62,
      "noteName": "D4",
      "velocity": 0.8503937007874016,
      "duration": "45i"
    },
    {
      "time": "6400i",
      "midiNote": 53,
      "noteName": "F3",
      "velocity": 0.8503937007874016,
      "duration": "21i"
    },
    {
      "time": "6432i",
      "midiNote": 57,
      "noteName": "A3",
      "velocity": 0.8503937007874016,
      "duration": "68i"
    },
    {
      "time": "6432i",
      "midiNote": 62,
      "noteName": "D4",
      "velocity": 0.8503937007874016,
      "duration": "68i"
    },
    {
      "time": "6528i",
      "midiNote": 57,
      "noteName": "A3",
      "velocity": 0.8503937007874016,
      "duration": "45i"
    },
    {
      "time": "6528i",
      "midiNote": 64,
      "noteName": "E4",
      "velocity": 0.8503937007874016,
      "duration": "45i"
    },
    {
      "time": "6592i",
      "midiNote": 53,
      "noteName": "F3",
      "velocity": 0.8503937007874016,
      "duration": "21i"
    },
    {
      "time": "6624i",
      "midiNote": 57,
      "noteName": "A3",
      "velocity": 0.8503937007874016,
      "duration": "45i"
    },
    {
      "time": "6624i",
      "midiNote": 64,
      "noteName": "E4",
      "velocity": 0.8503937007874016,
      "duration": "45i"
    },
    {
      "time": "6688i",
      "midiNote": 57,
      "noteName": "A3",
      "velocity": 0.8503937007874016,
      "duration": "68i"
    },
    {
      "time": "6688i",
      "midiNote": 62,
      "noteName": "D4",
      "velocity": 0.8503937007874016,
      "duration": "68i"
    },
    {
      "time": "6784i",
      "midiNote": 56,
      "noteName": "G#3",
      "velocity": 0.8503937007874016,
      "duration": "21i"
    },
    {
      "time": "6784i",
      "midiNote": 61,
      "noteName": "C#4",
      "velocity": 0.8503937007874016,
      "duration": "21i"
    },
    {
      "time": "6816i",
      "midiNote": 57,
      "noteName": "A3",
      "velocity": 0.8503937007874016,
      "duration": "68i"
    },
    {
      "time": "6816i",
      "midiNote": 62,
      "noteName": "D4",
      "velocity": 0.8503937007874016,
      "duration": "68i"
    },
    {
      "time": "6912i",
      "midiNote": 57,
      "noteName": "A3",
      "velocity": 0.8503937007874016,
      "duration": "45i"
    },
    {
      "time": "6912i",
      "midiNote": 60,
      "noteName": "C4",
      "velocity": 0.8503937007874016,
      "duration": "45i"
    },
    {
      "time": "6976i",
      "midiNote": 53,
      "noteName": "F3",
      "velocity": 0.8503937007874016,
      "duration": "21i"
    },
    {
      "time": "7008i",
      "midiNote": 57,
      "noteName": "A3",
      "velocity": 0.8503937007874016,
      "duration": "68i"
    },
    {
      "time": "7008i",
      "midiNote": 60,
      "noteName": "C4",
      "velocity": 0.8503937007874016,
      "duration": "68i"
    },
    {
      "time": "7104i",
      "midiNote": 57,
      "noteName": "A3",
      "velocity": 0.8503937007874016,
      "duration": "45i"
    },
    {
      "time": "7104i",
      "midiNote": 62,
      "noteName": "D4",
      "velocity": 0.8503937007874016,
      "duration": "45i"
    },
    {
      "time": "7168i",
      "midiNote": 53,
      "noteName": "F3",
      "velocity": 0.8503937007874016,
      "duration": "21i"
    },
    {
      "time": "7200i",
      "midiNote": 57,
      "noteName": "A3",
      "velocity": 0.8503937007874016,
      "duration": "45i"
    },
    {
      "time": "7200i",
      "midiNote": 62,
      "noteName": "D4",
      "velocity": 0.8503937007874016,
      "duration": "45i"
    },
    {
      "time": "7264i",
      "midiNote": 57,
      "noteName": "A3",
      "velocity": 0.8503937007874016,
      "duration": "32i"
    },
    {
      "time": "7264i",
      "midiNote": 64,
      "noteName": "E4",
      "velocity": 0.8503937007874016,
      "duration": "32i"
    },
    {
      "time": "7680i",
      "midiNote": 52,
      "noteName": "E3",
      "velocity": 0.8503937007874016,
      "duration": "45i"
    },
    {
      "time": "7680i",
      "midiNote": 55,
      "noteName": "G3",
      "velocity": 0.8503937007874016,
      "duration": "45i"
    },
    {
      "time": "7744i",
      "midiNote": 48,
      "noteName": "C3",
      "velocity": 0.8503937007874016,
      "duration": "21i"
    },
    {
      "time": "7776i",
      "midiNote": 52,
      "noteName": "E3",
      "velocity": 0.8503937007874016,
      "duration": "68i"
    },
    {
      "time": "7776i",
      "midiNote": 55,
      "noteName": "G3",
      "velocity": 0.8503937007874016,
      "duration": "68i"
    },
    {
      "time": "7872i",
      "midiNote": 52,
      "noteName": "E3",
      "velocity": 0.8503937007874016,
      "duration": "45i"
    },
    {
      "time": "7872i",
      "midiNote": 57,
      "noteName": "A3",
      "velocity": 0.8503937007874016,
      "duration": "45i"
    },
    {
      "time": "7936i",
      "midiNote": 48,
      "noteName": "C3",
      "velocity": 0.8503937007874016,
      "duration": "21i"
    },
    {
      "time": "7968i",
      "midiNote": 52,
      "noteName": "E3",
      "velocity": 0.8503937007874016,
      "duration": "68i"
    },
    {
      "time": "7968i",
      "midiNote": 57,
      "noteName": "A3",
      "velocity": 0.8503937007874016,
      "duration": "68i"
    },
    {
      "time": "8064i",
      "midiNote": 52,
      "noteName": "E3",
      "velocity": 0.8503937007874016,
      "duration": "45i"
    },
    {
      "time": "8064i",
      "midiNote": 59,
      "noteName": "B3",
      "velocity": 0.8503937007874016,
      "duration": "45i"
    },
    {
      "time": "8128i",
      "midiNote": 48,
      "noteName": "C3",
      "velocity": 0.8503937007874016,
      "duration": "21i"
    },
    {
      "time": "8160i",
      "midiNote": 52,
      "noteName": "E3",
      "velocity": 0.8503937007874016,
      "duration": "45i"
    },
    {
      "time": "8160i",
      "midiNote": 59,
      "noteName": "B3",
      "velocity": 0.8503937007874016,
      "duration": "45i"
    },
    {
      "time": "8224i",
      "midiNote": 52,
      "noteName": "E3",
      "velocity": 0.8503937007874016,
      "duration": "68i"
    },
    {
      "time": "8224i",
      "midiNote": 57,
      "noteName": "A3",
      "velocity": 0.8503937007874016,
      "duration": "68i"
    },
    {
      "time": "8320i",
      "midiNote": 48,
      "noteName": "C3",
      "velocity": 0.8503937007874016,
      "duration": "21i"
    },
    {
      "time": "8320i",
      "midiNote": 56,
      "noteName": "G#3",
      "velocity": 0.8503937007874016,
      "duration": "21i"
    },
    {
      "time": "8352i",
      "midiNote": 52,
      "noteName": "E3",
      "velocity": 0.8503937007874016,
      "duration": "68i"
    },
    {
      "time": "8352i",
      "midiNote": 57,
      "noteName": "A3",
      "velocity": 0.8503937007874016,
      "duration": "68i"
    },
    {
      "time": "8448i",
      "midiNote": 52,
      "noteName": "E3",
      "velocity": 0.8503937007874016,
      "duration": "45i"
    },
    {
      "time": "8448i",
      "midiNote": 55,
      "noteName": "G3",
      "velocity": 0.8503937007874016,
      "duration": "45i"
    },
    {
      "time": "8448i",
      "midiNote": 60,
      "noteName": "C4",
      "velocity": 0.8503937007874016,
      "duration": "45i"
    },
    {
      "time": "8512i",
      "midiNote": 52,
      "noteName": "E3",
      "velocity": 0.8503937007874016,
      "duration": "30i"
    },
    {
      "time": "8512i",
      "midiNote": 55,
      "noteName": "G3",
      "velocity": 0.8503937007874016,
      "duration": "30i"
    },
    {
      "time": "8512i",
      "midiNote": 60,
      "noteName": "C4",
      "velocity": 0.8503937007874016,
      "duration": "30i"
    },
    {
      "time": "8736i",
      "midiNote": 52,
      "noteName": "E3",
      "velocity": 0.8503937007874016,
      "duration": "45i"
    },
    {
      "time": "8736i",
      "midiNote": 55,
      "noteName": "G3",
      "velocity": 0.8503937007874016,
      "duration": "45i"
    },
    {
      "time": "8736i",
      "midiNote": 60,
      "noteName": "C4",
      "velocity": 0.8503937007874016,
      "duration": "45i"
    },
    {
      "time": "8800i",
      "midiNote": 52,
      "noteName": "E3",
      "velocity": 0.8503937007874016,
      "duration": "30i"
    },
    {
      "time": "8800i",
      "midiNote": 55,
      "noteName": "G3",
      "velocity": 0.8503937007874016,
      "duration": "30i"
    },
    {
      "time": "8800i",
      "midiNote": 60,
      "noteName": "C4",
      "velocity": 0.8503937007874016,
      "duration": "30i"
    },
    {
      "time": "9216i",
      "midiNote": 52,
      "noteName": "E3",
      "velocity": 0.8503937007874016,
      "duration": "45i"
    },
    {
      "time": "9216i",
      "midiNote": 55,
      "noteName": "G3",
      "velocity": 0.8503937007874016,
      "duration": "45i"
    },
    {
      "time": "9280i",
      "midiNote": 48,
      "noteName": "C3",
      "velocity": 0.8503937007874016,
      "duration": "21i"
    },
    {
      "time": "9312i",
      "midiNote": 52,
      "noteName": "E3",
      "velocity": 0.8503937007874016,
      "duration": "68i"
    },
    {
      "time": "9312i",
      "midiNote": 55,
      "noteName": "G3",
      "velocity": 0.8503937007874016,
      "duration": "68i"
    },
    {
      "time": "9408i",
      "midiNote": 52,
      "noteName": "E3",
      "velocity": 0.8503937007874016,
      "duration": "45i"
    },
    {
      "time": "9408i",
      "midiNote": 57,
      "noteName": "A3",
      "velocity": 0.8503937007874016,
      "duration": "45i"
    },
    {
      "time": "9472i",
      "midiNote": 48,
      "noteName": "C3",
      "velocity": 0.8503937007874016,
      "duration": "21i"
    },
    {
      "time": "9504i",
      "midiNote": 52,
      "noteName": "E3",
      "velocity": 0.8503937007874016,
      "duration": "68i"
    },
    {
      "time": "9504i",
      "midiNote": 57,
      "noteName": "A3",
      "velocity": 0.8503937007874016,
      "duration": "68i"
    },
    {
      "time": "9600i",
      "midiNote": 52,
      "noteName": "E3",
      "velocity": 0.8503937007874016,
      "duration": "45i"
    },
    {
      "time": "9600i",
      "midiNote": 59,
      "noteName": "B3",
      "velocity": 0.8503937007874016,
      "duration": "45i"
    },
    {
      "time": "9664i",
      "midiNote": 48,
      "noteName": "C3",
      "velocity": 0.8503937007874016,
      "duration": "21i"
    },
    {
      "time": "9696i",
      "midiNote": 52,
      "noteName": "E3",
      "velocity": 0.8503937007874016,
      "duration": "45i"
    },
    {
      "time": "9696i",
      "midiNote": 59,
      "noteName": "B3",
      "velocity": 0.8503937007874016,
      "duration": "45i"
    },
    {
      "time": "9760i",
      "midiNote": 52,
      "noteName": "E3",
      "velocity": 0.8503937007874016,
      "duration": "68i"
    },
    {
      "time": "9760i",
      "midiNote": 57,
      "noteName": "A3",
      "velocity": 0.8503937007874016,
      "duration": "68i"
    },
    {
      "time": "9856i",
      "midiNote": 48,
      "noteName": "C3",
      "velocity": 0.8503937007874016,
      "duration": "21i"
    },
    {
      "time": "9856i",
      "midiNote": 56,
      "noteName": "G#3",
      "velocity": 0.8503937007874016,
      "duration": "21i"
    },
    {
      "time": "9888i",
      "midiNote": 52,
      "noteName": "E3",
      "velocity": 0.8503937007874016,
      "duration": "68i"
    },
    {
      "time": "9888i",
      "midiNote": 57,
      "noteName": "A3",
      "velocity": 0.8503937007874016,
      "duration": "68i"
    },
    {
      "time": "9984i",
      "midiNote": 52,
      "noteName": "E3",
      "velocity": 0.8503937007874016,
      "duration": "45i"
    },
    {
      "time": "9984i",
      "midiNote": 55,
      "noteName": "G3",
      "velocity": 0.8503937007874016,
      "duration": "45i"
    },
    {
      "time": "10048i",
      "midiNote": 48,
      "noteName": "C3",
      "velocity": 0.8503937007874016,
      "duration": "21i"
    },
    {
      "time": "10080i",
      "midiNote": 52,
      "noteName": "E3",
      "velocity": 0.8503937007874016,
      "duration": "68i"
    },
    {
      "time": "10080i",
      "midiNote": 55,
      "noteName": "G3",
      "velocity": 0.8503937007874016,
      "duration": "68i"
    },
    {
      "time": "10176i",
      "midiNote": 52,
      "noteName": "E3",
      "velocity": 0.8503937007874016,
      "duration": "45i"
    },
    {
      "time": "10176i",
      "midiNote": 57,
      "noteName": "A3",
      "velocity": 0.8503937007874016,
      "duration": "45i"
    },
    {
      "time": "10240i",
      "midiNote": 48,
      "noteName": "C3",
      "velocity": 0.8503937007874016,
      "duration": "21i"
    },
    {
      "time": "10272i",
      "midiNote": 52,
      "noteName": "E3",
      "velocity": 0.8503937007874016,
      "duration": "45i"
    },
    {
      "time": "10272i",
      "midiNote": 57,
      "noteName": "A3",
      "velocity": 0.8503937007874016,
      "duration": "45i"
    },
    {
      "time": "10336i",
      "midiNote": 52,
      "noteName": "E3",
      "velocity": 0.8503937007874016,
      "duration": "32i"
    },
    {
      "time": "10336i",
      "midiNote": 59,
      "noteName": "B3",
      "velocity": 0.8503937007874016,
      "duration": "32i"
    },
    {
      "time": "10752i",
      "midiNote": 57,
      "noteName": "A3",
      "velocity": 0.8503937007874016,
      "duration": "45i"
    },
    {
      "time": "10752i",
      "midiNote": 60,
      "noteName": "C4",
      "velocity": 0.8503937007874016,
      "duration": "45i"
    },
    {
      "time": "10816i",
      "midiNote": 53,
      "noteName": "F3",
      "velocity": 0.8503937007874016,
      "duration": "21i"
    },
    {
      "time": "10848i",
      "midiNote": 57,
      "noteName": "A3",
      "velocity": 0.8503937007874016,
      "duration": "68i"
    },
    {
      "time": "10848i",
      "midiNote": 60,
      "noteName": "C4",
      "velocity": 0.8503937007874016,
      "duration": "68i"
    },
    {
      "time": "10944i",
      "midiNote": 57,
      "noteName": "A3",
      "velocity": 0.8503937007874016,
      "duration": "45i"
    },
    {
      "time": "10944i",
      "midiNote": 62,
      "noteName": "D4",
      "velocity": 0.8503937007874016,
      "duration": "45i"
    },
    {
      "time": "11008i",
      "midiNote": 53,
      "noteName": "F3",
      "velocity": 0.8503937007874016,
      "duration": "21i"
    },
    {
      "time": "11040i",
      "midiNote": 57,
      "noteName": "A3",
      "velocity": 0.8503937007874016,
      "duration": "68i"
    },
    {
      "time": "11040i",
      "midiNote": 62,
      "noteName": "D4",
      "velocity": 0.8503937007874016,
      "duration": "68i"
    },
    {
      "time": "11136i",
      "midiNote": 57,
      "noteName": "A3",
      "velocity": 0.8503937007874016,
      "duration": "45i"
    },
    {
      "time": "11136i",
      "midiNote": 64,
      "noteName": "E4",
      "velocity": 0.8503937007874016,
      "duration": "45i"
    },
    {
      "time": "11200i",
      "midiNote": 53,
      "noteName": "F3",
      "velocity": 0.8503937007874016,
      "duration": "21i"
    },
    {
      "time": "11232i",
      "midiNote": 57,
      "noteName": "A3",
      "velocity": 0.8503937007874016,
      "duration": "45i"
    },
    {
      "time": "11232i",
      "midiNote": 64,
      "noteName": "E4",
      "velocity": 0.8503937007874016,
      "duration": "45i"
    },
    {
      "time": "11296i",
      "midiNote": 57,
      "noteName": "A3",
      "velocity": 0.8503937007874016,
      "duration": "68i"
    },
    {
      "time": "11296i",
      "midiNote": 62,
      "noteName": "D4",
      "velocity": 0.8503937007874016,
      "duration": "68i"
    },
    {
      "time": "11392i",
      "midiNote": 56,
      "noteName": "G#3",
      "velocity": 0.8503937007874016,
      "duration": "21i"
    },
    {
      "time": "11392i",
      "midiNote": 61,
      "noteName": "C#4",
      "velocity": 0.8503937007874016,
      "duration": "21i"
    },
    {
      "time": "11424i",
      "midiNote": 57,
      "noteName": "A3",
      "velocity": 0.8503937007874016,
      "duration": "68i"
    },
    {
      "time": "11424i",
      "midiNote": 62,
      "noteName": "D4",
      "velocity": 0.8503937007874016,
      "duration": "68i"
    },
    {
      "time": "11520i",
      "midiNote": 57,
      "noteName": "A3",
      "velocity": 0.8503937007874016,
      "duration": "45i"
    },
    {
      "time": "11520i",
      "midiNote": 60,
      "noteName": "C4",
      "velocity": 0.8503937007874016,
      "duration": "45i"
    },
    {
      "time": "11584i",
      "midiNote": 53,
      "noteName": "F3",
      "velocity": 0.8503937007874016,
      "duration": "21i"
    },
    {
      "time": "11616i",
      "midiNote": 57,
      "noteName": "A3",
      "velocity": 0.8503937007874016,
      "duration": "68i"
    },
    {
      "time": "11616i",
      "midiNote": 60,
      "noteName": "C4",
      "velocity": 0.8503937007874016,
      "duration": "68i"
    },
    {
      "time": "11712i",
      "midiNote": 57,
      "noteName": "A3",
      "velocity": 0.8503937007874016,
      "duration": "45i"
    },
    {
      "time": "11712i",
      "midiNote": 62,
      "noteName": "D4",
      "velocity": 0.8503937007874016,
      "duration": "45i"
    },
    {
      "time": "11776i",
      "midiNote": 53,
      "noteName": "F3",
      "velocity": 0.8503937007874016,
      "duration": "21i"
    },
    {
      "time": "11808i",
      "midiNote": 57,
      "noteName": "A3",
      "velocity": 0.8503937007874016,
      "duration": "45i"
    },
    {
      "time": "11808i",
      "midiNote": 62,
      "noteName": "D4",
      "velocity": 0.8503937007874016,
      "duration": "45i"
    },
    {
      "time": "11872i",
      "midiNote": 57,
      "noteName": "A3",
      "velocity": 0.8503937007874016,
      "duration": "32i"
    },
    {
      "time": "11872i",
      "midiNote": 64,
      "noteName": "E4",
      "velocity": 0.8503937007874016,
      "duration": "32i"
    },
    {
      "time": "12288i",
      "midiNote": 52,
      "noteName": "E3",
      "velocity": 0.8503937007874016,
      "duration": "45i"
    },
    {
      "time": "12288i",
      "midiNote": 55,
      "noteName": "G3",
      "velocity": 0.8503937007874016,
      "duration": "45i"
    },
    {
      "time": "12352i",
      "midiNote": 48,
      "noteName": "C3",
      "velocity": 0.8503937007874016,
      "duration": "21i"
    },
    {
      "time": "12384i",
      "midiNote": 52,
      "noteName": "E3",
      "velocity": 0.8503937007874016,
      "duration": "68i"
    },
    {
      "time": "12384i",
      "midiNote": 55,
      "noteName": "G3",
      "velocity": 0.8503937007874016,
      "duration": "68i"
    },
    {
      "time": "12480i",
      "midiNote": 52,
      "noteName": "E3",
      "velocity": 0.8503937007874016,
      "duration": "45i"
    },
    {
      "time": "12480i",
      "midiNote": 57,
      "noteName": "A3",
      "velocity": 0.8503937007874016,
      "duration": "45i"
    },
    {
      "time": "12544i",
      "midiNote": 48,
      "noteName": "C3",
      "velocity": 0.8503937007874016,
      "duration": "21i"
    },
    {
      "time": "12576i",
      "midiNote": 52,
      "noteName": "E3",
      "velocity": 0.8503937007874016,
      "duration": "68i"
    },
    {
      "time": "12576i",
      "midiNote": 57,
      "noteName": "A3",
      "velocity": 0.8503937007874016,
      "duration": "68i"
    },
    {
      "time": "12672i",
      "midiNote": 52,
      "noteName": "E3",
      "velocity": 0.8503937007874016,
      "duration": "45i"
    },
    {
      "time": "12672i",
      "midiNote": 59,
      "noteName": "B3",
      "velocity": 0.8503937007874016,
      "duration": "45i"
    },
    {
      "time": "12736i",
      "midiNote": 48,
      "noteName": "C3",
      "velocity": 0.8503937007874016,
      "duration": "21i"
    },
    {
      "time": "12768i",
      "midiNote": 52,
      "noteName": "E3",
      "velocity": 0.8503937007874016,
      "duration": "45i"
    },
    {
      "time": "12768i",
      "midiNote": 59,
      "noteName": "B3",
      "velocity": 0.8503937007874016,
      "duration": "45i"
    },
    {
      "time": "12832i",
      "midiNote": 52,
      "noteName": "E3",
      "velocity": 0.8503937007874016,
      "duration": "68i"
    },
    {
      "time": "12832i",
      "midiNote": 57,
      "noteName": "A3",
      "velocity": 0.8503937007874016,
      "duration": "68i"
    },
    {
      "time": "12928i",
      "midiNote": 48,
      "noteName": "C3",
      "velocity": 0.8503937007874016,
      "duration": "21i"
    },
    {
      "time": "12928i",
      "midiNote": 56,
      "noteName": "G#3",
      "velocity": 0.8503937007874016,
      "duration": "21i"
    },
    {
      "time": "12960i",
      "midiNote": 52,
      "noteName": "E3",
      "velocity": 0.8503937007874016,
      "duration": "68i"
    },
    {
      "time": "12960i",
      "midiNote": 57,
      "noteName": "A3",
      "velocity": 0.8503937007874016,
      "duration": "68i"
    },
    {
      "time": "13056i",
      "midiNote": 52,
      "noteName": "E3",
      "velocity": 0.8503937007874016,
      "duration": "45i"
    },
    {
      "time": "13056i",
      "midiNote": 55,
      "noteName": "G3",
      "velocity": 0.8503937007874016,
      "duration": "45i"
    },
    {
      "time": "13056i",
      "midiNote": 60,
      "noteName": "C4",
      "velocity": 0.8503937007874016,
      "duration": "45i"
    },
    {
      "time": "13120i",
      "midiNote": 52,
      "noteName": "E3",
      "velocity": 0.8503937007874016,
      "duration": "30i"
    },
    {
      "time": "13120i",
      "midiNote": 55,
      "noteName": "G3",
      "velocity": 0.8503937007874016,
      "duration": "30i"
    },
    {
      "time": "13120i",
      "midiNote": 60,
      "noteName": "C4",
      "velocity": 0.8503937007874016,
      "duration": "30i"
    },
    {
      "time": "13344i",
      "midiNote": 52,
      "noteName": "E3",
      "velocity": 0.8503937007874016,
      "duration": "45i"
    },
    {
      "time": "13344i",
      "midiNote": 55,
      "noteName": "G3",
      "velocity": 0.8503937007874016,
      "duration": "45i"
    },
    {
      "time": "13344i",
      "midiNote": 60,
      "noteName": "C4",
      "velocity": 0.8503937007874016,
      "duration": "45i"
    },
    {
      "time": "13408i",
      "midiNote": 52,
      "noteName": "E3",
      "velocity": 0.8503937007874016,
      "duration": "30i"
    },
    {
      "time": "13408i",
      "midiNote": 55,
      "noteName": "G3",
      "velocity": 0.8503937007874016,
      "duration": "30i"
    },
    {
      "time": "13408i",
      "midiNote": 60,
      "noteName": "C4",
      "velocity": 0.8503937007874016,
      "duration": "30i"
    },
    {
      "time": "13824i",
      "midiNote": 52,
      "noteName": "E3",
      "velocity": 0.8503937007874016,
      "duration": "45i"
    },
    {
      "time": "13824i",
      "midiNote": 55,
      "noteName": "G3",
      "velocity": 0.8503937007874016,
      "duration": "45i"
    },
    {
      "time": "13888i",
      "midiNote": 48,
      "noteName": "C3",
      "velocity": 0.8503937007874016,
      "duration": "21i"
    },
    {
      "time": "13920i",
      "midiNote": 52,
      "noteName": "E3",
      "velocity": 0.8503937007874016,
      "duration": "68i"
    },
    {
      "time": "13920i",
      "midiNote": 55,
      "noteName": "G3",
      "velocity": 0.8503937007874016,
      "duration": "68i"
    },
    {
      "time": "14016i",
      "midiNote": 52,
      "noteName": "E3",
      "velocity": 0.8503937007874016,
      "duration": "45i"
    },
    {
      "time": "14016i",
      "midiNote": 57,
      "noteName": "A3",
      "velocity": 0.8503937007874016,
      "duration": "45i"
    },
    {
      "time": "14080i",
      "midiNote": 48,
      "noteName": "C3",
      "velocity": 0.8503937007874016,
      "duration": "21i"
    },
    {
      "time": "14112i",
      "midiNote": 52,
      "noteName": "E3",
      "velocity": 0.8503937007874016,
      "duration": "68i"
    },
    {
      "time": "14112i",
      "midiNote": 57,
      "noteName": "A3",
      "velocity": 0.8503937007874016,
      "duration": "68i"
    },
    {
      "time": "14208i",
      "midiNote": 52,
      "noteName": "E3",
      "velocity": 0.8503937007874016,
      "duration": "45i"
    },
    {
      "time": "14208i",
      "midiNote": 59,
      "noteName": "B3",
      "velocity": 0.8503937007874016,
      "duration": "45i"
    },
    {
      "time": "14272i",
      "midiNote": 48,
      "noteName": "C3",
      "velocity": 0.8503937007874016,
      "duration": "21i"
    },
    {
      "time": "14304i",
      "midiNote": 52,
      "noteName": "E3",
      "velocity": 0.8503937007874016,
      "duration": "45i"
    },
    {
      "time": "14304i",
      "midiNote": 59,
      "noteName": "B3",
      "velocity": 0.8503937007874016,
      "duration": "45i"
    },
    {
      "time": "14368i",
      "midiNote": 52,
      "noteName": "E3",
      "velocity": 0.8503937007874016,
      "duration": "68i"
    },
    {
      "time": "14368i",
      "midiNote": 57,
      "noteName": "A3",
      "velocity": 0.8503937007874016,
      "duration": "68i"
    },
    {
      "time": "14464i",
      "midiNote": 48,
      "noteName": "C3",
      "velocity": 0.8503937007874016,
      "duration": "21i"
    },
    {
      "time": "14464i",
      "midiNote": 56,
      "noteName": "G#3",
      "velocity": 0.8503937007874016,
      "duration": "21i"
    },
    {
      "time": "14496i",
      "midiNote": 52,
      "noteName": "E3",
      "velocity": 0.8503937007874016,
      "duration": "68i"
    },
    {
      "time": "14496i",
      "midiNote": 57,
      "noteName": "A3",
      "velocity": 0.8503937007874016,
      "duration": "68i"
    },
    {
      "time": "14592i",
      "midiNote": 52,
      "noteName": "E3",
      "velocity": 0.8503937007874016,
      "duration": "45i"
    },
    {
      "time": "14592i",
      "midiNote": 55,
      "noteName": "G3",
      "velocity": 0.8503937007874016,
      "duration": "45i"
    },
    {
      "time": "14656i",
      "midiNote": 48,
      "noteName": "C3",
      "velocity": 0.8503937007874016,
      "duration": "21i"
    },
    {
      "time": "14688i",
      "midiNote": 52,
      "noteName": "E3",
      "velocity": 0.8503937007874016,
      "duration": "68i"
    },
    {
      "time": "14688i",
      "midiNote": 55,
      "noteName": "G3",
      "velocity": 0.8503937007874016,
      "duration": "68i"
    },
    {
      "time": "14784i",
      "midiNote": 52,
      "noteName": "E3",
      "velocity": 0.8503937007874016,
      "duration": "45i"
    },
    {
      "time": "14784i",
      "midiNote": 57,
      "noteName": "A3",
      "velocity": 0.8503937007874016,
      "duration": "45i"
    },
    {
      "time": "14848i",
      "midiNote": 48,
      "noteName": "C3",
      "velocity": 0.8503937007874016,
      "duration": "21i"
    },
    {
      "time": "14880i",
      "midiNote": 52,
      "noteName": "E3",
      "velocity": 0.8503937007874016,
      "duration": "45i"
    },
    {
      "time": "14880i",
      "midiNote": 57,
      "noteName": "A3",
      "velocity": 0.8503937007874016,
      "duration": "45i"
    },
    {
      "time": "14944i",
      "midiNote": 52,
      "noteName": "E3",
      "velocity": 0.8503937007874016,
      "duration": "32i"
    },
    {
      "time": "14944i",
      "midiNote": 59,
      "noteName": "B3",
      "velocity": 0.8503937007874016,
      "duration": "32i"
    },
    {
      "time": "15360i",
      "midiNote": 57,
      "noteName": "A3",
      "velocity": 0.8503937007874016,
      "duration": "45i"
    },
    {
      "time": "15360i",
      "midiNote": 60,
      "noteName": "C4",
      "velocity": 0.8503937007874016,
      "duration": "45i"
    },
    {
      "time": "15424i",
      "midiNote": 53,
      "noteName": "F3",
      "velocity": 0.8503937007874016,
      "duration": "21i"
    },
    {
      "time": "15456i",
      "midiNote": 57,
      "noteName": "A3",
      "velocity": 0.8503937007874016,
      "duration": "68i"
    },
    {
      "time": "15456i",
      "midiNote": 60,
      "noteName": "C4",
      "velocity": 0.8503937007874016,
      "duration": "68i"
    },
    {
      "time": "15552i",
      "midiNote": 57,
      "noteName": "A3",
      "velocity": 0.8503937007874016,
      "duration": "45i"
    },
    {
      "time": "15552i",
      "midiNote": 62,
      "noteName": "D4",
      "velocity": 0.8503937007874016,
      "duration": "45i"
    },
    {
      "time": "15616i",
      "midiNote": 53,
      "noteName": "F3",
      "velocity": 0.8503937007874016,
      "duration": "21i"
    },
    {
      "time": "15648i",
      "midiNote": 57,
      "noteName": "A3",
      "velocity": 0.8503937007874016,
      "duration": "68i"
    },
    {
      "time": "15648i",
      "midiNote": 62,
      "noteName": "D4",
      "velocity": 0.8503937007874016,
      "duration": "68i"
    },
    {
      "time": "15744i",
      "midiNote": 57,
      "noteName": "A3",
      "velocity": 0.8503937007874016,
      "duration": "45i"
    },
    {
      "time": "15744i",
      "midiNote": 64,
      "noteName": "E4",
      "velocity": 0.8503937007874016,
      "duration": "45i"
    },
    {
      "time": "15808i",
      "midiNote": 53,
      "noteName": "F3",
      "velocity": 0.8503937007874016,
      "duration": "21i"
    },
    {
      "time": "15840i",
      "midiNote": 57,
      "noteName": "A3",
      "velocity": 0.8503937007874016,
      "duration": "45i"
    },
    {
      "time": "15840i",
      "midiNote": 64,
      "noteName": "E4",
      "velocity": 0.8503937007874016,
      "duration": "45i"
    },
    {
      "time": "15904i",
      "midiNote": 57,
      "noteName": "A3",
      "velocity": 0.8503937007874016,
      "duration": "68i"
    },
    {
      "time": "15904i",
      "midiNote": 62,
      "noteName": "D4",
      "velocity": 0.8503937007874016,
      "duration": "68i"
    },
    {
      "time": "16000i",
      "midiNote": 56,
      "noteName": "G#3",
      "velocity": 0.8503937007874016,
      "duration": "21i"
    },
    {
      "time": "16000i",
      "midiNote": 61,
      "noteName": "C#4",
      "velocity": 0.8503937007874016,
      "duration": "21i"
    },
    {
      "time": "16032i",
      "midiNote": 57,
      "noteName": "A3",
      "velocity": 0.8503937007874016,
      "duration": "68i"
    },
    {
      "time": "16032i",
      "midiNote": 62,
      "noteName": "D4",
      "velocity": 0.8503937007874016,
      "duration": "68i"
    },
    {
      "time": "16128i",
      "midiNote": 57,
      "noteName": "A3",
      "velocity": 0.8503937007874016,
      "duration": "45i"
    },
    {
      "time": "16128i",
      "midiNote": 60,
      "noteName": "C4",
      "velocity": 0.8503937007874016,
      "duration": "45i"
    },
    {
      "time": "16192i",
      "midiNote": 53,
      "noteName": "F3",
      "velocity": 0.8503937007874016,
      "duration": "21i"
    },
    {
      "time": "16224i",
      "midiNote": 57,
      "noteName": "A3",
      "velocity": 0.8503937007874016,
      "duration": "68i"
    },
    {
      "time": "16224i",
      "midiNote": 60,
      "noteName": "C4",
      "velocity": 0.8503937007874016,
      "duration": "68i"
    },
    {
      "time": "16320i",
      "midiNote": 57,
      "noteName": "A3",
      "velocity": 0.8503937007874016,
      "duration": "45i"
    },
    {
      "time": "16320i",
      "midiNote": 62,
      "noteName": "D4",
      "velocity": 0.8503937007874016,
      "duration": "45i"
    },
    {
      "time": "16384i",
      "midiNote": 53,
      "noteName": "F3",
      "velocity": 0.8503937007874016,
      "duration": "21i"
    },
    {
      "time": "16416i",
      "midiNote": 57,
      "noteName": "A3",
      "velocity": 0.8503937007874016,
      "duration": "45i"
    },
    {
      "time": "16416i",
      "midiNote": 62,
      "noteName": "D4",
      "velocity": 0.8503937007874016,
      "duration": "45i"
    },
    {
      "time": "16480i",
      "midiNote": 57,
      "noteName": "A3",
      "velocity": 0.8503937007874016,
      "duration": "32i"
    },
    {
      "time": "16480i",
      "midiNote": 64,
      "noteName": "E4",
      "velocity": 0.8503937007874016,
      "duration": "32i"
    },
    {
      "time": "16896i",
      "midiNote": 52,
      "noteName": "E3",
      "velocity": 0.8503937007874016,
      "duration": "45i"
    },
    {
      "time": "16896i",
      "midiNote": 55,
      "noteName": "G3",
      "velocity": 0.8503937007874016,
      "duration": "45i"
    },
    {
      "time": "16960i",
      "midiNote": 48,
      "noteName": "C3",
      "velocity": 0.8503937007874016,
      "duration": "21i"
    },
    {
      "time": "16992i",
      "midiNote": 52,
      "noteName": "E3",
      "velocity": 0.8503937007874016,
      "duration": "68i"
    },
    {
      "time": "16992i",
      "midiNote": 55,
      "noteName": "G3",
      "velocity": 0.8503937007874016,
      "duration": "68i"
    },
    {
      "time": "17088i",
      "midiNote": 52,
      "noteName": "E3",
      "velocity": 0.8503937007874016,
      "duration": "45i"
    },
    {
      "time": "17088i",
      "midiNote": 57,
      "noteName": "A3",
      "velocity": 0.8503937007874016,
      "duration": "45i"
    },
    {
      "time": "17152i",
      "midiNote": 48,
      "noteName": "C3",
      "velocity": 0.8503937007874016,
      "duration": "21i"
    },
    {
      "time": "17184i",
      "midiNote": 52,
      "noteName": "E3",
      "velocity": 0.8503937007874016,
      "duration": "68i"
    },
    {
      "time": "17184i",
      "midiNote": 57,
      "noteName": "A3",
      "velocity": 0.8503937007874016,
      "duration": "68i"
    },
    {
      "time": "17280i",
      "midiNote": 52,
      "noteName": "E3",
      "velocity": 0.8503937007874016,
      "duration": "45i"
    },
    {
      "time": "17280i",
      "midiNote": 59,
      "noteName": "B3",
      "velocity": 0.8503937007874016,
      "duration": "45i"
    },
    {
      "time": "17344i",
      "midiNote": 48,
      "noteName": "C3",
      "velocity": 0.8503937007874016,
      "duration": "21i"
    },
    {
      "time": "17376i",
      "midiNote": 52,
      "noteName": "E3",
      "velocity": 0.8503937007874016,
      "duration": "45i"
    },
    {
      "time": "17376i",
      "midiNote": 59,
      "noteName": "B3",
      "velocity": 0.8503937007874016,
      "duration": "45i"
    },
    {
      "time": "17440i",
      "midiNote": 52,
      "noteName": "E3",
      "velocity": 0.8503937007874016,
      "duration": "68i"
    },
    {
      "time": "17440i",
      "midiNote": 57,
      "noteName": "A3",
      "velocity": 0.8503937007874016,
      "duration": "68i"
    },
    {
      "time": "17536i",
      "midiNote": 48,
      "noteName": "C3",
      "velocity": 0.8503937007874016,
      "duration": "21i"
    },
    {
      "time": "17536i",
      "midiNote": 56,
      "noteName": "G#3",
      "velocity": 0.8503937007874016,
      "duration": "21i"
    },
    {
      "time": "17568i",
      "midiNote": 52,
      "noteName": "E3",
      "velocity": 0.8503937007874016,
      "duration": "68i"
    },
    {
      "time": "17568i",
      "midiNote": 57,
      "noteName": "A3",
      "velocity": 0.8503937007874016,
      "duration": "68i"
    },
    {
      "time": "17664i",
      "midiNote": 52,
      "noteName": "E3",
      "velocity": 0.8503937007874016,
      "duration": "45i"
    },
    {
      "time": "17664i",
      "midiNote": 55,
      "noteName": "G3",
      "velocity": 0.8503937007874016,
      "duration": "45i"
    },
    {
      "time": "17664i",
      "midiNote": 60,
      "noteName": "C4",
      "velocity": 0.8503937007874016,
      "duration": "45i"
    },
    {
      "time": "17728i",
      "midiNote": 52,
      "noteName": "E3",
      "velocity": 0.8503937007874016,
      "duration": "30i"
    },
    {
      "time": "17728i",
      "midiNote": 55,
      "noteName": "G3",
      "velocity": 0.8503937007874016,
      "duration": "30i"
    },
    {
      "time": "17728i",
      "midiNote": 60,
      "noteName": "C4",
      "velocity": 0.8503937007874016,
      "duration": "30i"
    },
    {
      "time": "17952i",
      "midiNote": 52,
      "noteName": "E3",
      "velocity": 0.8503937007874016,
      "duration": "45i"
    },
    {
      "time": "17952i",
      "midiNote": 55,
      "noteName": "G3",
      "velocity": 0.8503937007874016,
      "duration": "45i"
    },
    {
      "time": "17952i",
      "midiNote": 60,
      "noteName": "C4",
      "velocity": 0.8503937007874016,
      "duration": "45i"
    },
    {
      "time": "18016i",
      "midiNote": 52,
      "noteName": "E3",
      "velocity": 0.8503937007874016,
      "duration": "30i"
    },
    {
      "time": "18016i",
      "midiNote": 55,
      "noteName": "G3",
      "velocity": 0.8503937007874016,
      "duration": "30i"
    },
    {
      "time": "18016i",
      "midiNote": 60,
      "noteName": "C4",
      "velocity": 0.8503937007874016,
      "duration": "30i"
    }
  ],
  [
    {
      "time": "0i",
      "midiNote": 52,
      "noteName": "E3",
      "velocity": 0.8503937007874016,
      "duration": "45i"
    },
    {
      "time": "0i",
      "midiNote": 55,
      "noteName": "G3",
      "velocity": 0.8503937007874016,
      "duration": "45i"
    },
    {
      "time": "64i",
      "midiNote": 48,
      "noteName": "C3",
      "velocity": 0.8503937007874016,
      "duration": "21i"
    },
    {
      "time": "96i",
      "midiNote": 52,
      "noteName": "E3",
      "velocity": 0.8503937007874016,
      "duration": "68i"
    },
    {
      "time": "96i",
      "midiNote": 55,
      "noteName": "G3",
      "velocity": 0.8503937007874016,
      "duration": "68i"
    },
    {
      "time": "192i",
      "midiNote": 52,
      "noteName": "E3",
      "velocity": 0.8503937007874016,
      "duration": "45i"
    },
    {
      "time": "192i",
      "midiNote": 57,
      "noteName": "A3",
      "velocity": 0.8503937007874016,
      "duration": "45i"
    },
    {
      "time": "256i",
      "midiNote": 48,
      "noteName": "C3",
      "velocity": 0.8503937007874016,
      "duration": "21i"
    },
    {
      "time": "288i",
      "midiNote": 52,
      "noteName": "E3",
      "velocity": 0.8503937007874016,
      "duration": "68i"
    },
    {
      "time": "288i",
      "midiNote": 57,
      "noteName": "A3",
      "velocity": 0.8503937007874016,
      "duration": "68i"
    },
    {
      "time": "384i",
      "midiNote": 52,
      "noteName": "E3",
      "velocity": 0.8503937007874016,
      "duration": "45i"
    },
    {
      "time": "384i",
      "midiNote": 59,
      "noteName": "B3",
      "velocity": 0.8503937007874016,
      "duration": "45i"
    },
    {
      "time": "448i",
      "midiNote": 48,
      "noteName": "C3",
      "velocity": 0.8503937007874016,
      "duration": "21i"
    },
    {
      "time": "480i",
      "midiNote": 52,
      "noteName": "E3",
      "velocity": 0.8503937007874016,
      "duration": "45i"
    },
    {
      "time": "480i",
      "midiNote": 59,
      "noteName": "B3",
      "velocity": 0.8503937007874016,
      "duration": "45i"
    },
    {
      "time": "544i",
      "midiNote": 52,
      "noteName": "E3",
      "velocity": 0.8503937007874016,
      "duration": "68i"
    },
    {
      "time": "544i",
      "midiNote": 57,
      "noteName": "A3",
      "velocity": 0.8503937007874016,
      "duration": "68i"
    },
    {
      "time": "640i",
      "midiNote": 48,
      "noteName": "C3",
      "velocity": 0.8503937007874016,
      "duration": "21i"
    },
    {
      "time": "640i",
      "midiNote": 56,
      "noteName": "G#3",
      "velocity": 0.8503937007874016,
      "duration": "21i"
    },
    {
      "time": "672i",
      "midiNote": 52,
      "noteName": "E3",
      "velocity": 0.8503937007874016,
      "duration": "68i"
    },
    {
      "time": "672i",
      "midiNote": 57,
      "noteName": "A3",
      "velocity": 0.8503937007874016,
      "duration": "68i"
    },
    {
      "time": "768i",
      "midiNote": 52,
      "noteName": "E3",
      "velocity": 0.8503937007874016,
      "duration": "45i"
    },
    {
      "time": "768i",
      "midiNote": 55,
      "noteName": "G3",
      "velocity": 0.8503937007874016,
      "duration": "45i"
    },
    {
      "time": "832i",
      "midiNote": 48,
      "noteName": "C3",
      "velocity": 0.8503937007874016,
      "duration": "21i"
    },
    {
      "time": "864i",
      "midiNote": 52,
      "noteName": "E3",
      "velocity": 0.8503937007874016,
      "duration": "68i"
    },
    {
      "time": "864i",
      "midiNote": 55,
      "noteName": "G3",
      "velocity": 0.8503937007874016,
      "duration": "68i"
    },
    {
      "time": "960i",
      "midiNote": 52,
      "noteName": "E3",
      "velocity": 0.8503937007874016,
      "duration": "45i"
    },
    {
      "time": "960i",
      "midiNote": 57,
      "noteName": "A3",
      "velocity": 0.8503937007874016,
      "duration": "45i"
    },
    {
      "time": "1024i",
      "midiNote": 48,
      "noteName": "C3",
      "velocity": 0.8503937007874016,
      "duration": "21i"
    },
    {
      "time": "1056i",
      "midiNote": 52,
      "noteName": "E3",
      "velocity": 0.8503937007874016,
      "duration": "45i"
    },
    {
      "time": "1056i",
      "midiNote": 57,
      "noteName": "A3",
      "velocity": 0.8503937007874016,
      "duration": "45i"
    },
    {
      "time": "1120i",
      "midiNote": 52,
      "noteName": "E3",
      "velocity": 0.8503937007874016,
      "duration": "32i"
    },
    {
      "time": "1120i",
      "midiNote": 59,
      "noteName": "B3",
      "velocity": 0.8503937007874016,
      "duration": "32i"
    },
    {
      "time": "1536i",
      "midiNote": 57,
      "noteName": "A3",
      "velocity": 0.8503937007874016,
      "duration": "45i"
    },
    {
      "time": "1536i",
      "midiNote": 60,
      "noteName": "C4",
      "velocity": 0.8503937007874016,
      "duration": "45i"
    },
    {
      "time": "1600i",
      "midiNote": 53,
      "noteName": "F3",
      "velocity": 0.8503937007874016,
      "duration": "21i"
    },
    {
      "time": "1632i",
      "midiNote": 57,
      "noteName": "A3",
      "velocity": 0.8503937007874016,
      "duration": "68i"
    },
    {
      "time": "1632i",
      "midiNote": 60,
      "noteName": "C4",
      "velocity": 0.8503937007874016,
      "duration": "68i"
    },
    {
      "time": "1728i",
      "midiNote": 57,
      "noteName": "A3",
      "velocity": 0.8503937007874016,
      "duration": "45i"
    },
    {
      "time": "1728i",
      "midiNote": 62,
      "noteName": "D4",
      "velocity": 0.8503937007874016,
      "duration": "45i"
    },
    {
      "time": "1792i",
      "midiNote": 53,
      "noteName": "F3",
      "velocity": 0.8503937007874016,
      "duration": "21i"
    },
    {
      "time": "1824i",
      "midiNote": 57,
      "noteName": "A3",
      "velocity": 0.8503937007874016,
      "duration": "68i"
    },
    {
      "time": "1824i",
      "midiNote": 62,
      "noteName": "D4",
      "velocity": 0.8503937007874016,
      "duration": "68i"
    },
    {
      "time": "1920i",
      "midiNote": 57,
      "noteName": "A3",
      "velocity": 0.8503937007874016,
      "duration": "45i"
    },
    {
      "time": "1920i",
      "midiNote": 64,
      "noteName": "E4",
      "velocity": 0.8503937007874016,
      "duration": "45i"
    },
    {
      "time": "1984i",
      "midiNote": 53,
      "noteName": "F3",
      "velocity": 0.8503937007874016,
      "duration": "21i"
    },
    {
      "time": "2016i",
      "midiNote": 57,
      "noteName": "A3",
      "velocity": 0.8503937007874016,
      "duration": "45i"
    },
    {
      "time": "2016i",
      "midiNote": 64,
      "noteName": "E4",
      "velocity": 0.8503937007874016,
      "duration": "45i"
    },
    {
      "time": "2080i",
      "midiNote": 57,
      "noteName": "A3",
      "velocity": 0.8503937007874016,
      "duration": "68i"
    },
    {
      "time": "2080i",
      "midiNote": 62,
      "noteName": "D4",
      "velocity": 0.8503937007874016,
      "duration": "68i"
    },
    {
      "time": "2176i",
      "midiNote": 56,
      "noteName": "G#3",
      "velocity": 0.8503937007874016,
      "duration": "21i"
    },
    {
      "time": "2176i",
      "midiNote": 61,
      "noteName": "C#4",
      "velocity": 0.8503937007874016,
      "duration": "21i"
    },
    {
      "time": "2208i",
      "midiNote": 57,
      "noteName": "A3",
      "velocity": 0.8503937007874016,
      "duration": "68i"
    },
    {
      "time": "2208i",
      "midiNote": 62,
      "noteName": "D4",
      "velocity": 0.8503937007874016,
      "duration": "68i"
    },
    {
      "time": "2304i",
      "midiNote": 57,
      "noteName": "A3",
      "velocity": 0.8503937007874016,
      "duration": "45i"
    },
    {
      "time": "2304i",
      "midiNote": 60,
      "noteName": "C4",
      "velocity": 0.8503937007874016,
      "duration": "45i"
    },
    {
      "time": "2368i",
      "midiNote": 53,
      "noteName": "F3",
      "velocity": 0.8503937007874016,
      "duration": "21i"
    },
    {
      "time": "2400i",
      "midiNote": 57,
      "noteName": "A3",
      "velocity": 0.8503937007874016,
      "duration": "68i"
    },
    {
      "time": "2400i",
      "midiNote": 60,
      "noteName": "C4",
      "velocity": 0.8503937007874016,
      "duration": "68i"
    },
    {
      "time": "2496i",
      "midiNote": 57,
      "noteName": "A3",
      "velocity": 0.8503937007874016,
      "duration": "45i"
    },
    {
      "time": "2496i",
      "midiNote": 62,
      "noteName": "D4",
      "velocity": 0.8503937007874016,
      "duration": "45i"
    },
    {
      "time": "2560i",
      "midiNote": 53,
      "noteName": "F3",
      "velocity": 0.8503937007874016,
      "duration": "21i"
    },
    {
      "time": "2592i",
      "midiNote": 57,
      "noteName": "A3",
      "velocity": 0.8503937007874016,
      "duration": "45i"
    },
    {
      "time": "2592i",
      "midiNote": 62,
      "noteName": "D4",
      "velocity": 0.8503937007874016,
      "duration": "45i"
    },
    {
      "time": "2656i",
      "midiNote": 57,
      "noteName": "A3",
      "velocity": 0.8503937007874016,
      "duration": "32i"
    },
    {
      "time": "2656i",
      "midiNote": 64,
      "noteName": "E4",
      "velocity": 0.8503937007874016,
      "duration": "32i"
    },
    {
      "time": "3072i",
      "midiNote": 52,
      "noteName": "E3",
      "velocity": 0.8503937007874016,
      "duration": "45i"
    },
    {
      "time": "3072i",
      "midiNote": 55,
      "noteName": "G3",
      "velocity": 0.8503937007874016,
      "duration": "45i"
    },
    {
      "time": "3136i",
      "midiNote": 48,
      "noteName": "C3",
      "velocity": 0.8503937007874016,
      "duration": "21i"
    },
    {
      "time": "3168i",
      "midiNote": 52,
      "noteName": "E3",
      "velocity": 0.8503937007874016,
      "duration": "68i"
    },
    {
      "time": "3168i",
      "midiNote": 55,
      "noteName": "G3",
      "velocity": 0.8503937007874016,
      "duration": "68i"
    },
    {
      "time": "3264i",
      "midiNote": 52,
      "noteName": "E3",
      "velocity": 0.8503937007874016,
      "duration": "45i"
    },
    {
      "time": "3264i",
      "midiNote": 57,
      "noteName": "A3",
      "velocity": 0.8503937007874016,
      "duration": "45i"
    },
    {
      "time": "3328i",
      "midiNote": 48,
      "noteName": "C3",
      "velocity": 0.8503937007874016,
      "duration": "21i"
    },
    {
      "time": "3360i",
      "midiNote": 52,
      "noteName": "E3",
      "velocity": 0.8503937007874016,
      "duration": "68i"
    },
    {
      "time": "3360i",
      "midiNote": 57,
      "noteName": "A3",
      "velocity": 0.8503937007874016,
      "duration": "68i"
    },
    {
      "time": "3456i",
      "midiNote": 52,
      "noteName": "E3",
      "velocity": 0.8503937007874016,
      "duration": "45i"
    },
    {
      "time": "3456i",
      "midiNote": 59,
      "noteName": "B3",
      "velocity": 0.8503937007874016,
      "duration": "45i"
    },
    {
      "time": "3520i",
      "midiNote": 48,
      "noteName": "C3",
      "velocity": 0.8503937007874016,
      "duration": "21i"
    },
    {
      "time": "3552i",
      "midiNote": 52,
      "noteName": "E3",
      "velocity": 0.8503937007874016,
      "duration": "45i"
    },
    {
      "time": "3552i",
      "midiNote": 59,
      "noteName": "B3",
      "velocity": 0.8503937007874016,
      "duration": "45i"
    },
    {
      "time": "3616i",
      "midiNote": 52,
      "noteName": "E3",
      "velocity": 0.8503937007874016,
      "duration": "68i"
    },
    {
      "time": "3616i",
      "midiNote": 57,
      "noteName": "A3",
      "velocity": 0.8503937007874016,
      "duration": "68i"
    },
    {
      "time": "3712i",
      "midiNote": 48,
      "noteName": "C3",
      "velocity": 0.8503937007874016,
      "duration": "21i"
    },
    {
      "time": "3712i",
      "midiNote": 56,
      "noteName": "G#3",
      "velocity": 0.8503937007874016,
      "duration": "21i"
    },
    {
      "time": "3744i",
      "midiNote": 52,
      "noteName": "E3",
      "velocity": 0.8503937007874016,
      "duration": "68i"
    },
    {
      "time": "3744i",
      "midiNote": 57,
      "noteName": "A3",
      "velocity": 0.8503937007874016,
      "duration": "68i"
    },
    {
      "time": "3840i",
      "midiNote": 52,
      "noteName": "E3",
      "velocity": 0.8503937007874016,
      "duration": "45i"
    },
    {
      "time": "3840i",
      "midiNote": 55,
      "noteName": "G3",
      "velocity": 0.8503937007874016,
      "duration": "45i"
    },
    {
      "time": "3840i",
      "midiNote": 60,
      "noteName": "C4",
      "velocity": 0.8503937007874016,
      "duration": "45i"
    },
    {
      "time": "3904i",
      "midiNote": 52,
      "noteName": "E3",
      "velocity": 0.8503937007874016,
      "duration": "30i"
    },
    {
      "time": "3904i",
      "midiNote": 55,
      "noteName": "G3",
      "velocity": 0.8503937007874016,
      "duration": "30i"
    },
    {
      "time": "3904i",
      "midiNote": 60,
      "noteName": "C4",
      "velocity": 0.8503937007874016,
      "duration": "30i"
    },
    {
      "time": "4128i",
      "midiNote": 52,
      "noteName": "E3",
      "velocity": 0.8503937007874016,
      "duration": "45i"
    },
    {
      "time": "4128i",
      "midiNote": 55,
      "noteName": "G3",
      "velocity": 0.8503937007874016,
      "duration": "45i"
    },
    {
      "time": "4128i",
      "midiNote": 60,
      "noteName": "C4",
      "velocity": 0.8503937007874016,
      "duration": "45i"
    },
    {
      "time": "4192i",
      "midiNote": 52,
      "noteName": "E3",
      "velocity": 0.8503937007874016,
      "duration": "30i"
    },
    {
      "time": "4192i",
      "midiNote": 55,
      "noteName": "G3",
      "velocity": 0.8503937007874016,
      "duration": "30i"
    },
    {
      "time": "4192i",
      "midiNote": 60,
      "noteName": "C4",
      "velocity": 0.8503937007874016,
      "duration": "30i"
    },
    {
      "time": "4608i",
      "midiNote": 52,
      "noteName": "E3",
      "velocity": 0.8503937007874016,
      "duration": "45i"
    },
    {
      "time": "4608i",
      "midiNote": 55,
      "noteName": "G3",
      "velocity": 0.8503937007874016,
      "duration": "45i"
    },
    {
      "time": "4672i",
      "midiNote": 48,
      "noteName": "C3",
      "velocity": 0.8503937007874016,
      "duration": "21i"
    },
    {
      "time": "4704i",
      "midiNote": 52,
      "noteName": "E3",
      "velocity": 0.8503937007874016,
      "duration": "68i"
    },
    {
      "time": "4704i",
      "midiNote": 55,
      "noteName": "G3",
      "velocity": 0.8503937007874016,
      "duration": "68i"
    },
    {
      "time": "4800i",
      "midiNote": 52,
      "noteName": "E3",
      "velocity": 0.8503937007874016,
      "duration": "45i"
    },
    {
      "time": "4800i",
      "midiNote": 57,
      "noteName": "A3",
      "velocity": 0.8503937007874016,
      "duration": "45i"
    },
    {
      "time": "4864i",
      "midiNote": 48,
      "noteName": "C3",
      "velocity": 0.8503937007874016,
      "duration": "21i"
    },
    {
      "time": "4896i",
      "midiNote": 52,
      "noteName": "E3",
      "velocity": 0.8503937007874016,
      "duration": "68i"
    },
    {
      "time": "4896i",
      "midiNote": 57,
      "noteName": "A3",
      "velocity": 0.8503937007874016,
      "duration": "68i"
    },
    {
      "time": "4992i",
      "midiNote": 52,
      "noteName": "E3",
      "velocity": 0.8503937007874016,
      "duration": "45i"
    },
    {
      "time": "4992i",
      "midiNote": 59,
      "noteName": "B3",
      "velocity": 0.8503937007874016,
      "duration": "45i"
    },
    {
      "time": "5056i",
      "midiNote": 48,
      "noteName": "C3",
      "velocity": 0.8503937007874016,
      "duration": "21i"
    },
    {
      "time": "5088i",
      "midiNote": 52,
      "noteName": "E3",
      "velocity": 0.8503937007874016,
      "duration": "45i"
    },
    {
      "time": "5088i",
      "midiNote": 59,
      "noteName": "B3",
      "velocity": 0.8503937007874016,
      "duration": "45i"
    },
    {
      "time": "5152i",
      "midiNote": 52,
      "noteName": "E3",
      "velocity": 0.8503937007874016,
      "duration": "68i"
    },
    {
      "time": "5152i",
      "midiNote": 57,
      "noteName": "A3",
      "velocity": 0.8503937007874016,
      "duration": "68i"
    },
    {
      "time": "5248i",
      "midiNote": 48,
      "noteName": "C3",
      "velocity": 0.8503937007874016,
      "duration": "21i"
    },
    {
      "time": "5248i",
      "midiNote": 56,
      "noteName": "G#3",
      "velocity": 0.8503937007874016,
      "duration": "21i"
    },
    {
      "time": "5280i",
      "midiNote": 52,
      "noteName": "E3",
      "velocity": 0.8503937007874016,
      "duration": "68i"
    },
    {
      "time": "5280i",
      "midiNote": 57,
      "noteName": "A3",
      "velocity": 0.8503937007874016,
      "duration": "68i"
    },
    {
      "time": "5376i",
      "midiNote": 52,
      "noteName": "E3",
      "velocity": 0.8503937007874016,
      "duration": "45i"
    },
    {
      "time": "5376i",
      "midiNote": 55,
      "noteName": "G3",
      "velocity": 0.8503937007874016,
      "duration": "45i"
    },
    {
      "time": "5440i",
      "midiNote": 48,
      "noteName": "C3",
      "velocity": 0.8503937007874016,
      "duration": "21i"
    },
    {
      "time": "5472i",
      "midiNote": 52,
      "noteName": "E3",
      "velocity": 0.8503937007874016,
      "duration": "68i"
    },
    {
      "time": "5472i",
      "midiNote": 55,
      "noteName": "G3",
      "velocity": 0.8503937007874016,
      "duration": "68i"
    },
    {
      "time": "5568i",
      "midiNote": 52,
      "noteName": "E3",
      "velocity": 0.8503937007874016,
      "duration": "45i"
    },
    {
      "time": "5568i",
      "midiNote": 57,
      "noteName": "A3",
      "velocity": 0.8503937007874016,
      "duration": "45i"
    },
    {
      "time": "5632i",
      "midiNote": 48,
      "noteName": "C3",
      "velocity": 0.8503937007874016,
      "duration": "21i"
    },
    {
      "time": "5664i",
      "midiNote": 52,
      "noteName": "E3",
      "velocity": 0.8503937007874016,
      "duration": "45i"
    },
    {
      "time": "5664i",
      "midiNote": 57,
      "noteName": "A3",
      "velocity": 0.8503937007874016,
      "duration": "45i"
    },
    {
      "time": "5728i",
      "midiNote": 52,
      "noteName": "E3",
      "velocity": 0.8503937007874016,
      "duration": "32i"
    },
    {
      "time": "5728i",
      "midiNote": 59,
      "noteName": "B3",
      "velocity": 0.8503937007874016,
      "duration": "32i"
    },
    {
      "time": "6144i",
      "midiNote": 57,
      "noteName": "A3",
      "velocity": 0.8503937007874016,
      "duration": "45i"
    },
    {
      "time": "6144i",
      "midiNote": 60,
      "noteName": "C4",
      "velocity": 0.8503937007874016,
      "duration": "45i"
    },
    {
      "time": "6208i",
      "midiNote": 53,
      "noteName": "F3",
      "velocity": 0.8503937007874016,
      "duration": "21i"
    },
    {
      "time": "6240i",
      "midiNote": 57,
      "noteName": "A3",
      "velocity": 0.8503937007874016,
      "duration": "68i"
    },
    {
      "time": "6240i",
      "midiNote": 60,
      "noteName": "C4",
      "velocity": 0.8503937007874016,
      "duration": "68i"
    },
    {
      "time": "6336i",
      "midiNote": 57,
      "noteName": "A3",
      "velocity": 0.8503937007874016,
      "duration": "45i"
    },
    {
      "time": "6336i",
      "midiNote": 62,
      "noteName": "D4",
      "velocity": 0.8503937007874016,
      "duration": "45i"
    },
    {
      "time": "6400i",
      "midiNote": 53,
      "noteName": "F3",
      "velocity": 0.8503937007874016,
      "duration": "21i"
    },
    {
      "time": "6432i",
      "midiNote": 57,
      "noteName": "A3",
      "velocity": 0.8503937007874016,
      "duration": "68i"
    },
    {
      "time": "6432i",
      "midiNote": 62,
      "noteName": "D4",
      "velocity": 0.8503937007874016,
      "duration": "68i"
    },
    {
      "time": "6528i",
      "midiNote": 57,
      "noteName": "A3",
      "velocity": 0.8503937007874016,
      "duration": "45i"
    },
    {
      "time": "6528i",
      "midiNote": 64,
      "noteName": "E4",
      "velocity": 0.8503937007874016,
      "duration": "45i"
    },
    {
      "time": "6592i",
      "midiNote": 53,
      "noteName": "F3",
      "velocity": 0.8503937007874016,
      "duration": "21i"
    },
    {
      "time": "6624i",
      "midiNote": 57,
      "noteName": "A3",
      "velocity": 0.8503937007874016,
      "duration": "45i"
    },
    {
      "time": "6624i",
      "midiNote": 64,
      "noteName": "E4",
      "velocity": 0.8503937007874016,
      "duration": "45i"
    },
    {
      "time": "6688i",
      "midiNote": 57,
      "noteName": "A3",
      "velocity": 0.8503937007874016,
      "duration": "68i"
    },
    {
      "time": "6688i",
      "midiNote": 62,
      "noteName": "D4",
      "velocity": 0.8503937007874016,
      "duration": "68i"
    },
    {
      "time": "6784i",
      "midiNote": 56,
      "noteName": "G#3",
      "velocity": 0.8503937007874016,
      "duration": "21i"
    },
    {
      "time": "6784i",
      "midiNote": 61,
      "noteName": "C#4",
      "velocity": 0.8503937007874016,
      "duration": "21i"
    },
    {
      "time": "6816i",
      "midiNote": 57,
      "noteName": "A3",
      "velocity": 0.8503937007874016,
      "duration": "68i"
    },
    {
      "time": "6816i",
      "midiNote": 62,
      "noteName": "D4",
      "velocity": 0.8503937007874016,
      "duration": "68i"
    },
    {
      "time": "6912i",
      "midiNote": 57,
      "noteName": "A3",
      "velocity": 0.8503937007874016,
      "duration": "45i"
    },
    {
      "time": "6912i",
      "midiNote": 60,
      "noteName": "C4",
      "velocity": 0.8503937007874016,
      "duration": "45i"
    },
    {
      "time": "6976i",
      "midiNote": 53,
      "noteName": "F3",
      "velocity": 0.8503937007874016,
      "duration": "21i"
    },
    {
      "time": "7008i",
      "midiNote": 57,
      "noteName": "A3",
      "velocity": 0.8503937007874016,
      "duration": "68i"
    },
    {
      "time": "7008i",
      "midiNote": 60,
      "noteName": "C4",
      "velocity": 0.8503937007874016,
      "duration": "68i"
    },
    {
      "time": "7104i",
      "midiNote": 57,
      "noteName": "A3",
      "velocity": 0.8503937007874016,
      "duration": "45i"
    },
    {
      "time": "7104i",
      "midiNote": 62,
      "noteName": "D4",
      "velocity": 0.8503937007874016,
      "duration": "45i"
    },
    {
      "time": "7168i",
      "midiNote": 53,
      "noteName": "F3",
      "velocity": 0.8503937007874016,
      "duration": "21i"
    },
    {
      "time": "7200i",
      "midiNote": 57,
      "noteName": "A3",
      "velocity": 0.8503937007874016,
      "duration": "45i"
    },
    {
      "time": "7200i",
      "midiNote": 62,
      "noteName": "D4",
      "velocity": 0.8503937007874016,
      "duration": "45i"
    },
    {
      "time": "7264i",
      "midiNote": 57,
      "noteName": "A3",
      "velocity": 0.8503937007874016,
      "duration": "32i"
    },
    {
      "time": "7264i",
      "midiNote": 64,
      "noteName": "E4",
      "velocity": 0.8503937007874016,
      "duration": "32i"
    },
    {
      "time": "7680i",
      "midiNote": 52,
      "noteName": "E3",
      "velocity": 0.8503937007874016,
      "duration": "45i"
    },
    {
      "time": "7680i",
      "midiNote": 55,
      "noteName": "G3",
      "velocity": 0.8503937007874016,
      "duration": "45i"
    },
    {
      "time": "7744i",
      "midiNote": 48,
      "noteName": "C3",
      "velocity": 0.8503937007874016,
      "duration": "21i"
    },
    {
      "time": "7776i",
      "midiNote": 52,
      "noteName": "E3",
      "velocity": 0.8503937007874016,
      "duration": "68i"
    },
    {
      "time": "7776i",
      "midiNote": 55,
      "noteName": "G3",
      "velocity": 0.8503937007874016,
      "duration": "68i"
    },
    {
      "time": "7872i",
      "midiNote": 52,
      "noteName": "E3",
      "velocity": 0.8503937007874016,
      "duration": "45i"
    },
    {
      "time": "7872i",
      "midiNote": 57,
      "noteName": "A3",
      "velocity": 0.8503937007874016,
      "duration": "45i"
    },
    {
      "time": "7936i",
      "midiNote": 48,
      "noteName": "C3",
      "velocity": 0.8503937007874016,
      "duration": "21i"
    },
    {
      "time": "7968i",
      "midiNote": 52,
      "noteName": "E3",
      "velocity": 0.8503937007874016,
      "duration": "68i"
    },
    {
      "time": "7968i",
      "midiNote": 57,
      "noteName": "A3",
      "velocity": 0.8503937007874016,
      "duration": "68i"
    },
    {
      "time": "8064i",
      "midiNote": 52,
      "noteName": "E3",
      "velocity": 0.8503937007874016,
      "duration": "45i"
    },
    {
      "time": "8064i",
      "midiNote": 59,
      "noteName": "B3",
      "velocity": 0.8503937007874016,
      "duration": "45i"
    },
    {
      "time": "8128i",
      "midiNote": 48,
      "noteName": "C3",
      "velocity": 0.8503937007874016,
      "duration": "21i"
    },
    {
      "time": "8160i",
      "midiNote": 52,
      "noteName": "E3",
      "velocity": 0.8503937007874016,
      "duration": "45i"
    },
    {
      "time": "8160i",
      "midiNote": 59,
      "noteName": "B3",
      "velocity": 0.8503937007874016,
      "duration": "45i"
    },
    {
      "time": "8224i",
      "midiNote": 52,
      "noteName": "E3",
      "velocity": 0.8503937007874016,
      "duration": "68i"
    },
    {
      "time": "8224i",
      "midiNote": 57,
      "noteName": "A3",
      "velocity": 0.8503937007874016,
      "duration": "68i"
    },
    {
      "time": "8320i",
      "midiNote": 48,
      "noteName": "C3",
      "velocity": 0.8503937007874016,
      "duration": "21i"
    },
    {
      "time": "8320i",
      "midiNote": 56,
      "noteName": "G#3",
      "velocity": 0.8503937007874016,
      "duration": "21i"
    },
    {
      "time": "8352i",
      "midiNote": 52,
      "noteName": "E3",
      "velocity": 0.8503937007874016,
      "duration": "68i"
    },
    {
      "time": "8352i",
      "midiNote": 57,
      "noteName": "A3",
      "velocity": 0.8503937007874016,
      "duration": "68i"
    },
    {
      "time": "8448i",
      "midiNote": 52,
      "noteName": "E3",
      "velocity": 0.8503937007874016,
      "duration": "45i"
    },
    {
      "time": "8448i",
      "midiNote": 55,
      "noteName": "G3",
      "velocity": 0.8503937007874016,
      "duration": "45i"
    },
    {
      "time": "8448i",
      "midiNote": 60,
      "noteName": "C4",
      "velocity": 0.8503937007874016,
      "duration": "45i"
    },
    {
      "time": "8512i",
      "midiNote": 52,
      "noteName": "E3",
      "velocity": 0.8503937007874016,
      "duration": "30i"
    },
    {
      "time": "8512i",
      "midiNote": 55,
      "noteName": "G3",
      "velocity": 0.8503937007874016,
      "duration": "30i"
    },
    {
      "time": "8512i",
      "midiNote": 60,
      "noteName": "C4",
      "velocity": 0.8503937007874016,
      "duration": "30i"
    },
    {
      "time": "8736i",
      "midiNote": 52,
      "noteName": "E3",
      "velocity": 0.8503937007874016,
      "duration": "45i"
    },
    {
      "time": "8736i",
      "midiNote": 55,
      "noteName": "G3",
      "velocity": 0.8503937007874016,
      "duration": "45i"
    },
    {
      "time": "8736i",
      "midiNote": 60,
      "noteName": "C4",
      "velocity": 0.8503937007874016,
      "duration": "45i"
    },
    {
      "time": "8800i",
      "midiNote": 52,
      "noteName": "E3",
      "velocity": 0.8503937007874016,
      "duration": "30i"
    },
    {
      "time": "8800i",
      "midiNote": 55,
      "noteName": "G3",
      "velocity": 0.8503937007874016,
      "duration": "30i"
    },
    {
      "time": "8800i",
      "midiNote": 60,
      "noteName": "C4",
      "velocity": 0.8503937007874016,
      "duration": "30i"
    },
    {
      "time": "9216i",
      "midiNote": 52,
      "noteName": "E3",
      "velocity": 0.8503937007874016,
      "duration": "45i"
    },
    {
      "time": "9216i",
      "midiNote": 55,
      "noteName": "G3",
      "velocity": 0.8503937007874016,
      "duration": "45i"
    },
    {
      "time": "9280i",
      "midiNote": 48,
      "noteName": "C3",
      "velocity": 0.8503937007874016,
      "duration": "21i"
    },
    {
      "time": "9312i",
      "midiNote": 52,
      "noteName": "E3",
      "velocity": 0.8503937007874016,
      "duration": "68i"
    },
    {
      "time": "9312i",
      "midiNote": 55,
      "noteName": "G3",
      "velocity": 0.8503937007874016,
      "duration": "68i"
    },
    {
      "time": "9408i",
      "midiNote": 52,
      "noteName": "E3",
      "velocity": 0.8503937007874016,
      "duration": "45i"
    },
    {
      "time": "9408i",
      "midiNote": 57,
      "noteName": "A3",
      "velocity": 0.8503937007874016,
      "duration": "45i"
    },
    {
      "time": "9472i",
      "midiNote": 48,
      "noteName": "C3",
      "velocity": 0.8503937007874016,
      "duration": "21i"
    },
    {
      "time": "9504i",
      "midiNote": 52,
      "noteName": "E3",
      "velocity": 0.8503937007874016,
      "duration": "68i"
    },
    {
      "time": "9504i",
      "midiNote": 57,
      "noteName": "A3",
      "velocity": 0.8503937007874016,
      "duration": "68i"
    },
    {
      "time": "9600i",
      "midiNote": 52,
      "noteName": "E3",
      "velocity": 0.8503937007874016,
      "duration": "45i"
    },
    {
      "time": "9600i",
      "midiNote": 59,
      "noteName": "B3",
      "velocity": 0.8503937007874016,
      "duration": "45i"
    },
    {
      "time": "9664i",
      "midiNote": 48,
      "noteName": "C3",
      "velocity": 0.8503937007874016,
      "duration": "21i"
    },
    {
      "time": "9696i",
      "midiNote": 52,
      "noteName": "E3",
      "velocity": 0.8503937007874016,
      "duration": "45i"
    },
    {
      "time": "9696i",
      "midiNote": 59,
      "noteName": "B3",
      "velocity": 0.8503937007874016,
      "duration": "45i"
    },
    {
      "time": "9760i",
      "midiNote": 52,
      "noteName": "E3",
      "velocity": 0.8503937007874016,
      "duration": "68i"
    },
    {
      "time": "9760i",
      "midiNote": 57,
      "noteName": "A3",
      "velocity": 0.8503937007874016,
      "duration": "68i"
    },
    {
      "time": "9856i",
      "midiNote": 48,
      "noteName": "C3",
      "velocity": 0.8503937007874016,
      "duration": "21i"
    },
    {
      "time": "9856i",
      "midiNote": 56,
      "noteName": "G#3",
      "velocity": 0.8503937007874016,
      "duration": "21i"
    },
    {
      "time": "9888i",
      "midiNote": 52,
      "noteName": "E3",
      "velocity": 0.8503937007874016,
      "duration": "68i"
    },
    {
      "time": "9888i",
      "midiNote": 57,
      "noteName": "A3",
      "velocity": 0.8503937007874016,
      "duration": "68i"
    },
    {
      "time": "9984i",
      "midiNote": 52,
      "noteName": "E3",
      "velocity": 0.8503937007874016,
      "duration": "45i"
    },
    {
      "time": "9984i",
      "midiNote": 55,
      "noteName": "G3",
      "velocity": 0.8503937007874016,
      "duration": "45i"
    },
    {
      "time": "10048i",
      "midiNote": 48,
      "noteName": "C3",
      "velocity": 0.8503937007874016,
      "duration": "21i"
    },
    {
      "time": "10080i",
      "midiNote": 52,
      "noteName": "E3",
      "velocity": 0.8503937007874016,
      "duration": "68i"
    },
    {
      "time": "10080i",
      "midiNote": 55,
      "noteName": "G3",
      "velocity": 0.8503937007874016,
      "duration": "68i"
    },
    {
      "time": "10176i",
      "midiNote": 52,
      "noteName": "E3",
      "velocity": 0.8503937007874016,
      "duration": "45i"
    },
    {
      "time": "10176i",
      "midiNote": 57,
      "noteName": "A3",
      "velocity": 0.8503937007874016,
      "duration": "45i"
    },
    {
      "time": "10240i",
      "midiNote": 48,
      "noteName": "C3",
      "velocity": 0.8503937007874016,
      "duration": "21i"
    },
    {
      "time": "10272i",
      "midiNote": 52,
      "noteName": "E3",
      "velocity": 0.8503937007874016,
      "duration": "45i"
    },
    {
      "time": "10272i",
      "midiNote": 57,
      "noteName": "A3",
      "velocity": 0.8503937007874016,
      "duration": "45i"
    },
    {
      "time": "10336i",
      "midiNote": 52,
      "noteName": "E3",
      "velocity": 0.8503937007874016,
      "duration": "32i"
    },
    {
      "time": "10336i",
      "midiNote": 59,
      "noteName": "B3",
      "velocity": 0.8503937007874016,
      "duration": "32i"
    },
    {
      "time": "10752i",
      "midiNote": 57,
      "noteName": "A3",
      "velocity": 0.8503937007874016,
      "duration": "45i"
    },
    {
      "time": "10752i",
      "midiNote": 60,
      "noteName": "C4",
      "velocity": 0.8503937007874016,
      "duration": "45i"
    },
    {
      "time": "10816i",
      "midiNote": 53,
      "noteName": "F3",
      "velocity": 0.8503937007874016,
      "duration": "21i"
    },
    {
      "time": "10848i",
      "midiNote": 57,
      "noteName": "A3",
      "velocity": 0.8503937007874016,
      "duration": "68i"
    },
    {
      "time": "10848i",
      "midiNote": 60,
      "noteName": "C4",
      "velocity": 0.8503937007874016,
      "duration": "68i"
    },
    {
      "time": "10944i",
      "midiNote": 57,
      "noteName": "A3",
      "velocity": 0.8503937007874016,
      "duration": "45i"
    },
    {
      "time": "10944i",
      "midiNote": 62,
      "noteName": "D4",
      "velocity": 0.8503937007874016,
      "duration": "45i"
    },
    {
      "time": "11008i",
      "midiNote": 53,
      "noteName": "F3",
      "velocity": 0.8503937007874016,
      "duration": "21i"
    },
    {
      "time": "11040i",
      "midiNote": 57,
      "noteName": "A3",
      "velocity": 0.8503937007874016,
      "duration": "68i"
    },
    {
      "time": "11040i",
      "midiNote": 62,
      "noteName": "D4",
      "velocity": 0.8503937007874016,
      "duration": "68i"
    },
    {
      "time": "11136i",
      "midiNote": 57,
      "noteName": "A3",
      "velocity": 0.8503937007874016,
      "duration": "45i"
    },
    {
      "time": "11136i",
      "midiNote": 64,
      "noteName": "E4",
      "velocity": 0.8503937007874016,
      "duration": "45i"
    },
    {
      "time": "11200i",
      "midiNote": 53,
      "noteName": "F3",
      "velocity": 0.8503937007874016,
      "duration": "21i"
    },
    {
      "time": "11232i",
      "midiNote": 57,
      "noteName": "A3",
      "velocity": 0.8503937007874016,
      "duration": "45i"
    },
    {
      "time": "11232i",
      "midiNote": 64,
      "noteName": "E4",
      "velocity": 0.8503937007874016,
      "duration": "45i"
    },
    {
      "time": "11296i",
      "midiNote": 57,
      "noteName": "A3",
      "velocity": 0.8503937007874016,
      "duration": "68i"
    },
    {
      "time": "11296i",
      "midiNote": 62,
      "noteName": "D4",
      "velocity": 0.8503937007874016,
      "duration": "68i"
    },
    {
      "time": "11392i",
      "midiNote": 56,
      "noteName": "G#3",
      "velocity": 0.8503937007874016,
      "duration": "21i"
    },
    {
      "time": "11392i",
      "midiNote": 61,
      "noteName": "C#4",
      "velocity": 0.8503937007874016,
      "duration": "21i"
    },
    {
      "time": "11424i",
      "midiNote": 57,
      "noteName": "A3",
      "velocity": 0.8503937007874016,
      "duration": "68i"
    },
    {
      "time": "11424i",
      "midiNote": 62,
      "noteName": "D4",
      "velocity": 0.8503937007874016,
      "duration": "68i"
    },
    {
      "time": "11520i",
      "midiNote": 57,
      "noteName": "A3",
      "velocity": 0.8503937007874016,
      "duration": "45i"
    },
    {
      "time": "11520i",
      "midiNote": 60,
      "noteName": "C4",
      "velocity": 0.8503937007874016,
      "duration": "45i"
    },
    {
      "time": "11584i",
      "midiNote": 53,
      "noteName": "F3",
      "velocity": 0.8503937007874016,
      "duration": "21i"
    },
    {
      "time": "11616i",
      "midiNote": 57,
      "noteName": "A3",
      "velocity": 0.8503937007874016,
      "duration": "68i"
    },
    {
      "time": "11616i",
      "midiNote": 60,
      "noteName": "C4",
      "velocity": 0.8503937007874016,
      "duration": "68i"
    },
    {
      "time": "11712i",
      "midiNote": 57,
      "noteName": "A3",
      "velocity": 0.8503937007874016,
      "duration": "45i"
    },
    {
      "time": "11712i",
      "midiNote": 62,
      "noteName": "D4",
      "velocity": 0.8503937007874016,
      "duration": "45i"
    },
    {
      "time": "11776i",
      "midiNote": 53,
      "noteName": "F3",
      "velocity": 0.8503937007874016,
      "duration": "21i"
    },
    {
      "time": "11808i",
      "midiNote": 57,
      "noteName": "A3",
      "velocity": 0.8503937007874016,
      "duration": "45i"
    },
    {
      "time": "11808i",
      "midiNote": 62,
      "noteName": "D4",
      "velocity": 0.8503937007874016,
      "duration": "45i"
    },
    {
      "time": "11872i",
      "midiNote": 57,
      "noteName": "A3",
      "velocity": 0.8503937007874016,
      "duration": "32i"
    },
    {
      "time": "11872i",
      "midiNote": 64,
      "noteName": "E4",
      "velocity": 0.8503937007874016,
      "duration": "32i"
    },
    {
      "time": "12288i",
      "midiNote": 52,
      "noteName": "E3",
      "velocity": 0.8503937007874016,
      "duration": "45i"
    },
    {
      "time": "12288i",
      "midiNote": 55,
      "noteName": "G3",
      "velocity": 0.8503937007874016,
      "duration": "45i"
    },
    {
      "time": "12352i",
      "midiNote": 48,
      "noteName": "C3",
      "velocity": 0.8503937007874016,
      "duration": "21i"
    },
    {
      "time": "12384i",
      "midiNote": 52,
      "noteName": "E3",
      "velocity": 0.8503937007874016,
      "duration": "68i"
    },
    {
      "time": "12384i",
      "midiNote": 55,
      "noteName": "G3",
      "velocity": 0.8503937007874016,
      "duration": "68i"
    },
    {
      "time": "12480i",
      "midiNote": 52,
      "noteName": "E3",
      "velocity": 0.8503937007874016,
      "duration": "45i"
    },
    {
      "time": "12480i",
      "midiNote": 57,
      "noteName": "A3",
      "velocity": 0.8503937007874016,
      "duration": "45i"
    },
    {
      "time": "12544i",
      "midiNote": 48,
      "noteName": "C3",
      "velocity": 0.8503937007874016,
      "duration": "21i"
    },
    {
      "time": "12576i",
      "midiNote": 52,
      "noteName": "E3",
      "velocity": 0.8503937007874016,
      "duration": "68i"
    },
    {
      "time": "12576i",
      "midiNote": 57,
      "noteName": "A3",
      "velocity": 0.8503937007874016,
      "duration": "68i"
    },
    {
      "time": "12672i",
      "midiNote": 52,
      "noteName": "E3",
      "velocity": 0.8503937007874016,
      "duration": "45i"
    },
    {
      "time": "12672i",
      "midiNote": 59,
      "noteName": "B3",
      "velocity": 0.8503937007874016,
      "duration": "45i"
    },
    {
      "time": "12736i",
      "midiNote": 48,
      "noteName": "C3",
      "velocity": 0.8503937007874016,
      "duration": "21i"
    },
    {
      "time": "12768i",
      "midiNote": 52,
      "noteName": "E3",
      "velocity": 0.8503937007874016,
      "duration": "45i"
    },
    {
      "time": "12768i",
      "midiNote": 59,
      "noteName": "B3",
      "velocity": 0.8503937007874016,
      "duration": "45i"
    },
    {
      "time": "12832i",
      "midiNote": 52,
      "noteName": "E3",
      "velocity": 0.8503937007874016,
      "duration": "68i"
    },
    {
      "time": "12832i",
      "midiNote": 57,
      "noteName": "A3",
      "velocity": 0.8503937007874016,
      "duration": "68i"
    },
    {
      "time": "12928i",
      "midiNote": 48,
      "noteName": "C3",
      "velocity": 0.8503937007874016,
      "duration": "21i"
    },
    {
      "time": "12928i",
      "midiNote": 56,
      "noteName": "G#3",
      "velocity": 0.8503937007874016,
      "duration": "21i"
    },
    {
      "time": "12960i",
      "midiNote": 52,
      "noteName": "E3",
      "velocity": 0.8503937007874016,
      "duration": "68i"
    },
    {
      "time": "12960i",
      "midiNote": 57,
      "noteName": "A3",
      "velocity": 0.8503937007874016,
      "duration": "68i"
    },
    {
      "time": "13056i",
      "midiNote": 52,
      "noteName": "E3",
      "velocity": 0.8503937007874016,
      "duration": "45i"
    },
    {
      "time": "13056i",
      "midiNote": 55,
      "noteName": "G3",
      "velocity": 0.8503937007874016,
      "duration": "45i"
    },
    {
      "time": "13056i",
      "midiNote": 60,
      "noteName": "C4",
      "velocity": 0.8503937007874016,
      "duration": "45i"
    },
    {
      "time": "13120i",
      "midiNote": 52,
      "noteName": "E3",
      "velocity": 0.8503937007874016,
      "duration": "30i"
    },
    {
      "time": "13120i",
      "midiNote": 55,
      "noteName": "G3",
      "velocity": 0.8503937007874016,
      "duration": "30i"
    },
    {
      "time": "13120i",
      "midiNote": 60,
      "noteName": "C4",
      "velocity": 0.8503937007874016,
      "duration": "30i"
    },
    {
      "time": "13344i",
      "midiNote": 52,
      "noteName": "E3",
      "velocity": 0.8503937007874016,
      "duration": "45i"
    },
    {
      "time": "13344i",
      "midiNote": 55,
      "noteName": "G3",
      "velocity": 0.8503937007874016,
      "duration": "45i"
    },
    {
      "time": "13344i",
      "midiNote": 60,
      "noteName": "C4",
      "velocity": 0.8503937007874016,
      "duration": "45i"
    },
    {
      "time": "13408i",
      "midiNote": 52,
      "noteName": "E3",
      "velocity": 0.8503937007874016,
      "duration": "30i"
    },
    {
      "time": "13408i",
      "midiNote": 55,
      "noteName": "G3",
      "velocity": 0.8503937007874016,
      "duration": "30i"
    },
    {
      "time": "13408i",
      "midiNote": 60,
      "noteName": "C4",
      "velocity": 0.8503937007874016,
      "duration": "30i"
    },
    {
      "time": "13824i",
      "midiNote": 52,
      "noteName": "E3",
      "velocity": 0.8503937007874016,
      "duration": "45i"
    },
    {
      "time": "13824i",
      "midiNote": 55,
      "noteName": "G3",
      "velocity": 0.8503937007874016,
      "duration": "45i"
    },
    {
      "time": "13888i",
      "midiNote": 48,
      "noteName": "C3",
      "velocity": 0.8503937007874016,
      "duration": "21i"
    },
    {
      "time": "13920i",
      "midiNote": 52,
      "noteName": "E3",
      "velocity": 0.8503937007874016,
      "duration": "68i"
    },
    {
      "time": "13920i",
      "midiNote": 55,
      "noteName": "G3",
      "velocity": 0.8503937007874016,
      "duration": "68i"
    },
    {
      "time": "14016i",
      "midiNote": 52,
      "noteName": "E3",
      "velocity": 0.8503937007874016,
      "duration": "45i"
    },
    {
      "time": "14016i",
      "midiNote": 57,
      "noteName": "A3",
      "velocity": 0.8503937007874016,
      "duration": "45i"
    },
    {
      "time": "14080i",
      "midiNote": 48,
      "noteName": "C3",
      "velocity": 0.8503937007874016,
      "duration": "21i"
    },
    {
      "time": "14112i",
      "midiNote": 52,
      "noteName": "E3",
      "velocity": 0.8503937007874016,
      "duration": "68i"
    },
    {
      "time": "14112i",
      "midiNote": 57,
      "noteName": "A3",
      "velocity": 0.8503937007874016,
      "duration": "68i"
    },
    {
      "time": "14208i",
      "midiNote": 52,
      "noteName": "E3",
      "velocity": 0.8503937007874016,
      "duration": "45i"
    },
    {
      "time": "14208i",
      "midiNote": 59,
      "noteName": "B3",
      "velocity": 0.8503937007874016,
      "duration": "45i"
    },
    {
      "time": "14272i",
      "midiNote": 48,
      "noteName": "C3",
      "velocity": 0.8503937007874016,
      "duration": "21i"
    },
    {
      "time": "14304i",
      "midiNote": 52,
      "noteName": "E3",
      "velocity": 0.8503937007874016,
      "duration": "45i"
    },
    {
      "time": "14304i",
      "midiNote": 59,
      "noteName": "B3",
      "velocity": 0.8503937007874016,
      "duration": "45i"
    },
    {
      "time": "14368i",
      "midiNote": 52,
      "noteName": "E3",
      "velocity": 0.8503937007874016,
      "duration": "68i"
    },
    {
      "time": "14368i",
      "midiNote": 57,
      "noteName": "A3",
      "velocity": 0.8503937007874016,
      "duration": "68i"
    },
    {
      "time": "14464i",
      "midiNote": 48,
      "noteName": "C3",
      "velocity": 0.8503937007874016,
      "duration": "21i"
    },
    {
      "time": "14464i",
      "midiNote": 56,
      "noteName": "G#3",
      "velocity": 0.8503937007874016,
      "duration": "21i"
    },
    {
      "time": "14496i",
      "midiNote": 52,
      "noteName": "E3",
      "velocity": 0.8503937007874016,
      "duration": "68i"
    },
    {
      "time": "14496i",
      "midiNote": 57,
      "noteName": "A3",
      "velocity": 0.8503937007874016,
      "duration": "68i"
    },
    {
      "time": "14592i",
      "midiNote": 52,
      "noteName": "E3",
      "velocity": 0.8503937007874016,
      "duration": "45i"
    },
    {
      "time": "14592i",
      "midiNote": 55,
      "noteName": "G3",
      "velocity": 0.8503937007874016,
      "duration": "45i"
    },
    {
      "time": "14656i",
      "midiNote": 48,
      "noteName": "C3",
      "velocity": 0.8503937007874016,
      "duration": "21i"
    },
    {
      "time": "14688i",
      "midiNote": 52,
      "noteName": "E3",
      "velocity": 0.8503937007874016,
      "duration": "68i"
    },
    {
      "time": "14688i",
      "midiNote": 55,
      "noteName": "G3",
      "velocity": 0.8503937007874016,
      "duration": "68i"
    },
    {
      "time": "14784i",
      "midiNote": 52,
      "noteName": "E3",
      "velocity": 0.8503937007874016,
      "duration": "45i"
    },
    {
      "time": "14784i",
      "midiNote": 57,
      "noteName": "A3",
      "velocity": 0.8503937007874016,
      "duration": "45i"
    },
    {
      "time": "14848i",
      "midiNote": 48,
      "noteName": "C3",
      "velocity": 0.8503937007874016,
      "duration": "21i"
    },
    {
      "time": "14880i",
      "midiNote": 52,
      "noteName": "E3",
      "velocity": 0.8503937007874016,
      "duration": "45i"
    },
    {
      "time": "14880i",
      "midiNote": 57,
      "noteName": "A3",
      "velocity": 0.8503937007874016,
      "duration": "45i"
    },
    {
      "time": "14944i",
      "midiNote": 52,
      "noteName": "E3",
      "velocity": 0.8503937007874016,
      "duration": "32i"
    },
    {
      "time": "14944i",
      "midiNote": 59,
      "noteName": "B3",
      "velocity": 0.8503937007874016,
      "duration": "32i"
    },
    {
      "time": "15360i",
      "midiNote": 57,
      "noteName": "A3",
      "velocity": 0.8503937007874016,
      "duration": "45i"
    },
    {
      "time": "15360i",
      "midiNote": 60,
      "noteName": "C4",
      "velocity": 0.8503937007874016,
      "duration": "45i"
    },
    {
      "time": "15424i",
      "midiNote": 53,
      "noteName": "F3",
      "velocity": 0.8503937007874016,
      "duration": "21i"
    },
    {
      "time": "15456i",
      "midiNote": 57,
      "noteName": "A3",
      "velocity": 0.8503937007874016,
      "duration": "68i"
    },
    {
      "time": "15456i",
      "midiNote": 60,
      "noteName": "C4",
      "velocity": 0.8503937007874016,
      "duration": "68i"
    },
    {
      "time": "15552i",
      "midiNote": 57,
      "noteName": "A3",
      "velocity": 0.8503937007874016,
      "duration": "45i"
    },
    {
      "time": "15552i",
      "midiNote": 62,
      "noteName": "D4",
      "velocity": 0.8503937007874016,
      "duration": "45i"
    },
    {
      "time": "15616i",
      "midiNote": 53,
      "noteName": "F3",
      "velocity": 0.8503937007874016,
      "duration": "21i"
    },
    {
      "time": "15648i",
      "midiNote": 57,
      "noteName": "A3",
      "velocity": 0.8503937007874016,
      "duration": "68i"
    },
    {
      "time": "15648i",
      "midiNote": 62,
      "noteName": "D4",
      "velocity": 0.8503937007874016,
      "duration": "68i"
    },
    {
      "time": "15744i",
      "midiNote": 57,
      "noteName": "A3",
      "velocity": 0.8503937007874016,
      "duration": "45i"
    },
    {
      "time": "15744i",
      "midiNote": 64,
      "noteName": "E4",
      "velocity": 0.8503937007874016,
      "duration": "45i"
    },
    {
      "time": "15808i",
      "midiNote": 53,
      "noteName": "F3",
      "velocity": 0.8503937007874016,
      "duration": "21i"
    },
    {
      "time": "15840i",
      "midiNote": 57,
      "noteName": "A3",
      "velocity": 0.8503937007874016,
      "duration": "45i"
    },
    {
      "time": "15840i",
      "midiNote": 64,
      "noteName": "E4",
      "velocity": 0.8503937007874016,
      "duration": "45i"
    },
    {
      "time": "15904i",
      "midiNote": 57,
      "noteName": "A3",
      "velocity": 0.8503937007874016,
      "duration": "68i"
    },
    {
      "time": "15904i",
      "midiNote": 62,
      "noteName": "D4",
      "velocity": 0.8503937007874016,
      "duration": "68i"
    },
    {
      "time": "16000i",
      "midiNote": 56,
      "noteName": "G#3",
      "velocity": 0.8503937007874016,
      "duration": "21i"
    },
    {
      "time": "16000i",
      "midiNote": 61,
      "noteName": "C#4",
      "velocity": 0.8503937007874016,
      "duration": "21i"
    },
    {
      "time": "16032i",
      "midiNote": 57,
      "noteName": "A3",
      "velocity": 0.8503937007874016,
      "duration": "68i"
    },
    {
      "time": "16032i",
      "midiNote": 62,
      "noteName": "D4",
      "velocity": 0.8503937007874016,
      "duration": "68i"
    },
    {
      "time": "16128i",
      "midiNote": 57,
      "noteName": "A3",
      "velocity": 0.8503937007874016,
      "duration": "45i"
    },
    {
      "time": "16128i",
      "midiNote": 60,
      "noteName": "C4",
      "velocity": 0.8503937007874016,
      "duration": "45i"
    },
    {
      "time": "16192i",
      "midiNote": 53,
      "noteName": "F3",
      "velocity": 0.8503937007874016,
      "duration": "21i"
    },
    {
      "time": "16224i",
      "midiNote": 57,
      "noteName": "A3",
      "velocity": 0.8503937007874016,
      "duration": "68i"
    },
    {
      "time": "16224i",
      "midiNote": 60,
      "noteName": "C4",
      "velocity": 0.8503937007874016,
      "duration": "68i"
    },
    {
      "time": "16320i",
      "midiNote": 57,
      "noteName": "A3",
      "velocity": 0.8503937007874016,
      "duration": "45i"
    },
    {
      "time": "16320i",
      "midiNote": 62,
      "noteName": "D4",
      "velocity": 0.8503937007874016,
      "duration": "45i"
    },
    {
      "time": "16384i",
      "midiNote": 53,
      "noteName": "F3",
      "velocity": 0.8503937007874016,
      "duration": "21i"
    },
    {
      "time": "16416i",
      "midiNote": 57,
      "noteName": "A3",
      "velocity": 0.8503937007874016,
      "duration": "45i"
    },
    {
      "time": "16416i",
      "midiNote": 62,
      "noteName": "D4",
      "velocity": 0.8503937007874016,
      "duration": "45i"
    },
    {
      "time": "16480i",
      "midiNote": 57,
      "noteName": "A3",
      "velocity": 0.8503937007874016,
      "duration": "32i"
    },
    {
      "time": "16480i",
      "midiNote": 64,
      "noteName": "E4",
      "velocity": 0.8503937007874016,
      "duration": "32i"
    },
    {
      "time": "16896i",
      "midiNote": 52,
      "noteName": "E3",
      "velocity": 0.8503937007874016,
      "duration": "45i"
    },
    {
      "time": "16896i",
      "midiNote": 55,
      "noteName": "G3",
      "velocity": 0.8503937007874016,
      "duration": "45i"
    },
    {
      "time": "16960i",
      "midiNote": 48,
      "noteName": "C3",
      "velocity": 0.8503937007874016,
      "duration": "21i"
    },
    {
      "time": "16992i",
      "midiNote": 52,
      "noteName": "E3",
      "velocity": 0.8503937007874016,
      "duration": "68i"
    },
    {
      "time": "16992i",
      "midiNote": 55,
      "noteName": "G3",
      "velocity": 0.8503937007874016,
      "duration": "68i"
    },
    {
      "time": "17088i",
      "midiNote": 52,
      "noteName": "E3",
      "velocity": 0.8503937007874016,
      "duration": "45i"
    },
    {
      "time": "17088i",
      "midiNote": 57,
      "noteName": "A3",
      "velocity": 0.8503937007874016,
      "duration": "45i"
    },
    {
      "time": "17152i",
      "midiNote": 48,
      "noteName": "C3",
      "velocity": 0.8503937007874016,
      "duration": "21i"
    },
    {
      "time": "17184i",
      "midiNote": 52,
      "noteName": "E3",
      "velocity": 0.8503937007874016,
      "duration": "68i"
    },
    {
      "time": "17184i",
      "midiNote": 57,
      "noteName": "A3",
      "velocity": 0.8503937007874016,
      "duration": "68i"
    },
    {
      "time": "17280i",
      "midiNote": 52,
      "noteName": "E3",
      "velocity": 0.8503937007874016,
      "duration": "45i"
    },
    {
      "time": "17280i",
      "midiNote": 59,
      "noteName": "B3",
      "velocity": 0.8503937007874016,
      "duration": "45i"
    },
    {
      "time": "17344i",
      "midiNote": 48,
      "noteName": "C3",
      "velocity": 0.8503937007874016,
      "duration": "21i"
    },
    {
      "time": "17376i",
      "midiNote": 52,
      "noteName": "E3",
      "velocity": 0.8503937007874016,
      "duration": "45i"
    },
    {
      "time": "17376i",
      "midiNote": 59,
      "noteName": "B3",
      "velocity": 0.8503937007874016,
      "duration": "45i"
    },
    {
      "time": "17440i",
      "midiNote": 52,
      "noteName": "E3",
      "velocity": 0.8503937007874016,
      "duration": "68i"
    },
    {
      "time": "17440i",
      "midiNote": 57,
      "noteName": "A3",
      "velocity": 0.8503937007874016,
      "duration": "68i"
    },
    {
      "time": "17536i",
      "midiNote": 48,
      "noteName": "C3",
      "velocity": 0.8503937007874016,
      "duration": "21i"
    },
    {
      "time": "17536i",
      "midiNote": 56,
      "noteName": "G#3",
      "velocity": 0.8503937007874016,
      "duration": "21i"
    },
    {
      "time": "17568i",
      "midiNote": 52,
      "noteName": "E3",
      "velocity": 0.8503937007874016,
      "duration": "68i"
    },
    {
      "time": "17568i",
      "midiNote": 57,
      "noteName": "A3",
      "velocity": 0.8503937007874016,
      "duration": "68i"
    },
    {
      "time": "17664i",
      "midiNote": 52,
      "noteName": "E3",
      "velocity": 0.8503937007874016,
      "duration": "45i"
    },
    {
      "time": "17664i",
      "midiNote": 55,
      "noteName": "G3",
      "velocity": 0.8503937007874016,
      "duration": "45i"
    },
    {
      "time": "17664i",
      "midiNote": 60,
      "noteName": "C4",
      "velocity": 0.8503937007874016,
      "duration": "45i"
    },
    {
      "time": "17728i",
      "midiNote": 52,
      "noteName": "E3",
      "velocity": 0.8503937007874016,
      "duration": "30i"
    },
    {
      "time": "17728i",
      "midiNote": 55,
      "noteName": "G3",
      "velocity": 0.8503937007874016,
      "duration": "30i"
    },
    {
      "time": "17728i",
      "midiNote": 60,
      "noteName": "C4",
      "velocity": 0.8503937007874016,
      "duration": "30i"
    },
    {
      "time": "17952i",
      "midiNote": 52,
      "noteName": "E3",
      "velocity": 0.8503937007874016,
      "duration": "45i"
    },
    {
      "time": "17952i",
      "midiNote": 55,
      "noteName": "G3",
      "velocity": 0.8503937007874016,
      "duration": "45i"
    },
    {
      "time": "17952i",
      "midiNote": 60,
      "noteName": "C4",
      "velocity": 0.8503937007874016,
      "duration": "45i"
    },
    {
      "time": "18016i",
      "midiNote": 52,
      "noteName": "E3",
      "velocity": 0.8503937007874016,
      "duration": "30i"
    },
    {
      "time": "18016i",
      "midiNote": 55,
      "noteName": "G3",
      "velocity": 0.8503937007874016,
      "duration": "30i"
    },
    {
      "time": "18016i",
      "midiNote": 60,
      "noteName": "C4",
      "velocity": 0.8503937007874016,
      "duration": "30i"
    }
  ],
  [
    {
      "time": "0i",
      "midiNote": 36,
      "noteName": "C2",
      "velocity": 0.7244094488188977,
      "duration": "94i"
    },
    {
      "time": "0i",
      "midiNote": 42,
      "noteName": "F#2",
      "velocity": 0.7244094488188977,
      "duration": "94i"
    },
    {
      "time": "96i",
      "midiNote": 42,
      "noteName": "F#2",
      "velocity": 0.7244094488188977,
      "duration": "62i"
    },
    {
      "time": "160i",
      "midiNote": 42,
      "noteName": "F#2",
      "velocity": 0.7244094488188977,
      "duration": "30i"
    },
    {
      "time": "192i",
      "midiNote": 40,
      "noteName": "E2",
      "velocity": 0.7244094488188977,
      "duration": "94i"
    },
    {
      "time": "192i",
      "midiNote": 42,
      "noteName": "F#2",
      "velocity": 0.7244094488188977,
      "duration": "94i"
    },
    {
      "time": "288i",
      "midiNote": 42,
      "noteName": "F#2",
      "velocity": 0.7244094488188977,
      "duration": "62i"
    },
    {
      "time": "352i",
      "midiNote": 36,
      "noteName": "C2",
      "velocity": 0.7244094488188977,
      "duration": "30i"
    },
    {
      "time": "352i",
      "midiNote": 42,
      "noteName": "F#2",
      "velocity": 0.7244094488188977,
      "duration": "30i"
    },
    {
      "time": "384i",
      "midiNote": 36,
      "noteName": "C2",
      "velocity": 0.7244094488188977,
      "duration": "94i"
    },
    {
      "time": "384i",
      "midiNote": 42,
      "noteName": "F#2",
      "velocity": 0.7244094488188977,
      "duration": "94i"
    },
    {
      "time": "480i",
      "midiNote": 42,
      "noteName": "F#2",
      "velocity": 0.7244094488188977,
      "duration": "62i"
    },
    {
      "time": "544i",
      "midiNote": 42,
      "noteName": "F#2",
      "velocity": 0.7244094488188977,
      "duration": "30i"
    },
    {
      "time": "576i",
      "midiNote": 40,
      "noteName": "E2",
      "velocity": 0.7244094488188977,
      "duration": "62i"
    },
    {
      "time": "576i",
      "midiNote": 42,
      "noteName": "F#2",
      "velocity": 0.7244094488188977,
      "duration": "62i"
    },
    {
      "time": "640i",
      "midiNote": 44,
      "noteName": "G#2",
      "velocity": 0.7244094488188977,
      "duration": "30i"
    },
    {
      "time": "672i",
      "midiNote": 42,
      "noteName": "F#2",
      "velocity": 0.7244094488188977,
      "duration": "62i"
    },
    {
      "time": "736i",
      "midiNote": 36,
      "noteName": "C2",
      "velocity": 0.7244094488188977,
      "duration": "30i"
    },
    {
      "time": "736i",
      "midiNote": 42,
      "noteName": "F#2",
      "velocity": 0.7244094488188977,
      "duration": "30i"
    },
    {
      "time": "768i",
      "midiNote": 36,
      "noteName": "C2",
      "velocity": 0.7244094488188977,
      "duration": "94i"
    },
    {
      "time": "768i",
      "midiNote": 42,
      "noteName": "F#2",
      "velocity": 0.7244094488188977,
      "duration": "94i"
    },
    {
      "time": "864i",
      "midiNote": 42,
      "noteName": "F#2",
      "velocity": 0.7244094488188977,
      "duration": "62i"
    },
    {
      "time": "928i",
      "midiNote": 42,
      "noteName": "F#2",
      "velocity": 0.7244094488188977,
      "duration": "30i"
    },
    {
      "time": "960i",
      "midiNote": 40,
      "noteName": "E2",
      "velocity": 0.7244094488188977,
      "duration": "94i"
    },
    {
      "time": "960i",
      "midiNote": 42,
      "noteName": "F#2",
      "velocity": 0.7244094488188977,
      "duration": "94i"
    },
    {
      "time": "1056i",
      "midiNote": 42,
      "noteName": "F#2",
      "velocity": 0.7244094488188977,
      "duration": "62i"
    },
    {
      "time": "1056i",
      "midiNote": 60,
      "noteName": "C4",
      "velocity": 0.7244094488188977,
      "duration": "62i"
    },
    {
      "time": "1120i",
      "midiNote": 36,
      "noteName": "C2",
      "velocity": 0.7244094488188977,
      "duration": "30i"
    },
    {
      "time": "1120i",
      "midiNote": 42,
      "noteName": "F#2",
      "velocity": 0.7244094488188977,
      "duration": "30i"
    },
    {
      "time": "1120i",
      "midiNote": 60,
      "noteName": "C4",
      "velocity": 0.7244094488188977,
      "duration": "30i"
    },
    {
      "time": "1152i",
      "midiNote": 36,
      "noteName": "C2",
      "velocity": 0.7244094488188977,
      "duration": "94i"
    },
    {
      "time": "1152i",
      "midiNote": 42,
      "noteName": "F#2",
      "velocity": 0.7244094488188977,
      "duration": "94i"
    },
    {
      "time": "1248i",
      "midiNote": 42,
      "noteName": "F#2",
      "velocity": 0.7244094488188977,
      "duration": "62i"
    },
    {
      "time": "1312i",
      "midiNote": 42,
      "noteName": "F#2",
      "velocity": 0.7244094488188977,
      "duration": "30i"
    },
    {
      "time": "1344i",
      "midiNote": 40,
      "noteName": "E2",
      "velocity": 0.7244094488188977,
      "duration": "62i"
    },
    {
      "time": "1344i",
      "midiNote": 42,
      "noteName": "F#2",
      "velocity": 0.7244094488188977,
      "duration": "62i"
    },
    {
      "time": "1408i",
      "midiNote": 44,
      "noteName": "G#2",
      "velocity": 0.7244094488188977,
      "duration": "30i"
    },
    {
      "time": "1440i",
      "midiNote": 42,
      "noteName": "F#2",
      "velocity": 0.7244094488188977,
      "duration": "62i"
    },
    {
      "time": "1504i",
      "midiNote": 36,
      "noteName": "C2",
      "velocity": 0.7244094488188977,
      "duration": "30i"
    },
    {
      "time": "1504i",
      "midiNote": 42,
      "noteName": "F#2",
      "velocity": 0.7244094488188977,
      "duration": "30i"
    },
    {
      "time": "1536i",
      "midiNote": 36,
      "noteName": "C2",
      "velocity": 0.7244094488188977,
      "duration": "94i"
    },
    {
      "time": "1536i",
      "midiNote": 42,
      "noteName": "F#2",
      "velocity": 0.7244094488188977,
      "duration": "94i"
    },
    {
      "time": "1632i",
      "midiNote": 42,
      "noteName": "F#2",
      "velocity": 0.7244094488188977,
      "duration": "62i"
    },
    {
      "time": "1696i",
      "midiNote": 42,
      "noteName": "F#2",
      "velocity": 0.7244094488188977,
      "duration": "30i"
    },
    {
      "time": "1728i",
      "midiNote": 40,
      "noteName": "E2",
      "velocity": 0.7244094488188977,
      "duration": "94i"
    },
    {
      "time": "1728i",
      "midiNote": 42,
      "noteName": "F#2",
      "velocity": 0.7244094488188977,
      "duration": "94i"
    },
    {
      "time": "1824i",
      "midiNote": 42,
      "noteName": "F#2",
      "velocity": 0.7244094488188977,
      "duration": "62i"
    },
    {
      "time": "1888i",
      "midiNote": 36,
      "noteName": "C2",
      "velocity": 0.7244094488188977,
      "duration": "30i"
    },
    {
      "time": "1888i",
      "midiNote": 42,
      "noteName": "F#2",
      "velocity": 0.7244094488188977,
      "duration": "30i"
    },
    {
      "time": "1920i",
      "midiNote": 36,
      "noteName": "C2",
      "velocity": 0.7244094488188977,
      "duration": "94i"
    },
    {
      "time": "1920i",
      "midiNote": 42,
      "noteName": "F#2",
      "velocity": 0.7244094488188977,
      "duration": "94i"
    },
    {
      "time": "2016i",
      "midiNote": 42,
      "noteName": "F#2",
      "velocity": 0.7244094488188977,
      "duration": "62i"
    },
    {
      "time": "2080i",
      "midiNote": 42,
      "noteName": "F#2",
      "velocity": 0.7244094488188977,
      "duration": "30i"
    },
    {
      "time": "2112i",
      "midiNote": 40,
      "noteName": "E2",
      "velocity": 0.7244094488188977,
      "duration": "62i"
    },
    {
      "time": "2112i",
      "midiNote": 42,
      "noteName": "F#2",
      "velocity": 0.7244094488188977,
      "duration": "62i"
    },
    {
      "time": "2176i",
      "midiNote": 44,
      "noteName": "G#2",
      "velocity": 0.7244094488188977,
      "duration": "30i"
    },
    {
      "time": "2208i",
      "midiNote": 42,
      "noteName": "F#2",
      "velocity": 0.7244094488188977,
      "duration": "62i"
    },
    {
      "time": "2272i",
      "midiNote": 36,
      "noteName": "C2",
      "velocity": 0.7244094488188977,
      "duration": "30i"
    },
    {
      "time": "2272i",
      "midiNote": 42,
      "noteName": "F#2",
      "velocity": 0.7244094488188977,
      "duration": "30i"
    },
    {
      "time": "2304i",
      "midiNote": 36,
      "noteName": "C2",
      "velocity": 0.7244094488188977,
      "duration": "94i"
    },
    {
      "time": "2304i",
      "midiNote": 42,
      "noteName": "F#2",
      "velocity": 0.7244094488188977,
      "duration": "94i"
    },
    {
      "time": "2400i",
      "midiNote": 42,
      "noteName": "F#2",
      "velocity": 0.7244094488188977,
      "duration": "62i"
    },
    {
      "time": "2464i",
      "midiNote": 42,
      "noteName": "F#2",
      "velocity": 0.7244094488188977,
      "duration": "30i"
    },
    {
      "time": "2496i",
      "midiNote": 40,
      "noteName": "E2",
      "velocity": 0.7244094488188977,
      "duration": "94i"
    },
    {
      "time": "2496i",
      "midiNote": 42,
      "noteName": "F#2",
      "velocity": 0.7244094488188977,
      "duration": "94i"
    },
    {
      "time": "2592i",
      "midiNote": 42,
      "noteName": "F#2",
      "velocity": 0.7244094488188977,
      "duration": "62i"
    },
    {
      "time": "2592i",
      "midiNote": 60,
      "noteName": "C4",
      "velocity": 0.7244094488188977,
      "duration": "62i"
    },
    {
      "time": "2656i",
      "midiNote": 36,
      "noteName": "C2",
      "velocity": 0.7244094488188977,
      "duration": "30i"
    },
    {
      "time": "2656i",
      "midiNote": 42,
      "noteName": "F#2",
      "velocity": 0.7244094488188977,
      "duration": "30i"
    },
    {
      "time": "2656i",
      "midiNote": 60,
      "noteName": "C4",
      "velocity": 0.7244094488188977,
      "duration": "30i"
    },
    {
      "time": "2688i",
      "midiNote": 36,
      "noteName": "C2",
      "velocity": 0.7244094488188977,
      "duration": "94i"
    },
    {
      "time": "2688i",
      "midiNote": 42,
      "noteName": "F#2",
      "velocity": 0.7244094488188977,
      "duration": "94i"
    },
    {
      "time": "2784i",
      "midiNote": 42,
      "noteName": "F#2",
      "velocity": 0.7244094488188977,
      "duration": "62i"
    },
    {
      "time": "2848i",
      "midiNote": 42,
      "noteName": "F#2",
      "velocity": 0.7244094488188977,
      "duration": "30i"
    },
    {
      "time": "2880i",
      "midiNote": 40,
      "noteName": "E2",
      "velocity": 0.7244094488188977,
      "duration": "62i"
    },
    {
      "time": "2880i",
      "midiNote": 42,
      "noteName": "F#2",
      "velocity": 0.7244094488188977,
      "duration": "62i"
    },
    {
      "time": "2944i",
      "midiNote": 44,
      "noteName": "G#2",
      "velocity": 0.7244094488188977,
      "duration": "30i"
    },
    {
      "time": "2976i",
      "midiNote": 42,
      "noteName": "F#2",
      "velocity": 0.7244094488188977,
      "duration": "62i"
    },
    {
      "time": "3040i",
      "midiNote": 36,
      "noteName": "C2",
      "velocity": 0.7244094488188977,
      "duration": "30i"
    },
    {
      "time": "3040i",
      "midiNote": 42,
      "noteName": "F#2",
      "velocity": 0.7244094488188977,
      "duration": "30i"
    },
    {
      "time": "3072i",
      "midiNote": 36,
      "noteName": "C2",
      "velocity": 0.7244094488188977,
      "duration": "94i"
    },
    {
      "time": "3072i",
      "midiNote": 42,
      "noteName": "F#2",
      "velocity": 0.7244094488188977,
      "duration": "94i"
    },
    {
      "time": "3168i",
      "midiNote": 42,
      "noteName": "F#2",
      "velocity": 0.7244094488188977,
      "duration": "62i"
    },
    {
      "time": "3232i",
      "midiNote": 42,
      "noteName": "F#2",
      "velocity": 0.7244094488188977,
      "duration": "30i"
    },
    {
      "time": "3264i",
      "midiNote": 40,
      "noteName": "E2",
      "velocity": 0.7244094488188977,
      "duration": "94i"
    },
    {
      "time": "3264i",
      "midiNote": 42,
      "noteName": "F#2",
      "velocity": 0.7244094488188977,
      "duration": "94i"
    },
    {
      "time": "3360i",
      "midiNote": 42,
      "noteName": "F#2",
      "velocity": 0.7244094488188977,
      "duration": "62i"
    },
    {
      "time": "3424i",
      "midiNote": 36,
      "noteName": "C2",
      "velocity": 0.7244094488188977,
      "duration": "30i"
    },
    {
      "time": "3424i",
      "midiNote": 42,
      "noteName": "F#2",
      "velocity": 0.7244094488188977,
      "duration": "30i"
    },
    {
      "time": "3456i",
      "midiNote": 36,
      "noteName": "C2",
      "velocity": 0.7244094488188977,
      "duration": "94i"
    },
    {
      "time": "3456i",
      "midiNote": 42,
      "noteName": "F#2",
      "velocity": 0.7244094488188977,
      "duration": "94i"
    },
    {
      "time": "3552i",
      "midiNote": 42,
      "noteName": "F#2",
      "velocity": 0.7244094488188977,
      "duration": "62i"
    },
    {
      "time": "3616i",
      "midiNote": 42,
      "noteName": "F#2",
      "velocity": 0.7244094488188977,
      "duration": "30i"
    },
    {
      "time": "3648i",
      "midiNote": 40,
      "noteName": "E2",
      "velocity": 0.7244094488188977,
      "duration": "62i"
    },
    {
      "time": "3648i",
      "midiNote": 42,
      "noteName": "F#2",
      "velocity": 0.7244094488188977,
      "duration": "62i"
    },
    {
      "time": "3712i",
      "midiNote": 44,
      "noteName": "G#2",
      "velocity": 0.7244094488188977,
      "duration": "30i"
    },
    {
      "time": "3744i",
      "midiNote": 42,
      "noteName": "F#2",
      "velocity": 0.7244094488188977,
      "duration": "62i"
    },
    {
      "time": "3808i",
      "midiNote": 36,
      "noteName": "C2",
      "velocity": 0.7244094488188977,
      "duration": "30i"
    },
    {
      "time": "3808i",
      "midiNote": 42,
      "noteName": "F#2",
      "velocity": 0.7244094488188977,
      "duration": "30i"
    },
    {
      "time": "3840i",
      "midiNote": 36,
      "noteName": "C2",
      "velocity": 0.7244094488188977,
      "duration": "94i"
    },
    {
      "time": "3936i",
      "midiNote": 36,
      "noteName": "C2",
      "velocity": 0.7244094488188977,
      "duration": "62i"
    },
    {
      "time": "4000i",
      "midiNote": 36,
      "noteName": "C2",
      "velocity": 0.7244094488188977,
      "duration": "30i"
    },
    {
      "time": "4032i",
      "midiNote": 40,
      "noteName": "E2",
      "velocity": 0.7244094488188977,
      "duration": "62i"
    },
    {
      "time": "4096i",
      "midiNote": 36,
      "noteName": "C2",
      "velocity": 0.7244094488188977,
      "duration": "30i"
    },
    {
      "time": "4128i",
      "midiNote": 44,
      "noteName": "G#2",
      "velocity": 0.7244094488188977,
      "duration": "62i"
    },
    {
      "time": "4192i",
      "midiNote": 36,
      "noteName": "C2",
      "velocity": 0.7244094488188977,
      "duration": "30i"
    },
    {
      "time": "4192i",
      "midiNote": 42,
      "noteName": "F#2",
      "velocity": 0.7244094488188977,
      "duration": "30i"
    },
    {
      "time": "4224i",
      "midiNote": 36,
      "noteName": "C2",
      "velocity": 0.7244094488188977,
      "duration": "62i"
    },
    {
      "time": "4224i",
      "midiNote": 42,
      "noteName": "F#2",
      "velocity": 0.7244094488188977,
      "duration": "62i"
    },
    {
      "time": "4288i",
      "midiNote": 42,
      "noteName": "F#2",
      "velocity": 0.7244094488188977,
      "duration": "30i"
    },
    {
      "time": "4416i",
      "midiNote": 46,
      "noteName": "A#2",
      "velocity": 0.7244094488188977,
      "duration": "62i"
    },
    {
      "time": "4416i",
      "midiNote": 48,
      "noteName": "C3",
      "velocity": 0.7244094488188977,
      "duration": "62i"
    },
    {
      "time": "4480i",
      "midiNote": 46,
      "noteName": "A#2",
      "velocity": 0.7244094488188977,
      "duration": "126i"
    },
    {
      "time": "4480i",
      "midiNote": 47,
      "noteName": "B2",
      "velocity": 0.7244094488188977,
      "duration": "126i"
    },
    {
      "time": "4608i",
      "midiNote": 36,
      "noteName": "C2",
      "velocity": 0.7244094488188977,
      "duration": "94i"
    },
    {
      "time": "4608i",
      "midiNote": 42,
      "noteName": "F#2",
      "velocity": 0.7244094488188977,
      "duration": "94i"
    },
    {
      "time": "4704i",
      "midiNote": 42,
      "noteName": "F#2",
      "velocity": 0.7244094488188977,
      "duration": "62i"
    },
    {
      "time": "4768i",
      "midiNote": 42,
      "noteName": "F#2",
      "velocity": 0.7244094488188977,
      "duration": "30i"
    },
    {
      "time": "4800i",
      "midiNote": 40,
      "noteName": "E2",
      "velocity": 0.7244094488188977,
      "duration": "94i"
    },
    {
      "time": "4800i",
      "midiNote": 42,
      "noteName": "F#2",
      "velocity": 0.7244094488188977,
      "duration": "94i"
    },
    {
      "time": "4896i",
      "midiNote": 42,
      "noteName": "F#2",
      "velocity": 0.7244094488188977,
      "duration": "62i"
    },
    {
      "time": "4960i",
      "midiNote": 36,
      "noteName": "C2",
      "velocity": 0.7244094488188977,
      "duration": "30i"
    },
    {
      "time": "4960i",
      "midiNote": 42,
      "noteName": "F#2",
      "velocity": 0.7244094488188977,
      "duration": "30i"
    },
    {
      "time": "4992i",
      "midiNote": 36,
      "noteName": "C2",
      "velocity": 0.7244094488188977,
      "duration": "94i"
    },
    {
      "time": "4992i",
      "midiNote": 42,
      "noteName": "F#2",
      "velocity": 0.7244094488188977,
      "duration": "94i"
    },
    {
      "time": "5088i",
      "midiNote": 42,
      "noteName": "F#2",
      "velocity": 0.7244094488188977,
      "duration": "62i"
    },
    {
      "time": "5152i",
      "midiNote": 42,
      "noteName": "F#2",
      "velocity": 0.7244094488188977,
      "duration": "30i"
    },
    {
      "time": "5184i",
      "midiNote": 40,
      "noteName": "E2",
      "velocity": 0.7244094488188977,
      "duration": "62i"
    },
    {
      "time": "5184i",
      "midiNote": 42,
      "noteName": "F#2",
      "velocity": 0.7244094488188977,
      "duration": "62i"
    },
    {
      "time": "5248i",
      "midiNote": 44,
      "noteName": "G#2",
      "velocity": 0.7244094488188977,
      "duration": "30i"
    },
    {
      "time": "5280i",
      "midiNote": 42,
      "noteName": "F#2",
      "velocity": 0.7244094488188977,
      "duration": "62i"
    },
    {
      "time": "5344i",
      "midiNote": 36,
      "noteName": "C2",
      "velocity": 0.7244094488188977,
      "duration": "30i"
    },
    {
      "time": "5344i",
      "midiNote": 42,
      "noteName": "F#2",
      "velocity": 0.7244094488188977,
      "duration": "30i"
    },
    {
      "time": "5376i",
      "midiNote": 36,
      "noteName": "C2",
      "velocity": 0.7244094488188977,
      "duration": "94i"
    },
    {
      "time": "5376i",
      "midiNote": 42,
      "noteName": "F#2",
      "velocity": 0.7244094488188977,
      "duration": "94i"
    },
    {
      "time": "5472i",
      "midiNote": 42,
      "noteName": "F#2",
      "velocity": 0.7244094488188977,
      "duration": "62i"
    },
    {
      "time": "5536i",
      "midiNote": 42,
      "noteName": "F#2",
      "velocity": 0.7244094488188977,
      "duration": "30i"
    },
    {
      "time": "5568i",
      "midiNote": 40,
      "noteName": "E2",
      "velocity": 0.7244094488188977,
      "duration": "94i"
    },
    {
      "time": "5568i",
      "midiNote": 42,
      "noteName": "F#2",
      "velocity": 0.7244094488188977,
      "duration": "94i"
    },
    {
      "time": "5664i",
      "midiNote": 42,
      "noteName": "F#2",
      "velocity": 0.7244094488188977,
      "duration": "62i"
    },
    {
      "time": "5664i",
      "midiNote": 60,
      "noteName": "C4",
      "velocity": 0.7244094488188977,
      "duration": "62i"
    },
    {
      "time": "5728i",
      "midiNote": 36,
      "noteName": "C2",
      "velocity": 0.7244094488188977,
      "duration": "30i"
    },
    {
      "time": "5728i",
      "midiNote": 42,
      "noteName": "F#2",
      "velocity": 0.7244094488188977,
      "duration": "30i"
    },
    {
      "time": "5728i",
      "midiNote": 60,
      "noteName": "C4",
      "velocity": 0.7244094488188977,
      "duration": "30i"
    },
    {
      "time": "5760i",
      "midiNote": 36,
      "noteName": "C2",
      "velocity": 0.7244094488188977,
      "duration": "94i"
    },
    {
      "time": "5760i",
      "midiNote": 42,
      "noteName": "F#2",
      "velocity": 0.7244094488188977,
      "duration": "94i"
    },
    {
      "time": "5856i",
      "midiNote": 42,
      "noteName": "F#2",
      "velocity": 0.7244094488188977,
      "duration": "62i"
    },
    {
      "time": "5920i",
      "midiNote": 42,
      "noteName": "F#2",
      "velocity": 0.7244094488188977,
      "duration": "30i"
    },
    {
      "time": "5952i",
      "midiNote": 40,
      "noteName": "E2",
      "velocity": 0.7244094488188977,
      "duration": "62i"
    },
    {
      "time": "5952i",
      "midiNote": 42,
      "noteName": "F#2",
      "velocity": 0.7244094488188977,
      "duration": "62i"
    },
    {
      "time": "6016i",
      "midiNote": 44,
      "noteName": "G#2",
      "velocity": 0.7244094488188977,
      "duration": "30i"
    },
    {
      "time": "6048i",
      "midiNote": 42,
      "noteName": "F#2",
      "velocity": 0.7244094488188977,
      "duration": "62i"
    },
    {
      "time": "6112i",
      "midiNote": 36,
      "noteName": "C2",
      "velocity": 0.7244094488188977,
      "duration": "30i"
    },
    {
      "time": "6112i",
      "midiNote": 42,
      "noteName": "F#2",
      "velocity": 0.7244094488188977,
      "duration": "30i"
    },
    {
      "time": "6144i",
      "midiNote": 36,
      "noteName": "C2",
      "velocity": 0.7244094488188977,
      "duration": "94i"
    },
    {
      "time": "6144i",
      "midiNote": 42,
      "noteName": "F#2",
      "velocity": 0.7244094488188977,
      "duration": "94i"
    },
    {
      "time": "6240i",
      "midiNote": 42,
      "noteName": "F#2",
      "velocity": 0.7244094488188977,
      "duration": "62i"
    },
    {
      "time": "6304i",
      "midiNote": 42,
      "noteName": "F#2",
      "velocity": 0.7244094488188977,
      "duration": "30i"
    },
    {
      "time": "6336i",
      "midiNote": 40,
      "noteName": "E2",
      "velocity": 0.7244094488188977,
      "duration": "94i"
    },
    {
      "time": "6336i",
      "midiNote": 42,
      "noteName": "F#2",
      "velocity": 0.7244094488188977,
      "duration": "94i"
    },
    {
      "time": "6432i",
      "midiNote": 42,
      "noteName": "F#2",
      "velocity": 0.7244094488188977,
      "duration": "62i"
    },
    {
      "time": "6496i",
      "midiNote": 36,
      "noteName": "C2",
      "velocity": 0.7244094488188977,
      "duration": "30i"
    },
    {
      "time": "6496i",
      "midiNote": 42,
      "noteName": "F#2",
      "velocity": 0.7244094488188977,
      "duration": "30i"
    },
    {
      "time": "6528i",
      "midiNote": 36,
      "noteName": "C2",
      "velocity": 0.7244094488188977,
      "duration": "94i"
    },
    {
      "time": "6528i",
      "midiNote": 42,
      "noteName": "F#2",
      "velocity": 0.7244094488188977,
      "duration": "94i"
    },
    {
      "time": "6624i",
      "midiNote": 42,
      "noteName": "F#2",
      "velocity": 0.7244094488188977,
      "duration": "62i"
    },
    {
      "time": "6688i",
      "midiNote": 42,
      "noteName": "F#2",
      "velocity": 0.7244094488188977,
      "duration": "30i"
    },
    {
      "time": "6720i",
      "midiNote": 40,
      "noteName": "E2",
      "velocity": 0.7244094488188977,
      "duration": "62i"
    },
    {
      "time": "6720i",
      "midiNote": 42,
      "noteName": "F#2",
      "velocity": 0.7244094488188977,
      "duration": "62i"
    },
    {
      "time": "6784i",
      "midiNote": 44,
      "noteName": "G#2",
      "velocity": 0.7244094488188977,
      "duration": "30i"
    },
    {
      "time": "6816i",
      "midiNote": 42,
      "noteName": "F#2",
      "velocity": 0.7244094488188977,
      "duration": "62i"
    },
    {
      "time": "6880i",
      "midiNote": 36,
      "noteName": "C2",
      "velocity": 0.7244094488188977,
      "duration": "30i"
    },
    {
      "time": "6880i",
      "midiNote": 42,
      "noteName": "F#2",
      "velocity": 0.7244094488188977,
      "duration": "30i"
    },
    {
      "time": "6912i",
      "midiNote": 36,
      "noteName": "C2",
      "velocity": 0.7244094488188977,
      "duration": "94i"
    },
    {
      "time": "6912i",
      "midiNote": 42,
      "noteName": "F#2",
      "velocity": 0.7244094488188977,
      "duration": "94i"
    },
    {
      "time": "7008i",
      "midiNote": 42,
      "noteName": "F#2",
      "velocity": 0.7244094488188977,
      "duration": "62i"
    },
    {
      "time": "7072i",
      "midiNote": 42,
      "noteName": "F#2",
      "velocity": 0.7244094488188977,
      "duration": "30i"
    },
    {
      "time": "7104i",
      "midiNote": 40,
      "noteName": "E2",
      "velocity": 0.7244094488188977,
      "duration": "94i"
    },
    {
      "time": "7104i",
      "midiNote": 42,
      "noteName": "F#2",
      "velocity": 0.7244094488188977,
      "duration": "94i"
    },
    {
      "time": "7200i",
      "midiNote": 42,
      "noteName": "F#2",
      "velocity": 0.7244094488188977,
      "duration": "62i"
    },
    {
      "time": "7200i",
      "midiNote": 60,
      "noteName": "C4",
      "velocity": 0.7244094488188977,
      "duration": "62i"
    },
    {
      "time": "7264i",
      "midiNote": 36,
      "noteName": "C2",
      "velocity": 0.7244094488188977,
      "duration": "30i"
    },
    {
      "time": "7264i",
      "midiNote": 42,
      "noteName": "F#2",
      "velocity": 0.7244094488188977,
      "duration": "30i"
    },
    {
      "time": "7264i",
      "midiNote": 60,
      "noteName": "C4",
      "velocity": 0.7244094488188977,
      "duration": "30i"
    },
    {
      "time": "7296i",
      "midiNote": 36,
      "noteName": "C2",
      "velocity": 0.7244094488188977,
      "duration": "94i"
    },
    {
      "time": "7296i",
      "midiNote": 42,
      "noteName": "F#2",
      "velocity": 0.7244094488188977,
      "duration": "94i"
    },
    {
      "time": "7392i",
      "midiNote": 42,
      "noteName": "F#2",
      "velocity": 0.7244094488188977,
      "duration": "62i"
    },
    {
      "time": "7456i",
      "midiNote": 42,
      "noteName": "F#2",
      "velocity": 0.7244094488188977,
      "duration": "30i"
    },
    {
      "time": "7488i",
      "midiNote": 40,
      "noteName": "E2",
      "velocity": 0.7244094488188977,
      "duration": "62i"
    },
    {
      "time": "7488i",
      "midiNote": 42,
      "noteName": "F#2",
      "velocity": 0.7244094488188977,
      "duration": "62i"
    },
    {
      "time": "7552i",
      "midiNote": 44,
      "noteName": "G#2",
      "velocity": 0.7244094488188977,
      "duration": "30i"
    },
    {
      "time": "7584i",
      "midiNote": 42,
      "noteName": "F#2",
      "velocity": 0.7244094488188977,
      "duration": "62i"
    },
    {
      "time": "7648i",
      "midiNote": 36,
      "noteName": "C2",
      "velocity": 0.7244094488188977,
      "duration": "30i"
    },
    {
      "time": "7648i",
      "midiNote": 42,
      "noteName": "F#2",
      "velocity": 0.7244094488188977,
      "duration": "30i"
    },
    {
      "time": "7680i",
      "midiNote": 36,
      "noteName": "C2",
      "velocity": 0.7244094488188977,
      "duration": "94i"
    },
    {
      "time": "7680i",
      "midiNote": 42,
      "noteName": "F#2",
      "velocity": 0.7244094488188977,
      "duration": "94i"
    },
    {
      "time": "7776i",
      "midiNote": 42,
      "noteName": "F#2",
      "velocity": 0.7244094488188977,
      "duration": "62i"
    },
    {
      "time": "7840i",
      "midiNote": 42,
      "noteName": "F#2",
      "velocity": 0.7244094488188977,
      "duration": "30i"
    },
    {
      "time": "7872i",
      "midiNote": 40,
      "noteName": "E2",
      "velocity": 0.7244094488188977,
      "duration": "94i"
    },
    {
      "time": "7872i",
      "midiNote": 42,
      "noteName": "F#2",
      "velocity": 0.7244094488188977,
      "duration": "94i"
    },
    {
      "time": "7968i",
      "midiNote": 42,
      "noteName": "F#2",
      "velocity": 0.7244094488188977,
      "duration": "62i"
    },
    {
      "time": "8032i",
      "midiNote": 36,
      "noteName": "C2",
      "velocity": 0.7244094488188977,
      "duration": "30i"
    },
    {
      "time": "8032i",
      "midiNote": 42,
      "noteName": "F#2",
      "velocity": 0.7244094488188977,
      "duration": "30i"
    },
    {
      "time": "8064i",
      "midiNote": 36,
      "noteName": "C2",
      "velocity": 0.7244094488188977,
      "duration": "94i"
    },
    {
      "time": "8064i",
      "midiNote": 42,
      "noteName": "F#2",
      "velocity": 0.7244094488188977,
      "duration": "94i"
    },
    {
      "time": "8160i",
      "midiNote": 42,
      "noteName": "F#2",
      "velocity": 0.7244094488188977,
      "duration": "62i"
    },
    {
      "time": "8224i",
      "midiNote": 42,
      "noteName": "F#2",
      "velocity": 0.7244094488188977,
      "duration": "30i"
    },
    {
      "time": "8256i",
      "midiNote": 40,
      "noteName": "E2",
      "velocity": 0.7244094488188977,
      "duration": "62i"
    },
    {
      "time": "8256i",
      "midiNote": 42,
      "noteName": "F#2",
      "velocity": 0.7244094488188977,
      "duration": "62i"
    },
    {
      "time": "8320i",
      "midiNote": 44,
      "noteName": "G#2",
      "velocity": 0.7244094488188977,
      "duration": "30i"
    },
    {
      "time": "8352i",
      "midiNote": 42,
      "noteName": "F#2",
      "velocity": 0.7244094488188977,
      "duration": "62i"
    },
    {
      "time": "8416i",
      "midiNote": 36,
      "noteName": "C2",
      "velocity": 0.7244094488188977,
      "duration": "30i"
    },
    {
      "time": "8416i",
      "midiNote": 42,
      "noteName": "F#2",
      "velocity": 0.7244094488188977,
      "duration": "30i"
    },
    {
      "time": "8448i",
      "midiNote": 36,
      "noteName": "C2",
      "velocity": 0.7244094488188977,
      "duration": "94i"
    },
    {
      "time": "8544i",
      "midiNote": 36,
      "noteName": "C2",
      "velocity": 0.7244094488188977,
      "duration": "62i"
    },
    {
      "time": "8608i",
      "midiNote": 36,
      "noteName": "C2",
      "velocity": 0.7244094488188977,
      "duration": "30i"
    },
    {
      "time": "8640i",
      "midiNote": 40,
      "noteName": "E2",
      "velocity": 0.7244094488188977,
      "duration": "62i"
    },
    {
      "time": "8704i",
      "midiNote": 36,
      "noteName": "C2",
      "velocity": 0.7244094488188977,
      "duration": "30i"
    },
    {
      "time": "8736i",
      "midiNote": 44,
      "noteName": "G#2",
      "velocity": 0.7244094488188977,
      "duration": "62i"
    },
    {
      "time": "8800i",
      "midiNote": 36,
      "noteName": "C2",
      "velocity": 0.7244094488188977,
      "duration": "30i"
    },
    {
      "time": "8800i",
      "midiNote": 42,
      "noteName": "F#2",
      "velocity": 0.7244094488188977,
      "duration": "30i"
    },
    {
      "time": "8832i",
      "midiNote": 36,
      "noteName": "C2",
      "velocity": 0.7244094488188977,
      "duration": "62i"
    },
    {
      "time": "8832i",
      "midiNote": 42,
      "noteName": "F#2",
      "velocity": 0.7244094488188977,
      "duration": "62i"
    },
    {
      "time": "8896i",
      "midiNote": 42,
      "noteName": "F#2",
      "velocity": 0.7244094488188977,
      "duration": "30i"
    },
    {
      "time": "9024i",
      "midiNote": 46,
      "noteName": "A#2",
      "velocity": 0.7244094488188977,
      "duration": "62i"
    },
    {
      "time": "9024i",
      "midiNote": 48,
      "noteName": "C3",
      "velocity": 0.7244094488188977,
      "duration": "62i"
    },
    {
      "time": "9088i",
      "midiNote": 46,
      "noteName": "A#2",
      "velocity": 0.7244094488188977,
      "duration": "126i"
    },
    {
      "time": "9088i",
      "midiNote": 47,
      "noteName": "B2",
      "velocity": 0.7244094488188977,
      "duration": "126i"
    },
    {
      "time": "9216i",
      "midiNote": 36,
      "noteName": "C2",
      "velocity": 0.7244094488188977,
      "duration": "94i"
    },
    {
      "time": "9216i",
      "midiNote": 42,
      "noteName": "F#2",
      "velocity": 0.7244094488188977,
      "duration": "94i"
    },
    {
      "time": "9312i",
      "midiNote": 42,
      "noteName": "F#2",
      "velocity": 0.7244094488188977,
      "duration": "62i"
    },
    {
      "time": "9376i",
      "midiNote": 42,
      "noteName": "F#2",
      "velocity": 0.7244094488188977,
      "duration": "30i"
    },
    {
      "time": "9408i",
      "midiNote": 40,
      "noteName": "E2",
      "velocity": 0.7244094488188977,
      "duration": "94i"
    },
    {
      "time": "9408i",
      "midiNote": 42,
      "noteName": "F#2",
      "velocity": 0.7244094488188977,
      "duration": "94i"
    },
    {
      "time": "9504i",
      "midiNote": 42,
      "noteName": "F#2",
      "velocity": 0.7244094488188977,
      "duration": "62i"
    },
    {
      "time": "9568i",
      "midiNote": 36,
      "noteName": "C2",
      "velocity": 0.7244094488188977,
      "duration": "30i"
    },
    {
      "time": "9568i",
      "midiNote": 42,
      "noteName": "F#2",
      "velocity": 0.7244094488188977,
      "duration": "30i"
    },
    {
      "time": "9600i",
      "midiNote": 36,
      "noteName": "C2",
      "velocity": 0.7244094488188977,
      "duration": "94i"
    },
    {
      "time": "9600i",
      "midiNote": 42,
      "noteName": "F#2",
      "velocity": 0.7244094488188977,
      "duration": "94i"
    },
    {
      "time": "9696i",
      "midiNote": 42,
      "noteName": "F#2",
      "velocity": 0.7244094488188977,
      "duration": "62i"
    },
    {
      "time": "9760i",
      "midiNote": 42,
      "noteName": "F#2",
      "velocity": 0.7244094488188977,
      "duration": "30i"
    },
    {
      "time": "9792i",
      "midiNote": 40,
      "noteName": "E2",
      "velocity": 0.7244094488188977,
      "duration": "62i"
    },
    {
      "time": "9792i",
      "midiNote": 42,
      "noteName": "F#2",
      "velocity": 0.7244094488188977,
      "duration": "62i"
    },
    {
      "time": "9856i",
      "midiNote": 44,
      "noteName": "G#2",
      "velocity": 0.7244094488188977,
      "duration": "30i"
    },
    {
      "time": "9888i",
      "midiNote": 42,
      "noteName": "F#2",
      "velocity": 0.7244094488188977,
      "duration": "62i"
    },
    {
      "time": "9952i",
      "midiNote": 36,
      "noteName": "C2",
      "velocity": 0.7244094488188977,
      "duration": "30i"
    },
    {
      "time": "9952i",
      "midiNote": 42,
      "noteName": "F#2",
      "velocity": 0.7244094488188977,
      "duration": "30i"
    },
    {
      "time": "9984i",
      "midiNote": 36,
      "noteName": "C2",
      "velocity": 0.7244094488188977,
      "duration": "94i"
    },
    {
      "time": "9984i",
      "midiNote": 42,
      "noteName": "F#2",
      "velocity": 0.7244094488188977,
      "duration": "94i"
    },
    {
      "time": "10080i",
      "midiNote": 42,
      "noteName": "F#2",
      "velocity": 0.7244094488188977,
      "duration": "62i"
    },
    {
      "time": "10144i",
      "midiNote": 42,
      "noteName": "F#2",
      "velocity": 0.7244094488188977,
      "duration": "30i"
    },
    {
      "time": "10176i",
      "midiNote": 40,
      "noteName": "E2",
      "velocity": 0.7244094488188977,
      "duration": "94i"
    },
    {
      "time": "10176i",
      "midiNote": 42,
      "noteName": "F#2",
      "velocity": 0.7244094488188977,
      "duration": "94i"
    },
    {
      "time": "10272i",
      "midiNote": 42,
      "noteName": "F#2",
      "velocity": 0.7244094488188977,
      "duration": "62i"
    },
    {
      "time": "10272i",
      "midiNote": 60,
      "noteName": "C4",
      "velocity": 0.7244094488188977,
      "duration": "62i"
    },
    {
      "time": "10336i",
      "midiNote": 36,
      "noteName": "C2",
      "velocity": 0.7244094488188977,
      "duration": "30i"
    },
    {
      "time": "10336i",
      "midiNote": 42,
      "noteName": "F#2",
      "velocity": 0.7244094488188977,
      "duration": "30i"
    },
    {
      "time": "10336i",
      "midiNote": 60,
      "noteName": "C4",
      "velocity": 0.7244094488188977,
      "duration": "30i"
    },
    {
      "time": "10368i",
      "midiNote": 36,
      "noteName": "C2",
      "velocity": 0.7244094488188977,
      "duration": "94i"
    },
    {
      "time": "10368i",
      "midiNote": 42,
      "noteName": "F#2",
      "velocity": 0.7244094488188977,
      "duration": "94i"
    },
    {
      "time": "10464i",
      "midiNote": 42,
      "noteName": "F#2",
      "velocity": 0.7244094488188977,
      "duration": "62i"
    },
    {
      "time": "10528i",
      "midiNote": 42,
      "noteName": "F#2",
      "velocity": 0.7244094488188977,
      "duration": "30i"
    },
    {
      "time": "10560i",
      "midiNote": 40,
      "noteName": "E2",
      "velocity": 0.7244094488188977,
      "duration": "62i"
    },
    {
      "time": "10560i",
      "midiNote": 42,
      "noteName": "F#2",
      "velocity": 0.7244094488188977,
      "duration": "62i"
    },
    {
      "time": "10624i",
      "midiNote": 44,
      "noteName": "G#2",
      "velocity": 0.7244094488188977,
      "duration": "30i"
    },
    {
      "time": "10656i",
      "midiNote": 42,
      "noteName": "F#2",
      "velocity": 0.7244094488188977,
      "duration": "62i"
    },
    {
      "time": "10720i",
      "midiNote": 36,
      "noteName": "C2",
      "velocity": 0.7244094488188977,
      "duration": "30i"
    },
    {
      "time": "10720i",
      "midiNote": 42,
      "noteName": "F#2",
      "velocity": 0.7244094488188977,
      "duration": "30i"
    },
    {
      "time": "10752i",
      "midiNote": 36,
      "noteName": "C2",
      "velocity": 0.7244094488188977,
      "duration": "94i"
    },
    {
      "time": "10752i",
      "midiNote": 42,
      "noteName": "F#2",
      "velocity": 0.7244094488188977,
      "duration": "94i"
    },
    {
      "time": "10848i",
      "midiNote": 42,
      "noteName": "F#2",
      "velocity": 0.7244094488188977,
      "duration": "62i"
    },
    {
      "time": "10912i",
      "midiNote": 42,
      "noteName": "F#2",
      "velocity": 0.7244094488188977,
      "duration": "30i"
    },
    {
      "time": "10944i",
      "midiNote": 40,
      "noteName": "E2",
      "velocity": 0.7244094488188977,
      "duration": "94i"
    },
    {
      "time": "10944i",
      "midiNote": 42,
      "noteName": "F#2",
      "velocity": 0.7244094488188977,
      "duration": "94i"
    },
    {
      "time": "11040i",
      "midiNote": 42,
      "noteName": "F#2",
      "velocity": 0.7244094488188977,
      "duration": "62i"
    },
    {
      "time": "11104i",
      "midiNote": 36,
      "noteName": "C2",
      "velocity": 0.7244094488188977,
      "duration": "30i"
    },
    {
      "time": "11104i",
      "midiNote": 42,
      "noteName": "F#2",
      "velocity": 0.7244094488188977,
      "duration": "30i"
    },
    {
      "time": "11136i",
      "midiNote": 36,
      "noteName": "C2",
      "velocity": 0.7244094488188977,
      "duration": "94i"
    },
    {
      "time": "11136i",
      "midiNote": 42,
      "noteName": "F#2",
      "velocity": 0.7244094488188977,
      "duration": "94i"
    },
    {
      "time": "11232i",
      "midiNote": 42,
      "noteName": "F#2",
      "velocity": 0.7244094488188977,
      "duration": "62i"
    },
    {
      "time": "11296i",
      "midiNote": 42,
      "noteName": "F#2",
      "velocity": 0.7244094488188977,
      "duration": "30i"
    },
    {
      "time": "11328i",
      "midiNote": 40,
      "noteName": "E2",
      "velocity": 0.7244094488188977,
      "duration": "62i"
    },
    {
      "time": "11328i",
      "midiNote": 42,
      "noteName": "F#2",
      "velocity": 0.7244094488188977,
      "duration": "62i"
    },
    {
      "time": "11392i",
      "midiNote": 44,
      "noteName": "G#2",
      "velocity": 0.7244094488188977,
      "duration": "30i"
    },
    {
      "time": "11424i",
      "midiNote": 42,
      "noteName": "F#2",
      "velocity": 0.7244094488188977,
      "duration": "62i"
    },
    {
      "time": "11488i",
      "midiNote": 36,
      "noteName": "C2",
      "velocity": 0.7244094488188977,
      "duration": "30i"
    },
    {
      "time": "11488i",
      "midiNote": 42,
      "noteName": "F#2",
      "velocity": 0.7244094488188977,
      "duration": "30i"
    },
    {
      "time": "11520i",
      "midiNote": 36,
      "noteName": "C2",
      "velocity": 0.7244094488188977,
      "duration": "94i"
    },
    {
      "time": "11520i",
      "midiNote": 42,
      "noteName": "F#2",
      "velocity": 0.7244094488188977,
      "duration": "94i"
    },
    {
      "time": "11616i",
      "midiNote": 42,
      "noteName": "F#2",
      "velocity": 0.7244094488188977,
      "duration": "62i"
    },
    {
      "time": "11680i",
      "midiNote": 42,
      "noteName": "F#2",
      "velocity": 0.7244094488188977,
      "duration": "30i"
    },
    {
      "time": "11712i",
      "midiNote": 40,
      "noteName": "E2",
      "velocity": 0.7244094488188977,
      "duration": "94i"
    },
    {
      "time": "11712i",
      "midiNote": 42,
      "noteName": "F#2",
      "velocity": 0.7244094488188977,
      "duration": "94i"
    },
    {
      "time": "11808i",
      "midiNote": 42,
      "noteName": "F#2",
      "velocity": 0.7244094488188977,
      "duration": "62i"
    },
    {
      "time": "11808i",
      "midiNote": 60,
      "noteName": "C4",
      "velocity": 0.7244094488188977,
      "duration": "62i"
    },
    {
      "time": "11872i",
      "midiNote": 36,
      "noteName": "C2",
      "velocity": 0.7244094488188977,
      "duration": "30i"
    },
    {
      "time": "11872i",
      "midiNote": 42,
      "noteName": "F#2",
      "velocity": 0.7244094488188977,
      "duration": "30i"
    },
    {
      "time": "11872i",
      "midiNote": 60,
      "noteName": "C4",
      "velocity": 0.7244094488188977,
      "duration": "30i"
    },
    {
      "time": "11904i",
      "midiNote": 36,
      "noteName": "C2",
      "velocity": 0.7244094488188977,
      "duration": "94i"
    },
    {
      "time": "11904i",
      "midiNote": 42,
      "noteName": "F#2",
      "velocity": 0.7244094488188977,
      "duration": "94i"
    },
    {
      "time": "12000i",
      "midiNote": 42,
      "noteName": "F#2",
      "velocity": 0.7244094488188977,
      "duration": "62i"
    },
    {
      "time": "12064i",
      "midiNote": 42,
      "noteName": "F#2",
      "velocity": 0.7244094488188977,
      "duration": "30i"
    },
    {
      "time": "12096i",
      "midiNote": 40,
      "noteName": "E2",
      "velocity": 0.7244094488188977,
      "duration": "62i"
    },
    {
      "time": "12096i",
      "midiNote": 42,
      "noteName": "F#2",
      "velocity": 0.7244094488188977,
      "duration": "62i"
    },
    {
      "time": "12160i",
      "midiNote": 44,
      "noteName": "G#2",
      "velocity": 0.7244094488188977,
      "duration": "30i"
    },
    {
      "time": "12192i",
      "midiNote": 42,
      "noteName": "F#2",
      "velocity": 0.7244094488188977,
      "duration": "62i"
    },
    {
      "time": "12256i",
      "midiNote": 36,
      "noteName": "C2",
      "velocity": 0.7244094488188977,
      "duration": "30i"
    },
    {
      "time": "12256i",
      "midiNote": 42,
      "noteName": "F#2",
      "velocity": 0.7244094488188977,
      "duration": "30i"
    },
    {
      "time": "12288i",
      "midiNote": 36,
      "noteName": "C2",
      "velocity": 0.7244094488188977,
      "duration": "94i"
    },
    {
      "time": "12288i",
      "midiNote": 42,
      "noteName": "F#2",
      "velocity": 0.7244094488188977,
      "duration": "94i"
    },
    {
      "time": "12384i",
      "midiNote": 42,
      "noteName": "F#2",
      "velocity": 0.7244094488188977,
      "duration": "62i"
    },
    {
      "time": "12448i",
      "midiNote": 42,
      "noteName": "F#2",
      "velocity": 0.7244094488188977,
      "duration": "30i"
    },
    {
      "time": "12480i",
      "midiNote": 40,
      "noteName": "E2",
      "velocity": 0.7244094488188977,
      "duration": "94i"
    },
    {
      "time": "12480i",
      "midiNote": 42,
      "noteName": "F#2",
      "velocity": 0.7244094488188977,
      "duration": "94i"
    },
    {
      "time": "12576i",
      "midiNote": 42,
      "noteName": "F#2",
      "velocity": 0.7244094488188977,
      "duration": "62i"
    },
    {
      "time": "12640i",
      "midiNote": 36,
      "noteName": "C2",
      "velocity": 0.7244094488188977,
      "duration": "30i"
    },
    {
      "time": "12640i",
      "midiNote": 42,
      "noteName": "F#2",
      "velocity": 0.7244094488188977,
      "duration": "30i"
    },
    {
      "time": "12672i",
      "midiNote": 36,
      "noteName": "C2",
      "velocity": 0.7244094488188977,
      "duration": "94i"
    },
    {
      "time": "12672i",
      "midiNote": 42,
      "noteName": "F#2",
      "velocity": 0.7244094488188977,
      "duration": "94i"
    },
    {
      "time": "12768i",
      "midiNote": 42,
      "noteName": "F#2",
      "velocity": 0.7244094488188977,
      "duration": "62i"
    },
    {
      "time": "12832i",
      "midiNote": 42,
      "noteName": "F#2",
      "velocity": 0.7244094488188977,
      "duration": "30i"
    },
    {
      "time": "12864i",
      "midiNote": 40,
      "noteName": "E2",
      "velocity": 0.7244094488188977,
      "duration": "62i"
    },
    {
      "time": "12864i",
      "midiNote": 42,
      "noteName": "F#2",
      "velocity": 0.7244094488188977,
      "duration": "62i"
    },
    {
      "time": "12928i",
      "midiNote": 44,
      "noteName": "G#2",
      "velocity": 0.7244094488188977,
      "duration": "30i"
    },
    {
      "time": "12960i",
      "midiNote": 42,
      "noteName": "F#2",
      "velocity": 0.7244094488188977,
      "duration": "62i"
    },
    {
      "time": "13024i",
      "midiNote": 36,
      "noteName": "C2",
      "velocity": 0.7244094488188977,
      "duration": "30i"
    },
    {
      "time": "13024i",
      "midiNote": 42,
      "noteName": "F#2",
      "velocity": 0.7244094488188977,
      "duration": "30i"
    },
    {
      "time": "13056i",
      "midiNote": 36,
      "noteName": "C2",
      "velocity": 0.7244094488188977,
      "duration": "94i"
    },
    {
      "time": "13152i",
      "midiNote": 36,
      "noteName": "C2",
      "velocity": 0.7244094488188977,
      "duration": "62i"
    },
    {
      "time": "13216i",
      "midiNote": 36,
      "noteName": "C2",
      "velocity": 0.7244094488188977,
      "duration": "30i"
    },
    {
      "time": "13248i",
      "midiNote": 40,
      "noteName": "E2",
      "velocity": 0.7244094488188977,
      "duration": "62i"
    },
    {
      "time": "13312i",
      "midiNote": 36,
      "noteName": "C2",
      "velocity": 0.7244094488188977,
      "duration": "30i"
    },
    {
      "time": "13344i",
      "midiNote": 44,
      "noteName": "G#2",
      "velocity": 0.7244094488188977,
      "duration": "62i"
    },
    {
      "time": "13408i",
      "midiNote": 36,
      "noteName": "C2",
      "velocity": 0.7244094488188977,
      "duration": "30i"
    },
    {
      "time": "13408i",
      "midiNote": 42,
      "noteName": "F#2",
      "velocity": 0.7244094488188977,
      "duration": "30i"
    },
    {
      "time": "13440i",
      "midiNote": 36,
      "noteName": "C2",
      "velocity": 0.7244094488188977,
      "duration": "62i"
    },
    {
      "time": "13440i",
      "midiNote": 42,
      "noteName": "F#2",
      "velocity": 0.7244094488188977,
      "duration": "62i"
    },
    {
      "time": "13504i",
      "midiNote": 42,
      "noteName": "F#2",
      "velocity": 0.7244094488188977,
      "duration": "30i"
    },
    {
      "time": "13632i",
      "midiNote": 46,
      "noteName": "A#2",
      "velocity": 0.7244094488188977,
      "duration": "62i"
    },
    {
      "time": "13632i",
      "midiNote": 48,
      "noteName": "C3",
      "velocity": 0.7244094488188977,
      "duration": "62i"
    },
    {
      "time": "13696i",
      "midiNote": 46,
      "noteName": "A#2",
      "velocity": 0.7244094488188977,
      "duration": "126i"
    },
    {
      "time": "13696i",
      "midiNote": 47,
      "noteName": "B2",
      "velocity": 0.7244094488188977,
      "duration": "126i"
    },
    {
      "time": "13824i",
      "midiNote": 36,
      "noteName": "C2",
      "velocity": 0.7244094488188977,
      "duration": "94i"
    },
    {
      "time": "13824i",
      "midiNote": 42,
      "noteName": "F#2",
      "velocity": 0.7244094488188977,
      "duration": "94i"
    },
    {
      "time": "13920i",
      "midiNote": 42,
      "noteName": "F#2",
      "velocity": 0.7244094488188977,
      "duration": "62i"
    },
    {
      "time": "13984i",
      "midiNote": 42,
      "noteName": "F#2",
      "velocity": 0.7244094488188977,
      "duration": "30i"
    },
    {
      "time": "14016i",
      "midiNote": 40,
      "noteName": "E2",
      "velocity": 0.7244094488188977,
      "duration": "94i"
    },
    {
      "time": "14016i",
      "midiNote": 42,
      "noteName": "F#2",
      "velocity": 0.7244094488188977,
      "duration": "94i"
    },
    {
      "time": "14112i",
      "midiNote": 42,
      "noteName": "F#2",
      "velocity": 0.7244094488188977,
      "duration": "62i"
    },
    {
      "time": "14176i",
      "midiNote": 36,
      "noteName": "C2",
      "velocity": 0.7244094488188977,
      "duration": "30i"
    },
    {
      "time": "14176i",
      "midiNote": 42,
      "noteName": "F#2",
      "velocity": 0.7244094488188977,
      "duration": "30i"
    },
    {
      "time": "14208i",
      "midiNote": 36,
      "noteName": "C2",
      "velocity": 0.7244094488188977,
      "duration": "94i"
    },
    {
      "time": "14208i",
      "midiNote": 42,
      "noteName": "F#2",
      "velocity": 0.7244094488188977,
      "duration": "94i"
    },
    {
      "time": "14304i",
      "midiNote": 42,
      "noteName": "F#2",
      "velocity": 0.7244094488188977,
      "duration": "62i"
    },
    {
      "time": "14368i",
      "midiNote": 42,
      "noteName": "F#2",
      "velocity": 0.7244094488188977,
      "duration": "30i"
    },
    {
      "time": "14400i",
      "midiNote": 40,
      "noteName": "E2",
      "velocity": 0.7244094488188977,
      "duration": "62i"
    },
    {
      "time": "14400i",
      "midiNote": 42,
      "noteName": "F#2",
      "velocity": 0.7244094488188977,
      "duration": "62i"
    },
    {
      "time": "14464i",
      "midiNote": 44,
      "noteName": "G#2",
      "velocity": 0.7244094488188977,
      "duration": "30i"
    },
    {
      "time": "14496i",
      "midiNote": 42,
      "noteName": "F#2",
      "velocity": 0.7244094488188977,
      "duration": "62i"
    },
    {
      "time": "14560i",
      "midiNote": 36,
      "noteName": "C2",
      "velocity": 0.7244094488188977,
      "duration": "30i"
    },
    {
      "time": "14560i",
      "midiNote": 42,
      "noteName": "F#2",
      "velocity": 0.7244094488188977,
      "duration": "30i"
    },
    {
      "time": "14592i",
      "midiNote": 36,
      "noteName": "C2",
      "velocity": 0.7244094488188977,
      "duration": "94i"
    },
    {
      "time": "14592i",
      "midiNote": 42,
      "noteName": "F#2",
      "velocity": 0.7244094488188977,
      "duration": "94i"
    },
    {
      "time": "14688i",
      "midiNote": 42,
      "noteName": "F#2",
      "velocity": 0.7244094488188977,
      "duration": "62i"
    },
    {
      "time": "14752i",
      "midiNote": 42,
      "noteName": "F#2",
      "velocity": 0.7244094488188977,
      "duration": "30i"
    },
    {
      "time": "14784i",
      "midiNote": 40,
      "noteName": "E2",
      "velocity": 0.7244094488188977,
      "duration": "94i"
    },
    {
      "time": "14784i",
      "midiNote": 42,
      "noteName": "F#2",
      "velocity": 0.7244094488188977,
      "duration": "94i"
    },
    {
      "time": "14880i",
      "midiNote": 42,
      "noteName": "F#2",
      "velocity": 0.7244094488188977,
      "duration": "62i"
    },
    {
      "time": "14880i",
      "midiNote": 60,
      "noteName": "C4",
      "velocity": 0.7244094488188977,
      "duration": "62i"
    },
    {
      "time": "14944i",
      "midiNote": 36,
      "noteName": "C2",
      "velocity": 0.7244094488188977,
      "duration": "30i"
    },
    {
      "time": "14944i",
      "midiNote": 42,
      "noteName": "F#2",
      "velocity": 0.7244094488188977,
      "duration": "30i"
    },
    {
      "time": "14944i",
      "midiNote": 60,
      "noteName": "C4",
      "velocity": 0.7244094488188977,
      "duration": "30i"
    },
    {
      "time": "14976i",
      "midiNote": 36,
      "noteName": "C2",
      "velocity": 0.7244094488188977,
      "duration": "94i"
    },
    {
      "time": "14976i",
      "midiNote": 42,
      "noteName": "F#2",
      "velocity": 0.7244094488188977,
      "duration": "94i"
    },
    {
      "time": "15072i",
      "midiNote": 42,
      "noteName": "F#2",
      "velocity": 0.7244094488188977,
      "duration": "62i"
    },
    {
      "time": "15136i",
      "midiNote": 42,
      "noteName": "F#2",
      "velocity": 0.7244094488188977,
      "duration": "30i"
    },
    {
      "time": "15168i",
      "midiNote": 40,
      "noteName": "E2",
      "velocity": 0.7244094488188977,
      "duration": "62i"
    },
    {
      "time": "15168i",
      "midiNote": 42,
      "noteName": "F#2",
      "velocity": 0.7244094488188977,
      "duration": "62i"
    },
    {
      "time": "15232i",
      "midiNote": 44,
      "noteName": "G#2",
      "velocity": 0.7244094488188977,
      "duration": "30i"
    },
    {
      "time": "15264i",
      "midiNote": 42,
      "noteName": "F#2",
      "velocity": 0.7244094488188977,
      "duration": "62i"
    },
    {
      "time": "15328i",
      "midiNote": 36,
      "noteName": "C2",
      "velocity": 0.7244094488188977,
      "duration": "30i"
    },
    {
      "time": "15328i",
      "midiNote": 42,
      "noteName": "F#2",
      "velocity": 0.7244094488188977,
      "duration": "30i"
    },
    {
      "time": "15360i",
      "midiNote": 36,
      "noteName": "C2",
      "velocity": 0.7244094488188977,
      "duration": "94i"
    },
    {
      "time": "15360i",
      "midiNote": 42,
      "noteName": "F#2",
      "velocity": 0.7244094488188977,
      "duration": "94i"
    },
    {
      "time": "15456i",
      "midiNote": 42,
      "noteName": "F#2",
      "velocity": 0.7244094488188977,
      "duration": "62i"
    },
    {
      "time": "15520i",
      "midiNote": 42,
      "noteName": "F#2",
      "velocity": 0.7244094488188977,
      "duration": "30i"
    },
    {
      "time": "15552i",
      "midiNote": 40,
      "noteName": "E2",
      "velocity": 0.7244094488188977,
      "duration": "94i"
    },
    {
      "time": "15552i",
      "midiNote": 42,
      "noteName": "F#2",
      "velocity": 0.7244094488188977,
      "duration": "94i"
    },
    {
      "time": "15648i",
      "midiNote": 42,
      "noteName": "F#2",
      "velocity": 0.7244094488188977,
      "duration": "62i"
    },
    {
      "time": "15712i",
      "midiNote": 36,
      "noteName": "C2",
      "velocity": 0.7244094488188977,
      "duration": "30i"
    },
    {
      "time": "15712i",
      "midiNote": 42,
      "noteName": "F#2",
      "velocity": 0.7244094488188977,
      "duration": "30i"
    },
    {
      "time": "15744i",
      "midiNote": 36,
      "noteName": "C2",
      "velocity": 0.7244094488188977,
      "duration": "94i"
    },
    {
      "time": "15744i",
      "midiNote": 42,
      "noteName": "F#2",
      "velocity": 0.7244094488188977,
      "duration": "94i"
    },
    {
      "time": "15840i",
      "midiNote": 42,
      "noteName": "F#2",
      "velocity": 0.7244094488188977,
      "duration": "62i"
    },
    {
      "time": "15904i",
      "midiNote": 42,
      "noteName": "F#2",
      "velocity": 0.7244094488188977,
      "duration": "30i"
    },
    {
      "time": "15936i",
      "midiNote": 40,
      "noteName": "E2",
      "velocity": 0.7244094488188977,
      "duration": "62i"
    },
    {
      "time": "15936i",
      "midiNote": 42,
      "noteName": "F#2",
      "velocity": 0.7244094488188977,
      "duration": "62i"
    },
    {
      "time": "16000i",
      "midiNote": 44,
      "noteName": "G#2",
      "velocity": 0.7244094488188977,
      "duration": "30i"
    },
    {
      "time": "16032i",
      "midiNote": 42,
      "noteName": "F#2",
      "velocity": 0.7244094488188977,
      "duration": "62i"
    },
    {
      "time": "16096i",
      "midiNote": 36,
      "noteName": "C2",
      "velocity": 0.7244094488188977,
      "duration": "30i"
    },
    {
      "time": "16096i",
      "midiNote": 42,
      "noteName": "F#2",
      "velocity": 0.7244094488188977,
      "duration": "30i"
    },
    {
      "time": "16128i",
      "midiNote": 36,
      "noteName": "C2",
      "velocity": 0.7244094488188977,
      "duration": "94i"
    },
    {
      "time": "16128i",
      "midiNote": 42,
      "noteName": "F#2",
      "velocity": 0.7244094488188977,
      "duration": "94i"
    },
    {
      "time": "16224i",
      "midiNote": 42,
      "noteName": "F#2",
      "velocity": 0.7244094488188977,
      "duration": "62i"
    },
    {
      "time": "16288i",
      "midiNote": 42,
      "noteName": "F#2",
      "velocity": 0.7244094488188977,
      "duration": "30i"
    },
    {
      "time": "16320i",
      "midiNote": 40,
      "noteName": "E2",
      "velocity": 0.7244094488188977,
      "duration": "94i"
    },
    {
      "time": "16320i",
      "midiNote": 42,
      "noteName": "F#2",
      "velocity": 0.7244094488188977,
      "duration": "94i"
    },
    {
      "time": "16416i",
      "midiNote": 42,
      "noteName": "F#2",
      "velocity": 0.7244094488188977,
      "duration": "62i"
    },
    {
      "time": "16416i",
      "midiNote": 60,
      "noteName": "C4",
      "velocity": 0.7244094488188977,
      "duration": "62i"
    },
    {
      "time": "16480i",
      "midiNote": 36,
      "noteName": "C2",
      "velocity": 0.7244094488188977,
      "duration": "30i"
    },
    {
      "time": "16480i",
      "midiNote": 42,
      "noteName": "F#2",
      "velocity": 0.7244094488188977,
      "duration": "30i"
    },
    {
      "time": "16480i",
      "midiNote": 60,
      "noteName": "C4",
      "velocity": 0.7244094488188977,
      "duration": "30i"
    },
    {
      "time": "16512i",
      "midiNote": 36,
      "noteName": "C2",
      "velocity": 0.7244094488188977,
      "duration": "94i"
    },
    {
      "time": "16512i",
      "midiNote": 42,
      "noteName": "F#2",
      "velocity": 0.7244094488188977,
      "duration": "94i"
    },
    {
      "time": "16608i",
      "midiNote": 42,
      "noteName": "F#2",
      "velocity": 0.7244094488188977,
      "duration": "62i"
    },
    {
      "time": "16672i",
      "midiNote": 42,
      "noteName": "F#2",
      "velocity": 0.7244094488188977,
      "duration": "30i"
    },
    {
      "time": "16704i",
      "midiNote": 40,
      "noteName": "E2",
      "velocity": 0.7244094488188977,
      "duration": "62i"
    },
    {
      "time": "16704i",
      "midiNote": 42,
      "noteName": "F#2",
      "velocity": 0.7244094488188977,
      "duration": "62i"
    },
    {
      "time": "16768i",
      "midiNote": 44,
      "noteName": "G#2",
      "velocity": 0.7244094488188977,
      "duration": "30i"
    },
    {
      "time": "16800i",
      "midiNote": 42,
      "noteName": "F#2",
      "velocity": 0.7244094488188977,
      "duration": "62i"
    },
    {
      "time": "16864i",
      "midiNote": 36,
      "noteName": "C2",
      "velocity": 0.7244094488188977,
      "duration": "30i"
    },
    {
      "time": "16864i",
      "midiNote": 42,
      "noteName": "F#2",
      "velocity": 0.7244094488188977,
      "duration": "30i"
    },
    {
      "time": "16896i",
      "midiNote": 36,
      "noteName": "C2",
      "velocity": 0.7244094488188977,
      "duration": "94i"
    },
    {
      "time": "16896i",
      "midiNote": 42,
      "noteName": "F#2",
      "velocity": 0.7244094488188977,
      "duration": "94i"
    },
    {
      "time": "16992i",
      "midiNote": 42,
      "noteName": "F#2",
      "velocity": 0.7244094488188977,
      "duration": "62i"
    },
    {
      "time": "17056i",
      "midiNote": 42,
      "noteName": "F#2",
      "velocity": 0.7244094488188977,
      "duration": "30i"
    },
    {
      "time": "17088i",
      "midiNote": 40,
      "noteName": "E2",
      "velocity": 0.7244094488188977,
      "duration": "94i"
    },
    {
      "time": "17088i",
      "midiNote": 42,
      "noteName": "F#2",
      "velocity": 0.7244094488188977,
      "duration": "94i"
    },
    {
      "time": "17184i",
      "midiNote": 42,
      "noteName": "F#2",
      "velocity": 0.7244094488188977,
      "duration": "62i"
    },
    {
      "time": "17248i",
      "midiNote": 36,
      "noteName": "C2",
      "velocity": 0.7244094488188977,
      "duration": "30i"
    },
    {
      "time": "17248i",
      "midiNote": 42,
      "noteName": "F#2",
      "velocity": 0.7244094488188977,
      "duration": "30i"
    },
    {
      "time": "17280i",
      "midiNote": 36,
      "noteName": "C2",
      "velocity": 0.7244094488188977,
      "duration": "94i"
    },
    {
      "time": "17280i",
      "midiNote": 42,
      "noteName": "F#2",
      "velocity": 0.7244094488188977,
      "duration": "94i"
    },
    {
      "time": "17376i",
      "midiNote": 42,
      "noteName": "F#2",
      "velocity": 0.7244094488188977,
      "duration": "62i"
    },
    {
      "time": "17440i",
      "midiNote": 42,
      "noteName": "F#2",
      "velocity": 0.7244094488188977,
      "duration": "30i"
    },
    {
      "time": "17472i",
      "midiNote": 40,
      "noteName": "E2",
      "velocity": 0.7244094488188977,
      "duration": "62i"
    },
    {
      "time": "17472i",
      "midiNote": 42,
      "noteName": "F#2",
      "velocity": 0.7244094488188977,
      "duration": "62i"
    },
    {
      "time": "17536i",
      "midiNote": 44,
      "noteName": "G#2",
      "velocity": 0.7244094488188977,
      "duration": "30i"
    },
    {
      "time": "17568i",
      "midiNote": 42,
      "noteName": "F#2",
      "velocity": 0.7244094488188977,
      "duration": "62i"
    },
    {
      "time": "17632i",
      "midiNote": 36,
      "noteName": "C2",
      "velocity": 0.7244094488188977,
      "duration": "30i"
    },
    {
      "time": "17632i",
      "midiNote": 42,
      "noteName": "F#2",
      "velocity": 0.7244094488188977,
      "duration": "30i"
    },
    {
      "time": "17664i",
      "midiNote": 36,
      "noteName": "C2",
      "velocity": 0.7244094488188977,
      "duration": "94i"
    },
    {
      "time": "17760i",
      "midiNote": 36,
      "noteName": "C2",
      "velocity": 0.7244094488188977,
      "duration": "62i"
    },
    {
      "time": "17824i",
      "midiNote": 36,
      "noteName": "C2",
      "velocity": 0.7244094488188977,
      "duration": "30i"
    },
    {
      "time": "17856i",
      "midiNote": 40,
      "noteName": "E2",
      "velocity": 0.7244094488188977,
      "duration": "62i"
    },
    {
      "time": "17920i",
      "midiNote": 36,
      "noteName": "C2",
      "velocity": 0.7244094488188977,
      "duration": "30i"
    },
    {
      "time": "17952i",
      "midiNote": 44,
      "noteName": "G#2",
      "velocity": 0.7244094488188977,
      "duration": "62i"
    },
    {
      "time": "18016i",
      "midiNote": 36,
      "noteName": "C2",
      "velocity": 0.7244094488188977,
      "duration": "30i"
    },
    {
      "time": "18016i",
      "midiNote": 42,
      "noteName": "F#2",
      "velocity": 0.7244094488188977,
      "duration": "30i"
    },
    {
      "time": "18048i",
      "midiNote": 36,
      "noteName": "C2",
      "velocity": 0.7244094488188977,
      "duration": "62i"
    },
    {
      "time": "18048i",
      "midiNote": 42,
      "noteName": "F#2",
      "velocity": 0.7244094488188977,
      "duration": "62i"
    },
    {
      "time": "18112i",
      "midiNote": 42,
      "noteName": "F#2",
      "velocity": 0.7244094488188977,
      "duration": "30i"
    },
    {
      "time": "18240i",
      "midiNote": 46,
      "noteName": "A#2",
      "velocity": 0.7244094488188977,
      "duration": "62i"
    },
    {
      "time": "18240i",
      "midiNote": 48,
      "noteName": "C3",
      "velocity": 0.7244094488188977,
      "duration": "62i"
    },
    {
      "time": "18304i",
      "midiNote": 46,
      "noteName": "A#2",
      "velocity": 0.7244094488188977,
      "duration": "126i"
    },
    {
      "time": "18304i",
      "midiNote": 47,
      "noteName": "B2",
      "velocity": 0.7244094488188977,
      "duration": "126i"
    }
  ]
]

buildTrack = parseMidi(parts: parts, transport: transport)
