require('v1/midi')

transport = {
  "timeSignature": [
    2,
    2
  ],
  "bpm": 200
}

parts = [
  [
    {
      "time": "96i",
      "midiNote": 41,
      "noteName": "F2",
      "velocity": 0.9921259842519685,
      "duration": "860i"
    },
    {
      "time": "1152i",
      "midiNote": 72,
      "noteName": "C5",
      "velocity": 0.7007874015748031,
      "duration": "28i"
    },
    {
      "time": "1216i",
      "midiNote": 72,
      "noteName": "C5",
      "velocity": 0.7480314960629921,
      "duration": "28i"
    },
    {
      "time": "1248i",
      "midiNote": 76,
      "noteName": "E5",
      "velocity": 0.7952755905511811,
      "duration": "28i"
    },
    {
      "time": "1312i",
      "midiNote": 76,
      "noteName": "E5",
      "velocity": 0.8503937007874016,
      "duration": "28i"
    },
    {
      "time": "1344i",
      "midiNote": 77,
      "noteName": "F5",
      "velocity": 0.8976377952755905,
      "duration": "28i"
    },
    {
      "time": "1376i",
      "midiNote": 78,
      "noteName": "F#5",
      "velocity": 0.952755905511811,
      "duration": "28i"
    },
    {
      "time": "1408i",
      "midiNote": 79,
      "noteName": "G5",
      "velocity": 0.9921259842519685,
      "duration": "28i"
    },
    {
      "time": "1440i",
      "midiNote": 80,
      "noteName": "G#5",
      "velocity": 0.9921259842519685,
      "duration": "28i"
    },
    {
      "time": "1472i",
      "midiNote": 81,
      "noteName": "A5",
      "velocity": 0.9921259842519685,
      "duration": "28i"
    },
    {
      "time": "1504i",
      "midiNote": 83,
      "noteName": "B5",
      "velocity": 0.9921259842519685,
      "duration": "220i"
    },
    {
      "time": "1728i",
      "midiNote": 76,
      "noteName": "E5",
      "velocity": 0.9921259842519685,
      "duration": "360i"
    },
    {
      "time": "2112i",
      "midiNote": 75,
      "noteName": "D#5",
      "velocity": 0.9921259842519685,
      "duration": "360i"
    },
    {
      "time": "2496i",
      "midiNote": 76,
      "noteName": "E5",
      "velocity": 0.9921259842519685,
      "duration": "380i"
    },
    {
      "time": "3264i",
      "midiNote": 76,
      "noteName": "E5",
      "velocity": 0.9921259842519685,
      "duration": "360i"
    },
    {
      "time": "3648i",
      "midiNote": 75,
      "noteName": "D#5",
      "velocity": 0.9921259842519685,
      "duration": "256i"
    },
    {
      "time": "3936i",
      "midiNote": 77,
      "noteName": "F5",
      "velocity": 0.9921259842519685,
      "duration": "84i"
    },
    {
      "time": "4032i",
      "midiNote": 76,
      "noteName": "E5",
      "velocity": 0.9921259842519685,
      "duration": "380i"
    },
    {
      "time": "4800i",
      "midiNote": 74,
      "noteName": "D5",
      "velocity": 0.9921259842519685,
      "duration": "360i"
    },
    {
      "time": "5184i",
      "midiNote": 73,
      "noteName": "C#5",
      "velocity": 0.9921259842519685,
      "duration": "360i"
    },
    {
      "time": "5568i",
      "midiNote": 74,
      "noteName": "D5",
      "velocity": 0.9921259842519685,
      "duration": "380i"
    },
    {
      "time": "6336i",
      "midiNote": 74,
      "noteName": "D5",
      "velocity": 0.9921259842519685,
      "duration": "360i"
    },
    {
      "time": "6720i",
      "midiNote": 67,
      "noteName": "G4",
      "velocity": 0.9921259842519685,
      "duration": "256i"
    },
    {
      "time": "7008i",
      "midiNote": 77,
      "noteName": "F5",
      "velocity": 0.9921259842519685,
      "duration": "84i"
    },
    {
      "time": "7104i",
      "midiNote": 76,
      "noteName": "E5",
      "velocity": 0.9921259842519685,
      "duration": "380i"
    },
    {
      "time": "7872i",
      "midiNote": 79,
      "noteName": "G5",
      "velocity": 0.9921259842519685,
      "duration": "360i"
    },
    {
      "time": "8352i",
      "midiNote": 79,
      "noteName": "G5",
      "velocity": 0.9921259842519685,
      "duration": "84i"
    },
    {
      "time": "8448i",
      "midiNote": 81,
      "noteName": "A5",
      "velocity": 0.9921259842519685,
      "duration": "64i"
    },
    {
      "time": "8520i",
      "midiNote": 79,
      "noteName": "G5",
      "velocity": 0.9921259842519685,
      "duration": "68i"
    },
    {
      "time": "8640i",
      "midiNote": 77,
      "noteName": "F5",
      "velocity": 0.9921259842519685,
      "duration": "360i"
    },
    {
      "time": "9120i",
      "midiNote": 77,
      "noteName": "F5",
      "velocity": 0.9921259842519685,
      "duration": "84i"
    },
    {
      "time": "9216i",
      "midiNote": 79,
      "noteName": "G5",
      "velocity": 0.9921259842519685,
      "duration": "64i"
    },
    {
      "time": "9288i",
      "midiNote": 77,
      "noteName": "F5",
      "velocity": 0.9921259842519685,
      "duration": "68i"
    },
    {
      "time": "9480i",
      "midiNote": 76,
      "noteName": "E5",
      "velocity": 0.9921259842519685,
      "duration": "80i"
    },
    {
      "time": "9600i",
      "midiNote": 77,
      "noteName": "F5",
      "velocity": 0.9921259842519685,
      "duration": "64i"
    },
    {
      "time": "9696i",
      "midiNote": 77,
      "noteName": "F5",
      "velocity": 0.9921259842519685,
      "duration": "48i"
    },
    {
      "time": "9768i",
      "midiNote": 78,
      "noteName": "F#5",
      "velocity": 0.9921259842519685,
      "duration": "116i"
    },
    {
      "time": "10176i",
      "midiNote": 76,
      "noteName": "E5",
      "velocity": 0.9921259842519685,
      "duration": "360i"
    }
  ],
  [
    {
      "time": "96i",
      "midiNote": 62,
      "noteName": "D4",
      "velocity": 0.9921259842519685,
      "duration": "860i"
    },
    {
      "time": "1152i",
      "midiNote": 36,
      "noteName": "C2",
      "velocity": 0.7007874015748031,
      "duration": "28i"
    },
    {
      "time": "1216i",
      "midiNote": 36,
      "noteName": "C2",
      "velocity": 0.7480314960629921,
      "duration": "28i"
    },
    {
      "time": "1248i",
      "midiNote": 34,
      "noteName": "A#1",
      "velocity": 0.7952755905511811,
      "duration": "28i"
    },
    {
      "time": "1312i",
      "midiNote": 34,
      "noteName": "A#1",
      "velocity": 0.8503937007874016,
      "duration": "28i"
    },
    {
      "time": "1344i",
      "midiNote": 33,
      "noteName": "A1",
      "velocity": 0.8976377952755905,
      "duration": "28i"
    },
    {
      "time": "1376i",
      "midiNote": 32,
      "noteName": "G#1",
      "velocity": 0.952755905511811,
      "duration": "28i"
    },
    {
      "time": "1408i",
      "midiNote": 31,
      "noteName": "G1",
      "velocity": 0.9921259842519685,
      "duration": "28i"
    },
    {
      "time": "1440i",
      "midiNote": 30,
      "noteName": "F#1",
      "velocity": 0.9921259842519685,
      "duration": "28i"
    },
    {
      "time": "1472i",
      "midiNote": 29,
      "noteName": "F1",
      "velocity": 0.9921259842519685,
      "duration": "28i"
    },
    {
      "time": "1504i",
      "midiNote": 31,
      "noteName": "G1",
      "velocity": 0.9921259842519685,
      "duration": "148i"
    },
    {
      "time": "1656i",
      "midiNote": 33,
      "noteName": "A1",
      "velocity": 0.9921259842519685,
      "duration": "20i"
    },
    {
      "time": "1680i",
      "midiNote": 34,
      "noteName": "A#1",
      "velocity": 0.9921259842519685,
      "duration": "20i"
    },
    {
      "time": "1704i",
      "midiNote": 35,
      "noteName": "B1",
      "velocity": 0.9921259842519685,
      "duration": "20i"
    },
    {
      "time": "1728i",
      "midiNote": 36,
      "noteName": "C2",
      "velocity": 0.9921259842519685,
      "duration": "92i"
    },
    {
      "time": "1824i",
      "midiNote": 38,
      "noteName": "D2",
      "velocity": 0.9921259842519685,
      "duration": "92i"
    },
    {
      "time": "1920i",
      "midiNote": 40,
      "noteName": "E2",
      "velocity": 0.9921259842519685,
      "duration": "92i"
    },
    {
      "time": "2016i",
      "midiNote": 36,
      "noteName": "C2",
      "velocity": 0.9921259842519685,
      "duration": "92i"
    },
    {
      "time": "2112i",
      "midiNote": 35,
      "noteName": "B1",
      "velocity": 0.9921259842519685,
      "duration": "92i"
    },
    {
      "time": "2208i",
      "midiNote": 37,
      "noteName": "C#2",
      "velocity": 0.9921259842519685,
      "duration": "92i"
    },
    {
      "time": "2304i",
      "midiNote": 39,
      "noteName": "D#2",
      "velocity": 0.9921259842519685,
      "duration": "92i"
    },
    {
      "time": "2400i",
      "midiNote": 35,
      "noteName": "B1",
      "velocity": 0.9921259842519685,
      "duration": "92i"
    },
    {
      "time": "2496i",
      "midiNote": 36,
      "noteName": "C2",
      "velocity": 0.9921259842519685,
      "duration": "92i"
    },
    {
      "time": "2592i",
      "midiNote": 38,
      "noteName": "D2",
      "velocity": 0.9921259842519685,
      "duration": "92i"
    },
    {
      "time": "2688i",
      "midiNote": 40,
      "noteName": "E2",
      "velocity": 0.9921259842519685,
      "duration": "92i"
    },
    {
      "time": "2784i",
      "midiNote": 36,
      "noteName": "C2",
      "velocity": 0.9921259842519685,
      "duration": "92i"
    },
    {
      "time": "2880i",
      "midiNote": 31,
      "noteName": "G1",
      "velocity": 0.9921259842519685,
      "duration": "92i"
    },
    {
      "time": "3024i",
      "midiNote": 31,
      "noteName": "G1",
      "velocity": 0.9921259842519685,
      "duration": "44i"
    },
    {
      "time": "3168i",
      "midiNote": 31,
      "noteName": "G1",
      "velocity": 0.9921259842519685,
      "duration": "28i"
    },
    {
      "time": "3200i",
      "midiNote": 38,
      "noteName": "D2",
      "velocity": 0.9921259842519685,
      "duration": "28i"
    },
    {
      "time": "3232i",
      "midiNote": 43,
      "noteName": "G2",
      "velocity": 0.9921259842519685,
      "duration": "28i"
    },
    {
      "time": "3264i",
      "midiNote": 36,
      "noteName": "C2",
      "velocity": 0.9921259842519685,
      "duration": "92i"
    },
    {
      "time": "3360i",
      "midiNote": 38,
      "noteName": "D2",
      "velocity": 0.9921259842519685,
      "duration": "92i"
    },
    {
      "time": "3456i",
      "midiNote": 40,
      "noteName": "E2",
      "velocity": 0.9921259842519685,
      "duration": "92i"
    },
    {
      "time": "3552i",
      "midiNote": 36,
      "noteName": "C2",
      "velocity": 0.9921259842519685,
      "duration": "92i"
    },
    {
      "time": "3648i",
      "midiNote": 35,
      "noteName": "B1",
      "velocity": 0.9921259842519685,
      "duration": "92i"
    },
    {
      "time": "3744i",
      "midiNote": 37,
      "noteName": "C#2",
      "velocity": 0.9921259842519685,
      "duration": "92i"
    },
    {
      "time": "3840i",
      "midiNote": 39,
      "noteName": "D#2",
      "velocity": 0.9921259842519685,
      "duration": "92i"
    },
    {
      "time": "3936i",
      "midiNote": 35,
      "noteName": "B1",
      "velocity": 0.9921259842519685,
      "duration": "92i"
    },
    {
      "time": "4032i",
      "midiNote": 36,
      "noteName": "C2",
      "velocity": 0.9921259842519685,
      "duration": "92i"
    },
    {
      "time": "4128i",
      "midiNote": 38,
      "noteName": "D2",
      "velocity": 0.9921259842519685,
      "duration": "92i"
    },
    {
      "time": "4224i",
      "midiNote": 40,
      "noteName": "E2",
      "velocity": 0.9921259842519685,
      "duration": "92i"
    },
    {
      "time": "4320i",
      "midiNote": 36,
      "noteName": "C2",
      "velocity": 0.9921259842519685,
      "duration": "92i"
    },
    {
      "time": "4416i",
      "midiNote": 31,
      "noteName": "G1",
      "velocity": 0.9921259842519685,
      "duration": "92i"
    },
    {
      "time": "4560i",
      "midiNote": 31,
      "noteName": "G1",
      "velocity": 0.9921259842519685,
      "duration": "44i"
    },
    {
      "time": "4704i",
      "midiNote": 31,
      "noteName": "G1",
      "velocity": 0.9921259842519685,
      "duration": "28i"
    },
    {
      "time": "4736i",
      "midiNote": 38,
      "noteName": "D2",
      "velocity": 0.9921259842519685,
      "duration": "28i"
    },
    {
      "time": "4768i",
      "midiNote": 43,
      "noteName": "G2",
      "velocity": 0.9921259842519685,
      "duration": "28i"
    },
    {
      "time": "4800i",
      "midiNote": 35,
      "noteName": "B1",
      "velocity": 0.9921259842519685,
      "duration": "92i"
    },
    {
      "time": "4896i",
      "midiNote": 36,
      "noteName": "C2",
      "velocity": 0.9921259842519685,
      "duration": "92i"
    },
    {
      "time": "4992i",
      "midiNote": 38,
      "noteName": "D2",
      "velocity": 0.9921259842519685,
      "duration": "92i"
    },
    {
      "time": "5088i",
      "midiNote": 35,
      "noteName": "B1",
      "velocity": 0.9921259842519685,
      "duration": "92i"
    },
    {
      "time": "5184i",
      "midiNote": 34,
      "noteName": "A#1",
      "velocity": 0.9921259842519685,
      "duration": "92i"
    },
    {
      "time": "5280i",
      "midiNote": 35,
      "noteName": "B1",
      "velocity": 0.9921259842519685,
      "duration": "92i"
    },
    {
      "time": "5376i",
      "midiNote": 37,
      "noteName": "C#2",
      "velocity": 0.9921259842519685,
      "duration": "92i"
    },
    {
      "time": "5472i",
      "midiNote": 34,
      "noteName": "A#1",
      "velocity": 0.9921259842519685,
      "duration": "92i"
    },
    {
      "time": "5568i",
      "midiNote": 35,
      "noteName": "B1",
      "velocity": 0.9921259842519685,
      "duration": "92i"
    },
    {
      "time": "5664i",
      "midiNote": 36,
      "noteName": "C2",
      "velocity": 0.9921259842519685,
      "duration": "92i"
    },
    {
      "time": "5760i",
      "midiNote": 38,
      "noteName": "D2",
      "velocity": 0.9921259842519685,
      "duration": "92i"
    },
    {
      "time": "5856i",
      "midiNote": 35,
      "noteName": "B1",
      "velocity": 0.9921259842519685,
      "duration": "92i"
    },
    {
      "time": "5952i",
      "midiNote": 31,
      "noteName": "G1",
      "velocity": 0.9921259842519685,
      "duration": "92i"
    },
    {
      "time": "6096i",
      "midiNote": 31,
      "noteName": "G1",
      "velocity": 0.9921259842519685,
      "duration": "44i"
    },
    {
      "time": "6240i",
      "midiNote": 31,
      "noteName": "G1",
      "velocity": 0.9921259842519685,
      "duration": "28i"
    },
    {
      "time": "6272i",
      "midiNote": 38,
      "noteName": "D2",
      "velocity": 0.9921259842519685,
      "duration": "28i"
    },
    {
      "time": "6304i",
      "midiNote": 43,
      "noteName": "G2",
      "velocity": 0.9921259842519685,
      "duration": "28i"
    },
    {
      "time": "6336i",
      "midiNote": 35,
      "noteName": "B1",
      "velocity": 0.9921259842519685,
      "duration": "92i"
    },
    {
      "time": "6432i",
      "midiNote": 36,
      "noteName": "C2",
      "velocity": 0.9921259842519685,
      "duration": "92i"
    },
    {
      "time": "6528i",
      "midiNote": 38,
      "noteName": "D2",
      "velocity": 0.9921259842519685,
      "duration": "92i"
    },
    {
      "time": "6624i",
      "midiNote": 35,
      "noteName": "B1",
      "velocity": 0.9921259842519685,
      "duration": "92i"
    },
    {
      "time": "6720i",
      "midiNote": 31,
      "noteName": "G1",
      "velocity": 0.9921259842519685,
      "duration": "92i"
    },
    {
      "time": "6816i",
      "midiNote": 33,
      "noteName": "A1",
      "velocity": 0.9921259842519685,
      "duration": "92i"
    },
    {
      "time": "6912i",
      "midiNote": 35,
      "noteName": "B1",
      "velocity": 0.9921259842519685,
      "duration": "92i"
    },
    {
      "time": "7008i",
      "midiNote": 38,
      "noteName": "D2",
      "velocity": 0.9921259842519685,
      "duration": "92i"
    },
    {
      "time": "7104i",
      "midiNote": 36,
      "noteName": "C2",
      "velocity": 0.9921259842519685,
      "duration": "92i"
    },
    {
      "time": "7200i",
      "midiNote": 38,
      "noteName": "D2",
      "velocity": 0.9921259842519685,
      "duration": "92i"
    },
    {
      "time": "7296i",
      "midiNote": 40,
      "noteName": "E2",
      "velocity": 0.9921259842519685,
      "duration": "92i"
    },
    {
      "time": "7392i",
      "midiNote": 36,
      "noteName": "C2",
      "velocity": 0.9921259842519685,
      "duration": "92i"
    },
    {
      "time": "7488i",
      "midiNote": 31,
      "noteName": "G1",
      "velocity": 0.9921259842519685,
      "duration": "92i"
    },
    {
      "time": "7584i",
      "midiNote": 43,
      "noteName": "G2",
      "velocity": 0.9921259842519685,
      "duration": "68i"
    },
    {
      "time": "7656i",
      "midiNote": 31,
      "noteName": "G1",
      "velocity": 0.9921259842519685,
      "duration": "20i"
    },
    {
      "time": "7968i",
      "midiNote": 36,
      "noteName": "C2",
      "velocity": 0.9921259842519685,
      "duration": "92i"
    },
    {
      "time": "8064i",
      "midiNote": 35,
      "noteName": "B1",
      "velocity": 0.9921259842519685,
      "duration": "140i"
    },
    {
      "time": "8208i",
      "midiNote": 34,
      "noteName": "A#1",
      "velocity": 0.9921259842519685,
      "duration": "44i"
    },
    {
      "time": "8640i",
      "midiNote": 32,
      "noteName": "G#1",
      "velocity": 0.9921259842519685,
      "duration": "188i"
    },
    {
      "time": "8832i",
      "midiNote": 31,
      "noteName": "G1",
      "velocity": 0.9921259842519685,
      "duration": "140i"
    },
    {
      "time": "8976i",
      "midiNote": 32,
      "noteName": "G#1",
      "velocity": 0.9921259842519685,
      "duration": "44i"
    },
    {
      "time": "9408i",
      "midiNote": 31,
      "noteName": "G1",
      "velocity": 0.9921259842519685,
      "duration": "188i"
    },
    {
      "time": "9600i",
      "midiNote": 32,
      "noteName": "G#1",
      "velocity": 0.9921259842519685,
      "duration": "92i"
    },
    {
      "time": "9696i",
      "midiNote": 32,
      "noteName": "G#1",
      "velocity": 0.9921259842519685,
      "duration": "68i"
    },
    {
      "time": "9768i",
      "midiNote": 33,
      "noteName": "A1",
      "velocity": 0.9921259842519685,
      "duration": "20i"
    },
    {
      "time": "9888i",
      "midiNote": 33,
      "noteName": "A1",
      "velocity": 0.9921259842519685,
      "duration": "92i"
    },
    {
      "time": "9984i",
      "midiNote": 32,
      "noteName": "G#1",
      "velocity": 0.9921259842519685,
      "duration": "92i"
    },
    {
      "time": "10080i",
      "midiNote": 31,
      "noteName": "G1",
      "velocity": 0.9921259842519685,
      "duration": "92i"
    },
    {
      "time": "10176i",
      "midiNote": 36,
      "noteName": "C2",
      "velocity": 0.9921259842519685,
      "duration": "92i"
    },
    {
      "time": "10272i",
      "midiNote": 38,
      "noteName": "D2",
      "velocity": 0.9921259842519685,
      "duration": "92i"
    },
    {
      "time": "10368i",
      "midiNote": 40,
      "noteName": "E2",
      "velocity": 0.9921259842519685,
      "duration": "92i"
    },
    {
      "time": "10464i",
      "midiNote": 36,
      "noteName": "C2",
      "velocity": 0.9921259842519685,
      "duration": "92i"
    }
  ],
  [
    {
      "time": "1152i",
      "midiNote": 59,
      "noteName": "B3",
      "velocity": 0.7007874015748031,
      "duration": "28i"
    },
    {
      "time": "1216i",
      "midiNote": 59,
      "noteName": "B3",
      "velocity": 0.7480314960629921,
      "duration": "28i"
    },
    {
      "time": "1248i",
      "midiNote": 60,
      "noteName": "C4",
      "velocity": 0.7952755905511811,
      "duration": "28i"
    },
    {
      "time": "1312i",
      "midiNote": 60,
      "noteName": "C4",
      "velocity": 0.8503937007874016,
      "duration": "28i"
    },
    {
      "time": "1344i",
      "midiNote": 64,
      "noteName": "E4",
      "velocity": 0.8976377952755905,
      "duration": "28i"
    },
    {
      "time": "1376i",
      "midiNote": 64,
      "noteName": "E4",
      "velocity": 0.952755905511811,
      "duration": "28i"
    },
    {
      "time": "1408i",
      "midiNote": 65,
      "noteName": "F4",
      "velocity": 0.9921259842519685,
      "duration": "28i"
    },
    {
      "time": "1440i",
      "midiNote": 64,
      "noteName": "E4",
      "velocity": 0.9921259842519685,
      "duration": "28i"
    },
    {
      "time": "1472i",
      "midiNote": 63,
      "noteName": "D#4",
      "velocity": 0.9921259842519685,
      "duration": "28i"
    },
    {
      "time": "1504i",
      "midiNote": 65,
      "noteName": "F4",
      "velocity": 0.9921259842519685,
      "duration": "220i"
    }
  ],
  [
    {
      "time": "1152i",
      "midiNote": 55,
      "noteName": "G3",
      "velocity": 0.7007874015748031,
      "duration": "28i"
    },
    {
      "time": "1216i",
      "midiNote": 55,
      "noteName": "G3",
      "velocity": 0.7480314960629921,
      "duration": "28i"
    },
    {
      "time": "1248i",
      "midiNote": 55,
      "noteName": "G3",
      "velocity": 0.7952755905511811,
      "duration": "28i"
    },
    {
      "time": "1312i",
      "midiNote": 55,
      "noteName": "G3",
      "velocity": 0.8503937007874016,
      "duration": "28i"
    },
    {
      "time": "1344i",
      "midiNote": 60,
      "noteName": "C4",
      "velocity": 0.8976377952755905,
      "duration": "28i"
    },
    {
      "time": "1376i",
      "midiNote": 60,
      "noteName": "C4",
      "velocity": 0.952755905511811,
      "duration": "28i"
    },
    {
      "time": "1408i",
      "midiNote": 60,
      "noteName": "C4",
      "velocity": 0.9921259842519685,
      "duration": "28i"
    },
    {
      "time": "1440i",
      "midiNote": 60,
      "noteName": "C4",
      "velocity": 0.9921259842519685,
      "duration": "28i"
    },
    {
      "time": "1472i",
      "midiNote": 60,
      "noteName": "C4",
      "velocity": 0.9921259842519685,
      "duration": "28i"
    },
    {
      "time": "1504i",
      "midiNote": 65,
      "noteName": "F4",
      "velocity": 0.9921259842519685,
      "duration": "220i"
    },
    {
      "time": "1728i",
      "midiNote": 84,
      "noteName": "C6",
      "velocity": 0.9921259842519685,
      "duration": "188i"
    },
    {
      "time": "2184i",
      "midiNote": 69,
      "noteName": "A4",
      "velocity": 0.9921259842519685,
      "duration": "116i"
    },
    {
      "time": "2304i",
      "midiNote": 69,
      "noteName": "A4",
      "velocity": 0.9921259842519685,
      "duration": "188i"
    },
    {
      "time": "2568i",
      "midiNote": 71,
      "noteName": "B4",
      "velocity": 0.9921259842519685,
      "duration": "116i"
    },
    {
      "time": "2688i",
      "midiNote": 71,
      "noteName": "B4",
      "velocity": 0.9921259842519685,
      "duration": "188i"
    },
    {
      "time": "2880i",
      "midiNote": 95,
      "noteName": "B6",
      "velocity": 0.9921259842519685,
      "duration": "140i"
    },
    {
      "time": "3024i",
      "midiNote": 95,
      "noteName": "B6",
      "velocity": 0.9921259842519685,
      "duration": "236i"
    },
    {
      "time": "3336i",
      "midiNote": 71,
      "noteName": "B4",
      "velocity": 0.9921259842519685,
      "duration": "116i"
    },
    {
      "time": "3456i",
      "midiNote": 71,
      "noteName": "B4",
      "velocity": 0.9921259842519685,
      "duration": "188i"
    },
    {
      "time": "3720i",
      "midiNote": 69,
      "noteName": "A4",
      "velocity": 0.9921259842519685,
      "duration": "116i"
    },
    {
      "time": "3840i",
      "midiNote": 69,
      "noteName": "A4",
      "velocity": 0.9921259842519685,
      "duration": "188i"
    },
    {
      "time": "4104i",
      "midiNote": 71,
      "noteName": "B4",
      "velocity": 0.9921259842519685,
      "duration": "116i"
    },
    {
      "time": "4224i",
      "midiNote": 71,
      "noteName": "B4",
      "velocity": 0.9921259842519685,
      "duration": "188i"
    },
    {
      "time": "4416i",
      "midiNote": 95,
      "noteName": "B6",
      "velocity": 0.9921259842519685,
      "duration": "140i"
    },
    {
      "time": "4560i",
      "midiNote": 95,
      "noteName": "B6",
      "velocity": 0.9921259842519685,
      "duration": "236i"
    },
    {
      "time": "4872i",
      "midiNote": 69,
      "noteName": "A4",
      "velocity": 0.9921259842519685,
      "duration": "116i"
    },
    {
      "time": "4992i",
      "midiNote": 69,
      "noteName": "A4",
      "velocity": 0.9921259842519685,
      "duration": "188i"
    },
    {
      "time": "5256i",
      "midiNote": 68,
      "noteName": "G#4",
      "velocity": 0.9921259842519685,
      "duration": "116i"
    },
    {
      "time": "5376i",
      "midiNote": 68,
      "noteName": "G#4",
      "velocity": 0.9921259842519685,
      "duration": "188i"
    },
    {
      "time": "5640i",
      "midiNote": 69,
      "noteName": "A4",
      "velocity": 0.9921259842519685,
      "duration": "116i"
    },
    {
      "time": "5760i",
      "midiNote": 69,
      "noteName": "A4",
      "velocity": 0.9921259842519685,
      "duration": "188i"
    },
    {
      "time": "5952i",
      "midiNote": 93,
      "noteName": "A6",
      "velocity": 0.9921259842519685,
      "duration": "140i"
    },
    {
      "time": "6096i",
      "midiNote": 93,
      "noteName": "A6",
      "velocity": 0.9921259842519685,
      "duration": "236i"
    },
    {
      "time": "6408i",
      "midiNote": 69,
      "noteName": "A4",
      "velocity": 0.9921259842519685,
      "duration": "116i"
    },
    {
      "time": "6528i",
      "midiNote": 69,
      "noteName": "A4",
      "velocity": 0.9921259842519685,
      "duration": "188i"
    },
    {
      "time": "6792i",
      "midiNote": 69,
      "noteName": "A4",
      "velocity": 0.9921259842519685,
      "duration": "116i"
    },
    {
      "time": "6912i",
      "midiNote": 69,
      "noteName": "A4",
      "velocity": 0.9921259842519685,
      "duration": "188i"
    },
    {
      "time": "7176i",
      "midiNote": 71,
      "noteName": "B4",
      "velocity": 0.9921259842519685,
      "duration": "116i"
    },
    {
      "time": "7296i",
      "midiNote": 71,
      "noteName": "B4",
      "velocity": 0.9921259842519685,
      "duration": "188i"
    },
    {
      "time": "7488i",
      "midiNote": 95,
      "noteName": "B6",
      "velocity": 0.9921259842519685,
      "duration": "140i"
    },
    {
      "time": "7632i",
      "midiNote": 95,
      "noteName": "B6",
      "velocity": 0.9921259842519685,
      "duration": "236i"
    },
    {
      "time": "7968i",
      "midiNote": 62,
      "noteName": "D4",
      "velocity": 0.9921259842519685,
      "duration": "92i"
    },
    {
      "time": "8064i",
      "midiNote": 61,
      "noteName": "C#4",
      "velocity": 0.9921259842519685,
      "duration": "140i"
    },
    {
      "time": "8208i",
      "midiNote": 60,
      "noteName": "C4",
      "velocity": 0.9921259842519685,
      "duration": "44i"
    },
    {
      "time": "8640i",
      "midiNote": 60,
      "noteName": "C4",
      "velocity": 0.9921259842519685,
      "duration": "188i"
    },
    {
      "time": "8832i",
      "midiNote": 59,
      "noteName": "B3",
      "velocity": 0.9921259842519685,
      "duration": "140i"
    },
    {
      "time": "8976i",
      "midiNote": 60,
      "noteName": "C4",
      "velocity": 0.9921259842519685,
      "duration": "44i"
    },
    {
      "time": "9480i",
      "midiNote": 57,
      "noteName": "A3",
      "velocity": 0.9921259842519685,
      "duration": "80i"
    },
    {
      "time": "9600i",
      "midiNote": 58,
      "noteName": "A#3",
      "velocity": 0.9921259842519685,
      "duration": "64i"
    },
    {
      "time": "9696i",
      "midiNote": 58,
      "noteName": "A#3",
      "velocity": 0.9921259842519685,
      "duration": "48i"
    },
    {
      "time": "9768i",
      "midiNote": 59,
      "noteName": "B3",
      "velocity": 0.9921259842519685,
      "duration": "116i"
    },
    {
      "time": "9888i",
      "midiNote": 58,
      "noteName": "A#3",
      "velocity": 0.9921259842519685,
      "duration": "8i"
    },
    {
      "time": "9904i",
      "midiNote": 57,
      "noteName": "A3",
      "velocity": 0.9921259842519685,
      "duration": "8i"
    },
    {
      "time": "9920i",
      "midiNote": 56,
      "noteName": "G#3",
      "velocity": 0.9921259842519685,
      "duration": "8i"
    },
    {
      "time": "9936i",
      "midiNote": 55,
      "noteName": "G3",
      "velocity": 0.9921259842519685,
      "duration": "8i"
    },
    {
      "time": "9952i",
      "midiNote": 54,
      "noteName": "F#3",
      "velocity": 0.9921259842519685,
      "duration": "8i"
    },
    {
      "time": "10248i",
      "midiNote": 71,
      "noteName": "B4",
      "velocity": 0.9921259842519685,
      "duration": "116i"
    },
    {
      "time": "10368i",
      "midiNote": 71,
      "noteName": "B4",
      "velocity": 0.9921259842519685,
      "duration": "188i"
    }
  ],
  [
    {
      "time": "1152i",
      "midiNote": 50,
      "noteName": "D3",
      "velocity": 0.7007874015748031,
      "duration": "28i"
    },
    {
      "time": "1216i",
      "midiNote": 50,
      "noteName": "D3",
      "velocity": 0.7480314960629921,
      "duration": "28i"
    },
    {
      "time": "1248i",
      "midiNote": 55,
      "noteName": "G3",
      "velocity": 0.7952755905511811,
      "duration": "28i"
    },
    {
      "time": "1312i",
      "midiNote": 55,
      "noteName": "G3",
      "velocity": 0.8503937007874016,
      "duration": "28i"
    },
    {
      "time": "1344i",
      "midiNote": 55,
      "noteName": "G3",
      "velocity": 0.8976377952755905,
      "duration": "28i"
    },
    {
      "time": "1376i",
      "midiNote": 54,
      "noteName": "F#3",
      "velocity": 0.952755905511811,
      "duration": "28i"
    },
    {
      "time": "1408i",
      "midiNote": 57,
      "noteName": "A3",
      "velocity": 0.9921259842519685,
      "duration": "28i"
    },
    {
      "time": "1440i",
      "midiNote": 57,
      "noteName": "A3",
      "velocity": 0.9921259842519685,
      "duration": "28i"
    },
    {
      "time": "1472i",
      "midiNote": 57,
      "noteName": "A3",
      "velocity": 0.9921259842519685,
      "duration": "28i"
    },
    {
      "time": "1504i",
      "midiNote": 59,
      "noteName": "B3",
      "velocity": 0.9921259842519685,
      "duration": "220i"
    },
    {
      "time": "1728i",
      "midiNote": 55,
      "noteName": "G3",
      "velocity": 0.9921259842519685,
      "duration": "68i"
    },
    {
      "time": "1800i",
      "midiNote": 67,
      "noteName": "G4",
      "velocity": 0.9921259842519685,
      "duration": "116i"
    },
    {
      "time": "1920i",
      "midiNote": 67,
      "noteName": "G4",
      "velocity": 0.9921259842519685,
      "duration": "188i"
    },
    {
      "time": "2184i",
      "midiNote": 66,
      "noteName": "F#4",
      "velocity": 0.9921259842519685,
      "duration": "116i"
    },
    {
      "time": "2304i",
      "midiNote": 66,
      "noteName": "F#4",
      "velocity": 0.9921259842519685,
      "duration": "188i"
    },
    {
      "time": "2568i",
      "midiNote": 67,
      "noteName": "G4",
      "velocity": 0.9921259842519685,
      "duration": "116i"
    },
    {
      "time": "2688i",
      "midiNote": 67,
      "noteName": "G4",
      "velocity": 0.9921259842519685,
      "duration": "188i"
    },
    {
      "time": "2880i",
      "midiNote": 91,
      "noteName": "G6",
      "velocity": 0.9921259842519685,
      "duration": "140i"
    },
    {
      "time": "3024i",
      "midiNote": 91,
      "noteName": "G6",
      "velocity": 0.9921259842519685,
      "duration": "236i"
    },
    {
      "time": "3336i",
      "midiNote": 67,
      "noteName": "G4",
      "velocity": 0.9921259842519685,
      "duration": "116i"
    },
    {
      "time": "3456i",
      "midiNote": 67,
      "noteName": "G4",
      "velocity": 0.9921259842519685,
      "duration": "188i"
    },
    {
      "time": "3720i",
      "midiNote": 66,
      "noteName": "F#4",
      "velocity": 0.9921259842519685,
      "duration": "116i"
    },
    {
      "time": "3840i",
      "midiNote": 66,
      "noteName": "F#4",
      "velocity": 0.9921259842519685,
      "duration": "188i"
    },
    {
      "time": "4104i",
      "midiNote": 67,
      "noteName": "G4",
      "velocity": 0.9921259842519685,
      "duration": "116i"
    },
    {
      "time": "4224i",
      "midiNote": 67,
      "noteName": "G4",
      "velocity": 0.9921259842519685,
      "duration": "188i"
    },
    {
      "time": "4416i",
      "midiNote": 91,
      "noteName": "G6",
      "velocity": 0.9921259842519685,
      "duration": "140i"
    },
    {
      "time": "4560i",
      "midiNote": 91,
      "noteName": "G6",
      "velocity": 0.9921259842519685,
      "duration": "236i"
    },
    {
      "time": "4872i",
      "midiNote": 65,
      "noteName": "F4",
      "velocity": 0.9921259842519685,
      "duration": "116i"
    },
    {
      "time": "4992i",
      "midiNote": 65,
      "noteName": "F4",
      "velocity": 0.9921259842519685,
      "duration": "188i"
    },
    {
      "time": "5256i",
      "midiNote": 64,
      "noteName": "E4",
      "velocity": 0.9921259842519685,
      "duration": "116i"
    },
    {
      "time": "5376i",
      "midiNote": 64,
      "noteName": "E4",
      "velocity": 0.9921259842519685,
      "duration": "188i"
    },
    {
      "time": "5640i",
      "midiNote": 65,
      "noteName": "F4",
      "velocity": 0.9921259842519685,
      "duration": "116i"
    },
    {
      "time": "5760i",
      "midiNote": 65,
      "noteName": "F4",
      "velocity": 0.9921259842519685,
      "duration": "188i"
    },
    {
      "time": "5952i",
      "midiNote": 89,
      "noteName": "F6",
      "velocity": 0.9921259842519685,
      "duration": "140i"
    },
    {
      "time": "6096i",
      "midiNote": 89,
      "noteName": "F6",
      "velocity": 0.9921259842519685,
      "duration": "236i"
    },
    {
      "time": "6408i",
      "midiNote": 65,
      "noteName": "F4",
      "velocity": 0.9921259842519685,
      "duration": "116i"
    },
    {
      "time": "6528i",
      "midiNote": 65,
      "noteName": "F4",
      "velocity": 0.9921259842519685,
      "duration": "188i"
    },
    {
      "time": "6792i",
      "midiNote": 65,
      "noteName": "F4",
      "velocity": 0.9921259842519685,
      "duration": "116i"
    },
    {
      "time": "6912i",
      "midiNote": 65,
      "noteName": "F4",
      "velocity": 0.9921259842519685,
      "duration": "188i"
    },
    {
      "time": "7176i",
      "midiNote": 64,
      "noteName": "E4",
      "velocity": 0.9921259842519685,
      "duration": "116i"
    },
    {
      "time": "7296i",
      "midiNote": 64,
      "noteName": "E4",
      "velocity": 0.9921259842519685,
      "duration": "188i"
    },
    {
      "time": "7488i",
      "midiNote": 88,
      "noteName": "E6",
      "velocity": 0.9921259842519685,
      "duration": "140i"
    },
    {
      "time": "7632i",
      "midiNote": 88,
      "noteName": "E6",
      "velocity": 0.9921259842519685,
      "duration": "236i"
    },
    {
      "time": "7968i",
      "midiNote": 59,
      "noteName": "B3",
      "velocity": 0.9921259842519685,
      "duration": "92i"
    },
    {
      "time": "8064i",
      "midiNote": 57,
      "noteName": "A3",
      "velocity": 0.9921259842519685,
      "duration": "140i"
    },
    {
      "time": "8208i",
      "midiNote": 56,
      "noteName": "G#3",
      "velocity": 0.9921259842519685,
      "duration": "44i"
    },
    {
      "time": "8640i",
      "midiNote": 54,
      "noteName": "F#3",
      "velocity": 0.9921259842519685,
      "duration": "188i"
    },
    {
      "time": "8832i",
      "midiNote": 53,
      "noteName": "F3",
      "velocity": 0.9921259842519685,
      "duration": "140i"
    },
    {
      "time": "8976i",
      "midiNote": 54,
      "noteName": "F#3",
      "velocity": 0.9921259842519685,
      "duration": "44i"
    },
    {
      "time": "9480i",
      "midiNote": 53,
      "noteName": "F3",
      "velocity": 0.9921259842519685,
      "duration": "80i"
    },
    {
      "time": "9600i",
      "midiNote": 54,
      "noteName": "F#3",
      "velocity": 0.9921259842519685,
      "duration": "64i"
    },
    {
      "time": "9696i",
      "midiNote": 54,
      "noteName": "F#3",
      "velocity": 0.9921259842519685,
      "duration": "48i"
    },
    {
      "time": "9768i",
      "midiNote": 55,
      "noteName": "G3",
      "velocity": 0.9921259842519685,
      "duration": "116i"
    },
    {
      "time": "9888i",
      "midiNote": 54,
      "noteName": "F#3",
      "velocity": 0.9921259842519685,
      "duration": "8i"
    },
    {
      "time": "9904i",
      "midiNote": 53,
      "noteName": "F3",
      "velocity": 0.9921259842519685,
      "duration": "8i"
    },
    {
      "time": "9920i",
      "midiNote": 52,
      "noteName": "E3",
      "velocity": 0.9921259842519685,
      "duration": "8i"
    },
    {
      "time": "9936i",
      "midiNote": 51,
      "noteName": "D#3",
      "velocity": 0.9921259842519685,
      "duration": "8i"
    },
    {
      "time": "9952i",
      "midiNote": 50,
      "noteName": "D3",
      "velocity": 0.9921259842519685,
      "duration": "8i"
    },
    {
      "time": "10248i",
      "midiNote": 67,
      "noteName": "G4",
      "velocity": 0.9921259842519685,
      "duration": "116i"
    },
    {
      "time": "10368i",
      "midiNote": 67,
      "noteName": "G4",
      "velocity": 0.9921259842519685,
      "duration": "188i"
    }
  ],
  [
    {
      "time": "1160i",
      "midiNote": 72,
      "noteName": "C5",
      "velocity": 0.5984251968503937,
      "duration": "28i"
    },
    {
      "time": "1224i",
      "midiNote": 72,
      "noteName": "C5",
      "velocity": 0.6456692913385826,
      "duration": "28i"
    },
    {
      "time": "1256i",
      "midiNote": 76,
      "noteName": "E5",
      "velocity": 0.7007874015748031,
      "duration": "28i"
    },
    {
      "time": "1320i",
      "midiNote": 76,
      "noteName": "E5",
      "velocity": 0.7480314960629921,
      "duration": "28i"
    },
    {
      "time": "1352i",
      "midiNote": 77,
      "noteName": "F5",
      "velocity": 0.7952755905511811,
      "duration": "28i"
    },
    {
      "time": "1384i",
      "midiNote": 78,
      "noteName": "F#5",
      "velocity": 0.8503937007874016,
      "duration": "28i"
    },
    {
      "time": "1416i",
      "midiNote": 79,
      "noteName": "G5",
      "velocity": 0.8976377952755905,
      "duration": "28i"
    },
    {
      "time": "1448i",
      "midiNote": 80,
      "noteName": "G#5",
      "velocity": 0.8976377952755905,
      "duration": "28i"
    },
    {
      "time": "1480i",
      "midiNote": 81,
      "noteName": "A5",
      "velocity": 0.8976377952755905,
      "duration": "28i"
    },
    {
      "time": "1512i",
      "midiNote": 83,
      "noteName": "B5",
      "velocity": 0.8976377952755905,
      "duration": "212i"
    },
    {
      "time": "1728i",
      "midiNote": 72,
      "noteName": "C5",
      "velocity": 0.9921259842519685,
      "duration": "360i"
    },
    {
      "time": "2112i",
      "midiNote": 71,
      "noteName": "B4",
      "velocity": 0.9921259842519685,
      "duration": "360i"
    },
    {
      "time": "2496i",
      "midiNote": 72,
      "noteName": "C5",
      "velocity": 0.9921259842519685,
      "duration": "380i"
    },
    {
      "time": "3264i",
      "midiNote": 72,
      "noteName": "C5",
      "velocity": 0.9921259842519685,
      "duration": "360i"
    },
    {
      "time": "3648i",
      "midiNote": 71,
      "noteName": "B4",
      "velocity": 0.9921259842519685,
      "duration": "256i"
    },
    {
      "time": "3936i",
      "midiNote": 71,
      "noteName": "B4",
      "velocity": 0.9921259842519685,
      "duration": "84i"
    },
    {
      "time": "4032i",
      "midiNote": 72,
      "noteName": "C5",
      "velocity": 0.9921259842519685,
      "duration": "380i"
    },
    {
      "time": "4800i",
      "midiNote": 71,
      "noteName": "B4",
      "velocity": 0.9921259842519685,
      "duration": "360i"
    },
    {
      "time": "5184i",
      "midiNote": 70,
      "noteName": "A#4",
      "velocity": 0.9921259842519685,
      "duration": "360i"
    },
    {
      "time": "5568i",
      "midiNote": 71,
      "noteName": "B4",
      "velocity": 0.9921259842519685,
      "duration": "380i"
    },
    {
      "time": "6336i",
      "midiNote": 71,
      "noteName": "B4",
      "velocity": 0.9921259842519685,
      "duration": "360i"
    },
    {
      "time": "6720i",
      "midiNote": 65,
      "noteName": "F4",
      "velocity": 0.9921259842519685,
      "duration": "256i"
    },
    {
      "time": "7008i",
      "midiNote": 71,
      "noteName": "B4",
      "velocity": 0.9921259842519685,
      "duration": "84i"
    },
    {
      "time": "7104i",
      "midiNote": 72,
      "noteName": "C5",
      "velocity": 0.9921259842519685,
      "duration": "380i"
    },
    {
      "time": "7968i",
      "midiNote": 76,
      "noteName": "E5",
      "velocity": 0.9921259842519685,
      "duration": "84i"
    },
    {
      "time": "8064i",
      "midiNote": 74,
      "noteName": "D5",
      "velocity": 0.9921259842519685,
      "duration": "128i"
    },
    {
      "time": "8208i",
      "midiNote": 74,
      "noteName": "D5",
      "velocity": 0.9921259842519685,
      "duration": "40i"
    },
    {
      "time": "8640i",
      "midiNote": 74,
      "noteName": "D5",
      "velocity": 0.9921259842519685,
      "duration": "168i"
    },
    {
      "time": "8832i",
      "midiNote": 75,
      "noteName": "D#5",
      "velocity": 0.9921259842519685,
      "duration": "128i"
    },
    {
      "time": "8976i",
      "midiNote": 76,
      "noteName": "E5",
      "velocity": 0.9921259842519685,
      "duration": "40i"
    },
    {
      "time": "9480i",
      "midiNote": 72,
      "noteName": "C5",
      "velocity": 0.9921259842519685,
      "duration": "80i"
    },
    {
      "time": "9600i",
      "midiNote": 73,
      "noteName": "C#5",
      "velocity": 0.9921259842519685,
      "duration": "64i"
    },
    {
      "time": "9696i",
      "midiNote": 73,
      "noteName": "C#5",
      "velocity": 0.9921259842519685,
      "duration": "48i"
    },
    {
      "time": "9768i",
      "midiNote": 74,
      "noteName": "D5",
      "velocity": 0.9921259842519685,
      "duration": "116i"
    },
    {
      "time": "9888i",
      "midiNote": 73,
      "noteName": "C#5",
      "velocity": 0.9921259842519685,
      "duration": "8i"
    },
    {
      "time": "9904i",
      "midiNote": 72,
      "noteName": "C5",
      "velocity": 0.9921259842519685,
      "duration": "8i"
    },
    {
      "time": "9920i",
      "midiNote": 71,
      "noteName": "B4",
      "velocity": 0.9921259842519685,
      "duration": "8i"
    },
    {
      "time": "9936i",
      "midiNote": 70,
      "noteName": "A#4",
      "velocity": 0.9921259842519685,
      "duration": "8i"
    },
    {
      "time": "9952i",
      "midiNote": 69,
      "noteName": "A4",
      "velocity": 0.9921259842519685,
      "duration": "8i"
    },
    {
      "time": "10176i",
      "midiNote": 72,
      "noteName": "C5",
      "velocity": 0.9921259842519685,
      "duration": "360i"
    }
  ],
  [
    {
      "time": "1152i",
      "midiNote": 60,
      "noteName": "C4",
      "velocity": 0.7007874015748031,
      "duration": "28i"
    },
    {
      "time": "1216i",
      "midiNote": 60,
      "noteName": "C4",
      "velocity": 0.7480314960629921,
      "duration": "28i"
    },
    {
      "time": "1248i",
      "midiNote": 64,
      "noteName": "E4",
      "velocity": 0.7952755905511811,
      "duration": "28i"
    },
    {
      "time": "1312i",
      "midiNote": 64,
      "noteName": "E4",
      "velocity": 0.8503937007874016,
      "duration": "28i"
    },
    {
      "time": "1344i",
      "midiNote": 65,
      "noteName": "F4",
      "velocity": 0.8976377952755905,
      "duration": "28i"
    },
    {
      "time": "1376i",
      "midiNote": 66,
      "noteName": "F#4",
      "velocity": 0.952755905511811,
      "duration": "28i"
    },
    {
      "time": "1408i",
      "midiNote": 67,
      "noteName": "G4",
      "velocity": 0.9921259842519685,
      "duration": "28i"
    },
    {
      "time": "1440i",
      "midiNote": 68,
      "noteName": "G#4",
      "velocity": 0.9921259842519685,
      "duration": "28i"
    },
    {
      "time": "1472i",
      "midiNote": 69,
      "noteName": "A4",
      "velocity": 0.9921259842519685,
      "duration": "28i"
    },
    {
      "time": "1504i",
      "midiNote": 71,
      "noteName": "B4",
      "velocity": 0.9921259842519685,
      "duration": "220i"
    },
    {
      "time": "1728i",
      "midiNote": 52,
      "noteName": "E3",
      "velocity": 0.9921259842519685,
      "duration": "68i"
    },
    {
      "time": "1800i",
      "midiNote": 71,
      "noteName": "B4",
      "velocity": 0.9921259842519685,
      "duration": "116i"
    },
    {
      "time": "1920i",
      "midiNote": 71,
      "noteName": "B4",
      "velocity": 0.9921259842519685,
      "duration": "188i"
    },
    {
      "time": "3040i",
      "midiNote": 55,
      "noteName": "G3",
      "velocity": 0.9921259842519685,
      "duration": "28i"
    },
    {
      "time": "3072i",
      "midiNote": 57,
      "noteName": "A3",
      "velocity": 0.9921259842519685,
      "duration": "60i"
    },
    {
      "time": "3136i",
      "midiNote": 59,
      "noteName": "B3",
      "velocity": 0.9921259842519685,
      "duration": "28i"
    },
    {
      "time": "3168i",
      "midiNote": 60,
      "noteName": "C4",
      "velocity": 0.9921259842519685,
      "duration": "60i"
    },
    {
      "time": "3232i",
      "midiNote": 62,
      "noteName": "D4",
      "velocity": 0.9921259842519685,
      "duration": "28i"
    },
    {
      "time": "3264i",
      "midiNote": 64,
      "noteName": "E4",
      "velocity": 0.9921259842519685,
      "duration": "476i"
    },
    {
      "time": "4576i",
      "midiNote": 55,
      "noteName": "G3",
      "velocity": 0.9921259842519685,
      "duration": "28i"
    },
    {
      "time": "4608i",
      "midiNote": 57,
      "noteName": "A3",
      "velocity": 0.9921259842519685,
      "duration": "60i"
    },
    {
      "time": "4672i",
      "midiNote": 59,
      "noteName": "B3",
      "velocity": 0.9921259842519685,
      "duration": "28i"
    },
    {
      "time": "4704i",
      "midiNote": 60,
      "noteName": "C4",
      "velocity": 0.9921259842519685,
      "duration": "60i"
    },
    {
      "time": "4768i",
      "midiNote": 61,
      "noteName": "C#4",
      "velocity": 0.9921259842519685,
      "duration": "28i"
    },
    {
      "time": "4800i",
      "midiNote": 62,
      "noteName": "D4",
      "velocity": 0.9921259842519685,
      "duration": "476i"
    },
    {
      "time": "6112i",
      "midiNote": 55,
      "noteName": "G3",
      "velocity": 0.9921259842519685,
      "duration": "28i"
    },
    {
      "time": "6144i",
      "midiNote": 57,
      "noteName": "A3",
      "velocity": 0.9921259842519685,
      "duration": "60i"
    },
    {
      "time": "6208i",
      "midiNote": 59,
      "noteName": "B3",
      "velocity": 0.9921259842519685,
      "duration": "28i"
    },
    {
      "time": "6240i",
      "midiNote": 60,
      "noteName": "C4",
      "velocity": 0.9921259842519685,
      "duration": "60i"
    },
    {
      "time": "6304i",
      "midiNote": 61,
      "noteName": "C#4",
      "velocity": 0.9921259842519685,
      "duration": "28i"
    },
    {
      "time": "6336i",
      "midiNote": 62,
      "noteName": "D4",
      "velocity": 0.9921259842519685,
      "duration": "476i"
    },
    {
      "time": "7872i",
      "midiNote": 55,
      "noteName": "G3",
      "velocity": 0.9921259842519685,
      "duration": "340i"
    },
    {
      "time": "8352i",
      "midiNote": 55,
      "noteName": "G3",
      "velocity": 0.9921259842519685,
      "duration": "84i"
    },
    {
      "time": "8448i",
      "midiNote": 57,
      "noteName": "A3",
      "velocity": 0.9921259842519685,
      "duration": "64i"
    },
    {
      "time": "8520i",
      "midiNote": 55,
      "noteName": "G3",
      "velocity": 0.9921259842519685,
      "duration": "68i"
    },
    {
      "time": "8640i",
      "midiNote": 53,
      "noteName": "F3",
      "velocity": 0.9921259842519685,
      "duration": "360i"
    },
    {
      "time": "9120i",
      "midiNote": 53,
      "noteName": "F3",
      "velocity": 0.9921259842519685,
      "duration": "84i"
    },
    {
      "time": "9216i",
      "midiNote": 55,
      "noteName": "G3",
      "velocity": 0.9921259842519685,
      "duration": "64i"
    },
    {
      "time": "9288i",
      "midiNote": 53,
      "noteName": "F3",
      "velocity": 0.9921259842519685,
      "duration": "68i"
    },
    {
      "time": "9472i",
      "midiNote": 52,
      "noteName": "E3",
      "velocity": 0.9921259842519685,
      "duration": "88i"
    },
    {
      "time": "9600i",
      "midiNote": 53,
      "noteName": "F3",
      "velocity": 0.9921259842519685,
      "duration": "64i"
    },
    {
      "time": "9696i",
      "midiNote": 53,
      "noteName": "F3",
      "velocity": 0.9921259842519685,
      "duration": "44i"
    },
    {
      "time": "9760i",
      "midiNote": 54,
      "noteName": "F#3",
      "velocity": 0.9921259842519685,
      "duration": "124i"
    }
  ],
  [
    {
      "time": "1152i",
      "midiNote": 36,
      "noteName": "C2",
      "velocity": 0.7007874015748031,
      "duration": "28i"
    },
    {
      "time": "1216i",
      "midiNote": 36,
      "noteName": "C2",
      "velocity": 0.7480314960629921,
      "duration": "28i"
    },
    {
      "time": "1248i",
      "midiNote": 34,
      "noteName": "A#1",
      "velocity": 0.7952755905511811,
      "duration": "28i"
    },
    {
      "time": "1312i",
      "midiNote": 34,
      "noteName": "A#1",
      "velocity": 0.8503937007874016,
      "duration": "28i"
    },
    {
      "time": "1344i",
      "midiNote": 33,
      "noteName": "A1",
      "velocity": 0.8976377952755905,
      "duration": "28i"
    },
    {
      "time": "1376i",
      "midiNote": 32,
      "noteName": "G#1",
      "velocity": 0.952755905511811,
      "duration": "28i"
    },
    {
      "time": "1408i",
      "midiNote": 31,
      "noteName": "G1",
      "velocity": 0.9921259842519685,
      "duration": "28i"
    },
    {
      "time": "1440i",
      "midiNote": 30,
      "noteName": "F#1",
      "velocity": 0.9921259842519685,
      "duration": "28i"
    },
    {
      "time": "1472i",
      "midiNote": 29,
      "noteName": "F1",
      "velocity": 0.9921259842519685,
      "duration": "28i"
    },
    {
      "time": "1504i",
      "midiNote": 31,
      "noteName": "G1",
      "velocity": 0.9921259842519685,
      "duration": "148i"
    },
    {
      "time": "1656i",
      "midiNote": 33,
      "noteName": "A1",
      "velocity": 0.9921259842519685,
      "duration": "20i"
    },
    {
      "time": "1680i",
      "midiNote": 34,
      "noteName": "A#1",
      "velocity": 0.9921259842519685,
      "duration": "20i"
    },
    {
      "time": "1704i",
      "midiNote": 35,
      "noteName": "B1",
      "velocity": 0.9921259842519685,
      "duration": "20i"
    }
  ],
  [
    {
      "time": "1728i",
      "midiNote": 35,
      "noteName": "B1",
      "velocity": 0.7716535433070866,
      "duration": "140i"
    },
    {
      "time": "1728i",
      "midiNote": 44,
      "noteName": "G#2",
      "velocity": 0.889763779527559,
      "duration": "92i"
    },
    {
      "time": "1824i",
      "midiNote": 42,
      "noteName": "F#2",
      "velocity": 0.889763779527559,
      "duration": "60i"
    },
    {
      "time": "1872i",
      "midiNote": 35,
      "noteName": "B1",
      "velocity": 0.7716535433070866,
      "duration": "44i"
    },
    {
      "time": "1888i",
      "midiNote": 42,
      "noteName": "F#2",
      "velocity": 0.889763779527559,
      "duration": "28i"
    },
    {
      "time": "1920i",
      "midiNote": 35,
      "noteName": "B1",
      "velocity": 0.7716535433070866,
      "duration": "140i"
    },
    {
      "time": "1920i",
      "midiNote": 44,
      "noteName": "G#2",
      "velocity": 0.889763779527559,
      "duration": "92i"
    },
    {
      "time": "2016i",
      "midiNote": 42,
      "noteName": "F#2",
      "velocity": 0.889763779527559,
      "duration": "60i"
    },
    {
      "time": "2064i",
      "midiNote": 35,
      "noteName": "B1",
      "velocity": 0.7716535433070866,
      "duration": "44i"
    },
    {
      "time": "2080i",
      "midiNote": 42,
      "noteName": "F#2",
      "velocity": 0.889763779527559,
      "duration": "28i"
    },
    {
      "time": "2112i",
      "midiNote": 35,
      "noteName": "B1",
      "velocity": 0.7716535433070866,
      "duration": "140i"
    },
    {
      "time": "2112i",
      "midiNote": 44,
      "noteName": "G#2",
      "velocity": 0.889763779527559,
      "duration": "92i"
    },
    {
      "time": "2208i",
      "midiNote": 42,
      "noteName": "F#2",
      "velocity": 0.889763779527559,
      "duration": "60i"
    },
    {
      "time": "2256i",
      "midiNote": 35,
      "noteName": "B1",
      "velocity": 0.7716535433070866,
      "duration": "44i"
    },
    {
      "time": "2272i",
      "midiNote": 42,
      "noteName": "F#2",
      "velocity": 0.889763779527559,
      "duration": "28i"
    },
    {
      "time": "2304i",
      "midiNote": 35,
      "noteName": "B1",
      "velocity": 0.7716535433070866,
      "duration": "44i"
    },
    {
      "time": "2304i",
      "midiNote": 44,
      "noteName": "G#2",
      "velocity": 0.889763779527559,
      "duration": "92i"
    },
    {
      "time": "2352i",
      "midiNote": 38,
      "noteName": "D2",
      "velocity": 0.7716535433070866,
      "duration": "68i"
    },
    {
      "time": "2400i",
      "midiNote": 42,
      "noteName": "F#2",
      "velocity": 0.889763779527559,
      "duration": "60i"
    },
    {
      "time": "2464i",
      "midiNote": 42,
      "noteName": "F#2",
      "velocity": 0.889763779527559,
      "duration": "28i"
    },
    {
      "time": "2496i",
      "midiNote": 35,
      "noteName": "B1",
      "velocity": 0.7716535433070866,
      "duration": "140i"
    },
    {
      "time": "2496i",
      "midiNote": 44,
      "noteName": "G#2",
      "velocity": 0.889763779527559,
      "duration": "92i"
    },
    {
      "time": "2592i",
      "midiNote": 42,
      "noteName": "F#2",
      "velocity": 0.889763779527559,
      "duration": "60i"
    },
    {
      "time": "2640i",
      "midiNote": 35,
      "noteName": "B1",
      "velocity": 0.7716535433070866,
      "duration": "44i"
    },
    {
      "time": "2656i",
      "midiNote": 42,
      "noteName": "F#2",
      "velocity": 0.889763779527559,
      "duration": "28i"
    },
    {
      "time": "2688i",
      "midiNote": 35,
      "noteName": "B1",
      "velocity": 0.7716535433070866,
      "duration": "140i"
    },
    {
      "time": "2688i",
      "midiNote": 44,
      "noteName": "G#2",
      "velocity": 0.889763779527559,
      "duration": "92i"
    },
    {
      "time": "2784i",
      "midiNote": 42,
      "noteName": "F#2",
      "velocity": 0.889763779527559,
      "duration": "60i"
    },
    {
      "time": "2832i",
      "midiNote": 35,
      "noteName": "B1",
      "velocity": 0.7716535433070866,
      "duration": "44i"
    },
    {
      "time": "2848i",
      "midiNote": 42,
      "noteName": "F#2",
      "velocity": 0.889763779527559,
      "duration": "28i"
    },
    {
      "time": "2880i",
      "midiNote": 35,
      "noteName": "B1",
      "velocity": 0.7716535433070866,
      "duration": "140i"
    },
    {
      "time": "2880i",
      "midiNote": 44,
      "noteName": "G#2",
      "velocity": 0.889763779527559,
      "duration": "92i"
    },
    {
      "time": "2976i",
      "midiNote": 42,
      "noteName": "F#2",
      "velocity": 0.889763779527559,
      "duration": "60i"
    },
    {
      "time": "3024i",
      "midiNote": 35,
      "noteName": "B1",
      "velocity": 0.7716535433070866,
      "duration": "44i"
    },
    {
      "time": "3040i",
      "midiNote": 42,
      "noteName": "F#2",
      "velocity": 0.889763779527559,
      "duration": "28i"
    },
    {
      "time": "3072i",
      "midiNote": 35,
      "noteName": "B1",
      "velocity": 0.7716535433070866,
      "duration": "140i"
    },
    {
      "time": "3072i",
      "midiNote": 44,
      "noteName": "G#2",
      "velocity": 0.889763779527559,
      "duration": "92i"
    },
    {
      "time": "3168i",
      "midiNote": 42,
      "noteName": "F#2",
      "velocity": 0.889763779527559,
      "duration": "60i"
    },
    {
      "time": "3216i",
      "midiNote": 35,
      "noteName": "B1",
      "velocity": 0.7716535433070866,
      "duration": "44i"
    },
    {
      "time": "3232i",
      "midiNote": 42,
      "noteName": "F#2",
      "velocity": 0.889763779527559,
      "duration": "28i"
    },
    {
      "time": "3264i",
      "midiNote": 35,
      "noteName": "B1",
      "velocity": 0.7716535433070866,
      "duration": "140i"
    },
    {
      "time": "3264i",
      "midiNote": 44,
      "noteName": "G#2",
      "velocity": 0.889763779527559,
      "duration": "92i"
    },
    {
      "time": "3360i",
      "midiNote": 42,
      "noteName": "F#2",
      "velocity": 0.889763779527559,
      "duration": "60i"
    },
    {
      "time": "3408i",
      "midiNote": 35,
      "noteName": "B1",
      "velocity": 0.7716535433070866,
      "duration": "44i"
    },
    {
      "time": "3424i",
      "midiNote": 42,
      "noteName": "F#2",
      "velocity": 0.889763779527559,
      "duration": "28i"
    },
    {
      "time": "3456i",
      "midiNote": 35,
      "noteName": "B1",
      "velocity": 0.7716535433070866,
      "duration": "140i"
    },
    {
      "time": "3456i",
      "midiNote": 44,
      "noteName": "G#2",
      "velocity": 0.889763779527559,
      "duration": "92i"
    },
    {
      "time": "3552i",
      "midiNote": 42,
      "noteName": "F#2",
      "velocity": 0.889763779527559,
      "duration": "60i"
    },
    {
      "time": "3600i",
      "midiNote": 35,
      "noteName": "B1",
      "velocity": 0.7716535433070866,
      "duration": "44i"
    },
    {
      "time": "3616i",
      "midiNote": 42,
      "noteName": "F#2",
      "velocity": 0.889763779527559,
      "duration": "28i"
    },
    {
      "time": "3648i",
      "midiNote": 35,
      "noteName": "B1",
      "velocity": 0.7716535433070866,
      "duration": "140i"
    },
    {
      "time": "3648i",
      "midiNote": 44,
      "noteName": "G#2",
      "velocity": 0.889763779527559,
      "duration": "92i"
    },
    {
      "time": "3744i",
      "midiNote": 42,
      "noteName": "F#2",
      "velocity": 0.889763779527559,
      "duration": "60i"
    },
    {
      "time": "3792i",
      "midiNote": 35,
      "noteName": "B1",
      "velocity": 0.7716535433070866,
      "duration": "44i"
    },
    {
      "time": "3808i",
      "midiNote": 42,
      "noteName": "F#2",
      "velocity": 0.889763779527559,
      "duration": "28i"
    },
    {
      "time": "3840i",
      "midiNote": 35,
      "noteName": "B1",
      "velocity": 0.7716535433070866,
      "duration": "44i"
    },
    {
      "time": "3840i",
      "midiNote": 44,
      "noteName": "G#2",
      "velocity": 0.889763779527559,
      "duration": "92i"
    },
    {
      "time": "3888i",
      "midiNote": 38,
      "noteName": "D2",
      "velocity": 0.7716535433070866,
      "duration": "68i"
    },
    {
      "time": "3936i",
      "midiNote": 42,
      "noteName": "F#2",
      "velocity": 0.889763779527559,
      "duration": "60i"
    },
    {
      "time": "4000i",
      "midiNote": 42,
      "noteName": "F#2",
      "velocity": 0.889763779527559,
      "duration": "28i"
    },
    {
      "time": "4032i",
      "midiNote": 35,
      "noteName": "B1",
      "velocity": 0.7716535433070866,
      "duration": "140i"
    },
    {
      "time": "4032i",
      "midiNote": 44,
      "noteName": "G#2",
      "velocity": 0.889763779527559,
      "duration": "92i"
    },
    {
      "time": "4128i",
      "midiNote": 42,
      "noteName": "F#2",
      "velocity": 0.889763779527559,
      "duration": "60i"
    },
    {
      "time": "4176i",
      "midiNote": 35,
      "noteName": "B1",
      "velocity": 0.7716535433070866,
      "duration": "44i"
    },
    {
      "time": "4192i",
      "midiNote": 42,
      "noteName": "F#2",
      "velocity": 0.889763779527559,
      "duration": "28i"
    },
    {
      "time": "4224i",
      "midiNote": 35,
      "noteName": "B1",
      "velocity": 0.7716535433070866,
      "duration": "140i"
    },
    {
      "time": "4224i",
      "midiNote": 44,
      "noteName": "G#2",
      "velocity": 0.889763779527559,
      "duration": "92i"
    },
    {
      "time": "4320i",
      "midiNote": 42,
      "noteName": "F#2",
      "velocity": 0.889763779527559,
      "duration": "60i"
    },
    {
      "time": "4368i",
      "midiNote": 35,
      "noteName": "B1",
      "velocity": 0.7716535433070866,
      "duration": "44i"
    },
    {
      "time": "4384i",
      "midiNote": 42,
      "noteName": "F#2",
      "velocity": 0.889763779527559,
      "duration": "28i"
    },
    {
      "time": "4416i",
      "midiNote": 35,
      "noteName": "B1",
      "velocity": 0.7716535433070866,
      "duration": "140i"
    },
    {
      "time": "4416i",
      "midiNote": 44,
      "noteName": "G#2",
      "velocity": 0.889763779527559,
      "duration": "92i"
    },
    {
      "time": "4512i",
      "midiNote": 42,
      "noteName": "F#2",
      "velocity": 0.889763779527559,
      "duration": "60i"
    },
    {
      "time": "4560i",
      "midiNote": 35,
      "noteName": "B1",
      "velocity": 0.7716535433070866,
      "duration": "44i"
    },
    {
      "time": "4576i",
      "midiNote": 42,
      "noteName": "F#2",
      "velocity": 0.889763779527559,
      "duration": "28i"
    },
    {
      "time": "4608i",
      "midiNote": 35,
      "noteName": "B1",
      "velocity": 0.7716535433070866,
      "duration": "140i"
    },
    {
      "time": "4608i",
      "midiNote": 44,
      "noteName": "G#2",
      "velocity": 0.889763779527559,
      "duration": "92i"
    },
    {
      "time": "4704i",
      "midiNote": 42,
      "noteName": "F#2",
      "velocity": 0.889763779527559,
      "duration": "60i"
    },
    {
      "time": "4752i",
      "midiNote": 35,
      "noteName": "B1",
      "velocity": 0.7716535433070866,
      "duration": "44i"
    },
    {
      "time": "4768i",
      "midiNote": 42,
      "noteName": "F#2",
      "velocity": 0.889763779527559,
      "duration": "28i"
    },
    {
      "time": "4800i",
      "midiNote": 35,
      "noteName": "B1",
      "velocity": 0.7716535433070866,
      "duration": "140i"
    },
    {
      "time": "4800i",
      "midiNote": 44,
      "noteName": "G#2",
      "velocity": 0.889763779527559,
      "duration": "92i"
    },
    {
      "time": "4896i",
      "midiNote": 42,
      "noteName": "F#2",
      "velocity": 0.889763779527559,
      "duration": "60i"
    },
    {
      "time": "4944i",
      "midiNote": 35,
      "noteName": "B1",
      "velocity": 0.7716535433070866,
      "duration": "44i"
    },
    {
      "time": "4960i",
      "midiNote": 42,
      "noteName": "F#2",
      "velocity": 0.889763779527559,
      "duration": "28i"
    },
    {
      "time": "4992i",
      "midiNote": 35,
      "noteName": "B1",
      "velocity": 0.7716535433070866,
      "duration": "140i"
    },
    {
      "time": "4992i",
      "midiNote": 44,
      "noteName": "G#2",
      "velocity": 0.889763779527559,
      "duration": "92i"
    },
    {
      "time": "5088i",
      "midiNote": 42,
      "noteName": "F#2",
      "velocity": 0.889763779527559,
      "duration": "60i"
    },
    {
      "time": "5136i",
      "midiNote": 35,
      "noteName": "B1",
      "velocity": 0.7716535433070866,
      "duration": "44i"
    },
    {
      "time": "5152i",
      "midiNote": 42,
      "noteName": "F#2",
      "velocity": 0.889763779527559,
      "duration": "28i"
    },
    {
      "time": "5184i",
      "midiNote": 35,
      "noteName": "B1",
      "velocity": 0.7716535433070866,
      "duration": "140i"
    },
    {
      "time": "5184i",
      "midiNote": 44,
      "noteName": "G#2",
      "velocity": 0.889763779527559,
      "duration": "92i"
    },
    {
      "time": "5280i",
      "midiNote": 42,
      "noteName": "F#2",
      "velocity": 0.889763779527559,
      "duration": "60i"
    },
    {
      "time": "5328i",
      "midiNote": 35,
      "noteName": "B1",
      "velocity": 0.7716535433070866,
      "duration": "44i"
    },
    {
      "time": "5344i",
      "midiNote": 42,
      "noteName": "F#2",
      "velocity": 0.889763779527559,
      "duration": "28i"
    },
    {
      "time": "5376i",
      "midiNote": 35,
      "noteName": "B1",
      "velocity": 0.7716535433070866,
      "duration": "44i"
    },
    {
      "time": "5376i",
      "midiNote": 44,
      "noteName": "G#2",
      "velocity": 0.889763779527559,
      "duration": "92i"
    },
    {
      "time": "5424i",
      "midiNote": 38,
      "noteName": "D2",
      "velocity": 0.7716535433070866,
      "duration": "68i"
    },
    {
      "time": "5472i",
      "midiNote": 42,
      "noteName": "F#2",
      "velocity": 0.889763779527559,
      "duration": "60i"
    },
    {
      "time": "5536i",
      "midiNote": 42,
      "noteName": "F#2",
      "velocity": 0.889763779527559,
      "duration": "28i"
    },
    {
      "time": "5568i",
      "midiNote": 35,
      "noteName": "B1",
      "velocity": 0.7716535433070866,
      "duration": "140i"
    },
    {
      "time": "5568i",
      "midiNote": 44,
      "noteName": "G#2",
      "velocity": 0.889763779527559,
      "duration": "92i"
    },
    {
      "time": "5664i",
      "midiNote": 42,
      "noteName": "F#2",
      "velocity": 0.889763779527559,
      "duration": "60i"
    },
    {
      "time": "5712i",
      "midiNote": 35,
      "noteName": "B1",
      "velocity": 0.7716535433070866,
      "duration": "44i"
    },
    {
      "time": "5728i",
      "midiNote": 42,
      "noteName": "F#2",
      "velocity": 0.889763779527559,
      "duration": "28i"
    },
    {
      "time": "5760i",
      "midiNote": 35,
      "noteName": "B1",
      "velocity": 0.7716535433070866,
      "duration": "140i"
    },
    {
      "time": "5760i",
      "midiNote": 44,
      "noteName": "G#2",
      "velocity": 0.889763779527559,
      "duration": "92i"
    },
    {
      "time": "5856i",
      "midiNote": 42,
      "noteName": "F#2",
      "velocity": 0.889763779527559,
      "duration": "60i"
    },
    {
      "time": "5904i",
      "midiNote": 35,
      "noteName": "B1",
      "velocity": 0.7716535433070866,
      "duration": "44i"
    },
    {
      "time": "5920i",
      "midiNote": 42,
      "noteName": "F#2",
      "velocity": 0.889763779527559,
      "duration": "28i"
    },
    {
      "time": "5952i",
      "midiNote": 35,
      "noteName": "B1",
      "velocity": 0.7716535433070866,
      "duration": "140i"
    },
    {
      "time": "5952i",
      "midiNote": 44,
      "noteName": "G#2",
      "velocity": 0.889763779527559,
      "duration": "92i"
    },
    {
      "time": "6048i",
      "midiNote": 42,
      "noteName": "F#2",
      "velocity": 0.889763779527559,
      "duration": "60i"
    },
    {
      "time": "6096i",
      "midiNote": 35,
      "noteName": "B1",
      "velocity": 0.7716535433070866,
      "duration": "44i"
    },
    {
      "time": "6112i",
      "midiNote": 42,
      "noteName": "F#2",
      "velocity": 0.889763779527559,
      "duration": "28i"
    },
    {
      "time": "6144i",
      "midiNote": 35,
      "noteName": "B1",
      "velocity": 0.7716535433070866,
      "duration": "140i"
    },
    {
      "time": "6144i",
      "midiNote": 44,
      "noteName": "G#2",
      "velocity": 0.889763779527559,
      "duration": "92i"
    },
    {
      "time": "6240i",
      "midiNote": 42,
      "noteName": "F#2",
      "velocity": 0.889763779527559,
      "duration": "60i"
    },
    {
      "time": "6288i",
      "midiNote": 35,
      "noteName": "B1",
      "velocity": 0.7716535433070866,
      "duration": "44i"
    },
    {
      "time": "6304i",
      "midiNote": 42,
      "noteName": "F#2",
      "velocity": 0.889763779527559,
      "duration": "28i"
    },
    {
      "time": "6336i",
      "midiNote": 35,
      "noteName": "B1",
      "velocity": 0.7716535433070866,
      "duration": "140i"
    },
    {
      "time": "6336i",
      "midiNote": 44,
      "noteName": "G#2",
      "velocity": 0.889763779527559,
      "duration": "92i"
    },
    {
      "time": "6432i",
      "midiNote": 42,
      "noteName": "F#2",
      "velocity": 0.889763779527559,
      "duration": "60i"
    },
    {
      "time": "6480i",
      "midiNote": 35,
      "noteName": "B1",
      "velocity": 0.7716535433070866,
      "duration": "44i"
    },
    {
      "time": "6496i",
      "midiNote": 42,
      "noteName": "F#2",
      "velocity": 0.889763779527559,
      "duration": "28i"
    },
    {
      "time": "6528i",
      "midiNote": 35,
      "noteName": "B1",
      "velocity": 0.7716535433070866,
      "duration": "140i"
    },
    {
      "time": "6528i",
      "midiNote": 44,
      "noteName": "G#2",
      "velocity": 0.889763779527559,
      "duration": "92i"
    },
    {
      "time": "6624i",
      "midiNote": 42,
      "noteName": "F#2",
      "velocity": 0.889763779527559,
      "duration": "60i"
    },
    {
      "time": "6672i",
      "midiNote": 35,
      "noteName": "B1",
      "velocity": 0.7716535433070866,
      "duration": "44i"
    },
    {
      "time": "6688i",
      "midiNote": 42,
      "noteName": "F#2",
      "velocity": 0.889763779527559,
      "duration": "28i"
    },
    {
      "time": "6720i",
      "midiNote": 35,
      "noteName": "B1",
      "velocity": 0.7716535433070866,
      "duration": "140i"
    },
    {
      "time": "6720i",
      "midiNote": 44,
      "noteName": "G#2",
      "velocity": 0.889763779527559,
      "duration": "92i"
    },
    {
      "time": "6816i",
      "midiNote": 42,
      "noteName": "F#2",
      "velocity": 0.889763779527559,
      "duration": "60i"
    },
    {
      "time": "6864i",
      "midiNote": 35,
      "noteName": "B1",
      "velocity": 0.7716535433070866,
      "duration": "44i"
    },
    {
      "time": "6880i",
      "midiNote": 42,
      "noteName": "F#2",
      "velocity": 0.889763779527559,
      "duration": "28i"
    },
    {
      "time": "6912i",
      "midiNote": 35,
      "noteName": "B1",
      "velocity": 0.7716535433070866,
      "duration": "44i"
    },
    {
      "time": "6912i",
      "midiNote": 44,
      "noteName": "G#2",
      "velocity": 0.889763779527559,
      "duration": "92i"
    },
    {
      "time": "6960i",
      "midiNote": 38,
      "noteName": "D2",
      "velocity": 0.7716535433070866,
      "duration": "68i"
    },
    {
      "time": "7008i",
      "midiNote": 42,
      "noteName": "F#2",
      "velocity": 0.889763779527559,
      "duration": "60i"
    },
    {
      "time": "7072i",
      "midiNote": 42,
      "noteName": "F#2",
      "velocity": 0.889763779527559,
      "duration": "28i"
    },
    {
      "time": "7104i",
      "midiNote": 35,
      "noteName": "B1",
      "velocity": 0.7716535433070866,
      "duration": "140i"
    },
    {
      "time": "7104i",
      "midiNote": 44,
      "noteName": "G#2",
      "velocity": 0.889763779527559,
      "duration": "92i"
    },
    {
      "time": "7200i",
      "midiNote": 42,
      "noteName": "F#2",
      "velocity": 0.889763779527559,
      "duration": "60i"
    },
    {
      "time": "7248i",
      "midiNote": 35,
      "noteName": "B1",
      "velocity": 0.7716535433070866,
      "duration": "44i"
    },
    {
      "time": "7264i",
      "midiNote": 42,
      "noteName": "F#2",
      "velocity": 0.889763779527559,
      "duration": "28i"
    },
    {
      "time": "7296i",
      "midiNote": 35,
      "noteName": "B1",
      "velocity": 0.7716535433070866,
      "duration": "140i"
    },
    {
      "time": "7296i",
      "midiNote": 44,
      "noteName": "G#2",
      "velocity": 0.889763779527559,
      "duration": "92i"
    },
    {
      "time": "7392i",
      "midiNote": 42,
      "noteName": "F#2",
      "velocity": 0.889763779527559,
      "duration": "60i"
    },
    {
      "time": "7440i",
      "midiNote": 35,
      "noteName": "B1",
      "velocity": 0.7716535433070866,
      "duration": "44i"
    },
    {
      "time": "7456i",
      "midiNote": 42,
      "noteName": "F#2",
      "velocity": 0.889763779527559,
      "duration": "28i"
    },
    {
      "time": "7488i",
      "midiNote": 35,
      "noteName": "B1",
      "velocity": 0.7716535433070866,
      "duration": "140i"
    },
    {
      "time": "7488i",
      "midiNote": 44,
      "noteName": "G#2",
      "velocity": 0.889763779527559,
      "duration": "92i"
    },
    {
      "time": "7584i",
      "midiNote": 42,
      "noteName": "F#2",
      "velocity": 0.889763779527559,
      "duration": "60i"
    },
    {
      "time": "7632i",
      "midiNote": 35,
      "noteName": "B1",
      "velocity": 0.7716535433070866,
      "duration": "44i"
    },
    {
      "time": "7648i",
      "midiNote": 42,
      "noteName": "F#2",
      "velocity": 0.889763779527559,
      "duration": "28i"
    },
    {
      "time": "7680i",
      "midiNote": 35,
      "noteName": "B1",
      "velocity": 0.7716535433070866,
      "duration": "140i"
    },
    {
      "time": "7680i",
      "midiNote": 44,
      "noteName": "G#2",
      "velocity": 0.889763779527559,
      "duration": "92i"
    },
    {
      "time": "7776i",
      "midiNote": 42,
      "noteName": "F#2",
      "velocity": 0.889763779527559,
      "duration": "60i"
    },
    {
      "time": "7824i",
      "midiNote": 35,
      "noteName": "B1",
      "velocity": 0.7716535433070866,
      "duration": "44i"
    },
    {
      "time": "7840i",
      "midiNote": 42,
      "noteName": "F#2",
      "velocity": 0.889763779527559,
      "duration": "28i"
    },
    {
      "time": "7872i",
      "midiNote": 44,
      "noteName": "G#2",
      "velocity": 0.889763779527559,
      "duration": "92i"
    },
    {
      "time": "7968i",
      "midiNote": 42,
      "noteName": "F#2",
      "velocity": 0.889763779527559,
      "duration": "60i"
    },
    {
      "time": "8032i",
      "midiNote": 42,
      "noteName": "F#2",
      "velocity": 0.889763779527559,
      "duration": "28i"
    },
    {
      "time": "8064i",
      "midiNote": 44,
      "noteName": "G#2",
      "velocity": 0.889763779527559,
      "duration": "92i"
    },
    {
      "time": "8160i",
      "midiNote": 42,
      "noteName": "F#2",
      "velocity": 0.889763779527559,
      "duration": "60i"
    },
    {
      "time": "8224i",
      "midiNote": 42,
      "noteName": "F#2",
      "velocity": 0.889763779527559,
      "duration": "28i"
    },
    {
      "time": "8256i",
      "midiNote": 44,
      "noteName": "G#2",
      "velocity": 0.889763779527559,
      "duration": "92i"
    },
    {
      "time": "8352i",
      "midiNote": 42,
      "noteName": "F#2",
      "velocity": 0.889763779527559,
      "duration": "60i"
    },
    {
      "time": "8416i",
      "midiNote": 42,
      "noteName": "F#2",
      "velocity": 0.889763779527559,
      "duration": "28i"
    },
    {
      "time": "8448i",
      "midiNote": 44,
      "noteName": "G#2",
      "velocity": 0.889763779527559,
      "duration": "92i"
    },
    {
      "time": "8544i",
      "midiNote": 42,
      "noteName": "F#2",
      "velocity": 0.889763779527559,
      "duration": "60i"
    },
    {
      "time": "8608i",
      "midiNote": 42,
      "noteName": "F#2",
      "velocity": 0.889763779527559,
      "duration": "28i"
    },
    {
      "time": "8640i",
      "midiNote": 44,
      "noteName": "G#2",
      "velocity": 0.889763779527559,
      "duration": "92i"
    },
    {
      "time": "8736i",
      "midiNote": 42,
      "noteName": "F#2",
      "velocity": 0.889763779527559,
      "duration": "60i"
    },
    {
      "time": "8800i",
      "midiNote": 42,
      "noteName": "F#2",
      "velocity": 0.889763779527559,
      "duration": "28i"
    },
    {
      "time": "8832i",
      "midiNote": 44,
      "noteName": "G#2",
      "velocity": 0.889763779527559,
      "duration": "92i"
    },
    {
      "time": "8928i",
      "midiNote": 42,
      "noteName": "F#2",
      "velocity": 0.889763779527559,
      "duration": "60i"
    },
    {
      "time": "8992i",
      "midiNote": 42,
      "noteName": "F#2",
      "velocity": 0.889763779527559,
      "duration": "28i"
    },
    {
      "time": "9024i",
      "midiNote": 44,
      "noteName": "G#2",
      "velocity": 0.889763779527559,
      "duration": "92i"
    },
    {
      "time": "9120i",
      "midiNote": 42,
      "noteName": "F#2",
      "velocity": 0.889763779527559,
      "duration": "60i"
    },
    {
      "time": "9184i",
      "midiNote": 42,
      "noteName": "F#2",
      "velocity": 0.889763779527559,
      "duration": "28i"
    },
    {
      "time": "9216i",
      "midiNote": 44,
      "noteName": "G#2",
      "velocity": 0.889763779527559,
      "duration": "92i"
    },
    {
      "time": "9312i",
      "midiNote": 42,
      "noteName": "F#2",
      "velocity": 0.889763779527559,
      "duration": "60i"
    },
    {
      "time": "9376i",
      "midiNote": 42,
      "noteName": "F#2",
      "velocity": 0.889763779527559,
      "duration": "28i"
    },
    {
      "time": "9408i",
      "midiNote": 44,
      "noteName": "G#2",
      "velocity": 0.889763779527559,
      "duration": "92i"
    },
    {
      "time": "9504i",
      "midiNote": 42,
      "noteName": "F#2",
      "velocity": 0.889763779527559,
      "duration": "60i"
    },
    {
      "time": "9568i",
      "midiNote": 42,
      "noteName": "F#2",
      "velocity": 0.889763779527559,
      "duration": "28i"
    },
    {
      "time": "9600i",
      "midiNote": 44,
      "noteName": "G#2",
      "velocity": 0.889763779527559,
      "duration": "92i"
    },
    {
      "time": "9696i",
      "midiNote": 42,
      "noteName": "F#2",
      "velocity": 0.889763779527559,
      "duration": "60i"
    },
    {
      "time": "9760i",
      "midiNote": 42,
      "noteName": "F#2",
      "velocity": 0.889763779527559,
      "duration": "28i"
    },
    {
      "time": "9792i",
      "midiNote": 44,
      "noteName": "G#2",
      "velocity": 0.889763779527559,
      "duration": "92i"
    },
    {
      "time": "9888i",
      "midiNote": 42,
      "noteName": "F#2",
      "velocity": 0.889763779527559,
      "duration": "60i"
    },
    {
      "time": "9952i",
      "midiNote": 42,
      "noteName": "F#2",
      "velocity": 0.889763779527559,
      "duration": "28i"
    },
    {
      "time": "9984i",
      "midiNote": 44,
      "noteName": "G#2",
      "velocity": 0.889763779527559,
      "duration": "92i"
    },
    {
      "time": "10080i",
      "midiNote": 42,
      "noteName": "F#2",
      "velocity": 0.889763779527559,
      "duration": "60i"
    },
    {
      "time": "10144i",
      "midiNote": 42,
      "noteName": "F#2",
      "velocity": 0.889763779527559,
      "duration": "28i"
    },
    {
      "time": "10176i",
      "midiNote": 35,
      "noteName": "B1",
      "velocity": 0.7716535433070866,
      "duration": "140i"
    },
    {
      "time": "10176i",
      "midiNote": 44,
      "noteName": "G#2",
      "velocity": 0.889763779527559,
      "duration": "92i"
    },
    {
      "time": "10272i",
      "midiNote": 42,
      "noteName": "F#2",
      "velocity": 0.889763779527559,
      "duration": "60i"
    },
    {
      "time": "10320i",
      "midiNote": 35,
      "noteName": "B1",
      "velocity": 0.7716535433070866,
      "duration": "44i"
    },
    {
      "time": "10336i",
      "midiNote": 42,
      "noteName": "F#2",
      "velocity": 0.889763779527559,
      "duration": "28i"
    },
    {
      "time": "10368i",
      "midiNote": 35,
      "noteName": "B1",
      "velocity": 0.7716535433070866,
      "duration": "140i"
    },
    {
      "time": "10368i",
      "midiNote": 44,
      "noteName": "G#2",
      "velocity": 0.889763779527559,
      "duration": "92i"
    },
    {
      "time": "10464i",
      "midiNote": 42,
      "noteName": "F#2",
      "velocity": 0.889763779527559,
      "duration": "60i"
    },
    {
      "time": "10512i",
      "midiNote": 35,
      "noteName": "B1",
      "velocity": 0.7716535433070866,
      "duration": "44i"
    },
    {
      "time": "10528i",
      "midiNote": 42,
      "noteName": "F#2",
      "velocity": 0.889763779527559,
      "duration": "28i"
    }
  ]
]

buildTrack = parseMidi(parts: parts, transport: transport)
