require('v1/midi')

transport = {
  "bpm": 300,
  "timeSignature": [
    4,
    4
  ]
}

parts = [
  [
    {
      "time": "0i",
      "midiNote": 71,
      "noteName": "B4",
      "velocity": 0.8661417322834646,
      "duration": "336i"
    },
    {
      "time": "384i",
      "midiNote": 74,
      "noteName": "D5",
      "velocity": 0.8661417322834646,
      "duration": "160i"
    },
    {
      "time": "576i",
      "midiNote": 69,
      "noteName": "A4",
      "velocity": 0.8661417322834646,
      "duration": "336i"
    },
    {
      "time": "960i",
      "midiNote": 67,
      "noteName": "G4",
      "velocity": 0.8661417322834646,
      "duration": "94i"
    },
    {
      "time": "1056i",
      "midiNote": 69,
      "noteName": "A4",
      "velocity": 0.8661417322834646,
      "duration": "94i"
    },
    {
      "time": "1152i",
      "midiNote": 71,
      "noteName": "B4",
      "velocity": 0.8661417322834646,
      "duration": "336i"
    },
    {
      "time": "1536i",
      "midiNote": 74,
      "noteName": "D5",
      "velocity": 0.8661417322834646,
      "duration": "160i"
    },
    {
      "time": "1728i",
      "midiNote": 69,
      "noteName": "A4",
      "velocity": 0.8661417322834646,
      "duration": "528i"
    },
    {
      "time": "2304i",
      "midiNote": 71,
      "noteName": "B4",
      "velocity": 0.8661417322834646,
      "duration": "336i"
    },
    {
      "time": "2688i",
      "midiNote": 74,
      "noteName": "D5",
      "velocity": 0.8661417322834646,
      "duration": "160i"
    },
    {
      "time": "2880i",
      "midiNote": 81,
      "noteName": "A5",
      "velocity": 0.8661417322834646,
      "duration": "336i"
    },
    {
      "time": "3264i",
      "midiNote": 79,
      "noteName": "G5",
      "velocity": 0.8661417322834646,
      "duration": "160i"
    },
    {
      "time": "3456i",
      "midiNote": 74,
      "noteName": "D5",
      "velocity": 0.8661417322834646,
      "duration": "336i"
    },
    {
      "time": "3840i",
      "midiNote": 72,
      "noteName": "C5",
      "velocity": 0.8661417322834646,
      "duration": "94i"
    },
    {
      "time": "3936i",
      "midiNote": 71,
      "noteName": "B4",
      "velocity": 0.8661417322834646,
      "duration": "94i"
    },
    {
      "time": "4032i",
      "midiNote": 69,
      "noteName": "A4",
      "velocity": 0.8661417322834646,
      "duration": "528i"
    },
    {
      "time": "4608i",
      "midiNote": 71,
      "noteName": "B4",
      "velocity": 0.8661417322834646,
      "duration": "336i"
    },
    {
      "time": "4992i",
      "midiNote": 74,
      "noteName": "D5",
      "velocity": 0.8661417322834646,
      "duration": "160i"
    },
    {
      "time": "5184i",
      "midiNote": 69,
      "noteName": "A4",
      "velocity": 0.8661417322834646,
      "duration": "336i"
    },
    {
      "time": "5568i",
      "midiNote": 67,
      "noteName": "G4",
      "velocity": 0.8661417322834646,
      "duration": "94i"
    },
    {
      "time": "5664i",
      "midiNote": 69,
      "noteName": "A4",
      "velocity": 0.8661417322834646,
      "duration": "94i"
    },
    {
      "time": "5760i",
      "midiNote": 71,
      "noteName": "B4",
      "velocity": 0.8661417322834646,
      "duration": "336i"
    },
    {
      "time": "6144i",
      "midiNote": 74,
      "noteName": "D5",
      "velocity": 0.8661417322834646,
      "duration": "160i"
    },
    {
      "time": "6336i",
      "midiNote": 69,
      "noteName": "A4",
      "velocity": 0.8661417322834646,
      "duration": "528i"
    },
    {
      "time": "6912i",
      "midiNote": 71,
      "noteName": "B4",
      "velocity": 0.8661417322834646,
      "duration": "336i"
    },
    {
      "time": "7296i",
      "midiNote": 74,
      "noteName": "D5",
      "velocity": 0.8661417322834646,
      "duration": "160i"
    },
    {
      "time": "7488i",
      "midiNote": 81,
      "noteName": "A5",
      "velocity": 0.8661417322834646,
      "duration": "336i"
    },
    {
      "time": "7872i",
      "midiNote": 79,
      "noteName": "G5",
      "velocity": 0.8661417322834646,
      "duration": "160i"
    },
    {
      "time": "8064i",
      "midiNote": 86,
      "noteName": "D6",
      "velocity": 0.8661417322834646,
      "duration": "1296i"
    },
    {
      "time": "9408i",
      "midiNote": 86,
      "noteName": "D6",
      "velocity": 0.8661417322834646,
      "duration": "336i"
    },
    {
      "time": "9792i",
      "midiNote": 84,
      "noteName": "C6",
      "velocity": 0.8661417322834646,
      "duration": "94i"
    },
    {
      "time": "9888i",
      "midiNote": 83,
      "noteName": "B5",
      "velocity": 0.8661417322834646,
      "duration": "94i"
    },
    {
      "time": "9984i",
      "midiNote": 84,
      "noteName": "C6",
      "velocity": 0.8661417322834646,
      "duration": "94i"
    },
    {
      "time": "10080i",
      "midiNote": 83,
      "noteName": "B5",
      "velocity": 0.8661417322834646,
      "duration": "94i"
    },
    {
      "time": "10176i",
      "midiNote": 79,
      "noteName": "G5",
      "velocity": 0.8661417322834646,
      "duration": "336i"
    },
    {
      "time": "10560i",
      "midiNote": 84,
      "noteName": "C6",
      "velocity": 0.8661417322834646,
      "duration": "336i"
    },
    {
      "time": "10944i",
      "midiNote": 83,
      "noteName": "B5",
      "velocity": 0.8661417322834646,
      "duration": "94i"
    },
    {
      "time": "11040i",
      "midiNote": 81,
      "noteName": "A5",
      "velocity": 0.8661417322834646,
      "duration": "94i"
    },
    {
      "time": "11136i",
      "midiNote": 83,
      "noteName": "B5",
      "velocity": 0.8661417322834646,
      "duration": "94i"
    },
    {
      "time": "11232i",
      "midiNote": 81,
      "noteName": "A5",
      "velocity": 0.8661417322834646,
      "duration": "94i"
    },
    {
      "time": "11328i",
      "midiNote": 76,
      "noteName": "E5",
      "velocity": 0.8661417322834646,
      "duration": "336i"
    },
    {
      "time": "11712i",
      "midiNote": 86,
      "noteName": "D6",
      "velocity": 0.8661417322834646,
      "duration": "336i"
    },
    {
      "time": "12096i",
      "midiNote": 84,
      "noteName": "C6",
      "velocity": 0.8661417322834646,
      "duration": "94i"
    },
    {
      "time": "12192i",
      "midiNote": 83,
      "noteName": "B5",
      "velocity": 0.8661417322834646,
      "duration": "94i"
    },
    {
      "time": "12288i",
      "midiNote": 84,
      "noteName": "C6",
      "velocity": 0.8661417322834646,
      "duration": "94i"
    },
    {
      "time": "12384i",
      "midiNote": 83,
      "noteName": "B5",
      "velocity": 0.8661417322834646,
      "duration": "94i"
    },
    {
      "time": "12480i",
      "midiNote": 79,
      "noteName": "G5",
      "velocity": 0.8661417322834646,
      "duration": "160i"
    },
    {
      "time": "12672i",
      "midiNote": 84,
      "noteName": "C6",
      "velocity": 0.8661417322834646,
      "duration": "160i"
    },
    {
      "time": "12864i",
      "midiNote": 91,
      "noteName": "G6",
      "velocity": 0.8661417322834646,
      "duration": "1104i"
    }
  ],
  [
    {
      "time": "0i",
      "midiNote": 48,
      "noteName": "C3",
      "velocity": 0.8661417322834646,
      "duration": "94i"
    },
    {
      "time": "96i",
      "midiNote": 55,
      "noteName": "G3",
      "velocity": 0.8661417322834646,
      "duration": "94i"
    },
    {
      "time": "192i",
      "midiNote": 64,
      "noteName": "E4",
      "velocity": 0.8661417322834646,
      "duration": "336i"
    },
    {
      "time": "576i",
      "midiNote": 48,
      "noteName": "C3",
      "velocity": 0.8661417322834646,
      "duration": "94i"
    },
    {
      "time": "672i",
      "midiNote": 55,
      "noteName": "G3",
      "velocity": 0.8661417322834646,
      "duration": "94i"
    },
    {
      "time": "768i",
      "midiNote": 66,
      "noteName": "F#4",
      "velocity": 0.8661417322834646,
      "duration": "336i"
    },
    {
      "time": "1152i",
      "midiNote": 48,
      "noteName": "C3",
      "velocity": 0.8661417322834646,
      "duration": "94i"
    },
    {
      "time": "1248i",
      "midiNote": 55,
      "noteName": "G3",
      "velocity": 0.8661417322834646,
      "duration": "94i"
    },
    {
      "time": "1344i",
      "midiNote": 64,
      "noteName": "E4",
      "velocity": 0.8661417322834646,
      "duration": "336i"
    },
    {
      "time": "1728i",
      "midiNote": 48,
      "noteName": "C3",
      "velocity": 0.8661417322834646,
      "duration": "94i"
    },
    {
      "time": "1824i",
      "midiNote": 55,
      "noteName": "G3",
      "velocity": 0.8661417322834646,
      "duration": "94i"
    },
    {
      "time": "1920i",
      "midiNote": 66,
      "noteName": "F#4",
      "velocity": 0.8661417322834646,
      "duration": "336i"
    },
    {
      "time": "2304i",
      "midiNote": 47,
      "noteName": "B2",
      "velocity": 0.8661417322834646,
      "duration": "94i"
    },
    {
      "time": "2400i",
      "midiNote": 50,
      "noteName": "D3",
      "velocity": 0.8661417322834646,
      "duration": "94i"
    },
    {
      "time": "2496i",
      "midiNote": 57,
      "noteName": "A3",
      "velocity": 0.8661417322834646,
      "duration": "336i"
    },
    {
      "time": "2880i",
      "midiNote": 47,
      "noteName": "B2",
      "velocity": 0.8661417322834646,
      "duration": "94i"
    },
    {
      "time": "2976i",
      "midiNote": 50,
      "noteName": "D3",
      "velocity": 0.8661417322834646,
      "duration": "94i"
    },
    {
      "time": "3072i",
      "midiNote": 55,
      "noteName": "G3",
      "velocity": 0.8661417322834646,
      "duration": "336i"
    },
    {
      "time": "3456i",
      "midiNote": 45,
      "noteName": "A2",
      "velocity": 0.8661417322834646,
      "duration": "94i"
    },
    {
      "time": "3552i",
      "midiNote": 48,
      "noteName": "C3",
      "velocity": 0.8661417322834646,
      "duration": "94i"
    },
    {
      "time": "3648i",
      "midiNote": 55,
      "noteName": "G3",
      "velocity": 0.8661417322834646,
      "duration": "336i"
    },
    {
      "time": "4032i",
      "midiNote": 45,
      "noteName": "A2",
      "velocity": 0.8661417322834646,
      "duration": "94i"
    },
    {
      "time": "4128i",
      "midiNote": 48,
      "noteName": "C3",
      "velocity": 0.8661417322834646,
      "duration": "94i"
    },
    {
      "time": "4224i",
      "midiNote": 54,
      "noteName": "F#3",
      "velocity": 0.8661417322834646,
      "duration": "336i"
    },
    {
      "time": "4608i",
      "midiNote": 48,
      "noteName": "C3",
      "velocity": 0.8661417322834646,
      "duration": "94i"
    },
    {
      "time": "4704i",
      "midiNote": 55,
      "noteName": "G3",
      "velocity": 0.8661417322834646,
      "duration": "94i"
    },
    {
      "time": "4800i",
      "midiNote": 64,
      "noteName": "E4",
      "velocity": 0.8661417322834646,
      "duration": "336i"
    },
    {
      "time": "5184i",
      "midiNote": 48,
      "noteName": "C3",
      "velocity": 0.8661417322834646,
      "duration": "94i"
    },
    {
      "time": "5280i",
      "midiNote": 55,
      "noteName": "G3",
      "velocity": 0.8661417322834646,
      "duration": "94i"
    },
    {
      "time": "5376i",
      "midiNote": 66,
      "noteName": "F#4",
      "velocity": 0.8661417322834646,
      "duration": "336i"
    },
    {
      "time": "5760i",
      "midiNote": 48,
      "noteName": "C3",
      "velocity": 0.8661417322834646,
      "duration": "94i"
    },
    {
      "time": "5856i",
      "midiNote": 55,
      "noteName": "G3",
      "velocity": 0.8661417322834646,
      "duration": "94i"
    },
    {
      "time": "5952i",
      "midiNote": 64,
      "noteName": "E4",
      "velocity": 0.8661417322834646,
      "duration": "336i"
    },
    {
      "time": "6336i",
      "midiNote": 48,
      "noteName": "C3",
      "velocity": 0.8661417322834646,
      "duration": "94i"
    },
    {
      "time": "6432i",
      "midiNote": 55,
      "noteName": "G3",
      "velocity": 0.8661417322834646,
      "duration": "94i"
    },
    {
      "time": "6528i",
      "midiNote": 66,
      "noteName": "F#4",
      "velocity": 0.8661417322834646,
      "duration": "336i"
    },
    {
      "time": "6912i",
      "midiNote": 47,
      "noteName": "B2",
      "velocity": 0.8661417322834646,
      "duration": "94i"
    },
    {
      "time": "7008i",
      "midiNote": 50,
      "noteName": "D3",
      "velocity": 0.8661417322834646,
      "duration": "94i"
    },
    {
      "time": "7104i",
      "midiNote": 57,
      "noteName": "A3",
      "velocity": 0.8661417322834646,
      "duration": "336i"
    },
    {
      "time": "7488i",
      "midiNote": 47,
      "noteName": "B2",
      "velocity": 0.8661417322834646,
      "duration": "94i"
    },
    {
      "time": "7584i",
      "midiNote": 50,
      "noteName": "D3",
      "velocity": 0.8661417322834646,
      "duration": "94i"
    },
    {
      "time": "7680i",
      "midiNote": 55,
      "noteName": "G3",
      "velocity": 0.8661417322834646,
      "duration": "336i"
    },
    {
      "time": "8064i",
      "midiNote": 45,
      "noteName": "A2",
      "velocity": 0.8661417322834646,
      "duration": "94i"
    },
    {
      "time": "8160i",
      "midiNote": 48,
      "noteName": "C3",
      "velocity": 0.8661417322834646,
      "duration": "94i"
    },
    {
      "time": "8256i",
      "midiNote": 55,
      "noteName": "G3",
      "velocity": 0.8661417322834646,
      "duration": "336i"
    },
    {
      "time": "8640i",
      "midiNote": 45,
      "noteName": "A2",
      "velocity": 0.8661417322834646,
      "duration": "142i"
    },
    {
      "time": "8784i",
      "midiNote": 48,
      "noteName": "C3",
      "velocity": 0.8661417322834646,
      "duration": "142i"
    },
    {
      "time": "8928i",
      "midiNote": 54,
      "noteName": "F#3",
      "velocity": 0.8661417322834646,
      "duration": "336i"
    },
    {
      "time": "9408i",
      "midiNote": 53,
      "noteName": "F3",
      "velocity": 0.8661417322834646,
      "duration": "94i"
    },
    {
      "time": "9504i",
      "midiNote": 60,
      "noteName": "C4",
      "velocity": 0.8661417322834646,
      "duration": "94i"
    },
    {
      "time": "9600i",
      "midiNote": 65,
      "noteName": "F4",
      "velocity": 0.8661417322834646,
      "duration": "94i"
    },
    {
      "time": "9696i",
      "midiNote": 69,
      "noteName": "A4",
      "velocity": 0.8661417322834646,
      "duration": "94i"
    },
    {
      "time": "9792i",
      "midiNote": 65,
      "noteName": "F4",
      "velocity": 0.8661417322834646,
      "duration": "94i"
    },
    {
      "time": "9888i",
      "midiNote": 60,
      "noteName": "C4",
      "velocity": 0.8661417322834646,
      "duration": "94i"
    },
    {
      "time": "9984i",
      "midiNote": 52,
      "noteName": "E3",
      "velocity": 0.8661417322834646,
      "duration": "94i"
    },
    {
      "time": "10080i",
      "midiNote": 59,
      "noteName": "B3",
      "velocity": 0.8661417322834646,
      "duration": "94i"
    },
    {
      "time": "10176i",
      "midiNote": 64,
      "noteName": "E4",
      "velocity": 0.8661417322834646,
      "duration": "94i"
    },
    {
      "time": "10272i",
      "midiNote": 67,
      "noteName": "G4",
      "velocity": 0.8661417322834646,
      "duration": "94i"
    },
    {
      "time": "10368i",
      "midiNote": 64,
      "noteName": "E4",
      "velocity": 0.8661417322834646,
      "duration": "94i"
    },
    {
      "time": "10464i",
      "midiNote": 59,
      "noteName": "B3",
      "velocity": 0.8661417322834646,
      "duration": "94i"
    },
    {
      "time": "10560i",
      "midiNote": 50,
      "noteName": "D3",
      "velocity": 0.8661417322834646,
      "duration": "94i"
    },
    {
      "time": "10656i",
      "midiNote": 57,
      "noteName": "A3",
      "velocity": 0.8661417322834646,
      "duration": "94i"
    },
    {
      "time": "10752i",
      "midiNote": 62,
      "noteName": "D4",
      "velocity": 0.8661417322834646,
      "duration": "94i"
    },
    {
      "time": "10848i",
      "midiNote": 65,
      "noteName": "F4",
      "velocity": 0.8661417322834646,
      "duration": "94i"
    },
    {
      "time": "10944i",
      "midiNote": 62,
      "noteName": "D4",
      "velocity": 0.8661417322834646,
      "duration": "94i"
    },
    {
      "time": "11040i",
      "midiNote": 57,
      "noteName": "A3",
      "velocity": 0.8661417322834646,
      "duration": "94i"
    },
    {
      "time": "11136i",
      "midiNote": 48,
      "noteName": "C3",
      "velocity": 0.8661417322834646,
      "duration": "94i"
    },
    {
      "time": "11232i",
      "midiNote": 55,
      "noteName": "G3",
      "velocity": 0.8661417322834646,
      "duration": "94i"
    },
    {
      "time": "11328i",
      "midiNote": 60,
      "noteName": "C4",
      "velocity": 0.8661417322834646,
      "duration": "94i"
    },
    {
      "time": "11424i",
      "midiNote": 64,
      "noteName": "E4",
      "velocity": 0.8661417322834646,
      "duration": "94i"
    },
    {
      "time": "11520i",
      "midiNote": 60,
      "noteName": "C4",
      "velocity": 0.8661417322834646,
      "duration": "94i"
    },
    {
      "time": "11616i",
      "midiNote": 55,
      "noteName": "G3",
      "velocity": 0.8661417322834646,
      "duration": "94i"
    },
    {
      "time": "11712i",
      "midiNote": 53,
      "noteName": "F3",
      "velocity": 0.8661417322834646,
      "duration": "94i"
    },
    {
      "time": "11808i",
      "midiNote": 60,
      "noteName": "C4",
      "velocity": 0.8661417322834646,
      "duration": "94i"
    },
    {
      "time": "11904i",
      "midiNote": 65,
      "noteName": "F4",
      "velocity": 0.8661417322834646,
      "duration": "94i"
    },
    {
      "time": "12000i",
      "midiNote": 69,
      "noteName": "A4",
      "velocity": 0.8661417322834646,
      "duration": "94i"
    },
    {
      "time": "12096i",
      "midiNote": 65,
      "noteName": "F4",
      "velocity": 0.8661417322834646,
      "duration": "94i"
    },
    {
      "time": "12192i",
      "midiNote": 60,
      "noteName": "C4",
      "velocity": 0.8661417322834646,
      "duration": "94i"
    },
    {
      "time": "12288i",
      "midiNote": 52,
      "noteName": "E3",
      "velocity": 0.8661417322834646,
      "duration": "94i"
    },
    {
      "time": "12384i",
      "midiNote": 59,
      "noteName": "B3",
      "velocity": 0.8661417322834646,
      "duration": "94i"
    },
    {
      "time": "12480i",
      "midiNote": 64,
      "noteName": "E4",
      "velocity": 0.8661417322834646,
      "duration": "94i"
    },
    {
      "time": "12576i",
      "midiNote": 67,
      "noteName": "G4",
      "velocity": 0.8661417322834646,
      "duration": "94i"
    },
    {
      "time": "12672i",
      "midiNote": 64,
      "noteName": "E4",
      "velocity": 0.8661417322834646,
      "duration": "94i"
    },
    {
      "time": "12768i",
      "midiNote": 59,
      "noteName": "B3",
      "velocity": 0.8661417322834646,
      "duration": "94i"
    },
    {
      "time": "12864i",
      "midiNote": 50,
      "noteName": "D3",
      "velocity": 0.8661417322834646,
      "duration": "94i"
    },
    {
      "time": "12960i",
      "midiNote": 57,
      "noteName": "A3",
      "velocity": 0.8661417322834646,
      "duration": "94i"
    },
    {
      "time": "13056i",
      "midiNote": 62,
      "noteName": "D4",
      "velocity": 0.8661417322834646,
      "duration": "94i"
    },
    {
      "time": "13152i",
      "midiNote": 65,
      "noteName": "F4",
      "velocity": 0.8661417322834646,
      "duration": "94i"
    },
    {
      "time": "13248i",
      "midiNote": 62,
      "noteName": "D4",
      "velocity": 0.8661417322834646,
      "duration": "94i"
    },
    {
      "time": "13344i",
      "midiNote": 57,
      "noteName": "A3",
      "velocity": 0.8661417322834646,
      "duration": "94i"
    },
    {
      "time": "13440i",
      "midiNote": 50,
      "noteName": "D3",
      "velocity": 0.8661417322834646,
      "duration": "94i"
    },
    {
      "time": "13536i",
      "midiNote": 53,
      "noteName": "F3",
      "velocity": 0.8661417322834646,
      "duration": "94i"
    },
    {
      "time": "13632i",
      "midiNote": 57,
      "noteName": "A3",
      "velocity": 0.8661417322834646,
      "duration": "94i"
    },
    {
      "time": "13728i",
      "midiNote": 60,
      "noteName": "C4",
      "velocity": 0.8661417322834646,
      "duration": "94i"
    },
    {
      "time": "13824i",
      "midiNote": 65,
      "noteName": "F4",
      "velocity": 0.8661417322834646,
      "duration": "94i"
    },
    {
      "time": "13920i",
      "midiNote": 60,
      "noteName": "C4",
      "velocity": 0.8661417322834646,
      "duration": "94i"
    },
    {
      "time": "14016i",
      "midiNote": 57,
      "noteName": "A3",
      "velocity": 0.8661417322834646,
      "duration": "94i"
    },
    {
      "time": "14112i",
      "midiNote": 53,
      "noteName": "F3",
      "velocity": 0.8661417322834646,
      "duration": "94i"
    },
    {
      "time": "14208i",
      "midiNote": 55,
      "noteName": "G3",
      "velocity": 0.8661417322834646,
      "duration": "70i"
    },
    {
      "time": "14280i",
      "midiNote": 59,
      "noteName": "B3",
      "velocity": 0.8661417322834646,
      "duration": "70i"
    },
    {
      "time": "14352i",
      "midiNote": 62,
      "noteName": "D4",
      "velocity": 0.8661417322834646,
      "duration": "70i"
    },
    {
      "time": "14424i",
      "midiNote": 67,
      "noteName": "G4",
      "velocity": 0.8661417322834646,
      "duration": "358i"
    }
  ],
  [
    {
      "time": "0i",
      "midiNote": 67,
      "noteName": "G4",
      "velocity": 0.5905511811023622,
      "duration": "528i"
    },
    {
      "time": "576i",
      "midiNote": 69,
      "noteName": "A4",
      "velocity": 0.5905511811023622,
      "duration": "528i"
    },
    {
      "time": "1152i",
      "midiNote": 67,
      "noteName": "G4",
      "velocity": 0.5905511811023622,
      "duration": "528i"
    },
    {
      "time": "1728i",
      "midiNote": 69,
      "noteName": "A4",
      "velocity": 0.5905511811023622,
      "duration": "528i"
    },
    {
      "time": "2304i",
      "midiNote": 69,
      "noteName": "A4",
      "velocity": 0.5905511811023622,
      "duration": "528i"
    },
    {
      "time": "2880i",
      "midiNote": 67,
      "noteName": "G4",
      "velocity": 0.5905511811023622,
      "duration": "528i"
    },
    {
      "time": "3456i",
      "midiNote": 67,
      "noteName": "G4",
      "velocity": 0.5905511811023622,
      "duration": "528i"
    },
    {
      "time": "4032i",
      "midiNote": 66,
      "noteName": "F#4",
      "velocity": 0.5905511811023622,
      "duration": "528i"
    },
    {
      "time": "4608i",
      "midiNote": 67,
      "noteName": "G4",
      "velocity": 0.7244094488188977,
      "duration": "528i"
    },
    {
      "time": "5184i",
      "midiNote": 69,
      "noteName": "A4",
      "velocity": 0.7244094488188977,
      "duration": "528i"
    },
    {
      "time": "5760i",
      "midiNote": 67,
      "noteName": "G4",
      "velocity": 0.7244094488188977,
      "duration": "528i"
    },
    {
      "time": "6336i",
      "midiNote": 69,
      "noteName": "A4",
      "velocity": 0.7244094488188977,
      "duration": "528i"
    },
    {
      "time": "6912i",
      "midiNote": 69,
      "noteName": "A4",
      "velocity": 0.7244094488188977,
      "duration": "528i"
    },
    {
      "time": "7488i",
      "midiNote": 67,
      "noteName": "G4",
      "velocity": 0.7244094488188977,
      "duration": "528i"
    },
    {
      "time": "8064i",
      "midiNote": 67,
      "noteName": "G4",
      "velocity": 0.7244094488188977,
      "duration": "528i"
    },
    {
      "time": "8640i",
      "midiNote": 66,
      "noteName": "F#4",
      "velocity": 0.7244094488188977,
      "duration": "720i"
    },
    {
      "time": "9408i",
      "midiNote": 69,
      "noteName": "A4",
      "velocity": 0.7244094488188977,
      "duration": "528i"
    },
    {
      "time": "9984i",
      "midiNote": 67,
      "noteName": "G4",
      "velocity": 0.7244094488188977,
      "duration": "528i"
    },
    {
      "time": "10560i",
      "midiNote": 65,
      "noteName": "F4",
      "velocity": 0.7244094488188977,
      "duration": "528i"
    },
    {
      "time": "11136i",
      "midiNote": 64,
      "noteName": "E4",
      "velocity": 0.7244094488188977,
      "duration": "528i"
    },
    {
      "time": "11712i",
      "midiNote": 69,
      "noteName": "A4",
      "velocity": 0.7244094488188977,
      "duration": "528i"
    },
    {
      "time": "12288i",
      "midiNote": 67,
      "noteName": "G4",
      "velocity": 0.7244094488188977,
      "duration": "1104i"
    }
  ],
  [
    {
      "time": "4608i",
      "midiNote": 43,
      "noteName": "G2",
      "velocity": 0.7244094488188977,
      "duration": "528i"
    },
    {
      "time": "5184i",
      "midiNote": 45,
      "noteName": "A2",
      "velocity": 0.7244094488188977,
      "duration": "528i"
    },
    {
      "time": "5760i",
      "midiNote": 43,
      "noteName": "G2",
      "velocity": 0.7244094488188977,
      "duration": "528i"
    },
    {
      "time": "6336i",
      "midiNote": 45,
      "noteName": "A2",
      "velocity": 0.7244094488188977,
      "duration": "528i"
    },
    {
      "time": "6912i",
      "midiNote": 45,
      "noteName": "A2",
      "velocity": 0.7244094488188977,
      "duration": "528i"
    },
    {
      "time": "7488i",
      "midiNote": 43,
      "noteName": "G2",
      "velocity": 0.7244094488188977,
      "duration": "528i"
    },
    {
      "time": "8064i",
      "midiNote": 43,
      "noteName": "G2",
      "velocity": 0.7244094488188977,
      "duration": "528i"
    },
    {
      "time": "8640i",
      "midiNote": 54,
      "noteName": "F#3",
      "velocity": 0.7244094488188977,
      "duration": "720i"
    },
    {
      "time": "9408i",
      "midiNote": 33,
      "noteName": "A1",
      "velocity": 0.7244094488188977,
      "duration": "528i"
    },
    {
      "time": "9984i",
      "midiNote": 31,
      "noteName": "G1",
      "velocity": 0.7244094488188977,
      "duration": "528i"
    },
    {
      "time": "10560i",
      "midiNote": 29,
      "noteName": "F1",
      "velocity": 0.7244094488188977,
      "duration": "528i"
    },
    {
      "time": "11136i",
      "midiNote": 28,
      "noteName": "E1",
      "velocity": 0.7244094488188977,
      "duration": "528i"
    },
    {
      "time": "11712i",
      "midiNote": 33,
      "noteName": "A1",
      "velocity": 0.7244094488188977,
      "duration": "528i"
    },
    {
      "time": "12288i",
      "midiNote": 31,
      "noteName": "G1",
      "velocity": 0.7244094488188977,
      "duration": "528i"
    },
    {
      "time": "12864i",
      "midiNote": 34,
      "noteName": "A#1",
      "velocity": 0.7244094488188977,
      "duration": "528i"
    },
    {
      "time": "13440i",
      "midiNote": 33,
      "noteName": "A1",
      "velocity": 0.7244094488188977,
      "duration": "256i"
    },
    {
      "time": "13728i",
      "midiNote": 36,
      "noteName": "C2",
      "velocity": 0.7244094488188977,
      "duration": "256i"
    },
    {
      "time": "14016i",
      "midiNote": 35,
      "noteName": "B1",
      "velocity": 0.7244094488188977,
      "duration": "720i"
    }
  ],
  [
    {
      "time": "9408i",
      "midiNote": 74,
      "noteName": "D5",
      "velocity": 0.47244094488188976,
      "duration": "336i"
    },
    {
      "time": "9792i",
      "midiNote": 72,
      "noteName": "C5",
      "velocity": 0.47244094488188976,
      "duration": "94i"
    },
    {
      "time": "9888i",
      "midiNote": 71,
      "noteName": "B4",
      "velocity": 0.47244094488188976,
      "duration": "94i"
    },
    {
      "time": "9984i",
      "midiNote": 72,
      "noteName": "C5",
      "velocity": 0.47244094488188976,
      "duration": "94i"
    },
    {
      "time": "10080i",
      "midiNote": 71,
      "noteName": "B4",
      "velocity": 0.47244094488188976,
      "duration": "94i"
    },
    {
      "time": "10176i",
      "midiNote": 67,
      "noteName": "G4",
      "velocity": 0.47244094488188976,
      "duration": "336i"
    },
    {
      "time": "10560i",
      "midiNote": 72,
      "noteName": "C5",
      "velocity": 0.47244094488188976,
      "duration": "336i"
    },
    {
      "time": "10944i",
      "midiNote": 71,
      "noteName": "B4",
      "velocity": 0.47244094488188976,
      "duration": "94i"
    },
    {
      "time": "11040i",
      "midiNote": 69,
      "noteName": "A4",
      "velocity": 0.47244094488188976,
      "duration": "94i"
    },
    {
      "time": "11136i",
      "midiNote": 71,
      "noteName": "B4",
      "velocity": 0.47244094488188976,
      "duration": "94i"
    },
    {
      "time": "11232i",
      "midiNote": 69,
      "noteName": "A4",
      "velocity": 0.47244094488188976,
      "duration": "94i"
    },
    {
      "time": "11328i",
      "midiNote": 64,
      "noteName": "E4",
      "velocity": 0.47244094488188976,
      "duration": "336i"
    },
    {
      "time": "11712i",
      "midiNote": 74,
      "noteName": "D5",
      "velocity": 0.47244094488188976,
      "duration": "336i"
    },
    {
      "time": "12096i",
      "midiNote": 72,
      "noteName": "C5",
      "velocity": 0.47244094488188976,
      "duration": "94i"
    },
    {
      "time": "12192i",
      "midiNote": 71,
      "noteName": "B4",
      "velocity": 0.47244094488188976,
      "duration": "94i"
    },
    {
      "time": "12288i",
      "midiNote": 72,
      "noteName": "C5",
      "velocity": 0.47244094488188976,
      "duration": "94i"
    },
    {
      "time": "12384i",
      "midiNote": 71,
      "noteName": "B4",
      "velocity": 0.47244094488188976,
      "duration": "94i"
    },
    {
      "time": "12480i",
      "midiNote": 67,
      "noteName": "G4",
      "velocity": 0.47244094488188976,
      "duration": "160i"
    },
    {
      "time": "12672i",
      "midiNote": 72,
      "noteName": "C5",
      "velocity": 0.47244094488188976,
      "duration": "160i"
    },
    {
      "time": "12864i",
      "midiNote": 79,
      "noteName": "G5",
      "velocity": 0.47244094488188976,
      "duration": "720i"
    }
  ],
  [
    {
      "time": "9408i",
      "midiNote": 45,
      "noteName": "A2",
      "velocity": 0.8661417322834646,
      "duration": "528i"
    },
    {
      "time": "9984i",
      "midiNote": 43,
      "noteName": "G2",
      "velocity": 0.8661417322834646,
      "duration": "528i"
    },
    {
      "time": "10560i",
      "midiNote": 41,
      "noteName": "F2",
      "velocity": 0.8661417322834646,
      "duration": "528i"
    },
    {
      "time": "11136i",
      "midiNote": 40,
      "noteName": "E2",
      "velocity": 0.8661417322834646,
      "duration": "528i"
    },
    {
      "time": "11712i",
      "midiNote": 45,
      "noteName": "A2",
      "velocity": 0.8661417322834646,
      "duration": "528i"
    },
    {
      "time": "12288i",
      "midiNote": 43,
      "noteName": "G2",
      "velocity": 0.8661417322834646,
      "duration": "528i"
    },
    {
      "time": "12864i",
      "midiNote": 46,
      "noteName": "A#2",
      "velocity": 0.8661417322834646,
      "duration": "528i"
    },
    {
      "time": "13440i",
      "midiNote": 45,
      "noteName": "A2",
      "velocity": 0.8661417322834646,
      "duration": "256i"
    },
    {
      "time": "13728i",
      "midiNote": 48,
      "noteName": "C3",
      "velocity": 0.8661417322834646,
      "duration": "256i"
    },
    {
      "time": "14016i",
      "midiNote": 47,
      "noteName": "B2",
      "velocity": 0.8661417322834646,
      "duration": "720i"
    }
  ]
]

buildTrack = parseMidi(parts: parts, transport: transport)
