require('v1/midi')

transport = {
  "timeSignature": [
    4,
    4
  ],
  "bpm": 80
}

parts = [
  [
    {
      "time": "0i",
      "midiNote": 41,
      "noteName": "F2",
      "velocity": 0.7874015748031497,
      "duration": "576i"
    },
    {
      "time": "48i",
      "midiNote": 53,
      "noteName": "F3",
      "velocity": 0.7874015748031497,
      "duration": "24i"
    },
    {
      "time": "72i",
      "midiNote": 57,
      "noteName": "A3",
      "velocity": 0.7874015748031497,
      "duration": "1080i"
    },
    {
      "time": "96i",
      "midiNote": 62,
      "noteName": "D4",
      "velocity": 0.7874015748031497,
      "duration": "480i"
    },
    {
      "time": "120i",
      "midiNote": 64,
      "noteName": "E4",
      "velocity": 0.7874015748031497,
      "duration": "456i"
    },
    {
      "time": "384i",
      "midiNote": 57,
      "noteName": "A3",
      "velocity": 0.7874015748031497,
      "duration": "192i"
    },
    {
      "time": "384i",
      "midiNote": 53,
      "noteName": "F3",
      "velocity": 0.7874015748031497,
      "duration": "768i"
    },
    {
      "time": "1170i",
      "midiNote": 36,
      "noteName": "C2",
      "velocity": 0.7874015748031497,
      "duration": "576i"
    },
    {
      "time": "1218i",
      "midiNote": 52,
      "noteName": "E3",
      "velocity": 0.7874015748031497,
      "duration": "24i"
    },
    {
      "time": "1242i",
      "midiNote": 55,
      "noteName": "G3",
      "velocity": 0.7874015748031497,
      "duration": "1062i"
    },
    {
      "time": "1266i",
      "midiNote": 59,
      "noteName": "B3",
      "velocity": 0.7874015748031497,
      "duration": "1038i"
    },
    {
      "time": "1290i",
      "midiNote": 62,
      "noteName": "D4",
      "velocity": 0.7874015748031497,
      "duration": "456i"
    },
    {
      "time": "1314i",
      "midiNote": 64,
      "noteName": "E4",
      "velocity": 0.7874015748031497,
      "duration": "432i"
    },
    {
      "time": "1536i",
      "midiNote": 59,
      "noteName": "B3",
      "velocity": 0.7874015748031497,
      "duration": "210i"
    },
    {
      "time": "1536i",
      "midiNote": 55,
      "noteName": "G3",
      "velocity": 0.7874015748031497,
      "duration": "210i"
    },
    {
      "time": "2304i",
      "midiNote": 41,
      "noteName": "F2",
      "velocity": 0.7874015748031497,
      "duration": "1152i"
    },
    {
      "time": "2400i",
      "midiNote": 48,
      "noteName": "C3",
      "velocity": 0.7874015748031497,
      "duration": "384i"
    },
    {
      "time": "2496i",
      "midiNote": 53,
      "noteName": "F3",
      "velocity": 0.7874015748031497,
      "duration": "928i"
    },
    {
      "time": "2560i",
      "midiNote": 57,
      "noteName": "A3",
      "velocity": 0.7874015748031497,
      "duration": "864i"
    },
    {
      "time": "2624i",
      "midiNote": 62,
      "noteName": "D4",
      "velocity": 0.7874015748031497,
      "duration": "64i"
    },
    {
      "time": "2656i",
      "midiNote": 57,
      "noteName": "A3",
      "velocity": 0.7874015748031497,
      "duration": "352i"
    },
    {
      "time": "2656i",
      "midiNote": 53,
      "noteName": "F3",
      "velocity": 0.7874015748031497,
      "duration": "288i"
    },
    {
      "time": "2688i",
      "midiNote": 64,
      "noteName": "E4",
      "velocity": 0.7874015748031497,
      "duration": "768i"
    },
    {
      "time": "3456i",
      "midiNote": 36,
      "noteName": "C2",
      "velocity": 0.7874015748031497,
      "duration": "1152i"
    },
    {
      "time": "3552i",
      "midiNote": 43,
      "noteName": "G2",
      "velocity": 0.7874015748031497,
      "duration": "384i"
    },
    {
      "time": "3648i",
      "midiNote": 52,
      "noteName": "E3",
      "velocity": 0.7874015748031497,
      "duration": "448i"
    },
    {
      "time": "3720i",
      "midiNote": 55,
      "noteName": "G3",
      "velocity": 0.7874015748031497,
      "duration": "856i"
    },
    {
      "time": "3776i",
      "midiNote": 62,
      "noteName": "D4",
      "velocity": 0.7874015748031497,
      "duration": "64i"
    },
    {
      "time": "3808i",
      "midiNote": 59,
      "noteName": "B3",
      "velocity": 0.7874015748031497,
      "duration": "768i"
    },
    {
      "time": "3808i",
      "midiNote": 55,
      "noteName": "G3",
      "velocity": 0.7874015748031497,
      "duration": "360i"
    },
    {
      "time": "3840i",
      "midiNote": 64,
      "noteName": "E4",
      "velocity": 0.7874015748031497,
      "duration": "768i"
    },
    {
      "time": "3840i",
      "midiNote": 74,
      "noteName": "D5",
      "velocity": 0.7874015748031497,
      "duration": "384i"
    },
    {
      "time": "4224i",
      "midiNote": 76,
      "noteName": "E5",
      "velocity": 0.7874015748031497,
      "duration": "384i"
    },
    {
      "time": "4608i",
      "midiNote": 41,
      "noteName": "F2",
      "velocity": 0.7874015748031497,
      "duration": "1152i"
    },
    {
      "time": "4608i",
      "midiNote": 86,
      "noteName": "D6",
      "velocity": 0.7874015748031497,
      "duration": "448i"
    },
    {
      "time": "4704i",
      "midiNote": 48,
      "noteName": "C3",
      "velocity": 0.7874015748031497,
      "duration": "384i"
    },
    {
      "time": "4800i",
      "midiNote": 53,
      "noteName": "F3",
      "velocity": 0.7874015748031497,
      "duration": "928i"
    },
    {
      "time": "4864i",
      "midiNote": 57,
      "noteName": "A3",
      "velocity": 0.7874015748031497,
      "duration": "864i"
    },
    {
      "time": "4928i",
      "midiNote": 62,
      "noteName": "D4",
      "velocity": 0.7874015748031497,
      "duration": "64i"
    },
    {
      "time": "4960i",
      "midiNote": 57,
      "noteName": "A3",
      "velocity": 0.7874015748031497,
      "duration": "352i"
    },
    {
      "time": "4960i",
      "midiNote": 53,
      "noteName": "F3",
      "velocity": 0.7874015748031497,
      "duration": "288i"
    },
    {
      "time": "4992i",
      "midiNote": 64,
      "noteName": "E4",
      "velocity": 0.7874015748031497,
      "duration": "768i"
    },
    {
      "time": "5056i",
      "midiNote": 85,
      "noteName": "C#6",
      "velocity": 0.7874015748031497,
      "duration": "64i"
    },
    {
      "time": "5120i",
      "midiNote": 84,
      "noteName": "C6",
      "velocity": 0.7874015748031497,
      "duration": "64i"
    },
    {
      "time": "5184i",
      "midiNote": 83,
      "noteName": "B5",
      "velocity": 0.7874015748031497,
      "duration": "960i"
    },
    {
      "time": "5760i",
      "midiNote": 36,
      "noteName": "C2",
      "velocity": 0.7874015748031497,
      "duration": "1152i"
    },
    {
      "time": "5856i",
      "midiNote": 43,
      "noteName": "G2",
      "velocity": 0.7874015748031497,
      "duration": "384i"
    },
    {
      "time": "5952i",
      "midiNote": 52,
      "noteName": "E3",
      "velocity": 0.7874015748031497,
      "duration": "448i"
    },
    {
      "time": "6024i",
      "midiNote": 55,
      "noteName": "G3",
      "velocity": 0.7874015748031497,
      "duration": "856i"
    },
    {
      "time": "6080i",
      "midiNote": 62,
      "noteName": "D4",
      "velocity": 0.7874015748031497,
      "duration": "64i"
    },
    {
      "time": "6112i",
      "midiNote": 59,
      "noteName": "B3",
      "velocity": 0.7874015748031497,
      "duration": "768i"
    },
    {
      "time": "6112i",
      "midiNote": 55,
      "noteName": "G3",
      "velocity": 0.7874015748031497,
      "duration": "360i"
    },
    {
      "time": "6144i",
      "midiNote": 64,
      "noteName": "E4",
      "velocity": 0.7874015748031497,
      "duration": "768i"
    },
    {
      "time": "6144i",
      "midiNote": 81,
      "noteName": "A5",
      "velocity": 0.7874015748031497,
      "duration": "96i"
    },
    {
      "time": "6240i",
      "midiNote": 79,
      "noteName": "G5",
      "velocity": 0.7874015748031497,
      "duration": "288i"
    },
    {
      "time": "6528i",
      "midiNote": 74,
      "noteName": "D5",
      "velocity": 0.7874015748031497,
      "duration": "192i"
    },
    {
      "time": "6720i",
      "midiNote": 76,
      "noteName": "E5",
      "velocity": 0.7874015748031497,
      "duration": "192i"
    },
    {
      "time": "6912i",
      "midiNote": 41,
      "noteName": "F2",
      "velocity": 0.7874015748031497,
      "duration": "1152i"
    },
    {
      "time": "6912i",
      "midiNote": 86,
      "noteName": "D6",
      "velocity": 0.7874015748031497,
      "duration": "448i"
    },
    {
      "time": "7008i",
      "midiNote": 48,
      "noteName": "C3",
      "velocity": 0.7874015748031497,
      "duration": "384i"
    },
    {
      "time": "7104i",
      "midiNote": 53,
      "noteName": "F3",
      "velocity": 0.7874015748031497,
      "duration": "928i"
    },
    {
      "time": "7168i",
      "midiNote": 57,
      "noteName": "A3",
      "velocity": 0.7874015748031497,
      "duration": "864i"
    },
    {
      "time": "7232i",
      "midiNote": 62,
      "noteName": "D4",
      "velocity": 0.7874015748031497,
      "duration": "64i"
    },
    {
      "time": "7264i",
      "midiNote": 57,
      "noteName": "A3",
      "velocity": 0.7874015748031497,
      "duration": "352i"
    },
    {
      "time": "7264i",
      "midiNote": 53,
      "noteName": "F3",
      "velocity": 0.7874015748031497,
      "duration": "288i"
    },
    {
      "time": "7296i",
      "midiNote": 64,
      "noteName": "E4",
      "velocity": 0.7874015748031497,
      "duration": "768i"
    },
    {
      "time": "7360i",
      "midiNote": 85,
      "noteName": "C#6",
      "velocity": 0.7874015748031497,
      "duration": "64i"
    },
    {
      "time": "7424i",
      "midiNote": 84,
      "noteName": "C6",
      "velocity": 0.7874015748031497,
      "duration": "64i"
    },
    {
      "time": "7488i",
      "midiNote": 83,
      "noteName": "B5",
      "velocity": 0.7874015748031497,
      "duration": "480i"
    },
    {
      "time": "7968i",
      "midiNote": 84,
      "noteName": "C6",
      "velocity": 0.7874015748031497,
      "duration": "96i"
    },
    {
      "time": "8064i",
      "midiNote": 36,
      "noteName": "C2",
      "velocity": 0.7874015748031497,
      "duration": "1152i"
    },
    {
      "time": "8064i",
      "midiNote": 83,
      "noteName": "B5",
      "velocity": 0.7874015748031497,
      "duration": "288i"
    },
    {
      "time": "8160i",
      "midiNote": 43,
      "noteName": "G2",
      "velocity": 0.7874015748031497,
      "duration": "384i"
    },
    {
      "time": "8256i",
      "midiNote": 52,
      "noteName": "E3",
      "velocity": 0.7874015748031497,
      "duration": "448i"
    },
    {
      "time": "8328i",
      "midiNote": 55,
      "noteName": "G3",
      "velocity": 0.7874015748031497,
      "duration": "856i"
    },
    {
      "time": "8352i",
      "midiNote": 81,
      "noteName": "A5",
      "velocity": 0.7874015748031497,
      "duration": "96i"
    },
    {
      "time": "8384i",
      "midiNote": 62,
      "noteName": "D4",
      "velocity": 0.7874015748031497,
      "duration": "64i"
    },
    {
      "time": "8416i",
      "midiNote": 59,
      "noteName": "B3",
      "velocity": 0.7874015748031497,
      "duration": "768i"
    },
    {
      "time": "8416i",
      "midiNote": 55,
      "noteName": "G3",
      "velocity": 0.7874015748031497,
      "duration": "360i"
    },
    {
      "time": "8448i",
      "midiNote": 64,
      "noteName": "E4",
      "velocity": 0.7874015748031497,
      "duration": "768i"
    },
    {
      "time": "8448i",
      "midiNote": 79,
      "noteName": "G5",
      "velocity": 0.7874015748031497,
      "duration": "384i"
    },
    {
      "time": "8832i",
      "midiNote": 74,
      "noteName": "D5",
      "velocity": 0.7874015748031497,
      "duration": "192i"
    },
    {
      "time": "9024i",
      "midiNote": 76,
      "noteName": "E5",
      "velocity": 0.7874015748031497,
      "duration": "192i"
    },
    {
      "time": "9216i",
      "midiNote": 41,
      "noteName": "F2",
      "velocity": 0.7874015748031497,
      "duration": "1152i"
    },
    {
      "time": "9216i",
      "midiNote": 86,
      "noteName": "D6",
      "velocity": 0.7874015748031497,
      "duration": "448i"
    },
    {
      "time": "9312i",
      "midiNote": 48,
      "noteName": "C3",
      "velocity": 0.7874015748031497,
      "duration": "384i"
    },
    {
      "time": "9408i",
      "midiNote": 53,
      "noteName": "F3",
      "velocity": 0.7874015748031497,
      "duration": "928i"
    },
    {
      "time": "9472i",
      "midiNote": 57,
      "noteName": "A3",
      "velocity": 0.7874015748031497,
      "duration": "864i"
    },
    {
      "time": "9536i",
      "midiNote": 62,
      "noteName": "D4",
      "velocity": 0.7874015748031497,
      "duration": "64i"
    },
    {
      "time": "9568i",
      "midiNote": 57,
      "noteName": "A3",
      "velocity": 0.7874015748031497,
      "duration": "352i"
    },
    {
      "time": "9568i",
      "midiNote": 53,
      "noteName": "F3",
      "velocity": 0.7874015748031497,
      "duration": "288i"
    },
    {
      "time": "9600i",
      "midiNote": 64,
      "noteName": "E4",
      "velocity": 0.7874015748031497,
      "duration": "768i"
    },
    {
      "time": "9664i",
      "midiNote": 85,
      "noteName": "C#6",
      "velocity": 0.7874015748031497,
      "duration": "64i"
    },
    {
      "time": "9728i",
      "midiNote": 84,
      "noteName": "C6",
      "velocity": 0.7874015748031497,
      "duration": "64i"
    },
    {
      "time": "9792i",
      "midiNote": 83,
      "noteName": "B5",
      "velocity": 0.7874015748031497,
      "duration": "960i"
    },
    {
      "time": "10368i",
      "midiNote": 36,
      "noteName": "C2",
      "velocity": 0.7874015748031497,
      "duration": "1152i"
    },
    {
      "time": "10464i",
      "midiNote": 43,
      "noteName": "G2",
      "velocity": 0.7874015748031497,
      "duration": "384i"
    },
    {
      "time": "10560i",
      "midiNote": 52,
      "noteName": "E3",
      "velocity": 0.7874015748031497,
      "duration": "448i"
    },
    {
      "time": "10632i",
      "midiNote": 55,
      "noteName": "G3",
      "velocity": 0.7874015748031497,
      "duration": "856i"
    },
    {
      "time": "10688i",
      "midiNote": 62,
      "noteName": "D4",
      "velocity": 0.7874015748031497,
      "duration": "64i"
    },
    {
      "time": "10720i",
      "midiNote": 59,
      "noteName": "B3",
      "velocity": 0.7874015748031497,
      "duration": "768i"
    },
    {
      "time": "10720i",
      "midiNote": 55,
      "noteName": "G3",
      "velocity": 0.7874015748031497,
      "duration": "360i"
    },
    {
      "time": "10752i",
      "midiNote": 64,
      "noteName": "E4",
      "velocity": 0.7874015748031497,
      "duration": "768i"
    },
    {
      "time": "10752i",
      "midiNote": 81,
      "noteName": "A5",
      "velocity": 0.7874015748031497,
      "duration": "96i"
    },
    {
      "time": "10848i",
      "midiNote": 79,
      "noteName": "G5",
      "velocity": 0.7874015748031497,
      "duration": "288i"
    },
    {
      "time": "11136i",
      "midiNote": 74,
      "noteName": "D5",
      "velocity": 0.7874015748031497,
      "duration": "192i"
    },
    {
      "time": "11328i",
      "midiNote": 76,
      "noteName": "E5",
      "velocity": 0.7874015748031497,
      "duration": "192i"
    },
    {
      "time": "11520i",
      "midiNote": 41,
      "noteName": "F2",
      "velocity": 0.7874015748031497,
      "duration": "1152i"
    },
    {
      "time": "11520i",
      "midiNote": 86,
      "noteName": "D6",
      "velocity": 0.7874015748031497,
      "duration": "448i"
    },
    {
      "time": "11616i",
      "midiNote": 48,
      "noteName": "C3",
      "velocity": 0.7874015748031497,
      "duration": "384i"
    },
    {
      "time": "11712i",
      "midiNote": 53,
      "noteName": "F3",
      "velocity": 0.7874015748031497,
      "duration": "928i"
    },
    {
      "time": "11776i",
      "midiNote": 57,
      "noteName": "A3",
      "velocity": 0.7874015748031497,
      "duration": "864i"
    },
    {
      "time": "11840i",
      "midiNote": 62,
      "noteName": "D4",
      "velocity": 0.7874015748031497,
      "duration": "64i"
    },
    {
      "time": "11872i",
      "midiNote": 57,
      "noteName": "A3",
      "velocity": 0.7874015748031497,
      "duration": "352i"
    },
    {
      "time": "11872i",
      "midiNote": 53,
      "noteName": "F3",
      "velocity": 0.7874015748031497,
      "duration": "288i"
    },
    {
      "time": "11904i",
      "midiNote": 64,
      "noteName": "E4",
      "velocity": 0.7874015748031497,
      "duration": "768i"
    },
    {
      "time": "11968i",
      "midiNote": 85,
      "noteName": "C#6",
      "velocity": 0.7874015748031497,
      "duration": "64i"
    },
    {
      "time": "12032i",
      "midiNote": 84,
      "noteName": "C6",
      "velocity": 0.7874015748031497,
      "duration": "64i"
    },
    {
      "time": "12096i",
      "midiNote": 83,
      "noteName": "B5",
      "velocity": 0.7874015748031497,
      "duration": "384i"
    },
    {
      "time": "12480i",
      "midiNote": 88,
      "noteName": "E6",
      "velocity": 0.7874015748031497,
      "duration": "192i"
    },
    {
      "time": "12672i",
      "midiNote": 36,
      "noteName": "C2",
      "velocity": 0.7874015748031497,
      "duration": "1152i"
    },
    {
      "time": "12672i",
      "midiNote": 83,
      "noteName": "B5",
      "velocity": 0.7874015748031497,
      "duration": "1152i"
    },
    {
      "time": "12768i",
      "midiNote": 43,
      "noteName": "G2",
      "velocity": 0.7874015748031497,
      "duration": "384i"
    },
    {
      "time": "12864i",
      "midiNote": 52,
      "noteName": "E3",
      "velocity": 0.7874015748031497,
      "duration": "448i"
    },
    {
      "time": "12936i",
      "midiNote": 55,
      "noteName": "G3",
      "velocity": 0.7874015748031497,
      "duration": "856i"
    },
    {
      "time": "12992i",
      "midiNote": 62,
      "noteName": "D4",
      "velocity": 0.7874015748031497,
      "duration": "64i"
    },
    {
      "time": "13024i",
      "midiNote": 59,
      "noteName": "B3",
      "velocity": 0.7874015748031497,
      "duration": "768i"
    },
    {
      "time": "13024i",
      "midiNote": 55,
      "noteName": "G3",
      "velocity": 0.7874015748031497,
      "duration": "360i"
    },
    {
      "time": "13056i",
      "midiNote": 64,
      "noteName": "E4",
      "velocity": 0.7874015748031497,
      "duration": "768i"
    },
    {
      "time": "13824i",
      "midiNote": 57,
      "noteName": "A3",
      "velocity": 0.7874015748031497,
      "duration": "768i"
    },
    {
      "time": "13824i",
      "midiNote": 52,
      "noteName": "E3",
      "velocity": 0.7874015748031497,
      "duration": "768i"
    },
    {
      "time": "13824i",
      "midiNote": 48,
      "noteName": "C3",
      "velocity": 0.7874015748031497,
      "duration": "768i"
    },
    {
      "time": "13824i",
      "midiNote": 81,
      "noteName": "A5",
      "velocity": 0.7874015748031497,
      "duration": "192i"
    },
    {
      "time": "14016i",
      "midiNote": 76,
      "noteName": "E5",
      "velocity": 0.7874015748031497,
      "duration": "576i"
    },
    {
      "time": "14592i",
      "midiNote": 55,
      "noteName": "G3",
      "velocity": 0.7874015748031497,
      "duration": "768i"
    },
    {
      "time": "14592i",
      "midiNote": 50,
      "noteName": "D3",
      "velocity": 0.7874015748031497,
      "duration": "768i"
    },
    {
      "time": "14592i",
      "midiNote": 47,
      "noteName": "B2",
      "velocity": 0.7874015748031497,
      "duration": "768i"
    },
    {
      "time": "14592i",
      "midiNote": 74,
      "noteName": "D5",
      "velocity": 0.7874015748031497,
      "duration": "192i"
    },
    {
      "time": "14784i",
      "midiNote": 79,
      "noteName": "G5",
      "velocity": 0.7874015748031497,
      "duration": "576i"
    },
    {
      "time": "15360i",
      "midiNote": 57,
      "noteName": "A3",
      "velocity": 0.7874015748031497,
      "duration": "768i"
    },
    {
      "time": "15360i",
      "midiNote": 52,
      "noteName": "E3",
      "velocity": 0.7874015748031497,
      "duration": "768i"
    },
    {
      "time": "15360i",
      "midiNote": 48,
      "noteName": "C3",
      "velocity": 0.7874015748031497,
      "duration": "768i"
    },
    {
      "time": "15360i",
      "midiNote": 81,
      "noteName": "A5",
      "velocity": 0.7874015748031497,
      "duration": "192i"
    },
    {
      "time": "15552i",
      "midiNote": 76,
      "noteName": "E5",
      "velocity": 0.7874015748031497,
      "duration": "576i"
    },
    {
      "time": "16128i",
      "midiNote": 55,
      "noteName": "G3",
      "velocity": 0.7874015748031497,
      "duration": "768i"
    },
    {
      "time": "16128i",
      "midiNote": 50,
      "noteName": "D3",
      "velocity": 0.7874015748031497,
      "duration": "768i"
    },
    {
      "time": "16128i",
      "midiNote": 47,
      "noteName": "B2",
      "velocity": 0.7874015748031497,
      "duration": "768i"
    },
    {
      "time": "16128i",
      "midiNote": 83,
      "noteName": "B5",
      "velocity": 0.7874015748031497,
      "duration": "192i"
    },
    {
      "time": "16320i",
      "midiNote": 79,
      "noteName": "G5",
      "velocity": 0.7874015748031497,
      "duration": "576i"
    },
    {
      "time": "16896i",
      "midiNote": 48,
      "noteName": "C3",
      "velocity": 0.7874015748031497,
      "duration": "768i"
    },
    {
      "time": "16896i",
      "midiNote": 52,
      "noteName": "E3",
      "velocity": 0.7874015748031497,
      "duration": "768i"
    },
    {
      "time": "16896i",
      "midiNote": 57,
      "noteName": "A3",
      "velocity": 0.7874015748031497,
      "duration": "768i"
    },
    {
      "time": "16896i",
      "midiNote": 81,
      "noteName": "A5",
      "velocity": 0.7874015748031497,
      "duration": "192i"
    },
    {
      "time": "17088i",
      "midiNote": 76,
      "noteName": "E5",
      "velocity": 0.7874015748031497,
      "duration": "576i"
    },
    {
      "time": "17664i",
      "midiNote": 55,
      "noteName": "G3",
      "velocity": 0.7874015748031497,
      "duration": "768i"
    },
    {
      "time": "17664i",
      "midiNote": 52,
      "noteName": "E3",
      "velocity": 0.7874015748031497,
      "duration": "768i"
    },
    {
      "time": "17664i",
      "midiNote": 48,
      "noteName": "C3",
      "velocity": 0.7874015748031497,
      "duration": "768i"
    },
    {
      "time": "17664i",
      "midiNote": 84,
      "noteName": "C6",
      "velocity": 0.7874015748031497,
      "duration": "192i"
    },
    {
      "time": "17856i",
      "midiNote": 79,
      "noteName": "G5",
      "velocity": 0.7874015748031497,
      "duration": "576i"
    },
    {
      "time": "18432i",
      "midiNote": 55,
      "noteName": "G3",
      "velocity": 0.7874015748031497,
      "duration": "720i"
    },
    {
      "time": "18432i",
      "midiNote": 50,
      "noteName": "D3",
      "velocity": 0.7874015748031497,
      "duration": "720i"
    },
    {
      "time": "18432i",
      "midiNote": 47,
      "noteName": "B2",
      "velocity": 0.7874015748031497,
      "duration": "720i"
    },
    {
      "time": "18432i",
      "midiNote": 77,
      "noteName": "F5",
      "velocity": 0.7874015748031497,
      "duration": "192i"
    },
    {
      "time": "18624i",
      "midiNote": 79,
      "noteName": "G5",
      "velocity": 0.7874015748031497,
      "duration": "576i"
    }
  ]
]

buildTrack = parseMidi(parts: parts, transport: transport)
