require('v1/midi')

transport = {
  "bpm": 300.0002674669698
}

parts = [
  [
    {
      "time": "768i",
      "midiNote": 49,
      "noteName": "C#3",
      "velocity": 1,
      "duration": "864i"
    },
    {
      "time": "864i",
      "midiNote": 56,
      "noteName": "G#3",
      "velocity": 1,
      "duration": "768i"
    },
    {
      "time": "960i",
      "midiNote": 59,
      "noteName": "B3",
      "velocity": 1,
      "duration": "96i"
    },
    {
      "time": "1056i",
      "midiNote": 62,
      "noteName": "D4",
      "velocity": 1,
      "duration": "192i"
    },
    {
      "time": "1248i",
      "midiNote": 66,
      "noteName": "F#4",
      "velocity": 1,
      "duration": "192i"
    },
    {
      "time": "1440i",
      "midiNote": 69,
      "noteName": "A4",
      "velocity": 1,
      "duration": "192i"
    },
    {
      "time": "1632i",
      "midiNote": 65,
      "noteName": "F4",
      "velocity": 1,
      "duration": "96i"
    },
    {
      "time": "1728i",
      "midiNote": 68,
      "noteName": "G#4",
      "velocity": 1,
      "duration": "96i"
    },
    {
      "time": "1728i",
      "midiNote": 65,
      "noteName": "F4",
      "velocity": 1,
      "duration": "1344i"
    },
    {
      "time": "1824i",
      "midiNote": 71,
      "noteName": "B4",
      "velocity": 1,
      "duration": "96i"
    },
    {
      "time": "1920i",
      "midiNote": 73,
      "noteName": "C#5",
      "velocity": 1,
      "duration": "1152i"
    },
    {
      "time": "11616i",
      "midiNote": 61,
      "noteName": "C#4",
      "velocity": 1,
      "duration": "96i"
    },
    {
      "time": "11712i",
      "midiNote": 66,
      "noteName": "F#4",
      "velocity": 1,
      "duration": "96i"
    },
    {
      "time": "11808i",
      "midiNote": 68,
      "noteName": "G#4",
      "velocity": 1,
      "duration": "96i"
    },
    {
      "time": "11904i",
      "midiNote": 69,
      "noteName": "A4",
      "velocity": 1,
      "duration": "384i"
    },
    {
      "time": "12192i",
      "midiNote": 61,
      "noteName": "C#4",
      "velocity": 1,
      "duration": "96i"
    },
    {
      "time": "12288i",
      "midiNote": 66,
      "noteName": "F#4",
      "velocity": 1,
      "duration": "96i"
    },
    {
      "time": "12384i",
      "midiNote": 68,
      "noteName": "G#4",
      "velocity": 1,
      "duration": "96i"
    },
    {
      "time": "12480i",
      "midiNote": 69,
      "noteName": "A4",
      "velocity": 1,
      "duration": "576i"
    },
    {
      "time": "13152i",
      "midiNote": 62,
      "noteName": "D4",
      "velocity": 1,
      "duration": "96i"
    },
    {
      "time": "13248i",
      "midiNote": 66,
      "noteName": "F#4",
      "velocity": 1,
      "duration": "96i"
    },
    {
      "time": "13344i",
      "midiNote": 68,
      "noteName": "G#4",
      "velocity": 1,
      "duration": "96i"
    },
    {
      "time": "13440i",
      "midiNote": 69,
      "noteName": "A4",
      "velocity": 1,
      "duration": "384i"
    },
    {
      "time": "13728i",
      "midiNote": 62,
      "noteName": "D4",
      "velocity": 1,
      "duration": "96i"
    },
    {
      "time": "13824i",
      "midiNote": 66,
      "noteName": "F#4",
      "velocity": 1,
      "duration": "96i"
    },
    {
      "time": "13920i",
      "midiNote": 68,
      "noteName": "G#4",
      "velocity": 1,
      "duration": "96i"
    },
    {
      "time": "14016i",
      "midiNote": 69,
      "noteName": "A4",
      "velocity": 1,
      "duration": "576i"
    },
    {
      "time": "14688i",
      "midiNote": 59,
      "noteName": "B3",
      "velocity": 1,
      "duration": "96i"
    },
    {
      "time": "14784i",
      "midiNote": 64,
      "noteName": "E4",
      "velocity": 1,
      "duration": "96i"
    },
    {
      "time": "14880i",
      "midiNote": 66,
      "noteName": "F#4",
      "velocity": 1,
      "duration": "96i"
    },
    {
      "time": "14976i",
      "midiNote": 68,
      "noteName": "G#4",
      "velocity": 1,
      "duration": "384i"
    },
    {
      "time": "15264i",
      "midiNote": 59,
      "noteName": "B3",
      "velocity": 1,
      "duration": "96i"
    },
    {
      "time": "15360i",
      "midiNote": 64,
      "noteName": "E4",
      "velocity": 1,
      "duration": "96i"
    },
    {
      "time": "15456i",
      "midiNote": 66,
      "noteName": "F#4",
      "velocity": 1,
      "duration": "96i"
    },
    {
      "time": "15552i",
      "midiNote": 68,
      "noteName": "G#4",
      "velocity": 1,
      "duration": "576i"
    },
    {
      "time": "16224i",
      "midiNote": 66,
      "noteName": "F#4",
      "velocity": 1,
      "duration": "96i"
    },
    {
      "time": "16320i",
      "midiNote": 68,
      "noteName": "G#4",
      "velocity": 1,
      "duration": "96i"
    },
    {
      "time": "16416i",
      "midiNote": 66,
      "noteName": "F#4",
      "velocity": 1,
      "duration": "96i"
    },
    {
      "time": "16512i",
      "midiNote": 65,
      "noteName": "F4",
      "velocity": 1,
      "duration": "1152i"
    },
    {
      "time": "17760i",
      "midiNote": 61,
      "noteName": "C#4",
      "velocity": 0.8818897637795275,
      "duration": "96i"
    },
    {
      "time": "17856i",
      "midiNote": 66,
      "noteName": "F#4",
      "velocity": 0.8818897637795275,
      "duration": "96i"
    },
    {
      "time": "17952i",
      "midiNote": 68,
      "noteName": "G#4",
      "velocity": 0.8818897637795275,
      "duration": "96i"
    },
    {
      "time": "18048i",
      "midiNote": 69,
      "noteName": "A4",
      "velocity": 0.8818897637795275,
      "duration": "384i"
    },
    {
      "time": "18336i",
      "midiNote": 61,
      "noteName": "C#4",
      "velocity": 0.8818897637795275,
      "duration": "96i"
    },
    {
      "time": "18432i",
      "midiNote": 66,
      "noteName": "F#4",
      "velocity": 0.8818897637795275,
      "duration": "96i"
    },
    {
      "time": "18528i",
      "midiNote": 68,
      "noteName": "G#4",
      "velocity": 0.8818897637795275,
      "duration": "96i"
    },
    {
      "time": "18624i",
      "midiNote": 69,
      "noteName": "A4",
      "velocity": 0.8818897637795275,
      "duration": "576i"
    },
    {
      "time": "19296i",
      "midiNote": 62,
      "noteName": "D4",
      "velocity": 0.8818897637795275,
      "duration": "96i"
    },
    {
      "time": "19392i",
      "midiNote": 66,
      "noteName": "F#4",
      "velocity": 0.8818897637795275,
      "duration": "96i"
    },
    {
      "time": "19488i",
      "midiNote": 68,
      "noteName": "G#4",
      "velocity": 0.8818897637795275,
      "duration": "96i"
    },
    {
      "time": "19584i",
      "midiNote": 69,
      "noteName": "A4",
      "velocity": 0.8818897637795275,
      "duration": "384i"
    },
    {
      "time": "19872i",
      "midiNote": 62,
      "noteName": "D4",
      "velocity": 0.8818897637795275,
      "duration": "96i"
    },
    {
      "time": "19968i",
      "midiNote": 66,
      "noteName": "F#4",
      "velocity": 0.8818897637795275,
      "duration": "96i"
    },
    {
      "time": "20064i",
      "midiNote": 68,
      "noteName": "G#4",
      "velocity": 0.8818897637795275,
      "duration": "96i"
    },
    {
      "time": "20160i",
      "midiNote": 69,
      "noteName": "A4",
      "velocity": 0.8818897637795275,
      "duration": "576i"
    },
    {
      "time": "20832i",
      "midiNote": 59,
      "noteName": "B3",
      "velocity": 0.8818897637795275,
      "duration": "96i"
    },
    {
      "time": "20928i",
      "midiNote": 64,
      "noteName": "E4",
      "velocity": 0.8818897637795275,
      "duration": "96i"
    },
    {
      "time": "21024i",
      "midiNote": 66,
      "noteName": "F#4",
      "velocity": 0.8818897637795275,
      "duration": "96i"
    },
    {
      "time": "21120i",
      "midiNote": 68,
      "noteName": "G#4",
      "velocity": 0.8818897637795275,
      "duration": "384i"
    },
    {
      "time": "21408i",
      "midiNote": 59,
      "noteName": "B3",
      "velocity": 0.8818897637795275,
      "duration": "96i"
    },
    {
      "time": "21504i",
      "midiNote": 64,
      "noteName": "E4",
      "velocity": 0.8818897637795275,
      "duration": "96i"
    },
    {
      "time": "21600i",
      "midiNote": 66,
      "noteName": "F#4",
      "velocity": 0.8818897637795275,
      "duration": "96i"
    },
    {
      "time": "21696i",
      "midiNote": 68,
      "noteName": "G#4",
      "velocity": 0.8818897637795275,
      "duration": "576i"
    },
    {
      "time": "22368i",
      "midiNote": 69,
      "noteName": "A4",
      "velocity": 0.8818897637795275,
      "duration": "96i"
    },
    {
      "time": "22464i",
      "midiNote": 71,
      "noteName": "B4",
      "velocity": 0.8818897637795275,
      "duration": "96i"
    },
    {
      "time": "22560i",
      "midiNote": 69,
      "noteName": "A4",
      "velocity": 0.8818897637795275,
      "duration": "96i"
    },
    {
      "time": "22656i",
      "midiNote": 68,
      "noteName": "G#4",
      "velocity": 0.8818897637795275,
      "duration": "1152i"
    },
    {
      "time": "24000i",
      "midiNote": 61,
      "noteName": "C#4",
      "velocity": 1,
      "duration": "288i"
    },
    {
      "time": "24288i",
      "midiNote": 69,
      "noteName": "A4",
      "velocity": 1,
      "duration": "288i"
    },
    {
      "time": "24576i",
      "midiNote": 68,
      "noteName": "G#4",
      "velocity": 1,
      "duration": "288i"
    },
    {
      "time": "24864i",
      "midiNote": 66,
      "noteName": "F#4",
      "velocity": 1,
      "duration": "288i"
    },
    {
      "time": "25152i",
      "midiNote": 61,
      "noteName": "C#4",
      "velocity": 1,
      "duration": "192i"
    },
    {
      "time": "25344i",
      "midiNote": 64,
      "noteName": "E4",
      "velocity": 1,
      "duration": "384i"
    },
    {
      "time": "25728i",
      "midiNote": 64,
      "noteName": "E4",
      "velocity": 1,
      "duration": "192i"
    },
    {
      "time": "25920i",
      "midiNote": 64,
      "noteName": "E4",
      "velocity": 1,
      "duration": "96i"
    },
    {
      "time": "26016i",
      "midiNote": 62,
      "noteName": "D4",
      "velocity": 1,
      "duration": "864i"
    },
    {
      "time": "27072i",
      "midiNote": 59,
      "noteName": "B3",
      "velocity": 1,
      "duration": "288i"
    },
    {
      "time": "27360i",
      "midiNote": 68,
      "noteName": "G#4",
      "velocity": 1,
      "duration": "288i"
    },
    {
      "time": "27648i",
      "midiNote": 66,
      "noteName": "F#4",
      "velocity": 1,
      "duration": "288i"
    },
    {
      "time": "27936i",
      "midiNote": 64,
      "noteName": "E4",
      "velocity": 1,
      "duration": "288i"
    },
    {
      "time": "28224i",
      "midiNote": 62,
      "noteName": "D4",
      "velocity": 1,
      "duration": "192i"
    },
    {
      "time": "28416i",
      "midiNote": 61,
      "noteName": "C#4",
      "velocity": 1,
      "duration": "384i"
    },
    {
      "time": "28800i",
      "midiNote": 62,
      "noteName": "D4",
      "velocity": 1,
      "duration": "192i"
    },
    {
      "time": "28992i",
      "midiNote": 62,
      "noteName": "D4",
      "velocity": 1,
      "duration": "96i"
    },
    {
      "time": "29088i",
      "midiNote": 61,
      "noteName": "C#4",
      "velocity": 1,
      "duration": "864i"
    },
    {
      "time": "30144i",
      "midiNote": 61,
      "noteName": "C#4",
      "velocity": 1,
      "duration": "288i"
    },
    {
      "time": "30432i",
      "midiNote": 69,
      "noteName": "A4",
      "velocity": 1,
      "duration": "288i"
    },
    {
      "time": "30720i",
      "midiNote": 68,
      "noteName": "G#4",
      "velocity": 1,
      "duration": "288i"
    },
    {
      "time": "31008i",
      "midiNote": 66,
      "noteName": "F#4",
      "velocity": 1,
      "duration": "288i"
    },
    {
      "time": "31296i",
      "midiNote": 61,
      "noteName": "C#4",
      "velocity": 1,
      "duration": "192i"
    },
    {
      "time": "31488i",
      "midiNote": 64,
      "noteName": "E4",
      "velocity": 1,
      "duration": "384i"
    },
    {
      "time": "31872i",
      "midiNote": 64,
      "noteName": "E4",
      "velocity": 1,
      "duration": "192i"
    },
    {
      "time": "32064i",
      "midiNote": 64,
      "noteName": "E4",
      "velocity": 1,
      "duration": "96i"
    },
    {
      "time": "32160i",
      "midiNote": 62,
      "noteName": "D4",
      "velocity": 1,
      "duration": "672i"
    },
    {
      "time": "32832i",
      "midiNote": 57,
      "noteName": "A3",
      "velocity": 1,
      "duration": "192i"
    },
    {
      "time": "33024i",
      "midiNote": 59,
      "noteName": "B3",
      "velocity": 1,
      "duration": "576i"
    },
    {
      "time": "33600i",
      "midiNote": 59,
      "noteName": "B3",
      "velocity": 1,
      "duration": "192i"
    },
    {
      "time": "33600i",
      "midiNote": 66,
      "noteName": "F#4",
      "velocity": 1,
      "duration": "192i"
    },
    {
      "time": "33792i",
      "midiNote": 64,
      "noteName": "E4",
      "velocity": 1,
      "duration": "576i"
    },
    {
      "time": "33792i",
      "midiNote": 59,
      "noteName": "B3",
      "velocity": 1,
      "duration": "576i"
    },
    {
      "time": "34368i",
      "midiNote": 62,
      "noteName": "D4",
      "velocity": 1,
      "duration": "192i"
    },
    {
      "time": "34368i",
      "midiNote": 56,
      "noteName": "G#3",
      "velocity": 1,
      "duration": "192i"
    },
    {
      "time": "34560i",
      "midiNote": 61,
      "noteName": "C#4",
      "velocity": 1,
      "duration": "1536i"
    },
    {
      "time": "34560i",
      "midiNote": 56,
      "noteName": "G#3",
      "velocity": 1,
      "duration": "1536i"
    },
    {
      "time": "36288i",
      "midiNote": 69,
      "noteName": "A4",
      "velocity": 1,
      "duration": "288i"
    },
    {
      "time": "36576i",
      "midiNote": 68,
      "noteName": "G#4",
      "velocity": 1,
      "duration": "288i"
    },
    {
      "time": "36864i",
      "midiNote": 69,
      "noteName": "A4",
      "velocity": 1,
      "duration": "288i"
    },
    {
      "time": "37152i",
      "midiNote": 68,
      "noteName": "G#4",
      "velocity": 1,
      "duration": "288i"
    },
    {
      "time": "37440i",
      "midiNote": 61,
      "noteName": "C#4",
      "velocity": 1,
      "duration": "192i"
    },
    {
      "time": "37632i",
      "midiNote": 64,
      "noteName": "E4",
      "velocity": 1,
      "duration": "480i"
    },
    {
      "time": "38112i",
      "midiNote": 62,
      "noteName": "D4",
      "velocity": 1,
      "duration": "96i"
    },
    {
      "time": "38208i",
      "midiNote": 61,
      "noteName": "C#4",
      "velocity": 1,
      "duration": "96i"
    },
    {
      "time": "38304i",
      "midiNote": 62,
      "noteName": "D4",
      "velocity": 1,
      "duration": "864i"
    },
    {
      "time": "39360i",
      "midiNote": 68,
      "noteName": "G#4",
      "velocity": 1,
      "duration": "288i"
    },
    {
      "time": "39648i",
      "midiNote": 66,
      "noteName": "F#4",
      "velocity": 1,
      "duration": "288i"
    },
    {
      "time": "39936i",
      "midiNote": 68,
      "noteName": "G#4",
      "velocity": 1,
      "duration": "288i"
    },
    {
      "time": "40224i",
      "midiNote": 64,
      "noteName": "E4",
      "velocity": 1,
      "duration": "288i"
    },
    {
      "time": "40512i",
      "midiNote": 62,
      "noteName": "D4",
      "velocity": 1,
      "duration": "192i"
    },
    {
      "time": "40704i",
      "midiNote": 61,
      "noteName": "C#4",
      "velocity": 1,
      "duration": "384i"
    },
    {
      "time": "41088i",
      "midiNote": 62,
      "noteName": "D4",
      "velocity": 1,
      "duration": "192i"
    },
    {
      "time": "41280i",
      "midiNote": 62,
      "noteName": "D4",
      "velocity": 1,
      "duration": "96i"
    },
    {
      "time": "41376i",
      "midiNote": 61,
      "noteName": "C#4",
      "velocity": 1,
      "duration": "864i"
    },
    {
      "time": "42432i",
      "midiNote": 54,
      "noteName": "F#3",
      "velocity": 1,
      "duration": "96i"
    },
    {
      "time": "42528i",
      "midiNote": 56,
      "noteName": "G#3",
      "velocity": 1,
      "duration": "96i"
    },
    {
      "time": "42624i",
      "midiNote": 57,
      "noteName": "A3",
      "velocity": 1,
      "duration": "96i"
    },
    {
      "time": "42720i",
      "midiNote": 61,
      "noteName": "C#4",
      "velocity": 1,
      "duration": "288i"
    },
    {
      "time": "43008i",
      "midiNote": 54,
      "noteName": "F#3",
      "velocity": 1,
      "duration": "96i"
    },
    {
      "time": "43104i",
      "midiNote": 56,
      "noteName": "G#3",
      "velocity": 1,
      "duration": "96i"
    },
    {
      "time": "43200i",
      "midiNote": 57,
      "noteName": "A3",
      "velocity": 1,
      "duration": "96i"
    },
    {
      "time": "43296i",
      "midiNote": 61,
      "noteName": "C#4",
      "velocity": 1,
      "duration": "480i"
    },
    {
      "time": "43968i",
      "midiNote": 54,
      "noteName": "F#3",
      "velocity": 1,
      "duration": "96i"
    },
    {
      "time": "44064i",
      "midiNote": 56,
      "noteName": "G#3",
      "velocity": 1,
      "duration": "96i"
    },
    {
      "time": "44160i",
      "midiNote": 57,
      "noteName": "A3",
      "velocity": 1,
      "duration": "96i"
    },
    {
      "time": "44256i",
      "midiNote": 62,
      "noteName": "D4",
      "velocity": 1,
      "duration": "288i"
    },
    {
      "time": "44544i",
      "midiNote": 54,
      "noteName": "F#3",
      "velocity": 1,
      "duration": "96i"
    },
    {
      "time": "44640i",
      "midiNote": 56,
      "noteName": "G#3",
      "velocity": 1,
      "duration": "96i"
    },
    {
      "time": "44736i",
      "midiNote": 57,
      "noteName": "A3",
      "velocity": 1,
      "duration": "96i"
    },
    {
      "time": "44832i",
      "midiNote": 62,
      "noteName": "D4",
      "velocity": 1,
      "duration": "288i"
    },
    {
      "time": "45120i",
      "midiNote": 62,
      "noteName": "D4",
      "velocity": 1,
      "duration": "192i"
    },
    {
      "time": "45120i",
      "midiNote": 57,
      "noteName": "A3",
      "velocity": 1,
      "duration": "192i"
    },
    {
      "time": "45312i",
      "midiNote": 59,
      "noteName": "B3",
      "velocity": 1,
      "duration": "576i"
    },
    {
      "time": "45888i",
      "midiNote": 68,
      "noteName": "G#4",
      "velocity": 1,
      "duration": "192i"
    },
    {
      "time": "45888i",
      "midiNote": 64,
      "noteName": "E4",
      "velocity": 1,
      "duration": "192i"
    },
    {
      "time": "46080i",
      "midiNote": 66,
      "noteName": "F#4",
      "velocity": 1,
      "duration": "576i"
    },
    {
      "time": "46080i",
      "midiNote": 62,
      "noteName": "D4",
      "velocity": 1,
      "duration": "576i"
    },
    {
      "time": "46656i",
      "midiNote": 59,
      "noteName": "B3",
      "velocity": 1,
      "duration": "192i"
    },
    {
      "time": "46656i",
      "midiNote": 56,
      "noteName": "G#3",
      "velocity": 1,
      "duration": "192i"
    },
    {
      "time": "46848i",
      "midiNote": 61,
      "noteName": "C#4",
      "velocity": 1,
      "duration": "1536i"
    },
    {
      "time": "46848i",
      "midiNote": 56,
      "noteName": "G#3",
      "velocity": 1,
      "duration": "1536i"
    },
    {
      "time": "60672i",
      "midiNote": 54,
      "noteName": "F#3",
      "velocity": 1,
      "duration": "192i"
    },
    {
      "time": "60864i",
      "midiNote": 57,
      "noteName": "A3",
      "velocity": 1,
      "duration": "96i"
    },
    {
      "time": "60960i",
      "midiNote": 56,
      "noteName": "G#3",
      "velocity": 1,
      "duration": "288i"
    },
    {
      "time": "61248i",
      "midiNote": 57,
      "noteName": "A3",
      "velocity": 1,
      "duration": "192i"
    },
    {
      "time": "61440i",
      "midiNote": 54,
      "noteName": "F#3",
      "velocity": 1,
      "duration": "192i"
    },
    {
      "time": "61632i",
      "midiNote": 57,
      "noteName": "A3",
      "velocity": 1,
      "duration": "96i"
    },
    {
      "time": "61728i",
      "midiNote": 56,
      "noteName": "G#3",
      "velocity": 1,
      "duration": "288i"
    },
    {
      "time": "62016i",
      "midiNote": 57,
      "noteName": "A3",
      "velocity": 1,
      "duration": "192i"
    },
    {
      "time": "62208i",
      "midiNote": 50,
      "noteName": "D3",
      "velocity": 1,
      "duration": "192i"
    },
    {
      "time": "62400i",
      "midiNote": 57,
      "noteName": "A3",
      "velocity": 1,
      "duration": "96i"
    },
    {
      "time": "62496i",
      "midiNote": 56,
      "noteName": "G#3",
      "velocity": 1,
      "duration": "288i"
    },
    {
      "time": "62784i",
      "midiNote": 57,
      "noteName": "A3",
      "velocity": 1,
      "duration": "192i"
    },
    {
      "time": "62976i",
      "midiNote": 50,
      "noteName": "D3",
      "velocity": 1,
      "duration": "192i"
    },
    {
      "time": "63168i",
      "midiNote": 57,
      "noteName": "A3",
      "velocity": 1,
      "duration": "96i"
    },
    {
      "time": "63264i",
      "midiNote": 56,
      "noteName": "G#3",
      "velocity": 1,
      "duration": "288i"
    },
    {
      "time": "63552i",
      "midiNote": 57,
      "noteName": "A3",
      "velocity": 1,
      "duration": "192i"
    },
    {
      "time": "63744i",
      "midiNote": 52,
      "noteName": "E3",
      "velocity": 1,
      "duration": "192i"
    },
    {
      "time": "63936i",
      "midiNote": 59,
      "noteName": "B3",
      "velocity": 1,
      "duration": "96i"
    },
    {
      "time": "64032i",
      "midiNote": 58,
      "noteName": "A#3",
      "velocity": 1,
      "duration": "288i"
    },
    {
      "time": "64320i",
      "midiNote": 59,
      "noteName": "B3",
      "velocity": 1,
      "duration": "192i"
    },
    {
      "time": "64512i",
      "midiNote": 52,
      "noteName": "E3",
      "velocity": 1,
      "duration": "192i"
    },
    {
      "time": "64704i",
      "midiNote": 59,
      "noteName": "B3",
      "velocity": 1,
      "duration": "96i"
    },
    {
      "time": "64800i",
      "midiNote": 58,
      "noteName": "A#3",
      "velocity": 1,
      "duration": "288i"
    },
    {
      "time": "65088i",
      "midiNote": 59,
      "noteName": "B3",
      "velocity": 1,
      "duration": "192i"
    },
    {
      "time": "65280i",
      "midiNote": 62,
      "noteName": "D4",
      "velocity": 1,
      "duration": "192i"
    },
    {
      "time": "65472i",
      "midiNote": 62,
      "noteName": "D4",
      "velocity": 1,
      "duration": "96i"
    },
    {
      "time": "65568i",
      "midiNote": 61,
      "noteName": "C#4",
      "velocity": 1,
      "duration": "1248i"
    },
    {
      "time": "66912i",
      "midiNote": 61,
      "noteName": "C#4",
      "velocity": 1,
      "duration": "96i"
    },
    {
      "time": "67008i",
      "midiNote": 66,
      "noteName": "F#4",
      "velocity": 1,
      "duration": "96i"
    },
    {
      "time": "67104i",
      "midiNote": 68,
      "noteName": "G#4",
      "velocity": 1,
      "duration": "96i"
    },
    {
      "time": "67200i",
      "midiNote": 69,
      "noteName": "A4",
      "velocity": 1,
      "duration": "384i"
    },
    {
      "time": "67488i",
      "midiNote": 61,
      "noteName": "C#4",
      "velocity": 1,
      "duration": "96i"
    },
    {
      "time": "67584i",
      "midiNote": 66,
      "noteName": "F#4",
      "velocity": 1,
      "duration": "96i"
    },
    {
      "time": "67680i",
      "midiNote": 68,
      "noteName": "G#4",
      "velocity": 1,
      "duration": "96i"
    },
    {
      "time": "67776i",
      "midiNote": 69,
      "noteName": "A4",
      "velocity": 1,
      "duration": "576i"
    },
    {
      "time": "68448i",
      "midiNote": 62,
      "noteName": "D4",
      "velocity": 1,
      "duration": "96i"
    },
    {
      "time": "68544i",
      "midiNote": 66,
      "noteName": "F#4",
      "velocity": 1,
      "duration": "96i"
    },
    {
      "time": "68640i",
      "midiNote": 68,
      "noteName": "G#4",
      "velocity": 1,
      "duration": "96i"
    },
    {
      "time": "68736i",
      "midiNote": 69,
      "noteName": "A4",
      "velocity": 1,
      "duration": "384i"
    },
    {
      "time": "69024i",
      "midiNote": 62,
      "noteName": "D4",
      "velocity": 1,
      "duration": "96i"
    },
    {
      "time": "69120i",
      "midiNote": 66,
      "noteName": "F#4",
      "velocity": 1,
      "duration": "96i"
    },
    {
      "time": "69216i",
      "midiNote": 68,
      "noteName": "G#4",
      "velocity": 1,
      "duration": "96i"
    },
    {
      "time": "69312i",
      "midiNote": 69,
      "noteName": "A4",
      "velocity": 1,
      "duration": "576i"
    },
    {
      "time": "69984i",
      "midiNote": 59,
      "noteName": "B3",
      "velocity": 1,
      "duration": "96i"
    },
    {
      "time": "70080i",
      "midiNote": 64,
      "noteName": "E4",
      "velocity": 1,
      "duration": "96i"
    },
    {
      "time": "70176i",
      "midiNote": 66,
      "noteName": "F#4",
      "velocity": 1,
      "duration": "96i"
    },
    {
      "time": "70272i",
      "midiNote": 68,
      "noteName": "G#4",
      "velocity": 1,
      "duration": "384i"
    },
    {
      "time": "70560i",
      "midiNote": 59,
      "noteName": "B3",
      "velocity": 1,
      "duration": "96i"
    },
    {
      "time": "70656i",
      "midiNote": 64,
      "noteName": "E4",
      "velocity": 1,
      "duration": "96i"
    },
    {
      "time": "70752i",
      "midiNote": 66,
      "noteName": "F#4",
      "velocity": 1,
      "duration": "96i"
    },
    {
      "time": "70848i",
      "midiNote": 68,
      "noteName": "G#4",
      "velocity": 1,
      "duration": "576i"
    },
    {
      "time": "71520i",
      "midiNote": 66,
      "noteName": "F#4",
      "velocity": 1,
      "duration": "96i"
    },
    {
      "time": "71616i",
      "midiNote": 68,
      "noteName": "G#4",
      "velocity": 1,
      "duration": "96i"
    },
    {
      "time": "71712i",
      "midiNote": 66,
      "noteName": "F#4",
      "velocity": 1,
      "duration": "96i"
    },
    {
      "time": "71808i",
      "midiNote": 65,
      "noteName": "F4",
      "velocity": 1,
      "duration": "1152i"
    },
    {
      "time": "73056i",
      "midiNote": 61,
      "noteName": "C#4",
      "velocity": 0.8818897637795275,
      "duration": "96i"
    },
    {
      "time": "73152i",
      "midiNote": 66,
      "noteName": "F#4",
      "velocity": 0.8818897637795275,
      "duration": "96i"
    },
    {
      "time": "73248i",
      "midiNote": 68,
      "noteName": "G#4",
      "velocity": 0.8818897637795275,
      "duration": "96i"
    },
    {
      "time": "73344i",
      "midiNote": 69,
      "noteName": "A4",
      "velocity": 0.8818897637795275,
      "duration": "384i"
    },
    {
      "time": "73632i",
      "midiNote": 61,
      "noteName": "C#4",
      "velocity": 0.8818897637795275,
      "duration": "96i"
    },
    {
      "time": "73728i",
      "midiNote": 66,
      "noteName": "F#4",
      "velocity": 0.8818897637795275,
      "duration": "96i"
    },
    {
      "time": "73824i",
      "midiNote": 68,
      "noteName": "G#4",
      "velocity": 0.8818897637795275,
      "duration": "96i"
    },
    {
      "time": "73920i",
      "midiNote": 69,
      "noteName": "A4",
      "velocity": 0.8818897637795275,
      "duration": "576i"
    },
    {
      "time": "74592i",
      "midiNote": 62,
      "noteName": "D4",
      "velocity": 0.8818897637795275,
      "duration": "96i"
    },
    {
      "time": "74688i",
      "midiNote": 66,
      "noteName": "F#4",
      "velocity": 0.8818897637795275,
      "duration": "96i"
    },
    {
      "time": "74784i",
      "midiNote": 68,
      "noteName": "G#4",
      "velocity": 0.8818897637795275,
      "duration": "96i"
    },
    {
      "time": "74880i",
      "midiNote": 69,
      "noteName": "A4",
      "velocity": 0.8818897637795275,
      "duration": "384i"
    },
    {
      "time": "75168i",
      "midiNote": 62,
      "noteName": "D4",
      "velocity": 0.8818897637795275,
      "duration": "96i"
    },
    {
      "time": "75264i",
      "midiNote": 66,
      "noteName": "F#4",
      "velocity": 0.8818897637795275,
      "duration": "96i"
    },
    {
      "time": "75360i",
      "midiNote": 68,
      "noteName": "G#4",
      "velocity": 0.8818897637795275,
      "duration": "96i"
    },
    {
      "time": "75456i",
      "midiNote": 69,
      "noteName": "A4",
      "velocity": 0.8818897637795275,
      "duration": "576i"
    },
    {
      "time": "76128i",
      "midiNote": 59,
      "noteName": "B3",
      "velocity": 0.8818897637795275,
      "duration": "96i"
    },
    {
      "time": "76224i",
      "midiNote": 64,
      "noteName": "E4",
      "velocity": 0.8818897637795275,
      "duration": "96i"
    },
    {
      "time": "76320i",
      "midiNote": 66,
      "noteName": "F#4",
      "velocity": 0.8818897637795275,
      "duration": "96i"
    },
    {
      "time": "76416i",
      "midiNote": 68,
      "noteName": "G#4",
      "velocity": 0.8818897637795275,
      "duration": "384i"
    },
    {
      "time": "76704i",
      "midiNote": 59,
      "noteName": "B3",
      "velocity": 0.8818897637795275,
      "duration": "96i"
    },
    {
      "time": "76800i",
      "midiNote": 64,
      "noteName": "E4",
      "velocity": 0.8818897637795275,
      "duration": "96i"
    },
    {
      "time": "76896i",
      "midiNote": 66,
      "noteName": "F#4",
      "velocity": 0.8818897637795275,
      "duration": "96i"
    },
    {
      "time": "76992i",
      "midiNote": 68,
      "noteName": "G#4",
      "velocity": 0.8818897637795275,
      "duration": "576i"
    },
    {
      "time": "77664i",
      "midiNote": 69,
      "noteName": "A4",
      "velocity": 0.8818897637795275,
      "duration": "96i"
    },
    {
      "time": "77760i",
      "midiNote": 71,
      "noteName": "B4",
      "velocity": 0.8818897637795275,
      "duration": "96i"
    },
    {
      "time": "77856i",
      "midiNote": 69,
      "noteName": "A4",
      "velocity": 0.8818897637795275,
      "duration": "96i"
    },
    {
      "time": "77952i",
      "midiNote": 68,
      "noteName": "G#4",
      "velocity": 0.8818897637795275,
      "duration": "1152i"
    },
    {
      "time": "79296i",
      "midiNote": 61,
      "noteName": "C#4",
      "velocity": 1,
      "duration": "288i"
    },
    {
      "time": "79584i",
      "midiNote": 69,
      "noteName": "A4",
      "velocity": 1,
      "duration": "288i"
    },
    {
      "time": "79872i",
      "midiNote": 68,
      "noteName": "G#4",
      "velocity": 1,
      "duration": "288i"
    },
    {
      "time": "80160i",
      "midiNote": 66,
      "noteName": "F#4",
      "velocity": 1,
      "duration": "288i"
    },
    {
      "time": "80448i",
      "midiNote": 61,
      "noteName": "C#4",
      "velocity": 1,
      "duration": "192i"
    },
    {
      "time": "80640i",
      "midiNote": 64,
      "noteName": "E4",
      "velocity": 1,
      "duration": "384i"
    },
    {
      "time": "81024i",
      "midiNote": 64,
      "noteName": "E4",
      "velocity": 1,
      "duration": "192i"
    },
    {
      "time": "81216i",
      "midiNote": 64,
      "noteName": "E4",
      "velocity": 1,
      "duration": "96i"
    },
    {
      "time": "81312i",
      "midiNote": 62,
      "noteName": "D4",
      "velocity": 1,
      "duration": "864i"
    },
    {
      "time": "82368i",
      "midiNote": 59,
      "noteName": "B3",
      "velocity": 1,
      "duration": "288i"
    },
    {
      "time": "82656i",
      "midiNote": 68,
      "noteName": "G#4",
      "velocity": 1,
      "duration": "288i"
    },
    {
      "time": "82944i",
      "midiNote": 66,
      "noteName": "F#4",
      "velocity": 1,
      "duration": "288i"
    },
    {
      "time": "83232i",
      "midiNote": 64,
      "noteName": "E4",
      "velocity": 1,
      "duration": "288i"
    },
    {
      "time": "83520i",
      "midiNote": 62,
      "noteName": "D4",
      "velocity": 1,
      "duration": "192i"
    },
    {
      "time": "83712i",
      "midiNote": 61,
      "noteName": "C#4",
      "velocity": 1,
      "duration": "384i"
    },
    {
      "time": "84096i",
      "midiNote": 62,
      "noteName": "D4",
      "velocity": 1,
      "duration": "192i"
    },
    {
      "time": "84288i",
      "midiNote": 62,
      "noteName": "D4",
      "velocity": 1,
      "duration": "96i"
    },
    {
      "time": "84384i",
      "midiNote": 61,
      "noteName": "C#4",
      "velocity": 1,
      "duration": "864i"
    },
    {
      "time": "85440i",
      "midiNote": 61,
      "noteName": "C#4",
      "velocity": 1,
      "duration": "288i"
    },
    {
      "time": "85728i",
      "midiNote": 69,
      "noteName": "A4",
      "velocity": 1,
      "duration": "288i"
    },
    {
      "time": "86016i",
      "midiNote": 68,
      "noteName": "G#4",
      "velocity": 1,
      "duration": "288i"
    },
    {
      "time": "86304i",
      "midiNote": 66,
      "noteName": "F#4",
      "velocity": 1,
      "duration": "288i"
    },
    {
      "time": "86592i",
      "midiNote": 61,
      "noteName": "C#4",
      "velocity": 1,
      "duration": "192i"
    },
    {
      "time": "86784i",
      "midiNote": 64,
      "noteName": "E4",
      "velocity": 1,
      "duration": "384i"
    },
    {
      "time": "87168i",
      "midiNote": 64,
      "noteName": "E4",
      "velocity": 1,
      "duration": "192i"
    },
    {
      "time": "87360i",
      "midiNote": 64,
      "noteName": "E4",
      "velocity": 1,
      "duration": "96i"
    },
    {
      "time": "87456i",
      "midiNote": 62,
      "noteName": "D4",
      "velocity": 1,
      "duration": "672i"
    },
    {
      "time": "88128i",
      "midiNote": 57,
      "noteName": "A3",
      "velocity": 1,
      "duration": "192i"
    },
    {
      "time": "88320i",
      "midiNote": 59,
      "noteName": "B3",
      "velocity": 1,
      "duration": "576i"
    },
    {
      "time": "88896i",
      "midiNote": 59,
      "noteName": "B3",
      "velocity": 1,
      "duration": "192i"
    },
    {
      "time": "88896i",
      "midiNote": 66,
      "noteName": "F#4",
      "velocity": 1,
      "duration": "192i"
    },
    {
      "time": "89088i",
      "midiNote": 64,
      "noteName": "E4",
      "velocity": 1,
      "duration": "576i"
    },
    {
      "time": "89088i",
      "midiNote": 59,
      "noteName": "B3",
      "velocity": 1,
      "duration": "576i"
    },
    {
      "time": "89664i",
      "midiNote": 62,
      "noteName": "D4",
      "velocity": 1,
      "duration": "192i"
    },
    {
      "time": "89664i",
      "midiNote": 56,
      "noteName": "G#3",
      "velocity": 1,
      "duration": "192i"
    },
    {
      "time": "89856i",
      "midiNote": 61,
      "noteName": "C#4",
      "velocity": 1,
      "duration": "1536i"
    },
    {
      "time": "89856i",
      "midiNote": 56,
      "noteName": "G#3",
      "velocity": 1,
      "duration": "1536i"
    },
    {
      "time": "91584i",
      "midiNote": 69,
      "noteName": "A4",
      "velocity": 1,
      "duration": "288i"
    },
    {
      "time": "91872i",
      "midiNote": 68,
      "noteName": "G#4",
      "velocity": 1,
      "duration": "288i"
    },
    {
      "time": "92160i",
      "midiNote": 69,
      "noteName": "A4",
      "velocity": 1,
      "duration": "288i"
    },
    {
      "time": "92448i",
      "midiNote": 68,
      "noteName": "G#4",
      "velocity": 1,
      "duration": "288i"
    },
    {
      "time": "92736i",
      "midiNote": 61,
      "noteName": "C#4",
      "velocity": 1,
      "duration": "192i"
    },
    {
      "time": "92928i",
      "midiNote": 64,
      "noteName": "E4",
      "velocity": 1,
      "duration": "480i"
    },
    {
      "time": "93408i",
      "midiNote": 62,
      "noteName": "D4",
      "velocity": 1,
      "duration": "96i"
    },
    {
      "time": "93504i",
      "midiNote": 61,
      "noteName": "C#4",
      "velocity": 1,
      "duration": "96i"
    },
    {
      "time": "93600i",
      "midiNote": 62,
      "noteName": "D4",
      "velocity": 1,
      "duration": "864i"
    },
    {
      "time": "94656i",
      "midiNote": 68,
      "noteName": "G#4",
      "velocity": 1,
      "duration": "288i"
    },
    {
      "time": "94944i",
      "midiNote": 66,
      "noteName": "F#4",
      "velocity": 1,
      "duration": "288i"
    },
    {
      "time": "95232i",
      "midiNote": 68,
      "noteName": "G#4",
      "velocity": 1,
      "duration": "288i"
    },
    {
      "time": "95520i",
      "midiNote": 64,
      "noteName": "E4",
      "velocity": 1,
      "duration": "288i"
    },
    {
      "time": "95808i",
      "midiNote": 62,
      "noteName": "D4",
      "velocity": 1,
      "duration": "192i"
    },
    {
      "time": "96000i",
      "midiNote": 61,
      "noteName": "C#4",
      "velocity": 1,
      "duration": "384i"
    },
    {
      "time": "96384i",
      "midiNote": 62,
      "noteName": "D4",
      "velocity": 1,
      "duration": "192i"
    },
    {
      "time": "96576i",
      "midiNote": 62,
      "noteName": "D4",
      "velocity": 1,
      "duration": "96i"
    },
    {
      "time": "96672i",
      "midiNote": 61,
      "noteName": "C#4",
      "velocity": 1,
      "duration": "864i"
    },
    {
      "time": "97728i",
      "midiNote": 54,
      "noteName": "F#3",
      "velocity": 1,
      "duration": "96i"
    },
    {
      "time": "97824i",
      "midiNote": 56,
      "noteName": "G#3",
      "velocity": 1,
      "duration": "96i"
    },
    {
      "time": "97920i",
      "midiNote": 57,
      "noteName": "A3",
      "velocity": 1,
      "duration": "96i"
    },
    {
      "time": "98016i",
      "midiNote": 61,
      "noteName": "C#4",
      "velocity": 1,
      "duration": "288i"
    },
    {
      "time": "98304i",
      "midiNote": 54,
      "noteName": "F#3",
      "velocity": 1,
      "duration": "96i"
    },
    {
      "time": "98400i",
      "midiNote": 56,
      "noteName": "G#3",
      "velocity": 1,
      "duration": "96i"
    },
    {
      "time": "98496i",
      "midiNote": 57,
      "noteName": "A3",
      "velocity": 1,
      "duration": "96i"
    },
    {
      "time": "98592i",
      "midiNote": 61,
      "noteName": "C#4",
      "velocity": 1,
      "duration": "480i"
    },
    {
      "time": "99264i",
      "midiNote": 54,
      "noteName": "F#3",
      "velocity": 1,
      "duration": "96i"
    },
    {
      "time": "99360i",
      "midiNote": 56,
      "noteName": "G#3",
      "velocity": 1,
      "duration": "96i"
    },
    {
      "time": "99456i",
      "midiNote": 57,
      "noteName": "A3",
      "velocity": 1,
      "duration": "96i"
    },
    {
      "time": "99552i",
      "midiNote": 62,
      "noteName": "D4",
      "velocity": 1,
      "duration": "288i"
    },
    {
      "time": "99840i",
      "midiNote": 54,
      "noteName": "F#3",
      "velocity": 1,
      "duration": "96i"
    },
    {
      "time": "99936i",
      "midiNote": 56,
      "noteName": "G#3",
      "velocity": 1,
      "duration": "96i"
    },
    {
      "time": "100032i",
      "midiNote": 57,
      "noteName": "A3",
      "velocity": 1,
      "duration": "96i"
    },
    {
      "time": "100128i",
      "midiNote": 62,
      "noteName": "D4",
      "velocity": 1,
      "duration": "288i"
    },
    {
      "time": "100416i",
      "midiNote": 62,
      "noteName": "D4",
      "velocity": 1,
      "duration": "192i"
    },
    {
      "time": "100416i",
      "midiNote": 57,
      "noteName": "A3",
      "velocity": 1,
      "duration": "192i"
    },
    {
      "time": "100608i",
      "midiNote": 59,
      "noteName": "B3",
      "velocity": 1,
      "duration": "576i"
    },
    {
      "time": "101184i",
      "midiNote": 68,
      "noteName": "G#4",
      "velocity": 1,
      "duration": "192i"
    },
    {
      "time": "101184i",
      "midiNote": 64,
      "noteName": "E4",
      "velocity": 1,
      "duration": "192i"
    },
    {
      "time": "101376i",
      "midiNote": 66,
      "noteName": "F#4",
      "velocity": 1,
      "duration": "576i"
    },
    {
      "time": "101376i",
      "midiNote": 62,
      "noteName": "D4",
      "velocity": 1,
      "duration": "576i"
    },
    {
      "time": "101952i",
      "midiNote": 59,
      "noteName": "B3",
      "velocity": 1,
      "duration": "192i"
    },
    {
      "time": "101952i",
      "midiNote": 56,
      "noteName": "G#3",
      "velocity": 1,
      "duration": "192i"
    },
    {
      "time": "102144i",
      "midiNote": 61,
      "noteName": "C#4",
      "velocity": 1,
      "duration": "1536i"
    },
    {
      "time": "102144i",
      "midiNote": 56,
      "noteName": "G#3",
      "velocity": 1,
      "duration": "1536i"
    },
    {
      "time": "115968i",
      "midiNote": 54,
      "noteName": "F#3",
      "velocity": 1,
      "duration": "192i"
    },
    {
      "time": "116160i",
      "midiNote": 57,
      "noteName": "A3",
      "velocity": 1,
      "duration": "96i"
    },
    {
      "time": "116256i",
      "midiNote": 56,
      "noteName": "G#3",
      "velocity": 1,
      "duration": "288i"
    },
    {
      "time": "116544i",
      "midiNote": 57,
      "noteName": "A3",
      "velocity": 1,
      "duration": "192i"
    },
    {
      "time": "116736i",
      "midiNote": 54,
      "noteName": "F#3",
      "velocity": 1,
      "duration": "192i"
    },
    {
      "time": "116928i",
      "midiNote": 57,
      "noteName": "A3",
      "velocity": 1,
      "duration": "96i"
    },
    {
      "time": "117024i",
      "midiNote": 56,
      "noteName": "G#3",
      "velocity": 1,
      "duration": "288i"
    },
    {
      "time": "117312i",
      "midiNote": 57,
      "noteName": "A3",
      "velocity": 1,
      "duration": "192i"
    },
    {
      "time": "117504i",
      "midiNote": 50,
      "noteName": "D3",
      "velocity": 1,
      "duration": "192i"
    },
    {
      "time": "117696i",
      "midiNote": 57,
      "noteName": "A3",
      "velocity": 1,
      "duration": "96i"
    },
    {
      "time": "117792i",
      "midiNote": 56,
      "noteName": "G#3",
      "velocity": 1,
      "duration": "288i"
    },
    {
      "time": "118080i",
      "midiNote": 57,
      "noteName": "A3",
      "velocity": 1,
      "duration": "192i"
    },
    {
      "time": "118272i",
      "midiNote": 50,
      "noteName": "D3",
      "velocity": 1,
      "duration": "192i"
    },
    {
      "time": "118464i",
      "midiNote": 57,
      "noteName": "A3",
      "velocity": 1,
      "duration": "96i"
    },
    {
      "time": "118560i",
      "midiNote": 56,
      "noteName": "G#3",
      "velocity": 1,
      "duration": "288i"
    },
    {
      "time": "118848i",
      "midiNote": 57,
      "noteName": "A3",
      "velocity": 1,
      "duration": "192i"
    },
    {
      "time": "119040i",
      "midiNote": 52,
      "noteName": "E3",
      "velocity": 1,
      "duration": "192i"
    },
    {
      "time": "119232i",
      "midiNote": 59,
      "noteName": "B3",
      "velocity": 1,
      "duration": "96i"
    },
    {
      "time": "119328i",
      "midiNote": 58,
      "noteName": "A#3",
      "velocity": 1,
      "duration": "288i"
    },
    {
      "time": "119616i",
      "midiNote": 59,
      "noteName": "B3",
      "velocity": 1,
      "duration": "192i"
    },
    {
      "time": "119808i",
      "midiNote": 52,
      "noteName": "E3",
      "velocity": 1,
      "duration": "192i"
    },
    {
      "time": "120000i",
      "midiNote": 59,
      "noteName": "B3",
      "velocity": 1,
      "duration": "96i"
    },
    {
      "time": "120096i",
      "midiNote": 58,
      "noteName": "A#3",
      "velocity": 1,
      "duration": "288i"
    },
    {
      "time": "120384i",
      "midiNote": 59,
      "noteName": "B3",
      "velocity": 1,
      "duration": "192i"
    },
    {
      "time": "120576i",
      "midiNote": 62,
      "noteName": "D4",
      "velocity": 1,
      "duration": "192i"
    },
    {
      "time": "120768i",
      "midiNote": 62,
      "noteName": "D4",
      "velocity": 1,
      "duration": "96i"
    },
    {
      "time": "120864i",
      "midiNote": 61,
      "noteName": "C#4",
      "velocity": 1,
      "duration": "1248i"
    },
    {
      "time": "122208i",
      "midiNote": 61,
      "noteName": "C#4",
      "velocity": 1,
      "duration": "96i"
    },
    {
      "time": "122304i",
      "midiNote": 66,
      "noteName": "F#4",
      "velocity": 1,
      "duration": "96i"
    },
    {
      "time": "122400i",
      "midiNote": 68,
      "noteName": "G#4",
      "velocity": 1,
      "duration": "96i"
    },
    {
      "time": "122496i",
      "midiNote": 69,
      "noteName": "A4",
      "velocity": 1,
      "duration": "384i"
    },
    {
      "time": "122784i",
      "midiNote": 61,
      "noteName": "C#4",
      "velocity": 1,
      "duration": "96i"
    },
    {
      "time": "122880i",
      "midiNote": 66,
      "noteName": "F#4",
      "velocity": 1,
      "duration": "96i"
    },
    {
      "time": "122976i",
      "midiNote": 68,
      "noteName": "G#4",
      "velocity": 1,
      "duration": "96i"
    },
    {
      "time": "123072i",
      "midiNote": 69,
      "noteName": "A4",
      "velocity": 1,
      "duration": "576i"
    },
    {
      "time": "123744i",
      "midiNote": 62,
      "noteName": "D4",
      "velocity": 1,
      "duration": "96i"
    },
    {
      "time": "123840i",
      "midiNote": 66,
      "noteName": "F#4",
      "velocity": 1,
      "duration": "96i"
    },
    {
      "time": "123936i",
      "midiNote": 68,
      "noteName": "G#4",
      "velocity": 1,
      "duration": "96i"
    },
    {
      "time": "124032i",
      "midiNote": 69,
      "noteName": "A4",
      "velocity": 1,
      "duration": "384i"
    },
    {
      "time": "124320i",
      "midiNote": 62,
      "noteName": "D4",
      "velocity": 1,
      "duration": "96i"
    },
    {
      "time": "124416i",
      "midiNote": 66,
      "noteName": "F#4",
      "velocity": 1,
      "duration": "96i"
    },
    {
      "time": "124512i",
      "midiNote": 68,
      "noteName": "G#4",
      "velocity": 1,
      "duration": "96i"
    },
    {
      "time": "124608i",
      "midiNote": 69,
      "noteName": "A4",
      "velocity": 1,
      "duration": "576i"
    },
    {
      "time": "125280i",
      "midiNote": 59,
      "noteName": "B3",
      "velocity": 1,
      "duration": "96i"
    },
    {
      "time": "125376i",
      "midiNote": 64,
      "noteName": "E4",
      "velocity": 1,
      "duration": "96i"
    },
    {
      "time": "125472i",
      "midiNote": 66,
      "noteName": "F#4",
      "velocity": 1,
      "duration": "96i"
    },
    {
      "time": "125568i",
      "midiNote": 68,
      "noteName": "G#4",
      "velocity": 1,
      "duration": "384i"
    },
    {
      "time": "125856i",
      "midiNote": 59,
      "noteName": "B3",
      "velocity": 1,
      "duration": "96i"
    },
    {
      "time": "125952i",
      "midiNote": 64,
      "noteName": "E4",
      "velocity": 1,
      "duration": "96i"
    },
    {
      "time": "126048i",
      "midiNote": 66,
      "noteName": "F#4",
      "velocity": 1,
      "duration": "96i"
    },
    {
      "time": "126144i",
      "midiNote": 68,
      "noteName": "G#4",
      "velocity": 1,
      "duration": "576i"
    },
    {
      "time": "126816i",
      "midiNote": 66,
      "noteName": "F#4",
      "velocity": 1,
      "duration": "96i"
    },
    {
      "time": "126912i",
      "midiNote": 68,
      "noteName": "G#4",
      "velocity": 1,
      "duration": "96i"
    },
    {
      "time": "127008i",
      "midiNote": 66,
      "noteName": "F#4",
      "velocity": 1,
      "duration": "96i"
    },
    {
      "time": "127104i",
      "midiNote": 65,
      "noteName": "F4",
      "velocity": 1,
      "duration": "1152i"
    },
    {
      "time": "128352i",
      "midiNote": 61,
      "noteName": "C#4",
      "velocity": 0.8818897637795275,
      "duration": "96i"
    },
    {
      "time": "128448i",
      "midiNote": 66,
      "noteName": "F#4",
      "velocity": 0.8818897637795275,
      "duration": "96i"
    },
    {
      "time": "128544i",
      "midiNote": 68,
      "noteName": "G#4",
      "velocity": 0.8818897637795275,
      "duration": "96i"
    },
    {
      "time": "128640i",
      "midiNote": 69,
      "noteName": "A4",
      "velocity": 0.8818897637795275,
      "duration": "384i"
    },
    {
      "time": "128928i",
      "midiNote": 61,
      "noteName": "C#4",
      "velocity": 0.8818897637795275,
      "duration": "96i"
    },
    {
      "time": "129024i",
      "midiNote": 66,
      "noteName": "F#4",
      "velocity": 0.8818897637795275,
      "duration": "96i"
    },
    {
      "time": "129120i",
      "midiNote": 68,
      "noteName": "G#4",
      "velocity": 0.8818897637795275,
      "duration": "96i"
    },
    {
      "time": "129216i",
      "midiNote": 69,
      "noteName": "A4",
      "velocity": 0.8818897637795275,
      "duration": "576i"
    },
    {
      "time": "129888i",
      "midiNote": 62,
      "noteName": "D4",
      "velocity": 0.8818897637795275,
      "duration": "96i"
    },
    {
      "time": "129984i",
      "midiNote": 66,
      "noteName": "F#4",
      "velocity": 0.8818897637795275,
      "duration": "96i"
    },
    {
      "time": "130080i",
      "midiNote": 68,
      "noteName": "G#4",
      "velocity": 0.8818897637795275,
      "duration": "96i"
    },
    {
      "time": "130176i",
      "midiNote": 69,
      "noteName": "A4",
      "velocity": 0.8818897637795275,
      "duration": "384i"
    },
    {
      "time": "130464i",
      "midiNote": 62,
      "noteName": "D4",
      "velocity": 0.8818897637795275,
      "duration": "96i"
    },
    {
      "time": "130560i",
      "midiNote": 66,
      "noteName": "F#4",
      "velocity": 0.8818897637795275,
      "duration": "96i"
    },
    {
      "time": "130656i",
      "midiNote": 68,
      "noteName": "G#4",
      "velocity": 0.8818897637795275,
      "duration": "96i"
    },
    {
      "time": "130752i",
      "midiNote": 69,
      "noteName": "A4",
      "velocity": 0.8818897637795275,
      "duration": "576i"
    },
    {
      "time": "131424i",
      "midiNote": 59,
      "noteName": "B3",
      "velocity": 0.8818897637795275,
      "duration": "96i"
    },
    {
      "time": "131520i",
      "midiNote": 64,
      "noteName": "E4",
      "velocity": 0.8818897637795275,
      "duration": "96i"
    },
    {
      "time": "131616i",
      "midiNote": 66,
      "noteName": "F#4",
      "velocity": 0.8818897637795275,
      "duration": "96i"
    },
    {
      "time": "131712i",
      "midiNote": 68,
      "noteName": "G#4",
      "velocity": 0.8818897637795275,
      "duration": "384i"
    },
    {
      "time": "132000i",
      "midiNote": 59,
      "noteName": "B3",
      "velocity": 0.8818897637795275,
      "duration": "96i"
    },
    {
      "time": "132096i",
      "midiNote": 64,
      "noteName": "E4",
      "velocity": 0.8818897637795275,
      "duration": "96i"
    },
    {
      "time": "132192i",
      "midiNote": 66,
      "noteName": "F#4",
      "velocity": 0.8818897637795275,
      "duration": "96i"
    },
    {
      "time": "132288i",
      "midiNote": 68,
      "noteName": "G#4",
      "velocity": 0.8818897637795275,
      "duration": "576i"
    },
    {
      "time": "132960i",
      "midiNote": 69,
      "noteName": "A4",
      "velocity": 0.8818897637795275,
      "duration": "96i"
    },
    {
      "time": "133056i",
      "midiNote": 71,
      "noteName": "B4",
      "velocity": 0.8818897637795275,
      "duration": "96i"
    },
    {
      "time": "133152i",
      "midiNote": 69,
      "noteName": "A4",
      "velocity": 0.8818897637795275,
      "duration": "96i"
    },
    {
      "time": "133248i",
      "midiNote": 68,
      "noteName": "G#4",
      "velocity": 0.8818897637795275,
      "duration": "1152i"
    },
    {
      "time": "134592i",
      "midiNote": 61,
      "noteName": "C#4",
      "velocity": 1,
      "duration": "288i"
    },
    {
      "time": "134880i",
      "midiNote": 69,
      "noteName": "A4",
      "velocity": 1,
      "duration": "288i"
    },
    {
      "time": "135168i",
      "midiNote": 68,
      "noteName": "G#4",
      "velocity": 1,
      "duration": "288i"
    },
    {
      "time": "135456i",
      "midiNote": 66,
      "noteName": "F#4",
      "velocity": 1,
      "duration": "288i"
    },
    {
      "time": "135744i",
      "midiNote": 61,
      "noteName": "C#4",
      "velocity": 1,
      "duration": "192i"
    },
    {
      "time": "135936i",
      "midiNote": 64,
      "noteName": "E4",
      "velocity": 1,
      "duration": "384i"
    },
    {
      "time": "136320i",
      "midiNote": 64,
      "noteName": "E4",
      "velocity": 1,
      "duration": "192i"
    },
    {
      "time": "136512i",
      "midiNote": 64,
      "noteName": "E4",
      "velocity": 1,
      "duration": "96i"
    },
    {
      "time": "136608i",
      "midiNote": 62,
      "noteName": "D4",
      "velocity": 1,
      "duration": "864i"
    },
    {
      "time": "137664i",
      "midiNote": 59,
      "noteName": "B3",
      "velocity": 1,
      "duration": "288i"
    },
    {
      "time": "137952i",
      "midiNote": 68,
      "noteName": "G#4",
      "velocity": 1,
      "duration": "288i"
    },
    {
      "time": "138240i",
      "midiNote": 66,
      "noteName": "F#4",
      "velocity": 1,
      "duration": "288i"
    },
    {
      "time": "138528i",
      "midiNote": 64,
      "noteName": "E4",
      "velocity": 1,
      "duration": "288i"
    },
    {
      "time": "138816i",
      "midiNote": 62,
      "noteName": "D4",
      "velocity": 1,
      "duration": "192i"
    },
    {
      "time": "139008i",
      "midiNote": 61,
      "noteName": "C#4",
      "velocity": 1,
      "duration": "384i"
    },
    {
      "time": "139392i",
      "midiNote": 62,
      "noteName": "D4",
      "velocity": 1,
      "duration": "192i"
    },
    {
      "time": "139584i",
      "midiNote": 62,
      "noteName": "D4",
      "velocity": 1,
      "duration": "96i"
    },
    {
      "time": "139680i",
      "midiNote": 61,
      "noteName": "C#4",
      "velocity": 1,
      "duration": "864i"
    },
    {
      "time": "140736i",
      "midiNote": 61,
      "noteName": "C#4",
      "velocity": 1,
      "duration": "288i"
    },
    {
      "time": "141024i",
      "midiNote": 69,
      "noteName": "A4",
      "velocity": 1,
      "duration": "288i"
    },
    {
      "time": "141312i",
      "midiNote": 68,
      "noteName": "G#4",
      "velocity": 1,
      "duration": "288i"
    },
    {
      "time": "141600i",
      "midiNote": 66,
      "noteName": "F#4",
      "velocity": 1,
      "duration": "288i"
    },
    {
      "time": "141888i",
      "midiNote": 61,
      "noteName": "C#4",
      "velocity": 1,
      "duration": "192i"
    },
    {
      "time": "142080i",
      "midiNote": 64,
      "noteName": "E4",
      "velocity": 1,
      "duration": "384i"
    },
    {
      "time": "142464i",
      "midiNote": 64,
      "noteName": "E4",
      "velocity": 1,
      "duration": "192i"
    },
    {
      "time": "142656i",
      "midiNote": 64,
      "noteName": "E4",
      "velocity": 1,
      "duration": "96i"
    },
    {
      "time": "142752i",
      "midiNote": 62,
      "noteName": "D4",
      "velocity": 1,
      "duration": "672i"
    },
    {
      "time": "143424i",
      "midiNote": 57,
      "noteName": "A3",
      "velocity": 1,
      "duration": "192i"
    },
    {
      "time": "143616i",
      "midiNote": 59,
      "noteName": "B3",
      "velocity": 1,
      "duration": "576i"
    },
    {
      "time": "144192i",
      "midiNote": 59,
      "noteName": "B3",
      "velocity": 1,
      "duration": "192i"
    },
    {
      "time": "144192i",
      "midiNote": 66,
      "noteName": "F#4",
      "velocity": 1,
      "duration": "192i"
    },
    {
      "time": "144384i",
      "midiNote": 64,
      "noteName": "E4",
      "velocity": 1,
      "duration": "576i"
    },
    {
      "time": "144384i",
      "midiNote": 59,
      "noteName": "B3",
      "velocity": 1,
      "duration": "576i"
    },
    {
      "time": "144960i",
      "midiNote": 62,
      "noteName": "D4",
      "velocity": 1,
      "duration": "192i"
    },
    {
      "time": "144960i",
      "midiNote": 56,
      "noteName": "G#3",
      "velocity": 1,
      "duration": "192i"
    },
    {
      "time": "145152i",
      "midiNote": 61,
      "noteName": "C#4",
      "velocity": 1,
      "duration": "1536i"
    },
    {
      "time": "145152i",
      "midiNote": 56,
      "noteName": "G#3",
      "velocity": 1,
      "duration": "1536i"
    },
    {
      "time": "146880i",
      "midiNote": 69,
      "noteName": "A4",
      "velocity": 1,
      "duration": "288i"
    },
    {
      "time": "147168i",
      "midiNote": 68,
      "noteName": "G#4",
      "velocity": 1,
      "duration": "288i"
    },
    {
      "time": "147456i",
      "midiNote": 69,
      "noteName": "A4",
      "velocity": 1,
      "duration": "288i"
    },
    {
      "time": "147744i",
      "midiNote": 68,
      "noteName": "G#4",
      "velocity": 1,
      "duration": "288i"
    },
    {
      "time": "148032i",
      "midiNote": 61,
      "noteName": "C#4",
      "velocity": 1,
      "duration": "192i"
    },
    {
      "time": "148224i",
      "midiNote": 64,
      "noteName": "E4",
      "velocity": 1,
      "duration": "480i"
    },
    {
      "time": "148704i",
      "midiNote": 62,
      "noteName": "D4",
      "velocity": 1,
      "duration": "96i"
    },
    {
      "time": "148800i",
      "midiNote": 61,
      "noteName": "C#4",
      "velocity": 1,
      "duration": "96i"
    },
    {
      "time": "148896i",
      "midiNote": 62,
      "noteName": "D4",
      "velocity": 1,
      "duration": "864i"
    },
    {
      "time": "149952i",
      "midiNote": 68,
      "noteName": "G#4",
      "velocity": 1,
      "duration": "288i"
    },
    {
      "time": "150240i",
      "midiNote": 66,
      "noteName": "F#4",
      "velocity": 1,
      "duration": "288i"
    },
    {
      "time": "150528i",
      "midiNote": 68,
      "noteName": "G#4",
      "velocity": 1,
      "duration": "288i"
    },
    {
      "time": "150816i",
      "midiNote": 64,
      "noteName": "E4",
      "velocity": 1,
      "duration": "288i"
    },
    {
      "time": "151104i",
      "midiNote": 62,
      "noteName": "D4",
      "velocity": 1,
      "duration": "192i"
    },
    {
      "time": "151296i",
      "midiNote": 61,
      "noteName": "C#4",
      "velocity": 1,
      "duration": "384i"
    },
    {
      "time": "151680i",
      "midiNote": 62,
      "noteName": "D4",
      "velocity": 1,
      "duration": "192i"
    },
    {
      "time": "151872i",
      "midiNote": 62,
      "noteName": "D4",
      "velocity": 1,
      "duration": "96i"
    },
    {
      "time": "151968i",
      "midiNote": 61,
      "noteName": "C#4",
      "velocity": 1,
      "duration": "864i"
    },
    {
      "time": "153024i",
      "midiNote": 54,
      "noteName": "F#3",
      "velocity": 1,
      "duration": "96i"
    },
    {
      "time": "153120i",
      "midiNote": 56,
      "noteName": "G#3",
      "velocity": 1,
      "duration": "96i"
    },
    {
      "time": "153216i",
      "midiNote": 57,
      "noteName": "A3",
      "velocity": 1,
      "duration": "96i"
    },
    {
      "time": "153312i",
      "midiNote": 61,
      "noteName": "C#4",
      "velocity": 1,
      "duration": "288i"
    },
    {
      "time": "153600i",
      "midiNote": 54,
      "noteName": "F#3",
      "velocity": 1,
      "duration": "96i"
    },
    {
      "time": "153696i",
      "midiNote": 56,
      "noteName": "G#3",
      "velocity": 1,
      "duration": "96i"
    },
    {
      "time": "153792i",
      "midiNote": 57,
      "noteName": "A3",
      "velocity": 1,
      "duration": "96i"
    },
    {
      "time": "153888i",
      "midiNote": 61,
      "noteName": "C#4",
      "velocity": 1,
      "duration": "480i"
    },
    {
      "time": "154560i",
      "midiNote": 54,
      "noteName": "F#3",
      "velocity": 1,
      "duration": "96i"
    },
    {
      "time": "154656i",
      "midiNote": 56,
      "noteName": "G#3",
      "velocity": 1,
      "duration": "96i"
    },
    {
      "time": "154752i",
      "midiNote": 57,
      "noteName": "A3",
      "velocity": 1,
      "duration": "96i"
    },
    {
      "time": "154848i",
      "midiNote": 62,
      "noteName": "D4",
      "velocity": 1,
      "duration": "288i"
    },
    {
      "time": "155136i",
      "midiNote": 54,
      "noteName": "F#3",
      "velocity": 1,
      "duration": "96i"
    },
    {
      "time": "155232i",
      "midiNote": 56,
      "noteName": "G#3",
      "velocity": 1,
      "duration": "96i"
    },
    {
      "time": "155328i",
      "midiNote": 57,
      "noteName": "A3",
      "velocity": 1,
      "duration": "96i"
    },
    {
      "time": "155424i",
      "midiNote": 62,
      "noteName": "D4",
      "velocity": 1,
      "duration": "288i"
    },
    {
      "time": "155712i",
      "midiNote": 62,
      "noteName": "D4",
      "velocity": 1,
      "duration": "192i"
    },
    {
      "time": "155712i",
      "midiNote": 57,
      "noteName": "A3",
      "velocity": 1,
      "duration": "192i"
    },
    {
      "time": "155904i",
      "midiNote": 59,
      "noteName": "B3",
      "velocity": 1,
      "duration": "576i"
    },
    {
      "time": "156480i",
      "midiNote": 68,
      "noteName": "G#4",
      "velocity": 1,
      "duration": "192i"
    },
    {
      "time": "156480i",
      "midiNote": 64,
      "noteName": "E4",
      "velocity": 1,
      "duration": "192i"
    },
    {
      "time": "156672i",
      "midiNote": 66,
      "noteName": "F#4",
      "velocity": 1,
      "duration": "576i"
    },
    {
      "time": "156672i",
      "midiNote": 62,
      "noteName": "D4",
      "velocity": 1,
      "duration": "576i"
    },
    {
      "time": "157248i",
      "midiNote": 59,
      "noteName": "B3",
      "velocity": 1,
      "duration": "192i"
    },
    {
      "time": "157248i",
      "midiNote": 56,
      "noteName": "G#3",
      "velocity": 1,
      "duration": "192i"
    },
    {
      "time": "157440i",
      "midiNote": 61,
      "noteName": "C#4",
      "velocity": 1,
      "duration": "1536i"
    },
    {
      "time": "157440i",
      "midiNote": 56,
      "noteName": "G#3",
      "velocity": 1,
      "duration": "1536i"
    },
    {
      "time": "171264i",
      "midiNote": 54,
      "noteName": "F#3",
      "velocity": 1,
      "duration": "192i"
    },
    {
      "time": "171456i",
      "midiNote": 57,
      "noteName": "A3",
      "velocity": 1,
      "duration": "96i"
    },
    {
      "time": "171552i",
      "midiNote": 56,
      "noteName": "G#3",
      "velocity": 1,
      "duration": "288i"
    },
    {
      "time": "171840i",
      "midiNote": 57,
      "noteName": "A3",
      "velocity": 1,
      "duration": "192i"
    },
    {
      "time": "172032i",
      "midiNote": 54,
      "noteName": "F#3",
      "velocity": 1,
      "duration": "192i"
    },
    {
      "time": "172224i",
      "midiNote": 57,
      "noteName": "A3",
      "velocity": 1,
      "duration": "96i"
    },
    {
      "time": "172320i",
      "midiNote": 56,
      "noteName": "G#3",
      "velocity": 1,
      "duration": "288i"
    },
    {
      "time": "172608i",
      "midiNote": 57,
      "noteName": "A3",
      "velocity": 1,
      "duration": "192i"
    },
    {
      "time": "172800i",
      "midiNote": 50,
      "noteName": "D3",
      "velocity": 1,
      "duration": "192i"
    },
    {
      "time": "172992i",
      "midiNote": 57,
      "noteName": "A3",
      "velocity": 1,
      "duration": "96i"
    },
    {
      "time": "173088i",
      "midiNote": 56,
      "noteName": "G#3",
      "velocity": 1,
      "duration": "288i"
    },
    {
      "time": "173376i",
      "midiNote": 57,
      "noteName": "A3",
      "velocity": 1,
      "duration": "192i"
    },
    {
      "time": "173568i",
      "midiNote": 50,
      "noteName": "D3",
      "velocity": 1,
      "duration": "192i"
    },
    {
      "time": "173760i",
      "midiNote": 57,
      "noteName": "A3",
      "velocity": 1,
      "duration": "96i"
    },
    {
      "time": "173856i",
      "midiNote": 56,
      "noteName": "G#3",
      "velocity": 1,
      "duration": "288i"
    },
    {
      "time": "174144i",
      "midiNote": 57,
      "noteName": "A3",
      "velocity": 1,
      "duration": "192i"
    },
    {
      "time": "174336i",
      "midiNote": 52,
      "noteName": "E3",
      "velocity": 1,
      "duration": "192i"
    },
    {
      "time": "174528i",
      "midiNote": 59,
      "noteName": "B3",
      "velocity": 1,
      "duration": "96i"
    },
    {
      "time": "174624i",
      "midiNote": 58,
      "noteName": "A#3",
      "velocity": 1,
      "duration": "288i"
    },
    {
      "time": "174912i",
      "midiNote": 59,
      "noteName": "B3",
      "velocity": 1,
      "duration": "192i"
    },
    {
      "time": "175104i",
      "midiNote": 52,
      "noteName": "E3",
      "velocity": 1,
      "duration": "192i"
    },
    {
      "time": "175296i",
      "midiNote": 59,
      "noteName": "B3",
      "velocity": 1,
      "duration": "96i"
    },
    {
      "time": "175392i",
      "midiNote": 58,
      "noteName": "A#3",
      "velocity": 1,
      "duration": "288i"
    },
    {
      "time": "175680i",
      "midiNote": 59,
      "noteName": "B3",
      "velocity": 1,
      "duration": "192i"
    },
    {
      "time": "175872i",
      "midiNote": 62,
      "noteName": "D4",
      "velocity": 1,
      "duration": "192i"
    },
    {
      "time": "176064i",
      "midiNote": 62,
      "noteName": "D4",
      "velocity": 1,
      "duration": "96i"
    },
    {
      "time": "176160i",
      "midiNote": 61,
      "noteName": "C#4",
      "velocity": 1,
      "duration": "1248i"
    }
  ],
  [
    {
      "time": "5376i",
      "midiNote": 57,
      "noteName": "A3",
      "velocity": 0.8818897637795275,
      "duration": "96i"
    },
    {
      "time": "5376i",
      "midiNote": 61,
      "noteName": "C#4",
      "velocity": 0.8818897637795275,
      "duration": "96i"
    },
    {
      "time": "5376i",
      "midiNote": 66,
      "noteName": "F#4",
      "velocity": 1,
      "duration": "96i"
    },
    {
      "time": "5472i",
      "midiNote": 57,
      "noteName": "A3",
      "velocity": 0.7559055118110236,
      "duration": "96i"
    },
    {
      "time": "5472i",
      "midiNote": 61,
      "noteName": "C#4",
      "velocity": 0.7559055118110236,
      "duration": "96i"
    },
    {
      "time": "5472i",
      "midiNote": 66,
      "noteName": "F#4",
      "velocity": 0.8818897637795275,
      "duration": "96i"
    },
    {
      "time": "5568i",
      "midiNote": 57,
      "noteName": "A3",
      "velocity": 0.8188976377952756,
      "duration": "96i"
    },
    {
      "time": "5568i",
      "midiNote": 61,
      "noteName": "C#4",
      "velocity": 0.8188976377952756,
      "duration": "96i"
    },
    {
      "time": "5568i",
      "midiNote": 66,
      "noteName": "F#4",
      "velocity": 0.9448818897637795,
      "duration": "96i"
    },
    {
      "time": "5664i",
      "midiNote": 57,
      "noteName": "A3",
      "velocity": 0.8818897637795275,
      "duration": "96i"
    },
    {
      "time": "5664i",
      "midiNote": 61,
      "noteName": "C#4",
      "velocity": 0.8818897637795275,
      "duration": "96i"
    },
    {
      "time": "5664i",
      "midiNote": 66,
      "noteName": "F#4",
      "velocity": 1,
      "duration": "96i"
    },
    {
      "time": "5856i",
      "midiNote": 57,
      "noteName": "A3",
      "velocity": 0.8818897637795275,
      "duration": "192i"
    },
    {
      "time": "5856i",
      "midiNote": 61,
      "noteName": "C#4",
      "velocity": 0.8818897637795275,
      "duration": "192i"
    },
    {
      "time": "5856i",
      "midiNote": 66,
      "noteName": "F#4",
      "velocity": 1,
      "duration": "192i"
    },
    {
      "time": "6048i",
      "midiNote": 57,
      "noteName": "A3",
      "velocity": 0.8818897637795275,
      "duration": "96i"
    },
    {
      "time": "6048i",
      "midiNote": 61,
      "noteName": "C#4",
      "velocity": 0.8818897637795275,
      "duration": "96i"
    },
    {
      "time": "6048i",
      "midiNote": 66,
      "noteName": "F#4",
      "velocity": 1,
      "duration": "96i"
    },
    {
      "time": "6144i",
      "midiNote": 57,
      "noteName": "A3",
      "velocity": 0.8818897637795275,
      "duration": "96i"
    },
    {
      "time": "6144i",
      "midiNote": 61,
      "noteName": "C#4",
      "velocity": 0.8818897637795275,
      "duration": "96i"
    },
    {
      "time": "6144i",
      "midiNote": 66,
      "noteName": "F#4",
      "velocity": 1,
      "duration": "96i"
    },
    {
      "time": "6240i",
      "midiNote": 57,
      "noteName": "A3",
      "velocity": 0.7559055118110236,
      "duration": "96i"
    },
    {
      "time": "6240i",
      "midiNote": 61,
      "noteName": "C#4",
      "velocity": 0.7559055118110236,
      "duration": "96i"
    },
    {
      "time": "6240i",
      "midiNote": 66,
      "noteName": "F#4",
      "velocity": 0.8818897637795275,
      "duration": "96i"
    },
    {
      "time": "6336i",
      "midiNote": 57,
      "noteName": "A3",
      "velocity": 0.8188976377952756,
      "duration": "96i"
    },
    {
      "time": "6336i",
      "midiNote": 61,
      "noteName": "C#4",
      "velocity": 0.8188976377952756,
      "duration": "96i"
    },
    {
      "time": "6336i",
      "midiNote": 66,
      "noteName": "F#4",
      "velocity": 0.9448818897637795,
      "duration": "96i"
    },
    {
      "time": "6432i",
      "midiNote": 57,
      "noteName": "A3",
      "velocity": 0.8818897637795275,
      "duration": "96i"
    },
    {
      "time": "6432i",
      "midiNote": 61,
      "noteName": "C#4",
      "velocity": 0.8818897637795275,
      "duration": "96i"
    },
    {
      "time": "6432i",
      "midiNote": 66,
      "noteName": "F#4",
      "velocity": 1,
      "duration": "96i"
    },
    {
      "time": "6624i",
      "midiNote": 57,
      "noteName": "A3",
      "velocity": 0.8818897637795275,
      "duration": "192i"
    },
    {
      "time": "6624i",
      "midiNote": 61,
      "noteName": "C#4",
      "velocity": 0.8818897637795275,
      "duration": "192i"
    },
    {
      "time": "6624i",
      "midiNote": 66,
      "noteName": "F#4",
      "velocity": 1,
      "duration": "192i"
    },
    {
      "time": "6816i",
      "midiNote": 57,
      "noteName": "A3",
      "velocity": 0.8818897637795275,
      "duration": "96i"
    },
    {
      "time": "6816i",
      "midiNote": 61,
      "noteName": "C#4",
      "velocity": 0.8818897637795275,
      "duration": "96i"
    },
    {
      "time": "6816i",
      "midiNote": 66,
      "noteName": "F#4",
      "velocity": 1,
      "duration": "192i"
    },
    {
      "time": "6912i",
      "midiNote": 57,
      "noteName": "A3",
      "velocity": 0.8818897637795275,
      "duration": "96i"
    },
    {
      "time": "6912i",
      "midiNote": 62,
      "noteName": "D4",
      "velocity": 0.8818897637795275,
      "duration": "96i"
    },
    {
      "time": "6912i",
      "midiNote": 66,
      "noteName": "F#4",
      "velocity": 1,
      "duration": "0i"
    },
    {
      "time": "7008i",
      "midiNote": 57,
      "noteName": "A3",
      "velocity": 0.7559055118110236,
      "duration": "96i"
    },
    {
      "time": "7008i",
      "midiNote": 62,
      "noteName": "D4",
      "velocity": 0.7559055118110236,
      "duration": "96i"
    },
    {
      "time": "7008i",
      "midiNote": 66,
      "noteName": "F#4",
      "velocity": 0.8818897637795275,
      "duration": "96i"
    },
    {
      "time": "7104i",
      "midiNote": 57,
      "noteName": "A3",
      "velocity": 0.8188976377952756,
      "duration": "96i"
    },
    {
      "time": "7104i",
      "midiNote": 62,
      "noteName": "D4",
      "velocity": 0.8188976377952756,
      "duration": "96i"
    },
    {
      "time": "7104i",
      "midiNote": 66,
      "noteName": "F#4",
      "velocity": 0.9448818897637795,
      "duration": "96i"
    },
    {
      "time": "7200i",
      "midiNote": 57,
      "noteName": "A3",
      "velocity": 0.8818897637795275,
      "duration": "96i"
    },
    {
      "time": "7200i",
      "midiNote": 62,
      "noteName": "D4",
      "velocity": 0.8818897637795275,
      "duration": "96i"
    },
    {
      "time": "7200i",
      "midiNote": 66,
      "noteName": "F#4",
      "velocity": 1,
      "duration": "96i"
    },
    {
      "time": "7392i",
      "midiNote": 57,
      "noteName": "A3",
      "velocity": 0.8818897637795275,
      "duration": "192i"
    },
    {
      "time": "7392i",
      "midiNote": 62,
      "noteName": "D4",
      "velocity": 0.8818897637795275,
      "duration": "192i"
    },
    {
      "time": "7392i",
      "midiNote": 66,
      "noteName": "F#4",
      "velocity": 1,
      "duration": "192i"
    },
    {
      "time": "7584i",
      "midiNote": 57,
      "noteName": "A3",
      "velocity": 0.8818897637795275,
      "duration": "96i"
    },
    {
      "time": "7584i",
      "midiNote": 62,
      "noteName": "D4",
      "velocity": 0.8818897637795275,
      "duration": "96i"
    },
    {
      "time": "7584i",
      "midiNote": 66,
      "noteName": "F#4",
      "velocity": 1,
      "duration": "96i"
    },
    {
      "time": "7680i",
      "midiNote": 57,
      "noteName": "A3",
      "velocity": 0.8818897637795275,
      "duration": "96i"
    },
    {
      "time": "7680i",
      "midiNote": 62,
      "noteName": "D4",
      "velocity": 0.8818897637795275,
      "duration": "96i"
    },
    {
      "time": "7680i",
      "midiNote": 66,
      "noteName": "F#4",
      "velocity": 1,
      "duration": "96i"
    },
    {
      "time": "7776i",
      "midiNote": 57,
      "noteName": "A3",
      "velocity": 0.7559055118110236,
      "duration": "96i"
    },
    {
      "time": "7776i",
      "midiNote": 62,
      "noteName": "D4",
      "velocity": 0.7559055118110236,
      "duration": "96i"
    },
    {
      "time": "7776i",
      "midiNote": 66,
      "noteName": "F#4",
      "velocity": 0.8818897637795275,
      "duration": "96i"
    },
    {
      "time": "7872i",
      "midiNote": 57,
      "noteName": "A3",
      "velocity": 0.8188976377952756,
      "duration": "96i"
    },
    {
      "time": "7872i",
      "midiNote": 62,
      "noteName": "D4",
      "velocity": 0.8188976377952756,
      "duration": "96i"
    },
    {
      "time": "7872i",
      "midiNote": 66,
      "noteName": "F#4",
      "velocity": 0.9448818897637795,
      "duration": "96i"
    },
    {
      "time": "7968i",
      "midiNote": 57,
      "noteName": "A3",
      "velocity": 0.8818897637795275,
      "duration": "96i"
    },
    {
      "time": "7968i",
      "midiNote": 62,
      "noteName": "D4",
      "velocity": 0.8818897637795275,
      "duration": "96i"
    },
    {
      "time": "7968i",
      "midiNote": 66,
      "noteName": "F#4",
      "velocity": 1,
      "duration": "96i"
    },
    {
      "time": "8160i",
      "midiNote": 57,
      "noteName": "A3",
      "velocity": 0.8818897637795275,
      "duration": "192i"
    },
    {
      "time": "8160i",
      "midiNote": 62,
      "noteName": "D4",
      "velocity": 0.8818897637795275,
      "duration": "192i"
    },
    {
      "time": "8160i",
      "midiNote": 66,
      "noteName": "F#4",
      "velocity": 1,
      "duration": "192i"
    },
    {
      "time": "8352i",
      "midiNote": 57,
      "noteName": "A3",
      "velocity": 0.8818897637795275,
      "duration": "96i"
    },
    {
      "time": "8352i",
      "midiNote": 62,
      "noteName": "D4",
      "velocity": 0.8818897637795275,
      "duration": "96i"
    },
    {
      "time": "8352i",
      "midiNote": 66,
      "noteName": "F#4",
      "velocity": 1,
      "duration": "96i"
    },
    {
      "time": "8448i",
      "midiNote": 50,
      "noteName": "D3",
      "velocity": 0.8818897637795275,
      "duration": "96i"
    },
    {
      "time": "8448i",
      "midiNote": 56,
      "noteName": "G#3",
      "velocity": 0.8818897637795275,
      "duration": "96i"
    },
    {
      "time": "8448i",
      "midiNote": 64,
      "noteName": "E4",
      "velocity": 1,
      "duration": "96i"
    },
    {
      "time": "8544i",
      "midiNote": 50,
      "noteName": "D3",
      "velocity": 0.7559055118110236,
      "duration": "96i"
    },
    {
      "time": "8544i",
      "midiNote": 56,
      "noteName": "G#3",
      "velocity": 0.7559055118110236,
      "duration": "96i"
    },
    {
      "time": "8544i",
      "midiNote": 64,
      "noteName": "E4",
      "velocity": 0.8818897637795275,
      "duration": "96i"
    },
    {
      "time": "8640i",
      "midiNote": 50,
      "noteName": "D3",
      "velocity": 0.8188976377952756,
      "duration": "96i"
    },
    {
      "time": "8640i",
      "midiNote": 56,
      "noteName": "G#3",
      "velocity": 0.8188976377952756,
      "duration": "96i"
    },
    {
      "time": "8640i",
      "midiNote": 64,
      "noteName": "E4",
      "velocity": 0.9448818897637795,
      "duration": "96i"
    },
    {
      "time": "8736i",
      "midiNote": 50,
      "noteName": "D3",
      "velocity": 0.8818897637795275,
      "duration": "96i"
    },
    {
      "time": "8736i",
      "midiNote": 56,
      "noteName": "G#3",
      "velocity": 0.8818897637795275,
      "duration": "96i"
    },
    {
      "time": "8736i",
      "midiNote": 64,
      "noteName": "E4",
      "velocity": 1,
      "duration": "96i"
    },
    {
      "time": "8928i",
      "midiNote": 50,
      "noteName": "D3",
      "velocity": 0.8818897637795275,
      "duration": "192i"
    },
    {
      "time": "8928i",
      "midiNote": 56,
      "noteName": "G#3",
      "velocity": 0.8818897637795275,
      "duration": "192i"
    },
    {
      "time": "8928i",
      "midiNote": 64,
      "noteName": "E4",
      "velocity": 1,
      "duration": "192i"
    },
    {
      "time": "9120i",
      "midiNote": 50,
      "noteName": "D3",
      "velocity": 0.8818897637795275,
      "duration": "96i"
    },
    {
      "time": "9120i",
      "midiNote": 56,
      "noteName": "G#3",
      "velocity": 0.8818897637795275,
      "duration": "96i"
    },
    {
      "time": "9120i",
      "midiNote": 64,
      "noteName": "E4",
      "velocity": 1,
      "duration": "96i"
    },
    {
      "time": "9216i",
      "midiNote": 50,
      "noteName": "D3",
      "velocity": 0.8818897637795275,
      "duration": "96i"
    },
    {
      "time": "9216i",
      "midiNote": 56,
      "noteName": "G#3",
      "velocity": 0.8818897637795275,
      "duration": "96i"
    },
    {
      "time": "9216i",
      "midiNote": 64,
      "noteName": "E4",
      "velocity": 1,
      "duration": "96i"
    },
    {
      "time": "9312i",
      "midiNote": 50,
      "noteName": "D3",
      "velocity": 0.7559055118110236,
      "duration": "96i"
    },
    {
      "time": "9312i",
      "midiNote": 56,
      "noteName": "G#3",
      "velocity": 0.7559055118110236,
      "duration": "96i"
    },
    {
      "time": "9312i",
      "midiNote": 64,
      "noteName": "E4",
      "velocity": 0.8818897637795275,
      "duration": "96i"
    },
    {
      "time": "9408i",
      "midiNote": 50,
      "noteName": "D3",
      "velocity": 0.8188976377952756,
      "duration": "96i"
    },
    {
      "time": "9408i",
      "midiNote": 56,
      "noteName": "G#3",
      "velocity": 0.8188976377952756,
      "duration": "96i"
    },
    {
      "time": "9408i",
      "midiNote": 64,
      "noteName": "E4",
      "velocity": 0.9448818897637795,
      "duration": "96i"
    },
    {
      "time": "9504i",
      "midiNote": 50,
      "noteName": "D3",
      "velocity": 0.8818897637795275,
      "duration": "96i"
    },
    {
      "time": "9504i",
      "midiNote": 56,
      "noteName": "G#3",
      "velocity": 0.8818897637795275,
      "duration": "96i"
    },
    {
      "time": "9504i",
      "midiNote": 64,
      "noteName": "E4",
      "velocity": 1,
      "duration": "96i"
    },
    {
      "time": "9696i",
      "midiNote": 50,
      "noteName": "D3",
      "velocity": 0.8818897637795275,
      "duration": "192i"
    },
    {
      "time": "9696i",
      "midiNote": 56,
      "noteName": "G#3",
      "velocity": 0.8818897637795275,
      "duration": "192i"
    },
    {
      "time": "9696i",
      "midiNote": 64,
      "noteName": "E4",
      "velocity": 1,
      "duration": "192i"
    },
    {
      "time": "9888i",
      "midiNote": 50,
      "noteName": "D3",
      "velocity": 0.8818897637795275,
      "duration": "96i"
    },
    {
      "time": "9888i",
      "midiNote": 56,
      "noteName": "G#3",
      "velocity": 0.8818897637795275,
      "duration": "96i"
    },
    {
      "time": "9888i",
      "midiNote": 64,
      "noteName": "E4",
      "velocity": 1,
      "duration": "96i"
    },
    {
      "time": "9984i",
      "midiNote": 59,
      "noteName": "B3",
      "velocity": 0.8818897637795275,
      "duration": "96i"
    },
    {
      "time": "9984i",
      "midiNote": 56,
      "noteName": "G#3",
      "velocity": 0.8818897637795275,
      "duration": "96i"
    },
    {
      "time": "9984i",
      "midiNote": 65,
      "noteName": "F4",
      "velocity": 1,
      "duration": "96i"
    },
    {
      "time": "10080i",
      "midiNote": 59,
      "noteName": "B3",
      "velocity": 0.7559055118110236,
      "duration": "96i"
    },
    {
      "time": "10080i",
      "midiNote": 56,
      "noteName": "G#3",
      "velocity": 0.7559055118110236,
      "duration": "96i"
    },
    {
      "time": "10080i",
      "midiNote": 65,
      "noteName": "F4",
      "velocity": 0.8818897637795275,
      "duration": "96i"
    },
    {
      "time": "10176i",
      "midiNote": 59,
      "noteName": "B3",
      "velocity": 0.8188976377952756,
      "duration": "96i"
    },
    {
      "time": "10176i",
      "midiNote": 56,
      "noteName": "G#3",
      "velocity": 0.8188976377952756,
      "duration": "96i"
    },
    {
      "time": "10176i",
      "midiNote": 65,
      "noteName": "F4",
      "velocity": 0.9448818897637795,
      "duration": "96i"
    },
    {
      "time": "10272i",
      "midiNote": 59,
      "noteName": "B3",
      "velocity": 0.8818897637795275,
      "duration": "96i"
    },
    {
      "time": "10272i",
      "midiNote": 56,
      "noteName": "G#3",
      "velocity": 0.8818897637795275,
      "duration": "96i"
    },
    {
      "time": "10272i",
      "midiNote": 65,
      "noteName": "F4",
      "velocity": 1,
      "duration": "96i"
    },
    {
      "time": "10464i",
      "midiNote": 59,
      "noteName": "B3",
      "velocity": 0.8818897637795275,
      "duration": "192i"
    },
    {
      "time": "10464i",
      "midiNote": 56,
      "noteName": "G#3",
      "velocity": 0.8818897637795275,
      "duration": "192i"
    },
    {
      "time": "10464i",
      "midiNote": 65,
      "noteName": "F4",
      "velocity": 1,
      "duration": "192i"
    },
    {
      "time": "10656i",
      "midiNote": 59,
      "noteName": "B3",
      "velocity": 0.8818897637795275,
      "duration": "96i"
    },
    {
      "time": "10656i",
      "midiNote": 56,
      "noteName": "G#3",
      "velocity": 0.8818897637795275,
      "duration": "96i"
    },
    {
      "time": "10656i",
      "midiNote": 65,
      "noteName": "F4",
      "velocity": 1,
      "duration": "96i"
    },
    {
      "time": "10752i",
      "midiNote": 59,
      "noteName": "B3",
      "velocity": 0.8818897637795275,
      "duration": "96i"
    },
    {
      "time": "10752i",
      "midiNote": 56,
      "noteName": "G#3",
      "velocity": 0.8818897637795275,
      "duration": "96i"
    },
    {
      "time": "10752i",
      "midiNote": 65,
      "noteName": "F4",
      "velocity": 1,
      "duration": "96i"
    },
    {
      "time": "10848i",
      "midiNote": 59,
      "noteName": "B3",
      "velocity": 0.7559055118110236,
      "duration": "96i"
    },
    {
      "time": "10848i",
      "midiNote": 56,
      "noteName": "G#3",
      "velocity": 0.7559055118110236,
      "duration": "96i"
    },
    {
      "time": "10848i",
      "midiNote": 65,
      "noteName": "F4",
      "velocity": 0.8818897637795275,
      "duration": "96i"
    },
    {
      "time": "10944i",
      "midiNote": 59,
      "noteName": "B3",
      "velocity": 0.8188976377952756,
      "duration": "96i"
    },
    {
      "time": "10944i",
      "midiNote": 56,
      "noteName": "G#3",
      "velocity": 0.8188976377952756,
      "duration": "96i"
    },
    {
      "time": "10944i",
      "midiNote": 65,
      "noteName": "F4",
      "velocity": 0.9448818897637795,
      "duration": "96i"
    },
    {
      "time": "11040i",
      "midiNote": 59,
      "noteName": "B3",
      "velocity": 0.8818897637795275,
      "duration": "96i"
    },
    {
      "time": "11040i",
      "midiNote": 56,
      "noteName": "G#3",
      "velocity": 0.8818897637795275,
      "duration": "96i"
    },
    {
      "time": "11040i",
      "midiNote": 65,
      "noteName": "F4",
      "velocity": 1,
      "duration": "96i"
    },
    {
      "time": "11232i",
      "midiNote": 59,
      "noteName": "B3",
      "velocity": 0.8818897637795275,
      "duration": "192i"
    },
    {
      "time": "11232i",
      "midiNote": 56,
      "noteName": "G#3",
      "velocity": 0.8818897637795275,
      "duration": "192i"
    },
    {
      "time": "11232i",
      "midiNote": 65,
      "noteName": "F4",
      "velocity": 1,
      "duration": "192i"
    },
    {
      "time": "11424i",
      "midiNote": 59,
      "noteName": "B3",
      "velocity": 0.8818897637795275,
      "duration": "96i"
    },
    {
      "time": "11424i",
      "midiNote": 56,
      "noteName": "G#3",
      "velocity": 0.8818897637795275,
      "duration": "96i"
    },
    {
      "time": "11424i",
      "midiNote": 65,
      "noteName": "F4",
      "velocity": 1,
      "duration": "96i"
    },
    {
      "time": "11520i",
      "midiNote": 66,
      "noteName": "F#4",
      "velocity": 1,
      "duration": "96i"
    },
    {
      "time": "11520i",
      "midiNote": 61,
      "noteName": "C#4",
      "velocity": 0.8818897637795275,
      "duration": "96i"
    },
    {
      "time": "11520i",
      "midiNote": 57,
      "noteName": "A3",
      "velocity": 0.8818897637795275,
      "duration": "96i"
    },
    {
      "time": "11616i",
      "midiNote": 66,
      "noteName": "F#4",
      "velocity": 0.8818897637795275,
      "duration": "96i"
    },
    {
      "time": "11616i",
      "midiNote": 61,
      "noteName": "C#4",
      "velocity": 0.7559055118110236,
      "duration": "96i"
    },
    {
      "time": "11616i",
      "midiNote": 57,
      "noteName": "A3",
      "velocity": 0.7559055118110236,
      "duration": "96i"
    },
    {
      "time": "11712i",
      "midiNote": 66,
      "noteName": "F#4",
      "velocity": 0.9448818897637795,
      "duration": "96i"
    },
    {
      "time": "11712i",
      "midiNote": 61,
      "noteName": "C#4",
      "velocity": 0.8188976377952756,
      "duration": "96i"
    },
    {
      "time": "11712i",
      "midiNote": 57,
      "noteName": "A3",
      "velocity": 0.8188976377952756,
      "duration": "96i"
    },
    {
      "time": "11808i",
      "midiNote": 66,
      "noteName": "F#4",
      "velocity": 1,
      "duration": "96i"
    },
    {
      "time": "11808i",
      "midiNote": 61,
      "noteName": "C#4",
      "velocity": 0.8818897637795275,
      "duration": "96i"
    },
    {
      "time": "11808i",
      "midiNote": 57,
      "noteName": "A3",
      "velocity": 0.8818897637795275,
      "duration": "96i"
    },
    {
      "time": "12000i",
      "midiNote": 66,
      "noteName": "F#4",
      "velocity": 1,
      "duration": "192i"
    },
    {
      "time": "12000i",
      "midiNote": 61,
      "noteName": "C#4",
      "velocity": 0.8818897637795275,
      "duration": "192i"
    },
    {
      "time": "12000i",
      "midiNote": 57,
      "noteName": "A3",
      "velocity": 0.8818897637795275,
      "duration": "192i"
    },
    {
      "time": "12192i",
      "midiNote": 66,
      "noteName": "F#4",
      "velocity": 1,
      "duration": "96i"
    },
    {
      "time": "12192i",
      "midiNote": 61,
      "noteName": "C#4",
      "velocity": 0.8818897637795275,
      "duration": "96i"
    },
    {
      "time": "12192i",
      "midiNote": 57,
      "noteName": "A3",
      "velocity": 0.8818897637795275,
      "duration": "96i"
    },
    {
      "time": "12288i",
      "midiNote": 66,
      "noteName": "F#4",
      "velocity": 1,
      "duration": "96i"
    },
    {
      "time": "12288i",
      "midiNote": 61,
      "noteName": "C#4",
      "velocity": 0.8818897637795275,
      "duration": "96i"
    },
    {
      "time": "12288i",
      "midiNote": 57,
      "noteName": "A3",
      "velocity": 0.8818897637795275,
      "duration": "96i"
    },
    {
      "time": "12384i",
      "midiNote": 66,
      "noteName": "F#4",
      "velocity": 0.8818897637795275,
      "duration": "96i"
    },
    {
      "time": "12384i",
      "midiNote": 61,
      "noteName": "C#4",
      "velocity": 0.7559055118110236,
      "duration": "96i"
    },
    {
      "time": "12384i",
      "midiNote": 57,
      "noteName": "A3",
      "velocity": 0.7559055118110236,
      "duration": "96i"
    },
    {
      "time": "12480i",
      "midiNote": 66,
      "noteName": "F#4",
      "velocity": 0.9448818897637795,
      "duration": "96i"
    },
    {
      "time": "12480i",
      "midiNote": 61,
      "noteName": "C#4",
      "velocity": 0.8188976377952756,
      "duration": "96i"
    },
    {
      "time": "12480i",
      "midiNote": 57,
      "noteName": "A3",
      "velocity": 0.8188976377952756,
      "duration": "96i"
    },
    {
      "time": "12576i",
      "midiNote": 66,
      "noteName": "F#4",
      "velocity": 1,
      "duration": "96i"
    },
    {
      "time": "12576i",
      "midiNote": 61,
      "noteName": "C#4",
      "velocity": 0.8818897637795275,
      "duration": "96i"
    },
    {
      "time": "12576i",
      "midiNote": 57,
      "noteName": "A3",
      "velocity": 0.8818897637795275,
      "duration": "96i"
    },
    {
      "time": "12768i",
      "midiNote": 66,
      "noteName": "F#4",
      "velocity": 1,
      "duration": "192i"
    },
    {
      "time": "12768i",
      "midiNote": 61,
      "noteName": "C#4",
      "velocity": 0.8818897637795275,
      "duration": "192i"
    },
    {
      "time": "12768i",
      "midiNote": 57,
      "noteName": "A3",
      "velocity": 0.8818897637795275,
      "duration": "192i"
    },
    {
      "time": "12960i",
      "midiNote": 66,
      "noteName": "F#4",
      "velocity": 1,
      "duration": "96i"
    },
    {
      "time": "12960i",
      "midiNote": 61,
      "noteName": "C#4",
      "velocity": 0.8818897637795275,
      "duration": "96i"
    },
    {
      "time": "12960i",
      "midiNote": 57,
      "noteName": "A3",
      "velocity": 0.8818897637795275,
      "duration": "96i"
    },
    {
      "time": "13056i",
      "midiNote": 57,
      "noteName": "A3",
      "velocity": 0.8818897637795275,
      "duration": "96i"
    },
    {
      "time": "13056i",
      "midiNote": 62,
      "noteName": "D4",
      "velocity": 0.8818897637795275,
      "duration": "96i"
    },
    {
      "time": "13056i",
      "midiNote": 66,
      "noteName": "F#4",
      "velocity": 1,
      "duration": "96i"
    },
    {
      "time": "13152i",
      "midiNote": 57,
      "noteName": "A3",
      "velocity": 0.7559055118110236,
      "duration": "96i"
    },
    {
      "time": "13152i",
      "midiNote": 62,
      "noteName": "D4",
      "velocity": 0.7559055118110236,
      "duration": "96i"
    },
    {
      "time": "13152i",
      "midiNote": 66,
      "noteName": "F#4",
      "velocity": 0.8818897637795275,
      "duration": "96i"
    },
    {
      "time": "13248i",
      "midiNote": 57,
      "noteName": "A3",
      "velocity": 0.8188976377952756,
      "duration": "96i"
    },
    {
      "time": "13248i",
      "midiNote": 62,
      "noteName": "D4",
      "velocity": 0.8188976377952756,
      "duration": "96i"
    },
    {
      "time": "13248i",
      "midiNote": 66,
      "noteName": "F#4",
      "velocity": 0.9448818897637795,
      "duration": "96i"
    },
    {
      "time": "13344i",
      "midiNote": 57,
      "noteName": "A3",
      "velocity": 0.8818897637795275,
      "duration": "96i"
    },
    {
      "time": "13344i",
      "midiNote": 62,
      "noteName": "D4",
      "velocity": 0.8818897637795275,
      "duration": "96i"
    },
    {
      "time": "13344i",
      "midiNote": 66,
      "noteName": "F#4",
      "velocity": 1,
      "duration": "96i"
    },
    {
      "time": "13536i",
      "midiNote": 57,
      "noteName": "A3",
      "velocity": 0.8818897637795275,
      "duration": "192i"
    },
    {
      "time": "13536i",
      "midiNote": 62,
      "noteName": "D4",
      "velocity": 0.8818897637795275,
      "duration": "192i"
    },
    {
      "time": "13536i",
      "midiNote": 66,
      "noteName": "F#4",
      "velocity": 1,
      "duration": "192i"
    },
    {
      "time": "13728i",
      "midiNote": 57,
      "noteName": "A3",
      "velocity": 0.8818897637795275,
      "duration": "96i"
    },
    {
      "time": "13728i",
      "midiNote": 62,
      "noteName": "D4",
      "velocity": 0.8818897637795275,
      "duration": "96i"
    },
    {
      "time": "13728i",
      "midiNote": 66,
      "noteName": "F#4",
      "velocity": 1,
      "duration": "96i"
    },
    {
      "time": "13824i",
      "midiNote": 57,
      "noteName": "A3",
      "velocity": 0.8818897637795275,
      "duration": "96i"
    },
    {
      "time": "13824i",
      "midiNote": 62,
      "noteName": "D4",
      "velocity": 0.8818897637795275,
      "duration": "96i"
    },
    {
      "time": "13824i",
      "midiNote": 66,
      "noteName": "F#4",
      "velocity": 1,
      "duration": "96i"
    },
    {
      "time": "13920i",
      "midiNote": 57,
      "noteName": "A3",
      "velocity": 0.7559055118110236,
      "duration": "96i"
    },
    {
      "time": "13920i",
      "midiNote": 62,
      "noteName": "D4",
      "velocity": 0.7559055118110236,
      "duration": "96i"
    },
    {
      "time": "13920i",
      "midiNote": 66,
      "noteName": "F#4",
      "velocity": 0.8818897637795275,
      "duration": "96i"
    },
    {
      "time": "14016i",
      "midiNote": 57,
      "noteName": "A3",
      "velocity": 0.8188976377952756,
      "duration": "96i"
    },
    {
      "time": "14016i",
      "midiNote": 62,
      "noteName": "D4",
      "velocity": 0.8188976377952756,
      "duration": "96i"
    },
    {
      "time": "14016i",
      "midiNote": 66,
      "noteName": "F#4",
      "velocity": 0.9448818897637795,
      "duration": "96i"
    },
    {
      "time": "14112i",
      "midiNote": 57,
      "noteName": "A3",
      "velocity": 0.8818897637795275,
      "duration": "96i"
    },
    {
      "time": "14112i",
      "midiNote": 62,
      "noteName": "D4",
      "velocity": 0.8818897637795275,
      "duration": "96i"
    },
    {
      "time": "14112i",
      "midiNote": 66,
      "noteName": "F#4",
      "velocity": 1,
      "duration": "96i"
    },
    {
      "time": "14304i",
      "midiNote": 57,
      "noteName": "A3",
      "velocity": 0.8818897637795275,
      "duration": "192i"
    },
    {
      "time": "14304i",
      "midiNote": 62,
      "noteName": "D4",
      "velocity": 0.8818897637795275,
      "duration": "192i"
    },
    {
      "time": "14304i",
      "midiNote": 66,
      "noteName": "F#4",
      "velocity": 1,
      "duration": "192i"
    },
    {
      "time": "14496i",
      "midiNote": 57,
      "noteName": "A3",
      "velocity": 0.8818897637795275,
      "duration": "96i"
    },
    {
      "time": "14496i",
      "midiNote": 62,
      "noteName": "D4",
      "velocity": 0.8818897637795275,
      "duration": "96i"
    },
    {
      "time": "14496i",
      "midiNote": 66,
      "noteName": "F#4",
      "velocity": 1,
      "duration": "96i"
    },
    {
      "time": "14592i",
      "midiNote": 50,
      "noteName": "D3",
      "velocity": 0.8818897637795275,
      "duration": "96i"
    },
    {
      "time": "14592i",
      "midiNote": 56,
      "noteName": "G#3",
      "velocity": 0.8818897637795275,
      "duration": "96i"
    },
    {
      "time": "14592i",
      "midiNote": 64,
      "noteName": "E4",
      "velocity": 1,
      "duration": "96i"
    },
    {
      "time": "14688i",
      "midiNote": 50,
      "noteName": "D3",
      "velocity": 0.7559055118110236,
      "duration": "96i"
    },
    {
      "time": "14688i",
      "midiNote": 56,
      "noteName": "G#3",
      "velocity": 0.7559055118110236,
      "duration": "96i"
    },
    {
      "time": "14688i",
      "midiNote": 64,
      "noteName": "E4",
      "velocity": 0.8818897637795275,
      "duration": "96i"
    },
    {
      "time": "14784i",
      "midiNote": 50,
      "noteName": "D3",
      "velocity": 0.8188976377952756,
      "duration": "96i"
    },
    {
      "time": "14784i",
      "midiNote": 56,
      "noteName": "G#3",
      "velocity": 0.8188976377952756,
      "duration": "96i"
    },
    {
      "time": "14784i",
      "midiNote": 64,
      "noteName": "E4",
      "velocity": 0.9448818897637795,
      "duration": "96i"
    },
    {
      "time": "14880i",
      "midiNote": 50,
      "noteName": "D3",
      "velocity": 0.8818897637795275,
      "duration": "96i"
    },
    {
      "time": "14880i",
      "midiNote": 56,
      "noteName": "G#3",
      "velocity": 0.8818897637795275,
      "duration": "96i"
    },
    {
      "time": "14880i",
      "midiNote": 64,
      "noteName": "E4",
      "velocity": 1,
      "duration": "96i"
    },
    {
      "time": "15072i",
      "midiNote": 50,
      "noteName": "D3",
      "velocity": 0.8818897637795275,
      "duration": "192i"
    },
    {
      "time": "15072i",
      "midiNote": 56,
      "noteName": "G#3",
      "velocity": 0.8818897637795275,
      "duration": "192i"
    },
    {
      "time": "15072i",
      "midiNote": 64,
      "noteName": "E4",
      "velocity": 1,
      "duration": "192i"
    },
    {
      "time": "15264i",
      "midiNote": 50,
      "noteName": "D3",
      "velocity": 0.8818897637795275,
      "duration": "96i"
    },
    {
      "time": "15264i",
      "midiNote": 56,
      "noteName": "G#3",
      "velocity": 0.8818897637795275,
      "duration": "96i"
    },
    {
      "time": "15264i",
      "midiNote": 64,
      "noteName": "E4",
      "velocity": 1,
      "duration": "96i"
    },
    {
      "time": "15360i",
      "midiNote": 50,
      "noteName": "D3",
      "velocity": 0.8818897637795275,
      "duration": "96i"
    },
    {
      "time": "15360i",
      "midiNote": 56,
      "noteName": "G#3",
      "velocity": 0.8818897637795275,
      "duration": "96i"
    },
    {
      "time": "15360i",
      "midiNote": 64,
      "noteName": "E4",
      "velocity": 1,
      "duration": "96i"
    },
    {
      "time": "15456i",
      "midiNote": 50,
      "noteName": "D3",
      "velocity": 0.7559055118110236,
      "duration": "96i"
    },
    {
      "time": "15456i",
      "midiNote": 56,
      "noteName": "G#3",
      "velocity": 0.7559055118110236,
      "duration": "96i"
    },
    {
      "time": "15456i",
      "midiNote": 64,
      "noteName": "E4",
      "velocity": 0.8818897637795275,
      "duration": "96i"
    },
    {
      "time": "15552i",
      "midiNote": 50,
      "noteName": "D3",
      "velocity": 0.8188976377952756,
      "duration": "96i"
    },
    {
      "time": "15552i",
      "midiNote": 56,
      "noteName": "G#3",
      "velocity": 0.8188976377952756,
      "duration": "96i"
    },
    {
      "time": "15552i",
      "midiNote": 64,
      "noteName": "E4",
      "velocity": 0.9448818897637795,
      "duration": "96i"
    },
    {
      "time": "15648i",
      "midiNote": 50,
      "noteName": "D3",
      "velocity": 0.8818897637795275,
      "duration": "96i"
    },
    {
      "time": "15648i",
      "midiNote": 56,
      "noteName": "G#3",
      "velocity": 0.8818897637795275,
      "duration": "96i"
    },
    {
      "time": "15648i",
      "midiNote": 64,
      "noteName": "E4",
      "velocity": 1,
      "duration": "96i"
    },
    {
      "time": "15840i",
      "midiNote": 50,
      "noteName": "D3",
      "velocity": 0.8818897637795275,
      "duration": "192i"
    },
    {
      "time": "15840i",
      "midiNote": 56,
      "noteName": "G#3",
      "velocity": 0.8818897637795275,
      "duration": "192i"
    },
    {
      "time": "15840i",
      "midiNote": 64,
      "noteName": "E4",
      "velocity": 1,
      "duration": "192i"
    },
    {
      "time": "16032i",
      "midiNote": 50,
      "noteName": "D3",
      "velocity": 0.8818897637795275,
      "duration": "96i"
    },
    {
      "time": "16032i",
      "midiNote": 56,
      "noteName": "G#3",
      "velocity": 0.8818897637795275,
      "duration": "96i"
    },
    {
      "time": "16032i",
      "midiNote": 64,
      "noteName": "E4",
      "velocity": 1,
      "duration": "96i"
    },
    {
      "time": "16128i",
      "midiNote": 59,
      "noteName": "B3",
      "velocity": 0.8818897637795275,
      "duration": "96i"
    },
    {
      "time": "16128i",
      "midiNote": 56,
      "noteName": "G#3",
      "velocity": 0.8818897637795275,
      "duration": "96i"
    },
    {
      "time": "16128i",
      "midiNote": 65,
      "noteName": "F4",
      "velocity": 1,
      "duration": "96i"
    },
    {
      "time": "16224i",
      "midiNote": 59,
      "noteName": "B3",
      "velocity": 0.7559055118110236,
      "duration": "96i"
    },
    {
      "time": "16224i",
      "midiNote": 56,
      "noteName": "G#3",
      "velocity": 0.7559055118110236,
      "duration": "96i"
    },
    {
      "time": "16224i",
      "midiNote": 65,
      "noteName": "F4",
      "velocity": 0.8818897637795275,
      "duration": "96i"
    },
    {
      "time": "16320i",
      "midiNote": 59,
      "noteName": "B3",
      "velocity": 0.8188976377952756,
      "duration": "96i"
    },
    {
      "time": "16320i",
      "midiNote": 56,
      "noteName": "G#3",
      "velocity": 0.8188976377952756,
      "duration": "96i"
    },
    {
      "time": "16320i",
      "midiNote": 65,
      "noteName": "F4",
      "velocity": 0.9448818897637795,
      "duration": "96i"
    },
    {
      "time": "16416i",
      "midiNote": 59,
      "noteName": "B3",
      "velocity": 0.8818897637795275,
      "duration": "96i"
    },
    {
      "time": "16416i",
      "midiNote": 56,
      "noteName": "G#3",
      "velocity": 0.8818897637795275,
      "duration": "96i"
    },
    {
      "time": "16416i",
      "midiNote": 65,
      "noteName": "F4",
      "velocity": 1,
      "duration": "96i"
    },
    {
      "time": "16608i",
      "midiNote": 59,
      "noteName": "B3",
      "velocity": 0.8818897637795275,
      "duration": "192i"
    },
    {
      "time": "16608i",
      "midiNote": 56,
      "noteName": "G#3",
      "velocity": 0.8818897637795275,
      "duration": "192i"
    },
    {
      "time": "16608i",
      "midiNote": 65,
      "noteName": "F4",
      "velocity": 1,
      "duration": "192i"
    },
    {
      "time": "16800i",
      "midiNote": 59,
      "noteName": "B3",
      "velocity": 0.8818897637795275,
      "duration": "96i"
    },
    {
      "time": "16800i",
      "midiNote": 56,
      "noteName": "G#3",
      "velocity": 0.8818897637795275,
      "duration": "96i"
    },
    {
      "time": "16800i",
      "midiNote": 65,
      "noteName": "F4",
      "velocity": 1,
      "duration": "96i"
    },
    {
      "time": "16896i",
      "midiNote": 59,
      "noteName": "B3",
      "velocity": 0.8818897637795275,
      "duration": "96i"
    },
    {
      "time": "16896i",
      "midiNote": 56,
      "noteName": "G#3",
      "velocity": 0.8818897637795275,
      "duration": "96i"
    },
    {
      "time": "16896i",
      "midiNote": 65,
      "noteName": "F4",
      "velocity": 1,
      "duration": "96i"
    },
    {
      "time": "16992i",
      "midiNote": 59,
      "noteName": "B3",
      "velocity": 0.7559055118110236,
      "duration": "96i"
    },
    {
      "time": "16992i",
      "midiNote": 56,
      "noteName": "G#3",
      "velocity": 0.7559055118110236,
      "duration": "96i"
    },
    {
      "time": "16992i",
      "midiNote": 65,
      "noteName": "F4",
      "velocity": 0.8818897637795275,
      "duration": "96i"
    },
    {
      "time": "17088i",
      "midiNote": 59,
      "noteName": "B3",
      "velocity": 0.8188976377952756,
      "duration": "96i"
    },
    {
      "time": "17088i",
      "midiNote": 56,
      "noteName": "G#3",
      "velocity": 0.8188976377952756,
      "duration": "96i"
    },
    {
      "time": "17088i",
      "midiNote": 65,
      "noteName": "F4",
      "velocity": 0.9448818897637795,
      "duration": "96i"
    },
    {
      "time": "17184i",
      "midiNote": 59,
      "noteName": "B3",
      "velocity": 0.8818897637795275,
      "duration": "96i"
    },
    {
      "time": "17184i",
      "midiNote": 56,
      "noteName": "G#3",
      "velocity": 0.8818897637795275,
      "duration": "96i"
    },
    {
      "time": "17184i",
      "midiNote": 65,
      "noteName": "F4",
      "velocity": 1,
      "duration": "96i"
    },
    {
      "time": "17376i",
      "midiNote": 59,
      "noteName": "B3",
      "velocity": 0.8818897637795275,
      "duration": "192i"
    },
    {
      "time": "17376i",
      "midiNote": 56,
      "noteName": "G#3",
      "velocity": 0.8818897637795275,
      "duration": "192i"
    },
    {
      "time": "17376i",
      "midiNote": 65,
      "noteName": "F4",
      "velocity": 1,
      "duration": "192i"
    },
    {
      "time": "17568i",
      "midiNote": 59,
      "noteName": "B3",
      "velocity": 0.8818897637795275,
      "duration": "96i"
    },
    {
      "time": "17568i",
      "midiNote": 56,
      "noteName": "G#3",
      "velocity": 0.8818897637795275,
      "duration": "96i"
    },
    {
      "time": "17568i",
      "midiNote": 65,
      "noteName": "F4",
      "velocity": 1,
      "duration": "96i"
    },
    {
      "time": "17664i",
      "midiNote": 66,
      "noteName": "F#4",
      "velocity": 1,
      "duration": "96i"
    },
    {
      "time": "17664i",
      "midiNote": 61,
      "noteName": "C#4",
      "velocity": 0.8818897637795275,
      "duration": "96i"
    },
    {
      "time": "17664i",
      "midiNote": 57,
      "noteName": "A3",
      "velocity": 0.8818897637795275,
      "duration": "96i"
    },
    {
      "time": "17760i",
      "midiNote": 66,
      "noteName": "F#4",
      "velocity": 0.8818897637795275,
      "duration": "96i"
    },
    {
      "time": "17760i",
      "midiNote": 61,
      "noteName": "C#4",
      "velocity": 0.7559055118110236,
      "duration": "96i"
    },
    {
      "time": "17760i",
      "midiNote": 57,
      "noteName": "A3",
      "velocity": 0.7559055118110236,
      "duration": "96i"
    },
    {
      "time": "17856i",
      "midiNote": 66,
      "noteName": "F#4",
      "velocity": 0.9448818897637795,
      "duration": "96i"
    },
    {
      "time": "17856i",
      "midiNote": 61,
      "noteName": "C#4",
      "velocity": 0.8188976377952756,
      "duration": "96i"
    },
    {
      "time": "17856i",
      "midiNote": 57,
      "noteName": "A3",
      "velocity": 0.8188976377952756,
      "duration": "96i"
    },
    {
      "time": "17952i",
      "midiNote": 66,
      "noteName": "F#4",
      "velocity": 1,
      "duration": "96i"
    },
    {
      "time": "17952i",
      "midiNote": 61,
      "noteName": "C#4",
      "velocity": 0.8818897637795275,
      "duration": "96i"
    },
    {
      "time": "17952i",
      "midiNote": 57,
      "noteName": "A3",
      "velocity": 0.8818897637795275,
      "duration": "96i"
    },
    {
      "time": "18144i",
      "midiNote": 66,
      "noteName": "F#4",
      "velocity": 1,
      "duration": "192i"
    },
    {
      "time": "18144i",
      "midiNote": 61,
      "noteName": "C#4",
      "velocity": 0.8818897637795275,
      "duration": "192i"
    },
    {
      "time": "18144i",
      "midiNote": 57,
      "noteName": "A3",
      "velocity": 0.8818897637795275,
      "duration": "192i"
    },
    {
      "time": "18336i",
      "midiNote": 66,
      "noteName": "F#4",
      "velocity": 1,
      "duration": "96i"
    },
    {
      "time": "18336i",
      "midiNote": 61,
      "noteName": "C#4",
      "velocity": 0.8818897637795275,
      "duration": "96i"
    },
    {
      "time": "18336i",
      "midiNote": 57,
      "noteName": "A3",
      "velocity": 0.8818897637795275,
      "duration": "96i"
    },
    {
      "time": "18432i",
      "midiNote": 66,
      "noteName": "F#4",
      "velocity": 1,
      "duration": "96i"
    },
    {
      "time": "18432i",
      "midiNote": 61,
      "noteName": "C#4",
      "velocity": 0.8818897637795275,
      "duration": "96i"
    },
    {
      "time": "18432i",
      "midiNote": 57,
      "noteName": "A3",
      "velocity": 0.8818897637795275,
      "duration": "96i"
    },
    {
      "time": "18528i",
      "midiNote": 66,
      "noteName": "F#4",
      "velocity": 0.8818897637795275,
      "duration": "96i"
    },
    {
      "time": "18528i",
      "midiNote": 61,
      "noteName": "C#4",
      "velocity": 0.7559055118110236,
      "duration": "96i"
    },
    {
      "time": "18528i",
      "midiNote": 57,
      "noteName": "A3",
      "velocity": 0.7559055118110236,
      "duration": "96i"
    },
    {
      "time": "18624i",
      "midiNote": 66,
      "noteName": "F#4",
      "velocity": 0.9448818897637795,
      "duration": "96i"
    },
    {
      "time": "18624i",
      "midiNote": 61,
      "noteName": "C#4",
      "velocity": 0.8188976377952756,
      "duration": "96i"
    },
    {
      "time": "18624i",
      "midiNote": 57,
      "noteName": "A3",
      "velocity": 0.8188976377952756,
      "duration": "96i"
    },
    {
      "time": "18720i",
      "midiNote": 66,
      "noteName": "F#4",
      "velocity": 1,
      "duration": "96i"
    },
    {
      "time": "18720i",
      "midiNote": 61,
      "noteName": "C#4",
      "velocity": 0.8818897637795275,
      "duration": "96i"
    },
    {
      "time": "18720i",
      "midiNote": 57,
      "noteName": "A3",
      "velocity": 0.8818897637795275,
      "duration": "96i"
    },
    {
      "time": "18912i",
      "midiNote": 66,
      "noteName": "F#4",
      "velocity": 1,
      "duration": "192i"
    },
    {
      "time": "18912i",
      "midiNote": 61,
      "noteName": "C#4",
      "velocity": 0.8818897637795275,
      "duration": "192i"
    },
    {
      "time": "18912i",
      "midiNote": 57,
      "noteName": "A3",
      "velocity": 0.8818897637795275,
      "duration": "192i"
    },
    {
      "time": "19104i",
      "midiNote": 66,
      "noteName": "F#4",
      "velocity": 1,
      "duration": "96i"
    },
    {
      "time": "19104i",
      "midiNote": 61,
      "noteName": "C#4",
      "velocity": 0.8818897637795275,
      "duration": "96i"
    },
    {
      "time": "19104i",
      "midiNote": 57,
      "noteName": "A3",
      "velocity": 0.8818897637795275,
      "duration": "96i"
    },
    {
      "time": "19200i",
      "midiNote": 57,
      "noteName": "A3",
      "velocity": 0.8818897637795275,
      "duration": "96i"
    },
    {
      "time": "19200i",
      "midiNote": 62,
      "noteName": "D4",
      "velocity": 0.8818897637795275,
      "duration": "96i"
    },
    {
      "time": "19200i",
      "midiNote": 66,
      "noteName": "F#4",
      "velocity": 1,
      "duration": "96i"
    },
    {
      "time": "19296i",
      "midiNote": 57,
      "noteName": "A3",
      "velocity": 0.7559055118110236,
      "duration": "96i"
    },
    {
      "time": "19296i",
      "midiNote": 62,
      "noteName": "D4",
      "velocity": 0.7559055118110236,
      "duration": "96i"
    },
    {
      "time": "19296i",
      "midiNote": 66,
      "noteName": "F#4",
      "velocity": 0.8818897637795275,
      "duration": "96i"
    },
    {
      "time": "19392i",
      "midiNote": 57,
      "noteName": "A3",
      "velocity": 0.8188976377952756,
      "duration": "96i"
    },
    {
      "time": "19392i",
      "midiNote": 62,
      "noteName": "D4",
      "velocity": 0.8188976377952756,
      "duration": "96i"
    },
    {
      "time": "19392i",
      "midiNote": 66,
      "noteName": "F#4",
      "velocity": 0.9448818897637795,
      "duration": "96i"
    },
    {
      "time": "19488i",
      "midiNote": 57,
      "noteName": "A3",
      "velocity": 0.8818897637795275,
      "duration": "96i"
    },
    {
      "time": "19488i",
      "midiNote": 62,
      "noteName": "D4",
      "velocity": 0.8818897637795275,
      "duration": "96i"
    },
    {
      "time": "19488i",
      "midiNote": 66,
      "noteName": "F#4",
      "velocity": 1,
      "duration": "96i"
    },
    {
      "time": "19680i",
      "midiNote": 57,
      "noteName": "A3",
      "velocity": 0.8818897637795275,
      "duration": "192i"
    },
    {
      "time": "19680i",
      "midiNote": 62,
      "noteName": "D4",
      "velocity": 0.8818897637795275,
      "duration": "192i"
    },
    {
      "time": "19680i",
      "midiNote": 66,
      "noteName": "F#4",
      "velocity": 1,
      "duration": "192i"
    },
    {
      "time": "19872i",
      "midiNote": 57,
      "noteName": "A3",
      "velocity": 0.8818897637795275,
      "duration": "96i"
    },
    {
      "time": "19872i",
      "midiNote": 62,
      "noteName": "D4",
      "velocity": 0.8818897637795275,
      "duration": "96i"
    },
    {
      "time": "19872i",
      "midiNote": 66,
      "noteName": "F#4",
      "velocity": 1,
      "duration": "96i"
    },
    {
      "time": "19968i",
      "midiNote": 57,
      "noteName": "A3",
      "velocity": 0.8818897637795275,
      "duration": "96i"
    },
    {
      "time": "19968i",
      "midiNote": 62,
      "noteName": "D4",
      "velocity": 0.8818897637795275,
      "duration": "96i"
    },
    {
      "time": "19968i",
      "midiNote": 66,
      "noteName": "F#4",
      "velocity": 1,
      "duration": "96i"
    },
    {
      "time": "20064i",
      "midiNote": 57,
      "noteName": "A3",
      "velocity": 0.7559055118110236,
      "duration": "96i"
    },
    {
      "time": "20064i",
      "midiNote": 62,
      "noteName": "D4",
      "velocity": 0.7559055118110236,
      "duration": "96i"
    },
    {
      "time": "20064i",
      "midiNote": 66,
      "noteName": "F#4",
      "velocity": 0.8818897637795275,
      "duration": "96i"
    },
    {
      "time": "20160i",
      "midiNote": 57,
      "noteName": "A3",
      "velocity": 0.8188976377952756,
      "duration": "96i"
    },
    {
      "time": "20160i",
      "midiNote": 62,
      "noteName": "D4",
      "velocity": 0.8188976377952756,
      "duration": "96i"
    },
    {
      "time": "20160i",
      "midiNote": 66,
      "noteName": "F#4",
      "velocity": 0.9448818897637795,
      "duration": "96i"
    },
    {
      "time": "20256i",
      "midiNote": 57,
      "noteName": "A3",
      "velocity": 0.8818897637795275,
      "duration": "96i"
    },
    {
      "time": "20256i",
      "midiNote": 62,
      "noteName": "D4",
      "velocity": 0.8818897637795275,
      "duration": "96i"
    },
    {
      "time": "20256i",
      "midiNote": 66,
      "noteName": "F#4",
      "velocity": 1,
      "duration": "96i"
    },
    {
      "time": "20448i",
      "midiNote": 57,
      "noteName": "A3",
      "velocity": 0.8818897637795275,
      "duration": "192i"
    },
    {
      "time": "20448i",
      "midiNote": 62,
      "noteName": "D4",
      "velocity": 0.8818897637795275,
      "duration": "192i"
    },
    {
      "time": "20448i",
      "midiNote": 66,
      "noteName": "F#4",
      "velocity": 1,
      "duration": "192i"
    },
    {
      "time": "20640i",
      "midiNote": 57,
      "noteName": "A3",
      "velocity": 0.8818897637795275,
      "duration": "96i"
    },
    {
      "time": "20640i",
      "midiNote": 62,
      "noteName": "D4",
      "velocity": 0.8818897637795275,
      "duration": "96i"
    },
    {
      "time": "20640i",
      "midiNote": 66,
      "noteName": "F#4",
      "velocity": 1,
      "duration": "96i"
    },
    {
      "time": "20736i",
      "midiNote": 50,
      "noteName": "D3",
      "velocity": 0.8818897637795275,
      "duration": "96i"
    },
    {
      "time": "20736i",
      "midiNote": 56,
      "noteName": "G#3",
      "velocity": 0.8818897637795275,
      "duration": "96i"
    },
    {
      "time": "20736i",
      "midiNote": 64,
      "noteName": "E4",
      "velocity": 1,
      "duration": "96i"
    },
    {
      "time": "20832i",
      "midiNote": 50,
      "noteName": "D3",
      "velocity": 0.7559055118110236,
      "duration": "96i"
    },
    {
      "time": "20832i",
      "midiNote": 56,
      "noteName": "G#3",
      "velocity": 0.7559055118110236,
      "duration": "96i"
    },
    {
      "time": "20832i",
      "midiNote": 64,
      "noteName": "E4",
      "velocity": 0.8818897637795275,
      "duration": "96i"
    },
    {
      "time": "20928i",
      "midiNote": 50,
      "noteName": "D3",
      "velocity": 0.8188976377952756,
      "duration": "96i"
    },
    {
      "time": "20928i",
      "midiNote": 56,
      "noteName": "G#3",
      "velocity": 0.8188976377952756,
      "duration": "96i"
    },
    {
      "time": "20928i",
      "midiNote": 64,
      "noteName": "E4",
      "velocity": 0.9448818897637795,
      "duration": "96i"
    },
    {
      "time": "21024i",
      "midiNote": 50,
      "noteName": "D3",
      "velocity": 0.8818897637795275,
      "duration": "96i"
    },
    {
      "time": "21024i",
      "midiNote": 56,
      "noteName": "G#3",
      "velocity": 0.8818897637795275,
      "duration": "96i"
    },
    {
      "time": "21024i",
      "midiNote": 64,
      "noteName": "E4",
      "velocity": 1,
      "duration": "96i"
    },
    {
      "time": "21216i",
      "midiNote": 50,
      "noteName": "D3",
      "velocity": 0.8818897637795275,
      "duration": "192i"
    },
    {
      "time": "21216i",
      "midiNote": 56,
      "noteName": "G#3",
      "velocity": 0.8818897637795275,
      "duration": "192i"
    },
    {
      "time": "21216i",
      "midiNote": 64,
      "noteName": "E4",
      "velocity": 1,
      "duration": "192i"
    },
    {
      "time": "21408i",
      "midiNote": 50,
      "noteName": "D3",
      "velocity": 0.8818897637795275,
      "duration": "96i"
    },
    {
      "time": "21408i",
      "midiNote": 56,
      "noteName": "G#3",
      "velocity": 0.8818897637795275,
      "duration": "96i"
    },
    {
      "time": "21408i",
      "midiNote": 64,
      "noteName": "E4",
      "velocity": 1,
      "duration": "96i"
    },
    {
      "time": "21504i",
      "midiNote": 50,
      "noteName": "D3",
      "velocity": 0.8818897637795275,
      "duration": "96i"
    },
    {
      "time": "21504i",
      "midiNote": 56,
      "noteName": "G#3",
      "velocity": 0.8818897637795275,
      "duration": "96i"
    },
    {
      "time": "21504i",
      "midiNote": 64,
      "noteName": "E4",
      "velocity": 1,
      "duration": "96i"
    },
    {
      "time": "21600i",
      "midiNote": 50,
      "noteName": "D3",
      "velocity": 0.7559055118110236,
      "duration": "96i"
    },
    {
      "time": "21600i",
      "midiNote": 56,
      "noteName": "G#3",
      "velocity": 0.7559055118110236,
      "duration": "96i"
    },
    {
      "time": "21600i",
      "midiNote": 64,
      "noteName": "E4",
      "velocity": 0.8818897637795275,
      "duration": "96i"
    },
    {
      "time": "21696i",
      "midiNote": 50,
      "noteName": "D3",
      "velocity": 0.8188976377952756,
      "duration": "96i"
    },
    {
      "time": "21696i",
      "midiNote": 56,
      "noteName": "G#3",
      "velocity": 0.8188976377952756,
      "duration": "96i"
    },
    {
      "time": "21696i",
      "midiNote": 64,
      "noteName": "E4",
      "velocity": 0.9448818897637795,
      "duration": "96i"
    },
    {
      "time": "21792i",
      "midiNote": 50,
      "noteName": "D3",
      "velocity": 0.8818897637795275,
      "duration": "96i"
    },
    {
      "time": "21792i",
      "midiNote": 56,
      "noteName": "G#3",
      "velocity": 0.8818897637795275,
      "duration": "96i"
    },
    {
      "time": "21792i",
      "midiNote": 64,
      "noteName": "E4",
      "velocity": 1,
      "duration": "96i"
    },
    {
      "time": "21984i",
      "midiNote": 50,
      "noteName": "D3",
      "velocity": 0.8818897637795275,
      "duration": "192i"
    },
    {
      "time": "21984i",
      "midiNote": 56,
      "noteName": "G#3",
      "velocity": 0.8818897637795275,
      "duration": "192i"
    },
    {
      "time": "21984i",
      "midiNote": 64,
      "noteName": "E4",
      "velocity": 1,
      "duration": "192i"
    },
    {
      "time": "22176i",
      "midiNote": 50,
      "noteName": "D3",
      "velocity": 0.8818897637795275,
      "duration": "96i"
    },
    {
      "time": "22176i",
      "midiNote": 56,
      "noteName": "G#3",
      "velocity": 0.8818897637795275,
      "duration": "96i"
    },
    {
      "time": "22176i",
      "midiNote": 64,
      "noteName": "E4",
      "velocity": 1,
      "duration": "96i"
    },
    {
      "time": "22272i",
      "midiNote": 59,
      "noteName": "B3",
      "velocity": 0.8818897637795275,
      "duration": "96i"
    },
    {
      "time": "22272i",
      "midiNote": 56,
      "noteName": "G#3",
      "velocity": 0.8818897637795275,
      "duration": "96i"
    },
    {
      "time": "22272i",
      "midiNote": 65,
      "noteName": "F4",
      "velocity": 1,
      "duration": "96i"
    },
    {
      "time": "22368i",
      "midiNote": 59,
      "noteName": "B3",
      "velocity": 0.7559055118110236,
      "duration": "96i"
    },
    {
      "time": "22368i",
      "midiNote": 56,
      "noteName": "G#3",
      "velocity": 0.7559055118110236,
      "duration": "96i"
    },
    {
      "time": "22368i",
      "midiNote": 65,
      "noteName": "F4",
      "velocity": 0.8818897637795275,
      "duration": "96i"
    },
    {
      "time": "22464i",
      "midiNote": 59,
      "noteName": "B3",
      "velocity": 0.8188976377952756,
      "duration": "96i"
    },
    {
      "time": "22464i",
      "midiNote": 56,
      "noteName": "G#3",
      "velocity": 0.8188976377952756,
      "duration": "96i"
    },
    {
      "time": "22464i",
      "midiNote": 65,
      "noteName": "F4",
      "velocity": 0.9448818897637795,
      "duration": "96i"
    },
    {
      "time": "22560i",
      "midiNote": 59,
      "noteName": "B3",
      "velocity": 0.8818897637795275,
      "duration": "96i"
    },
    {
      "time": "22560i",
      "midiNote": 56,
      "noteName": "G#3",
      "velocity": 0.8818897637795275,
      "duration": "96i"
    },
    {
      "time": "22560i",
      "midiNote": 65,
      "noteName": "F4",
      "velocity": 1,
      "duration": "96i"
    },
    {
      "time": "22752i",
      "midiNote": 59,
      "noteName": "B3",
      "velocity": 0.8818897637795275,
      "duration": "192i"
    },
    {
      "time": "22752i",
      "midiNote": 56,
      "noteName": "G#3",
      "velocity": 0.8818897637795275,
      "duration": "192i"
    },
    {
      "time": "22752i",
      "midiNote": 65,
      "noteName": "F4",
      "velocity": 1,
      "duration": "192i"
    },
    {
      "time": "22944i",
      "midiNote": 59,
      "noteName": "B3",
      "velocity": 0.8818897637795275,
      "duration": "96i"
    },
    {
      "time": "22944i",
      "midiNote": 56,
      "noteName": "G#3",
      "velocity": 0.8818897637795275,
      "duration": "96i"
    },
    {
      "time": "22944i",
      "midiNote": 65,
      "noteName": "F4",
      "velocity": 1,
      "duration": "96i"
    },
    {
      "time": "23040i",
      "midiNote": 59,
      "noteName": "B3",
      "velocity": 0.8818897637795275,
      "duration": "96i"
    },
    {
      "time": "23040i",
      "midiNote": 56,
      "noteName": "G#3",
      "velocity": 0.8818897637795275,
      "duration": "96i"
    },
    {
      "time": "23040i",
      "midiNote": 65,
      "noteName": "F4",
      "velocity": 1,
      "duration": "96i"
    },
    {
      "time": "23136i",
      "midiNote": 59,
      "noteName": "B3",
      "velocity": 0.7559055118110236,
      "duration": "96i"
    },
    {
      "time": "23136i",
      "midiNote": 56,
      "noteName": "G#3",
      "velocity": 0.7559055118110236,
      "duration": "96i"
    },
    {
      "time": "23136i",
      "midiNote": 65,
      "noteName": "F4",
      "velocity": 0.8818897637795275,
      "duration": "96i"
    },
    {
      "time": "23232i",
      "midiNote": 59,
      "noteName": "B3",
      "velocity": 0.8188976377952756,
      "duration": "96i"
    },
    {
      "time": "23232i",
      "midiNote": 56,
      "noteName": "G#3",
      "velocity": 0.8188976377952756,
      "duration": "96i"
    },
    {
      "time": "23232i",
      "midiNote": 65,
      "noteName": "F4",
      "velocity": 0.9448818897637795,
      "duration": "96i"
    },
    {
      "time": "23328i",
      "midiNote": 59,
      "noteName": "B3",
      "velocity": 0.8818897637795275,
      "duration": "96i"
    },
    {
      "time": "23328i",
      "midiNote": 56,
      "noteName": "G#3",
      "velocity": 0.8818897637795275,
      "duration": "96i"
    },
    {
      "time": "23328i",
      "midiNote": 65,
      "noteName": "F4",
      "velocity": 1,
      "duration": "96i"
    },
    {
      "time": "23520i",
      "midiNote": 59,
      "noteName": "B3",
      "velocity": 0.8818897637795275,
      "duration": "192i"
    },
    {
      "time": "23520i",
      "midiNote": 56,
      "noteName": "G#3",
      "velocity": 0.8818897637795275,
      "duration": "192i"
    },
    {
      "time": "23520i",
      "midiNote": 65,
      "noteName": "F4",
      "velocity": 1,
      "duration": "192i"
    },
    {
      "time": "23712i",
      "midiNote": 59,
      "noteName": "B3",
      "velocity": 0.8818897637795275,
      "duration": "96i"
    },
    {
      "time": "23712i",
      "midiNote": 56,
      "noteName": "G#3",
      "velocity": 0.8818897637795275,
      "duration": "96i"
    },
    {
      "time": "23712i",
      "midiNote": 65,
      "noteName": "F4",
      "velocity": 1,
      "duration": "96i"
    },
    {
      "time": "23808i",
      "midiNote": 57,
      "noteName": "A3",
      "velocity": 0.8818897637795275,
      "duration": "96i"
    },
    {
      "time": "23808i",
      "midiNote": 61,
      "noteName": "C#4",
      "velocity": 0.8818897637795275,
      "duration": "96i"
    },
    {
      "time": "23808i",
      "midiNote": 66,
      "noteName": "F#4",
      "velocity": 1,
      "duration": "96i"
    },
    {
      "time": "23904i",
      "midiNote": 57,
      "noteName": "A3",
      "velocity": 0.7559055118110236,
      "duration": "96i"
    },
    {
      "time": "23904i",
      "midiNote": 61,
      "noteName": "C#4",
      "velocity": 0.7559055118110236,
      "duration": "96i"
    },
    {
      "time": "23904i",
      "midiNote": 66,
      "noteName": "F#4",
      "velocity": 0.8818897637795275,
      "duration": "96i"
    },
    {
      "time": "24000i",
      "midiNote": 57,
      "noteName": "A3",
      "velocity": 0.8188976377952756,
      "duration": "96i"
    },
    {
      "time": "24000i",
      "midiNote": 61,
      "noteName": "C#4",
      "velocity": 0.8188976377952756,
      "duration": "96i"
    },
    {
      "time": "24000i",
      "midiNote": 66,
      "noteName": "F#4",
      "velocity": 0.9448818897637795,
      "duration": "96i"
    },
    {
      "time": "24096i",
      "midiNote": 57,
      "noteName": "A3",
      "velocity": 0.8818897637795275,
      "duration": "96i"
    },
    {
      "time": "24096i",
      "midiNote": 61,
      "noteName": "C#4",
      "velocity": 0.8818897637795275,
      "duration": "96i"
    },
    {
      "time": "24096i",
      "midiNote": 66,
      "noteName": "F#4",
      "velocity": 1,
      "duration": "96i"
    },
    {
      "time": "24288i",
      "midiNote": 57,
      "noteName": "A3",
      "velocity": 0.8818897637795275,
      "duration": "192i"
    },
    {
      "time": "24288i",
      "midiNote": 61,
      "noteName": "C#4",
      "velocity": 0.8818897637795275,
      "duration": "192i"
    },
    {
      "time": "24288i",
      "midiNote": 66,
      "noteName": "F#4",
      "velocity": 1,
      "duration": "192i"
    },
    {
      "time": "24480i",
      "midiNote": 57,
      "noteName": "A3",
      "velocity": 0.8818897637795275,
      "duration": "96i"
    },
    {
      "time": "24480i",
      "midiNote": 61,
      "noteName": "C#4",
      "velocity": 0.8818897637795275,
      "duration": "96i"
    },
    {
      "time": "24480i",
      "midiNote": 66,
      "noteName": "F#4",
      "velocity": 1,
      "duration": "96i"
    },
    {
      "time": "24576i",
      "midiNote": 57,
      "noteName": "A3",
      "velocity": 0.8818897637795275,
      "duration": "96i"
    },
    {
      "time": "24576i",
      "midiNote": 61,
      "noteName": "C#4",
      "velocity": 0.8818897637795275,
      "duration": "96i"
    },
    {
      "time": "24576i",
      "midiNote": 66,
      "noteName": "F#4",
      "velocity": 1,
      "duration": "96i"
    },
    {
      "time": "24672i",
      "midiNote": 57,
      "noteName": "A3",
      "velocity": 0.7559055118110236,
      "duration": "96i"
    },
    {
      "time": "24672i",
      "midiNote": 61,
      "noteName": "C#4",
      "velocity": 0.7559055118110236,
      "duration": "96i"
    },
    {
      "time": "24672i",
      "midiNote": 66,
      "noteName": "F#4",
      "velocity": 0.8818897637795275,
      "duration": "96i"
    },
    {
      "time": "24768i",
      "midiNote": 57,
      "noteName": "A3",
      "velocity": 0.8188976377952756,
      "duration": "96i"
    },
    {
      "time": "24768i",
      "midiNote": 61,
      "noteName": "C#4",
      "velocity": 0.8188976377952756,
      "duration": "96i"
    },
    {
      "time": "24768i",
      "midiNote": 66,
      "noteName": "F#4",
      "velocity": 0.9448818897637795,
      "duration": "96i"
    },
    {
      "time": "24864i",
      "midiNote": 57,
      "noteName": "A3",
      "velocity": 0.8818897637795275,
      "duration": "96i"
    },
    {
      "time": "24864i",
      "midiNote": 61,
      "noteName": "C#4",
      "velocity": 0.8818897637795275,
      "duration": "96i"
    },
    {
      "time": "24864i",
      "midiNote": 66,
      "noteName": "F#4",
      "velocity": 1,
      "duration": "96i"
    },
    {
      "time": "25056i",
      "midiNote": 57,
      "noteName": "A3",
      "velocity": 0.8818897637795275,
      "duration": "192i"
    },
    {
      "time": "25056i",
      "midiNote": 61,
      "noteName": "C#4",
      "velocity": 0.8818897637795275,
      "duration": "192i"
    },
    {
      "time": "25056i",
      "midiNote": 66,
      "noteName": "F#4",
      "velocity": 1,
      "duration": "192i"
    },
    {
      "time": "25248i",
      "midiNote": 57,
      "noteName": "A3",
      "velocity": 0.8818897637795275,
      "duration": "96i"
    },
    {
      "time": "25248i",
      "midiNote": 61,
      "noteName": "C#4",
      "velocity": 0.8818897637795275,
      "duration": "96i"
    },
    {
      "time": "25248i",
      "midiNote": 66,
      "noteName": "F#4",
      "velocity": 1,
      "duration": "192i"
    },
    {
      "time": "25344i",
      "midiNote": 57,
      "noteName": "A3",
      "velocity": 0.8818897637795275,
      "duration": "96i"
    },
    {
      "time": "25344i",
      "midiNote": 62,
      "noteName": "D4",
      "velocity": 0.8818897637795275,
      "duration": "96i"
    },
    {
      "time": "25344i",
      "midiNote": 66,
      "noteName": "F#4",
      "velocity": 1,
      "duration": "0i"
    },
    {
      "time": "25440i",
      "midiNote": 57,
      "noteName": "A3",
      "velocity": 0.7559055118110236,
      "duration": "96i"
    },
    {
      "time": "25440i",
      "midiNote": 62,
      "noteName": "D4",
      "velocity": 0.7559055118110236,
      "duration": "96i"
    },
    {
      "time": "25440i",
      "midiNote": 66,
      "noteName": "F#4",
      "velocity": 0.8818897637795275,
      "duration": "96i"
    },
    {
      "time": "25536i",
      "midiNote": 57,
      "noteName": "A3",
      "velocity": 0.8188976377952756,
      "duration": "96i"
    },
    {
      "time": "25536i",
      "midiNote": 62,
      "noteName": "D4",
      "velocity": 0.8188976377952756,
      "duration": "96i"
    },
    {
      "time": "25536i",
      "midiNote": 66,
      "noteName": "F#4",
      "velocity": 0.9448818897637795,
      "duration": "96i"
    },
    {
      "time": "25632i",
      "midiNote": 57,
      "noteName": "A3",
      "velocity": 0.8818897637795275,
      "duration": "96i"
    },
    {
      "time": "25632i",
      "midiNote": 62,
      "noteName": "D4",
      "velocity": 0.8818897637795275,
      "duration": "96i"
    },
    {
      "time": "25632i",
      "midiNote": 66,
      "noteName": "F#4",
      "velocity": 1,
      "duration": "96i"
    },
    {
      "time": "25824i",
      "midiNote": 57,
      "noteName": "A3",
      "velocity": 0.8818897637795275,
      "duration": "192i"
    },
    {
      "time": "25824i",
      "midiNote": 62,
      "noteName": "D4",
      "velocity": 0.8818897637795275,
      "duration": "192i"
    },
    {
      "time": "25824i",
      "midiNote": 66,
      "noteName": "F#4",
      "velocity": 1,
      "duration": "192i"
    },
    {
      "time": "26016i",
      "midiNote": 57,
      "noteName": "A3",
      "velocity": 0.8818897637795275,
      "duration": "96i"
    },
    {
      "time": "26016i",
      "midiNote": 62,
      "noteName": "D4",
      "velocity": 0.8818897637795275,
      "duration": "96i"
    },
    {
      "time": "26016i",
      "midiNote": 66,
      "noteName": "F#4",
      "velocity": 1,
      "duration": "96i"
    },
    {
      "time": "26112i",
      "midiNote": 57,
      "noteName": "A3",
      "velocity": 0.8818897637795275,
      "duration": "96i"
    },
    {
      "time": "26112i",
      "midiNote": 62,
      "noteName": "D4",
      "velocity": 0.8818897637795275,
      "duration": "96i"
    },
    {
      "time": "26112i",
      "midiNote": 66,
      "noteName": "F#4",
      "velocity": 1,
      "duration": "96i"
    },
    {
      "time": "26208i",
      "midiNote": 57,
      "noteName": "A3",
      "velocity": 0.7559055118110236,
      "duration": "96i"
    },
    {
      "time": "26208i",
      "midiNote": 62,
      "noteName": "D4",
      "velocity": 0.7559055118110236,
      "duration": "96i"
    },
    {
      "time": "26208i",
      "midiNote": 66,
      "noteName": "F#4",
      "velocity": 0.8818897637795275,
      "duration": "96i"
    },
    {
      "time": "26304i",
      "midiNote": 57,
      "noteName": "A3",
      "velocity": 0.8188976377952756,
      "duration": "96i"
    },
    {
      "time": "26304i",
      "midiNote": 62,
      "noteName": "D4",
      "velocity": 0.8188976377952756,
      "duration": "96i"
    },
    {
      "time": "26304i",
      "midiNote": 66,
      "noteName": "F#4",
      "velocity": 0.9448818897637795,
      "duration": "96i"
    },
    {
      "time": "26400i",
      "midiNote": 57,
      "noteName": "A3",
      "velocity": 0.8818897637795275,
      "duration": "96i"
    },
    {
      "time": "26400i",
      "midiNote": 62,
      "noteName": "D4",
      "velocity": 0.8818897637795275,
      "duration": "96i"
    },
    {
      "time": "26400i",
      "midiNote": 66,
      "noteName": "F#4",
      "velocity": 1,
      "duration": "96i"
    },
    {
      "time": "26592i",
      "midiNote": 57,
      "noteName": "A3",
      "velocity": 0.8818897637795275,
      "duration": "192i"
    },
    {
      "time": "26592i",
      "midiNote": 62,
      "noteName": "D4",
      "velocity": 0.8818897637795275,
      "duration": "192i"
    },
    {
      "time": "26592i",
      "midiNote": 66,
      "noteName": "F#4",
      "velocity": 1,
      "duration": "192i"
    },
    {
      "time": "26784i",
      "midiNote": 57,
      "noteName": "A3",
      "velocity": 0.8818897637795275,
      "duration": "96i"
    },
    {
      "time": "26784i",
      "midiNote": 62,
      "noteName": "D4",
      "velocity": 0.8818897637795275,
      "duration": "96i"
    },
    {
      "time": "26784i",
      "midiNote": 66,
      "noteName": "F#4",
      "velocity": 1,
      "duration": "96i"
    },
    {
      "time": "26880i",
      "midiNote": 50,
      "noteName": "D3",
      "velocity": 0.8818897637795275,
      "duration": "96i"
    },
    {
      "time": "26880i",
      "midiNote": 56,
      "noteName": "G#3",
      "velocity": 0.8818897637795275,
      "duration": "96i"
    },
    {
      "time": "26880i",
      "midiNote": 64,
      "noteName": "E4",
      "velocity": 1,
      "duration": "96i"
    },
    {
      "time": "26976i",
      "midiNote": 50,
      "noteName": "D3",
      "velocity": 0.7559055118110236,
      "duration": "96i"
    },
    {
      "time": "26976i",
      "midiNote": 56,
      "noteName": "G#3",
      "velocity": 0.7559055118110236,
      "duration": "96i"
    },
    {
      "time": "26976i",
      "midiNote": 64,
      "noteName": "E4",
      "velocity": 0.8818897637795275,
      "duration": "96i"
    },
    {
      "time": "27072i",
      "midiNote": 50,
      "noteName": "D3",
      "velocity": 0.8188976377952756,
      "duration": "96i"
    },
    {
      "time": "27072i",
      "midiNote": 56,
      "noteName": "G#3",
      "velocity": 0.8188976377952756,
      "duration": "96i"
    },
    {
      "time": "27072i",
      "midiNote": 64,
      "noteName": "E4",
      "velocity": 0.9448818897637795,
      "duration": "96i"
    },
    {
      "time": "27168i",
      "midiNote": 50,
      "noteName": "D3",
      "velocity": 0.8818897637795275,
      "duration": "96i"
    },
    {
      "time": "27168i",
      "midiNote": 56,
      "noteName": "G#3",
      "velocity": 0.8818897637795275,
      "duration": "96i"
    },
    {
      "time": "27168i",
      "midiNote": 64,
      "noteName": "E4",
      "velocity": 1,
      "duration": "96i"
    },
    {
      "time": "27360i",
      "midiNote": 50,
      "noteName": "D3",
      "velocity": 0.8818897637795275,
      "duration": "192i"
    },
    {
      "time": "27360i",
      "midiNote": 56,
      "noteName": "G#3",
      "velocity": 0.8818897637795275,
      "duration": "192i"
    },
    {
      "time": "27360i",
      "midiNote": 64,
      "noteName": "E4",
      "velocity": 1,
      "duration": "192i"
    },
    {
      "time": "27552i",
      "midiNote": 50,
      "noteName": "D3",
      "velocity": 0.8818897637795275,
      "duration": "96i"
    },
    {
      "time": "27552i",
      "midiNote": 56,
      "noteName": "G#3",
      "velocity": 0.8818897637795275,
      "duration": "96i"
    },
    {
      "time": "27552i",
      "midiNote": 64,
      "noteName": "E4",
      "velocity": 1,
      "duration": "96i"
    },
    {
      "time": "27648i",
      "midiNote": 50,
      "noteName": "D3",
      "velocity": 0.8818897637795275,
      "duration": "96i"
    },
    {
      "time": "27648i",
      "midiNote": 56,
      "noteName": "G#3",
      "velocity": 0.8818897637795275,
      "duration": "96i"
    },
    {
      "time": "27648i",
      "midiNote": 64,
      "noteName": "E4",
      "velocity": 1,
      "duration": "96i"
    },
    {
      "time": "27744i",
      "midiNote": 50,
      "noteName": "D3",
      "velocity": 0.7559055118110236,
      "duration": "96i"
    },
    {
      "time": "27744i",
      "midiNote": 56,
      "noteName": "G#3",
      "velocity": 0.7559055118110236,
      "duration": "96i"
    },
    {
      "time": "27744i",
      "midiNote": 64,
      "noteName": "E4",
      "velocity": 0.8818897637795275,
      "duration": "96i"
    },
    {
      "time": "27840i",
      "midiNote": 50,
      "noteName": "D3",
      "velocity": 0.8188976377952756,
      "duration": "96i"
    },
    {
      "time": "27840i",
      "midiNote": 56,
      "noteName": "G#3",
      "velocity": 0.8188976377952756,
      "duration": "96i"
    },
    {
      "time": "27840i",
      "midiNote": 64,
      "noteName": "E4",
      "velocity": 0.9448818897637795,
      "duration": "96i"
    },
    {
      "time": "27936i",
      "midiNote": 50,
      "noteName": "D3",
      "velocity": 0.8818897637795275,
      "duration": "96i"
    },
    {
      "time": "27936i",
      "midiNote": 56,
      "noteName": "G#3",
      "velocity": 0.8818897637795275,
      "duration": "96i"
    },
    {
      "time": "27936i",
      "midiNote": 64,
      "noteName": "E4",
      "velocity": 1,
      "duration": "96i"
    },
    {
      "time": "28128i",
      "midiNote": 50,
      "noteName": "D3",
      "velocity": 0.8818897637795275,
      "duration": "192i"
    },
    {
      "time": "28128i",
      "midiNote": 56,
      "noteName": "G#3",
      "velocity": 0.8818897637795275,
      "duration": "192i"
    },
    {
      "time": "28128i",
      "midiNote": 64,
      "noteName": "E4",
      "velocity": 1,
      "duration": "192i"
    },
    {
      "time": "28320i",
      "midiNote": 50,
      "noteName": "D3",
      "velocity": 0.8818897637795275,
      "duration": "96i"
    },
    {
      "time": "28320i",
      "midiNote": 56,
      "noteName": "G#3",
      "velocity": 0.8818897637795275,
      "duration": "96i"
    },
    {
      "time": "28320i",
      "midiNote": 64,
      "noteName": "E4",
      "velocity": 1,
      "duration": "96i"
    },
    {
      "time": "28416i",
      "midiNote": 59,
      "noteName": "B3",
      "velocity": 0.8818897637795275,
      "duration": "96i"
    },
    {
      "time": "28416i",
      "midiNote": 56,
      "noteName": "G#3",
      "velocity": 0.8818897637795275,
      "duration": "96i"
    },
    {
      "time": "28416i",
      "midiNote": 65,
      "noteName": "F4",
      "velocity": 1,
      "duration": "96i"
    },
    {
      "time": "28512i",
      "midiNote": 59,
      "noteName": "B3",
      "velocity": 0.7559055118110236,
      "duration": "96i"
    },
    {
      "time": "28512i",
      "midiNote": 56,
      "noteName": "G#3",
      "velocity": 0.7559055118110236,
      "duration": "96i"
    },
    {
      "time": "28512i",
      "midiNote": 65,
      "noteName": "F4",
      "velocity": 0.8818897637795275,
      "duration": "96i"
    },
    {
      "time": "28608i",
      "midiNote": 59,
      "noteName": "B3",
      "velocity": 0.8188976377952756,
      "duration": "96i"
    },
    {
      "time": "28608i",
      "midiNote": 56,
      "noteName": "G#3",
      "velocity": 0.8188976377952756,
      "duration": "96i"
    },
    {
      "time": "28608i",
      "midiNote": 65,
      "noteName": "F4",
      "velocity": 0.9448818897637795,
      "duration": "96i"
    },
    {
      "time": "28704i",
      "midiNote": 59,
      "noteName": "B3",
      "velocity": 0.8818897637795275,
      "duration": "96i"
    },
    {
      "time": "28704i",
      "midiNote": 56,
      "noteName": "G#3",
      "velocity": 0.8818897637795275,
      "duration": "96i"
    },
    {
      "time": "28704i",
      "midiNote": 65,
      "noteName": "F4",
      "velocity": 1,
      "duration": "96i"
    },
    {
      "time": "28896i",
      "midiNote": 59,
      "noteName": "B3",
      "velocity": 0.8818897637795275,
      "duration": "192i"
    },
    {
      "time": "28896i",
      "midiNote": 56,
      "noteName": "G#3",
      "velocity": 0.8818897637795275,
      "duration": "192i"
    },
    {
      "time": "28896i",
      "midiNote": 65,
      "noteName": "F4",
      "velocity": 1,
      "duration": "192i"
    },
    {
      "time": "29088i",
      "midiNote": 59,
      "noteName": "B3",
      "velocity": 0.8818897637795275,
      "duration": "96i"
    },
    {
      "time": "29088i",
      "midiNote": 56,
      "noteName": "G#3",
      "velocity": 0.8818897637795275,
      "duration": "96i"
    },
    {
      "time": "29088i",
      "midiNote": 65,
      "noteName": "F4",
      "velocity": 1,
      "duration": "96i"
    },
    {
      "time": "29184i",
      "midiNote": 59,
      "noteName": "B3",
      "velocity": 0.8818897637795275,
      "duration": "96i"
    },
    {
      "time": "29184i",
      "midiNote": 56,
      "noteName": "G#3",
      "velocity": 0.8818897637795275,
      "duration": "96i"
    },
    {
      "time": "29184i",
      "midiNote": 65,
      "noteName": "F4",
      "velocity": 1,
      "duration": "96i"
    },
    {
      "time": "29280i",
      "midiNote": 59,
      "noteName": "B3",
      "velocity": 0.7559055118110236,
      "duration": "96i"
    },
    {
      "time": "29280i",
      "midiNote": 56,
      "noteName": "G#3",
      "velocity": 0.7559055118110236,
      "duration": "96i"
    },
    {
      "time": "29280i",
      "midiNote": 65,
      "noteName": "F4",
      "velocity": 0.8818897637795275,
      "duration": "96i"
    },
    {
      "time": "29376i",
      "midiNote": 59,
      "noteName": "B3",
      "velocity": 0.8188976377952756,
      "duration": "96i"
    },
    {
      "time": "29376i",
      "midiNote": 56,
      "noteName": "G#3",
      "velocity": 0.8188976377952756,
      "duration": "96i"
    },
    {
      "time": "29376i",
      "midiNote": 65,
      "noteName": "F4",
      "velocity": 0.9448818897637795,
      "duration": "96i"
    },
    {
      "time": "29472i",
      "midiNote": 59,
      "noteName": "B3",
      "velocity": 0.8818897637795275,
      "duration": "96i"
    },
    {
      "time": "29472i",
      "midiNote": 56,
      "noteName": "G#3",
      "velocity": 0.8818897637795275,
      "duration": "96i"
    },
    {
      "time": "29472i",
      "midiNote": 65,
      "noteName": "F4",
      "velocity": 1,
      "duration": "96i"
    },
    {
      "time": "29664i",
      "midiNote": 59,
      "noteName": "B3",
      "velocity": 0.8818897637795275,
      "duration": "192i"
    },
    {
      "time": "29664i",
      "midiNote": 56,
      "noteName": "G#3",
      "velocity": 0.8818897637795275,
      "duration": "192i"
    },
    {
      "time": "29664i",
      "midiNote": 65,
      "noteName": "F4",
      "velocity": 1,
      "duration": "192i"
    },
    {
      "time": "29856i",
      "midiNote": 59,
      "noteName": "B3",
      "velocity": 0.8818897637795275,
      "duration": "96i"
    },
    {
      "time": "29856i",
      "midiNote": 56,
      "noteName": "G#3",
      "velocity": 0.8818897637795275,
      "duration": "96i"
    },
    {
      "time": "29856i",
      "midiNote": 65,
      "noteName": "F4",
      "velocity": 1,
      "duration": "96i"
    },
    {
      "time": "29952i",
      "midiNote": 57,
      "noteName": "A3",
      "velocity": 0.8818897637795275,
      "duration": "96i"
    },
    {
      "time": "29952i",
      "midiNote": 61,
      "noteName": "C#4",
      "velocity": 0.8818897637795275,
      "duration": "96i"
    },
    {
      "time": "29952i",
      "midiNote": 66,
      "noteName": "F#4",
      "velocity": 1,
      "duration": "96i"
    },
    {
      "time": "30048i",
      "midiNote": 57,
      "noteName": "A3",
      "velocity": 0.7559055118110236,
      "duration": "96i"
    },
    {
      "time": "30048i",
      "midiNote": 61,
      "noteName": "C#4",
      "velocity": 0.7559055118110236,
      "duration": "96i"
    },
    {
      "time": "30048i",
      "midiNote": 66,
      "noteName": "F#4",
      "velocity": 0.8818897637795275,
      "duration": "96i"
    },
    {
      "time": "30144i",
      "midiNote": 57,
      "noteName": "A3",
      "velocity": 0.8188976377952756,
      "duration": "96i"
    },
    {
      "time": "30144i",
      "midiNote": 61,
      "noteName": "C#4",
      "velocity": 0.8188976377952756,
      "duration": "96i"
    },
    {
      "time": "30144i",
      "midiNote": 66,
      "noteName": "F#4",
      "velocity": 0.9448818897637795,
      "duration": "96i"
    },
    {
      "time": "30240i",
      "midiNote": 57,
      "noteName": "A3",
      "velocity": 0.8818897637795275,
      "duration": "96i"
    },
    {
      "time": "30240i",
      "midiNote": 61,
      "noteName": "C#4",
      "velocity": 0.8818897637795275,
      "duration": "96i"
    },
    {
      "time": "30240i",
      "midiNote": 66,
      "noteName": "F#4",
      "velocity": 1,
      "duration": "96i"
    },
    {
      "time": "30432i",
      "midiNote": 57,
      "noteName": "A3",
      "velocity": 0.8818897637795275,
      "duration": "192i"
    },
    {
      "time": "30432i",
      "midiNote": 61,
      "noteName": "C#4",
      "velocity": 0.8818897637795275,
      "duration": "192i"
    },
    {
      "time": "30432i",
      "midiNote": 66,
      "noteName": "F#4",
      "velocity": 1,
      "duration": "192i"
    },
    {
      "time": "30624i",
      "midiNote": 57,
      "noteName": "A3",
      "velocity": 0.8818897637795275,
      "duration": "96i"
    },
    {
      "time": "30624i",
      "midiNote": 61,
      "noteName": "C#4",
      "velocity": 0.8818897637795275,
      "duration": "96i"
    },
    {
      "time": "30624i",
      "midiNote": 66,
      "noteName": "F#4",
      "velocity": 1,
      "duration": "96i"
    },
    {
      "time": "30720i",
      "midiNote": 57,
      "noteName": "A3",
      "velocity": 0.8818897637795275,
      "duration": "96i"
    },
    {
      "time": "30720i",
      "midiNote": 61,
      "noteName": "C#4",
      "velocity": 0.8818897637795275,
      "duration": "96i"
    },
    {
      "time": "30720i",
      "midiNote": 66,
      "noteName": "F#4",
      "velocity": 1,
      "duration": "96i"
    },
    {
      "time": "30816i",
      "midiNote": 57,
      "noteName": "A3",
      "velocity": 0.7559055118110236,
      "duration": "96i"
    },
    {
      "time": "30816i",
      "midiNote": 61,
      "noteName": "C#4",
      "velocity": 0.7559055118110236,
      "duration": "96i"
    },
    {
      "time": "30816i",
      "midiNote": 66,
      "noteName": "F#4",
      "velocity": 0.8818897637795275,
      "duration": "96i"
    },
    {
      "time": "30912i",
      "midiNote": 57,
      "noteName": "A3",
      "velocity": 0.8188976377952756,
      "duration": "96i"
    },
    {
      "time": "30912i",
      "midiNote": 61,
      "noteName": "C#4",
      "velocity": 0.8188976377952756,
      "duration": "96i"
    },
    {
      "time": "30912i",
      "midiNote": 66,
      "noteName": "F#4",
      "velocity": 0.9448818897637795,
      "duration": "96i"
    },
    {
      "time": "31008i",
      "midiNote": 57,
      "noteName": "A3",
      "velocity": 0.8818897637795275,
      "duration": "96i"
    },
    {
      "time": "31008i",
      "midiNote": 61,
      "noteName": "C#4",
      "velocity": 0.8818897637795275,
      "duration": "96i"
    },
    {
      "time": "31008i",
      "midiNote": 66,
      "noteName": "F#4",
      "velocity": 1,
      "duration": "96i"
    },
    {
      "time": "31200i",
      "midiNote": 57,
      "noteName": "A3",
      "velocity": 0.8818897637795275,
      "duration": "192i"
    },
    {
      "time": "31200i",
      "midiNote": 61,
      "noteName": "C#4",
      "velocity": 0.8818897637795275,
      "duration": "192i"
    },
    {
      "time": "31200i",
      "midiNote": 66,
      "noteName": "F#4",
      "velocity": 1,
      "duration": "192i"
    },
    {
      "time": "31392i",
      "midiNote": 57,
      "noteName": "A3",
      "velocity": 0.8818897637795275,
      "duration": "96i"
    },
    {
      "time": "31392i",
      "midiNote": 61,
      "noteName": "C#4",
      "velocity": 0.8818897637795275,
      "duration": "96i"
    },
    {
      "time": "31392i",
      "midiNote": 66,
      "noteName": "F#4",
      "velocity": 1,
      "duration": "192i"
    },
    {
      "time": "31488i",
      "midiNote": 57,
      "noteName": "A3",
      "velocity": 0.8818897637795275,
      "duration": "96i"
    },
    {
      "time": "31488i",
      "midiNote": 62,
      "noteName": "D4",
      "velocity": 0.8818897637795275,
      "duration": "96i"
    },
    {
      "time": "31488i",
      "midiNote": 66,
      "noteName": "F#4",
      "velocity": 1,
      "duration": "0i"
    },
    {
      "time": "31584i",
      "midiNote": 57,
      "noteName": "A3",
      "velocity": 0.7559055118110236,
      "duration": "96i"
    },
    {
      "time": "31584i",
      "midiNote": 62,
      "noteName": "D4",
      "velocity": 0.7559055118110236,
      "duration": "96i"
    },
    {
      "time": "31584i",
      "midiNote": 66,
      "noteName": "F#4",
      "velocity": 0.8818897637795275,
      "duration": "96i"
    },
    {
      "time": "31680i",
      "midiNote": 57,
      "noteName": "A3",
      "velocity": 0.8188976377952756,
      "duration": "96i"
    },
    {
      "time": "31680i",
      "midiNote": 62,
      "noteName": "D4",
      "velocity": 0.8188976377952756,
      "duration": "96i"
    },
    {
      "time": "31680i",
      "midiNote": 66,
      "noteName": "F#4",
      "velocity": 0.9448818897637795,
      "duration": "96i"
    },
    {
      "time": "31776i",
      "midiNote": 57,
      "noteName": "A3",
      "velocity": 0.8818897637795275,
      "duration": "96i"
    },
    {
      "time": "31776i",
      "midiNote": 62,
      "noteName": "D4",
      "velocity": 0.8818897637795275,
      "duration": "96i"
    },
    {
      "time": "31776i",
      "midiNote": 66,
      "noteName": "F#4",
      "velocity": 1,
      "duration": "96i"
    },
    {
      "time": "31968i",
      "midiNote": 57,
      "noteName": "A3",
      "velocity": 0.8818897637795275,
      "duration": "192i"
    },
    {
      "time": "31968i",
      "midiNote": 62,
      "noteName": "D4",
      "velocity": 0.8818897637795275,
      "duration": "192i"
    },
    {
      "time": "31968i",
      "midiNote": 66,
      "noteName": "F#4",
      "velocity": 1,
      "duration": "192i"
    },
    {
      "time": "32160i",
      "midiNote": 57,
      "noteName": "A3",
      "velocity": 0.8818897637795275,
      "duration": "96i"
    },
    {
      "time": "32160i",
      "midiNote": 62,
      "noteName": "D4",
      "velocity": 0.8818897637795275,
      "duration": "96i"
    },
    {
      "time": "32160i",
      "midiNote": 66,
      "noteName": "F#4",
      "velocity": 1,
      "duration": "96i"
    },
    {
      "time": "32256i",
      "midiNote": 57,
      "noteName": "A3",
      "velocity": 0.8818897637795275,
      "duration": "96i"
    },
    {
      "time": "32256i",
      "midiNote": 62,
      "noteName": "D4",
      "velocity": 0.8818897637795275,
      "duration": "96i"
    },
    {
      "time": "32256i",
      "midiNote": 66,
      "noteName": "F#4",
      "velocity": 1,
      "duration": "96i"
    },
    {
      "time": "32352i",
      "midiNote": 57,
      "noteName": "A3",
      "velocity": 0.7559055118110236,
      "duration": "96i"
    },
    {
      "time": "32352i",
      "midiNote": 62,
      "noteName": "D4",
      "velocity": 0.7559055118110236,
      "duration": "96i"
    },
    {
      "time": "32352i",
      "midiNote": 66,
      "noteName": "F#4",
      "velocity": 0.8818897637795275,
      "duration": "96i"
    },
    {
      "time": "32448i",
      "midiNote": 57,
      "noteName": "A3",
      "velocity": 0.8188976377952756,
      "duration": "96i"
    },
    {
      "time": "32448i",
      "midiNote": 62,
      "noteName": "D4",
      "velocity": 0.8188976377952756,
      "duration": "96i"
    },
    {
      "time": "32448i",
      "midiNote": 66,
      "noteName": "F#4",
      "velocity": 0.9448818897637795,
      "duration": "96i"
    },
    {
      "time": "32544i",
      "midiNote": 57,
      "noteName": "A3",
      "velocity": 0.8818897637795275,
      "duration": "96i"
    },
    {
      "time": "32544i",
      "midiNote": 62,
      "noteName": "D4",
      "velocity": 0.8818897637795275,
      "duration": "96i"
    },
    {
      "time": "32544i",
      "midiNote": 66,
      "noteName": "F#4",
      "velocity": 1,
      "duration": "96i"
    },
    {
      "time": "32736i",
      "midiNote": 57,
      "noteName": "A3",
      "velocity": 0.8818897637795275,
      "duration": "192i"
    },
    {
      "time": "32736i",
      "midiNote": 62,
      "noteName": "D4",
      "velocity": 0.8818897637795275,
      "duration": "192i"
    },
    {
      "time": "32736i",
      "midiNote": 66,
      "noteName": "F#4",
      "velocity": 1,
      "duration": "192i"
    },
    {
      "time": "32928i",
      "midiNote": 57,
      "noteName": "A3",
      "velocity": 0.8818897637795275,
      "duration": "96i"
    },
    {
      "time": "32928i",
      "midiNote": 62,
      "noteName": "D4",
      "velocity": 0.8818897637795275,
      "duration": "96i"
    },
    {
      "time": "32928i",
      "midiNote": 66,
      "noteName": "F#4",
      "velocity": 1,
      "duration": "96i"
    },
    {
      "time": "33024i",
      "midiNote": 50,
      "noteName": "D3",
      "velocity": 0.8818897637795275,
      "duration": "96i"
    },
    {
      "time": "33024i",
      "midiNote": 56,
      "noteName": "G#3",
      "velocity": 0.8818897637795275,
      "duration": "96i"
    },
    {
      "time": "33024i",
      "midiNote": 64,
      "noteName": "E4",
      "velocity": 1,
      "duration": "96i"
    },
    {
      "time": "33120i",
      "midiNote": 50,
      "noteName": "D3",
      "velocity": 0.7559055118110236,
      "duration": "96i"
    },
    {
      "time": "33120i",
      "midiNote": 56,
      "noteName": "G#3",
      "velocity": 0.7559055118110236,
      "duration": "96i"
    },
    {
      "time": "33120i",
      "midiNote": 64,
      "noteName": "E4",
      "velocity": 0.8818897637795275,
      "duration": "96i"
    },
    {
      "time": "33216i",
      "midiNote": 50,
      "noteName": "D3",
      "velocity": 0.8188976377952756,
      "duration": "96i"
    },
    {
      "time": "33216i",
      "midiNote": 56,
      "noteName": "G#3",
      "velocity": 0.8188976377952756,
      "duration": "96i"
    },
    {
      "time": "33216i",
      "midiNote": 64,
      "noteName": "E4",
      "velocity": 0.9448818897637795,
      "duration": "96i"
    },
    {
      "time": "33312i",
      "midiNote": 50,
      "noteName": "D3",
      "velocity": 0.8818897637795275,
      "duration": "96i"
    },
    {
      "time": "33312i",
      "midiNote": 56,
      "noteName": "G#3",
      "velocity": 0.8818897637795275,
      "duration": "96i"
    },
    {
      "time": "33312i",
      "midiNote": 64,
      "noteName": "E4",
      "velocity": 1,
      "duration": "96i"
    },
    {
      "time": "33504i",
      "midiNote": 50,
      "noteName": "D3",
      "velocity": 0.8818897637795275,
      "duration": "192i"
    },
    {
      "time": "33504i",
      "midiNote": 56,
      "noteName": "G#3",
      "velocity": 0.8818897637795275,
      "duration": "192i"
    },
    {
      "time": "33504i",
      "midiNote": 64,
      "noteName": "E4",
      "velocity": 1,
      "duration": "192i"
    },
    {
      "time": "33696i",
      "midiNote": 50,
      "noteName": "D3",
      "velocity": 0.8818897637795275,
      "duration": "96i"
    },
    {
      "time": "33696i",
      "midiNote": 56,
      "noteName": "G#3",
      "velocity": 0.8818897637795275,
      "duration": "96i"
    },
    {
      "time": "33696i",
      "midiNote": 64,
      "noteName": "E4",
      "velocity": 1,
      "duration": "96i"
    },
    {
      "time": "33792i",
      "midiNote": 50,
      "noteName": "D3",
      "velocity": 0.8818897637795275,
      "duration": "96i"
    },
    {
      "time": "33792i",
      "midiNote": 56,
      "noteName": "G#3",
      "velocity": 0.8818897637795275,
      "duration": "96i"
    },
    {
      "time": "33792i",
      "midiNote": 64,
      "noteName": "E4",
      "velocity": 1,
      "duration": "96i"
    },
    {
      "time": "33888i",
      "midiNote": 50,
      "noteName": "D3",
      "velocity": 0.7559055118110236,
      "duration": "96i"
    },
    {
      "time": "33888i",
      "midiNote": 56,
      "noteName": "G#3",
      "velocity": 0.7559055118110236,
      "duration": "96i"
    },
    {
      "time": "33888i",
      "midiNote": 64,
      "noteName": "E4",
      "velocity": 0.8818897637795275,
      "duration": "96i"
    },
    {
      "time": "33984i",
      "midiNote": 50,
      "noteName": "D3",
      "velocity": 0.8188976377952756,
      "duration": "96i"
    },
    {
      "time": "33984i",
      "midiNote": 56,
      "noteName": "G#3",
      "velocity": 0.8188976377952756,
      "duration": "96i"
    },
    {
      "time": "33984i",
      "midiNote": 64,
      "noteName": "E4",
      "velocity": 0.9448818897637795,
      "duration": "96i"
    },
    {
      "time": "34080i",
      "midiNote": 50,
      "noteName": "D3",
      "velocity": 0.8818897637795275,
      "duration": "96i"
    },
    {
      "time": "34080i",
      "midiNote": 56,
      "noteName": "G#3",
      "velocity": 0.8818897637795275,
      "duration": "96i"
    },
    {
      "time": "34080i",
      "midiNote": 64,
      "noteName": "E4",
      "velocity": 1,
      "duration": "96i"
    },
    {
      "time": "34272i",
      "midiNote": 50,
      "noteName": "D3",
      "velocity": 0.8818897637795275,
      "duration": "192i"
    },
    {
      "time": "34272i",
      "midiNote": 56,
      "noteName": "G#3",
      "velocity": 0.8818897637795275,
      "duration": "192i"
    },
    {
      "time": "34272i",
      "midiNote": 64,
      "noteName": "E4",
      "velocity": 1,
      "duration": "192i"
    },
    {
      "time": "34464i",
      "midiNote": 50,
      "noteName": "D3",
      "velocity": 0.8818897637795275,
      "duration": "96i"
    },
    {
      "time": "34464i",
      "midiNote": 56,
      "noteName": "G#3",
      "velocity": 0.8818897637795275,
      "duration": "96i"
    },
    {
      "time": "34464i",
      "midiNote": 64,
      "noteName": "E4",
      "velocity": 1,
      "duration": "96i"
    },
    {
      "time": "34560i",
      "midiNote": 59,
      "noteName": "B3",
      "velocity": 0.8818897637795275,
      "duration": "96i"
    },
    {
      "time": "34560i",
      "midiNote": 56,
      "noteName": "G#3",
      "velocity": 0.8818897637795275,
      "duration": "96i"
    },
    {
      "time": "34560i",
      "midiNote": 65,
      "noteName": "F4",
      "velocity": 1,
      "duration": "96i"
    },
    {
      "time": "34656i",
      "midiNote": 59,
      "noteName": "B3",
      "velocity": 0.7559055118110236,
      "duration": "96i"
    },
    {
      "time": "34656i",
      "midiNote": 56,
      "noteName": "G#3",
      "velocity": 0.7559055118110236,
      "duration": "96i"
    },
    {
      "time": "34656i",
      "midiNote": 65,
      "noteName": "F4",
      "velocity": 0.8818897637795275,
      "duration": "96i"
    },
    {
      "time": "34752i",
      "midiNote": 59,
      "noteName": "B3",
      "velocity": 0.8188976377952756,
      "duration": "96i"
    },
    {
      "time": "34752i",
      "midiNote": 56,
      "noteName": "G#3",
      "velocity": 0.8188976377952756,
      "duration": "96i"
    },
    {
      "time": "34752i",
      "midiNote": 65,
      "noteName": "F4",
      "velocity": 0.9448818897637795,
      "duration": "96i"
    },
    {
      "time": "34848i",
      "midiNote": 59,
      "noteName": "B3",
      "velocity": 0.8818897637795275,
      "duration": "96i"
    },
    {
      "time": "34848i",
      "midiNote": 56,
      "noteName": "G#3",
      "velocity": 0.8818897637795275,
      "duration": "96i"
    },
    {
      "time": "34848i",
      "midiNote": 65,
      "noteName": "F4",
      "velocity": 1,
      "duration": "96i"
    },
    {
      "time": "35040i",
      "midiNote": 59,
      "noteName": "B3",
      "velocity": 0.8818897637795275,
      "duration": "192i"
    },
    {
      "time": "35040i",
      "midiNote": 56,
      "noteName": "G#3",
      "velocity": 0.8818897637795275,
      "duration": "192i"
    },
    {
      "time": "35040i",
      "midiNote": 65,
      "noteName": "F4",
      "velocity": 1,
      "duration": "192i"
    },
    {
      "time": "35232i",
      "midiNote": 59,
      "noteName": "B3",
      "velocity": 0.8818897637795275,
      "duration": "96i"
    },
    {
      "time": "35232i",
      "midiNote": 56,
      "noteName": "G#3",
      "velocity": 0.8818897637795275,
      "duration": "96i"
    },
    {
      "time": "35232i",
      "midiNote": 65,
      "noteName": "F4",
      "velocity": 1,
      "duration": "96i"
    },
    {
      "time": "35328i",
      "midiNote": 59,
      "noteName": "B3",
      "velocity": 0.8818897637795275,
      "duration": "96i"
    },
    {
      "time": "35328i",
      "midiNote": 56,
      "noteName": "G#3",
      "velocity": 0.8818897637795275,
      "duration": "96i"
    },
    {
      "time": "35328i",
      "midiNote": 65,
      "noteName": "F4",
      "velocity": 1,
      "duration": "96i"
    },
    {
      "time": "35424i",
      "midiNote": 59,
      "noteName": "B3",
      "velocity": 0.7559055118110236,
      "duration": "96i"
    },
    {
      "time": "35424i",
      "midiNote": 56,
      "noteName": "G#3",
      "velocity": 0.7559055118110236,
      "duration": "96i"
    },
    {
      "time": "35424i",
      "midiNote": 65,
      "noteName": "F4",
      "velocity": 0.8818897637795275,
      "duration": "96i"
    },
    {
      "time": "35520i",
      "midiNote": 59,
      "noteName": "B3",
      "velocity": 0.8188976377952756,
      "duration": "96i"
    },
    {
      "time": "35520i",
      "midiNote": 56,
      "noteName": "G#3",
      "velocity": 0.8188976377952756,
      "duration": "96i"
    },
    {
      "time": "35520i",
      "midiNote": 65,
      "noteName": "F4",
      "velocity": 0.9448818897637795,
      "duration": "96i"
    },
    {
      "time": "35616i",
      "midiNote": 59,
      "noteName": "B3",
      "velocity": 0.8818897637795275,
      "duration": "96i"
    },
    {
      "time": "35616i",
      "midiNote": 56,
      "noteName": "G#3",
      "velocity": 0.8818897637795275,
      "duration": "96i"
    },
    {
      "time": "35616i",
      "midiNote": 65,
      "noteName": "F4",
      "velocity": 1,
      "duration": "96i"
    },
    {
      "time": "35808i",
      "midiNote": 59,
      "noteName": "B3",
      "velocity": 0.8818897637795275,
      "duration": "192i"
    },
    {
      "time": "35808i",
      "midiNote": 56,
      "noteName": "G#3",
      "velocity": 0.8818897637795275,
      "duration": "192i"
    },
    {
      "time": "35808i",
      "midiNote": 65,
      "noteName": "F4",
      "velocity": 1,
      "duration": "192i"
    },
    {
      "time": "36000i",
      "midiNote": 59,
      "noteName": "B3",
      "velocity": 0.8818897637795275,
      "duration": "96i"
    },
    {
      "time": "36000i",
      "midiNote": 56,
      "noteName": "G#3",
      "velocity": 0.8818897637795275,
      "duration": "96i"
    },
    {
      "time": "36000i",
      "midiNote": 65,
      "noteName": "F4",
      "velocity": 1,
      "duration": "96i"
    },
    {
      "time": "36096i",
      "midiNote": 57,
      "noteName": "A3",
      "velocity": 0.8818897637795275,
      "duration": "96i"
    },
    {
      "time": "36096i",
      "midiNote": 61,
      "noteName": "C#4",
      "velocity": 0.8818897637795275,
      "duration": "96i"
    },
    {
      "time": "36096i",
      "midiNote": 66,
      "noteName": "F#4",
      "velocity": 1,
      "duration": "96i"
    },
    {
      "time": "36192i",
      "midiNote": 57,
      "noteName": "A3",
      "velocity": 0.7559055118110236,
      "duration": "96i"
    },
    {
      "time": "36192i",
      "midiNote": 61,
      "noteName": "C#4",
      "velocity": 0.7559055118110236,
      "duration": "96i"
    },
    {
      "time": "36192i",
      "midiNote": 66,
      "noteName": "F#4",
      "velocity": 0.8818897637795275,
      "duration": "96i"
    },
    {
      "time": "36288i",
      "midiNote": 57,
      "noteName": "A3",
      "velocity": 0.8188976377952756,
      "duration": "96i"
    },
    {
      "time": "36288i",
      "midiNote": 61,
      "noteName": "C#4",
      "velocity": 0.8188976377952756,
      "duration": "96i"
    },
    {
      "time": "36288i",
      "midiNote": 66,
      "noteName": "F#4",
      "velocity": 0.9448818897637795,
      "duration": "96i"
    },
    {
      "time": "36384i",
      "midiNote": 57,
      "noteName": "A3",
      "velocity": 0.8818897637795275,
      "duration": "96i"
    },
    {
      "time": "36384i",
      "midiNote": 61,
      "noteName": "C#4",
      "velocity": 0.8818897637795275,
      "duration": "96i"
    },
    {
      "time": "36384i",
      "midiNote": 66,
      "noteName": "F#4",
      "velocity": 1,
      "duration": "96i"
    },
    {
      "time": "36576i",
      "midiNote": 57,
      "noteName": "A3",
      "velocity": 0.8818897637795275,
      "duration": "192i"
    },
    {
      "time": "36576i",
      "midiNote": 61,
      "noteName": "C#4",
      "velocity": 0.8818897637795275,
      "duration": "192i"
    },
    {
      "time": "36576i",
      "midiNote": 66,
      "noteName": "F#4",
      "velocity": 1,
      "duration": "192i"
    },
    {
      "time": "36768i",
      "midiNote": 57,
      "noteName": "A3",
      "velocity": 0.8818897637795275,
      "duration": "96i"
    },
    {
      "time": "36768i",
      "midiNote": 61,
      "noteName": "C#4",
      "velocity": 0.8818897637795275,
      "duration": "96i"
    },
    {
      "time": "36768i",
      "midiNote": 66,
      "noteName": "F#4",
      "velocity": 1,
      "duration": "96i"
    },
    {
      "time": "36864i",
      "midiNote": 57,
      "noteName": "A3",
      "velocity": 0.8818897637795275,
      "duration": "96i"
    },
    {
      "time": "36864i",
      "midiNote": 61,
      "noteName": "C#4",
      "velocity": 0.8818897637795275,
      "duration": "96i"
    },
    {
      "time": "36864i",
      "midiNote": 66,
      "noteName": "F#4",
      "velocity": 1,
      "duration": "96i"
    },
    {
      "time": "36960i",
      "midiNote": 57,
      "noteName": "A3",
      "velocity": 0.7559055118110236,
      "duration": "96i"
    },
    {
      "time": "36960i",
      "midiNote": 61,
      "noteName": "C#4",
      "velocity": 0.7559055118110236,
      "duration": "96i"
    },
    {
      "time": "36960i",
      "midiNote": 66,
      "noteName": "F#4",
      "velocity": 0.8818897637795275,
      "duration": "96i"
    },
    {
      "time": "37056i",
      "midiNote": 57,
      "noteName": "A3",
      "velocity": 0.8188976377952756,
      "duration": "96i"
    },
    {
      "time": "37056i",
      "midiNote": 61,
      "noteName": "C#4",
      "velocity": 0.8188976377952756,
      "duration": "96i"
    },
    {
      "time": "37056i",
      "midiNote": 66,
      "noteName": "F#4",
      "velocity": 0.9448818897637795,
      "duration": "96i"
    },
    {
      "time": "37152i",
      "midiNote": 57,
      "noteName": "A3",
      "velocity": 0.8818897637795275,
      "duration": "96i"
    },
    {
      "time": "37152i",
      "midiNote": 61,
      "noteName": "C#4",
      "velocity": 0.8818897637795275,
      "duration": "96i"
    },
    {
      "time": "37152i",
      "midiNote": 66,
      "noteName": "F#4",
      "velocity": 1,
      "duration": "96i"
    },
    {
      "time": "37344i",
      "midiNote": 57,
      "noteName": "A3",
      "velocity": 0.8818897637795275,
      "duration": "192i"
    },
    {
      "time": "37344i",
      "midiNote": 61,
      "noteName": "C#4",
      "velocity": 0.8818897637795275,
      "duration": "192i"
    },
    {
      "time": "37344i",
      "midiNote": 66,
      "noteName": "F#4",
      "velocity": 1,
      "duration": "192i"
    },
    {
      "time": "37536i",
      "midiNote": 57,
      "noteName": "A3",
      "velocity": 0.8818897637795275,
      "duration": "96i"
    },
    {
      "time": "37536i",
      "midiNote": 61,
      "noteName": "C#4",
      "velocity": 0.8818897637795275,
      "duration": "96i"
    },
    {
      "time": "37536i",
      "midiNote": 66,
      "noteName": "F#4",
      "velocity": 1,
      "duration": "192i"
    },
    {
      "time": "37632i",
      "midiNote": 57,
      "noteName": "A3",
      "velocity": 0.8818897637795275,
      "duration": "96i"
    },
    {
      "time": "37632i",
      "midiNote": 62,
      "noteName": "D4",
      "velocity": 0.8818897637795275,
      "duration": "96i"
    },
    {
      "time": "37632i",
      "midiNote": 66,
      "noteName": "F#4",
      "velocity": 1,
      "duration": "0i"
    },
    {
      "time": "37728i",
      "midiNote": 57,
      "noteName": "A3",
      "velocity": 0.7559055118110236,
      "duration": "96i"
    },
    {
      "time": "37728i",
      "midiNote": 62,
      "noteName": "D4",
      "velocity": 0.7559055118110236,
      "duration": "96i"
    },
    {
      "time": "37728i",
      "midiNote": 66,
      "noteName": "F#4",
      "velocity": 0.8818897637795275,
      "duration": "96i"
    },
    {
      "time": "37824i",
      "midiNote": 57,
      "noteName": "A3",
      "velocity": 0.8188976377952756,
      "duration": "96i"
    },
    {
      "time": "37824i",
      "midiNote": 62,
      "noteName": "D4",
      "velocity": 0.8188976377952756,
      "duration": "96i"
    },
    {
      "time": "37824i",
      "midiNote": 66,
      "noteName": "F#4",
      "velocity": 0.9448818897637795,
      "duration": "96i"
    },
    {
      "time": "37920i",
      "midiNote": 57,
      "noteName": "A3",
      "velocity": 0.8818897637795275,
      "duration": "96i"
    },
    {
      "time": "37920i",
      "midiNote": 62,
      "noteName": "D4",
      "velocity": 0.8818897637795275,
      "duration": "96i"
    },
    {
      "time": "37920i",
      "midiNote": 66,
      "noteName": "F#4",
      "velocity": 1,
      "duration": "96i"
    },
    {
      "time": "38112i",
      "midiNote": 57,
      "noteName": "A3",
      "velocity": 0.8818897637795275,
      "duration": "192i"
    },
    {
      "time": "38112i",
      "midiNote": 62,
      "noteName": "D4",
      "velocity": 0.8818897637795275,
      "duration": "192i"
    },
    {
      "time": "38112i",
      "midiNote": 66,
      "noteName": "F#4",
      "velocity": 1,
      "duration": "192i"
    },
    {
      "time": "38304i",
      "midiNote": 57,
      "noteName": "A3",
      "velocity": 0.8818897637795275,
      "duration": "96i"
    },
    {
      "time": "38304i",
      "midiNote": 62,
      "noteName": "D4",
      "velocity": 0.8818897637795275,
      "duration": "96i"
    },
    {
      "time": "38304i",
      "midiNote": 66,
      "noteName": "F#4",
      "velocity": 1,
      "duration": "96i"
    },
    {
      "time": "38400i",
      "midiNote": 57,
      "noteName": "A3",
      "velocity": 0.8818897637795275,
      "duration": "96i"
    },
    {
      "time": "38400i",
      "midiNote": 62,
      "noteName": "D4",
      "velocity": 0.8818897637795275,
      "duration": "96i"
    },
    {
      "time": "38400i",
      "midiNote": 66,
      "noteName": "F#4",
      "velocity": 1,
      "duration": "96i"
    },
    {
      "time": "38496i",
      "midiNote": 57,
      "noteName": "A3",
      "velocity": 0.7559055118110236,
      "duration": "96i"
    },
    {
      "time": "38496i",
      "midiNote": 62,
      "noteName": "D4",
      "velocity": 0.7559055118110236,
      "duration": "96i"
    },
    {
      "time": "38496i",
      "midiNote": 66,
      "noteName": "F#4",
      "velocity": 0.8818897637795275,
      "duration": "96i"
    },
    {
      "time": "38592i",
      "midiNote": 57,
      "noteName": "A3",
      "velocity": 0.8188976377952756,
      "duration": "96i"
    },
    {
      "time": "38592i",
      "midiNote": 62,
      "noteName": "D4",
      "velocity": 0.8188976377952756,
      "duration": "96i"
    },
    {
      "time": "38592i",
      "midiNote": 66,
      "noteName": "F#4",
      "velocity": 0.9448818897637795,
      "duration": "96i"
    },
    {
      "time": "38688i",
      "midiNote": 57,
      "noteName": "A3",
      "velocity": 0.8818897637795275,
      "duration": "96i"
    },
    {
      "time": "38688i",
      "midiNote": 62,
      "noteName": "D4",
      "velocity": 0.8818897637795275,
      "duration": "96i"
    },
    {
      "time": "38688i",
      "midiNote": 66,
      "noteName": "F#4",
      "velocity": 1,
      "duration": "96i"
    },
    {
      "time": "38880i",
      "midiNote": 57,
      "noteName": "A3",
      "velocity": 0.8818897637795275,
      "duration": "192i"
    },
    {
      "time": "38880i",
      "midiNote": 62,
      "noteName": "D4",
      "velocity": 0.8818897637795275,
      "duration": "192i"
    },
    {
      "time": "38880i",
      "midiNote": 66,
      "noteName": "F#4",
      "velocity": 1,
      "duration": "192i"
    },
    {
      "time": "39072i",
      "midiNote": 57,
      "noteName": "A3",
      "velocity": 0.8818897637795275,
      "duration": "96i"
    },
    {
      "time": "39072i",
      "midiNote": 62,
      "noteName": "D4",
      "velocity": 0.8818897637795275,
      "duration": "96i"
    },
    {
      "time": "39072i",
      "midiNote": 66,
      "noteName": "F#4",
      "velocity": 1,
      "duration": "96i"
    },
    {
      "time": "39168i",
      "midiNote": 50,
      "noteName": "D3",
      "velocity": 0.8818897637795275,
      "duration": "96i"
    },
    {
      "time": "39168i",
      "midiNote": 56,
      "noteName": "G#3",
      "velocity": 0.8818897637795275,
      "duration": "96i"
    },
    {
      "time": "39168i",
      "midiNote": 64,
      "noteName": "E4",
      "velocity": 1,
      "duration": "96i"
    },
    {
      "time": "39264i",
      "midiNote": 50,
      "noteName": "D3",
      "velocity": 0.7559055118110236,
      "duration": "96i"
    },
    {
      "time": "39264i",
      "midiNote": 56,
      "noteName": "G#3",
      "velocity": 0.7559055118110236,
      "duration": "96i"
    },
    {
      "time": "39264i",
      "midiNote": 64,
      "noteName": "E4",
      "velocity": 0.8818897637795275,
      "duration": "96i"
    },
    {
      "time": "39360i",
      "midiNote": 50,
      "noteName": "D3",
      "velocity": 0.8188976377952756,
      "duration": "96i"
    },
    {
      "time": "39360i",
      "midiNote": 56,
      "noteName": "G#3",
      "velocity": 0.8188976377952756,
      "duration": "96i"
    },
    {
      "time": "39360i",
      "midiNote": 64,
      "noteName": "E4",
      "velocity": 0.9448818897637795,
      "duration": "96i"
    },
    {
      "time": "39456i",
      "midiNote": 50,
      "noteName": "D3",
      "velocity": 0.8818897637795275,
      "duration": "96i"
    },
    {
      "time": "39456i",
      "midiNote": 56,
      "noteName": "G#3",
      "velocity": 0.8818897637795275,
      "duration": "96i"
    },
    {
      "time": "39456i",
      "midiNote": 64,
      "noteName": "E4",
      "velocity": 1,
      "duration": "96i"
    },
    {
      "time": "39648i",
      "midiNote": 50,
      "noteName": "D3",
      "velocity": 0.8818897637795275,
      "duration": "192i"
    },
    {
      "time": "39648i",
      "midiNote": 56,
      "noteName": "G#3",
      "velocity": 0.8818897637795275,
      "duration": "192i"
    },
    {
      "time": "39648i",
      "midiNote": 64,
      "noteName": "E4",
      "velocity": 1,
      "duration": "192i"
    },
    {
      "time": "39840i",
      "midiNote": 50,
      "noteName": "D3",
      "velocity": 0.8818897637795275,
      "duration": "96i"
    },
    {
      "time": "39840i",
      "midiNote": 56,
      "noteName": "G#3",
      "velocity": 0.8818897637795275,
      "duration": "96i"
    },
    {
      "time": "39840i",
      "midiNote": 64,
      "noteName": "E4",
      "velocity": 1,
      "duration": "96i"
    },
    {
      "time": "39936i",
      "midiNote": 50,
      "noteName": "D3",
      "velocity": 0.8818897637795275,
      "duration": "96i"
    },
    {
      "time": "39936i",
      "midiNote": 56,
      "noteName": "G#3",
      "velocity": 0.8818897637795275,
      "duration": "96i"
    },
    {
      "time": "39936i",
      "midiNote": 64,
      "noteName": "E4",
      "velocity": 1,
      "duration": "96i"
    },
    {
      "time": "40032i",
      "midiNote": 50,
      "noteName": "D3",
      "velocity": 0.7559055118110236,
      "duration": "96i"
    },
    {
      "time": "40032i",
      "midiNote": 56,
      "noteName": "G#3",
      "velocity": 0.7559055118110236,
      "duration": "96i"
    },
    {
      "time": "40032i",
      "midiNote": 64,
      "noteName": "E4",
      "velocity": 0.8818897637795275,
      "duration": "96i"
    },
    {
      "time": "40128i",
      "midiNote": 50,
      "noteName": "D3",
      "velocity": 0.8188976377952756,
      "duration": "96i"
    },
    {
      "time": "40128i",
      "midiNote": 56,
      "noteName": "G#3",
      "velocity": 0.8188976377952756,
      "duration": "96i"
    },
    {
      "time": "40128i",
      "midiNote": 64,
      "noteName": "E4",
      "velocity": 0.9448818897637795,
      "duration": "96i"
    },
    {
      "time": "40224i",
      "midiNote": 50,
      "noteName": "D3",
      "velocity": 0.8818897637795275,
      "duration": "96i"
    },
    {
      "time": "40224i",
      "midiNote": 56,
      "noteName": "G#3",
      "velocity": 0.8818897637795275,
      "duration": "96i"
    },
    {
      "time": "40224i",
      "midiNote": 64,
      "noteName": "E4",
      "velocity": 1,
      "duration": "96i"
    },
    {
      "time": "40416i",
      "midiNote": 50,
      "noteName": "D3",
      "velocity": 0.8818897637795275,
      "duration": "192i"
    },
    {
      "time": "40416i",
      "midiNote": 56,
      "noteName": "G#3",
      "velocity": 0.8818897637795275,
      "duration": "192i"
    },
    {
      "time": "40416i",
      "midiNote": 64,
      "noteName": "E4",
      "velocity": 1,
      "duration": "192i"
    },
    {
      "time": "40608i",
      "midiNote": 50,
      "noteName": "D3",
      "velocity": 0.8818897637795275,
      "duration": "96i"
    },
    {
      "time": "40608i",
      "midiNote": 56,
      "noteName": "G#3",
      "velocity": 0.8818897637795275,
      "duration": "96i"
    },
    {
      "time": "40608i",
      "midiNote": 64,
      "noteName": "E4",
      "velocity": 1,
      "duration": "96i"
    },
    {
      "time": "40704i",
      "midiNote": 59,
      "noteName": "B3",
      "velocity": 0.8818897637795275,
      "duration": "96i"
    },
    {
      "time": "40704i",
      "midiNote": 56,
      "noteName": "G#3",
      "velocity": 0.8818897637795275,
      "duration": "96i"
    },
    {
      "time": "40704i",
      "midiNote": 65,
      "noteName": "F4",
      "velocity": 1,
      "duration": "96i"
    },
    {
      "time": "40800i",
      "midiNote": 59,
      "noteName": "B3",
      "velocity": 0.7559055118110236,
      "duration": "96i"
    },
    {
      "time": "40800i",
      "midiNote": 56,
      "noteName": "G#3",
      "velocity": 0.7559055118110236,
      "duration": "96i"
    },
    {
      "time": "40800i",
      "midiNote": 65,
      "noteName": "F4",
      "velocity": 0.8818897637795275,
      "duration": "96i"
    },
    {
      "time": "40896i",
      "midiNote": 59,
      "noteName": "B3",
      "velocity": 0.8188976377952756,
      "duration": "96i"
    },
    {
      "time": "40896i",
      "midiNote": 56,
      "noteName": "G#3",
      "velocity": 0.8188976377952756,
      "duration": "96i"
    },
    {
      "time": "40896i",
      "midiNote": 65,
      "noteName": "F4",
      "velocity": 0.9448818897637795,
      "duration": "96i"
    },
    {
      "time": "40992i",
      "midiNote": 59,
      "noteName": "B3",
      "velocity": 0.8818897637795275,
      "duration": "96i"
    },
    {
      "time": "40992i",
      "midiNote": 56,
      "noteName": "G#3",
      "velocity": 0.8818897637795275,
      "duration": "96i"
    },
    {
      "time": "40992i",
      "midiNote": 65,
      "noteName": "F4",
      "velocity": 1,
      "duration": "96i"
    },
    {
      "time": "41184i",
      "midiNote": 59,
      "noteName": "B3",
      "velocity": 0.8818897637795275,
      "duration": "192i"
    },
    {
      "time": "41184i",
      "midiNote": 56,
      "noteName": "G#3",
      "velocity": 0.8818897637795275,
      "duration": "192i"
    },
    {
      "time": "41184i",
      "midiNote": 65,
      "noteName": "F4",
      "velocity": 1,
      "duration": "192i"
    },
    {
      "time": "41376i",
      "midiNote": 59,
      "noteName": "B3",
      "velocity": 0.8818897637795275,
      "duration": "96i"
    },
    {
      "time": "41376i",
      "midiNote": 56,
      "noteName": "G#3",
      "velocity": 0.8818897637795275,
      "duration": "96i"
    },
    {
      "time": "41376i",
      "midiNote": 65,
      "noteName": "F4",
      "velocity": 1,
      "duration": "96i"
    },
    {
      "time": "41472i",
      "midiNote": 59,
      "noteName": "B3",
      "velocity": 0.8818897637795275,
      "duration": "96i"
    },
    {
      "time": "41472i",
      "midiNote": 56,
      "noteName": "G#3",
      "velocity": 0.8818897637795275,
      "duration": "96i"
    },
    {
      "time": "41472i",
      "midiNote": 65,
      "noteName": "F4",
      "velocity": 1,
      "duration": "96i"
    },
    {
      "time": "41568i",
      "midiNote": 59,
      "noteName": "B3",
      "velocity": 0.7559055118110236,
      "duration": "96i"
    },
    {
      "time": "41568i",
      "midiNote": 56,
      "noteName": "G#3",
      "velocity": 0.7559055118110236,
      "duration": "96i"
    },
    {
      "time": "41568i",
      "midiNote": 65,
      "noteName": "F4",
      "velocity": 0.8818897637795275,
      "duration": "96i"
    },
    {
      "time": "41664i",
      "midiNote": 59,
      "noteName": "B3",
      "velocity": 0.8188976377952756,
      "duration": "96i"
    },
    {
      "time": "41664i",
      "midiNote": 56,
      "noteName": "G#3",
      "velocity": 0.8188976377952756,
      "duration": "96i"
    },
    {
      "time": "41664i",
      "midiNote": 65,
      "noteName": "F4",
      "velocity": 0.9448818897637795,
      "duration": "96i"
    },
    {
      "time": "41760i",
      "midiNote": 59,
      "noteName": "B3",
      "velocity": 0.8818897637795275,
      "duration": "96i"
    },
    {
      "time": "41760i",
      "midiNote": 56,
      "noteName": "G#3",
      "velocity": 0.8818897637795275,
      "duration": "96i"
    },
    {
      "time": "41760i",
      "midiNote": 65,
      "noteName": "F4",
      "velocity": 1,
      "duration": "96i"
    },
    {
      "time": "41952i",
      "midiNote": 59,
      "noteName": "B3",
      "velocity": 0.8818897637795275,
      "duration": "192i"
    },
    {
      "time": "41952i",
      "midiNote": 56,
      "noteName": "G#3",
      "velocity": 0.8818897637795275,
      "duration": "192i"
    },
    {
      "time": "41952i",
      "midiNote": 65,
      "noteName": "F4",
      "velocity": 1,
      "duration": "192i"
    },
    {
      "time": "42144i",
      "midiNote": 59,
      "noteName": "B3",
      "velocity": 0.8818897637795275,
      "duration": "96i"
    },
    {
      "time": "42144i",
      "midiNote": 56,
      "noteName": "G#3",
      "velocity": 0.8818897637795275,
      "duration": "96i"
    },
    {
      "time": "42144i",
      "midiNote": 65,
      "noteName": "F4",
      "velocity": 1,
      "duration": "96i"
    },
    {
      "time": "42240i",
      "midiNote": 57,
      "noteName": "A3",
      "velocity": 0.8818897637795275,
      "duration": "96i"
    },
    {
      "time": "42240i",
      "midiNote": 61,
      "noteName": "C#4",
      "velocity": 0.8818897637795275,
      "duration": "96i"
    },
    {
      "time": "42240i",
      "midiNote": 66,
      "noteName": "F#4",
      "velocity": 1,
      "duration": "96i"
    },
    {
      "time": "42336i",
      "midiNote": 57,
      "noteName": "A3",
      "velocity": 0.7559055118110236,
      "duration": "96i"
    },
    {
      "time": "42336i",
      "midiNote": 61,
      "noteName": "C#4",
      "velocity": 0.7559055118110236,
      "duration": "96i"
    },
    {
      "time": "42336i",
      "midiNote": 66,
      "noteName": "F#4",
      "velocity": 0.8818897637795275,
      "duration": "96i"
    },
    {
      "time": "42432i",
      "midiNote": 57,
      "noteName": "A3",
      "velocity": 0.8188976377952756,
      "duration": "96i"
    },
    {
      "time": "42432i",
      "midiNote": 61,
      "noteName": "C#4",
      "velocity": 0.8188976377952756,
      "duration": "96i"
    },
    {
      "time": "42432i",
      "midiNote": 66,
      "noteName": "F#4",
      "velocity": 0.9448818897637795,
      "duration": "96i"
    },
    {
      "time": "42528i",
      "midiNote": 57,
      "noteName": "A3",
      "velocity": 0.8818897637795275,
      "duration": "96i"
    },
    {
      "time": "42528i",
      "midiNote": 61,
      "noteName": "C#4",
      "velocity": 0.8818897637795275,
      "duration": "96i"
    },
    {
      "time": "42528i",
      "midiNote": 66,
      "noteName": "F#4",
      "velocity": 1,
      "duration": "96i"
    },
    {
      "time": "42720i",
      "midiNote": 57,
      "noteName": "A3",
      "velocity": 0.8818897637795275,
      "duration": "192i"
    },
    {
      "time": "42720i",
      "midiNote": 61,
      "noteName": "C#4",
      "velocity": 0.8818897637795275,
      "duration": "192i"
    },
    {
      "time": "42720i",
      "midiNote": 66,
      "noteName": "F#4",
      "velocity": 1,
      "duration": "192i"
    },
    {
      "time": "42912i",
      "midiNote": 57,
      "noteName": "A3",
      "velocity": 0.8818897637795275,
      "duration": "96i"
    },
    {
      "time": "42912i",
      "midiNote": 61,
      "noteName": "C#4",
      "velocity": 0.8818897637795275,
      "duration": "96i"
    },
    {
      "time": "42912i",
      "midiNote": 66,
      "noteName": "F#4",
      "velocity": 1,
      "duration": "96i"
    },
    {
      "time": "43008i",
      "midiNote": 57,
      "noteName": "A3",
      "velocity": 0.8818897637795275,
      "duration": "96i"
    },
    {
      "time": "43008i",
      "midiNote": 61,
      "noteName": "C#4",
      "velocity": 0.8818897637795275,
      "duration": "96i"
    },
    {
      "time": "43008i",
      "midiNote": 66,
      "noteName": "F#4",
      "velocity": 1,
      "duration": "96i"
    },
    {
      "time": "43104i",
      "midiNote": 57,
      "noteName": "A3",
      "velocity": 0.7559055118110236,
      "duration": "96i"
    },
    {
      "time": "43104i",
      "midiNote": 61,
      "noteName": "C#4",
      "velocity": 0.7559055118110236,
      "duration": "96i"
    },
    {
      "time": "43104i",
      "midiNote": 66,
      "noteName": "F#4",
      "velocity": 0.8818897637795275,
      "duration": "96i"
    },
    {
      "time": "43200i",
      "midiNote": 57,
      "noteName": "A3",
      "velocity": 0.8188976377952756,
      "duration": "96i"
    },
    {
      "time": "43200i",
      "midiNote": 61,
      "noteName": "C#4",
      "velocity": 0.8188976377952756,
      "duration": "96i"
    },
    {
      "time": "43200i",
      "midiNote": 66,
      "noteName": "F#4",
      "velocity": 0.9448818897637795,
      "duration": "96i"
    },
    {
      "time": "43296i",
      "midiNote": 57,
      "noteName": "A3",
      "velocity": 0.8818897637795275,
      "duration": "96i"
    },
    {
      "time": "43296i",
      "midiNote": 61,
      "noteName": "C#4",
      "velocity": 0.8818897637795275,
      "duration": "96i"
    },
    {
      "time": "43296i",
      "midiNote": 66,
      "noteName": "F#4",
      "velocity": 1,
      "duration": "96i"
    },
    {
      "time": "43488i",
      "midiNote": 57,
      "noteName": "A3",
      "velocity": 0.8818897637795275,
      "duration": "192i"
    },
    {
      "time": "43488i",
      "midiNote": 61,
      "noteName": "C#4",
      "velocity": 0.8818897637795275,
      "duration": "192i"
    },
    {
      "time": "43488i",
      "midiNote": 66,
      "noteName": "F#4",
      "velocity": 1,
      "duration": "192i"
    },
    {
      "time": "43680i",
      "midiNote": 57,
      "noteName": "A3",
      "velocity": 0.8818897637795275,
      "duration": "96i"
    },
    {
      "time": "43680i",
      "midiNote": 61,
      "noteName": "C#4",
      "velocity": 0.8818897637795275,
      "duration": "96i"
    },
    {
      "time": "43680i",
      "midiNote": 66,
      "noteName": "F#4",
      "velocity": 1,
      "duration": "192i"
    },
    {
      "time": "43776i",
      "midiNote": 57,
      "noteName": "A3",
      "velocity": 0.8818897637795275,
      "duration": "96i"
    },
    {
      "time": "43776i",
      "midiNote": 62,
      "noteName": "D4",
      "velocity": 0.8818897637795275,
      "duration": "96i"
    },
    {
      "time": "43776i",
      "midiNote": 66,
      "noteName": "F#4",
      "velocity": 1,
      "duration": "0i"
    },
    {
      "time": "43872i",
      "midiNote": 57,
      "noteName": "A3",
      "velocity": 0.7559055118110236,
      "duration": "96i"
    },
    {
      "time": "43872i",
      "midiNote": 62,
      "noteName": "D4",
      "velocity": 0.7559055118110236,
      "duration": "96i"
    },
    {
      "time": "43872i",
      "midiNote": 66,
      "noteName": "F#4",
      "velocity": 0.8818897637795275,
      "duration": "96i"
    },
    {
      "time": "43968i",
      "midiNote": 57,
      "noteName": "A3",
      "velocity": 0.8188976377952756,
      "duration": "96i"
    },
    {
      "time": "43968i",
      "midiNote": 62,
      "noteName": "D4",
      "velocity": 0.8188976377952756,
      "duration": "96i"
    },
    {
      "time": "43968i",
      "midiNote": 66,
      "noteName": "F#4",
      "velocity": 0.9448818897637795,
      "duration": "96i"
    },
    {
      "time": "44064i",
      "midiNote": 57,
      "noteName": "A3",
      "velocity": 0.8818897637795275,
      "duration": "96i"
    },
    {
      "time": "44064i",
      "midiNote": 62,
      "noteName": "D4",
      "velocity": 0.8818897637795275,
      "duration": "96i"
    },
    {
      "time": "44064i",
      "midiNote": 66,
      "noteName": "F#4",
      "velocity": 1,
      "duration": "96i"
    },
    {
      "time": "44256i",
      "midiNote": 57,
      "noteName": "A3",
      "velocity": 0.8818897637795275,
      "duration": "192i"
    },
    {
      "time": "44256i",
      "midiNote": 62,
      "noteName": "D4",
      "velocity": 0.8818897637795275,
      "duration": "192i"
    },
    {
      "time": "44256i",
      "midiNote": 66,
      "noteName": "F#4",
      "velocity": 1,
      "duration": "192i"
    },
    {
      "time": "44448i",
      "midiNote": 57,
      "noteName": "A3",
      "velocity": 0.8818897637795275,
      "duration": "96i"
    },
    {
      "time": "44448i",
      "midiNote": 62,
      "noteName": "D4",
      "velocity": 0.8818897637795275,
      "duration": "96i"
    },
    {
      "time": "44448i",
      "midiNote": 66,
      "noteName": "F#4",
      "velocity": 1,
      "duration": "96i"
    },
    {
      "time": "44544i",
      "midiNote": 57,
      "noteName": "A3",
      "velocity": 0.8818897637795275,
      "duration": "96i"
    },
    {
      "time": "44544i",
      "midiNote": 62,
      "noteName": "D4",
      "velocity": 0.8818897637795275,
      "duration": "96i"
    },
    {
      "time": "44544i",
      "midiNote": 66,
      "noteName": "F#4",
      "velocity": 1,
      "duration": "96i"
    },
    {
      "time": "44640i",
      "midiNote": 57,
      "noteName": "A3",
      "velocity": 0.7559055118110236,
      "duration": "96i"
    },
    {
      "time": "44640i",
      "midiNote": 62,
      "noteName": "D4",
      "velocity": 0.7559055118110236,
      "duration": "96i"
    },
    {
      "time": "44640i",
      "midiNote": 66,
      "noteName": "F#4",
      "velocity": 0.8818897637795275,
      "duration": "96i"
    },
    {
      "time": "44736i",
      "midiNote": 57,
      "noteName": "A3",
      "velocity": 0.8188976377952756,
      "duration": "96i"
    },
    {
      "time": "44736i",
      "midiNote": 62,
      "noteName": "D4",
      "velocity": 0.8188976377952756,
      "duration": "96i"
    },
    {
      "time": "44736i",
      "midiNote": 66,
      "noteName": "F#4",
      "velocity": 0.9448818897637795,
      "duration": "96i"
    },
    {
      "time": "44832i",
      "midiNote": 57,
      "noteName": "A3",
      "velocity": 0.8818897637795275,
      "duration": "96i"
    },
    {
      "time": "44832i",
      "midiNote": 62,
      "noteName": "D4",
      "velocity": 0.8818897637795275,
      "duration": "96i"
    },
    {
      "time": "44832i",
      "midiNote": 66,
      "noteName": "F#4",
      "velocity": 1,
      "duration": "96i"
    },
    {
      "time": "45024i",
      "midiNote": 57,
      "noteName": "A3",
      "velocity": 0.8818897637795275,
      "duration": "192i"
    },
    {
      "time": "45024i",
      "midiNote": 62,
      "noteName": "D4",
      "velocity": 0.8818897637795275,
      "duration": "192i"
    },
    {
      "time": "45024i",
      "midiNote": 66,
      "noteName": "F#4",
      "velocity": 1,
      "duration": "192i"
    },
    {
      "time": "45216i",
      "midiNote": 57,
      "noteName": "A3",
      "velocity": 0.8818897637795275,
      "duration": "96i"
    },
    {
      "time": "45216i",
      "midiNote": 62,
      "noteName": "D4",
      "velocity": 0.8818897637795275,
      "duration": "96i"
    },
    {
      "time": "45216i",
      "midiNote": 66,
      "noteName": "F#4",
      "velocity": 1,
      "duration": "96i"
    },
    {
      "time": "45312i",
      "midiNote": 50,
      "noteName": "D3",
      "velocity": 0.8818897637795275,
      "duration": "96i"
    },
    {
      "time": "45312i",
      "midiNote": 56,
      "noteName": "G#3",
      "velocity": 0.8818897637795275,
      "duration": "96i"
    },
    {
      "time": "45312i",
      "midiNote": 64,
      "noteName": "E4",
      "velocity": 1,
      "duration": "96i"
    },
    {
      "time": "45408i",
      "midiNote": 50,
      "noteName": "D3",
      "velocity": 0.7559055118110236,
      "duration": "96i"
    },
    {
      "time": "45408i",
      "midiNote": 56,
      "noteName": "G#3",
      "velocity": 0.7559055118110236,
      "duration": "96i"
    },
    {
      "time": "45408i",
      "midiNote": 64,
      "noteName": "E4",
      "velocity": 0.8818897637795275,
      "duration": "96i"
    },
    {
      "time": "45504i",
      "midiNote": 50,
      "noteName": "D3",
      "velocity": 0.8188976377952756,
      "duration": "96i"
    },
    {
      "time": "45504i",
      "midiNote": 56,
      "noteName": "G#3",
      "velocity": 0.8188976377952756,
      "duration": "96i"
    },
    {
      "time": "45504i",
      "midiNote": 64,
      "noteName": "E4",
      "velocity": 0.9448818897637795,
      "duration": "96i"
    },
    {
      "time": "45600i",
      "midiNote": 50,
      "noteName": "D3",
      "velocity": 0.8818897637795275,
      "duration": "96i"
    },
    {
      "time": "45600i",
      "midiNote": 56,
      "noteName": "G#3",
      "velocity": 0.8818897637795275,
      "duration": "96i"
    },
    {
      "time": "45600i",
      "midiNote": 64,
      "noteName": "E4",
      "velocity": 1,
      "duration": "96i"
    },
    {
      "time": "45792i",
      "midiNote": 50,
      "noteName": "D3",
      "velocity": 0.8818897637795275,
      "duration": "192i"
    },
    {
      "time": "45792i",
      "midiNote": 56,
      "noteName": "G#3",
      "velocity": 0.8818897637795275,
      "duration": "192i"
    },
    {
      "time": "45792i",
      "midiNote": 64,
      "noteName": "E4",
      "velocity": 1,
      "duration": "192i"
    },
    {
      "time": "45984i",
      "midiNote": 50,
      "noteName": "D3",
      "velocity": 0.8818897637795275,
      "duration": "96i"
    },
    {
      "time": "45984i",
      "midiNote": 56,
      "noteName": "G#3",
      "velocity": 0.8818897637795275,
      "duration": "96i"
    },
    {
      "time": "45984i",
      "midiNote": 64,
      "noteName": "E4",
      "velocity": 1,
      "duration": "96i"
    },
    {
      "time": "46080i",
      "midiNote": 50,
      "noteName": "D3",
      "velocity": 0.8818897637795275,
      "duration": "96i"
    },
    {
      "time": "46080i",
      "midiNote": 56,
      "noteName": "G#3",
      "velocity": 0.8818897637795275,
      "duration": "96i"
    },
    {
      "time": "46080i",
      "midiNote": 64,
      "noteName": "E4",
      "velocity": 1,
      "duration": "96i"
    },
    {
      "time": "46176i",
      "midiNote": 50,
      "noteName": "D3",
      "velocity": 0.7559055118110236,
      "duration": "96i"
    },
    {
      "time": "46176i",
      "midiNote": 56,
      "noteName": "G#3",
      "velocity": 0.7559055118110236,
      "duration": "96i"
    },
    {
      "time": "46176i",
      "midiNote": 64,
      "noteName": "E4",
      "velocity": 0.8818897637795275,
      "duration": "96i"
    },
    {
      "time": "46272i",
      "midiNote": 50,
      "noteName": "D3",
      "velocity": 0.8188976377952756,
      "duration": "96i"
    },
    {
      "time": "46272i",
      "midiNote": 56,
      "noteName": "G#3",
      "velocity": 0.8188976377952756,
      "duration": "96i"
    },
    {
      "time": "46272i",
      "midiNote": 64,
      "noteName": "E4",
      "velocity": 0.9448818897637795,
      "duration": "96i"
    },
    {
      "time": "46368i",
      "midiNote": 50,
      "noteName": "D3",
      "velocity": 0.8818897637795275,
      "duration": "96i"
    },
    {
      "time": "46368i",
      "midiNote": 56,
      "noteName": "G#3",
      "velocity": 0.8818897637795275,
      "duration": "96i"
    },
    {
      "time": "46368i",
      "midiNote": 64,
      "noteName": "E4",
      "velocity": 1,
      "duration": "96i"
    },
    {
      "time": "46560i",
      "midiNote": 50,
      "noteName": "D3",
      "velocity": 0.8818897637795275,
      "duration": "192i"
    },
    {
      "time": "46560i",
      "midiNote": 56,
      "noteName": "G#3",
      "velocity": 0.8818897637795275,
      "duration": "192i"
    },
    {
      "time": "46560i",
      "midiNote": 64,
      "noteName": "E4",
      "velocity": 1,
      "duration": "192i"
    },
    {
      "time": "46752i",
      "midiNote": 50,
      "noteName": "D3",
      "velocity": 0.8818897637795275,
      "duration": "96i"
    },
    {
      "time": "46752i",
      "midiNote": 56,
      "noteName": "G#3",
      "velocity": 0.8818897637795275,
      "duration": "96i"
    },
    {
      "time": "46752i",
      "midiNote": 64,
      "noteName": "E4",
      "velocity": 1,
      "duration": "96i"
    },
    {
      "time": "46848i",
      "midiNote": 59,
      "noteName": "B3",
      "velocity": 0.8818897637795275,
      "duration": "96i"
    },
    {
      "time": "46848i",
      "midiNote": 56,
      "noteName": "G#3",
      "velocity": 0.8818897637795275,
      "duration": "96i"
    },
    {
      "time": "46848i",
      "midiNote": 65,
      "noteName": "F4",
      "velocity": 1,
      "duration": "96i"
    },
    {
      "time": "46944i",
      "midiNote": 59,
      "noteName": "B3",
      "velocity": 0.7559055118110236,
      "duration": "96i"
    },
    {
      "time": "46944i",
      "midiNote": 56,
      "noteName": "G#3",
      "velocity": 0.7559055118110236,
      "duration": "96i"
    },
    {
      "time": "46944i",
      "midiNote": 65,
      "noteName": "F4",
      "velocity": 0.8818897637795275,
      "duration": "96i"
    },
    {
      "time": "47040i",
      "midiNote": 59,
      "noteName": "B3",
      "velocity": 0.8188976377952756,
      "duration": "96i"
    },
    {
      "time": "47040i",
      "midiNote": 56,
      "noteName": "G#3",
      "velocity": 0.8188976377952756,
      "duration": "96i"
    },
    {
      "time": "47040i",
      "midiNote": 65,
      "noteName": "F4",
      "velocity": 0.9448818897637795,
      "duration": "96i"
    },
    {
      "time": "47136i",
      "midiNote": 59,
      "noteName": "B3",
      "velocity": 0.8818897637795275,
      "duration": "96i"
    },
    {
      "time": "47136i",
      "midiNote": 56,
      "noteName": "G#3",
      "velocity": 0.8818897637795275,
      "duration": "96i"
    },
    {
      "time": "47136i",
      "midiNote": 65,
      "noteName": "F4",
      "velocity": 1,
      "duration": "96i"
    },
    {
      "time": "47328i",
      "midiNote": 59,
      "noteName": "B3",
      "velocity": 0.8818897637795275,
      "duration": "192i"
    },
    {
      "time": "47328i",
      "midiNote": 56,
      "noteName": "G#3",
      "velocity": 0.8818897637795275,
      "duration": "192i"
    },
    {
      "time": "47328i",
      "midiNote": 65,
      "noteName": "F4",
      "velocity": 1,
      "duration": "192i"
    },
    {
      "time": "47520i",
      "midiNote": 59,
      "noteName": "B3",
      "velocity": 0.8818897637795275,
      "duration": "96i"
    },
    {
      "time": "47520i",
      "midiNote": 56,
      "noteName": "G#3",
      "velocity": 0.8818897637795275,
      "duration": "96i"
    },
    {
      "time": "47520i",
      "midiNote": 65,
      "noteName": "F4",
      "velocity": 1,
      "duration": "96i"
    },
    {
      "time": "47616i",
      "midiNote": 59,
      "noteName": "B3",
      "velocity": 0.8818897637795275,
      "duration": "96i"
    },
    {
      "time": "47616i",
      "midiNote": 56,
      "noteName": "G#3",
      "velocity": 0.8818897637795275,
      "duration": "96i"
    },
    {
      "time": "47616i",
      "midiNote": 65,
      "noteName": "F4",
      "velocity": 1,
      "duration": "96i"
    },
    {
      "time": "47712i",
      "midiNote": 59,
      "noteName": "B3",
      "velocity": 0.7559055118110236,
      "duration": "96i"
    },
    {
      "time": "47712i",
      "midiNote": 56,
      "noteName": "G#3",
      "velocity": 0.7559055118110236,
      "duration": "96i"
    },
    {
      "time": "47712i",
      "midiNote": 65,
      "noteName": "F4",
      "velocity": 0.8818897637795275,
      "duration": "96i"
    },
    {
      "time": "47808i",
      "midiNote": 59,
      "noteName": "B3",
      "velocity": 0.8188976377952756,
      "duration": "96i"
    },
    {
      "time": "47808i",
      "midiNote": 56,
      "noteName": "G#3",
      "velocity": 0.8188976377952756,
      "duration": "96i"
    },
    {
      "time": "47808i",
      "midiNote": 65,
      "noteName": "F4",
      "velocity": 0.9448818897637795,
      "duration": "96i"
    },
    {
      "time": "47904i",
      "midiNote": 59,
      "noteName": "B3",
      "velocity": 0.8818897637795275,
      "duration": "96i"
    },
    {
      "time": "47904i",
      "midiNote": 56,
      "noteName": "G#3",
      "velocity": 0.8818897637795275,
      "duration": "96i"
    },
    {
      "time": "47904i",
      "midiNote": 65,
      "noteName": "F4",
      "velocity": 1,
      "duration": "96i"
    },
    {
      "time": "48096i",
      "midiNote": 59,
      "noteName": "B3",
      "velocity": 0.8818897637795275,
      "duration": "192i"
    },
    {
      "time": "48096i",
      "midiNote": 56,
      "noteName": "G#3",
      "velocity": 0.8818897637795275,
      "duration": "192i"
    },
    {
      "time": "48096i",
      "midiNote": 65,
      "noteName": "F4",
      "velocity": 1,
      "duration": "192i"
    },
    {
      "time": "48288i",
      "midiNote": 59,
      "noteName": "B3",
      "velocity": 0.8818897637795275,
      "duration": "96i"
    },
    {
      "time": "48288i",
      "midiNote": 56,
      "noteName": "G#3",
      "velocity": 0.8818897637795275,
      "duration": "96i"
    },
    {
      "time": "48288i",
      "midiNote": 65,
      "noteName": "F4",
      "velocity": 1,
      "duration": "96i"
    },
    {
      "time": "48384i",
      "midiNote": 57,
      "noteName": "A3",
      "velocity": 0.8818897637795275,
      "duration": "96i"
    },
    {
      "time": "48384i",
      "midiNote": 61,
      "noteName": "C#4",
      "velocity": 0.8818897637795275,
      "duration": "96i"
    },
    {
      "time": "48384i",
      "midiNote": 66,
      "noteName": "F#4",
      "velocity": 1,
      "duration": "96i"
    },
    {
      "time": "48480i",
      "midiNote": 57,
      "noteName": "A3",
      "velocity": 0.7559055118110236,
      "duration": "96i"
    },
    {
      "time": "48480i",
      "midiNote": 61,
      "noteName": "C#4",
      "velocity": 0.7559055118110236,
      "duration": "96i"
    },
    {
      "time": "48480i",
      "midiNote": 66,
      "noteName": "F#4",
      "velocity": 0.8818897637795275,
      "duration": "96i"
    },
    {
      "time": "48576i",
      "midiNote": 57,
      "noteName": "A3",
      "velocity": 0.8188976377952756,
      "duration": "96i"
    },
    {
      "time": "48576i",
      "midiNote": 61,
      "noteName": "C#4",
      "velocity": 0.8188976377952756,
      "duration": "96i"
    },
    {
      "time": "48576i",
      "midiNote": 66,
      "noteName": "F#4",
      "velocity": 0.9448818897637795,
      "duration": "96i"
    },
    {
      "time": "48672i",
      "midiNote": 57,
      "noteName": "A3",
      "velocity": 0.8818897637795275,
      "duration": "96i"
    },
    {
      "time": "48672i",
      "midiNote": 61,
      "noteName": "C#4",
      "velocity": 0.8818897637795275,
      "duration": "96i"
    },
    {
      "time": "48672i",
      "midiNote": 66,
      "noteName": "F#4",
      "velocity": 1,
      "duration": "96i"
    },
    {
      "time": "48864i",
      "midiNote": 57,
      "noteName": "A3",
      "velocity": 0.8818897637795275,
      "duration": "192i"
    },
    {
      "time": "48864i",
      "midiNote": 61,
      "noteName": "C#4",
      "velocity": 0.8818897637795275,
      "duration": "192i"
    },
    {
      "time": "48864i",
      "midiNote": 66,
      "noteName": "F#4",
      "velocity": 1,
      "duration": "192i"
    },
    {
      "time": "49056i",
      "midiNote": 57,
      "noteName": "A3",
      "velocity": 0.8818897637795275,
      "duration": "96i"
    },
    {
      "time": "49056i",
      "midiNote": 61,
      "noteName": "C#4",
      "velocity": 0.8818897637795275,
      "duration": "96i"
    },
    {
      "time": "49056i",
      "midiNote": 66,
      "noteName": "F#4",
      "velocity": 1,
      "duration": "96i"
    },
    {
      "time": "49152i",
      "midiNote": 57,
      "noteName": "A3",
      "velocity": 0.8818897637795275,
      "duration": "96i"
    },
    {
      "time": "49152i",
      "midiNote": 61,
      "noteName": "C#4",
      "velocity": 0.8818897637795275,
      "duration": "96i"
    },
    {
      "time": "49152i",
      "midiNote": 66,
      "noteName": "F#4",
      "velocity": 1,
      "duration": "96i"
    },
    {
      "time": "49248i",
      "midiNote": 57,
      "noteName": "A3",
      "velocity": 0.7559055118110236,
      "duration": "96i"
    },
    {
      "time": "49248i",
      "midiNote": 61,
      "noteName": "C#4",
      "velocity": 0.7559055118110236,
      "duration": "96i"
    },
    {
      "time": "49248i",
      "midiNote": 66,
      "noteName": "F#4",
      "velocity": 0.8818897637795275,
      "duration": "96i"
    },
    {
      "time": "49344i",
      "midiNote": 57,
      "noteName": "A3",
      "velocity": 0.8188976377952756,
      "duration": "96i"
    },
    {
      "time": "49344i",
      "midiNote": 61,
      "noteName": "C#4",
      "velocity": 0.8188976377952756,
      "duration": "96i"
    },
    {
      "time": "49344i",
      "midiNote": 66,
      "noteName": "F#4",
      "velocity": 0.9448818897637795,
      "duration": "96i"
    },
    {
      "time": "49440i",
      "midiNote": 57,
      "noteName": "A3",
      "velocity": 0.8818897637795275,
      "duration": "96i"
    },
    {
      "time": "49440i",
      "midiNote": 61,
      "noteName": "C#4",
      "velocity": 0.8818897637795275,
      "duration": "96i"
    },
    {
      "time": "49440i",
      "midiNote": 66,
      "noteName": "F#4",
      "velocity": 1,
      "duration": "96i"
    },
    {
      "time": "49632i",
      "midiNote": 57,
      "noteName": "A3",
      "velocity": 0.8818897637795275,
      "duration": "192i"
    },
    {
      "time": "49632i",
      "midiNote": 61,
      "noteName": "C#4",
      "velocity": 0.8818897637795275,
      "duration": "192i"
    },
    {
      "time": "49632i",
      "midiNote": 66,
      "noteName": "F#4",
      "velocity": 1,
      "duration": "192i"
    },
    {
      "time": "49824i",
      "midiNote": 57,
      "noteName": "A3",
      "velocity": 0.8818897637795275,
      "duration": "96i"
    },
    {
      "time": "49824i",
      "midiNote": 61,
      "noteName": "C#4",
      "velocity": 0.8818897637795275,
      "duration": "96i"
    },
    {
      "time": "49824i",
      "midiNote": 66,
      "noteName": "F#4",
      "velocity": 1,
      "duration": "192i"
    },
    {
      "time": "49920i",
      "midiNote": 57,
      "noteName": "A3",
      "velocity": 0.8818897637795275,
      "duration": "96i"
    },
    {
      "time": "49920i",
      "midiNote": 62,
      "noteName": "D4",
      "velocity": 0.8818897637795275,
      "duration": "96i"
    },
    {
      "time": "49920i",
      "midiNote": 66,
      "noteName": "F#4",
      "velocity": 1,
      "duration": "0i"
    },
    {
      "time": "50016i",
      "midiNote": 57,
      "noteName": "A3",
      "velocity": 0.7559055118110236,
      "duration": "96i"
    },
    {
      "time": "50016i",
      "midiNote": 62,
      "noteName": "D4",
      "velocity": 0.7559055118110236,
      "duration": "96i"
    },
    {
      "time": "50016i",
      "midiNote": 66,
      "noteName": "F#4",
      "velocity": 0.8818897637795275,
      "duration": "96i"
    },
    {
      "time": "50112i",
      "midiNote": 57,
      "noteName": "A3",
      "velocity": 0.8188976377952756,
      "duration": "96i"
    },
    {
      "time": "50112i",
      "midiNote": 62,
      "noteName": "D4",
      "velocity": 0.8188976377952756,
      "duration": "96i"
    },
    {
      "time": "50112i",
      "midiNote": 66,
      "noteName": "F#4",
      "velocity": 0.9448818897637795,
      "duration": "96i"
    },
    {
      "time": "50208i",
      "midiNote": 57,
      "noteName": "A3",
      "velocity": 0.8818897637795275,
      "duration": "96i"
    },
    {
      "time": "50208i",
      "midiNote": 62,
      "noteName": "D4",
      "velocity": 0.8818897637795275,
      "duration": "96i"
    },
    {
      "time": "50208i",
      "midiNote": 66,
      "noteName": "F#4",
      "velocity": 1,
      "duration": "96i"
    },
    {
      "time": "50400i",
      "midiNote": 57,
      "noteName": "A3",
      "velocity": 0.8818897637795275,
      "duration": "192i"
    },
    {
      "time": "50400i",
      "midiNote": 62,
      "noteName": "D4",
      "velocity": 0.8818897637795275,
      "duration": "192i"
    },
    {
      "time": "50400i",
      "midiNote": 66,
      "noteName": "F#4",
      "velocity": 1,
      "duration": "192i"
    },
    {
      "time": "50592i",
      "midiNote": 57,
      "noteName": "A3",
      "velocity": 0.8818897637795275,
      "duration": "96i"
    },
    {
      "time": "50592i",
      "midiNote": 62,
      "noteName": "D4",
      "velocity": 0.8818897637795275,
      "duration": "96i"
    },
    {
      "time": "50592i",
      "midiNote": 66,
      "noteName": "F#4",
      "velocity": 1,
      "duration": "96i"
    },
    {
      "time": "50688i",
      "midiNote": 57,
      "noteName": "A3",
      "velocity": 0.8818897637795275,
      "duration": "96i"
    },
    {
      "time": "50688i",
      "midiNote": 62,
      "noteName": "D4",
      "velocity": 0.8818897637795275,
      "duration": "96i"
    },
    {
      "time": "50688i",
      "midiNote": 66,
      "noteName": "F#4",
      "velocity": 1,
      "duration": "96i"
    },
    {
      "time": "50784i",
      "midiNote": 57,
      "noteName": "A3",
      "velocity": 0.7559055118110236,
      "duration": "96i"
    },
    {
      "time": "50784i",
      "midiNote": 62,
      "noteName": "D4",
      "velocity": 0.7559055118110236,
      "duration": "96i"
    },
    {
      "time": "50784i",
      "midiNote": 66,
      "noteName": "F#4",
      "velocity": 0.8818897637795275,
      "duration": "96i"
    },
    {
      "time": "50880i",
      "midiNote": 57,
      "noteName": "A3",
      "velocity": 0.8188976377952756,
      "duration": "96i"
    },
    {
      "time": "50880i",
      "midiNote": 62,
      "noteName": "D4",
      "velocity": 0.8188976377952756,
      "duration": "96i"
    },
    {
      "time": "50880i",
      "midiNote": 66,
      "noteName": "F#4",
      "velocity": 0.9448818897637795,
      "duration": "96i"
    },
    {
      "time": "50976i",
      "midiNote": 57,
      "noteName": "A3",
      "velocity": 0.8818897637795275,
      "duration": "96i"
    },
    {
      "time": "50976i",
      "midiNote": 62,
      "noteName": "D4",
      "velocity": 0.8818897637795275,
      "duration": "96i"
    },
    {
      "time": "50976i",
      "midiNote": 66,
      "noteName": "F#4",
      "velocity": 1,
      "duration": "96i"
    },
    {
      "time": "51168i",
      "midiNote": 57,
      "noteName": "A3",
      "velocity": 0.8818897637795275,
      "duration": "192i"
    },
    {
      "time": "51168i",
      "midiNote": 62,
      "noteName": "D4",
      "velocity": 0.8818897637795275,
      "duration": "192i"
    },
    {
      "time": "51168i",
      "midiNote": 66,
      "noteName": "F#4",
      "velocity": 1,
      "duration": "192i"
    },
    {
      "time": "51360i",
      "midiNote": 57,
      "noteName": "A3",
      "velocity": 0.8818897637795275,
      "duration": "96i"
    },
    {
      "time": "51360i",
      "midiNote": 62,
      "noteName": "D4",
      "velocity": 0.8818897637795275,
      "duration": "96i"
    },
    {
      "time": "51360i",
      "midiNote": 66,
      "noteName": "F#4",
      "velocity": 1,
      "duration": "96i"
    },
    {
      "time": "51456i",
      "midiNote": 50,
      "noteName": "D3",
      "velocity": 0.8818897637795275,
      "duration": "96i"
    },
    {
      "time": "51456i",
      "midiNote": 56,
      "noteName": "G#3",
      "velocity": 0.8818897637795275,
      "duration": "96i"
    },
    {
      "time": "51456i",
      "midiNote": 64,
      "noteName": "E4",
      "velocity": 1,
      "duration": "96i"
    },
    {
      "time": "51552i",
      "midiNote": 50,
      "noteName": "D3",
      "velocity": 0.7559055118110236,
      "duration": "96i"
    },
    {
      "time": "51552i",
      "midiNote": 56,
      "noteName": "G#3",
      "velocity": 0.7559055118110236,
      "duration": "96i"
    },
    {
      "time": "51552i",
      "midiNote": 64,
      "noteName": "E4",
      "velocity": 0.8818897637795275,
      "duration": "96i"
    },
    {
      "time": "51648i",
      "midiNote": 50,
      "noteName": "D3",
      "velocity": 0.8188976377952756,
      "duration": "96i"
    },
    {
      "time": "51648i",
      "midiNote": 56,
      "noteName": "G#3",
      "velocity": 0.8188976377952756,
      "duration": "96i"
    },
    {
      "time": "51648i",
      "midiNote": 64,
      "noteName": "E4",
      "velocity": 0.9448818897637795,
      "duration": "96i"
    },
    {
      "time": "51744i",
      "midiNote": 50,
      "noteName": "D3",
      "velocity": 0.8818897637795275,
      "duration": "96i"
    },
    {
      "time": "51744i",
      "midiNote": 56,
      "noteName": "G#3",
      "velocity": 0.8818897637795275,
      "duration": "96i"
    },
    {
      "time": "51744i",
      "midiNote": 64,
      "noteName": "E4",
      "velocity": 1,
      "duration": "96i"
    },
    {
      "time": "51936i",
      "midiNote": 50,
      "noteName": "D3",
      "velocity": 0.8818897637795275,
      "duration": "192i"
    },
    {
      "time": "51936i",
      "midiNote": 56,
      "noteName": "G#3",
      "velocity": 0.8818897637795275,
      "duration": "192i"
    },
    {
      "time": "51936i",
      "midiNote": 64,
      "noteName": "E4",
      "velocity": 1,
      "duration": "192i"
    },
    {
      "time": "52128i",
      "midiNote": 50,
      "noteName": "D3",
      "velocity": 0.8818897637795275,
      "duration": "96i"
    },
    {
      "time": "52128i",
      "midiNote": 56,
      "noteName": "G#3",
      "velocity": 0.8818897637795275,
      "duration": "96i"
    },
    {
      "time": "52128i",
      "midiNote": 64,
      "noteName": "E4",
      "velocity": 1,
      "duration": "96i"
    },
    {
      "time": "52224i",
      "midiNote": 50,
      "noteName": "D3",
      "velocity": 0.8818897637795275,
      "duration": "96i"
    },
    {
      "time": "52224i",
      "midiNote": 56,
      "noteName": "G#3",
      "velocity": 0.8818897637795275,
      "duration": "96i"
    },
    {
      "time": "52224i",
      "midiNote": 64,
      "noteName": "E4",
      "velocity": 1,
      "duration": "96i"
    },
    {
      "time": "52320i",
      "midiNote": 50,
      "noteName": "D3",
      "velocity": 0.7559055118110236,
      "duration": "96i"
    },
    {
      "time": "52320i",
      "midiNote": 56,
      "noteName": "G#3",
      "velocity": 0.7559055118110236,
      "duration": "96i"
    },
    {
      "time": "52320i",
      "midiNote": 64,
      "noteName": "E4",
      "velocity": 0.8818897637795275,
      "duration": "96i"
    },
    {
      "time": "52416i",
      "midiNote": 50,
      "noteName": "D3",
      "velocity": 0.8188976377952756,
      "duration": "96i"
    },
    {
      "time": "52416i",
      "midiNote": 56,
      "noteName": "G#3",
      "velocity": 0.8188976377952756,
      "duration": "96i"
    },
    {
      "time": "52416i",
      "midiNote": 64,
      "noteName": "E4",
      "velocity": 0.9448818897637795,
      "duration": "96i"
    },
    {
      "time": "52512i",
      "midiNote": 50,
      "noteName": "D3",
      "velocity": 0.8818897637795275,
      "duration": "96i"
    },
    {
      "time": "52512i",
      "midiNote": 56,
      "noteName": "G#3",
      "velocity": 0.8818897637795275,
      "duration": "96i"
    },
    {
      "time": "52512i",
      "midiNote": 64,
      "noteName": "E4",
      "velocity": 1,
      "duration": "96i"
    },
    {
      "time": "52704i",
      "midiNote": 50,
      "noteName": "D3",
      "velocity": 0.8818897637795275,
      "duration": "192i"
    },
    {
      "time": "52704i",
      "midiNote": 56,
      "noteName": "G#3",
      "velocity": 0.8818897637795275,
      "duration": "192i"
    },
    {
      "time": "52704i",
      "midiNote": 64,
      "noteName": "E4",
      "velocity": 1,
      "duration": "192i"
    },
    {
      "time": "52896i",
      "midiNote": 50,
      "noteName": "D3",
      "velocity": 0.8818897637795275,
      "duration": "96i"
    },
    {
      "time": "52896i",
      "midiNote": 56,
      "noteName": "G#3",
      "velocity": 0.8818897637795275,
      "duration": "96i"
    },
    {
      "time": "52896i",
      "midiNote": 64,
      "noteName": "E4",
      "velocity": 1,
      "duration": "96i"
    },
    {
      "time": "52992i",
      "midiNote": 59,
      "noteName": "B3",
      "velocity": 0.8818897637795275,
      "duration": "96i"
    },
    {
      "time": "52992i",
      "midiNote": 56,
      "noteName": "G#3",
      "velocity": 0.8818897637795275,
      "duration": "96i"
    },
    {
      "time": "52992i",
      "midiNote": 65,
      "noteName": "F4",
      "velocity": 1,
      "duration": "96i"
    },
    {
      "time": "53088i",
      "midiNote": 59,
      "noteName": "B3",
      "velocity": 0.7559055118110236,
      "duration": "96i"
    },
    {
      "time": "53088i",
      "midiNote": 56,
      "noteName": "G#3",
      "velocity": 0.7559055118110236,
      "duration": "96i"
    },
    {
      "time": "53088i",
      "midiNote": 65,
      "noteName": "F4",
      "velocity": 0.8818897637795275,
      "duration": "96i"
    },
    {
      "time": "53184i",
      "midiNote": 59,
      "noteName": "B3",
      "velocity": 0.8188976377952756,
      "duration": "96i"
    },
    {
      "time": "53184i",
      "midiNote": 56,
      "noteName": "G#3",
      "velocity": 0.8188976377952756,
      "duration": "96i"
    },
    {
      "time": "53184i",
      "midiNote": 65,
      "noteName": "F4",
      "velocity": 0.9448818897637795,
      "duration": "96i"
    },
    {
      "time": "53280i",
      "midiNote": 59,
      "noteName": "B3",
      "velocity": 0.8818897637795275,
      "duration": "96i"
    },
    {
      "time": "53280i",
      "midiNote": 56,
      "noteName": "G#3",
      "velocity": 0.8818897637795275,
      "duration": "96i"
    },
    {
      "time": "53280i",
      "midiNote": 65,
      "noteName": "F4",
      "velocity": 1,
      "duration": "96i"
    },
    {
      "time": "53472i",
      "midiNote": 59,
      "noteName": "B3",
      "velocity": 0.8818897637795275,
      "duration": "192i"
    },
    {
      "time": "53472i",
      "midiNote": 56,
      "noteName": "G#3",
      "velocity": 0.8818897637795275,
      "duration": "192i"
    },
    {
      "time": "53472i",
      "midiNote": 65,
      "noteName": "F4",
      "velocity": 1,
      "duration": "192i"
    },
    {
      "time": "53664i",
      "midiNote": 59,
      "noteName": "B3",
      "velocity": 0.8818897637795275,
      "duration": "96i"
    },
    {
      "time": "53664i",
      "midiNote": 56,
      "noteName": "G#3",
      "velocity": 0.8818897637795275,
      "duration": "96i"
    },
    {
      "time": "53664i",
      "midiNote": 65,
      "noteName": "F4",
      "velocity": 1,
      "duration": "96i"
    },
    {
      "time": "53760i",
      "midiNote": 59,
      "noteName": "B3",
      "velocity": 0.8818897637795275,
      "duration": "96i"
    },
    {
      "time": "53760i",
      "midiNote": 56,
      "noteName": "G#3",
      "velocity": 0.8818897637795275,
      "duration": "96i"
    },
    {
      "time": "53760i",
      "midiNote": 65,
      "noteName": "F4",
      "velocity": 1,
      "duration": "96i"
    },
    {
      "time": "53856i",
      "midiNote": 59,
      "noteName": "B3",
      "velocity": 0.7559055118110236,
      "duration": "96i"
    },
    {
      "time": "53856i",
      "midiNote": 56,
      "noteName": "G#3",
      "velocity": 0.7559055118110236,
      "duration": "96i"
    },
    {
      "time": "53856i",
      "midiNote": 65,
      "noteName": "F4",
      "velocity": 0.8818897637795275,
      "duration": "96i"
    },
    {
      "time": "53952i",
      "midiNote": 59,
      "noteName": "B3",
      "velocity": 0.8188976377952756,
      "duration": "96i"
    },
    {
      "time": "53952i",
      "midiNote": 56,
      "noteName": "G#3",
      "velocity": 0.8188976377952756,
      "duration": "96i"
    },
    {
      "time": "53952i",
      "midiNote": 65,
      "noteName": "F4",
      "velocity": 0.9448818897637795,
      "duration": "96i"
    },
    {
      "time": "54048i",
      "midiNote": 59,
      "noteName": "B3",
      "velocity": 0.8818897637795275,
      "duration": "96i"
    },
    {
      "time": "54048i",
      "midiNote": 56,
      "noteName": "G#3",
      "velocity": 0.8818897637795275,
      "duration": "96i"
    },
    {
      "time": "54048i",
      "midiNote": 65,
      "noteName": "F4",
      "velocity": 1,
      "duration": "96i"
    },
    {
      "time": "54240i",
      "midiNote": 59,
      "noteName": "B3",
      "velocity": 0.8818897637795275,
      "duration": "192i"
    },
    {
      "time": "54240i",
      "midiNote": 56,
      "noteName": "G#3",
      "velocity": 0.8818897637795275,
      "duration": "192i"
    },
    {
      "time": "54240i",
      "midiNote": 65,
      "noteName": "F4",
      "velocity": 1,
      "duration": "192i"
    },
    {
      "time": "54432i",
      "midiNote": 59,
      "noteName": "B3",
      "velocity": 0.8818897637795275,
      "duration": "96i"
    },
    {
      "time": "54432i",
      "midiNote": 56,
      "noteName": "G#3",
      "velocity": 0.8818897637795275,
      "duration": "96i"
    },
    {
      "time": "54432i",
      "midiNote": 65,
      "noteName": "F4",
      "velocity": 1,
      "duration": "96i"
    },
    {
      "time": "54528i",
      "midiNote": 57,
      "noteName": "A3",
      "velocity": 0.8818897637795275,
      "duration": "96i"
    },
    {
      "time": "54528i",
      "midiNote": 61,
      "noteName": "C#4",
      "velocity": 0.8818897637795275,
      "duration": "96i"
    },
    {
      "time": "54528i",
      "midiNote": 66,
      "noteName": "F#4",
      "velocity": 1,
      "duration": "96i"
    },
    {
      "time": "54624i",
      "midiNote": 57,
      "noteName": "A3",
      "velocity": 0.7559055118110236,
      "duration": "96i"
    },
    {
      "time": "54624i",
      "midiNote": 61,
      "noteName": "C#4",
      "velocity": 0.7559055118110236,
      "duration": "96i"
    },
    {
      "time": "54624i",
      "midiNote": 66,
      "noteName": "F#4",
      "velocity": 0.8818897637795275,
      "duration": "96i"
    },
    {
      "time": "54720i",
      "midiNote": 57,
      "noteName": "A3",
      "velocity": 0.8188976377952756,
      "duration": "96i"
    },
    {
      "time": "54720i",
      "midiNote": 61,
      "noteName": "C#4",
      "velocity": 0.8188976377952756,
      "duration": "96i"
    },
    {
      "time": "54720i",
      "midiNote": 66,
      "noteName": "F#4",
      "velocity": 0.9448818897637795,
      "duration": "96i"
    },
    {
      "time": "54816i",
      "midiNote": 57,
      "noteName": "A3",
      "velocity": 0.8818897637795275,
      "duration": "96i"
    },
    {
      "time": "54816i",
      "midiNote": 61,
      "noteName": "C#4",
      "velocity": 0.8818897637795275,
      "duration": "96i"
    },
    {
      "time": "54816i",
      "midiNote": 66,
      "noteName": "F#4",
      "velocity": 1,
      "duration": "96i"
    },
    {
      "time": "55008i",
      "midiNote": 57,
      "noteName": "A3",
      "velocity": 0.8818897637795275,
      "duration": "192i"
    },
    {
      "time": "55008i",
      "midiNote": 61,
      "noteName": "C#4",
      "velocity": 0.8818897637795275,
      "duration": "192i"
    },
    {
      "time": "55008i",
      "midiNote": 66,
      "noteName": "F#4",
      "velocity": 1,
      "duration": "192i"
    },
    {
      "time": "55200i",
      "midiNote": 57,
      "noteName": "A3",
      "velocity": 0.8818897637795275,
      "duration": "96i"
    },
    {
      "time": "55200i",
      "midiNote": 61,
      "noteName": "C#4",
      "velocity": 0.8818897637795275,
      "duration": "96i"
    },
    {
      "time": "55200i",
      "midiNote": 66,
      "noteName": "F#4",
      "velocity": 1,
      "duration": "96i"
    },
    {
      "time": "55296i",
      "midiNote": 57,
      "noteName": "A3",
      "velocity": 0.8818897637795275,
      "duration": "96i"
    },
    {
      "time": "55296i",
      "midiNote": 61,
      "noteName": "C#4",
      "velocity": 0.8818897637795275,
      "duration": "96i"
    },
    {
      "time": "55296i",
      "midiNote": 66,
      "noteName": "F#4",
      "velocity": 1,
      "duration": "96i"
    },
    {
      "time": "55392i",
      "midiNote": 57,
      "noteName": "A3",
      "velocity": 0.7559055118110236,
      "duration": "96i"
    },
    {
      "time": "55392i",
      "midiNote": 61,
      "noteName": "C#4",
      "velocity": 0.7559055118110236,
      "duration": "96i"
    },
    {
      "time": "55392i",
      "midiNote": 66,
      "noteName": "F#4",
      "velocity": 0.8818897637795275,
      "duration": "96i"
    },
    {
      "time": "55488i",
      "midiNote": 57,
      "noteName": "A3",
      "velocity": 0.8188976377952756,
      "duration": "96i"
    },
    {
      "time": "55488i",
      "midiNote": 61,
      "noteName": "C#4",
      "velocity": 0.8188976377952756,
      "duration": "96i"
    },
    {
      "time": "55488i",
      "midiNote": 66,
      "noteName": "F#4",
      "velocity": 0.9448818897637795,
      "duration": "96i"
    },
    {
      "time": "55584i",
      "midiNote": 57,
      "noteName": "A3",
      "velocity": 0.8818897637795275,
      "duration": "96i"
    },
    {
      "time": "55584i",
      "midiNote": 61,
      "noteName": "C#4",
      "velocity": 0.8818897637795275,
      "duration": "96i"
    },
    {
      "time": "55584i",
      "midiNote": 66,
      "noteName": "F#4",
      "velocity": 1,
      "duration": "96i"
    },
    {
      "time": "55776i",
      "midiNote": 57,
      "noteName": "A3",
      "velocity": 0.8818897637795275,
      "duration": "192i"
    },
    {
      "time": "55776i",
      "midiNote": 61,
      "noteName": "C#4",
      "velocity": 0.8818897637795275,
      "duration": "192i"
    },
    {
      "time": "55776i",
      "midiNote": 66,
      "noteName": "F#4",
      "velocity": 1,
      "duration": "192i"
    },
    {
      "time": "55968i",
      "midiNote": 57,
      "noteName": "A3",
      "velocity": 0.8818897637795275,
      "duration": "96i"
    },
    {
      "time": "55968i",
      "midiNote": 61,
      "noteName": "C#4",
      "velocity": 0.8818897637795275,
      "duration": "96i"
    },
    {
      "time": "55968i",
      "midiNote": 66,
      "noteName": "F#4",
      "velocity": 1,
      "duration": "192i"
    },
    {
      "time": "56064i",
      "midiNote": 57,
      "noteName": "A3",
      "velocity": 0.8818897637795275,
      "duration": "96i"
    },
    {
      "time": "56064i",
      "midiNote": 62,
      "noteName": "D4",
      "velocity": 0.8818897637795275,
      "duration": "96i"
    },
    {
      "time": "56064i",
      "midiNote": 66,
      "noteName": "F#4",
      "velocity": 1,
      "duration": "0i"
    },
    {
      "time": "56160i",
      "midiNote": 57,
      "noteName": "A3",
      "velocity": 0.7559055118110236,
      "duration": "96i"
    },
    {
      "time": "56160i",
      "midiNote": 62,
      "noteName": "D4",
      "velocity": 0.7559055118110236,
      "duration": "96i"
    },
    {
      "time": "56160i",
      "midiNote": 66,
      "noteName": "F#4",
      "velocity": 0.8818897637795275,
      "duration": "96i"
    },
    {
      "time": "56256i",
      "midiNote": 57,
      "noteName": "A3",
      "velocity": 0.8188976377952756,
      "duration": "96i"
    },
    {
      "time": "56256i",
      "midiNote": 62,
      "noteName": "D4",
      "velocity": 0.8188976377952756,
      "duration": "96i"
    },
    {
      "time": "56256i",
      "midiNote": 66,
      "noteName": "F#4",
      "velocity": 0.9448818897637795,
      "duration": "96i"
    },
    {
      "time": "56352i",
      "midiNote": 57,
      "noteName": "A3",
      "velocity": 0.8818897637795275,
      "duration": "96i"
    },
    {
      "time": "56352i",
      "midiNote": 62,
      "noteName": "D4",
      "velocity": 0.8818897637795275,
      "duration": "96i"
    },
    {
      "time": "56352i",
      "midiNote": 66,
      "noteName": "F#4",
      "velocity": 1,
      "duration": "96i"
    },
    {
      "time": "56544i",
      "midiNote": 57,
      "noteName": "A3",
      "velocity": 0.8818897637795275,
      "duration": "192i"
    },
    {
      "time": "56544i",
      "midiNote": 62,
      "noteName": "D4",
      "velocity": 0.8818897637795275,
      "duration": "192i"
    },
    {
      "time": "56544i",
      "midiNote": 66,
      "noteName": "F#4",
      "velocity": 1,
      "duration": "192i"
    },
    {
      "time": "56736i",
      "midiNote": 57,
      "noteName": "A3",
      "velocity": 0.8818897637795275,
      "duration": "96i"
    },
    {
      "time": "56736i",
      "midiNote": 62,
      "noteName": "D4",
      "velocity": 0.8818897637795275,
      "duration": "96i"
    },
    {
      "time": "56736i",
      "midiNote": 66,
      "noteName": "F#4",
      "velocity": 1,
      "duration": "96i"
    },
    {
      "time": "56832i",
      "midiNote": 57,
      "noteName": "A3",
      "velocity": 0.8818897637795275,
      "duration": "96i"
    },
    {
      "time": "56832i",
      "midiNote": 62,
      "noteName": "D4",
      "velocity": 0.8818897637795275,
      "duration": "96i"
    },
    {
      "time": "56832i",
      "midiNote": 66,
      "noteName": "F#4",
      "velocity": 1,
      "duration": "96i"
    },
    {
      "time": "56928i",
      "midiNote": 57,
      "noteName": "A3",
      "velocity": 0.7559055118110236,
      "duration": "96i"
    },
    {
      "time": "56928i",
      "midiNote": 62,
      "noteName": "D4",
      "velocity": 0.7559055118110236,
      "duration": "96i"
    },
    {
      "time": "56928i",
      "midiNote": 66,
      "noteName": "F#4",
      "velocity": 0.8818897637795275,
      "duration": "96i"
    },
    {
      "time": "57024i",
      "midiNote": 57,
      "noteName": "A3",
      "velocity": 0.8188976377952756,
      "duration": "96i"
    },
    {
      "time": "57024i",
      "midiNote": 62,
      "noteName": "D4",
      "velocity": 0.8188976377952756,
      "duration": "96i"
    },
    {
      "time": "57024i",
      "midiNote": 66,
      "noteName": "F#4",
      "velocity": 0.9448818897637795,
      "duration": "96i"
    },
    {
      "time": "57120i",
      "midiNote": 57,
      "noteName": "A3",
      "velocity": 0.8818897637795275,
      "duration": "96i"
    },
    {
      "time": "57120i",
      "midiNote": 62,
      "noteName": "D4",
      "velocity": 0.8818897637795275,
      "duration": "96i"
    },
    {
      "time": "57120i",
      "midiNote": 66,
      "noteName": "F#4",
      "velocity": 1,
      "duration": "96i"
    },
    {
      "time": "57312i",
      "midiNote": 57,
      "noteName": "A3",
      "velocity": 0.8818897637795275,
      "duration": "192i"
    },
    {
      "time": "57312i",
      "midiNote": 62,
      "noteName": "D4",
      "velocity": 0.8818897637795275,
      "duration": "192i"
    },
    {
      "time": "57312i",
      "midiNote": 66,
      "noteName": "F#4",
      "velocity": 1,
      "duration": "192i"
    },
    {
      "time": "57504i",
      "midiNote": 57,
      "noteName": "A3",
      "velocity": 0.8818897637795275,
      "duration": "96i"
    },
    {
      "time": "57504i",
      "midiNote": 62,
      "noteName": "D4",
      "velocity": 0.8818897637795275,
      "duration": "96i"
    },
    {
      "time": "57504i",
      "midiNote": 66,
      "noteName": "F#4",
      "velocity": 1,
      "duration": "96i"
    },
    {
      "time": "57600i",
      "midiNote": 50,
      "noteName": "D3",
      "velocity": 0.8818897637795275,
      "duration": "96i"
    },
    {
      "time": "57600i",
      "midiNote": 56,
      "noteName": "G#3",
      "velocity": 0.8818897637795275,
      "duration": "96i"
    },
    {
      "time": "57600i",
      "midiNote": 64,
      "noteName": "E4",
      "velocity": 1,
      "duration": "96i"
    },
    {
      "time": "57696i",
      "midiNote": 50,
      "noteName": "D3",
      "velocity": 0.7559055118110236,
      "duration": "96i"
    },
    {
      "time": "57696i",
      "midiNote": 56,
      "noteName": "G#3",
      "velocity": 0.7559055118110236,
      "duration": "96i"
    },
    {
      "time": "57696i",
      "midiNote": 64,
      "noteName": "E4",
      "velocity": 0.8818897637795275,
      "duration": "96i"
    },
    {
      "time": "57792i",
      "midiNote": 50,
      "noteName": "D3",
      "velocity": 0.8188976377952756,
      "duration": "96i"
    },
    {
      "time": "57792i",
      "midiNote": 56,
      "noteName": "G#3",
      "velocity": 0.8188976377952756,
      "duration": "96i"
    },
    {
      "time": "57792i",
      "midiNote": 64,
      "noteName": "E4",
      "velocity": 0.9448818897637795,
      "duration": "96i"
    },
    {
      "time": "57888i",
      "midiNote": 50,
      "noteName": "D3",
      "velocity": 0.8818897637795275,
      "duration": "96i"
    },
    {
      "time": "57888i",
      "midiNote": 56,
      "noteName": "G#3",
      "velocity": 0.8818897637795275,
      "duration": "96i"
    },
    {
      "time": "57888i",
      "midiNote": 64,
      "noteName": "E4",
      "velocity": 1,
      "duration": "96i"
    },
    {
      "time": "58080i",
      "midiNote": 50,
      "noteName": "D3",
      "velocity": 0.8818897637795275,
      "duration": "192i"
    },
    {
      "time": "58080i",
      "midiNote": 56,
      "noteName": "G#3",
      "velocity": 0.8818897637795275,
      "duration": "192i"
    },
    {
      "time": "58080i",
      "midiNote": 64,
      "noteName": "E4",
      "velocity": 1,
      "duration": "192i"
    },
    {
      "time": "58272i",
      "midiNote": 50,
      "noteName": "D3",
      "velocity": 0.8818897637795275,
      "duration": "96i"
    },
    {
      "time": "58272i",
      "midiNote": 56,
      "noteName": "G#3",
      "velocity": 0.8818897637795275,
      "duration": "96i"
    },
    {
      "time": "58272i",
      "midiNote": 64,
      "noteName": "E4",
      "velocity": 1,
      "duration": "96i"
    },
    {
      "time": "58368i",
      "midiNote": 50,
      "noteName": "D3",
      "velocity": 0.8818897637795275,
      "duration": "96i"
    },
    {
      "time": "58368i",
      "midiNote": 56,
      "noteName": "G#3",
      "velocity": 0.8818897637795275,
      "duration": "96i"
    },
    {
      "time": "58368i",
      "midiNote": 64,
      "noteName": "E4",
      "velocity": 1,
      "duration": "96i"
    },
    {
      "time": "58464i",
      "midiNote": 50,
      "noteName": "D3",
      "velocity": 0.7559055118110236,
      "duration": "96i"
    },
    {
      "time": "58464i",
      "midiNote": 56,
      "noteName": "G#3",
      "velocity": 0.7559055118110236,
      "duration": "96i"
    },
    {
      "time": "58464i",
      "midiNote": 64,
      "noteName": "E4",
      "velocity": 0.8818897637795275,
      "duration": "96i"
    },
    {
      "time": "58560i",
      "midiNote": 50,
      "noteName": "D3",
      "velocity": 0.8188976377952756,
      "duration": "96i"
    },
    {
      "time": "58560i",
      "midiNote": 56,
      "noteName": "G#3",
      "velocity": 0.8188976377952756,
      "duration": "96i"
    },
    {
      "time": "58560i",
      "midiNote": 64,
      "noteName": "E4",
      "velocity": 0.9448818897637795,
      "duration": "96i"
    },
    {
      "time": "58656i",
      "midiNote": 50,
      "noteName": "D3",
      "velocity": 0.8818897637795275,
      "duration": "96i"
    },
    {
      "time": "58656i",
      "midiNote": 56,
      "noteName": "G#3",
      "velocity": 0.8818897637795275,
      "duration": "96i"
    },
    {
      "time": "58656i",
      "midiNote": 64,
      "noteName": "E4",
      "velocity": 1,
      "duration": "96i"
    },
    {
      "time": "58848i",
      "midiNote": 50,
      "noteName": "D3",
      "velocity": 0.8818897637795275,
      "duration": "192i"
    },
    {
      "time": "58848i",
      "midiNote": 56,
      "noteName": "G#3",
      "velocity": 0.8818897637795275,
      "duration": "192i"
    },
    {
      "time": "58848i",
      "midiNote": 64,
      "noteName": "E4",
      "velocity": 1,
      "duration": "192i"
    },
    {
      "time": "59040i",
      "midiNote": 50,
      "noteName": "D3",
      "velocity": 0.8818897637795275,
      "duration": "96i"
    },
    {
      "time": "59040i",
      "midiNote": 56,
      "noteName": "G#3",
      "velocity": 0.8818897637795275,
      "duration": "96i"
    },
    {
      "time": "59040i",
      "midiNote": 64,
      "noteName": "E4",
      "velocity": 1,
      "duration": "96i"
    },
    {
      "time": "59136i",
      "midiNote": 59,
      "noteName": "B3",
      "velocity": 0.8818897637795275,
      "duration": "96i"
    },
    {
      "time": "59136i",
      "midiNote": 56,
      "noteName": "G#3",
      "velocity": 0.8818897637795275,
      "duration": "96i"
    },
    {
      "time": "59136i",
      "midiNote": 65,
      "noteName": "F4",
      "velocity": 1,
      "duration": "96i"
    },
    {
      "time": "59232i",
      "midiNote": 59,
      "noteName": "B3",
      "velocity": 0.7559055118110236,
      "duration": "96i"
    },
    {
      "time": "59232i",
      "midiNote": 56,
      "noteName": "G#3",
      "velocity": 0.7559055118110236,
      "duration": "96i"
    },
    {
      "time": "59232i",
      "midiNote": 65,
      "noteName": "F4",
      "velocity": 0.8818897637795275,
      "duration": "96i"
    },
    {
      "time": "59328i",
      "midiNote": 59,
      "noteName": "B3",
      "velocity": 0.8188976377952756,
      "duration": "96i"
    },
    {
      "time": "59328i",
      "midiNote": 56,
      "noteName": "G#3",
      "velocity": 0.8188976377952756,
      "duration": "96i"
    },
    {
      "time": "59328i",
      "midiNote": 65,
      "noteName": "F4",
      "velocity": 0.9448818897637795,
      "duration": "96i"
    },
    {
      "time": "59424i",
      "midiNote": 59,
      "noteName": "B3",
      "velocity": 0.8818897637795275,
      "duration": "96i"
    },
    {
      "time": "59424i",
      "midiNote": 56,
      "noteName": "G#3",
      "velocity": 0.8818897637795275,
      "duration": "96i"
    },
    {
      "time": "59424i",
      "midiNote": 65,
      "noteName": "F4",
      "velocity": 1,
      "duration": "96i"
    },
    {
      "time": "59616i",
      "midiNote": 59,
      "noteName": "B3",
      "velocity": 0.8818897637795275,
      "duration": "192i"
    },
    {
      "time": "59616i",
      "midiNote": 56,
      "noteName": "G#3",
      "velocity": 0.8818897637795275,
      "duration": "192i"
    },
    {
      "time": "59616i",
      "midiNote": 65,
      "noteName": "F4",
      "velocity": 1,
      "duration": "192i"
    },
    {
      "time": "59808i",
      "midiNote": 59,
      "noteName": "B3",
      "velocity": 0.8818897637795275,
      "duration": "96i"
    },
    {
      "time": "59808i",
      "midiNote": 56,
      "noteName": "G#3",
      "velocity": 0.8818897637795275,
      "duration": "96i"
    },
    {
      "time": "59808i",
      "midiNote": 65,
      "noteName": "F4",
      "velocity": 1,
      "duration": "96i"
    },
    {
      "time": "59904i",
      "midiNote": 59,
      "noteName": "B3",
      "velocity": 0.8818897637795275,
      "duration": "96i"
    },
    {
      "time": "59904i",
      "midiNote": 56,
      "noteName": "G#3",
      "velocity": 0.8818897637795275,
      "duration": "96i"
    },
    {
      "time": "59904i",
      "midiNote": 65,
      "noteName": "F4",
      "velocity": 1,
      "duration": "96i"
    },
    {
      "time": "60000i",
      "midiNote": 59,
      "noteName": "B3",
      "velocity": 0.7559055118110236,
      "duration": "96i"
    },
    {
      "time": "60000i",
      "midiNote": 56,
      "noteName": "G#3",
      "velocity": 0.7559055118110236,
      "duration": "96i"
    },
    {
      "time": "60000i",
      "midiNote": 65,
      "noteName": "F4",
      "velocity": 0.8818897637795275,
      "duration": "96i"
    },
    {
      "time": "60096i",
      "midiNote": 59,
      "noteName": "B3",
      "velocity": 0.8188976377952756,
      "duration": "96i"
    },
    {
      "time": "60096i",
      "midiNote": 56,
      "noteName": "G#3",
      "velocity": 0.8188976377952756,
      "duration": "96i"
    },
    {
      "time": "60096i",
      "midiNote": 65,
      "noteName": "F4",
      "velocity": 0.9448818897637795,
      "duration": "96i"
    },
    {
      "time": "60192i",
      "midiNote": 59,
      "noteName": "B3",
      "velocity": 0.8818897637795275,
      "duration": "96i"
    },
    {
      "time": "60192i",
      "midiNote": 56,
      "noteName": "G#3",
      "velocity": 0.8818897637795275,
      "duration": "96i"
    },
    {
      "time": "60192i",
      "midiNote": 65,
      "noteName": "F4",
      "velocity": 1,
      "duration": "96i"
    },
    {
      "time": "60384i",
      "midiNote": 59,
      "noteName": "B3",
      "velocity": 0.8818897637795275,
      "duration": "192i"
    },
    {
      "time": "60384i",
      "midiNote": 56,
      "noteName": "G#3",
      "velocity": 0.8818897637795275,
      "duration": "192i"
    },
    {
      "time": "60384i",
      "midiNote": 65,
      "noteName": "F4",
      "velocity": 1,
      "duration": "192i"
    },
    {
      "time": "60576i",
      "midiNote": 59,
      "noteName": "B3",
      "velocity": 0.8818897637795275,
      "duration": "96i"
    },
    {
      "time": "60576i",
      "midiNote": 56,
      "noteName": "G#3",
      "velocity": 0.8818897637795275,
      "duration": "96i"
    },
    {
      "time": "60576i",
      "midiNote": 65,
      "noteName": "F4",
      "velocity": 1,
      "duration": "96i"
    },
    {
      "time": "60672i",
      "midiNote": 57,
      "noteName": "A3",
      "velocity": 0.8818897637795275,
      "duration": "96i"
    },
    {
      "time": "60672i",
      "midiNote": 61,
      "noteName": "C#4",
      "velocity": 0.8818897637795275,
      "duration": "96i"
    },
    {
      "time": "60672i",
      "midiNote": 66,
      "noteName": "F#4",
      "velocity": 1,
      "duration": "96i"
    },
    {
      "time": "60768i",
      "midiNote": 57,
      "noteName": "A3",
      "velocity": 0.7559055118110236,
      "duration": "96i"
    },
    {
      "time": "60768i",
      "midiNote": 61,
      "noteName": "C#4",
      "velocity": 0.7559055118110236,
      "duration": "96i"
    },
    {
      "time": "60768i",
      "midiNote": 66,
      "noteName": "F#4",
      "velocity": 0.8818897637795275,
      "duration": "96i"
    },
    {
      "time": "60864i",
      "midiNote": 57,
      "noteName": "A3",
      "velocity": 0.8188976377952756,
      "duration": "96i"
    },
    {
      "time": "60864i",
      "midiNote": 61,
      "noteName": "C#4",
      "velocity": 0.8188976377952756,
      "duration": "96i"
    },
    {
      "time": "60864i",
      "midiNote": 66,
      "noteName": "F#4",
      "velocity": 0.9448818897637795,
      "duration": "96i"
    },
    {
      "time": "60960i",
      "midiNote": 57,
      "noteName": "A3",
      "velocity": 0.8818897637795275,
      "duration": "96i"
    },
    {
      "time": "60960i",
      "midiNote": 61,
      "noteName": "C#4",
      "velocity": 0.8818897637795275,
      "duration": "96i"
    },
    {
      "time": "60960i",
      "midiNote": 66,
      "noteName": "F#4",
      "velocity": 1,
      "duration": "96i"
    },
    {
      "time": "61152i",
      "midiNote": 57,
      "noteName": "A3",
      "velocity": 0.8818897637795275,
      "duration": "192i"
    },
    {
      "time": "61152i",
      "midiNote": 61,
      "noteName": "C#4",
      "velocity": 0.8818897637795275,
      "duration": "192i"
    },
    {
      "time": "61152i",
      "midiNote": 66,
      "noteName": "F#4",
      "velocity": 1,
      "duration": "192i"
    },
    {
      "time": "61344i",
      "midiNote": 57,
      "noteName": "A3",
      "velocity": 0.8818897637795275,
      "duration": "96i"
    },
    {
      "time": "61344i",
      "midiNote": 61,
      "noteName": "C#4",
      "velocity": 0.8818897637795275,
      "duration": "96i"
    },
    {
      "time": "61344i",
      "midiNote": 66,
      "noteName": "F#4",
      "velocity": 1,
      "duration": "96i"
    },
    {
      "time": "61440i",
      "midiNote": 57,
      "noteName": "A3",
      "velocity": 0.8818897637795275,
      "duration": "96i"
    },
    {
      "time": "61440i",
      "midiNote": 61,
      "noteName": "C#4",
      "velocity": 0.8818897637795275,
      "duration": "96i"
    },
    {
      "time": "61440i",
      "midiNote": 66,
      "noteName": "F#4",
      "velocity": 1,
      "duration": "96i"
    },
    {
      "time": "61536i",
      "midiNote": 57,
      "noteName": "A3",
      "velocity": 0.7559055118110236,
      "duration": "96i"
    },
    {
      "time": "61536i",
      "midiNote": 61,
      "noteName": "C#4",
      "velocity": 0.7559055118110236,
      "duration": "96i"
    },
    {
      "time": "61536i",
      "midiNote": 66,
      "noteName": "F#4",
      "velocity": 0.8818897637795275,
      "duration": "96i"
    },
    {
      "time": "61632i",
      "midiNote": 57,
      "noteName": "A3",
      "velocity": 0.8188976377952756,
      "duration": "96i"
    },
    {
      "time": "61632i",
      "midiNote": 61,
      "noteName": "C#4",
      "velocity": 0.8188976377952756,
      "duration": "96i"
    },
    {
      "time": "61632i",
      "midiNote": 66,
      "noteName": "F#4",
      "velocity": 0.9448818897637795,
      "duration": "96i"
    },
    {
      "time": "61728i",
      "midiNote": 57,
      "noteName": "A3",
      "velocity": 0.8818897637795275,
      "duration": "96i"
    },
    {
      "time": "61728i",
      "midiNote": 61,
      "noteName": "C#4",
      "velocity": 0.8818897637795275,
      "duration": "96i"
    },
    {
      "time": "61728i",
      "midiNote": 66,
      "noteName": "F#4",
      "velocity": 1,
      "duration": "96i"
    },
    {
      "time": "61920i",
      "midiNote": 57,
      "noteName": "A3",
      "velocity": 0.8818897637795275,
      "duration": "192i"
    },
    {
      "time": "61920i",
      "midiNote": 61,
      "noteName": "C#4",
      "velocity": 0.8818897637795275,
      "duration": "192i"
    },
    {
      "time": "61920i",
      "midiNote": 66,
      "noteName": "F#4",
      "velocity": 1,
      "duration": "192i"
    },
    {
      "time": "62112i",
      "midiNote": 57,
      "noteName": "A3",
      "velocity": 0.8818897637795275,
      "duration": "96i"
    },
    {
      "time": "62112i",
      "midiNote": 61,
      "noteName": "C#4",
      "velocity": 0.8818897637795275,
      "duration": "96i"
    },
    {
      "time": "62112i",
      "midiNote": 66,
      "noteName": "F#4",
      "velocity": 1,
      "duration": "192i"
    },
    {
      "time": "62208i",
      "midiNote": 57,
      "noteName": "A3",
      "velocity": 0.8818897637795275,
      "duration": "96i"
    },
    {
      "time": "62208i",
      "midiNote": 62,
      "noteName": "D4",
      "velocity": 0.8818897637795275,
      "duration": "96i"
    },
    {
      "time": "62208i",
      "midiNote": 66,
      "noteName": "F#4",
      "velocity": 1,
      "duration": "0i"
    },
    {
      "time": "62304i",
      "midiNote": 57,
      "noteName": "A3",
      "velocity": 0.7559055118110236,
      "duration": "96i"
    },
    {
      "time": "62304i",
      "midiNote": 62,
      "noteName": "D4",
      "velocity": 0.7559055118110236,
      "duration": "96i"
    },
    {
      "time": "62304i",
      "midiNote": 66,
      "noteName": "F#4",
      "velocity": 0.8818897637795275,
      "duration": "96i"
    },
    {
      "time": "62400i",
      "midiNote": 57,
      "noteName": "A3",
      "velocity": 0.8188976377952756,
      "duration": "96i"
    },
    {
      "time": "62400i",
      "midiNote": 62,
      "noteName": "D4",
      "velocity": 0.8188976377952756,
      "duration": "96i"
    },
    {
      "time": "62400i",
      "midiNote": 66,
      "noteName": "F#4",
      "velocity": 0.9448818897637795,
      "duration": "96i"
    },
    {
      "time": "62496i",
      "midiNote": 57,
      "noteName": "A3",
      "velocity": 0.8818897637795275,
      "duration": "96i"
    },
    {
      "time": "62496i",
      "midiNote": 62,
      "noteName": "D4",
      "velocity": 0.8818897637795275,
      "duration": "96i"
    },
    {
      "time": "62496i",
      "midiNote": 66,
      "noteName": "F#4",
      "velocity": 1,
      "duration": "96i"
    },
    {
      "time": "62688i",
      "midiNote": 57,
      "noteName": "A3",
      "velocity": 0.8818897637795275,
      "duration": "192i"
    },
    {
      "time": "62688i",
      "midiNote": 62,
      "noteName": "D4",
      "velocity": 0.8818897637795275,
      "duration": "192i"
    },
    {
      "time": "62688i",
      "midiNote": 66,
      "noteName": "F#4",
      "velocity": 1,
      "duration": "192i"
    },
    {
      "time": "62880i",
      "midiNote": 57,
      "noteName": "A3",
      "velocity": 0.8818897637795275,
      "duration": "96i"
    },
    {
      "time": "62880i",
      "midiNote": 62,
      "noteName": "D4",
      "velocity": 0.8818897637795275,
      "duration": "96i"
    },
    {
      "time": "62880i",
      "midiNote": 66,
      "noteName": "F#4",
      "velocity": 1,
      "duration": "96i"
    },
    {
      "time": "62976i",
      "midiNote": 57,
      "noteName": "A3",
      "velocity": 0.8818897637795275,
      "duration": "96i"
    },
    {
      "time": "62976i",
      "midiNote": 62,
      "noteName": "D4",
      "velocity": 0.8818897637795275,
      "duration": "96i"
    },
    {
      "time": "62976i",
      "midiNote": 66,
      "noteName": "F#4",
      "velocity": 1,
      "duration": "96i"
    },
    {
      "time": "63072i",
      "midiNote": 57,
      "noteName": "A3",
      "velocity": 0.7559055118110236,
      "duration": "96i"
    },
    {
      "time": "63072i",
      "midiNote": 62,
      "noteName": "D4",
      "velocity": 0.7559055118110236,
      "duration": "96i"
    },
    {
      "time": "63072i",
      "midiNote": 66,
      "noteName": "F#4",
      "velocity": 0.8818897637795275,
      "duration": "96i"
    },
    {
      "time": "63168i",
      "midiNote": 57,
      "noteName": "A3",
      "velocity": 0.8188976377952756,
      "duration": "96i"
    },
    {
      "time": "63168i",
      "midiNote": 62,
      "noteName": "D4",
      "velocity": 0.8188976377952756,
      "duration": "96i"
    },
    {
      "time": "63168i",
      "midiNote": 66,
      "noteName": "F#4",
      "velocity": 0.9448818897637795,
      "duration": "96i"
    },
    {
      "time": "63264i",
      "midiNote": 57,
      "noteName": "A3",
      "velocity": 0.8818897637795275,
      "duration": "96i"
    },
    {
      "time": "63264i",
      "midiNote": 62,
      "noteName": "D4",
      "velocity": 0.8818897637795275,
      "duration": "96i"
    },
    {
      "time": "63264i",
      "midiNote": 66,
      "noteName": "F#4",
      "velocity": 1,
      "duration": "96i"
    },
    {
      "time": "63456i",
      "midiNote": 57,
      "noteName": "A3",
      "velocity": 0.8818897637795275,
      "duration": "192i"
    },
    {
      "time": "63456i",
      "midiNote": 62,
      "noteName": "D4",
      "velocity": 0.8818897637795275,
      "duration": "192i"
    },
    {
      "time": "63456i",
      "midiNote": 66,
      "noteName": "F#4",
      "velocity": 1,
      "duration": "192i"
    },
    {
      "time": "63648i",
      "midiNote": 57,
      "noteName": "A3",
      "velocity": 0.8818897637795275,
      "duration": "96i"
    },
    {
      "time": "63648i",
      "midiNote": 62,
      "noteName": "D4",
      "velocity": 0.8818897637795275,
      "duration": "96i"
    },
    {
      "time": "63648i",
      "midiNote": 66,
      "noteName": "F#4",
      "velocity": 1,
      "duration": "96i"
    },
    {
      "time": "63744i",
      "midiNote": 50,
      "noteName": "D3",
      "velocity": 0.8818897637795275,
      "duration": "96i"
    },
    {
      "time": "63744i",
      "midiNote": 56,
      "noteName": "G#3",
      "velocity": 0.8818897637795275,
      "duration": "96i"
    },
    {
      "time": "63744i",
      "midiNote": 64,
      "noteName": "E4",
      "velocity": 1,
      "duration": "96i"
    },
    {
      "time": "63840i",
      "midiNote": 50,
      "noteName": "D3",
      "velocity": 0.7559055118110236,
      "duration": "96i"
    },
    {
      "time": "63840i",
      "midiNote": 56,
      "noteName": "G#3",
      "velocity": 0.7559055118110236,
      "duration": "96i"
    },
    {
      "time": "63840i",
      "midiNote": 64,
      "noteName": "E4",
      "velocity": 0.8818897637795275,
      "duration": "96i"
    },
    {
      "time": "63936i",
      "midiNote": 50,
      "noteName": "D3",
      "velocity": 0.8188976377952756,
      "duration": "96i"
    },
    {
      "time": "63936i",
      "midiNote": 56,
      "noteName": "G#3",
      "velocity": 0.8188976377952756,
      "duration": "96i"
    },
    {
      "time": "63936i",
      "midiNote": 64,
      "noteName": "E4",
      "velocity": 0.9448818897637795,
      "duration": "96i"
    },
    {
      "time": "64032i",
      "midiNote": 50,
      "noteName": "D3",
      "velocity": 0.8818897637795275,
      "duration": "96i"
    },
    {
      "time": "64032i",
      "midiNote": 56,
      "noteName": "G#3",
      "velocity": 0.8818897637795275,
      "duration": "96i"
    },
    {
      "time": "64032i",
      "midiNote": 64,
      "noteName": "E4",
      "velocity": 1,
      "duration": "96i"
    },
    {
      "time": "64224i",
      "midiNote": 50,
      "noteName": "D3",
      "velocity": 0.8818897637795275,
      "duration": "192i"
    },
    {
      "time": "64224i",
      "midiNote": 56,
      "noteName": "G#3",
      "velocity": 0.8818897637795275,
      "duration": "192i"
    },
    {
      "time": "64224i",
      "midiNote": 64,
      "noteName": "E4",
      "velocity": 1,
      "duration": "192i"
    },
    {
      "time": "64416i",
      "midiNote": 50,
      "noteName": "D3",
      "velocity": 0.8818897637795275,
      "duration": "96i"
    },
    {
      "time": "64416i",
      "midiNote": 56,
      "noteName": "G#3",
      "velocity": 0.8818897637795275,
      "duration": "96i"
    },
    {
      "time": "64416i",
      "midiNote": 64,
      "noteName": "E4",
      "velocity": 1,
      "duration": "96i"
    },
    {
      "time": "64512i",
      "midiNote": 50,
      "noteName": "D3",
      "velocity": 0.8818897637795275,
      "duration": "96i"
    },
    {
      "time": "64512i",
      "midiNote": 56,
      "noteName": "G#3",
      "velocity": 0.8818897637795275,
      "duration": "96i"
    },
    {
      "time": "64512i",
      "midiNote": 64,
      "noteName": "E4",
      "velocity": 1,
      "duration": "96i"
    },
    {
      "time": "64608i",
      "midiNote": 50,
      "noteName": "D3",
      "velocity": 0.7559055118110236,
      "duration": "96i"
    },
    {
      "time": "64608i",
      "midiNote": 56,
      "noteName": "G#3",
      "velocity": 0.7559055118110236,
      "duration": "96i"
    },
    {
      "time": "64608i",
      "midiNote": 64,
      "noteName": "E4",
      "velocity": 0.8818897637795275,
      "duration": "96i"
    },
    {
      "time": "64704i",
      "midiNote": 50,
      "noteName": "D3",
      "velocity": 0.8188976377952756,
      "duration": "96i"
    },
    {
      "time": "64704i",
      "midiNote": 56,
      "noteName": "G#3",
      "velocity": 0.8188976377952756,
      "duration": "96i"
    },
    {
      "time": "64704i",
      "midiNote": 64,
      "noteName": "E4",
      "velocity": 0.9448818897637795,
      "duration": "96i"
    },
    {
      "time": "64800i",
      "midiNote": 50,
      "noteName": "D3",
      "velocity": 0.8818897637795275,
      "duration": "96i"
    },
    {
      "time": "64800i",
      "midiNote": 56,
      "noteName": "G#3",
      "velocity": 0.8818897637795275,
      "duration": "96i"
    },
    {
      "time": "64800i",
      "midiNote": 64,
      "noteName": "E4",
      "velocity": 1,
      "duration": "96i"
    },
    {
      "time": "64992i",
      "midiNote": 50,
      "noteName": "D3",
      "velocity": 0.8818897637795275,
      "duration": "192i"
    },
    {
      "time": "64992i",
      "midiNote": 56,
      "noteName": "G#3",
      "velocity": 0.8818897637795275,
      "duration": "192i"
    },
    {
      "time": "64992i",
      "midiNote": 64,
      "noteName": "E4",
      "velocity": 1,
      "duration": "192i"
    },
    {
      "time": "65184i",
      "midiNote": 50,
      "noteName": "D3",
      "velocity": 0.8818897637795275,
      "duration": "96i"
    },
    {
      "time": "65184i",
      "midiNote": 56,
      "noteName": "G#3",
      "velocity": 0.8818897637795275,
      "duration": "96i"
    },
    {
      "time": "65184i",
      "midiNote": 64,
      "noteName": "E4",
      "velocity": 1,
      "duration": "96i"
    },
    {
      "time": "65280i",
      "midiNote": 59,
      "noteName": "B3",
      "velocity": 0.8818897637795275,
      "duration": "96i"
    },
    {
      "time": "65280i",
      "midiNote": 56,
      "noteName": "G#3",
      "velocity": 0.8818897637795275,
      "duration": "96i"
    },
    {
      "time": "65280i",
      "midiNote": 65,
      "noteName": "F4",
      "velocity": 1,
      "duration": "96i"
    },
    {
      "time": "65376i",
      "midiNote": 59,
      "noteName": "B3",
      "velocity": 0.7559055118110236,
      "duration": "96i"
    },
    {
      "time": "65376i",
      "midiNote": 56,
      "noteName": "G#3",
      "velocity": 0.7559055118110236,
      "duration": "96i"
    },
    {
      "time": "65376i",
      "midiNote": 65,
      "noteName": "F4",
      "velocity": 0.8818897637795275,
      "duration": "96i"
    },
    {
      "time": "65472i",
      "midiNote": 59,
      "noteName": "B3",
      "velocity": 0.8188976377952756,
      "duration": "96i"
    },
    {
      "time": "65472i",
      "midiNote": 56,
      "noteName": "G#3",
      "velocity": 0.8188976377952756,
      "duration": "96i"
    },
    {
      "time": "65472i",
      "midiNote": 65,
      "noteName": "F4",
      "velocity": 0.9448818897637795,
      "duration": "96i"
    },
    {
      "time": "65568i",
      "midiNote": 59,
      "noteName": "B3",
      "velocity": 0.8818897637795275,
      "duration": "96i"
    },
    {
      "time": "65568i",
      "midiNote": 56,
      "noteName": "G#3",
      "velocity": 0.8818897637795275,
      "duration": "96i"
    },
    {
      "time": "65568i",
      "midiNote": 65,
      "noteName": "F4",
      "velocity": 1,
      "duration": "96i"
    },
    {
      "time": "65760i",
      "midiNote": 59,
      "noteName": "B3",
      "velocity": 0.8818897637795275,
      "duration": "192i"
    },
    {
      "time": "65760i",
      "midiNote": 56,
      "noteName": "G#3",
      "velocity": 0.8818897637795275,
      "duration": "192i"
    },
    {
      "time": "65760i",
      "midiNote": 65,
      "noteName": "F4",
      "velocity": 1,
      "duration": "192i"
    },
    {
      "time": "65952i",
      "midiNote": 59,
      "noteName": "B3",
      "velocity": 0.8818897637795275,
      "duration": "96i"
    },
    {
      "time": "65952i",
      "midiNote": 56,
      "noteName": "G#3",
      "velocity": 0.8818897637795275,
      "duration": "96i"
    },
    {
      "time": "65952i",
      "midiNote": 65,
      "noteName": "F4",
      "velocity": 1,
      "duration": "96i"
    },
    {
      "time": "66048i",
      "midiNote": 59,
      "noteName": "B3",
      "velocity": 0.8818897637795275,
      "duration": "96i"
    },
    {
      "time": "66048i",
      "midiNote": 56,
      "noteName": "G#3",
      "velocity": 0.8818897637795275,
      "duration": "96i"
    },
    {
      "time": "66048i",
      "midiNote": 65,
      "noteName": "F4",
      "velocity": 1,
      "duration": "96i"
    },
    {
      "time": "66144i",
      "midiNote": 59,
      "noteName": "B3",
      "velocity": 0.7559055118110236,
      "duration": "96i"
    },
    {
      "time": "66144i",
      "midiNote": 56,
      "noteName": "G#3",
      "velocity": 0.7559055118110236,
      "duration": "96i"
    },
    {
      "time": "66144i",
      "midiNote": 65,
      "noteName": "F4",
      "velocity": 0.8818897637795275,
      "duration": "96i"
    },
    {
      "time": "66240i",
      "midiNote": 59,
      "noteName": "B3",
      "velocity": 0.8188976377952756,
      "duration": "96i"
    },
    {
      "time": "66240i",
      "midiNote": 56,
      "noteName": "G#3",
      "velocity": 0.8188976377952756,
      "duration": "96i"
    },
    {
      "time": "66240i",
      "midiNote": 65,
      "noteName": "F4",
      "velocity": 0.9448818897637795,
      "duration": "96i"
    },
    {
      "time": "66336i",
      "midiNote": 59,
      "noteName": "B3",
      "velocity": 0.8818897637795275,
      "duration": "96i"
    },
    {
      "time": "66336i",
      "midiNote": 56,
      "noteName": "G#3",
      "velocity": 0.8818897637795275,
      "duration": "96i"
    },
    {
      "time": "66336i",
      "midiNote": 65,
      "noteName": "F4",
      "velocity": 1,
      "duration": "96i"
    },
    {
      "time": "66528i",
      "midiNote": 59,
      "noteName": "B3",
      "velocity": 0.8818897637795275,
      "duration": "192i"
    },
    {
      "time": "66528i",
      "midiNote": 56,
      "noteName": "G#3",
      "velocity": 0.8818897637795275,
      "duration": "192i"
    },
    {
      "time": "66528i",
      "midiNote": 65,
      "noteName": "F4",
      "velocity": 1,
      "duration": "192i"
    },
    {
      "time": "66720i",
      "midiNote": 59,
      "noteName": "B3",
      "velocity": 0.8818897637795275,
      "duration": "96i"
    },
    {
      "time": "66720i",
      "midiNote": 56,
      "noteName": "G#3",
      "velocity": 0.8818897637795275,
      "duration": "96i"
    },
    {
      "time": "66720i",
      "midiNote": 65,
      "noteName": "F4",
      "velocity": 1,
      "duration": "96i"
    },
    {
      "time": "66816i",
      "midiNote": 66,
      "noteName": "F#4",
      "velocity": 1,
      "duration": "96i"
    },
    {
      "time": "66816i",
      "midiNote": 61,
      "noteName": "C#4",
      "velocity": 0.8818897637795275,
      "duration": "96i"
    },
    {
      "time": "66816i",
      "midiNote": 57,
      "noteName": "A3",
      "velocity": 0.8818897637795275,
      "duration": "96i"
    },
    {
      "time": "66912i",
      "midiNote": 66,
      "noteName": "F#4",
      "velocity": 0.8818897637795275,
      "duration": "96i"
    },
    {
      "time": "66912i",
      "midiNote": 61,
      "noteName": "C#4",
      "velocity": 0.7559055118110236,
      "duration": "96i"
    },
    {
      "time": "66912i",
      "midiNote": 57,
      "noteName": "A3",
      "velocity": 0.7559055118110236,
      "duration": "96i"
    },
    {
      "time": "67008i",
      "midiNote": 66,
      "noteName": "F#4",
      "velocity": 0.9448818897637795,
      "duration": "96i"
    },
    {
      "time": "67008i",
      "midiNote": 61,
      "noteName": "C#4",
      "velocity": 0.8188976377952756,
      "duration": "96i"
    },
    {
      "time": "67008i",
      "midiNote": 57,
      "noteName": "A3",
      "velocity": 0.8188976377952756,
      "duration": "96i"
    },
    {
      "time": "67104i",
      "midiNote": 66,
      "noteName": "F#4",
      "velocity": 1,
      "duration": "96i"
    },
    {
      "time": "67104i",
      "midiNote": 61,
      "noteName": "C#4",
      "velocity": 0.8818897637795275,
      "duration": "96i"
    },
    {
      "time": "67104i",
      "midiNote": 57,
      "noteName": "A3",
      "velocity": 0.8818897637795275,
      "duration": "96i"
    },
    {
      "time": "67296i",
      "midiNote": 66,
      "noteName": "F#4",
      "velocity": 1,
      "duration": "192i"
    },
    {
      "time": "67296i",
      "midiNote": 61,
      "noteName": "C#4",
      "velocity": 0.8818897637795275,
      "duration": "192i"
    },
    {
      "time": "67296i",
      "midiNote": 57,
      "noteName": "A3",
      "velocity": 0.8818897637795275,
      "duration": "192i"
    },
    {
      "time": "67488i",
      "midiNote": 66,
      "noteName": "F#4",
      "velocity": 1,
      "duration": "96i"
    },
    {
      "time": "67488i",
      "midiNote": 61,
      "noteName": "C#4",
      "velocity": 0.8818897637795275,
      "duration": "96i"
    },
    {
      "time": "67488i",
      "midiNote": 57,
      "noteName": "A3",
      "velocity": 0.8818897637795275,
      "duration": "96i"
    },
    {
      "time": "67584i",
      "midiNote": 66,
      "noteName": "F#4",
      "velocity": 1,
      "duration": "96i"
    },
    {
      "time": "67584i",
      "midiNote": 61,
      "noteName": "C#4",
      "velocity": 0.8818897637795275,
      "duration": "96i"
    },
    {
      "time": "67584i",
      "midiNote": 57,
      "noteName": "A3",
      "velocity": 0.8818897637795275,
      "duration": "96i"
    },
    {
      "time": "67680i",
      "midiNote": 66,
      "noteName": "F#4",
      "velocity": 0.8818897637795275,
      "duration": "96i"
    },
    {
      "time": "67680i",
      "midiNote": 61,
      "noteName": "C#4",
      "velocity": 0.7559055118110236,
      "duration": "96i"
    },
    {
      "time": "67680i",
      "midiNote": 57,
      "noteName": "A3",
      "velocity": 0.7559055118110236,
      "duration": "96i"
    },
    {
      "time": "67776i",
      "midiNote": 66,
      "noteName": "F#4",
      "velocity": 0.9448818897637795,
      "duration": "96i"
    },
    {
      "time": "67776i",
      "midiNote": 61,
      "noteName": "C#4",
      "velocity": 0.8188976377952756,
      "duration": "96i"
    },
    {
      "time": "67776i",
      "midiNote": 57,
      "noteName": "A3",
      "velocity": 0.8188976377952756,
      "duration": "96i"
    },
    {
      "time": "67872i",
      "midiNote": 66,
      "noteName": "F#4",
      "velocity": 1,
      "duration": "96i"
    },
    {
      "time": "67872i",
      "midiNote": 61,
      "noteName": "C#4",
      "velocity": 0.8818897637795275,
      "duration": "96i"
    },
    {
      "time": "67872i",
      "midiNote": 57,
      "noteName": "A3",
      "velocity": 0.8818897637795275,
      "duration": "96i"
    },
    {
      "time": "68064i",
      "midiNote": 66,
      "noteName": "F#4",
      "velocity": 1,
      "duration": "192i"
    },
    {
      "time": "68064i",
      "midiNote": 61,
      "noteName": "C#4",
      "velocity": 0.8818897637795275,
      "duration": "192i"
    },
    {
      "time": "68064i",
      "midiNote": 57,
      "noteName": "A3",
      "velocity": 0.8818897637795275,
      "duration": "192i"
    },
    {
      "time": "68256i",
      "midiNote": 66,
      "noteName": "F#4",
      "velocity": 1,
      "duration": "96i"
    },
    {
      "time": "68256i",
      "midiNote": 61,
      "noteName": "C#4",
      "velocity": 0.8818897637795275,
      "duration": "96i"
    },
    {
      "time": "68256i",
      "midiNote": 57,
      "noteName": "A3",
      "velocity": 0.8818897637795275,
      "duration": "96i"
    },
    {
      "time": "68352i",
      "midiNote": 57,
      "noteName": "A3",
      "velocity": 0.8818897637795275,
      "duration": "96i"
    },
    {
      "time": "68352i",
      "midiNote": 62,
      "noteName": "D4",
      "velocity": 0.8818897637795275,
      "duration": "96i"
    },
    {
      "time": "68352i",
      "midiNote": 66,
      "noteName": "F#4",
      "velocity": 1,
      "duration": "96i"
    },
    {
      "time": "68448i",
      "midiNote": 57,
      "noteName": "A3",
      "velocity": 0.7559055118110236,
      "duration": "96i"
    },
    {
      "time": "68448i",
      "midiNote": 62,
      "noteName": "D4",
      "velocity": 0.7559055118110236,
      "duration": "96i"
    },
    {
      "time": "68448i",
      "midiNote": 66,
      "noteName": "F#4",
      "velocity": 0.8818897637795275,
      "duration": "96i"
    },
    {
      "time": "68544i",
      "midiNote": 57,
      "noteName": "A3",
      "velocity": 0.8188976377952756,
      "duration": "96i"
    },
    {
      "time": "68544i",
      "midiNote": 62,
      "noteName": "D4",
      "velocity": 0.8188976377952756,
      "duration": "96i"
    },
    {
      "time": "68544i",
      "midiNote": 66,
      "noteName": "F#4",
      "velocity": 0.9448818897637795,
      "duration": "96i"
    },
    {
      "time": "68640i",
      "midiNote": 57,
      "noteName": "A3",
      "velocity": 0.8818897637795275,
      "duration": "96i"
    },
    {
      "time": "68640i",
      "midiNote": 62,
      "noteName": "D4",
      "velocity": 0.8818897637795275,
      "duration": "96i"
    },
    {
      "time": "68640i",
      "midiNote": 66,
      "noteName": "F#4",
      "velocity": 1,
      "duration": "96i"
    },
    {
      "time": "68832i",
      "midiNote": 57,
      "noteName": "A3",
      "velocity": 0.8818897637795275,
      "duration": "192i"
    },
    {
      "time": "68832i",
      "midiNote": 62,
      "noteName": "D4",
      "velocity": 0.8818897637795275,
      "duration": "192i"
    },
    {
      "time": "68832i",
      "midiNote": 66,
      "noteName": "F#4",
      "velocity": 1,
      "duration": "192i"
    },
    {
      "time": "69024i",
      "midiNote": 57,
      "noteName": "A3",
      "velocity": 0.8818897637795275,
      "duration": "96i"
    },
    {
      "time": "69024i",
      "midiNote": 62,
      "noteName": "D4",
      "velocity": 0.8818897637795275,
      "duration": "96i"
    },
    {
      "time": "69024i",
      "midiNote": 66,
      "noteName": "F#4",
      "velocity": 1,
      "duration": "96i"
    },
    {
      "time": "69120i",
      "midiNote": 57,
      "noteName": "A3",
      "velocity": 0.8818897637795275,
      "duration": "96i"
    },
    {
      "time": "69120i",
      "midiNote": 62,
      "noteName": "D4",
      "velocity": 0.8818897637795275,
      "duration": "96i"
    },
    {
      "time": "69120i",
      "midiNote": 66,
      "noteName": "F#4",
      "velocity": 1,
      "duration": "96i"
    },
    {
      "time": "69216i",
      "midiNote": 57,
      "noteName": "A3",
      "velocity": 0.7559055118110236,
      "duration": "96i"
    },
    {
      "time": "69216i",
      "midiNote": 62,
      "noteName": "D4",
      "velocity": 0.7559055118110236,
      "duration": "96i"
    },
    {
      "time": "69216i",
      "midiNote": 66,
      "noteName": "F#4",
      "velocity": 0.8818897637795275,
      "duration": "96i"
    },
    {
      "time": "69312i",
      "midiNote": 57,
      "noteName": "A3",
      "velocity": 0.8188976377952756,
      "duration": "96i"
    },
    {
      "time": "69312i",
      "midiNote": 62,
      "noteName": "D4",
      "velocity": 0.8188976377952756,
      "duration": "96i"
    },
    {
      "time": "69312i",
      "midiNote": 66,
      "noteName": "F#4",
      "velocity": 0.9448818897637795,
      "duration": "96i"
    },
    {
      "time": "69408i",
      "midiNote": 57,
      "noteName": "A3",
      "velocity": 0.8818897637795275,
      "duration": "96i"
    },
    {
      "time": "69408i",
      "midiNote": 62,
      "noteName": "D4",
      "velocity": 0.8818897637795275,
      "duration": "96i"
    },
    {
      "time": "69408i",
      "midiNote": 66,
      "noteName": "F#4",
      "velocity": 1,
      "duration": "96i"
    },
    {
      "time": "69600i",
      "midiNote": 57,
      "noteName": "A3",
      "velocity": 0.8818897637795275,
      "duration": "192i"
    },
    {
      "time": "69600i",
      "midiNote": 62,
      "noteName": "D4",
      "velocity": 0.8818897637795275,
      "duration": "192i"
    },
    {
      "time": "69600i",
      "midiNote": 66,
      "noteName": "F#4",
      "velocity": 1,
      "duration": "192i"
    },
    {
      "time": "69792i",
      "midiNote": 57,
      "noteName": "A3",
      "velocity": 0.8818897637795275,
      "duration": "96i"
    },
    {
      "time": "69792i",
      "midiNote": 62,
      "noteName": "D4",
      "velocity": 0.8818897637795275,
      "duration": "96i"
    },
    {
      "time": "69792i",
      "midiNote": 66,
      "noteName": "F#4",
      "velocity": 1,
      "duration": "96i"
    },
    {
      "time": "69888i",
      "midiNote": 50,
      "noteName": "D3",
      "velocity": 0.8818897637795275,
      "duration": "96i"
    },
    {
      "time": "69888i",
      "midiNote": 56,
      "noteName": "G#3",
      "velocity": 0.8818897637795275,
      "duration": "96i"
    },
    {
      "time": "69888i",
      "midiNote": 64,
      "noteName": "E4",
      "velocity": 1,
      "duration": "96i"
    },
    {
      "time": "69984i",
      "midiNote": 50,
      "noteName": "D3",
      "velocity": 0.7559055118110236,
      "duration": "96i"
    },
    {
      "time": "69984i",
      "midiNote": 56,
      "noteName": "G#3",
      "velocity": 0.7559055118110236,
      "duration": "96i"
    },
    {
      "time": "69984i",
      "midiNote": 64,
      "noteName": "E4",
      "velocity": 0.8818897637795275,
      "duration": "96i"
    },
    {
      "time": "70080i",
      "midiNote": 50,
      "noteName": "D3",
      "velocity": 0.8188976377952756,
      "duration": "96i"
    },
    {
      "time": "70080i",
      "midiNote": 56,
      "noteName": "G#3",
      "velocity": 0.8188976377952756,
      "duration": "96i"
    },
    {
      "time": "70080i",
      "midiNote": 64,
      "noteName": "E4",
      "velocity": 0.9448818897637795,
      "duration": "96i"
    },
    {
      "time": "70176i",
      "midiNote": 50,
      "noteName": "D3",
      "velocity": 0.8818897637795275,
      "duration": "96i"
    },
    {
      "time": "70176i",
      "midiNote": 56,
      "noteName": "G#3",
      "velocity": 0.8818897637795275,
      "duration": "96i"
    },
    {
      "time": "70176i",
      "midiNote": 64,
      "noteName": "E4",
      "velocity": 1,
      "duration": "96i"
    },
    {
      "time": "70368i",
      "midiNote": 50,
      "noteName": "D3",
      "velocity": 0.8818897637795275,
      "duration": "192i"
    },
    {
      "time": "70368i",
      "midiNote": 56,
      "noteName": "G#3",
      "velocity": 0.8818897637795275,
      "duration": "192i"
    },
    {
      "time": "70368i",
      "midiNote": 64,
      "noteName": "E4",
      "velocity": 1,
      "duration": "192i"
    },
    {
      "time": "70560i",
      "midiNote": 50,
      "noteName": "D3",
      "velocity": 0.8818897637795275,
      "duration": "96i"
    },
    {
      "time": "70560i",
      "midiNote": 56,
      "noteName": "G#3",
      "velocity": 0.8818897637795275,
      "duration": "96i"
    },
    {
      "time": "70560i",
      "midiNote": 64,
      "noteName": "E4",
      "velocity": 1,
      "duration": "96i"
    },
    {
      "time": "70656i",
      "midiNote": 50,
      "noteName": "D3",
      "velocity": 0.8818897637795275,
      "duration": "96i"
    },
    {
      "time": "70656i",
      "midiNote": 56,
      "noteName": "G#3",
      "velocity": 0.8818897637795275,
      "duration": "96i"
    },
    {
      "time": "70656i",
      "midiNote": 64,
      "noteName": "E4",
      "velocity": 1,
      "duration": "96i"
    },
    {
      "time": "70752i",
      "midiNote": 50,
      "noteName": "D3",
      "velocity": 0.7559055118110236,
      "duration": "96i"
    },
    {
      "time": "70752i",
      "midiNote": 56,
      "noteName": "G#3",
      "velocity": 0.7559055118110236,
      "duration": "96i"
    },
    {
      "time": "70752i",
      "midiNote": 64,
      "noteName": "E4",
      "velocity": 0.8818897637795275,
      "duration": "96i"
    },
    {
      "time": "70848i",
      "midiNote": 50,
      "noteName": "D3",
      "velocity": 0.8188976377952756,
      "duration": "96i"
    },
    {
      "time": "70848i",
      "midiNote": 56,
      "noteName": "G#3",
      "velocity": 0.8188976377952756,
      "duration": "96i"
    },
    {
      "time": "70848i",
      "midiNote": 64,
      "noteName": "E4",
      "velocity": 0.9448818897637795,
      "duration": "96i"
    },
    {
      "time": "70944i",
      "midiNote": 50,
      "noteName": "D3",
      "velocity": 0.8818897637795275,
      "duration": "96i"
    },
    {
      "time": "70944i",
      "midiNote": 56,
      "noteName": "G#3",
      "velocity": 0.8818897637795275,
      "duration": "96i"
    },
    {
      "time": "70944i",
      "midiNote": 64,
      "noteName": "E4",
      "velocity": 1,
      "duration": "96i"
    },
    {
      "time": "71136i",
      "midiNote": 50,
      "noteName": "D3",
      "velocity": 0.8818897637795275,
      "duration": "192i"
    },
    {
      "time": "71136i",
      "midiNote": 56,
      "noteName": "G#3",
      "velocity": 0.8818897637795275,
      "duration": "192i"
    },
    {
      "time": "71136i",
      "midiNote": 64,
      "noteName": "E4",
      "velocity": 1,
      "duration": "192i"
    },
    {
      "time": "71328i",
      "midiNote": 50,
      "noteName": "D3",
      "velocity": 0.8818897637795275,
      "duration": "96i"
    },
    {
      "time": "71328i",
      "midiNote": 56,
      "noteName": "G#3",
      "velocity": 0.8818897637795275,
      "duration": "96i"
    },
    {
      "time": "71328i",
      "midiNote": 64,
      "noteName": "E4",
      "velocity": 1,
      "duration": "96i"
    },
    {
      "time": "71424i",
      "midiNote": 59,
      "noteName": "B3",
      "velocity": 0.8818897637795275,
      "duration": "96i"
    },
    {
      "time": "71424i",
      "midiNote": 56,
      "noteName": "G#3",
      "velocity": 0.8818897637795275,
      "duration": "96i"
    },
    {
      "time": "71424i",
      "midiNote": 65,
      "noteName": "F4",
      "velocity": 1,
      "duration": "96i"
    },
    {
      "time": "71520i",
      "midiNote": 59,
      "noteName": "B3",
      "velocity": 0.7559055118110236,
      "duration": "96i"
    },
    {
      "time": "71520i",
      "midiNote": 56,
      "noteName": "G#3",
      "velocity": 0.7559055118110236,
      "duration": "96i"
    },
    {
      "time": "71520i",
      "midiNote": 65,
      "noteName": "F4",
      "velocity": 0.8818897637795275,
      "duration": "96i"
    },
    {
      "time": "71616i",
      "midiNote": 59,
      "noteName": "B3",
      "velocity": 0.8188976377952756,
      "duration": "96i"
    },
    {
      "time": "71616i",
      "midiNote": 56,
      "noteName": "G#3",
      "velocity": 0.8188976377952756,
      "duration": "96i"
    },
    {
      "time": "71616i",
      "midiNote": 65,
      "noteName": "F4",
      "velocity": 0.9448818897637795,
      "duration": "96i"
    },
    {
      "time": "71712i",
      "midiNote": 59,
      "noteName": "B3",
      "velocity": 0.8818897637795275,
      "duration": "96i"
    },
    {
      "time": "71712i",
      "midiNote": 56,
      "noteName": "G#3",
      "velocity": 0.8818897637795275,
      "duration": "96i"
    },
    {
      "time": "71712i",
      "midiNote": 65,
      "noteName": "F4",
      "velocity": 1,
      "duration": "96i"
    },
    {
      "time": "71904i",
      "midiNote": 59,
      "noteName": "B3",
      "velocity": 0.8818897637795275,
      "duration": "192i"
    },
    {
      "time": "71904i",
      "midiNote": 56,
      "noteName": "G#3",
      "velocity": 0.8818897637795275,
      "duration": "192i"
    },
    {
      "time": "71904i",
      "midiNote": 65,
      "noteName": "F4",
      "velocity": 1,
      "duration": "192i"
    },
    {
      "time": "72096i",
      "midiNote": 59,
      "noteName": "B3",
      "velocity": 0.8818897637795275,
      "duration": "96i"
    },
    {
      "time": "72096i",
      "midiNote": 56,
      "noteName": "G#3",
      "velocity": 0.8818897637795275,
      "duration": "96i"
    },
    {
      "time": "72096i",
      "midiNote": 65,
      "noteName": "F4",
      "velocity": 1,
      "duration": "96i"
    },
    {
      "time": "72192i",
      "midiNote": 59,
      "noteName": "B3",
      "velocity": 0.8818897637795275,
      "duration": "96i"
    },
    {
      "time": "72192i",
      "midiNote": 56,
      "noteName": "G#3",
      "velocity": 0.8818897637795275,
      "duration": "96i"
    },
    {
      "time": "72192i",
      "midiNote": 65,
      "noteName": "F4",
      "velocity": 1,
      "duration": "96i"
    },
    {
      "time": "72288i",
      "midiNote": 59,
      "noteName": "B3",
      "velocity": 0.7559055118110236,
      "duration": "96i"
    },
    {
      "time": "72288i",
      "midiNote": 56,
      "noteName": "G#3",
      "velocity": 0.7559055118110236,
      "duration": "96i"
    },
    {
      "time": "72288i",
      "midiNote": 65,
      "noteName": "F4",
      "velocity": 0.8818897637795275,
      "duration": "96i"
    },
    {
      "time": "72384i",
      "midiNote": 59,
      "noteName": "B3",
      "velocity": 0.8188976377952756,
      "duration": "96i"
    },
    {
      "time": "72384i",
      "midiNote": 56,
      "noteName": "G#3",
      "velocity": 0.8188976377952756,
      "duration": "96i"
    },
    {
      "time": "72384i",
      "midiNote": 65,
      "noteName": "F4",
      "velocity": 0.9448818897637795,
      "duration": "96i"
    },
    {
      "time": "72480i",
      "midiNote": 59,
      "noteName": "B3",
      "velocity": 0.8818897637795275,
      "duration": "96i"
    },
    {
      "time": "72480i",
      "midiNote": 56,
      "noteName": "G#3",
      "velocity": 0.8818897637795275,
      "duration": "96i"
    },
    {
      "time": "72480i",
      "midiNote": 65,
      "noteName": "F4",
      "velocity": 1,
      "duration": "96i"
    },
    {
      "time": "72672i",
      "midiNote": 59,
      "noteName": "B3",
      "velocity": 0.8818897637795275,
      "duration": "192i"
    },
    {
      "time": "72672i",
      "midiNote": 56,
      "noteName": "G#3",
      "velocity": 0.8818897637795275,
      "duration": "192i"
    },
    {
      "time": "72672i",
      "midiNote": 65,
      "noteName": "F4",
      "velocity": 1,
      "duration": "192i"
    },
    {
      "time": "72864i",
      "midiNote": 59,
      "noteName": "B3",
      "velocity": 0.8818897637795275,
      "duration": "96i"
    },
    {
      "time": "72864i",
      "midiNote": 56,
      "noteName": "G#3",
      "velocity": 0.8818897637795275,
      "duration": "96i"
    },
    {
      "time": "72864i",
      "midiNote": 65,
      "noteName": "F4",
      "velocity": 1,
      "duration": "96i"
    },
    {
      "time": "72960i",
      "midiNote": 66,
      "noteName": "F#4",
      "velocity": 1,
      "duration": "96i"
    },
    {
      "time": "72960i",
      "midiNote": 61,
      "noteName": "C#4",
      "velocity": 0.8818897637795275,
      "duration": "96i"
    },
    {
      "time": "72960i",
      "midiNote": 57,
      "noteName": "A3",
      "velocity": 0.8818897637795275,
      "duration": "96i"
    },
    {
      "time": "73056i",
      "midiNote": 66,
      "noteName": "F#4",
      "velocity": 0.8818897637795275,
      "duration": "96i"
    },
    {
      "time": "73056i",
      "midiNote": 61,
      "noteName": "C#4",
      "velocity": 0.7559055118110236,
      "duration": "96i"
    },
    {
      "time": "73056i",
      "midiNote": 57,
      "noteName": "A3",
      "velocity": 0.7559055118110236,
      "duration": "96i"
    },
    {
      "time": "73152i",
      "midiNote": 66,
      "noteName": "F#4",
      "velocity": 0.9448818897637795,
      "duration": "96i"
    },
    {
      "time": "73152i",
      "midiNote": 61,
      "noteName": "C#4",
      "velocity": 0.8188976377952756,
      "duration": "96i"
    },
    {
      "time": "73152i",
      "midiNote": 57,
      "noteName": "A3",
      "velocity": 0.8188976377952756,
      "duration": "96i"
    },
    {
      "time": "73248i",
      "midiNote": 66,
      "noteName": "F#4",
      "velocity": 1,
      "duration": "96i"
    },
    {
      "time": "73248i",
      "midiNote": 61,
      "noteName": "C#4",
      "velocity": 0.8818897637795275,
      "duration": "96i"
    },
    {
      "time": "73248i",
      "midiNote": 57,
      "noteName": "A3",
      "velocity": 0.8818897637795275,
      "duration": "96i"
    },
    {
      "time": "73440i",
      "midiNote": 66,
      "noteName": "F#4",
      "velocity": 1,
      "duration": "192i"
    },
    {
      "time": "73440i",
      "midiNote": 61,
      "noteName": "C#4",
      "velocity": 0.8818897637795275,
      "duration": "192i"
    },
    {
      "time": "73440i",
      "midiNote": 57,
      "noteName": "A3",
      "velocity": 0.8818897637795275,
      "duration": "192i"
    },
    {
      "time": "73632i",
      "midiNote": 66,
      "noteName": "F#4",
      "velocity": 1,
      "duration": "96i"
    },
    {
      "time": "73632i",
      "midiNote": 61,
      "noteName": "C#4",
      "velocity": 0.8818897637795275,
      "duration": "96i"
    },
    {
      "time": "73632i",
      "midiNote": 57,
      "noteName": "A3",
      "velocity": 0.8818897637795275,
      "duration": "96i"
    },
    {
      "time": "73728i",
      "midiNote": 66,
      "noteName": "F#4",
      "velocity": 1,
      "duration": "96i"
    },
    {
      "time": "73728i",
      "midiNote": 61,
      "noteName": "C#4",
      "velocity": 0.8818897637795275,
      "duration": "96i"
    },
    {
      "time": "73728i",
      "midiNote": 57,
      "noteName": "A3",
      "velocity": 0.8818897637795275,
      "duration": "96i"
    },
    {
      "time": "73824i",
      "midiNote": 66,
      "noteName": "F#4",
      "velocity": 0.8818897637795275,
      "duration": "96i"
    },
    {
      "time": "73824i",
      "midiNote": 61,
      "noteName": "C#4",
      "velocity": 0.7559055118110236,
      "duration": "96i"
    },
    {
      "time": "73824i",
      "midiNote": 57,
      "noteName": "A3",
      "velocity": 0.7559055118110236,
      "duration": "96i"
    },
    {
      "time": "73920i",
      "midiNote": 66,
      "noteName": "F#4",
      "velocity": 0.9448818897637795,
      "duration": "96i"
    },
    {
      "time": "73920i",
      "midiNote": 61,
      "noteName": "C#4",
      "velocity": 0.8188976377952756,
      "duration": "96i"
    },
    {
      "time": "73920i",
      "midiNote": 57,
      "noteName": "A3",
      "velocity": 0.8188976377952756,
      "duration": "96i"
    },
    {
      "time": "74016i",
      "midiNote": 66,
      "noteName": "F#4",
      "velocity": 1,
      "duration": "96i"
    },
    {
      "time": "74016i",
      "midiNote": 61,
      "noteName": "C#4",
      "velocity": 0.8818897637795275,
      "duration": "96i"
    },
    {
      "time": "74016i",
      "midiNote": 57,
      "noteName": "A3",
      "velocity": 0.8818897637795275,
      "duration": "96i"
    },
    {
      "time": "74208i",
      "midiNote": 66,
      "noteName": "F#4",
      "velocity": 1,
      "duration": "192i"
    },
    {
      "time": "74208i",
      "midiNote": 61,
      "noteName": "C#4",
      "velocity": 0.8818897637795275,
      "duration": "192i"
    },
    {
      "time": "74208i",
      "midiNote": 57,
      "noteName": "A3",
      "velocity": 0.8818897637795275,
      "duration": "192i"
    },
    {
      "time": "74400i",
      "midiNote": 66,
      "noteName": "F#4",
      "velocity": 1,
      "duration": "96i"
    },
    {
      "time": "74400i",
      "midiNote": 61,
      "noteName": "C#4",
      "velocity": 0.8818897637795275,
      "duration": "96i"
    },
    {
      "time": "74400i",
      "midiNote": 57,
      "noteName": "A3",
      "velocity": 0.8818897637795275,
      "duration": "96i"
    },
    {
      "time": "74496i",
      "midiNote": 57,
      "noteName": "A3",
      "velocity": 0.8818897637795275,
      "duration": "96i"
    },
    {
      "time": "74496i",
      "midiNote": 62,
      "noteName": "D4",
      "velocity": 0.8818897637795275,
      "duration": "96i"
    },
    {
      "time": "74496i",
      "midiNote": 66,
      "noteName": "F#4",
      "velocity": 1,
      "duration": "96i"
    },
    {
      "time": "74592i",
      "midiNote": 57,
      "noteName": "A3",
      "velocity": 0.7559055118110236,
      "duration": "96i"
    },
    {
      "time": "74592i",
      "midiNote": 62,
      "noteName": "D4",
      "velocity": 0.7559055118110236,
      "duration": "96i"
    },
    {
      "time": "74592i",
      "midiNote": 66,
      "noteName": "F#4",
      "velocity": 0.8818897637795275,
      "duration": "96i"
    },
    {
      "time": "74688i",
      "midiNote": 57,
      "noteName": "A3",
      "velocity": 0.8188976377952756,
      "duration": "96i"
    },
    {
      "time": "74688i",
      "midiNote": 62,
      "noteName": "D4",
      "velocity": 0.8188976377952756,
      "duration": "96i"
    },
    {
      "time": "74688i",
      "midiNote": 66,
      "noteName": "F#4",
      "velocity": 0.9448818897637795,
      "duration": "96i"
    },
    {
      "time": "74784i",
      "midiNote": 57,
      "noteName": "A3",
      "velocity": 0.8818897637795275,
      "duration": "96i"
    },
    {
      "time": "74784i",
      "midiNote": 62,
      "noteName": "D4",
      "velocity": 0.8818897637795275,
      "duration": "96i"
    },
    {
      "time": "74784i",
      "midiNote": 66,
      "noteName": "F#4",
      "velocity": 1,
      "duration": "96i"
    },
    {
      "time": "74976i",
      "midiNote": 57,
      "noteName": "A3",
      "velocity": 0.8818897637795275,
      "duration": "192i"
    },
    {
      "time": "74976i",
      "midiNote": 62,
      "noteName": "D4",
      "velocity": 0.8818897637795275,
      "duration": "192i"
    },
    {
      "time": "74976i",
      "midiNote": 66,
      "noteName": "F#4",
      "velocity": 1,
      "duration": "192i"
    },
    {
      "time": "75168i",
      "midiNote": 57,
      "noteName": "A3",
      "velocity": 0.8818897637795275,
      "duration": "96i"
    },
    {
      "time": "75168i",
      "midiNote": 62,
      "noteName": "D4",
      "velocity": 0.8818897637795275,
      "duration": "96i"
    },
    {
      "time": "75168i",
      "midiNote": 66,
      "noteName": "F#4",
      "velocity": 1,
      "duration": "96i"
    },
    {
      "time": "75264i",
      "midiNote": 57,
      "noteName": "A3",
      "velocity": 0.8818897637795275,
      "duration": "96i"
    },
    {
      "time": "75264i",
      "midiNote": 62,
      "noteName": "D4",
      "velocity": 0.8818897637795275,
      "duration": "96i"
    },
    {
      "time": "75264i",
      "midiNote": 66,
      "noteName": "F#4",
      "velocity": 1,
      "duration": "96i"
    },
    {
      "time": "75360i",
      "midiNote": 57,
      "noteName": "A3",
      "velocity": 0.7559055118110236,
      "duration": "96i"
    },
    {
      "time": "75360i",
      "midiNote": 62,
      "noteName": "D4",
      "velocity": 0.7559055118110236,
      "duration": "96i"
    },
    {
      "time": "75360i",
      "midiNote": 66,
      "noteName": "F#4",
      "velocity": 0.8818897637795275,
      "duration": "96i"
    },
    {
      "time": "75456i",
      "midiNote": 57,
      "noteName": "A3",
      "velocity": 0.8188976377952756,
      "duration": "96i"
    },
    {
      "time": "75456i",
      "midiNote": 62,
      "noteName": "D4",
      "velocity": 0.8188976377952756,
      "duration": "96i"
    },
    {
      "time": "75456i",
      "midiNote": 66,
      "noteName": "F#4",
      "velocity": 0.9448818897637795,
      "duration": "96i"
    },
    {
      "time": "75552i",
      "midiNote": 57,
      "noteName": "A3",
      "velocity": 0.8818897637795275,
      "duration": "96i"
    },
    {
      "time": "75552i",
      "midiNote": 62,
      "noteName": "D4",
      "velocity": 0.8818897637795275,
      "duration": "96i"
    },
    {
      "time": "75552i",
      "midiNote": 66,
      "noteName": "F#4",
      "velocity": 1,
      "duration": "96i"
    },
    {
      "time": "75744i",
      "midiNote": 57,
      "noteName": "A3",
      "velocity": 0.8818897637795275,
      "duration": "192i"
    },
    {
      "time": "75744i",
      "midiNote": 62,
      "noteName": "D4",
      "velocity": 0.8818897637795275,
      "duration": "192i"
    },
    {
      "time": "75744i",
      "midiNote": 66,
      "noteName": "F#4",
      "velocity": 1,
      "duration": "192i"
    },
    {
      "time": "75936i",
      "midiNote": 57,
      "noteName": "A3",
      "velocity": 0.8818897637795275,
      "duration": "96i"
    },
    {
      "time": "75936i",
      "midiNote": 62,
      "noteName": "D4",
      "velocity": 0.8818897637795275,
      "duration": "96i"
    },
    {
      "time": "75936i",
      "midiNote": 66,
      "noteName": "F#4",
      "velocity": 1,
      "duration": "96i"
    },
    {
      "time": "76032i",
      "midiNote": 50,
      "noteName": "D3",
      "velocity": 0.8818897637795275,
      "duration": "96i"
    },
    {
      "time": "76032i",
      "midiNote": 56,
      "noteName": "G#3",
      "velocity": 0.8818897637795275,
      "duration": "96i"
    },
    {
      "time": "76032i",
      "midiNote": 64,
      "noteName": "E4",
      "velocity": 1,
      "duration": "96i"
    },
    {
      "time": "76128i",
      "midiNote": 50,
      "noteName": "D3",
      "velocity": 0.7559055118110236,
      "duration": "96i"
    },
    {
      "time": "76128i",
      "midiNote": 56,
      "noteName": "G#3",
      "velocity": 0.7559055118110236,
      "duration": "96i"
    },
    {
      "time": "76128i",
      "midiNote": 64,
      "noteName": "E4",
      "velocity": 0.8818897637795275,
      "duration": "96i"
    },
    {
      "time": "76224i",
      "midiNote": 50,
      "noteName": "D3",
      "velocity": 0.8188976377952756,
      "duration": "96i"
    },
    {
      "time": "76224i",
      "midiNote": 56,
      "noteName": "G#3",
      "velocity": 0.8188976377952756,
      "duration": "96i"
    },
    {
      "time": "76224i",
      "midiNote": 64,
      "noteName": "E4",
      "velocity": 0.9448818897637795,
      "duration": "96i"
    },
    {
      "time": "76320i",
      "midiNote": 50,
      "noteName": "D3",
      "velocity": 0.8818897637795275,
      "duration": "96i"
    },
    {
      "time": "76320i",
      "midiNote": 56,
      "noteName": "G#3",
      "velocity": 0.8818897637795275,
      "duration": "96i"
    },
    {
      "time": "76320i",
      "midiNote": 64,
      "noteName": "E4",
      "velocity": 1,
      "duration": "96i"
    },
    {
      "time": "76512i",
      "midiNote": 50,
      "noteName": "D3",
      "velocity": 0.8818897637795275,
      "duration": "192i"
    },
    {
      "time": "76512i",
      "midiNote": 56,
      "noteName": "G#3",
      "velocity": 0.8818897637795275,
      "duration": "192i"
    },
    {
      "time": "76512i",
      "midiNote": 64,
      "noteName": "E4",
      "velocity": 1,
      "duration": "192i"
    },
    {
      "time": "76704i",
      "midiNote": 50,
      "noteName": "D3",
      "velocity": 0.8818897637795275,
      "duration": "96i"
    },
    {
      "time": "76704i",
      "midiNote": 56,
      "noteName": "G#3",
      "velocity": 0.8818897637795275,
      "duration": "96i"
    },
    {
      "time": "76704i",
      "midiNote": 64,
      "noteName": "E4",
      "velocity": 1,
      "duration": "96i"
    },
    {
      "time": "76800i",
      "midiNote": 50,
      "noteName": "D3",
      "velocity": 0.8818897637795275,
      "duration": "96i"
    },
    {
      "time": "76800i",
      "midiNote": 56,
      "noteName": "G#3",
      "velocity": 0.8818897637795275,
      "duration": "96i"
    },
    {
      "time": "76800i",
      "midiNote": 64,
      "noteName": "E4",
      "velocity": 1,
      "duration": "96i"
    },
    {
      "time": "76896i",
      "midiNote": 50,
      "noteName": "D3",
      "velocity": 0.7559055118110236,
      "duration": "96i"
    },
    {
      "time": "76896i",
      "midiNote": 56,
      "noteName": "G#3",
      "velocity": 0.7559055118110236,
      "duration": "96i"
    },
    {
      "time": "76896i",
      "midiNote": 64,
      "noteName": "E4",
      "velocity": 0.8818897637795275,
      "duration": "96i"
    },
    {
      "time": "76992i",
      "midiNote": 50,
      "noteName": "D3",
      "velocity": 0.8188976377952756,
      "duration": "96i"
    },
    {
      "time": "76992i",
      "midiNote": 56,
      "noteName": "G#3",
      "velocity": 0.8188976377952756,
      "duration": "96i"
    },
    {
      "time": "76992i",
      "midiNote": 64,
      "noteName": "E4",
      "velocity": 0.9448818897637795,
      "duration": "96i"
    },
    {
      "time": "77088i",
      "midiNote": 50,
      "noteName": "D3",
      "velocity": 0.8818897637795275,
      "duration": "96i"
    },
    {
      "time": "77088i",
      "midiNote": 56,
      "noteName": "G#3",
      "velocity": 0.8818897637795275,
      "duration": "96i"
    },
    {
      "time": "77088i",
      "midiNote": 64,
      "noteName": "E4",
      "velocity": 1,
      "duration": "96i"
    },
    {
      "time": "77280i",
      "midiNote": 50,
      "noteName": "D3",
      "velocity": 0.8818897637795275,
      "duration": "192i"
    },
    {
      "time": "77280i",
      "midiNote": 56,
      "noteName": "G#3",
      "velocity": 0.8818897637795275,
      "duration": "192i"
    },
    {
      "time": "77280i",
      "midiNote": 64,
      "noteName": "E4",
      "velocity": 1,
      "duration": "192i"
    },
    {
      "time": "77472i",
      "midiNote": 50,
      "noteName": "D3",
      "velocity": 0.8818897637795275,
      "duration": "96i"
    },
    {
      "time": "77472i",
      "midiNote": 56,
      "noteName": "G#3",
      "velocity": 0.8818897637795275,
      "duration": "96i"
    },
    {
      "time": "77472i",
      "midiNote": 64,
      "noteName": "E4",
      "velocity": 1,
      "duration": "96i"
    },
    {
      "time": "77568i",
      "midiNote": 59,
      "noteName": "B3",
      "velocity": 0.8818897637795275,
      "duration": "96i"
    },
    {
      "time": "77568i",
      "midiNote": 56,
      "noteName": "G#3",
      "velocity": 0.8818897637795275,
      "duration": "96i"
    },
    {
      "time": "77568i",
      "midiNote": 65,
      "noteName": "F4",
      "velocity": 1,
      "duration": "96i"
    },
    {
      "time": "77664i",
      "midiNote": 59,
      "noteName": "B3",
      "velocity": 0.7559055118110236,
      "duration": "96i"
    },
    {
      "time": "77664i",
      "midiNote": 56,
      "noteName": "G#3",
      "velocity": 0.7559055118110236,
      "duration": "96i"
    },
    {
      "time": "77664i",
      "midiNote": 65,
      "noteName": "F4",
      "velocity": 0.8818897637795275,
      "duration": "96i"
    },
    {
      "time": "77760i",
      "midiNote": 59,
      "noteName": "B3",
      "velocity": 0.8188976377952756,
      "duration": "96i"
    },
    {
      "time": "77760i",
      "midiNote": 56,
      "noteName": "G#3",
      "velocity": 0.8188976377952756,
      "duration": "96i"
    },
    {
      "time": "77760i",
      "midiNote": 65,
      "noteName": "F4",
      "velocity": 0.9448818897637795,
      "duration": "96i"
    },
    {
      "time": "77856i",
      "midiNote": 59,
      "noteName": "B3",
      "velocity": 0.8818897637795275,
      "duration": "96i"
    },
    {
      "time": "77856i",
      "midiNote": 56,
      "noteName": "G#3",
      "velocity": 0.8818897637795275,
      "duration": "96i"
    },
    {
      "time": "77856i",
      "midiNote": 65,
      "noteName": "F4",
      "velocity": 1,
      "duration": "96i"
    },
    {
      "time": "78048i",
      "midiNote": 59,
      "noteName": "B3",
      "velocity": 0.8818897637795275,
      "duration": "192i"
    },
    {
      "time": "78048i",
      "midiNote": 56,
      "noteName": "G#3",
      "velocity": 0.8818897637795275,
      "duration": "192i"
    },
    {
      "time": "78048i",
      "midiNote": 65,
      "noteName": "F4",
      "velocity": 1,
      "duration": "192i"
    },
    {
      "time": "78240i",
      "midiNote": 59,
      "noteName": "B3",
      "velocity": 0.8818897637795275,
      "duration": "96i"
    },
    {
      "time": "78240i",
      "midiNote": 56,
      "noteName": "G#3",
      "velocity": 0.8818897637795275,
      "duration": "96i"
    },
    {
      "time": "78240i",
      "midiNote": 65,
      "noteName": "F4",
      "velocity": 1,
      "duration": "96i"
    },
    {
      "time": "78336i",
      "midiNote": 59,
      "noteName": "B3",
      "velocity": 0.8818897637795275,
      "duration": "96i"
    },
    {
      "time": "78336i",
      "midiNote": 56,
      "noteName": "G#3",
      "velocity": 0.8818897637795275,
      "duration": "96i"
    },
    {
      "time": "78336i",
      "midiNote": 65,
      "noteName": "F4",
      "velocity": 1,
      "duration": "96i"
    },
    {
      "time": "78432i",
      "midiNote": 59,
      "noteName": "B3",
      "velocity": 0.7559055118110236,
      "duration": "96i"
    },
    {
      "time": "78432i",
      "midiNote": 56,
      "noteName": "G#3",
      "velocity": 0.7559055118110236,
      "duration": "96i"
    },
    {
      "time": "78432i",
      "midiNote": 65,
      "noteName": "F4",
      "velocity": 0.8818897637795275,
      "duration": "96i"
    },
    {
      "time": "78528i",
      "midiNote": 59,
      "noteName": "B3",
      "velocity": 0.8188976377952756,
      "duration": "96i"
    },
    {
      "time": "78528i",
      "midiNote": 56,
      "noteName": "G#3",
      "velocity": 0.8188976377952756,
      "duration": "96i"
    },
    {
      "time": "78528i",
      "midiNote": 65,
      "noteName": "F4",
      "velocity": 0.9448818897637795,
      "duration": "96i"
    },
    {
      "time": "78624i",
      "midiNote": 59,
      "noteName": "B3",
      "velocity": 0.8818897637795275,
      "duration": "96i"
    },
    {
      "time": "78624i",
      "midiNote": 56,
      "noteName": "G#3",
      "velocity": 0.8818897637795275,
      "duration": "96i"
    },
    {
      "time": "78624i",
      "midiNote": 65,
      "noteName": "F4",
      "velocity": 1,
      "duration": "96i"
    },
    {
      "time": "78816i",
      "midiNote": 59,
      "noteName": "B3",
      "velocity": 0.8818897637795275,
      "duration": "192i"
    },
    {
      "time": "78816i",
      "midiNote": 56,
      "noteName": "G#3",
      "velocity": 0.8818897637795275,
      "duration": "192i"
    },
    {
      "time": "78816i",
      "midiNote": 65,
      "noteName": "F4",
      "velocity": 1,
      "duration": "192i"
    },
    {
      "time": "79008i",
      "midiNote": 59,
      "noteName": "B3",
      "velocity": 0.8818897637795275,
      "duration": "96i"
    },
    {
      "time": "79008i",
      "midiNote": 56,
      "noteName": "G#3",
      "velocity": 0.8818897637795275,
      "duration": "96i"
    },
    {
      "time": "79008i",
      "midiNote": 65,
      "noteName": "F4",
      "velocity": 1,
      "duration": "96i"
    },
    {
      "time": "79104i",
      "midiNote": 57,
      "noteName": "A3",
      "velocity": 0.8818897637795275,
      "duration": "96i"
    },
    {
      "time": "79104i",
      "midiNote": 61,
      "noteName": "C#4",
      "velocity": 0.8818897637795275,
      "duration": "96i"
    },
    {
      "time": "79104i",
      "midiNote": 66,
      "noteName": "F#4",
      "velocity": 1,
      "duration": "96i"
    },
    {
      "time": "79200i",
      "midiNote": 57,
      "noteName": "A3",
      "velocity": 0.7559055118110236,
      "duration": "96i"
    },
    {
      "time": "79200i",
      "midiNote": 61,
      "noteName": "C#4",
      "velocity": 0.7559055118110236,
      "duration": "96i"
    },
    {
      "time": "79200i",
      "midiNote": 66,
      "noteName": "F#4",
      "velocity": 0.8818897637795275,
      "duration": "96i"
    },
    {
      "time": "79296i",
      "midiNote": 57,
      "noteName": "A3",
      "velocity": 0.8188976377952756,
      "duration": "96i"
    },
    {
      "time": "79296i",
      "midiNote": 61,
      "noteName": "C#4",
      "velocity": 0.8188976377952756,
      "duration": "96i"
    },
    {
      "time": "79296i",
      "midiNote": 66,
      "noteName": "F#4",
      "velocity": 0.9448818897637795,
      "duration": "96i"
    },
    {
      "time": "79392i",
      "midiNote": 57,
      "noteName": "A3",
      "velocity": 0.8818897637795275,
      "duration": "96i"
    },
    {
      "time": "79392i",
      "midiNote": 61,
      "noteName": "C#4",
      "velocity": 0.8818897637795275,
      "duration": "96i"
    },
    {
      "time": "79392i",
      "midiNote": 66,
      "noteName": "F#4",
      "velocity": 1,
      "duration": "96i"
    },
    {
      "time": "79584i",
      "midiNote": 57,
      "noteName": "A3",
      "velocity": 0.8818897637795275,
      "duration": "192i"
    },
    {
      "time": "79584i",
      "midiNote": 61,
      "noteName": "C#4",
      "velocity": 0.8818897637795275,
      "duration": "192i"
    },
    {
      "time": "79584i",
      "midiNote": 66,
      "noteName": "F#4",
      "velocity": 1,
      "duration": "192i"
    },
    {
      "time": "79776i",
      "midiNote": 57,
      "noteName": "A3",
      "velocity": 0.8818897637795275,
      "duration": "96i"
    },
    {
      "time": "79776i",
      "midiNote": 61,
      "noteName": "C#4",
      "velocity": 0.8818897637795275,
      "duration": "96i"
    },
    {
      "time": "79776i",
      "midiNote": 66,
      "noteName": "F#4",
      "velocity": 1,
      "duration": "96i"
    },
    {
      "time": "79872i",
      "midiNote": 57,
      "noteName": "A3",
      "velocity": 0.8818897637795275,
      "duration": "96i"
    },
    {
      "time": "79872i",
      "midiNote": 61,
      "noteName": "C#4",
      "velocity": 0.8818897637795275,
      "duration": "96i"
    },
    {
      "time": "79872i",
      "midiNote": 66,
      "noteName": "F#4",
      "velocity": 1,
      "duration": "96i"
    },
    {
      "time": "79968i",
      "midiNote": 57,
      "noteName": "A3",
      "velocity": 0.7559055118110236,
      "duration": "96i"
    },
    {
      "time": "79968i",
      "midiNote": 61,
      "noteName": "C#4",
      "velocity": 0.7559055118110236,
      "duration": "96i"
    },
    {
      "time": "79968i",
      "midiNote": 66,
      "noteName": "F#4",
      "velocity": 0.8818897637795275,
      "duration": "96i"
    },
    {
      "time": "80064i",
      "midiNote": 57,
      "noteName": "A3",
      "velocity": 0.8188976377952756,
      "duration": "96i"
    },
    {
      "time": "80064i",
      "midiNote": 61,
      "noteName": "C#4",
      "velocity": 0.8188976377952756,
      "duration": "96i"
    },
    {
      "time": "80064i",
      "midiNote": 66,
      "noteName": "F#4",
      "velocity": 0.9448818897637795,
      "duration": "96i"
    },
    {
      "time": "80160i",
      "midiNote": 57,
      "noteName": "A3",
      "velocity": 0.8818897637795275,
      "duration": "96i"
    },
    {
      "time": "80160i",
      "midiNote": 61,
      "noteName": "C#4",
      "velocity": 0.8818897637795275,
      "duration": "96i"
    },
    {
      "time": "80160i",
      "midiNote": 66,
      "noteName": "F#4",
      "velocity": 1,
      "duration": "96i"
    },
    {
      "time": "80352i",
      "midiNote": 57,
      "noteName": "A3",
      "velocity": 0.8818897637795275,
      "duration": "192i"
    },
    {
      "time": "80352i",
      "midiNote": 61,
      "noteName": "C#4",
      "velocity": 0.8818897637795275,
      "duration": "192i"
    },
    {
      "time": "80352i",
      "midiNote": 66,
      "noteName": "F#4",
      "velocity": 1,
      "duration": "192i"
    },
    {
      "time": "80544i",
      "midiNote": 57,
      "noteName": "A3",
      "velocity": 0.8818897637795275,
      "duration": "96i"
    },
    {
      "time": "80544i",
      "midiNote": 61,
      "noteName": "C#4",
      "velocity": 0.8818897637795275,
      "duration": "96i"
    },
    {
      "time": "80544i",
      "midiNote": 66,
      "noteName": "F#4",
      "velocity": 1,
      "duration": "192i"
    },
    {
      "time": "80640i",
      "midiNote": 57,
      "noteName": "A3",
      "velocity": 0.8818897637795275,
      "duration": "96i"
    },
    {
      "time": "80640i",
      "midiNote": 62,
      "noteName": "D4",
      "velocity": 0.8818897637795275,
      "duration": "96i"
    },
    {
      "time": "80640i",
      "midiNote": 66,
      "noteName": "F#4",
      "velocity": 1,
      "duration": "0i"
    },
    {
      "time": "80736i",
      "midiNote": 57,
      "noteName": "A3",
      "velocity": 0.7559055118110236,
      "duration": "96i"
    },
    {
      "time": "80736i",
      "midiNote": 62,
      "noteName": "D4",
      "velocity": 0.7559055118110236,
      "duration": "96i"
    },
    {
      "time": "80736i",
      "midiNote": 66,
      "noteName": "F#4",
      "velocity": 0.8818897637795275,
      "duration": "96i"
    },
    {
      "time": "80832i",
      "midiNote": 57,
      "noteName": "A3",
      "velocity": 0.8188976377952756,
      "duration": "96i"
    },
    {
      "time": "80832i",
      "midiNote": 62,
      "noteName": "D4",
      "velocity": 0.8188976377952756,
      "duration": "96i"
    },
    {
      "time": "80832i",
      "midiNote": 66,
      "noteName": "F#4",
      "velocity": 0.9448818897637795,
      "duration": "96i"
    },
    {
      "time": "80928i",
      "midiNote": 57,
      "noteName": "A3",
      "velocity": 0.8818897637795275,
      "duration": "96i"
    },
    {
      "time": "80928i",
      "midiNote": 62,
      "noteName": "D4",
      "velocity": 0.8818897637795275,
      "duration": "96i"
    },
    {
      "time": "80928i",
      "midiNote": 66,
      "noteName": "F#4",
      "velocity": 1,
      "duration": "96i"
    },
    {
      "time": "81120i",
      "midiNote": 57,
      "noteName": "A3",
      "velocity": 0.8818897637795275,
      "duration": "192i"
    },
    {
      "time": "81120i",
      "midiNote": 62,
      "noteName": "D4",
      "velocity": 0.8818897637795275,
      "duration": "192i"
    },
    {
      "time": "81120i",
      "midiNote": 66,
      "noteName": "F#4",
      "velocity": 1,
      "duration": "192i"
    },
    {
      "time": "81312i",
      "midiNote": 57,
      "noteName": "A3",
      "velocity": 0.8818897637795275,
      "duration": "96i"
    },
    {
      "time": "81312i",
      "midiNote": 62,
      "noteName": "D4",
      "velocity": 0.8818897637795275,
      "duration": "96i"
    },
    {
      "time": "81312i",
      "midiNote": 66,
      "noteName": "F#4",
      "velocity": 1,
      "duration": "96i"
    },
    {
      "time": "81408i",
      "midiNote": 57,
      "noteName": "A3",
      "velocity": 0.8818897637795275,
      "duration": "96i"
    },
    {
      "time": "81408i",
      "midiNote": 62,
      "noteName": "D4",
      "velocity": 0.8818897637795275,
      "duration": "96i"
    },
    {
      "time": "81408i",
      "midiNote": 66,
      "noteName": "F#4",
      "velocity": 1,
      "duration": "96i"
    },
    {
      "time": "81504i",
      "midiNote": 57,
      "noteName": "A3",
      "velocity": 0.7559055118110236,
      "duration": "96i"
    },
    {
      "time": "81504i",
      "midiNote": 62,
      "noteName": "D4",
      "velocity": 0.7559055118110236,
      "duration": "96i"
    },
    {
      "time": "81504i",
      "midiNote": 66,
      "noteName": "F#4",
      "velocity": 0.8818897637795275,
      "duration": "96i"
    },
    {
      "time": "81600i",
      "midiNote": 57,
      "noteName": "A3",
      "velocity": 0.8188976377952756,
      "duration": "96i"
    },
    {
      "time": "81600i",
      "midiNote": 62,
      "noteName": "D4",
      "velocity": 0.8188976377952756,
      "duration": "96i"
    },
    {
      "time": "81600i",
      "midiNote": 66,
      "noteName": "F#4",
      "velocity": 0.9448818897637795,
      "duration": "96i"
    },
    {
      "time": "81696i",
      "midiNote": 57,
      "noteName": "A3",
      "velocity": 0.8818897637795275,
      "duration": "96i"
    },
    {
      "time": "81696i",
      "midiNote": 62,
      "noteName": "D4",
      "velocity": 0.8818897637795275,
      "duration": "96i"
    },
    {
      "time": "81696i",
      "midiNote": 66,
      "noteName": "F#4",
      "velocity": 1,
      "duration": "96i"
    },
    {
      "time": "81888i",
      "midiNote": 57,
      "noteName": "A3",
      "velocity": 0.8818897637795275,
      "duration": "192i"
    },
    {
      "time": "81888i",
      "midiNote": 62,
      "noteName": "D4",
      "velocity": 0.8818897637795275,
      "duration": "192i"
    },
    {
      "time": "81888i",
      "midiNote": 66,
      "noteName": "F#4",
      "velocity": 1,
      "duration": "192i"
    },
    {
      "time": "82080i",
      "midiNote": 57,
      "noteName": "A3",
      "velocity": 0.8818897637795275,
      "duration": "96i"
    },
    {
      "time": "82080i",
      "midiNote": 62,
      "noteName": "D4",
      "velocity": 0.8818897637795275,
      "duration": "96i"
    },
    {
      "time": "82080i",
      "midiNote": 66,
      "noteName": "F#4",
      "velocity": 1,
      "duration": "96i"
    },
    {
      "time": "82176i",
      "midiNote": 50,
      "noteName": "D3",
      "velocity": 0.8818897637795275,
      "duration": "96i"
    },
    {
      "time": "82176i",
      "midiNote": 56,
      "noteName": "G#3",
      "velocity": 0.8818897637795275,
      "duration": "96i"
    },
    {
      "time": "82176i",
      "midiNote": 64,
      "noteName": "E4",
      "velocity": 1,
      "duration": "96i"
    },
    {
      "time": "82272i",
      "midiNote": 50,
      "noteName": "D3",
      "velocity": 0.7559055118110236,
      "duration": "96i"
    },
    {
      "time": "82272i",
      "midiNote": 56,
      "noteName": "G#3",
      "velocity": 0.7559055118110236,
      "duration": "96i"
    },
    {
      "time": "82272i",
      "midiNote": 64,
      "noteName": "E4",
      "velocity": 0.8818897637795275,
      "duration": "96i"
    },
    {
      "time": "82368i",
      "midiNote": 50,
      "noteName": "D3",
      "velocity": 0.8188976377952756,
      "duration": "96i"
    },
    {
      "time": "82368i",
      "midiNote": 56,
      "noteName": "G#3",
      "velocity": 0.8188976377952756,
      "duration": "96i"
    },
    {
      "time": "82368i",
      "midiNote": 64,
      "noteName": "E4",
      "velocity": 0.9448818897637795,
      "duration": "96i"
    },
    {
      "time": "82464i",
      "midiNote": 50,
      "noteName": "D3",
      "velocity": 0.8818897637795275,
      "duration": "96i"
    },
    {
      "time": "82464i",
      "midiNote": 56,
      "noteName": "G#3",
      "velocity": 0.8818897637795275,
      "duration": "96i"
    },
    {
      "time": "82464i",
      "midiNote": 64,
      "noteName": "E4",
      "velocity": 1,
      "duration": "96i"
    },
    {
      "time": "82656i",
      "midiNote": 50,
      "noteName": "D3",
      "velocity": 0.8818897637795275,
      "duration": "192i"
    },
    {
      "time": "82656i",
      "midiNote": 56,
      "noteName": "G#3",
      "velocity": 0.8818897637795275,
      "duration": "192i"
    },
    {
      "time": "82656i",
      "midiNote": 64,
      "noteName": "E4",
      "velocity": 1,
      "duration": "192i"
    },
    {
      "time": "82848i",
      "midiNote": 50,
      "noteName": "D3",
      "velocity": 0.8818897637795275,
      "duration": "96i"
    },
    {
      "time": "82848i",
      "midiNote": 56,
      "noteName": "G#3",
      "velocity": 0.8818897637795275,
      "duration": "96i"
    },
    {
      "time": "82848i",
      "midiNote": 64,
      "noteName": "E4",
      "velocity": 1,
      "duration": "96i"
    },
    {
      "time": "82944i",
      "midiNote": 50,
      "noteName": "D3",
      "velocity": 0.8818897637795275,
      "duration": "96i"
    },
    {
      "time": "82944i",
      "midiNote": 56,
      "noteName": "G#3",
      "velocity": 0.8818897637795275,
      "duration": "96i"
    },
    {
      "time": "82944i",
      "midiNote": 64,
      "noteName": "E4",
      "velocity": 1,
      "duration": "96i"
    },
    {
      "time": "83040i",
      "midiNote": 50,
      "noteName": "D3",
      "velocity": 0.7559055118110236,
      "duration": "96i"
    },
    {
      "time": "83040i",
      "midiNote": 56,
      "noteName": "G#3",
      "velocity": 0.7559055118110236,
      "duration": "96i"
    },
    {
      "time": "83040i",
      "midiNote": 64,
      "noteName": "E4",
      "velocity": 0.8818897637795275,
      "duration": "96i"
    },
    {
      "time": "83136i",
      "midiNote": 50,
      "noteName": "D3",
      "velocity": 0.8188976377952756,
      "duration": "96i"
    },
    {
      "time": "83136i",
      "midiNote": 56,
      "noteName": "G#3",
      "velocity": 0.8188976377952756,
      "duration": "96i"
    },
    {
      "time": "83136i",
      "midiNote": 64,
      "noteName": "E4",
      "velocity": 0.9448818897637795,
      "duration": "96i"
    },
    {
      "time": "83232i",
      "midiNote": 50,
      "noteName": "D3",
      "velocity": 0.8818897637795275,
      "duration": "96i"
    },
    {
      "time": "83232i",
      "midiNote": 56,
      "noteName": "G#3",
      "velocity": 0.8818897637795275,
      "duration": "96i"
    },
    {
      "time": "83232i",
      "midiNote": 64,
      "noteName": "E4",
      "velocity": 1,
      "duration": "96i"
    },
    {
      "time": "83424i",
      "midiNote": 50,
      "noteName": "D3",
      "velocity": 0.8818897637795275,
      "duration": "192i"
    },
    {
      "time": "83424i",
      "midiNote": 56,
      "noteName": "G#3",
      "velocity": 0.8818897637795275,
      "duration": "192i"
    },
    {
      "time": "83424i",
      "midiNote": 64,
      "noteName": "E4",
      "velocity": 1,
      "duration": "192i"
    },
    {
      "time": "83616i",
      "midiNote": 50,
      "noteName": "D3",
      "velocity": 0.8818897637795275,
      "duration": "96i"
    },
    {
      "time": "83616i",
      "midiNote": 56,
      "noteName": "G#3",
      "velocity": 0.8818897637795275,
      "duration": "96i"
    },
    {
      "time": "83616i",
      "midiNote": 64,
      "noteName": "E4",
      "velocity": 1,
      "duration": "96i"
    },
    {
      "time": "83712i",
      "midiNote": 59,
      "noteName": "B3",
      "velocity": 0.8818897637795275,
      "duration": "96i"
    },
    {
      "time": "83712i",
      "midiNote": 56,
      "noteName": "G#3",
      "velocity": 0.8818897637795275,
      "duration": "96i"
    },
    {
      "time": "83712i",
      "midiNote": 65,
      "noteName": "F4",
      "velocity": 1,
      "duration": "96i"
    },
    {
      "time": "83808i",
      "midiNote": 59,
      "noteName": "B3",
      "velocity": 0.7559055118110236,
      "duration": "96i"
    },
    {
      "time": "83808i",
      "midiNote": 56,
      "noteName": "G#3",
      "velocity": 0.7559055118110236,
      "duration": "96i"
    },
    {
      "time": "83808i",
      "midiNote": 65,
      "noteName": "F4",
      "velocity": 0.8818897637795275,
      "duration": "96i"
    },
    {
      "time": "83904i",
      "midiNote": 59,
      "noteName": "B3",
      "velocity": 0.8188976377952756,
      "duration": "96i"
    },
    {
      "time": "83904i",
      "midiNote": 56,
      "noteName": "G#3",
      "velocity": 0.8188976377952756,
      "duration": "96i"
    },
    {
      "time": "83904i",
      "midiNote": 65,
      "noteName": "F4",
      "velocity": 0.9448818897637795,
      "duration": "96i"
    },
    {
      "time": "84000i",
      "midiNote": 59,
      "noteName": "B3",
      "velocity": 0.8818897637795275,
      "duration": "96i"
    },
    {
      "time": "84000i",
      "midiNote": 56,
      "noteName": "G#3",
      "velocity": 0.8818897637795275,
      "duration": "96i"
    },
    {
      "time": "84000i",
      "midiNote": 65,
      "noteName": "F4",
      "velocity": 1,
      "duration": "96i"
    },
    {
      "time": "84192i",
      "midiNote": 59,
      "noteName": "B3",
      "velocity": 0.8818897637795275,
      "duration": "192i"
    },
    {
      "time": "84192i",
      "midiNote": 56,
      "noteName": "G#3",
      "velocity": 0.8818897637795275,
      "duration": "192i"
    },
    {
      "time": "84192i",
      "midiNote": 65,
      "noteName": "F4",
      "velocity": 1,
      "duration": "192i"
    },
    {
      "time": "84384i",
      "midiNote": 59,
      "noteName": "B3",
      "velocity": 0.8818897637795275,
      "duration": "96i"
    },
    {
      "time": "84384i",
      "midiNote": 56,
      "noteName": "G#3",
      "velocity": 0.8818897637795275,
      "duration": "96i"
    },
    {
      "time": "84384i",
      "midiNote": 65,
      "noteName": "F4",
      "velocity": 1,
      "duration": "96i"
    },
    {
      "time": "84480i",
      "midiNote": 59,
      "noteName": "B3",
      "velocity": 0.8818897637795275,
      "duration": "96i"
    },
    {
      "time": "84480i",
      "midiNote": 56,
      "noteName": "G#3",
      "velocity": 0.8818897637795275,
      "duration": "96i"
    },
    {
      "time": "84480i",
      "midiNote": 65,
      "noteName": "F4",
      "velocity": 1,
      "duration": "96i"
    },
    {
      "time": "84576i",
      "midiNote": 59,
      "noteName": "B3",
      "velocity": 0.7559055118110236,
      "duration": "96i"
    },
    {
      "time": "84576i",
      "midiNote": 56,
      "noteName": "G#3",
      "velocity": 0.7559055118110236,
      "duration": "96i"
    },
    {
      "time": "84576i",
      "midiNote": 65,
      "noteName": "F4",
      "velocity": 0.8818897637795275,
      "duration": "96i"
    },
    {
      "time": "84672i",
      "midiNote": 59,
      "noteName": "B3",
      "velocity": 0.8188976377952756,
      "duration": "96i"
    },
    {
      "time": "84672i",
      "midiNote": 56,
      "noteName": "G#3",
      "velocity": 0.8188976377952756,
      "duration": "96i"
    },
    {
      "time": "84672i",
      "midiNote": 65,
      "noteName": "F4",
      "velocity": 0.9448818897637795,
      "duration": "96i"
    },
    {
      "time": "84768i",
      "midiNote": 59,
      "noteName": "B3",
      "velocity": 0.8818897637795275,
      "duration": "96i"
    },
    {
      "time": "84768i",
      "midiNote": 56,
      "noteName": "G#3",
      "velocity": 0.8818897637795275,
      "duration": "96i"
    },
    {
      "time": "84768i",
      "midiNote": 65,
      "noteName": "F4",
      "velocity": 1,
      "duration": "96i"
    },
    {
      "time": "84960i",
      "midiNote": 59,
      "noteName": "B3",
      "velocity": 0.8818897637795275,
      "duration": "192i"
    },
    {
      "time": "84960i",
      "midiNote": 56,
      "noteName": "G#3",
      "velocity": 0.8818897637795275,
      "duration": "192i"
    },
    {
      "time": "84960i",
      "midiNote": 65,
      "noteName": "F4",
      "velocity": 1,
      "duration": "192i"
    },
    {
      "time": "85152i",
      "midiNote": 59,
      "noteName": "B3",
      "velocity": 0.8818897637795275,
      "duration": "96i"
    },
    {
      "time": "85152i",
      "midiNote": 56,
      "noteName": "G#3",
      "velocity": 0.8818897637795275,
      "duration": "96i"
    },
    {
      "time": "85152i",
      "midiNote": 65,
      "noteName": "F4",
      "velocity": 1,
      "duration": "96i"
    },
    {
      "time": "85248i",
      "midiNote": 57,
      "noteName": "A3",
      "velocity": 0.8818897637795275,
      "duration": "96i"
    },
    {
      "time": "85248i",
      "midiNote": 61,
      "noteName": "C#4",
      "velocity": 0.8818897637795275,
      "duration": "96i"
    },
    {
      "time": "85248i",
      "midiNote": 66,
      "noteName": "F#4",
      "velocity": 1,
      "duration": "96i"
    },
    {
      "time": "85344i",
      "midiNote": 57,
      "noteName": "A3",
      "velocity": 0.7559055118110236,
      "duration": "96i"
    },
    {
      "time": "85344i",
      "midiNote": 61,
      "noteName": "C#4",
      "velocity": 0.7559055118110236,
      "duration": "96i"
    },
    {
      "time": "85344i",
      "midiNote": 66,
      "noteName": "F#4",
      "velocity": 0.8818897637795275,
      "duration": "96i"
    },
    {
      "time": "85440i",
      "midiNote": 57,
      "noteName": "A3",
      "velocity": 0.8188976377952756,
      "duration": "96i"
    },
    {
      "time": "85440i",
      "midiNote": 61,
      "noteName": "C#4",
      "velocity": 0.8188976377952756,
      "duration": "96i"
    },
    {
      "time": "85440i",
      "midiNote": 66,
      "noteName": "F#4",
      "velocity": 0.9448818897637795,
      "duration": "96i"
    },
    {
      "time": "85536i",
      "midiNote": 57,
      "noteName": "A3",
      "velocity": 0.8818897637795275,
      "duration": "96i"
    },
    {
      "time": "85536i",
      "midiNote": 61,
      "noteName": "C#4",
      "velocity": 0.8818897637795275,
      "duration": "96i"
    },
    {
      "time": "85536i",
      "midiNote": 66,
      "noteName": "F#4",
      "velocity": 1,
      "duration": "96i"
    },
    {
      "time": "85728i",
      "midiNote": 57,
      "noteName": "A3",
      "velocity": 0.8818897637795275,
      "duration": "192i"
    },
    {
      "time": "85728i",
      "midiNote": 61,
      "noteName": "C#4",
      "velocity": 0.8818897637795275,
      "duration": "192i"
    },
    {
      "time": "85728i",
      "midiNote": 66,
      "noteName": "F#4",
      "velocity": 1,
      "duration": "192i"
    },
    {
      "time": "85920i",
      "midiNote": 57,
      "noteName": "A3",
      "velocity": 0.8818897637795275,
      "duration": "96i"
    },
    {
      "time": "85920i",
      "midiNote": 61,
      "noteName": "C#4",
      "velocity": 0.8818897637795275,
      "duration": "96i"
    },
    {
      "time": "85920i",
      "midiNote": 66,
      "noteName": "F#4",
      "velocity": 1,
      "duration": "96i"
    },
    {
      "time": "86016i",
      "midiNote": 57,
      "noteName": "A3",
      "velocity": 0.8818897637795275,
      "duration": "96i"
    },
    {
      "time": "86016i",
      "midiNote": 61,
      "noteName": "C#4",
      "velocity": 0.8818897637795275,
      "duration": "96i"
    },
    {
      "time": "86016i",
      "midiNote": 66,
      "noteName": "F#4",
      "velocity": 1,
      "duration": "96i"
    },
    {
      "time": "86112i",
      "midiNote": 57,
      "noteName": "A3",
      "velocity": 0.7559055118110236,
      "duration": "96i"
    },
    {
      "time": "86112i",
      "midiNote": 61,
      "noteName": "C#4",
      "velocity": 0.7559055118110236,
      "duration": "96i"
    },
    {
      "time": "86112i",
      "midiNote": 66,
      "noteName": "F#4",
      "velocity": 0.8818897637795275,
      "duration": "96i"
    },
    {
      "time": "86208i",
      "midiNote": 57,
      "noteName": "A3",
      "velocity": 0.8188976377952756,
      "duration": "96i"
    },
    {
      "time": "86208i",
      "midiNote": 61,
      "noteName": "C#4",
      "velocity": 0.8188976377952756,
      "duration": "96i"
    },
    {
      "time": "86208i",
      "midiNote": 66,
      "noteName": "F#4",
      "velocity": 0.9448818897637795,
      "duration": "96i"
    },
    {
      "time": "86304i",
      "midiNote": 57,
      "noteName": "A3",
      "velocity": 0.8818897637795275,
      "duration": "96i"
    },
    {
      "time": "86304i",
      "midiNote": 61,
      "noteName": "C#4",
      "velocity": 0.8818897637795275,
      "duration": "96i"
    },
    {
      "time": "86304i",
      "midiNote": 66,
      "noteName": "F#4",
      "velocity": 1,
      "duration": "96i"
    },
    {
      "time": "86496i",
      "midiNote": 57,
      "noteName": "A3",
      "velocity": 0.8818897637795275,
      "duration": "192i"
    },
    {
      "time": "86496i",
      "midiNote": 61,
      "noteName": "C#4",
      "velocity": 0.8818897637795275,
      "duration": "192i"
    },
    {
      "time": "86496i",
      "midiNote": 66,
      "noteName": "F#4",
      "velocity": 1,
      "duration": "192i"
    },
    {
      "time": "86688i",
      "midiNote": 57,
      "noteName": "A3",
      "velocity": 0.8818897637795275,
      "duration": "96i"
    },
    {
      "time": "86688i",
      "midiNote": 61,
      "noteName": "C#4",
      "velocity": 0.8818897637795275,
      "duration": "96i"
    },
    {
      "time": "86688i",
      "midiNote": 66,
      "noteName": "F#4",
      "velocity": 1,
      "duration": "192i"
    },
    {
      "time": "86784i",
      "midiNote": 57,
      "noteName": "A3",
      "velocity": 0.8818897637795275,
      "duration": "96i"
    },
    {
      "time": "86784i",
      "midiNote": 62,
      "noteName": "D4",
      "velocity": 0.8818897637795275,
      "duration": "96i"
    },
    {
      "time": "86784i",
      "midiNote": 66,
      "noteName": "F#4",
      "velocity": 1,
      "duration": "0i"
    },
    {
      "time": "86880i",
      "midiNote": 57,
      "noteName": "A3",
      "velocity": 0.7559055118110236,
      "duration": "96i"
    },
    {
      "time": "86880i",
      "midiNote": 62,
      "noteName": "D4",
      "velocity": 0.7559055118110236,
      "duration": "96i"
    },
    {
      "time": "86880i",
      "midiNote": 66,
      "noteName": "F#4",
      "velocity": 0.8818897637795275,
      "duration": "96i"
    },
    {
      "time": "86976i",
      "midiNote": 57,
      "noteName": "A3",
      "velocity": 0.8188976377952756,
      "duration": "96i"
    },
    {
      "time": "86976i",
      "midiNote": 62,
      "noteName": "D4",
      "velocity": 0.8188976377952756,
      "duration": "96i"
    },
    {
      "time": "86976i",
      "midiNote": 66,
      "noteName": "F#4",
      "velocity": 0.9448818897637795,
      "duration": "96i"
    },
    {
      "time": "87072i",
      "midiNote": 57,
      "noteName": "A3",
      "velocity": 0.8818897637795275,
      "duration": "96i"
    },
    {
      "time": "87072i",
      "midiNote": 62,
      "noteName": "D4",
      "velocity": 0.8818897637795275,
      "duration": "96i"
    },
    {
      "time": "87072i",
      "midiNote": 66,
      "noteName": "F#4",
      "velocity": 1,
      "duration": "96i"
    },
    {
      "time": "87264i",
      "midiNote": 57,
      "noteName": "A3",
      "velocity": 0.8818897637795275,
      "duration": "192i"
    },
    {
      "time": "87264i",
      "midiNote": 62,
      "noteName": "D4",
      "velocity": 0.8818897637795275,
      "duration": "192i"
    },
    {
      "time": "87264i",
      "midiNote": 66,
      "noteName": "F#4",
      "velocity": 1,
      "duration": "192i"
    },
    {
      "time": "87456i",
      "midiNote": 57,
      "noteName": "A3",
      "velocity": 0.8818897637795275,
      "duration": "96i"
    },
    {
      "time": "87456i",
      "midiNote": 62,
      "noteName": "D4",
      "velocity": 0.8818897637795275,
      "duration": "96i"
    },
    {
      "time": "87456i",
      "midiNote": 66,
      "noteName": "F#4",
      "velocity": 1,
      "duration": "96i"
    },
    {
      "time": "87552i",
      "midiNote": 57,
      "noteName": "A3",
      "velocity": 0.8818897637795275,
      "duration": "96i"
    },
    {
      "time": "87552i",
      "midiNote": 62,
      "noteName": "D4",
      "velocity": 0.8818897637795275,
      "duration": "96i"
    },
    {
      "time": "87552i",
      "midiNote": 66,
      "noteName": "F#4",
      "velocity": 1,
      "duration": "96i"
    },
    {
      "time": "87648i",
      "midiNote": 57,
      "noteName": "A3",
      "velocity": 0.7559055118110236,
      "duration": "96i"
    },
    {
      "time": "87648i",
      "midiNote": 62,
      "noteName": "D4",
      "velocity": 0.7559055118110236,
      "duration": "96i"
    },
    {
      "time": "87648i",
      "midiNote": 66,
      "noteName": "F#4",
      "velocity": 0.8818897637795275,
      "duration": "96i"
    },
    {
      "time": "87744i",
      "midiNote": 57,
      "noteName": "A3",
      "velocity": 0.8188976377952756,
      "duration": "96i"
    },
    {
      "time": "87744i",
      "midiNote": 62,
      "noteName": "D4",
      "velocity": 0.8188976377952756,
      "duration": "96i"
    },
    {
      "time": "87744i",
      "midiNote": 66,
      "noteName": "F#4",
      "velocity": 0.9448818897637795,
      "duration": "96i"
    },
    {
      "time": "87840i",
      "midiNote": 57,
      "noteName": "A3",
      "velocity": 0.8818897637795275,
      "duration": "96i"
    },
    {
      "time": "87840i",
      "midiNote": 62,
      "noteName": "D4",
      "velocity": 0.8818897637795275,
      "duration": "96i"
    },
    {
      "time": "87840i",
      "midiNote": 66,
      "noteName": "F#4",
      "velocity": 1,
      "duration": "96i"
    },
    {
      "time": "88032i",
      "midiNote": 57,
      "noteName": "A3",
      "velocity": 0.8818897637795275,
      "duration": "192i"
    },
    {
      "time": "88032i",
      "midiNote": 62,
      "noteName": "D4",
      "velocity": 0.8818897637795275,
      "duration": "192i"
    },
    {
      "time": "88032i",
      "midiNote": 66,
      "noteName": "F#4",
      "velocity": 1,
      "duration": "192i"
    },
    {
      "time": "88224i",
      "midiNote": 57,
      "noteName": "A3",
      "velocity": 0.8818897637795275,
      "duration": "96i"
    },
    {
      "time": "88224i",
      "midiNote": 62,
      "noteName": "D4",
      "velocity": 0.8818897637795275,
      "duration": "96i"
    },
    {
      "time": "88224i",
      "midiNote": 66,
      "noteName": "F#4",
      "velocity": 1,
      "duration": "96i"
    },
    {
      "time": "88320i",
      "midiNote": 50,
      "noteName": "D3",
      "velocity": 0.8818897637795275,
      "duration": "96i"
    },
    {
      "time": "88320i",
      "midiNote": 56,
      "noteName": "G#3",
      "velocity": 0.8818897637795275,
      "duration": "96i"
    },
    {
      "time": "88320i",
      "midiNote": 64,
      "noteName": "E4",
      "velocity": 1,
      "duration": "96i"
    },
    {
      "time": "88416i",
      "midiNote": 50,
      "noteName": "D3",
      "velocity": 0.7559055118110236,
      "duration": "96i"
    },
    {
      "time": "88416i",
      "midiNote": 56,
      "noteName": "G#3",
      "velocity": 0.7559055118110236,
      "duration": "96i"
    },
    {
      "time": "88416i",
      "midiNote": 64,
      "noteName": "E4",
      "velocity": 0.8818897637795275,
      "duration": "96i"
    },
    {
      "time": "88512i",
      "midiNote": 50,
      "noteName": "D3",
      "velocity": 0.8188976377952756,
      "duration": "96i"
    },
    {
      "time": "88512i",
      "midiNote": 56,
      "noteName": "G#3",
      "velocity": 0.8188976377952756,
      "duration": "96i"
    },
    {
      "time": "88512i",
      "midiNote": 64,
      "noteName": "E4",
      "velocity": 0.9448818897637795,
      "duration": "96i"
    },
    {
      "time": "88608i",
      "midiNote": 50,
      "noteName": "D3",
      "velocity": 0.8818897637795275,
      "duration": "96i"
    },
    {
      "time": "88608i",
      "midiNote": 56,
      "noteName": "G#3",
      "velocity": 0.8818897637795275,
      "duration": "96i"
    },
    {
      "time": "88608i",
      "midiNote": 64,
      "noteName": "E4",
      "velocity": 1,
      "duration": "96i"
    },
    {
      "time": "88800i",
      "midiNote": 50,
      "noteName": "D3",
      "velocity": 0.8818897637795275,
      "duration": "192i"
    },
    {
      "time": "88800i",
      "midiNote": 56,
      "noteName": "G#3",
      "velocity": 0.8818897637795275,
      "duration": "192i"
    },
    {
      "time": "88800i",
      "midiNote": 64,
      "noteName": "E4",
      "velocity": 1,
      "duration": "192i"
    },
    {
      "time": "88992i",
      "midiNote": 50,
      "noteName": "D3",
      "velocity": 0.8818897637795275,
      "duration": "96i"
    },
    {
      "time": "88992i",
      "midiNote": 56,
      "noteName": "G#3",
      "velocity": 0.8818897637795275,
      "duration": "96i"
    },
    {
      "time": "88992i",
      "midiNote": 64,
      "noteName": "E4",
      "velocity": 1,
      "duration": "96i"
    },
    {
      "time": "89088i",
      "midiNote": 50,
      "noteName": "D3",
      "velocity": 0.8818897637795275,
      "duration": "96i"
    },
    {
      "time": "89088i",
      "midiNote": 56,
      "noteName": "G#3",
      "velocity": 0.8818897637795275,
      "duration": "96i"
    },
    {
      "time": "89088i",
      "midiNote": 64,
      "noteName": "E4",
      "velocity": 1,
      "duration": "96i"
    },
    {
      "time": "89184i",
      "midiNote": 50,
      "noteName": "D3",
      "velocity": 0.7559055118110236,
      "duration": "96i"
    },
    {
      "time": "89184i",
      "midiNote": 56,
      "noteName": "G#3",
      "velocity": 0.7559055118110236,
      "duration": "96i"
    },
    {
      "time": "89184i",
      "midiNote": 64,
      "noteName": "E4",
      "velocity": 0.8818897637795275,
      "duration": "96i"
    },
    {
      "time": "89280i",
      "midiNote": 50,
      "noteName": "D3",
      "velocity": 0.8188976377952756,
      "duration": "96i"
    },
    {
      "time": "89280i",
      "midiNote": 56,
      "noteName": "G#3",
      "velocity": 0.8188976377952756,
      "duration": "96i"
    },
    {
      "time": "89280i",
      "midiNote": 64,
      "noteName": "E4",
      "velocity": 0.9448818897637795,
      "duration": "96i"
    },
    {
      "time": "89376i",
      "midiNote": 50,
      "noteName": "D3",
      "velocity": 0.8818897637795275,
      "duration": "96i"
    },
    {
      "time": "89376i",
      "midiNote": 56,
      "noteName": "G#3",
      "velocity": 0.8818897637795275,
      "duration": "96i"
    },
    {
      "time": "89376i",
      "midiNote": 64,
      "noteName": "E4",
      "velocity": 1,
      "duration": "96i"
    },
    {
      "time": "89568i",
      "midiNote": 50,
      "noteName": "D3",
      "velocity": 0.8818897637795275,
      "duration": "192i"
    },
    {
      "time": "89568i",
      "midiNote": 56,
      "noteName": "G#3",
      "velocity": 0.8818897637795275,
      "duration": "192i"
    },
    {
      "time": "89568i",
      "midiNote": 64,
      "noteName": "E4",
      "velocity": 1,
      "duration": "192i"
    },
    {
      "time": "89760i",
      "midiNote": 50,
      "noteName": "D3",
      "velocity": 0.8818897637795275,
      "duration": "96i"
    },
    {
      "time": "89760i",
      "midiNote": 56,
      "noteName": "G#3",
      "velocity": 0.8818897637795275,
      "duration": "96i"
    },
    {
      "time": "89760i",
      "midiNote": 64,
      "noteName": "E4",
      "velocity": 1,
      "duration": "96i"
    },
    {
      "time": "89856i",
      "midiNote": 59,
      "noteName": "B3",
      "velocity": 0.8818897637795275,
      "duration": "96i"
    },
    {
      "time": "89856i",
      "midiNote": 56,
      "noteName": "G#3",
      "velocity": 0.8818897637795275,
      "duration": "96i"
    },
    {
      "time": "89856i",
      "midiNote": 65,
      "noteName": "F4",
      "velocity": 1,
      "duration": "96i"
    },
    {
      "time": "89952i",
      "midiNote": 59,
      "noteName": "B3",
      "velocity": 0.7559055118110236,
      "duration": "96i"
    },
    {
      "time": "89952i",
      "midiNote": 56,
      "noteName": "G#3",
      "velocity": 0.7559055118110236,
      "duration": "96i"
    },
    {
      "time": "89952i",
      "midiNote": 65,
      "noteName": "F4",
      "velocity": 0.8818897637795275,
      "duration": "96i"
    },
    {
      "time": "90048i",
      "midiNote": 59,
      "noteName": "B3",
      "velocity": 0.8188976377952756,
      "duration": "96i"
    },
    {
      "time": "90048i",
      "midiNote": 56,
      "noteName": "G#3",
      "velocity": 0.8188976377952756,
      "duration": "96i"
    },
    {
      "time": "90048i",
      "midiNote": 65,
      "noteName": "F4",
      "velocity": 0.9448818897637795,
      "duration": "96i"
    },
    {
      "time": "90144i",
      "midiNote": 59,
      "noteName": "B3",
      "velocity": 0.8818897637795275,
      "duration": "96i"
    },
    {
      "time": "90144i",
      "midiNote": 56,
      "noteName": "G#3",
      "velocity": 0.8818897637795275,
      "duration": "96i"
    },
    {
      "time": "90144i",
      "midiNote": 65,
      "noteName": "F4",
      "velocity": 1,
      "duration": "96i"
    },
    {
      "time": "90336i",
      "midiNote": 59,
      "noteName": "B3",
      "velocity": 0.8818897637795275,
      "duration": "192i"
    },
    {
      "time": "90336i",
      "midiNote": 56,
      "noteName": "G#3",
      "velocity": 0.8818897637795275,
      "duration": "192i"
    },
    {
      "time": "90336i",
      "midiNote": 65,
      "noteName": "F4",
      "velocity": 1,
      "duration": "192i"
    },
    {
      "time": "90528i",
      "midiNote": 59,
      "noteName": "B3",
      "velocity": 0.8818897637795275,
      "duration": "96i"
    },
    {
      "time": "90528i",
      "midiNote": 56,
      "noteName": "G#3",
      "velocity": 0.8818897637795275,
      "duration": "96i"
    },
    {
      "time": "90528i",
      "midiNote": 65,
      "noteName": "F4",
      "velocity": 1,
      "duration": "96i"
    },
    {
      "time": "90624i",
      "midiNote": 59,
      "noteName": "B3",
      "velocity": 0.8818897637795275,
      "duration": "96i"
    },
    {
      "time": "90624i",
      "midiNote": 56,
      "noteName": "G#3",
      "velocity": 0.8818897637795275,
      "duration": "96i"
    },
    {
      "time": "90624i",
      "midiNote": 65,
      "noteName": "F4",
      "velocity": 1,
      "duration": "96i"
    },
    {
      "time": "90720i",
      "midiNote": 59,
      "noteName": "B3",
      "velocity": 0.7559055118110236,
      "duration": "96i"
    },
    {
      "time": "90720i",
      "midiNote": 56,
      "noteName": "G#3",
      "velocity": 0.7559055118110236,
      "duration": "96i"
    },
    {
      "time": "90720i",
      "midiNote": 65,
      "noteName": "F4",
      "velocity": 0.8818897637795275,
      "duration": "96i"
    },
    {
      "time": "90816i",
      "midiNote": 59,
      "noteName": "B3",
      "velocity": 0.8188976377952756,
      "duration": "96i"
    },
    {
      "time": "90816i",
      "midiNote": 56,
      "noteName": "G#3",
      "velocity": 0.8188976377952756,
      "duration": "96i"
    },
    {
      "time": "90816i",
      "midiNote": 65,
      "noteName": "F4",
      "velocity": 0.9448818897637795,
      "duration": "96i"
    },
    {
      "time": "90912i",
      "midiNote": 59,
      "noteName": "B3",
      "velocity": 0.8818897637795275,
      "duration": "96i"
    },
    {
      "time": "90912i",
      "midiNote": 56,
      "noteName": "G#3",
      "velocity": 0.8818897637795275,
      "duration": "96i"
    },
    {
      "time": "90912i",
      "midiNote": 65,
      "noteName": "F4",
      "velocity": 1,
      "duration": "96i"
    },
    {
      "time": "91104i",
      "midiNote": 59,
      "noteName": "B3",
      "velocity": 0.8818897637795275,
      "duration": "192i"
    },
    {
      "time": "91104i",
      "midiNote": 56,
      "noteName": "G#3",
      "velocity": 0.8818897637795275,
      "duration": "192i"
    },
    {
      "time": "91104i",
      "midiNote": 65,
      "noteName": "F4",
      "velocity": 1,
      "duration": "192i"
    },
    {
      "time": "91296i",
      "midiNote": 59,
      "noteName": "B3",
      "velocity": 0.8818897637795275,
      "duration": "96i"
    },
    {
      "time": "91296i",
      "midiNote": 56,
      "noteName": "G#3",
      "velocity": 0.8818897637795275,
      "duration": "96i"
    },
    {
      "time": "91296i",
      "midiNote": 65,
      "noteName": "F4",
      "velocity": 1,
      "duration": "96i"
    },
    {
      "time": "91392i",
      "midiNote": 57,
      "noteName": "A3",
      "velocity": 0.8818897637795275,
      "duration": "96i"
    },
    {
      "time": "91392i",
      "midiNote": 61,
      "noteName": "C#4",
      "velocity": 0.8818897637795275,
      "duration": "96i"
    },
    {
      "time": "91392i",
      "midiNote": 66,
      "noteName": "F#4",
      "velocity": 1,
      "duration": "96i"
    },
    {
      "time": "91488i",
      "midiNote": 57,
      "noteName": "A3",
      "velocity": 0.7559055118110236,
      "duration": "96i"
    },
    {
      "time": "91488i",
      "midiNote": 61,
      "noteName": "C#4",
      "velocity": 0.7559055118110236,
      "duration": "96i"
    },
    {
      "time": "91488i",
      "midiNote": 66,
      "noteName": "F#4",
      "velocity": 0.8818897637795275,
      "duration": "96i"
    },
    {
      "time": "91584i",
      "midiNote": 57,
      "noteName": "A3",
      "velocity": 0.8188976377952756,
      "duration": "96i"
    },
    {
      "time": "91584i",
      "midiNote": 61,
      "noteName": "C#4",
      "velocity": 0.8188976377952756,
      "duration": "96i"
    },
    {
      "time": "91584i",
      "midiNote": 66,
      "noteName": "F#4",
      "velocity": 0.9448818897637795,
      "duration": "96i"
    },
    {
      "time": "91680i",
      "midiNote": 57,
      "noteName": "A3",
      "velocity": 0.8818897637795275,
      "duration": "96i"
    },
    {
      "time": "91680i",
      "midiNote": 61,
      "noteName": "C#4",
      "velocity": 0.8818897637795275,
      "duration": "96i"
    },
    {
      "time": "91680i",
      "midiNote": 66,
      "noteName": "F#4",
      "velocity": 1,
      "duration": "96i"
    },
    {
      "time": "91872i",
      "midiNote": 57,
      "noteName": "A3",
      "velocity": 0.8818897637795275,
      "duration": "192i"
    },
    {
      "time": "91872i",
      "midiNote": 61,
      "noteName": "C#4",
      "velocity": 0.8818897637795275,
      "duration": "192i"
    },
    {
      "time": "91872i",
      "midiNote": 66,
      "noteName": "F#4",
      "velocity": 1,
      "duration": "192i"
    },
    {
      "time": "92064i",
      "midiNote": 57,
      "noteName": "A3",
      "velocity": 0.8818897637795275,
      "duration": "96i"
    },
    {
      "time": "92064i",
      "midiNote": 61,
      "noteName": "C#4",
      "velocity": 0.8818897637795275,
      "duration": "96i"
    },
    {
      "time": "92064i",
      "midiNote": 66,
      "noteName": "F#4",
      "velocity": 1,
      "duration": "96i"
    },
    {
      "time": "92160i",
      "midiNote": 57,
      "noteName": "A3",
      "velocity": 0.8818897637795275,
      "duration": "96i"
    },
    {
      "time": "92160i",
      "midiNote": 61,
      "noteName": "C#4",
      "velocity": 0.8818897637795275,
      "duration": "96i"
    },
    {
      "time": "92160i",
      "midiNote": 66,
      "noteName": "F#4",
      "velocity": 1,
      "duration": "96i"
    },
    {
      "time": "92256i",
      "midiNote": 57,
      "noteName": "A3",
      "velocity": 0.7559055118110236,
      "duration": "96i"
    },
    {
      "time": "92256i",
      "midiNote": 61,
      "noteName": "C#4",
      "velocity": 0.7559055118110236,
      "duration": "96i"
    },
    {
      "time": "92256i",
      "midiNote": 66,
      "noteName": "F#4",
      "velocity": 0.8818897637795275,
      "duration": "96i"
    },
    {
      "time": "92352i",
      "midiNote": 57,
      "noteName": "A3",
      "velocity": 0.8188976377952756,
      "duration": "96i"
    },
    {
      "time": "92352i",
      "midiNote": 61,
      "noteName": "C#4",
      "velocity": 0.8188976377952756,
      "duration": "96i"
    },
    {
      "time": "92352i",
      "midiNote": 66,
      "noteName": "F#4",
      "velocity": 0.9448818897637795,
      "duration": "96i"
    },
    {
      "time": "92448i",
      "midiNote": 57,
      "noteName": "A3",
      "velocity": 0.8818897637795275,
      "duration": "96i"
    },
    {
      "time": "92448i",
      "midiNote": 61,
      "noteName": "C#4",
      "velocity": 0.8818897637795275,
      "duration": "96i"
    },
    {
      "time": "92448i",
      "midiNote": 66,
      "noteName": "F#4",
      "velocity": 1,
      "duration": "96i"
    },
    {
      "time": "92640i",
      "midiNote": 57,
      "noteName": "A3",
      "velocity": 0.8818897637795275,
      "duration": "192i"
    },
    {
      "time": "92640i",
      "midiNote": 61,
      "noteName": "C#4",
      "velocity": 0.8818897637795275,
      "duration": "192i"
    },
    {
      "time": "92640i",
      "midiNote": 66,
      "noteName": "F#4",
      "velocity": 1,
      "duration": "192i"
    },
    {
      "time": "92832i",
      "midiNote": 57,
      "noteName": "A3",
      "velocity": 0.8818897637795275,
      "duration": "96i"
    },
    {
      "time": "92832i",
      "midiNote": 61,
      "noteName": "C#4",
      "velocity": 0.8818897637795275,
      "duration": "96i"
    },
    {
      "time": "92832i",
      "midiNote": 66,
      "noteName": "F#4",
      "velocity": 1,
      "duration": "192i"
    },
    {
      "time": "92928i",
      "midiNote": 57,
      "noteName": "A3",
      "velocity": 0.8818897637795275,
      "duration": "96i"
    },
    {
      "time": "92928i",
      "midiNote": 62,
      "noteName": "D4",
      "velocity": 0.8818897637795275,
      "duration": "96i"
    },
    {
      "time": "92928i",
      "midiNote": 66,
      "noteName": "F#4",
      "velocity": 1,
      "duration": "0i"
    },
    {
      "time": "93024i",
      "midiNote": 57,
      "noteName": "A3",
      "velocity": 0.7559055118110236,
      "duration": "96i"
    },
    {
      "time": "93024i",
      "midiNote": 62,
      "noteName": "D4",
      "velocity": 0.7559055118110236,
      "duration": "96i"
    },
    {
      "time": "93024i",
      "midiNote": 66,
      "noteName": "F#4",
      "velocity": 0.8818897637795275,
      "duration": "96i"
    },
    {
      "time": "93120i",
      "midiNote": 57,
      "noteName": "A3",
      "velocity": 0.8188976377952756,
      "duration": "96i"
    },
    {
      "time": "93120i",
      "midiNote": 62,
      "noteName": "D4",
      "velocity": 0.8188976377952756,
      "duration": "96i"
    },
    {
      "time": "93120i",
      "midiNote": 66,
      "noteName": "F#4",
      "velocity": 0.9448818897637795,
      "duration": "96i"
    },
    {
      "time": "93216i",
      "midiNote": 57,
      "noteName": "A3",
      "velocity": 0.8818897637795275,
      "duration": "96i"
    },
    {
      "time": "93216i",
      "midiNote": 62,
      "noteName": "D4",
      "velocity": 0.8818897637795275,
      "duration": "96i"
    },
    {
      "time": "93216i",
      "midiNote": 66,
      "noteName": "F#4",
      "velocity": 1,
      "duration": "96i"
    },
    {
      "time": "93408i",
      "midiNote": 57,
      "noteName": "A3",
      "velocity": 0.8818897637795275,
      "duration": "192i"
    },
    {
      "time": "93408i",
      "midiNote": 62,
      "noteName": "D4",
      "velocity": 0.8818897637795275,
      "duration": "192i"
    },
    {
      "time": "93408i",
      "midiNote": 66,
      "noteName": "F#4",
      "velocity": 1,
      "duration": "192i"
    },
    {
      "time": "93600i",
      "midiNote": 57,
      "noteName": "A3",
      "velocity": 0.8818897637795275,
      "duration": "96i"
    },
    {
      "time": "93600i",
      "midiNote": 62,
      "noteName": "D4",
      "velocity": 0.8818897637795275,
      "duration": "96i"
    },
    {
      "time": "93600i",
      "midiNote": 66,
      "noteName": "F#4",
      "velocity": 1,
      "duration": "96i"
    },
    {
      "time": "93696i",
      "midiNote": 57,
      "noteName": "A3",
      "velocity": 0.8818897637795275,
      "duration": "96i"
    },
    {
      "time": "93696i",
      "midiNote": 62,
      "noteName": "D4",
      "velocity": 0.8818897637795275,
      "duration": "96i"
    },
    {
      "time": "93696i",
      "midiNote": 66,
      "noteName": "F#4",
      "velocity": 1,
      "duration": "96i"
    },
    {
      "time": "93792i",
      "midiNote": 57,
      "noteName": "A3",
      "velocity": 0.7559055118110236,
      "duration": "96i"
    },
    {
      "time": "93792i",
      "midiNote": 62,
      "noteName": "D4",
      "velocity": 0.7559055118110236,
      "duration": "96i"
    },
    {
      "time": "93792i",
      "midiNote": 66,
      "noteName": "F#4",
      "velocity": 0.8818897637795275,
      "duration": "96i"
    },
    {
      "time": "93888i",
      "midiNote": 57,
      "noteName": "A3",
      "velocity": 0.8188976377952756,
      "duration": "96i"
    },
    {
      "time": "93888i",
      "midiNote": 62,
      "noteName": "D4",
      "velocity": 0.8188976377952756,
      "duration": "96i"
    },
    {
      "time": "93888i",
      "midiNote": 66,
      "noteName": "F#4",
      "velocity": 0.9448818897637795,
      "duration": "96i"
    },
    {
      "time": "93984i",
      "midiNote": 57,
      "noteName": "A3",
      "velocity": 0.8818897637795275,
      "duration": "96i"
    },
    {
      "time": "93984i",
      "midiNote": 62,
      "noteName": "D4",
      "velocity": 0.8818897637795275,
      "duration": "96i"
    },
    {
      "time": "93984i",
      "midiNote": 66,
      "noteName": "F#4",
      "velocity": 1,
      "duration": "96i"
    },
    {
      "time": "94176i",
      "midiNote": 57,
      "noteName": "A3",
      "velocity": 0.8818897637795275,
      "duration": "192i"
    },
    {
      "time": "94176i",
      "midiNote": 62,
      "noteName": "D4",
      "velocity": 0.8818897637795275,
      "duration": "192i"
    },
    {
      "time": "94176i",
      "midiNote": 66,
      "noteName": "F#4",
      "velocity": 1,
      "duration": "192i"
    },
    {
      "time": "94368i",
      "midiNote": 57,
      "noteName": "A3",
      "velocity": 0.8818897637795275,
      "duration": "96i"
    },
    {
      "time": "94368i",
      "midiNote": 62,
      "noteName": "D4",
      "velocity": 0.8818897637795275,
      "duration": "96i"
    },
    {
      "time": "94368i",
      "midiNote": 66,
      "noteName": "F#4",
      "velocity": 1,
      "duration": "96i"
    },
    {
      "time": "94464i",
      "midiNote": 50,
      "noteName": "D3",
      "velocity": 0.8818897637795275,
      "duration": "96i"
    },
    {
      "time": "94464i",
      "midiNote": 56,
      "noteName": "G#3",
      "velocity": 0.8818897637795275,
      "duration": "96i"
    },
    {
      "time": "94464i",
      "midiNote": 64,
      "noteName": "E4",
      "velocity": 1,
      "duration": "96i"
    },
    {
      "time": "94560i",
      "midiNote": 50,
      "noteName": "D3",
      "velocity": 0.7559055118110236,
      "duration": "96i"
    },
    {
      "time": "94560i",
      "midiNote": 56,
      "noteName": "G#3",
      "velocity": 0.7559055118110236,
      "duration": "96i"
    },
    {
      "time": "94560i",
      "midiNote": 64,
      "noteName": "E4",
      "velocity": 0.8818897637795275,
      "duration": "96i"
    },
    {
      "time": "94656i",
      "midiNote": 50,
      "noteName": "D3",
      "velocity": 0.8188976377952756,
      "duration": "96i"
    },
    {
      "time": "94656i",
      "midiNote": 56,
      "noteName": "G#3",
      "velocity": 0.8188976377952756,
      "duration": "96i"
    },
    {
      "time": "94656i",
      "midiNote": 64,
      "noteName": "E4",
      "velocity": 0.9448818897637795,
      "duration": "96i"
    },
    {
      "time": "94752i",
      "midiNote": 50,
      "noteName": "D3",
      "velocity": 0.8818897637795275,
      "duration": "96i"
    },
    {
      "time": "94752i",
      "midiNote": 56,
      "noteName": "G#3",
      "velocity": 0.8818897637795275,
      "duration": "96i"
    },
    {
      "time": "94752i",
      "midiNote": 64,
      "noteName": "E4",
      "velocity": 1,
      "duration": "96i"
    },
    {
      "time": "94944i",
      "midiNote": 50,
      "noteName": "D3",
      "velocity": 0.8818897637795275,
      "duration": "192i"
    },
    {
      "time": "94944i",
      "midiNote": 56,
      "noteName": "G#3",
      "velocity": 0.8818897637795275,
      "duration": "192i"
    },
    {
      "time": "94944i",
      "midiNote": 64,
      "noteName": "E4",
      "velocity": 1,
      "duration": "192i"
    },
    {
      "time": "95136i",
      "midiNote": 50,
      "noteName": "D3",
      "velocity": 0.8818897637795275,
      "duration": "96i"
    },
    {
      "time": "95136i",
      "midiNote": 56,
      "noteName": "G#3",
      "velocity": 0.8818897637795275,
      "duration": "96i"
    },
    {
      "time": "95136i",
      "midiNote": 64,
      "noteName": "E4",
      "velocity": 1,
      "duration": "96i"
    },
    {
      "time": "95232i",
      "midiNote": 50,
      "noteName": "D3",
      "velocity": 0.8818897637795275,
      "duration": "96i"
    },
    {
      "time": "95232i",
      "midiNote": 56,
      "noteName": "G#3",
      "velocity": 0.8818897637795275,
      "duration": "96i"
    },
    {
      "time": "95232i",
      "midiNote": 64,
      "noteName": "E4",
      "velocity": 1,
      "duration": "96i"
    },
    {
      "time": "95328i",
      "midiNote": 50,
      "noteName": "D3",
      "velocity": 0.7559055118110236,
      "duration": "96i"
    },
    {
      "time": "95328i",
      "midiNote": 56,
      "noteName": "G#3",
      "velocity": 0.7559055118110236,
      "duration": "96i"
    },
    {
      "time": "95328i",
      "midiNote": 64,
      "noteName": "E4",
      "velocity": 0.8818897637795275,
      "duration": "96i"
    },
    {
      "time": "95424i",
      "midiNote": 50,
      "noteName": "D3",
      "velocity": 0.8188976377952756,
      "duration": "96i"
    },
    {
      "time": "95424i",
      "midiNote": 56,
      "noteName": "G#3",
      "velocity": 0.8188976377952756,
      "duration": "96i"
    },
    {
      "time": "95424i",
      "midiNote": 64,
      "noteName": "E4",
      "velocity": 0.9448818897637795,
      "duration": "96i"
    },
    {
      "time": "95520i",
      "midiNote": 50,
      "noteName": "D3",
      "velocity": 0.8818897637795275,
      "duration": "96i"
    },
    {
      "time": "95520i",
      "midiNote": 56,
      "noteName": "G#3",
      "velocity": 0.8818897637795275,
      "duration": "96i"
    },
    {
      "time": "95520i",
      "midiNote": 64,
      "noteName": "E4",
      "velocity": 1,
      "duration": "96i"
    },
    {
      "time": "95712i",
      "midiNote": 50,
      "noteName": "D3",
      "velocity": 0.8818897637795275,
      "duration": "192i"
    },
    {
      "time": "95712i",
      "midiNote": 56,
      "noteName": "G#3",
      "velocity": 0.8818897637795275,
      "duration": "192i"
    },
    {
      "time": "95712i",
      "midiNote": 64,
      "noteName": "E4",
      "velocity": 1,
      "duration": "192i"
    },
    {
      "time": "95904i",
      "midiNote": 50,
      "noteName": "D3",
      "velocity": 0.8818897637795275,
      "duration": "96i"
    },
    {
      "time": "95904i",
      "midiNote": 56,
      "noteName": "G#3",
      "velocity": 0.8818897637795275,
      "duration": "96i"
    },
    {
      "time": "95904i",
      "midiNote": 64,
      "noteName": "E4",
      "velocity": 1,
      "duration": "96i"
    },
    {
      "time": "96000i",
      "midiNote": 59,
      "noteName": "B3",
      "velocity": 0.8818897637795275,
      "duration": "96i"
    },
    {
      "time": "96000i",
      "midiNote": 56,
      "noteName": "G#3",
      "velocity": 0.8818897637795275,
      "duration": "96i"
    },
    {
      "time": "96000i",
      "midiNote": 65,
      "noteName": "F4",
      "velocity": 1,
      "duration": "96i"
    },
    {
      "time": "96096i",
      "midiNote": 59,
      "noteName": "B3",
      "velocity": 0.7559055118110236,
      "duration": "96i"
    },
    {
      "time": "96096i",
      "midiNote": 56,
      "noteName": "G#3",
      "velocity": 0.7559055118110236,
      "duration": "96i"
    },
    {
      "time": "96096i",
      "midiNote": 65,
      "noteName": "F4",
      "velocity": 0.8818897637795275,
      "duration": "96i"
    },
    {
      "time": "96192i",
      "midiNote": 59,
      "noteName": "B3",
      "velocity": 0.8188976377952756,
      "duration": "96i"
    },
    {
      "time": "96192i",
      "midiNote": 56,
      "noteName": "G#3",
      "velocity": 0.8188976377952756,
      "duration": "96i"
    },
    {
      "time": "96192i",
      "midiNote": 65,
      "noteName": "F4",
      "velocity": 0.9448818897637795,
      "duration": "96i"
    },
    {
      "time": "96288i",
      "midiNote": 59,
      "noteName": "B3",
      "velocity": 0.8818897637795275,
      "duration": "96i"
    },
    {
      "time": "96288i",
      "midiNote": 56,
      "noteName": "G#3",
      "velocity": 0.8818897637795275,
      "duration": "96i"
    },
    {
      "time": "96288i",
      "midiNote": 65,
      "noteName": "F4",
      "velocity": 1,
      "duration": "96i"
    },
    {
      "time": "96480i",
      "midiNote": 59,
      "noteName": "B3",
      "velocity": 0.8818897637795275,
      "duration": "192i"
    },
    {
      "time": "96480i",
      "midiNote": 56,
      "noteName": "G#3",
      "velocity": 0.8818897637795275,
      "duration": "192i"
    },
    {
      "time": "96480i",
      "midiNote": 65,
      "noteName": "F4",
      "velocity": 1,
      "duration": "192i"
    },
    {
      "time": "96672i",
      "midiNote": 59,
      "noteName": "B3",
      "velocity": 0.8818897637795275,
      "duration": "96i"
    },
    {
      "time": "96672i",
      "midiNote": 56,
      "noteName": "G#3",
      "velocity": 0.8818897637795275,
      "duration": "96i"
    },
    {
      "time": "96672i",
      "midiNote": 65,
      "noteName": "F4",
      "velocity": 1,
      "duration": "96i"
    },
    {
      "time": "96768i",
      "midiNote": 59,
      "noteName": "B3",
      "velocity": 0.8818897637795275,
      "duration": "96i"
    },
    {
      "time": "96768i",
      "midiNote": 56,
      "noteName": "G#3",
      "velocity": 0.8818897637795275,
      "duration": "96i"
    },
    {
      "time": "96768i",
      "midiNote": 65,
      "noteName": "F4",
      "velocity": 1,
      "duration": "96i"
    },
    {
      "time": "96864i",
      "midiNote": 59,
      "noteName": "B3",
      "velocity": 0.7559055118110236,
      "duration": "96i"
    },
    {
      "time": "96864i",
      "midiNote": 56,
      "noteName": "G#3",
      "velocity": 0.7559055118110236,
      "duration": "96i"
    },
    {
      "time": "96864i",
      "midiNote": 65,
      "noteName": "F4",
      "velocity": 0.8818897637795275,
      "duration": "96i"
    },
    {
      "time": "96960i",
      "midiNote": 59,
      "noteName": "B3",
      "velocity": 0.8188976377952756,
      "duration": "96i"
    },
    {
      "time": "96960i",
      "midiNote": 56,
      "noteName": "G#3",
      "velocity": 0.8188976377952756,
      "duration": "96i"
    },
    {
      "time": "96960i",
      "midiNote": 65,
      "noteName": "F4",
      "velocity": 0.9448818897637795,
      "duration": "96i"
    },
    {
      "time": "97056i",
      "midiNote": 59,
      "noteName": "B3",
      "velocity": 0.8818897637795275,
      "duration": "96i"
    },
    {
      "time": "97056i",
      "midiNote": 56,
      "noteName": "G#3",
      "velocity": 0.8818897637795275,
      "duration": "96i"
    },
    {
      "time": "97056i",
      "midiNote": 65,
      "noteName": "F4",
      "velocity": 1,
      "duration": "96i"
    },
    {
      "time": "97248i",
      "midiNote": 59,
      "noteName": "B3",
      "velocity": 0.8818897637795275,
      "duration": "192i"
    },
    {
      "time": "97248i",
      "midiNote": 56,
      "noteName": "G#3",
      "velocity": 0.8818897637795275,
      "duration": "192i"
    },
    {
      "time": "97248i",
      "midiNote": 65,
      "noteName": "F4",
      "velocity": 1,
      "duration": "192i"
    },
    {
      "time": "97440i",
      "midiNote": 59,
      "noteName": "B3",
      "velocity": 0.8818897637795275,
      "duration": "96i"
    },
    {
      "time": "97440i",
      "midiNote": 56,
      "noteName": "G#3",
      "velocity": 0.8818897637795275,
      "duration": "96i"
    },
    {
      "time": "97440i",
      "midiNote": 65,
      "noteName": "F4",
      "velocity": 1,
      "duration": "96i"
    },
    {
      "time": "97536i",
      "midiNote": 57,
      "noteName": "A3",
      "velocity": 0.8818897637795275,
      "duration": "96i"
    },
    {
      "time": "97536i",
      "midiNote": 61,
      "noteName": "C#4",
      "velocity": 0.8818897637795275,
      "duration": "96i"
    },
    {
      "time": "97536i",
      "midiNote": 66,
      "noteName": "F#4",
      "velocity": 1,
      "duration": "96i"
    },
    {
      "time": "97632i",
      "midiNote": 57,
      "noteName": "A3",
      "velocity": 0.7559055118110236,
      "duration": "96i"
    },
    {
      "time": "97632i",
      "midiNote": 61,
      "noteName": "C#4",
      "velocity": 0.7559055118110236,
      "duration": "96i"
    },
    {
      "time": "97632i",
      "midiNote": 66,
      "noteName": "F#4",
      "velocity": 0.8818897637795275,
      "duration": "96i"
    },
    {
      "time": "97728i",
      "midiNote": 57,
      "noteName": "A3",
      "velocity": 0.8188976377952756,
      "duration": "96i"
    },
    {
      "time": "97728i",
      "midiNote": 61,
      "noteName": "C#4",
      "velocity": 0.8188976377952756,
      "duration": "96i"
    },
    {
      "time": "97728i",
      "midiNote": 66,
      "noteName": "F#4",
      "velocity": 0.9448818897637795,
      "duration": "96i"
    },
    {
      "time": "97824i",
      "midiNote": 57,
      "noteName": "A3",
      "velocity": 0.8818897637795275,
      "duration": "96i"
    },
    {
      "time": "97824i",
      "midiNote": 61,
      "noteName": "C#4",
      "velocity": 0.8818897637795275,
      "duration": "96i"
    },
    {
      "time": "97824i",
      "midiNote": 66,
      "noteName": "F#4",
      "velocity": 1,
      "duration": "96i"
    },
    {
      "time": "98016i",
      "midiNote": 57,
      "noteName": "A3",
      "velocity": 0.8818897637795275,
      "duration": "192i"
    },
    {
      "time": "98016i",
      "midiNote": 61,
      "noteName": "C#4",
      "velocity": 0.8818897637795275,
      "duration": "192i"
    },
    {
      "time": "98016i",
      "midiNote": 66,
      "noteName": "F#4",
      "velocity": 1,
      "duration": "192i"
    },
    {
      "time": "98208i",
      "midiNote": 57,
      "noteName": "A3",
      "velocity": 0.8818897637795275,
      "duration": "96i"
    },
    {
      "time": "98208i",
      "midiNote": 61,
      "noteName": "C#4",
      "velocity": 0.8818897637795275,
      "duration": "96i"
    },
    {
      "time": "98208i",
      "midiNote": 66,
      "noteName": "F#4",
      "velocity": 1,
      "duration": "96i"
    },
    {
      "time": "98304i",
      "midiNote": 57,
      "noteName": "A3",
      "velocity": 0.8818897637795275,
      "duration": "96i"
    },
    {
      "time": "98304i",
      "midiNote": 61,
      "noteName": "C#4",
      "velocity": 0.8818897637795275,
      "duration": "96i"
    },
    {
      "time": "98304i",
      "midiNote": 66,
      "noteName": "F#4",
      "velocity": 1,
      "duration": "96i"
    },
    {
      "time": "98400i",
      "midiNote": 57,
      "noteName": "A3",
      "velocity": 0.7559055118110236,
      "duration": "96i"
    },
    {
      "time": "98400i",
      "midiNote": 61,
      "noteName": "C#4",
      "velocity": 0.7559055118110236,
      "duration": "96i"
    },
    {
      "time": "98400i",
      "midiNote": 66,
      "noteName": "F#4",
      "velocity": 0.8818897637795275,
      "duration": "96i"
    },
    {
      "time": "98496i",
      "midiNote": 57,
      "noteName": "A3",
      "velocity": 0.8188976377952756,
      "duration": "96i"
    },
    {
      "time": "98496i",
      "midiNote": 61,
      "noteName": "C#4",
      "velocity": 0.8188976377952756,
      "duration": "96i"
    },
    {
      "time": "98496i",
      "midiNote": 66,
      "noteName": "F#4",
      "velocity": 0.9448818897637795,
      "duration": "96i"
    },
    {
      "time": "98592i",
      "midiNote": 57,
      "noteName": "A3",
      "velocity": 0.8818897637795275,
      "duration": "96i"
    },
    {
      "time": "98592i",
      "midiNote": 61,
      "noteName": "C#4",
      "velocity": 0.8818897637795275,
      "duration": "96i"
    },
    {
      "time": "98592i",
      "midiNote": 66,
      "noteName": "F#4",
      "velocity": 1,
      "duration": "96i"
    },
    {
      "time": "98784i",
      "midiNote": 57,
      "noteName": "A3",
      "velocity": 0.8818897637795275,
      "duration": "192i"
    },
    {
      "time": "98784i",
      "midiNote": 61,
      "noteName": "C#4",
      "velocity": 0.8818897637795275,
      "duration": "192i"
    },
    {
      "time": "98784i",
      "midiNote": 66,
      "noteName": "F#4",
      "velocity": 1,
      "duration": "192i"
    },
    {
      "time": "98976i",
      "midiNote": 57,
      "noteName": "A3",
      "velocity": 0.8818897637795275,
      "duration": "96i"
    },
    {
      "time": "98976i",
      "midiNote": 61,
      "noteName": "C#4",
      "velocity": 0.8818897637795275,
      "duration": "96i"
    },
    {
      "time": "98976i",
      "midiNote": 66,
      "noteName": "F#4",
      "velocity": 1,
      "duration": "192i"
    },
    {
      "time": "99072i",
      "midiNote": 57,
      "noteName": "A3",
      "velocity": 0.8818897637795275,
      "duration": "96i"
    },
    {
      "time": "99072i",
      "midiNote": 62,
      "noteName": "D4",
      "velocity": 0.8818897637795275,
      "duration": "96i"
    },
    {
      "time": "99072i",
      "midiNote": 66,
      "noteName": "F#4",
      "velocity": 1,
      "duration": "0i"
    },
    {
      "time": "99168i",
      "midiNote": 57,
      "noteName": "A3",
      "velocity": 0.7559055118110236,
      "duration": "96i"
    },
    {
      "time": "99168i",
      "midiNote": 62,
      "noteName": "D4",
      "velocity": 0.7559055118110236,
      "duration": "96i"
    },
    {
      "time": "99168i",
      "midiNote": 66,
      "noteName": "F#4",
      "velocity": 0.8818897637795275,
      "duration": "96i"
    },
    {
      "time": "99264i",
      "midiNote": 57,
      "noteName": "A3",
      "velocity": 0.8188976377952756,
      "duration": "96i"
    },
    {
      "time": "99264i",
      "midiNote": 62,
      "noteName": "D4",
      "velocity": 0.8188976377952756,
      "duration": "96i"
    },
    {
      "time": "99264i",
      "midiNote": 66,
      "noteName": "F#4",
      "velocity": 0.9448818897637795,
      "duration": "96i"
    },
    {
      "time": "99360i",
      "midiNote": 57,
      "noteName": "A3",
      "velocity": 0.8818897637795275,
      "duration": "96i"
    },
    {
      "time": "99360i",
      "midiNote": 62,
      "noteName": "D4",
      "velocity": 0.8818897637795275,
      "duration": "96i"
    },
    {
      "time": "99360i",
      "midiNote": 66,
      "noteName": "F#4",
      "velocity": 1,
      "duration": "96i"
    },
    {
      "time": "99552i",
      "midiNote": 57,
      "noteName": "A3",
      "velocity": 0.8818897637795275,
      "duration": "192i"
    },
    {
      "time": "99552i",
      "midiNote": 62,
      "noteName": "D4",
      "velocity": 0.8818897637795275,
      "duration": "192i"
    },
    {
      "time": "99552i",
      "midiNote": 66,
      "noteName": "F#4",
      "velocity": 1,
      "duration": "192i"
    },
    {
      "time": "99744i",
      "midiNote": 57,
      "noteName": "A3",
      "velocity": 0.8818897637795275,
      "duration": "96i"
    },
    {
      "time": "99744i",
      "midiNote": 62,
      "noteName": "D4",
      "velocity": 0.8818897637795275,
      "duration": "96i"
    },
    {
      "time": "99744i",
      "midiNote": 66,
      "noteName": "F#4",
      "velocity": 1,
      "duration": "96i"
    },
    {
      "time": "99840i",
      "midiNote": 57,
      "noteName": "A3",
      "velocity": 0.8818897637795275,
      "duration": "96i"
    },
    {
      "time": "99840i",
      "midiNote": 62,
      "noteName": "D4",
      "velocity": 0.8818897637795275,
      "duration": "96i"
    },
    {
      "time": "99840i",
      "midiNote": 66,
      "noteName": "F#4",
      "velocity": 1,
      "duration": "96i"
    },
    {
      "time": "99936i",
      "midiNote": 57,
      "noteName": "A3",
      "velocity": 0.7559055118110236,
      "duration": "96i"
    },
    {
      "time": "99936i",
      "midiNote": 62,
      "noteName": "D4",
      "velocity": 0.7559055118110236,
      "duration": "96i"
    },
    {
      "time": "99936i",
      "midiNote": 66,
      "noteName": "F#4",
      "velocity": 0.8818897637795275,
      "duration": "96i"
    },
    {
      "time": "100032i",
      "midiNote": 57,
      "noteName": "A3",
      "velocity": 0.8188976377952756,
      "duration": "96i"
    },
    {
      "time": "100032i",
      "midiNote": 62,
      "noteName": "D4",
      "velocity": 0.8188976377952756,
      "duration": "96i"
    },
    {
      "time": "100032i",
      "midiNote": 66,
      "noteName": "F#4",
      "velocity": 0.9448818897637795,
      "duration": "96i"
    },
    {
      "time": "100128i",
      "midiNote": 57,
      "noteName": "A3",
      "velocity": 0.8818897637795275,
      "duration": "96i"
    },
    {
      "time": "100128i",
      "midiNote": 62,
      "noteName": "D4",
      "velocity": 0.8818897637795275,
      "duration": "96i"
    },
    {
      "time": "100128i",
      "midiNote": 66,
      "noteName": "F#4",
      "velocity": 1,
      "duration": "96i"
    },
    {
      "time": "100320i",
      "midiNote": 57,
      "noteName": "A3",
      "velocity": 0.8818897637795275,
      "duration": "192i"
    },
    {
      "time": "100320i",
      "midiNote": 62,
      "noteName": "D4",
      "velocity": 0.8818897637795275,
      "duration": "192i"
    },
    {
      "time": "100320i",
      "midiNote": 66,
      "noteName": "F#4",
      "velocity": 1,
      "duration": "192i"
    },
    {
      "time": "100512i",
      "midiNote": 57,
      "noteName": "A3",
      "velocity": 0.8818897637795275,
      "duration": "96i"
    },
    {
      "time": "100512i",
      "midiNote": 62,
      "noteName": "D4",
      "velocity": 0.8818897637795275,
      "duration": "96i"
    },
    {
      "time": "100512i",
      "midiNote": 66,
      "noteName": "F#4",
      "velocity": 1,
      "duration": "96i"
    },
    {
      "time": "100608i",
      "midiNote": 50,
      "noteName": "D3",
      "velocity": 0.8818897637795275,
      "duration": "96i"
    },
    {
      "time": "100608i",
      "midiNote": 56,
      "noteName": "G#3",
      "velocity": 0.8818897637795275,
      "duration": "96i"
    },
    {
      "time": "100608i",
      "midiNote": 64,
      "noteName": "E4",
      "velocity": 1,
      "duration": "96i"
    },
    {
      "time": "100704i",
      "midiNote": 50,
      "noteName": "D3",
      "velocity": 0.7559055118110236,
      "duration": "96i"
    },
    {
      "time": "100704i",
      "midiNote": 56,
      "noteName": "G#3",
      "velocity": 0.7559055118110236,
      "duration": "96i"
    },
    {
      "time": "100704i",
      "midiNote": 64,
      "noteName": "E4",
      "velocity": 0.8818897637795275,
      "duration": "96i"
    },
    {
      "time": "100800i",
      "midiNote": 50,
      "noteName": "D3",
      "velocity": 0.8188976377952756,
      "duration": "96i"
    },
    {
      "time": "100800i",
      "midiNote": 56,
      "noteName": "G#3",
      "velocity": 0.8188976377952756,
      "duration": "96i"
    },
    {
      "time": "100800i",
      "midiNote": 64,
      "noteName": "E4",
      "velocity": 0.9448818897637795,
      "duration": "96i"
    },
    {
      "time": "100896i",
      "midiNote": 50,
      "noteName": "D3",
      "velocity": 0.8818897637795275,
      "duration": "96i"
    },
    {
      "time": "100896i",
      "midiNote": 56,
      "noteName": "G#3",
      "velocity": 0.8818897637795275,
      "duration": "96i"
    },
    {
      "time": "100896i",
      "midiNote": 64,
      "noteName": "E4",
      "velocity": 1,
      "duration": "96i"
    },
    {
      "time": "101088i",
      "midiNote": 50,
      "noteName": "D3",
      "velocity": 0.8818897637795275,
      "duration": "192i"
    },
    {
      "time": "101088i",
      "midiNote": 56,
      "noteName": "G#3",
      "velocity": 0.8818897637795275,
      "duration": "192i"
    },
    {
      "time": "101088i",
      "midiNote": 64,
      "noteName": "E4",
      "velocity": 1,
      "duration": "192i"
    },
    {
      "time": "101280i",
      "midiNote": 50,
      "noteName": "D3",
      "velocity": 0.8818897637795275,
      "duration": "96i"
    },
    {
      "time": "101280i",
      "midiNote": 56,
      "noteName": "G#3",
      "velocity": 0.8818897637795275,
      "duration": "96i"
    },
    {
      "time": "101280i",
      "midiNote": 64,
      "noteName": "E4",
      "velocity": 1,
      "duration": "96i"
    },
    {
      "time": "101376i",
      "midiNote": 50,
      "noteName": "D3",
      "velocity": 0.8818897637795275,
      "duration": "96i"
    },
    {
      "time": "101376i",
      "midiNote": 56,
      "noteName": "G#3",
      "velocity": 0.8818897637795275,
      "duration": "96i"
    },
    {
      "time": "101376i",
      "midiNote": 64,
      "noteName": "E4",
      "velocity": 1,
      "duration": "96i"
    },
    {
      "time": "101472i",
      "midiNote": 50,
      "noteName": "D3",
      "velocity": 0.7559055118110236,
      "duration": "96i"
    },
    {
      "time": "101472i",
      "midiNote": 56,
      "noteName": "G#3",
      "velocity": 0.7559055118110236,
      "duration": "96i"
    },
    {
      "time": "101472i",
      "midiNote": 64,
      "noteName": "E4",
      "velocity": 0.8818897637795275,
      "duration": "96i"
    },
    {
      "time": "101568i",
      "midiNote": 50,
      "noteName": "D3",
      "velocity": 0.8188976377952756,
      "duration": "96i"
    },
    {
      "time": "101568i",
      "midiNote": 56,
      "noteName": "G#3",
      "velocity": 0.8188976377952756,
      "duration": "96i"
    },
    {
      "time": "101568i",
      "midiNote": 64,
      "noteName": "E4",
      "velocity": 0.9448818897637795,
      "duration": "96i"
    },
    {
      "time": "101664i",
      "midiNote": 50,
      "noteName": "D3",
      "velocity": 0.8818897637795275,
      "duration": "96i"
    },
    {
      "time": "101664i",
      "midiNote": 56,
      "noteName": "G#3",
      "velocity": 0.8818897637795275,
      "duration": "96i"
    },
    {
      "time": "101664i",
      "midiNote": 64,
      "noteName": "E4",
      "velocity": 1,
      "duration": "96i"
    },
    {
      "time": "101856i",
      "midiNote": 50,
      "noteName": "D3",
      "velocity": 0.8818897637795275,
      "duration": "192i"
    },
    {
      "time": "101856i",
      "midiNote": 56,
      "noteName": "G#3",
      "velocity": 0.8818897637795275,
      "duration": "192i"
    },
    {
      "time": "101856i",
      "midiNote": 64,
      "noteName": "E4",
      "velocity": 1,
      "duration": "192i"
    },
    {
      "time": "102048i",
      "midiNote": 50,
      "noteName": "D3",
      "velocity": 0.8818897637795275,
      "duration": "96i"
    },
    {
      "time": "102048i",
      "midiNote": 56,
      "noteName": "G#3",
      "velocity": 0.8818897637795275,
      "duration": "96i"
    },
    {
      "time": "102048i",
      "midiNote": 64,
      "noteName": "E4",
      "velocity": 1,
      "duration": "96i"
    },
    {
      "time": "102144i",
      "midiNote": 59,
      "noteName": "B3",
      "velocity": 0.8818897637795275,
      "duration": "96i"
    },
    {
      "time": "102144i",
      "midiNote": 56,
      "noteName": "G#3",
      "velocity": 0.8818897637795275,
      "duration": "96i"
    },
    {
      "time": "102144i",
      "midiNote": 65,
      "noteName": "F4",
      "velocity": 1,
      "duration": "96i"
    },
    {
      "time": "102240i",
      "midiNote": 59,
      "noteName": "B3",
      "velocity": 0.7559055118110236,
      "duration": "96i"
    },
    {
      "time": "102240i",
      "midiNote": 56,
      "noteName": "G#3",
      "velocity": 0.7559055118110236,
      "duration": "96i"
    },
    {
      "time": "102240i",
      "midiNote": 65,
      "noteName": "F4",
      "velocity": 0.8818897637795275,
      "duration": "96i"
    },
    {
      "time": "102336i",
      "midiNote": 59,
      "noteName": "B3",
      "velocity": 0.8188976377952756,
      "duration": "96i"
    },
    {
      "time": "102336i",
      "midiNote": 56,
      "noteName": "G#3",
      "velocity": 0.8188976377952756,
      "duration": "96i"
    },
    {
      "time": "102336i",
      "midiNote": 65,
      "noteName": "F4",
      "velocity": 0.9448818897637795,
      "duration": "96i"
    },
    {
      "time": "102432i",
      "midiNote": 59,
      "noteName": "B3",
      "velocity": 0.8818897637795275,
      "duration": "96i"
    },
    {
      "time": "102432i",
      "midiNote": 56,
      "noteName": "G#3",
      "velocity": 0.8818897637795275,
      "duration": "96i"
    },
    {
      "time": "102432i",
      "midiNote": 65,
      "noteName": "F4",
      "velocity": 1,
      "duration": "96i"
    },
    {
      "time": "102624i",
      "midiNote": 59,
      "noteName": "B3",
      "velocity": 0.8818897637795275,
      "duration": "192i"
    },
    {
      "time": "102624i",
      "midiNote": 56,
      "noteName": "G#3",
      "velocity": 0.8818897637795275,
      "duration": "192i"
    },
    {
      "time": "102624i",
      "midiNote": 65,
      "noteName": "F4",
      "velocity": 1,
      "duration": "192i"
    },
    {
      "time": "102816i",
      "midiNote": 59,
      "noteName": "B3",
      "velocity": 0.8818897637795275,
      "duration": "96i"
    },
    {
      "time": "102816i",
      "midiNote": 56,
      "noteName": "G#3",
      "velocity": 0.8818897637795275,
      "duration": "96i"
    },
    {
      "time": "102816i",
      "midiNote": 65,
      "noteName": "F4",
      "velocity": 1,
      "duration": "96i"
    },
    {
      "time": "102912i",
      "midiNote": 59,
      "noteName": "B3",
      "velocity": 0.8818897637795275,
      "duration": "96i"
    },
    {
      "time": "102912i",
      "midiNote": 56,
      "noteName": "G#3",
      "velocity": 0.8818897637795275,
      "duration": "96i"
    },
    {
      "time": "102912i",
      "midiNote": 65,
      "noteName": "F4",
      "velocity": 1,
      "duration": "96i"
    },
    {
      "time": "103008i",
      "midiNote": 59,
      "noteName": "B3",
      "velocity": 0.7559055118110236,
      "duration": "96i"
    },
    {
      "time": "103008i",
      "midiNote": 56,
      "noteName": "G#3",
      "velocity": 0.7559055118110236,
      "duration": "96i"
    },
    {
      "time": "103008i",
      "midiNote": 65,
      "noteName": "F4",
      "velocity": 0.8818897637795275,
      "duration": "96i"
    },
    {
      "time": "103104i",
      "midiNote": 59,
      "noteName": "B3",
      "velocity": 0.8188976377952756,
      "duration": "96i"
    },
    {
      "time": "103104i",
      "midiNote": 56,
      "noteName": "G#3",
      "velocity": 0.8188976377952756,
      "duration": "96i"
    },
    {
      "time": "103104i",
      "midiNote": 65,
      "noteName": "F4",
      "velocity": 0.9448818897637795,
      "duration": "96i"
    },
    {
      "time": "103200i",
      "midiNote": 59,
      "noteName": "B3",
      "velocity": 0.8818897637795275,
      "duration": "96i"
    },
    {
      "time": "103200i",
      "midiNote": 56,
      "noteName": "G#3",
      "velocity": 0.8818897637795275,
      "duration": "96i"
    },
    {
      "time": "103200i",
      "midiNote": 65,
      "noteName": "F4",
      "velocity": 1,
      "duration": "96i"
    },
    {
      "time": "103392i",
      "midiNote": 59,
      "noteName": "B3",
      "velocity": 0.8818897637795275,
      "duration": "192i"
    },
    {
      "time": "103392i",
      "midiNote": 56,
      "noteName": "G#3",
      "velocity": 0.8818897637795275,
      "duration": "192i"
    },
    {
      "time": "103392i",
      "midiNote": 65,
      "noteName": "F4",
      "velocity": 1,
      "duration": "192i"
    },
    {
      "time": "103584i",
      "midiNote": 59,
      "noteName": "B3",
      "velocity": 0.8818897637795275,
      "duration": "96i"
    },
    {
      "time": "103584i",
      "midiNote": 56,
      "noteName": "G#3",
      "velocity": 0.8818897637795275,
      "duration": "96i"
    },
    {
      "time": "103584i",
      "midiNote": 65,
      "noteName": "F4",
      "velocity": 1,
      "duration": "96i"
    },
    {
      "time": "103680i",
      "midiNote": 57,
      "noteName": "A3",
      "velocity": 0.8818897637795275,
      "duration": "96i"
    },
    {
      "time": "103680i",
      "midiNote": 61,
      "noteName": "C#4",
      "velocity": 0.8818897637795275,
      "duration": "96i"
    },
    {
      "time": "103680i",
      "midiNote": 66,
      "noteName": "F#4",
      "velocity": 1,
      "duration": "96i"
    },
    {
      "time": "103776i",
      "midiNote": 57,
      "noteName": "A3",
      "velocity": 0.7559055118110236,
      "duration": "96i"
    },
    {
      "time": "103776i",
      "midiNote": 61,
      "noteName": "C#4",
      "velocity": 0.7559055118110236,
      "duration": "96i"
    },
    {
      "time": "103776i",
      "midiNote": 66,
      "noteName": "F#4",
      "velocity": 0.8818897637795275,
      "duration": "96i"
    },
    {
      "time": "103872i",
      "midiNote": 57,
      "noteName": "A3",
      "velocity": 0.8188976377952756,
      "duration": "96i"
    },
    {
      "time": "103872i",
      "midiNote": 61,
      "noteName": "C#4",
      "velocity": 0.8188976377952756,
      "duration": "96i"
    },
    {
      "time": "103872i",
      "midiNote": 66,
      "noteName": "F#4",
      "velocity": 0.9448818897637795,
      "duration": "96i"
    },
    {
      "time": "103968i",
      "midiNote": 57,
      "noteName": "A3",
      "velocity": 0.8818897637795275,
      "duration": "96i"
    },
    {
      "time": "103968i",
      "midiNote": 61,
      "noteName": "C#4",
      "velocity": 0.8818897637795275,
      "duration": "96i"
    },
    {
      "time": "103968i",
      "midiNote": 66,
      "noteName": "F#4",
      "velocity": 1,
      "duration": "96i"
    },
    {
      "time": "104160i",
      "midiNote": 57,
      "noteName": "A3",
      "velocity": 0.8818897637795275,
      "duration": "192i"
    },
    {
      "time": "104160i",
      "midiNote": 61,
      "noteName": "C#4",
      "velocity": 0.8818897637795275,
      "duration": "192i"
    },
    {
      "time": "104160i",
      "midiNote": 66,
      "noteName": "F#4",
      "velocity": 1,
      "duration": "192i"
    },
    {
      "time": "104352i",
      "midiNote": 57,
      "noteName": "A3",
      "velocity": 0.8818897637795275,
      "duration": "96i"
    },
    {
      "time": "104352i",
      "midiNote": 61,
      "noteName": "C#4",
      "velocity": 0.8818897637795275,
      "duration": "96i"
    },
    {
      "time": "104352i",
      "midiNote": 66,
      "noteName": "F#4",
      "velocity": 1,
      "duration": "96i"
    },
    {
      "time": "104448i",
      "midiNote": 57,
      "noteName": "A3",
      "velocity": 0.8818897637795275,
      "duration": "96i"
    },
    {
      "time": "104448i",
      "midiNote": 61,
      "noteName": "C#4",
      "velocity": 0.8818897637795275,
      "duration": "96i"
    },
    {
      "time": "104448i",
      "midiNote": 66,
      "noteName": "F#4",
      "velocity": 1,
      "duration": "96i"
    },
    {
      "time": "104544i",
      "midiNote": 57,
      "noteName": "A3",
      "velocity": 0.7559055118110236,
      "duration": "96i"
    },
    {
      "time": "104544i",
      "midiNote": 61,
      "noteName": "C#4",
      "velocity": 0.7559055118110236,
      "duration": "96i"
    },
    {
      "time": "104544i",
      "midiNote": 66,
      "noteName": "F#4",
      "velocity": 0.8818897637795275,
      "duration": "96i"
    },
    {
      "time": "104640i",
      "midiNote": 57,
      "noteName": "A3",
      "velocity": 0.8188976377952756,
      "duration": "96i"
    },
    {
      "time": "104640i",
      "midiNote": 61,
      "noteName": "C#4",
      "velocity": 0.8188976377952756,
      "duration": "96i"
    },
    {
      "time": "104640i",
      "midiNote": 66,
      "noteName": "F#4",
      "velocity": 0.9448818897637795,
      "duration": "96i"
    },
    {
      "time": "104736i",
      "midiNote": 57,
      "noteName": "A3",
      "velocity": 0.8818897637795275,
      "duration": "96i"
    },
    {
      "time": "104736i",
      "midiNote": 61,
      "noteName": "C#4",
      "velocity": 0.8818897637795275,
      "duration": "96i"
    },
    {
      "time": "104736i",
      "midiNote": 66,
      "noteName": "F#4",
      "velocity": 1,
      "duration": "96i"
    },
    {
      "time": "104928i",
      "midiNote": 57,
      "noteName": "A3",
      "velocity": 0.8818897637795275,
      "duration": "192i"
    },
    {
      "time": "104928i",
      "midiNote": 61,
      "noteName": "C#4",
      "velocity": 0.8818897637795275,
      "duration": "192i"
    },
    {
      "time": "104928i",
      "midiNote": 66,
      "noteName": "F#4",
      "velocity": 1,
      "duration": "192i"
    },
    {
      "time": "105120i",
      "midiNote": 57,
      "noteName": "A3",
      "velocity": 0.8818897637795275,
      "duration": "96i"
    },
    {
      "time": "105120i",
      "midiNote": 61,
      "noteName": "C#4",
      "velocity": 0.8818897637795275,
      "duration": "96i"
    },
    {
      "time": "105120i",
      "midiNote": 66,
      "noteName": "F#4",
      "velocity": 1,
      "duration": "192i"
    },
    {
      "time": "105216i",
      "midiNote": 57,
      "noteName": "A3",
      "velocity": 0.8818897637795275,
      "duration": "96i"
    },
    {
      "time": "105216i",
      "midiNote": 62,
      "noteName": "D4",
      "velocity": 0.8818897637795275,
      "duration": "96i"
    },
    {
      "time": "105216i",
      "midiNote": 66,
      "noteName": "F#4",
      "velocity": 1,
      "duration": "0i"
    },
    {
      "time": "105312i",
      "midiNote": 57,
      "noteName": "A3",
      "velocity": 0.7559055118110236,
      "duration": "96i"
    },
    {
      "time": "105312i",
      "midiNote": 62,
      "noteName": "D4",
      "velocity": 0.7559055118110236,
      "duration": "96i"
    },
    {
      "time": "105312i",
      "midiNote": 66,
      "noteName": "F#4",
      "velocity": 0.8818897637795275,
      "duration": "96i"
    },
    {
      "time": "105408i",
      "midiNote": 57,
      "noteName": "A3",
      "velocity": 0.8188976377952756,
      "duration": "96i"
    },
    {
      "time": "105408i",
      "midiNote": 62,
      "noteName": "D4",
      "velocity": 0.8188976377952756,
      "duration": "96i"
    },
    {
      "time": "105408i",
      "midiNote": 66,
      "noteName": "F#4",
      "velocity": 0.9448818897637795,
      "duration": "96i"
    },
    {
      "time": "105504i",
      "midiNote": 57,
      "noteName": "A3",
      "velocity": 0.8818897637795275,
      "duration": "96i"
    },
    {
      "time": "105504i",
      "midiNote": 62,
      "noteName": "D4",
      "velocity": 0.8818897637795275,
      "duration": "96i"
    },
    {
      "time": "105504i",
      "midiNote": 66,
      "noteName": "F#4",
      "velocity": 1,
      "duration": "96i"
    },
    {
      "time": "105696i",
      "midiNote": 57,
      "noteName": "A3",
      "velocity": 0.8818897637795275,
      "duration": "192i"
    },
    {
      "time": "105696i",
      "midiNote": 62,
      "noteName": "D4",
      "velocity": 0.8818897637795275,
      "duration": "192i"
    },
    {
      "time": "105696i",
      "midiNote": 66,
      "noteName": "F#4",
      "velocity": 1,
      "duration": "192i"
    },
    {
      "time": "105888i",
      "midiNote": 57,
      "noteName": "A3",
      "velocity": 0.8818897637795275,
      "duration": "96i"
    },
    {
      "time": "105888i",
      "midiNote": 62,
      "noteName": "D4",
      "velocity": 0.8818897637795275,
      "duration": "96i"
    },
    {
      "time": "105888i",
      "midiNote": 66,
      "noteName": "F#4",
      "velocity": 1,
      "duration": "96i"
    },
    {
      "time": "105984i",
      "midiNote": 57,
      "noteName": "A3",
      "velocity": 0.8818897637795275,
      "duration": "96i"
    },
    {
      "time": "105984i",
      "midiNote": 62,
      "noteName": "D4",
      "velocity": 0.8818897637795275,
      "duration": "96i"
    },
    {
      "time": "105984i",
      "midiNote": 66,
      "noteName": "F#4",
      "velocity": 1,
      "duration": "96i"
    },
    {
      "time": "106080i",
      "midiNote": 57,
      "noteName": "A3",
      "velocity": 0.7559055118110236,
      "duration": "96i"
    },
    {
      "time": "106080i",
      "midiNote": 62,
      "noteName": "D4",
      "velocity": 0.7559055118110236,
      "duration": "96i"
    },
    {
      "time": "106080i",
      "midiNote": 66,
      "noteName": "F#4",
      "velocity": 0.8818897637795275,
      "duration": "96i"
    },
    {
      "time": "106176i",
      "midiNote": 57,
      "noteName": "A3",
      "velocity": 0.8188976377952756,
      "duration": "96i"
    },
    {
      "time": "106176i",
      "midiNote": 62,
      "noteName": "D4",
      "velocity": 0.8188976377952756,
      "duration": "96i"
    },
    {
      "time": "106176i",
      "midiNote": 66,
      "noteName": "F#4",
      "velocity": 0.9448818897637795,
      "duration": "96i"
    },
    {
      "time": "106272i",
      "midiNote": 57,
      "noteName": "A3",
      "velocity": 0.8818897637795275,
      "duration": "96i"
    },
    {
      "time": "106272i",
      "midiNote": 62,
      "noteName": "D4",
      "velocity": 0.8818897637795275,
      "duration": "96i"
    },
    {
      "time": "106272i",
      "midiNote": 66,
      "noteName": "F#4",
      "velocity": 1,
      "duration": "96i"
    },
    {
      "time": "106464i",
      "midiNote": 57,
      "noteName": "A3",
      "velocity": 0.8818897637795275,
      "duration": "192i"
    },
    {
      "time": "106464i",
      "midiNote": 62,
      "noteName": "D4",
      "velocity": 0.8818897637795275,
      "duration": "192i"
    },
    {
      "time": "106464i",
      "midiNote": 66,
      "noteName": "F#4",
      "velocity": 1,
      "duration": "192i"
    },
    {
      "time": "106656i",
      "midiNote": 57,
      "noteName": "A3",
      "velocity": 0.8818897637795275,
      "duration": "96i"
    },
    {
      "time": "106656i",
      "midiNote": 62,
      "noteName": "D4",
      "velocity": 0.8818897637795275,
      "duration": "96i"
    },
    {
      "time": "106656i",
      "midiNote": 66,
      "noteName": "F#4",
      "velocity": 1,
      "duration": "96i"
    },
    {
      "time": "106752i",
      "midiNote": 50,
      "noteName": "D3",
      "velocity": 0.8818897637795275,
      "duration": "96i"
    },
    {
      "time": "106752i",
      "midiNote": 56,
      "noteName": "G#3",
      "velocity": 0.8818897637795275,
      "duration": "96i"
    },
    {
      "time": "106752i",
      "midiNote": 64,
      "noteName": "E4",
      "velocity": 1,
      "duration": "96i"
    },
    {
      "time": "106848i",
      "midiNote": 50,
      "noteName": "D3",
      "velocity": 0.7559055118110236,
      "duration": "96i"
    },
    {
      "time": "106848i",
      "midiNote": 56,
      "noteName": "G#3",
      "velocity": 0.7559055118110236,
      "duration": "96i"
    },
    {
      "time": "106848i",
      "midiNote": 64,
      "noteName": "E4",
      "velocity": 0.8818897637795275,
      "duration": "96i"
    },
    {
      "time": "106944i",
      "midiNote": 50,
      "noteName": "D3",
      "velocity": 0.8188976377952756,
      "duration": "96i"
    },
    {
      "time": "106944i",
      "midiNote": 56,
      "noteName": "G#3",
      "velocity": 0.8188976377952756,
      "duration": "96i"
    },
    {
      "time": "106944i",
      "midiNote": 64,
      "noteName": "E4",
      "velocity": 0.9448818897637795,
      "duration": "96i"
    },
    {
      "time": "107040i",
      "midiNote": 50,
      "noteName": "D3",
      "velocity": 0.8818897637795275,
      "duration": "96i"
    },
    {
      "time": "107040i",
      "midiNote": 56,
      "noteName": "G#3",
      "velocity": 0.8818897637795275,
      "duration": "96i"
    },
    {
      "time": "107040i",
      "midiNote": 64,
      "noteName": "E4",
      "velocity": 1,
      "duration": "96i"
    },
    {
      "time": "107232i",
      "midiNote": 50,
      "noteName": "D3",
      "velocity": 0.8818897637795275,
      "duration": "192i"
    },
    {
      "time": "107232i",
      "midiNote": 56,
      "noteName": "G#3",
      "velocity": 0.8818897637795275,
      "duration": "192i"
    },
    {
      "time": "107232i",
      "midiNote": 64,
      "noteName": "E4",
      "velocity": 1,
      "duration": "192i"
    },
    {
      "time": "107424i",
      "midiNote": 50,
      "noteName": "D3",
      "velocity": 0.8818897637795275,
      "duration": "96i"
    },
    {
      "time": "107424i",
      "midiNote": 56,
      "noteName": "G#3",
      "velocity": 0.8818897637795275,
      "duration": "96i"
    },
    {
      "time": "107424i",
      "midiNote": 64,
      "noteName": "E4",
      "velocity": 1,
      "duration": "96i"
    },
    {
      "time": "107520i",
      "midiNote": 50,
      "noteName": "D3",
      "velocity": 0.8818897637795275,
      "duration": "96i"
    },
    {
      "time": "107520i",
      "midiNote": 56,
      "noteName": "G#3",
      "velocity": 0.8818897637795275,
      "duration": "96i"
    },
    {
      "time": "107520i",
      "midiNote": 64,
      "noteName": "E4",
      "velocity": 1,
      "duration": "96i"
    },
    {
      "time": "107616i",
      "midiNote": 50,
      "noteName": "D3",
      "velocity": 0.7559055118110236,
      "duration": "96i"
    },
    {
      "time": "107616i",
      "midiNote": 56,
      "noteName": "G#3",
      "velocity": 0.7559055118110236,
      "duration": "96i"
    },
    {
      "time": "107616i",
      "midiNote": 64,
      "noteName": "E4",
      "velocity": 0.8818897637795275,
      "duration": "96i"
    },
    {
      "time": "107712i",
      "midiNote": 50,
      "noteName": "D3",
      "velocity": 0.8188976377952756,
      "duration": "96i"
    },
    {
      "time": "107712i",
      "midiNote": 56,
      "noteName": "G#3",
      "velocity": 0.8188976377952756,
      "duration": "96i"
    },
    {
      "time": "107712i",
      "midiNote": 64,
      "noteName": "E4",
      "velocity": 0.9448818897637795,
      "duration": "96i"
    },
    {
      "time": "107808i",
      "midiNote": 50,
      "noteName": "D3",
      "velocity": 0.8818897637795275,
      "duration": "96i"
    },
    {
      "time": "107808i",
      "midiNote": 56,
      "noteName": "G#3",
      "velocity": 0.8818897637795275,
      "duration": "96i"
    },
    {
      "time": "107808i",
      "midiNote": 64,
      "noteName": "E4",
      "velocity": 1,
      "duration": "96i"
    },
    {
      "time": "108000i",
      "midiNote": 50,
      "noteName": "D3",
      "velocity": 0.8818897637795275,
      "duration": "192i"
    },
    {
      "time": "108000i",
      "midiNote": 56,
      "noteName": "G#3",
      "velocity": 0.8818897637795275,
      "duration": "192i"
    },
    {
      "time": "108000i",
      "midiNote": 64,
      "noteName": "E4",
      "velocity": 1,
      "duration": "192i"
    },
    {
      "time": "108192i",
      "midiNote": 50,
      "noteName": "D3",
      "velocity": 0.8818897637795275,
      "duration": "96i"
    },
    {
      "time": "108192i",
      "midiNote": 56,
      "noteName": "G#3",
      "velocity": 0.8818897637795275,
      "duration": "96i"
    },
    {
      "time": "108192i",
      "midiNote": 64,
      "noteName": "E4",
      "velocity": 1,
      "duration": "96i"
    },
    {
      "time": "108288i",
      "midiNote": 59,
      "noteName": "B3",
      "velocity": 0.8818897637795275,
      "duration": "96i"
    },
    {
      "time": "108288i",
      "midiNote": 56,
      "noteName": "G#3",
      "velocity": 0.8818897637795275,
      "duration": "96i"
    },
    {
      "time": "108288i",
      "midiNote": 65,
      "noteName": "F4",
      "velocity": 1,
      "duration": "96i"
    },
    {
      "time": "108384i",
      "midiNote": 59,
      "noteName": "B3",
      "velocity": 0.7559055118110236,
      "duration": "96i"
    },
    {
      "time": "108384i",
      "midiNote": 56,
      "noteName": "G#3",
      "velocity": 0.7559055118110236,
      "duration": "96i"
    },
    {
      "time": "108384i",
      "midiNote": 65,
      "noteName": "F4",
      "velocity": 0.8818897637795275,
      "duration": "96i"
    },
    {
      "time": "108480i",
      "midiNote": 59,
      "noteName": "B3",
      "velocity": 0.8188976377952756,
      "duration": "96i"
    },
    {
      "time": "108480i",
      "midiNote": 56,
      "noteName": "G#3",
      "velocity": 0.8188976377952756,
      "duration": "96i"
    },
    {
      "time": "108480i",
      "midiNote": 65,
      "noteName": "F4",
      "velocity": 0.9448818897637795,
      "duration": "96i"
    },
    {
      "time": "108576i",
      "midiNote": 59,
      "noteName": "B3",
      "velocity": 0.8818897637795275,
      "duration": "96i"
    },
    {
      "time": "108576i",
      "midiNote": 56,
      "noteName": "G#3",
      "velocity": 0.8818897637795275,
      "duration": "96i"
    },
    {
      "time": "108576i",
      "midiNote": 65,
      "noteName": "F4",
      "velocity": 1,
      "duration": "96i"
    },
    {
      "time": "108768i",
      "midiNote": 59,
      "noteName": "B3",
      "velocity": 0.8818897637795275,
      "duration": "192i"
    },
    {
      "time": "108768i",
      "midiNote": 56,
      "noteName": "G#3",
      "velocity": 0.8818897637795275,
      "duration": "192i"
    },
    {
      "time": "108768i",
      "midiNote": 65,
      "noteName": "F4",
      "velocity": 1,
      "duration": "192i"
    },
    {
      "time": "108960i",
      "midiNote": 59,
      "noteName": "B3",
      "velocity": 0.8818897637795275,
      "duration": "96i"
    },
    {
      "time": "108960i",
      "midiNote": 56,
      "noteName": "G#3",
      "velocity": 0.8818897637795275,
      "duration": "96i"
    },
    {
      "time": "108960i",
      "midiNote": 65,
      "noteName": "F4",
      "velocity": 1,
      "duration": "96i"
    },
    {
      "time": "109056i",
      "midiNote": 59,
      "noteName": "B3",
      "velocity": 0.8818897637795275,
      "duration": "96i"
    },
    {
      "time": "109056i",
      "midiNote": 56,
      "noteName": "G#3",
      "velocity": 0.8818897637795275,
      "duration": "96i"
    },
    {
      "time": "109056i",
      "midiNote": 65,
      "noteName": "F4",
      "velocity": 1,
      "duration": "96i"
    },
    {
      "time": "109152i",
      "midiNote": 59,
      "noteName": "B3",
      "velocity": 0.7559055118110236,
      "duration": "96i"
    },
    {
      "time": "109152i",
      "midiNote": 56,
      "noteName": "G#3",
      "velocity": 0.7559055118110236,
      "duration": "96i"
    },
    {
      "time": "109152i",
      "midiNote": 65,
      "noteName": "F4",
      "velocity": 0.8818897637795275,
      "duration": "96i"
    },
    {
      "time": "109248i",
      "midiNote": 59,
      "noteName": "B3",
      "velocity": 0.8188976377952756,
      "duration": "96i"
    },
    {
      "time": "109248i",
      "midiNote": 56,
      "noteName": "G#3",
      "velocity": 0.8188976377952756,
      "duration": "96i"
    },
    {
      "time": "109248i",
      "midiNote": 65,
      "noteName": "F4",
      "velocity": 0.9448818897637795,
      "duration": "96i"
    },
    {
      "time": "109344i",
      "midiNote": 59,
      "noteName": "B3",
      "velocity": 0.8818897637795275,
      "duration": "96i"
    },
    {
      "time": "109344i",
      "midiNote": 56,
      "noteName": "G#3",
      "velocity": 0.8818897637795275,
      "duration": "96i"
    },
    {
      "time": "109344i",
      "midiNote": 65,
      "noteName": "F4",
      "velocity": 1,
      "duration": "96i"
    },
    {
      "time": "109536i",
      "midiNote": 59,
      "noteName": "B3",
      "velocity": 0.8818897637795275,
      "duration": "192i"
    },
    {
      "time": "109536i",
      "midiNote": 56,
      "noteName": "G#3",
      "velocity": 0.8818897637795275,
      "duration": "192i"
    },
    {
      "time": "109536i",
      "midiNote": 65,
      "noteName": "F4",
      "velocity": 1,
      "duration": "192i"
    },
    {
      "time": "109728i",
      "midiNote": 59,
      "noteName": "B3",
      "velocity": 0.8818897637795275,
      "duration": "96i"
    },
    {
      "time": "109728i",
      "midiNote": 56,
      "noteName": "G#3",
      "velocity": 0.8818897637795275,
      "duration": "96i"
    },
    {
      "time": "109728i",
      "midiNote": 65,
      "noteName": "F4",
      "velocity": 1,
      "duration": "96i"
    },
    {
      "time": "109824i",
      "midiNote": 57,
      "noteName": "A3",
      "velocity": 0.8818897637795275,
      "duration": "96i"
    },
    {
      "time": "109824i",
      "midiNote": 61,
      "noteName": "C#4",
      "velocity": 0.8818897637795275,
      "duration": "96i"
    },
    {
      "time": "109824i",
      "midiNote": 66,
      "noteName": "F#4",
      "velocity": 1,
      "duration": "96i"
    },
    {
      "time": "109920i",
      "midiNote": 57,
      "noteName": "A3",
      "velocity": 0.7559055118110236,
      "duration": "96i"
    },
    {
      "time": "109920i",
      "midiNote": 61,
      "noteName": "C#4",
      "velocity": 0.7559055118110236,
      "duration": "96i"
    },
    {
      "time": "109920i",
      "midiNote": 66,
      "noteName": "F#4",
      "velocity": 0.8818897637795275,
      "duration": "96i"
    },
    {
      "time": "110016i",
      "midiNote": 57,
      "noteName": "A3",
      "velocity": 0.8188976377952756,
      "duration": "96i"
    },
    {
      "time": "110016i",
      "midiNote": 61,
      "noteName": "C#4",
      "velocity": 0.8188976377952756,
      "duration": "96i"
    },
    {
      "time": "110016i",
      "midiNote": 66,
      "noteName": "F#4",
      "velocity": 0.9448818897637795,
      "duration": "96i"
    },
    {
      "time": "110112i",
      "midiNote": 57,
      "noteName": "A3",
      "velocity": 0.8818897637795275,
      "duration": "96i"
    },
    {
      "time": "110112i",
      "midiNote": 61,
      "noteName": "C#4",
      "velocity": 0.8818897637795275,
      "duration": "96i"
    },
    {
      "time": "110112i",
      "midiNote": 66,
      "noteName": "F#4",
      "velocity": 1,
      "duration": "96i"
    },
    {
      "time": "110304i",
      "midiNote": 57,
      "noteName": "A3",
      "velocity": 0.8818897637795275,
      "duration": "192i"
    },
    {
      "time": "110304i",
      "midiNote": 61,
      "noteName": "C#4",
      "velocity": 0.8818897637795275,
      "duration": "192i"
    },
    {
      "time": "110304i",
      "midiNote": 66,
      "noteName": "F#4",
      "velocity": 1,
      "duration": "192i"
    },
    {
      "time": "110496i",
      "midiNote": 57,
      "noteName": "A3",
      "velocity": 0.8818897637795275,
      "duration": "96i"
    },
    {
      "time": "110496i",
      "midiNote": 61,
      "noteName": "C#4",
      "velocity": 0.8818897637795275,
      "duration": "96i"
    },
    {
      "time": "110496i",
      "midiNote": 66,
      "noteName": "F#4",
      "velocity": 1,
      "duration": "96i"
    },
    {
      "time": "110592i",
      "midiNote": 57,
      "noteName": "A3",
      "velocity": 0.8818897637795275,
      "duration": "96i"
    },
    {
      "time": "110592i",
      "midiNote": 61,
      "noteName": "C#4",
      "velocity": 0.8818897637795275,
      "duration": "96i"
    },
    {
      "time": "110592i",
      "midiNote": 66,
      "noteName": "F#4",
      "velocity": 1,
      "duration": "96i"
    },
    {
      "time": "110688i",
      "midiNote": 57,
      "noteName": "A3",
      "velocity": 0.7559055118110236,
      "duration": "96i"
    },
    {
      "time": "110688i",
      "midiNote": 61,
      "noteName": "C#4",
      "velocity": 0.7559055118110236,
      "duration": "96i"
    },
    {
      "time": "110688i",
      "midiNote": 66,
      "noteName": "F#4",
      "velocity": 0.8818897637795275,
      "duration": "96i"
    },
    {
      "time": "110784i",
      "midiNote": 57,
      "noteName": "A3",
      "velocity": 0.8188976377952756,
      "duration": "96i"
    },
    {
      "time": "110784i",
      "midiNote": 61,
      "noteName": "C#4",
      "velocity": 0.8188976377952756,
      "duration": "96i"
    },
    {
      "time": "110784i",
      "midiNote": 66,
      "noteName": "F#4",
      "velocity": 0.9448818897637795,
      "duration": "96i"
    },
    {
      "time": "110880i",
      "midiNote": 57,
      "noteName": "A3",
      "velocity": 0.8818897637795275,
      "duration": "96i"
    },
    {
      "time": "110880i",
      "midiNote": 61,
      "noteName": "C#4",
      "velocity": 0.8818897637795275,
      "duration": "96i"
    },
    {
      "time": "110880i",
      "midiNote": 66,
      "noteName": "F#4",
      "velocity": 1,
      "duration": "96i"
    },
    {
      "time": "111072i",
      "midiNote": 57,
      "noteName": "A3",
      "velocity": 0.8818897637795275,
      "duration": "192i"
    },
    {
      "time": "111072i",
      "midiNote": 61,
      "noteName": "C#4",
      "velocity": 0.8818897637795275,
      "duration": "192i"
    },
    {
      "time": "111072i",
      "midiNote": 66,
      "noteName": "F#4",
      "velocity": 1,
      "duration": "192i"
    },
    {
      "time": "111264i",
      "midiNote": 57,
      "noteName": "A3",
      "velocity": 0.8818897637795275,
      "duration": "96i"
    },
    {
      "time": "111264i",
      "midiNote": 61,
      "noteName": "C#4",
      "velocity": 0.8818897637795275,
      "duration": "96i"
    },
    {
      "time": "111264i",
      "midiNote": 66,
      "noteName": "F#4",
      "velocity": 1,
      "duration": "192i"
    },
    {
      "time": "111360i",
      "midiNote": 57,
      "noteName": "A3",
      "velocity": 0.8818897637795275,
      "duration": "96i"
    },
    {
      "time": "111360i",
      "midiNote": 62,
      "noteName": "D4",
      "velocity": 0.8818897637795275,
      "duration": "96i"
    },
    {
      "time": "111360i",
      "midiNote": 66,
      "noteName": "F#4",
      "velocity": 1,
      "duration": "0i"
    },
    {
      "time": "111456i",
      "midiNote": 57,
      "noteName": "A3",
      "velocity": 0.7559055118110236,
      "duration": "96i"
    },
    {
      "time": "111456i",
      "midiNote": 62,
      "noteName": "D4",
      "velocity": 0.7559055118110236,
      "duration": "96i"
    },
    {
      "time": "111456i",
      "midiNote": 66,
      "noteName": "F#4",
      "velocity": 0.8818897637795275,
      "duration": "96i"
    },
    {
      "time": "111552i",
      "midiNote": 57,
      "noteName": "A3",
      "velocity": 0.8188976377952756,
      "duration": "96i"
    },
    {
      "time": "111552i",
      "midiNote": 62,
      "noteName": "D4",
      "velocity": 0.8188976377952756,
      "duration": "96i"
    },
    {
      "time": "111552i",
      "midiNote": 66,
      "noteName": "F#4",
      "velocity": 0.9448818897637795,
      "duration": "96i"
    },
    {
      "time": "111648i",
      "midiNote": 57,
      "noteName": "A3",
      "velocity": 0.8818897637795275,
      "duration": "96i"
    },
    {
      "time": "111648i",
      "midiNote": 62,
      "noteName": "D4",
      "velocity": 0.8818897637795275,
      "duration": "96i"
    },
    {
      "time": "111648i",
      "midiNote": 66,
      "noteName": "F#4",
      "velocity": 1,
      "duration": "96i"
    },
    {
      "time": "111840i",
      "midiNote": 57,
      "noteName": "A3",
      "velocity": 0.8818897637795275,
      "duration": "192i"
    },
    {
      "time": "111840i",
      "midiNote": 62,
      "noteName": "D4",
      "velocity": 0.8818897637795275,
      "duration": "192i"
    },
    {
      "time": "111840i",
      "midiNote": 66,
      "noteName": "F#4",
      "velocity": 1,
      "duration": "192i"
    },
    {
      "time": "112032i",
      "midiNote": 57,
      "noteName": "A3",
      "velocity": 0.8818897637795275,
      "duration": "96i"
    },
    {
      "time": "112032i",
      "midiNote": 62,
      "noteName": "D4",
      "velocity": 0.8818897637795275,
      "duration": "96i"
    },
    {
      "time": "112032i",
      "midiNote": 66,
      "noteName": "F#4",
      "velocity": 1,
      "duration": "96i"
    },
    {
      "time": "112128i",
      "midiNote": 57,
      "noteName": "A3",
      "velocity": 0.8818897637795275,
      "duration": "96i"
    },
    {
      "time": "112128i",
      "midiNote": 62,
      "noteName": "D4",
      "velocity": 0.8818897637795275,
      "duration": "96i"
    },
    {
      "time": "112128i",
      "midiNote": 66,
      "noteName": "F#4",
      "velocity": 1,
      "duration": "96i"
    },
    {
      "time": "112224i",
      "midiNote": 57,
      "noteName": "A3",
      "velocity": 0.7559055118110236,
      "duration": "96i"
    },
    {
      "time": "112224i",
      "midiNote": 62,
      "noteName": "D4",
      "velocity": 0.7559055118110236,
      "duration": "96i"
    },
    {
      "time": "112224i",
      "midiNote": 66,
      "noteName": "F#4",
      "velocity": 0.8818897637795275,
      "duration": "96i"
    },
    {
      "time": "112320i",
      "midiNote": 57,
      "noteName": "A3",
      "velocity": 0.8188976377952756,
      "duration": "96i"
    },
    {
      "time": "112320i",
      "midiNote": 62,
      "noteName": "D4",
      "velocity": 0.8188976377952756,
      "duration": "96i"
    },
    {
      "time": "112320i",
      "midiNote": 66,
      "noteName": "F#4",
      "velocity": 0.9448818897637795,
      "duration": "96i"
    },
    {
      "time": "112416i",
      "midiNote": 57,
      "noteName": "A3",
      "velocity": 0.8818897637795275,
      "duration": "96i"
    },
    {
      "time": "112416i",
      "midiNote": 62,
      "noteName": "D4",
      "velocity": 0.8818897637795275,
      "duration": "96i"
    },
    {
      "time": "112416i",
      "midiNote": 66,
      "noteName": "F#4",
      "velocity": 1,
      "duration": "96i"
    },
    {
      "time": "112608i",
      "midiNote": 57,
      "noteName": "A3",
      "velocity": 0.8818897637795275,
      "duration": "192i"
    },
    {
      "time": "112608i",
      "midiNote": 62,
      "noteName": "D4",
      "velocity": 0.8818897637795275,
      "duration": "192i"
    },
    {
      "time": "112608i",
      "midiNote": 66,
      "noteName": "F#4",
      "velocity": 1,
      "duration": "192i"
    },
    {
      "time": "112800i",
      "midiNote": 57,
      "noteName": "A3",
      "velocity": 0.8818897637795275,
      "duration": "96i"
    },
    {
      "time": "112800i",
      "midiNote": 62,
      "noteName": "D4",
      "velocity": 0.8818897637795275,
      "duration": "96i"
    },
    {
      "time": "112800i",
      "midiNote": 66,
      "noteName": "F#4",
      "velocity": 1,
      "duration": "96i"
    },
    {
      "time": "112896i",
      "midiNote": 50,
      "noteName": "D3",
      "velocity": 0.8818897637795275,
      "duration": "96i"
    },
    {
      "time": "112896i",
      "midiNote": 56,
      "noteName": "G#3",
      "velocity": 0.8818897637795275,
      "duration": "96i"
    },
    {
      "time": "112896i",
      "midiNote": 64,
      "noteName": "E4",
      "velocity": 1,
      "duration": "96i"
    },
    {
      "time": "112992i",
      "midiNote": 50,
      "noteName": "D3",
      "velocity": 0.7559055118110236,
      "duration": "96i"
    },
    {
      "time": "112992i",
      "midiNote": 56,
      "noteName": "G#3",
      "velocity": 0.7559055118110236,
      "duration": "96i"
    },
    {
      "time": "112992i",
      "midiNote": 64,
      "noteName": "E4",
      "velocity": 0.8818897637795275,
      "duration": "96i"
    },
    {
      "time": "113088i",
      "midiNote": 50,
      "noteName": "D3",
      "velocity": 0.8188976377952756,
      "duration": "96i"
    },
    {
      "time": "113088i",
      "midiNote": 56,
      "noteName": "G#3",
      "velocity": 0.8188976377952756,
      "duration": "96i"
    },
    {
      "time": "113088i",
      "midiNote": 64,
      "noteName": "E4",
      "velocity": 0.9448818897637795,
      "duration": "96i"
    },
    {
      "time": "113184i",
      "midiNote": 50,
      "noteName": "D3",
      "velocity": 0.8818897637795275,
      "duration": "96i"
    },
    {
      "time": "113184i",
      "midiNote": 56,
      "noteName": "G#3",
      "velocity": 0.8818897637795275,
      "duration": "96i"
    },
    {
      "time": "113184i",
      "midiNote": 64,
      "noteName": "E4",
      "velocity": 1,
      "duration": "96i"
    },
    {
      "time": "113376i",
      "midiNote": 50,
      "noteName": "D3",
      "velocity": 0.8818897637795275,
      "duration": "192i"
    },
    {
      "time": "113376i",
      "midiNote": 56,
      "noteName": "G#3",
      "velocity": 0.8818897637795275,
      "duration": "192i"
    },
    {
      "time": "113376i",
      "midiNote": 64,
      "noteName": "E4",
      "velocity": 1,
      "duration": "192i"
    },
    {
      "time": "113568i",
      "midiNote": 50,
      "noteName": "D3",
      "velocity": 0.8818897637795275,
      "duration": "96i"
    },
    {
      "time": "113568i",
      "midiNote": 56,
      "noteName": "G#3",
      "velocity": 0.8818897637795275,
      "duration": "96i"
    },
    {
      "time": "113568i",
      "midiNote": 64,
      "noteName": "E4",
      "velocity": 1,
      "duration": "96i"
    },
    {
      "time": "113664i",
      "midiNote": 50,
      "noteName": "D3",
      "velocity": 0.8818897637795275,
      "duration": "96i"
    },
    {
      "time": "113664i",
      "midiNote": 56,
      "noteName": "G#3",
      "velocity": 0.8818897637795275,
      "duration": "96i"
    },
    {
      "time": "113664i",
      "midiNote": 64,
      "noteName": "E4",
      "velocity": 1,
      "duration": "96i"
    },
    {
      "time": "113760i",
      "midiNote": 50,
      "noteName": "D3",
      "velocity": 0.7559055118110236,
      "duration": "96i"
    },
    {
      "time": "113760i",
      "midiNote": 56,
      "noteName": "G#3",
      "velocity": 0.7559055118110236,
      "duration": "96i"
    },
    {
      "time": "113760i",
      "midiNote": 64,
      "noteName": "E4",
      "velocity": 0.8818897637795275,
      "duration": "96i"
    },
    {
      "time": "113856i",
      "midiNote": 50,
      "noteName": "D3",
      "velocity": 0.8188976377952756,
      "duration": "96i"
    },
    {
      "time": "113856i",
      "midiNote": 56,
      "noteName": "G#3",
      "velocity": 0.8188976377952756,
      "duration": "96i"
    },
    {
      "time": "113856i",
      "midiNote": 64,
      "noteName": "E4",
      "velocity": 0.9448818897637795,
      "duration": "96i"
    },
    {
      "time": "113952i",
      "midiNote": 50,
      "noteName": "D3",
      "velocity": 0.8818897637795275,
      "duration": "96i"
    },
    {
      "time": "113952i",
      "midiNote": 56,
      "noteName": "G#3",
      "velocity": 0.8818897637795275,
      "duration": "96i"
    },
    {
      "time": "113952i",
      "midiNote": 64,
      "noteName": "E4",
      "velocity": 1,
      "duration": "96i"
    },
    {
      "time": "114144i",
      "midiNote": 50,
      "noteName": "D3",
      "velocity": 0.8818897637795275,
      "duration": "192i"
    },
    {
      "time": "114144i",
      "midiNote": 56,
      "noteName": "G#3",
      "velocity": 0.8818897637795275,
      "duration": "192i"
    },
    {
      "time": "114144i",
      "midiNote": 64,
      "noteName": "E4",
      "velocity": 1,
      "duration": "192i"
    },
    {
      "time": "114336i",
      "midiNote": 50,
      "noteName": "D3",
      "velocity": 0.8818897637795275,
      "duration": "96i"
    },
    {
      "time": "114336i",
      "midiNote": 56,
      "noteName": "G#3",
      "velocity": 0.8818897637795275,
      "duration": "96i"
    },
    {
      "time": "114336i",
      "midiNote": 64,
      "noteName": "E4",
      "velocity": 1,
      "duration": "96i"
    },
    {
      "time": "114432i",
      "midiNote": 59,
      "noteName": "B3",
      "velocity": 0.8818897637795275,
      "duration": "96i"
    },
    {
      "time": "114432i",
      "midiNote": 56,
      "noteName": "G#3",
      "velocity": 0.8818897637795275,
      "duration": "96i"
    },
    {
      "time": "114432i",
      "midiNote": 65,
      "noteName": "F4",
      "velocity": 1,
      "duration": "96i"
    },
    {
      "time": "114528i",
      "midiNote": 59,
      "noteName": "B3",
      "velocity": 0.7559055118110236,
      "duration": "96i"
    },
    {
      "time": "114528i",
      "midiNote": 56,
      "noteName": "G#3",
      "velocity": 0.7559055118110236,
      "duration": "96i"
    },
    {
      "time": "114528i",
      "midiNote": 65,
      "noteName": "F4",
      "velocity": 0.8818897637795275,
      "duration": "96i"
    },
    {
      "time": "114624i",
      "midiNote": 59,
      "noteName": "B3",
      "velocity": 0.8188976377952756,
      "duration": "96i"
    },
    {
      "time": "114624i",
      "midiNote": 56,
      "noteName": "G#3",
      "velocity": 0.8188976377952756,
      "duration": "96i"
    },
    {
      "time": "114624i",
      "midiNote": 65,
      "noteName": "F4",
      "velocity": 0.9448818897637795,
      "duration": "96i"
    },
    {
      "time": "114720i",
      "midiNote": 59,
      "noteName": "B3",
      "velocity": 0.8818897637795275,
      "duration": "96i"
    },
    {
      "time": "114720i",
      "midiNote": 56,
      "noteName": "G#3",
      "velocity": 0.8818897637795275,
      "duration": "96i"
    },
    {
      "time": "114720i",
      "midiNote": 65,
      "noteName": "F4",
      "velocity": 1,
      "duration": "96i"
    },
    {
      "time": "114912i",
      "midiNote": 59,
      "noteName": "B3",
      "velocity": 0.8818897637795275,
      "duration": "192i"
    },
    {
      "time": "114912i",
      "midiNote": 56,
      "noteName": "G#3",
      "velocity": 0.8818897637795275,
      "duration": "192i"
    },
    {
      "time": "114912i",
      "midiNote": 65,
      "noteName": "F4",
      "velocity": 1,
      "duration": "192i"
    },
    {
      "time": "115104i",
      "midiNote": 59,
      "noteName": "B3",
      "velocity": 0.8818897637795275,
      "duration": "96i"
    },
    {
      "time": "115104i",
      "midiNote": 56,
      "noteName": "G#3",
      "velocity": 0.8818897637795275,
      "duration": "96i"
    },
    {
      "time": "115104i",
      "midiNote": 65,
      "noteName": "F4",
      "velocity": 1,
      "duration": "96i"
    },
    {
      "time": "115200i",
      "midiNote": 59,
      "noteName": "B3",
      "velocity": 0.8818897637795275,
      "duration": "96i"
    },
    {
      "time": "115200i",
      "midiNote": 56,
      "noteName": "G#3",
      "velocity": 0.8818897637795275,
      "duration": "96i"
    },
    {
      "time": "115200i",
      "midiNote": 65,
      "noteName": "F4",
      "velocity": 1,
      "duration": "96i"
    },
    {
      "time": "115296i",
      "midiNote": 59,
      "noteName": "B3",
      "velocity": 0.7559055118110236,
      "duration": "96i"
    },
    {
      "time": "115296i",
      "midiNote": 56,
      "noteName": "G#3",
      "velocity": 0.7559055118110236,
      "duration": "96i"
    },
    {
      "time": "115296i",
      "midiNote": 65,
      "noteName": "F4",
      "velocity": 0.8818897637795275,
      "duration": "96i"
    },
    {
      "time": "115392i",
      "midiNote": 59,
      "noteName": "B3",
      "velocity": 0.8188976377952756,
      "duration": "96i"
    },
    {
      "time": "115392i",
      "midiNote": 56,
      "noteName": "G#3",
      "velocity": 0.8188976377952756,
      "duration": "96i"
    },
    {
      "time": "115392i",
      "midiNote": 65,
      "noteName": "F4",
      "velocity": 0.9448818897637795,
      "duration": "96i"
    },
    {
      "time": "115488i",
      "midiNote": 59,
      "noteName": "B3",
      "velocity": 0.8818897637795275,
      "duration": "96i"
    },
    {
      "time": "115488i",
      "midiNote": 56,
      "noteName": "G#3",
      "velocity": 0.8818897637795275,
      "duration": "96i"
    },
    {
      "time": "115488i",
      "midiNote": 65,
      "noteName": "F4",
      "velocity": 1,
      "duration": "96i"
    },
    {
      "time": "115680i",
      "midiNote": 59,
      "noteName": "B3",
      "velocity": 0.8818897637795275,
      "duration": "192i"
    },
    {
      "time": "115680i",
      "midiNote": 56,
      "noteName": "G#3",
      "velocity": 0.8818897637795275,
      "duration": "192i"
    },
    {
      "time": "115680i",
      "midiNote": 65,
      "noteName": "F4",
      "velocity": 1,
      "duration": "192i"
    },
    {
      "time": "115872i",
      "midiNote": 59,
      "noteName": "B3",
      "velocity": 0.8818897637795275,
      "duration": "96i"
    },
    {
      "time": "115872i",
      "midiNote": 56,
      "noteName": "G#3",
      "velocity": 0.8818897637795275,
      "duration": "96i"
    },
    {
      "time": "115872i",
      "midiNote": 65,
      "noteName": "F4",
      "velocity": 1,
      "duration": "96i"
    },
    {
      "time": "115968i",
      "midiNote": 57,
      "noteName": "A3",
      "velocity": 0.8818897637795275,
      "duration": "96i"
    },
    {
      "time": "115968i",
      "midiNote": 61,
      "noteName": "C#4",
      "velocity": 0.8818897637795275,
      "duration": "96i"
    },
    {
      "time": "115968i",
      "midiNote": 66,
      "noteName": "F#4",
      "velocity": 1,
      "duration": "96i"
    },
    {
      "time": "116064i",
      "midiNote": 57,
      "noteName": "A3",
      "velocity": 0.7559055118110236,
      "duration": "96i"
    },
    {
      "time": "116064i",
      "midiNote": 61,
      "noteName": "C#4",
      "velocity": 0.7559055118110236,
      "duration": "96i"
    },
    {
      "time": "116064i",
      "midiNote": 66,
      "noteName": "F#4",
      "velocity": 0.8818897637795275,
      "duration": "96i"
    },
    {
      "time": "116160i",
      "midiNote": 57,
      "noteName": "A3",
      "velocity": 0.8188976377952756,
      "duration": "96i"
    },
    {
      "time": "116160i",
      "midiNote": 61,
      "noteName": "C#4",
      "velocity": 0.8188976377952756,
      "duration": "96i"
    },
    {
      "time": "116160i",
      "midiNote": 66,
      "noteName": "F#4",
      "velocity": 0.9448818897637795,
      "duration": "96i"
    },
    {
      "time": "116256i",
      "midiNote": 57,
      "noteName": "A3",
      "velocity": 0.8818897637795275,
      "duration": "96i"
    },
    {
      "time": "116256i",
      "midiNote": 61,
      "noteName": "C#4",
      "velocity": 0.8818897637795275,
      "duration": "96i"
    },
    {
      "time": "116256i",
      "midiNote": 66,
      "noteName": "F#4",
      "velocity": 1,
      "duration": "96i"
    },
    {
      "time": "116448i",
      "midiNote": 57,
      "noteName": "A3",
      "velocity": 0.8818897637795275,
      "duration": "192i"
    },
    {
      "time": "116448i",
      "midiNote": 61,
      "noteName": "C#4",
      "velocity": 0.8818897637795275,
      "duration": "192i"
    },
    {
      "time": "116448i",
      "midiNote": 66,
      "noteName": "F#4",
      "velocity": 1,
      "duration": "192i"
    },
    {
      "time": "116640i",
      "midiNote": 57,
      "noteName": "A3",
      "velocity": 0.8818897637795275,
      "duration": "96i"
    },
    {
      "time": "116640i",
      "midiNote": 61,
      "noteName": "C#4",
      "velocity": 0.8818897637795275,
      "duration": "96i"
    },
    {
      "time": "116640i",
      "midiNote": 66,
      "noteName": "F#4",
      "velocity": 1,
      "duration": "96i"
    },
    {
      "time": "116736i",
      "midiNote": 57,
      "noteName": "A3",
      "velocity": 0.8818897637795275,
      "duration": "96i"
    },
    {
      "time": "116736i",
      "midiNote": 61,
      "noteName": "C#4",
      "velocity": 0.8818897637795275,
      "duration": "96i"
    },
    {
      "time": "116736i",
      "midiNote": 66,
      "noteName": "F#4",
      "velocity": 1,
      "duration": "96i"
    },
    {
      "time": "116832i",
      "midiNote": 57,
      "noteName": "A3",
      "velocity": 0.7559055118110236,
      "duration": "96i"
    },
    {
      "time": "116832i",
      "midiNote": 61,
      "noteName": "C#4",
      "velocity": 0.7559055118110236,
      "duration": "96i"
    },
    {
      "time": "116832i",
      "midiNote": 66,
      "noteName": "F#4",
      "velocity": 0.8818897637795275,
      "duration": "96i"
    },
    {
      "time": "116928i",
      "midiNote": 57,
      "noteName": "A3",
      "velocity": 0.8188976377952756,
      "duration": "96i"
    },
    {
      "time": "116928i",
      "midiNote": 61,
      "noteName": "C#4",
      "velocity": 0.8188976377952756,
      "duration": "96i"
    },
    {
      "time": "116928i",
      "midiNote": 66,
      "noteName": "F#4",
      "velocity": 0.9448818897637795,
      "duration": "96i"
    },
    {
      "time": "117024i",
      "midiNote": 57,
      "noteName": "A3",
      "velocity": 0.8818897637795275,
      "duration": "96i"
    },
    {
      "time": "117024i",
      "midiNote": 61,
      "noteName": "C#4",
      "velocity": 0.8818897637795275,
      "duration": "96i"
    },
    {
      "time": "117024i",
      "midiNote": 66,
      "noteName": "F#4",
      "velocity": 1,
      "duration": "96i"
    },
    {
      "time": "117216i",
      "midiNote": 57,
      "noteName": "A3",
      "velocity": 0.8818897637795275,
      "duration": "192i"
    },
    {
      "time": "117216i",
      "midiNote": 61,
      "noteName": "C#4",
      "velocity": 0.8818897637795275,
      "duration": "192i"
    },
    {
      "time": "117216i",
      "midiNote": 66,
      "noteName": "F#4",
      "velocity": 1,
      "duration": "192i"
    },
    {
      "time": "117408i",
      "midiNote": 57,
      "noteName": "A3",
      "velocity": 0.8818897637795275,
      "duration": "96i"
    },
    {
      "time": "117408i",
      "midiNote": 61,
      "noteName": "C#4",
      "velocity": 0.8818897637795275,
      "duration": "96i"
    },
    {
      "time": "117408i",
      "midiNote": 66,
      "noteName": "F#4",
      "velocity": 1,
      "duration": "192i"
    },
    {
      "time": "117504i",
      "midiNote": 57,
      "noteName": "A3",
      "velocity": 0.8818897637795275,
      "duration": "96i"
    },
    {
      "time": "117504i",
      "midiNote": 62,
      "noteName": "D4",
      "velocity": 0.8818897637795275,
      "duration": "96i"
    },
    {
      "time": "117504i",
      "midiNote": 66,
      "noteName": "F#4",
      "velocity": 1,
      "duration": "0i"
    },
    {
      "time": "117600i",
      "midiNote": 57,
      "noteName": "A3",
      "velocity": 0.7559055118110236,
      "duration": "96i"
    },
    {
      "time": "117600i",
      "midiNote": 62,
      "noteName": "D4",
      "velocity": 0.7559055118110236,
      "duration": "96i"
    },
    {
      "time": "117600i",
      "midiNote": 66,
      "noteName": "F#4",
      "velocity": 0.8818897637795275,
      "duration": "96i"
    },
    {
      "time": "117696i",
      "midiNote": 57,
      "noteName": "A3",
      "velocity": 0.8188976377952756,
      "duration": "96i"
    },
    {
      "time": "117696i",
      "midiNote": 62,
      "noteName": "D4",
      "velocity": 0.8188976377952756,
      "duration": "96i"
    },
    {
      "time": "117696i",
      "midiNote": 66,
      "noteName": "F#4",
      "velocity": 0.9448818897637795,
      "duration": "96i"
    },
    {
      "time": "117792i",
      "midiNote": 57,
      "noteName": "A3",
      "velocity": 0.8818897637795275,
      "duration": "96i"
    },
    {
      "time": "117792i",
      "midiNote": 62,
      "noteName": "D4",
      "velocity": 0.8818897637795275,
      "duration": "96i"
    },
    {
      "time": "117792i",
      "midiNote": 66,
      "noteName": "F#4",
      "velocity": 1,
      "duration": "96i"
    },
    {
      "time": "117984i",
      "midiNote": 57,
      "noteName": "A3",
      "velocity": 0.8818897637795275,
      "duration": "192i"
    },
    {
      "time": "117984i",
      "midiNote": 62,
      "noteName": "D4",
      "velocity": 0.8818897637795275,
      "duration": "192i"
    },
    {
      "time": "117984i",
      "midiNote": 66,
      "noteName": "F#4",
      "velocity": 1,
      "duration": "192i"
    },
    {
      "time": "118176i",
      "midiNote": 57,
      "noteName": "A3",
      "velocity": 0.8818897637795275,
      "duration": "96i"
    },
    {
      "time": "118176i",
      "midiNote": 62,
      "noteName": "D4",
      "velocity": 0.8818897637795275,
      "duration": "96i"
    },
    {
      "time": "118176i",
      "midiNote": 66,
      "noteName": "F#4",
      "velocity": 1,
      "duration": "96i"
    },
    {
      "time": "118272i",
      "midiNote": 57,
      "noteName": "A3",
      "velocity": 0.8818897637795275,
      "duration": "96i"
    },
    {
      "time": "118272i",
      "midiNote": 62,
      "noteName": "D4",
      "velocity": 0.8818897637795275,
      "duration": "96i"
    },
    {
      "time": "118272i",
      "midiNote": 66,
      "noteName": "F#4",
      "velocity": 1,
      "duration": "96i"
    },
    {
      "time": "118368i",
      "midiNote": 57,
      "noteName": "A3",
      "velocity": 0.7559055118110236,
      "duration": "96i"
    },
    {
      "time": "118368i",
      "midiNote": 62,
      "noteName": "D4",
      "velocity": 0.7559055118110236,
      "duration": "96i"
    },
    {
      "time": "118368i",
      "midiNote": 66,
      "noteName": "F#4",
      "velocity": 0.8818897637795275,
      "duration": "96i"
    },
    {
      "time": "118464i",
      "midiNote": 57,
      "noteName": "A3",
      "velocity": 0.8188976377952756,
      "duration": "96i"
    },
    {
      "time": "118464i",
      "midiNote": 62,
      "noteName": "D4",
      "velocity": 0.8188976377952756,
      "duration": "96i"
    },
    {
      "time": "118464i",
      "midiNote": 66,
      "noteName": "F#4",
      "velocity": 0.9448818897637795,
      "duration": "96i"
    },
    {
      "time": "118560i",
      "midiNote": 57,
      "noteName": "A3",
      "velocity": 0.8818897637795275,
      "duration": "96i"
    },
    {
      "time": "118560i",
      "midiNote": 62,
      "noteName": "D4",
      "velocity": 0.8818897637795275,
      "duration": "96i"
    },
    {
      "time": "118560i",
      "midiNote": 66,
      "noteName": "F#4",
      "velocity": 1,
      "duration": "96i"
    },
    {
      "time": "118752i",
      "midiNote": 57,
      "noteName": "A3",
      "velocity": 0.8818897637795275,
      "duration": "192i"
    },
    {
      "time": "118752i",
      "midiNote": 62,
      "noteName": "D4",
      "velocity": 0.8818897637795275,
      "duration": "192i"
    },
    {
      "time": "118752i",
      "midiNote": 66,
      "noteName": "F#4",
      "velocity": 1,
      "duration": "192i"
    },
    {
      "time": "118944i",
      "midiNote": 57,
      "noteName": "A3",
      "velocity": 0.8818897637795275,
      "duration": "96i"
    },
    {
      "time": "118944i",
      "midiNote": 62,
      "noteName": "D4",
      "velocity": 0.8818897637795275,
      "duration": "96i"
    },
    {
      "time": "118944i",
      "midiNote": 66,
      "noteName": "F#4",
      "velocity": 1,
      "duration": "96i"
    },
    {
      "time": "119040i",
      "midiNote": 50,
      "noteName": "D3",
      "velocity": 0.8818897637795275,
      "duration": "96i"
    },
    {
      "time": "119040i",
      "midiNote": 56,
      "noteName": "G#3",
      "velocity": 0.8818897637795275,
      "duration": "96i"
    },
    {
      "time": "119040i",
      "midiNote": 64,
      "noteName": "E4",
      "velocity": 1,
      "duration": "96i"
    },
    {
      "time": "119136i",
      "midiNote": 50,
      "noteName": "D3",
      "velocity": 0.7559055118110236,
      "duration": "96i"
    },
    {
      "time": "119136i",
      "midiNote": 56,
      "noteName": "G#3",
      "velocity": 0.7559055118110236,
      "duration": "96i"
    },
    {
      "time": "119136i",
      "midiNote": 64,
      "noteName": "E4",
      "velocity": 0.8818897637795275,
      "duration": "96i"
    },
    {
      "time": "119232i",
      "midiNote": 50,
      "noteName": "D3",
      "velocity": 0.8188976377952756,
      "duration": "96i"
    },
    {
      "time": "119232i",
      "midiNote": 56,
      "noteName": "G#3",
      "velocity": 0.8188976377952756,
      "duration": "96i"
    },
    {
      "time": "119232i",
      "midiNote": 64,
      "noteName": "E4",
      "velocity": 0.9448818897637795,
      "duration": "96i"
    },
    {
      "time": "119328i",
      "midiNote": 50,
      "noteName": "D3",
      "velocity": 0.8818897637795275,
      "duration": "96i"
    },
    {
      "time": "119328i",
      "midiNote": 56,
      "noteName": "G#3",
      "velocity": 0.8818897637795275,
      "duration": "96i"
    },
    {
      "time": "119328i",
      "midiNote": 64,
      "noteName": "E4",
      "velocity": 1,
      "duration": "96i"
    },
    {
      "time": "119520i",
      "midiNote": 50,
      "noteName": "D3",
      "velocity": 0.8818897637795275,
      "duration": "192i"
    },
    {
      "time": "119520i",
      "midiNote": 56,
      "noteName": "G#3",
      "velocity": 0.8818897637795275,
      "duration": "192i"
    },
    {
      "time": "119520i",
      "midiNote": 64,
      "noteName": "E4",
      "velocity": 1,
      "duration": "192i"
    },
    {
      "time": "119712i",
      "midiNote": 50,
      "noteName": "D3",
      "velocity": 0.8818897637795275,
      "duration": "96i"
    },
    {
      "time": "119712i",
      "midiNote": 56,
      "noteName": "G#3",
      "velocity": 0.8818897637795275,
      "duration": "96i"
    },
    {
      "time": "119712i",
      "midiNote": 64,
      "noteName": "E4",
      "velocity": 1,
      "duration": "96i"
    },
    {
      "time": "119808i",
      "midiNote": 50,
      "noteName": "D3",
      "velocity": 0.8818897637795275,
      "duration": "96i"
    },
    {
      "time": "119808i",
      "midiNote": 56,
      "noteName": "G#3",
      "velocity": 0.8818897637795275,
      "duration": "96i"
    },
    {
      "time": "119808i",
      "midiNote": 64,
      "noteName": "E4",
      "velocity": 1,
      "duration": "96i"
    },
    {
      "time": "119904i",
      "midiNote": 50,
      "noteName": "D3",
      "velocity": 0.7559055118110236,
      "duration": "96i"
    },
    {
      "time": "119904i",
      "midiNote": 56,
      "noteName": "G#3",
      "velocity": 0.7559055118110236,
      "duration": "96i"
    },
    {
      "time": "119904i",
      "midiNote": 64,
      "noteName": "E4",
      "velocity": 0.8818897637795275,
      "duration": "96i"
    },
    {
      "time": "120000i",
      "midiNote": 50,
      "noteName": "D3",
      "velocity": 0.8188976377952756,
      "duration": "96i"
    },
    {
      "time": "120000i",
      "midiNote": 56,
      "noteName": "G#3",
      "velocity": 0.8188976377952756,
      "duration": "96i"
    },
    {
      "time": "120000i",
      "midiNote": 64,
      "noteName": "E4",
      "velocity": 0.9448818897637795,
      "duration": "96i"
    },
    {
      "time": "120096i",
      "midiNote": 50,
      "noteName": "D3",
      "velocity": 0.8818897637795275,
      "duration": "96i"
    },
    {
      "time": "120096i",
      "midiNote": 56,
      "noteName": "G#3",
      "velocity": 0.8818897637795275,
      "duration": "96i"
    },
    {
      "time": "120096i",
      "midiNote": 64,
      "noteName": "E4",
      "velocity": 1,
      "duration": "96i"
    },
    {
      "time": "120288i",
      "midiNote": 50,
      "noteName": "D3",
      "velocity": 0.8818897637795275,
      "duration": "192i"
    },
    {
      "time": "120288i",
      "midiNote": 56,
      "noteName": "G#3",
      "velocity": 0.8818897637795275,
      "duration": "192i"
    },
    {
      "time": "120288i",
      "midiNote": 64,
      "noteName": "E4",
      "velocity": 1,
      "duration": "192i"
    },
    {
      "time": "120480i",
      "midiNote": 50,
      "noteName": "D3",
      "velocity": 0.8818897637795275,
      "duration": "96i"
    },
    {
      "time": "120480i",
      "midiNote": 56,
      "noteName": "G#3",
      "velocity": 0.8818897637795275,
      "duration": "96i"
    },
    {
      "time": "120480i",
      "midiNote": 64,
      "noteName": "E4",
      "velocity": 1,
      "duration": "96i"
    },
    {
      "time": "120576i",
      "midiNote": 59,
      "noteName": "B3",
      "velocity": 0.8818897637795275,
      "duration": "96i"
    },
    {
      "time": "120576i",
      "midiNote": 56,
      "noteName": "G#3",
      "velocity": 0.8818897637795275,
      "duration": "96i"
    },
    {
      "time": "120576i",
      "midiNote": 65,
      "noteName": "F4",
      "velocity": 1,
      "duration": "96i"
    },
    {
      "time": "120672i",
      "midiNote": 59,
      "noteName": "B3",
      "velocity": 0.7559055118110236,
      "duration": "96i"
    },
    {
      "time": "120672i",
      "midiNote": 56,
      "noteName": "G#3",
      "velocity": 0.7559055118110236,
      "duration": "96i"
    },
    {
      "time": "120672i",
      "midiNote": 65,
      "noteName": "F4",
      "velocity": 0.8818897637795275,
      "duration": "96i"
    },
    {
      "time": "120768i",
      "midiNote": 59,
      "noteName": "B3",
      "velocity": 0.8188976377952756,
      "duration": "96i"
    },
    {
      "time": "120768i",
      "midiNote": 56,
      "noteName": "G#3",
      "velocity": 0.8188976377952756,
      "duration": "96i"
    },
    {
      "time": "120768i",
      "midiNote": 65,
      "noteName": "F4",
      "velocity": 0.9448818897637795,
      "duration": "96i"
    },
    {
      "time": "120864i",
      "midiNote": 59,
      "noteName": "B3",
      "velocity": 0.8818897637795275,
      "duration": "96i"
    },
    {
      "time": "120864i",
      "midiNote": 56,
      "noteName": "G#3",
      "velocity": 0.8818897637795275,
      "duration": "96i"
    },
    {
      "time": "120864i",
      "midiNote": 65,
      "noteName": "F4",
      "velocity": 1,
      "duration": "96i"
    },
    {
      "time": "121056i",
      "midiNote": 59,
      "noteName": "B3",
      "velocity": 0.8818897637795275,
      "duration": "192i"
    },
    {
      "time": "121056i",
      "midiNote": 56,
      "noteName": "G#3",
      "velocity": 0.8818897637795275,
      "duration": "192i"
    },
    {
      "time": "121056i",
      "midiNote": 65,
      "noteName": "F4",
      "velocity": 1,
      "duration": "192i"
    },
    {
      "time": "121248i",
      "midiNote": 59,
      "noteName": "B3",
      "velocity": 0.8818897637795275,
      "duration": "96i"
    },
    {
      "time": "121248i",
      "midiNote": 56,
      "noteName": "G#3",
      "velocity": 0.8818897637795275,
      "duration": "96i"
    },
    {
      "time": "121248i",
      "midiNote": 65,
      "noteName": "F4",
      "velocity": 1,
      "duration": "96i"
    },
    {
      "time": "121344i",
      "midiNote": 59,
      "noteName": "B3",
      "velocity": 0.8818897637795275,
      "duration": "96i"
    },
    {
      "time": "121344i",
      "midiNote": 56,
      "noteName": "G#3",
      "velocity": 0.8818897637795275,
      "duration": "96i"
    },
    {
      "time": "121344i",
      "midiNote": 65,
      "noteName": "F4",
      "velocity": 1,
      "duration": "96i"
    },
    {
      "time": "121440i",
      "midiNote": 59,
      "noteName": "B3",
      "velocity": 0.7559055118110236,
      "duration": "96i"
    },
    {
      "time": "121440i",
      "midiNote": 56,
      "noteName": "G#3",
      "velocity": 0.7559055118110236,
      "duration": "96i"
    },
    {
      "time": "121440i",
      "midiNote": 65,
      "noteName": "F4",
      "velocity": 0.8818897637795275,
      "duration": "96i"
    },
    {
      "time": "121536i",
      "midiNote": 59,
      "noteName": "B3",
      "velocity": 0.8188976377952756,
      "duration": "96i"
    },
    {
      "time": "121536i",
      "midiNote": 56,
      "noteName": "G#3",
      "velocity": 0.8188976377952756,
      "duration": "96i"
    },
    {
      "time": "121536i",
      "midiNote": 65,
      "noteName": "F4",
      "velocity": 0.9448818897637795,
      "duration": "96i"
    },
    {
      "time": "121632i",
      "midiNote": 59,
      "noteName": "B3",
      "velocity": 0.8818897637795275,
      "duration": "96i"
    },
    {
      "time": "121632i",
      "midiNote": 56,
      "noteName": "G#3",
      "velocity": 0.8818897637795275,
      "duration": "96i"
    },
    {
      "time": "121632i",
      "midiNote": 65,
      "noteName": "F4",
      "velocity": 1,
      "duration": "96i"
    },
    {
      "time": "121824i",
      "midiNote": 59,
      "noteName": "B3",
      "velocity": 0.8818897637795275,
      "duration": "192i"
    },
    {
      "time": "121824i",
      "midiNote": 56,
      "noteName": "G#3",
      "velocity": 0.8818897637795275,
      "duration": "192i"
    },
    {
      "time": "121824i",
      "midiNote": 65,
      "noteName": "F4",
      "velocity": 1,
      "duration": "192i"
    },
    {
      "time": "122016i",
      "midiNote": 59,
      "noteName": "B3",
      "velocity": 0.8818897637795275,
      "duration": "96i"
    },
    {
      "time": "122016i",
      "midiNote": 56,
      "noteName": "G#3",
      "velocity": 0.8818897637795275,
      "duration": "96i"
    },
    {
      "time": "122016i",
      "midiNote": 65,
      "noteName": "F4",
      "velocity": 1,
      "duration": "96i"
    },
    {
      "time": "122112i",
      "midiNote": 66,
      "noteName": "F#4",
      "velocity": 1,
      "duration": "96i"
    },
    {
      "time": "122112i",
      "midiNote": 61,
      "noteName": "C#4",
      "velocity": 0.8818897637795275,
      "duration": "96i"
    },
    {
      "time": "122112i",
      "midiNote": 57,
      "noteName": "A3",
      "velocity": 0.8818897637795275,
      "duration": "96i"
    },
    {
      "time": "122208i",
      "midiNote": 66,
      "noteName": "F#4",
      "velocity": 0.8818897637795275,
      "duration": "96i"
    },
    {
      "time": "122208i",
      "midiNote": 61,
      "noteName": "C#4",
      "velocity": 0.7559055118110236,
      "duration": "96i"
    },
    {
      "time": "122208i",
      "midiNote": 57,
      "noteName": "A3",
      "velocity": 0.7559055118110236,
      "duration": "96i"
    },
    {
      "time": "122304i",
      "midiNote": 66,
      "noteName": "F#4",
      "velocity": 0.9448818897637795,
      "duration": "96i"
    },
    {
      "time": "122304i",
      "midiNote": 61,
      "noteName": "C#4",
      "velocity": 0.8188976377952756,
      "duration": "96i"
    },
    {
      "time": "122304i",
      "midiNote": 57,
      "noteName": "A3",
      "velocity": 0.8188976377952756,
      "duration": "96i"
    },
    {
      "time": "122400i",
      "midiNote": 66,
      "noteName": "F#4",
      "velocity": 1,
      "duration": "96i"
    },
    {
      "time": "122400i",
      "midiNote": 61,
      "noteName": "C#4",
      "velocity": 0.8818897637795275,
      "duration": "96i"
    },
    {
      "time": "122400i",
      "midiNote": 57,
      "noteName": "A3",
      "velocity": 0.8818897637795275,
      "duration": "96i"
    },
    {
      "time": "122592i",
      "midiNote": 66,
      "noteName": "F#4",
      "velocity": 1,
      "duration": "192i"
    },
    {
      "time": "122592i",
      "midiNote": 61,
      "noteName": "C#4",
      "velocity": 0.8818897637795275,
      "duration": "192i"
    },
    {
      "time": "122592i",
      "midiNote": 57,
      "noteName": "A3",
      "velocity": 0.8818897637795275,
      "duration": "192i"
    },
    {
      "time": "122784i",
      "midiNote": 66,
      "noteName": "F#4",
      "velocity": 1,
      "duration": "96i"
    },
    {
      "time": "122784i",
      "midiNote": 61,
      "noteName": "C#4",
      "velocity": 0.8818897637795275,
      "duration": "96i"
    },
    {
      "time": "122784i",
      "midiNote": 57,
      "noteName": "A3",
      "velocity": 0.8818897637795275,
      "duration": "96i"
    },
    {
      "time": "122880i",
      "midiNote": 66,
      "noteName": "F#4",
      "velocity": 1,
      "duration": "96i"
    },
    {
      "time": "122880i",
      "midiNote": 61,
      "noteName": "C#4",
      "velocity": 0.8818897637795275,
      "duration": "96i"
    },
    {
      "time": "122880i",
      "midiNote": 57,
      "noteName": "A3",
      "velocity": 0.8818897637795275,
      "duration": "96i"
    },
    {
      "time": "122976i",
      "midiNote": 66,
      "noteName": "F#4",
      "velocity": 0.8818897637795275,
      "duration": "96i"
    },
    {
      "time": "122976i",
      "midiNote": 61,
      "noteName": "C#4",
      "velocity": 0.7559055118110236,
      "duration": "96i"
    },
    {
      "time": "122976i",
      "midiNote": 57,
      "noteName": "A3",
      "velocity": 0.7559055118110236,
      "duration": "96i"
    },
    {
      "time": "123072i",
      "midiNote": 66,
      "noteName": "F#4",
      "velocity": 0.9448818897637795,
      "duration": "96i"
    },
    {
      "time": "123072i",
      "midiNote": 61,
      "noteName": "C#4",
      "velocity": 0.8188976377952756,
      "duration": "96i"
    },
    {
      "time": "123072i",
      "midiNote": 57,
      "noteName": "A3",
      "velocity": 0.8188976377952756,
      "duration": "96i"
    },
    {
      "time": "123168i",
      "midiNote": 66,
      "noteName": "F#4",
      "velocity": 1,
      "duration": "96i"
    },
    {
      "time": "123168i",
      "midiNote": 61,
      "noteName": "C#4",
      "velocity": 0.8818897637795275,
      "duration": "96i"
    },
    {
      "time": "123168i",
      "midiNote": 57,
      "noteName": "A3",
      "velocity": 0.8818897637795275,
      "duration": "96i"
    },
    {
      "time": "123360i",
      "midiNote": 66,
      "noteName": "F#4",
      "velocity": 1,
      "duration": "192i"
    },
    {
      "time": "123360i",
      "midiNote": 61,
      "noteName": "C#4",
      "velocity": 0.8818897637795275,
      "duration": "192i"
    },
    {
      "time": "123360i",
      "midiNote": 57,
      "noteName": "A3",
      "velocity": 0.8818897637795275,
      "duration": "192i"
    },
    {
      "time": "123552i",
      "midiNote": 66,
      "noteName": "F#4",
      "velocity": 1,
      "duration": "96i"
    },
    {
      "time": "123552i",
      "midiNote": 61,
      "noteName": "C#4",
      "velocity": 0.8818897637795275,
      "duration": "96i"
    },
    {
      "time": "123552i",
      "midiNote": 57,
      "noteName": "A3",
      "velocity": 0.8818897637795275,
      "duration": "96i"
    },
    {
      "time": "123648i",
      "midiNote": 57,
      "noteName": "A3",
      "velocity": 0.8818897637795275,
      "duration": "96i"
    },
    {
      "time": "123648i",
      "midiNote": 62,
      "noteName": "D4",
      "velocity": 0.8818897637795275,
      "duration": "96i"
    },
    {
      "time": "123648i",
      "midiNote": 66,
      "noteName": "F#4",
      "velocity": 1,
      "duration": "96i"
    },
    {
      "time": "123744i",
      "midiNote": 57,
      "noteName": "A3",
      "velocity": 0.7559055118110236,
      "duration": "96i"
    },
    {
      "time": "123744i",
      "midiNote": 62,
      "noteName": "D4",
      "velocity": 0.7559055118110236,
      "duration": "96i"
    },
    {
      "time": "123744i",
      "midiNote": 66,
      "noteName": "F#4",
      "velocity": 0.8818897637795275,
      "duration": "96i"
    },
    {
      "time": "123840i",
      "midiNote": 57,
      "noteName": "A3",
      "velocity": 0.8188976377952756,
      "duration": "96i"
    },
    {
      "time": "123840i",
      "midiNote": 62,
      "noteName": "D4",
      "velocity": 0.8188976377952756,
      "duration": "96i"
    },
    {
      "time": "123840i",
      "midiNote": 66,
      "noteName": "F#4",
      "velocity": 0.9448818897637795,
      "duration": "96i"
    },
    {
      "time": "123936i",
      "midiNote": 57,
      "noteName": "A3",
      "velocity": 0.8818897637795275,
      "duration": "96i"
    },
    {
      "time": "123936i",
      "midiNote": 62,
      "noteName": "D4",
      "velocity": 0.8818897637795275,
      "duration": "96i"
    },
    {
      "time": "123936i",
      "midiNote": 66,
      "noteName": "F#4",
      "velocity": 1,
      "duration": "96i"
    },
    {
      "time": "124128i",
      "midiNote": 57,
      "noteName": "A3",
      "velocity": 0.8818897637795275,
      "duration": "192i"
    },
    {
      "time": "124128i",
      "midiNote": 62,
      "noteName": "D4",
      "velocity": 0.8818897637795275,
      "duration": "192i"
    },
    {
      "time": "124128i",
      "midiNote": 66,
      "noteName": "F#4",
      "velocity": 1,
      "duration": "192i"
    },
    {
      "time": "124320i",
      "midiNote": 57,
      "noteName": "A3",
      "velocity": 0.8818897637795275,
      "duration": "96i"
    },
    {
      "time": "124320i",
      "midiNote": 62,
      "noteName": "D4",
      "velocity": 0.8818897637795275,
      "duration": "96i"
    },
    {
      "time": "124320i",
      "midiNote": 66,
      "noteName": "F#4",
      "velocity": 1,
      "duration": "96i"
    },
    {
      "time": "124416i",
      "midiNote": 57,
      "noteName": "A3",
      "velocity": 0.8818897637795275,
      "duration": "96i"
    },
    {
      "time": "124416i",
      "midiNote": 62,
      "noteName": "D4",
      "velocity": 0.8818897637795275,
      "duration": "96i"
    },
    {
      "time": "124416i",
      "midiNote": 66,
      "noteName": "F#4",
      "velocity": 1,
      "duration": "96i"
    },
    {
      "time": "124512i",
      "midiNote": 57,
      "noteName": "A3",
      "velocity": 0.7559055118110236,
      "duration": "96i"
    },
    {
      "time": "124512i",
      "midiNote": 62,
      "noteName": "D4",
      "velocity": 0.7559055118110236,
      "duration": "96i"
    },
    {
      "time": "124512i",
      "midiNote": 66,
      "noteName": "F#4",
      "velocity": 0.8818897637795275,
      "duration": "96i"
    },
    {
      "time": "124608i",
      "midiNote": 57,
      "noteName": "A3",
      "velocity": 0.8188976377952756,
      "duration": "96i"
    },
    {
      "time": "124608i",
      "midiNote": 62,
      "noteName": "D4",
      "velocity": 0.8188976377952756,
      "duration": "96i"
    },
    {
      "time": "124608i",
      "midiNote": 66,
      "noteName": "F#4",
      "velocity": 0.9448818897637795,
      "duration": "96i"
    },
    {
      "time": "124704i",
      "midiNote": 57,
      "noteName": "A3",
      "velocity": 0.8818897637795275,
      "duration": "96i"
    },
    {
      "time": "124704i",
      "midiNote": 62,
      "noteName": "D4",
      "velocity": 0.8818897637795275,
      "duration": "96i"
    },
    {
      "time": "124704i",
      "midiNote": 66,
      "noteName": "F#4",
      "velocity": 1,
      "duration": "96i"
    },
    {
      "time": "124896i",
      "midiNote": 57,
      "noteName": "A3",
      "velocity": 0.8818897637795275,
      "duration": "192i"
    },
    {
      "time": "124896i",
      "midiNote": 62,
      "noteName": "D4",
      "velocity": 0.8818897637795275,
      "duration": "192i"
    },
    {
      "time": "124896i",
      "midiNote": 66,
      "noteName": "F#4",
      "velocity": 1,
      "duration": "192i"
    },
    {
      "time": "125088i",
      "midiNote": 57,
      "noteName": "A3",
      "velocity": 0.8818897637795275,
      "duration": "96i"
    },
    {
      "time": "125088i",
      "midiNote": 62,
      "noteName": "D4",
      "velocity": 0.8818897637795275,
      "duration": "96i"
    },
    {
      "time": "125088i",
      "midiNote": 66,
      "noteName": "F#4",
      "velocity": 1,
      "duration": "96i"
    },
    {
      "time": "125184i",
      "midiNote": 50,
      "noteName": "D3",
      "velocity": 0.8818897637795275,
      "duration": "96i"
    },
    {
      "time": "125184i",
      "midiNote": 56,
      "noteName": "G#3",
      "velocity": 0.8818897637795275,
      "duration": "96i"
    },
    {
      "time": "125184i",
      "midiNote": 64,
      "noteName": "E4",
      "velocity": 1,
      "duration": "96i"
    },
    {
      "time": "125280i",
      "midiNote": 50,
      "noteName": "D3",
      "velocity": 0.7559055118110236,
      "duration": "96i"
    },
    {
      "time": "125280i",
      "midiNote": 56,
      "noteName": "G#3",
      "velocity": 0.7559055118110236,
      "duration": "96i"
    },
    {
      "time": "125280i",
      "midiNote": 64,
      "noteName": "E4",
      "velocity": 0.8818897637795275,
      "duration": "96i"
    },
    {
      "time": "125376i",
      "midiNote": 50,
      "noteName": "D3",
      "velocity": 0.8188976377952756,
      "duration": "96i"
    },
    {
      "time": "125376i",
      "midiNote": 56,
      "noteName": "G#3",
      "velocity": 0.8188976377952756,
      "duration": "96i"
    },
    {
      "time": "125376i",
      "midiNote": 64,
      "noteName": "E4",
      "velocity": 0.9448818897637795,
      "duration": "96i"
    },
    {
      "time": "125472i",
      "midiNote": 50,
      "noteName": "D3",
      "velocity": 0.8818897637795275,
      "duration": "96i"
    },
    {
      "time": "125472i",
      "midiNote": 56,
      "noteName": "G#3",
      "velocity": 0.8818897637795275,
      "duration": "96i"
    },
    {
      "time": "125472i",
      "midiNote": 64,
      "noteName": "E4",
      "velocity": 1,
      "duration": "96i"
    },
    {
      "time": "125664i",
      "midiNote": 50,
      "noteName": "D3",
      "velocity": 0.8818897637795275,
      "duration": "192i"
    },
    {
      "time": "125664i",
      "midiNote": 56,
      "noteName": "G#3",
      "velocity": 0.8818897637795275,
      "duration": "192i"
    },
    {
      "time": "125664i",
      "midiNote": 64,
      "noteName": "E4",
      "velocity": 1,
      "duration": "192i"
    },
    {
      "time": "125856i",
      "midiNote": 50,
      "noteName": "D3",
      "velocity": 0.8818897637795275,
      "duration": "96i"
    },
    {
      "time": "125856i",
      "midiNote": 56,
      "noteName": "G#3",
      "velocity": 0.8818897637795275,
      "duration": "96i"
    },
    {
      "time": "125856i",
      "midiNote": 64,
      "noteName": "E4",
      "velocity": 1,
      "duration": "96i"
    },
    {
      "time": "125952i",
      "midiNote": 50,
      "noteName": "D3",
      "velocity": 0.8818897637795275,
      "duration": "96i"
    },
    {
      "time": "125952i",
      "midiNote": 56,
      "noteName": "G#3",
      "velocity": 0.8818897637795275,
      "duration": "96i"
    },
    {
      "time": "125952i",
      "midiNote": 64,
      "noteName": "E4",
      "velocity": 1,
      "duration": "96i"
    },
    {
      "time": "126048i",
      "midiNote": 50,
      "noteName": "D3",
      "velocity": 0.7559055118110236,
      "duration": "96i"
    },
    {
      "time": "126048i",
      "midiNote": 56,
      "noteName": "G#3",
      "velocity": 0.7559055118110236,
      "duration": "96i"
    },
    {
      "time": "126048i",
      "midiNote": 64,
      "noteName": "E4",
      "velocity": 0.8818897637795275,
      "duration": "96i"
    },
    {
      "time": "126144i",
      "midiNote": 50,
      "noteName": "D3",
      "velocity": 0.8188976377952756,
      "duration": "96i"
    },
    {
      "time": "126144i",
      "midiNote": 56,
      "noteName": "G#3",
      "velocity": 0.8188976377952756,
      "duration": "96i"
    },
    {
      "time": "126144i",
      "midiNote": 64,
      "noteName": "E4",
      "velocity": 0.9448818897637795,
      "duration": "96i"
    },
    {
      "time": "126240i",
      "midiNote": 50,
      "noteName": "D3",
      "velocity": 0.8818897637795275,
      "duration": "96i"
    },
    {
      "time": "126240i",
      "midiNote": 56,
      "noteName": "G#3",
      "velocity": 0.8818897637795275,
      "duration": "96i"
    },
    {
      "time": "126240i",
      "midiNote": 64,
      "noteName": "E4",
      "velocity": 1,
      "duration": "96i"
    },
    {
      "time": "126432i",
      "midiNote": 50,
      "noteName": "D3",
      "velocity": 0.8818897637795275,
      "duration": "192i"
    },
    {
      "time": "126432i",
      "midiNote": 56,
      "noteName": "G#3",
      "velocity": 0.8818897637795275,
      "duration": "192i"
    },
    {
      "time": "126432i",
      "midiNote": 64,
      "noteName": "E4",
      "velocity": 1,
      "duration": "192i"
    },
    {
      "time": "126624i",
      "midiNote": 50,
      "noteName": "D3",
      "velocity": 0.8818897637795275,
      "duration": "96i"
    },
    {
      "time": "126624i",
      "midiNote": 56,
      "noteName": "G#3",
      "velocity": 0.8818897637795275,
      "duration": "96i"
    },
    {
      "time": "126624i",
      "midiNote": 64,
      "noteName": "E4",
      "velocity": 1,
      "duration": "96i"
    },
    {
      "time": "126720i",
      "midiNote": 59,
      "noteName": "B3",
      "velocity": 0.8818897637795275,
      "duration": "96i"
    },
    {
      "time": "126720i",
      "midiNote": 56,
      "noteName": "G#3",
      "velocity": 0.8818897637795275,
      "duration": "96i"
    },
    {
      "time": "126720i",
      "midiNote": 65,
      "noteName": "F4",
      "velocity": 1,
      "duration": "96i"
    },
    {
      "time": "126816i",
      "midiNote": 59,
      "noteName": "B3",
      "velocity": 0.7559055118110236,
      "duration": "96i"
    },
    {
      "time": "126816i",
      "midiNote": 56,
      "noteName": "G#3",
      "velocity": 0.7559055118110236,
      "duration": "96i"
    },
    {
      "time": "126816i",
      "midiNote": 65,
      "noteName": "F4",
      "velocity": 0.8818897637795275,
      "duration": "96i"
    },
    {
      "time": "126912i",
      "midiNote": 59,
      "noteName": "B3",
      "velocity": 0.8188976377952756,
      "duration": "96i"
    },
    {
      "time": "126912i",
      "midiNote": 56,
      "noteName": "G#3",
      "velocity": 0.8188976377952756,
      "duration": "96i"
    },
    {
      "time": "126912i",
      "midiNote": 65,
      "noteName": "F4",
      "velocity": 0.9448818897637795,
      "duration": "96i"
    },
    {
      "time": "127008i",
      "midiNote": 59,
      "noteName": "B3",
      "velocity": 0.8818897637795275,
      "duration": "96i"
    },
    {
      "time": "127008i",
      "midiNote": 56,
      "noteName": "G#3",
      "velocity": 0.8818897637795275,
      "duration": "96i"
    },
    {
      "time": "127008i",
      "midiNote": 65,
      "noteName": "F4",
      "velocity": 1,
      "duration": "96i"
    },
    {
      "time": "127200i",
      "midiNote": 59,
      "noteName": "B3",
      "velocity": 0.8818897637795275,
      "duration": "192i"
    },
    {
      "time": "127200i",
      "midiNote": 56,
      "noteName": "G#3",
      "velocity": 0.8818897637795275,
      "duration": "192i"
    },
    {
      "time": "127200i",
      "midiNote": 65,
      "noteName": "F4",
      "velocity": 1,
      "duration": "192i"
    },
    {
      "time": "127392i",
      "midiNote": 59,
      "noteName": "B3",
      "velocity": 0.8818897637795275,
      "duration": "96i"
    },
    {
      "time": "127392i",
      "midiNote": 56,
      "noteName": "G#3",
      "velocity": 0.8818897637795275,
      "duration": "96i"
    },
    {
      "time": "127392i",
      "midiNote": 65,
      "noteName": "F4",
      "velocity": 1,
      "duration": "96i"
    },
    {
      "time": "127488i",
      "midiNote": 59,
      "noteName": "B3",
      "velocity": 0.8818897637795275,
      "duration": "96i"
    },
    {
      "time": "127488i",
      "midiNote": 56,
      "noteName": "G#3",
      "velocity": 0.8818897637795275,
      "duration": "96i"
    },
    {
      "time": "127488i",
      "midiNote": 65,
      "noteName": "F4",
      "velocity": 1,
      "duration": "96i"
    },
    {
      "time": "127584i",
      "midiNote": 59,
      "noteName": "B3",
      "velocity": 0.7559055118110236,
      "duration": "96i"
    },
    {
      "time": "127584i",
      "midiNote": 56,
      "noteName": "G#3",
      "velocity": 0.7559055118110236,
      "duration": "96i"
    },
    {
      "time": "127584i",
      "midiNote": 65,
      "noteName": "F4",
      "velocity": 0.8818897637795275,
      "duration": "96i"
    },
    {
      "time": "127680i",
      "midiNote": 59,
      "noteName": "B3",
      "velocity": 0.8188976377952756,
      "duration": "96i"
    },
    {
      "time": "127680i",
      "midiNote": 56,
      "noteName": "G#3",
      "velocity": 0.8188976377952756,
      "duration": "96i"
    },
    {
      "time": "127680i",
      "midiNote": 65,
      "noteName": "F4",
      "velocity": 0.9448818897637795,
      "duration": "96i"
    },
    {
      "time": "127776i",
      "midiNote": 59,
      "noteName": "B3",
      "velocity": 0.8818897637795275,
      "duration": "96i"
    },
    {
      "time": "127776i",
      "midiNote": 56,
      "noteName": "G#3",
      "velocity": 0.8818897637795275,
      "duration": "96i"
    },
    {
      "time": "127776i",
      "midiNote": 65,
      "noteName": "F4",
      "velocity": 1,
      "duration": "96i"
    },
    {
      "time": "127968i",
      "midiNote": 59,
      "noteName": "B3",
      "velocity": 0.8818897637795275,
      "duration": "192i"
    },
    {
      "time": "127968i",
      "midiNote": 56,
      "noteName": "G#3",
      "velocity": 0.8818897637795275,
      "duration": "192i"
    },
    {
      "time": "127968i",
      "midiNote": 65,
      "noteName": "F4",
      "velocity": 1,
      "duration": "192i"
    },
    {
      "time": "128160i",
      "midiNote": 59,
      "noteName": "B3",
      "velocity": 0.8818897637795275,
      "duration": "96i"
    },
    {
      "time": "128160i",
      "midiNote": 56,
      "noteName": "G#3",
      "velocity": 0.8818897637795275,
      "duration": "96i"
    },
    {
      "time": "128160i",
      "midiNote": 65,
      "noteName": "F4",
      "velocity": 1,
      "duration": "96i"
    },
    {
      "time": "128256i",
      "midiNote": 66,
      "noteName": "F#4",
      "velocity": 1,
      "duration": "96i"
    },
    {
      "time": "128256i",
      "midiNote": 61,
      "noteName": "C#4",
      "velocity": 0.8818897637795275,
      "duration": "96i"
    },
    {
      "time": "128256i",
      "midiNote": 57,
      "noteName": "A3",
      "velocity": 0.8818897637795275,
      "duration": "96i"
    },
    {
      "time": "128352i",
      "midiNote": 66,
      "noteName": "F#4",
      "velocity": 0.8818897637795275,
      "duration": "96i"
    },
    {
      "time": "128352i",
      "midiNote": 61,
      "noteName": "C#4",
      "velocity": 0.7559055118110236,
      "duration": "96i"
    },
    {
      "time": "128352i",
      "midiNote": 57,
      "noteName": "A3",
      "velocity": 0.7559055118110236,
      "duration": "96i"
    },
    {
      "time": "128448i",
      "midiNote": 66,
      "noteName": "F#4",
      "velocity": 0.9448818897637795,
      "duration": "96i"
    },
    {
      "time": "128448i",
      "midiNote": 61,
      "noteName": "C#4",
      "velocity": 0.8188976377952756,
      "duration": "96i"
    },
    {
      "time": "128448i",
      "midiNote": 57,
      "noteName": "A3",
      "velocity": 0.8188976377952756,
      "duration": "96i"
    },
    {
      "time": "128544i",
      "midiNote": 66,
      "noteName": "F#4",
      "velocity": 1,
      "duration": "96i"
    },
    {
      "time": "128544i",
      "midiNote": 61,
      "noteName": "C#4",
      "velocity": 0.8818897637795275,
      "duration": "96i"
    },
    {
      "time": "128544i",
      "midiNote": 57,
      "noteName": "A3",
      "velocity": 0.8818897637795275,
      "duration": "96i"
    },
    {
      "time": "128736i",
      "midiNote": 66,
      "noteName": "F#4",
      "velocity": 1,
      "duration": "192i"
    },
    {
      "time": "128736i",
      "midiNote": 61,
      "noteName": "C#4",
      "velocity": 0.8818897637795275,
      "duration": "192i"
    },
    {
      "time": "128736i",
      "midiNote": 57,
      "noteName": "A3",
      "velocity": 0.8818897637795275,
      "duration": "192i"
    },
    {
      "time": "128928i",
      "midiNote": 66,
      "noteName": "F#4",
      "velocity": 1,
      "duration": "96i"
    },
    {
      "time": "128928i",
      "midiNote": 61,
      "noteName": "C#4",
      "velocity": 0.8818897637795275,
      "duration": "96i"
    },
    {
      "time": "128928i",
      "midiNote": 57,
      "noteName": "A3",
      "velocity": 0.8818897637795275,
      "duration": "96i"
    },
    {
      "time": "129024i",
      "midiNote": 66,
      "noteName": "F#4",
      "velocity": 1,
      "duration": "96i"
    },
    {
      "time": "129024i",
      "midiNote": 61,
      "noteName": "C#4",
      "velocity": 0.8818897637795275,
      "duration": "96i"
    },
    {
      "time": "129024i",
      "midiNote": 57,
      "noteName": "A3",
      "velocity": 0.8818897637795275,
      "duration": "96i"
    },
    {
      "time": "129120i",
      "midiNote": 66,
      "noteName": "F#4",
      "velocity": 0.8818897637795275,
      "duration": "96i"
    },
    {
      "time": "129120i",
      "midiNote": 61,
      "noteName": "C#4",
      "velocity": 0.7559055118110236,
      "duration": "96i"
    },
    {
      "time": "129120i",
      "midiNote": 57,
      "noteName": "A3",
      "velocity": 0.7559055118110236,
      "duration": "96i"
    },
    {
      "time": "129216i",
      "midiNote": 66,
      "noteName": "F#4",
      "velocity": 0.9448818897637795,
      "duration": "96i"
    },
    {
      "time": "129216i",
      "midiNote": 61,
      "noteName": "C#4",
      "velocity": 0.8188976377952756,
      "duration": "96i"
    },
    {
      "time": "129216i",
      "midiNote": 57,
      "noteName": "A3",
      "velocity": 0.8188976377952756,
      "duration": "96i"
    },
    {
      "time": "129312i",
      "midiNote": 66,
      "noteName": "F#4",
      "velocity": 1,
      "duration": "96i"
    },
    {
      "time": "129312i",
      "midiNote": 61,
      "noteName": "C#4",
      "velocity": 0.8818897637795275,
      "duration": "96i"
    },
    {
      "time": "129312i",
      "midiNote": 57,
      "noteName": "A3",
      "velocity": 0.8818897637795275,
      "duration": "96i"
    },
    {
      "time": "129504i",
      "midiNote": 66,
      "noteName": "F#4",
      "velocity": 1,
      "duration": "192i"
    },
    {
      "time": "129504i",
      "midiNote": 61,
      "noteName": "C#4",
      "velocity": 0.8818897637795275,
      "duration": "192i"
    },
    {
      "time": "129504i",
      "midiNote": 57,
      "noteName": "A3",
      "velocity": 0.8818897637795275,
      "duration": "192i"
    },
    {
      "time": "129696i",
      "midiNote": 66,
      "noteName": "F#4",
      "velocity": 1,
      "duration": "96i"
    },
    {
      "time": "129696i",
      "midiNote": 61,
      "noteName": "C#4",
      "velocity": 0.8818897637795275,
      "duration": "96i"
    },
    {
      "time": "129696i",
      "midiNote": 57,
      "noteName": "A3",
      "velocity": 0.8818897637795275,
      "duration": "96i"
    },
    {
      "time": "129792i",
      "midiNote": 57,
      "noteName": "A3",
      "velocity": 0.8818897637795275,
      "duration": "96i"
    },
    {
      "time": "129792i",
      "midiNote": 62,
      "noteName": "D4",
      "velocity": 0.8818897637795275,
      "duration": "96i"
    },
    {
      "time": "129792i",
      "midiNote": 66,
      "noteName": "F#4",
      "velocity": 1,
      "duration": "96i"
    },
    {
      "time": "129888i",
      "midiNote": 57,
      "noteName": "A3",
      "velocity": 0.7559055118110236,
      "duration": "96i"
    },
    {
      "time": "129888i",
      "midiNote": 62,
      "noteName": "D4",
      "velocity": 0.7559055118110236,
      "duration": "96i"
    },
    {
      "time": "129888i",
      "midiNote": 66,
      "noteName": "F#4",
      "velocity": 0.8818897637795275,
      "duration": "96i"
    },
    {
      "time": "129984i",
      "midiNote": 57,
      "noteName": "A3",
      "velocity": 0.8188976377952756,
      "duration": "96i"
    },
    {
      "time": "129984i",
      "midiNote": 62,
      "noteName": "D4",
      "velocity": 0.8188976377952756,
      "duration": "96i"
    },
    {
      "time": "129984i",
      "midiNote": 66,
      "noteName": "F#4",
      "velocity": 0.9448818897637795,
      "duration": "96i"
    },
    {
      "time": "130080i",
      "midiNote": 57,
      "noteName": "A3",
      "velocity": 0.8818897637795275,
      "duration": "96i"
    },
    {
      "time": "130080i",
      "midiNote": 62,
      "noteName": "D4",
      "velocity": 0.8818897637795275,
      "duration": "96i"
    },
    {
      "time": "130080i",
      "midiNote": 66,
      "noteName": "F#4",
      "velocity": 1,
      "duration": "96i"
    },
    {
      "time": "130272i",
      "midiNote": 57,
      "noteName": "A3",
      "velocity": 0.8818897637795275,
      "duration": "192i"
    },
    {
      "time": "130272i",
      "midiNote": 62,
      "noteName": "D4",
      "velocity": 0.8818897637795275,
      "duration": "192i"
    },
    {
      "time": "130272i",
      "midiNote": 66,
      "noteName": "F#4",
      "velocity": 1,
      "duration": "192i"
    },
    {
      "time": "130464i",
      "midiNote": 57,
      "noteName": "A3",
      "velocity": 0.8818897637795275,
      "duration": "96i"
    },
    {
      "time": "130464i",
      "midiNote": 62,
      "noteName": "D4",
      "velocity": 0.8818897637795275,
      "duration": "96i"
    },
    {
      "time": "130464i",
      "midiNote": 66,
      "noteName": "F#4",
      "velocity": 1,
      "duration": "96i"
    },
    {
      "time": "130560i",
      "midiNote": 57,
      "noteName": "A3",
      "velocity": 0.8818897637795275,
      "duration": "96i"
    },
    {
      "time": "130560i",
      "midiNote": 62,
      "noteName": "D4",
      "velocity": 0.8818897637795275,
      "duration": "96i"
    },
    {
      "time": "130560i",
      "midiNote": 66,
      "noteName": "F#4",
      "velocity": 1,
      "duration": "96i"
    },
    {
      "time": "130656i",
      "midiNote": 57,
      "noteName": "A3",
      "velocity": 0.7559055118110236,
      "duration": "96i"
    },
    {
      "time": "130656i",
      "midiNote": 62,
      "noteName": "D4",
      "velocity": 0.7559055118110236,
      "duration": "96i"
    },
    {
      "time": "130656i",
      "midiNote": 66,
      "noteName": "F#4",
      "velocity": 0.8818897637795275,
      "duration": "96i"
    },
    {
      "time": "130752i",
      "midiNote": 57,
      "noteName": "A3",
      "velocity": 0.8188976377952756,
      "duration": "96i"
    },
    {
      "time": "130752i",
      "midiNote": 62,
      "noteName": "D4",
      "velocity": 0.8188976377952756,
      "duration": "96i"
    },
    {
      "time": "130752i",
      "midiNote": 66,
      "noteName": "F#4",
      "velocity": 0.9448818897637795,
      "duration": "96i"
    },
    {
      "time": "130848i",
      "midiNote": 57,
      "noteName": "A3",
      "velocity": 0.8818897637795275,
      "duration": "96i"
    },
    {
      "time": "130848i",
      "midiNote": 62,
      "noteName": "D4",
      "velocity": 0.8818897637795275,
      "duration": "96i"
    },
    {
      "time": "130848i",
      "midiNote": 66,
      "noteName": "F#4",
      "velocity": 1,
      "duration": "96i"
    },
    {
      "time": "131040i",
      "midiNote": 57,
      "noteName": "A3",
      "velocity": 0.8818897637795275,
      "duration": "192i"
    },
    {
      "time": "131040i",
      "midiNote": 62,
      "noteName": "D4",
      "velocity": 0.8818897637795275,
      "duration": "192i"
    },
    {
      "time": "131040i",
      "midiNote": 66,
      "noteName": "F#4",
      "velocity": 1,
      "duration": "192i"
    },
    {
      "time": "131232i",
      "midiNote": 57,
      "noteName": "A3",
      "velocity": 0.8818897637795275,
      "duration": "96i"
    },
    {
      "time": "131232i",
      "midiNote": 62,
      "noteName": "D4",
      "velocity": 0.8818897637795275,
      "duration": "96i"
    },
    {
      "time": "131232i",
      "midiNote": 66,
      "noteName": "F#4",
      "velocity": 1,
      "duration": "96i"
    },
    {
      "time": "131328i",
      "midiNote": 50,
      "noteName": "D3",
      "velocity": 0.8818897637795275,
      "duration": "96i"
    },
    {
      "time": "131328i",
      "midiNote": 56,
      "noteName": "G#3",
      "velocity": 0.8818897637795275,
      "duration": "96i"
    },
    {
      "time": "131328i",
      "midiNote": 64,
      "noteName": "E4",
      "velocity": 1,
      "duration": "96i"
    },
    {
      "time": "131424i",
      "midiNote": 50,
      "noteName": "D3",
      "velocity": 0.7559055118110236,
      "duration": "96i"
    },
    {
      "time": "131424i",
      "midiNote": 56,
      "noteName": "G#3",
      "velocity": 0.7559055118110236,
      "duration": "96i"
    },
    {
      "time": "131424i",
      "midiNote": 64,
      "noteName": "E4",
      "velocity": 0.8818897637795275,
      "duration": "96i"
    },
    {
      "time": "131520i",
      "midiNote": 50,
      "noteName": "D3",
      "velocity": 0.8188976377952756,
      "duration": "96i"
    },
    {
      "time": "131520i",
      "midiNote": 56,
      "noteName": "G#3",
      "velocity": 0.8188976377952756,
      "duration": "96i"
    },
    {
      "time": "131520i",
      "midiNote": 64,
      "noteName": "E4",
      "velocity": 0.9448818897637795,
      "duration": "96i"
    },
    {
      "time": "131616i",
      "midiNote": 50,
      "noteName": "D3",
      "velocity": 0.8818897637795275,
      "duration": "96i"
    },
    {
      "time": "131616i",
      "midiNote": 56,
      "noteName": "G#3",
      "velocity": 0.8818897637795275,
      "duration": "96i"
    },
    {
      "time": "131616i",
      "midiNote": 64,
      "noteName": "E4",
      "velocity": 1,
      "duration": "96i"
    },
    {
      "time": "131808i",
      "midiNote": 50,
      "noteName": "D3",
      "velocity": 0.8818897637795275,
      "duration": "192i"
    },
    {
      "time": "131808i",
      "midiNote": 56,
      "noteName": "G#3",
      "velocity": 0.8818897637795275,
      "duration": "192i"
    },
    {
      "time": "131808i",
      "midiNote": 64,
      "noteName": "E4",
      "velocity": 1,
      "duration": "192i"
    },
    {
      "time": "132000i",
      "midiNote": 50,
      "noteName": "D3",
      "velocity": 0.8818897637795275,
      "duration": "96i"
    },
    {
      "time": "132000i",
      "midiNote": 56,
      "noteName": "G#3",
      "velocity": 0.8818897637795275,
      "duration": "96i"
    },
    {
      "time": "132000i",
      "midiNote": 64,
      "noteName": "E4",
      "velocity": 1,
      "duration": "96i"
    },
    {
      "time": "132096i",
      "midiNote": 50,
      "noteName": "D3",
      "velocity": 0.8818897637795275,
      "duration": "96i"
    },
    {
      "time": "132096i",
      "midiNote": 56,
      "noteName": "G#3",
      "velocity": 0.8818897637795275,
      "duration": "96i"
    },
    {
      "time": "132096i",
      "midiNote": 64,
      "noteName": "E4",
      "velocity": 1,
      "duration": "96i"
    },
    {
      "time": "132192i",
      "midiNote": 50,
      "noteName": "D3",
      "velocity": 0.7559055118110236,
      "duration": "96i"
    },
    {
      "time": "132192i",
      "midiNote": 56,
      "noteName": "G#3",
      "velocity": 0.7559055118110236,
      "duration": "96i"
    },
    {
      "time": "132192i",
      "midiNote": 64,
      "noteName": "E4",
      "velocity": 0.8818897637795275,
      "duration": "96i"
    },
    {
      "time": "132288i",
      "midiNote": 50,
      "noteName": "D3",
      "velocity": 0.8188976377952756,
      "duration": "96i"
    },
    {
      "time": "132288i",
      "midiNote": 56,
      "noteName": "G#3",
      "velocity": 0.8188976377952756,
      "duration": "96i"
    },
    {
      "time": "132288i",
      "midiNote": 64,
      "noteName": "E4",
      "velocity": 0.9448818897637795,
      "duration": "96i"
    },
    {
      "time": "132384i",
      "midiNote": 50,
      "noteName": "D3",
      "velocity": 0.8818897637795275,
      "duration": "96i"
    },
    {
      "time": "132384i",
      "midiNote": 56,
      "noteName": "G#3",
      "velocity": 0.8818897637795275,
      "duration": "96i"
    },
    {
      "time": "132384i",
      "midiNote": 64,
      "noteName": "E4",
      "velocity": 1,
      "duration": "96i"
    },
    {
      "time": "132576i",
      "midiNote": 50,
      "noteName": "D3",
      "velocity": 0.8818897637795275,
      "duration": "192i"
    },
    {
      "time": "132576i",
      "midiNote": 56,
      "noteName": "G#3",
      "velocity": 0.8818897637795275,
      "duration": "192i"
    },
    {
      "time": "132576i",
      "midiNote": 64,
      "noteName": "E4",
      "velocity": 1,
      "duration": "192i"
    },
    {
      "time": "132768i",
      "midiNote": 50,
      "noteName": "D3",
      "velocity": 0.8818897637795275,
      "duration": "96i"
    },
    {
      "time": "132768i",
      "midiNote": 56,
      "noteName": "G#3",
      "velocity": 0.8818897637795275,
      "duration": "96i"
    },
    {
      "time": "132768i",
      "midiNote": 64,
      "noteName": "E4",
      "velocity": 1,
      "duration": "96i"
    },
    {
      "time": "132864i",
      "midiNote": 59,
      "noteName": "B3",
      "velocity": 0.8818897637795275,
      "duration": "96i"
    },
    {
      "time": "132864i",
      "midiNote": 56,
      "noteName": "G#3",
      "velocity": 0.8818897637795275,
      "duration": "96i"
    },
    {
      "time": "132864i",
      "midiNote": 65,
      "noteName": "F4",
      "velocity": 1,
      "duration": "96i"
    },
    {
      "time": "132960i",
      "midiNote": 59,
      "noteName": "B3",
      "velocity": 0.7559055118110236,
      "duration": "96i"
    },
    {
      "time": "132960i",
      "midiNote": 56,
      "noteName": "G#3",
      "velocity": 0.7559055118110236,
      "duration": "96i"
    },
    {
      "time": "132960i",
      "midiNote": 65,
      "noteName": "F4",
      "velocity": 0.8818897637795275,
      "duration": "96i"
    },
    {
      "time": "133056i",
      "midiNote": 59,
      "noteName": "B3",
      "velocity": 0.8188976377952756,
      "duration": "96i"
    },
    {
      "time": "133056i",
      "midiNote": 56,
      "noteName": "G#3",
      "velocity": 0.8188976377952756,
      "duration": "96i"
    },
    {
      "time": "133056i",
      "midiNote": 65,
      "noteName": "F4",
      "velocity": 0.9448818897637795,
      "duration": "96i"
    },
    {
      "time": "133152i",
      "midiNote": 59,
      "noteName": "B3",
      "velocity": 0.8818897637795275,
      "duration": "96i"
    },
    {
      "time": "133152i",
      "midiNote": 56,
      "noteName": "G#3",
      "velocity": 0.8818897637795275,
      "duration": "96i"
    },
    {
      "time": "133152i",
      "midiNote": 65,
      "noteName": "F4",
      "velocity": 1,
      "duration": "96i"
    },
    {
      "time": "133344i",
      "midiNote": 59,
      "noteName": "B3",
      "velocity": 0.8818897637795275,
      "duration": "192i"
    },
    {
      "time": "133344i",
      "midiNote": 56,
      "noteName": "G#3",
      "velocity": 0.8818897637795275,
      "duration": "192i"
    },
    {
      "time": "133344i",
      "midiNote": 65,
      "noteName": "F4",
      "velocity": 1,
      "duration": "192i"
    },
    {
      "time": "133536i",
      "midiNote": 59,
      "noteName": "B3",
      "velocity": 0.8818897637795275,
      "duration": "96i"
    },
    {
      "time": "133536i",
      "midiNote": 56,
      "noteName": "G#3",
      "velocity": 0.8818897637795275,
      "duration": "96i"
    },
    {
      "time": "133536i",
      "midiNote": 65,
      "noteName": "F4",
      "velocity": 1,
      "duration": "96i"
    },
    {
      "time": "133632i",
      "midiNote": 59,
      "noteName": "B3",
      "velocity": 0.8818897637795275,
      "duration": "96i"
    },
    {
      "time": "133632i",
      "midiNote": 56,
      "noteName": "G#3",
      "velocity": 0.8818897637795275,
      "duration": "96i"
    },
    {
      "time": "133632i",
      "midiNote": 65,
      "noteName": "F4",
      "velocity": 1,
      "duration": "96i"
    },
    {
      "time": "133728i",
      "midiNote": 59,
      "noteName": "B3",
      "velocity": 0.7559055118110236,
      "duration": "96i"
    },
    {
      "time": "133728i",
      "midiNote": 56,
      "noteName": "G#3",
      "velocity": 0.7559055118110236,
      "duration": "96i"
    },
    {
      "time": "133728i",
      "midiNote": 65,
      "noteName": "F4",
      "velocity": 0.8818897637795275,
      "duration": "96i"
    },
    {
      "time": "133824i",
      "midiNote": 59,
      "noteName": "B3",
      "velocity": 0.8188976377952756,
      "duration": "96i"
    },
    {
      "time": "133824i",
      "midiNote": 56,
      "noteName": "G#3",
      "velocity": 0.8188976377952756,
      "duration": "96i"
    },
    {
      "time": "133824i",
      "midiNote": 65,
      "noteName": "F4",
      "velocity": 0.9448818897637795,
      "duration": "96i"
    },
    {
      "time": "133920i",
      "midiNote": 59,
      "noteName": "B3",
      "velocity": 0.8818897637795275,
      "duration": "96i"
    },
    {
      "time": "133920i",
      "midiNote": 56,
      "noteName": "G#3",
      "velocity": 0.8818897637795275,
      "duration": "96i"
    },
    {
      "time": "133920i",
      "midiNote": 65,
      "noteName": "F4",
      "velocity": 1,
      "duration": "96i"
    },
    {
      "time": "134112i",
      "midiNote": 59,
      "noteName": "B3",
      "velocity": 0.8818897637795275,
      "duration": "192i"
    },
    {
      "time": "134112i",
      "midiNote": 56,
      "noteName": "G#3",
      "velocity": 0.8818897637795275,
      "duration": "192i"
    },
    {
      "time": "134112i",
      "midiNote": 65,
      "noteName": "F4",
      "velocity": 1,
      "duration": "192i"
    },
    {
      "time": "134304i",
      "midiNote": 59,
      "noteName": "B3",
      "velocity": 0.8818897637795275,
      "duration": "96i"
    },
    {
      "time": "134304i",
      "midiNote": 56,
      "noteName": "G#3",
      "velocity": 0.8818897637795275,
      "duration": "96i"
    },
    {
      "time": "134304i",
      "midiNote": 65,
      "noteName": "F4",
      "velocity": 1,
      "duration": "96i"
    },
    {
      "time": "134400i",
      "midiNote": 57,
      "noteName": "A3",
      "velocity": 0.8818897637795275,
      "duration": "96i"
    },
    {
      "time": "134400i",
      "midiNote": 61,
      "noteName": "C#4",
      "velocity": 0.8818897637795275,
      "duration": "96i"
    },
    {
      "time": "134400i",
      "midiNote": 66,
      "noteName": "F#4",
      "velocity": 1,
      "duration": "96i"
    },
    {
      "time": "134496i",
      "midiNote": 57,
      "noteName": "A3",
      "velocity": 0.7559055118110236,
      "duration": "96i"
    },
    {
      "time": "134496i",
      "midiNote": 61,
      "noteName": "C#4",
      "velocity": 0.7559055118110236,
      "duration": "96i"
    },
    {
      "time": "134496i",
      "midiNote": 66,
      "noteName": "F#4",
      "velocity": 0.8818897637795275,
      "duration": "96i"
    },
    {
      "time": "134592i",
      "midiNote": 57,
      "noteName": "A3",
      "velocity": 0.8188976377952756,
      "duration": "96i"
    },
    {
      "time": "134592i",
      "midiNote": 61,
      "noteName": "C#4",
      "velocity": 0.8188976377952756,
      "duration": "96i"
    },
    {
      "time": "134592i",
      "midiNote": 66,
      "noteName": "F#4",
      "velocity": 0.9448818897637795,
      "duration": "96i"
    },
    {
      "time": "134688i",
      "midiNote": 57,
      "noteName": "A3",
      "velocity": 0.8818897637795275,
      "duration": "96i"
    },
    {
      "time": "134688i",
      "midiNote": 61,
      "noteName": "C#4",
      "velocity": 0.8818897637795275,
      "duration": "96i"
    },
    {
      "time": "134688i",
      "midiNote": 66,
      "noteName": "F#4",
      "velocity": 1,
      "duration": "96i"
    },
    {
      "time": "134880i",
      "midiNote": 57,
      "noteName": "A3",
      "velocity": 0.8818897637795275,
      "duration": "192i"
    },
    {
      "time": "134880i",
      "midiNote": 61,
      "noteName": "C#4",
      "velocity": 0.8818897637795275,
      "duration": "192i"
    },
    {
      "time": "134880i",
      "midiNote": 66,
      "noteName": "F#4",
      "velocity": 1,
      "duration": "192i"
    },
    {
      "time": "135072i",
      "midiNote": 57,
      "noteName": "A3",
      "velocity": 0.8818897637795275,
      "duration": "96i"
    },
    {
      "time": "135072i",
      "midiNote": 61,
      "noteName": "C#4",
      "velocity": 0.8818897637795275,
      "duration": "96i"
    },
    {
      "time": "135072i",
      "midiNote": 66,
      "noteName": "F#4",
      "velocity": 1,
      "duration": "96i"
    },
    {
      "time": "135168i",
      "midiNote": 57,
      "noteName": "A3",
      "velocity": 0.8818897637795275,
      "duration": "96i"
    },
    {
      "time": "135168i",
      "midiNote": 61,
      "noteName": "C#4",
      "velocity": 0.8818897637795275,
      "duration": "96i"
    },
    {
      "time": "135168i",
      "midiNote": 66,
      "noteName": "F#4",
      "velocity": 1,
      "duration": "96i"
    },
    {
      "time": "135264i",
      "midiNote": 57,
      "noteName": "A3",
      "velocity": 0.7559055118110236,
      "duration": "96i"
    },
    {
      "time": "135264i",
      "midiNote": 61,
      "noteName": "C#4",
      "velocity": 0.7559055118110236,
      "duration": "96i"
    },
    {
      "time": "135264i",
      "midiNote": 66,
      "noteName": "F#4",
      "velocity": 0.8818897637795275,
      "duration": "96i"
    },
    {
      "time": "135360i",
      "midiNote": 57,
      "noteName": "A3",
      "velocity": 0.8188976377952756,
      "duration": "96i"
    },
    {
      "time": "135360i",
      "midiNote": 61,
      "noteName": "C#4",
      "velocity": 0.8188976377952756,
      "duration": "96i"
    },
    {
      "time": "135360i",
      "midiNote": 66,
      "noteName": "F#4",
      "velocity": 0.9448818897637795,
      "duration": "96i"
    },
    {
      "time": "135456i",
      "midiNote": 57,
      "noteName": "A3",
      "velocity": 0.8818897637795275,
      "duration": "96i"
    },
    {
      "time": "135456i",
      "midiNote": 61,
      "noteName": "C#4",
      "velocity": 0.8818897637795275,
      "duration": "96i"
    },
    {
      "time": "135456i",
      "midiNote": 66,
      "noteName": "F#4",
      "velocity": 1,
      "duration": "96i"
    },
    {
      "time": "135648i",
      "midiNote": 57,
      "noteName": "A3",
      "velocity": 0.8818897637795275,
      "duration": "192i"
    },
    {
      "time": "135648i",
      "midiNote": 61,
      "noteName": "C#4",
      "velocity": 0.8818897637795275,
      "duration": "192i"
    },
    {
      "time": "135648i",
      "midiNote": 66,
      "noteName": "F#4",
      "velocity": 1,
      "duration": "192i"
    },
    {
      "time": "135840i",
      "midiNote": 57,
      "noteName": "A3",
      "velocity": 0.8818897637795275,
      "duration": "96i"
    },
    {
      "time": "135840i",
      "midiNote": 61,
      "noteName": "C#4",
      "velocity": 0.8818897637795275,
      "duration": "96i"
    },
    {
      "time": "135840i",
      "midiNote": 66,
      "noteName": "F#4",
      "velocity": 1,
      "duration": "192i"
    },
    {
      "time": "135936i",
      "midiNote": 57,
      "noteName": "A3",
      "velocity": 0.8818897637795275,
      "duration": "96i"
    },
    {
      "time": "135936i",
      "midiNote": 62,
      "noteName": "D4",
      "velocity": 0.8818897637795275,
      "duration": "96i"
    },
    {
      "time": "135936i",
      "midiNote": 66,
      "noteName": "F#4",
      "velocity": 1,
      "duration": "0i"
    },
    {
      "time": "136032i",
      "midiNote": 57,
      "noteName": "A3",
      "velocity": 0.7559055118110236,
      "duration": "96i"
    },
    {
      "time": "136032i",
      "midiNote": 62,
      "noteName": "D4",
      "velocity": 0.7559055118110236,
      "duration": "96i"
    },
    {
      "time": "136032i",
      "midiNote": 66,
      "noteName": "F#4",
      "velocity": 0.8818897637795275,
      "duration": "96i"
    },
    {
      "time": "136128i",
      "midiNote": 57,
      "noteName": "A3",
      "velocity": 0.8188976377952756,
      "duration": "96i"
    },
    {
      "time": "136128i",
      "midiNote": 62,
      "noteName": "D4",
      "velocity": 0.8188976377952756,
      "duration": "96i"
    },
    {
      "time": "136128i",
      "midiNote": 66,
      "noteName": "F#4",
      "velocity": 0.9448818897637795,
      "duration": "96i"
    },
    {
      "time": "136224i",
      "midiNote": 57,
      "noteName": "A3",
      "velocity": 0.8818897637795275,
      "duration": "96i"
    },
    {
      "time": "136224i",
      "midiNote": 62,
      "noteName": "D4",
      "velocity": 0.8818897637795275,
      "duration": "96i"
    },
    {
      "time": "136224i",
      "midiNote": 66,
      "noteName": "F#4",
      "velocity": 1,
      "duration": "96i"
    },
    {
      "time": "136416i",
      "midiNote": 57,
      "noteName": "A3",
      "velocity": 0.8818897637795275,
      "duration": "192i"
    },
    {
      "time": "136416i",
      "midiNote": 62,
      "noteName": "D4",
      "velocity": 0.8818897637795275,
      "duration": "192i"
    },
    {
      "time": "136416i",
      "midiNote": 66,
      "noteName": "F#4",
      "velocity": 1,
      "duration": "192i"
    },
    {
      "time": "136608i",
      "midiNote": 57,
      "noteName": "A3",
      "velocity": 0.8818897637795275,
      "duration": "96i"
    },
    {
      "time": "136608i",
      "midiNote": 62,
      "noteName": "D4",
      "velocity": 0.8818897637795275,
      "duration": "96i"
    },
    {
      "time": "136608i",
      "midiNote": 66,
      "noteName": "F#4",
      "velocity": 1,
      "duration": "96i"
    },
    {
      "time": "136704i",
      "midiNote": 57,
      "noteName": "A3",
      "velocity": 0.8818897637795275,
      "duration": "96i"
    },
    {
      "time": "136704i",
      "midiNote": 62,
      "noteName": "D4",
      "velocity": 0.8818897637795275,
      "duration": "96i"
    },
    {
      "time": "136704i",
      "midiNote": 66,
      "noteName": "F#4",
      "velocity": 1,
      "duration": "96i"
    },
    {
      "time": "136800i",
      "midiNote": 57,
      "noteName": "A3",
      "velocity": 0.7559055118110236,
      "duration": "96i"
    },
    {
      "time": "136800i",
      "midiNote": 62,
      "noteName": "D4",
      "velocity": 0.7559055118110236,
      "duration": "96i"
    },
    {
      "time": "136800i",
      "midiNote": 66,
      "noteName": "F#4",
      "velocity": 0.8818897637795275,
      "duration": "96i"
    },
    {
      "time": "136896i",
      "midiNote": 57,
      "noteName": "A3",
      "velocity": 0.8188976377952756,
      "duration": "96i"
    },
    {
      "time": "136896i",
      "midiNote": 62,
      "noteName": "D4",
      "velocity": 0.8188976377952756,
      "duration": "96i"
    },
    {
      "time": "136896i",
      "midiNote": 66,
      "noteName": "F#4",
      "velocity": 0.9448818897637795,
      "duration": "96i"
    },
    {
      "time": "136992i",
      "midiNote": 57,
      "noteName": "A3",
      "velocity": 0.8818897637795275,
      "duration": "96i"
    },
    {
      "time": "136992i",
      "midiNote": 62,
      "noteName": "D4",
      "velocity": 0.8818897637795275,
      "duration": "96i"
    },
    {
      "time": "136992i",
      "midiNote": 66,
      "noteName": "F#4",
      "velocity": 1,
      "duration": "96i"
    },
    {
      "time": "137184i",
      "midiNote": 57,
      "noteName": "A3",
      "velocity": 0.8818897637795275,
      "duration": "192i"
    },
    {
      "time": "137184i",
      "midiNote": 62,
      "noteName": "D4",
      "velocity": 0.8818897637795275,
      "duration": "192i"
    },
    {
      "time": "137184i",
      "midiNote": 66,
      "noteName": "F#4",
      "velocity": 1,
      "duration": "192i"
    },
    {
      "time": "137376i",
      "midiNote": 57,
      "noteName": "A3",
      "velocity": 0.8818897637795275,
      "duration": "96i"
    },
    {
      "time": "137376i",
      "midiNote": 62,
      "noteName": "D4",
      "velocity": 0.8818897637795275,
      "duration": "96i"
    },
    {
      "time": "137376i",
      "midiNote": 66,
      "noteName": "F#4",
      "velocity": 1,
      "duration": "96i"
    },
    {
      "time": "137472i",
      "midiNote": 50,
      "noteName": "D3",
      "velocity": 0.8818897637795275,
      "duration": "96i"
    },
    {
      "time": "137472i",
      "midiNote": 56,
      "noteName": "G#3",
      "velocity": 0.8818897637795275,
      "duration": "96i"
    },
    {
      "time": "137472i",
      "midiNote": 64,
      "noteName": "E4",
      "velocity": 1,
      "duration": "96i"
    },
    {
      "time": "137568i",
      "midiNote": 50,
      "noteName": "D3",
      "velocity": 0.7559055118110236,
      "duration": "96i"
    },
    {
      "time": "137568i",
      "midiNote": 56,
      "noteName": "G#3",
      "velocity": 0.7559055118110236,
      "duration": "96i"
    },
    {
      "time": "137568i",
      "midiNote": 64,
      "noteName": "E4",
      "velocity": 0.8818897637795275,
      "duration": "96i"
    },
    {
      "time": "137664i",
      "midiNote": 50,
      "noteName": "D3",
      "velocity": 0.8188976377952756,
      "duration": "96i"
    },
    {
      "time": "137664i",
      "midiNote": 56,
      "noteName": "G#3",
      "velocity": 0.8188976377952756,
      "duration": "96i"
    },
    {
      "time": "137664i",
      "midiNote": 64,
      "noteName": "E4",
      "velocity": 0.9448818897637795,
      "duration": "96i"
    },
    {
      "time": "137760i",
      "midiNote": 50,
      "noteName": "D3",
      "velocity": 0.8818897637795275,
      "duration": "96i"
    },
    {
      "time": "137760i",
      "midiNote": 56,
      "noteName": "G#3",
      "velocity": 0.8818897637795275,
      "duration": "96i"
    },
    {
      "time": "137760i",
      "midiNote": 64,
      "noteName": "E4",
      "velocity": 1,
      "duration": "96i"
    },
    {
      "time": "137952i",
      "midiNote": 50,
      "noteName": "D3",
      "velocity": 0.8818897637795275,
      "duration": "192i"
    },
    {
      "time": "137952i",
      "midiNote": 56,
      "noteName": "G#3",
      "velocity": 0.8818897637795275,
      "duration": "192i"
    },
    {
      "time": "137952i",
      "midiNote": 64,
      "noteName": "E4",
      "velocity": 1,
      "duration": "192i"
    },
    {
      "time": "138144i",
      "midiNote": 50,
      "noteName": "D3",
      "velocity": 0.8818897637795275,
      "duration": "96i"
    },
    {
      "time": "138144i",
      "midiNote": 56,
      "noteName": "G#3",
      "velocity": 0.8818897637795275,
      "duration": "96i"
    },
    {
      "time": "138144i",
      "midiNote": 64,
      "noteName": "E4",
      "velocity": 1,
      "duration": "96i"
    },
    {
      "time": "138240i",
      "midiNote": 50,
      "noteName": "D3",
      "velocity": 0.8818897637795275,
      "duration": "96i"
    },
    {
      "time": "138240i",
      "midiNote": 56,
      "noteName": "G#3",
      "velocity": 0.8818897637795275,
      "duration": "96i"
    },
    {
      "time": "138240i",
      "midiNote": 64,
      "noteName": "E4",
      "velocity": 1,
      "duration": "96i"
    },
    {
      "time": "138336i",
      "midiNote": 50,
      "noteName": "D3",
      "velocity": 0.7559055118110236,
      "duration": "96i"
    },
    {
      "time": "138336i",
      "midiNote": 56,
      "noteName": "G#3",
      "velocity": 0.7559055118110236,
      "duration": "96i"
    },
    {
      "time": "138336i",
      "midiNote": 64,
      "noteName": "E4",
      "velocity": 0.8818897637795275,
      "duration": "96i"
    },
    {
      "time": "138432i",
      "midiNote": 50,
      "noteName": "D3",
      "velocity": 0.8188976377952756,
      "duration": "96i"
    },
    {
      "time": "138432i",
      "midiNote": 56,
      "noteName": "G#3",
      "velocity": 0.8188976377952756,
      "duration": "96i"
    },
    {
      "time": "138432i",
      "midiNote": 64,
      "noteName": "E4",
      "velocity": 0.9448818897637795,
      "duration": "96i"
    },
    {
      "time": "138528i",
      "midiNote": 50,
      "noteName": "D3",
      "velocity": 0.8818897637795275,
      "duration": "96i"
    },
    {
      "time": "138528i",
      "midiNote": 56,
      "noteName": "G#3",
      "velocity": 0.8818897637795275,
      "duration": "96i"
    },
    {
      "time": "138528i",
      "midiNote": 64,
      "noteName": "E4",
      "velocity": 1,
      "duration": "96i"
    },
    {
      "time": "138720i",
      "midiNote": 50,
      "noteName": "D3",
      "velocity": 0.8818897637795275,
      "duration": "192i"
    },
    {
      "time": "138720i",
      "midiNote": 56,
      "noteName": "G#3",
      "velocity": 0.8818897637795275,
      "duration": "192i"
    },
    {
      "time": "138720i",
      "midiNote": 64,
      "noteName": "E4",
      "velocity": 1,
      "duration": "192i"
    },
    {
      "time": "138912i",
      "midiNote": 50,
      "noteName": "D3",
      "velocity": 0.8818897637795275,
      "duration": "96i"
    },
    {
      "time": "138912i",
      "midiNote": 56,
      "noteName": "G#3",
      "velocity": 0.8818897637795275,
      "duration": "96i"
    },
    {
      "time": "138912i",
      "midiNote": 64,
      "noteName": "E4",
      "velocity": 1,
      "duration": "96i"
    },
    {
      "time": "139008i",
      "midiNote": 59,
      "noteName": "B3",
      "velocity": 0.8818897637795275,
      "duration": "96i"
    },
    {
      "time": "139008i",
      "midiNote": 56,
      "noteName": "G#3",
      "velocity": 0.8818897637795275,
      "duration": "96i"
    },
    {
      "time": "139008i",
      "midiNote": 65,
      "noteName": "F4",
      "velocity": 1,
      "duration": "96i"
    },
    {
      "time": "139104i",
      "midiNote": 59,
      "noteName": "B3",
      "velocity": 0.7559055118110236,
      "duration": "96i"
    },
    {
      "time": "139104i",
      "midiNote": 56,
      "noteName": "G#3",
      "velocity": 0.7559055118110236,
      "duration": "96i"
    },
    {
      "time": "139104i",
      "midiNote": 65,
      "noteName": "F4",
      "velocity": 0.8818897637795275,
      "duration": "96i"
    },
    {
      "time": "139200i",
      "midiNote": 59,
      "noteName": "B3",
      "velocity": 0.8188976377952756,
      "duration": "96i"
    },
    {
      "time": "139200i",
      "midiNote": 56,
      "noteName": "G#3",
      "velocity": 0.8188976377952756,
      "duration": "96i"
    },
    {
      "time": "139200i",
      "midiNote": 65,
      "noteName": "F4",
      "velocity": 0.9448818897637795,
      "duration": "96i"
    },
    {
      "time": "139296i",
      "midiNote": 59,
      "noteName": "B3",
      "velocity": 0.8818897637795275,
      "duration": "96i"
    },
    {
      "time": "139296i",
      "midiNote": 56,
      "noteName": "G#3",
      "velocity": 0.8818897637795275,
      "duration": "96i"
    },
    {
      "time": "139296i",
      "midiNote": 65,
      "noteName": "F4",
      "velocity": 1,
      "duration": "96i"
    },
    {
      "time": "139488i",
      "midiNote": 59,
      "noteName": "B3",
      "velocity": 0.8818897637795275,
      "duration": "192i"
    },
    {
      "time": "139488i",
      "midiNote": 56,
      "noteName": "G#3",
      "velocity": 0.8818897637795275,
      "duration": "192i"
    },
    {
      "time": "139488i",
      "midiNote": 65,
      "noteName": "F4",
      "velocity": 1,
      "duration": "192i"
    },
    {
      "time": "139680i",
      "midiNote": 59,
      "noteName": "B3",
      "velocity": 0.8818897637795275,
      "duration": "96i"
    },
    {
      "time": "139680i",
      "midiNote": 56,
      "noteName": "G#3",
      "velocity": 0.8818897637795275,
      "duration": "96i"
    },
    {
      "time": "139680i",
      "midiNote": 65,
      "noteName": "F4",
      "velocity": 1,
      "duration": "96i"
    },
    {
      "time": "139776i",
      "midiNote": 59,
      "noteName": "B3",
      "velocity": 0.8818897637795275,
      "duration": "96i"
    },
    {
      "time": "139776i",
      "midiNote": 56,
      "noteName": "G#3",
      "velocity": 0.8818897637795275,
      "duration": "96i"
    },
    {
      "time": "139776i",
      "midiNote": 65,
      "noteName": "F4",
      "velocity": 1,
      "duration": "96i"
    },
    {
      "time": "139872i",
      "midiNote": 59,
      "noteName": "B3",
      "velocity": 0.7559055118110236,
      "duration": "96i"
    },
    {
      "time": "139872i",
      "midiNote": 56,
      "noteName": "G#3",
      "velocity": 0.7559055118110236,
      "duration": "96i"
    },
    {
      "time": "139872i",
      "midiNote": 65,
      "noteName": "F4",
      "velocity": 0.8818897637795275,
      "duration": "96i"
    },
    {
      "time": "139968i",
      "midiNote": 59,
      "noteName": "B3",
      "velocity": 0.8188976377952756,
      "duration": "96i"
    },
    {
      "time": "139968i",
      "midiNote": 56,
      "noteName": "G#3",
      "velocity": 0.8188976377952756,
      "duration": "96i"
    },
    {
      "time": "139968i",
      "midiNote": 65,
      "noteName": "F4",
      "velocity": 0.9448818897637795,
      "duration": "96i"
    },
    {
      "time": "140064i",
      "midiNote": 59,
      "noteName": "B3",
      "velocity": 0.8818897637795275,
      "duration": "96i"
    },
    {
      "time": "140064i",
      "midiNote": 56,
      "noteName": "G#3",
      "velocity": 0.8818897637795275,
      "duration": "96i"
    },
    {
      "time": "140064i",
      "midiNote": 65,
      "noteName": "F4",
      "velocity": 1,
      "duration": "96i"
    },
    {
      "time": "140256i",
      "midiNote": 59,
      "noteName": "B3",
      "velocity": 0.8818897637795275,
      "duration": "192i"
    },
    {
      "time": "140256i",
      "midiNote": 56,
      "noteName": "G#3",
      "velocity": 0.8818897637795275,
      "duration": "192i"
    },
    {
      "time": "140256i",
      "midiNote": 65,
      "noteName": "F4",
      "velocity": 1,
      "duration": "192i"
    },
    {
      "time": "140448i",
      "midiNote": 59,
      "noteName": "B3",
      "velocity": 0.8818897637795275,
      "duration": "96i"
    },
    {
      "time": "140448i",
      "midiNote": 56,
      "noteName": "G#3",
      "velocity": 0.8818897637795275,
      "duration": "96i"
    },
    {
      "time": "140448i",
      "midiNote": 65,
      "noteName": "F4",
      "velocity": 1,
      "duration": "96i"
    },
    {
      "time": "140544i",
      "midiNote": 57,
      "noteName": "A3",
      "velocity": 0.8818897637795275,
      "duration": "96i"
    },
    {
      "time": "140544i",
      "midiNote": 61,
      "noteName": "C#4",
      "velocity": 0.8818897637795275,
      "duration": "96i"
    },
    {
      "time": "140544i",
      "midiNote": 66,
      "noteName": "F#4",
      "velocity": 1,
      "duration": "96i"
    },
    {
      "time": "140640i",
      "midiNote": 57,
      "noteName": "A3",
      "velocity": 0.7559055118110236,
      "duration": "96i"
    },
    {
      "time": "140640i",
      "midiNote": 61,
      "noteName": "C#4",
      "velocity": 0.7559055118110236,
      "duration": "96i"
    },
    {
      "time": "140640i",
      "midiNote": 66,
      "noteName": "F#4",
      "velocity": 0.8818897637795275,
      "duration": "96i"
    },
    {
      "time": "140736i",
      "midiNote": 57,
      "noteName": "A3",
      "velocity": 0.8188976377952756,
      "duration": "96i"
    },
    {
      "time": "140736i",
      "midiNote": 61,
      "noteName": "C#4",
      "velocity": 0.8188976377952756,
      "duration": "96i"
    },
    {
      "time": "140736i",
      "midiNote": 66,
      "noteName": "F#4",
      "velocity": 0.9448818897637795,
      "duration": "96i"
    },
    {
      "time": "140832i",
      "midiNote": 57,
      "noteName": "A3",
      "velocity": 0.8818897637795275,
      "duration": "96i"
    },
    {
      "time": "140832i",
      "midiNote": 61,
      "noteName": "C#4",
      "velocity": 0.8818897637795275,
      "duration": "96i"
    },
    {
      "time": "140832i",
      "midiNote": 66,
      "noteName": "F#4",
      "velocity": 1,
      "duration": "96i"
    },
    {
      "time": "141024i",
      "midiNote": 57,
      "noteName": "A3",
      "velocity": 0.8818897637795275,
      "duration": "192i"
    },
    {
      "time": "141024i",
      "midiNote": 61,
      "noteName": "C#4",
      "velocity": 0.8818897637795275,
      "duration": "192i"
    },
    {
      "time": "141024i",
      "midiNote": 66,
      "noteName": "F#4",
      "velocity": 1,
      "duration": "192i"
    },
    {
      "time": "141216i",
      "midiNote": 57,
      "noteName": "A3",
      "velocity": 0.8818897637795275,
      "duration": "96i"
    },
    {
      "time": "141216i",
      "midiNote": 61,
      "noteName": "C#4",
      "velocity": 0.8818897637795275,
      "duration": "96i"
    },
    {
      "time": "141216i",
      "midiNote": 66,
      "noteName": "F#4",
      "velocity": 1,
      "duration": "96i"
    },
    {
      "time": "141312i",
      "midiNote": 57,
      "noteName": "A3",
      "velocity": 0.8818897637795275,
      "duration": "96i"
    },
    {
      "time": "141312i",
      "midiNote": 61,
      "noteName": "C#4",
      "velocity": 0.8818897637795275,
      "duration": "96i"
    },
    {
      "time": "141312i",
      "midiNote": 66,
      "noteName": "F#4",
      "velocity": 1,
      "duration": "96i"
    },
    {
      "time": "141408i",
      "midiNote": 57,
      "noteName": "A3",
      "velocity": 0.7559055118110236,
      "duration": "96i"
    },
    {
      "time": "141408i",
      "midiNote": 61,
      "noteName": "C#4",
      "velocity": 0.7559055118110236,
      "duration": "96i"
    },
    {
      "time": "141408i",
      "midiNote": 66,
      "noteName": "F#4",
      "velocity": 0.8818897637795275,
      "duration": "96i"
    },
    {
      "time": "141504i",
      "midiNote": 57,
      "noteName": "A3",
      "velocity": 0.8188976377952756,
      "duration": "96i"
    },
    {
      "time": "141504i",
      "midiNote": 61,
      "noteName": "C#4",
      "velocity": 0.8188976377952756,
      "duration": "96i"
    },
    {
      "time": "141504i",
      "midiNote": 66,
      "noteName": "F#4",
      "velocity": 0.9448818897637795,
      "duration": "96i"
    },
    {
      "time": "141600i",
      "midiNote": 57,
      "noteName": "A3",
      "velocity": 0.8818897637795275,
      "duration": "96i"
    },
    {
      "time": "141600i",
      "midiNote": 61,
      "noteName": "C#4",
      "velocity": 0.8818897637795275,
      "duration": "96i"
    },
    {
      "time": "141600i",
      "midiNote": 66,
      "noteName": "F#4",
      "velocity": 1,
      "duration": "96i"
    },
    {
      "time": "141792i",
      "midiNote": 57,
      "noteName": "A3",
      "velocity": 0.8818897637795275,
      "duration": "192i"
    },
    {
      "time": "141792i",
      "midiNote": 61,
      "noteName": "C#4",
      "velocity": 0.8818897637795275,
      "duration": "192i"
    },
    {
      "time": "141792i",
      "midiNote": 66,
      "noteName": "F#4",
      "velocity": 1,
      "duration": "192i"
    },
    {
      "time": "141984i",
      "midiNote": 57,
      "noteName": "A3",
      "velocity": 0.8818897637795275,
      "duration": "96i"
    },
    {
      "time": "141984i",
      "midiNote": 61,
      "noteName": "C#4",
      "velocity": 0.8818897637795275,
      "duration": "96i"
    },
    {
      "time": "141984i",
      "midiNote": 66,
      "noteName": "F#4",
      "velocity": 1,
      "duration": "192i"
    },
    {
      "time": "142080i",
      "midiNote": 57,
      "noteName": "A3",
      "velocity": 0.8818897637795275,
      "duration": "96i"
    },
    {
      "time": "142080i",
      "midiNote": 62,
      "noteName": "D4",
      "velocity": 0.8818897637795275,
      "duration": "96i"
    },
    {
      "time": "142080i",
      "midiNote": 66,
      "noteName": "F#4",
      "velocity": 1,
      "duration": "0i"
    },
    {
      "time": "142176i",
      "midiNote": 57,
      "noteName": "A3",
      "velocity": 0.7559055118110236,
      "duration": "96i"
    },
    {
      "time": "142176i",
      "midiNote": 62,
      "noteName": "D4",
      "velocity": 0.7559055118110236,
      "duration": "96i"
    },
    {
      "time": "142176i",
      "midiNote": 66,
      "noteName": "F#4",
      "velocity": 0.8818897637795275,
      "duration": "96i"
    },
    {
      "time": "142272i",
      "midiNote": 57,
      "noteName": "A3",
      "velocity": 0.8188976377952756,
      "duration": "96i"
    },
    {
      "time": "142272i",
      "midiNote": 62,
      "noteName": "D4",
      "velocity": 0.8188976377952756,
      "duration": "96i"
    },
    {
      "time": "142272i",
      "midiNote": 66,
      "noteName": "F#4",
      "velocity": 0.9448818897637795,
      "duration": "96i"
    },
    {
      "time": "142368i",
      "midiNote": 57,
      "noteName": "A3",
      "velocity": 0.8818897637795275,
      "duration": "96i"
    },
    {
      "time": "142368i",
      "midiNote": 62,
      "noteName": "D4",
      "velocity": 0.8818897637795275,
      "duration": "96i"
    },
    {
      "time": "142368i",
      "midiNote": 66,
      "noteName": "F#4",
      "velocity": 1,
      "duration": "96i"
    },
    {
      "time": "142560i",
      "midiNote": 57,
      "noteName": "A3",
      "velocity": 0.8818897637795275,
      "duration": "192i"
    },
    {
      "time": "142560i",
      "midiNote": 62,
      "noteName": "D4",
      "velocity": 0.8818897637795275,
      "duration": "192i"
    },
    {
      "time": "142560i",
      "midiNote": 66,
      "noteName": "F#4",
      "velocity": 1,
      "duration": "192i"
    },
    {
      "time": "142752i",
      "midiNote": 57,
      "noteName": "A3",
      "velocity": 0.8818897637795275,
      "duration": "96i"
    },
    {
      "time": "142752i",
      "midiNote": 62,
      "noteName": "D4",
      "velocity": 0.8818897637795275,
      "duration": "96i"
    },
    {
      "time": "142752i",
      "midiNote": 66,
      "noteName": "F#4",
      "velocity": 1,
      "duration": "96i"
    },
    {
      "time": "142848i",
      "midiNote": 57,
      "noteName": "A3",
      "velocity": 0.8818897637795275,
      "duration": "96i"
    },
    {
      "time": "142848i",
      "midiNote": 62,
      "noteName": "D4",
      "velocity": 0.8818897637795275,
      "duration": "96i"
    },
    {
      "time": "142848i",
      "midiNote": 66,
      "noteName": "F#4",
      "velocity": 1,
      "duration": "96i"
    },
    {
      "time": "142944i",
      "midiNote": 57,
      "noteName": "A3",
      "velocity": 0.7559055118110236,
      "duration": "96i"
    },
    {
      "time": "142944i",
      "midiNote": 62,
      "noteName": "D4",
      "velocity": 0.7559055118110236,
      "duration": "96i"
    },
    {
      "time": "142944i",
      "midiNote": 66,
      "noteName": "F#4",
      "velocity": 0.8818897637795275,
      "duration": "96i"
    },
    {
      "time": "143040i",
      "midiNote": 57,
      "noteName": "A3",
      "velocity": 0.8188976377952756,
      "duration": "96i"
    },
    {
      "time": "143040i",
      "midiNote": 62,
      "noteName": "D4",
      "velocity": 0.8188976377952756,
      "duration": "96i"
    },
    {
      "time": "143040i",
      "midiNote": 66,
      "noteName": "F#4",
      "velocity": 0.9448818897637795,
      "duration": "96i"
    },
    {
      "time": "143136i",
      "midiNote": 57,
      "noteName": "A3",
      "velocity": 0.8818897637795275,
      "duration": "96i"
    },
    {
      "time": "143136i",
      "midiNote": 62,
      "noteName": "D4",
      "velocity": 0.8818897637795275,
      "duration": "96i"
    },
    {
      "time": "143136i",
      "midiNote": 66,
      "noteName": "F#4",
      "velocity": 1,
      "duration": "96i"
    },
    {
      "time": "143328i",
      "midiNote": 57,
      "noteName": "A3",
      "velocity": 0.8818897637795275,
      "duration": "192i"
    },
    {
      "time": "143328i",
      "midiNote": 62,
      "noteName": "D4",
      "velocity": 0.8818897637795275,
      "duration": "192i"
    },
    {
      "time": "143328i",
      "midiNote": 66,
      "noteName": "F#4",
      "velocity": 1,
      "duration": "192i"
    },
    {
      "time": "143520i",
      "midiNote": 57,
      "noteName": "A3",
      "velocity": 0.8818897637795275,
      "duration": "96i"
    },
    {
      "time": "143520i",
      "midiNote": 62,
      "noteName": "D4",
      "velocity": 0.8818897637795275,
      "duration": "96i"
    },
    {
      "time": "143520i",
      "midiNote": 66,
      "noteName": "F#4",
      "velocity": 1,
      "duration": "96i"
    },
    {
      "time": "143616i",
      "midiNote": 50,
      "noteName": "D3",
      "velocity": 0.8818897637795275,
      "duration": "96i"
    },
    {
      "time": "143616i",
      "midiNote": 56,
      "noteName": "G#3",
      "velocity": 0.8818897637795275,
      "duration": "96i"
    },
    {
      "time": "143616i",
      "midiNote": 64,
      "noteName": "E4",
      "velocity": 1,
      "duration": "96i"
    },
    {
      "time": "143712i",
      "midiNote": 50,
      "noteName": "D3",
      "velocity": 0.7559055118110236,
      "duration": "96i"
    },
    {
      "time": "143712i",
      "midiNote": 56,
      "noteName": "G#3",
      "velocity": 0.7559055118110236,
      "duration": "96i"
    },
    {
      "time": "143712i",
      "midiNote": 64,
      "noteName": "E4",
      "velocity": 0.8818897637795275,
      "duration": "96i"
    },
    {
      "time": "143808i",
      "midiNote": 50,
      "noteName": "D3",
      "velocity": 0.8188976377952756,
      "duration": "96i"
    },
    {
      "time": "143808i",
      "midiNote": 56,
      "noteName": "G#3",
      "velocity": 0.8188976377952756,
      "duration": "96i"
    },
    {
      "time": "143808i",
      "midiNote": 64,
      "noteName": "E4",
      "velocity": 0.9448818897637795,
      "duration": "96i"
    },
    {
      "time": "143904i",
      "midiNote": 50,
      "noteName": "D3",
      "velocity": 0.8818897637795275,
      "duration": "96i"
    },
    {
      "time": "143904i",
      "midiNote": 56,
      "noteName": "G#3",
      "velocity": 0.8818897637795275,
      "duration": "96i"
    },
    {
      "time": "143904i",
      "midiNote": 64,
      "noteName": "E4",
      "velocity": 1,
      "duration": "96i"
    },
    {
      "time": "144096i",
      "midiNote": 50,
      "noteName": "D3",
      "velocity": 0.8818897637795275,
      "duration": "192i"
    },
    {
      "time": "144096i",
      "midiNote": 56,
      "noteName": "G#3",
      "velocity": 0.8818897637795275,
      "duration": "192i"
    },
    {
      "time": "144096i",
      "midiNote": 64,
      "noteName": "E4",
      "velocity": 1,
      "duration": "192i"
    },
    {
      "time": "144288i",
      "midiNote": 50,
      "noteName": "D3",
      "velocity": 0.8818897637795275,
      "duration": "96i"
    },
    {
      "time": "144288i",
      "midiNote": 56,
      "noteName": "G#3",
      "velocity": 0.8818897637795275,
      "duration": "96i"
    },
    {
      "time": "144288i",
      "midiNote": 64,
      "noteName": "E4",
      "velocity": 1,
      "duration": "96i"
    },
    {
      "time": "144384i",
      "midiNote": 50,
      "noteName": "D3",
      "velocity": 0.8818897637795275,
      "duration": "96i"
    },
    {
      "time": "144384i",
      "midiNote": 56,
      "noteName": "G#3",
      "velocity": 0.8818897637795275,
      "duration": "96i"
    },
    {
      "time": "144384i",
      "midiNote": 64,
      "noteName": "E4",
      "velocity": 1,
      "duration": "96i"
    },
    {
      "time": "144480i",
      "midiNote": 50,
      "noteName": "D3",
      "velocity": 0.7559055118110236,
      "duration": "96i"
    },
    {
      "time": "144480i",
      "midiNote": 56,
      "noteName": "G#3",
      "velocity": 0.7559055118110236,
      "duration": "96i"
    },
    {
      "time": "144480i",
      "midiNote": 64,
      "noteName": "E4",
      "velocity": 0.8818897637795275,
      "duration": "96i"
    },
    {
      "time": "144576i",
      "midiNote": 50,
      "noteName": "D3",
      "velocity": 0.8188976377952756,
      "duration": "96i"
    },
    {
      "time": "144576i",
      "midiNote": 56,
      "noteName": "G#3",
      "velocity": 0.8188976377952756,
      "duration": "96i"
    },
    {
      "time": "144576i",
      "midiNote": 64,
      "noteName": "E4",
      "velocity": 0.9448818897637795,
      "duration": "96i"
    },
    {
      "time": "144672i",
      "midiNote": 50,
      "noteName": "D3",
      "velocity": 0.8818897637795275,
      "duration": "96i"
    },
    {
      "time": "144672i",
      "midiNote": 56,
      "noteName": "G#3",
      "velocity": 0.8818897637795275,
      "duration": "96i"
    },
    {
      "time": "144672i",
      "midiNote": 64,
      "noteName": "E4",
      "velocity": 1,
      "duration": "96i"
    },
    {
      "time": "144864i",
      "midiNote": 50,
      "noteName": "D3",
      "velocity": 0.8818897637795275,
      "duration": "192i"
    },
    {
      "time": "144864i",
      "midiNote": 56,
      "noteName": "G#3",
      "velocity": 0.8818897637795275,
      "duration": "192i"
    },
    {
      "time": "144864i",
      "midiNote": 64,
      "noteName": "E4",
      "velocity": 1,
      "duration": "192i"
    },
    {
      "time": "145056i",
      "midiNote": 50,
      "noteName": "D3",
      "velocity": 0.8818897637795275,
      "duration": "96i"
    },
    {
      "time": "145056i",
      "midiNote": 56,
      "noteName": "G#3",
      "velocity": 0.8818897637795275,
      "duration": "96i"
    },
    {
      "time": "145056i",
      "midiNote": 64,
      "noteName": "E4",
      "velocity": 1,
      "duration": "96i"
    },
    {
      "time": "145152i",
      "midiNote": 59,
      "noteName": "B3",
      "velocity": 0.8818897637795275,
      "duration": "96i"
    },
    {
      "time": "145152i",
      "midiNote": 56,
      "noteName": "G#3",
      "velocity": 0.8818897637795275,
      "duration": "96i"
    },
    {
      "time": "145152i",
      "midiNote": 65,
      "noteName": "F4",
      "velocity": 1,
      "duration": "96i"
    },
    {
      "time": "145248i",
      "midiNote": 59,
      "noteName": "B3",
      "velocity": 0.7559055118110236,
      "duration": "96i"
    },
    {
      "time": "145248i",
      "midiNote": 56,
      "noteName": "G#3",
      "velocity": 0.7559055118110236,
      "duration": "96i"
    },
    {
      "time": "145248i",
      "midiNote": 65,
      "noteName": "F4",
      "velocity": 0.8818897637795275,
      "duration": "96i"
    },
    {
      "time": "145344i",
      "midiNote": 59,
      "noteName": "B3",
      "velocity": 0.8188976377952756,
      "duration": "96i"
    },
    {
      "time": "145344i",
      "midiNote": 56,
      "noteName": "G#3",
      "velocity": 0.8188976377952756,
      "duration": "96i"
    },
    {
      "time": "145344i",
      "midiNote": 65,
      "noteName": "F4",
      "velocity": 0.9448818897637795,
      "duration": "96i"
    },
    {
      "time": "145440i",
      "midiNote": 59,
      "noteName": "B3",
      "velocity": 0.8818897637795275,
      "duration": "96i"
    },
    {
      "time": "145440i",
      "midiNote": 56,
      "noteName": "G#3",
      "velocity": 0.8818897637795275,
      "duration": "96i"
    },
    {
      "time": "145440i",
      "midiNote": 65,
      "noteName": "F4",
      "velocity": 1,
      "duration": "96i"
    },
    {
      "time": "145632i",
      "midiNote": 59,
      "noteName": "B3",
      "velocity": 0.8818897637795275,
      "duration": "192i"
    },
    {
      "time": "145632i",
      "midiNote": 56,
      "noteName": "G#3",
      "velocity": 0.8818897637795275,
      "duration": "192i"
    },
    {
      "time": "145632i",
      "midiNote": 65,
      "noteName": "F4",
      "velocity": 1,
      "duration": "192i"
    },
    {
      "time": "145824i",
      "midiNote": 59,
      "noteName": "B3",
      "velocity": 0.8818897637795275,
      "duration": "96i"
    },
    {
      "time": "145824i",
      "midiNote": 56,
      "noteName": "G#3",
      "velocity": 0.8818897637795275,
      "duration": "96i"
    },
    {
      "time": "145824i",
      "midiNote": 65,
      "noteName": "F4",
      "velocity": 1,
      "duration": "96i"
    },
    {
      "time": "145920i",
      "midiNote": 59,
      "noteName": "B3",
      "velocity": 0.8818897637795275,
      "duration": "96i"
    },
    {
      "time": "145920i",
      "midiNote": 56,
      "noteName": "G#3",
      "velocity": 0.8818897637795275,
      "duration": "96i"
    },
    {
      "time": "145920i",
      "midiNote": 65,
      "noteName": "F4",
      "velocity": 1,
      "duration": "96i"
    },
    {
      "time": "146016i",
      "midiNote": 59,
      "noteName": "B3",
      "velocity": 0.7559055118110236,
      "duration": "96i"
    },
    {
      "time": "146016i",
      "midiNote": 56,
      "noteName": "G#3",
      "velocity": 0.7559055118110236,
      "duration": "96i"
    },
    {
      "time": "146016i",
      "midiNote": 65,
      "noteName": "F4",
      "velocity": 0.8818897637795275,
      "duration": "96i"
    },
    {
      "time": "146112i",
      "midiNote": 59,
      "noteName": "B3",
      "velocity": 0.8188976377952756,
      "duration": "96i"
    },
    {
      "time": "146112i",
      "midiNote": 56,
      "noteName": "G#3",
      "velocity": 0.8188976377952756,
      "duration": "96i"
    },
    {
      "time": "146112i",
      "midiNote": 65,
      "noteName": "F4",
      "velocity": 0.9448818897637795,
      "duration": "96i"
    },
    {
      "time": "146208i",
      "midiNote": 59,
      "noteName": "B3",
      "velocity": 0.8818897637795275,
      "duration": "96i"
    },
    {
      "time": "146208i",
      "midiNote": 56,
      "noteName": "G#3",
      "velocity": 0.8818897637795275,
      "duration": "96i"
    },
    {
      "time": "146208i",
      "midiNote": 65,
      "noteName": "F4",
      "velocity": 1,
      "duration": "96i"
    },
    {
      "time": "146400i",
      "midiNote": 59,
      "noteName": "B3",
      "velocity": 0.8818897637795275,
      "duration": "192i"
    },
    {
      "time": "146400i",
      "midiNote": 56,
      "noteName": "G#3",
      "velocity": 0.8818897637795275,
      "duration": "192i"
    },
    {
      "time": "146400i",
      "midiNote": 65,
      "noteName": "F4",
      "velocity": 1,
      "duration": "192i"
    },
    {
      "time": "146592i",
      "midiNote": 59,
      "noteName": "B3",
      "velocity": 0.8818897637795275,
      "duration": "96i"
    },
    {
      "time": "146592i",
      "midiNote": 56,
      "noteName": "G#3",
      "velocity": 0.8818897637795275,
      "duration": "96i"
    },
    {
      "time": "146592i",
      "midiNote": 65,
      "noteName": "F4",
      "velocity": 1,
      "duration": "96i"
    },
    {
      "time": "146688i",
      "midiNote": 57,
      "noteName": "A3",
      "velocity": 0.8818897637795275,
      "duration": "96i"
    },
    {
      "time": "146688i",
      "midiNote": 61,
      "noteName": "C#4",
      "velocity": 0.8818897637795275,
      "duration": "96i"
    },
    {
      "time": "146688i",
      "midiNote": 66,
      "noteName": "F#4",
      "velocity": 1,
      "duration": "96i"
    },
    {
      "time": "146784i",
      "midiNote": 57,
      "noteName": "A3",
      "velocity": 0.7559055118110236,
      "duration": "96i"
    },
    {
      "time": "146784i",
      "midiNote": 61,
      "noteName": "C#4",
      "velocity": 0.7559055118110236,
      "duration": "96i"
    },
    {
      "time": "146784i",
      "midiNote": 66,
      "noteName": "F#4",
      "velocity": 0.8818897637795275,
      "duration": "96i"
    },
    {
      "time": "146880i",
      "midiNote": 57,
      "noteName": "A3",
      "velocity": 0.8188976377952756,
      "duration": "96i"
    },
    {
      "time": "146880i",
      "midiNote": 61,
      "noteName": "C#4",
      "velocity": 0.8188976377952756,
      "duration": "96i"
    },
    {
      "time": "146880i",
      "midiNote": 66,
      "noteName": "F#4",
      "velocity": 0.9448818897637795,
      "duration": "96i"
    },
    {
      "time": "146976i",
      "midiNote": 57,
      "noteName": "A3",
      "velocity": 0.8818897637795275,
      "duration": "96i"
    },
    {
      "time": "146976i",
      "midiNote": 61,
      "noteName": "C#4",
      "velocity": 0.8818897637795275,
      "duration": "96i"
    },
    {
      "time": "146976i",
      "midiNote": 66,
      "noteName": "F#4",
      "velocity": 1,
      "duration": "96i"
    },
    {
      "time": "147168i",
      "midiNote": 57,
      "noteName": "A3",
      "velocity": 0.8818897637795275,
      "duration": "192i"
    },
    {
      "time": "147168i",
      "midiNote": 61,
      "noteName": "C#4",
      "velocity": 0.8818897637795275,
      "duration": "192i"
    },
    {
      "time": "147168i",
      "midiNote": 66,
      "noteName": "F#4",
      "velocity": 1,
      "duration": "192i"
    },
    {
      "time": "147360i",
      "midiNote": 57,
      "noteName": "A3",
      "velocity": 0.8818897637795275,
      "duration": "96i"
    },
    {
      "time": "147360i",
      "midiNote": 61,
      "noteName": "C#4",
      "velocity": 0.8818897637795275,
      "duration": "96i"
    },
    {
      "time": "147360i",
      "midiNote": 66,
      "noteName": "F#4",
      "velocity": 1,
      "duration": "96i"
    },
    {
      "time": "147456i",
      "midiNote": 57,
      "noteName": "A3",
      "velocity": 0.8818897637795275,
      "duration": "96i"
    },
    {
      "time": "147456i",
      "midiNote": 61,
      "noteName": "C#4",
      "velocity": 0.8818897637795275,
      "duration": "96i"
    },
    {
      "time": "147456i",
      "midiNote": 66,
      "noteName": "F#4",
      "velocity": 1,
      "duration": "96i"
    },
    {
      "time": "147552i",
      "midiNote": 57,
      "noteName": "A3",
      "velocity": 0.7559055118110236,
      "duration": "96i"
    },
    {
      "time": "147552i",
      "midiNote": 61,
      "noteName": "C#4",
      "velocity": 0.7559055118110236,
      "duration": "96i"
    },
    {
      "time": "147552i",
      "midiNote": 66,
      "noteName": "F#4",
      "velocity": 0.8818897637795275,
      "duration": "96i"
    },
    {
      "time": "147648i",
      "midiNote": 57,
      "noteName": "A3",
      "velocity": 0.8188976377952756,
      "duration": "96i"
    },
    {
      "time": "147648i",
      "midiNote": 61,
      "noteName": "C#4",
      "velocity": 0.8188976377952756,
      "duration": "96i"
    },
    {
      "time": "147648i",
      "midiNote": 66,
      "noteName": "F#4",
      "velocity": 0.9448818897637795,
      "duration": "96i"
    },
    {
      "time": "147744i",
      "midiNote": 57,
      "noteName": "A3",
      "velocity": 0.8818897637795275,
      "duration": "96i"
    },
    {
      "time": "147744i",
      "midiNote": 61,
      "noteName": "C#4",
      "velocity": 0.8818897637795275,
      "duration": "96i"
    },
    {
      "time": "147744i",
      "midiNote": 66,
      "noteName": "F#4",
      "velocity": 1,
      "duration": "96i"
    },
    {
      "time": "147936i",
      "midiNote": 57,
      "noteName": "A3",
      "velocity": 0.8818897637795275,
      "duration": "192i"
    },
    {
      "time": "147936i",
      "midiNote": 61,
      "noteName": "C#4",
      "velocity": 0.8818897637795275,
      "duration": "192i"
    },
    {
      "time": "147936i",
      "midiNote": 66,
      "noteName": "F#4",
      "velocity": 1,
      "duration": "192i"
    },
    {
      "time": "148128i",
      "midiNote": 57,
      "noteName": "A3",
      "velocity": 0.8818897637795275,
      "duration": "96i"
    },
    {
      "time": "148128i",
      "midiNote": 61,
      "noteName": "C#4",
      "velocity": 0.8818897637795275,
      "duration": "96i"
    },
    {
      "time": "148128i",
      "midiNote": 66,
      "noteName": "F#4",
      "velocity": 1,
      "duration": "192i"
    },
    {
      "time": "148224i",
      "midiNote": 57,
      "noteName": "A3",
      "velocity": 0.8818897637795275,
      "duration": "96i"
    },
    {
      "time": "148224i",
      "midiNote": 62,
      "noteName": "D4",
      "velocity": 0.8818897637795275,
      "duration": "96i"
    },
    {
      "time": "148224i",
      "midiNote": 66,
      "noteName": "F#4",
      "velocity": 1,
      "duration": "0i"
    },
    {
      "time": "148320i",
      "midiNote": 57,
      "noteName": "A3",
      "velocity": 0.7559055118110236,
      "duration": "96i"
    },
    {
      "time": "148320i",
      "midiNote": 62,
      "noteName": "D4",
      "velocity": 0.7559055118110236,
      "duration": "96i"
    },
    {
      "time": "148320i",
      "midiNote": 66,
      "noteName": "F#4",
      "velocity": 0.8818897637795275,
      "duration": "96i"
    },
    {
      "time": "148416i",
      "midiNote": 57,
      "noteName": "A3",
      "velocity": 0.8188976377952756,
      "duration": "96i"
    },
    {
      "time": "148416i",
      "midiNote": 62,
      "noteName": "D4",
      "velocity": 0.8188976377952756,
      "duration": "96i"
    },
    {
      "time": "148416i",
      "midiNote": 66,
      "noteName": "F#4",
      "velocity": 0.9448818897637795,
      "duration": "96i"
    },
    {
      "time": "148512i",
      "midiNote": 57,
      "noteName": "A3",
      "velocity": 0.8818897637795275,
      "duration": "96i"
    },
    {
      "time": "148512i",
      "midiNote": 62,
      "noteName": "D4",
      "velocity": 0.8818897637795275,
      "duration": "96i"
    },
    {
      "time": "148512i",
      "midiNote": 66,
      "noteName": "F#4",
      "velocity": 1,
      "duration": "96i"
    },
    {
      "time": "148704i",
      "midiNote": 57,
      "noteName": "A3",
      "velocity": 0.8818897637795275,
      "duration": "192i"
    },
    {
      "time": "148704i",
      "midiNote": 62,
      "noteName": "D4",
      "velocity": 0.8818897637795275,
      "duration": "192i"
    },
    {
      "time": "148704i",
      "midiNote": 66,
      "noteName": "F#4",
      "velocity": 1,
      "duration": "192i"
    },
    {
      "time": "148896i",
      "midiNote": 57,
      "noteName": "A3",
      "velocity": 0.8818897637795275,
      "duration": "96i"
    },
    {
      "time": "148896i",
      "midiNote": 62,
      "noteName": "D4",
      "velocity": 0.8818897637795275,
      "duration": "96i"
    },
    {
      "time": "148896i",
      "midiNote": 66,
      "noteName": "F#4",
      "velocity": 1,
      "duration": "96i"
    },
    {
      "time": "148992i",
      "midiNote": 57,
      "noteName": "A3",
      "velocity": 0.8818897637795275,
      "duration": "96i"
    },
    {
      "time": "148992i",
      "midiNote": 62,
      "noteName": "D4",
      "velocity": 0.8818897637795275,
      "duration": "96i"
    },
    {
      "time": "148992i",
      "midiNote": 66,
      "noteName": "F#4",
      "velocity": 1,
      "duration": "96i"
    },
    {
      "time": "149088i",
      "midiNote": 57,
      "noteName": "A3",
      "velocity": 0.7559055118110236,
      "duration": "96i"
    },
    {
      "time": "149088i",
      "midiNote": 62,
      "noteName": "D4",
      "velocity": 0.7559055118110236,
      "duration": "96i"
    },
    {
      "time": "149088i",
      "midiNote": 66,
      "noteName": "F#4",
      "velocity": 0.8818897637795275,
      "duration": "96i"
    },
    {
      "time": "149184i",
      "midiNote": 57,
      "noteName": "A3",
      "velocity": 0.8188976377952756,
      "duration": "96i"
    },
    {
      "time": "149184i",
      "midiNote": 62,
      "noteName": "D4",
      "velocity": 0.8188976377952756,
      "duration": "96i"
    },
    {
      "time": "149184i",
      "midiNote": 66,
      "noteName": "F#4",
      "velocity": 0.9448818897637795,
      "duration": "96i"
    },
    {
      "time": "149280i",
      "midiNote": 57,
      "noteName": "A3",
      "velocity": 0.8818897637795275,
      "duration": "96i"
    },
    {
      "time": "149280i",
      "midiNote": 62,
      "noteName": "D4",
      "velocity": 0.8818897637795275,
      "duration": "96i"
    },
    {
      "time": "149280i",
      "midiNote": 66,
      "noteName": "F#4",
      "velocity": 1,
      "duration": "96i"
    },
    {
      "time": "149472i",
      "midiNote": 57,
      "noteName": "A3",
      "velocity": 0.8818897637795275,
      "duration": "192i"
    },
    {
      "time": "149472i",
      "midiNote": 62,
      "noteName": "D4",
      "velocity": 0.8818897637795275,
      "duration": "192i"
    },
    {
      "time": "149472i",
      "midiNote": 66,
      "noteName": "F#4",
      "velocity": 1,
      "duration": "192i"
    },
    {
      "time": "149664i",
      "midiNote": 57,
      "noteName": "A3",
      "velocity": 0.8818897637795275,
      "duration": "96i"
    },
    {
      "time": "149664i",
      "midiNote": 62,
      "noteName": "D4",
      "velocity": 0.8818897637795275,
      "duration": "96i"
    },
    {
      "time": "149664i",
      "midiNote": 66,
      "noteName": "F#4",
      "velocity": 1,
      "duration": "96i"
    },
    {
      "time": "149760i",
      "midiNote": 50,
      "noteName": "D3",
      "velocity": 0.8818897637795275,
      "duration": "96i"
    },
    {
      "time": "149760i",
      "midiNote": 56,
      "noteName": "G#3",
      "velocity": 0.8818897637795275,
      "duration": "96i"
    },
    {
      "time": "149760i",
      "midiNote": 64,
      "noteName": "E4",
      "velocity": 1,
      "duration": "96i"
    },
    {
      "time": "149856i",
      "midiNote": 50,
      "noteName": "D3",
      "velocity": 0.7559055118110236,
      "duration": "96i"
    },
    {
      "time": "149856i",
      "midiNote": 56,
      "noteName": "G#3",
      "velocity": 0.7559055118110236,
      "duration": "96i"
    },
    {
      "time": "149856i",
      "midiNote": 64,
      "noteName": "E4",
      "velocity": 0.8818897637795275,
      "duration": "96i"
    },
    {
      "time": "149952i",
      "midiNote": 50,
      "noteName": "D3",
      "velocity": 0.8188976377952756,
      "duration": "96i"
    },
    {
      "time": "149952i",
      "midiNote": 56,
      "noteName": "G#3",
      "velocity": 0.8188976377952756,
      "duration": "96i"
    },
    {
      "time": "149952i",
      "midiNote": 64,
      "noteName": "E4",
      "velocity": 0.9448818897637795,
      "duration": "96i"
    },
    {
      "time": "150048i",
      "midiNote": 50,
      "noteName": "D3",
      "velocity": 0.8818897637795275,
      "duration": "96i"
    },
    {
      "time": "150048i",
      "midiNote": 56,
      "noteName": "G#3",
      "velocity": 0.8818897637795275,
      "duration": "96i"
    },
    {
      "time": "150048i",
      "midiNote": 64,
      "noteName": "E4",
      "velocity": 1,
      "duration": "96i"
    },
    {
      "time": "150240i",
      "midiNote": 50,
      "noteName": "D3",
      "velocity": 0.8818897637795275,
      "duration": "192i"
    },
    {
      "time": "150240i",
      "midiNote": 56,
      "noteName": "G#3",
      "velocity": 0.8818897637795275,
      "duration": "192i"
    },
    {
      "time": "150240i",
      "midiNote": 64,
      "noteName": "E4",
      "velocity": 1,
      "duration": "192i"
    },
    {
      "time": "150432i",
      "midiNote": 50,
      "noteName": "D3",
      "velocity": 0.8818897637795275,
      "duration": "96i"
    },
    {
      "time": "150432i",
      "midiNote": 56,
      "noteName": "G#3",
      "velocity": 0.8818897637795275,
      "duration": "96i"
    },
    {
      "time": "150432i",
      "midiNote": 64,
      "noteName": "E4",
      "velocity": 1,
      "duration": "96i"
    },
    {
      "time": "150528i",
      "midiNote": 50,
      "noteName": "D3",
      "velocity": 0.8818897637795275,
      "duration": "96i"
    },
    {
      "time": "150528i",
      "midiNote": 56,
      "noteName": "G#3",
      "velocity": 0.8818897637795275,
      "duration": "96i"
    },
    {
      "time": "150528i",
      "midiNote": 64,
      "noteName": "E4",
      "velocity": 1,
      "duration": "96i"
    },
    {
      "time": "150624i",
      "midiNote": 50,
      "noteName": "D3",
      "velocity": 0.7559055118110236,
      "duration": "96i"
    },
    {
      "time": "150624i",
      "midiNote": 56,
      "noteName": "G#3",
      "velocity": 0.7559055118110236,
      "duration": "96i"
    },
    {
      "time": "150624i",
      "midiNote": 64,
      "noteName": "E4",
      "velocity": 0.8818897637795275,
      "duration": "96i"
    },
    {
      "time": "150720i",
      "midiNote": 50,
      "noteName": "D3",
      "velocity": 0.8188976377952756,
      "duration": "96i"
    },
    {
      "time": "150720i",
      "midiNote": 56,
      "noteName": "G#3",
      "velocity": 0.8188976377952756,
      "duration": "96i"
    },
    {
      "time": "150720i",
      "midiNote": 64,
      "noteName": "E4",
      "velocity": 0.9448818897637795,
      "duration": "96i"
    },
    {
      "time": "150816i",
      "midiNote": 50,
      "noteName": "D3",
      "velocity": 0.8818897637795275,
      "duration": "96i"
    },
    {
      "time": "150816i",
      "midiNote": 56,
      "noteName": "G#3",
      "velocity": 0.8818897637795275,
      "duration": "96i"
    },
    {
      "time": "150816i",
      "midiNote": 64,
      "noteName": "E4",
      "velocity": 1,
      "duration": "96i"
    },
    {
      "time": "151008i",
      "midiNote": 50,
      "noteName": "D3",
      "velocity": 0.8818897637795275,
      "duration": "192i"
    },
    {
      "time": "151008i",
      "midiNote": 56,
      "noteName": "G#3",
      "velocity": 0.8818897637795275,
      "duration": "192i"
    },
    {
      "time": "151008i",
      "midiNote": 64,
      "noteName": "E4",
      "velocity": 1,
      "duration": "192i"
    },
    {
      "time": "151200i",
      "midiNote": 50,
      "noteName": "D3",
      "velocity": 0.8818897637795275,
      "duration": "96i"
    },
    {
      "time": "151200i",
      "midiNote": 56,
      "noteName": "G#3",
      "velocity": 0.8818897637795275,
      "duration": "96i"
    },
    {
      "time": "151200i",
      "midiNote": 64,
      "noteName": "E4",
      "velocity": 1,
      "duration": "96i"
    },
    {
      "time": "151296i",
      "midiNote": 59,
      "noteName": "B3",
      "velocity": 0.8818897637795275,
      "duration": "96i"
    },
    {
      "time": "151296i",
      "midiNote": 56,
      "noteName": "G#3",
      "velocity": 0.8818897637795275,
      "duration": "96i"
    },
    {
      "time": "151296i",
      "midiNote": 65,
      "noteName": "F4",
      "velocity": 1,
      "duration": "96i"
    },
    {
      "time": "151392i",
      "midiNote": 59,
      "noteName": "B3",
      "velocity": 0.7559055118110236,
      "duration": "96i"
    },
    {
      "time": "151392i",
      "midiNote": 56,
      "noteName": "G#3",
      "velocity": 0.7559055118110236,
      "duration": "96i"
    },
    {
      "time": "151392i",
      "midiNote": 65,
      "noteName": "F4",
      "velocity": 0.8818897637795275,
      "duration": "96i"
    },
    {
      "time": "151488i",
      "midiNote": 59,
      "noteName": "B3",
      "velocity": 0.8188976377952756,
      "duration": "96i"
    },
    {
      "time": "151488i",
      "midiNote": 56,
      "noteName": "G#3",
      "velocity": 0.8188976377952756,
      "duration": "96i"
    },
    {
      "time": "151488i",
      "midiNote": 65,
      "noteName": "F4",
      "velocity": 0.9448818897637795,
      "duration": "96i"
    },
    {
      "time": "151584i",
      "midiNote": 59,
      "noteName": "B3",
      "velocity": 0.8818897637795275,
      "duration": "96i"
    },
    {
      "time": "151584i",
      "midiNote": 56,
      "noteName": "G#3",
      "velocity": 0.8818897637795275,
      "duration": "96i"
    },
    {
      "time": "151584i",
      "midiNote": 65,
      "noteName": "F4",
      "velocity": 1,
      "duration": "96i"
    },
    {
      "time": "151776i",
      "midiNote": 59,
      "noteName": "B3",
      "velocity": 0.8818897637795275,
      "duration": "192i"
    },
    {
      "time": "151776i",
      "midiNote": 56,
      "noteName": "G#3",
      "velocity": 0.8818897637795275,
      "duration": "192i"
    },
    {
      "time": "151776i",
      "midiNote": 65,
      "noteName": "F4",
      "velocity": 1,
      "duration": "192i"
    },
    {
      "time": "151968i",
      "midiNote": 59,
      "noteName": "B3",
      "velocity": 0.8818897637795275,
      "duration": "96i"
    },
    {
      "time": "151968i",
      "midiNote": 56,
      "noteName": "G#3",
      "velocity": 0.8818897637795275,
      "duration": "96i"
    },
    {
      "time": "151968i",
      "midiNote": 65,
      "noteName": "F4",
      "velocity": 1,
      "duration": "96i"
    },
    {
      "time": "152064i",
      "midiNote": 59,
      "noteName": "B3",
      "velocity": 0.8818897637795275,
      "duration": "96i"
    },
    {
      "time": "152064i",
      "midiNote": 56,
      "noteName": "G#3",
      "velocity": 0.8818897637795275,
      "duration": "96i"
    },
    {
      "time": "152064i",
      "midiNote": 65,
      "noteName": "F4",
      "velocity": 1,
      "duration": "96i"
    },
    {
      "time": "152160i",
      "midiNote": 59,
      "noteName": "B3",
      "velocity": 0.7559055118110236,
      "duration": "96i"
    },
    {
      "time": "152160i",
      "midiNote": 56,
      "noteName": "G#3",
      "velocity": 0.7559055118110236,
      "duration": "96i"
    },
    {
      "time": "152160i",
      "midiNote": 65,
      "noteName": "F4",
      "velocity": 0.8818897637795275,
      "duration": "96i"
    },
    {
      "time": "152256i",
      "midiNote": 59,
      "noteName": "B3",
      "velocity": 0.8188976377952756,
      "duration": "96i"
    },
    {
      "time": "152256i",
      "midiNote": 56,
      "noteName": "G#3",
      "velocity": 0.8188976377952756,
      "duration": "96i"
    },
    {
      "time": "152256i",
      "midiNote": 65,
      "noteName": "F4",
      "velocity": 0.9448818897637795,
      "duration": "96i"
    },
    {
      "time": "152352i",
      "midiNote": 59,
      "noteName": "B3",
      "velocity": 0.8818897637795275,
      "duration": "96i"
    },
    {
      "time": "152352i",
      "midiNote": 56,
      "noteName": "G#3",
      "velocity": 0.8818897637795275,
      "duration": "96i"
    },
    {
      "time": "152352i",
      "midiNote": 65,
      "noteName": "F4",
      "velocity": 1,
      "duration": "96i"
    },
    {
      "time": "152544i",
      "midiNote": 59,
      "noteName": "B3",
      "velocity": 0.8818897637795275,
      "duration": "192i"
    },
    {
      "time": "152544i",
      "midiNote": 56,
      "noteName": "G#3",
      "velocity": 0.8818897637795275,
      "duration": "192i"
    },
    {
      "time": "152544i",
      "midiNote": 65,
      "noteName": "F4",
      "velocity": 1,
      "duration": "192i"
    },
    {
      "time": "152736i",
      "midiNote": 59,
      "noteName": "B3",
      "velocity": 0.8818897637795275,
      "duration": "96i"
    },
    {
      "time": "152736i",
      "midiNote": 56,
      "noteName": "G#3",
      "velocity": 0.8818897637795275,
      "duration": "96i"
    },
    {
      "time": "152736i",
      "midiNote": 65,
      "noteName": "F4",
      "velocity": 1,
      "duration": "96i"
    },
    {
      "time": "152832i",
      "midiNote": 57,
      "noteName": "A3",
      "velocity": 0.8818897637795275,
      "duration": "96i"
    },
    {
      "time": "152832i",
      "midiNote": 61,
      "noteName": "C#4",
      "velocity": 0.8818897637795275,
      "duration": "96i"
    },
    {
      "time": "152832i",
      "midiNote": 66,
      "noteName": "F#4",
      "velocity": 1,
      "duration": "96i"
    },
    {
      "time": "152928i",
      "midiNote": 57,
      "noteName": "A3",
      "velocity": 0.7559055118110236,
      "duration": "96i"
    },
    {
      "time": "152928i",
      "midiNote": 61,
      "noteName": "C#4",
      "velocity": 0.7559055118110236,
      "duration": "96i"
    },
    {
      "time": "152928i",
      "midiNote": 66,
      "noteName": "F#4",
      "velocity": 0.8818897637795275,
      "duration": "96i"
    },
    {
      "time": "153024i",
      "midiNote": 57,
      "noteName": "A3",
      "velocity": 0.8188976377952756,
      "duration": "96i"
    },
    {
      "time": "153024i",
      "midiNote": 61,
      "noteName": "C#4",
      "velocity": 0.8188976377952756,
      "duration": "96i"
    },
    {
      "time": "153024i",
      "midiNote": 66,
      "noteName": "F#4",
      "velocity": 0.9448818897637795,
      "duration": "96i"
    },
    {
      "time": "153120i",
      "midiNote": 57,
      "noteName": "A3",
      "velocity": 0.8818897637795275,
      "duration": "96i"
    },
    {
      "time": "153120i",
      "midiNote": 61,
      "noteName": "C#4",
      "velocity": 0.8818897637795275,
      "duration": "96i"
    },
    {
      "time": "153120i",
      "midiNote": 66,
      "noteName": "F#4",
      "velocity": 1,
      "duration": "96i"
    },
    {
      "time": "153312i",
      "midiNote": 57,
      "noteName": "A3",
      "velocity": 0.8818897637795275,
      "duration": "192i"
    },
    {
      "time": "153312i",
      "midiNote": 61,
      "noteName": "C#4",
      "velocity": 0.8818897637795275,
      "duration": "192i"
    },
    {
      "time": "153312i",
      "midiNote": 66,
      "noteName": "F#4",
      "velocity": 1,
      "duration": "192i"
    },
    {
      "time": "153504i",
      "midiNote": 57,
      "noteName": "A3",
      "velocity": 0.8818897637795275,
      "duration": "96i"
    },
    {
      "time": "153504i",
      "midiNote": 61,
      "noteName": "C#4",
      "velocity": 0.8818897637795275,
      "duration": "96i"
    },
    {
      "time": "153504i",
      "midiNote": 66,
      "noteName": "F#4",
      "velocity": 1,
      "duration": "96i"
    },
    {
      "time": "153600i",
      "midiNote": 57,
      "noteName": "A3",
      "velocity": 0.8818897637795275,
      "duration": "96i"
    },
    {
      "time": "153600i",
      "midiNote": 61,
      "noteName": "C#4",
      "velocity": 0.8818897637795275,
      "duration": "96i"
    },
    {
      "time": "153600i",
      "midiNote": 66,
      "noteName": "F#4",
      "velocity": 1,
      "duration": "96i"
    },
    {
      "time": "153696i",
      "midiNote": 57,
      "noteName": "A3",
      "velocity": 0.7559055118110236,
      "duration": "96i"
    },
    {
      "time": "153696i",
      "midiNote": 61,
      "noteName": "C#4",
      "velocity": 0.7559055118110236,
      "duration": "96i"
    },
    {
      "time": "153696i",
      "midiNote": 66,
      "noteName": "F#4",
      "velocity": 0.8818897637795275,
      "duration": "96i"
    },
    {
      "time": "153792i",
      "midiNote": 57,
      "noteName": "A3",
      "velocity": 0.8188976377952756,
      "duration": "96i"
    },
    {
      "time": "153792i",
      "midiNote": 61,
      "noteName": "C#4",
      "velocity": 0.8188976377952756,
      "duration": "96i"
    },
    {
      "time": "153792i",
      "midiNote": 66,
      "noteName": "F#4",
      "velocity": 0.9448818897637795,
      "duration": "96i"
    },
    {
      "time": "153888i",
      "midiNote": 57,
      "noteName": "A3",
      "velocity": 0.8818897637795275,
      "duration": "96i"
    },
    {
      "time": "153888i",
      "midiNote": 61,
      "noteName": "C#4",
      "velocity": 0.8818897637795275,
      "duration": "96i"
    },
    {
      "time": "153888i",
      "midiNote": 66,
      "noteName": "F#4",
      "velocity": 1,
      "duration": "96i"
    },
    {
      "time": "154080i",
      "midiNote": 57,
      "noteName": "A3",
      "velocity": 0.8818897637795275,
      "duration": "192i"
    },
    {
      "time": "154080i",
      "midiNote": 61,
      "noteName": "C#4",
      "velocity": 0.8818897637795275,
      "duration": "192i"
    },
    {
      "time": "154080i",
      "midiNote": 66,
      "noteName": "F#4",
      "velocity": 1,
      "duration": "192i"
    },
    {
      "time": "154272i",
      "midiNote": 57,
      "noteName": "A3",
      "velocity": 0.8818897637795275,
      "duration": "96i"
    },
    {
      "time": "154272i",
      "midiNote": 61,
      "noteName": "C#4",
      "velocity": 0.8818897637795275,
      "duration": "96i"
    },
    {
      "time": "154272i",
      "midiNote": 66,
      "noteName": "F#4",
      "velocity": 1,
      "duration": "192i"
    },
    {
      "time": "154368i",
      "midiNote": 57,
      "noteName": "A3",
      "velocity": 0.8818897637795275,
      "duration": "96i"
    },
    {
      "time": "154368i",
      "midiNote": 62,
      "noteName": "D4",
      "velocity": 0.8818897637795275,
      "duration": "96i"
    },
    {
      "time": "154368i",
      "midiNote": 66,
      "noteName": "F#4",
      "velocity": 1,
      "duration": "0i"
    },
    {
      "time": "154464i",
      "midiNote": 57,
      "noteName": "A3",
      "velocity": 0.7559055118110236,
      "duration": "96i"
    },
    {
      "time": "154464i",
      "midiNote": 62,
      "noteName": "D4",
      "velocity": 0.7559055118110236,
      "duration": "96i"
    },
    {
      "time": "154464i",
      "midiNote": 66,
      "noteName": "F#4",
      "velocity": 0.8818897637795275,
      "duration": "96i"
    },
    {
      "time": "154560i",
      "midiNote": 57,
      "noteName": "A3",
      "velocity": 0.8188976377952756,
      "duration": "96i"
    },
    {
      "time": "154560i",
      "midiNote": 62,
      "noteName": "D4",
      "velocity": 0.8188976377952756,
      "duration": "96i"
    },
    {
      "time": "154560i",
      "midiNote": 66,
      "noteName": "F#4",
      "velocity": 0.9448818897637795,
      "duration": "96i"
    },
    {
      "time": "154656i",
      "midiNote": 57,
      "noteName": "A3",
      "velocity": 0.8818897637795275,
      "duration": "96i"
    },
    {
      "time": "154656i",
      "midiNote": 62,
      "noteName": "D4",
      "velocity": 0.8818897637795275,
      "duration": "96i"
    },
    {
      "time": "154656i",
      "midiNote": 66,
      "noteName": "F#4",
      "velocity": 1,
      "duration": "96i"
    },
    {
      "time": "154848i",
      "midiNote": 57,
      "noteName": "A3",
      "velocity": 0.8818897637795275,
      "duration": "192i"
    },
    {
      "time": "154848i",
      "midiNote": 62,
      "noteName": "D4",
      "velocity": 0.8818897637795275,
      "duration": "192i"
    },
    {
      "time": "154848i",
      "midiNote": 66,
      "noteName": "F#4",
      "velocity": 1,
      "duration": "192i"
    },
    {
      "time": "155040i",
      "midiNote": 57,
      "noteName": "A3",
      "velocity": 0.8818897637795275,
      "duration": "96i"
    },
    {
      "time": "155040i",
      "midiNote": 62,
      "noteName": "D4",
      "velocity": 0.8818897637795275,
      "duration": "96i"
    },
    {
      "time": "155040i",
      "midiNote": 66,
      "noteName": "F#4",
      "velocity": 1,
      "duration": "96i"
    },
    {
      "time": "155136i",
      "midiNote": 57,
      "noteName": "A3",
      "velocity": 0.8818897637795275,
      "duration": "96i"
    },
    {
      "time": "155136i",
      "midiNote": 62,
      "noteName": "D4",
      "velocity": 0.8818897637795275,
      "duration": "96i"
    },
    {
      "time": "155136i",
      "midiNote": 66,
      "noteName": "F#4",
      "velocity": 1,
      "duration": "96i"
    },
    {
      "time": "155232i",
      "midiNote": 57,
      "noteName": "A3",
      "velocity": 0.7559055118110236,
      "duration": "96i"
    },
    {
      "time": "155232i",
      "midiNote": 62,
      "noteName": "D4",
      "velocity": 0.7559055118110236,
      "duration": "96i"
    },
    {
      "time": "155232i",
      "midiNote": 66,
      "noteName": "F#4",
      "velocity": 0.8818897637795275,
      "duration": "96i"
    },
    {
      "time": "155328i",
      "midiNote": 57,
      "noteName": "A3",
      "velocity": 0.8188976377952756,
      "duration": "96i"
    },
    {
      "time": "155328i",
      "midiNote": 62,
      "noteName": "D4",
      "velocity": 0.8188976377952756,
      "duration": "96i"
    },
    {
      "time": "155328i",
      "midiNote": 66,
      "noteName": "F#4",
      "velocity": 0.9448818897637795,
      "duration": "96i"
    },
    {
      "time": "155424i",
      "midiNote": 57,
      "noteName": "A3",
      "velocity": 0.8818897637795275,
      "duration": "96i"
    },
    {
      "time": "155424i",
      "midiNote": 62,
      "noteName": "D4",
      "velocity": 0.8818897637795275,
      "duration": "96i"
    },
    {
      "time": "155424i",
      "midiNote": 66,
      "noteName": "F#4",
      "velocity": 1,
      "duration": "96i"
    },
    {
      "time": "155616i",
      "midiNote": 57,
      "noteName": "A3",
      "velocity": 0.8818897637795275,
      "duration": "192i"
    },
    {
      "time": "155616i",
      "midiNote": 62,
      "noteName": "D4",
      "velocity": 0.8818897637795275,
      "duration": "192i"
    },
    {
      "time": "155616i",
      "midiNote": 66,
      "noteName": "F#4",
      "velocity": 1,
      "duration": "192i"
    },
    {
      "time": "155808i",
      "midiNote": 57,
      "noteName": "A3",
      "velocity": 0.8818897637795275,
      "duration": "96i"
    },
    {
      "time": "155808i",
      "midiNote": 62,
      "noteName": "D4",
      "velocity": 0.8818897637795275,
      "duration": "96i"
    },
    {
      "time": "155808i",
      "midiNote": 66,
      "noteName": "F#4",
      "velocity": 1,
      "duration": "96i"
    },
    {
      "time": "155904i",
      "midiNote": 50,
      "noteName": "D3",
      "velocity": 0.8818897637795275,
      "duration": "96i"
    },
    {
      "time": "155904i",
      "midiNote": 56,
      "noteName": "G#3",
      "velocity": 0.8818897637795275,
      "duration": "96i"
    },
    {
      "time": "155904i",
      "midiNote": 64,
      "noteName": "E4",
      "velocity": 1,
      "duration": "96i"
    },
    {
      "time": "156000i",
      "midiNote": 50,
      "noteName": "D3",
      "velocity": 0.7559055118110236,
      "duration": "96i"
    },
    {
      "time": "156000i",
      "midiNote": 56,
      "noteName": "G#3",
      "velocity": 0.7559055118110236,
      "duration": "96i"
    },
    {
      "time": "156000i",
      "midiNote": 64,
      "noteName": "E4",
      "velocity": 0.8818897637795275,
      "duration": "96i"
    },
    {
      "time": "156096i",
      "midiNote": 50,
      "noteName": "D3",
      "velocity": 0.8188976377952756,
      "duration": "96i"
    },
    {
      "time": "156096i",
      "midiNote": 56,
      "noteName": "G#3",
      "velocity": 0.8188976377952756,
      "duration": "96i"
    },
    {
      "time": "156096i",
      "midiNote": 64,
      "noteName": "E4",
      "velocity": 0.9448818897637795,
      "duration": "96i"
    },
    {
      "time": "156192i",
      "midiNote": 50,
      "noteName": "D3",
      "velocity": 0.8818897637795275,
      "duration": "96i"
    },
    {
      "time": "156192i",
      "midiNote": 56,
      "noteName": "G#3",
      "velocity": 0.8818897637795275,
      "duration": "96i"
    },
    {
      "time": "156192i",
      "midiNote": 64,
      "noteName": "E4",
      "velocity": 1,
      "duration": "96i"
    },
    {
      "time": "156384i",
      "midiNote": 50,
      "noteName": "D3",
      "velocity": 0.8818897637795275,
      "duration": "192i"
    },
    {
      "time": "156384i",
      "midiNote": 56,
      "noteName": "G#3",
      "velocity": 0.8818897637795275,
      "duration": "192i"
    },
    {
      "time": "156384i",
      "midiNote": 64,
      "noteName": "E4",
      "velocity": 1,
      "duration": "192i"
    },
    {
      "time": "156576i",
      "midiNote": 50,
      "noteName": "D3",
      "velocity": 0.8818897637795275,
      "duration": "96i"
    },
    {
      "time": "156576i",
      "midiNote": 56,
      "noteName": "G#3",
      "velocity": 0.8818897637795275,
      "duration": "96i"
    },
    {
      "time": "156576i",
      "midiNote": 64,
      "noteName": "E4",
      "velocity": 1,
      "duration": "96i"
    },
    {
      "time": "156672i",
      "midiNote": 50,
      "noteName": "D3",
      "velocity": 0.8818897637795275,
      "duration": "96i"
    },
    {
      "time": "156672i",
      "midiNote": 56,
      "noteName": "G#3",
      "velocity": 0.8818897637795275,
      "duration": "96i"
    },
    {
      "time": "156672i",
      "midiNote": 64,
      "noteName": "E4",
      "velocity": 1,
      "duration": "96i"
    },
    {
      "time": "156768i",
      "midiNote": 50,
      "noteName": "D3",
      "velocity": 0.7559055118110236,
      "duration": "96i"
    },
    {
      "time": "156768i",
      "midiNote": 56,
      "noteName": "G#3",
      "velocity": 0.7559055118110236,
      "duration": "96i"
    },
    {
      "time": "156768i",
      "midiNote": 64,
      "noteName": "E4",
      "velocity": 0.8818897637795275,
      "duration": "96i"
    },
    {
      "time": "156864i",
      "midiNote": 50,
      "noteName": "D3",
      "velocity": 0.8188976377952756,
      "duration": "96i"
    },
    {
      "time": "156864i",
      "midiNote": 56,
      "noteName": "G#3",
      "velocity": 0.8188976377952756,
      "duration": "96i"
    },
    {
      "time": "156864i",
      "midiNote": 64,
      "noteName": "E4",
      "velocity": 0.9448818897637795,
      "duration": "96i"
    },
    {
      "time": "156960i",
      "midiNote": 50,
      "noteName": "D3",
      "velocity": 0.8818897637795275,
      "duration": "96i"
    },
    {
      "time": "156960i",
      "midiNote": 56,
      "noteName": "G#3",
      "velocity": 0.8818897637795275,
      "duration": "96i"
    },
    {
      "time": "156960i",
      "midiNote": 64,
      "noteName": "E4",
      "velocity": 1,
      "duration": "96i"
    },
    {
      "time": "157152i",
      "midiNote": 50,
      "noteName": "D3",
      "velocity": 0.8818897637795275,
      "duration": "192i"
    },
    {
      "time": "157152i",
      "midiNote": 56,
      "noteName": "G#3",
      "velocity": 0.8818897637795275,
      "duration": "192i"
    },
    {
      "time": "157152i",
      "midiNote": 64,
      "noteName": "E4",
      "velocity": 1,
      "duration": "192i"
    },
    {
      "time": "157344i",
      "midiNote": 50,
      "noteName": "D3",
      "velocity": 0.8818897637795275,
      "duration": "96i"
    },
    {
      "time": "157344i",
      "midiNote": 56,
      "noteName": "G#3",
      "velocity": 0.8818897637795275,
      "duration": "96i"
    },
    {
      "time": "157344i",
      "midiNote": 64,
      "noteName": "E4",
      "velocity": 1,
      "duration": "96i"
    },
    {
      "time": "157440i",
      "midiNote": 59,
      "noteName": "B3",
      "velocity": 0.8818897637795275,
      "duration": "96i"
    },
    {
      "time": "157440i",
      "midiNote": 56,
      "noteName": "G#3",
      "velocity": 0.8818897637795275,
      "duration": "96i"
    },
    {
      "time": "157440i",
      "midiNote": 65,
      "noteName": "F4",
      "velocity": 1,
      "duration": "96i"
    },
    {
      "time": "157536i",
      "midiNote": 59,
      "noteName": "B3",
      "velocity": 0.7559055118110236,
      "duration": "96i"
    },
    {
      "time": "157536i",
      "midiNote": 56,
      "noteName": "G#3",
      "velocity": 0.7559055118110236,
      "duration": "96i"
    },
    {
      "time": "157536i",
      "midiNote": 65,
      "noteName": "F4",
      "velocity": 0.8818897637795275,
      "duration": "96i"
    },
    {
      "time": "157632i",
      "midiNote": 59,
      "noteName": "B3",
      "velocity": 0.8188976377952756,
      "duration": "96i"
    },
    {
      "time": "157632i",
      "midiNote": 56,
      "noteName": "G#3",
      "velocity": 0.8188976377952756,
      "duration": "96i"
    },
    {
      "time": "157632i",
      "midiNote": 65,
      "noteName": "F4",
      "velocity": 0.9448818897637795,
      "duration": "96i"
    },
    {
      "time": "157728i",
      "midiNote": 59,
      "noteName": "B3",
      "velocity": 0.8818897637795275,
      "duration": "96i"
    },
    {
      "time": "157728i",
      "midiNote": 56,
      "noteName": "G#3",
      "velocity": 0.8818897637795275,
      "duration": "96i"
    },
    {
      "time": "157728i",
      "midiNote": 65,
      "noteName": "F4",
      "velocity": 1,
      "duration": "96i"
    },
    {
      "time": "157920i",
      "midiNote": 59,
      "noteName": "B3",
      "velocity": 0.8818897637795275,
      "duration": "192i"
    },
    {
      "time": "157920i",
      "midiNote": 56,
      "noteName": "G#3",
      "velocity": 0.8818897637795275,
      "duration": "192i"
    },
    {
      "time": "157920i",
      "midiNote": 65,
      "noteName": "F4",
      "velocity": 1,
      "duration": "192i"
    },
    {
      "time": "158112i",
      "midiNote": 59,
      "noteName": "B3",
      "velocity": 0.8818897637795275,
      "duration": "96i"
    },
    {
      "time": "158112i",
      "midiNote": 56,
      "noteName": "G#3",
      "velocity": 0.8818897637795275,
      "duration": "96i"
    },
    {
      "time": "158112i",
      "midiNote": 65,
      "noteName": "F4",
      "velocity": 1,
      "duration": "96i"
    },
    {
      "time": "158208i",
      "midiNote": 59,
      "noteName": "B3",
      "velocity": 0.8818897637795275,
      "duration": "96i"
    },
    {
      "time": "158208i",
      "midiNote": 56,
      "noteName": "G#3",
      "velocity": 0.8818897637795275,
      "duration": "96i"
    },
    {
      "time": "158208i",
      "midiNote": 65,
      "noteName": "F4",
      "velocity": 1,
      "duration": "96i"
    },
    {
      "time": "158304i",
      "midiNote": 59,
      "noteName": "B3",
      "velocity": 0.7559055118110236,
      "duration": "96i"
    },
    {
      "time": "158304i",
      "midiNote": 56,
      "noteName": "G#3",
      "velocity": 0.7559055118110236,
      "duration": "96i"
    },
    {
      "time": "158304i",
      "midiNote": 65,
      "noteName": "F4",
      "velocity": 0.8818897637795275,
      "duration": "96i"
    },
    {
      "time": "158400i",
      "midiNote": 59,
      "noteName": "B3",
      "velocity": 0.8188976377952756,
      "duration": "96i"
    },
    {
      "time": "158400i",
      "midiNote": 56,
      "noteName": "G#3",
      "velocity": 0.8188976377952756,
      "duration": "96i"
    },
    {
      "time": "158400i",
      "midiNote": 65,
      "noteName": "F4",
      "velocity": 0.9448818897637795,
      "duration": "96i"
    },
    {
      "time": "158496i",
      "midiNote": 59,
      "noteName": "B3",
      "velocity": 0.8818897637795275,
      "duration": "96i"
    },
    {
      "time": "158496i",
      "midiNote": 56,
      "noteName": "G#3",
      "velocity": 0.8818897637795275,
      "duration": "96i"
    },
    {
      "time": "158496i",
      "midiNote": 65,
      "noteName": "F4",
      "velocity": 1,
      "duration": "96i"
    },
    {
      "time": "158688i",
      "midiNote": 59,
      "noteName": "B3",
      "velocity": 0.8818897637795275,
      "duration": "192i"
    },
    {
      "time": "158688i",
      "midiNote": 56,
      "noteName": "G#3",
      "velocity": 0.8818897637795275,
      "duration": "192i"
    },
    {
      "time": "158688i",
      "midiNote": 65,
      "noteName": "F4",
      "velocity": 1,
      "duration": "192i"
    },
    {
      "time": "158880i",
      "midiNote": 59,
      "noteName": "B3",
      "velocity": 0.8818897637795275,
      "duration": "96i"
    },
    {
      "time": "158880i",
      "midiNote": 56,
      "noteName": "G#3",
      "velocity": 0.8818897637795275,
      "duration": "96i"
    },
    {
      "time": "158880i",
      "midiNote": 65,
      "noteName": "F4",
      "velocity": 1,
      "duration": "96i"
    },
    {
      "time": "158976i",
      "midiNote": 57,
      "noteName": "A3",
      "velocity": 0.8818897637795275,
      "duration": "96i"
    },
    {
      "time": "158976i",
      "midiNote": 61,
      "noteName": "C#4",
      "velocity": 0.8818897637795275,
      "duration": "96i"
    },
    {
      "time": "158976i",
      "midiNote": 66,
      "noteName": "F#4",
      "velocity": 1,
      "duration": "96i"
    },
    {
      "time": "159072i",
      "midiNote": 57,
      "noteName": "A3",
      "velocity": 0.7559055118110236,
      "duration": "96i"
    },
    {
      "time": "159072i",
      "midiNote": 61,
      "noteName": "C#4",
      "velocity": 0.7559055118110236,
      "duration": "96i"
    },
    {
      "time": "159072i",
      "midiNote": 66,
      "noteName": "F#4",
      "velocity": 0.8818897637795275,
      "duration": "96i"
    },
    {
      "time": "159168i",
      "midiNote": 57,
      "noteName": "A3",
      "velocity": 0.8188976377952756,
      "duration": "96i"
    },
    {
      "time": "159168i",
      "midiNote": 61,
      "noteName": "C#4",
      "velocity": 0.8188976377952756,
      "duration": "96i"
    },
    {
      "time": "159168i",
      "midiNote": 66,
      "noteName": "F#4",
      "velocity": 0.9448818897637795,
      "duration": "96i"
    },
    {
      "time": "159264i",
      "midiNote": 57,
      "noteName": "A3",
      "velocity": 0.8818897637795275,
      "duration": "96i"
    },
    {
      "time": "159264i",
      "midiNote": 61,
      "noteName": "C#4",
      "velocity": 0.8818897637795275,
      "duration": "96i"
    },
    {
      "time": "159264i",
      "midiNote": 66,
      "noteName": "F#4",
      "velocity": 1,
      "duration": "96i"
    },
    {
      "time": "159456i",
      "midiNote": 57,
      "noteName": "A3",
      "velocity": 0.8818897637795275,
      "duration": "192i"
    },
    {
      "time": "159456i",
      "midiNote": 61,
      "noteName": "C#4",
      "velocity": 0.8818897637795275,
      "duration": "192i"
    },
    {
      "time": "159456i",
      "midiNote": 66,
      "noteName": "F#4",
      "velocity": 1,
      "duration": "192i"
    },
    {
      "time": "159648i",
      "midiNote": 57,
      "noteName": "A3",
      "velocity": 0.8818897637795275,
      "duration": "96i"
    },
    {
      "time": "159648i",
      "midiNote": 61,
      "noteName": "C#4",
      "velocity": 0.8818897637795275,
      "duration": "96i"
    },
    {
      "time": "159648i",
      "midiNote": 66,
      "noteName": "F#4",
      "velocity": 1,
      "duration": "96i"
    },
    {
      "time": "159744i",
      "midiNote": 57,
      "noteName": "A3",
      "velocity": 0.8818897637795275,
      "duration": "96i"
    },
    {
      "time": "159744i",
      "midiNote": 61,
      "noteName": "C#4",
      "velocity": 0.8818897637795275,
      "duration": "96i"
    },
    {
      "time": "159744i",
      "midiNote": 66,
      "noteName": "F#4",
      "velocity": 1,
      "duration": "96i"
    },
    {
      "time": "159840i",
      "midiNote": 57,
      "noteName": "A3",
      "velocity": 0.7559055118110236,
      "duration": "96i"
    },
    {
      "time": "159840i",
      "midiNote": 61,
      "noteName": "C#4",
      "velocity": 0.7559055118110236,
      "duration": "96i"
    },
    {
      "time": "159840i",
      "midiNote": 66,
      "noteName": "F#4",
      "velocity": 0.8818897637795275,
      "duration": "96i"
    },
    {
      "time": "159936i",
      "midiNote": 57,
      "noteName": "A3",
      "velocity": 0.8188976377952756,
      "duration": "96i"
    },
    {
      "time": "159936i",
      "midiNote": 61,
      "noteName": "C#4",
      "velocity": 0.8188976377952756,
      "duration": "96i"
    },
    {
      "time": "159936i",
      "midiNote": 66,
      "noteName": "F#4",
      "velocity": 0.9448818897637795,
      "duration": "96i"
    },
    {
      "time": "160032i",
      "midiNote": 57,
      "noteName": "A3",
      "velocity": 0.8818897637795275,
      "duration": "96i"
    },
    {
      "time": "160032i",
      "midiNote": 61,
      "noteName": "C#4",
      "velocity": 0.8818897637795275,
      "duration": "96i"
    },
    {
      "time": "160032i",
      "midiNote": 66,
      "noteName": "F#4",
      "velocity": 1,
      "duration": "96i"
    },
    {
      "time": "160224i",
      "midiNote": 57,
      "noteName": "A3",
      "velocity": 0.8818897637795275,
      "duration": "192i"
    },
    {
      "time": "160224i",
      "midiNote": 61,
      "noteName": "C#4",
      "velocity": 0.8818897637795275,
      "duration": "192i"
    },
    {
      "time": "160224i",
      "midiNote": 66,
      "noteName": "F#4",
      "velocity": 1,
      "duration": "192i"
    },
    {
      "time": "160416i",
      "midiNote": 57,
      "noteName": "A3",
      "velocity": 0.8818897637795275,
      "duration": "96i"
    },
    {
      "time": "160416i",
      "midiNote": 61,
      "noteName": "C#4",
      "velocity": 0.8818897637795275,
      "duration": "96i"
    },
    {
      "time": "160416i",
      "midiNote": 66,
      "noteName": "F#4",
      "velocity": 1,
      "duration": "192i"
    },
    {
      "time": "160512i",
      "midiNote": 57,
      "noteName": "A3",
      "velocity": 0.8818897637795275,
      "duration": "96i"
    },
    {
      "time": "160512i",
      "midiNote": 62,
      "noteName": "D4",
      "velocity": 0.8818897637795275,
      "duration": "96i"
    },
    {
      "time": "160512i",
      "midiNote": 66,
      "noteName": "F#4",
      "velocity": 1,
      "duration": "0i"
    },
    {
      "time": "160608i",
      "midiNote": 57,
      "noteName": "A3",
      "velocity": 0.7559055118110236,
      "duration": "96i"
    },
    {
      "time": "160608i",
      "midiNote": 62,
      "noteName": "D4",
      "velocity": 0.7559055118110236,
      "duration": "96i"
    },
    {
      "time": "160608i",
      "midiNote": 66,
      "noteName": "F#4",
      "velocity": 0.8818897637795275,
      "duration": "96i"
    },
    {
      "time": "160704i",
      "midiNote": 57,
      "noteName": "A3",
      "velocity": 0.8188976377952756,
      "duration": "96i"
    },
    {
      "time": "160704i",
      "midiNote": 62,
      "noteName": "D4",
      "velocity": 0.8188976377952756,
      "duration": "96i"
    },
    {
      "time": "160704i",
      "midiNote": 66,
      "noteName": "F#4",
      "velocity": 0.9448818897637795,
      "duration": "96i"
    },
    {
      "time": "160800i",
      "midiNote": 57,
      "noteName": "A3",
      "velocity": 0.8818897637795275,
      "duration": "96i"
    },
    {
      "time": "160800i",
      "midiNote": 62,
      "noteName": "D4",
      "velocity": 0.8818897637795275,
      "duration": "96i"
    },
    {
      "time": "160800i",
      "midiNote": 66,
      "noteName": "F#4",
      "velocity": 1,
      "duration": "96i"
    },
    {
      "time": "160992i",
      "midiNote": 57,
      "noteName": "A3",
      "velocity": 0.8818897637795275,
      "duration": "192i"
    },
    {
      "time": "160992i",
      "midiNote": 62,
      "noteName": "D4",
      "velocity": 0.8818897637795275,
      "duration": "192i"
    },
    {
      "time": "160992i",
      "midiNote": 66,
      "noteName": "F#4",
      "velocity": 1,
      "duration": "192i"
    },
    {
      "time": "161184i",
      "midiNote": 57,
      "noteName": "A3",
      "velocity": 0.8818897637795275,
      "duration": "96i"
    },
    {
      "time": "161184i",
      "midiNote": 62,
      "noteName": "D4",
      "velocity": 0.8818897637795275,
      "duration": "96i"
    },
    {
      "time": "161184i",
      "midiNote": 66,
      "noteName": "F#4",
      "velocity": 1,
      "duration": "96i"
    },
    {
      "time": "161280i",
      "midiNote": 57,
      "noteName": "A3",
      "velocity": 0.8818897637795275,
      "duration": "96i"
    },
    {
      "time": "161280i",
      "midiNote": 62,
      "noteName": "D4",
      "velocity": 0.8818897637795275,
      "duration": "96i"
    },
    {
      "time": "161280i",
      "midiNote": 66,
      "noteName": "F#4",
      "velocity": 1,
      "duration": "96i"
    },
    {
      "time": "161376i",
      "midiNote": 57,
      "noteName": "A3",
      "velocity": 0.7559055118110236,
      "duration": "96i"
    },
    {
      "time": "161376i",
      "midiNote": 62,
      "noteName": "D4",
      "velocity": 0.7559055118110236,
      "duration": "96i"
    },
    {
      "time": "161376i",
      "midiNote": 66,
      "noteName": "F#4",
      "velocity": 0.8818897637795275,
      "duration": "96i"
    },
    {
      "time": "161472i",
      "midiNote": 57,
      "noteName": "A3",
      "velocity": 0.8188976377952756,
      "duration": "96i"
    },
    {
      "time": "161472i",
      "midiNote": 62,
      "noteName": "D4",
      "velocity": 0.8188976377952756,
      "duration": "96i"
    },
    {
      "time": "161472i",
      "midiNote": 66,
      "noteName": "F#4",
      "velocity": 0.9448818897637795,
      "duration": "96i"
    },
    {
      "time": "161568i",
      "midiNote": 57,
      "noteName": "A3",
      "velocity": 0.8818897637795275,
      "duration": "96i"
    },
    {
      "time": "161568i",
      "midiNote": 62,
      "noteName": "D4",
      "velocity": 0.8818897637795275,
      "duration": "96i"
    },
    {
      "time": "161568i",
      "midiNote": 66,
      "noteName": "F#4",
      "velocity": 1,
      "duration": "96i"
    },
    {
      "time": "161760i",
      "midiNote": 57,
      "noteName": "A3",
      "velocity": 0.8818897637795275,
      "duration": "192i"
    },
    {
      "time": "161760i",
      "midiNote": 62,
      "noteName": "D4",
      "velocity": 0.8818897637795275,
      "duration": "192i"
    },
    {
      "time": "161760i",
      "midiNote": 66,
      "noteName": "F#4",
      "velocity": 1,
      "duration": "192i"
    },
    {
      "time": "161952i",
      "midiNote": 57,
      "noteName": "A3",
      "velocity": 0.8818897637795275,
      "duration": "96i"
    },
    {
      "time": "161952i",
      "midiNote": 62,
      "noteName": "D4",
      "velocity": 0.8818897637795275,
      "duration": "96i"
    },
    {
      "time": "161952i",
      "midiNote": 66,
      "noteName": "F#4",
      "velocity": 1,
      "duration": "96i"
    },
    {
      "time": "162048i",
      "midiNote": 50,
      "noteName": "D3",
      "velocity": 0.8818897637795275,
      "duration": "96i"
    },
    {
      "time": "162048i",
      "midiNote": 56,
      "noteName": "G#3",
      "velocity": 0.8818897637795275,
      "duration": "96i"
    },
    {
      "time": "162048i",
      "midiNote": 64,
      "noteName": "E4",
      "velocity": 1,
      "duration": "96i"
    },
    {
      "time": "162144i",
      "midiNote": 50,
      "noteName": "D3",
      "velocity": 0.7559055118110236,
      "duration": "96i"
    },
    {
      "time": "162144i",
      "midiNote": 56,
      "noteName": "G#3",
      "velocity": 0.7559055118110236,
      "duration": "96i"
    },
    {
      "time": "162144i",
      "midiNote": 64,
      "noteName": "E4",
      "velocity": 0.8818897637795275,
      "duration": "96i"
    },
    {
      "time": "162240i",
      "midiNote": 50,
      "noteName": "D3",
      "velocity": 0.8188976377952756,
      "duration": "96i"
    },
    {
      "time": "162240i",
      "midiNote": 56,
      "noteName": "G#3",
      "velocity": 0.8188976377952756,
      "duration": "96i"
    },
    {
      "time": "162240i",
      "midiNote": 64,
      "noteName": "E4",
      "velocity": 0.9448818897637795,
      "duration": "96i"
    },
    {
      "time": "162336i",
      "midiNote": 50,
      "noteName": "D3",
      "velocity": 0.8818897637795275,
      "duration": "96i"
    },
    {
      "time": "162336i",
      "midiNote": 56,
      "noteName": "G#3",
      "velocity": 0.8818897637795275,
      "duration": "96i"
    },
    {
      "time": "162336i",
      "midiNote": 64,
      "noteName": "E4",
      "velocity": 1,
      "duration": "96i"
    },
    {
      "time": "162528i",
      "midiNote": 50,
      "noteName": "D3",
      "velocity": 0.8818897637795275,
      "duration": "192i"
    },
    {
      "time": "162528i",
      "midiNote": 56,
      "noteName": "G#3",
      "velocity": 0.8818897637795275,
      "duration": "192i"
    },
    {
      "time": "162528i",
      "midiNote": 64,
      "noteName": "E4",
      "velocity": 1,
      "duration": "192i"
    },
    {
      "time": "162720i",
      "midiNote": 50,
      "noteName": "D3",
      "velocity": 0.8818897637795275,
      "duration": "96i"
    },
    {
      "time": "162720i",
      "midiNote": 56,
      "noteName": "G#3",
      "velocity": 0.8818897637795275,
      "duration": "96i"
    },
    {
      "time": "162720i",
      "midiNote": 64,
      "noteName": "E4",
      "velocity": 1,
      "duration": "96i"
    },
    {
      "time": "162816i",
      "midiNote": 50,
      "noteName": "D3",
      "velocity": 0.8818897637795275,
      "duration": "96i"
    },
    {
      "time": "162816i",
      "midiNote": 56,
      "noteName": "G#3",
      "velocity": 0.8818897637795275,
      "duration": "96i"
    },
    {
      "time": "162816i",
      "midiNote": 64,
      "noteName": "E4",
      "velocity": 1,
      "duration": "96i"
    },
    {
      "time": "162912i",
      "midiNote": 50,
      "noteName": "D3",
      "velocity": 0.7559055118110236,
      "duration": "96i"
    },
    {
      "time": "162912i",
      "midiNote": 56,
      "noteName": "G#3",
      "velocity": 0.7559055118110236,
      "duration": "96i"
    },
    {
      "time": "162912i",
      "midiNote": 64,
      "noteName": "E4",
      "velocity": 0.8818897637795275,
      "duration": "96i"
    },
    {
      "time": "163008i",
      "midiNote": 50,
      "noteName": "D3",
      "velocity": 0.8188976377952756,
      "duration": "96i"
    },
    {
      "time": "163008i",
      "midiNote": 56,
      "noteName": "G#3",
      "velocity": 0.8188976377952756,
      "duration": "96i"
    },
    {
      "time": "163008i",
      "midiNote": 64,
      "noteName": "E4",
      "velocity": 0.9448818897637795,
      "duration": "96i"
    },
    {
      "time": "163104i",
      "midiNote": 50,
      "noteName": "D3",
      "velocity": 0.8818897637795275,
      "duration": "96i"
    },
    {
      "time": "163104i",
      "midiNote": 56,
      "noteName": "G#3",
      "velocity": 0.8818897637795275,
      "duration": "96i"
    },
    {
      "time": "163104i",
      "midiNote": 64,
      "noteName": "E4",
      "velocity": 1,
      "duration": "96i"
    },
    {
      "time": "163296i",
      "midiNote": 50,
      "noteName": "D3",
      "velocity": 0.8818897637795275,
      "duration": "192i"
    },
    {
      "time": "163296i",
      "midiNote": 56,
      "noteName": "G#3",
      "velocity": 0.8818897637795275,
      "duration": "192i"
    },
    {
      "time": "163296i",
      "midiNote": 64,
      "noteName": "E4",
      "velocity": 1,
      "duration": "192i"
    },
    {
      "time": "163488i",
      "midiNote": 50,
      "noteName": "D3",
      "velocity": 0.8818897637795275,
      "duration": "96i"
    },
    {
      "time": "163488i",
      "midiNote": 56,
      "noteName": "G#3",
      "velocity": 0.8818897637795275,
      "duration": "96i"
    },
    {
      "time": "163488i",
      "midiNote": 64,
      "noteName": "E4",
      "velocity": 1,
      "duration": "96i"
    },
    {
      "time": "163584i",
      "midiNote": 59,
      "noteName": "B3",
      "velocity": 0.8818897637795275,
      "duration": "96i"
    },
    {
      "time": "163584i",
      "midiNote": 56,
      "noteName": "G#3",
      "velocity": 0.8818897637795275,
      "duration": "96i"
    },
    {
      "time": "163584i",
      "midiNote": 65,
      "noteName": "F4",
      "velocity": 1,
      "duration": "96i"
    },
    {
      "time": "163680i",
      "midiNote": 59,
      "noteName": "B3",
      "velocity": 0.7559055118110236,
      "duration": "96i"
    },
    {
      "time": "163680i",
      "midiNote": 56,
      "noteName": "G#3",
      "velocity": 0.7559055118110236,
      "duration": "96i"
    },
    {
      "time": "163680i",
      "midiNote": 65,
      "noteName": "F4",
      "velocity": 0.8818897637795275,
      "duration": "96i"
    },
    {
      "time": "163776i",
      "midiNote": 59,
      "noteName": "B3",
      "velocity": 0.8188976377952756,
      "duration": "96i"
    },
    {
      "time": "163776i",
      "midiNote": 56,
      "noteName": "G#3",
      "velocity": 0.8188976377952756,
      "duration": "96i"
    },
    {
      "time": "163776i",
      "midiNote": 65,
      "noteName": "F4",
      "velocity": 0.9448818897637795,
      "duration": "96i"
    },
    {
      "time": "163872i",
      "midiNote": 59,
      "noteName": "B3",
      "velocity": 0.8818897637795275,
      "duration": "96i"
    },
    {
      "time": "163872i",
      "midiNote": 56,
      "noteName": "G#3",
      "velocity": 0.8818897637795275,
      "duration": "96i"
    },
    {
      "time": "163872i",
      "midiNote": 65,
      "noteName": "F4",
      "velocity": 1,
      "duration": "96i"
    },
    {
      "time": "164064i",
      "midiNote": 59,
      "noteName": "B3",
      "velocity": 0.8818897637795275,
      "duration": "192i"
    },
    {
      "time": "164064i",
      "midiNote": 56,
      "noteName": "G#3",
      "velocity": 0.8818897637795275,
      "duration": "192i"
    },
    {
      "time": "164064i",
      "midiNote": 65,
      "noteName": "F4",
      "velocity": 1,
      "duration": "192i"
    },
    {
      "time": "164256i",
      "midiNote": 59,
      "noteName": "B3",
      "velocity": 0.8818897637795275,
      "duration": "96i"
    },
    {
      "time": "164256i",
      "midiNote": 56,
      "noteName": "G#3",
      "velocity": 0.8818897637795275,
      "duration": "96i"
    },
    {
      "time": "164256i",
      "midiNote": 65,
      "noteName": "F4",
      "velocity": 1,
      "duration": "96i"
    },
    {
      "time": "164352i",
      "midiNote": 59,
      "noteName": "B3",
      "velocity": 0.8818897637795275,
      "duration": "96i"
    },
    {
      "time": "164352i",
      "midiNote": 56,
      "noteName": "G#3",
      "velocity": 0.8818897637795275,
      "duration": "96i"
    },
    {
      "time": "164352i",
      "midiNote": 65,
      "noteName": "F4",
      "velocity": 1,
      "duration": "96i"
    },
    {
      "time": "164448i",
      "midiNote": 59,
      "noteName": "B3",
      "velocity": 0.7559055118110236,
      "duration": "96i"
    },
    {
      "time": "164448i",
      "midiNote": 56,
      "noteName": "G#3",
      "velocity": 0.7559055118110236,
      "duration": "96i"
    },
    {
      "time": "164448i",
      "midiNote": 65,
      "noteName": "F4",
      "velocity": 0.8818897637795275,
      "duration": "96i"
    },
    {
      "time": "164544i",
      "midiNote": 59,
      "noteName": "B3",
      "velocity": 0.8188976377952756,
      "duration": "96i"
    },
    {
      "time": "164544i",
      "midiNote": 56,
      "noteName": "G#3",
      "velocity": 0.8188976377952756,
      "duration": "96i"
    },
    {
      "time": "164544i",
      "midiNote": 65,
      "noteName": "F4",
      "velocity": 0.9448818897637795,
      "duration": "96i"
    },
    {
      "time": "164640i",
      "midiNote": 59,
      "noteName": "B3",
      "velocity": 0.8818897637795275,
      "duration": "96i"
    },
    {
      "time": "164640i",
      "midiNote": 56,
      "noteName": "G#3",
      "velocity": 0.8818897637795275,
      "duration": "96i"
    },
    {
      "time": "164640i",
      "midiNote": 65,
      "noteName": "F4",
      "velocity": 1,
      "duration": "96i"
    },
    {
      "time": "164832i",
      "midiNote": 59,
      "noteName": "B3",
      "velocity": 0.8818897637795275,
      "duration": "192i"
    },
    {
      "time": "164832i",
      "midiNote": 56,
      "noteName": "G#3",
      "velocity": 0.8818897637795275,
      "duration": "192i"
    },
    {
      "time": "164832i",
      "midiNote": 65,
      "noteName": "F4",
      "velocity": 1,
      "duration": "192i"
    },
    {
      "time": "165024i",
      "midiNote": 59,
      "noteName": "B3",
      "velocity": 0.8818897637795275,
      "duration": "96i"
    },
    {
      "time": "165024i",
      "midiNote": 56,
      "noteName": "G#3",
      "velocity": 0.8818897637795275,
      "duration": "96i"
    },
    {
      "time": "165024i",
      "midiNote": 65,
      "noteName": "F4",
      "velocity": 1,
      "duration": "96i"
    },
    {
      "time": "165120i",
      "midiNote": 57,
      "noteName": "A3",
      "velocity": 0.8818897637795275,
      "duration": "96i"
    },
    {
      "time": "165120i",
      "midiNote": 61,
      "noteName": "C#4",
      "velocity": 0.8818897637795275,
      "duration": "96i"
    },
    {
      "time": "165120i",
      "midiNote": 66,
      "noteName": "F#4",
      "velocity": 1,
      "duration": "96i"
    },
    {
      "time": "165216i",
      "midiNote": 57,
      "noteName": "A3",
      "velocity": 0.7559055118110236,
      "duration": "96i"
    },
    {
      "time": "165216i",
      "midiNote": 61,
      "noteName": "C#4",
      "velocity": 0.7559055118110236,
      "duration": "96i"
    },
    {
      "time": "165216i",
      "midiNote": 66,
      "noteName": "F#4",
      "velocity": 0.8818897637795275,
      "duration": "96i"
    },
    {
      "time": "165312i",
      "midiNote": 57,
      "noteName": "A3",
      "velocity": 0.8188976377952756,
      "duration": "96i"
    },
    {
      "time": "165312i",
      "midiNote": 61,
      "noteName": "C#4",
      "velocity": 0.8188976377952756,
      "duration": "96i"
    },
    {
      "time": "165312i",
      "midiNote": 66,
      "noteName": "F#4",
      "velocity": 0.9448818897637795,
      "duration": "96i"
    },
    {
      "time": "165408i",
      "midiNote": 57,
      "noteName": "A3",
      "velocity": 0.8818897637795275,
      "duration": "96i"
    },
    {
      "time": "165408i",
      "midiNote": 61,
      "noteName": "C#4",
      "velocity": 0.8818897637795275,
      "duration": "96i"
    },
    {
      "time": "165408i",
      "midiNote": 66,
      "noteName": "F#4",
      "velocity": 1,
      "duration": "96i"
    },
    {
      "time": "165600i",
      "midiNote": 57,
      "noteName": "A3",
      "velocity": 0.8818897637795275,
      "duration": "192i"
    },
    {
      "time": "165600i",
      "midiNote": 61,
      "noteName": "C#4",
      "velocity": 0.8818897637795275,
      "duration": "192i"
    },
    {
      "time": "165600i",
      "midiNote": 66,
      "noteName": "F#4",
      "velocity": 1,
      "duration": "192i"
    },
    {
      "time": "165792i",
      "midiNote": 57,
      "noteName": "A3",
      "velocity": 0.8818897637795275,
      "duration": "96i"
    },
    {
      "time": "165792i",
      "midiNote": 61,
      "noteName": "C#4",
      "velocity": 0.8818897637795275,
      "duration": "96i"
    },
    {
      "time": "165792i",
      "midiNote": 66,
      "noteName": "F#4",
      "velocity": 1,
      "duration": "96i"
    },
    {
      "time": "165888i",
      "midiNote": 57,
      "noteName": "A3",
      "velocity": 0.8818897637795275,
      "duration": "96i"
    },
    {
      "time": "165888i",
      "midiNote": 61,
      "noteName": "C#4",
      "velocity": 0.8818897637795275,
      "duration": "96i"
    },
    {
      "time": "165888i",
      "midiNote": 66,
      "noteName": "F#4",
      "velocity": 1,
      "duration": "96i"
    },
    {
      "time": "165984i",
      "midiNote": 57,
      "noteName": "A3",
      "velocity": 0.7559055118110236,
      "duration": "96i"
    },
    {
      "time": "165984i",
      "midiNote": 61,
      "noteName": "C#4",
      "velocity": 0.7559055118110236,
      "duration": "96i"
    },
    {
      "time": "165984i",
      "midiNote": 66,
      "noteName": "F#4",
      "velocity": 0.8818897637795275,
      "duration": "96i"
    },
    {
      "time": "166080i",
      "midiNote": 57,
      "noteName": "A3",
      "velocity": 0.8188976377952756,
      "duration": "96i"
    },
    {
      "time": "166080i",
      "midiNote": 61,
      "noteName": "C#4",
      "velocity": 0.8188976377952756,
      "duration": "96i"
    },
    {
      "time": "166080i",
      "midiNote": 66,
      "noteName": "F#4",
      "velocity": 0.9448818897637795,
      "duration": "96i"
    },
    {
      "time": "166176i",
      "midiNote": 57,
      "noteName": "A3",
      "velocity": 0.8818897637795275,
      "duration": "96i"
    },
    {
      "time": "166176i",
      "midiNote": 61,
      "noteName": "C#4",
      "velocity": 0.8818897637795275,
      "duration": "96i"
    },
    {
      "time": "166176i",
      "midiNote": 66,
      "noteName": "F#4",
      "velocity": 1,
      "duration": "96i"
    },
    {
      "time": "166368i",
      "midiNote": 57,
      "noteName": "A3",
      "velocity": 0.8818897637795275,
      "duration": "192i"
    },
    {
      "time": "166368i",
      "midiNote": 61,
      "noteName": "C#4",
      "velocity": 0.8818897637795275,
      "duration": "192i"
    },
    {
      "time": "166368i",
      "midiNote": 66,
      "noteName": "F#4",
      "velocity": 1,
      "duration": "192i"
    },
    {
      "time": "166560i",
      "midiNote": 57,
      "noteName": "A3",
      "velocity": 0.8818897637795275,
      "duration": "96i"
    },
    {
      "time": "166560i",
      "midiNote": 61,
      "noteName": "C#4",
      "velocity": 0.8818897637795275,
      "duration": "96i"
    },
    {
      "time": "166560i",
      "midiNote": 66,
      "noteName": "F#4",
      "velocity": 1,
      "duration": "192i"
    },
    {
      "time": "166656i",
      "midiNote": 57,
      "noteName": "A3",
      "velocity": 0.8818897637795275,
      "duration": "96i"
    },
    {
      "time": "166656i",
      "midiNote": 62,
      "noteName": "D4",
      "velocity": 0.8818897637795275,
      "duration": "96i"
    },
    {
      "time": "166656i",
      "midiNote": 66,
      "noteName": "F#4",
      "velocity": 1,
      "duration": "0i"
    },
    {
      "time": "166752i",
      "midiNote": 57,
      "noteName": "A3",
      "velocity": 0.7559055118110236,
      "duration": "96i"
    },
    {
      "time": "166752i",
      "midiNote": 62,
      "noteName": "D4",
      "velocity": 0.7559055118110236,
      "duration": "96i"
    },
    {
      "time": "166752i",
      "midiNote": 66,
      "noteName": "F#4",
      "velocity": 0.8818897637795275,
      "duration": "96i"
    },
    {
      "time": "166848i",
      "midiNote": 57,
      "noteName": "A3",
      "velocity": 0.8188976377952756,
      "duration": "96i"
    },
    {
      "time": "166848i",
      "midiNote": 62,
      "noteName": "D4",
      "velocity": 0.8188976377952756,
      "duration": "96i"
    },
    {
      "time": "166848i",
      "midiNote": 66,
      "noteName": "F#4",
      "velocity": 0.9448818897637795,
      "duration": "96i"
    },
    {
      "time": "166944i",
      "midiNote": 57,
      "noteName": "A3",
      "velocity": 0.8818897637795275,
      "duration": "96i"
    },
    {
      "time": "166944i",
      "midiNote": 62,
      "noteName": "D4",
      "velocity": 0.8818897637795275,
      "duration": "96i"
    },
    {
      "time": "166944i",
      "midiNote": 66,
      "noteName": "F#4",
      "velocity": 1,
      "duration": "96i"
    },
    {
      "time": "167136i",
      "midiNote": 57,
      "noteName": "A3",
      "velocity": 0.8818897637795275,
      "duration": "192i"
    },
    {
      "time": "167136i",
      "midiNote": 62,
      "noteName": "D4",
      "velocity": 0.8818897637795275,
      "duration": "192i"
    },
    {
      "time": "167136i",
      "midiNote": 66,
      "noteName": "F#4",
      "velocity": 1,
      "duration": "192i"
    },
    {
      "time": "167328i",
      "midiNote": 57,
      "noteName": "A3",
      "velocity": 0.8818897637795275,
      "duration": "96i"
    },
    {
      "time": "167328i",
      "midiNote": 62,
      "noteName": "D4",
      "velocity": 0.8818897637795275,
      "duration": "96i"
    },
    {
      "time": "167328i",
      "midiNote": 66,
      "noteName": "F#4",
      "velocity": 1,
      "duration": "96i"
    },
    {
      "time": "167424i",
      "midiNote": 57,
      "noteName": "A3",
      "velocity": 0.8818897637795275,
      "duration": "96i"
    },
    {
      "time": "167424i",
      "midiNote": 62,
      "noteName": "D4",
      "velocity": 0.8818897637795275,
      "duration": "96i"
    },
    {
      "time": "167424i",
      "midiNote": 66,
      "noteName": "F#4",
      "velocity": 1,
      "duration": "96i"
    },
    {
      "time": "167520i",
      "midiNote": 57,
      "noteName": "A3",
      "velocity": 0.7559055118110236,
      "duration": "96i"
    },
    {
      "time": "167520i",
      "midiNote": 62,
      "noteName": "D4",
      "velocity": 0.7559055118110236,
      "duration": "96i"
    },
    {
      "time": "167520i",
      "midiNote": 66,
      "noteName": "F#4",
      "velocity": 0.8818897637795275,
      "duration": "96i"
    },
    {
      "time": "167616i",
      "midiNote": 57,
      "noteName": "A3",
      "velocity": 0.8188976377952756,
      "duration": "96i"
    },
    {
      "time": "167616i",
      "midiNote": 62,
      "noteName": "D4",
      "velocity": 0.8188976377952756,
      "duration": "96i"
    },
    {
      "time": "167616i",
      "midiNote": 66,
      "noteName": "F#4",
      "velocity": 0.9448818897637795,
      "duration": "96i"
    },
    {
      "time": "167712i",
      "midiNote": 57,
      "noteName": "A3",
      "velocity": 0.8818897637795275,
      "duration": "96i"
    },
    {
      "time": "167712i",
      "midiNote": 62,
      "noteName": "D4",
      "velocity": 0.8818897637795275,
      "duration": "96i"
    },
    {
      "time": "167712i",
      "midiNote": 66,
      "noteName": "F#4",
      "velocity": 1,
      "duration": "96i"
    },
    {
      "time": "167904i",
      "midiNote": 57,
      "noteName": "A3",
      "velocity": 0.8818897637795275,
      "duration": "192i"
    },
    {
      "time": "167904i",
      "midiNote": 62,
      "noteName": "D4",
      "velocity": 0.8818897637795275,
      "duration": "192i"
    },
    {
      "time": "167904i",
      "midiNote": 66,
      "noteName": "F#4",
      "velocity": 1,
      "duration": "192i"
    },
    {
      "time": "168096i",
      "midiNote": 57,
      "noteName": "A3",
      "velocity": 0.8818897637795275,
      "duration": "96i"
    },
    {
      "time": "168096i",
      "midiNote": 62,
      "noteName": "D4",
      "velocity": 0.8818897637795275,
      "duration": "96i"
    },
    {
      "time": "168096i",
      "midiNote": 66,
      "noteName": "F#4",
      "velocity": 1,
      "duration": "96i"
    },
    {
      "time": "168192i",
      "midiNote": 50,
      "noteName": "D3",
      "velocity": 0.8818897637795275,
      "duration": "96i"
    },
    {
      "time": "168192i",
      "midiNote": 56,
      "noteName": "G#3",
      "velocity": 0.8818897637795275,
      "duration": "96i"
    },
    {
      "time": "168192i",
      "midiNote": 64,
      "noteName": "E4",
      "velocity": 1,
      "duration": "96i"
    },
    {
      "time": "168288i",
      "midiNote": 50,
      "noteName": "D3",
      "velocity": 0.7559055118110236,
      "duration": "96i"
    },
    {
      "time": "168288i",
      "midiNote": 56,
      "noteName": "G#3",
      "velocity": 0.7559055118110236,
      "duration": "96i"
    },
    {
      "time": "168288i",
      "midiNote": 64,
      "noteName": "E4",
      "velocity": 0.8818897637795275,
      "duration": "96i"
    },
    {
      "time": "168384i",
      "midiNote": 50,
      "noteName": "D3",
      "velocity": 0.8188976377952756,
      "duration": "96i"
    },
    {
      "time": "168384i",
      "midiNote": 56,
      "noteName": "G#3",
      "velocity": 0.8188976377952756,
      "duration": "96i"
    },
    {
      "time": "168384i",
      "midiNote": 64,
      "noteName": "E4",
      "velocity": 0.9448818897637795,
      "duration": "96i"
    },
    {
      "time": "168480i",
      "midiNote": 50,
      "noteName": "D3",
      "velocity": 0.8818897637795275,
      "duration": "96i"
    },
    {
      "time": "168480i",
      "midiNote": 56,
      "noteName": "G#3",
      "velocity": 0.8818897637795275,
      "duration": "96i"
    },
    {
      "time": "168480i",
      "midiNote": 64,
      "noteName": "E4",
      "velocity": 1,
      "duration": "96i"
    },
    {
      "time": "168672i",
      "midiNote": 50,
      "noteName": "D3",
      "velocity": 0.8818897637795275,
      "duration": "192i"
    },
    {
      "time": "168672i",
      "midiNote": 56,
      "noteName": "G#3",
      "velocity": 0.8818897637795275,
      "duration": "192i"
    },
    {
      "time": "168672i",
      "midiNote": 64,
      "noteName": "E4",
      "velocity": 1,
      "duration": "192i"
    },
    {
      "time": "168864i",
      "midiNote": 50,
      "noteName": "D3",
      "velocity": 0.8818897637795275,
      "duration": "96i"
    },
    {
      "time": "168864i",
      "midiNote": 56,
      "noteName": "G#3",
      "velocity": 0.8818897637795275,
      "duration": "96i"
    },
    {
      "time": "168864i",
      "midiNote": 64,
      "noteName": "E4",
      "velocity": 1,
      "duration": "96i"
    },
    {
      "time": "168960i",
      "midiNote": 50,
      "noteName": "D3",
      "velocity": 0.8818897637795275,
      "duration": "96i"
    },
    {
      "time": "168960i",
      "midiNote": 56,
      "noteName": "G#3",
      "velocity": 0.8818897637795275,
      "duration": "96i"
    },
    {
      "time": "168960i",
      "midiNote": 64,
      "noteName": "E4",
      "velocity": 1,
      "duration": "96i"
    },
    {
      "time": "169056i",
      "midiNote": 50,
      "noteName": "D3",
      "velocity": 0.7559055118110236,
      "duration": "96i"
    },
    {
      "time": "169056i",
      "midiNote": 56,
      "noteName": "G#3",
      "velocity": 0.7559055118110236,
      "duration": "96i"
    },
    {
      "time": "169056i",
      "midiNote": 64,
      "noteName": "E4",
      "velocity": 0.8818897637795275,
      "duration": "96i"
    },
    {
      "time": "169152i",
      "midiNote": 50,
      "noteName": "D3",
      "velocity": 0.8188976377952756,
      "duration": "96i"
    },
    {
      "time": "169152i",
      "midiNote": 56,
      "noteName": "G#3",
      "velocity": 0.8188976377952756,
      "duration": "96i"
    },
    {
      "time": "169152i",
      "midiNote": 64,
      "noteName": "E4",
      "velocity": 0.9448818897637795,
      "duration": "96i"
    },
    {
      "time": "169248i",
      "midiNote": 50,
      "noteName": "D3",
      "velocity": 0.8818897637795275,
      "duration": "96i"
    },
    {
      "time": "169248i",
      "midiNote": 56,
      "noteName": "G#3",
      "velocity": 0.8818897637795275,
      "duration": "96i"
    },
    {
      "time": "169248i",
      "midiNote": 64,
      "noteName": "E4",
      "velocity": 1,
      "duration": "96i"
    },
    {
      "time": "169440i",
      "midiNote": 50,
      "noteName": "D3",
      "velocity": 0.8818897637795275,
      "duration": "192i"
    },
    {
      "time": "169440i",
      "midiNote": 56,
      "noteName": "G#3",
      "velocity": 0.8818897637795275,
      "duration": "192i"
    },
    {
      "time": "169440i",
      "midiNote": 64,
      "noteName": "E4",
      "velocity": 1,
      "duration": "192i"
    },
    {
      "time": "169632i",
      "midiNote": 50,
      "noteName": "D3",
      "velocity": 0.8818897637795275,
      "duration": "96i"
    },
    {
      "time": "169632i",
      "midiNote": 56,
      "noteName": "G#3",
      "velocity": 0.8818897637795275,
      "duration": "96i"
    },
    {
      "time": "169632i",
      "midiNote": 64,
      "noteName": "E4",
      "velocity": 1,
      "duration": "96i"
    },
    {
      "time": "169728i",
      "midiNote": 59,
      "noteName": "B3",
      "velocity": 0.8818897637795275,
      "duration": "96i"
    },
    {
      "time": "169728i",
      "midiNote": 56,
      "noteName": "G#3",
      "velocity": 0.8818897637795275,
      "duration": "96i"
    },
    {
      "time": "169728i",
      "midiNote": 65,
      "noteName": "F4",
      "velocity": 1,
      "duration": "96i"
    },
    {
      "time": "169824i",
      "midiNote": 59,
      "noteName": "B3",
      "velocity": 0.7559055118110236,
      "duration": "96i"
    },
    {
      "time": "169824i",
      "midiNote": 56,
      "noteName": "G#3",
      "velocity": 0.7559055118110236,
      "duration": "96i"
    },
    {
      "time": "169824i",
      "midiNote": 65,
      "noteName": "F4",
      "velocity": 0.8818897637795275,
      "duration": "96i"
    },
    {
      "time": "169920i",
      "midiNote": 59,
      "noteName": "B3",
      "velocity": 0.8188976377952756,
      "duration": "96i"
    },
    {
      "time": "169920i",
      "midiNote": 56,
      "noteName": "G#3",
      "velocity": 0.8188976377952756,
      "duration": "96i"
    },
    {
      "time": "169920i",
      "midiNote": 65,
      "noteName": "F4",
      "velocity": 0.9448818897637795,
      "duration": "96i"
    },
    {
      "time": "170016i",
      "midiNote": 59,
      "noteName": "B3",
      "velocity": 0.8818897637795275,
      "duration": "96i"
    },
    {
      "time": "170016i",
      "midiNote": 56,
      "noteName": "G#3",
      "velocity": 0.8818897637795275,
      "duration": "96i"
    },
    {
      "time": "170016i",
      "midiNote": 65,
      "noteName": "F4",
      "velocity": 1,
      "duration": "96i"
    },
    {
      "time": "170208i",
      "midiNote": 59,
      "noteName": "B3",
      "velocity": 0.8818897637795275,
      "duration": "192i"
    },
    {
      "time": "170208i",
      "midiNote": 56,
      "noteName": "G#3",
      "velocity": 0.8818897637795275,
      "duration": "192i"
    },
    {
      "time": "170208i",
      "midiNote": 65,
      "noteName": "F4",
      "velocity": 1,
      "duration": "192i"
    },
    {
      "time": "170400i",
      "midiNote": 59,
      "noteName": "B3",
      "velocity": 0.8818897637795275,
      "duration": "96i"
    },
    {
      "time": "170400i",
      "midiNote": 56,
      "noteName": "G#3",
      "velocity": 0.8818897637795275,
      "duration": "96i"
    },
    {
      "time": "170400i",
      "midiNote": 65,
      "noteName": "F4",
      "velocity": 1,
      "duration": "96i"
    },
    {
      "time": "170496i",
      "midiNote": 59,
      "noteName": "B3",
      "velocity": 0.8818897637795275,
      "duration": "96i"
    },
    {
      "time": "170496i",
      "midiNote": 56,
      "noteName": "G#3",
      "velocity": 0.8818897637795275,
      "duration": "96i"
    },
    {
      "time": "170496i",
      "midiNote": 65,
      "noteName": "F4",
      "velocity": 1,
      "duration": "96i"
    },
    {
      "time": "170592i",
      "midiNote": 59,
      "noteName": "B3",
      "velocity": 0.7559055118110236,
      "duration": "96i"
    },
    {
      "time": "170592i",
      "midiNote": 56,
      "noteName": "G#3",
      "velocity": 0.7559055118110236,
      "duration": "96i"
    },
    {
      "time": "170592i",
      "midiNote": 65,
      "noteName": "F4",
      "velocity": 0.8818897637795275,
      "duration": "96i"
    },
    {
      "time": "170688i",
      "midiNote": 59,
      "noteName": "B3",
      "velocity": 0.8188976377952756,
      "duration": "96i"
    },
    {
      "time": "170688i",
      "midiNote": 56,
      "noteName": "G#3",
      "velocity": 0.8188976377952756,
      "duration": "96i"
    },
    {
      "time": "170688i",
      "midiNote": 65,
      "noteName": "F4",
      "velocity": 0.9448818897637795,
      "duration": "96i"
    },
    {
      "time": "170784i",
      "midiNote": 59,
      "noteName": "B3",
      "velocity": 0.8818897637795275,
      "duration": "96i"
    },
    {
      "time": "170784i",
      "midiNote": 56,
      "noteName": "G#3",
      "velocity": 0.8818897637795275,
      "duration": "96i"
    },
    {
      "time": "170784i",
      "midiNote": 65,
      "noteName": "F4",
      "velocity": 1,
      "duration": "96i"
    },
    {
      "time": "170976i",
      "midiNote": 59,
      "noteName": "B3",
      "velocity": 0.8818897637795275,
      "duration": "192i"
    },
    {
      "time": "170976i",
      "midiNote": 56,
      "noteName": "G#3",
      "velocity": 0.8818897637795275,
      "duration": "192i"
    },
    {
      "time": "170976i",
      "midiNote": 65,
      "noteName": "F4",
      "velocity": 1,
      "duration": "192i"
    },
    {
      "time": "171168i",
      "midiNote": 59,
      "noteName": "B3",
      "velocity": 0.8818897637795275,
      "duration": "96i"
    },
    {
      "time": "171168i",
      "midiNote": 56,
      "noteName": "G#3",
      "velocity": 0.8818897637795275,
      "duration": "96i"
    },
    {
      "time": "171168i",
      "midiNote": 65,
      "noteName": "F4",
      "velocity": 1,
      "duration": "96i"
    },
    {
      "time": "171264i",
      "midiNote": 57,
      "noteName": "A3",
      "velocity": 0.8818897637795275,
      "duration": "96i"
    },
    {
      "time": "171264i",
      "midiNote": 61,
      "noteName": "C#4",
      "velocity": 0.8818897637795275,
      "duration": "96i"
    },
    {
      "time": "171264i",
      "midiNote": 66,
      "noteName": "F#4",
      "velocity": 1,
      "duration": "96i"
    },
    {
      "time": "171360i",
      "midiNote": 57,
      "noteName": "A3",
      "velocity": 0.7559055118110236,
      "duration": "96i"
    },
    {
      "time": "171360i",
      "midiNote": 61,
      "noteName": "C#4",
      "velocity": 0.7559055118110236,
      "duration": "96i"
    },
    {
      "time": "171360i",
      "midiNote": 66,
      "noteName": "F#4",
      "velocity": 0.8818897637795275,
      "duration": "96i"
    },
    {
      "time": "171456i",
      "midiNote": 57,
      "noteName": "A3",
      "velocity": 0.8188976377952756,
      "duration": "96i"
    },
    {
      "time": "171456i",
      "midiNote": 61,
      "noteName": "C#4",
      "velocity": 0.8188976377952756,
      "duration": "96i"
    },
    {
      "time": "171456i",
      "midiNote": 66,
      "noteName": "F#4",
      "velocity": 0.9448818897637795,
      "duration": "96i"
    },
    {
      "time": "171552i",
      "midiNote": 57,
      "noteName": "A3",
      "velocity": 0.8818897637795275,
      "duration": "96i"
    },
    {
      "time": "171552i",
      "midiNote": 61,
      "noteName": "C#4",
      "velocity": 0.8818897637795275,
      "duration": "96i"
    },
    {
      "time": "171552i",
      "midiNote": 66,
      "noteName": "F#4",
      "velocity": 1,
      "duration": "96i"
    },
    {
      "time": "171744i",
      "midiNote": 57,
      "noteName": "A3",
      "velocity": 0.8818897637795275,
      "duration": "192i"
    },
    {
      "time": "171744i",
      "midiNote": 61,
      "noteName": "C#4",
      "velocity": 0.8818897637795275,
      "duration": "192i"
    },
    {
      "time": "171744i",
      "midiNote": 66,
      "noteName": "F#4",
      "velocity": 1,
      "duration": "192i"
    },
    {
      "time": "171936i",
      "midiNote": 57,
      "noteName": "A3",
      "velocity": 0.8818897637795275,
      "duration": "96i"
    },
    {
      "time": "171936i",
      "midiNote": 61,
      "noteName": "C#4",
      "velocity": 0.8818897637795275,
      "duration": "96i"
    },
    {
      "time": "171936i",
      "midiNote": 66,
      "noteName": "F#4",
      "velocity": 1,
      "duration": "96i"
    },
    {
      "time": "172032i",
      "midiNote": 57,
      "noteName": "A3",
      "velocity": 0.8818897637795275,
      "duration": "96i"
    },
    {
      "time": "172032i",
      "midiNote": 61,
      "noteName": "C#4",
      "velocity": 0.8818897637795275,
      "duration": "96i"
    },
    {
      "time": "172032i",
      "midiNote": 66,
      "noteName": "F#4",
      "velocity": 1,
      "duration": "96i"
    },
    {
      "time": "172128i",
      "midiNote": 57,
      "noteName": "A3",
      "velocity": 0.7559055118110236,
      "duration": "96i"
    },
    {
      "time": "172128i",
      "midiNote": 61,
      "noteName": "C#4",
      "velocity": 0.7559055118110236,
      "duration": "96i"
    },
    {
      "time": "172128i",
      "midiNote": 66,
      "noteName": "F#4",
      "velocity": 0.8818897637795275,
      "duration": "96i"
    },
    {
      "time": "172224i",
      "midiNote": 57,
      "noteName": "A3",
      "velocity": 0.8188976377952756,
      "duration": "96i"
    },
    {
      "time": "172224i",
      "midiNote": 61,
      "noteName": "C#4",
      "velocity": 0.8188976377952756,
      "duration": "96i"
    },
    {
      "time": "172224i",
      "midiNote": 66,
      "noteName": "F#4",
      "velocity": 0.9448818897637795,
      "duration": "96i"
    },
    {
      "time": "172320i",
      "midiNote": 57,
      "noteName": "A3",
      "velocity": 0.8818897637795275,
      "duration": "96i"
    },
    {
      "time": "172320i",
      "midiNote": 61,
      "noteName": "C#4",
      "velocity": 0.8818897637795275,
      "duration": "96i"
    },
    {
      "time": "172320i",
      "midiNote": 66,
      "noteName": "F#4",
      "velocity": 1,
      "duration": "96i"
    },
    {
      "time": "172512i",
      "midiNote": 57,
      "noteName": "A3",
      "velocity": 0.8818897637795275,
      "duration": "192i"
    },
    {
      "time": "172512i",
      "midiNote": 61,
      "noteName": "C#4",
      "velocity": 0.8818897637795275,
      "duration": "192i"
    },
    {
      "time": "172512i",
      "midiNote": 66,
      "noteName": "F#4",
      "velocity": 1,
      "duration": "192i"
    },
    {
      "time": "172704i",
      "midiNote": 57,
      "noteName": "A3",
      "velocity": 0.8818897637795275,
      "duration": "96i"
    },
    {
      "time": "172704i",
      "midiNote": 61,
      "noteName": "C#4",
      "velocity": 0.8818897637795275,
      "duration": "96i"
    },
    {
      "time": "172704i",
      "midiNote": 66,
      "noteName": "F#4",
      "velocity": 1,
      "duration": "192i"
    },
    {
      "time": "172800i",
      "midiNote": 57,
      "noteName": "A3",
      "velocity": 0.8818897637795275,
      "duration": "96i"
    },
    {
      "time": "172800i",
      "midiNote": 62,
      "noteName": "D4",
      "velocity": 0.8818897637795275,
      "duration": "96i"
    },
    {
      "time": "172800i",
      "midiNote": 66,
      "noteName": "F#4",
      "velocity": 1,
      "duration": "0i"
    },
    {
      "time": "172896i",
      "midiNote": 57,
      "noteName": "A3",
      "velocity": 0.7559055118110236,
      "duration": "96i"
    },
    {
      "time": "172896i",
      "midiNote": 62,
      "noteName": "D4",
      "velocity": 0.7559055118110236,
      "duration": "96i"
    },
    {
      "time": "172896i",
      "midiNote": 66,
      "noteName": "F#4",
      "velocity": 0.8818897637795275,
      "duration": "96i"
    },
    {
      "time": "172992i",
      "midiNote": 57,
      "noteName": "A3",
      "velocity": 0.8188976377952756,
      "duration": "96i"
    },
    {
      "time": "172992i",
      "midiNote": 62,
      "noteName": "D4",
      "velocity": 0.8188976377952756,
      "duration": "96i"
    },
    {
      "time": "172992i",
      "midiNote": 66,
      "noteName": "F#4",
      "velocity": 0.9448818897637795,
      "duration": "96i"
    },
    {
      "time": "173088i",
      "midiNote": 57,
      "noteName": "A3",
      "velocity": 0.8818897637795275,
      "duration": "96i"
    },
    {
      "time": "173088i",
      "midiNote": 62,
      "noteName": "D4",
      "velocity": 0.8818897637795275,
      "duration": "96i"
    },
    {
      "time": "173088i",
      "midiNote": 66,
      "noteName": "F#4",
      "velocity": 1,
      "duration": "96i"
    },
    {
      "time": "173280i",
      "midiNote": 57,
      "noteName": "A3",
      "velocity": 0.8818897637795275,
      "duration": "192i"
    },
    {
      "time": "173280i",
      "midiNote": 62,
      "noteName": "D4",
      "velocity": 0.8818897637795275,
      "duration": "192i"
    },
    {
      "time": "173280i",
      "midiNote": 66,
      "noteName": "F#4",
      "velocity": 1,
      "duration": "192i"
    },
    {
      "time": "173472i",
      "midiNote": 57,
      "noteName": "A3",
      "velocity": 0.8818897637795275,
      "duration": "96i"
    },
    {
      "time": "173472i",
      "midiNote": 62,
      "noteName": "D4",
      "velocity": 0.8818897637795275,
      "duration": "96i"
    },
    {
      "time": "173472i",
      "midiNote": 66,
      "noteName": "F#4",
      "velocity": 1,
      "duration": "96i"
    },
    {
      "time": "173568i",
      "midiNote": 57,
      "noteName": "A3",
      "velocity": 0.8818897637795275,
      "duration": "96i"
    },
    {
      "time": "173568i",
      "midiNote": 62,
      "noteName": "D4",
      "velocity": 0.8818897637795275,
      "duration": "96i"
    },
    {
      "time": "173568i",
      "midiNote": 66,
      "noteName": "F#4",
      "velocity": 1,
      "duration": "96i"
    },
    {
      "time": "173664i",
      "midiNote": 57,
      "noteName": "A3",
      "velocity": 0.7559055118110236,
      "duration": "96i"
    },
    {
      "time": "173664i",
      "midiNote": 62,
      "noteName": "D4",
      "velocity": 0.7559055118110236,
      "duration": "96i"
    },
    {
      "time": "173664i",
      "midiNote": 66,
      "noteName": "F#4",
      "velocity": 0.8818897637795275,
      "duration": "96i"
    },
    {
      "time": "173760i",
      "midiNote": 57,
      "noteName": "A3",
      "velocity": 0.8188976377952756,
      "duration": "96i"
    },
    {
      "time": "173760i",
      "midiNote": 62,
      "noteName": "D4",
      "velocity": 0.8188976377952756,
      "duration": "96i"
    },
    {
      "time": "173760i",
      "midiNote": 66,
      "noteName": "F#4",
      "velocity": 0.9448818897637795,
      "duration": "96i"
    },
    {
      "time": "173856i",
      "midiNote": 57,
      "noteName": "A3",
      "velocity": 0.8818897637795275,
      "duration": "96i"
    },
    {
      "time": "173856i",
      "midiNote": 62,
      "noteName": "D4",
      "velocity": 0.8818897637795275,
      "duration": "96i"
    },
    {
      "time": "173856i",
      "midiNote": 66,
      "noteName": "F#4",
      "velocity": 1,
      "duration": "96i"
    },
    {
      "time": "174048i",
      "midiNote": 57,
      "noteName": "A3",
      "velocity": 0.8818897637795275,
      "duration": "192i"
    },
    {
      "time": "174048i",
      "midiNote": 62,
      "noteName": "D4",
      "velocity": 0.8818897637795275,
      "duration": "192i"
    },
    {
      "time": "174048i",
      "midiNote": 66,
      "noteName": "F#4",
      "velocity": 1,
      "duration": "192i"
    },
    {
      "time": "174240i",
      "midiNote": 57,
      "noteName": "A3",
      "velocity": 0.8818897637795275,
      "duration": "96i"
    },
    {
      "time": "174240i",
      "midiNote": 62,
      "noteName": "D4",
      "velocity": 0.8818897637795275,
      "duration": "96i"
    },
    {
      "time": "174240i",
      "midiNote": 66,
      "noteName": "F#4",
      "velocity": 1,
      "duration": "96i"
    },
    {
      "time": "174336i",
      "midiNote": 50,
      "noteName": "D3",
      "velocity": 0.8818897637795275,
      "duration": "96i"
    },
    {
      "time": "174336i",
      "midiNote": 56,
      "noteName": "G#3",
      "velocity": 0.8818897637795275,
      "duration": "96i"
    },
    {
      "time": "174336i",
      "midiNote": 64,
      "noteName": "E4",
      "velocity": 1,
      "duration": "96i"
    },
    {
      "time": "174432i",
      "midiNote": 50,
      "noteName": "D3",
      "velocity": 0.7559055118110236,
      "duration": "96i"
    },
    {
      "time": "174432i",
      "midiNote": 56,
      "noteName": "G#3",
      "velocity": 0.7559055118110236,
      "duration": "96i"
    },
    {
      "time": "174432i",
      "midiNote": 64,
      "noteName": "E4",
      "velocity": 0.8818897637795275,
      "duration": "96i"
    },
    {
      "time": "174528i",
      "midiNote": 50,
      "noteName": "D3",
      "velocity": 0.8188976377952756,
      "duration": "96i"
    },
    {
      "time": "174528i",
      "midiNote": 56,
      "noteName": "G#3",
      "velocity": 0.8188976377952756,
      "duration": "96i"
    },
    {
      "time": "174528i",
      "midiNote": 64,
      "noteName": "E4",
      "velocity": 0.9448818897637795,
      "duration": "96i"
    },
    {
      "time": "174624i",
      "midiNote": 50,
      "noteName": "D3",
      "velocity": 0.8818897637795275,
      "duration": "96i"
    },
    {
      "time": "174624i",
      "midiNote": 56,
      "noteName": "G#3",
      "velocity": 0.8818897637795275,
      "duration": "96i"
    },
    {
      "time": "174624i",
      "midiNote": 64,
      "noteName": "E4",
      "velocity": 1,
      "duration": "96i"
    },
    {
      "time": "174816i",
      "midiNote": 50,
      "noteName": "D3",
      "velocity": 0.8818897637795275,
      "duration": "192i"
    },
    {
      "time": "174816i",
      "midiNote": 56,
      "noteName": "G#3",
      "velocity": 0.8818897637795275,
      "duration": "192i"
    },
    {
      "time": "174816i",
      "midiNote": 64,
      "noteName": "E4",
      "velocity": 1,
      "duration": "192i"
    },
    {
      "time": "175008i",
      "midiNote": 50,
      "noteName": "D3",
      "velocity": 0.8818897637795275,
      "duration": "96i"
    },
    {
      "time": "175008i",
      "midiNote": 56,
      "noteName": "G#3",
      "velocity": 0.8818897637795275,
      "duration": "96i"
    },
    {
      "time": "175008i",
      "midiNote": 64,
      "noteName": "E4",
      "velocity": 1,
      "duration": "96i"
    },
    {
      "time": "175104i",
      "midiNote": 50,
      "noteName": "D3",
      "velocity": 0.8818897637795275,
      "duration": "96i"
    },
    {
      "time": "175104i",
      "midiNote": 56,
      "noteName": "G#3",
      "velocity": 0.8818897637795275,
      "duration": "96i"
    },
    {
      "time": "175104i",
      "midiNote": 64,
      "noteName": "E4",
      "velocity": 1,
      "duration": "96i"
    },
    {
      "time": "175200i",
      "midiNote": 50,
      "noteName": "D3",
      "velocity": 0.7559055118110236,
      "duration": "96i"
    },
    {
      "time": "175200i",
      "midiNote": 56,
      "noteName": "G#3",
      "velocity": 0.7559055118110236,
      "duration": "96i"
    },
    {
      "time": "175200i",
      "midiNote": 64,
      "noteName": "E4",
      "velocity": 0.8818897637795275,
      "duration": "96i"
    },
    {
      "time": "175296i",
      "midiNote": 50,
      "noteName": "D3",
      "velocity": 0.8188976377952756,
      "duration": "96i"
    },
    {
      "time": "175296i",
      "midiNote": 56,
      "noteName": "G#3",
      "velocity": 0.8188976377952756,
      "duration": "96i"
    },
    {
      "time": "175296i",
      "midiNote": 64,
      "noteName": "E4",
      "velocity": 0.9448818897637795,
      "duration": "96i"
    },
    {
      "time": "175392i",
      "midiNote": 50,
      "noteName": "D3",
      "velocity": 0.8818897637795275,
      "duration": "96i"
    },
    {
      "time": "175392i",
      "midiNote": 56,
      "noteName": "G#3",
      "velocity": 0.8818897637795275,
      "duration": "96i"
    },
    {
      "time": "175392i",
      "midiNote": 64,
      "noteName": "E4",
      "velocity": 1,
      "duration": "96i"
    },
    {
      "time": "175584i",
      "midiNote": 50,
      "noteName": "D3",
      "velocity": 0.8818897637795275,
      "duration": "192i"
    },
    {
      "time": "175584i",
      "midiNote": 56,
      "noteName": "G#3",
      "velocity": 0.8818897637795275,
      "duration": "192i"
    },
    {
      "time": "175584i",
      "midiNote": 64,
      "noteName": "E4",
      "velocity": 1,
      "duration": "192i"
    },
    {
      "time": "175776i",
      "midiNote": 50,
      "noteName": "D3",
      "velocity": 0.8818897637795275,
      "duration": "96i"
    },
    {
      "time": "175776i",
      "midiNote": 56,
      "noteName": "G#3",
      "velocity": 0.8818897637795275,
      "duration": "96i"
    },
    {
      "time": "175776i",
      "midiNote": 64,
      "noteName": "E4",
      "velocity": 1,
      "duration": "96i"
    },
    {
      "time": "175872i",
      "midiNote": 59,
      "noteName": "B3",
      "velocity": 0.8818897637795275,
      "duration": "96i"
    },
    {
      "time": "175872i",
      "midiNote": 56,
      "noteName": "G#3",
      "velocity": 0.8818897637795275,
      "duration": "96i"
    },
    {
      "time": "175872i",
      "midiNote": 65,
      "noteName": "F4",
      "velocity": 1,
      "duration": "96i"
    },
    {
      "time": "175968i",
      "midiNote": 59,
      "noteName": "B3",
      "velocity": 0.7559055118110236,
      "duration": "96i"
    },
    {
      "time": "175968i",
      "midiNote": 56,
      "noteName": "G#3",
      "velocity": 0.7559055118110236,
      "duration": "96i"
    },
    {
      "time": "175968i",
      "midiNote": 65,
      "noteName": "F4",
      "velocity": 0.8818897637795275,
      "duration": "96i"
    },
    {
      "time": "176064i",
      "midiNote": 59,
      "noteName": "B3",
      "velocity": 0.8188976377952756,
      "duration": "96i"
    },
    {
      "time": "176064i",
      "midiNote": 56,
      "noteName": "G#3",
      "velocity": 0.8188976377952756,
      "duration": "96i"
    },
    {
      "time": "176064i",
      "midiNote": 65,
      "noteName": "F4",
      "velocity": 0.9448818897637795,
      "duration": "96i"
    },
    {
      "time": "176160i",
      "midiNote": 59,
      "noteName": "B3",
      "velocity": 0.8818897637795275,
      "duration": "96i"
    },
    {
      "time": "176160i",
      "midiNote": 56,
      "noteName": "G#3",
      "velocity": 0.8818897637795275,
      "duration": "96i"
    },
    {
      "time": "176160i",
      "midiNote": 65,
      "noteName": "F4",
      "velocity": 1,
      "duration": "96i"
    },
    {
      "time": "176352i",
      "midiNote": 59,
      "noteName": "B3",
      "velocity": 0.8818897637795275,
      "duration": "192i"
    },
    {
      "time": "176352i",
      "midiNote": 56,
      "noteName": "G#3",
      "velocity": 0.8818897637795275,
      "duration": "192i"
    },
    {
      "time": "176352i",
      "midiNote": 65,
      "noteName": "F4",
      "velocity": 1,
      "duration": "192i"
    },
    {
      "time": "176544i",
      "midiNote": 59,
      "noteName": "B3",
      "velocity": 0.8818897637795275,
      "duration": "96i"
    },
    {
      "time": "176544i",
      "midiNote": 56,
      "noteName": "G#3",
      "velocity": 0.8818897637795275,
      "duration": "96i"
    },
    {
      "time": "176544i",
      "midiNote": 65,
      "noteName": "F4",
      "velocity": 1,
      "duration": "96i"
    },
    {
      "time": "176640i",
      "midiNote": 59,
      "noteName": "B3",
      "velocity": 0.8818897637795275,
      "duration": "96i"
    },
    {
      "time": "176640i",
      "midiNote": 56,
      "noteName": "G#3",
      "velocity": 0.8818897637795275,
      "duration": "96i"
    },
    {
      "time": "176640i",
      "midiNote": 65,
      "noteName": "F4",
      "velocity": 1,
      "duration": "96i"
    },
    {
      "time": "176736i",
      "midiNote": 59,
      "noteName": "B3",
      "velocity": 0.7559055118110236,
      "duration": "96i"
    },
    {
      "time": "176736i",
      "midiNote": 56,
      "noteName": "G#3",
      "velocity": 0.7559055118110236,
      "duration": "96i"
    },
    {
      "time": "176736i",
      "midiNote": 65,
      "noteName": "F4",
      "velocity": 0.8818897637795275,
      "duration": "96i"
    },
    {
      "time": "176832i",
      "midiNote": 59,
      "noteName": "B3",
      "velocity": 0.8188976377952756,
      "duration": "96i"
    },
    {
      "time": "176832i",
      "midiNote": 56,
      "noteName": "G#3",
      "velocity": 0.8188976377952756,
      "duration": "96i"
    },
    {
      "time": "176832i",
      "midiNote": 65,
      "noteName": "F4",
      "velocity": 0.9448818897637795,
      "duration": "96i"
    },
    {
      "time": "176928i",
      "midiNote": 59,
      "noteName": "B3",
      "velocity": 0.8818897637795275,
      "duration": "96i"
    },
    {
      "time": "176928i",
      "midiNote": 56,
      "noteName": "G#3",
      "velocity": 0.8818897637795275,
      "duration": "96i"
    },
    {
      "time": "176928i",
      "midiNote": 65,
      "noteName": "F4",
      "velocity": 1,
      "duration": "96i"
    },
    {
      "time": "177120i",
      "midiNote": 59,
      "noteName": "B3",
      "velocity": 0.8818897637795275,
      "duration": "192i"
    },
    {
      "time": "177120i",
      "midiNote": 56,
      "noteName": "G#3",
      "velocity": 0.8818897637795275,
      "duration": "192i"
    },
    {
      "time": "177120i",
      "midiNote": 65,
      "noteName": "F4",
      "velocity": 1,
      "duration": "192i"
    },
    {
      "time": "177312i",
      "midiNote": 59,
      "noteName": "B3",
      "velocity": 0.8818897637795275,
      "duration": "96i"
    },
    {
      "time": "177312i",
      "midiNote": 56,
      "noteName": "G#3",
      "velocity": 0.8818897637795275,
      "duration": "96i"
    },
    {
      "time": "177312i",
      "midiNote": 65,
      "noteName": "F4",
      "velocity": 1,
      "duration": "96i"
    }
  ],
  [
    {
      "time": "768i",
      "midiNote": 37,
      "noteName": "C#2",
      "velocity": 1,
      "duration": "864i"
    },
    {
      "time": "1632i",
      "midiNote": 44,
      "noteName": "G#2",
      "velocity": 1,
      "duration": "96i"
    },
    {
      "time": "1728i",
      "midiNote": 41,
      "noteName": "F2",
      "velocity": 1,
      "duration": "96i"
    },
    {
      "time": "1824i",
      "midiNote": 38,
      "noteName": "D2",
      "velocity": 1,
      "duration": "96i"
    },
    {
      "time": "1920i",
      "midiNote": 37,
      "noteName": "C#2",
      "velocity": 1,
      "duration": "1152i"
    },
    {
      "time": "5376i",
      "midiNote": 30,
      "noteName": "F#1",
      "velocity": 0.8818897637795275,
      "duration": "336i"
    },
    {
      "time": "5760i",
      "midiNote": 30,
      "noteName": "F#1",
      "velocity": 0.8818897637795275,
      "duration": "96i"
    },
    {
      "time": "6144i",
      "midiNote": 30,
      "noteName": "F#1",
      "velocity": 0.8818897637795275,
      "duration": "336i"
    },
    {
      "time": "6528i",
      "midiNote": 30,
      "noteName": "F#1",
      "velocity": 0.8818897637795275,
      "duration": "96i"
    },
    {
      "time": "6912i",
      "midiNote": 38,
      "noteName": "D2",
      "velocity": 0.8818897637795275,
      "duration": "336i"
    },
    {
      "time": "7296i",
      "midiNote": 38,
      "noteName": "D2",
      "velocity": 0.8818897637795275,
      "duration": "96i"
    },
    {
      "time": "7680i",
      "midiNote": 38,
      "noteName": "D2",
      "velocity": 0.8818897637795275,
      "duration": "336i"
    },
    {
      "time": "8064i",
      "midiNote": 38,
      "noteName": "D2",
      "velocity": 0.8818897637795275,
      "duration": "96i"
    },
    {
      "time": "8448i",
      "midiNote": 28,
      "noteName": "E1",
      "velocity": 0.8818897637795275,
      "duration": "336i"
    },
    {
      "time": "8832i",
      "midiNote": 28,
      "noteName": "E1",
      "velocity": 0.8818897637795275,
      "duration": "96i"
    },
    {
      "time": "9216i",
      "midiNote": 28,
      "noteName": "E1",
      "velocity": 0.8818897637795275,
      "duration": "336i"
    },
    {
      "time": "9600i",
      "midiNote": 28,
      "noteName": "E1",
      "velocity": 0.8818897637795275,
      "duration": "96i"
    },
    {
      "time": "9984i",
      "midiNote": 37,
      "noteName": "C#2",
      "velocity": 0.8818897637795275,
      "duration": "336i"
    },
    {
      "time": "10368i",
      "midiNote": 37,
      "noteName": "C#2",
      "velocity": 0.8818897637795275,
      "duration": "96i"
    },
    {
      "time": "10752i",
      "midiNote": 37,
      "noteName": "C#2",
      "velocity": 0.8818897637795275,
      "duration": "336i"
    },
    {
      "time": "11136i",
      "midiNote": 37,
      "noteName": "C#2",
      "velocity": 0.8818897637795275,
      "duration": "96i"
    },
    {
      "time": "11520i",
      "midiNote": 30,
      "noteName": "F#1",
      "velocity": 0.8818897637795275,
      "duration": "336i"
    },
    {
      "time": "11904i",
      "midiNote": 30,
      "noteName": "F#1",
      "velocity": 0.8818897637795275,
      "duration": "96i"
    },
    {
      "time": "12288i",
      "midiNote": 30,
      "noteName": "F#1",
      "velocity": 0.8818897637795275,
      "duration": "336i"
    },
    {
      "time": "12672i",
      "midiNote": 30,
      "noteName": "F#1",
      "velocity": 0.8818897637795275,
      "duration": "96i"
    },
    {
      "time": "13056i",
      "midiNote": 38,
      "noteName": "D2",
      "velocity": 0.8818897637795275,
      "duration": "336i"
    },
    {
      "time": "13440i",
      "midiNote": 38,
      "noteName": "D2",
      "velocity": 0.8818897637795275,
      "duration": "96i"
    },
    {
      "time": "13824i",
      "midiNote": 38,
      "noteName": "D2",
      "velocity": 0.8818897637795275,
      "duration": "336i"
    },
    {
      "time": "14208i",
      "midiNote": 38,
      "noteName": "D2",
      "velocity": 0.8818897637795275,
      "duration": "96i"
    },
    {
      "time": "14592i",
      "midiNote": 28,
      "noteName": "E1",
      "velocity": 0.8818897637795275,
      "duration": "336i"
    },
    {
      "time": "14976i",
      "midiNote": 28,
      "noteName": "E1",
      "velocity": 0.8818897637795275,
      "duration": "96i"
    },
    {
      "time": "15360i",
      "midiNote": 28,
      "noteName": "E1",
      "velocity": 0.8818897637795275,
      "duration": "336i"
    },
    {
      "time": "15744i",
      "midiNote": 28,
      "noteName": "E1",
      "velocity": 0.8818897637795275,
      "duration": "96i"
    },
    {
      "time": "16128i",
      "midiNote": 37,
      "noteName": "C#2",
      "velocity": 0.8818897637795275,
      "duration": "336i"
    },
    {
      "time": "16512i",
      "midiNote": 37,
      "noteName": "C#2",
      "velocity": 0.8818897637795275,
      "duration": "96i"
    },
    {
      "time": "16896i",
      "midiNote": 37,
      "noteName": "C#2",
      "velocity": 0.8818897637795275,
      "duration": "336i"
    },
    {
      "time": "17280i",
      "midiNote": 37,
      "noteName": "C#2",
      "velocity": 0.8818897637795275,
      "duration": "96i"
    },
    {
      "time": "17664i",
      "midiNote": 30,
      "noteName": "F#1",
      "velocity": 0.8818897637795275,
      "duration": "336i"
    },
    {
      "time": "18048i",
      "midiNote": 30,
      "noteName": "F#1",
      "velocity": 0.8818897637795275,
      "duration": "96i"
    },
    {
      "time": "18432i",
      "midiNote": 30,
      "noteName": "F#1",
      "velocity": 0.8818897637795275,
      "duration": "336i"
    },
    {
      "time": "18816i",
      "midiNote": 30,
      "noteName": "F#1",
      "velocity": 0.8818897637795275,
      "duration": "96i"
    },
    {
      "time": "19200i",
      "midiNote": 38,
      "noteName": "D2",
      "velocity": 0.8818897637795275,
      "duration": "336i"
    },
    {
      "time": "19584i",
      "midiNote": 38,
      "noteName": "D2",
      "velocity": 0.8818897637795275,
      "duration": "96i"
    },
    {
      "time": "19968i",
      "midiNote": 38,
      "noteName": "D2",
      "velocity": 0.8818897637795275,
      "duration": "336i"
    },
    {
      "time": "20352i",
      "midiNote": 38,
      "noteName": "D2",
      "velocity": 0.8818897637795275,
      "duration": "96i"
    },
    {
      "time": "20736i",
      "midiNote": 28,
      "noteName": "E1",
      "velocity": 0.8818897637795275,
      "duration": "336i"
    },
    {
      "time": "21120i",
      "midiNote": 28,
      "noteName": "E1",
      "velocity": 0.8818897637795275,
      "duration": "96i"
    },
    {
      "time": "21504i",
      "midiNote": 28,
      "noteName": "E1",
      "velocity": 0.8818897637795275,
      "duration": "336i"
    },
    {
      "time": "21888i",
      "midiNote": 28,
      "noteName": "E1",
      "velocity": 0.8818897637795275,
      "duration": "96i"
    },
    {
      "time": "22272i",
      "midiNote": 37,
      "noteName": "C#2",
      "velocity": 0.8818897637795275,
      "duration": "336i"
    },
    {
      "time": "22656i",
      "midiNote": 37,
      "noteName": "C#2",
      "velocity": 0.8818897637795275,
      "duration": "96i"
    },
    {
      "time": "23040i",
      "midiNote": 37,
      "noteName": "C#2",
      "velocity": 0.8818897637795275,
      "duration": "336i"
    },
    {
      "time": "23424i",
      "midiNote": 37,
      "noteName": "C#2",
      "velocity": 0.8818897637795275,
      "duration": "96i"
    },
    {
      "time": "23808i",
      "midiNote": 30,
      "noteName": "F#1",
      "velocity": 0.8818897637795275,
      "duration": "336i"
    },
    {
      "time": "24192i",
      "midiNote": 30,
      "noteName": "F#1",
      "velocity": 0.8818897637795275,
      "duration": "96i"
    },
    {
      "time": "24576i",
      "midiNote": 30,
      "noteName": "F#1",
      "velocity": 0.8818897637795275,
      "duration": "336i"
    },
    {
      "time": "24960i",
      "midiNote": 30,
      "noteName": "F#1",
      "velocity": 0.8818897637795275,
      "duration": "96i"
    },
    {
      "time": "25344i",
      "midiNote": 38,
      "noteName": "D2",
      "velocity": 0.8818897637795275,
      "duration": "336i"
    },
    {
      "time": "25728i",
      "midiNote": 38,
      "noteName": "D2",
      "velocity": 0.8818897637795275,
      "duration": "96i"
    },
    {
      "time": "26112i",
      "midiNote": 38,
      "noteName": "D2",
      "velocity": 0.8818897637795275,
      "duration": "336i"
    },
    {
      "time": "26496i",
      "midiNote": 38,
      "noteName": "D2",
      "velocity": 0.8818897637795275,
      "duration": "96i"
    },
    {
      "time": "26880i",
      "midiNote": 28,
      "noteName": "E1",
      "velocity": 0.8818897637795275,
      "duration": "336i"
    },
    {
      "time": "27264i",
      "midiNote": 28,
      "noteName": "E1",
      "velocity": 0.8818897637795275,
      "duration": "96i"
    },
    {
      "time": "27648i",
      "midiNote": 28,
      "noteName": "E1",
      "velocity": 0.8818897637795275,
      "duration": "336i"
    },
    {
      "time": "28032i",
      "midiNote": 28,
      "noteName": "E1",
      "velocity": 0.8818897637795275,
      "duration": "96i"
    },
    {
      "time": "28416i",
      "midiNote": 37,
      "noteName": "C#2",
      "velocity": 0.8818897637795275,
      "duration": "336i"
    },
    {
      "time": "28800i",
      "midiNote": 37,
      "noteName": "C#2",
      "velocity": 0.8818897637795275,
      "duration": "96i"
    },
    {
      "time": "29184i",
      "midiNote": 37,
      "noteName": "C#2",
      "velocity": 0.8818897637795275,
      "duration": "336i"
    },
    {
      "time": "29568i",
      "midiNote": 37,
      "noteName": "C#2",
      "velocity": 0.8818897637795275,
      "duration": "96i"
    },
    {
      "time": "29952i",
      "midiNote": 30,
      "noteName": "F#1",
      "velocity": 0.8818897637795275,
      "duration": "336i"
    },
    {
      "time": "30336i",
      "midiNote": 30,
      "noteName": "F#1",
      "velocity": 0.8818897637795275,
      "duration": "96i"
    },
    {
      "time": "30720i",
      "midiNote": 30,
      "noteName": "F#1",
      "velocity": 0.8818897637795275,
      "duration": "336i"
    },
    {
      "time": "31104i",
      "midiNote": 30,
      "noteName": "F#1",
      "velocity": 0.8818897637795275,
      "duration": "96i"
    },
    {
      "time": "31488i",
      "midiNote": 38,
      "noteName": "D2",
      "velocity": 0.8818897637795275,
      "duration": "336i"
    },
    {
      "time": "31872i",
      "midiNote": 38,
      "noteName": "D2",
      "velocity": 0.8818897637795275,
      "duration": "96i"
    },
    {
      "time": "32256i",
      "midiNote": 38,
      "noteName": "D2",
      "velocity": 0.8818897637795275,
      "duration": "336i"
    },
    {
      "time": "32640i",
      "midiNote": 38,
      "noteName": "D2",
      "velocity": 0.8818897637795275,
      "duration": "96i"
    },
    {
      "time": "33024i",
      "midiNote": 28,
      "noteName": "E1",
      "velocity": 0.8818897637795275,
      "duration": "336i"
    },
    {
      "time": "33408i",
      "midiNote": 28,
      "noteName": "E1",
      "velocity": 0.8818897637795275,
      "duration": "96i"
    },
    {
      "time": "33792i",
      "midiNote": 28,
      "noteName": "E1",
      "velocity": 0.8818897637795275,
      "duration": "336i"
    },
    {
      "time": "34176i",
      "midiNote": 28,
      "noteName": "E1",
      "velocity": 0.8818897637795275,
      "duration": "96i"
    },
    {
      "time": "34560i",
      "midiNote": 37,
      "noteName": "C#2",
      "velocity": 0.8818897637795275,
      "duration": "336i"
    },
    {
      "time": "34944i",
      "midiNote": 37,
      "noteName": "C#2",
      "velocity": 0.8818897637795275,
      "duration": "96i"
    },
    {
      "time": "35328i",
      "midiNote": 37,
      "noteName": "C#2",
      "velocity": 0.8818897637795275,
      "duration": "336i"
    },
    {
      "time": "35712i",
      "midiNote": 37,
      "noteName": "C#2",
      "velocity": 0.8818897637795275,
      "duration": "96i"
    },
    {
      "time": "36096i",
      "midiNote": 30,
      "noteName": "F#1",
      "velocity": 0.8818897637795275,
      "duration": "336i"
    },
    {
      "time": "36480i",
      "midiNote": 30,
      "noteName": "F#1",
      "velocity": 0.8818897637795275,
      "duration": "96i"
    },
    {
      "time": "36864i",
      "midiNote": 30,
      "noteName": "F#1",
      "velocity": 0.8818897637795275,
      "duration": "336i"
    },
    {
      "time": "37248i",
      "midiNote": 30,
      "noteName": "F#1",
      "velocity": 0.8818897637795275,
      "duration": "96i"
    },
    {
      "time": "37632i",
      "midiNote": 38,
      "noteName": "D2",
      "velocity": 0.8818897637795275,
      "duration": "336i"
    },
    {
      "time": "38016i",
      "midiNote": 38,
      "noteName": "D2",
      "velocity": 0.8818897637795275,
      "duration": "96i"
    },
    {
      "time": "38400i",
      "midiNote": 38,
      "noteName": "D2",
      "velocity": 0.8818897637795275,
      "duration": "336i"
    },
    {
      "time": "38784i",
      "midiNote": 38,
      "noteName": "D2",
      "velocity": 0.8818897637795275,
      "duration": "96i"
    },
    {
      "time": "39168i",
      "midiNote": 28,
      "noteName": "E1",
      "velocity": 0.8818897637795275,
      "duration": "336i"
    },
    {
      "time": "39552i",
      "midiNote": 28,
      "noteName": "E1",
      "velocity": 0.8818897637795275,
      "duration": "96i"
    },
    {
      "time": "39936i",
      "midiNote": 28,
      "noteName": "E1",
      "velocity": 0.8818897637795275,
      "duration": "336i"
    },
    {
      "time": "40320i",
      "midiNote": 28,
      "noteName": "E1",
      "velocity": 0.8818897637795275,
      "duration": "96i"
    },
    {
      "time": "40704i",
      "midiNote": 37,
      "noteName": "C#2",
      "velocity": 0.8818897637795275,
      "duration": "336i"
    },
    {
      "time": "41088i",
      "midiNote": 37,
      "noteName": "C#2",
      "velocity": 0.8818897637795275,
      "duration": "96i"
    },
    {
      "time": "41472i",
      "midiNote": 37,
      "noteName": "C#2",
      "velocity": 0.8818897637795275,
      "duration": "336i"
    },
    {
      "time": "41856i",
      "midiNote": 37,
      "noteName": "C#2",
      "velocity": 0.8818897637795275,
      "duration": "96i"
    },
    {
      "time": "42240i",
      "midiNote": 30,
      "noteName": "F#1",
      "velocity": 0.8818897637795275,
      "duration": "336i"
    },
    {
      "time": "42624i",
      "midiNote": 30,
      "noteName": "F#1",
      "velocity": 0.8818897637795275,
      "duration": "96i"
    },
    {
      "time": "43008i",
      "midiNote": 30,
      "noteName": "F#1",
      "velocity": 0.8818897637795275,
      "duration": "336i"
    },
    {
      "time": "43392i",
      "midiNote": 30,
      "noteName": "F#1",
      "velocity": 0.8818897637795275,
      "duration": "96i"
    },
    {
      "time": "43776i",
      "midiNote": 38,
      "noteName": "D2",
      "velocity": 0.8818897637795275,
      "duration": "336i"
    },
    {
      "time": "44160i",
      "midiNote": 38,
      "noteName": "D2",
      "velocity": 0.8818897637795275,
      "duration": "96i"
    },
    {
      "time": "44544i",
      "midiNote": 38,
      "noteName": "D2",
      "velocity": 0.8818897637795275,
      "duration": "336i"
    },
    {
      "time": "44928i",
      "midiNote": 38,
      "noteName": "D2",
      "velocity": 0.8818897637795275,
      "duration": "96i"
    },
    {
      "time": "45312i",
      "midiNote": 28,
      "noteName": "E1",
      "velocity": 0.8818897637795275,
      "duration": "336i"
    },
    {
      "time": "45696i",
      "midiNote": 28,
      "noteName": "E1",
      "velocity": 0.8818897637795275,
      "duration": "96i"
    },
    {
      "time": "46080i",
      "midiNote": 28,
      "noteName": "E1",
      "velocity": 0.8818897637795275,
      "duration": "336i"
    },
    {
      "time": "46464i",
      "midiNote": 28,
      "noteName": "E1",
      "velocity": 0.8818897637795275,
      "duration": "96i"
    },
    {
      "time": "46848i",
      "midiNote": 37,
      "noteName": "C#2",
      "velocity": 0.8818897637795275,
      "duration": "336i"
    },
    {
      "time": "47232i",
      "midiNote": 37,
      "noteName": "C#2",
      "velocity": 0.8818897637795275,
      "duration": "96i"
    },
    {
      "time": "47616i",
      "midiNote": 37,
      "noteName": "C#2",
      "velocity": 0.8818897637795275,
      "duration": "336i"
    },
    {
      "time": "48000i",
      "midiNote": 37,
      "noteName": "C#2",
      "velocity": 0.8818897637795275,
      "duration": "96i"
    },
    {
      "time": "48384i",
      "midiNote": 30,
      "noteName": "F#1",
      "velocity": 0.8818897637795275,
      "duration": "336i"
    },
    {
      "time": "48768i",
      "midiNote": 30,
      "noteName": "F#1",
      "velocity": 0.8818897637795275,
      "duration": "96i"
    },
    {
      "time": "49152i",
      "midiNote": 30,
      "noteName": "F#1",
      "velocity": 0.8818897637795275,
      "duration": "336i"
    },
    {
      "time": "49536i",
      "midiNote": 30,
      "noteName": "F#1",
      "velocity": 0.8818897637795275,
      "duration": "96i"
    },
    {
      "time": "49920i",
      "midiNote": 38,
      "noteName": "D2",
      "velocity": 0.8818897637795275,
      "duration": "336i"
    },
    {
      "time": "50304i",
      "midiNote": 38,
      "noteName": "D2",
      "velocity": 0.8818897637795275,
      "duration": "96i"
    },
    {
      "time": "50688i",
      "midiNote": 38,
      "noteName": "D2",
      "velocity": 0.8818897637795275,
      "duration": "336i"
    },
    {
      "time": "51072i",
      "midiNote": 38,
      "noteName": "D2",
      "velocity": 0.8818897637795275,
      "duration": "96i"
    },
    {
      "time": "51456i",
      "midiNote": 28,
      "noteName": "E1",
      "velocity": 0.8818897637795275,
      "duration": "336i"
    },
    {
      "time": "51840i",
      "midiNote": 28,
      "noteName": "E1",
      "velocity": 0.8818897637795275,
      "duration": "96i"
    },
    {
      "time": "52224i",
      "midiNote": 28,
      "noteName": "E1",
      "velocity": 0.8818897637795275,
      "duration": "336i"
    },
    {
      "time": "52608i",
      "midiNote": 28,
      "noteName": "E1",
      "velocity": 0.8818897637795275,
      "duration": "96i"
    },
    {
      "time": "52992i",
      "midiNote": 37,
      "noteName": "C#2",
      "velocity": 0.8818897637795275,
      "duration": "336i"
    },
    {
      "time": "53376i",
      "midiNote": 37,
      "noteName": "C#2",
      "velocity": 0.8818897637795275,
      "duration": "96i"
    },
    {
      "time": "53760i",
      "midiNote": 37,
      "noteName": "C#2",
      "velocity": 0.8818897637795275,
      "duration": "336i"
    },
    {
      "time": "54144i",
      "midiNote": 37,
      "noteName": "C#2",
      "velocity": 0.8818897637795275,
      "duration": "96i"
    },
    {
      "time": "54528i",
      "midiNote": 30,
      "noteName": "F#1",
      "velocity": 0.8818897637795275,
      "duration": "336i"
    },
    {
      "time": "54912i",
      "midiNote": 30,
      "noteName": "F#1",
      "velocity": 0.8818897637795275,
      "duration": "96i"
    },
    {
      "time": "55296i",
      "midiNote": 30,
      "noteName": "F#1",
      "velocity": 0.8818897637795275,
      "duration": "336i"
    },
    {
      "time": "55680i",
      "midiNote": 30,
      "noteName": "F#1",
      "velocity": 0.8818897637795275,
      "duration": "96i"
    },
    {
      "time": "56064i",
      "midiNote": 38,
      "noteName": "D2",
      "velocity": 0.8818897637795275,
      "duration": "336i"
    },
    {
      "time": "56448i",
      "midiNote": 38,
      "noteName": "D2",
      "velocity": 0.8818897637795275,
      "duration": "96i"
    },
    {
      "time": "56832i",
      "midiNote": 38,
      "noteName": "D2",
      "velocity": 0.8818897637795275,
      "duration": "336i"
    },
    {
      "time": "57216i",
      "midiNote": 38,
      "noteName": "D2",
      "velocity": 0.8818897637795275,
      "duration": "96i"
    },
    {
      "time": "57600i",
      "midiNote": 28,
      "noteName": "E1",
      "velocity": 0.8818897637795275,
      "duration": "336i"
    },
    {
      "time": "57984i",
      "midiNote": 28,
      "noteName": "E1",
      "velocity": 0.8818897637795275,
      "duration": "96i"
    },
    {
      "time": "58368i",
      "midiNote": 28,
      "noteName": "E1",
      "velocity": 0.8818897637795275,
      "duration": "336i"
    },
    {
      "time": "58752i",
      "midiNote": 28,
      "noteName": "E1",
      "velocity": 0.8818897637795275,
      "duration": "96i"
    },
    {
      "time": "59136i",
      "midiNote": 37,
      "noteName": "C#2",
      "velocity": 0.8818897637795275,
      "duration": "336i"
    },
    {
      "time": "59520i",
      "midiNote": 37,
      "noteName": "C#2",
      "velocity": 0.8818897637795275,
      "duration": "96i"
    },
    {
      "time": "59904i",
      "midiNote": 37,
      "noteName": "C#2",
      "velocity": 0.8818897637795275,
      "duration": "336i"
    },
    {
      "time": "60288i",
      "midiNote": 37,
      "noteName": "C#2",
      "velocity": 0.8818897637795275,
      "duration": "96i"
    },
    {
      "time": "60672i",
      "midiNote": 30,
      "noteName": "F#1",
      "velocity": 0.8818897637795275,
      "duration": "336i"
    },
    {
      "time": "61056i",
      "midiNote": 30,
      "noteName": "F#1",
      "velocity": 0.8818897637795275,
      "duration": "96i"
    },
    {
      "time": "61440i",
      "midiNote": 30,
      "noteName": "F#1",
      "velocity": 0.8818897637795275,
      "duration": "336i"
    },
    {
      "time": "61824i",
      "midiNote": 30,
      "noteName": "F#1",
      "velocity": 0.8818897637795275,
      "duration": "96i"
    },
    {
      "time": "62208i",
      "midiNote": 38,
      "noteName": "D2",
      "velocity": 0.8818897637795275,
      "duration": "336i"
    },
    {
      "time": "62592i",
      "midiNote": 38,
      "noteName": "D2",
      "velocity": 0.8818897637795275,
      "duration": "96i"
    },
    {
      "time": "62976i",
      "midiNote": 38,
      "noteName": "D2",
      "velocity": 0.8818897637795275,
      "duration": "336i"
    },
    {
      "time": "63360i",
      "midiNote": 38,
      "noteName": "D2",
      "velocity": 0.8818897637795275,
      "duration": "96i"
    },
    {
      "time": "63744i",
      "midiNote": 28,
      "noteName": "E1",
      "velocity": 0.8818897637795275,
      "duration": "336i"
    },
    {
      "time": "64128i",
      "midiNote": 28,
      "noteName": "E1",
      "velocity": 0.8818897637795275,
      "duration": "96i"
    },
    {
      "time": "64512i",
      "midiNote": 28,
      "noteName": "E1",
      "velocity": 0.8818897637795275,
      "duration": "336i"
    },
    {
      "time": "64896i",
      "midiNote": 28,
      "noteName": "E1",
      "velocity": 0.8818897637795275,
      "duration": "96i"
    },
    {
      "time": "65280i",
      "midiNote": 37,
      "noteName": "C#2",
      "velocity": 0.8818897637795275,
      "duration": "336i"
    },
    {
      "time": "65664i",
      "midiNote": 37,
      "noteName": "C#2",
      "velocity": 0.8818897637795275,
      "duration": "96i"
    },
    {
      "time": "66048i",
      "midiNote": 37,
      "noteName": "C#2",
      "velocity": 0.8818897637795275,
      "duration": "336i"
    },
    {
      "time": "66432i",
      "midiNote": 37,
      "noteName": "C#2",
      "velocity": 0.8818897637795275,
      "duration": "96i"
    },
    {
      "time": "66816i",
      "midiNote": 30,
      "noteName": "F#1",
      "velocity": 0.8818897637795275,
      "duration": "336i"
    },
    {
      "time": "67200i",
      "midiNote": 30,
      "noteName": "F#1",
      "velocity": 0.8818897637795275,
      "duration": "96i"
    },
    {
      "time": "67584i",
      "midiNote": 30,
      "noteName": "F#1",
      "velocity": 0.8818897637795275,
      "duration": "336i"
    },
    {
      "time": "67968i",
      "midiNote": 30,
      "noteName": "F#1",
      "velocity": 0.8818897637795275,
      "duration": "96i"
    },
    {
      "time": "68352i",
      "midiNote": 38,
      "noteName": "D2",
      "velocity": 0.8818897637795275,
      "duration": "336i"
    },
    {
      "time": "68736i",
      "midiNote": 38,
      "noteName": "D2",
      "velocity": 0.8818897637795275,
      "duration": "96i"
    },
    {
      "time": "69120i",
      "midiNote": 38,
      "noteName": "D2",
      "velocity": 0.8818897637795275,
      "duration": "336i"
    },
    {
      "time": "69504i",
      "midiNote": 38,
      "noteName": "D2",
      "velocity": 0.8818897637795275,
      "duration": "96i"
    },
    {
      "time": "69888i",
      "midiNote": 28,
      "noteName": "E1",
      "velocity": 0.8818897637795275,
      "duration": "336i"
    },
    {
      "time": "70272i",
      "midiNote": 28,
      "noteName": "E1",
      "velocity": 0.8818897637795275,
      "duration": "96i"
    },
    {
      "time": "70656i",
      "midiNote": 28,
      "noteName": "E1",
      "velocity": 0.8818897637795275,
      "duration": "336i"
    },
    {
      "time": "71040i",
      "midiNote": 28,
      "noteName": "E1",
      "velocity": 0.8818897637795275,
      "duration": "96i"
    },
    {
      "time": "71424i",
      "midiNote": 37,
      "noteName": "C#2",
      "velocity": 0.8818897637795275,
      "duration": "336i"
    },
    {
      "time": "71808i",
      "midiNote": 37,
      "noteName": "C#2",
      "velocity": 0.8818897637795275,
      "duration": "96i"
    },
    {
      "time": "72192i",
      "midiNote": 37,
      "noteName": "C#2",
      "velocity": 0.8818897637795275,
      "duration": "336i"
    },
    {
      "time": "72576i",
      "midiNote": 37,
      "noteName": "C#2",
      "velocity": 0.8818897637795275,
      "duration": "96i"
    },
    {
      "time": "72960i",
      "midiNote": 30,
      "noteName": "F#1",
      "velocity": 0.8818897637795275,
      "duration": "336i"
    },
    {
      "time": "73344i",
      "midiNote": 30,
      "noteName": "F#1",
      "velocity": 0.8818897637795275,
      "duration": "96i"
    },
    {
      "time": "73728i",
      "midiNote": 30,
      "noteName": "F#1",
      "velocity": 0.8818897637795275,
      "duration": "336i"
    },
    {
      "time": "74112i",
      "midiNote": 30,
      "noteName": "F#1",
      "velocity": 0.8818897637795275,
      "duration": "96i"
    },
    {
      "time": "74496i",
      "midiNote": 38,
      "noteName": "D2",
      "velocity": 0.8818897637795275,
      "duration": "336i"
    },
    {
      "time": "74880i",
      "midiNote": 38,
      "noteName": "D2",
      "velocity": 0.8818897637795275,
      "duration": "96i"
    },
    {
      "time": "75264i",
      "midiNote": 38,
      "noteName": "D2",
      "velocity": 0.8818897637795275,
      "duration": "336i"
    },
    {
      "time": "75648i",
      "midiNote": 38,
      "noteName": "D2",
      "velocity": 0.8818897637795275,
      "duration": "96i"
    },
    {
      "time": "76032i",
      "midiNote": 28,
      "noteName": "E1",
      "velocity": 0.8818897637795275,
      "duration": "336i"
    },
    {
      "time": "76416i",
      "midiNote": 28,
      "noteName": "E1",
      "velocity": 0.8818897637795275,
      "duration": "96i"
    },
    {
      "time": "76800i",
      "midiNote": 28,
      "noteName": "E1",
      "velocity": 0.8818897637795275,
      "duration": "336i"
    },
    {
      "time": "77184i",
      "midiNote": 28,
      "noteName": "E1",
      "velocity": 0.8818897637795275,
      "duration": "96i"
    },
    {
      "time": "77568i",
      "midiNote": 37,
      "noteName": "C#2",
      "velocity": 0.8818897637795275,
      "duration": "336i"
    },
    {
      "time": "77952i",
      "midiNote": 37,
      "noteName": "C#2",
      "velocity": 0.8818897637795275,
      "duration": "96i"
    },
    {
      "time": "78336i",
      "midiNote": 37,
      "noteName": "C#2",
      "velocity": 0.8818897637795275,
      "duration": "336i"
    },
    {
      "time": "78720i",
      "midiNote": 37,
      "noteName": "C#2",
      "velocity": 0.8818897637795275,
      "duration": "96i"
    },
    {
      "time": "79104i",
      "midiNote": 30,
      "noteName": "F#1",
      "velocity": 0.8818897637795275,
      "duration": "336i"
    },
    {
      "time": "79488i",
      "midiNote": 30,
      "noteName": "F#1",
      "velocity": 0.8818897637795275,
      "duration": "96i"
    },
    {
      "time": "79872i",
      "midiNote": 30,
      "noteName": "F#1",
      "velocity": 0.8818897637795275,
      "duration": "336i"
    },
    {
      "time": "80256i",
      "midiNote": 30,
      "noteName": "F#1",
      "velocity": 0.8818897637795275,
      "duration": "96i"
    },
    {
      "time": "80640i",
      "midiNote": 38,
      "noteName": "D2",
      "velocity": 0.8818897637795275,
      "duration": "336i"
    },
    {
      "time": "81024i",
      "midiNote": 38,
      "noteName": "D2",
      "velocity": 0.8818897637795275,
      "duration": "96i"
    },
    {
      "time": "81408i",
      "midiNote": 38,
      "noteName": "D2",
      "velocity": 0.8818897637795275,
      "duration": "336i"
    },
    {
      "time": "81792i",
      "midiNote": 38,
      "noteName": "D2",
      "velocity": 0.8818897637795275,
      "duration": "96i"
    },
    {
      "time": "82176i",
      "midiNote": 28,
      "noteName": "E1",
      "velocity": 0.8818897637795275,
      "duration": "336i"
    },
    {
      "time": "82560i",
      "midiNote": 28,
      "noteName": "E1",
      "velocity": 0.8818897637795275,
      "duration": "96i"
    },
    {
      "time": "82944i",
      "midiNote": 28,
      "noteName": "E1",
      "velocity": 0.8818897637795275,
      "duration": "336i"
    },
    {
      "time": "83328i",
      "midiNote": 28,
      "noteName": "E1",
      "velocity": 0.8818897637795275,
      "duration": "96i"
    },
    {
      "time": "83712i",
      "midiNote": 37,
      "noteName": "C#2",
      "velocity": 0.8818897637795275,
      "duration": "336i"
    },
    {
      "time": "84096i",
      "midiNote": 37,
      "noteName": "C#2",
      "velocity": 0.8818897637795275,
      "duration": "96i"
    },
    {
      "time": "84480i",
      "midiNote": 37,
      "noteName": "C#2",
      "velocity": 0.8818897637795275,
      "duration": "336i"
    },
    {
      "time": "84864i",
      "midiNote": 37,
      "noteName": "C#2",
      "velocity": 0.8818897637795275,
      "duration": "96i"
    },
    {
      "time": "85248i",
      "midiNote": 30,
      "noteName": "F#1",
      "velocity": 0.8818897637795275,
      "duration": "336i"
    },
    {
      "time": "85632i",
      "midiNote": 30,
      "noteName": "F#1",
      "velocity": 0.8818897637795275,
      "duration": "96i"
    },
    {
      "time": "86016i",
      "midiNote": 30,
      "noteName": "F#1",
      "velocity": 0.8818897637795275,
      "duration": "336i"
    },
    {
      "time": "86400i",
      "midiNote": 30,
      "noteName": "F#1",
      "velocity": 0.8818897637795275,
      "duration": "96i"
    },
    {
      "time": "86784i",
      "midiNote": 38,
      "noteName": "D2",
      "velocity": 0.8818897637795275,
      "duration": "336i"
    },
    {
      "time": "87168i",
      "midiNote": 38,
      "noteName": "D2",
      "velocity": 0.8818897637795275,
      "duration": "96i"
    },
    {
      "time": "87552i",
      "midiNote": 38,
      "noteName": "D2",
      "velocity": 0.8818897637795275,
      "duration": "336i"
    },
    {
      "time": "87936i",
      "midiNote": 38,
      "noteName": "D2",
      "velocity": 0.8818897637795275,
      "duration": "96i"
    },
    {
      "time": "88320i",
      "midiNote": 28,
      "noteName": "E1",
      "velocity": 0.8818897637795275,
      "duration": "336i"
    },
    {
      "time": "88704i",
      "midiNote": 28,
      "noteName": "E1",
      "velocity": 0.8818897637795275,
      "duration": "96i"
    },
    {
      "time": "89088i",
      "midiNote": 28,
      "noteName": "E1",
      "velocity": 0.8818897637795275,
      "duration": "336i"
    },
    {
      "time": "89472i",
      "midiNote": 28,
      "noteName": "E1",
      "velocity": 0.8818897637795275,
      "duration": "96i"
    },
    {
      "time": "89856i",
      "midiNote": 37,
      "noteName": "C#2",
      "velocity": 0.8818897637795275,
      "duration": "336i"
    },
    {
      "time": "90240i",
      "midiNote": 37,
      "noteName": "C#2",
      "velocity": 0.8818897637795275,
      "duration": "96i"
    },
    {
      "time": "90624i",
      "midiNote": 37,
      "noteName": "C#2",
      "velocity": 0.8818897637795275,
      "duration": "336i"
    },
    {
      "time": "91008i",
      "midiNote": 37,
      "noteName": "C#2",
      "velocity": 0.8818897637795275,
      "duration": "96i"
    },
    {
      "time": "91392i",
      "midiNote": 30,
      "noteName": "F#1",
      "velocity": 0.8818897637795275,
      "duration": "336i"
    },
    {
      "time": "91776i",
      "midiNote": 30,
      "noteName": "F#1",
      "velocity": 0.8818897637795275,
      "duration": "96i"
    },
    {
      "time": "92160i",
      "midiNote": 30,
      "noteName": "F#1",
      "velocity": 0.8818897637795275,
      "duration": "336i"
    },
    {
      "time": "92544i",
      "midiNote": 30,
      "noteName": "F#1",
      "velocity": 0.8818897637795275,
      "duration": "96i"
    },
    {
      "time": "92928i",
      "midiNote": 38,
      "noteName": "D2",
      "velocity": 0.8818897637795275,
      "duration": "336i"
    },
    {
      "time": "93312i",
      "midiNote": 38,
      "noteName": "D2",
      "velocity": 0.8818897637795275,
      "duration": "96i"
    },
    {
      "time": "93696i",
      "midiNote": 38,
      "noteName": "D2",
      "velocity": 0.8818897637795275,
      "duration": "336i"
    },
    {
      "time": "94080i",
      "midiNote": 38,
      "noteName": "D2",
      "velocity": 0.8818897637795275,
      "duration": "96i"
    },
    {
      "time": "94464i",
      "midiNote": 28,
      "noteName": "E1",
      "velocity": 0.8818897637795275,
      "duration": "336i"
    },
    {
      "time": "94848i",
      "midiNote": 28,
      "noteName": "E1",
      "velocity": 0.8818897637795275,
      "duration": "96i"
    },
    {
      "time": "95232i",
      "midiNote": 28,
      "noteName": "E1",
      "velocity": 0.8818897637795275,
      "duration": "336i"
    },
    {
      "time": "95616i",
      "midiNote": 28,
      "noteName": "E1",
      "velocity": 0.8818897637795275,
      "duration": "96i"
    },
    {
      "time": "96000i",
      "midiNote": 37,
      "noteName": "C#2",
      "velocity": 0.8818897637795275,
      "duration": "336i"
    },
    {
      "time": "96384i",
      "midiNote": 37,
      "noteName": "C#2",
      "velocity": 0.8818897637795275,
      "duration": "96i"
    },
    {
      "time": "96768i",
      "midiNote": 37,
      "noteName": "C#2",
      "velocity": 0.8818897637795275,
      "duration": "336i"
    },
    {
      "time": "97152i",
      "midiNote": 37,
      "noteName": "C#2",
      "velocity": 0.8818897637795275,
      "duration": "96i"
    },
    {
      "time": "97536i",
      "midiNote": 30,
      "noteName": "F#1",
      "velocity": 0.8818897637795275,
      "duration": "336i"
    },
    {
      "time": "97920i",
      "midiNote": 30,
      "noteName": "F#1",
      "velocity": 0.8818897637795275,
      "duration": "96i"
    },
    {
      "time": "98304i",
      "midiNote": 30,
      "noteName": "F#1",
      "velocity": 0.8818897637795275,
      "duration": "336i"
    },
    {
      "time": "98688i",
      "midiNote": 30,
      "noteName": "F#1",
      "velocity": 0.8818897637795275,
      "duration": "96i"
    },
    {
      "time": "99072i",
      "midiNote": 38,
      "noteName": "D2",
      "velocity": 0.8818897637795275,
      "duration": "336i"
    },
    {
      "time": "99456i",
      "midiNote": 38,
      "noteName": "D2",
      "velocity": 0.8818897637795275,
      "duration": "96i"
    },
    {
      "time": "99840i",
      "midiNote": 38,
      "noteName": "D2",
      "velocity": 0.8818897637795275,
      "duration": "336i"
    },
    {
      "time": "100224i",
      "midiNote": 38,
      "noteName": "D2",
      "velocity": 0.8818897637795275,
      "duration": "96i"
    },
    {
      "time": "100608i",
      "midiNote": 28,
      "noteName": "E1",
      "velocity": 0.8818897637795275,
      "duration": "336i"
    },
    {
      "time": "100992i",
      "midiNote": 28,
      "noteName": "E1",
      "velocity": 0.8818897637795275,
      "duration": "96i"
    },
    {
      "time": "101376i",
      "midiNote": 28,
      "noteName": "E1",
      "velocity": 0.8818897637795275,
      "duration": "336i"
    },
    {
      "time": "101760i",
      "midiNote": 28,
      "noteName": "E1",
      "velocity": 0.8818897637795275,
      "duration": "96i"
    },
    {
      "time": "102144i",
      "midiNote": 37,
      "noteName": "C#2",
      "velocity": 0.8818897637795275,
      "duration": "336i"
    },
    {
      "time": "102528i",
      "midiNote": 37,
      "noteName": "C#2",
      "velocity": 0.8818897637795275,
      "duration": "96i"
    },
    {
      "time": "102912i",
      "midiNote": 37,
      "noteName": "C#2",
      "velocity": 0.8818897637795275,
      "duration": "336i"
    },
    {
      "time": "103296i",
      "midiNote": 37,
      "noteName": "C#2",
      "velocity": 0.8818897637795275,
      "duration": "96i"
    },
    {
      "time": "103680i",
      "midiNote": 30,
      "noteName": "F#1",
      "velocity": 0.8818897637795275,
      "duration": "336i"
    },
    {
      "time": "104064i",
      "midiNote": 30,
      "noteName": "F#1",
      "velocity": 0.8818897637795275,
      "duration": "96i"
    },
    {
      "time": "104448i",
      "midiNote": 30,
      "noteName": "F#1",
      "velocity": 0.8818897637795275,
      "duration": "336i"
    },
    {
      "time": "104832i",
      "midiNote": 30,
      "noteName": "F#1",
      "velocity": 0.8818897637795275,
      "duration": "96i"
    },
    {
      "time": "105216i",
      "midiNote": 38,
      "noteName": "D2",
      "velocity": 0.8818897637795275,
      "duration": "336i"
    },
    {
      "time": "105600i",
      "midiNote": 38,
      "noteName": "D2",
      "velocity": 0.8818897637795275,
      "duration": "96i"
    },
    {
      "time": "105984i",
      "midiNote": 38,
      "noteName": "D2",
      "velocity": 0.8818897637795275,
      "duration": "336i"
    },
    {
      "time": "106368i",
      "midiNote": 38,
      "noteName": "D2",
      "velocity": 0.8818897637795275,
      "duration": "96i"
    },
    {
      "time": "106752i",
      "midiNote": 28,
      "noteName": "E1",
      "velocity": 0.8818897637795275,
      "duration": "336i"
    },
    {
      "time": "107136i",
      "midiNote": 28,
      "noteName": "E1",
      "velocity": 0.8818897637795275,
      "duration": "96i"
    },
    {
      "time": "107520i",
      "midiNote": 28,
      "noteName": "E1",
      "velocity": 0.8818897637795275,
      "duration": "336i"
    },
    {
      "time": "107904i",
      "midiNote": 28,
      "noteName": "E1",
      "velocity": 0.8818897637795275,
      "duration": "96i"
    },
    {
      "time": "108288i",
      "midiNote": 37,
      "noteName": "C#2",
      "velocity": 0.8818897637795275,
      "duration": "336i"
    },
    {
      "time": "108672i",
      "midiNote": 37,
      "noteName": "C#2",
      "velocity": 0.8818897637795275,
      "duration": "96i"
    },
    {
      "time": "109056i",
      "midiNote": 37,
      "noteName": "C#2",
      "velocity": 0.8818897637795275,
      "duration": "336i"
    },
    {
      "time": "109440i",
      "midiNote": 37,
      "noteName": "C#2",
      "velocity": 0.8818897637795275,
      "duration": "96i"
    },
    {
      "time": "109824i",
      "midiNote": 30,
      "noteName": "F#1",
      "velocity": 0.8818897637795275,
      "duration": "336i"
    },
    {
      "time": "110208i",
      "midiNote": 30,
      "noteName": "F#1",
      "velocity": 0.8818897637795275,
      "duration": "96i"
    },
    {
      "time": "110592i",
      "midiNote": 30,
      "noteName": "F#1",
      "velocity": 0.8818897637795275,
      "duration": "336i"
    },
    {
      "time": "110976i",
      "midiNote": 30,
      "noteName": "F#1",
      "velocity": 0.8818897637795275,
      "duration": "96i"
    },
    {
      "time": "111360i",
      "midiNote": 38,
      "noteName": "D2",
      "velocity": 0.8818897637795275,
      "duration": "336i"
    },
    {
      "time": "111744i",
      "midiNote": 38,
      "noteName": "D2",
      "velocity": 0.8818897637795275,
      "duration": "96i"
    },
    {
      "time": "112128i",
      "midiNote": 38,
      "noteName": "D2",
      "velocity": 0.8818897637795275,
      "duration": "336i"
    },
    {
      "time": "112512i",
      "midiNote": 38,
      "noteName": "D2",
      "velocity": 0.8818897637795275,
      "duration": "96i"
    },
    {
      "time": "112896i",
      "midiNote": 28,
      "noteName": "E1",
      "velocity": 0.8818897637795275,
      "duration": "336i"
    },
    {
      "time": "113280i",
      "midiNote": 28,
      "noteName": "E1",
      "velocity": 0.8818897637795275,
      "duration": "96i"
    },
    {
      "time": "113664i",
      "midiNote": 28,
      "noteName": "E1",
      "velocity": 0.8818897637795275,
      "duration": "336i"
    },
    {
      "time": "114048i",
      "midiNote": 28,
      "noteName": "E1",
      "velocity": 0.8818897637795275,
      "duration": "96i"
    },
    {
      "time": "114432i",
      "midiNote": 37,
      "noteName": "C#2",
      "velocity": 0.8818897637795275,
      "duration": "336i"
    },
    {
      "time": "114816i",
      "midiNote": 37,
      "noteName": "C#2",
      "velocity": 0.8818897637795275,
      "duration": "96i"
    },
    {
      "time": "115200i",
      "midiNote": 37,
      "noteName": "C#2",
      "velocity": 0.8818897637795275,
      "duration": "336i"
    },
    {
      "time": "115584i",
      "midiNote": 37,
      "noteName": "C#2",
      "velocity": 0.8818897637795275,
      "duration": "96i"
    },
    {
      "time": "115968i",
      "midiNote": 30,
      "noteName": "F#1",
      "velocity": 0.8818897637795275,
      "duration": "336i"
    },
    {
      "time": "116352i",
      "midiNote": 30,
      "noteName": "F#1",
      "velocity": 0.8818897637795275,
      "duration": "96i"
    },
    {
      "time": "116736i",
      "midiNote": 30,
      "noteName": "F#1",
      "velocity": 0.8818897637795275,
      "duration": "336i"
    },
    {
      "time": "117120i",
      "midiNote": 30,
      "noteName": "F#1",
      "velocity": 0.8818897637795275,
      "duration": "96i"
    },
    {
      "time": "117504i",
      "midiNote": 38,
      "noteName": "D2",
      "velocity": 0.8818897637795275,
      "duration": "336i"
    },
    {
      "time": "117888i",
      "midiNote": 38,
      "noteName": "D2",
      "velocity": 0.8818897637795275,
      "duration": "96i"
    },
    {
      "time": "118272i",
      "midiNote": 38,
      "noteName": "D2",
      "velocity": 0.8818897637795275,
      "duration": "336i"
    },
    {
      "time": "118656i",
      "midiNote": 38,
      "noteName": "D2",
      "velocity": 0.8818897637795275,
      "duration": "96i"
    },
    {
      "time": "119040i",
      "midiNote": 28,
      "noteName": "E1",
      "velocity": 0.8818897637795275,
      "duration": "336i"
    },
    {
      "time": "119424i",
      "midiNote": 28,
      "noteName": "E1",
      "velocity": 0.8818897637795275,
      "duration": "96i"
    },
    {
      "time": "119808i",
      "midiNote": 28,
      "noteName": "E1",
      "velocity": 0.8818897637795275,
      "duration": "336i"
    },
    {
      "time": "120192i",
      "midiNote": 28,
      "noteName": "E1",
      "velocity": 0.8818897637795275,
      "duration": "96i"
    },
    {
      "time": "120576i",
      "midiNote": 37,
      "noteName": "C#2",
      "velocity": 0.8818897637795275,
      "duration": "336i"
    },
    {
      "time": "120960i",
      "midiNote": 37,
      "noteName": "C#2",
      "velocity": 0.8818897637795275,
      "duration": "96i"
    },
    {
      "time": "121344i",
      "midiNote": 37,
      "noteName": "C#2",
      "velocity": 0.8818897637795275,
      "duration": "336i"
    },
    {
      "time": "121728i",
      "midiNote": 37,
      "noteName": "C#2",
      "velocity": 0.8818897637795275,
      "duration": "96i"
    },
    {
      "time": "122112i",
      "midiNote": 30,
      "noteName": "F#1",
      "velocity": 0.8818897637795275,
      "duration": "336i"
    },
    {
      "time": "122496i",
      "midiNote": 30,
      "noteName": "F#1",
      "velocity": 0.8818897637795275,
      "duration": "96i"
    },
    {
      "time": "122880i",
      "midiNote": 30,
      "noteName": "F#1",
      "velocity": 0.8818897637795275,
      "duration": "336i"
    },
    {
      "time": "123264i",
      "midiNote": 30,
      "noteName": "F#1",
      "velocity": 0.8818897637795275,
      "duration": "96i"
    },
    {
      "time": "123648i",
      "midiNote": 38,
      "noteName": "D2",
      "velocity": 0.8818897637795275,
      "duration": "336i"
    },
    {
      "time": "124032i",
      "midiNote": 38,
      "noteName": "D2",
      "velocity": 0.8818897637795275,
      "duration": "96i"
    },
    {
      "time": "124416i",
      "midiNote": 38,
      "noteName": "D2",
      "velocity": 0.8818897637795275,
      "duration": "336i"
    },
    {
      "time": "124800i",
      "midiNote": 38,
      "noteName": "D2",
      "velocity": 0.8818897637795275,
      "duration": "96i"
    },
    {
      "time": "125184i",
      "midiNote": 28,
      "noteName": "E1",
      "velocity": 0.8818897637795275,
      "duration": "336i"
    },
    {
      "time": "125568i",
      "midiNote": 28,
      "noteName": "E1",
      "velocity": 0.8818897637795275,
      "duration": "96i"
    },
    {
      "time": "125952i",
      "midiNote": 28,
      "noteName": "E1",
      "velocity": 0.8818897637795275,
      "duration": "336i"
    },
    {
      "time": "126336i",
      "midiNote": 28,
      "noteName": "E1",
      "velocity": 0.8818897637795275,
      "duration": "96i"
    },
    {
      "time": "126720i",
      "midiNote": 37,
      "noteName": "C#2",
      "velocity": 0.8818897637795275,
      "duration": "336i"
    },
    {
      "time": "127104i",
      "midiNote": 37,
      "noteName": "C#2",
      "velocity": 0.8818897637795275,
      "duration": "96i"
    },
    {
      "time": "127488i",
      "midiNote": 37,
      "noteName": "C#2",
      "velocity": 0.8818897637795275,
      "duration": "336i"
    },
    {
      "time": "127872i",
      "midiNote": 37,
      "noteName": "C#2",
      "velocity": 0.8818897637795275,
      "duration": "96i"
    },
    {
      "time": "128256i",
      "midiNote": 30,
      "noteName": "F#1",
      "velocity": 0.8818897637795275,
      "duration": "336i"
    },
    {
      "time": "128640i",
      "midiNote": 30,
      "noteName": "F#1",
      "velocity": 0.8818897637795275,
      "duration": "96i"
    },
    {
      "time": "129024i",
      "midiNote": 30,
      "noteName": "F#1",
      "velocity": 0.8818897637795275,
      "duration": "336i"
    },
    {
      "time": "129408i",
      "midiNote": 30,
      "noteName": "F#1",
      "velocity": 0.8818897637795275,
      "duration": "96i"
    },
    {
      "time": "129792i",
      "midiNote": 38,
      "noteName": "D2",
      "velocity": 0.8818897637795275,
      "duration": "336i"
    },
    {
      "time": "130176i",
      "midiNote": 38,
      "noteName": "D2",
      "velocity": 0.8818897637795275,
      "duration": "96i"
    },
    {
      "time": "130560i",
      "midiNote": 38,
      "noteName": "D2",
      "velocity": 0.8818897637795275,
      "duration": "336i"
    },
    {
      "time": "130944i",
      "midiNote": 38,
      "noteName": "D2",
      "velocity": 0.8818897637795275,
      "duration": "96i"
    },
    {
      "time": "131328i",
      "midiNote": 28,
      "noteName": "E1",
      "velocity": 0.8818897637795275,
      "duration": "336i"
    },
    {
      "time": "131712i",
      "midiNote": 28,
      "noteName": "E1",
      "velocity": 0.8818897637795275,
      "duration": "96i"
    },
    {
      "time": "132096i",
      "midiNote": 28,
      "noteName": "E1",
      "velocity": 0.8818897637795275,
      "duration": "336i"
    },
    {
      "time": "132480i",
      "midiNote": 28,
      "noteName": "E1",
      "velocity": 0.8818897637795275,
      "duration": "96i"
    },
    {
      "time": "132864i",
      "midiNote": 37,
      "noteName": "C#2",
      "velocity": 0.8818897637795275,
      "duration": "336i"
    },
    {
      "time": "133248i",
      "midiNote": 37,
      "noteName": "C#2",
      "velocity": 0.8818897637795275,
      "duration": "96i"
    },
    {
      "time": "133632i",
      "midiNote": 37,
      "noteName": "C#2",
      "velocity": 0.8818897637795275,
      "duration": "336i"
    },
    {
      "time": "134016i",
      "midiNote": 37,
      "noteName": "C#2",
      "velocity": 0.8818897637795275,
      "duration": "96i"
    },
    {
      "time": "134400i",
      "midiNote": 30,
      "noteName": "F#1",
      "velocity": 0.8818897637795275,
      "duration": "336i"
    },
    {
      "time": "134784i",
      "midiNote": 30,
      "noteName": "F#1",
      "velocity": 0.8818897637795275,
      "duration": "96i"
    },
    {
      "time": "135168i",
      "midiNote": 30,
      "noteName": "F#1",
      "velocity": 0.8818897637795275,
      "duration": "336i"
    },
    {
      "time": "135552i",
      "midiNote": 30,
      "noteName": "F#1",
      "velocity": 0.8818897637795275,
      "duration": "96i"
    },
    {
      "time": "135936i",
      "midiNote": 38,
      "noteName": "D2",
      "velocity": 0.8818897637795275,
      "duration": "336i"
    },
    {
      "time": "136320i",
      "midiNote": 38,
      "noteName": "D2",
      "velocity": 0.8818897637795275,
      "duration": "96i"
    },
    {
      "time": "136704i",
      "midiNote": 38,
      "noteName": "D2",
      "velocity": 0.8818897637795275,
      "duration": "336i"
    },
    {
      "time": "137088i",
      "midiNote": 38,
      "noteName": "D2",
      "velocity": 0.8818897637795275,
      "duration": "96i"
    },
    {
      "time": "137472i",
      "midiNote": 28,
      "noteName": "E1",
      "velocity": 0.8818897637795275,
      "duration": "336i"
    },
    {
      "time": "137856i",
      "midiNote": 28,
      "noteName": "E1",
      "velocity": 0.8818897637795275,
      "duration": "96i"
    },
    {
      "time": "138240i",
      "midiNote": 28,
      "noteName": "E1",
      "velocity": 0.8818897637795275,
      "duration": "336i"
    },
    {
      "time": "138624i",
      "midiNote": 28,
      "noteName": "E1",
      "velocity": 0.8818897637795275,
      "duration": "96i"
    },
    {
      "time": "139008i",
      "midiNote": 37,
      "noteName": "C#2",
      "velocity": 0.8818897637795275,
      "duration": "336i"
    },
    {
      "time": "139392i",
      "midiNote": 37,
      "noteName": "C#2",
      "velocity": 0.8818897637795275,
      "duration": "96i"
    },
    {
      "time": "139776i",
      "midiNote": 37,
      "noteName": "C#2",
      "velocity": 0.8818897637795275,
      "duration": "336i"
    },
    {
      "time": "140160i",
      "midiNote": 37,
      "noteName": "C#2",
      "velocity": 0.8818897637795275,
      "duration": "96i"
    },
    {
      "time": "140544i",
      "midiNote": 30,
      "noteName": "F#1",
      "velocity": 0.8818897637795275,
      "duration": "336i"
    },
    {
      "time": "140928i",
      "midiNote": 30,
      "noteName": "F#1",
      "velocity": 0.8818897637795275,
      "duration": "96i"
    },
    {
      "time": "141312i",
      "midiNote": 30,
      "noteName": "F#1",
      "velocity": 0.8818897637795275,
      "duration": "336i"
    },
    {
      "time": "141696i",
      "midiNote": 30,
      "noteName": "F#1",
      "velocity": 0.8818897637795275,
      "duration": "96i"
    },
    {
      "time": "142080i",
      "midiNote": 38,
      "noteName": "D2",
      "velocity": 0.8818897637795275,
      "duration": "336i"
    },
    {
      "time": "142464i",
      "midiNote": 38,
      "noteName": "D2",
      "velocity": 0.8818897637795275,
      "duration": "96i"
    },
    {
      "time": "142848i",
      "midiNote": 38,
      "noteName": "D2",
      "velocity": 0.8818897637795275,
      "duration": "336i"
    },
    {
      "time": "143232i",
      "midiNote": 38,
      "noteName": "D2",
      "velocity": 0.8818897637795275,
      "duration": "96i"
    },
    {
      "time": "143616i",
      "midiNote": 28,
      "noteName": "E1",
      "velocity": 0.8818897637795275,
      "duration": "336i"
    },
    {
      "time": "144000i",
      "midiNote": 28,
      "noteName": "E1",
      "velocity": 0.8818897637795275,
      "duration": "96i"
    },
    {
      "time": "144384i",
      "midiNote": 28,
      "noteName": "E1",
      "velocity": 0.8818897637795275,
      "duration": "336i"
    },
    {
      "time": "144768i",
      "midiNote": 28,
      "noteName": "E1",
      "velocity": 0.8818897637795275,
      "duration": "96i"
    },
    {
      "time": "145152i",
      "midiNote": 37,
      "noteName": "C#2",
      "velocity": 0.8818897637795275,
      "duration": "336i"
    },
    {
      "time": "145536i",
      "midiNote": 37,
      "noteName": "C#2",
      "velocity": 0.8818897637795275,
      "duration": "96i"
    },
    {
      "time": "145920i",
      "midiNote": 37,
      "noteName": "C#2",
      "velocity": 0.8818897637795275,
      "duration": "336i"
    },
    {
      "time": "146304i",
      "midiNote": 37,
      "noteName": "C#2",
      "velocity": 0.8818897637795275,
      "duration": "96i"
    },
    {
      "time": "146688i",
      "midiNote": 30,
      "noteName": "F#1",
      "velocity": 0.8818897637795275,
      "duration": "336i"
    },
    {
      "time": "147072i",
      "midiNote": 30,
      "noteName": "F#1",
      "velocity": 0.8818897637795275,
      "duration": "96i"
    },
    {
      "time": "147456i",
      "midiNote": 30,
      "noteName": "F#1",
      "velocity": 0.8818897637795275,
      "duration": "336i"
    },
    {
      "time": "147840i",
      "midiNote": 30,
      "noteName": "F#1",
      "velocity": 0.8818897637795275,
      "duration": "96i"
    },
    {
      "time": "148224i",
      "midiNote": 38,
      "noteName": "D2",
      "velocity": 0.8818897637795275,
      "duration": "336i"
    },
    {
      "time": "148608i",
      "midiNote": 38,
      "noteName": "D2",
      "velocity": 0.8818897637795275,
      "duration": "96i"
    },
    {
      "time": "148992i",
      "midiNote": 38,
      "noteName": "D2",
      "velocity": 0.8818897637795275,
      "duration": "336i"
    },
    {
      "time": "149376i",
      "midiNote": 38,
      "noteName": "D2",
      "velocity": 0.8818897637795275,
      "duration": "96i"
    },
    {
      "time": "149760i",
      "midiNote": 28,
      "noteName": "E1",
      "velocity": 0.8818897637795275,
      "duration": "336i"
    },
    {
      "time": "150144i",
      "midiNote": 28,
      "noteName": "E1",
      "velocity": 0.8818897637795275,
      "duration": "96i"
    },
    {
      "time": "150528i",
      "midiNote": 28,
      "noteName": "E1",
      "velocity": 0.8818897637795275,
      "duration": "336i"
    },
    {
      "time": "150912i",
      "midiNote": 28,
      "noteName": "E1",
      "velocity": 0.8818897637795275,
      "duration": "96i"
    },
    {
      "time": "151296i",
      "midiNote": 37,
      "noteName": "C#2",
      "velocity": 0.8818897637795275,
      "duration": "336i"
    },
    {
      "time": "151680i",
      "midiNote": 37,
      "noteName": "C#2",
      "velocity": 0.8818897637795275,
      "duration": "96i"
    },
    {
      "time": "152064i",
      "midiNote": 37,
      "noteName": "C#2",
      "velocity": 0.8818897637795275,
      "duration": "336i"
    },
    {
      "time": "152448i",
      "midiNote": 37,
      "noteName": "C#2",
      "velocity": 0.8818897637795275,
      "duration": "96i"
    },
    {
      "time": "152832i",
      "midiNote": 30,
      "noteName": "F#1",
      "velocity": 0.8818897637795275,
      "duration": "336i"
    },
    {
      "time": "153216i",
      "midiNote": 30,
      "noteName": "F#1",
      "velocity": 0.8818897637795275,
      "duration": "96i"
    },
    {
      "time": "153600i",
      "midiNote": 30,
      "noteName": "F#1",
      "velocity": 0.8818897637795275,
      "duration": "336i"
    },
    {
      "time": "153984i",
      "midiNote": 30,
      "noteName": "F#1",
      "velocity": 0.8818897637795275,
      "duration": "96i"
    },
    {
      "time": "154368i",
      "midiNote": 38,
      "noteName": "D2",
      "velocity": 0.8818897637795275,
      "duration": "336i"
    },
    {
      "time": "154752i",
      "midiNote": 38,
      "noteName": "D2",
      "velocity": 0.8818897637795275,
      "duration": "96i"
    },
    {
      "time": "155136i",
      "midiNote": 38,
      "noteName": "D2",
      "velocity": 0.8818897637795275,
      "duration": "336i"
    },
    {
      "time": "155520i",
      "midiNote": 38,
      "noteName": "D2",
      "velocity": 0.8818897637795275,
      "duration": "96i"
    },
    {
      "time": "155904i",
      "midiNote": 28,
      "noteName": "E1",
      "velocity": 0.8818897637795275,
      "duration": "336i"
    },
    {
      "time": "156288i",
      "midiNote": 28,
      "noteName": "E1",
      "velocity": 0.8818897637795275,
      "duration": "96i"
    },
    {
      "time": "156672i",
      "midiNote": 28,
      "noteName": "E1",
      "velocity": 0.8818897637795275,
      "duration": "336i"
    },
    {
      "time": "157056i",
      "midiNote": 28,
      "noteName": "E1",
      "velocity": 0.8818897637795275,
      "duration": "96i"
    },
    {
      "time": "157440i",
      "midiNote": 37,
      "noteName": "C#2",
      "velocity": 0.8818897637795275,
      "duration": "336i"
    },
    {
      "time": "157824i",
      "midiNote": 37,
      "noteName": "C#2",
      "velocity": 0.8818897637795275,
      "duration": "96i"
    },
    {
      "time": "158208i",
      "midiNote": 37,
      "noteName": "C#2",
      "velocity": 0.8818897637795275,
      "duration": "336i"
    },
    {
      "time": "158592i",
      "midiNote": 37,
      "noteName": "C#2",
      "velocity": 0.8818897637795275,
      "duration": "96i"
    },
    {
      "time": "158976i",
      "midiNote": 30,
      "noteName": "F#1",
      "velocity": 0.8818897637795275,
      "duration": "336i"
    },
    {
      "time": "159360i",
      "midiNote": 30,
      "noteName": "F#1",
      "velocity": 0.8818897637795275,
      "duration": "96i"
    },
    {
      "time": "159744i",
      "midiNote": 30,
      "noteName": "F#1",
      "velocity": 0.8818897637795275,
      "duration": "336i"
    },
    {
      "time": "160128i",
      "midiNote": 30,
      "noteName": "F#1",
      "velocity": 0.8818897637795275,
      "duration": "96i"
    },
    {
      "time": "160512i",
      "midiNote": 38,
      "noteName": "D2",
      "velocity": 0.8818897637795275,
      "duration": "336i"
    },
    {
      "time": "160896i",
      "midiNote": 38,
      "noteName": "D2",
      "velocity": 0.8818897637795275,
      "duration": "96i"
    },
    {
      "time": "161280i",
      "midiNote": 38,
      "noteName": "D2",
      "velocity": 0.8818897637795275,
      "duration": "336i"
    },
    {
      "time": "161664i",
      "midiNote": 38,
      "noteName": "D2",
      "velocity": 0.8818897637795275,
      "duration": "96i"
    },
    {
      "time": "162048i",
      "midiNote": 28,
      "noteName": "E1",
      "velocity": 0.8818897637795275,
      "duration": "336i"
    },
    {
      "time": "162432i",
      "midiNote": 28,
      "noteName": "E1",
      "velocity": 0.8818897637795275,
      "duration": "96i"
    },
    {
      "time": "162816i",
      "midiNote": 28,
      "noteName": "E1",
      "velocity": 0.8818897637795275,
      "duration": "336i"
    },
    {
      "time": "163200i",
      "midiNote": 28,
      "noteName": "E1",
      "velocity": 0.8818897637795275,
      "duration": "96i"
    },
    {
      "time": "163584i",
      "midiNote": 37,
      "noteName": "C#2",
      "velocity": 0.8818897637795275,
      "duration": "336i"
    },
    {
      "time": "163968i",
      "midiNote": 37,
      "noteName": "C#2",
      "velocity": 0.8818897637795275,
      "duration": "96i"
    },
    {
      "time": "164352i",
      "midiNote": 37,
      "noteName": "C#2",
      "velocity": 0.8818897637795275,
      "duration": "336i"
    },
    {
      "time": "164736i",
      "midiNote": 37,
      "noteName": "C#2",
      "velocity": 0.8818897637795275,
      "duration": "96i"
    },
    {
      "time": "165120i",
      "midiNote": 30,
      "noteName": "F#1",
      "velocity": 0.8818897637795275,
      "duration": "336i"
    },
    {
      "time": "165504i",
      "midiNote": 30,
      "noteName": "F#1",
      "velocity": 0.8818897637795275,
      "duration": "96i"
    },
    {
      "time": "165888i",
      "midiNote": 30,
      "noteName": "F#1",
      "velocity": 0.8818897637795275,
      "duration": "336i"
    },
    {
      "time": "166272i",
      "midiNote": 30,
      "noteName": "F#1",
      "velocity": 0.8818897637795275,
      "duration": "96i"
    },
    {
      "time": "166656i",
      "midiNote": 38,
      "noteName": "D2",
      "velocity": 0.8818897637795275,
      "duration": "336i"
    },
    {
      "time": "167040i",
      "midiNote": 38,
      "noteName": "D2",
      "velocity": 0.8818897637795275,
      "duration": "96i"
    },
    {
      "time": "167424i",
      "midiNote": 38,
      "noteName": "D2",
      "velocity": 0.8818897637795275,
      "duration": "336i"
    },
    {
      "time": "167808i",
      "midiNote": 38,
      "noteName": "D2",
      "velocity": 0.8818897637795275,
      "duration": "96i"
    },
    {
      "time": "168192i",
      "midiNote": 28,
      "noteName": "E1",
      "velocity": 0.8818897637795275,
      "duration": "336i"
    },
    {
      "time": "168576i",
      "midiNote": 28,
      "noteName": "E1",
      "velocity": 0.8818897637795275,
      "duration": "96i"
    },
    {
      "time": "168960i",
      "midiNote": 28,
      "noteName": "E1",
      "velocity": 0.8818897637795275,
      "duration": "336i"
    },
    {
      "time": "169344i",
      "midiNote": 28,
      "noteName": "E1",
      "velocity": 0.8818897637795275,
      "duration": "96i"
    },
    {
      "time": "169728i",
      "midiNote": 37,
      "noteName": "C#2",
      "velocity": 0.8818897637795275,
      "duration": "336i"
    },
    {
      "time": "170112i",
      "midiNote": 37,
      "noteName": "C#2",
      "velocity": 0.8818897637795275,
      "duration": "96i"
    },
    {
      "time": "170496i",
      "midiNote": 37,
      "noteName": "C#2",
      "velocity": 0.8818897637795275,
      "duration": "336i"
    },
    {
      "time": "170880i",
      "midiNote": 37,
      "noteName": "C#2",
      "velocity": 0.8818897637795275,
      "duration": "96i"
    },
    {
      "time": "171264i",
      "midiNote": 30,
      "noteName": "F#1",
      "velocity": 0.8818897637795275,
      "duration": "336i"
    },
    {
      "time": "171648i",
      "midiNote": 30,
      "noteName": "F#1",
      "velocity": 0.8818897637795275,
      "duration": "96i"
    },
    {
      "time": "172032i",
      "midiNote": 30,
      "noteName": "F#1",
      "velocity": 0.8818897637795275,
      "duration": "336i"
    },
    {
      "time": "172416i",
      "midiNote": 30,
      "noteName": "F#1",
      "velocity": 0.8818897637795275,
      "duration": "96i"
    },
    {
      "time": "172800i",
      "midiNote": 38,
      "noteName": "D2",
      "velocity": 0.8818897637795275,
      "duration": "336i"
    },
    {
      "time": "173184i",
      "midiNote": 38,
      "noteName": "D2",
      "velocity": 0.8818897637795275,
      "duration": "96i"
    },
    {
      "time": "173568i",
      "midiNote": 38,
      "noteName": "D2",
      "velocity": 0.8818897637795275,
      "duration": "336i"
    },
    {
      "time": "173952i",
      "midiNote": 38,
      "noteName": "D2",
      "velocity": 0.8818897637795275,
      "duration": "96i"
    },
    {
      "time": "174336i",
      "midiNote": 28,
      "noteName": "E1",
      "velocity": 0.8818897637795275,
      "duration": "336i"
    },
    {
      "time": "174720i",
      "midiNote": 28,
      "noteName": "E1",
      "velocity": 0.8818897637795275,
      "duration": "96i"
    },
    {
      "time": "175104i",
      "midiNote": 28,
      "noteName": "E1",
      "velocity": 0.8818897637795275,
      "duration": "336i"
    },
    {
      "time": "175488i",
      "midiNote": 28,
      "noteName": "E1",
      "velocity": 0.8818897637795275,
      "duration": "96i"
    },
    {
      "time": "175872i",
      "midiNote": 37,
      "noteName": "C#2",
      "velocity": 0.8818897637795275,
      "duration": "336i"
    },
    {
      "time": "176256i",
      "midiNote": 37,
      "noteName": "C#2",
      "velocity": 0.8818897637795275,
      "duration": "96i"
    },
    {
      "time": "176640i",
      "midiNote": 37,
      "noteName": "C#2",
      "velocity": 0.8818897637795275,
      "duration": "336i"
    },
    {
      "time": "177024i",
      "midiNote": 37,
      "noteName": "C#2",
      "velocity": 0.8818897637795275,
      "duration": "96i"
    }
  ],
  [
    {
      "time": "17760i",
      "midiNote": 61,
      "noteName": "C#4",
      "velocity": 1,
      "duration": "96i"
    },
    {
      "time": "17856i",
      "midiNote": 66,
      "noteName": "F#4",
      "velocity": 1,
      "duration": "96i"
    },
    {
      "time": "17952i",
      "midiNote": 68,
      "noteName": "G#4",
      "velocity": 1,
      "duration": "96i"
    },
    {
      "time": "18048i",
      "midiNote": 69,
      "noteName": "A4",
      "velocity": 1,
      "duration": "192i"
    },
    {
      "time": "18336i",
      "midiNote": 61,
      "noteName": "C#4",
      "velocity": 1,
      "duration": "96i"
    },
    {
      "time": "18432i",
      "midiNote": 66,
      "noteName": "F#4",
      "velocity": 1,
      "duration": "96i"
    },
    {
      "time": "18528i",
      "midiNote": 68,
      "noteName": "G#4",
      "velocity": 1,
      "duration": "96i"
    },
    {
      "time": "18624i",
      "midiNote": 69,
      "noteName": "A4",
      "velocity": 1,
      "duration": "576i"
    },
    {
      "time": "19296i",
      "midiNote": 62,
      "noteName": "D4",
      "velocity": 1,
      "duration": "96i"
    },
    {
      "time": "19392i",
      "midiNote": 66,
      "noteName": "F#4",
      "velocity": 1,
      "duration": "96i"
    },
    {
      "time": "19488i",
      "midiNote": 68,
      "noteName": "G#4",
      "velocity": 1,
      "duration": "96i"
    },
    {
      "time": "19584i",
      "midiNote": 69,
      "noteName": "A4",
      "velocity": 1,
      "duration": "192i"
    },
    {
      "time": "19872i",
      "midiNote": 62,
      "noteName": "D4",
      "velocity": 1,
      "duration": "96i"
    },
    {
      "time": "19968i",
      "midiNote": 66,
      "noteName": "F#4",
      "velocity": 1,
      "duration": "96i"
    },
    {
      "time": "20064i",
      "midiNote": 68,
      "noteName": "G#4",
      "velocity": 1,
      "duration": "96i"
    },
    {
      "time": "20160i",
      "midiNote": 69,
      "noteName": "A4",
      "velocity": 1,
      "duration": "576i"
    },
    {
      "time": "20832i",
      "midiNote": 59,
      "noteName": "B3",
      "velocity": 1,
      "duration": "96i"
    },
    {
      "time": "20928i",
      "midiNote": 64,
      "noteName": "E4",
      "velocity": 1,
      "duration": "96i"
    },
    {
      "time": "21024i",
      "midiNote": 66,
      "noteName": "F#4",
      "velocity": 1,
      "duration": "96i"
    },
    {
      "time": "21120i",
      "midiNote": 68,
      "noteName": "G#4",
      "velocity": 1,
      "duration": "192i"
    },
    {
      "time": "21408i",
      "midiNote": 59,
      "noteName": "B3",
      "velocity": 1,
      "duration": "96i"
    },
    {
      "time": "21504i",
      "midiNote": 64,
      "noteName": "E4",
      "velocity": 1,
      "duration": "96i"
    },
    {
      "time": "21600i",
      "midiNote": 66,
      "noteName": "F#4",
      "velocity": 1,
      "duration": "96i"
    },
    {
      "time": "21696i",
      "midiNote": 68,
      "noteName": "G#4",
      "velocity": 1,
      "duration": "576i"
    },
    {
      "time": "22368i",
      "midiNote": 69,
      "noteName": "A4",
      "velocity": 1,
      "duration": "96i"
    },
    {
      "time": "22464i",
      "midiNote": 71,
      "noteName": "B4",
      "velocity": 1,
      "duration": "96i"
    },
    {
      "time": "22560i",
      "midiNote": 69,
      "noteName": "A4",
      "velocity": 1,
      "duration": "96i"
    },
    {
      "time": "22656i",
      "midiNote": 68,
      "noteName": "G#4",
      "velocity": 1,
      "duration": "1152i"
    },
    {
      "time": "48384i",
      "midiNote": 69,
      "noteName": "A4",
      "velocity": 1,
      "duration": "96i"
    },
    {
      "time": "48480i",
      "midiNote": 68,
      "noteName": "G#4",
      "velocity": 1,
      "duration": "96i"
    },
    {
      "time": "48576i",
      "midiNote": 69,
      "noteName": "A4",
      "velocity": 1,
      "duration": "768i"
    },
    {
      "time": "49344i",
      "midiNote": 66,
      "noteName": "F#4",
      "velocity": 1,
      "duration": "96i"
    },
    {
      "time": "49440i",
      "midiNote": 68,
      "noteName": "G#4",
      "velocity": 1,
      "duration": "96i"
    },
    {
      "time": "49536i",
      "midiNote": 69,
      "noteName": "A4",
      "velocity": 1,
      "duration": "96i"
    },
    {
      "time": "49632i",
      "midiNote": 71,
      "noteName": "B4",
      "velocity": 1,
      "duration": "96i"
    },
    {
      "time": "49728i",
      "midiNote": 69,
      "noteName": "A4",
      "velocity": 1,
      "duration": "96i"
    },
    {
      "time": "49824i",
      "midiNote": 68,
      "noteName": "G#4",
      "velocity": 1,
      "duration": "96i"
    },
    {
      "time": "49920i",
      "midiNote": 69,
      "noteName": "A4",
      "velocity": 1,
      "duration": "96i"
    },
    {
      "time": "50016i",
      "midiNote": 68,
      "noteName": "G#4",
      "velocity": 1,
      "duration": "96i"
    },
    {
      "time": "50112i",
      "midiNote": 69,
      "noteName": "A4",
      "velocity": 1,
      "duration": "1344i"
    },
    {
      "time": "51456i",
      "midiNote": 68,
      "noteName": "G#4",
      "velocity": 1,
      "duration": "96i"
    },
    {
      "time": "51552i",
      "midiNote": 66,
      "noteName": "F#4",
      "velocity": 1,
      "duration": "96i"
    },
    {
      "time": "51648i",
      "midiNote": 68,
      "noteName": "G#4",
      "velocity": 1,
      "duration": "768i"
    },
    {
      "time": "52416i",
      "midiNote": 64,
      "noteName": "E4",
      "velocity": 1,
      "duration": "96i"
    },
    {
      "time": "52512i",
      "midiNote": 66,
      "noteName": "F#4",
      "velocity": 1,
      "duration": "96i"
    },
    {
      "time": "52608i",
      "midiNote": 68,
      "noteName": "G#4",
      "velocity": 1,
      "duration": "96i"
    },
    {
      "time": "52704i",
      "midiNote": 69,
      "noteName": "A4",
      "velocity": 1,
      "duration": "96i"
    },
    {
      "time": "52800i",
      "midiNote": 68,
      "noteName": "G#4",
      "velocity": 1,
      "duration": "96i"
    },
    {
      "time": "52896i",
      "midiNote": 66,
      "noteName": "F#4",
      "velocity": 1,
      "duration": "96i"
    },
    {
      "time": "52992i",
      "midiNote": 68,
      "noteName": "G#4",
      "velocity": 1,
      "duration": "96i"
    },
    {
      "time": "53088i",
      "midiNote": 66,
      "noteName": "F#4",
      "velocity": 1,
      "duration": "96i"
    },
    {
      "time": "53184i",
      "midiNote": 65,
      "noteName": "F4",
      "velocity": 1,
      "duration": "1344i"
    },
    {
      "time": "54528i",
      "midiNote": 69,
      "noteName": "A4",
      "velocity": 1,
      "duration": "96i"
    },
    {
      "time": "54528i",
      "midiNote": 61,
      "noteName": "C#4",
      "velocity": 1,
      "duration": "96i"
    },
    {
      "time": "54624i",
      "midiNote": 68,
      "noteName": "G#4",
      "velocity": 1,
      "duration": "96i"
    },
    {
      "time": "54624i",
      "midiNote": 59,
      "noteName": "B3",
      "velocity": 1,
      "duration": "96i"
    },
    {
      "time": "54720i",
      "midiNote": 69,
      "noteName": "A4",
      "velocity": 1,
      "duration": "768i"
    },
    {
      "time": "54720i",
      "midiNote": 61,
      "noteName": "C#4",
      "velocity": 1,
      "duration": "768i"
    },
    {
      "time": "55488i",
      "midiNote": 66,
      "noteName": "F#4",
      "velocity": 1,
      "duration": "96i"
    },
    {
      "time": "55488i",
      "midiNote": 57,
      "noteName": "A3",
      "velocity": 1,
      "duration": "96i"
    },
    {
      "time": "55584i",
      "midiNote": 68,
      "noteName": "G#4",
      "velocity": 1,
      "duration": "96i"
    },
    {
      "time": "55584i",
      "midiNote": 59,
      "noteName": "B3",
      "velocity": 1,
      "duration": "96i"
    },
    {
      "time": "55680i",
      "midiNote": 69,
      "noteName": "A4",
      "velocity": 1,
      "duration": "96i"
    },
    {
      "time": "55680i",
      "midiNote": 61,
      "noteName": "C#4",
      "velocity": 1,
      "duration": "96i"
    },
    {
      "time": "55776i",
      "midiNote": 71,
      "noteName": "B4",
      "velocity": 1,
      "duration": "96i"
    },
    {
      "time": "55776i",
      "midiNote": 62,
      "noteName": "D4",
      "velocity": 1,
      "duration": "96i"
    },
    {
      "time": "55872i",
      "midiNote": 69,
      "noteName": "A4",
      "velocity": 1,
      "duration": "96i"
    },
    {
      "time": "55872i",
      "midiNote": 61,
      "noteName": "C#4",
      "velocity": 1,
      "duration": "96i"
    },
    {
      "time": "55968i",
      "midiNote": 68,
      "noteName": "G#4",
      "velocity": 1,
      "duration": "96i"
    },
    {
      "time": "55968i",
      "midiNote": 59,
      "noteName": "B3",
      "velocity": 1,
      "duration": "96i"
    },
    {
      "time": "56064i",
      "midiNote": 69,
      "noteName": "A4",
      "velocity": 1,
      "duration": "96i"
    },
    {
      "time": "56064i",
      "midiNote": 61,
      "noteName": "C#4",
      "velocity": 1,
      "duration": "96i"
    },
    {
      "time": "56160i",
      "midiNote": 68,
      "noteName": "G#4",
      "velocity": 1,
      "duration": "96i"
    },
    {
      "time": "56160i",
      "midiNote": 59,
      "noteName": "B3",
      "velocity": 1,
      "duration": "96i"
    },
    {
      "time": "56256i",
      "midiNote": 69,
      "noteName": "A4",
      "velocity": 1,
      "duration": "1344i"
    },
    {
      "time": "56256i",
      "midiNote": 61,
      "noteName": "C#4",
      "velocity": 1,
      "duration": "1344i"
    },
    {
      "time": "57600i",
      "midiNote": 71,
      "noteName": "B4",
      "velocity": 1,
      "duration": "96i"
    },
    {
      "time": "57600i",
      "midiNote": 62,
      "noteName": "D4",
      "velocity": 1,
      "duration": "96i"
    },
    {
      "time": "57696i",
      "midiNote": 69,
      "noteName": "A4",
      "velocity": 1,
      "duration": "96i"
    },
    {
      "time": "57696i",
      "midiNote": 61,
      "noteName": "C#4",
      "velocity": 1,
      "duration": "96i"
    },
    {
      "time": "57792i",
      "midiNote": 71,
      "noteName": "B4",
      "velocity": 1,
      "duration": "768i"
    },
    {
      "time": "57792i",
      "midiNote": 62,
      "noteName": "D4",
      "velocity": 1,
      "duration": "768i"
    },
    {
      "time": "58560i",
      "midiNote": 68,
      "noteName": "G#4",
      "velocity": 1,
      "duration": "96i"
    },
    {
      "time": "58560i",
      "midiNote": 59,
      "noteName": "B3",
      "velocity": 1,
      "duration": "96i"
    },
    {
      "time": "58656i",
      "midiNote": 69,
      "noteName": "A4",
      "velocity": 1,
      "duration": "96i"
    },
    {
      "time": "58656i",
      "midiNote": 61,
      "noteName": "C#4",
      "velocity": 1,
      "duration": "96i"
    },
    {
      "time": "58752i",
      "midiNote": 71,
      "noteName": "B4",
      "velocity": 1,
      "duration": "96i"
    },
    {
      "time": "58752i",
      "midiNote": 62,
      "noteName": "D4",
      "velocity": 1,
      "duration": "96i"
    },
    {
      "time": "58848i",
      "midiNote": 73,
      "noteName": "C#5",
      "velocity": 1,
      "duration": "96i"
    },
    {
      "time": "58848i",
      "midiNote": 64,
      "noteName": "E4",
      "velocity": 1,
      "duration": "96i"
    },
    {
      "time": "58944i",
      "midiNote": 74,
      "noteName": "D5",
      "velocity": 1,
      "duration": "96i"
    },
    {
      "time": "58944i",
      "midiNote": 66,
      "noteName": "F#4",
      "velocity": 1,
      "duration": "96i"
    },
    {
      "time": "59040i",
      "midiNote": 76,
      "noteName": "E5",
      "velocity": 1,
      "duration": "96i"
    },
    {
      "time": "59040i",
      "midiNote": 68,
      "noteName": "G#4",
      "velocity": 1,
      "duration": "96i"
    },
    {
      "time": "59136i",
      "midiNote": 73,
      "noteName": "C#5",
      "velocity": 1,
      "duration": "96i"
    },
    {
      "time": "59136i",
      "midiNote": 65,
      "noteName": "F4",
      "velocity": 1,
      "duration": "96i"
    },
    {
      "time": "59232i",
      "midiNote": 74,
      "noteName": "D5",
      "velocity": 1,
      "duration": "96i"
    },
    {
      "time": "59232i",
      "midiNote": 66,
      "noteName": "F#4",
      "velocity": 1,
      "duration": "96i"
    },
    {
      "time": "59328i",
      "midiNote": 73,
      "noteName": "C#5",
      "velocity": 1,
      "duration": "1344i"
    },
    {
      "time": "59328i",
      "midiNote": 65,
      "noteName": "F4",
      "velocity": 1,
      "duration": "1344i"
    },
    {
      "time": "73056i",
      "midiNote": 61,
      "noteName": "C#4",
      "velocity": 1,
      "duration": "96i"
    },
    {
      "time": "73152i",
      "midiNote": 66,
      "noteName": "F#4",
      "velocity": 1,
      "duration": "96i"
    },
    {
      "time": "73248i",
      "midiNote": 68,
      "noteName": "G#4",
      "velocity": 1,
      "duration": "96i"
    },
    {
      "time": "73344i",
      "midiNote": 69,
      "noteName": "A4",
      "velocity": 1,
      "duration": "192i"
    },
    {
      "time": "73632i",
      "midiNote": 61,
      "noteName": "C#4",
      "velocity": 1,
      "duration": "96i"
    },
    {
      "time": "73728i",
      "midiNote": 66,
      "noteName": "F#4",
      "velocity": 1,
      "duration": "96i"
    },
    {
      "time": "73824i",
      "midiNote": 68,
      "noteName": "G#4",
      "velocity": 1,
      "duration": "96i"
    },
    {
      "time": "73920i",
      "midiNote": 69,
      "noteName": "A4",
      "velocity": 1,
      "duration": "576i"
    },
    {
      "time": "74592i",
      "midiNote": 62,
      "noteName": "D4",
      "velocity": 1,
      "duration": "96i"
    },
    {
      "time": "74688i",
      "midiNote": 66,
      "noteName": "F#4",
      "velocity": 1,
      "duration": "96i"
    },
    {
      "time": "74784i",
      "midiNote": 68,
      "noteName": "G#4",
      "velocity": 1,
      "duration": "96i"
    },
    {
      "time": "74880i",
      "midiNote": 69,
      "noteName": "A4",
      "velocity": 1,
      "duration": "192i"
    },
    {
      "time": "75168i",
      "midiNote": 62,
      "noteName": "D4",
      "velocity": 1,
      "duration": "96i"
    },
    {
      "time": "75264i",
      "midiNote": 66,
      "noteName": "F#4",
      "velocity": 1,
      "duration": "96i"
    },
    {
      "time": "75360i",
      "midiNote": 68,
      "noteName": "G#4",
      "velocity": 1,
      "duration": "96i"
    },
    {
      "time": "75456i",
      "midiNote": 69,
      "noteName": "A4",
      "velocity": 1,
      "duration": "576i"
    },
    {
      "time": "76128i",
      "midiNote": 59,
      "noteName": "B3",
      "velocity": 1,
      "duration": "96i"
    },
    {
      "time": "76224i",
      "midiNote": 64,
      "noteName": "E4",
      "velocity": 1,
      "duration": "96i"
    },
    {
      "time": "76320i",
      "midiNote": 66,
      "noteName": "F#4",
      "velocity": 1,
      "duration": "96i"
    },
    {
      "time": "76416i",
      "midiNote": 68,
      "noteName": "G#4",
      "velocity": 1,
      "duration": "192i"
    },
    {
      "time": "76704i",
      "midiNote": 59,
      "noteName": "B3",
      "velocity": 1,
      "duration": "96i"
    },
    {
      "time": "76800i",
      "midiNote": 64,
      "noteName": "E4",
      "velocity": 1,
      "duration": "96i"
    },
    {
      "time": "76896i",
      "midiNote": 66,
      "noteName": "F#4",
      "velocity": 1,
      "duration": "96i"
    },
    {
      "time": "76992i",
      "midiNote": 68,
      "noteName": "G#4",
      "velocity": 1,
      "duration": "576i"
    },
    {
      "time": "77664i",
      "midiNote": 69,
      "noteName": "A4",
      "velocity": 1,
      "duration": "96i"
    },
    {
      "time": "77760i",
      "midiNote": 71,
      "noteName": "B4",
      "velocity": 1,
      "duration": "96i"
    },
    {
      "time": "77856i",
      "midiNote": 69,
      "noteName": "A4",
      "velocity": 1,
      "duration": "96i"
    },
    {
      "time": "77952i",
      "midiNote": 68,
      "noteName": "G#4",
      "velocity": 1,
      "duration": "1152i"
    },
    {
      "time": "103680i",
      "midiNote": 69,
      "noteName": "A4",
      "velocity": 1,
      "duration": "96i"
    },
    {
      "time": "103776i",
      "midiNote": 68,
      "noteName": "G#4",
      "velocity": 1,
      "duration": "96i"
    },
    {
      "time": "103872i",
      "midiNote": 69,
      "noteName": "A4",
      "velocity": 1,
      "duration": "768i"
    },
    {
      "time": "104640i",
      "midiNote": 66,
      "noteName": "F#4",
      "velocity": 1,
      "duration": "96i"
    },
    {
      "time": "104736i",
      "midiNote": 68,
      "noteName": "G#4",
      "velocity": 1,
      "duration": "96i"
    },
    {
      "time": "104832i",
      "midiNote": 69,
      "noteName": "A4",
      "velocity": 1,
      "duration": "96i"
    },
    {
      "time": "104928i",
      "midiNote": 71,
      "noteName": "B4",
      "velocity": 1,
      "duration": "96i"
    },
    {
      "time": "105024i",
      "midiNote": 69,
      "noteName": "A4",
      "velocity": 1,
      "duration": "96i"
    },
    {
      "time": "105120i",
      "midiNote": 68,
      "noteName": "G#4",
      "velocity": 1,
      "duration": "96i"
    },
    {
      "time": "105216i",
      "midiNote": 69,
      "noteName": "A4",
      "velocity": 1,
      "duration": "96i"
    },
    {
      "time": "105312i",
      "midiNote": 68,
      "noteName": "G#4",
      "velocity": 1,
      "duration": "96i"
    },
    {
      "time": "105408i",
      "midiNote": 69,
      "noteName": "A4",
      "velocity": 1,
      "duration": "1344i"
    },
    {
      "time": "106752i",
      "midiNote": 68,
      "noteName": "G#4",
      "velocity": 1,
      "duration": "96i"
    },
    {
      "time": "106848i",
      "midiNote": 66,
      "noteName": "F#4",
      "velocity": 1,
      "duration": "96i"
    },
    {
      "time": "106944i",
      "midiNote": 68,
      "noteName": "G#4",
      "velocity": 1,
      "duration": "768i"
    },
    {
      "time": "107712i",
      "midiNote": 64,
      "noteName": "E4",
      "velocity": 1,
      "duration": "96i"
    },
    {
      "time": "107808i",
      "midiNote": 66,
      "noteName": "F#4",
      "velocity": 1,
      "duration": "96i"
    },
    {
      "time": "107904i",
      "midiNote": 68,
      "noteName": "G#4",
      "velocity": 1,
      "duration": "96i"
    },
    {
      "time": "108000i",
      "midiNote": 69,
      "noteName": "A4",
      "velocity": 1,
      "duration": "96i"
    },
    {
      "time": "108096i",
      "midiNote": 68,
      "noteName": "G#4",
      "velocity": 1,
      "duration": "96i"
    },
    {
      "time": "108192i",
      "midiNote": 66,
      "noteName": "F#4",
      "velocity": 1,
      "duration": "96i"
    },
    {
      "time": "108288i",
      "midiNote": 68,
      "noteName": "G#4",
      "velocity": 1,
      "duration": "96i"
    },
    {
      "time": "108384i",
      "midiNote": 66,
      "noteName": "F#4",
      "velocity": 1,
      "duration": "96i"
    },
    {
      "time": "108480i",
      "midiNote": 65,
      "noteName": "F4",
      "velocity": 1,
      "duration": "1344i"
    },
    {
      "time": "109824i",
      "midiNote": 69,
      "noteName": "A4",
      "velocity": 1,
      "duration": "96i"
    },
    {
      "time": "109824i",
      "midiNote": 61,
      "noteName": "C#4",
      "velocity": 1,
      "duration": "96i"
    },
    {
      "time": "109920i",
      "midiNote": 68,
      "noteName": "G#4",
      "velocity": 1,
      "duration": "96i"
    },
    {
      "time": "109920i",
      "midiNote": 59,
      "noteName": "B3",
      "velocity": 1,
      "duration": "96i"
    },
    {
      "time": "110016i",
      "midiNote": 69,
      "noteName": "A4",
      "velocity": 1,
      "duration": "768i"
    },
    {
      "time": "110016i",
      "midiNote": 61,
      "noteName": "C#4",
      "velocity": 1,
      "duration": "768i"
    },
    {
      "time": "110784i",
      "midiNote": 66,
      "noteName": "F#4",
      "velocity": 1,
      "duration": "96i"
    },
    {
      "time": "110784i",
      "midiNote": 57,
      "noteName": "A3",
      "velocity": 1,
      "duration": "96i"
    },
    {
      "time": "110880i",
      "midiNote": 68,
      "noteName": "G#4",
      "velocity": 1,
      "duration": "96i"
    },
    {
      "time": "110880i",
      "midiNote": 59,
      "noteName": "B3",
      "velocity": 1,
      "duration": "96i"
    },
    {
      "time": "110976i",
      "midiNote": 69,
      "noteName": "A4",
      "velocity": 1,
      "duration": "96i"
    },
    {
      "time": "110976i",
      "midiNote": 61,
      "noteName": "C#4",
      "velocity": 1,
      "duration": "96i"
    },
    {
      "time": "111072i",
      "midiNote": 71,
      "noteName": "B4",
      "velocity": 1,
      "duration": "96i"
    },
    {
      "time": "111072i",
      "midiNote": 62,
      "noteName": "D4",
      "velocity": 1,
      "duration": "96i"
    },
    {
      "time": "111168i",
      "midiNote": 69,
      "noteName": "A4",
      "velocity": 1,
      "duration": "96i"
    },
    {
      "time": "111168i",
      "midiNote": 61,
      "noteName": "C#4",
      "velocity": 1,
      "duration": "96i"
    },
    {
      "time": "111264i",
      "midiNote": 68,
      "noteName": "G#4",
      "velocity": 1,
      "duration": "96i"
    },
    {
      "time": "111264i",
      "midiNote": 59,
      "noteName": "B3",
      "velocity": 1,
      "duration": "96i"
    },
    {
      "time": "111360i",
      "midiNote": 69,
      "noteName": "A4",
      "velocity": 1,
      "duration": "96i"
    },
    {
      "time": "111360i",
      "midiNote": 61,
      "noteName": "C#4",
      "velocity": 1,
      "duration": "96i"
    },
    {
      "time": "111456i",
      "midiNote": 68,
      "noteName": "G#4",
      "velocity": 1,
      "duration": "96i"
    },
    {
      "time": "111456i",
      "midiNote": 59,
      "noteName": "B3",
      "velocity": 1,
      "duration": "96i"
    },
    {
      "time": "111552i",
      "midiNote": 69,
      "noteName": "A4",
      "velocity": 1,
      "duration": "1344i"
    },
    {
      "time": "111552i",
      "midiNote": 61,
      "noteName": "C#4",
      "velocity": 1,
      "duration": "1344i"
    },
    {
      "time": "112896i",
      "midiNote": 71,
      "noteName": "B4",
      "velocity": 1,
      "duration": "96i"
    },
    {
      "time": "112896i",
      "midiNote": 62,
      "noteName": "D4",
      "velocity": 1,
      "duration": "96i"
    },
    {
      "time": "112992i",
      "midiNote": 69,
      "noteName": "A4",
      "velocity": 1,
      "duration": "96i"
    },
    {
      "time": "112992i",
      "midiNote": 61,
      "noteName": "C#4",
      "velocity": 1,
      "duration": "96i"
    },
    {
      "time": "113088i",
      "midiNote": 71,
      "noteName": "B4",
      "velocity": 1,
      "duration": "768i"
    },
    {
      "time": "113088i",
      "midiNote": 62,
      "noteName": "D4",
      "velocity": 1,
      "duration": "768i"
    },
    {
      "time": "113856i",
      "midiNote": 68,
      "noteName": "G#4",
      "velocity": 1,
      "duration": "96i"
    },
    {
      "time": "113856i",
      "midiNote": 59,
      "noteName": "B3",
      "velocity": 1,
      "duration": "96i"
    },
    {
      "time": "113952i",
      "midiNote": 69,
      "noteName": "A4",
      "velocity": 1,
      "duration": "96i"
    },
    {
      "time": "113952i",
      "midiNote": 61,
      "noteName": "C#4",
      "velocity": 1,
      "duration": "96i"
    },
    {
      "time": "114048i",
      "midiNote": 71,
      "noteName": "B4",
      "velocity": 1,
      "duration": "96i"
    },
    {
      "time": "114048i",
      "midiNote": 62,
      "noteName": "D4",
      "velocity": 1,
      "duration": "96i"
    },
    {
      "time": "114144i",
      "midiNote": 73,
      "noteName": "C#5",
      "velocity": 1,
      "duration": "96i"
    },
    {
      "time": "114144i",
      "midiNote": 64,
      "noteName": "E4",
      "velocity": 1,
      "duration": "96i"
    },
    {
      "time": "114240i",
      "midiNote": 74,
      "noteName": "D5",
      "velocity": 1,
      "duration": "96i"
    },
    {
      "time": "114240i",
      "midiNote": 66,
      "noteName": "F#4",
      "velocity": 1,
      "duration": "96i"
    },
    {
      "time": "114336i",
      "midiNote": 76,
      "noteName": "E5",
      "velocity": 1,
      "duration": "96i"
    },
    {
      "time": "114336i",
      "midiNote": 68,
      "noteName": "G#4",
      "velocity": 1,
      "duration": "96i"
    },
    {
      "time": "114432i",
      "midiNote": 73,
      "noteName": "C#5",
      "velocity": 1,
      "duration": "96i"
    },
    {
      "time": "114432i",
      "midiNote": 65,
      "noteName": "F4",
      "velocity": 1,
      "duration": "96i"
    },
    {
      "time": "114528i",
      "midiNote": 74,
      "noteName": "D5",
      "velocity": 1,
      "duration": "96i"
    },
    {
      "time": "114528i",
      "midiNote": 66,
      "noteName": "F#4",
      "velocity": 1,
      "duration": "96i"
    },
    {
      "time": "114624i",
      "midiNote": 73,
      "noteName": "C#5",
      "velocity": 1,
      "duration": "1344i"
    },
    {
      "time": "114624i",
      "midiNote": 65,
      "noteName": "F4",
      "velocity": 1,
      "duration": "1344i"
    },
    {
      "time": "128352i",
      "midiNote": 61,
      "noteName": "C#4",
      "velocity": 1,
      "duration": "96i"
    },
    {
      "time": "128448i",
      "midiNote": 66,
      "noteName": "F#4",
      "velocity": 1,
      "duration": "96i"
    },
    {
      "time": "128544i",
      "midiNote": 68,
      "noteName": "G#4",
      "velocity": 1,
      "duration": "96i"
    },
    {
      "time": "128640i",
      "midiNote": 69,
      "noteName": "A4",
      "velocity": 1,
      "duration": "192i"
    },
    {
      "time": "128928i",
      "midiNote": 61,
      "noteName": "C#4",
      "velocity": 1,
      "duration": "96i"
    },
    {
      "time": "129024i",
      "midiNote": 66,
      "noteName": "F#4",
      "velocity": 1,
      "duration": "96i"
    },
    {
      "time": "129120i",
      "midiNote": 68,
      "noteName": "G#4",
      "velocity": 1,
      "duration": "96i"
    },
    {
      "time": "129216i",
      "midiNote": 69,
      "noteName": "A4",
      "velocity": 1,
      "duration": "576i"
    },
    {
      "time": "129888i",
      "midiNote": 62,
      "noteName": "D4",
      "velocity": 1,
      "duration": "96i"
    },
    {
      "time": "129984i",
      "midiNote": 66,
      "noteName": "F#4",
      "velocity": 1,
      "duration": "96i"
    },
    {
      "time": "130080i",
      "midiNote": 68,
      "noteName": "G#4",
      "velocity": 1,
      "duration": "96i"
    },
    {
      "time": "130176i",
      "midiNote": 69,
      "noteName": "A4",
      "velocity": 1,
      "duration": "192i"
    },
    {
      "time": "130464i",
      "midiNote": 62,
      "noteName": "D4",
      "velocity": 1,
      "duration": "96i"
    },
    {
      "time": "130560i",
      "midiNote": 66,
      "noteName": "F#4",
      "velocity": 1,
      "duration": "96i"
    },
    {
      "time": "130656i",
      "midiNote": 68,
      "noteName": "G#4",
      "velocity": 1,
      "duration": "96i"
    },
    {
      "time": "130752i",
      "midiNote": 69,
      "noteName": "A4",
      "velocity": 1,
      "duration": "576i"
    },
    {
      "time": "131424i",
      "midiNote": 59,
      "noteName": "B3",
      "velocity": 1,
      "duration": "96i"
    },
    {
      "time": "131520i",
      "midiNote": 64,
      "noteName": "E4",
      "velocity": 1,
      "duration": "96i"
    },
    {
      "time": "131616i",
      "midiNote": 66,
      "noteName": "F#4",
      "velocity": 1,
      "duration": "96i"
    },
    {
      "time": "131712i",
      "midiNote": 68,
      "noteName": "G#4",
      "velocity": 1,
      "duration": "192i"
    },
    {
      "time": "132000i",
      "midiNote": 59,
      "noteName": "B3",
      "velocity": 1,
      "duration": "96i"
    },
    {
      "time": "132096i",
      "midiNote": 64,
      "noteName": "E4",
      "velocity": 1,
      "duration": "96i"
    },
    {
      "time": "132192i",
      "midiNote": 66,
      "noteName": "F#4",
      "velocity": 1,
      "duration": "96i"
    },
    {
      "time": "132288i",
      "midiNote": 68,
      "noteName": "G#4",
      "velocity": 1,
      "duration": "576i"
    },
    {
      "time": "132960i",
      "midiNote": 69,
      "noteName": "A4",
      "velocity": 1,
      "duration": "96i"
    },
    {
      "time": "133056i",
      "midiNote": 71,
      "noteName": "B4",
      "velocity": 1,
      "duration": "96i"
    },
    {
      "time": "133152i",
      "midiNote": 69,
      "noteName": "A4",
      "velocity": 1,
      "duration": "96i"
    },
    {
      "time": "133248i",
      "midiNote": 68,
      "noteName": "G#4",
      "velocity": 1,
      "duration": "1152i"
    },
    {
      "time": "158976i",
      "midiNote": 69,
      "noteName": "A4",
      "velocity": 1,
      "duration": "96i"
    },
    {
      "time": "159072i",
      "midiNote": 68,
      "noteName": "G#4",
      "velocity": 1,
      "duration": "96i"
    },
    {
      "time": "159168i",
      "midiNote": 69,
      "noteName": "A4",
      "velocity": 1,
      "duration": "768i"
    },
    {
      "time": "159936i",
      "midiNote": 66,
      "noteName": "F#4",
      "velocity": 1,
      "duration": "96i"
    },
    {
      "time": "160032i",
      "midiNote": 68,
      "noteName": "G#4",
      "velocity": 1,
      "duration": "96i"
    },
    {
      "time": "160128i",
      "midiNote": 69,
      "noteName": "A4",
      "velocity": 1,
      "duration": "96i"
    },
    {
      "time": "160224i",
      "midiNote": 71,
      "noteName": "B4",
      "velocity": 1,
      "duration": "96i"
    },
    {
      "time": "160320i",
      "midiNote": 69,
      "noteName": "A4",
      "velocity": 1,
      "duration": "96i"
    },
    {
      "time": "160416i",
      "midiNote": 68,
      "noteName": "G#4",
      "velocity": 1,
      "duration": "96i"
    },
    {
      "time": "160512i",
      "midiNote": 69,
      "noteName": "A4",
      "velocity": 1,
      "duration": "96i"
    },
    {
      "time": "160608i",
      "midiNote": 68,
      "noteName": "G#4",
      "velocity": 1,
      "duration": "96i"
    },
    {
      "time": "160704i",
      "midiNote": 69,
      "noteName": "A4",
      "velocity": 1,
      "duration": "1344i"
    },
    {
      "time": "162048i",
      "midiNote": 68,
      "noteName": "G#4",
      "velocity": 1,
      "duration": "96i"
    },
    {
      "time": "162144i",
      "midiNote": 66,
      "noteName": "F#4",
      "velocity": 1,
      "duration": "96i"
    },
    {
      "time": "162240i",
      "midiNote": 68,
      "noteName": "G#4",
      "velocity": 1,
      "duration": "768i"
    },
    {
      "time": "163008i",
      "midiNote": 64,
      "noteName": "E4",
      "velocity": 1,
      "duration": "96i"
    },
    {
      "time": "163104i",
      "midiNote": 66,
      "noteName": "F#4",
      "velocity": 1,
      "duration": "96i"
    },
    {
      "time": "163200i",
      "midiNote": 68,
      "noteName": "G#4",
      "velocity": 1,
      "duration": "96i"
    },
    {
      "time": "163296i",
      "midiNote": 69,
      "noteName": "A4",
      "velocity": 1,
      "duration": "96i"
    },
    {
      "time": "163392i",
      "midiNote": 68,
      "noteName": "G#4",
      "velocity": 1,
      "duration": "96i"
    },
    {
      "time": "163488i",
      "midiNote": 66,
      "noteName": "F#4",
      "velocity": 1,
      "duration": "96i"
    },
    {
      "time": "163584i",
      "midiNote": 68,
      "noteName": "G#4",
      "velocity": 1,
      "duration": "96i"
    },
    {
      "time": "163680i",
      "midiNote": 66,
      "noteName": "F#4",
      "velocity": 1,
      "duration": "96i"
    },
    {
      "time": "163776i",
      "midiNote": 65,
      "noteName": "F4",
      "velocity": 1,
      "duration": "1344i"
    },
    {
      "time": "165120i",
      "midiNote": 69,
      "noteName": "A4",
      "velocity": 1,
      "duration": "96i"
    },
    {
      "time": "165120i",
      "midiNote": 61,
      "noteName": "C#4",
      "velocity": 1,
      "duration": "96i"
    },
    {
      "time": "165216i",
      "midiNote": 68,
      "noteName": "G#4",
      "velocity": 1,
      "duration": "96i"
    },
    {
      "time": "165216i",
      "midiNote": 59,
      "noteName": "B3",
      "velocity": 1,
      "duration": "96i"
    },
    {
      "time": "165312i",
      "midiNote": 69,
      "noteName": "A4",
      "velocity": 1,
      "duration": "768i"
    },
    {
      "time": "165312i",
      "midiNote": 61,
      "noteName": "C#4",
      "velocity": 1,
      "duration": "768i"
    },
    {
      "time": "166080i",
      "midiNote": 66,
      "noteName": "F#4",
      "velocity": 1,
      "duration": "96i"
    },
    {
      "time": "166080i",
      "midiNote": 57,
      "noteName": "A3",
      "velocity": 1,
      "duration": "96i"
    },
    {
      "time": "166176i",
      "midiNote": 68,
      "noteName": "G#4",
      "velocity": 1,
      "duration": "96i"
    },
    {
      "time": "166176i",
      "midiNote": 59,
      "noteName": "B3",
      "velocity": 1,
      "duration": "96i"
    },
    {
      "time": "166272i",
      "midiNote": 69,
      "noteName": "A4",
      "velocity": 1,
      "duration": "96i"
    },
    {
      "time": "166272i",
      "midiNote": 61,
      "noteName": "C#4",
      "velocity": 1,
      "duration": "96i"
    },
    {
      "time": "166368i",
      "midiNote": 71,
      "noteName": "B4",
      "velocity": 1,
      "duration": "96i"
    },
    {
      "time": "166368i",
      "midiNote": 62,
      "noteName": "D4",
      "velocity": 1,
      "duration": "96i"
    },
    {
      "time": "166464i",
      "midiNote": 69,
      "noteName": "A4",
      "velocity": 1,
      "duration": "96i"
    },
    {
      "time": "166464i",
      "midiNote": 61,
      "noteName": "C#4",
      "velocity": 1,
      "duration": "96i"
    },
    {
      "time": "166560i",
      "midiNote": 68,
      "noteName": "G#4",
      "velocity": 1,
      "duration": "96i"
    },
    {
      "time": "166560i",
      "midiNote": 59,
      "noteName": "B3",
      "velocity": 1,
      "duration": "96i"
    },
    {
      "time": "166656i",
      "midiNote": 69,
      "noteName": "A4",
      "velocity": 1,
      "duration": "96i"
    },
    {
      "time": "166656i",
      "midiNote": 61,
      "noteName": "C#4",
      "velocity": 1,
      "duration": "96i"
    },
    {
      "time": "166752i",
      "midiNote": 68,
      "noteName": "G#4",
      "velocity": 1,
      "duration": "96i"
    },
    {
      "time": "166752i",
      "midiNote": 59,
      "noteName": "B3",
      "velocity": 1,
      "duration": "96i"
    },
    {
      "time": "166848i",
      "midiNote": 69,
      "noteName": "A4",
      "velocity": 1,
      "duration": "1344i"
    },
    {
      "time": "166848i",
      "midiNote": 61,
      "noteName": "C#4",
      "velocity": 1,
      "duration": "1344i"
    },
    {
      "time": "168192i",
      "midiNote": 71,
      "noteName": "B4",
      "velocity": 1,
      "duration": "96i"
    },
    {
      "time": "168192i",
      "midiNote": 62,
      "noteName": "D4",
      "velocity": 1,
      "duration": "96i"
    },
    {
      "time": "168288i",
      "midiNote": 69,
      "noteName": "A4",
      "velocity": 1,
      "duration": "96i"
    },
    {
      "time": "168288i",
      "midiNote": 61,
      "noteName": "C#4",
      "velocity": 1,
      "duration": "96i"
    },
    {
      "time": "168384i",
      "midiNote": 71,
      "noteName": "B4",
      "velocity": 1,
      "duration": "768i"
    },
    {
      "time": "168384i",
      "midiNote": 62,
      "noteName": "D4",
      "velocity": 1,
      "duration": "768i"
    },
    {
      "time": "169152i",
      "midiNote": 68,
      "noteName": "G#4",
      "velocity": 1,
      "duration": "96i"
    },
    {
      "time": "169152i",
      "midiNote": 59,
      "noteName": "B3",
      "velocity": 1,
      "duration": "96i"
    },
    {
      "time": "169248i",
      "midiNote": 69,
      "noteName": "A4",
      "velocity": 1,
      "duration": "96i"
    },
    {
      "time": "169248i",
      "midiNote": 61,
      "noteName": "C#4",
      "velocity": 1,
      "duration": "96i"
    },
    {
      "time": "169344i",
      "midiNote": 71,
      "noteName": "B4",
      "velocity": 1,
      "duration": "96i"
    },
    {
      "time": "169344i",
      "midiNote": 62,
      "noteName": "D4",
      "velocity": 1,
      "duration": "96i"
    },
    {
      "time": "169440i",
      "midiNote": 73,
      "noteName": "C#5",
      "velocity": 1,
      "duration": "96i"
    },
    {
      "time": "169440i",
      "midiNote": 64,
      "noteName": "E4",
      "velocity": 1,
      "duration": "96i"
    },
    {
      "time": "169536i",
      "midiNote": 74,
      "noteName": "D5",
      "velocity": 1,
      "duration": "96i"
    },
    {
      "time": "169536i",
      "midiNote": 66,
      "noteName": "F#4",
      "velocity": 1,
      "duration": "96i"
    },
    {
      "time": "169632i",
      "midiNote": 76,
      "noteName": "E5",
      "velocity": 1,
      "duration": "96i"
    },
    {
      "time": "169632i",
      "midiNote": 68,
      "noteName": "G#4",
      "velocity": 1,
      "duration": "96i"
    },
    {
      "time": "169728i",
      "midiNote": 73,
      "noteName": "C#5",
      "velocity": 1,
      "duration": "96i"
    },
    {
      "time": "169728i",
      "midiNote": 65,
      "noteName": "F4",
      "velocity": 1,
      "duration": "96i"
    },
    {
      "time": "169824i",
      "midiNote": 74,
      "noteName": "D5",
      "velocity": 1,
      "duration": "96i"
    },
    {
      "time": "169824i",
      "midiNote": 66,
      "noteName": "F#4",
      "velocity": 1,
      "duration": "96i"
    },
    {
      "time": "169920i",
      "midiNote": 73,
      "noteName": "C#5",
      "velocity": 1,
      "duration": "1344i"
    },
    {
      "time": "169920i",
      "midiNote": 65,
      "noteName": "F4",
      "velocity": 1,
      "duration": "1344i"
    }
  ],
  [
    {
      "time": "2304i",
      "midiNote": 37,
      "noteName": "C#2",
      "velocity": 0.7559055118110236,
      "duration": "96i"
    },
    {
      "time": "2304i",
      "midiNote": 70,
      "noteName": "A#4",
      "velocity": 0.7559055118110236,
      "duration": "96i"
    },
    {
      "time": "2400i",
      "midiNote": 44,
      "noteName": "G#2",
      "velocity": 0.7559055118110236,
      "duration": "96i"
    },
    {
      "time": "2400i",
      "midiNote": 37,
      "noteName": "C#2",
      "velocity": 0.5039370078740157,
      "duration": "96i"
    },
    {
      "time": "2496i",
      "midiNote": 44,
      "noteName": "G#2",
      "velocity": 0.7559055118110236,
      "duration": "96i"
    },
    {
      "time": "2496i",
      "midiNote": 37,
      "noteName": "C#2",
      "velocity": 0.5039370078740157,
      "duration": "96i"
    },
    {
      "time": "2592i",
      "midiNote": 44,
      "noteName": "G#2",
      "velocity": 0.7559055118110236,
      "duration": "96i"
    },
    {
      "time": "2592i",
      "midiNote": 37,
      "noteName": "C#2",
      "velocity": 0.5039370078740157,
      "duration": "96i"
    },
    {
      "time": "2688i",
      "midiNote": 70,
      "noteName": "A#4",
      "velocity": 0.7559055118110236,
      "duration": "96i"
    },
    {
      "time": "2688i",
      "midiNote": 37,
      "noteName": "C#2",
      "velocity": 0.7559055118110236,
      "duration": "96i"
    },
    {
      "time": "2784i",
      "midiNote": 44,
      "noteName": "G#2",
      "velocity": 0.7559055118110236,
      "duration": "96i"
    },
    {
      "time": "2784i",
      "midiNote": 37,
      "noteName": "C#2",
      "velocity": 0.5039370078740157,
      "duration": "96i"
    },
    {
      "time": "2880i",
      "midiNote": 44,
      "noteName": "G#2",
      "velocity": 0.7559055118110236,
      "duration": "96i"
    },
    {
      "time": "2880i",
      "midiNote": 37,
      "noteName": "C#2",
      "velocity": 0.5039370078740157,
      "duration": "96i"
    },
    {
      "time": "2976i",
      "midiNote": 37,
      "noteName": "C#2",
      "velocity": 0.5039370078740157,
      "duration": "96i"
    },
    {
      "time": "2976i",
      "midiNote": 44,
      "noteName": "G#2",
      "velocity": 0.7559055118110236,
      "duration": "96i"
    },
    {
      "time": "3072i",
      "midiNote": 37,
      "noteName": "C#2",
      "velocity": 0.7559055118110236,
      "duration": "96i"
    },
    {
      "time": "3072i",
      "midiNote": 70,
      "noteName": "A#4",
      "velocity": 0.7559055118110236,
      "duration": "96i"
    },
    {
      "time": "3168i",
      "midiNote": 44,
      "noteName": "G#2",
      "velocity": 0.7559055118110236,
      "duration": "96i"
    },
    {
      "time": "3168i",
      "midiNote": 37,
      "noteName": "C#2",
      "velocity": 0.5039370078740157,
      "duration": "96i"
    },
    {
      "time": "3264i",
      "midiNote": 44,
      "noteName": "G#2",
      "velocity": 0.7559055118110236,
      "duration": "96i"
    },
    {
      "time": "3264i",
      "midiNote": 37,
      "noteName": "C#2",
      "velocity": 0.5039370078740157,
      "duration": "96i"
    },
    {
      "time": "3360i",
      "midiNote": 37,
      "noteName": "C#2",
      "velocity": 0.7559055118110236,
      "duration": "96i"
    },
    {
      "time": "3360i",
      "midiNote": 70,
      "noteName": "A#4",
      "velocity": 0.7559055118110236,
      "duration": "96i"
    },
    {
      "time": "3456i",
      "midiNote": 44,
      "noteName": "G#2",
      "velocity": 0.7559055118110236,
      "duration": "96i"
    },
    {
      "time": "3456i",
      "midiNote": 37,
      "noteName": "C#2",
      "velocity": 0.5039370078740157,
      "duration": "96i"
    },
    {
      "time": "3552i",
      "midiNote": 44,
      "noteName": "G#2",
      "velocity": 0.7559055118110236,
      "duration": "96i"
    },
    {
      "time": "3552i",
      "midiNote": 37,
      "noteName": "C#2",
      "velocity": 0.5039370078740157,
      "duration": "96i"
    },
    {
      "time": "3648i",
      "midiNote": 37,
      "noteName": "C#2",
      "velocity": 0.7559055118110236,
      "duration": "96i"
    },
    {
      "time": "3648i",
      "midiNote": 70,
      "noteName": "A#4",
      "velocity": 0.7559055118110236,
      "duration": "96i"
    },
    {
      "time": "3744i",
      "midiNote": 44,
      "noteName": "G#2",
      "velocity": 0.7559055118110236,
      "duration": "96i"
    },
    {
      "time": "3744i",
      "midiNote": 37,
      "noteName": "C#2",
      "velocity": 0.5039370078740157,
      "duration": "96i"
    },
    {
      "time": "3840i",
      "midiNote": 37,
      "noteName": "C#2",
      "velocity": 0.7559055118110236,
      "duration": "96i"
    },
    {
      "time": "3840i",
      "midiNote": 70,
      "noteName": "A#4",
      "velocity": 0.7559055118110236,
      "duration": "96i"
    },
    {
      "time": "3936i",
      "midiNote": 44,
      "noteName": "G#2",
      "velocity": 0.7559055118110236,
      "duration": "96i"
    },
    {
      "time": "3936i",
      "midiNote": 37,
      "noteName": "C#2",
      "velocity": 0.5039370078740157,
      "duration": "96i"
    },
    {
      "time": "4032i",
      "midiNote": 44,
      "noteName": "G#2",
      "velocity": 0.7559055118110236,
      "duration": "96i"
    },
    {
      "time": "4032i",
      "midiNote": 37,
      "noteName": "C#2",
      "velocity": 0.5039370078740157,
      "duration": "96i"
    },
    {
      "time": "4128i",
      "midiNote": 44,
      "noteName": "G#2",
      "velocity": 0.7559055118110236,
      "duration": "96i"
    },
    {
      "time": "4128i",
      "midiNote": 37,
      "noteName": "C#2",
      "velocity": 0.5039370078740157,
      "duration": "96i"
    },
    {
      "time": "4224i",
      "midiNote": 70,
      "noteName": "A#4",
      "velocity": 0.7559055118110236,
      "duration": "96i"
    },
    {
      "time": "4224i",
      "midiNote": 37,
      "noteName": "C#2",
      "velocity": 0.7559055118110236,
      "duration": "96i"
    },
    {
      "time": "4320i",
      "midiNote": 44,
      "noteName": "G#2",
      "velocity": 0.7559055118110236,
      "duration": "96i"
    },
    {
      "time": "4320i",
      "midiNote": 37,
      "noteName": "C#2",
      "velocity": 0.5039370078740157,
      "duration": "96i"
    },
    {
      "time": "4416i",
      "midiNote": 44,
      "noteName": "G#2",
      "velocity": 0.7559055118110236,
      "duration": "96i"
    },
    {
      "time": "4416i",
      "midiNote": 37,
      "noteName": "C#2",
      "velocity": 0.5039370078740157,
      "duration": "96i"
    },
    {
      "time": "4512i",
      "midiNote": 37,
      "noteName": "C#2",
      "velocity": 0.5039370078740157,
      "duration": "96i"
    },
    {
      "time": "4512i",
      "midiNote": 44,
      "noteName": "G#2",
      "velocity": 0.7559055118110236,
      "duration": "96i"
    },
    {
      "time": "4608i",
      "midiNote": 37,
      "noteName": "C#2",
      "velocity": 0.7559055118110236,
      "duration": "96i"
    },
    {
      "time": "4608i",
      "midiNote": 70,
      "noteName": "A#4",
      "velocity": 0.7559055118110236,
      "duration": "96i"
    },
    {
      "time": "4704i",
      "midiNote": 44,
      "noteName": "G#2",
      "velocity": 0.7559055118110236,
      "duration": "96i"
    },
    {
      "time": "4704i",
      "midiNote": 37,
      "noteName": "C#2",
      "velocity": 0.5039370078740157,
      "duration": "96i"
    },
    {
      "time": "4800i",
      "midiNote": 44,
      "noteName": "G#2",
      "velocity": 0.7559055118110236,
      "duration": "96i"
    },
    {
      "time": "4800i",
      "midiNote": 37,
      "noteName": "C#2",
      "velocity": 0.5039370078740157,
      "duration": "96i"
    },
    {
      "time": "4896i",
      "midiNote": 37,
      "noteName": "C#2",
      "velocity": 0.7559055118110236,
      "duration": "96i"
    },
    {
      "time": "4896i",
      "midiNote": 70,
      "noteName": "A#4",
      "velocity": 0.7559055118110236,
      "duration": "96i"
    },
    {
      "time": "4992i",
      "midiNote": 44,
      "noteName": "G#2",
      "velocity": 0.7559055118110236,
      "duration": "96i"
    },
    {
      "time": "4992i",
      "midiNote": 37,
      "noteName": "C#2",
      "velocity": 0.5039370078740157,
      "duration": "96i"
    },
    {
      "time": "5088i",
      "midiNote": 44,
      "noteName": "G#2",
      "velocity": 0.7559055118110236,
      "duration": "96i"
    },
    {
      "time": "5088i",
      "midiNote": 37,
      "noteName": "C#2",
      "velocity": 0.5039370078740157,
      "duration": "96i"
    },
    {
      "time": "5184i",
      "midiNote": 37,
      "noteName": "C#2",
      "velocity": 0.7559055118110236,
      "duration": "96i"
    },
    {
      "time": "5184i",
      "midiNote": 70,
      "noteName": "A#4",
      "velocity": 0.7559055118110236,
      "duration": "96i"
    },
    {
      "time": "5280i",
      "midiNote": 44,
      "noteName": "G#2",
      "velocity": 0.7559055118110236,
      "duration": "96i"
    },
    {
      "time": "5280i",
      "midiNote": 37,
      "noteName": "C#2",
      "velocity": 0.5039370078740157,
      "duration": "96i"
    },
    {
      "time": "5376i",
      "midiNote": 37,
      "noteName": "C#2",
      "velocity": 0.7559055118110236,
      "duration": "96i"
    },
    {
      "time": "5376i",
      "midiNote": 70,
      "noteName": "A#4",
      "velocity": 0.7559055118110236,
      "duration": "96i"
    },
    {
      "time": "5472i",
      "midiNote": 44,
      "noteName": "G#2",
      "velocity": 0.7559055118110236,
      "duration": "96i"
    },
    {
      "time": "5472i",
      "midiNote": 37,
      "noteName": "C#2",
      "velocity": 0.5039370078740157,
      "duration": "96i"
    },
    {
      "time": "5568i",
      "midiNote": 44,
      "noteName": "G#2",
      "velocity": 0.7559055118110236,
      "duration": "96i"
    },
    {
      "time": "5568i",
      "midiNote": 37,
      "noteName": "C#2",
      "velocity": 0.5039370078740157,
      "duration": "96i"
    },
    {
      "time": "5664i",
      "midiNote": 44,
      "noteName": "G#2",
      "velocity": 0.7559055118110236,
      "duration": "96i"
    },
    {
      "time": "5664i",
      "midiNote": 37,
      "noteName": "C#2",
      "velocity": 0.5039370078740157,
      "duration": "96i"
    },
    {
      "time": "5760i",
      "midiNote": 70,
      "noteName": "A#4",
      "velocity": 0.7559055118110236,
      "duration": "96i"
    },
    {
      "time": "5760i",
      "midiNote": 37,
      "noteName": "C#2",
      "velocity": 0.7559055118110236,
      "duration": "96i"
    },
    {
      "time": "5856i",
      "midiNote": 44,
      "noteName": "G#2",
      "velocity": 0.7559055118110236,
      "duration": "96i"
    },
    {
      "time": "5856i",
      "midiNote": 37,
      "noteName": "C#2",
      "velocity": 0.5039370078740157,
      "duration": "96i"
    },
    {
      "time": "5952i",
      "midiNote": 44,
      "noteName": "G#2",
      "velocity": 0.7559055118110236,
      "duration": "96i"
    },
    {
      "time": "5952i",
      "midiNote": 37,
      "noteName": "C#2",
      "velocity": 0.5039370078740157,
      "duration": "96i"
    },
    {
      "time": "6048i",
      "midiNote": 37,
      "noteName": "C#2",
      "velocity": 0.5039370078740157,
      "duration": "96i"
    },
    {
      "time": "6048i",
      "midiNote": 44,
      "noteName": "G#2",
      "velocity": 0.7559055118110236,
      "duration": "96i"
    },
    {
      "time": "6144i",
      "midiNote": 37,
      "noteName": "C#2",
      "velocity": 0.7559055118110236,
      "duration": "96i"
    },
    {
      "time": "6144i",
      "midiNote": 70,
      "noteName": "A#4",
      "velocity": 0.7559055118110236,
      "duration": "96i"
    },
    {
      "time": "6240i",
      "midiNote": 44,
      "noteName": "G#2",
      "velocity": 0.7559055118110236,
      "duration": "96i"
    },
    {
      "time": "6240i",
      "midiNote": 37,
      "noteName": "C#2",
      "velocity": 0.5039370078740157,
      "duration": "96i"
    },
    {
      "time": "6336i",
      "midiNote": 44,
      "noteName": "G#2",
      "velocity": 0.7559055118110236,
      "duration": "96i"
    },
    {
      "time": "6336i",
      "midiNote": 37,
      "noteName": "C#2",
      "velocity": 0.5039370078740157,
      "duration": "96i"
    },
    {
      "time": "6432i",
      "midiNote": 37,
      "noteName": "C#2",
      "velocity": 0.7559055118110236,
      "duration": "96i"
    },
    {
      "time": "6432i",
      "midiNote": 70,
      "noteName": "A#4",
      "velocity": 0.7559055118110236,
      "duration": "96i"
    },
    {
      "time": "6528i",
      "midiNote": 44,
      "noteName": "G#2",
      "velocity": 0.7559055118110236,
      "duration": "96i"
    },
    {
      "time": "6528i",
      "midiNote": 37,
      "noteName": "C#2",
      "velocity": 0.5039370078740157,
      "duration": "96i"
    },
    {
      "time": "6624i",
      "midiNote": 44,
      "noteName": "G#2",
      "velocity": 0.7559055118110236,
      "duration": "96i"
    },
    {
      "time": "6624i",
      "midiNote": 37,
      "noteName": "C#2",
      "velocity": 0.5039370078740157,
      "duration": "96i"
    },
    {
      "time": "6720i",
      "midiNote": 37,
      "noteName": "C#2",
      "velocity": 0.7559055118110236,
      "duration": "96i"
    },
    {
      "time": "6720i",
      "midiNote": 70,
      "noteName": "A#4",
      "velocity": 0.7559055118110236,
      "duration": "96i"
    },
    {
      "time": "6816i",
      "midiNote": 44,
      "noteName": "G#2",
      "velocity": 0.7559055118110236,
      "duration": "96i"
    },
    {
      "time": "6816i",
      "midiNote": 37,
      "noteName": "C#2",
      "velocity": 0.5039370078740157,
      "duration": "96i"
    },
    {
      "time": "6912i",
      "midiNote": 37,
      "noteName": "C#2",
      "velocity": 0.7559055118110236,
      "duration": "96i"
    },
    {
      "time": "6912i",
      "midiNote": 70,
      "noteName": "A#4",
      "velocity": 0.7559055118110236,
      "duration": "96i"
    },
    {
      "time": "7008i",
      "midiNote": 44,
      "noteName": "G#2",
      "velocity": 0.7559055118110236,
      "duration": "96i"
    },
    {
      "time": "7008i",
      "midiNote": 37,
      "noteName": "C#2",
      "velocity": 0.5039370078740157,
      "duration": "96i"
    },
    {
      "time": "7104i",
      "midiNote": 44,
      "noteName": "G#2",
      "velocity": 0.7559055118110236,
      "duration": "96i"
    },
    {
      "time": "7104i",
      "midiNote": 37,
      "noteName": "C#2",
      "velocity": 0.5039370078740157,
      "duration": "96i"
    },
    {
      "time": "7200i",
      "midiNote": 44,
      "noteName": "G#2",
      "velocity": 0.7559055118110236,
      "duration": "96i"
    },
    {
      "time": "7200i",
      "midiNote": 37,
      "noteName": "C#2",
      "velocity": 0.5039370078740157,
      "duration": "96i"
    },
    {
      "time": "7296i",
      "midiNote": 70,
      "noteName": "A#4",
      "velocity": 0.7559055118110236,
      "duration": "96i"
    },
    {
      "time": "7296i",
      "midiNote": 37,
      "noteName": "C#2",
      "velocity": 0.7559055118110236,
      "duration": "96i"
    },
    {
      "time": "7392i",
      "midiNote": 44,
      "noteName": "G#2",
      "velocity": 0.7559055118110236,
      "duration": "96i"
    },
    {
      "time": "7392i",
      "midiNote": 37,
      "noteName": "C#2",
      "velocity": 0.5039370078740157,
      "duration": "96i"
    },
    {
      "time": "7488i",
      "midiNote": 44,
      "noteName": "G#2",
      "velocity": 0.7559055118110236,
      "duration": "96i"
    },
    {
      "time": "7488i",
      "midiNote": 37,
      "noteName": "C#2",
      "velocity": 0.5039370078740157,
      "duration": "96i"
    },
    {
      "time": "7584i",
      "midiNote": 37,
      "noteName": "C#2",
      "velocity": 0.5039370078740157,
      "duration": "96i"
    },
    {
      "time": "7584i",
      "midiNote": 44,
      "noteName": "G#2",
      "velocity": 0.7559055118110236,
      "duration": "96i"
    },
    {
      "time": "7680i",
      "midiNote": 37,
      "noteName": "C#2",
      "velocity": 0.7559055118110236,
      "duration": "96i"
    },
    {
      "time": "7680i",
      "midiNote": 70,
      "noteName": "A#4",
      "velocity": 0.7559055118110236,
      "duration": "96i"
    },
    {
      "time": "7776i",
      "midiNote": 44,
      "noteName": "G#2",
      "velocity": 0.7559055118110236,
      "duration": "96i"
    },
    {
      "time": "7776i",
      "midiNote": 37,
      "noteName": "C#2",
      "velocity": 0.5039370078740157,
      "duration": "96i"
    },
    {
      "time": "7872i",
      "midiNote": 44,
      "noteName": "G#2",
      "velocity": 0.7559055118110236,
      "duration": "96i"
    },
    {
      "time": "7872i",
      "midiNote": 37,
      "noteName": "C#2",
      "velocity": 0.5039370078740157,
      "duration": "96i"
    },
    {
      "time": "7968i",
      "midiNote": 37,
      "noteName": "C#2",
      "velocity": 0.7559055118110236,
      "duration": "96i"
    },
    {
      "time": "7968i",
      "midiNote": 70,
      "noteName": "A#4",
      "velocity": 0.7559055118110236,
      "duration": "96i"
    },
    {
      "time": "8064i",
      "midiNote": 44,
      "noteName": "G#2",
      "velocity": 0.7559055118110236,
      "duration": "96i"
    },
    {
      "time": "8064i",
      "midiNote": 37,
      "noteName": "C#2",
      "velocity": 0.5039370078740157,
      "duration": "96i"
    },
    {
      "time": "8160i",
      "midiNote": 44,
      "noteName": "G#2",
      "velocity": 0.7559055118110236,
      "duration": "96i"
    },
    {
      "time": "8160i",
      "midiNote": 37,
      "noteName": "C#2",
      "velocity": 0.5039370078740157,
      "duration": "96i"
    },
    {
      "time": "8256i",
      "midiNote": 37,
      "noteName": "C#2",
      "velocity": 0.7559055118110236,
      "duration": "96i"
    },
    {
      "time": "8256i",
      "midiNote": 70,
      "noteName": "A#4",
      "velocity": 0.7559055118110236,
      "duration": "96i"
    },
    {
      "time": "8352i",
      "midiNote": 44,
      "noteName": "G#2",
      "velocity": 0.7559055118110236,
      "duration": "96i"
    },
    {
      "time": "8352i",
      "midiNote": 37,
      "noteName": "C#2",
      "velocity": 0.5039370078740157,
      "duration": "96i"
    },
    {
      "time": "8448i",
      "midiNote": 37,
      "noteName": "C#2",
      "velocity": 0.7559055118110236,
      "duration": "96i"
    },
    {
      "time": "8448i",
      "midiNote": 70,
      "noteName": "A#4",
      "velocity": 0.7559055118110236,
      "duration": "96i"
    },
    {
      "time": "8544i",
      "midiNote": 44,
      "noteName": "G#2",
      "velocity": 0.7559055118110236,
      "duration": "96i"
    },
    {
      "time": "8544i",
      "midiNote": 37,
      "noteName": "C#2",
      "velocity": 0.5039370078740157,
      "duration": "96i"
    },
    {
      "time": "8640i",
      "midiNote": 44,
      "noteName": "G#2",
      "velocity": 0.7559055118110236,
      "duration": "96i"
    },
    {
      "time": "8640i",
      "midiNote": 37,
      "noteName": "C#2",
      "velocity": 0.5039370078740157,
      "duration": "96i"
    },
    {
      "time": "8736i",
      "midiNote": 44,
      "noteName": "G#2",
      "velocity": 0.7559055118110236,
      "duration": "96i"
    },
    {
      "time": "8736i",
      "midiNote": 37,
      "noteName": "C#2",
      "velocity": 0.5039370078740157,
      "duration": "96i"
    },
    {
      "time": "8832i",
      "midiNote": 70,
      "noteName": "A#4",
      "velocity": 0.7559055118110236,
      "duration": "96i"
    },
    {
      "time": "8832i",
      "midiNote": 37,
      "noteName": "C#2",
      "velocity": 0.7559055118110236,
      "duration": "96i"
    },
    {
      "time": "8928i",
      "midiNote": 44,
      "noteName": "G#2",
      "velocity": 0.7559055118110236,
      "duration": "96i"
    },
    {
      "time": "8928i",
      "midiNote": 37,
      "noteName": "C#2",
      "velocity": 0.5039370078740157,
      "duration": "96i"
    },
    {
      "time": "9024i",
      "midiNote": 44,
      "noteName": "G#2",
      "velocity": 0.7559055118110236,
      "duration": "96i"
    },
    {
      "time": "9024i",
      "midiNote": 37,
      "noteName": "C#2",
      "velocity": 0.5039370078740157,
      "duration": "96i"
    },
    {
      "time": "9120i",
      "midiNote": 37,
      "noteName": "C#2",
      "velocity": 0.5039370078740157,
      "duration": "96i"
    },
    {
      "time": "9120i",
      "midiNote": 44,
      "noteName": "G#2",
      "velocity": 0.7559055118110236,
      "duration": "96i"
    },
    {
      "time": "9216i",
      "midiNote": 37,
      "noteName": "C#2",
      "velocity": 0.7559055118110236,
      "duration": "96i"
    },
    {
      "time": "9216i",
      "midiNote": 70,
      "noteName": "A#4",
      "velocity": 0.7559055118110236,
      "duration": "96i"
    },
    {
      "time": "9312i",
      "midiNote": 44,
      "noteName": "G#2",
      "velocity": 0.7559055118110236,
      "duration": "96i"
    },
    {
      "time": "9312i",
      "midiNote": 37,
      "noteName": "C#2",
      "velocity": 0.5039370078740157,
      "duration": "96i"
    },
    {
      "time": "9408i",
      "midiNote": 44,
      "noteName": "G#2",
      "velocity": 0.7559055118110236,
      "duration": "96i"
    },
    {
      "time": "9408i",
      "midiNote": 37,
      "noteName": "C#2",
      "velocity": 0.5039370078740157,
      "duration": "96i"
    },
    {
      "time": "9504i",
      "midiNote": 37,
      "noteName": "C#2",
      "velocity": 0.7559055118110236,
      "duration": "96i"
    },
    {
      "time": "9504i",
      "midiNote": 70,
      "noteName": "A#4",
      "velocity": 0.7559055118110236,
      "duration": "96i"
    },
    {
      "time": "9600i",
      "midiNote": 44,
      "noteName": "G#2",
      "velocity": 0.7559055118110236,
      "duration": "96i"
    },
    {
      "time": "9600i",
      "midiNote": 37,
      "noteName": "C#2",
      "velocity": 0.5039370078740157,
      "duration": "96i"
    },
    {
      "time": "9696i",
      "midiNote": 44,
      "noteName": "G#2",
      "velocity": 0.7559055118110236,
      "duration": "96i"
    },
    {
      "time": "9696i",
      "midiNote": 37,
      "noteName": "C#2",
      "velocity": 0.5039370078740157,
      "duration": "96i"
    },
    {
      "time": "9792i",
      "midiNote": 37,
      "noteName": "C#2",
      "velocity": 0.7559055118110236,
      "duration": "96i"
    },
    {
      "time": "9792i",
      "midiNote": 70,
      "noteName": "A#4",
      "velocity": 0.7559055118110236,
      "duration": "96i"
    },
    {
      "time": "9888i",
      "midiNote": 44,
      "noteName": "G#2",
      "velocity": 0.7559055118110236,
      "duration": "96i"
    },
    {
      "time": "9888i",
      "midiNote": 37,
      "noteName": "C#2",
      "velocity": 0.5039370078740157,
      "duration": "96i"
    },
    {
      "time": "9984i",
      "midiNote": 37,
      "noteName": "C#2",
      "velocity": 0.7559055118110236,
      "duration": "96i"
    },
    {
      "time": "9984i",
      "midiNote": 70,
      "noteName": "A#4",
      "velocity": 0.7559055118110236,
      "duration": "96i"
    },
    {
      "time": "10080i",
      "midiNote": 44,
      "noteName": "G#2",
      "velocity": 0.7559055118110236,
      "duration": "96i"
    },
    {
      "time": "10080i",
      "midiNote": 37,
      "noteName": "C#2",
      "velocity": 0.5039370078740157,
      "duration": "96i"
    },
    {
      "time": "10176i",
      "midiNote": 44,
      "noteName": "G#2",
      "velocity": 0.7559055118110236,
      "duration": "96i"
    },
    {
      "time": "10176i",
      "midiNote": 37,
      "noteName": "C#2",
      "velocity": 0.5039370078740157,
      "duration": "96i"
    },
    {
      "time": "10272i",
      "midiNote": 44,
      "noteName": "G#2",
      "velocity": 0.7559055118110236,
      "duration": "96i"
    },
    {
      "time": "10272i",
      "midiNote": 37,
      "noteName": "C#2",
      "velocity": 0.5039370078740157,
      "duration": "96i"
    },
    {
      "time": "10368i",
      "midiNote": 70,
      "noteName": "A#4",
      "velocity": 0.7559055118110236,
      "duration": "96i"
    },
    {
      "time": "10368i",
      "midiNote": 37,
      "noteName": "C#2",
      "velocity": 0.7559055118110236,
      "duration": "96i"
    },
    {
      "time": "10464i",
      "midiNote": 44,
      "noteName": "G#2",
      "velocity": 0.7559055118110236,
      "duration": "96i"
    },
    {
      "time": "10464i",
      "midiNote": 37,
      "noteName": "C#2",
      "velocity": 0.5039370078740157,
      "duration": "96i"
    },
    {
      "time": "10560i",
      "midiNote": 44,
      "noteName": "G#2",
      "velocity": 0.7559055118110236,
      "duration": "96i"
    },
    {
      "time": "10560i",
      "midiNote": 37,
      "noteName": "C#2",
      "velocity": 0.5039370078740157,
      "duration": "96i"
    },
    {
      "time": "10656i",
      "midiNote": 37,
      "noteName": "C#2",
      "velocity": 0.5039370078740157,
      "duration": "96i"
    },
    {
      "time": "10656i",
      "midiNote": 44,
      "noteName": "G#2",
      "velocity": 0.7559055118110236,
      "duration": "96i"
    },
    {
      "time": "10752i",
      "midiNote": 37,
      "noteName": "C#2",
      "velocity": 0.7559055118110236,
      "duration": "96i"
    },
    {
      "time": "10752i",
      "midiNote": 70,
      "noteName": "A#4",
      "velocity": 0.7559055118110236,
      "duration": "96i"
    },
    {
      "time": "10848i",
      "midiNote": 44,
      "noteName": "G#2",
      "velocity": 0.7559055118110236,
      "duration": "96i"
    },
    {
      "time": "10848i",
      "midiNote": 37,
      "noteName": "C#2",
      "velocity": 0.5039370078740157,
      "duration": "96i"
    },
    {
      "time": "10944i",
      "midiNote": 44,
      "noteName": "G#2",
      "velocity": 0.7559055118110236,
      "duration": "96i"
    },
    {
      "time": "10944i",
      "midiNote": 37,
      "noteName": "C#2",
      "velocity": 0.5039370078740157,
      "duration": "96i"
    },
    {
      "time": "11040i",
      "midiNote": 37,
      "noteName": "C#2",
      "velocity": 0.7559055118110236,
      "duration": "96i"
    },
    {
      "time": "11040i",
      "midiNote": 70,
      "noteName": "A#4",
      "velocity": 0.7559055118110236,
      "duration": "96i"
    },
    {
      "time": "11136i",
      "midiNote": 44,
      "noteName": "G#2",
      "velocity": 0.7559055118110236,
      "duration": "96i"
    },
    {
      "time": "11136i",
      "midiNote": 37,
      "noteName": "C#2",
      "velocity": 0.5039370078740157,
      "duration": "96i"
    },
    {
      "time": "11232i",
      "midiNote": 44,
      "noteName": "G#2",
      "velocity": 0.7559055118110236,
      "duration": "96i"
    },
    {
      "time": "11232i",
      "midiNote": 37,
      "noteName": "C#2",
      "velocity": 0.5039370078740157,
      "duration": "96i"
    },
    {
      "time": "11328i",
      "midiNote": 37,
      "noteName": "C#2",
      "velocity": 0.7559055118110236,
      "duration": "96i"
    },
    {
      "time": "11328i",
      "midiNote": 70,
      "noteName": "A#4",
      "velocity": 0.7559055118110236,
      "duration": "96i"
    },
    {
      "time": "11424i",
      "midiNote": 44,
      "noteName": "G#2",
      "velocity": 0.7559055118110236,
      "duration": "96i"
    },
    {
      "time": "11424i",
      "midiNote": 37,
      "noteName": "C#2",
      "velocity": 0.5039370078740157,
      "duration": "96i"
    },
    {
      "time": "11520i",
      "midiNote": 37,
      "noteName": "C#2",
      "velocity": 0.7559055118110236,
      "duration": "96i"
    },
    {
      "time": "11520i",
      "midiNote": 70,
      "noteName": "A#4",
      "velocity": 0.7559055118110236,
      "duration": "96i"
    },
    {
      "time": "11616i",
      "midiNote": 44,
      "noteName": "G#2",
      "velocity": 0.7559055118110236,
      "duration": "96i"
    },
    {
      "time": "11616i",
      "midiNote": 37,
      "noteName": "C#2",
      "velocity": 0.5039370078740157,
      "duration": "96i"
    },
    {
      "time": "11712i",
      "midiNote": 44,
      "noteName": "G#2",
      "velocity": 0.7559055118110236,
      "duration": "96i"
    },
    {
      "time": "11712i",
      "midiNote": 37,
      "noteName": "C#2",
      "velocity": 0.5039370078740157,
      "duration": "96i"
    },
    {
      "time": "11808i",
      "midiNote": 44,
      "noteName": "G#2",
      "velocity": 0.7559055118110236,
      "duration": "96i"
    },
    {
      "time": "11808i",
      "midiNote": 37,
      "noteName": "C#2",
      "velocity": 0.5039370078740157,
      "duration": "96i"
    },
    {
      "time": "11904i",
      "midiNote": 70,
      "noteName": "A#4",
      "velocity": 0.7559055118110236,
      "duration": "96i"
    },
    {
      "time": "11904i",
      "midiNote": 37,
      "noteName": "C#2",
      "velocity": 0.7559055118110236,
      "duration": "96i"
    },
    {
      "time": "12000i",
      "midiNote": 44,
      "noteName": "G#2",
      "velocity": 0.7559055118110236,
      "duration": "96i"
    },
    {
      "time": "12000i",
      "midiNote": 37,
      "noteName": "C#2",
      "velocity": 0.5039370078740157,
      "duration": "96i"
    },
    {
      "time": "12096i",
      "midiNote": 44,
      "noteName": "G#2",
      "velocity": 0.7559055118110236,
      "duration": "96i"
    },
    {
      "time": "12096i",
      "midiNote": 37,
      "noteName": "C#2",
      "velocity": 0.5039370078740157,
      "duration": "96i"
    },
    {
      "time": "12192i",
      "midiNote": 37,
      "noteName": "C#2",
      "velocity": 0.5039370078740157,
      "duration": "96i"
    },
    {
      "time": "12192i",
      "midiNote": 44,
      "noteName": "G#2",
      "velocity": 0.7559055118110236,
      "duration": "96i"
    },
    {
      "time": "12288i",
      "midiNote": 37,
      "noteName": "C#2",
      "velocity": 0.7559055118110236,
      "duration": "96i"
    },
    {
      "time": "12288i",
      "midiNote": 70,
      "noteName": "A#4",
      "velocity": 0.7559055118110236,
      "duration": "96i"
    },
    {
      "time": "12384i",
      "midiNote": 44,
      "noteName": "G#2",
      "velocity": 0.7559055118110236,
      "duration": "96i"
    },
    {
      "time": "12384i",
      "midiNote": 37,
      "noteName": "C#2",
      "velocity": 0.5039370078740157,
      "duration": "96i"
    },
    {
      "time": "12480i",
      "midiNote": 44,
      "noteName": "G#2",
      "velocity": 0.7559055118110236,
      "duration": "96i"
    },
    {
      "time": "12480i",
      "midiNote": 37,
      "noteName": "C#2",
      "velocity": 0.5039370078740157,
      "duration": "96i"
    },
    {
      "time": "12576i",
      "midiNote": 37,
      "noteName": "C#2",
      "velocity": 0.7559055118110236,
      "duration": "96i"
    },
    {
      "time": "12576i",
      "midiNote": 70,
      "noteName": "A#4",
      "velocity": 0.7559055118110236,
      "duration": "96i"
    },
    {
      "time": "12672i",
      "midiNote": 44,
      "noteName": "G#2",
      "velocity": 0.7559055118110236,
      "duration": "96i"
    },
    {
      "time": "12672i",
      "midiNote": 37,
      "noteName": "C#2",
      "velocity": 0.5039370078740157,
      "duration": "96i"
    },
    {
      "time": "12768i",
      "midiNote": 44,
      "noteName": "G#2",
      "velocity": 0.7559055118110236,
      "duration": "96i"
    },
    {
      "time": "12768i",
      "midiNote": 37,
      "noteName": "C#2",
      "velocity": 0.5039370078740157,
      "duration": "96i"
    },
    {
      "time": "12864i",
      "midiNote": 37,
      "noteName": "C#2",
      "velocity": 0.7559055118110236,
      "duration": "96i"
    },
    {
      "time": "12864i",
      "midiNote": 70,
      "noteName": "A#4",
      "velocity": 0.7559055118110236,
      "duration": "96i"
    },
    {
      "time": "12960i",
      "midiNote": 44,
      "noteName": "G#2",
      "velocity": 0.7559055118110236,
      "duration": "96i"
    },
    {
      "time": "12960i",
      "midiNote": 37,
      "noteName": "C#2",
      "velocity": 0.5039370078740157,
      "duration": "96i"
    },
    {
      "time": "13056i",
      "midiNote": 37,
      "noteName": "C#2",
      "velocity": 0.7559055118110236,
      "duration": "96i"
    },
    {
      "time": "13056i",
      "midiNote": 70,
      "noteName": "A#4",
      "velocity": 0.7559055118110236,
      "duration": "96i"
    },
    {
      "time": "13152i",
      "midiNote": 44,
      "noteName": "G#2",
      "velocity": 0.7559055118110236,
      "duration": "96i"
    },
    {
      "time": "13152i",
      "midiNote": 37,
      "noteName": "C#2",
      "velocity": 0.5039370078740157,
      "duration": "96i"
    },
    {
      "time": "13248i",
      "midiNote": 44,
      "noteName": "G#2",
      "velocity": 0.7559055118110236,
      "duration": "96i"
    },
    {
      "time": "13248i",
      "midiNote": 37,
      "noteName": "C#2",
      "velocity": 0.5039370078740157,
      "duration": "96i"
    },
    {
      "time": "13344i",
      "midiNote": 44,
      "noteName": "G#2",
      "velocity": 0.7559055118110236,
      "duration": "96i"
    },
    {
      "time": "13344i",
      "midiNote": 37,
      "noteName": "C#2",
      "velocity": 0.5039370078740157,
      "duration": "96i"
    },
    {
      "time": "13440i",
      "midiNote": 70,
      "noteName": "A#4",
      "velocity": 0.7559055118110236,
      "duration": "96i"
    },
    {
      "time": "13440i",
      "midiNote": 37,
      "noteName": "C#2",
      "velocity": 0.7559055118110236,
      "duration": "96i"
    },
    {
      "time": "13536i",
      "midiNote": 44,
      "noteName": "G#2",
      "velocity": 0.7559055118110236,
      "duration": "96i"
    },
    {
      "time": "13536i",
      "midiNote": 37,
      "noteName": "C#2",
      "velocity": 0.5039370078740157,
      "duration": "96i"
    },
    {
      "time": "13632i",
      "midiNote": 44,
      "noteName": "G#2",
      "velocity": 0.7559055118110236,
      "duration": "96i"
    },
    {
      "time": "13632i",
      "midiNote": 37,
      "noteName": "C#2",
      "velocity": 0.5039370078740157,
      "duration": "96i"
    },
    {
      "time": "13728i",
      "midiNote": 37,
      "noteName": "C#2",
      "velocity": 0.5039370078740157,
      "duration": "96i"
    },
    {
      "time": "13728i",
      "midiNote": 44,
      "noteName": "G#2",
      "velocity": 0.7559055118110236,
      "duration": "96i"
    },
    {
      "time": "13824i",
      "midiNote": 37,
      "noteName": "C#2",
      "velocity": 0.7559055118110236,
      "duration": "96i"
    },
    {
      "time": "13824i",
      "midiNote": 70,
      "noteName": "A#4",
      "velocity": 0.7559055118110236,
      "duration": "96i"
    },
    {
      "time": "13920i",
      "midiNote": 44,
      "noteName": "G#2",
      "velocity": 0.7559055118110236,
      "duration": "96i"
    },
    {
      "time": "13920i",
      "midiNote": 37,
      "noteName": "C#2",
      "velocity": 0.5039370078740157,
      "duration": "96i"
    },
    {
      "time": "14016i",
      "midiNote": 44,
      "noteName": "G#2",
      "velocity": 0.7559055118110236,
      "duration": "96i"
    },
    {
      "time": "14016i",
      "midiNote": 37,
      "noteName": "C#2",
      "velocity": 0.5039370078740157,
      "duration": "96i"
    },
    {
      "time": "14112i",
      "midiNote": 37,
      "noteName": "C#2",
      "velocity": 0.7559055118110236,
      "duration": "96i"
    },
    {
      "time": "14112i",
      "midiNote": 70,
      "noteName": "A#4",
      "velocity": 0.7559055118110236,
      "duration": "96i"
    },
    {
      "time": "14208i",
      "midiNote": 44,
      "noteName": "G#2",
      "velocity": 0.7559055118110236,
      "duration": "96i"
    },
    {
      "time": "14208i",
      "midiNote": 37,
      "noteName": "C#2",
      "velocity": 0.5039370078740157,
      "duration": "96i"
    },
    {
      "time": "14304i",
      "midiNote": 44,
      "noteName": "G#2",
      "velocity": 0.7559055118110236,
      "duration": "96i"
    },
    {
      "time": "14304i",
      "midiNote": 37,
      "noteName": "C#2",
      "velocity": 0.5039370078740157,
      "duration": "96i"
    },
    {
      "time": "14400i",
      "midiNote": 37,
      "noteName": "C#2",
      "velocity": 0.7559055118110236,
      "duration": "96i"
    },
    {
      "time": "14400i",
      "midiNote": 70,
      "noteName": "A#4",
      "velocity": 0.7559055118110236,
      "duration": "96i"
    },
    {
      "time": "14496i",
      "midiNote": 44,
      "noteName": "G#2",
      "velocity": 0.7559055118110236,
      "duration": "96i"
    },
    {
      "time": "14496i",
      "midiNote": 37,
      "noteName": "C#2",
      "velocity": 0.5039370078740157,
      "duration": "96i"
    },
    {
      "time": "14592i",
      "midiNote": 37,
      "noteName": "C#2",
      "velocity": 0.7559055118110236,
      "duration": "96i"
    },
    {
      "time": "14592i",
      "midiNote": 70,
      "noteName": "A#4",
      "velocity": 0.7559055118110236,
      "duration": "96i"
    },
    {
      "time": "14688i",
      "midiNote": 44,
      "noteName": "G#2",
      "velocity": 0.7559055118110236,
      "duration": "96i"
    },
    {
      "time": "14688i",
      "midiNote": 37,
      "noteName": "C#2",
      "velocity": 0.5039370078740157,
      "duration": "96i"
    },
    {
      "time": "14784i",
      "midiNote": 44,
      "noteName": "G#2",
      "velocity": 0.7559055118110236,
      "duration": "96i"
    },
    {
      "time": "14784i",
      "midiNote": 37,
      "noteName": "C#2",
      "velocity": 0.5039370078740157,
      "duration": "96i"
    },
    {
      "time": "14880i",
      "midiNote": 44,
      "noteName": "G#2",
      "velocity": 0.7559055118110236,
      "duration": "96i"
    },
    {
      "time": "14880i",
      "midiNote": 37,
      "noteName": "C#2",
      "velocity": 0.5039370078740157,
      "duration": "96i"
    },
    {
      "time": "14976i",
      "midiNote": 70,
      "noteName": "A#4",
      "velocity": 0.7559055118110236,
      "duration": "96i"
    },
    {
      "time": "14976i",
      "midiNote": 37,
      "noteName": "C#2",
      "velocity": 0.7559055118110236,
      "duration": "96i"
    },
    {
      "time": "15072i",
      "midiNote": 44,
      "noteName": "G#2",
      "velocity": 0.7559055118110236,
      "duration": "96i"
    },
    {
      "time": "15072i",
      "midiNote": 37,
      "noteName": "C#2",
      "velocity": 0.5039370078740157,
      "duration": "96i"
    },
    {
      "time": "15168i",
      "midiNote": 44,
      "noteName": "G#2",
      "velocity": 0.7559055118110236,
      "duration": "96i"
    },
    {
      "time": "15168i",
      "midiNote": 37,
      "noteName": "C#2",
      "velocity": 0.5039370078740157,
      "duration": "96i"
    },
    {
      "time": "15264i",
      "midiNote": 37,
      "noteName": "C#2",
      "velocity": 0.5039370078740157,
      "duration": "96i"
    },
    {
      "time": "15264i",
      "midiNote": 44,
      "noteName": "G#2",
      "velocity": 0.7559055118110236,
      "duration": "96i"
    },
    {
      "time": "15360i",
      "midiNote": 37,
      "noteName": "C#2",
      "velocity": 0.7559055118110236,
      "duration": "96i"
    },
    {
      "time": "15360i",
      "midiNote": 70,
      "noteName": "A#4",
      "velocity": 0.7559055118110236,
      "duration": "96i"
    },
    {
      "time": "15456i",
      "midiNote": 44,
      "noteName": "G#2",
      "velocity": 0.7559055118110236,
      "duration": "96i"
    },
    {
      "time": "15456i",
      "midiNote": 37,
      "noteName": "C#2",
      "velocity": 0.5039370078740157,
      "duration": "96i"
    },
    {
      "time": "15552i",
      "midiNote": 44,
      "noteName": "G#2",
      "velocity": 0.7559055118110236,
      "duration": "96i"
    },
    {
      "time": "15552i",
      "midiNote": 37,
      "noteName": "C#2",
      "velocity": 0.5039370078740157,
      "duration": "96i"
    },
    {
      "time": "15648i",
      "midiNote": 37,
      "noteName": "C#2",
      "velocity": 0.7559055118110236,
      "duration": "96i"
    },
    {
      "time": "15648i",
      "midiNote": 70,
      "noteName": "A#4",
      "velocity": 0.7559055118110236,
      "duration": "96i"
    },
    {
      "time": "15744i",
      "midiNote": 44,
      "noteName": "G#2",
      "velocity": 0.7559055118110236,
      "duration": "96i"
    },
    {
      "time": "15744i",
      "midiNote": 37,
      "noteName": "C#2",
      "velocity": 0.5039370078740157,
      "duration": "96i"
    },
    {
      "time": "15840i",
      "midiNote": 44,
      "noteName": "G#2",
      "velocity": 0.7559055118110236,
      "duration": "96i"
    },
    {
      "time": "15840i",
      "midiNote": 37,
      "noteName": "C#2",
      "velocity": 0.5039370078740157,
      "duration": "96i"
    },
    {
      "time": "15936i",
      "midiNote": 37,
      "noteName": "C#2",
      "velocity": 0.7559055118110236,
      "duration": "96i"
    },
    {
      "time": "15936i",
      "midiNote": 70,
      "noteName": "A#4",
      "velocity": 0.7559055118110236,
      "duration": "96i"
    },
    {
      "time": "16032i",
      "midiNote": 44,
      "noteName": "G#2",
      "velocity": 0.7559055118110236,
      "duration": "96i"
    },
    {
      "time": "16032i",
      "midiNote": 37,
      "noteName": "C#2",
      "velocity": 0.5039370078740157,
      "duration": "96i"
    },
    {
      "time": "16128i",
      "midiNote": 37,
      "noteName": "C#2",
      "velocity": 0.7559055118110236,
      "duration": "96i"
    },
    {
      "time": "16128i",
      "midiNote": 70,
      "noteName": "A#4",
      "velocity": 0.7559055118110236,
      "duration": "96i"
    },
    {
      "time": "16224i",
      "midiNote": 44,
      "noteName": "G#2",
      "velocity": 0.7559055118110236,
      "duration": "96i"
    },
    {
      "time": "16224i",
      "midiNote": 37,
      "noteName": "C#2",
      "velocity": 0.5039370078740157,
      "duration": "96i"
    },
    {
      "time": "16320i",
      "midiNote": 44,
      "noteName": "G#2",
      "velocity": 0.7559055118110236,
      "duration": "96i"
    },
    {
      "time": "16320i",
      "midiNote": 37,
      "noteName": "C#2",
      "velocity": 0.5039370078740157,
      "duration": "96i"
    },
    {
      "time": "16416i",
      "midiNote": 44,
      "noteName": "G#2",
      "velocity": 0.7559055118110236,
      "duration": "96i"
    },
    {
      "time": "16416i",
      "midiNote": 37,
      "noteName": "C#2",
      "velocity": 0.5039370078740157,
      "duration": "96i"
    },
    {
      "time": "16512i",
      "midiNote": 70,
      "noteName": "A#4",
      "velocity": 0.7559055118110236,
      "duration": "96i"
    },
    {
      "time": "16512i",
      "midiNote": 37,
      "noteName": "C#2",
      "velocity": 0.7559055118110236,
      "duration": "96i"
    },
    {
      "time": "16608i",
      "midiNote": 44,
      "noteName": "G#2",
      "velocity": 0.7559055118110236,
      "duration": "96i"
    },
    {
      "time": "16608i",
      "midiNote": 37,
      "noteName": "C#2",
      "velocity": 0.5039370078740157,
      "duration": "96i"
    },
    {
      "time": "16704i",
      "midiNote": 44,
      "noteName": "G#2",
      "velocity": 0.7559055118110236,
      "duration": "96i"
    },
    {
      "time": "16704i",
      "midiNote": 37,
      "noteName": "C#2",
      "velocity": 0.5039370078740157,
      "duration": "96i"
    },
    {
      "time": "16800i",
      "midiNote": 37,
      "noteName": "C#2",
      "velocity": 0.5039370078740157,
      "duration": "96i"
    },
    {
      "time": "16800i",
      "midiNote": 44,
      "noteName": "G#2",
      "velocity": 0.7559055118110236,
      "duration": "96i"
    },
    {
      "time": "16896i",
      "midiNote": 37,
      "noteName": "C#2",
      "velocity": 0.7559055118110236,
      "duration": "96i"
    },
    {
      "time": "16896i",
      "midiNote": 70,
      "noteName": "A#4",
      "velocity": 0.7559055118110236,
      "duration": "96i"
    },
    {
      "time": "16992i",
      "midiNote": 44,
      "noteName": "G#2",
      "velocity": 0.7559055118110236,
      "duration": "96i"
    },
    {
      "time": "16992i",
      "midiNote": 37,
      "noteName": "C#2",
      "velocity": 0.5039370078740157,
      "duration": "96i"
    },
    {
      "time": "17088i",
      "midiNote": 44,
      "noteName": "G#2",
      "velocity": 0.7559055118110236,
      "duration": "96i"
    },
    {
      "time": "17088i",
      "midiNote": 37,
      "noteName": "C#2",
      "velocity": 0.5039370078740157,
      "duration": "96i"
    },
    {
      "time": "17184i",
      "midiNote": 37,
      "noteName": "C#2",
      "velocity": 0.7559055118110236,
      "duration": "96i"
    },
    {
      "time": "17184i",
      "midiNote": 70,
      "noteName": "A#4",
      "velocity": 0.7559055118110236,
      "duration": "96i"
    },
    {
      "time": "17280i",
      "midiNote": 44,
      "noteName": "G#2",
      "velocity": 0.7559055118110236,
      "duration": "96i"
    },
    {
      "time": "17280i",
      "midiNote": 37,
      "noteName": "C#2",
      "velocity": 0.5039370078740157,
      "duration": "96i"
    },
    {
      "time": "17376i",
      "midiNote": 44,
      "noteName": "G#2",
      "velocity": 0.7559055118110236,
      "duration": "96i"
    },
    {
      "time": "17376i",
      "midiNote": 37,
      "noteName": "C#2",
      "velocity": 0.5039370078740157,
      "duration": "96i"
    },
    {
      "time": "17472i",
      "midiNote": 37,
      "noteName": "C#2",
      "velocity": 0.7559055118110236,
      "duration": "96i"
    },
    {
      "time": "17472i",
      "midiNote": 70,
      "noteName": "A#4",
      "velocity": 0.7559055118110236,
      "duration": "96i"
    },
    {
      "time": "17568i",
      "midiNote": 44,
      "noteName": "G#2",
      "velocity": 0.7559055118110236,
      "duration": "96i"
    },
    {
      "time": "17568i",
      "midiNote": 37,
      "noteName": "C#2",
      "velocity": 0.5039370078740157,
      "duration": "96i"
    },
    {
      "time": "17664i",
      "midiNote": 37,
      "noteName": "C#2",
      "velocity": 0.7559055118110236,
      "duration": "96i"
    },
    {
      "time": "17664i",
      "midiNote": 70,
      "noteName": "A#4",
      "velocity": 0.7559055118110236,
      "duration": "96i"
    },
    {
      "time": "17760i",
      "midiNote": 44,
      "noteName": "G#2",
      "velocity": 0.7559055118110236,
      "duration": "96i"
    },
    {
      "time": "17760i",
      "midiNote": 37,
      "noteName": "C#2",
      "velocity": 0.5039370078740157,
      "duration": "96i"
    },
    {
      "time": "17856i",
      "midiNote": 44,
      "noteName": "G#2",
      "velocity": 0.7559055118110236,
      "duration": "96i"
    },
    {
      "time": "17856i",
      "midiNote": 37,
      "noteName": "C#2",
      "velocity": 0.5039370078740157,
      "duration": "96i"
    },
    {
      "time": "17952i",
      "midiNote": 44,
      "noteName": "G#2",
      "velocity": 0.7559055118110236,
      "duration": "96i"
    },
    {
      "time": "17952i",
      "midiNote": 37,
      "noteName": "C#2",
      "velocity": 0.5039370078740157,
      "duration": "96i"
    },
    {
      "time": "18048i",
      "midiNote": 70,
      "noteName": "A#4",
      "velocity": 0.7559055118110236,
      "duration": "96i"
    },
    {
      "time": "18048i",
      "midiNote": 37,
      "noteName": "C#2",
      "velocity": 0.7559055118110236,
      "duration": "96i"
    },
    {
      "time": "18144i",
      "midiNote": 44,
      "noteName": "G#2",
      "velocity": 0.7559055118110236,
      "duration": "96i"
    },
    {
      "time": "18144i",
      "midiNote": 37,
      "noteName": "C#2",
      "velocity": 0.5039370078740157,
      "duration": "96i"
    },
    {
      "time": "18240i",
      "midiNote": 44,
      "noteName": "G#2",
      "velocity": 0.7559055118110236,
      "duration": "96i"
    },
    {
      "time": "18240i",
      "midiNote": 37,
      "noteName": "C#2",
      "velocity": 0.5039370078740157,
      "duration": "96i"
    },
    {
      "time": "18336i",
      "midiNote": 37,
      "noteName": "C#2",
      "velocity": 0.5039370078740157,
      "duration": "96i"
    },
    {
      "time": "18336i",
      "midiNote": 44,
      "noteName": "G#2",
      "velocity": 0.7559055118110236,
      "duration": "96i"
    },
    {
      "time": "18432i",
      "midiNote": 37,
      "noteName": "C#2",
      "velocity": 0.7559055118110236,
      "duration": "96i"
    },
    {
      "time": "18432i",
      "midiNote": 70,
      "noteName": "A#4",
      "velocity": 0.7559055118110236,
      "duration": "96i"
    },
    {
      "time": "18528i",
      "midiNote": 44,
      "noteName": "G#2",
      "velocity": 0.7559055118110236,
      "duration": "96i"
    },
    {
      "time": "18528i",
      "midiNote": 37,
      "noteName": "C#2",
      "velocity": 0.5039370078740157,
      "duration": "96i"
    },
    {
      "time": "18624i",
      "midiNote": 44,
      "noteName": "G#2",
      "velocity": 0.7559055118110236,
      "duration": "96i"
    },
    {
      "time": "18624i",
      "midiNote": 37,
      "noteName": "C#2",
      "velocity": 0.5039370078740157,
      "duration": "96i"
    },
    {
      "time": "18720i",
      "midiNote": 37,
      "noteName": "C#2",
      "velocity": 0.7559055118110236,
      "duration": "96i"
    },
    {
      "time": "18720i",
      "midiNote": 70,
      "noteName": "A#4",
      "velocity": 0.7559055118110236,
      "duration": "96i"
    },
    {
      "time": "18816i",
      "midiNote": 44,
      "noteName": "G#2",
      "velocity": 0.7559055118110236,
      "duration": "96i"
    },
    {
      "time": "18816i",
      "midiNote": 37,
      "noteName": "C#2",
      "velocity": 0.5039370078740157,
      "duration": "96i"
    },
    {
      "time": "18912i",
      "midiNote": 44,
      "noteName": "G#2",
      "velocity": 0.7559055118110236,
      "duration": "96i"
    },
    {
      "time": "18912i",
      "midiNote": 37,
      "noteName": "C#2",
      "velocity": 0.5039370078740157,
      "duration": "96i"
    },
    {
      "time": "19008i",
      "midiNote": 37,
      "noteName": "C#2",
      "velocity": 0.7559055118110236,
      "duration": "96i"
    },
    {
      "time": "19008i",
      "midiNote": 70,
      "noteName": "A#4",
      "velocity": 0.7559055118110236,
      "duration": "96i"
    },
    {
      "time": "19104i",
      "midiNote": 44,
      "noteName": "G#2",
      "velocity": 0.7559055118110236,
      "duration": "96i"
    },
    {
      "time": "19104i",
      "midiNote": 37,
      "noteName": "C#2",
      "velocity": 0.5039370078740157,
      "duration": "96i"
    },
    {
      "time": "19200i",
      "midiNote": 37,
      "noteName": "C#2",
      "velocity": 0.7559055118110236,
      "duration": "96i"
    },
    {
      "time": "19200i",
      "midiNote": 70,
      "noteName": "A#4",
      "velocity": 0.7559055118110236,
      "duration": "96i"
    },
    {
      "time": "19296i",
      "midiNote": 44,
      "noteName": "G#2",
      "velocity": 0.7559055118110236,
      "duration": "96i"
    },
    {
      "time": "19296i",
      "midiNote": 37,
      "noteName": "C#2",
      "velocity": 0.5039370078740157,
      "duration": "96i"
    },
    {
      "time": "19392i",
      "midiNote": 44,
      "noteName": "G#2",
      "velocity": 0.7559055118110236,
      "duration": "96i"
    },
    {
      "time": "19392i",
      "midiNote": 37,
      "noteName": "C#2",
      "velocity": 0.5039370078740157,
      "duration": "96i"
    },
    {
      "time": "19488i",
      "midiNote": 44,
      "noteName": "G#2",
      "velocity": 0.7559055118110236,
      "duration": "96i"
    },
    {
      "time": "19488i",
      "midiNote": 37,
      "noteName": "C#2",
      "velocity": 0.5039370078740157,
      "duration": "96i"
    },
    {
      "time": "19584i",
      "midiNote": 70,
      "noteName": "A#4",
      "velocity": 0.7559055118110236,
      "duration": "96i"
    },
    {
      "time": "19584i",
      "midiNote": 37,
      "noteName": "C#2",
      "velocity": 0.7559055118110236,
      "duration": "96i"
    },
    {
      "time": "19680i",
      "midiNote": 44,
      "noteName": "G#2",
      "velocity": 0.7559055118110236,
      "duration": "96i"
    },
    {
      "time": "19680i",
      "midiNote": 37,
      "noteName": "C#2",
      "velocity": 0.5039370078740157,
      "duration": "96i"
    },
    {
      "time": "19776i",
      "midiNote": 44,
      "noteName": "G#2",
      "velocity": 0.7559055118110236,
      "duration": "96i"
    },
    {
      "time": "19776i",
      "midiNote": 37,
      "noteName": "C#2",
      "velocity": 0.5039370078740157,
      "duration": "96i"
    },
    {
      "time": "19872i",
      "midiNote": 37,
      "noteName": "C#2",
      "velocity": 0.5039370078740157,
      "duration": "96i"
    },
    {
      "time": "19872i",
      "midiNote": 44,
      "noteName": "G#2",
      "velocity": 0.7559055118110236,
      "duration": "96i"
    },
    {
      "time": "19968i",
      "midiNote": 37,
      "noteName": "C#2",
      "velocity": 0.7559055118110236,
      "duration": "96i"
    },
    {
      "time": "19968i",
      "midiNote": 70,
      "noteName": "A#4",
      "velocity": 0.7559055118110236,
      "duration": "96i"
    },
    {
      "time": "20064i",
      "midiNote": 44,
      "noteName": "G#2",
      "velocity": 0.7559055118110236,
      "duration": "96i"
    },
    {
      "time": "20064i",
      "midiNote": 37,
      "noteName": "C#2",
      "velocity": 0.5039370078740157,
      "duration": "96i"
    },
    {
      "time": "20160i",
      "midiNote": 44,
      "noteName": "G#2",
      "velocity": 0.7559055118110236,
      "duration": "96i"
    },
    {
      "time": "20160i",
      "midiNote": 37,
      "noteName": "C#2",
      "velocity": 0.5039370078740157,
      "duration": "96i"
    },
    {
      "time": "20256i",
      "midiNote": 37,
      "noteName": "C#2",
      "velocity": 0.7559055118110236,
      "duration": "96i"
    },
    {
      "time": "20256i",
      "midiNote": 70,
      "noteName": "A#4",
      "velocity": 0.7559055118110236,
      "duration": "96i"
    },
    {
      "time": "20352i",
      "midiNote": 44,
      "noteName": "G#2",
      "velocity": 0.7559055118110236,
      "duration": "96i"
    },
    {
      "time": "20352i",
      "midiNote": 37,
      "noteName": "C#2",
      "velocity": 0.5039370078740157,
      "duration": "96i"
    },
    {
      "time": "20448i",
      "midiNote": 44,
      "noteName": "G#2",
      "velocity": 0.7559055118110236,
      "duration": "96i"
    },
    {
      "time": "20448i",
      "midiNote": 37,
      "noteName": "C#2",
      "velocity": 0.5039370078740157,
      "duration": "96i"
    },
    {
      "time": "20544i",
      "midiNote": 37,
      "noteName": "C#2",
      "velocity": 0.7559055118110236,
      "duration": "96i"
    },
    {
      "time": "20544i",
      "midiNote": 70,
      "noteName": "A#4",
      "velocity": 0.7559055118110236,
      "duration": "96i"
    },
    {
      "time": "20640i",
      "midiNote": 44,
      "noteName": "G#2",
      "velocity": 0.7559055118110236,
      "duration": "96i"
    },
    {
      "time": "20640i",
      "midiNote": 37,
      "noteName": "C#2",
      "velocity": 0.5039370078740157,
      "duration": "96i"
    },
    {
      "time": "20736i",
      "midiNote": 37,
      "noteName": "C#2",
      "velocity": 0.7559055118110236,
      "duration": "96i"
    },
    {
      "time": "20736i",
      "midiNote": 70,
      "noteName": "A#4",
      "velocity": 0.7559055118110236,
      "duration": "96i"
    },
    {
      "time": "20832i",
      "midiNote": 44,
      "noteName": "G#2",
      "velocity": 0.7559055118110236,
      "duration": "96i"
    },
    {
      "time": "20832i",
      "midiNote": 37,
      "noteName": "C#2",
      "velocity": 0.5039370078740157,
      "duration": "96i"
    },
    {
      "time": "20928i",
      "midiNote": 44,
      "noteName": "G#2",
      "velocity": 0.7559055118110236,
      "duration": "96i"
    },
    {
      "time": "20928i",
      "midiNote": 37,
      "noteName": "C#2",
      "velocity": 0.5039370078740157,
      "duration": "96i"
    },
    {
      "time": "21024i",
      "midiNote": 44,
      "noteName": "G#2",
      "velocity": 0.7559055118110236,
      "duration": "96i"
    },
    {
      "time": "21024i",
      "midiNote": 37,
      "noteName": "C#2",
      "velocity": 0.5039370078740157,
      "duration": "96i"
    },
    {
      "time": "21120i",
      "midiNote": 70,
      "noteName": "A#4",
      "velocity": 0.7559055118110236,
      "duration": "96i"
    },
    {
      "time": "21120i",
      "midiNote": 37,
      "noteName": "C#2",
      "velocity": 0.7559055118110236,
      "duration": "96i"
    },
    {
      "time": "21216i",
      "midiNote": 44,
      "noteName": "G#2",
      "velocity": 0.7559055118110236,
      "duration": "96i"
    },
    {
      "time": "21216i",
      "midiNote": 37,
      "noteName": "C#2",
      "velocity": 0.5039370078740157,
      "duration": "96i"
    },
    {
      "time": "21312i",
      "midiNote": 44,
      "noteName": "G#2",
      "velocity": 0.7559055118110236,
      "duration": "96i"
    },
    {
      "time": "21312i",
      "midiNote": 37,
      "noteName": "C#2",
      "velocity": 0.5039370078740157,
      "duration": "96i"
    },
    {
      "time": "21408i",
      "midiNote": 37,
      "noteName": "C#2",
      "velocity": 0.5039370078740157,
      "duration": "96i"
    },
    {
      "time": "21408i",
      "midiNote": 44,
      "noteName": "G#2",
      "velocity": 0.7559055118110236,
      "duration": "96i"
    },
    {
      "time": "21504i",
      "midiNote": 37,
      "noteName": "C#2",
      "velocity": 0.7559055118110236,
      "duration": "96i"
    },
    {
      "time": "21504i",
      "midiNote": 70,
      "noteName": "A#4",
      "velocity": 0.7559055118110236,
      "duration": "96i"
    },
    {
      "time": "21600i",
      "midiNote": 44,
      "noteName": "G#2",
      "velocity": 0.7559055118110236,
      "duration": "96i"
    },
    {
      "time": "21600i",
      "midiNote": 37,
      "noteName": "C#2",
      "velocity": 0.5039370078740157,
      "duration": "96i"
    },
    {
      "time": "21696i",
      "midiNote": 44,
      "noteName": "G#2",
      "velocity": 0.7559055118110236,
      "duration": "96i"
    },
    {
      "time": "21696i",
      "midiNote": 37,
      "noteName": "C#2",
      "velocity": 0.5039370078740157,
      "duration": "96i"
    },
    {
      "time": "21792i",
      "midiNote": 37,
      "noteName": "C#2",
      "velocity": 0.7559055118110236,
      "duration": "96i"
    },
    {
      "time": "21792i",
      "midiNote": 70,
      "noteName": "A#4",
      "velocity": 0.7559055118110236,
      "duration": "96i"
    },
    {
      "time": "21888i",
      "midiNote": 44,
      "noteName": "G#2",
      "velocity": 0.7559055118110236,
      "duration": "96i"
    },
    {
      "time": "21888i",
      "midiNote": 37,
      "noteName": "C#2",
      "velocity": 0.5039370078740157,
      "duration": "96i"
    },
    {
      "time": "21984i",
      "midiNote": 44,
      "noteName": "G#2",
      "velocity": 0.7559055118110236,
      "duration": "96i"
    },
    {
      "time": "21984i",
      "midiNote": 37,
      "noteName": "C#2",
      "velocity": 0.5039370078740157,
      "duration": "96i"
    },
    {
      "time": "22080i",
      "midiNote": 37,
      "noteName": "C#2",
      "velocity": 0.7559055118110236,
      "duration": "96i"
    },
    {
      "time": "22080i",
      "midiNote": 70,
      "noteName": "A#4",
      "velocity": 0.7559055118110236,
      "duration": "96i"
    },
    {
      "time": "22176i",
      "midiNote": 44,
      "noteName": "G#2",
      "velocity": 0.7559055118110236,
      "duration": "96i"
    },
    {
      "time": "22176i",
      "midiNote": 37,
      "noteName": "C#2",
      "velocity": 0.5039370078740157,
      "duration": "96i"
    },
    {
      "time": "22272i",
      "midiNote": 37,
      "noteName": "C#2",
      "velocity": 0.7559055118110236,
      "duration": "96i"
    },
    {
      "time": "22272i",
      "midiNote": 70,
      "noteName": "A#4",
      "velocity": 0.7559055118110236,
      "duration": "96i"
    },
    {
      "time": "22368i",
      "midiNote": 44,
      "noteName": "G#2",
      "velocity": 0.7559055118110236,
      "duration": "96i"
    },
    {
      "time": "22368i",
      "midiNote": 37,
      "noteName": "C#2",
      "velocity": 0.5039370078740157,
      "duration": "96i"
    },
    {
      "time": "22464i",
      "midiNote": 44,
      "noteName": "G#2",
      "velocity": 0.7559055118110236,
      "duration": "96i"
    },
    {
      "time": "22464i",
      "midiNote": 37,
      "noteName": "C#2",
      "velocity": 0.5039370078740157,
      "duration": "96i"
    },
    {
      "time": "22560i",
      "midiNote": 44,
      "noteName": "G#2",
      "velocity": 0.7559055118110236,
      "duration": "96i"
    },
    {
      "time": "22560i",
      "midiNote": 37,
      "noteName": "C#2",
      "velocity": 0.5039370078740157,
      "duration": "96i"
    },
    {
      "time": "22656i",
      "midiNote": 70,
      "noteName": "A#4",
      "velocity": 0.7559055118110236,
      "duration": "96i"
    },
    {
      "time": "22656i",
      "midiNote": 37,
      "noteName": "C#2",
      "velocity": 0.7559055118110236,
      "duration": "96i"
    },
    {
      "time": "22752i",
      "midiNote": 44,
      "noteName": "G#2",
      "velocity": 0.7559055118110236,
      "duration": "96i"
    },
    {
      "time": "22752i",
      "midiNote": 37,
      "noteName": "C#2",
      "velocity": 0.5039370078740157,
      "duration": "96i"
    },
    {
      "time": "22848i",
      "midiNote": 44,
      "noteName": "G#2",
      "velocity": 0.7559055118110236,
      "duration": "96i"
    },
    {
      "time": "22848i",
      "midiNote": 37,
      "noteName": "C#2",
      "velocity": 0.5039370078740157,
      "duration": "96i"
    },
    {
      "time": "22944i",
      "midiNote": 37,
      "noteName": "C#2",
      "velocity": 0.5039370078740157,
      "duration": "96i"
    },
    {
      "time": "22944i",
      "midiNote": 44,
      "noteName": "G#2",
      "velocity": 0.7559055118110236,
      "duration": "96i"
    },
    {
      "time": "23040i",
      "midiNote": 37,
      "noteName": "C#2",
      "velocity": 0.7559055118110236,
      "duration": "96i"
    },
    {
      "time": "23040i",
      "midiNote": 70,
      "noteName": "A#4",
      "velocity": 0.7559055118110236,
      "duration": "96i"
    },
    {
      "time": "23136i",
      "midiNote": 44,
      "noteName": "G#2",
      "velocity": 0.7559055118110236,
      "duration": "96i"
    },
    {
      "time": "23136i",
      "midiNote": 37,
      "noteName": "C#2",
      "velocity": 0.5039370078740157,
      "duration": "96i"
    },
    {
      "time": "23232i",
      "midiNote": 44,
      "noteName": "G#2",
      "velocity": 0.7559055118110236,
      "duration": "96i"
    },
    {
      "time": "23232i",
      "midiNote": 37,
      "noteName": "C#2",
      "velocity": 0.5039370078740157,
      "duration": "96i"
    },
    {
      "time": "23328i",
      "midiNote": 37,
      "noteName": "C#2",
      "velocity": 0.7559055118110236,
      "duration": "96i"
    },
    {
      "time": "23328i",
      "midiNote": 70,
      "noteName": "A#4",
      "velocity": 0.7559055118110236,
      "duration": "96i"
    },
    {
      "time": "23424i",
      "midiNote": 44,
      "noteName": "G#2",
      "velocity": 0.7559055118110236,
      "duration": "96i"
    },
    {
      "time": "23424i",
      "midiNote": 37,
      "noteName": "C#2",
      "velocity": 0.5039370078740157,
      "duration": "96i"
    },
    {
      "time": "23520i",
      "midiNote": 44,
      "noteName": "G#2",
      "velocity": 0.7559055118110236,
      "duration": "96i"
    },
    {
      "time": "23520i",
      "midiNote": 37,
      "noteName": "C#2",
      "velocity": 0.5039370078740157,
      "duration": "96i"
    },
    {
      "time": "23616i",
      "midiNote": 37,
      "noteName": "C#2",
      "velocity": 0.7559055118110236,
      "duration": "96i"
    },
    {
      "time": "23616i",
      "midiNote": 70,
      "noteName": "A#4",
      "velocity": 0.7559055118110236,
      "duration": "96i"
    },
    {
      "time": "23712i",
      "midiNote": 44,
      "noteName": "G#2",
      "velocity": 0.7559055118110236,
      "duration": "96i"
    },
    {
      "time": "23712i",
      "midiNote": 37,
      "noteName": "C#2",
      "velocity": 0.5039370078740157,
      "duration": "96i"
    },
    {
      "time": "23808i",
      "midiNote": 37,
      "noteName": "C#2",
      "velocity": 0.7559055118110236,
      "duration": "96i"
    },
    {
      "time": "23808i",
      "midiNote": 70,
      "noteName": "A#4",
      "velocity": 0.7559055118110236,
      "duration": "96i"
    },
    {
      "time": "23904i",
      "midiNote": 44,
      "noteName": "G#2",
      "velocity": 0.7559055118110236,
      "duration": "96i"
    },
    {
      "time": "23904i",
      "midiNote": 37,
      "noteName": "C#2",
      "velocity": 0.5039370078740157,
      "duration": "96i"
    },
    {
      "time": "24000i",
      "midiNote": 44,
      "noteName": "G#2",
      "velocity": 0.7559055118110236,
      "duration": "96i"
    },
    {
      "time": "24000i",
      "midiNote": 37,
      "noteName": "C#2",
      "velocity": 0.5039370078740157,
      "duration": "96i"
    },
    {
      "time": "24096i",
      "midiNote": 44,
      "noteName": "G#2",
      "velocity": 0.7559055118110236,
      "duration": "96i"
    },
    {
      "time": "24096i",
      "midiNote": 37,
      "noteName": "C#2",
      "velocity": 0.5039370078740157,
      "duration": "96i"
    },
    {
      "time": "24192i",
      "midiNote": 70,
      "noteName": "A#4",
      "velocity": 0.7559055118110236,
      "duration": "96i"
    },
    {
      "time": "24192i",
      "midiNote": 37,
      "noteName": "C#2",
      "velocity": 0.7559055118110236,
      "duration": "96i"
    },
    {
      "time": "24288i",
      "midiNote": 44,
      "noteName": "G#2",
      "velocity": 0.7559055118110236,
      "duration": "96i"
    },
    {
      "time": "24288i",
      "midiNote": 37,
      "noteName": "C#2",
      "velocity": 0.5039370078740157,
      "duration": "96i"
    },
    {
      "time": "24384i",
      "midiNote": 44,
      "noteName": "G#2",
      "velocity": 0.7559055118110236,
      "duration": "96i"
    },
    {
      "time": "24384i",
      "midiNote": 37,
      "noteName": "C#2",
      "velocity": 0.5039370078740157,
      "duration": "96i"
    },
    {
      "time": "24480i",
      "midiNote": 37,
      "noteName": "C#2",
      "velocity": 0.5039370078740157,
      "duration": "96i"
    },
    {
      "time": "24480i",
      "midiNote": 44,
      "noteName": "G#2",
      "velocity": 0.7559055118110236,
      "duration": "96i"
    },
    {
      "time": "24576i",
      "midiNote": 37,
      "noteName": "C#2",
      "velocity": 0.7559055118110236,
      "duration": "96i"
    },
    {
      "time": "24576i",
      "midiNote": 70,
      "noteName": "A#4",
      "velocity": 0.7559055118110236,
      "duration": "96i"
    },
    {
      "time": "24672i",
      "midiNote": 44,
      "noteName": "G#2",
      "velocity": 0.7559055118110236,
      "duration": "96i"
    },
    {
      "time": "24672i",
      "midiNote": 37,
      "noteName": "C#2",
      "velocity": 0.5039370078740157,
      "duration": "96i"
    },
    {
      "time": "24768i",
      "midiNote": 44,
      "noteName": "G#2",
      "velocity": 0.7559055118110236,
      "duration": "96i"
    },
    {
      "time": "24768i",
      "midiNote": 37,
      "noteName": "C#2",
      "velocity": 0.5039370078740157,
      "duration": "96i"
    },
    {
      "time": "24864i",
      "midiNote": 37,
      "noteName": "C#2",
      "velocity": 0.7559055118110236,
      "duration": "96i"
    },
    {
      "time": "24864i",
      "midiNote": 70,
      "noteName": "A#4",
      "velocity": 0.7559055118110236,
      "duration": "96i"
    },
    {
      "time": "24960i",
      "midiNote": 44,
      "noteName": "G#2",
      "velocity": 0.7559055118110236,
      "duration": "96i"
    },
    {
      "time": "24960i",
      "midiNote": 37,
      "noteName": "C#2",
      "velocity": 0.5039370078740157,
      "duration": "96i"
    },
    {
      "time": "25056i",
      "midiNote": 44,
      "noteName": "G#2",
      "velocity": 0.7559055118110236,
      "duration": "96i"
    },
    {
      "time": "25056i",
      "midiNote": 37,
      "noteName": "C#2",
      "velocity": 0.5039370078740157,
      "duration": "96i"
    },
    {
      "time": "25152i",
      "midiNote": 37,
      "noteName": "C#2",
      "velocity": 0.7559055118110236,
      "duration": "96i"
    },
    {
      "time": "25152i",
      "midiNote": 70,
      "noteName": "A#4",
      "velocity": 0.7559055118110236,
      "duration": "96i"
    },
    {
      "time": "25248i",
      "midiNote": 44,
      "noteName": "G#2",
      "velocity": 0.7559055118110236,
      "duration": "96i"
    },
    {
      "time": "25248i",
      "midiNote": 37,
      "noteName": "C#2",
      "velocity": 0.5039370078740157,
      "duration": "96i"
    },
    {
      "time": "25344i",
      "midiNote": 37,
      "noteName": "C#2",
      "velocity": 0.7559055118110236,
      "duration": "96i"
    },
    {
      "time": "25344i",
      "midiNote": 70,
      "noteName": "A#4",
      "velocity": 0.7559055118110236,
      "duration": "96i"
    },
    {
      "time": "25440i",
      "midiNote": 44,
      "noteName": "G#2",
      "velocity": 0.7559055118110236,
      "duration": "96i"
    },
    {
      "time": "25440i",
      "midiNote": 37,
      "noteName": "C#2",
      "velocity": 0.5039370078740157,
      "duration": "96i"
    },
    {
      "time": "25536i",
      "midiNote": 44,
      "noteName": "G#2",
      "velocity": 0.7559055118110236,
      "duration": "96i"
    },
    {
      "time": "25536i",
      "midiNote": 37,
      "noteName": "C#2",
      "velocity": 0.5039370078740157,
      "duration": "96i"
    },
    {
      "time": "25632i",
      "midiNote": 44,
      "noteName": "G#2",
      "velocity": 0.7559055118110236,
      "duration": "96i"
    },
    {
      "time": "25632i",
      "midiNote": 37,
      "noteName": "C#2",
      "velocity": 0.5039370078740157,
      "duration": "96i"
    },
    {
      "time": "25728i",
      "midiNote": 70,
      "noteName": "A#4",
      "velocity": 0.7559055118110236,
      "duration": "96i"
    },
    {
      "time": "25728i",
      "midiNote": 37,
      "noteName": "C#2",
      "velocity": 0.7559055118110236,
      "duration": "96i"
    },
    {
      "time": "25824i",
      "midiNote": 44,
      "noteName": "G#2",
      "velocity": 0.7559055118110236,
      "duration": "96i"
    },
    {
      "time": "25824i",
      "midiNote": 37,
      "noteName": "C#2",
      "velocity": 0.5039370078740157,
      "duration": "96i"
    },
    {
      "time": "25920i",
      "midiNote": 44,
      "noteName": "G#2",
      "velocity": 0.7559055118110236,
      "duration": "96i"
    },
    {
      "time": "25920i",
      "midiNote": 37,
      "noteName": "C#2",
      "velocity": 0.5039370078740157,
      "duration": "96i"
    },
    {
      "time": "26016i",
      "midiNote": 37,
      "noteName": "C#2",
      "velocity": 0.5039370078740157,
      "duration": "96i"
    },
    {
      "time": "26016i",
      "midiNote": 44,
      "noteName": "G#2",
      "velocity": 0.7559055118110236,
      "duration": "96i"
    },
    {
      "time": "26112i",
      "midiNote": 37,
      "noteName": "C#2",
      "velocity": 0.7559055118110236,
      "duration": "96i"
    },
    {
      "time": "26112i",
      "midiNote": 70,
      "noteName": "A#4",
      "velocity": 0.7559055118110236,
      "duration": "96i"
    },
    {
      "time": "26208i",
      "midiNote": 44,
      "noteName": "G#2",
      "velocity": 0.7559055118110236,
      "duration": "96i"
    },
    {
      "time": "26208i",
      "midiNote": 37,
      "noteName": "C#2",
      "velocity": 0.5039370078740157,
      "duration": "96i"
    },
    {
      "time": "26304i",
      "midiNote": 44,
      "noteName": "G#2",
      "velocity": 0.7559055118110236,
      "duration": "96i"
    },
    {
      "time": "26304i",
      "midiNote": 37,
      "noteName": "C#2",
      "velocity": 0.5039370078740157,
      "duration": "96i"
    },
    {
      "time": "26400i",
      "midiNote": 37,
      "noteName": "C#2",
      "velocity": 0.7559055118110236,
      "duration": "96i"
    },
    {
      "time": "26400i",
      "midiNote": 70,
      "noteName": "A#4",
      "velocity": 0.7559055118110236,
      "duration": "96i"
    },
    {
      "time": "26496i",
      "midiNote": 44,
      "noteName": "G#2",
      "velocity": 0.7559055118110236,
      "duration": "96i"
    },
    {
      "time": "26496i",
      "midiNote": 37,
      "noteName": "C#2",
      "velocity": 0.5039370078740157,
      "duration": "96i"
    },
    {
      "time": "26592i",
      "midiNote": 44,
      "noteName": "G#2",
      "velocity": 0.7559055118110236,
      "duration": "96i"
    },
    {
      "time": "26592i",
      "midiNote": 37,
      "noteName": "C#2",
      "velocity": 0.5039370078740157,
      "duration": "96i"
    },
    {
      "time": "26688i",
      "midiNote": 37,
      "noteName": "C#2",
      "velocity": 0.7559055118110236,
      "duration": "96i"
    },
    {
      "time": "26688i",
      "midiNote": 70,
      "noteName": "A#4",
      "velocity": 0.7559055118110236,
      "duration": "96i"
    },
    {
      "time": "26784i",
      "midiNote": 44,
      "noteName": "G#2",
      "velocity": 0.7559055118110236,
      "duration": "96i"
    },
    {
      "time": "26784i",
      "midiNote": 37,
      "noteName": "C#2",
      "velocity": 0.5039370078740157,
      "duration": "96i"
    },
    {
      "time": "26880i",
      "midiNote": 37,
      "noteName": "C#2",
      "velocity": 0.7559055118110236,
      "duration": "96i"
    },
    {
      "time": "26880i",
      "midiNote": 70,
      "noteName": "A#4",
      "velocity": 0.7559055118110236,
      "duration": "96i"
    },
    {
      "time": "26976i",
      "midiNote": 44,
      "noteName": "G#2",
      "velocity": 0.7559055118110236,
      "duration": "96i"
    },
    {
      "time": "26976i",
      "midiNote": 37,
      "noteName": "C#2",
      "velocity": 0.5039370078740157,
      "duration": "96i"
    },
    {
      "time": "27072i",
      "midiNote": 44,
      "noteName": "G#2",
      "velocity": 0.7559055118110236,
      "duration": "96i"
    },
    {
      "time": "27072i",
      "midiNote": 37,
      "noteName": "C#2",
      "velocity": 0.5039370078740157,
      "duration": "96i"
    },
    {
      "time": "27168i",
      "midiNote": 44,
      "noteName": "G#2",
      "velocity": 0.7559055118110236,
      "duration": "96i"
    },
    {
      "time": "27168i",
      "midiNote": 37,
      "noteName": "C#2",
      "velocity": 0.5039370078740157,
      "duration": "96i"
    },
    {
      "time": "27264i",
      "midiNote": 70,
      "noteName": "A#4",
      "velocity": 0.7559055118110236,
      "duration": "96i"
    },
    {
      "time": "27264i",
      "midiNote": 37,
      "noteName": "C#2",
      "velocity": 0.7559055118110236,
      "duration": "96i"
    },
    {
      "time": "27360i",
      "midiNote": 44,
      "noteName": "G#2",
      "velocity": 0.7559055118110236,
      "duration": "96i"
    },
    {
      "time": "27360i",
      "midiNote": 37,
      "noteName": "C#2",
      "velocity": 0.5039370078740157,
      "duration": "96i"
    },
    {
      "time": "27456i",
      "midiNote": 44,
      "noteName": "G#2",
      "velocity": 0.7559055118110236,
      "duration": "96i"
    },
    {
      "time": "27456i",
      "midiNote": 37,
      "noteName": "C#2",
      "velocity": 0.5039370078740157,
      "duration": "96i"
    },
    {
      "time": "27552i",
      "midiNote": 37,
      "noteName": "C#2",
      "velocity": 0.5039370078740157,
      "duration": "96i"
    },
    {
      "time": "27552i",
      "midiNote": 44,
      "noteName": "G#2",
      "velocity": 0.7559055118110236,
      "duration": "96i"
    },
    {
      "time": "27648i",
      "midiNote": 37,
      "noteName": "C#2",
      "velocity": 0.7559055118110236,
      "duration": "96i"
    },
    {
      "time": "27648i",
      "midiNote": 70,
      "noteName": "A#4",
      "velocity": 0.7559055118110236,
      "duration": "96i"
    },
    {
      "time": "27744i",
      "midiNote": 44,
      "noteName": "G#2",
      "velocity": 0.7559055118110236,
      "duration": "96i"
    },
    {
      "time": "27744i",
      "midiNote": 37,
      "noteName": "C#2",
      "velocity": 0.5039370078740157,
      "duration": "96i"
    },
    {
      "time": "27840i",
      "midiNote": 44,
      "noteName": "G#2",
      "velocity": 0.7559055118110236,
      "duration": "96i"
    },
    {
      "time": "27840i",
      "midiNote": 37,
      "noteName": "C#2",
      "velocity": 0.5039370078740157,
      "duration": "96i"
    },
    {
      "time": "27936i",
      "midiNote": 37,
      "noteName": "C#2",
      "velocity": 0.7559055118110236,
      "duration": "96i"
    },
    {
      "time": "27936i",
      "midiNote": 70,
      "noteName": "A#4",
      "velocity": 0.7559055118110236,
      "duration": "96i"
    },
    {
      "time": "28032i",
      "midiNote": 44,
      "noteName": "G#2",
      "velocity": 0.7559055118110236,
      "duration": "96i"
    },
    {
      "time": "28032i",
      "midiNote": 37,
      "noteName": "C#2",
      "velocity": 0.5039370078740157,
      "duration": "96i"
    },
    {
      "time": "28128i",
      "midiNote": 44,
      "noteName": "G#2",
      "velocity": 0.7559055118110236,
      "duration": "96i"
    },
    {
      "time": "28128i",
      "midiNote": 37,
      "noteName": "C#2",
      "velocity": 0.5039370078740157,
      "duration": "96i"
    },
    {
      "time": "28224i",
      "midiNote": 37,
      "noteName": "C#2",
      "velocity": 0.7559055118110236,
      "duration": "96i"
    },
    {
      "time": "28224i",
      "midiNote": 70,
      "noteName": "A#4",
      "velocity": 0.7559055118110236,
      "duration": "96i"
    },
    {
      "time": "28320i",
      "midiNote": 44,
      "noteName": "G#2",
      "velocity": 0.7559055118110236,
      "duration": "96i"
    },
    {
      "time": "28320i",
      "midiNote": 37,
      "noteName": "C#2",
      "velocity": 0.5039370078740157,
      "duration": "96i"
    },
    {
      "time": "28416i",
      "midiNote": 37,
      "noteName": "C#2",
      "velocity": 0.7559055118110236,
      "duration": "96i"
    },
    {
      "time": "28416i",
      "midiNote": 70,
      "noteName": "A#4",
      "velocity": 0.7559055118110236,
      "duration": "96i"
    },
    {
      "time": "28512i",
      "midiNote": 44,
      "noteName": "G#2",
      "velocity": 0.7559055118110236,
      "duration": "96i"
    },
    {
      "time": "28512i",
      "midiNote": 37,
      "noteName": "C#2",
      "velocity": 0.5039370078740157,
      "duration": "96i"
    },
    {
      "time": "28608i",
      "midiNote": 44,
      "noteName": "G#2",
      "velocity": 0.7559055118110236,
      "duration": "96i"
    },
    {
      "time": "28608i",
      "midiNote": 37,
      "noteName": "C#2",
      "velocity": 0.5039370078740157,
      "duration": "96i"
    },
    {
      "time": "28704i",
      "midiNote": 44,
      "noteName": "G#2",
      "velocity": 0.7559055118110236,
      "duration": "96i"
    },
    {
      "time": "28704i",
      "midiNote": 37,
      "noteName": "C#2",
      "velocity": 0.5039370078740157,
      "duration": "96i"
    },
    {
      "time": "28800i",
      "midiNote": 70,
      "noteName": "A#4",
      "velocity": 0.7559055118110236,
      "duration": "96i"
    },
    {
      "time": "28800i",
      "midiNote": 37,
      "noteName": "C#2",
      "velocity": 0.7559055118110236,
      "duration": "96i"
    },
    {
      "time": "28896i",
      "midiNote": 44,
      "noteName": "G#2",
      "velocity": 0.7559055118110236,
      "duration": "96i"
    },
    {
      "time": "28896i",
      "midiNote": 37,
      "noteName": "C#2",
      "velocity": 0.5039370078740157,
      "duration": "96i"
    },
    {
      "time": "28992i",
      "midiNote": 44,
      "noteName": "G#2",
      "velocity": 0.7559055118110236,
      "duration": "96i"
    },
    {
      "time": "28992i",
      "midiNote": 37,
      "noteName": "C#2",
      "velocity": 0.5039370078740157,
      "duration": "96i"
    },
    {
      "time": "29088i",
      "midiNote": 37,
      "noteName": "C#2",
      "velocity": 0.5039370078740157,
      "duration": "96i"
    },
    {
      "time": "29088i",
      "midiNote": 44,
      "noteName": "G#2",
      "velocity": 0.7559055118110236,
      "duration": "96i"
    },
    {
      "time": "29184i",
      "midiNote": 37,
      "noteName": "C#2",
      "velocity": 0.7559055118110236,
      "duration": "96i"
    },
    {
      "time": "29184i",
      "midiNote": 70,
      "noteName": "A#4",
      "velocity": 0.7559055118110236,
      "duration": "96i"
    },
    {
      "time": "29280i",
      "midiNote": 44,
      "noteName": "G#2",
      "velocity": 0.7559055118110236,
      "duration": "96i"
    },
    {
      "time": "29280i",
      "midiNote": 37,
      "noteName": "C#2",
      "velocity": 0.5039370078740157,
      "duration": "96i"
    },
    {
      "time": "29376i",
      "midiNote": 44,
      "noteName": "G#2",
      "velocity": 0.7559055118110236,
      "duration": "96i"
    },
    {
      "time": "29376i",
      "midiNote": 37,
      "noteName": "C#2",
      "velocity": 0.5039370078740157,
      "duration": "96i"
    },
    {
      "time": "29472i",
      "midiNote": 37,
      "noteName": "C#2",
      "velocity": 0.7559055118110236,
      "duration": "96i"
    },
    {
      "time": "29472i",
      "midiNote": 70,
      "noteName": "A#4",
      "velocity": 0.7559055118110236,
      "duration": "96i"
    },
    {
      "time": "29568i",
      "midiNote": 44,
      "noteName": "G#2",
      "velocity": 0.7559055118110236,
      "duration": "96i"
    },
    {
      "time": "29568i",
      "midiNote": 37,
      "noteName": "C#2",
      "velocity": 0.5039370078740157,
      "duration": "96i"
    },
    {
      "time": "29664i",
      "midiNote": 44,
      "noteName": "G#2",
      "velocity": 0.7559055118110236,
      "duration": "96i"
    },
    {
      "time": "29664i",
      "midiNote": 37,
      "noteName": "C#2",
      "velocity": 0.5039370078740157,
      "duration": "96i"
    },
    {
      "time": "29760i",
      "midiNote": 37,
      "noteName": "C#2",
      "velocity": 0.7559055118110236,
      "duration": "96i"
    },
    {
      "time": "29760i",
      "midiNote": 70,
      "noteName": "A#4",
      "velocity": 0.7559055118110236,
      "duration": "96i"
    },
    {
      "time": "29856i",
      "midiNote": 44,
      "noteName": "G#2",
      "velocity": 0.7559055118110236,
      "duration": "96i"
    },
    {
      "time": "29856i",
      "midiNote": 37,
      "noteName": "C#2",
      "velocity": 0.5039370078740157,
      "duration": "96i"
    },
    {
      "time": "29952i",
      "midiNote": 37,
      "noteName": "C#2",
      "velocity": 0.7559055118110236,
      "duration": "96i"
    },
    {
      "time": "29952i",
      "midiNote": 70,
      "noteName": "A#4",
      "velocity": 0.7559055118110236,
      "duration": "96i"
    },
    {
      "time": "30048i",
      "midiNote": 44,
      "noteName": "G#2",
      "velocity": 0.7559055118110236,
      "duration": "96i"
    },
    {
      "time": "30048i",
      "midiNote": 37,
      "noteName": "C#2",
      "velocity": 0.5039370078740157,
      "duration": "96i"
    },
    {
      "time": "30144i",
      "midiNote": 44,
      "noteName": "G#2",
      "velocity": 0.7559055118110236,
      "duration": "96i"
    },
    {
      "time": "30144i",
      "midiNote": 37,
      "noteName": "C#2",
      "velocity": 0.5039370078740157,
      "duration": "96i"
    },
    {
      "time": "30240i",
      "midiNote": 44,
      "noteName": "G#2",
      "velocity": 0.7559055118110236,
      "duration": "96i"
    },
    {
      "time": "30240i",
      "midiNote": 37,
      "noteName": "C#2",
      "velocity": 0.5039370078740157,
      "duration": "96i"
    },
    {
      "time": "30336i",
      "midiNote": 70,
      "noteName": "A#4",
      "velocity": 0.7559055118110236,
      "duration": "96i"
    },
    {
      "time": "30336i",
      "midiNote": 37,
      "noteName": "C#2",
      "velocity": 0.7559055118110236,
      "duration": "96i"
    },
    {
      "time": "30432i",
      "midiNote": 44,
      "noteName": "G#2",
      "velocity": 0.7559055118110236,
      "duration": "96i"
    },
    {
      "time": "30432i",
      "midiNote": 37,
      "noteName": "C#2",
      "velocity": 0.5039370078740157,
      "duration": "96i"
    },
    {
      "time": "30528i",
      "midiNote": 44,
      "noteName": "G#2",
      "velocity": 0.7559055118110236,
      "duration": "96i"
    },
    {
      "time": "30528i",
      "midiNote": 37,
      "noteName": "C#2",
      "velocity": 0.5039370078740157,
      "duration": "96i"
    },
    {
      "time": "30624i",
      "midiNote": 37,
      "noteName": "C#2",
      "velocity": 0.5039370078740157,
      "duration": "96i"
    },
    {
      "time": "30624i",
      "midiNote": 44,
      "noteName": "G#2",
      "velocity": 0.7559055118110236,
      "duration": "96i"
    },
    {
      "time": "30720i",
      "midiNote": 37,
      "noteName": "C#2",
      "velocity": 0.7559055118110236,
      "duration": "96i"
    },
    {
      "time": "30720i",
      "midiNote": 70,
      "noteName": "A#4",
      "velocity": 0.7559055118110236,
      "duration": "96i"
    },
    {
      "time": "30816i",
      "midiNote": 44,
      "noteName": "G#2",
      "velocity": 0.7559055118110236,
      "duration": "96i"
    },
    {
      "time": "30816i",
      "midiNote": 37,
      "noteName": "C#2",
      "velocity": 0.5039370078740157,
      "duration": "96i"
    },
    {
      "time": "30912i",
      "midiNote": 44,
      "noteName": "G#2",
      "velocity": 0.7559055118110236,
      "duration": "96i"
    },
    {
      "time": "30912i",
      "midiNote": 37,
      "noteName": "C#2",
      "velocity": 0.5039370078740157,
      "duration": "96i"
    },
    {
      "time": "31008i",
      "midiNote": 37,
      "noteName": "C#2",
      "velocity": 0.7559055118110236,
      "duration": "96i"
    },
    {
      "time": "31008i",
      "midiNote": 70,
      "noteName": "A#4",
      "velocity": 0.7559055118110236,
      "duration": "96i"
    },
    {
      "time": "31104i",
      "midiNote": 44,
      "noteName": "G#2",
      "velocity": 0.7559055118110236,
      "duration": "96i"
    },
    {
      "time": "31104i",
      "midiNote": 37,
      "noteName": "C#2",
      "velocity": 0.5039370078740157,
      "duration": "96i"
    },
    {
      "time": "31200i",
      "midiNote": 44,
      "noteName": "G#2",
      "velocity": 0.7559055118110236,
      "duration": "96i"
    },
    {
      "time": "31200i",
      "midiNote": 37,
      "noteName": "C#2",
      "velocity": 0.5039370078740157,
      "duration": "96i"
    },
    {
      "time": "31296i",
      "midiNote": 37,
      "noteName": "C#2",
      "velocity": 0.7559055118110236,
      "duration": "96i"
    },
    {
      "time": "31296i",
      "midiNote": 70,
      "noteName": "A#4",
      "velocity": 0.7559055118110236,
      "duration": "96i"
    },
    {
      "time": "31392i",
      "midiNote": 44,
      "noteName": "G#2",
      "velocity": 0.7559055118110236,
      "duration": "96i"
    },
    {
      "time": "31392i",
      "midiNote": 37,
      "noteName": "C#2",
      "velocity": 0.5039370078740157,
      "duration": "96i"
    },
    {
      "time": "31488i",
      "midiNote": 37,
      "noteName": "C#2",
      "velocity": 0.7559055118110236,
      "duration": "96i"
    },
    {
      "time": "31488i",
      "midiNote": 70,
      "noteName": "A#4",
      "velocity": 0.7559055118110236,
      "duration": "96i"
    },
    {
      "time": "31584i",
      "midiNote": 44,
      "noteName": "G#2",
      "velocity": 0.7559055118110236,
      "duration": "96i"
    },
    {
      "time": "31584i",
      "midiNote": 37,
      "noteName": "C#2",
      "velocity": 0.5039370078740157,
      "duration": "96i"
    },
    {
      "time": "31680i",
      "midiNote": 44,
      "noteName": "G#2",
      "velocity": 0.7559055118110236,
      "duration": "96i"
    },
    {
      "time": "31680i",
      "midiNote": 37,
      "noteName": "C#2",
      "velocity": 0.5039370078740157,
      "duration": "96i"
    },
    {
      "time": "31776i",
      "midiNote": 44,
      "noteName": "G#2",
      "velocity": 0.7559055118110236,
      "duration": "96i"
    },
    {
      "time": "31776i",
      "midiNote": 37,
      "noteName": "C#2",
      "velocity": 0.5039370078740157,
      "duration": "96i"
    },
    {
      "time": "31872i",
      "midiNote": 70,
      "noteName": "A#4",
      "velocity": 0.7559055118110236,
      "duration": "96i"
    },
    {
      "time": "31872i",
      "midiNote": 37,
      "noteName": "C#2",
      "velocity": 0.7559055118110236,
      "duration": "96i"
    },
    {
      "time": "31968i",
      "midiNote": 44,
      "noteName": "G#2",
      "velocity": 0.7559055118110236,
      "duration": "96i"
    },
    {
      "time": "31968i",
      "midiNote": 37,
      "noteName": "C#2",
      "velocity": 0.5039370078740157,
      "duration": "96i"
    },
    {
      "time": "32064i",
      "midiNote": 44,
      "noteName": "G#2",
      "velocity": 0.7559055118110236,
      "duration": "96i"
    },
    {
      "time": "32064i",
      "midiNote": 37,
      "noteName": "C#2",
      "velocity": 0.5039370078740157,
      "duration": "96i"
    },
    {
      "time": "32160i",
      "midiNote": 37,
      "noteName": "C#2",
      "velocity": 0.5039370078740157,
      "duration": "96i"
    },
    {
      "time": "32160i",
      "midiNote": 44,
      "noteName": "G#2",
      "velocity": 0.7559055118110236,
      "duration": "96i"
    },
    {
      "time": "32256i",
      "midiNote": 37,
      "noteName": "C#2",
      "velocity": 0.7559055118110236,
      "duration": "96i"
    },
    {
      "time": "32256i",
      "midiNote": 70,
      "noteName": "A#4",
      "velocity": 0.7559055118110236,
      "duration": "96i"
    },
    {
      "time": "32352i",
      "midiNote": 44,
      "noteName": "G#2",
      "velocity": 0.7559055118110236,
      "duration": "96i"
    },
    {
      "time": "32352i",
      "midiNote": 37,
      "noteName": "C#2",
      "velocity": 0.5039370078740157,
      "duration": "96i"
    },
    {
      "time": "32448i",
      "midiNote": 44,
      "noteName": "G#2",
      "velocity": 0.7559055118110236,
      "duration": "96i"
    },
    {
      "time": "32448i",
      "midiNote": 37,
      "noteName": "C#2",
      "velocity": 0.5039370078740157,
      "duration": "96i"
    },
    {
      "time": "32544i",
      "midiNote": 37,
      "noteName": "C#2",
      "velocity": 0.7559055118110236,
      "duration": "96i"
    },
    {
      "time": "32544i",
      "midiNote": 70,
      "noteName": "A#4",
      "velocity": 0.7559055118110236,
      "duration": "96i"
    },
    {
      "time": "32640i",
      "midiNote": 44,
      "noteName": "G#2",
      "velocity": 0.7559055118110236,
      "duration": "96i"
    },
    {
      "time": "32640i",
      "midiNote": 37,
      "noteName": "C#2",
      "velocity": 0.5039370078740157,
      "duration": "96i"
    },
    {
      "time": "32736i",
      "midiNote": 44,
      "noteName": "G#2",
      "velocity": 0.7559055118110236,
      "duration": "96i"
    },
    {
      "time": "32736i",
      "midiNote": 37,
      "noteName": "C#2",
      "velocity": 0.5039370078740157,
      "duration": "96i"
    },
    {
      "time": "32832i",
      "midiNote": 37,
      "noteName": "C#2",
      "velocity": 0.7559055118110236,
      "duration": "96i"
    },
    {
      "time": "32832i",
      "midiNote": 70,
      "noteName": "A#4",
      "velocity": 0.7559055118110236,
      "duration": "96i"
    },
    {
      "time": "32928i",
      "midiNote": 44,
      "noteName": "G#2",
      "velocity": 0.7559055118110236,
      "duration": "96i"
    },
    {
      "time": "32928i",
      "midiNote": 37,
      "noteName": "C#2",
      "velocity": 0.5039370078740157,
      "duration": "96i"
    },
    {
      "time": "33024i",
      "midiNote": 37,
      "noteName": "C#2",
      "velocity": 0.7559055118110236,
      "duration": "96i"
    },
    {
      "time": "33024i",
      "midiNote": 70,
      "noteName": "A#4",
      "velocity": 0.7559055118110236,
      "duration": "96i"
    },
    {
      "time": "33120i",
      "midiNote": 44,
      "noteName": "G#2",
      "velocity": 0.7559055118110236,
      "duration": "96i"
    },
    {
      "time": "33120i",
      "midiNote": 37,
      "noteName": "C#2",
      "velocity": 0.5039370078740157,
      "duration": "96i"
    },
    {
      "time": "33216i",
      "midiNote": 44,
      "noteName": "G#2",
      "velocity": 0.7559055118110236,
      "duration": "96i"
    },
    {
      "time": "33216i",
      "midiNote": 37,
      "noteName": "C#2",
      "velocity": 0.5039370078740157,
      "duration": "96i"
    },
    {
      "time": "33312i",
      "midiNote": 44,
      "noteName": "G#2",
      "velocity": 0.7559055118110236,
      "duration": "96i"
    },
    {
      "time": "33312i",
      "midiNote": 37,
      "noteName": "C#2",
      "velocity": 0.5039370078740157,
      "duration": "96i"
    },
    {
      "time": "33408i",
      "midiNote": 70,
      "noteName": "A#4",
      "velocity": 0.7559055118110236,
      "duration": "96i"
    },
    {
      "time": "33408i",
      "midiNote": 37,
      "noteName": "C#2",
      "velocity": 0.7559055118110236,
      "duration": "96i"
    },
    {
      "time": "33504i",
      "midiNote": 44,
      "noteName": "G#2",
      "velocity": 0.7559055118110236,
      "duration": "96i"
    },
    {
      "time": "33504i",
      "midiNote": 37,
      "noteName": "C#2",
      "velocity": 0.5039370078740157,
      "duration": "96i"
    },
    {
      "time": "33600i",
      "midiNote": 44,
      "noteName": "G#2",
      "velocity": 0.7559055118110236,
      "duration": "96i"
    },
    {
      "time": "33600i",
      "midiNote": 37,
      "noteName": "C#2",
      "velocity": 0.5039370078740157,
      "duration": "96i"
    },
    {
      "time": "33696i",
      "midiNote": 37,
      "noteName": "C#2",
      "velocity": 0.5039370078740157,
      "duration": "96i"
    },
    {
      "time": "33696i",
      "midiNote": 44,
      "noteName": "G#2",
      "velocity": 0.7559055118110236,
      "duration": "96i"
    },
    {
      "time": "33792i",
      "midiNote": 37,
      "noteName": "C#2",
      "velocity": 0.7559055118110236,
      "duration": "96i"
    },
    {
      "time": "33792i",
      "midiNote": 70,
      "noteName": "A#4",
      "velocity": 0.7559055118110236,
      "duration": "96i"
    },
    {
      "time": "33888i",
      "midiNote": 44,
      "noteName": "G#2",
      "velocity": 0.7559055118110236,
      "duration": "96i"
    },
    {
      "time": "33888i",
      "midiNote": 37,
      "noteName": "C#2",
      "velocity": 0.5039370078740157,
      "duration": "96i"
    },
    {
      "time": "33984i",
      "midiNote": 44,
      "noteName": "G#2",
      "velocity": 0.7559055118110236,
      "duration": "96i"
    },
    {
      "time": "33984i",
      "midiNote": 37,
      "noteName": "C#2",
      "velocity": 0.5039370078740157,
      "duration": "96i"
    },
    {
      "time": "34080i",
      "midiNote": 37,
      "noteName": "C#2",
      "velocity": 0.7559055118110236,
      "duration": "96i"
    },
    {
      "time": "34080i",
      "midiNote": 70,
      "noteName": "A#4",
      "velocity": 0.7559055118110236,
      "duration": "96i"
    },
    {
      "time": "34176i",
      "midiNote": 44,
      "noteName": "G#2",
      "velocity": 0.7559055118110236,
      "duration": "96i"
    },
    {
      "time": "34176i",
      "midiNote": 37,
      "noteName": "C#2",
      "velocity": 0.5039370078740157,
      "duration": "96i"
    },
    {
      "time": "34272i",
      "midiNote": 44,
      "noteName": "G#2",
      "velocity": 0.7559055118110236,
      "duration": "96i"
    },
    {
      "time": "34272i",
      "midiNote": 37,
      "noteName": "C#2",
      "velocity": 0.5039370078740157,
      "duration": "96i"
    },
    {
      "time": "34368i",
      "midiNote": 37,
      "noteName": "C#2",
      "velocity": 0.7559055118110236,
      "duration": "96i"
    },
    {
      "time": "34368i",
      "midiNote": 70,
      "noteName": "A#4",
      "velocity": 0.7559055118110236,
      "duration": "96i"
    },
    {
      "time": "34464i",
      "midiNote": 44,
      "noteName": "G#2",
      "velocity": 0.7559055118110236,
      "duration": "96i"
    },
    {
      "time": "34464i",
      "midiNote": 37,
      "noteName": "C#2",
      "velocity": 0.5039370078740157,
      "duration": "96i"
    },
    {
      "time": "34560i",
      "midiNote": 37,
      "noteName": "C#2",
      "velocity": 0.7559055118110236,
      "duration": "96i"
    },
    {
      "time": "34560i",
      "midiNote": 70,
      "noteName": "A#4",
      "velocity": 0.7559055118110236,
      "duration": "96i"
    },
    {
      "time": "34656i",
      "midiNote": 44,
      "noteName": "G#2",
      "velocity": 0.7559055118110236,
      "duration": "96i"
    },
    {
      "time": "34656i",
      "midiNote": 37,
      "noteName": "C#2",
      "velocity": 0.5039370078740157,
      "duration": "96i"
    },
    {
      "time": "34752i",
      "midiNote": 44,
      "noteName": "G#2",
      "velocity": 0.7559055118110236,
      "duration": "96i"
    },
    {
      "time": "34752i",
      "midiNote": 37,
      "noteName": "C#2",
      "velocity": 0.5039370078740157,
      "duration": "96i"
    },
    {
      "time": "34848i",
      "midiNote": 44,
      "noteName": "G#2",
      "velocity": 0.7559055118110236,
      "duration": "96i"
    },
    {
      "time": "34848i",
      "midiNote": 37,
      "noteName": "C#2",
      "velocity": 0.5039370078740157,
      "duration": "96i"
    },
    {
      "time": "34944i",
      "midiNote": 70,
      "noteName": "A#4",
      "velocity": 0.7559055118110236,
      "duration": "96i"
    },
    {
      "time": "34944i",
      "midiNote": 37,
      "noteName": "C#2",
      "velocity": 0.7559055118110236,
      "duration": "96i"
    },
    {
      "time": "35040i",
      "midiNote": 44,
      "noteName": "G#2",
      "velocity": 0.7559055118110236,
      "duration": "96i"
    },
    {
      "time": "35040i",
      "midiNote": 37,
      "noteName": "C#2",
      "velocity": 0.5039370078740157,
      "duration": "96i"
    },
    {
      "time": "35136i",
      "midiNote": 44,
      "noteName": "G#2",
      "velocity": 0.7559055118110236,
      "duration": "96i"
    },
    {
      "time": "35136i",
      "midiNote": 37,
      "noteName": "C#2",
      "velocity": 0.5039370078740157,
      "duration": "96i"
    },
    {
      "time": "35232i",
      "midiNote": 37,
      "noteName": "C#2",
      "velocity": 0.5039370078740157,
      "duration": "96i"
    },
    {
      "time": "35232i",
      "midiNote": 44,
      "noteName": "G#2",
      "velocity": 0.7559055118110236,
      "duration": "96i"
    },
    {
      "time": "35328i",
      "midiNote": 37,
      "noteName": "C#2",
      "velocity": 0.7559055118110236,
      "duration": "96i"
    },
    {
      "time": "35328i",
      "midiNote": 70,
      "noteName": "A#4",
      "velocity": 0.7559055118110236,
      "duration": "96i"
    },
    {
      "time": "35424i",
      "midiNote": 44,
      "noteName": "G#2",
      "velocity": 0.7559055118110236,
      "duration": "96i"
    },
    {
      "time": "35424i",
      "midiNote": 37,
      "noteName": "C#2",
      "velocity": 0.5039370078740157,
      "duration": "96i"
    },
    {
      "time": "35520i",
      "midiNote": 44,
      "noteName": "G#2",
      "velocity": 0.7559055118110236,
      "duration": "96i"
    },
    {
      "time": "35520i",
      "midiNote": 37,
      "noteName": "C#2",
      "velocity": 0.5039370078740157,
      "duration": "96i"
    },
    {
      "time": "35616i",
      "midiNote": 37,
      "noteName": "C#2",
      "velocity": 0.7559055118110236,
      "duration": "96i"
    },
    {
      "time": "35616i",
      "midiNote": 70,
      "noteName": "A#4",
      "velocity": 0.7559055118110236,
      "duration": "96i"
    },
    {
      "time": "35712i",
      "midiNote": 44,
      "noteName": "G#2",
      "velocity": 0.7559055118110236,
      "duration": "96i"
    },
    {
      "time": "35712i",
      "midiNote": 37,
      "noteName": "C#2",
      "velocity": 0.5039370078740157,
      "duration": "96i"
    },
    {
      "time": "35808i",
      "midiNote": 44,
      "noteName": "G#2",
      "velocity": 0.7559055118110236,
      "duration": "96i"
    },
    {
      "time": "35808i",
      "midiNote": 37,
      "noteName": "C#2",
      "velocity": 0.5039370078740157,
      "duration": "96i"
    },
    {
      "time": "35904i",
      "midiNote": 37,
      "noteName": "C#2",
      "velocity": 0.7559055118110236,
      "duration": "96i"
    },
    {
      "time": "35904i",
      "midiNote": 70,
      "noteName": "A#4",
      "velocity": 0.7559055118110236,
      "duration": "96i"
    },
    {
      "time": "36000i",
      "midiNote": 44,
      "noteName": "G#2",
      "velocity": 0.7559055118110236,
      "duration": "96i"
    },
    {
      "time": "36000i",
      "midiNote": 37,
      "noteName": "C#2",
      "velocity": 0.5039370078740157,
      "duration": "96i"
    },
    {
      "time": "36096i",
      "midiNote": 37,
      "noteName": "C#2",
      "velocity": 0.7559055118110236,
      "duration": "96i"
    },
    {
      "time": "36096i",
      "midiNote": 70,
      "noteName": "A#4",
      "velocity": 0.7559055118110236,
      "duration": "96i"
    },
    {
      "time": "36192i",
      "midiNote": 44,
      "noteName": "G#2",
      "velocity": 0.7559055118110236,
      "duration": "96i"
    },
    {
      "time": "36192i",
      "midiNote": 37,
      "noteName": "C#2",
      "velocity": 0.5039370078740157,
      "duration": "96i"
    },
    {
      "time": "36288i",
      "midiNote": 44,
      "noteName": "G#2",
      "velocity": 0.7559055118110236,
      "duration": "96i"
    },
    {
      "time": "36288i",
      "midiNote": 37,
      "noteName": "C#2",
      "velocity": 0.5039370078740157,
      "duration": "96i"
    },
    {
      "time": "36384i",
      "midiNote": 44,
      "noteName": "G#2",
      "velocity": 0.7559055118110236,
      "duration": "96i"
    },
    {
      "time": "36384i",
      "midiNote": 37,
      "noteName": "C#2",
      "velocity": 0.5039370078740157,
      "duration": "96i"
    },
    {
      "time": "36480i",
      "midiNote": 70,
      "noteName": "A#4",
      "velocity": 0.7559055118110236,
      "duration": "96i"
    },
    {
      "time": "36480i",
      "midiNote": 37,
      "noteName": "C#2",
      "velocity": 0.7559055118110236,
      "duration": "96i"
    },
    {
      "time": "36576i",
      "midiNote": 44,
      "noteName": "G#2",
      "velocity": 0.7559055118110236,
      "duration": "96i"
    },
    {
      "time": "36576i",
      "midiNote": 37,
      "noteName": "C#2",
      "velocity": 0.5039370078740157,
      "duration": "96i"
    },
    {
      "time": "36672i",
      "midiNote": 44,
      "noteName": "G#2",
      "velocity": 0.7559055118110236,
      "duration": "96i"
    },
    {
      "time": "36672i",
      "midiNote": 37,
      "noteName": "C#2",
      "velocity": 0.5039370078740157,
      "duration": "96i"
    },
    {
      "time": "36768i",
      "midiNote": 37,
      "noteName": "C#2",
      "velocity": 0.5039370078740157,
      "duration": "96i"
    },
    {
      "time": "36768i",
      "midiNote": 44,
      "noteName": "G#2",
      "velocity": 0.7559055118110236,
      "duration": "96i"
    },
    {
      "time": "36864i",
      "midiNote": 37,
      "noteName": "C#2",
      "velocity": 0.7559055118110236,
      "duration": "96i"
    },
    {
      "time": "36864i",
      "midiNote": 70,
      "noteName": "A#4",
      "velocity": 0.7559055118110236,
      "duration": "96i"
    },
    {
      "time": "36960i",
      "midiNote": 44,
      "noteName": "G#2",
      "velocity": 0.7559055118110236,
      "duration": "96i"
    },
    {
      "time": "36960i",
      "midiNote": 37,
      "noteName": "C#2",
      "velocity": 0.5039370078740157,
      "duration": "96i"
    },
    {
      "time": "37056i",
      "midiNote": 44,
      "noteName": "G#2",
      "velocity": 0.7559055118110236,
      "duration": "96i"
    },
    {
      "time": "37056i",
      "midiNote": 37,
      "noteName": "C#2",
      "velocity": 0.5039370078740157,
      "duration": "96i"
    },
    {
      "time": "37152i",
      "midiNote": 37,
      "noteName": "C#2",
      "velocity": 0.7559055118110236,
      "duration": "96i"
    },
    {
      "time": "37152i",
      "midiNote": 70,
      "noteName": "A#4",
      "velocity": 0.7559055118110236,
      "duration": "96i"
    },
    {
      "time": "37248i",
      "midiNote": 44,
      "noteName": "G#2",
      "velocity": 0.7559055118110236,
      "duration": "96i"
    },
    {
      "time": "37248i",
      "midiNote": 37,
      "noteName": "C#2",
      "velocity": 0.5039370078740157,
      "duration": "96i"
    },
    {
      "time": "37344i",
      "midiNote": 44,
      "noteName": "G#2",
      "velocity": 0.7559055118110236,
      "duration": "96i"
    },
    {
      "time": "37344i",
      "midiNote": 37,
      "noteName": "C#2",
      "velocity": 0.5039370078740157,
      "duration": "96i"
    },
    {
      "time": "37440i",
      "midiNote": 37,
      "noteName": "C#2",
      "velocity": 0.7559055118110236,
      "duration": "96i"
    },
    {
      "time": "37440i",
      "midiNote": 70,
      "noteName": "A#4",
      "velocity": 0.7559055118110236,
      "duration": "96i"
    },
    {
      "time": "37536i",
      "midiNote": 44,
      "noteName": "G#2",
      "velocity": 0.7559055118110236,
      "duration": "96i"
    },
    {
      "time": "37536i",
      "midiNote": 37,
      "noteName": "C#2",
      "velocity": 0.5039370078740157,
      "duration": "96i"
    },
    {
      "time": "37632i",
      "midiNote": 37,
      "noteName": "C#2",
      "velocity": 0.7559055118110236,
      "duration": "96i"
    },
    {
      "time": "37632i",
      "midiNote": 70,
      "noteName": "A#4",
      "velocity": 0.7559055118110236,
      "duration": "96i"
    },
    {
      "time": "37728i",
      "midiNote": 44,
      "noteName": "G#2",
      "velocity": 0.7559055118110236,
      "duration": "96i"
    },
    {
      "time": "37728i",
      "midiNote": 37,
      "noteName": "C#2",
      "velocity": 0.5039370078740157,
      "duration": "96i"
    },
    {
      "time": "37824i",
      "midiNote": 44,
      "noteName": "G#2",
      "velocity": 0.7559055118110236,
      "duration": "96i"
    },
    {
      "time": "37824i",
      "midiNote": 37,
      "noteName": "C#2",
      "velocity": 0.5039370078740157,
      "duration": "96i"
    },
    {
      "time": "37920i",
      "midiNote": 44,
      "noteName": "G#2",
      "velocity": 0.7559055118110236,
      "duration": "96i"
    },
    {
      "time": "37920i",
      "midiNote": 37,
      "noteName": "C#2",
      "velocity": 0.5039370078740157,
      "duration": "96i"
    },
    {
      "time": "38016i",
      "midiNote": 70,
      "noteName": "A#4",
      "velocity": 0.7559055118110236,
      "duration": "96i"
    },
    {
      "time": "38016i",
      "midiNote": 37,
      "noteName": "C#2",
      "velocity": 0.7559055118110236,
      "duration": "96i"
    },
    {
      "time": "38112i",
      "midiNote": 44,
      "noteName": "G#2",
      "velocity": 0.7559055118110236,
      "duration": "96i"
    },
    {
      "time": "38112i",
      "midiNote": 37,
      "noteName": "C#2",
      "velocity": 0.5039370078740157,
      "duration": "96i"
    },
    {
      "time": "38208i",
      "midiNote": 44,
      "noteName": "G#2",
      "velocity": 0.7559055118110236,
      "duration": "96i"
    },
    {
      "time": "38208i",
      "midiNote": 37,
      "noteName": "C#2",
      "velocity": 0.5039370078740157,
      "duration": "96i"
    },
    {
      "time": "38304i",
      "midiNote": 37,
      "noteName": "C#2",
      "velocity": 0.5039370078740157,
      "duration": "96i"
    },
    {
      "time": "38304i",
      "midiNote": 44,
      "noteName": "G#2",
      "velocity": 0.7559055118110236,
      "duration": "96i"
    },
    {
      "time": "38400i",
      "midiNote": 37,
      "noteName": "C#2",
      "velocity": 0.7559055118110236,
      "duration": "96i"
    },
    {
      "time": "38400i",
      "midiNote": 70,
      "noteName": "A#4",
      "velocity": 0.7559055118110236,
      "duration": "96i"
    },
    {
      "time": "38496i",
      "midiNote": 44,
      "noteName": "G#2",
      "velocity": 0.7559055118110236,
      "duration": "96i"
    },
    {
      "time": "38496i",
      "midiNote": 37,
      "noteName": "C#2",
      "velocity": 0.5039370078740157,
      "duration": "96i"
    },
    {
      "time": "38592i",
      "midiNote": 44,
      "noteName": "G#2",
      "velocity": 0.7559055118110236,
      "duration": "96i"
    },
    {
      "time": "38592i",
      "midiNote": 37,
      "noteName": "C#2",
      "velocity": 0.5039370078740157,
      "duration": "96i"
    },
    {
      "time": "38688i",
      "midiNote": 37,
      "noteName": "C#2",
      "velocity": 0.7559055118110236,
      "duration": "96i"
    },
    {
      "time": "38688i",
      "midiNote": 70,
      "noteName": "A#4",
      "velocity": 0.7559055118110236,
      "duration": "96i"
    },
    {
      "time": "38784i",
      "midiNote": 44,
      "noteName": "G#2",
      "velocity": 0.7559055118110236,
      "duration": "96i"
    },
    {
      "time": "38784i",
      "midiNote": 37,
      "noteName": "C#2",
      "velocity": 0.5039370078740157,
      "duration": "96i"
    },
    {
      "time": "38880i",
      "midiNote": 44,
      "noteName": "G#2",
      "velocity": 0.7559055118110236,
      "duration": "96i"
    },
    {
      "time": "38880i",
      "midiNote": 37,
      "noteName": "C#2",
      "velocity": 0.5039370078740157,
      "duration": "96i"
    },
    {
      "time": "38976i",
      "midiNote": 37,
      "noteName": "C#2",
      "velocity": 0.7559055118110236,
      "duration": "96i"
    },
    {
      "time": "38976i",
      "midiNote": 70,
      "noteName": "A#4",
      "velocity": 0.7559055118110236,
      "duration": "96i"
    },
    {
      "time": "39072i",
      "midiNote": 44,
      "noteName": "G#2",
      "velocity": 0.7559055118110236,
      "duration": "96i"
    },
    {
      "time": "39072i",
      "midiNote": 37,
      "noteName": "C#2",
      "velocity": 0.5039370078740157,
      "duration": "96i"
    },
    {
      "time": "39168i",
      "midiNote": 37,
      "noteName": "C#2",
      "velocity": 0.7559055118110236,
      "duration": "96i"
    },
    {
      "time": "39168i",
      "midiNote": 70,
      "noteName": "A#4",
      "velocity": 0.7559055118110236,
      "duration": "96i"
    },
    {
      "time": "39264i",
      "midiNote": 44,
      "noteName": "G#2",
      "velocity": 0.7559055118110236,
      "duration": "96i"
    },
    {
      "time": "39264i",
      "midiNote": 37,
      "noteName": "C#2",
      "velocity": 0.5039370078740157,
      "duration": "96i"
    },
    {
      "time": "39360i",
      "midiNote": 44,
      "noteName": "G#2",
      "velocity": 0.7559055118110236,
      "duration": "96i"
    },
    {
      "time": "39360i",
      "midiNote": 37,
      "noteName": "C#2",
      "velocity": 0.5039370078740157,
      "duration": "96i"
    },
    {
      "time": "39456i",
      "midiNote": 44,
      "noteName": "G#2",
      "velocity": 0.7559055118110236,
      "duration": "96i"
    },
    {
      "time": "39456i",
      "midiNote": 37,
      "noteName": "C#2",
      "velocity": 0.5039370078740157,
      "duration": "96i"
    },
    {
      "time": "39552i",
      "midiNote": 70,
      "noteName": "A#4",
      "velocity": 0.7559055118110236,
      "duration": "96i"
    },
    {
      "time": "39552i",
      "midiNote": 37,
      "noteName": "C#2",
      "velocity": 0.7559055118110236,
      "duration": "96i"
    },
    {
      "time": "39648i",
      "midiNote": 44,
      "noteName": "G#2",
      "velocity": 0.7559055118110236,
      "duration": "96i"
    },
    {
      "time": "39648i",
      "midiNote": 37,
      "noteName": "C#2",
      "velocity": 0.5039370078740157,
      "duration": "96i"
    },
    {
      "time": "39744i",
      "midiNote": 44,
      "noteName": "G#2",
      "velocity": 0.7559055118110236,
      "duration": "96i"
    },
    {
      "time": "39744i",
      "midiNote": 37,
      "noteName": "C#2",
      "velocity": 0.5039370078740157,
      "duration": "96i"
    },
    {
      "time": "39840i",
      "midiNote": 37,
      "noteName": "C#2",
      "velocity": 0.5039370078740157,
      "duration": "96i"
    },
    {
      "time": "39840i",
      "midiNote": 44,
      "noteName": "G#2",
      "velocity": 0.7559055118110236,
      "duration": "96i"
    },
    {
      "time": "39936i",
      "midiNote": 37,
      "noteName": "C#2",
      "velocity": 0.7559055118110236,
      "duration": "96i"
    },
    {
      "time": "39936i",
      "midiNote": 70,
      "noteName": "A#4",
      "velocity": 0.7559055118110236,
      "duration": "96i"
    },
    {
      "time": "40032i",
      "midiNote": 44,
      "noteName": "G#2",
      "velocity": 0.7559055118110236,
      "duration": "96i"
    },
    {
      "time": "40032i",
      "midiNote": 37,
      "noteName": "C#2",
      "velocity": 0.5039370078740157,
      "duration": "96i"
    },
    {
      "time": "40128i",
      "midiNote": 44,
      "noteName": "G#2",
      "velocity": 0.7559055118110236,
      "duration": "96i"
    },
    {
      "time": "40128i",
      "midiNote": 37,
      "noteName": "C#2",
      "velocity": 0.5039370078740157,
      "duration": "96i"
    },
    {
      "time": "40224i",
      "midiNote": 37,
      "noteName": "C#2",
      "velocity": 0.7559055118110236,
      "duration": "96i"
    },
    {
      "time": "40224i",
      "midiNote": 70,
      "noteName": "A#4",
      "velocity": 0.7559055118110236,
      "duration": "96i"
    },
    {
      "time": "40320i",
      "midiNote": 44,
      "noteName": "G#2",
      "velocity": 0.7559055118110236,
      "duration": "96i"
    },
    {
      "time": "40320i",
      "midiNote": 37,
      "noteName": "C#2",
      "velocity": 0.5039370078740157,
      "duration": "96i"
    },
    {
      "time": "40416i",
      "midiNote": 44,
      "noteName": "G#2",
      "velocity": 0.7559055118110236,
      "duration": "96i"
    },
    {
      "time": "40416i",
      "midiNote": 37,
      "noteName": "C#2",
      "velocity": 0.5039370078740157,
      "duration": "96i"
    },
    {
      "time": "40512i",
      "midiNote": 37,
      "noteName": "C#2",
      "velocity": 0.7559055118110236,
      "duration": "96i"
    },
    {
      "time": "40512i",
      "midiNote": 70,
      "noteName": "A#4",
      "velocity": 0.7559055118110236,
      "duration": "96i"
    },
    {
      "time": "40608i",
      "midiNote": 44,
      "noteName": "G#2",
      "velocity": 0.7559055118110236,
      "duration": "96i"
    },
    {
      "time": "40608i",
      "midiNote": 37,
      "noteName": "C#2",
      "velocity": 0.5039370078740157,
      "duration": "96i"
    },
    {
      "time": "40704i",
      "midiNote": 37,
      "noteName": "C#2",
      "velocity": 0.7559055118110236,
      "duration": "96i"
    },
    {
      "time": "40704i",
      "midiNote": 70,
      "noteName": "A#4",
      "velocity": 0.7559055118110236,
      "duration": "96i"
    },
    {
      "time": "40800i",
      "midiNote": 44,
      "noteName": "G#2",
      "velocity": 0.7559055118110236,
      "duration": "96i"
    },
    {
      "time": "40800i",
      "midiNote": 37,
      "noteName": "C#2",
      "velocity": 0.5039370078740157,
      "duration": "96i"
    },
    {
      "time": "40896i",
      "midiNote": 44,
      "noteName": "G#2",
      "velocity": 0.7559055118110236,
      "duration": "96i"
    },
    {
      "time": "40896i",
      "midiNote": 37,
      "noteName": "C#2",
      "velocity": 0.5039370078740157,
      "duration": "96i"
    },
    {
      "time": "40992i",
      "midiNote": 44,
      "noteName": "G#2",
      "velocity": 0.7559055118110236,
      "duration": "96i"
    },
    {
      "time": "40992i",
      "midiNote": 37,
      "noteName": "C#2",
      "velocity": 0.5039370078740157,
      "duration": "96i"
    },
    {
      "time": "41088i",
      "midiNote": 70,
      "noteName": "A#4",
      "velocity": 0.7559055118110236,
      "duration": "96i"
    },
    {
      "time": "41088i",
      "midiNote": 37,
      "noteName": "C#2",
      "velocity": 0.7559055118110236,
      "duration": "96i"
    },
    {
      "time": "41184i",
      "midiNote": 44,
      "noteName": "G#2",
      "velocity": 0.7559055118110236,
      "duration": "96i"
    },
    {
      "time": "41184i",
      "midiNote": 37,
      "noteName": "C#2",
      "velocity": 0.5039370078740157,
      "duration": "96i"
    },
    {
      "time": "41280i",
      "midiNote": 44,
      "noteName": "G#2",
      "velocity": 0.7559055118110236,
      "duration": "96i"
    },
    {
      "time": "41280i",
      "midiNote": 37,
      "noteName": "C#2",
      "velocity": 0.5039370078740157,
      "duration": "96i"
    },
    {
      "time": "41376i",
      "midiNote": 37,
      "noteName": "C#2",
      "velocity": 0.5039370078740157,
      "duration": "96i"
    },
    {
      "time": "41376i",
      "midiNote": 44,
      "noteName": "G#2",
      "velocity": 0.7559055118110236,
      "duration": "96i"
    },
    {
      "time": "41472i",
      "midiNote": 37,
      "noteName": "C#2",
      "velocity": 0.7559055118110236,
      "duration": "96i"
    },
    {
      "time": "41472i",
      "midiNote": 70,
      "noteName": "A#4",
      "velocity": 0.7559055118110236,
      "duration": "96i"
    },
    {
      "time": "41568i",
      "midiNote": 44,
      "noteName": "G#2",
      "velocity": 0.7559055118110236,
      "duration": "96i"
    },
    {
      "time": "41568i",
      "midiNote": 37,
      "noteName": "C#2",
      "velocity": 0.5039370078740157,
      "duration": "96i"
    },
    {
      "time": "41664i",
      "midiNote": 44,
      "noteName": "G#2",
      "velocity": 0.7559055118110236,
      "duration": "96i"
    },
    {
      "time": "41664i",
      "midiNote": 37,
      "noteName": "C#2",
      "velocity": 0.5039370078740157,
      "duration": "96i"
    },
    {
      "time": "41760i",
      "midiNote": 37,
      "noteName": "C#2",
      "velocity": 0.7559055118110236,
      "duration": "96i"
    },
    {
      "time": "41760i",
      "midiNote": 70,
      "noteName": "A#4",
      "velocity": 0.7559055118110236,
      "duration": "96i"
    },
    {
      "time": "41856i",
      "midiNote": 44,
      "noteName": "G#2",
      "velocity": 0.7559055118110236,
      "duration": "96i"
    },
    {
      "time": "41856i",
      "midiNote": 37,
      "noteName": "C#2",
      "velocity": 0.5039370078740157,
      "duration": "96i"
    },
    {
      "time": "41952i",
      "midiNote": 44,
      "noteName": "G#2",
      "velocity": 0.7559055118110236,
      "duration": "96i"
    },
    {
      "time": "41952i",
      "midiNote": 37,
      "noteName": "C#2",
      "velocity": 0.5039370078740157,
      "duration": "96i"
    },
    {
      "time": "42048i",
      "midiNote": 37,
      "noteName": "C#2",
      "velocity": 0.7559055118110236,
      "duration": "96i"
    },
    {
      "time": "42048i",
      "midiNote": 70,
      "noteName": "A#4",
      "velocity": 0.7559055118110236,
      "duration": "96i"
    },
    {
      "time": "42144i",
      "midiNote": 44,
      "noteName": "G#2",
      "velocity": 0.7559055118110236,
      "duration": "96i"
    },
    {
      "time": "42144i",
      "midiNote": 37,
      "noteName": "C#2",
      "velocity": 0.5039370078740157,
      "duration": "96i"
    },
    {
      "time": "42240i",
      "midiNote": 37,
      "noteName": "C#2",
      "velocity": 0.7559055118110236,
      "duration": "96i"
    },
    {
      "time": "42240i",
      "midiNote": 70,
      "noteName": "A#4",
      "velocity": 0.7559055118110236,
      "duration": "96i"
    },
    {
      "time": "42336i",
      "midiNote": 44,
      "noteName": "G#2",
      "velocity": 0.7559055118110236,
      "duration": "96i"
    },
    {
      "time": "42336i",
      "midiNote": 37,
      "noteName": "C#2",
      "velocity": 0.5039370078740157,
      "duration": "96i"
    },
    {
      "time": "42432i",
      "midiNote": 44,
      "noteName": "G#2",
      "velocity": 0.7559055118110236,
      "duration": "96i"
    },
    {
      "time": "42432i",
      "midiNote": 37,
      "noteName": "C#2",
      "velocity": 0.5039370078740157,
      "duration": "96i"
    },
    {
      "time": "42528i",
      "midiNote": 44,
      "noteName": "G#2",
      "velocity": 0.7559055118110236,
      "duration": "96i"
    },
    {
      "time": "42528i",
      "midiNote": 37,
      "noteName": "C#2",
      "velocity": 0.5039370078740157,
      "duration": "96i"
    },
    {
      "time": "42624i",
      "midiNote": 70,
      "noteName": "A#4",
      "velocity": 0.7559055118110236,
      "duration": "96i"
    },
    {
      "time": "42624i",
      "midiNote": 37,
      "noteName": "C#2",
      "velocity": 0.7559055118110236,
      "duration": "96i"
    },
    {
      "time": "42720i",
      "midiNote": 44,
      "noteName": "G#2",
      "velocity": 0.7559055118110236,
      "duration": "96i"
    },
    {
      "time": "42720i",
      "midiNote": 37,
      "noteName": "C#2",
      "velocity": 0.5039370078740157,
      "duration": "96i"
    },
    {
      "time": "42816i",
      "midiNote": 44,
      "noteName": "G#2",
      "velocity": 0.7559055118110236,
      "duration": "96i"
    },
    {
      "time": "42816i",
      "midiNote": 37,
      "noteName": "C#2",
      "velocity": 0.5039370078740157,
      "duration": "96i"
    },
    {
      "time": "42912i",
      "midiNote": 37,
      "noteName": "C#2",
      "velocity": 0.5039370078740157,
      "duration": "96i"
    },
    {
      "time": "42912i",
      "midiNote": 44,
      "noteName": "G#2",
      "velocity": 0.7559055118110236,
      "duration": "96i"
    },
    {
      "time": "43008i",
      "midiNote": 37,
      "noteName": "C#2",
      "velocity": 0.7559055118110236,
      "duration": "96i"
    },
    {
      "time": "43008i",
      "midiNote": 70,
      "noteName": "A#4",
      "velocity": 0.7559055118110236,
      "duration": "96i"
    },
    {
      "time": "43104i",
      "midiNote": 44,
      "noteName": "G#2",
      "velocity": 0.7559055118110236,
      "duration": "96i"
    },
    {
      "time": "43104i",
      "midiNote": 37,
      "noteName": "C#2",
      "velocity": 0.5039370078740157,
      "duration": "96i"
    },
    {
      "time": "43200i",
      "midiNote": 44,
      "noteName": "G#2",
      "velocity": 0.7559055118110236,
      "duration": "96i"
    },
    {
      "time": "43200i",
      "midiNote": 37,
      "noteName": "C#2",
      "velocity": 0.5039370078740157,
      "duration": "96i"
    },
    {
      "time": "43296i",
      "midiNote": 37,
      "noteName": "C#2",
      "velocity": 0.7559055118110236,
      "duration": "96i"
    },
    {
      "time": "43296i",
      "midiNote": 70,
      "noteName": "A#4",
      "velocity": 0.7559055118110236,
      "duration": "96i"
    },
    {
      "time": "43392i",
      "midiNote": 44,
      "noteName": "G#2",
      "velocity": 0.7559055118110236,
      "duration": "96i"
    },
    {
      "time": "43392i",
      "midiNote": 37,
      "noteName": "C#2",
      "velocity": 0.5039370078740157,
      "duration": "96i"
    },
    {
      "time": "43488i",
      "midiNote": 44,
      "noteName": "G#2",
      "velocity": 0.7559055118110236,
      "duration": "96i"
    },
    {
      "time": "43488i",
      "midiNote": 37,
      "noteName": "C#2",
      "velocity": 0.5039370078740157,
      "duration": "96i"
    },
    {
      "time": "43584i",
      "midiNote": 37,
      "noteName": "C#2",
      "velocity": 0.7559055118110236,
      "duration": "96i"
    },
    {
      "time": "43584i",
      "midiNote": 70,
      "noteName": "A#4",
      "velocity": 0.7559055118110236,
      "duration": "96i"
    },
    {
      "time": "43680i",
      "midiNote": 44,
      "noteName": "G#2",
      "velocity": 0.7559055118110236,
      "duration": "96i"
    },
    {
      "time": "43680i",
      "midiNote": 37,
      "noteName": "C#2",
      "velocity": 0.5039370078740157,
      "duration": "96i"
    },
    {
      "time": "43776i",
      "midiNote": 37,
      "noteName": "C#2",
      "velocity": 0.7559055118110236,
      "duration": "96i"
    },
    {
      "time": "43776i",
      "midiNote": 70,
      "noteName": "A#4",
      "velocity": 0.7559055118110236,
      "duration": "96i"
    },
    {
      "time": "43872i",
      "midiNote": 44,
      "noteName": "G#2",
      "velocity": 0.7559055118110236,
      "duration": "96i"
    },
    {
      "time": "43872i",
      "midiNote": 37,
      "noteName": "C#2",
      "velocity": 0.5039370078740157,
      "duration": "96i"
    },
    {
      "time": "43968i",
      "midiNote": 44,
      "noteName": "G#2",
      "velocity": 0.7559055118110236,
      "duration": "96i"
    },
    {
      "time": "43968i",
      "midiNote": 37,
      "noteName": "C#2",
      "velocity": 0.5039370078740157,
      "duration": "96i"
    },
    {
      "time": "44064i",
      "midiNote": 44,
      "noteName": "G#2",
      "velocity": 0.7559055118110236,
      "duration": "96i"
    },
    {
      "time": "44064i",
      "midiNote": 37,
      "noteName": "C#2",
      "velocity": 0.5039370078740157,
      "duration": "96i"
    },
    {
      "time": "44160i",
      "midiNote": 70,
      "noteName": "A#4",
      "velocity": 0.7559055118110236,
      "duration": "96i"
    },
    {
      "time": "44160i",
      "midiNote": 37,
      "noteName": "C#2",
      "velocity": 0.7559055118110236,
      "duration": "96i"
    },
    {
      "time": "44256i",
      "midiNote": 44,
      "noteName": "G#2",
      "velocity": 0.7559055118110236,
      "duration": "96i"
    },
    {
      "time": "44256i",
      "midiNote": 37,
      "noteName": "C#2",
      "velocity": 0.5039370078740157,
      "duration": "96i"
    },
    {
      "time": "44352i",
      "midiNote": 44,
      "noteName": "G#2",
      "velocity": 0.7559055118110236,
      "duration": "96i"
    },
    {
      "time": "44352i",
      "midiNote": 37,
      "noteName": "C#2",
      "velocity": 0.5039370078740157,
      "duration": "96i"
    },
    {
      "time": "44448i",
      "midiNote": 37,
      "noteName": "C#2",
      "velocity": 0.5039370078740157,
      "duration": "96i"
    },
    {
      "time": "44448i",
      "midiNote": 44,
      "noteName": "G#2",
      "velocity": 0.7559055118110236,
      "duration": "96i"
    },
    {
      "time": "44544i",
      "midiNote": 37,
      "noteName": "C#2",
      "velocity": 0.7559055118110236,
      "duration": "96i"
    },
    {
      "time": "44544i",
      "midiNote": 70,
      "noteName": "A#4",
      "velocity": 0.7559055118110236,
      "duration": "96i"
    },
    {
      "time": "44640i",
      "midiNote": 44,
      "noteName": "G#2",
      "velocity": 0.7559055118110236,
      "duration": "96i"
    },
    {
      "time": "44640i",
      "midiNote": 37,
      "noteName": "C#2",
      "velocity": 0.5039370078740157,
      "duration": "96i"
    },
    {
      "time": "44736i",
      "midiNote": 44,
      "noteName": "G#2",
      "velocity": 0.7559055118110236,
      "duration": "96i"
    },
    {
      "time": "44736i",
      "midiNote": 37,
      "noteName": "C#2",
      "velocity": 0.5039370078740157,
      "duration": "96i"
    },
    {
      "time": "44832i",
      "midiNote": 37,
      "noteName": "C#2",
      "velocity": 0.7559055118110236,
      "duration": "96i"
    },
    {
      "time": "44832i",
      "midiNote": 70,
      "noteName": "A#4",
      "velocity": 0.7559055118110236,
      "duration": "96i"
    },
    {
      "time": "44928i",
      "midiNote": 44,
      "noteName": "G#2",
      "velocity": 0.7559055118110236,
      "duration": "96i"
    },
    {
      "time": "44928i",
      "midiNote": 37,
      "noteName": "C#2",
      "velocity": 0.5039370078740157,
      "duration": "96i"
    },
    {
      "time": "45024i",
      "midiNote": 44,
      "noteName": "G#2",
      "velocity": 0.7559055118110236,
      "duration": "96i"
    },
    {
      "time": "45024i",
      "midiNote": 37,
      "noteName": "C#2",
      "velocity": 0.5039370078740157,
      "duration": "96i"
    },
    {
      "time": "45120i",
      "midiNote": 37,
      "noteName": "C#2",
      "velocity": 0.7559055118110236,
      "duration": "96i"
    },
    {
      "time": "45120i",
      "midiNote": 70,
      "noteName": "A#4",
      "velocity": 0.7559055118110236,
      "duration": "96i"
    },
    {
      "time": "45216i",
      "midiNote": 44,
      "noteName": "G#2",
      "velocity": 0.7559055118110236,
      "duration": "96i"
    },
    {
      "time": "45216i",
      "midiNote": 37,
      "noteName": "C#2",
      "velocity": 0.5039370078740157,
      "duration": "96i"
    },
    {
      "time": "45312i",
      "midiNote": 37,
      "noteName": "C#2",
      "velocity": 0.7559055118110236,
      "duration": "96i"
    },
    {
      "time": "45312i",
      "midiNote": 70,
      "noteName": "A#4",
      "velocity": 0.7559055118110236,
      "duration": "96i"
    },
    {
      "time": "45408i",
      "midiNote": 44,
      "noteName": "G#2",
      "velocity": 0.7559055118110236,
      "duration": "96i"
    },
    {
      "time": "45408i",
      "midiNote": 37,
      "noteName": "C#2",
      "velocity": 0.5039370078740157,
      "duration": "96i"
    },
    {
      "time": "45504i",
      "midiNote": 44,
      "noteName": "G#2",
      "velocity": 0.7559055118110236,
      "duration": "96i"
    },
    {
      "time": "45504i",
      "midiNote": 37,
      "noteName": "C#2",
      "velocity": 0.5039370078740157,
      "duration": "96i"
    },
    {
      "time": "45600i",
      "midiNote": 44,
      "noteName": "G#2",
      "velocity": 0.7559055118110236,
      "duration": "96i"
    },
    {
      "time": "45600i",
      "midiNote": 37,
      "noteName": "C#2",
      "velocity": 0.5039370078740157,
      "duration": "96i"
    },
    {
      "time": "45696i",
      "midiNote": 70,
      "noteName": "A#4",
      "velocity": 0.7559055118110236,
      "duration": "96i"
    },
    {
      "time": "45696i",
      "midiNote": 37,
      "noteName": "C#2",
      "velocity": 0.7559055118110236,
      "duration": "96i"
    },
    {
      "time": "45792i",
      "midiNote": 44,
      "noteName": "G#2",
      "velocity": 0.7559055118110236,
      "duration": "96i"
    },
    {
      "time": "45792i",
      "midiNote": 37,
      "noteName": "C#2",
      "velocity": 0.5039370078740157,
      "duration": "96i"
    },
    {
      "time": "45888i",
      "midiNote": 44,
      "noteName": "G#2",
      "velocity": 0.7559055118110236,
      "duration": "96i"
    },
    {
      "time": "45888i",
      "midiNote": 37,
      "noteName": "C#2",
      "velocity": 0.5039370078740157,
      "duration": "96i"
    },
    {
      "time": "45984i",
      "midiNote": 37,
      "noteName": "C#2",
      "velocity": 0.5039370078740157,
      "duration": "96i"
    },
    {
      "time": "45984i",
      "midiNote": 44,
      "noteName": "G#2",
      "velocity": 0.7559055118110236,
      "duration": "96i"
    },
    {
      "time": "46080i",
      "midiNote": 37,
      "noteName": "C#2",
      "velocity": 0.7559055118110236,
      "duration": "96i"
    },
    {
      "time": "46080i",
      "midiNote": 70,
      "noteName": "A#4",
      "velocity": 0.7559055118110236,
      "duration": "96i"
    },
    {
      "time": "46176i",
      "midiNote": 44,
      "noteName": "G#2",
      "velocity": 0.7559055118110236,
      "duration": "96i"
    },
    {
      "time": "46176i",
      "midiNote": 37,
      "noteName": "C#2",
      "velocity": 0.5039370078740157,
      "duration": "96i"
    },
    {
      "time": "46272i",
      "midiNote": 44,
      "noteName": "G#2",
      "velocity": 0.7559055118110236,
      "duration": "96i"
    },
    {
      "time": "46272i",
      "midiNote": 37,
      "noteName": "C#2",
      "velocity": 0.5039370078740157,
      "duration": "96i"
    },
    {
      "time": "46368i",
      "midiNote": 37,
      "noteName": "C#2",
      "velocity": 0.7559055118110236,
      "duration": "96i"
    },
    {
      "time": "46368i",
      "midiNote": 70,
      "noteName": "A#4",
      "velocity": 0.7559055118110236,
      "duration": "96i"
    },
    {
      "time": "46464i",
      "midiNote": 44,
      "noteName": "G#2",
      "velocity": 0.7559055118110236,
      "duration": "96i"
    },
    {
      "time": "46464i",
      "midiNote": 37,
      "noteName": "C#2",
      "velocity": 0.5039370078740157,
      "duration": "96i"
    },
    {
      "time": "46560i",
      "midiNote": 44,
      "noteName": "G#2",
      "velocity": 0.7559055118110236,
      "duration": "96i"
    },
    {
      "time": "46560i",
      "midiNote": 37,
      "noteName": "C#2",
      "velocity": 0.5039370078740157,
      "duration": "96i"
    },
    {
      "time": "46656i",
      "midiNote": 37,
      "noteName": "C#2",
      "velocity": 0.7559055118110236,
      "duration": "96i"
    },
    {
      "time": "46656i",
      "midiNote": 70,
      "noteName": "A#4",
      "velocity": 0.7559055118110236,
      "duration": "96i"
    },
    {
      "time": "46752i",
      "midiNote": 44,
      "noteName": "G#2",
      "velocity": 0.7559055118110236,
      "duration": "96i"
    },
    {
      "time": "46752i",
      "midiNote": 37,
      "noteName": "C#2",
      "velocity": 0.5039370078740157,
      "duration": "96i"
    },
    {
      "time": "46848i",
      "midiNote": 37,
      "noteName": "C#2",
      "velocity": 0.7559055118110236,
      "duration": "96i"
    },
    {
      "time": "46848i",
      "midiNote": 70,
      "noteName": "A#4",
      "velocity": 0.7559055118110236,
      "duration": "96i"
    },
    {
      "time": "46944i",
      "midiNote": 44,
      "noteName": "G#2",
      "velocity": 0.7559055118110236,
      "duration": "96i"
    },
    {
      "time": "46944i",
      "midiNote": 37,
      "noteName": "C#2",
      "velocity": 0.5039370078740157,
      "duration": "96i"
    },
    {
      "time": "47040i",
      "midiNote": 44,
      "noteName": "G#2",
      "velocity": 0.7559055118110236,
      "duration": "96i"
    },
    {
      "time": "47040i",
      "midiNote": 37,
      "noteName": "C#2",
      "velocity": 0.5039370078740157,
      "duration": "96i"
    },
    {
      "time": "47136i",
      "midiNote": 44,
      "noteName": "G#2",
      "velocity": 0.7559055118110236,
      "duration": "96i"
    },
    {
      "time": "47136i",
      "midiNote": 37,
      "noteName": "C#2",
      "velocity": 0.5039370078740157,
      "duration": "96i"
    },
    {
      "time": "47232i",
      "midiNote": 70,
      "noteName": "A#4",
      "velocity": 0.7559055118110236,
      "duration": "96i"
    },
    {
      "time": "47232i",
      "midiNote": 37,
      "noteName": "C#2",
      "velocity": 0.7559055118110236,
      "duration": "96i"
    },
    {
      "time": "47328i",
      "midiNote": 44,
      "noteName": "G#2",
      "velocity": 0.7559055118110236,
      "duration": "96i"
    },
    {
      "time": "47328i",
      "midiNote": 37,
      "noteName": "C#2",
      "velocity": 0.5039370078740157,
      "duration": "96i"
    },
    {
      "time": "47424i",
      "midiNote": 44,
      "noteName": "G#2",
      "velocity": 0.7559055118110236,
      "duration": "96i"
    },
    {
      "time": "47424i",
      "midiNote": 37,
      "noteName": "C#2",
      "velocity": 0.5039370078740157,
      "duration": "96i"
    },
    {
      "time": "47520i",
      "midiNote": 37,
      "noteName": "C#2",
      "velocity": 0.5039370078740157,
      "duration": "96i"
    },
    {
      "time": "47520i",
      "midiNote": 44,
      "noteName": "G#2",
      "velocity": 0.7559055118110236,
      "duration": "96i"
    },
    {
      "time": "47616i",
      "midiNote": 37,
      "noteName": "C#2",
      "velocity": 0.7559055118110236,
      "duration": "96i"
    },
    {
      "time": "47616i",
      "midiNote": 70,
      "noteName": "A#4",
      "velocity": 0.7559055118110236,
      "duration": "96i"
    },
    {
      "time": "47712i",
      "midiNote": 44,
      "noteName": "G#2",
      "velocity": 0.7559055118110236,
      "duration": "96i"
    },
    {
      "time": "47712i",
      "midiNote": 37,
      "noteName": "C#2",
      "velocity": 0.5039370078740157,
      "duration": "96i"
    },
    {
      "time": "47808i",
      "midiNote": 44,
      "noteName": "G#2",
      "velocity": 0.7559055118110236,
      "duration": "96i"
    },
    {
      "time": "47808i",
      "midiNote": 37,
      "noteName": "C#2",
      "velocity": 0.5039370078740157,
      "duration": "96i"
    },
    {
      "time": "47904i",
      "midiNote": 37,
      "noteName": "C#2",
      "velocity": 0.7559055118110236,
      "duration": "96i"
    },
    {
      "time": "47904i",
      "midiNote": 70,
      "noteName": "A#4",
      "velocity": 0.7559055118110236,
      "duration": "96i"
    },
    {
      "time": "48000i",
      "midiNote": 44,
      "noteName": "G#2",
      "velocity": 0.7559055118110236,
      "duration": "96i"
    },
    {
      "time": "48000i",
      "midiNote": 37,
      "noteName": "C#2",
      "velocity": 0.5039370078740157,
      "duration": "96i"
    },
    {
      "time": "48096i",
      "midiNote": 44,
      "noteName": "G#2",
      "velocity": 0.7559055118110236,
      "duration": "96i"
    },
    {
      "time": "48096i",
      "midiNote": 37,
      "noteName": "C#2",
      "velocity": 0.5039370078740157,
      "duration": "96i"
    },
    {
      "time": "48192i",
      "midiNote": 37,
      "noteName": "C#2",
      "velocity": 0.7559055118110236,
      "duration": "96i"
    },
    {
      "time": "48192i",
      "midiNote": 70,
      "noteName": "A#4",
      "velocity": 0.7559055118110236,
      "duration": "96i"
    },
    {
      "time": "48288i",
      "midiNote": 44,
      "noteName": "G#2",
      "velocity": 0.7559055118110236,
      "duration": "96i"
    },
    {
      "time": "48288i",
      "midiNote": 37,
      "noteName": "C#2",
      "velocity": 0.5039370078740157,
      "duration": "96i"
    },
    {
      "time": "48384i",
      "midiNote": 37,
      "noteName": "C#2",
      "velocity": 0.7559055118110236,
      "duration": "96i"
    },
    {
      "time": "48384i",
      "midiNote": 70,
      "noteName": "A#4",
      "velocity": 0.7559055118110236,
      "duration": "96i"
    },
    {
      "time": "48480i",
      "midiNote": 44,
      "noteName": "G#2",
      "velocity": 0.7559055118110236,
      "duration": "96i"
    },
    {
      "time": "48480i",
      "midiNote": 37,
      "noteName": "C#2",
      "velocity": 0.5039370078740157,
      "duration": "96i"
    },
    {
      "time": "48576i",
      "midiNote": 44,
      "noteName": "G#2",
      "velocity": 0.7559055118110236,
      "duration": "96i"
    },
    {
      "time": "48576i",
      "midiNote": 37,
      "noteName": "C#2",
      "velocity": 0.5039370078740157,
      "duration": "96i"
    },
    {
      "time": "48672i",
      "midiNote": 44,
      "noteName": "G#2",
      "velocity": 0.7559055118110236,
      "duration": "96i"
    },
    {
      "time": "48672i",
      "midiNote": 37,
      "noteName": "C#2",
      "velocity": 0.5039370078740157,
      "duration": "96i"
    },
    {
      "time": "48768i",
      "midiNote": 70,
      "noteName": "A#4",
      "velocity": 0.7559055118110236,
      "duration": "96i"
    },
    {
      "time": "48768i",
      "midiNote": 37,
      "noteName": "C#2",
      "velocity": 0.7559055118110236,
      "duration": "96i"
    },
    {
      "time": "48864i",
      "midiNote": 44,
      "noteName": "G#2",
      "velocity": 0.7559055118110236,
      "duration": "96i"
    },
    {
      "time": "48864i",
      "midiNote": 37,
      "noteName": "C#2",
      "velocity": 0.5039370078740157,
      "duration": "96i"
    },
    {
      "time": "48960i",
      "midiNote": 44,
      "noteName": "G#2",
      "velocity": 0.7559055118110236,
      "duration": "96i"
    },
    {
      "time": "48960i",
      "midiNote": 37,
      "noteName": "C#2",
      "velocity": 0.5039370078740157,
      "duration": "96i"
    },
    {
      "time": "49056i",
      "midiNote": 37,
      "noteName": "C#2",
      "velocity": 0.5039370078740157,
      "duration": "96i"
    },
    {
      "time": "49056i",
      "midiNote": 44,
      "noteName": "G#2",
      "velocity": 0.7559055118110236,
      "duration": "96i"
    },
    {
      "time": "49152i",
      "midiNote": 37,
      "noteName": "C#2",
      "velocity": 0.7559055118110236,
      "duration": "96i"
    },
    {
      "time": "49152i",
      "midiNote": 70,
      "noteName": "A#4",
      "velocity": 0.7559055118110236,
      "duration": "96i"
    },
    {
      "time": "49248i",
      "midiNote": 44,
      "noteName": "G#2",
      "velocity": 0.7559055118110236,
      "duration": "96i"
    },
    {
      "time": "49248i",
      "midiNote": 37,
      "noteName": "C#2",
      "velocity": 0.5039370078740157,
      "duration": "96i"
    },
    {
      "time": "49344i",
      "midiNote": 44,
      "noteName": "G#2",
      "velocity": 0.7559055118110236,
      "duration": "96i"
    },
    {
      "time": "49344i",
      "midiNote": 37,
      "noteName": "C#2",
      "velocity": 0.5039370078740157,
      "duration": "96i"
    },
    {
      "time": "49440i",
      "midiNote": 37,
      "noteName": "C#2",
      "velocity": 0.7559055118110236,
      "duration": "96i"
    },
    {
      "time": "49440i",
      "midiNote": 70,
      "noteName": "A#4",
      "velocity": 0.7559055118110236,
      "duration": "96i"
    },
    {
      "time": "49536i",
      "midiNote": 44,
      "noteName": "G#2",
      "velocity": 0.7559055118110236,
      "duration": "96i"
    },
    {
      "time": "49536i",
      "midiNote": 37,
      "noteName": "C#2",
      "velocity": 0.5039370078740157,
      "duration": "96i"
    },
    {
      "time": "49632i",
      "midiNote": 44,
      "noteName": "G#2",
      "velocity": 0.7559055118110236,
      "duration": "96i"
    },
    {
      "time": "49632i",
      "midiNote": 37,
      "noteName": "C#2",
      "velocity": 0.5039370078740157,
      "duration": "96i"
    },
    {
      "time": "49728i",
      "midiNote": 37,
      "noteName": "C#2",
      "velocity": 0.7559055118110236,
      "duration": "96i"
    },
    {
      "time": "49728i",
      "midiNote": 70,
      "noteName": "A#4",
      "velocity": 0.7559055118110236,
      "duration": "96i"
    },
    {
      "time": "49824i",
      "midiNote": 44,
      "noteName": "G#2",
      "velocity": 0.7559055118110236,
      "duration": "96i"
    },
    {
      "time": "49824i",
      "midiNote": 37,
      "noteName": "C#2",
      "velocity": 0.5039370078740157,
      "duration": "96i"
    },
    {
      "time": "49920i",
      "midiNote": 37,
      "noteName": "C#2",
      "velocity": 0.7559055118110236,
      "duration": "96i"
    },
    {
      "time": "49920i",
      "midiNote": 70,
      "noteName": "A#4",
      "velocity": 0.7559055118110236,
      "duration": "96i"
    },
    {
      "time": "50016i",
      "midiNote": 44,
      "noteName": "G#2",
      "velocity": 0.7559055118110236,
      "duration": "96i"
    },
    {
      "time": "50016i",
      "midiNote": 37,
      "noteName": "C#2",
      "velocity": 0.5039370078740157,
      "duration": "96i"
    },
    {
      "time": "50112i",
      "midiNote": 44,
      "noteName": "G#2",
      "velocity": 0.7559055118110236,
      "duration": "96i"
    },
    {
      "time": "50112i",
      "midiNote": 37,
      "noteName": "C#2",
      "velocity": 0.5039370078740157,
      "duration": "96i"
    },
    {
      "time": "50208i",
      "midiNote": 44,
      "noteName": "G#2",
      "velocity": 0.7559055118110236,
      "duration": "96i"
    },
    {
      "time": "50208i",
      "midiNote": 37,
      "noteName": "C#2",
      "velocity": 0.5039370078740157,
      "duration": "96i"
    },
    {
      "time": "50304i",
      "midiNote": 70,
      "noteName": "A#4",
      "velocity": 0.7559055118110236,
      "duration": "96i"
    },
    {
      "time": "50304i",
      "midiNote": 37,
      "noteName": "C#2",
      "velocity": 0.7559055118110236,
      "duration": "96i"
    },
    {
      "time": "50400i",
      "midiNote": 44,
      "noteName": "G#2",
      "velocity": 0.7559055118110236,
      "duration": "96i"
    },
    {
      "time": "50400i",
      "midiNote": 37,
      "noteName": "C#2",
      "velocity": 0.5039370078740157,
      "duration": "96i"
    },
    {
      "time": "50496i",
      "midiNote": 44,
      "noteName": "G#2",
      "velocity": 0.7559055118110236,
      "duration": "96i"
    },
    {
      "time": "50496i",
      "midiNote": 37,
      "noteName": "C#2",
      "velocity": 0.5039370078740157,
      "duration": "96i"
    },
    {
      "time": "50592i",
      "midiNote": 37,
      "noteName": "C#2",
      "velocity": 0.5039370078740157,
      "duration": "96i"
    },
    {
      "time": "50592i",
      "midiNote": 44,
      "noteName": "G#2",
      "velocity": 0.7559055118110236,
      "duration": "96i"
    },
    {
      "time": "50688i",
      "midiNote": 37,
      "noteName": "C#2",
      "velocity": 0.7559055118110236,
      "duration": "96i"
    },
    {
      "time": "50688i",
      "midiNote": 70,
      "noteName": "A#4",
      "velocity": 0.7559055118110236,
      "duration": "96i"
    },
    {
      "time": "50784i",
      "midiNote": 44,
      "noteName": "G#2",
      "velocity": 0.7559055118110236,
      "duration": "96i"
    },
    {
      "time": "50784i",
      "midiNote": 37,
      "noteName": "C#2",
      "velocity": 0.5039370078740157,
      "duration": "96i"
    },
    {
      "time": "50880i",
      "midiNote": 44,
      "noteName": "G#2",
      "velocity": 0.7559055118110236,
      "duration": "96i"
    },
    {
      "time": "50880i",
      "midiNote": 37,
      "noteName": "C#2",
      "velocity": 0.5039370078740157,
      "duration": "96i"
    },
    {
      "time": "50976i",
      "midiNote": 37,
      "noteName": "C#2",
      "velocity": 0.7559055118110236,
      "duration": "96i"
    },
    {
      "time": "50976i",
      "midiNote": 70,
      "noteName": "A#4",
      "velocity": 0.7559055118110236,
      "duration": "96i"
    },
    {
      "time": "51072i",
      "midiNote": 44,
      "noteName": "G#2",
      "velocity": 0.7559055118110236,
      "duration": "96i"
    },
    {
      "time": "51072i",
      "midiNote": 37,
      "noteName": "C#2",
      "velocity": 0.5039370078740157,
      "duration": "96i"
    },
    {
      "time": "51168i",
      "midiNote": 44,
      "noteName": "G#2",
      "velocity": 0.7559055118110236,
      "duration": "96i"
    },
    {
      "time": "51168i",
      "midiNote": 37,
      "noteName": "C#2",
      "velocity": 0.5039370078740157,
      "duration": "96i"
    },
    {
      "time": "51264i",
      "midiNote": 37,
      "noteName": "C#2",
      "velocity": 0.7559055118110236,
      "duration": "96i"
    },
    {
      "time": "51264i",
      "midiNote": 70,
      "noteName": "A#4",
      "velocity": 0.7559055118110236,
      "duration": "96i"
    },
    {
      "time": "51360i",
      "midiNote": 44,
      "noteName": "G#2",
      "velocity": 0.7559055118110236,
      "duration": "96i"
    },
    {
      "time": "51360i",
      "midiNote": 37,
      "noteName": "C#2",
      "velocity": 0.5039370078740157,
      "duration": "96i"
    },
    {
      "time": "51456i",
      "midiNote": 37,
      "noteName": "C#2",
      "velocity": 0.7559055118110236,
      "duration": "96i"
    },
    {
      "time": "51456i",
      "midiNote": 70,
      "noteName": "A#4",
      "velocity": 0.7559055118110236,
      "duration": "96i"
    },
    {
      "time": "51552i",
      "midiNote": 44,
      "noteName": "G#2",
      "velocity": 0.7559055118110236,
      "duration": "96i"
    },
    {
      "time": "51552i",
      "midiNote": 37,
      "noteName": "C#2",
      "velocity": 0.5039370078740157,
      "duration": "96i"
    },
    {
      "time": "51648i",
      "midiNote": 44,
      "noteName": "G#2",
      "velocity": 0.7559055118110236,
      "duration": "96i"
    },
    {
      "time": "51648i",
      "midiNote": 37,
      "noteName": "C#2",
      "velocity": 0.5039370078740157,
      "duration": "96i"
    },
    {
      "time": "51744i",
      "midiNote": 44,
      "noteName": "G#2",
      "velocity": 0.7559055118110236,
      "duration": "96i"
    },
    {
      "time": "51744i",
      "midiNote": 37,
      "noteName": "C#2",
      "velocity": 0.5039370078740157,
      "duration": "96i"
    },
    {
      "time": "51840i",
      "midiNote": 70,
      "noteName": "A#4",
      "velocity": 0.7559055118110236,
      "duration": "96i"
    },
    {
      "time": "51840i",
      "midiNote": 37,
      "noteName": "C#2",
      "velocity": 0.7559055118110236,
      "duration": "96i"
    },
    {
      "time": "51936i",
      "midiNote": 44,
      "noteName": "G#2",
      "velocity": 0.7559055118110236,
      "duration": "96i"
    },
    {
      "time": "51936i",
      "midiNote": 37,
      "noteName": "C#2",
      "velocity": 0.5039370078740157,
      "duration": "96i"
    },
    {
      "time": "52032i",
      "midiNote": 44,
      "noteName": "G#2",
      "velocity": 0.7559055118110236,
      "duration": "96i"
    },
    {
      "time": "52032i",
      "midiNote": 37,
      "noteName": "C#2",
      "velocity": 0.5039370078740157,
      "duration": "96i"
    },
    {
      "time": "52128i",
      "midiNote": 37,
      "noteName": "C#2",
      "velocity": 0.5039370078740157,
      "duration": "96i"
    },
    {
      "time": "52128i",
      "midiNote": 44,
      "noteName": "G#2",
      "velocity": 0.7559055118110236,
      "duration": "96i"
    },
    {
      "time": "52224i",
      "midiNote": 37,
      "noteName": "C#2",
      "velocity": 0.7559055118110236,
      "duration": "96i"
    },
    {
      "time": "52224i",
      "midiNote": 70,
      "noteName": "A#4",
      "velocity": 0.7559055118110236,
      "duration": "96i"
    },
    {
      "time": "52320i",
      "midiNote": 44,
      "noteName": "G#2",
      "velocity": 0.7559055118110236,
      "duration": "96i"
    },
    {
      "time": "52320i",
      "midiNote": 37,
      "noteName": "C#2",
      "velocity": 0.5039370078740157,
      "duration": "96i"
    },
    {
      "time": "52416i",
      "midiNote": 44,
      "noteName": "G#2",
      "velocity": 0.7559055118110236,
      "duration": "96i"
    },
    {
      "time": "52416i",
      "midiNote": 37,
      "noteName": "C#2",
      "velocity": 0.5039370078740157,
      "duration": "96i"
    },
    {
      "time": "52512i",
      "midiNote": 37,
      "noteName": "C#2",
      "velocity": 0.7559055118110236,
      "duration": "96i"
    },
    {
      "time": "52512i",
      "midiNote": 70,
      "noteName": "A#4",
      "velocity": 0.7559055118110236,
      "duration": "96i"
    },
    {
      "time": "52608i",
      "midiNote": 44,
      "noteName": "G#2",
      "velocity": 0.7559055118110236,
      "duration": "96i"
    },
    {
      "time": "52608i",
      "midiNote": 37,
      "noteName": "C#2",
      "velocity": 0.5039370078740157,
      "duration": "96i"
    },
    {
      "time": "52704i",
      "midiNote": 44,
      "noteName": "G#2",
      "velocity": 0.7559055118110236,
      "duration": "96i"
    },
    {
      "time": "52704i",
      "midiNote": 37,
      "noteName": "C#2",
      "velocity": 0.5039370078740157,
      "duration": "96i"
    },
    {
      "time": "52800i",
      "midiNote": 37,
      "noteName": "C#2",
      "velocity": 0.7559055118110236,
      "duration": "96i"
    },
    {
      "time": "52800i",
      "midiNote": 70,
      "noteName": "A#4",
      "velocity": 0.7559055118110236,
      "duration": "96i"
    },
    {
      "time": "52896i",
      "midiNote": 44,
      "noteName": "G#2",
      "velocity": 0.7559055118110236,
      "duration": "96i"
    },
    {
      "time": "52896i",
      "midiNote": 37,
      "noteName": "C#2",
      "velocity": 0.5039370078740157,
      "duration": "96i"
    },
    {
      "time": "52992i",
      "midiNote": 37,
      "noteName": "C#2",
      "velocity": 0.7559055118110236,
      "duration": "96i"
    },
    {
      "time": "52992i",
      "midiNote": 70,
      "noteName": "A#4",
      "velocity": 0.7559055118110236,
      "duration": "96i"
    },
    {
      "time": "53088i",
      "midiNote": 44,
      "noteName": "G#2",
      "velocity": 0.7559055118110236,
      "duration": "96i"
    },
    {
      "time": "53088i",
      "midiNote": 37,
      "noteName": "C#2",
      "velocity": 0.5039370078740157,
      "duration": "96i"
    },
    {
      "time": "53184i",
      "midiNote": 44,
      "noteName": "G#2",
      "velocity": 0.7559055118110236,
      "duration": "96i"
    },
    {
      "time": "53184i",
      "midiNote": 37,
      "noteName": "C#2",
      "velocity": 0.5039370078740157,
      "duration": "96i"
    },
    {
      "time": "53280i",
      "midiNote": 44,
      "noteName": "G#2",
      "velocity": 0.7559055118110236,
      "duration": "96i"
    },
    {
      "time": "53280i",
      "midiNote": 37,
      "noteName": "C#2",
      "velocity": 0.5039370078740157,
      "duration": "96i"
    },
    {
      "time": "53376i",
      "midiNote": 70,
      "noteName": "A#4",
      "velocity": 0.7559055118110236,
      "duration": "96i"
    },
    {
      "time": "53376i",
      "midiNote": 37,
      "noteName": "C#2",
      "velocity": 0.7559055118110236,
      "duration": "96i"
    },
    {
      "time": "53472i",
      "midiNote": 44,
      "noteName": "G#2",
      "velocity": 0.7559055118110236,
      "duration": "96i"
    },
    {
      "time": "53472i",
      "midiNote": 37,
      "noteName": "C#2",
      "velocity": 0.5039370078740157,
      "duration": "96i"
    },
    {
      "time": "53568i",
      "midiNote": 44,
      "noteName": "G#2",
      "velocity": 0.7559055118110236,
      "duration": "96i"
    },
    {
      "time": "53568i",
      "midiNote": 37,
      "noteName": "C#2",
      "velocity": 0.5039370078740157,
      "duration": "96i"
    },
    {
      "time": "53664i",
      "midiNote": 37,
      "noteName": "C#2",
      "velocity": 0.5039370078740157,
      "duration": "96i"
    },
    {
      "time": "53664i",
      "midiNote": 44,
      "noteName": "G#2",
      "velocity": 0.7559055118110236,
      "duration": "96i"
    },
    {
      "time": "53760i",
      "midiNote": 37,
      "noteName": "C#2",
      "velocity": 0.7559055118110236,
      "duration": "96i"
    },
    {
      "time": "53760i",
      "midiNote": 70,
      "noteName": "A#4",
      "velocity": 0.7559055118110236,
      "duration": "96i"
    },
    {
      "time": "53856i",
      "midiNote": 44,
      "noteName": "G#2",
      "velocity": 0.7559055118110236,
      "duration": "96i"
    },
    {
      "time": "53856i",
      "midiNote": 37,
      "noteName": "C#2",
      "velocity": 0.5039370078740157,
      "duration": "96i"
    },
    {
      "time": "53952i",
      "midiNote": 44,
      "noteName": "G#2",
      "velocity": 0.7559055118110236,
      "duration": "96i"
    },
    {
      "time": "53952i",
      "midiNote": 37,
      "noteName": "C#2",
      "velocity": 0.5039370078740157,
      "duration": "96i"
    },
    {
      "time": "54048i",
      "midiNote": 37,
      "noteName": "C#2",
      "velocity": 0.7559055118110236,
      "duration": "96i"
    },
    {
      "time": "54048i",
      "midiNote": 70,
      "noteName": "A#4",
      "velocity": 0.7559055118110236,
      "duration": "96i"
    },
    {
      "time": "54144i",
      "midiNote": 44,
      "noteName": "G#2",
      "velocity": 0.7559055118110236,
      "duration": "96i"
    },
    {
      "time": "54144i",
      "midiNote": 37,
      "noteName": "C#2",
      "velocity": 0.5039370078740157,
      "duration": "96i"
    },
    {
      "time": "54240i",
      "midiNote": 44,
      "noteName": "G#2",
      "velocity": 0.7559055118110236,
      "duration": "96i"
    },
    {
      "time": "54240i",
      "midiNote": 37,
      "noteName": "C#2",
      "velocity": 0.5039370078740157,
      "duration": "96i"
    },
    {
      "time": "54336i",
      "midiNote": 37,
      "noteName": "C#2",
      "velocity": 0.7559055118110236,
      "duration": "96i"
    },
    {
      "time": "54336i",
      "midiNote": 70,
      "noteName": "A#4",
      "velocity": 0.7559055118110236,
      "duration": "96i"
    },
    {
      "time": "54432i",
      "midiNote": 44,
      "noteName": "G#2",
      "velocity": 0.7559055118110236,
      "duration": "96i"
    },
    {
      "time": "54432i",
      "midiNote": 37,
      "noteName": "C#2",
      "velocity": 0.5039370078740157,
      "duration": "96i"
    },
    {
      "time": "54528i",
      "midiNote": 37,
      "noteName": "C#2",
      "velocity": 0.7559055118110236,
      "duration": "96i"
    },
    {
      "time": "54528i",
      "midiNote": 70,
      "noteName": "A#4",
      "velocity": 0.7559055118110236,
      "duration": "96i"
    },
    {
      "time": "54624i",
      "midiNote": 44,
      "noteName": "G#2",
      "velocity": 0.7559055118110236,
      "duration": "96i"
    },
    {
      "time": "54624i",
      "midiNote": 37,
      "noteName": "C#2",
      "velocity": 0.5039370078740157,
      "duration": "96i"
    },
    {
      "time": "54720i",
      "midiNote": 44,
      "noteName": "G#2",
      "velocity": 0.7559055118110236,
      "duration": "96i"
    },
    {
      "time": "54720i",
      "midiNote": 37,
      "noteName": "C#2",
      "velocity": 0.5039370078740157,
      "duration": "96i"
    },
    {
      "time": "54816i",
      "midiNote": 44,
      "noteName": "G#2",
      "velocity": 0.7559055118110236,
      "duration": "96i"
    },
    {
      "time": "54816i",
      "midiNote": 37,
      "noteName": "C#2",
      "velocity": 0.5039370078740157,
      "duration": "96i"
    },
    {
      "time": "54912i",
      "midiNote": 70,
      "noteName": "A#4",
      "velocity": 0.7559055118110236,
      "duration": "96i"
    },
    {
      "time": "54912i",
      "midiNote": 37,
      "noteName": "C#2",
      "velocity": 0.7559055118110236,
      "duration": "96i"
    },
    {
      "time": "55008i",
      "midiNote": 44,
      "noteName": "G#2",
      "velocity": 0.7559055118110236,
      "duration": "96i"
    },
    {
      "time": "55008i",
      "midiNote": 37,
      "noteName": "C#2",
      "velocity": 0.5039370078740157,
      "duration": "96i"
    },
    {
      "time": "55104i",
      "midiNote": 44,
      "noteName": "G#2",
      "velocity": 0.7559055118110236,
      "duration": "96i"
    },
    {
      "time": "55104i",
      "midiNote": 37,
      "noteName": "C#2",
      "velocity": 0.5039370078740157,
      "duration": "96i"
    },
    {
      "time": "55200i",
      "midiNote": 37,
      "noteName": "C#2",
      "velocity": 0.5039370078740157,
      "duration": "96i"
    },
    {
      "time": "55200i",
      "midiNote": 44,
      "noteName": "G#2",
      "velocity": 0.7559055118110236,
      "duration": "96i"
    },
    {
      "time": "55296i",
      "midiNote": 37,
      "noteName": "C#2",
      "velocity": 0.7559055118110236,
      "duration": "96i"
    },
    {
      "time": "55296i",
      "midiNote": 70,
      "noteName": "A#4",
      "velocity": 0.7559055118110236,
      "duration": "96i"
    },
    {
      "time": "55392i",
      "midiNote": 44,
      "noteName": "G#2",
      "velocity": 0.7559055118110236,
      "duration": "96i"
    },
    {
      "time": "55392i",
      "midiNote": 37,
      "noteName": "C#2",
      "velocity": 0.5039370078740157,
      "duration": "96i"
    },
    {
      "time": "55488i",
      "midiNote": 44,
      "noteName": "G#2",
      "velocity": 0.7559055118110236,
      "duration": "96i"
    },
    {
      "time": "55488i",
      "midiNote": 37,
      "noteName": "C#2",
      "velocity": 0.5039370078740157,
      "duration": "96i"
    },
    {
      "time": "55584i",
      "midiNote": 37,
      "noteName": "C#2",
      "velocity": 0.7559055118110236,
      "duration": "96i"
    },
    {
      "time": "55584i",
      "midiNote": 70,
      "noteName": "A#4",
      "velocity": 0.7559055118110236,
      "duration": "96i"
    },
    {
      "time": "55680i",
      "midiNote": 44,
      "noteName": "G#2",
      "velocity": 0.7559055118110236,
      "duration": "96i"
    },
    {
      "time": "55680i",
      "midiNote": 37,
      "noteName": "C#2",
      "velocity": 0.5039370078740157,
      "duration": "96i"
    },
    {
      "time": "55776i",
      "midiNote": 44,
      "noteName": "G#2",
      "velocity": 0.7559055118110236,
      "duration": "96i"
    },
    {
      "time": "55776i",
      "midiNote": 37,
      "noteName": "C#2",
      "velocity": 0.5039370078740157,
      "duration": "96i"
    },
    {
      "time": "55872i",
      "midiNote": 37,
      "noteName": "C#2",
      "velocity": 0.7559055118110236,
      "duration": "96i"
    },
    {
      "time": "55872i",
      "midiNote": 70,
      "noteName": "A#4",
      "velocity": 0.7559055118110236,
      "duration": "96i"
    },
    {
      "time": "55968i",
      "midiNote": 44,
      "noteName": "G#2",
      "velocity": 0.7559055118110236,
      "duration": "96i"
    },
    {
      "time": "55968i",
      "midiNote": 37,
      "noteName": "C#2",
      "velocity": 0.5039370078740157,
      "duration": "96i"
    },
    {
      "time": "56064i",
      "midiNote": 37,
      "noteName": "C#2",
      "velocity": 0.7559055118110236,
      "duration": "96i"
    },
    {
      "time": "56064i",
      "midiNote": 70,
      "noteName": "A#4",
      "velocity": 0.7559055118110236,
      "duration": "96i"
    },
    {
      "time": "56160i",
      "midiNote": 44,
      "noteName": "G#2",
      "velocity": 0.7559055118110236,
      "duration": "96i"
    },
    {
      "time": "56160i",
      "midiNote": 37,
      "noteName": "C#2",
      "velocity": 0.5039370078740157,
      "duration": "96i"
    },
    {
      "time": "56256i",
      "midiNote": 44,
      "noteName": "G#2",
      "velocity": 0.7559055118110236,
      "duration": "96i"
    },
    {
      "time": "56256i",
      "midiNote": 37,
      "noteName": "C#2",
      "velocity": 0.5039370078740157,
      "duration": "96i"
    },
    {
      "time": "56352i",
      "midiNote": 44,
      "noteName": "G#2",
      "velocity": 0.7559055118110236,
      "duration": "96i"
    },
    {
      "time": "56352i",
      "midiNote": 37,
      "noteName": "C#2",
      "velocity": 0.5039370078740157,
      "duration": "96i"
    },
    {
      "time": "56448i",
      "midiNote": 70,
      "noteName": "A#4",
      "velocity": 0.7559055118110236,
      "duration": "96i"
    },
    {
      "time": "56448i",
      "midiNote": 37,
      "noteName": "C#2",
      "velocity": 0.7559055118110236,
      "duration": "96i"
    },
    {
      "time": "56544i",
      "midiNote": 44,
      "noteName": "G#2",
      "velocity": 0.7559055118110236,
      "duration": "96i"
    },
    {
      "time": "56544i",
      "midiNote": 37,
      "noteName": "C#2",
      "velocity": 0.5039370078740157,
      "duration": "96i"
    },
    {
      "time": "56640i",
      "midiNote": 44,
      "noteName": "G#2",
      "velocity": 0.7559055118110236,
      "duration": "96i"
    },
    {
      "time": "56640i",
      "midiNote": 37,
      "noteName": "C#2",
      "velocity": 0.5039370078740157,
      "duration": "96i"
    },
    {
      "time": "56736i",
      "midiNote": 37,
      "noteName": "C#2",
      "velocity": 0.5039370078740157,
      "duration": "96i"
    },
    {
      "time": "56736i",
      "midiNote": 44,
      "noteName": "G#2",
      "velocity": 0.7559055118110236,
      "duration": "96i"
    },
    {
      "time": "56832i",
      "midiNote": 37,
      "noteName": "C#2",
      "velocity": 0.7559055118110236,
      "duration": "96i"
    },
    {
      "time": "56832i",
      "midiNote": 70,
      "noteName": "A#4",
      "velocity": 0.7559055118110236,
      "duration": "96i"
    },
    {
      "time": "56928i",
      "midiNote": 44,
      "noteName": "G#2",
      "velocity": 0.7559055118110236,
      "duration": "96i"
    },
    {
      "time": "56928i",
      "midiNote": 37,
      "noteName": "C#2",
      "velocity": 0.5039370078740157,
      "duration": "96i"
    },
    {
      "time": "57024i",
      "midiNote": 44,
      "noteName": "G#2",
      "velocity": 0.7559055118110236,
      "duration": "96i"
    },
    {
      "time": "57024i",
      "midiNote": 37,
      "noteName": "C#2",
      "velocity": 0.5039370078740157,
      "duration": "96i"
    },
    {
      "time": "57120i",
      "midiNote": 37,
      "noteName": "C#2",
      "velocity": 0.7559055118110236,
      "duration": "96i"
    },
    {
      "time": "57120i",
      "midiNote": 70,
      "noteName": "A#4",
      "velocity": 0.7559055118110236,
      "duration": "96i"
    },
    {
      "time": "57216i",
      "midiNote": 44,
      "noteName": "G#2",
      "velocity": 0.7559055118110236,
      "duration": "96i"
    },
    {
      "time": "57216i",
      "midiNote": 37,
      "noteName": "C#2",
      "velocity": 0.5039370078740157,
      "duration": "96i"
    },
    {
      "time": "57312i",
      "midiNote": 44,
      "noteName": "G#2",
      "velocity": 0.7559055118110236,
      "duration": "96i"
    },
    {
      "time": "57312i",
      "midiNote": 37,
      "noteName": "C#2",
      "velocity": 0.5039370078740157,
      "duration": "96i"
    },
    {
      "time": "57408i",
      "midiNote": 37,
      "noteName": "C#2",
      "velocity": 0.7559055118110236,
      "duration": "96i"
    },
    {
      "time": "57408i",
      "midiNote": 70,
      "noteName": "A#4",
      "velocity": 0.7559055118110236,
      "duration": "96i"
    },
    {
      "time": "57504i",
      "midiNote": 44,
      "noteName": "G#2",
      "velocity": 0.7559055118110236,
      "duration": "96i"
    },
    {
      "time": "57504i",
      "midiNote": 37,
      "noteName": "C#2",
      "velocity": 0.5039370078740157,
      "duration": "96i"
    },
    {
      "time": "57600i",
      "midiNote": 37,
      "noteName": "C#2",
      "velocity": 0.7559055118110236,
      "duration": "96i"
    },
    {
      "time": "57600i",
      "midiNote": 70,
      "noteName": "A#4",
      "velocity": 0.7559055118110236,
      "duration": "96i"
    },
    {
      "time": "57696i",
      "midiNote": 44,
      "noteName": "G#2",
      "velocity": 0.7559055118110236,
      "duration": "96i"
    },
    {
      "time": "57696i",
      "midiNote": 37,
      "noteName": "C#2",
      "velocity": 0.5039370078740157,
      "duration": "96i"
    },
    {
      "time": "57792i",
      "midiNote": 44,
      "noteName": "G#2",
      "velocity": 0.7559055118110236,
      "duration": "96i"
    },
    {
      "time": "57792i",
      "midiNote": 37,
      "noteName": "C#2",
      "velocity": 0.5039370078740157,
      "duration": "96i"
    },
    {
      "time": "57888i",
      "midiNote": 44,
      "noteName": "G#2",
      "velocity": 0.7559055118110236,
      "duration": "96i"
    },
    {
      "time": "57888i",
      "midiNote": 37,
      "noteName": "C#2",
      "velocity": 0.5039370078740157,
      "duration": "96i"
    },
    {
      "time": "57984i",
      "midiNote": 70,
      "noteName": "A#4",
      "velocity": 0.7559055118110236,
      "duration": "96i"
    },
    {
      "time": "57984i",
      "midiNote": 37,
      "noteName": "C#2",
      "velocity": 0.7559055118110236,
      "duration": "96i"
    },
    {
      "time": "58080i",
      "midiNote": 44,
      "noteName": "G#2",
      "velocity": 0.7559055118110236,
      "duration": "96i"
    },
    {
      "time": "58080i",
      "midiNote": 37,
      "noteName": "C#2",
      "velocity": 0.5039370078740157,
      "duration": "96i"
    },
    {
      "time": "58176i",
      "midiNote": 44,
      "noteName": "G#2",
      "velocity": 0.7559055118110236,
      "duration": "96i"
    },
    {
      "time": "58176i",
      "midiNote": 37,
      "noteName": "C#2",
      "velocity": 0.5039370078740157,
      "duration": "96i"
    },
    {
      "time": "58272i",
      "midiNote": 37,
      "noteName": "C#2",
      "velocity": 0.5039370078740157,
      "duration": "96i"
    },
    {
      "time": "58272i",
      "midiNote": 44,
      "noteName": "G#2",
      "velocity": 0.7559055118110236,
      "duration": "96i"
    },
    {
      "time": "58368i",
      "midiNote": 37,
      "noteName": "C#2",
      "velocity": 0.7559055118110236,
      "duration": "96i"
    },
    {
      "time": "58368i",
      "midiNote": 70,
      "noteName": "A#4",
      "velocity": 0.7559055118110236,
      "duration": "96i"
    },
    {
      "time": "58464i",
      "midiNote": 44,
      "noteName": "G#2",
      "velocity": 0.7559055118110236,
      "duration": "96i"
    },
    {
      "time": "58464i",
      "midiNote": 37,
      "noteName": "C#2",
      "velocity": 0.5039370078740157,
      "duration": "96i"
    },
    {
      "time": "58560i",
      "midiNote": 44,
      "noteName": "G#2",
      "velocity": 0.7559055118110236,
      "duration": "96i"
    },
    {
      "time": "58560i",
      "midiNote": 37,
      "noteName": "C#2",
      "velocity": 0.5039370078740157,
      "duration": "96i"
    },
    {
      "time": "58656i",
      "midiNote": 37,
      "noteName": "C#2",
      "velocity": 0.7559055118110236,
      "duration": "96i"
    },
    {
      "time": "58656i",
      "midiNote": 70,
      "noteName": "A#4",
      "velocity": 0.7559055118110236,
      "duration": "96i"
    },
    {
      "time": "58752i",
      "midiNote": 44,
      "noteName": "G#2",
      "velocity": 0.7559055118110236,
      "duration": "96i"
    },
    {
      "time": "58752i",
      "midiNote": 37,
      "noteName": "C#2",
      "velocity": 0.5039370078740157,
      "duration": "96i"
    },
    {
      "time": "58848i",
      "midiNote": 44,
      "noteName": "G#2",
      "velocity": 0.7559055118110236,
      "duration": "96i"
    },
    {
      "time": "58848i",
      "midiNote": 37,
      "noteName": "C#2",
      "velocity": 0.5039370078740157,
      "duration": "96i"
    },
    {
      "time": "58944i",
      "midiNote": 37,
      "noteName": "C#2",
      "velocity": 0.7559055118110236,
      "duration": "96i"
    },
    {
      "time": "58944i",
      "midiNote": 70,
      "noteName": "A#4",
      "velocity": 0.7559055118110236,
      "duration": "96i"
    },
    {
      "time": "59040i",
      "midiNote": 44,
      "noteName": "G#2",
      "velocity": 0.7559055118110236,
      "duration": "96i"
    },
    {
      "time": "59040i",
      "midiNote": 37,
      "noteName": "C#2",
      "velocity": 0.5039370078740157,
      "duration": "96i"
    },
    {
      "time": "59136i",
      "midiNote": 37,
      "noteName": "C#2",
      "velocity": 0.7559055118110236,
      "duration": "96i"
    },
    {
      "time": "59136i",
      "midiNote": 70,
      "noteName": "A#4",
      "velocity": 0.7559055118110236,
      "duration": "96i"
    },
    {
      "time": "59232i",
      "midiNote": 44,
      "noteName": "G#2",
      "velocity": 0.7559055118110236,
      "duration": "96i"
    },
    {
      "time": "59232i",
      "midiNote": 37,
      "noteName": "C#2",
      "velocity": 0.5039370078740157,
      "duration": "96i"
    },
    {
      "time": "59328i",
      "midiNote": 44,
      "noteName": "G#2",
      "velocity": 0.7559055118110236,
      "duration": "96i"
    },
    {
      "time": "59328i",
      "midiNote": 37,
      "noteName": "C#2",
      "velocity": 0.5039370078740157,
      "duration": "96i"
    },
    {
      "time": "59424i",
      "midiNote": 44,
      "noteName": "G#2",
      "velocity": 0.7559055118110236,
      "duration": "96i"
    },
    {
      "time": "59424i",
      "midiNote": 37,
      "noteName": "C#2",
      "velocity": 0.5039370078740157,
      "duration": "96i"
    },
    {
      "time": "59520i",
      "midiNote": 70,
      "noteName": "A#4",
      "velocity": 0.7559055118110236,
      "duration": "96i"
    },
    {
      "time": "59520i",
      "midiNote": 37,
      "noteName": "C#2",
      "velocity": 0.7559055118110236,
      "duration": "96i"
    },
    {
      "time": "59616i",
      "midiNote": 44,
      "noteName": "G#2",
      "velocity": 0.7559055118110236,
      "duration": "96i"
    },
    {
      "time": "59616i",
      "midiNote": 37,
      "noteName": "C#2",
      "velocity": 0.5039370078740157,
      "duration": "96i"
    },
    {
      "time": "59712i",
      "midiNote": 44,
      "noteName": "G#2",
      "velocity": 0.7559055118110236,
      "duration": "96i"
    },
    {
      "time": "59712i",
      "midiNote": 37,
      "noteName": "C#2",
      "velocity": 0.5039370078740157,
      "duration": "96i"
    },
    {
      "time": "59808i",
      "midiNote": 37,
      "noteName": "C#2",
      "velocity": 0.5039370078740157,
      "duration": "96i"
    },
    {
      "time": "59808i",
      "midiNote": 44,
      "noteName": "G#2",
      "velocity": 0.7559055118110236,
      "duration": "96i"
    },
    {
      "time": "59904i",
      "midiNote": 37,
      "noteName": "C#2",
      "velocity": 0.7559055118110236,
      "duration": "96i"
    },
    {
      "time": "59904i",
      "midiNote": 70,
      "noteName": "A#4",
      "velocity": 0.7559055118110236,
      "duration": "96i"
    },
    {
      "time": "60000i",
      "midiNote": 44,
      "noteName": "G#2",
      "velocity": 0.7559055118110236,
      "duration": "96i"
    },
    {
      "time": "60000i",
      "midiNote": 37,
      "noteName": "C#2",
      "velocity": 0.5039370078740157,
      "duration": "96i"
    },
    {
      "time": "60096i",
      "midiNote": 44,
      "noteName": "G#2",
      "velocity": 0.7559055118110236,
      "duration": "96i"
    },
    {
      "time": "60096i",
      "midiNote": 37,
      "noteName": "C#2",
      "velocity": 0.5039370078740157,
      "duration": "96i"
    },
    {
      "time": "60192i",
      "midiNote": 37,
      "noteName": "C#2",
      "velocity": 0.7559055118110236,
      "duration": "96i"
    },
    {
      "time": "60192i",
      "midiNote": 70,
      "noteName": "A#4",
      "velocity": 0.7559055118110236,
      "duration": "96i"
    },
    {
      "time": "60288i",
      "midiNote": 44,
      "noteName": "G#2",
      "velocity": 0.7559055118110236,
      "duration": "96i"
    },
    {
      "time": "60288i",
      "midiNote": 37,
      "noteName": "C#2",
      "velocity": 0.5039370078740157,
      "duration": "96i"
    },
    {
      "time": "60384i",
      "midiNote": 44,
      "noteName": "G#2",
      "velocity": 0.7559055118110236,
      "duration": "96i"
    },
    {
      "time": "60384i",
      "midiNote": 37,
      "noteName": "C#2",
      "velocity": 0.5039370078740157,
      "duration": "96i"
    },
    {
      "time": "60480i",
      "midiNote": 37,
      "noteName": "C#2",
      "velocity": 0.7559055118110236,
      "duration": "96i"
    },
    {
      "time": "60480i",
      "midiNote": 70,
      "noteName": "A#4",
      "velocity": 0.7559055118110236,
      "duration": "96i"
    },
    {
      "time": "60576i",
      "midiNote": 44,
      "noteName": "G#2",
      "velocity": 0.7559055118110236,
      "duration": "96i"
    },
    {
      "time": "60576i",
      "midiNote": 37,
      "noteName": "C#2",
      "velocity": 0.5039370078740157,
      "duration": "96i"
    },
    {
      "time": "60672i",
      "midiNote": 37,
      "noteName": "C#2",
      "velocity": 0.7559055118110236,
      "duration": "96i"
    },
    {
      "time": "60672i",
      "midiNote": 70,
      "noteName": "A#4",
      "velocity": 0.7559055118110236,
      "duration": "96i"
    },
    {
      "time": "60768i",
      "midiNote": 44,
      "noteName": "G#2",
      "velocity": 0.7559055118110236,
      "duration": "96i"
    },
    {
      "time": "60768i",
      "midiNote": 37,
      "noteName": "C#2",
      "velocity": 0.5039370078740157,
      "duration": "96i"
    },
    {
      "time": "60864i",
      "midiNote": 44,
      "noteName": "G#2",
      "velocity": 0.7559055118110236,
      "duration": "96i"
    },
    {
      "time": "60864i",
      "midiNote": 37,
      "noteName": "C#2",
      "velocity": 0.5039370078740157,
      "duration": "96i"
    },
    {
      "time": "60960i",
      "midiNote": 44,
      "noteName": "G#2",
      "velocity": 0.7559055118110236,
      "duration": "96i"
    },
    {
      "time": "60960i",
      "midiNote": 37,
      "noteName": "C#2",
      "velocity": 0.5039370078740157,
      "duration": "96i"
    },
    {
      "time": "61056i",
      "midiNote": 70,
      "noteName": "A#4",
      "velocity": 0.7559055118110236,
      "duration": "96i"
    },
    {
      "time": "61056i",
      "midiNote": 37,
      "noteName": "C#2",
      "velocity": 0.7559055118110236,
      "duration": "96i"
    },
    {
      "time": "61152i",
      "midiNote": 44,
      "noteName": "G#2",
      "velocity": 0.7559055118110236,
      "duration": "96i"
    },
    {
      "time": "61152i",
      "midiNote": 37,
      "noteName": "C#2",
      "velocity": 0.5039370078740157,
      "duration": "96i"
    },
    {
      "time": "61248i",
      "midiNote": 44,
      "noteName": "G#2",
      "velocity": 0.7559055118110236,
      "duration": "96i"
    },
    {
      "time": "61248i",
      "midiNote": 37,
      "noteName": "C#2",
      "velocity": 0.5039370078740157,
      "duration": "96i"
    },
    {
      "time": "61344i",
      "midiNote": 37,
      "noteName": "C#2",
      "velocity": 0.5039370078740157,
      "duration": "96i"
    },
    {
      "time": "61344i",
      "midiNote": 44,
      "noteName": "G#2",
      "velocity": 0.7559055118110236,
      "duration": "96i"
    },
    {
      "time": "61440i",
      "midiNote": 37,
      "noteName": "C#2",
      "velocity": 0.7559055118110236,
      "duration": "96i"
    },
    {
      "time": "61440i",
      "midiNote": 70,
      "noteName": "A#4",
      "velocity": 0.7559055118110236,
      "duration": "96i"
    },
    {
      "time": "61536i",
      "midiNote": 44,
      "noteName": "G#2",
      "velocity": 0.7559055118110236,
      "duration": "96i"
    },
    {
      "time": "61536i",
      "midiNote": 37,
      "noteName": "C#2",
      "velocity": 0.5039370078740157,
      "duration": "96i"
    },
    {
      "time": "61632i",
      "midiNote": 44,
      "noteName": "G#2",
      "velocity": 0.7559055118110236,
      "duration": "96i"
    },
    {
      "time": "61632i",
      "midiNote": 37,
      "noteName": "C#2",
      "velocity": 0.5039370078740157,
      "duration": "96i"
    },
    {
      "time": "61728i",
      "midiNote": 37,
      "noteName": "C#2",
      "velocity": 0.7559055118110236,
      "duration": "96i"
    },
    {
      "time": "61728i",
      "midiNote": 70,
      "noteName": "A#4",
      "velocity": 0.7559055118110236,
      "duration": "96i"
    },
    {
      "time": "61824i",
      "midiNote": 44,
      "noteName": "G#2",
      "velocity": 0.7559055118110236,
      "duration": "96i"
    },
    {
      "time": "61824i",
      "midiNote": 37,
      "noteName": "C#2",
      "velocity": 0.5039370078740157,
      "duration": "96i"
    },
    {
      "time": "61920i",
      "midiNote": 44,
      "noteName": "G#2",
      "velocity": 0.7559055118110236,
      "duration": "96i"
    },
    {
      "time": "61920i",
      "midiNote": 37,
      "noteName": "C#2",
      "velocity": 0.5039370078740157,
      "duration": "96i"
    },
    {
      "time": "62016i",
      "midiNote": 37,
      "noteName": "C#2",
      "velocity": 0.7559055118110236,
      "duration": "96i"
    },
    {
      "time": "62016i",
      "midiNote": 70,
      "noteName": "A#4",
      "velocity": 0.7559055118110236,
      "duration": "96i"
    },
    {
      "time": "62112i",
      "midiNote": 44,
      "noteName": "G#2",
      "velocity": 0.7559055118110236,
      "duration": "96i"
    },
    {
      "time": "62112i",
      "midiNote": 37,
      "noteName": "C#2",
      "velocity": 0.5039370078740157,
      "duration": "96i"
    },
    {
      "time": "62208i",
      "midiNote": 37,
      "noteName": "C#2",
      "velocity": 0.7559055118110236,
      "duration": "96i"
    },
    {
      "time": "62208i",
      "midiNote": 70,
      "noteName": "A#4",
      "velocity": 0.7559055118110236,
      "duration": "96i"
    },
    {
      "time": "62304i",
      "midiNote": 44,
      "noteName": "G#2",
      "velocity": 0.7559055118110236,
      "duration": "96i"
    },
    {
      "time": "62304i",
      "midiNote": 37,
      "noteName": "C#2",
      "velocity": 0.5039370078740157,
      "duration": "96i"
    },
    {
      "time": "62400i",
      "midiNote": 44,
      "noteName": "G#2",
      "velocity": 0.7559055118110236,
      "duration": "96i"
    },
    {
      "time": "62400i",
      "midiNote": 37,
      "noteName": "C#2",
      "velocity": 0.5039370078740157,
      "duration": "96i"
    },
    {
      "time": "62496i",
      "midiNote": 44,
      "noteName": "G#2",
      "velocity": 0.7559055118110236,
      "duration": "96i"
    },
    {
      "time": "62496i",
      "midiNote": 37,
      "noteName": "C#2",
      "velocity": 0.5039370078740157,
      "duration": "96i"
    },
    {
      "time": "62592i",
      "midiNote": 70,
      "noteName": "A#4",
      "velocity": 0.7559055118110236,
      "duration": "96i"
    },
    {
      "time": "62592i",
      "midiNote": 37,
      "noteName": "C#2",
      "velocity": 0.7559055118110236,
      "duration": "96i"
    },
    {
      "time": "62688i",
      "midiNote": 44,
      "noteName": "G#2",
      "velocity": 0.7559055118110236,
      "duration": "96i"
    },
    {
      "time": "62688i",
      "midiNote": 37,
      "noteName": "C#2",
      "velocity": 0.5039370078740157,
      "duration": "96i"
    },
    {
      "time": "62784i",
      "midiNote": 44,
      "noteName": "G#2",
      "velocity": 0.7559055118110236,
      "duration": "96i"
    },
    {
      "time": "62784i",
      "midiNote": 37,
      "noteName": "C#2",
      "velocity": 0.5039370078740157,
      "duration": "96i"
    },
    {
      "time": "62880i",
      "midiNote": 37,
      "noteName": "C#2",
      "velocity": 0.5039370078740157,
      "duration": "96i"
    },
    {
      "time": "62880i",
      "midiNote": 44,
      "noteName": "G#2",
      "velocity": 0.7559055118110236,
      "duration": "96i"
    },
    {
      "time": "62976i",
      "midiNote": 37,
      "noteName": "C#2",
      "velocity": 0.7559055118110236,
      "duration": "96i"
    },
    {
      "time": "62976i",
      "midiNote": 70,
      "noteName": "A#4",
      "velocity": 0.7559055118110236,
      "duration": "96i"
    },
    {
      "time": "63072i",
      "midiNote": 44,
      "noteName": "G#2",
      "velocity": 0.7559055118110236,
      "duration": "96i"
    },
    {
      "time": "63072i",
      "midiNote": 37,
      "noteName": "C#2",
      "velocity": 0.5039370078740157,
      "duration": "96i"
    },
    {
      "time": "63168i",
      "midiNote": 44,
      "noteName": "G#2",
      "velocity": 0.7559055118110236,
      "duration": "96i"
    },
    {
      "time": "63168i",
      "midiNote": 37,
      "noteName": "C#2",
      "velocity": 0.5039370078740157,
      "duration": "96i"
    },
    {
      "time": "63264i",
      "midiNote": 37,
      "noteName": "C#2",
      "velocity": 0.7559055118110236,
      "duration": "96i"
    },
    {
      "time": "63264i",
      "midiNote": 70,
      "noteName": "A#4",
      "velocity": 0.7559055118110236,
      "duration": "96i"
    },
    {
      "time": "63360i",
      "midiNote": 44,
      "noteName": "G#2",
      "velocity": 0.7559055118110236,
      "duration": "96i"
    },
    {
      "time": "63360i",
      "midiNote": 37,
      "noteName": "C#2",
      "velocity": 0.5039370078740157,
      "duration": "96i"
    },
    {
      "time": "63456i",
      "midiNote": 44,
      "noteName": "G#2",
      "velocity": 0.7559055118110236,
      "duration": "96i"
    },
    {
      "time": "63456i",
      "midiNote": 37,
      "noteName": "C#2",
      "velocity": 0.5039370078740157,
      "duration": "96i"
    },
    {
      "time": "63552i",
      "midiNote": 37,
      "noteName": "C#2",
      "velocity": 0.7559055118110236,
      "duration": "96i"
    },
    {
      "time": "63552i",
      "midiNote": 70,
      "noteName": "A#4",
      "velocity": 0.7559055118110236,
      "duration": "96i"
    },
    {
      "time": "63648i",
      "midiNote": 44,
      "noteName": "G#2",
      "velocity": 0.7559055118110236,
      "duration": "96i"
    },
    {
      "time": "63648i",
      "midiNote": 37,
      "noteName": "C#2",
      "velocity": 0.5039370078740157,
      "duration": "96i"
    },
    {
      "time": "63744i",
      "midiNote": 37,
      "noteName": "C#2",
      "velocity": 0.7559055118110236,
      "duration": "96i"
    },
    {
      "time": "63744i",
      "midiNote": 70,
      "noteName": "A#4",
      "velocity": 0.7559055118110236,
      "duration": "96i"
    },
    {
      "time": "63840i",
      "midiNote": 44,
      "noteName": "G#2",
      "velocity": 0.7559055118110236,
      "duration": "96i"
    },
    {
      "time": "63840i",
      "midiNote": 37,
      "noteName": "C#2",
      "velocity": 0.5039370078740157,
      "duration": "96i"
    },
    {
      "time": "63936i",
      "midiNote": 44,
      "noteName": "G#2",
      "velocity": 0.7559055118110236,
      "duration": "96i"
    },
    {
      "time": "63936i",
      "midiNote": 37,
      "noteName": "C#2",
      "velocity": 0.5039370078740157,
      "duration": "96i"
    },
    {
      "time": "64032i",
      "midiNote": 44,
      "noteName": "G#2",
      "velocity": 0.7559055118110236,
      "duration": "96i"
    },
    {
      "time": "64032i",
      "midiNote": 37,
      "noteName": "C#2",
      "velocity": 0.5039370078740157,
      "duration": "96i"
    },
    {
      "time": "64128i",
      "midiNote": 70,
      "noteName": "A#4",
      "velocity": 0.7559055118110236,
      "duration": "96i"
    },
    {
      "time": "64128i",
      "midiNote": 37,
      "noteName": "C#2",
      "velocity": 0.7559055118110236,
      "duration": "96i"
    },
    {
      "time": "64224i",
      "midiNote": 44,
      "noteName": "G#2",
      "velocity": 0.7559055118110236,
      "duration": "96i"
    },
    {
      "time": "64224i",
      "midiNote": 37,
      "noteName": "C#2",
      "velocity": 0.5039370078740157,
      "duration": "96i"
    },
    {
      "time": "64320i",
      "midiNote": 44,
      "noteName": "G#2",
      "velocity": 0.7559055118110236,
      "duration": "96i"
    },
    {
      "time": "64320i",
      "midiNote": 37,
      "noteName": "C#2",
      "velocity": 0.5039370078740157,
      "duration": "96i"
    },
    {
      "time": "64416i",
      "midiNote": 37,
      "noteName": "C#2",
      "velocity": 0.5039370078740157,
      "duration": "96i"
    },
    {
      "time": "64416i",
      "midiNote": 44,
      "noteName": "G#2",
      "velocity": 0.7559055118110236,
      "duration": "96i"
    },
    {
      "time": "64512i",
      "midiNote": 37,
      "noteName": "C#2",
      "velocity": 0.7559055118110236,
      "duration": "96i"
    },
    {
      "time": "64512i",
      "midiNote": 70,
      "noteName": "A#4",
      "velocity": 0.7559055118110236,
      "duration": "96i"
    },
    {
      "time": "64608i",
      "midiNote": 44,
      "noteName": "G#2",
      "velocity": 0.7559055118110236,
      "duration": "96i"
    },
    {
      "time": "64608i",
      "midiNote": 37,
      "noteName": "C#2",
      "velocity": 0.5039370078740157,
      "duration": "96i"
    },
    {
      "time": "64704i",
      "midiNote": 44,
      "noteName": "G#2",
      "velocity": 0.7559055118110236,
      "duration": "96i"
    },
    {
      "time": "64704i",
      "midiNote": 37,
      "noteName": "C#2",
      "velocity": 0.5039370078740157,
      "duration": "96i"
    },
    {
      "time": "64800i",
      "midiNote": 37,
      "noteName": "C#2",
      "velocity": 0.7559055118110236,
      "duration": "96i"
    },
    {
      "time": "64800i",
      "midiNote": 70,
      "noteName": "A#4",
      "velocity": 0.7559055118110236,
      "duration": "96i"
    },
    {
      "time": "64896i",
      "midiNote": 44,
      "noteName": "G#2",
      "velocity": 0.7559055118110236,
      "duration": "96i"
    },
    {
      "time": "64896i",
      "midiNote": 37,
      "noteName": "C#2",
      "velocity": 0.5039370078740157,
      "duration": "96i"
    },
    {
      "time": "64992i",
      "midiNote": 44,
      "noteName": "G#2",
      "velocity": 0.7559055118110236,
      "duration": "96i"
    },
    {
      "time": "64992i",
      "midiNote": 37,
      "noteName": "C#2",
      "velocity": 0.5039370078740157,
      "duration": "96i"
    },
    {
      "time": "65088i",
      "midiNote": 37,
      "noteName": "C#2",
      "velocity": 0.7559055118110236,
      "duration": "96i"
    },
    {
      "time": "65088i",
      "midiNote": 70,
      "noteName": "A#4",
      "velocity": 0.7559055118110236,
      "duration": "96i"
    },
    {
      "time": "65184i",
      "midiNote": 44,
      "noteName": "G#2",
      "velocity": 0.7559055118110236,
      "duration": "96i"
    },
    {
      "time": "65184i",
      "midiNote": 37,
      "noteName": "C#2",
      "velocity": 0.5039370078740157,
      "duration": "96i"
    },
    {
      "time": "65280i",
      "midiNote": 37,
      "noteName": "C#2",
      "velocity": 0.7559055118110236,
      "duration": "96i"
    },
    {
      "time": "65280i",
      "midiNote": 70,
      "noteName": "A#4",
      "velocity": 0.7559055118110236,
      "duration": "96i"
    },
    {
      "time": "65376i",
      "midiNote": 44,
      "noteName": "G#2",
      "velocity": 0.7559055118110236,
      "duration": "96i"
    },
    {
      "time": "65376i",
      "midiNote": 37,
      "noteName": "C#2",
      "velocity": 0.5039370078740157,
      "duration": "96i"
    },
    {
      "time": "65472i",
      "midiNote": 44,
      "noteName": "G#2",
      "velocity": 0.7559055118110236,
      "duration": "96i"
    },
    {
      "time": "65472i",
      "midiNote": 37,
      "noteName": "C#2",
      "velocity": 0.5039370078740157,
      "duration": "96i"
    },
    {
      "time": "65568i",
      "midiNote": 44,
      "noteName": "G#2",
      "velocity": 0.7559055118110236,
      "duration": "96i"
    },
    {
      "time": "65568i",
      "midiNote": 37,
      "noteName": "C#2",
      "velocity": 0.5039370078740157,
      "duration": "96i"
    },
    {
      "time": "65664i",
      "midiNote": 70,
      "noteName": "A#4",
      "velocity": 0.7559055118110236,
      "duration": "96i"
    },
    {
      "time": "65664i",
      "midiNote": 37,
      "noteName": "C#2",
      "velocity": 0.7559055118110236,
      "duration": "96i"
    },
    {
      "time": "65760i",
      "midiNote": 44,
      "noteName": "G#2",
      "velocity": 0.7559055118110236,
      "duration": "96i"
    },
    {
      "time": "65760i",
      "midiNote": 37,
      "noteName": "C#2",
      "velocity": 0.5039370078740157,
      "duration": "96i"
    },
    {
      "time": "65856i",
      "midiNote": 44,
      "noteName": "G#2",
      "velocity": 0.7559055118110236,
      "duration": "96i"
    },
    {
      "time": "65856i",
      "midiNote": 37,
      "noteName": "C#2",
      "velocity": 0.5039370078740157,
      "duration": "96i"
    },
    {
      "time": "65952i",
      "midiNote": 37,
      "noteName": "C#2",
      "velocity": 0.5039370078740157,
      "duration": "96i"
    },
    {
      "time": "65952i",
      "midiNote": 44,
      "noteName": "G#2",
      "velocity": 0.7559055118110236,
      "duration": "96i"
    },
    {
      "time": "66048i",
      "midiNote": 37,
      "noteName": "C#2",
      "velocity": 0.7559055118110236,
      "duration": "96i"
    },
    {
      "time": "66048i",
      "midiNote": 70,
      "noteName": "A#4",
      "velocity": 0.7559055118110236,
      "duration": "96i"
    },
    {
      "time": "66144i",
      "midiNote": 44,
      "noteName": "G#2",
      "velocity": 0.7559055118110236,
      "duration": "96i"
    },
    {
      "time": "66144i",
      "midiNote": 37,
      "noteName": "C#2",
      "velocity": 0.5039370078740157,
      "duration": "96i"
    },
    {
      "time": "66240i",
      "midiNote": 44,
      "noteName": "G#2",
      "velocity": 0.7559055118110236,
      "duration": "96i"
    },
    {
      "time": "66240i",
      "midiNote": 37,
      "noteName": "C#2",
      "velocity": 0.5039370078740157,
      "duration": "96i"
    },
    {
      "time": "66336i",
      "midiNote": 37,
      "noteName": "C#2",
      "velocity": 0.7559055118110236,
      "duration": "96i"
    },
    {
      "time": "66336i",
      "midiNote": 70,
      "noteName": "A#4",
      "velocity": 0.7559055118110236,
      "duration": "96i"
    },
    {
      "time": "66432i",
      "midiNote": 44,
      "noteName": "G#2",
      "velocity": 0.7559055118110236,
      "duration": "96i"
    },
    {
      "time": "66432i",
      "midiNote": 37,
      "noteName": "C#2",
      "velocity": 0.5039370078740157,
      "duration": "96i"
    },
    {
      "time": "66528i",
      "midiNote": 44,
      "noteName": "G#2",
      "velocity": 0.7559055118110236,
      "duration": "96i"
    },
    {
      "time": "66528i",
      "midiNote": 37,
      "noteName": "C#2",
      "velocity": 0.5039370078740157,
      "duration": "96i"
    },
    {
      "time": "66624i",
      "midiNote": 37,
      "noteName": "C#2",
      "velocity": 0.7559055118110236,
      "duration": "96i"
    },
    {
      "time": "66624i",
      "midiNote": 70,
      "noteName": "A#4",
      "velocity": 0.7559055118110236,
      "duration": "96i"
    },
    {
      "time": "66720i",
      "midiNote": 44,
      "noteName": "G#2",
      "velocity": 0.7559055118110236,
      "duration": "96i"
    },
    {
      "time": "66720i",
      "midiNote": 37,
      "noteName": "C#2",
      "velocity": 0.5039370078740157,
      "duration": "96i"
    },
    {
      "time": "66816i",
      "midiNote": 37,
      "noteName": "C#2",
      "velocity": 0.7559055118110236,
      "duration": "96i"
    },
    {
      "time": "66816i",
      "midiNote": 70,
      "noteName": "A#4",
      "velocity": 0.7559055118110236,
      "duration": "96i"
    },
    {
      "time": "66912i",
      "midiNote": 44,
      "noteName": "G#2",
      "velocity": 0.7559055118110236,
      "duration": "96i"
    },
    {
      "time": "66912i",
      "midiNote": 37,
      "noteName": "C#2",
      "velocity": 0.5039370078740157,
      "duration": "96i"
    },
    {
      "time": "67008i",
      "midiNote": 44,
      "noteName": "G#2",
      "velocity": 0.7559055118110236,
      "duration": "96i"
    },
    {
      "time": "67008i",
      "midiNote": 37,
      "noteName": "C#2",
      "velocity": 0.5039370078740157,
      "duration": "96i"
    },
    {
      "time": "67104i",
      "midiNote": 44,
      "noteName": "G#2",
      "velocity": 0.7559055118110236,
      "duration": "96i"
    },
    {
      "time": "67104i",
      "midiNote": 37,
      "noteName": "C#2",
      "velocity": 0.5039370078740157,
      "duration": "96i"
    },
    {
      "time": "67200i",
      "midiNote": 70,
      "noteName": "A#4",
      "velocity": 0.7559055118110236,
      "duration": "96i"
    },
    {
      "time": "67200i",
      "midiNote": 37,
      "noteName": "C#2",
      "velocity": 0.7559055118110236,
      "duration": "96i"
    },
    {
      "time": "67296i",
      "midiNote": 44,
      "noteName": "G#2",
      "velocity": 0.7559055118110236,
      "duration": "96i"
    },
    {
      "time": "67296i",
      "midiNote": 37,
      "noteName": "C#2",
      "velocity": 0.5039370078740157,
      "duration": "96i"
    },
    {
      "time": "67392i",
      "midiNote": 44,
      "noteName": "G#2",
      "velocity": 0.7559055118110236,
      "duration": "96i"
    },
    {
      "time": "67392i",
      "midiNote": 37,
      "noteName": "C#2",
      "velocity": 0.5039370078740157,
      "duration": "96i"
    },
    {
      "time": "67488i",
      "midiNote": 37,
      "noteName": "C#2",
      "velocity": 0.5039370078740157,
      "duration": "96i"
    },
    {
      "time": "67488i",
      "midiNote": 44,
      "noteName": "G#2",
      "velocity": 0.7559055118110236,
      "duration": "96i"
    },
    {
      "time": "67584i",
      "midiNote": 37,
      "noteName": "C#2",
      "velocity": 0.7559055118110236,
      "duration": "96i"
    },
    {
      "time": "67584i",
      "midiNote": 70,
      "noteName": "A#4",
      "velocity": 0.7559055118110236,
      "duration": "96i"
    },
    {
      "time": "67680i",
      "midiNote": 44,
      "noteName": "G#2",
      "velocity": 0.7559055118110236,
      "duration": "96i"
    },
    {
      "time": "67680i",
      "midiNote": 37,
      "noteName": "C#2",
      "velocity": 0.5039370078740157,
      "duration": "96i"
    },
    {
      "time": "67776i",
      "midiNote": 44,
      "noteName": "G#2",
      "velocity": 0.7559055118110236,
      "duration": "96i"
    },
    {
      "time": "67776i",
      "midiNote": 37,
      "noteName": "C#2",
      "velocity": 0.5039370078740157,
      "duration": "96i"
    },
    {
      "time": "67872i",
      "midiNote": 37,
      "noteName": "C#2",
      "velocity": 0.7559055118110236,
      "duration": "96i"
    },
    {
      "time": "67872i",
      "midiNote": 70,
      "noteName": "A#4",
      "velocity": 0.7559055118110236,
      "duration": "96i"
    },
    {
      "time": "67968i",
      "midiNote": 44,
      "noteName": "G#2",
      "velocity": 0.7559055118110236,
      "duration": "96i"
    },
    {
      "time": "67968i",
      "midiNote": 37,
      "noteName": "C#2",
      "velocity": 0.5039370078740157,
      "duration": "96i"
    },
    {
      "time": "68064i",
      "midiNote": 44,
      "noteName": "G#2",
      "velocity": 0.7559055118110236,
      "duration": "96i"
    },
    {
      "time": "68064i",
      "midiNote": 37,
      "noteName": "C#2",
      "velocity": 0.5039370078740157,
      "duration": "96i"
    },
    {
      "time": "68160i",
      "midiNote": 37,
      "noteName": "C#2",
      "velocity": 0.7559055118110236,
      "duration": "96i"
    },
    {
      "time": "68160i",
      "midiNote": 70,
      "noteName": "A#4",
      "velocity": 0.7559055118110236,
      "duration": "96i"
    },
    {
      "time": "68256i",
      "midiNote": 44,
      "noteName": "G#2",
      "velocity": 0.7559055118110236,
      "duration": "96i"
    },
    {
      "time": "68256i",
      "midiNote": 37,
      "noteName": "C#2",
      "velocity": 0.5039370078740157,
      "duration": "96i"
    },
    {
      "time": "68352i",
      "midiNote": 37,
      "noteName": "C#2",
      "velocity": 0.7559055118110236,
      "duration": "96i"
    },
    {
      "time": "68352i",
      "midiNote": 70,
      "noteName": "A#4",
      "velocity": 0.7559055118110236,
      "duration": "96i"
    },
    {
      "time": "68448i",
      "midiNote": 44,
      "noteName": "G#2",
      "velocity": 0.7559055118110236,
      "duration": "96i"
    },
    {
      "time": "68448i",
      "midiNote": 37,
      "noteName": "C#2",
      "velocity": 0.5039370078740157,
      "duration": "96i"
    },
    {
      "time": "68544i",
      "midiNote": 44,
      "noteName": "G#2",
      "velocity": 0.7559055118110236,
      "duration": "96i"
    },
    {
      "time": "68544i",
      "midiNote": 37,
      "noteName": "C#2",
      "velocity": 0.5039370078740157,
      "duration": "96i"
    },
    {
      "time": "68640i",
      "midiNote": 44,
      "noteName": "G#2",
      "velocity": 0.7559055118110236,
      "duration": "96i"
    },
    {
      "time": "68640i",
      "midiNote": 37,
      "noteName": "C#2",
      "velocity": 0.5039370078740157,
      "duration": "96i"
    },
    {
      "time": "68736i",
      "midiNote": 70,
      "noteName": "A#4",
      "velocity": 0.7559055118110236,
      "duration": "96i"
    },
    {
      "time": "68736i",
      "midiNote": 37,
      "noteName": "C#2",
      "velocity": 0.7559055118110236,
      "duration": "96i"
    },
    {
      "time": "68832i",
      "midiNote": 44,
      "noteName": "G#2",
      "velocity": 0.7559055118110236,
      "duration": "96i"
    },
    {
      "time": "68832i",
      "midiNote": 37,
      "noteName": "C#2",
      "velocity": 0.5039370078740157,
      "duration": "96i"
    },
    {
      "time": "68928i",
      "midiNote": 44,
      "noteName": "G#2",
      "velocity": 0.7559055118110236,
      "duration": "96i"
    },
    {
      "time": "68928i",
      "midiNote": 37,
      "noteName": "C#2",
      "velocity": 0.5039370078740157,
      "duration": "96i"
    },
    {
      "time": "69024i",
      "midiNote": 37,
      "noteName": "C#2",
      "velocity": 0.5039370078740157,
      "duration": "96i"
    },
    {
      "time": "69024i",
      "midiNote": 44,
      "noteName": "G#2",
      "velocity": 0.7559055118110236,
      "duration": "96i"
    },
    {
      "time": "69120i",
      "midiNote": 37,
      "noteName": "C#2",
      "velocity": 0.7559055118110236,
      "duration": "96i"
    },
    {
      "time": "69120i",
      "midiNote": 70,
      "noteName": "A#4",
      "velocity": 0.7559055118110236,
      "duration": "96i"
    },
    {
      "time": "69216i",
      "midiNote": 44,
      "noteName": "G#2",
      "velocity": 0.7559055118110236,
      "duration": "96i"
    },
    {
      "time": "69216i",
      "midiNote": 37,
      "noteName": "C#2",
      "velocity": 0.5039370078740157,
      "duration": "96i"
    },
    {
      "time": "69312i",
      "midiNote": 44,
      "noteName": "G#2",
      "velocity": 0.7559055118110236,
      "duration": "96i"
    },
    {
      "time": "69312i",
      "midiNote": 37,
      "noteName": "C#2",
      "velocity": 0.5039370078740157,
      "duration": "96i"
    },
    {
      "time": "69408i",
      "midiNote": 37,
      "noteName": "C#2",
      "velocity": 0.7559055118110236,
      "duration": "96i"
    },
    {
      "time": "69408i",
      "midiNote": 70,
      "noteName": "A#4",
      "velocity": 0.7559055118110236,
      "duration": "96i"
    },
    {
      "time": "69504i",
      "midiNote": 44,
      "noteName": "G#2",
      "velocity": 0.7559055118110236,
      "duration": "96i"
    },
    {
      "time": "69504i",
      "midiNote": 37,
      "noteName": "C#2",
      "velocity": 0.5039370078740157,
      "duration": "96i"
    },
    {
      "time": "69600i",
      "midiNote": 44,
      "noteName": "G#2",
      "velocity": 0.7559055118110236,
      "duration": "96i"
    },
    {
      "time": "69600i",
      "midiNote": 37,
      "noteName": "C#2",
      "velocity": 0.5039370078740157,
      "duration": "96i"
    },
    {
      "time": "69696i",
      "midiNote": 37,
      "noteName": "C#2",
      "velocity": 0.7559055118110236,
      "duration": "96i"
    },
    {
      "time": "69696i",
      "midiNote": 70,
      "noteName": "A#4",
      "velocity": 0.7559055118110236,
      "duration": "96i"
    },
    {
      "time": "69792i",
      "midiNote": 44,
      "noteName": "G#2",
      "velocity": 0.7559055118110236,
      "duration": "96i"
    },
    {
      "time": "69792i",
      "midiNote": 37,
      "noteName": "C#2",
      "velocity": 0.5039370078740157,
      "duration": "96i"
    },
    {
      "time": "69888i",
      "midiNote": 37,
      "noteName": "C#2",
      "velocity": 0.7559055118110236,
      "duration": "96i"
    },
    {
      "time": "69888i",
      "midiNote": 70,
      "noteName": "A#4",
      "velocity": 0.7559055118110236,
      "duration": "96i"
    },
    {
      "time": "69984i",
      "midiNote": 44,
      "noteName": "G#2",
      "velocity": 0.7559055118110236,
      "duration": "96i"
    },
    {
      "time": "69984i",
      "midiNote": 37,
      "noteName": "C#2",
      "velocity": 0.5039370078740157,
      "duration": "96i"
    },
    {
      "time": "70080i",
      "midiNote": 44,
      "noteName": "G#2",
      "velocity": 0.7559055118110236,
      "duration": "96i"
    },
    {
      "time": "70080i",
      "midiNote": 37,
      "noteName": "C#2",
      "velocity": 0.5039370078740157,
      "duration": "96i"
    },
    {
      "time": "70176i",
      "midiNote": 44,
      "noteName": "G#2",
      "velocity": 0.7559055118110236,
      "duration": "96i"
    },
    {
      "time": "70176i",
      "midiNote": 37,
      "noteName": "C#2",
      "velocity": 0.5039370078740157,
      "duration": "96i"
    },
    {
      "time": "70272i",
      "midiNote": 70,
      "noteName": "A#4",
      "velocity": 0.7559055118110236,
      "duration": "96i"
    },
    {
      "time": "70272i",
      "midiNote": 37,
      "noteName": "C#2",
      "velocity": 0.7559055118110236,
      "duration": "96i"
    },
    {
      "time": "70368i",
      "midiNote": 44,
      "noteName": "G#2",
      "velocity": 0.7559055118110236,
      "duration": "96i"
    },
    {
      "time": "70368i",
      "midiNote": 37,
      "noteName": "C#2",
      "velocity": 0.5039370078740157,
      "duration": "96i"
    },
    {
      "time": "70464i",
      "midiNote": 44,
      "noteName": "G#2",
      "velocity": 0.7559055118110236,
      "duration": "96i"
    },
    {
      "time": "70464i",
      "midiNote": 37,
      "noteName": "C#2",
      "velocity": 0.5039370078740157,
      "duration": "96i"
    },
    {
      "time": "70560i",
      "midiNote": 37,
      "noteName": "C#2",
      "velocity": 0.5039370078740157,
      "duration": "96i"
    },
    {
      "time": "70560i",
      "midiNote": 44,
      "noteName": "G#2",
      "velocity": 0.7559055118110236,
      "duration": "96i"
    },
    {
      "time": "70656i",
      "midiNote": 37,
      "noteName": "C#2",
      "velocity": 0.7559055118110236,
      "duration": "96i"
    },
    {
      "time": "70656i",
      "midiNote": 70,
      "noteName": "A#4",
      "velocity": 0.7559055118110236,
      "duration": "96i"
    },
    {
      "time": "70752i",
      "midiNote": 44,
      "noteName": "G#2",
      "velocity": 0.7559055118110236,
      "duration": "96i"
    },
    {
      "time": "70752i",
      "midiNote": 37,
      "noteName": "C#2",
      "velocity": 0.5039370078740157,
      "duration": "96i"
    },
    {
      "time": "70848i",
      "midiNote": 44,
      "noteName": "G#2",
      "velocity": 0.7559055118110236,
      "duration": "96i"
    },
    {
      "time": "70848i",
      "midiNote": 37,
      "noteName": "C#2",
      "velocity": 0.5039370078740157,
      "duration": "96i"
    },
    {
      "time": "70944i",
      "midiNote": 37,
      "noteName": "C#2",
      "velocity": 0.7559055118110236,
      "duration": "96i"
    },
    {
      "time": "70944i",
      "midiNote": 70,
      "noteName": "A#4",
      "velocity": 0.7559055118110236,
      "duration": "96i"
    },
    {
      "time": "71040i",
      "midiNote": 44,
      "noteName": "G#2",
      "velocity": 0.7559055118110236,
      "duration": "96i"
    },
    {
      "time": "71040i",
      "midiNote": 37,
      "noteName": "C#2",
      "velocity": 0.5039370078740157,
      "duration": "96i"
    },
    {
      "time": "71136i",
      "midiNote": 44,
      "noteName": "G#2",
      "velocity": 0.7559055118110236,
      "duration": "96i"
    },
    {
      "time": "71136i",
      "midiNote": 37,
      "noteName": "C#2",
      "velocity": 0.5039370078740157,
      "duration": "96i"
    },
    {
      "time": "71232i",
      "midiNote": 37,
      "noteName": "C#2",
      "velocity": 0.7559055118110236,
      "duration": "96i"
    },
    {
      "time": "71232i",
      "midiNote": 70,
      "noteName": "A#4",
      "velocity": 0.7559055118110236,
      "duration": "96i"
    },
    {
      "time": "71328i",
      "midiNote": 44,
      "noteName": "G#2",
      "velocity": 0.7559055118110236,
      "duration": "96i"
    },
    {
      "time": "71328i",
      "midiNote": 37,
      "noteName": "C#2",
      "velocity": 0.5039370078740157,
      "duration": "96i"
    },
    {
      "time": "71424i",
      "midiNote": 37,
      "noteName": "C#2",
      "velocity": 0.7559055118110236,
      "duration": "96i"
    },
    {
      "time": "71424i",
      "midiNote": 70,
      "noteName": "A#4",
      "velocity": 0.7559055118110236,
      "duration": "96i"
    },
    {
      "time": "71520i",
      "midiNote": 44,
      "noteName": "G#2",
      "velocity": 0.7559055118110236,
      "duration": "96i"
    },
    {
      "time": "71520i",
      "midiNote": 37,
      "noteName": "C#2",
      "velocity": 0.5039370078740157,
      "duration": "96i"
    },
    {
      "time": "71616i",
      "midiNote": 44,
      "noteName": "G#2",
      "velocity": 0.7559055118110236,
      "duration": "96i"
    },
    {
      "time": "71616i",
      "midiNote": 37,
      "noteName": "C#2",
      "velocity": 0.5039370078740157,
      "duration": "96i"
    },
    {
      "time": "71712i",
      "midiNote": 44,
      "noteName": "G#2",
      "velocity": 0.7559055118110236,
      "duration": "96i"
    },
    {
      "time": "71712i",
      "midiNote": 37,
      "noteName": "C#2",
      "velocity": 0.5039370078740157,
      "duration": "96i"
    },
    {
      "time": "71808i",
      "midiNote": 70,
      "noteName": "A#4",
      "velocity": 0.7559055118110236,
      "duration": "96i"
    },
    {
      "time": "71808i",
      "midiNote": 37,
      "noteName": "C#2",
      "velocity": 0.7559055118110236,
      "duration": "96i"
    },
    {
      "time": "71904i",
      "midiNote": 44,
      "noteName": "G#2",
      "velocity": 0.7559055118110236,
      "duration": "96i"
    },
    {
      "time": "71904i",
      "midiNote": 37,
      "noteName": "C#2",
      "velocity": 0.5039370078740157,
      "duration": "96i"
    },
    {
      "time": "72000i",
      "midiNote": 44,
      "noteName": "G#2",
      "velocity": 0.7559055118110236,
      "duration": "96i"
    },
    {
      "time": "72000i",
      "midiNote": 37,
      "noteName": "C#2",
      "velocity": 0.5039370078740157,
      "duration": "96i"
    },
    {
      "time": "72096i",
      "midiNote": 37,
      "noteName": "C#2",
      "velocity": 0.5039370078740157,
      "duration": "96i"
    },
    {
      "time": "72096i",
      "midiNote": 44,
      "noteName": "G#2",
      "velocity": 0.7559055118110236,
      "duration": "96i"
    },
    {
      "time": "72192i",
      "midiNote": 37,
      "noteName": "C#2",
      "velocity": 0.7559055118110236,
      "duration": "96i"
    },
    {
      "time": "72192i",
      "midiNote": 70,
      "noteName": "A#4",
      "velocity": 0.7559055118110236,
      "duration": "96i"
    },
    {
      "time": "72288i",
      "midiNote": 44,
      "noteName": "G#2",
      "velocity": 0.7559055118110236,
      "duration": "96i"
    },
    {
      "time": "72288i",
      "midiNote": 37,
      "noteName": "C#2",
      "velocity": 0.5039370078740157,
      "duration": "96i"
    },
    {
      "time": "72384i",
      "midiNote": 44,
      "noteName": "G#2",
      "velocity": 0.7559055118110236,
      "duration": "96i"
    },
    {
      "time": "72384i",
      "midiNote": 37,
      "noteName": "C#2",
      "velocity": 0.5039370078740157,
      "duration": "96i"
    },
    {
      "time": "72480i",
      "midiNote": 37,
      "noteName": "C#2",
      "velocity": 0.7559055118110236,
      "duration": "96i"
    },
    {
      "time": "72480i",
      "midiNote": 70,
      "noteName": "A#4",
      "velocity": 0.7559055118110236,
      "duration": "96i"
    },
    {
      "time": "72576i",
      "midiNote": 44,
      "noteName": "G#2",
      "velocity": 0.7559055118110236,
      "duration": "96i"
    },
    {
      "time": "72576i",
      "midiNote": 37,
      "noteName": "C#2",
      "velocity": 0.5039370078740157,
      "duration": "96i"
    },
    {
      "time": "72672i",
      "midiNote": 44,
      "noteName": "G#2",
      "velocity": 0.7559055118110236,
      "duration": "96i"
    },
    {
      "time": "72672i",
      "midiNote": 37,
      "noteName": "C#2",
      "velocity": 0.5039370078740157,
      "duration": "96i"
    },
    {
      "time": "72768i",
      "midiNote": 37,
      "noteName": "C#2",
      "velocity": 0.7559055118110236,
      "duration": "96i"
    },
    {
      "time": "72768i",
      "midiNote": 70,
      "noteName": "A#4",
      "velocity": 0.7559055118110236,
      "duration": "96i"
    },
    {
      "time": "72864i",
      "midiNote": 44,
      "noteName": "G#2",
      "velocity": 0.7559055118110236,
      "duration": "96i"
    },
    {
      "time": "72864i",
      "midiNote": 37,
      "noteName": "C#2",
      "velocity": 0.5039370078740157,
      "duration": "96i"
    },
    {
      "time": "72960i",
      "midiNote": 37,
      "noteName": "C#2",
      "velocity": 0.7559055118110236,
      "duration": "96i"
    },
    {
      "time": "72960i",
      "midiNote": 70,
      "noteName": "A#4",
      "velocity": 0.7559055118110236,
      "duration": "96i"
    },
    {
      "time": "73056i",
      "midiNote": 44,
      "noteName": "G#2",
      "velocity": 0.7559055118110236,
      "duration": "96i"
    },
    {
      "time": "73056i",
      "midiNote": 37,
      "noteName": "C#2",
      "velocity": 0.5039370078740157,
      "duration": "96i"
    },
    {
      "time": "73152i",
      "midiNote": 44,
      "noteName": "G#2",
      "velocity": 0.7559055118110236,
      "duration": "96i"
    },
    {
      "time": "73152i",
      "midiNote": 37,
      "noteName": "C#2",
      "velocity": 0.5039370078740157,
      "duration": "96i"
    },
    {
      "time": "73248i",
      "midiNote": 44,
      "noteName": "G#2",
      "velocity": 0.7559055118110236,
      "duration": "96i"
    },
    {
      "time": "73248i",
      "midiNote": 37,
      "noteName": "C#2",
      "velocity": 0.5039370078740157,
      "duration": "96i"
    },
    {
      "time": "73344i",
      "midiNote": 70,
      "noteName": "A#4",
      "velocity": 0.7559055118110236,
      "duration": "96i"
    },
    {
      "time": "73344i",
      "midiNote": 37,
      "noteName": "C#2",
      "velocity": 0.7559055118110236,
      "duration": "96i"
    },
    {
      "time": "73440i",
      "midiNote": 44,
      "noteName": "G#2",
      "velocity": 0.7559055118110236,
      "duration": "96i"
    },
    {
      "time": "73440i",
      "midiNote": 37,
      "noteName": "C#2",
      "velocity": 0.5039370078740157,
      "duration": "96i"
    },
    {
      "time": "73536i",
      "midiNote": 44,
      "noteName": "G#2",
      "velocity": 0.7559055118110236,
      "duration": "96i"
    },
    {
      "time": "73536i",
      "midiNote": 37,
      "noteName": "C#2",
      "velocity": 0.5039370078740157,
      "duration": "96i"
    },
    {
      "time": "73632i",
      "midiNote": 37,
      "noteName": "C#2",
      "velocity": 0.5039370078740157,
      "duration": "96i"
    },
    {
      "time": "73632i",
      "midiNote": 44,
      "noteName": "G#2",
      "velocity": 0.7559055118110236,
      "duration": "96i"
    },
    {
      "time": "73728i",
      "midiNote": 37,
      "noteName": "C#2",
      "velocity": 0.7559055118110236,
      "duration": "96i"
    },
    {
      "time": "73728i",
      "midiNote": 70,
      "noteName": "A#4",
      "velocity": 0.7559055118110236,
      "duration": "96i"
    },
    {
      "time": "73824i",
      "midiNote": 44,
      "noteName": "G#2",
      "velocity": 0.7559055118110236,
      "duration": "96i"
    },
    {
      "time": "73824i",
      "midiNote": 37,
      "noteName": "C#2",
      "velocity": 0.5039370078740157,
      "duration": "96i"
    },
    {
      "time": "73920i",
      "midiNote": 44,
      "noteName": "G#2",
      "velocity": 0.7559055118110236,
      "duration": "96i"
    },
    {
      "time": "73920i",
      "midiNote": 37,
      "noteName": "C#2",
      "velocity": 0.5039370078740157,
      "duration": "96i"
    },
    {
      "time": "74016i",
      "midiNote": 37,
      "noteName": "C#2",
      "velocity": 0.7559055118110236,
      "duration": "96i"
    },
    {
      "time": "74016i",
      "midiNote": 70,
      "noteName": "A#4",
      "velocity": 0.7559055118110236,
      "duration": "96i"
    },
    {
      "time": "74112i",
      "midiNote": 44,
      "noteName": "G#2",
      "velocity": 0.7559055118110236,
      "duration": "96i"
    },
    {
      "time": "74112i",
      "midiNote": 37,
      "noteName": "C#2",
      "velocity": 0.5039370078740157,
      "duration": "96i"
    },
    {
      "time": "74208i",
      "midiNote": 44,
      "noteName": "G#2",
      "velocity": 0.7559055118110236,
      "duration": "96i"
    },
    {
      "time": "74208i",
      "midiNote": 37,
      "noteName": "C#2",
      "velocity": 0.5039370078740157,
      "duration": "96i"
    },
    {
      "time": "74304i",
      "midiNote": 37,
      "noteName": "C#2",
      "velocity": 0.7559055118110236,
      "duration": "96i"
    },
    {
      "time": "74304i",
      "midiNote": 70,
      "noteName": "A#4",
      "velocity": 0.7559055118110236,
      "duration": "96i"
    },
    {
      "time": "74400i",
      "midiNote": 44,
      "noteName": "G#2",
      "velocity": 0.7559055118110236,
      "duration": "96i"
    },
    {
      "time": "74400i",
      "midiNote": 37,
      "noteName": "C#2",
      "velocity": 0.5039370078740157,
      "duration": "96i"
    },
    {
      "time": "74496i",
      "midiNote": 37,
      "noteName": "C#2",
      "velocity": 0.7559055118110236,
      "duration": "96i"
    },
    {
      "time": "74496i",
      "midiNote": 70,
      "noteName": "A#4",
      "velocity": 0.7559055118110236,
      "duration": "96i"
    },
    {
      "time": "74592i",
      "midiNote": 44,
      "noteName": "G#2",
      "velocity": 0.7559055118110236,
      "duration": "96i"
    },
    {
      "time": "74592i",
      "midiNote": 37,
      "noteName": "C#2",
      "velocity": 0.5039370078740157,
      "duration": "96i"
    },
    {
      "time": "74688i",
      "midiNote": 44,
      "noteName": "G#2",
      "velocity": 0.7559055118110236,
      "duration": "96i"
    },
    {
      "time": "74688i",
      "midiNote": 37,
      "noteName": "C#2",
      "velocity": 0.5039370078740157,
      "duration": "96i"
    },
    {
      "time": "74784i",
      "midiNote": 44,
      "noteName": "G#2",
      "velocity": 0.7559055118110236,
      "duration": "96i"
    },
    {
      "time": "74784i",
      "midiNote": 37,
      "noteName": "C#2",
      "velocity": 0.5039370078740157,
      "duration": "96i"
    },
    {
      "time": "74880i",
      "midiNote": 70,
      "noteName": "A#4",
      "velocity": 0.7559055118110236,
      "duration": "96i"
    },
    {
      "time": "74880i",
      "midiNote": 37,
      "noteName": "C#2",
      "velocity": 0.7559055118110236,
      "duration": "96i"
    },
    {
      "time": "74976i",
      "midiNote": 44,
      "noteName": "G#2",
      "velocity": 0.7559055118110236,
      "duration": "96i"
    },
    {
      "time": "74976i",
      "midiNote": 37,
      "noteName": "C#2",
      "velocity": 0.5039370078740157,
      "duration": "96i"
    },
    {
      "time": "75072i",
      "midiNote": 44,
      "noteName": "G#2",
      "velocity": 0.7559055118110236,
      "duration": "96i"
    },
    {
      "time": "75072i",
      "midiNote": 37,
      "noteName": "C#2",
      "velocity": 0.5039370078740157,
      "duration": "96i"
    },
    {
      "time": "75168i",
      "midiNote": 37,
      "noteName": "C#2",
      "velocity": 0.5039370078740157,
      "duration": "96i"
    },
    {
      "time": "75168i",
      "midiNote": 44,
      "noteName": "G#2",
      "velocity": 0.7559055118110236,
      "duration": "96i"
    },
    {
      "time": "75264i",
      "midiNote": 37,
      "noteName": "C#2",
      "velocity": 0.7559055118110236,
      "duration": "96i"
    },
    {
      "time": "75264i",
      "midiNote": 70,
      "noteName": "A#4",
      "velocity": 0.7559055118110236,
      "duration": "96i"
    },
    {
      "time": "75360i",
      "midiNote": 44,
      "noteName": "G#2",
      "velocity": 0.7559055118110236,
      "duration": "96i"
    },
    {
      "time": "75360i",
      "midiNote": 37,
      "noteName": "C#2",
      "velocity": 0.5039370078740157,
      "duration": "96i"
    },
    {
      "time": "75456i",
      "midiNote": 44,
      "noteName": "G#2",
      "velocity": 0.7559055118110236,
      "duration": "96i"
    },
    {
      "time": "75456i",
      "midiNote": 37,
      "noteName": "C#2",
      "velocity": 0.5039370078740157,
      "duration": "96i"
    },
    {
      "time": "75552i",
      "midiNote": 37,
      "noteName": "C#2",
      "velocity": 0.7559055118110236,
      "duration": "96i"
    },
    {
      "time": "75552i",
      "midiNote": 70,
      "noteName": "A#4",
      "velocity": 0.7559055118110236,
      "duration": "96i"
    },
    {
      "time": "75648i",
      "midiNote": 44,
      "noteName": "G#2",
      "velocity": 0.7559055118110236,
      "duration": "96i"
    },
    {
      "time": "75648i",
      "midiNote": 37,
      "noteName": "C#2",
      "velocity": 0.5039370078740157,
      "duration": "96i"
    },
    {
      "time": "75744i",
      "midiNote": 44,
      "noteName": "G#2",
      "velocity": 0.7559055118110236,
      "duration": "96i"
    },
    {
      "time": "75744i",
      "midiNote": 37,
      "noteName": "C#2",
      "velocity": 0.5039370078740157,
      "duration": "96i"
    },
    {
      "time": "75840i",
      "midiNote": 37,
      "noteName": "C#2",
      "velocity": 0.7559055118110236,
      "duration": "96i"
    },
    {
      "time": "75840i",
      "midiNote": 70,
      "noteName": "A#4",
      "velocity": 0.7559055118110236,
      "duration": "96i"
    },
    {
      "time": "75936i",
      "midiNote": 44,
      "noteName": "G#2",
      "velocity": 0.7559055118110236,
      "duration": "96i"
    },
    {
      "time": "75936i",
      "midiNote": 37,
      "noteName": "C#2",
      "velocity": 0.5039370078740157,
      "duration": "96i"
    },
    {
      "time": "76032i",
      "midiNote": 37,
      "noteName": "C#2",
      "velocity": 0.7559055118110236,
      "duration": "96i"
    },
    {
      "time": "76032i",
      "midiNote": 70,
      "noteName": "A#4",
      "velocity": 0.7559055118110236,
      "duration": "96i"
    },
    {
      "time": "76128i",
      "midiNote": 44,
      "noteName": "G#2",
      "velocity": 0.7559055118110236,
      "duration": "96i"
    },
    {
      "time": "76128i",
      "midiNote": 37,
      "noteName": "C#2",
      "velocity": 0.5039370078740157,
      "duration": "96i"
    },
    {
      "time": "76224i",
      "midiNote": 44,
      "noteName": "G#2",
      "velocity": 0.7559055118110236,
      "duration": "96i"
    },
    {
      "time": "76224i",
      "midiNote": 37,
      "noteName": "C#2",
      "velocity": 0.5039370078740157,
      "duration": "96i"
    },
    {
      "time": "76320i",
      "midiNote": 44,
      "noteName": "G#2",
      "velocity": 0.7559055118110236,
      "duration": "96i"
    },
    {
      "time": "76320i",
      "midiNote": 37,
      "noteName": "C#2",
      "velocity": 0.5039370078740157,
      "duration": "96i"
    },
    {
      "time": "76416i",
      "midiNote": 70,
      "noteName": "A#4",
      "velocity": 0.7559055118110236,
      "duration": "96i"
    },
    {
      "time": "76416i",
      "midiNote": 37,
      "noteName": "C#2",
      "velocity": 0.7559055118110236,
      "duration": "96i"
    },
    {
      "time": "76512i",
      "midiNote": 44,
      "noteName": "G#2",
      "velocity": 0.7559055118110236,
      "duration": "96i"
    },
    {
      "time": "76512i",
      "midiNote": 37,
      "noteName": "C#2",
      "velocity": 0.5039370078740157,
      "duration": "96i"
    },
    {
      "time": "76608i",
      "midiNote": 44,
      "noteName": "G#2",
      "velocity": 0.7559055118110236,
      "duration": "96i"
    },
    {
      "time": "76608i",
      "midiNote": 37,
      "noteName": "C#2",
      "velocity": 0.5039370078740157,
      "duration": "96i"
    },
    {
      "time": "76704i",
      "midiNote": 37,
      "noteName": "C#2",
      "velocity": 0.5039370078740157,
      "duration": "96i"
    },
    {
      "time": "76704i",
      "midiNote": 44,
      "noteName": "G#2",
      "velocity": 0.7559055118110236,
      "duration": "96i"
    },
    {
      "time": "76800i",
      "midiNote": 37,
      "noteName": "C#2",
      "velocity": 0.7559055118110236,
      "duration": "96i"
    },
    {
      "time": "76800i",
      "midiNote": 70,
      "noteName": "A#4",
      "velocity": 0.7559055118110236,
      "duration": "96i"
    },
    {
      "time": "76896i",
      "midiNote": 44,
      "noteName": "G#2",
      "velocity": 0.7559055118110236,
      "duration": "96i"
    },
    {
      "time": "76896i",
      "midiNote": 37,
      "noteName": "C#2",
      "velocity": 0.5039370078740157,
      "duration": "96i"
    },
    {
      "time": "76992i",
      "midiNote": 44,
      "noteName": "G#2",
      "velocity": 0.7559055118110236,
      "duration": "96i"
    },
    {
      "time": "76992i",
      "midiNote": 37,
      "noteName": "C#2",
      "velocity": 0.5039370078740157,
      "duration": "96i"
    },
    {
      "time": "77088i",
      "midiNote": 37,
      "noteName": "C#2",
      "velocity": 0.7559055118110236,
      "duration": "96i"
    },
    {
      "time": "77088i",
      "midiNote": 70,
      "noteName": "A#4",
      "velocity": 0.7559055118110236,
      "duration": "96i"
    },
    {
      "time": "77184i",
      "midiNote": 44,
      "noteName": "G#2",
      "velocity": 0.7559055118110236,
      "duration": "96i"
    },
    {
      "time": "77184i",
      "midiNote": 37,
      "noteName": "C#2",
      "velocity": 0.5039370078740157,
      "duration": "96i"
    },
    {
      "time": "77280i",
      "midiNote": 44,
      "noteName": "G#2",
      "velocity": 0.7559055118110236,
      "duration": "96i"
    },
    {
      "time": "77280i",
      "midiNote": 37,
      "noteName": "C#2",
      "velocity": 0.5039370078740157,
      "duration": "96i"
    },
    {
      "time": "77376i",
      "midiNote": 37,
      "noteName": "C#2",
      "velocity": 0.7559055118110236,
      "duration": "96i"
    },
    {
      "time": "77376i",
      "midiNote": 70,
      "noteName": "A#4",
      "velocity": 0.7559055118110236,
      "duration": "96i"
    },
    {
      "time": "77472i",
      "midiNote": 44,
      "noteName": "G#2",
      "velocity": 0.7559055118110236,
      "duration": "96i"
    },
    {
      "time": "77472i",
      "midiNote": 37,
      "noteName": "C#2",
      "velocity": 0.5039370078740157,
      "duration": "96i"
    },
    {
      "time": "77568i",
      "midiNote": 37,
      "noteName": "C#2",
      "velocity": 0.7559055118110236,
      "duration": "96i"
    },
    {
      "time": "77568i",
      "midiNote": 70,
      "noteName": "A#4",
      "velocity": 0.7559055118110236,
      "duration": "96i"
    },
    {
      "time": "77664i",
      "midiNote": 44,
      "noteName": "G#2",
      "velocity": 0.7559055118110236,
      "duration": "96i"
    },
    {
      "time": "77664i",
      "midiNote": 37,
      "noteName": "C#2",
      "velocity": 0.5039370078740157,
      "duration": "96i"
    },
    {
      "time": "77760i",
      "midiNote": 44,
      "noteName": "G#2",
      "velocity": 0.7559055118110236,
      "duration": "96i"
    },
    {
      "time": "77760i",
      "midiNote": 37,
      "noteName": "C#2",
      "velocity": 0.5039370078740157,
      "duration": "96i"
    },
    {
      "time": "77856i",
      "midiNote": 44,
      "noteName": "G#2",
      "velocity": 0.7559055118110236,
      "duration": "96i"
    },
    {
      "time": "77856i",
      "midiNote": 37,
      "noteName": "C#2",
      "velocity": 0.5039370078740157,
      "duration": "96i"
    },
    {
      "time": "77952i",
      "midiNote": 70,
      "noteName": "A#4",
      "velocity": 0.7559055118110236,
      "duration": "96i"
    },
    {
      "time": "77952i",
      "midiNote": 37,
      "noteName": "C#2",
      "velocity": 0.7559055118110236,
      "duration": "96i"
    },
    {
      "time": "78048i",
      "midiNote": 44,
      "noteName": "G#2",
      "velocity": 0.7559055118110236,
      "duration": "96i"
    },
    {
      "time": "78048i",
      "midiNote": 37,
      "noteName": "C#2",
      "velocity": 0.5039370078740157,
      "duration": "96i"
    },
    {
      "time": "78144i",
      "midiNote": 44,
      "noteName": "G#2",
      "velocity": 0.7559055118110236,
      "duration": "96i"
    },
    {
      "time": "78144i",
      "midiNote": 37,
      "noteName": "C#2",
      "velocity": 0.5039370078740157,
      "duration": "96i"
    },
    {
      "time": "78240i",
      "midiNote": 37,
      "noteName": "C#2",
      "velocity": 0.5039370078740157,
      "duration": "96i"
    },
    {
      "time": "78240i",
      "midiNote": 44,
      "noteName": "G#2",
      "velocity": 0.7559055118110236,
      "duration": "96i"
    },
    {
      "time": "78336i",
      "midiNote": 37,
      "noteName": "C#2",
      "velocity": 0.7559055118110236,
      "duration": "96i"
    },
    {
      "time": "78336i",
      "midiNote": 70,
      "noteName": "A#4",
      "velocity": 0.7559055118110236,
      "duration": "96i"
    },
    {
      "time": "78432i",
      "midiNote": 44,
      "noteName": "G#2",
      "velocity": 0.7559055118110236,
      "duration": "96i"
    },
    {
      "time": "78432i",
      "midiNote": 37,
      "noteName": "C#2",
      "velocity": 0.5039370078740157,
      "duration": "96i"
    },
    {
      "time": "78528i",
      "midiNote": 44,
      "noteName": "G#2",
      "velocity": 0.7559055118110236,
      "duration": "96i"
    },
    {
      "time": "78528i",
      "midiNote": 37,
      "noteName": "C#2",
      "velocity": 0.5039370078740157,
      "duration": "96i"
    },
    {
      "time": "78624i",
      "midiNote": 37,
      "noteName": "C#2",
      "velocity": 0.7559055118110236,
      "duration": "96i"
    },
    {
      "time": "78624i",
      "midiNote": 70,
      "noteName": "A#4",
      "velocity": 0.7559055118110236,
      "duration": "96i"
    },
    {
      "time": "78720i",
      "midiNote": 44,
      "noteName": "G#2",
      "velocity": 0.7559055118110236,
      "duration": "96i"
    },
    {
      "time": "78720i",
      "midiNote": 37,
      "noteName": "C#2",
      "velocity": 0.5039370078740157,
      "duration": "96i"
    },
    {
      "time": "78816i",
      "midiNote": 44,
      "noteName": "G#2",
      "velocity": 0.7559055118110236,
      "duration": "96i"
    },
    {
      "time": "78816i",
      "midiNote": 37,
      "noteName": "C#2",
      "velocity": 0.5039370078740157,
      "duration": "96i"
    },
    {
      "time": "78912i",
      "midiNote": 37,
      "noteName": "C#2",
      "velocity": 0.7559055118110236,
      "duration": "96i"
    },
    {
      "time": "78912i",
      "midiNote": 70,
      "noteName": "A#4",
      "velocity": 0.7559055118110236,
      "duration": "96i"
    },
    {
      "time": "79008i",
      "midiNote": 44,
      "noteName": "G#2",
      "velocity": 0.7559055118110236,
      "duration": "96i"
    },
    {
      "time": "79008i",
      "midiNote": 37,
      "noteName": "C#2",
      "velocity": 0.5039370078740157,
      "duration": "96i"
    },
    {
      "time": "79104i",
      "midiNote": 37,
      "noteName": "C#2",
      "velocity": 0.7559055118110236,
      "duration": "96i"
    },
    {
      "time": "79104i",
      "midiNote": 70,
      "noteName": "A#4",
      "velocity": 0.7559055118110236,
      "duration": "96i"
    },
    {
      "time": "79200i",
      "midiNote": 44,
      "noteName": "G#2",
      "velocity": 0.7559055118110236,
      "duration": "96i"
    },
    {
      "time": "79200i",
      "midiNote": 37,
      "noteName": "C#2",
      "velocity": 0.5039370078740157,
      "duration": "96i"
    },
    {
      "time": "79296i",
      "midiNote": 44,
      "noteName": "G#2",
      "velocity": 0.7559055118110236,
      "duration": "96i"
    },
    {
      "time": "79296i",
      "midiNote": 37,
      "noteName": "C#2",
      "velocity": 0.5039370078740157,
      "duration": "96i"
    },
    {
      "time": "79392i",
      "midiNote": 44,
      "noteName": "G#2",
      "velocity": 0.7559055118110236,
      "duration": "96i"
    },
    {
      "time": "79392i",
      "midiNote": 37,
      "noteName": "C#2",
      "velocity": 0.5039370078740157,
      "duration": "96i"
    },
    {
      "time": "79488i",
      "midiNote": 70,
      "noteName": "A#4",
      "velocity": 0.7559055118110236,
      "duration": "96i"
    },
    {
      "time": "79488i",
      "midiNote": 37,
      "noteName": "C#2",
      "velocity": 0.7559055118110236,
      "duration": "96i"
    },
    {
      "time": "79584i",
      "midiNote": 44,
      "noteName": "G#2",
      "velocity": 0.7559055118110236,
      "duration": "96i"
    },
    {
      "time": "79584i",
      "midiNote": 37,
      "noteName": "C#2",
      "velocity": 0.5039370078740157,
      "duration": "96i"
    },
    {
      "time": "79680i",
      "midiNote": 44,
      "noteName": "G#2",
      "velocity": 0.7559055118110236,
      "duration": "96i"
    },
    {
      "time": "79680i",
      "midiNote": 37,
      "noteName": "C#2",
      "velocity": 0.5039370078740157,
      "duration": "96i"
    },
    {
      "time": "79776i",
      "midiNote": 37,
      "noteName": "C#2",
      "velocity": 0.5039370078740157,
      "duration": "96i"
    },
    {
      "time": "79776i",
      "midiNote": 44,
      "noteName": "G#2",
      "velocity": 0.7559055118110236,
      "duration": "96i"
    },
    {
      "time": "79872i",
      "midiNote": 37,
      "noteName": "C#2",
      "velocity": 0.7559055118110236,
      "duration": "96i"
    },
    {
      "time": "79872i",
      "midiNote": 70,
      "noteName": "A#4",
      "velocity": 0.7559055118110236,
      "duration": "96i"
    },
    {
      "time": "79968i",
      "midiNote": 44,
      "noteName": "G#2",
      "velocity": 0.7559055118110236,
      "duration": "96i"
    },
    {
      "time": "79968i",
      "midiNote": 37,
      "noteName": "C#2",
      "velocity": 0.5039370078740157,
      "duration": "96i"
    },
    {
      "time": "80064i",
      "midiNote": 44,
      "noteName": "G#2",
      "velocity": 0.7559055118110236,
      "duration": "96i"
    },
    {
      "time": "80064i",
      "midiNote": 37,
      "noteName": "C#2",
      "velocity": 0.5039370078740157,
      "duration": "96i"
    },
    {
      "time": "80160i",
      "midiNote": 37,
      "noteName": "C#2",
      "velocity": 0.7559055118110236,
      "duration": "96i"
    },
    {
      "time": "80160i",
      "midiNote": 70,
      "noteName": "A#4",
      "velocity": 0.7559055118110236,
      "duration": "96i"
    },
    {
      "time": "80256i",
      "midiNote": 44,
      "noteName": "G#2",
      "velocity": 0.7559055118110236,
      "duration": "96i"
    },
    {
      "time": "80256i",
      "midiNote": 37,
      "noteName": "C#2",
      "velocity": 0.5039370078740157,
      "duration": "96i"
    },
    {
      "time": "80352i",
      "midiNote": 44,
      "noteName": "G#2",
      "velocity": 0.7559055118110236,
      "duration": "96i"
    },
    {
      "time": "80352i",
      "midiNote": 37,
      "noteName": "C#2",
      "velocity": 0.5039370078740157,
      "duration": "96i"
    },
    {
      "time": "80448i",
      "midiNote": 37,
      "noteName": "C#2",
      "velocity": 0.7559055118110236,
      "duration": "96i"
    },
    {
      "time": "80448i",
      "midiNote": 70,
      "noteName": "A#4",
      "velocity": 0.7559055118110236,
      "duration": "96i"
    },
    {
      "time": "80544i",
      "midiNote": 44,
      "noteName": "G#2",
      "velocity": 0.7559055118110236,
      "duration": "96i"
    },
    {
      "time": "80544i",
      "midiNote": 37,
      "noteName": "C#2",
      "velocity": 0.5039370078740157,
      "duration": "96i"
    },
    {
      "time": "80640i",
      "midiNote": 37,
      "noteName": "C#2",
      "velocity": 0.7559055118110236,
      "duration": "96i"
    },
    {
      "time": "80640i",
      "midiNote": 70,
      "noteName": "A#4",
      "velocity": 0.7559055118110236,
      "duration": "96i"
    },
    {
      "time": "80736i",
      "midiNote": 44,
      "noteName": "G#2",
      "velocity": 0.7559055118110236,
      "duration": "96i"
    },
    {
      "time": "80736i",
      "midiNote": 37,
      "noteName": "C#2",
      "velocity": 0.5039370078740157,
      "duration": "96i"
    },
    {
      "time": "80832i",
      "midiNote": 44,
      "noteName": "G#2",
      "velocity": 0.7559055118110236,
      "duration": "96i"
    },
    {
      "time": "80832i",
      "midiNote": 37,
      "noteName": "C#2",
      "velocity": 0.5039370078740157,
      "duration": "96i"
    },
    {
      "time": "80928i",
      "midiNote": 44,
      "noteName": "G#2",
      "velocity": 0.7559055118110236,
      "duration": "96i"
    },
    {
      "time": "80928i",
      "midiNote": 37,
      "noteName": "C#2",
      "velocity": 0.5039370078740157,
      "duration": "96i"
    },
    {
      "time": "81024i",
      "midiNote": 70,
      "noteName": "A#4",
      "velocity": 0.7559055118110236,
      "duration": "96i"
    },
    {
      "time": "81024i",
      "midiNote": 37,
      "noteName": "C#2",
      "velocity": 0.7559055118110236,
      "duration": "96i"
    },
    {
      "time": "81120i",
      "midiNote": 44,
      "noteName": "G#2",
      "velocity": 0.7559055118110236,
      "duration": "96i"
    },
    {
      "time": "81120i",
      "midiNote": 37,
      "noteName": "C#2",
      "velocity": 0.5039370078740157,
      "duration": "96i"
    },
    {
      "time": "81216i",
      "midiNote": 44,
      "noteName": "G#2",
      "velocity": 0.7559055118110236,
      "duration": "96i"
    },
    {
      "time": "81216i",
      "midiNote": 37,
      "noteName": "C#2",
      "velocity": 0.5039370078740157,
      "duration": "96i"
    },
    {
      "time": "81312i",
      "midiNote": 37,
      "noteName": "C#2",
      "velocity": 0.5039370078740157,
      "duration": "96i"
    },
    {
      "time": "81312i",
      "midiNote": 44,
      "noteName": "G#2",
      "velocity": 0.7559055118110236,
      "duration": "96i"
    },
    {
      "time": "81408i",
      "midiNote": 37,
      "noteName": "C#2",
      "velocity": 0.7559055118110236,
      "duration": "96i"
    },
    {
      "time": "81408i",
      "midiNote": 70,
      "noteName": "A#4",
      "velocity": 0.7559055118110236,
      "duration": "96i"
    },
    {
      "time": "81504i",
      "midiNote": 44,
      "noteName": "G#2",
      "velocity": 0.7559055118110236,
      "duration": "96i"
    },
    {
      "time": "81504i",
      "midiNote": 37,
      "noteName": "C#2",
      "velocity": 0.5039370078740157,
      "duration": "96i"
    },
    {
      "time": "81600i",
      "midiNote": 44,
      "noteName": "G#2",
      "velocity": 0.7559055118110236,
      "duration": "96i"
    },
    {
      "time": "81600i",
      "midiNote": 37,
      "noteName": "C#2",
      "velocity": 0.5039370078740157,
      "duration": "96i"
    },
    {
      "time": "81696i",
      "midiNote": 37,
      "noteName": "C#2",
      "velocity": 0.7559055118110236,
      "duration": "96i"
    },
    {
      "time": "81696i",
      "midiNote": 70,
      "noteName": "A#4",
      "velocity": 0.7559055118110236,
      "duration": "96i"
    },
    {
      "time": "81792i",
      "midiNote": 44,
      "noteName": "G#2",
      "velocity": 0.7559055118110236,
      "duration": "96i"
    },
    {
      "time": "81792i",
      "midiNote": 37,
      "noteName": "C#2",
      "velocity": 0.5039370078740157,
      "duration": "96i"
    },
    {
      "time": "81888i",
      "midiNote": 44,
      "noteName": "G#2",
      "velocity": 0.7559055118110236,
      "duration": "96i"
    },
    {
      "time": "81888i",
      "midiNote": 37,
      "noteName": "C#2",
      "velocity": 0.5039370078740157,
      "duration": "96i"
    },
    {
      "time": "81984i",
      "midiNote": 37,
      "noteName": "C#2",
      "velocity": 0.7559055118110236,
      "duration": "96i"
    },
    {
      "time": "81984i",
      "midiNote": 70,
      "noteName": "A#4",
      "velocity": 0.7559055118110236,
      "duration": "96i"
    },
    {
      "time": "82080i",
      "midiNote": 44,
      "noteName": "G#2",
      "velocity": 0.7559055118110236,
      "duration": "96i"
    },
    {
      "time": "82080i",
      "midiNote": 37,
      "noteName": "C#2",
      "velocity": 0.5039370078740157,
      "duration": "96i"
    },
    {
      "time": "82176i",
      "midiNote": 37,
      "noteName": "C#2",
      "velocity": 0.7559055118110236,
      "duration": "96i"
    },
    {
      "time": "82176i",
      "midiNote": 70,
      "noteName": "A#4",
      "velocity": 0.7559055118110236,
      "duration": "96i"
    },
    {
      "time": "82272i",
      "midiNote": 44,
      "noteName": "G#2",
      "velocity": 0.7559055118110236,
      "duration": "96i"
    },
    {
      "time": "82272i",
      "midiNote": 37,
      "noteName": "C#2",
      "velocity": 0.5039370078740157,
      "duration": "96i"
    },
    {
      "time": "82368i",
      "midiNote": 44,
      "noteName": "G#2",
      "velocity": 0.7559055118110236,
      "duration": "96i"
    },
    {
      "time": "82368i",
      "midiNote": 37,
      "noteName": "C#2",
      "velocity": 0.5039370078740157,
      "duration": "96i"
    },
    {
      "time": "82464i",
      "midiNote": 44,
      "noteName": "G#2",
      "velocity": 0.7559055118110236,
      "duration": "96i"
    },
    {
      "time": "82464i",
      "midiNote": 37,
      "noteName": "C#2",
      "velocity": 0.5039370078740157,
      "duration": "96i"
    },
    {
      "time": "82560i",
      "midiNote": 70,
      "noteName": "A#4",
      "velocity": 0.7559055118110236,
      "duration": "96i"
    },
    {
      "time": "82560i",
      "midiNote": 37,
      "noteName": "C#2",
      "velocity": 0.7559055118110236,
      "duration": "96i"
    },
    {
      "time": "82656i",
      "midiNote": 44,
      "noteName": "G#2",
      "velocity": 0.7559055118110236,
      "duration": "96i"
    },
    {
      "time": "82656i",
      "midiNote": 37,
      "noteName": "C#2",
      "velocity": 0.5039370078740157,
      "duration": "96i"
    },
    {
      "time": "82752i",
      "midiNote": 44,
      "noteName": "G#2",
      "velocity": 0.7559055118110236,
      "duration": "96i"
    },
    {
      "time": "82752i",
      "midiNote": 37,
      "noteName": "C#2",
      "velocity": 0.5039370078740157,
      "duration": "96i"
    },
    {
      "time": "82848i",
      "midiNote": 37,
      "noteName": "C#2",
      "velocity": 0.5039370078740157,
      "duration": "96i"
    },
    {
      "time": "82848i",
      "midiNote": 44,
      "noteName": "G#2",
      "velocity": 0.7559055118110236,
      "duration": "96i"
    },
    {
      "time": "82944i",
      "midiNote": 37,
      "noteName": "C#2",
      "velocity": 0.7559055118110236,
      "duration": "96i"
    },
    {
      "time": "82944i",
      "midiNote": 70,
      "noteName": "A#4",
      "velocity": 0.7559055118110236,
      "duration": "96i"
    },
    {
      "time": "83040i",
      "midiNote": 44,
      "noteName": "G#2",
      "velocity": 0.7559055118110236,
      "duration": "96i"
    },
    {
      "time": "83040i",
      "midiNote": 37,
      "noteName": "C#2",
      "velocity": 0.5039370078740157,
      "duration": "96i"
    },
    {
      "time": "83136i",
      "midiNote": 44,
      "noteName": "G#2",
      "velocity": 0.7559055118110236,
      "duration": "96i"
    },
    {
      "time": "83136i",
      "midiNote": 37,
      "noteName": "C#2",
      "velocity": 0.5039370078740157,
      "duration": "96i"
    },
    {
      "time": "83232i",
      "midiNote": 37,
      "noteName": "C#2",
      "velocity": 0.7559055118110236,
      "duration": "96i"
    },
    {
      "time": "83232i",
      "midiNote": 70,
      "noteName": "A#4",
      "velocity": 0.7559055118110236,
      "duration": "96i"
    },
    {
      "time": "83328i",
      "midiNote": 44,
      "noteName": "G#2",
      "velocity": 0.7559055118110236,
      "duration": "96i"
    },
    {
      "time": "83328i",
      "midiNote": 37,
      "noteName": "C#2",
      "velocity": 0.5039370078740157,
      "duration": "96i"
    },
    {
      "time": "83424i",
      "midiNote": 44,
      "noteName": "G#2",
      "velocity": 0.7559055118110236,
      "duration": "96i"
    },
    {
      "time": "83424i",
      "midiNote": 37,
      "noteName": "C#2",
      "velocity": 0.5039370078740157,
      "duration": "96i"
    },
    {
      "time": "83520i",
      "midiNote": 37,
      "noteName": "C#2",
      "velocity": 0.7559055118110236,
      "duration": "96i"
    },
    {
      "time": "83520i",
      "midiNote": 70,
      "noteName": "A#4",
      "velocity": 0.7559055118110236,
      "duration": "96i"
    },
    {
      "time": "83616i",
      "midiNote": 44,
      "noteName": "G#2",
      "velocity": 0.7559055118110236,
      "duration": "96i"
    },
    {
      "time": "83616i",
      "midiNote": 37,
      "noteName": "C#2",
      "velocity": 0.5039370078740157,
      "duration": "96i"
    },
    {
      "time": "83712i",
      "midiNote": 37,
      "noteName": "C#2",
      "velocity": 0.7559055118110236,
      "duration": "96i"
    },
    {
      "time": "83712i",
      "midiNote": 70,
      "noteName": "A#4",
      "velocity": 0.7559055118110236,
      "duration": "96i"
    },
    {
      "time": "83808i",
      "midiNote": 44,
      "noteName": "G#2",
      "velocity": 0.7559055118110236,
      "duration": "96i"
    },
    {
      "time": "83808i",
      "midiNote": 37,
      "noteName": "C#2",
      "velocity": 0.5039370078740157,
      "duration": "96i"
    },
    {
      "time": "83904i",
      "midiNote": 44,
      "noteName": "G#2",
      "velocity": 0.7559055118110236,
      "duration": "96i"
    },
    {
      "time": "83904i",
      "midiNote": 37,
      "noteName": "C#2",
      "velocity": 0.5039370078740157,
      "duration": "96i"
    },
    {
      "time": "84000i",
      "midiNote": 44,
      "noteName": "G#2",
      "velocity": 0.7559055118110236,
      "duration": "96i"
    },
    {
      "time": "84000i",
      "midiNote": 37,
      "noteName": "C#2",
      "velocity": 0.5039370078740157,
      "duration": "96i"
    },
    {
      "time": "84096i",
      "midiNote": 70,
      "noteName": "A#4",
      "velocity": 0.7559055118110236,
      "duration": "96i"
    },
    {
      "time": "84096i",
      "midiNote": 37,
      "noteName": "C#2",
      "velocity": 0.7559055118110236,
      "duration": "96i"
    },
    {
      "time": "84192i",
      "midiNote": 44,
      "noteName": "G#2",
      "velocity": 0.7559055118110236,
      "duration": "96i"
    },
    {
      "time": "84192i",
      "midiNote": 37,
      "noteName": "C#2",
      "velocity": 0.5039370078740157,
      "duration": "96i"
    },
    {
      "time": "84288i",
      "midiNote": 44,
      "noteName": "G#2",
      "velocity": 0.7559055118110236,
      "duration": "96i"
    },
    {
      "time": "84288i",
      "midiNote": 37,
      "noteName": "C#2",
      "velocity": 0.5039370078740157,
      "duration": "96i"
    },
    {
      "time": "84384i",
      "midiNote": 37,
      "noteName": "C#2",
      "velocity": 0.5039370078740157,
      "duration": "96i"
    },
    {
      "time": "84384i",
      "midiNote": 44,
      "noteName": "G#2",
      "velocity": 0.7559055118110236,
      "duration": "96i"
    },
    {
      "time": "84480i",
      "midiNote": 37,
      "noteName": "C#2",
      "velocity": 0.7559055118110236,
      "duration": "96i"
    },
    {
      "time": "84480i",
      "midiNote": 70,
      "noteName": "A#4",
      "velocity": 0.7559055118110236,
      "duration": "96i"
    },
    {
      "time": "84576i",
      "midiNote": 44,
      "noteName": "G#2",
      "velocity": 0.7559055118110236,
      "duration": "96i"
    },
    {
      "time": "84576i",
      "midiNote": 37,
      "noteName": "C#2",
      "velocity": 0.5039370078740157,
      "duration": "96i"
    },
    {
      "time": "84672i",
      "midiNote": 44,
      "noteName": "G#2",
      "velocity": 0.7559055118110236,
      "duration": "96i"
    },
    {
      "time": "84672i",
      "midiNote": 37,
      "noteName": "C#2",
      "velocity": 0.5039370078740157,
      "duration": "96i"
    },
    {
      "time": "84768i",
      "midiNote": 37,
      "noteName": "C#2",
      "velocity": 0.7559055118110236,
      "duration": "96i"
    },
    {
      "time": "84768i",
      "midiNote": 70,
      "noteName": "A#4",
      "velocity": 0.7559055118110236,
      "duration": "96i"
    },
    {
      "time": "84864i",
      "midiNote": 44,
      "noteName": "G#2",
      "velocity": 0.7559055118110236,
      "duration": "96i"
    },
    {
      "time": "84864i",
      "midiNote": 37,
      "noteName": "C#2",
      "velocity": 0.5039370078740157,
      "duration": "96i"
    },
    {
      "time": "84960i",
      "midiNote": 44,
      "noteName": "G#2",
      "velocity": 0.7559055118110236,
      "duration": "96i"
    },
    {
      "time": "84960i",
      "midiNote": 37,
      "noteName": "C#2",
      "velocity": 0.5039370078740157,
      "duration": "96i"
    },
    {
      "time": "85056i",
      "midiNote": 37,
      "noteName": "C#2",
      "velocity": 0.7559055118110236,
      "duration": "96i"
    },
    {
      "time": "85056i",
      "midiNote": 70,
      "noteName": "A#4",
      "velocity": 0.7559055118110236,
      "duration": "96i"
    },
    {
      "time": "85152i",
      "midiNote": 44,
      "noteName": "G#2",
      "velocity": 0.7559055118110236,
      "duration": "96i"
    },
    {
      "time": "85152i",
      "midiNote": 37,
      "noteName": "C#2",
      "velocity": 0.5039370078740157,
      "duration": "96i"
    },
    {
      "time": "85248i",
      "midiNote": 37,
      "noteName": "C#2",
      "velocity": 0.7559055118110236,
      "duration": "96i"
    },
    {
      "time": "85248i",
      "midiNote": 70,
      "noteName": "A#4",
      "velocity": 0.7559055118110236,
      "duration": "96i"
    },
    {
      "time": "85344i",
      "midiNote": 44,
      "noteName": "G#2",
      "velocity": 0.7559055118110236,
      "duration": "96i"
    },
    {
      "time": "85344i",
      "midiNote": 37,
      "noteName": "C#2",
      "velocity": 0.5039370078740157,
      "duration": "96i"
    },
    {
      "time": "85440i",
      "midiNote": 44,
      "noteName": "G#2",
      "velocity": 0.7559055118110236,
      "duration": "96i"
    },
    {
      "time": "85440i",
      "midiNote": 37,
      "noteName": "C#2",
      "velocity": 0.5039370078740157,
      "duration": "96i"
    },
    {
      "time": "85536i",
      "midiNote": 44,
      "noteName": "G#2",
      "velocity": 0.7559055118110236,
      "duration": "96i"
    },
    {
      "time": "85536i",
      "midiNote": 37,
      "noteName": "C#2",
      "velocity": 0.5039370078740157,
      "duration": "96i"
    },
    {
      "time": "85632i",
      "midiNote": 70,
      "noteName": "A#4",
      "velocity": 0.7559055118110236,
      "duration": "96i"
    },
    {
      "time": "85632i",
      "midiNote": 37,
      "noteName": "C#2",
      "velocity": 0.7559055118110236,
      "duration": "96i"
    },
    {
      "time": "85728i",
      "midiNote": 44,
      "noteName": "G#2",
      "velocity": 0.7559055118110236,
      "duration": "96i"
    },
    {
      "time": "85728i",
      "midiNote": 37,
      "noteName": "C#2",
      "velocity": 0.5039370078740157,
      "duration": "96i"
    },
    {
      "time": "85824i",
      "midiNote": 44,
      "noteName": "G#2",
      "velocity": 0.7559055118110236,
      "duration": "96i"
    },
    {
      "time": "85824i",
      "midiNote": 37,
      "noteName": "C#2",
      "velocity": 0.5039370078740157,
      "duration": "96i"
    },
    {
      "time": "85920i",
      "midiNote": 37,
      "noteName": "C#2",
      "velocity": 0.5039370078740157,
      "duration": "96i"
    },
    {
      "time": "85920i",
      "midiNote": 44,
      "noteName": "G#2",
      "velocity": 0.7559055118110236,
      "duration": "96i"
    },
    {
      "time": "86016i",
      "midiNote": 37,
      "noteName": "C#2",
      "velocity": 0.7559055118110236,
      "duration": "96i"
    },
    {
      "time": "86016i",
      "midiNote": 70,
      "noteName": "A#4",
      "velocity": 0.7559055118110236,
      "duration": "96i"
    },
    {
      "time": "86112i",
      "midiNote": 44,
      "noteName": "G#2",
      "velocity": 0.7559055118110236,
      "duration": "96i"
    },
    {
      "time": "86112i",
      "midiNote": 37,
      "noteName": "C#2",
      "velocity": 0.5039370078740157,
      "duration": "96i"
    },
    {
      "time": "86208i",
      "midiNote": 44,
      "noteName": "G#2",
      "velocity": 0.7559055118110236,
      "duration": "96i"
    },
    {
      "time": "86208i",
      "midiNote": 37,
      "noteName": "C#2",
      "velocity": 0.5039370078740157,
      "duration": "96i"
    },
    {
      "time": "86304i",
      "midiNote": 37,
      "noteName": "C#2",
      "velocity": 0.7559055118110236,
      "duration": "96i"
    },
    {
      "time": "86304i",
      "midiNote": 70,
      "noteName": "A#4",
      "velocity": 0.7559055118110236,
      "duration": "96i"
    },
    {
      "time": "86400i",
      "midiNote": 44,
      "noteName": "G#2",
      "velocity": 0.7559055118110236,
      "duration": "96i"
    },
    {
      "time": "86400i",
      "midiNote": 37,
      "noteName": "C#2",
      "velocity": 0.5039370078740157,
      "duration": "96i"
    },
    {
      "time": "86496i",
      "midiNote": 44,
      "noteName": "G#2",
      "velocity": 0.7559055118110236,
      "duration": "96i"
    },
    {
      "time": "86496i",
      "midiNote": 37,
      "noteName": "C#2",
      "velocity": 0.5039370078740157,
      "duration": "96i"
    },
    {
      "time": "86592i",
      "midiNote": 37,
      "noteName": "C#2",
      "velocity": 0.7559055118110236,
      "duration": "96i"
    },
    {
      "time": "86592i",
      "midiNote": 70,
      "noteName": "A#4",
      "velocity": 0.7559055118110236,
      "duration": "96i"
    },
    {
      "time": "86688i",
      "midiNote": 44,
      "noteName": "G#2",
      "velocity": 0.7559055118110236,
      "duration": "96i"
    },
    {
      "time": "86688i",
      "midiNote": 37,
      "noteName": "C#2",
      "velocity": 0.5039370078740157,
      "duration": "96i"
    },
    {
      "time": "86784i",
      "midiNote": 37,
      "noteName": "C#2",
      "velocity": 0.7559055118110236,
      "duration": "96i"
    },
    {
      "time": "86784i",
      "midiNote": 70,
      "noteName": "A#4",
      "velocity": 0.7559055118110236,
      "duration": "96i"
    },
    {
      "time": "86880i",
      "midiNote": 44,
      "noteName": "G#2",
      "velocity": 0.7559055118110236,
      "duration": "96i"
    },
    {
      "time": "86880i",
      "midiNote": 37,
      "noteName": "C#2",
      "velocity": 0.5039370078740157,
      "duration": "96i"
    },
    {
      "time": "86976i",
      "midiNote": 44,
      "noteName": "G#2",
      "velocity": 0.7559055118110236,
      "duration": "96i"
    },
    {
      "time": "86976i",
      "midiNote": 37,
      "noteName": "C#2",
      "velocity": 0.5039370078740157,
      "duration": "96i"
    },
    {
      "time": "87072i",
      "midiNote": 44,
      "noteName": "G#2",
      "velocity": 0.7559055118110236,
      "duration": "96i"
    },
    {
      "time": "87072i",
      "midiNote": 37,
      "noteName": "C#2",
      "velocity": 0.5039370078740157,
      "duration": "96i"
    },
    {
      "time": "87168i",
      "midiNote": 70,
      "noteName": "A#4",
      "velocity": 0.7559055118110236,
      "duration": "96i"
    },
    {
      "time": "87168i",
      "midiNote": 37,
      "noteName": "C#2",
      "velocity": 0.7559055118110236,
      "duration": "96i"
    },
    {
      "time": "87264i",
      "midiNote": 44,
      "noteName": "G#2",
      "velocity": 0.7559055118110236,
      "duration": "96i"
    },
    {
      "time": "87264i",
      "midiNote": 37,
      "noteName": "C#2",
      "velocity": 0.5039370078740157,
      "duration": "96i"
    },
    {
      "time": "87360i",
      "midiNote": 44,
      "noteName": "G#2",
      "velocity": 0.7559055118110236,
      "duration": "96i"
    },
    {
      "time": "87360i",
      "midiNote": 37,
      "noteName": "C#2",
      "velocity": 0.5039370078740157,
      "duration": "96i"
    },
    {
      "time": "87456i",
      "midiNote": 37,
      "noteName": "C#2",
      "velocity": 0.5039370078740157,
      "duration": "96i"
    },
    {
      "time": "87456i",
      "midiNote": 44,
      "noteName": "G#2",
      "velocity": 0.7559055118110236,
      "duration": "96i"
    },
    {
      "time": "87552i",
      "midiNote": 37,
      "noteName": "C#2",
      "velocity": 0.7559055118110236,
      "duration": "96i"
    },
    {
      "time": "87552i",
      "midiNote": 70,
      "noteName": "A#4",
      "velocity": 0.7559055118110236,
      "duration": "96i"
    },
    {
      "time": "87648i",
      "midiNote": 44,
      "noteName": "G#2",
      "velocity": 0.7559055118110236,
      "duration": "96i"
    },
    {
      "time": "87648i",
      "midiNote": 37,
      "noteName": "C#2",
      "velocity": 0.5039370078740157,
      "duration": "96i"
    },
    {
      "time": "87744i",
      "midiNote": 44,
      "noteName": "G#2",
      "velocity": 0.7559055118110236,
      "duration": "96i"
    },
    {
      "time": "87744i",
      "midiNote": 37,
      "noteName": "C#2",
      "velocity": 0.5039370078740157,
      "duration": "96i"
    },
    {
      "time": "87840i",
      "midiNote": 37,
      "noteName": "C#2",
      "velocity": 0.7559055118110236,
      "duration": "96i"
    },
    {
      "time": "87840i",
      "midiNote": 70,
      "noteName": "A#4",
      "velocity": 0.7559055118110236,
      "duration": "96i"
    },
    {
      "time": "87936i",
      "midiNote": 44,
      "noteName": "G#2",
      "velocity": 0.7559055118110236,
      "duration": "96i"
    },
    {
      "time": "87936i",
      "midiNote": 37,
      "noteName": "C#2",
      "velocity": 0.5039370078740157,
      "duration": "96i"
    },
    {
      "time": "88032i",
      "midiNote": 44,
      "noteName": "G#2",
      "velocity": 0.7559055118110236,
      "duration": "96i"
    },
    {
      "time": "88032i",
      "midiNote": 37,
      "noteName": "C#2",
      "velocity": 0.5039370078740157,
      "duration": "96i"
    },
    {
      "time": "88128i",
      "midiNote": 37,
      "noteName": "C#2",
      "velocity": 0.7559055118110236,
      "duration": "96i"
    },
    {
      "time": "88128i",
      "midiNote": 70,
      "noteName": "A#4",
      "velocity": 0.7559055118110236,
      "duration": "96i"
    },
    {
      "time": "88224i",
      "midiNote": 44,
      "noteName": "G#2",
      "velocity": 0.7559055118110236,
      "duration": "96i"
    },
    {
      "time": "88224i",
      "midiNote": 37,
      "noteName": "C#2",
      "velocity": 0.5039370078740157,
      "duration": "96i"
    },
    {
      "time": "88320i",
      "midiNote": 37,
      "noteName": "C#2",
      "velocity": 0.7559055118110236,
      "duration": "96i"
    },
    {
      "time": "88320i",
      "midiNote": 70,
      "noteName": "A#4",
      "velocity": 0.7559055118110236,
      "duration": "96i"
    },
    {
      "time": "88416i",
      "midiNote": 44,
      "noteName": "G#2",
      "velocity": 0.7559055118110236,
      "duration": "96i"
    },
    {
      "time": "88416i",
      "midiNote": 37,
      "noteName": "C#2",
      "velocity": 0.5039370078740157,
      "duration": "96i"
    },
    {
      "time": "88512i",
      "midiNote": 44,
      "noteName": "G#2",
      "velocity": 0.7559055118110236,
      "duration": "96i"
    },
    {
      "time": "88512i",
      "midiNote": 37,
      "noteName": "C#2",
      "velocity": 0.5039370078740157,
      "duration": "96i"
    },
    {
      "time": "88608i",
      "midiNote": 44,
      "noteName": "G#2",
      "velocity": 0.7559055118110236,
      "duration": "96i"
    },
    {
      "time": "88608i",
      "midiNote": 37,
      "noteName": "C#2",
      "velocity": 0.5039370078740157,
      "duration": "96i"
    },
    {
      "time": "88704i",
      "midiNote": 70,
      "noteName": "A#4",
      "velocity": 0.7559055118110236,
      "duration": "96i"
    },
    {
      "time": "88704i",
      "midiNote": 37,
      "noteName": "C#2",
      "velocity": 0.7559055118110236,
      "duration": "96i"
    },
    {
      "time": "88800i",
      "midiNote": 44,
      "noteName": "G#2",
      "velocity": 0.7559055118110236,
      "duration": "96i"
    },
    {
      "time": "88800i",
      "midiNote": 37,
      "noteName": "C#2",
      "velocity": 0.5039370078740157,
      "duration": "96i"
    },
    {
      "time": "88896i",
      "midiNote": 44,
      "noteName": "G#2",
      "velocity": 0.7559055118110236,
      "duration": "96i"
    },
    {
      "time": "88896i",
      "midiNote": 37,
      "noteName": "C#2",
      "velocity": 0.5039370078740157,
      "duration": "96i"
    },
    {
      "time": "88992i",
      "midiNote": 37,
      "noteName": "C#2",
      "velocity": 0.5039370078740157,
      "duration": "96i"
    },
    {
      "time": "88992i",
      "midiNote": 44,
      "noteName": "G#2",
      "velocity": 0.7559055118110236,
      "duration": "96i"
    },
    {
      "time": "89088i",
      "midiNote": 37,
      "noteName": "C#2",
      "velocity": 0.7559055118110236,
      "duration": "96i"
    },
    {
      "time": "89088i",
      "midiNote": 70,
      "noteName": "A#4",
      "velocity": 0.7559055118110236,
      "duration": "96i"
    },
    {
      "time": "89184i",
      "midiNote": 44,
      "noteName": "G#2",
      "velocity": 0.7559055118110236,
      "duration": "96i"
    },
    {
      "time": "89184i",
      "midiNote": 37,
      "noteName": "C#2",
      "velocity": 0.5039370078740157,
      "duration": "96i"
    },
    {
      "time": "89280i",
      "midiNote": 44,
      "noteName": "G#2",
      "velocity": 0.7559055118110236,
      "duration": "96i"
    },
    {
      "time": "89280i",
      "midiNote": 37,
      "noteName": "C#2",
      "velocity": 0.5039370078740157,
      "duration": "96i"
    },
    {
      "time": "89376i",
      "midiNote": 37,
      "noteName": "C#2",
      "velocity": 0.7559055118110236,
      "duration": "96i"
    },
    {
      "time": "89376i",
      "midiNote": 70,
      "noteName": "A#4",
      "velocity": 0.7559055118110236,
      "duration": "96i"
    },
    {
      "time": "89472i",
      "midiNote": 44,
      "noteName": "G#2",
      "velocity": 0.7559055118110236,
      "duration": "96i"
    },
    {
      "time": "89472i",
      "midiNote": 37,
      "noteName": "C#2",
      "velocity": 0.5039370078740157,
      "duration": "96i"
    },
    {
      "time": "89568i",
      "midiNote": 44,
      "noteName": "G#2",
      "velocity": 0.7559055118110236,
      "duration": "96i"
    },
    {
      "time": "89568i",
      "midiNote": 37,
      "noteName": "C#2",
      "velocity": 0.5039370078740157,
      "duration": "96i"
    },
    {
      "time": "89664i",
      "midiNote": 37,
      "noteName": "C#2",
      "velocity": 0.7559055118110236,
      "duration": "96i"
    },
    {
      "time": "89664i",
      "midiNote": 70,
      "noteName": "A#4",
      "velocity": 0.7559055118110236,
      "duration": "96i"
    },
    {
      "time": "89760i",
      "midiNote": 44,
      "noteName": "G#2",
      "velocity": 0.7559055118110236,
      "duration": "96i"
    },
    {
      "time": "89760i",
      "midiNote": 37,
      "noteName": "C#2",
      "velocity": 0.5039370078740157,
      "duration": "96i"
    },
    {
      "time": "89856i",
      "midiNote": 37,
      "noteName": "C#2",
      "velocity": 0.7559055118110236,
      "duration": "96i"
    },
    {
      "time": "89856i",
      "midiNote": 70,
      "noteName": "A#4",
      "velocity": 0.7559055118110236,
      "duration": "96i"
    },
    {
      "time": "89952i",
      "midiNote": 44,
      "noteName": "G#2",
      "velocity": 0.7559055118110236,
      "duration": "96i"
    },
    {
      "time": "89952i",
      "midiNote": 37,
      "noteName": "C#2",
      "velocity": 0.5039370078740157,
      "duration": "96i"
    },
    {
      "time": "90048i",
      "midiNote": 44,
      "noteName": "G#2",
      "velocity": 0.7559055118110236,
      "duration": "96i"
    },
    {
      "time": "90048i",
      "midiNote": 37,
      "noteName": "C#2",
      "velocity": 0.5039370078740157,
      "duration": "96i"
    },
    {
      "time": "90144i",
      "midiNote": 44,
      "noteName": "G#2",
      "velocity": 0.7559055118110236,
      "duration": "96i"
    },
    {
      "time": "90144i",
      "midiNote": 37,
      "noteName": "C#2",
      "velocity": 0.5039370078740157,
      "duration": "96i"
    },
    {
      "time": "90240i",
      "midiNote": 70,
      "noteName": "A#4",
      "velocity": 0.7559055118110236,
      "duration": "96i"
    },
    {
      "time": "90240i",
      "midiNote": 37,
      "noteName": "C#2",
      "velocity": 0.7559055118110236,
      "duration": "96i"
    },
    {
      "time": "90336i",
      "midiNote": 44,
      "noteName": "G#2",
      "velocity": 0.7559055118110236,
      "duration": "96i"
    },
    {
      "time": "90336i",
      "midiNote": 37,
      "noteName": "C#2",
      "velocity": 0.5039370078740157,
      "duration": "96i"
    },
    {
      "time": "90432i",
      "midiNote": 44,
      "noteName": "G#2",
      "velocity": 0.7559055118110236,
      "duration": "96i"
    },
    {
      "time": "90432i",
      "midiNote": 37,
      "noteName": "C#2",
      "velocity": 0.5039370078740157,
      "duration": "96i"
    },
    {
      "time": "90528i",
      "midiNote": 37,
      "noteName": "C#2",
      "velocity": 0.5039370078740157,
      "duration": "96i"
    },
    {
      "time": "90528i",
      "midiNote": 44,
      "noteName": "G#2",
      "velocity": 0.7559055118110236,
      "duration": "96i"
    },
    {
      "time": "90624i",
      "midiNote": 37,
      "noteName": "C#2",
      "velocity": 0.7559055118110236,
      "duration": "96i"
    },
    {
      "time": "90624i",
      "midiNote": 70,
      "noteName": "A#4",
      "velocity": 0.7559055118110236,
      "duration": "96i"
    },
    {
      "time": "90720i",
      "midiNote": 44,
      "noteName": "G#2",
      "velocity": 0.7559055118110236,
      "duration": "96i"
    },
    {
      "time": "90720i",
      "midiNote": 37,
      "noteName": "C#2",
      "velocity": 0.5039370078740157,
      "duration": "96i"
    },
    {
      "time": "90816i",
      "midiNote": 44,
      "noteName": "G#2",
      "velocity": 0.7559055118110236,
      "duration": "96i"
    },
    {
      "time": "90816i",
      "midiNote": 37,
      "noteName": "C#2",
      "velocity": 0.5039370078740157,
      "duration": "96i"
    },
    {
      "time": "90912i",
      "midiNote": 37,
      "noteName": "C#2",
      "velocity": 0.7559055118110236,
      "duration": "96i"
    },
    {
      "time": "90912i",
      "midiNote": 70,
      "noteName": "A#4",
      "velocity": 0.7559055118110236,
      "duration": "96i"
    },
    {
      "time": "91008i",
      "midiNote": 44,
      "noteName": "G#2",
      "velocity": 0.7559055118110236,
      "duration": "96i"
    },
    {
      "time": "91008i",
      "midiNote": 37,
      "noteName": "C#2",
      "velocity": 0.5039370078740157,
      "duration": "96i"
    },
    {
      "time": "91104i",
      "midiNote": 44,
      "noteName": "G#2",
      "velocity": 0.7559055118110236,
      "duration": "96i"
    },
    {
      "time": "91104i",
      "midiNote": 37,
      "noteName": "C#2",
      "velocity": 0.5039370078740157,
      "duration": "96i"
    },
    {
      "time": "91200i",
      "midiNote": 37,
      "noteName": "C#2",
      "velocity": 0.7559055118110236,
      "duration": "96i"
    },
    {
      "time": "91200i",
      "midiNote": 70,
      "noteName": "A#4",
      "velocity": 0.7559055118110236,
      "duration": "96i"
    },
    {
      "time": "91296i",
      "midiNote": 44,
      "noteName": "G#2",
      "velocity": 0.7559055118110236,
      "duration": "96i"
    },
    {
      "time": "91296i",
      "midiNote": 37,
      "noteName": "C#2",
      "velocity": 0.5039370078740157,
      "duration": "96i"
    },
    {
      "time": "91392i",
      "midiNote": 37,
      "noteName": "C#2",
      "velocity": 0.7559055118110236,
      "duration": "96i"
    },
    {
      "time": "91392i",
      "midiNote": 70,
      "noteName": "A#4",
      "velocity": 0.7559055118110236,
      "duration": "96i"
    },
    {
      "time": "91488i",
      "midiNote": 44,
      "noteName": "G#2",
      "velocity": 0.7559055118110236,
      "duration": "96i"
    },
    {
      "time": "91488i",
      "midiNote": 37,
      "noteName": "C#2",
      "velocity": 0.5039370078740157,
      "duration": "96i"
    },
    {
      "time": "91584i",
      "midiNote": 44,
      "noteName": "G#2",
      "velocity": 0.7559055118110236,
      "duration": "96i"
    },
    {
      "time": "91584i",
      "midiNote": 37,
      "noteName": "C#2",
      "velocity": 0.5039370078740157,
      "duration": "96i"
    },
    {
      "time": "91680i",
      "midiNote": 44,
      "noteName": "G#2",
      "velocity": 0.7559055118110236,
      "duration": "96i"
    },
    {
      "time": "91680i",
      "midiNote": 37,
      "noteName": "C#2",
      "velocity": 0.5039370078740157,
      "duration": "96i"
    },
    {
      "time": "91776i",
      "midiNote": 70,
      "noteName": "A#4",
      "velocity": 0.7559055118110236,
      "duration": "96i"
    },
    {
      "time": "91776i",
      "midiNote": 37,
      "noteName": "C#2",
      "velocity": 0.7559055118110236,
      "duration": "96i"
    },
    {
      "time": "91872i",
      "midiNote": 44,
      "noteName": "G#2",
      "velocity": 0.7559055118110236,
      "duration": "96i"
    },
    {
      "time": "91872i",
      "midiNote": 37,
      "noteName": "C#2",
      "velocity": 0.5039370078740157,
      "duration": "96i"
    },
    {
      "time": "91968i",
      "midiNote": 44,
      "noteName": "G#2",
      "velocity": 0.7559055118110236,
      "duration": "96i"
    },
    {
      "time": "91968i",
      "midiNote": 37,
      "noteName": "C#2",
      "velocity": 0.5039370078740157,
      "duration": "96i"
    },
    {
      "time": "92064i",
      "midiNote": 37,
      "noteName": "C#2",
      "velocity": 0.5039370078740157,
      "duration": "96i"
    },
    {
      "time": "92064i",
      "midiNote": 44,
      "noteName": "G#2",
      "velocity": 0.7559055118110236,
      "duration": "96i"
    },
    {
      "time": "92160i",
      "midiNote": 37,
      "noteName": "C#2",
      "velocity": 0.7559055118110236,
      "duration": "96i"
    },
    {
      "time": "92160i",
      "midiNote": 70,
      "noteName": "A#4",
      "velocity": 0.7559055118110236,
      "duration": "96i"
    },
    {
      "time": "92256i",
      "midiNote": 44,
      "noteName": "G#2",
      "velocity": 0.7559055118110236,
      "duration": "96i"
    },
    {
      "time": "92256i",
      "midiNote": 37,
      "noteName": "C#2",
      "velocity": 0.5039370078740157,
      "duration": "96i"
    },
    {
      "time": "92352i",
      "midiNote": 44,
      "noteName": "G#2",
      "velocity": 0.7559055118110236,
      "duration": "96i"
    },
    {
      "time": "92352i",
      "midiNote": 37,
      "noteName": "C#2",
      "velocity": 0.5039370078740157,
      "duration": "96i"
    },
    {
      "time": "92448i",
      "midiNote": 37,
      "noteName": "C#2",
      "velocity": 0.7559055118110236,
      "duration": "96i"
    },
    {
      "time": "92448i",
      "midiNote": 70,
      "noteName": "A#4",
      "velocity": 0.7559055118110236,
      "duration": "96i"
    },
    {
      "time": "92544i",
      "midiNote": 44,
      "noteName": "G#2",
      "velocity": 0.7559055118110236,
      "duration": "96i"
    },
    {
      "time": "92544i",
      "midiNote": 37,
      "noteName": "C#2",
      "velocity": 0.5039370078740157,
      "duration": "96i"
    },
    {
      "time": "92640i",
      "midiNote": 44,
      "noteName": "G#2",
      "velocity": 0.7559055118110236,
      "duration": "96i"
    },
    {
      "time": "92640i",
      "midiNote": 37,
      "noteName": "C#2",
      "velocity": 0.5039370078740157,
      "duration": "96i"
    },
    {
      "time": "92736i",
      "midiNote": 37,
      "noteName": "C#2",
      "velocity": 0.7559055118110236,
      "duration": "96i"
    },
    {
      "time": "92736i",
      "midiNote": 70,
      "noteName": "A#4",
      "velocity": 0.7559055118110236,
      "duration": "96i"
    },
    {
      "time": "92832i",
      "midiNote": 44,
      "noteName": "G#2",
      "velocity": 0.7559055118110236,
      "duration": "96i"
    },
    {
      "time": "92832i",
      "midiNote": 37,
      "noteName": "C#2",
      "velocity": 0.5039370078740157,
      "duration": "96i"
    },
    {
      "time": "92928i",
      "midiNote": 37,
      "noteName": "C#2",
      "velocity": 0.7559055118110236,
      "duration": "96i"
    },
    {
      "time": "92928i",
      "midiNote": 70,
      "noteName": "A#4",
      "velocity": 0.7559055118110236,
      "duration": "96i"
    },
    {
      "time": "93024i",
      "midiNote": 44,
      "noteName": "G#2",
      "velocity": 0.7559055118110236,
      "duration": "96i"
    },
    {
      "time": "93024i",
      "midiNote": 37,
      "noteName": "C#2",
      "velocity": 0.5039370078740157,
      "duration": "96i"
    },
    {
      "time": "93120i",
      "midiNote": 44,
      "noteName": "G#2",
      "velocity": 0.7559055118110236,
      "duration": "96i"
    },
    {
      "time": "93120i",
      "midiNote": 37,
      "noteName": "C#2",
      "velocity": 0.5039370078740157,
      "duration": "96i"
    },
    {
      "time": "93216i",
      "midiNote": 44,
      "noteName": "G#2",
      "velocity": 0.7559055118110236,
      "duration": "96i"
    },
    {
      "time": "93216i",
      "midiNote": 37,
      "noteName": "C#2",
      "velocity": 0.5039370078740157,
      "duration": "96i"
    },
    {
      "time": "93312i",
      "midiNote": 70,
      "noteName": "A#4",
      "velocity": 0.7559055118110236,
      "duration": "96i"
    },
    {
      "time": "93312i",
      "midiNote": 37,
      "noteName": "C#2",
      "velocity": 0.7559055118110236,
      "duration": "96i"
    },
    {
      "time": "93408i",
      "midiNote": 44,
      "noteName": "G#2",
      "velocity": 0.7559055118110236,
      "duration": "96i"
    },
    {
      "time": "93408i",
      "midiNote": 37,
      "noteName": "C#2",
      "velocity": 0.5039370078740157,
      "duration": "96i"
    },
    {
      "time": "93504i",
      "midiNote": 44,
      "noteName": "G#2",
      "velocity": 0.7559055118110236,
      "duration": "96i"
    },
    {
      "time": "93504i",
      "midiNote": 37,
      "noteName": "C#2",
      "velocity": 0.5039370078740157,
      "duration": "96i"
    },
    {
      "time": "93600i",
      "midiNote": 37,
      "noteName": "C#2",
      "velocity": 0.5039370078740157,
      "duration": "96i"
    },
    {
      "time": "93600i",
      "midiNote": 44,
      "noteName": "G#2",
      "velocity": 0.7559055118110236,
      "duration": "96i"
    },
    {
      "time": "93696i",
      "midiNote": 37,
      "noteName": "C#2",
      "velocity": 0.7559055118110236,
      "duration": "96i"
    },
    {
      "time": "93696i",
      "midiNote": 70,
      "noteName": "A#4",
      "velocity": 0.7559055118110236,
      "duration": "96i"
    },
    {
      "time": "93792i",
      "midiNote": 44,
      "noteName": "G#2",
      "velocity": 0.7559055118110236,
      "duration": "96i"
    },
    {
      "time": "93792i",
      "midiNote": 37,
      "noteName": "C#2",
      "velocity": 0.5039370078740157,
      "duration": "96i"
    },
    {
      "time": "93888i",
      "midiNote": 44,
      "noteName": "G#2",
      "velocity": 0.7559055118110236,
      "duration": "96i"
    },
    {
      "time": "93888i",
      "midiNote": 37,
      "noteName": "C#2",
      "velocity": 0.5039370078740157,
      "duration": "96i"
    },
    {
      "time": "93984i",
      "midiNote": 37,
      "noteName": "C#2",
      "velocity": 0.7559055118110236,
      "duration": "96i"
    },
    {
      "time": "93984i",
      "midiNote": 70,
      "noteName": "A#4",
      "velocity": 0.7559055118110236,
      "duration": "96i"
    },
    {
      "time": "94080i",
      "midiNote": 44,
      "noteName": "G#2",
      "velocity": 0.7559055118110236,
      "duration": "96i"
    },
    {
      "time": "94080i",
      "midiNote": 37,
      "noteName": "C#2",
      "velocity": 0.5039370078740157,
      "duration": "96i"
    },
    {
      "time": "94176i",
      "midiNote": 44,
      "noteName": "G#2",
      "velocity": 0.7559055118110236,
      "duration": "96i"
    },
    {
      "time": "94176i",
      "midiNote": 37,
      "noteName": "C#2",
      "velocity": 0.5039370078740157,
      "duration": "96i"
    },
    {
      "time": "94272i",
      "midiNote": 37,
      "noteName": "C#2",
      "velocity": 0.7559055118110236,
      "duration": "96i"
    },
    {
      "time": "94272i",
      "midiNote": 70,
      "noteName": "A#4",
      "velocity": 0.7559055118110236,
      "duration": "96i"
    },
    {
      "time": "94368i",
      "midiNote": 44,
      "noteName": "G#2",
      "velocity": 0.7559055118110236,
      "duration": "96i"
    },
    {
      "time": "94368i",
      "midiNote": 37,
      "noteName": "C#2",
      "velocity": 0.5039370078740157,
      "duration": "96i"
    },
    {
      "time": "94464i",
      "midiNote": 37,
      "noteName": "C#2",
      "velocity": 0.7559055118110236,
      "duration": "96i"
    },
    {
      "time": "94464i",
      "midiNote": 70,
      "noteName": "A#4",
      "velocity": 0.7559055118110236,
      "duration": "96i"
    },
    {
      "time": "94560i",
      "midiNote": 44,
      "noteName": "G#2",
      "velocity": 0.7559055118110236,
      "duration": "96i"
    },
    {
      "time": "94560i",
      "midiNote": 37,
      "noteName": "C#2",
      "velocity": 0.5039370078740157,
      "duration": "96i"
    },
    {
      "time": "94656i",
      "midiNote": 44,
      "noteName": "G#2",
      "velocity": 0.7559055118110236,
      "duration": "96i"
    },
    {
      "time": "94656i",
      "midiNote": 37,
      "noteName": "C#2",
      "velocity": 0.5039370078740157,
      "duration": "96i"
    },
    {
      "time": "94752i",
      "midiNote": 44,
      "noteName": "G#2",
      "velocity": 0.7559055118110236,
      "duration": "96i"
    },
    {
      "time": "94752i",
      "midiNote": 37,
      "noteName": "C#2",
      "velocity": 0.5039370078740157,
      "duration": "96i"
    },
    {
      "time": "94848i",
      "midiNote": 70,
      "noteName": "A#4",
      "velocity": 0.7559055118110236,
      "duration": "96i"
    },
    {
      "time": "94848i",
      "midiNote": 37,
      "noteName": "C#2",
      "velocity": 0.7559055118110236,
      "duration": "96i"
    },
    {
      "time": "94944i",
      "midiNote": 44,
      "noteName": "G#2",
      "velocity": 0.7559055118110236,
      "duration": "96i"
    },
    {
      "time": "94944i",
      "midiNote": 37,
      "noteName": "C#2",
      "velocity": 0.5039370078740157,
      "duration": "96i"
    },
    {
      "time": "95040i",
      "midiNote": 44,
      "noteName": "G#2",
      "velocity": 0.7559055118110236,
      "duration": "96i"
    },
    {
      "time": "95040i",
      "midiNote": 37,
      "noteName": "C#2",
      "velocity": 0.5039370078740157,
      "duration": "96i"
    },
    {
      "time": "95136i",
      "midiNote": 37,
      "noteName": "C#2",
      "velocity": 0.5039370078740157,
      "duration": "96i"
    },
    {
      "time": "95136i",
      "midiNote": 44,
      "noteName": "G#2",
      "velocity": 0.7559055118110236,
      "duration": "96i"
    },
    {
      "time": "95232i",
      "midiNote": 37,
      "noteName": "C#2",
      "velocity": 0.7559055118110236,
      "duration": "96i"
    },
    {
      "time": "95232i",
      "midiNote": 70,
      "noteName": "A#4",
      "velocity": 0.7559055118110236,
      "duration": "96i"
    },
    {
      "time": "95328i",
      "midiNote": 44,
      "noteName": "G#2",
      "velocity": 0.7559055118110236,
      "duration": "96i"
    },
    {
      "time": "95328i",
      "midiNote": 37,
      "noteName": "C#2",
      "velocity": 0.5039370078740157,
      "duration": "96i"
    },
    {
      "time": "95424i",
      "midiNote": 44,
      "noteName": "G#2",
      "velocity": 0.7559055118110236,
      "duration": "96i"
    },
    {
      "time": "95424i",
      "midiNote": 37,
      "noteName": "C#2",
      "velocity": 0.5039370078740157,
      "duration": "96i"
    },
    {
      "time": "95520i",
      "midiNote": 37,
      "noteName": "C#2",
      "velocity": 0.7559055118110236,
      "duration": "96i"
    },
    {
      "time": "95520i",
      "midiNote": 70,
      "noteName": "A#4",
      "velocity": 0.7559055118110236,
      "duration": "96i"
    },
    {
      "time": "95616i",
      "midiNote": 44,
      "noteName": "G#2",
      "velocity": 0.7559055118110236,
      "duration": "96i"
    },
    {
      "time": "95616i",
      "midiNote": 37,
      "noteName": "C#2",
      "velocity": 0.5039370078740157,
      "duration": "96i"
    },
    {
      "time": "95712i",
      "midiNote": 44,
      "noteName": "G#2",
      "velocity": 0.7559055118110236,
      "duration": "96i"
    },
    {
      "time": "95712i",
      "midiNote": 37,
      "noteName": "C#2",
      "velocity": 0.5039370078740157,
      "duration": "96i"
    },
    {
      "time": "95808i",
      "midiNote": 37,
      "noteName": "C#2",
      "velocity": 0.7559055118110236,
      "duration": "96i"
    },
    {
      "time": "95808i",
      "midiNote": 70,
      "noteName": "A#4",
      "velocity": 0.7559055118110236,
      "duration": "96i"
    },
    {
      "time": "95904i",
      "midiNote": 44,
      "noteName": "G#2",
      "velocity": 0.7559055118110236,
      "duration": "96i"
    },
    {
      "time": "95904i",
      "midiNote": 37,
      "noteName": "C#2",
      "velocity": 0.5039370078740157,
      "duration": "96i"
    },
    {
      "time": "96000i",
      "midiNote": 37,
      "noteName": "C#2",
      "velocity": 0.7559055118110236,
      "duration": "96i"
    },
    {
      "time": "96000i",
      "midiNote": 70,
      "noteName": "A#4",
      "velocity": 0.7559055118110236,
      "duration": "96i"
    },
    {
      "time": "96096i",
      "midiNote": 44,
      "noteName": "G#2",
      "velocity": 0.7559055118110236,
      "duration": "96i"
    },
    {
      "time": "96096i",
      "midiNote": 37,
      "noteName": "C#2",
      "velocity": 0.5039370078740157,
      "duration": "96i"
    },
    {
      "time": "96192i",
      "midiNote": 44,
      "noteName": "G#2",
      "velocity": 0.7559055118110236,
      "duration": "96i"
    },
    {
      "time": "96192i",
      "midiNote": 37,
      "noteName": "C#2",
      "velocity": 0.5039370078740157,
      "duration": "96i"
    },
    {
      "time": "96288i",
      "midiNote": 44,
      "noteName": "G#2",
      "velocity": 0.7559055118110236,
      "duration": "96i"
    },
    {
      "time": "96288i",
      "midiNote": 37,
      "noteName": "C#2",
      "velocity": 0.5039370078740157,
      "duration": "96i"
    },
    {
      "time": "96384i",
      "midiNote": 70,
      "noteName": "A#4",
      "velocity": 0.7559055118110236,
      "duration": "96i"
    },
    {
      "time": "96384i",
      "midiNote": 37,
      "noteName": "C#2",
      "velocity": 0.7559055118110236,
      "duration": "96i"
    },
    {
      "time": "96480i",
      "midiNote": 44,
      "noteName": "G#2",
      "velocity": 0.7559055118110236,
      "duration": "96i"
    },
    {
      "time": "96480i",
      "midiNote": 37,
      "noteName": "C#2",
      "velocity": 0.5039370078740157,
      "duration": "96i"
    },
    {
      "time": "96576i",
      "midiNote": 44,
      "noteName": "G#2",
      "velocity": 0.7559055118110236,
      "duration": "96i"
    },
    {
      "time": "96576i",
      "midiNote": 37,
      "noteName": "C#2",
      "velocity": 0.5039370078740157,
      "duration": "96i"
    },
    {
      "time": "96672i",
      "midiNote": 37,
      "noteName": "C#2",
      "velocity": 0.5039370078740157,
      "duration": "96i"
    },
    {
      "time": "96672i",
      "midiNote": 44,
      "noteName": "G#2",
      "velocity": 0.7559055118110236,
      "duration": "96i"
    },
    {
      "time": "96768i",
      "midiNote": 37,
      "noteName": "C#2",
      "velocity": 0.7559055118110236,
      "duration": "96i"
    },
    {
      "time": "96768i",
      "midiNote": 70,
      "noteName": "A#4",
      "velocity": 0.7559055118110236,
      "duration": "96i"
    },
    {
      "time": "96864i",
      "midiNote": 44,
      "noteName": "G#2",
      "velocity": 0.7559055118110236,
      "duration": "96i"
    },
    {
      "time": "96864i",
      "midiNote": 37,
      "noteName": "C#2",
      "velocity": 0.5039370078740157,
      "duration": "96i"
    },
    {
      "time": "96960i",
      "midiNote": 44,
      "noteName": "G#2",
      "velocity": 0.7559055118110236,
      "duration": "96i"
    },
    {
      "time": "96960i",
      "midiNote": 37,
      "noteName": "C#2",
      "velocity": 0.5039370078740157,
      "duration": "96i"
    },
    {
      "time": "97056i",
      "midiNote": 37,
      "noteName": "C#2",
      "velocity": 0.7559055118110236,
      "duration": "96i"
    },
    {
      "time": "97056i",
      "midiNote": 70,
      "noteName": "A#4",
      "velocity": 0.7559055118110236,
      "duration": "96i"
    },
    {
      "time": "97152i",
      "midiNote": 44,
      "noteName": "G#2",
      "velocity": 0.7559055118110236,
      "duration": "96i"
    },
    {
      "time": "97152i",
      "midiNote": 37,
      "noteName": "C#2",
      "velocity": 0.5039370078740157,
      "duration": "96i"
    },
    {
      "time": "97248i",
      "midiNote": 44,
      "noteName": "G#2",
      "velocity": 0.7559055118110236,
      "duration": "96i"
    },
    {
      "time": "97248i",
      "midiNote": 37,
      "noteName": "C#2",
      "velocity": 0.5039370078740157,
      "duration": "96i"
    },
    {
      "time": "97344i",
      "midiNote": 37,
      "noteName": "C#2",
      "velocity": 0.7559055118110236,
      "duration": "96i"
    },
    {
      "time": "97344i",
      "midiNote": 70,
      "noteName": "A#4",
      "velocity": 0.7559055118110236,
      "duration": "96i"
    },
    {
      "time": "97440i",
      "midiNote": 44,
      "noteName": "G#2",
      "velocity": 0.7559055118110236,
      "duration": "96i"
    },
    {
      "time": "97440i",
      "midiNote": 37,
      "noteName": "C#2",
      "velocity": 0.5039370078740157,
      "duration": "96i"
    },
    {
      "time": "97536i",
      "midiNote": 37,
      "noteName": "C#2",
      "velocity": 0.7559055118110236,
      "duration": "96i"
    },
    {
      "time": "97536i",
      "midiNote": 70,
      "noteName": "A#4",
      "velocity": 0.7559055118110236,
      "duration": "96i"
    },
    {
      "time": "97632i",
      "midiNote": 44,
      "noteName": "G#2",
      "velocity": 0.7559055118110236,
      "duration": "96i"
    },
    {
      "time": "97632i",
      "midiNote": 37,
      "noteName": "C#2",
      "velocity": 0.5039370078740157,
      "duration": "96i"
    },
    {
      "time": "97728i",
      "midiNote": 44,
      "noteName": "G#2",
      "velocity": 0.7559055118110236,
      "duration": "96i"
    },
    {
      "time": "97728i",
      "midiNote": 37,
      "noteName": "C#2",
      "velocity": 0.5039370078740157,
      "duration": "96i"
    },
    {
      "time": "97824i",
      "midiNote": 44,
      "noteName": "G#2",
      "velocity": 0.7559055118110236,
      "duration": "96i"
    },
    {
      "time": "97824i",
      "midiNote": 37,
      "noteName": "C#2",
      "velocity": 0.5039370078740157,
      "duration": "96i"
    },
    {
      "time": "97920i",
      "midiNote": 70,
      "noteName": "A#4",
      "velocity": 0.7559055118110236,
      "duration": "96i"
    },
    {
      "time": "97920i",
      "midiNote": 37,
      "noteName": "C#2",
      "velocity": 0.7559055118110236,
      "duration": "96i"
    },
    {
      "time": "98016i",
      "midiNote": 44,
      "noteName": "G#2",
      "velocity": 0.7559055118110236,
      "duration": "96i"
    },
    {
      "time": "98016i",
      "midiNote": 37,
      "noteName": "C#2",
      "velocity": 0.5039370078740157,
      "duration": "96i"
    },
    {
      "time": "98112i",
      "midiNote": 44,
      "noteName": "G#2",
      "velocity": 0.7559055118110236,
      "duration": "96i"
    },
    {
      "time": "98112i",
      "midiNote": 37,
      "noteName": "C#2",
      "velocity": 0.5039370078740157,
      "duration": "96i"
    },
    {
      "time": "98208i",
      "midiNote": 37,
      "noteName": "C#2",
      "velocity": 0.5039370078740157,
      "duration": "96i"
    },
    {
      "time": "98208i",
      "midiNote": 44,
      "noteName": "G#2",
      "velocity": 0.7559055118110236,
      "duration": "96i"
    },
    {
      "time": "98304i",
      "midiNote": 37,
      "noteName": "C#2",
      "velocity": 0.7559055118110236,
      "duration": "96i"
    },
    {
      "time": "98304i",
      "midiNote": 70,
      "noteName": "A#4",
      "velocity": 0.7559055118110236,
      "duration": "96i"
    },
    {
      "time": "98400i",
      "midiNote": 44,
      "noteName": "G#2",
      "velocity": 0.7559055118110236,
      "duration": "96i"
    },
    {
      "time": "98400i",
      "midiNote": 37,
      "noteName": "C#2",
      "velocity": 0.5039370078740157,
      "duration": "96i"
    },
    {
      "time": "98496i",
      "midiNote": 44,
      "noteName": "G#2",
      "velocity": 0.7559055118110236,
      "duration": "96i"
    },
    {
      "time": "98496i",
      "midiNote": 37,
      "noteName": "C#2",
      "velocity": 0.5039370078740157,
      "duration": "96i"
    },
    {
      "time": "98592i",
      "midiNote": 37,
      "noteName": "C#2",
      "velocity": 0.7559055118110236,
      "duration": "96i"
    },
    {
      "time": "98592i",
      "midiNote": 70,
      "noteName": "A#4",
      "velocity": 0.7559055118110236,
      "duration": "96i"
    },
    {
      "time": "98688i",
      "midiNote": 44,
      "noteName": "G#2",
      "velocity": 0.7559055118110236,
      "duration": "96i"
    },
    {
      "time": "98688i",
      "midiNote": 37,
      "noteName": "C#2",
      "velocity": 0.5039370078740157,
      "duration": "96i"
    },
    {
      "time": "98784i",
      "midiNote": 44,
      "noteName": "G#2",
      "velocity": 0.7559055118110236,
      "duration": "96i"
    },
    {
      "time": "98784i",
      "midiNote": 37,
      "noteName": "C#2",
      "velocity": 0.5039370078740157,
      "duration": "96i"
    },
    {
      "time": "98880i",
      "midiNote": 37,
      "noteName": "C#2",
      "velocity": 0.7559055118110236,
      "duration": "96i"
    },
    {
      "time": "98880i",
      "midiNote": 70,
      "noteName": "A#4",
      "velocity": 0.7559055118110236,
      "duration": "96i"
    },
    {
      "time": "98976i",
      "midiNote": 44,
      "noteName": "G#2",
      "velocity": 0.7559055118110236,
      "duration": "96i"
    },
    {
      "time": "98976i",
      "midiNote": 37,
      "noteName": "C#2",
      "velocity": 0.5039370078740157,
      "duration": "96i"
    },
    {
      "time": "99072i",
      "midiNote": 37,
      "noteName": "C#2",
      "velocity": 0.7559055118110236,
      "duration": "96i"
    },
    {
      "time": "99072i",
      "midiNote": 70,
      "noteName": "A#4",
      "velocity": 0.7559055118110236,
      "duration": "96i"
    },
    {
      "time": "99168i",
      "midiNote": 44,
      "noteName": "G#2",
      "velocity": 0.7559055118110236,
      "duration": "96i"
    },
    {
      "time": "99168i",
      "midiNote": 37,
      "noteName": "C#2",
      "velocity": 0.5039370078740157,
      "duration": "96i"
    },
    {
      "time": "99264i",
      "midiNote": 44,
      "noteName": "G#2",
      "velocity": 0.7559055118110236,
      "duration": "96i"
    },
    {
      "time": "99264i",
      "midiNote": 37,
      "noteName": "C#2",
      "velocity": 0.5039370078740157,
      "duration": "96i"
    },
    {
      "time": "99360i",
      "midiNote": 44,
      "noteName": "G#2",
      "velocity": 0.7559055118110236,
      "duration": "96i"
    },
    {
      "time": "99360i",
      "midiNote": 37,
      "noteName": "C#2",
      "velocity": 0.5039370078740157,
      "duration": "96i"
    },
    {
      "time": "99456i",
      "midiNote": 70,
      "noteName": "A#4",
      "velocity": 0.7559055118110236,
      "duration": "96i"
    },
    {
      "time": "99456i",
      "midiNote": 37,
      "noteName": "C#2",
      "velocity": 0.7559055118110236,
      "duration": "96i"
    },
    {
      "time": "99552i",
      "midiNote": 44,
      "noteName": "G#2",
      "velocity": 0.7559055118110236,
      "duration": "96i"
    },
    {
      "time": "99552i",
      "midiNote": 37,
      "noteName": "C#2",
      "velocity": 0.5039370078740157,
      "duration": "96i"
    },
    {
      "time": "99648i",
      "midiNote": 44,
      "noteName": "G#2",
      "velocity": 0.7559055118110236,
      "duration": "96i"
    },
    {
      "time": "99648i",
      "midiNote": 37,
      "noteName": "C#2",
      "velocity": 0.5039370078740157,
      "duration": "96i"
    },
    {
      "time": "99744i",
      "midiNote": 37,
      "noteName": "C#2",
      "velocity": 0.5039370078740157,
      "duration": "96i"
    },
    {
      "time": "99744i",
      "midiNote": 44,
      "noteName": "G#2",
      "velocity": 0.7559055118110236,
      "duration": "96i"
    },
    {
      "time": "99840i",
      "midiNote": 37,
      "noteName": "C#2",
      "velocity": 0.7559055118110236,
      "duration": "96i"
    },
    {
      "time": "99840i",
      "midiNote": 70,
      "noteName": "A#4",
      "velocity": 0.7559055118110236,
      "duration": "96i"
    },
    {
      "time": "99936i",
      "midiNote": 44,
      "noteName": "G#2",
      "velocity": 0.7559055118110236,
      "duration": "96i"
    },
    {
      "time": "99936i",
      "midiNote": 37,
      "noteName": "C#2",
      "velocity": 0.5039370078740157,
      "duration": "96i"
    },
    {
      "time": "100032i",
      "midiNote": 44,
      "noteName": "G#2",
      "velocity": 0.7559055118110236,
      "duration": "96i"
    },
    {
      "time": "100032i",
      "midiNote": 37,
      "noteName": "C#2",
      "velocity": 0.5039370078740157,
      "duration": "96i"
    },
    {
      "time": "100128i",
      "midiNote": 37,
      "noteName": "C#2",
      "velocity": 0.7559055118110236,
      "duration": "96i"
    },
    {
      "time": "100128i",
      "midiNote": 70,
      "noteName": "A#4",
      "velocity": 0.7559055118110236,
      "duration": "96i"
    },
    {
      "time": "100224i",
      "midiNote": 44,
      "noteName": "G#2",
      "velocity": 0.7559055118110236,
      "duration": "96i"
    },
    {
      "time": "100224i",
      "midiNote": 37,
      "noteName": "C#2",
      "velocity": 0.5039370078740157,
      "duration": "96i"
    },
    {
      "time": "100320i",
      "midiNote": 44,
      "noteName": "G#2",
      "velocity": 0.7559055118110236,
      "duration": "96i"
    },
    {
      "time": "100320i",
      "midiNote": 37,
      "noteName": "C#2",
      "velocity": 0.5039370078740157,
      "duration": "96i"
    },
    {
      "time": "100416i",
      "midiNote": 37,
      "noteName": "C#2",
      "velocity": 0.7559055118110236,
      "duration": "96i"
    },
    {
      "time": "100416i",
      "midiNote": 70,
      "noteName": "A#4",
      "velocity": 0.7559055118110236,
      "duration": "96i"
    },
    {
      "time": "100512i",
      "midiNote": 44,
      "noteName": "G#2",
      "velocity": 0.7559055118110236,
      "duration": "96i"
    },
    {
      "time": "100512i",
      "midiNote": 37,
      "noteName": "C#2",
      "velocity": 0.5039370078740157,
      "duration": "96i"
    },
    {
      "time": "100608i",
      "midiNote": 37,
      "noteName": "C#2",
      "velocity": 0.7559055118110236,
      "duration": "96i"
    },
    {
      "time": "100608i",
      "midiNote": 70,
      "noteName": "A#4",
      "velocity": 0.7559055118110236,
      "duration": "96i"
    },
    {
      "time": "100704i",
      "midiNote": 44,
      "noteName": "G#2",
      "velocity": 0.7559055118110236,
      "duration": "96i"
    },
    {
      "time": "100704i",
      "midiNote": 37,
      "noteName": "C#2",
      "velocity": 0.5039370078740157,
      "duration": "96i"
    },
    {
      "time": "100800i",
      "midiNote": 44,
      "noteName": "G#2",
      "velocity": 0.7559055118110236,
      "duration": "96i"
    },
    {
      "time": "100800i",
      "midiNote": 37,
      "noteName": "C#2",
      "velocity": 0.5039370078740157,
      "duration": "96i"
    },
    {
      "time": "100896i",
      "midiNote": 44,
      "noteName": "G#2",
      "velocity": 0.7559055118110236,
      "duration": "96i"
    },
    {
      "time": "100896i",
      "midiNote": 37,
      "noteName": "C#2",
      "velocity": 0.5039370078740157,
      "duration": "96i"
    },
    {
      "time": "100992i",
      "midiNote": 70,
      "noteName": "A#4",
      "velocity": 0.7559055118110236,
      "duration": "96i"
    },
    {
      "time": "100992i",
      "midiNote": 37,
      "noteName": "C#2",
      "velocity": 0.7559055118110236,
      "duration": "96i"
    },
    {
      "time": "101088i",
      "midiNote": 44,
      "noteName": "G#2",
      "velocity": 0.7559055118110236,
      "duration": "96i"
    },
    {
      "time": "101088i",
      "midiNote": 37,
      "noteName": "C#2",
      "velocity": 0.5039370078740157,
      "duration": "96i"
    },
    {
      "time": "101184i",
      "midiNote": 44,
      "noteName": "G#2",
      "velocity": 0.7559055118110236,
      "duration": "96i"
    },
    {
      "time": "101184i",
      "midiNote": 37,
      "noteName": "C#2",
      "velocity": 0.5039370078740157,
      "duration": "96i"
    },
    {
      "time": "101280i",
      "midiNote": 37,
      "noteName": "C#2",
      "velocity": 0.5039370078740157,
      "duration": "96i"
    },
    {
      "time": "101280i",
      "midiNote": 44,
      "noteName": "G#2",
      "velocity": 0.7559055118110236,
      "duration": "96i"
    },
    {
      "time": "101376i",
      "midiNote": 37,
      "noteName": "C#2",
      "velocity": 0.7559055118110236,
      "duration": "96i"
    },
    {
      "time": "101376i",
      "midiNote": 70,
      "noteName": "A#4",
      "velocity": 0.7559055118110236,
      "duration": "96i"
    },
    {
      "time": "101472i",
      "midiNote": 44,
      "noteName": "G#2",
      "velocity": 0.7559055118110236,
      "duration": "96i"
    },
    {
      "time": "101472i",
      "midiNote": 37,
      "noteName": "C#2",
      "velocity": 0.5039370078740157,
      "duration": "96i"
    },
    {
      "time": "101568i",
      "midiNote": 44,
      "noteName": "G#2",
      "velocity": 0.7559055118110236,
      "duration": "96i"
    },
    {
      "time": "101568i",
      "midiNote": 37,
      "noteName": "C#2",
      "velocity": 0.5039370078740157,
      "duration": "96i"
    },
    {
      "time": "101664i",
      "midiNote": 37,
      "noteName": "C#2",
      "velocity": 0.7559055118110236,
      "duration": "96i"
    },
    {
      "time": "101664i",
      "midiNote": 70,
      "noteName": "A#4",
      "velocity": 0.7559055118110236,
      "duration": "96i"
    },
    {
      "time": "101760i",
      "midiNote": 44,
      "noteName": "G#2",
      "velocity": 0.7559055118110236,
      "duration": "96i"
    },
    {
      "time": "101760i",
      "midiNote": 37,
      "noteName": "C#2",
      "velocity": 0.5039370078740157,
      "duration": "96i"
    },
    {
      "time": "101856i",
      "midiNote": 44,
      "noteName": "G#2",
      "velocity": 0.7559055118110236,
      "duration": "96i"
    },
    {
      "time": "101856i",
      "midiNote": 37,
      "noteName": "C#2",
      "velocity": 0.5039370078740157,
      "duration": "96i"
    },
    {
      "time": "101952i",
      "midiNote": 37,
      "noteName": "C#2",
      "velocity": 0.7559055118110236,
      "duration": "96i"
    },
    {
      "time": "101952i",
      "midiNote": 70,
      "noteName": "A#4",
      "velocity": 0.7559055118110236,
      "duration": "96i"
    },
    {
      "time": "102048i",
      "midiNote": 44,
      "noteName": "G#2",
      "velocity": 0.7559055118110236,
      "duration": "96i"
    },
    {
      "time": "102048i",
      "midiNote": 37,
      "noteName": "C#2",
      "velocity": 0.5039370078740157,
      "duration": "96i"
    },
    {
      "time": "102144i",
      "midiNote": 37,
      "noteName": "C#2",
      "velocity": 0.7559055118110236,
      "duration": "96i"
    },
    {
      "time": "102144i",
      "midiNote": 70,
      "noteName": "A#4",
      "velocity": 0.7559055118110236,
      "duration": "96i"
    },
    {
      "time": "102240i",
      "midiNote": 44,
      "noteName": "G#2",
      "velocity": 0.7559055118110236,
      "duration": "96i"
    },
    {
      "time": "102240i",
      "midiNote": 37,
      "noteName": "C#2",
      "velocity": 0.5039370078740157,
      "duration": "96i"
    },
    {
      "time": "102336i",
      "midiNote": 44,
      "noteName": "G#2",
      "velocity": 0.7559055118110236,
      "duration": "96i"
    },
    {
      "time": "102336i",
      "midiNote": 37,
      "noteName": "C#2",
      "velocity": 0.5039370078740157,
      "duration": "96i"
    },
    {
      "time": "102432i",
      "midiNote": 44,
      "noteName": "G#2",
      "velocity": 0.7559055118110236,
      "duration": "96i"
    },
    {
      "time": "102432i",
      "midiNote": 37,
      "noteName": "C#2",
      "velocity": 0.5039370078740157,
      "duration": "96i"
    },
    {
      "time": "102528i",
      "midiNote": 70,
      "noteName": "A#4",
      "velocity": 0.7559055118110236,
      "duration": "96i"
    },
    {
      "time": "102528i",
      "midiNote": 37,
      "noteName": "C#2",
      "velocity": 0.7559055118110236,
      "duration": "96i"
    },
    {
      "time": "102624i",
      "midiNote": 44,
      "noteName": "G#2",
      "velocity": 0.7559055118110236,
      "duration": "96i"
    },
    {
      "time": "102624i",
      "midiNote": 37,
      "noteName": "C#2",
      "velocity": 0.5039370078740157,
      "duration": "96i"
    },
    {
      "time": "102720i",
      "midiNote": 44,
      "noteName": "G#2",
      "velocity": 0.7559055118110236,
      "duration": "96i"
    },
    {
      "time": "102720i",
      "midiNote": 37,
      "noteName": "C#2",
      "velocity": 0.5039370078740157,
      "duration": "96i"
    },
    {
      "time": "102816i",
      "midiNote": 37,
      "noteName": "C#2",
      "velocity": 0.5039370078740157,
      "duration": "96i"
    },
    {
      "time": "102816i",
      "midiNote": 44,
      "noteName": "G#2",
      "velocity": 0.7559055118110236,
      "duration": "96i"
    },
    {
      "time": "102912i",
      "midiNote": 37,
      "noteName": "C#2",
      "velocity": 0.7559055118110236,
      "duration": "96i"
    },
    {
      "time": "102912i",
      "midiNote": 70,
      "noteName": "A#4",
      "velocity": 0.7559055118110236,
      "duration": "96i"
    },
    {
      "time": "103008i",
      "midiNote": 44,
      "noteName": "G#2",
      "velocity": 0.7559055118110236,
      "duration": "96i"
    },
    {
      "time": "103008i",
      "midiNote": 37,
      "noteName": "C#2",
      "velocity": 0.5039370078740157,
      "duration": "96i"
    },
    {
      "time": "103104i",
      "midiNote": 44,
      "noteName": "G#2",
      "velocity": 0.7559055118110236,
      "duration": "96i"
    },
    {
      "time": "103104i",
      "midiNote": 37,
      "noteName": "C#2",
      "velocity": 0.5039370078740157,
      "duration": "96i"
    },
    {
      "time": "103200i",
      "midiNote": 37,
      "noteName": "C#2",
      "velocity": 0.7559055118110236,
      "duration": "96i"
    },
    {
      "time": "103200i",
      "midiNote": 70,
      "noteName": "A#4",
      "velocity": 0.7559055118110236,
      "duration": "96i"
    },
    {
      "time": "103296i",
      "midiNote": 44,
      "noteName": "G#2",
      "velocity": 0.7559055118110236,
      "duration": "96i"
    },
    {
      "time": "103296i",
      "midiNote": 37,
      "noteName": "C#2",
      "velocity": 0.5039370078740157,
      "duration": "96i"
    },
    {
      "time": "103392i",
      "midiNote": 44,
      "noteName": "G#2",
      "velocity": 0.7559055118110236,
      "duration": "96i"
    },
    {
      "time": "103392i",
      "midiNote": 37,
      "noteName": "C#2",
      "velocity": 0.5039370078740157,
      "duration": "96i"
    },
    {
      "time": "103488i",
      "midiNote": 37,
      "noteName": "C#2",
      "velocity": 0.7559055118110236,
      "duration": "96i"
    },
    {
      "time": "103488i",
      "midiNote": 70,
      "noteName": "A#4",
      "velocity": 0.7559055118110236,
      "duration": "96i"
    },
    {
      "time": "103584i",
      "midiNote": 44,
      "noteName": "G#2",
      "velocity": 0.7559055118110236,
      "duration": "96i"
    },
    {
      "time": "103584i",
      "midiNote": 37,
      "noteName": "C#2",
      "velocity": 0.5039370078740157,
      "duration": "96i"
    },
    {
      "time": "103680i",
      "midiNote": 37,
      "noteName": "C#2",
      "velocity": 0.7559055118110236,
      "duration": "96i"
    },
    {
      "time": "103680i",
      "midiNote": 70,
      "noteName": "A#4",
      "velocity": 0.7559055118110236,
      "duration": "96i"
    },
    {
      "time": "103776i",
      "midiNote": 44,
      "noteName": "G#2",
      "velocity": 0.7559055118110236,
      "duration": "96i"
    },
    {
      "time": "103776i",
      "midiNote": 37,
      "noteName": "C#2",
      "velocity": 0.5039370078740157,
      "duration": "96i"
    },
    {
      "time": "103872i",
      "midiNote": 44,
      "noteName": "G#2",
      "velocity": 0.7559055118110236,
      "duration": "96i"
    },
    {
      "time": "103872i",
      "midiNote": 37,
      "noteName": "C#2",
      "velocity": 0.5039370078740157,
      "duration": "96i"
    },
    {
      "time": "103968i",
      "midiNote": 44,
      "noteName": "G#2",
      "velocity": 0.7559055118110236,
      "duration": "96i"
    },
    {
      "time": "103968i",
      "midiNote": 37,
      "noteName": "C#2",
      "velocity": 0.5039370078740157,
      "duration": "96i"
    },
    {
      "time": "104064i",
      "midiNote": 70,
      "noteName": "A#4",
      "velocity": 0.7559055118110236,
      "duration": "96i"
    },
    {
      "time": "104064i",
      "midiNote": 37,
      "noteName": "C#2",
      "velocity": 0.7559055118110236,
      "duration": "96i"
    },
    {
      "time": "104160i",
      "midiNote": 44,
      "noteName": "G#2",
      "velocity": 0.7559055118110236,
      "duration": "96i"
    },
    {
      "time": "104160i",
      "midiNote": 37,
      "noteName": "C#2",
      "velocity": 0.5039370078740157,
      "duration": "96i"
    },
    {
      "time": "104256i",
      "midiNote": 44,
      "noteName": "G#2",
      "velocity": 0.7559055118110236,
      "duration": "96i"
    },
    {
      "time": "104256i",
      "midiNote": 37,
      "noteName": "C#2",
      "velocity": 0.5039370078740157,
      "duration": "96i"
    },
    {
      "time": "104352i",
      "midiNote": 37,
      "noteName": "C#2",
      "velocity": 0.5039370078740157,
      "duration": "96i"
    },
    {
      "time": "104352i",
      "midiNote": 44,
      "noteName": "G#2",
      "velocity": 0.7559055118110236,
      "duration": "96i"
    },
    {
      "time": "104448i",
      "midiNote": 37,
      "noteName": "C#2",
      "velocity": 0.7559055118110236,
      "duration": "96i"
    },
    {
      "time": "104448i",
      "midiNote": 70,
      "noteName": "A#4",
      "velocity": 0.7559055118110236,
      "duration": "96i"
    },
    {
      "time": "104544i",
      "midiNote": 44,
      "noteName": "G#2",
      "velocity": 0.7559055118110236,
      "duration": "96i"
    },
    {
      "time": "104544i",
      "midiNote": 37,
      "noteName": "C#2",
      "velocity": 0.5039370078740157,
      "duration": "96i"
    },
    {
      "time": "104640i",
      "midiNote": 44,
      "noteName": "G#2",
      "velocity": 0.7559055118110236,
      "duration": "96i"
    },
    {
      "time": "104640i",
      "midiNote": 37,
      "noteName": "C#2",
      "velocity": 0.5039370078740157,
      "duration": "96i"
    },
    {
      "time": "104736i",
      "midiNote": 37,
      "noteName": "C#2",
      "velocity": 0.7559055118110236,
      "duration": "96i"
    },
    {
      "time": "104736i",
      "midiNote": 70,
      "noteName": "A#4",
      "velocity": 0.7559055118110236,
      "duration": "96i"
    },
    {
      "time": "104832i",
      "midiNote": 44,
      "noteName": "G#2",
      "velocity": 0.7559055118110236,
      "duration": "96i"
    },
    {
      "time": "104832i",
      "midiNote": 37,
      "noteName": "C#2",
      "velocity": 0.5039370078740157,
      "duration": "96i"
    },
    {
      "time": "104928i",
      "midiNote": 44,
      "noteName": "G#2",
      "velocity": 0.7559055118110236,
      "duration": "96i"
    },
    {
      "time": "104928i",
      "midiNote": 37,
      "noteName": "C#2",
      "velocity": 0.5039370078740157,
      "duration": "96i"
    },
    {
      "time": "105024i",
      "midiNote": 37,
      "noteName": "C#2",
      "velocity": 0.7559055118110236,
      "duration": "96i"
    },
    {
      "time": "105024i",
      "midiNote": 70,
      "noteName": "A#4",
      "velocity": 0.7559055118110236,
      "duration": "96i"
    },
    {
      "time": "105120i",
      "midiNote": 44,
      "noteName": "G#2",
      "velocity": 0.7559055118110236,
      "duration": "96i"
    },
    {
      "time": "105120i",
      "midiNote": 37,
      "noteName": "C#2",
      "velocity": 0.5039370078740157,
      "duration": "96i"
    },
    {
      "time": "105216i",
      "midiNote": 37,
      "noteName": "C#2",
      "velocity": 0.7559055118110236,
      "duration": "96i"
    },
    {
      "time": "105216i",
      "midiNote": 70,
      "noteName": "A#4",
      "velocity": 0.7559055118110236,
      "duration": "96i"
    },
    {
      "time": "105312i",
      "midiNote": 44,
      "noteName": "G#2",
      "velocity": 0.7559055118110236,
      "duration": "96i"
    },
    {
      "time": "105312i",
      "midiNote": 37,
      "noteName": "C#2",
      "velocity": 0.5039370078740157,
      "duration": "96i"
    },
    {
      "time": "105408i",
      "midiNote": 44,
      "noteName": "G#2",
      "velocity": 0.7559055118110236,
      "duration": "96i"
    },
    {
      "time": "105408i",
      "midiNote": 37,
      "noteName": "C#2",
      "velocity": 0.5039370078740157,
      "duration": "96i"
    },
    {
      "time": "105504i",
      "midiNote": 44,
      "noteName": "G#2",
      "velocity": 0.7559055118110236,
      "duration": "96i"
    },
    {
      "time": "105504i",
      "midiNote": 37,
      "noteName": "C#2",
      "velocity": 0.5039370078740157,
      "duration": "96i"
    },
    {
      "time": "105600i",
      "midiNote": 70,
      "noteName": "A#4",
      "velocity": 0.7559055118110236,
      "duration": "96i"
    },
    {
      "time": "105600i",
      "midiNote": 37,
      "noteName": "C#2",
      "velocity": 0.7559055118110236,
      "duration": "96i"
    },
    {
      "time": "105696i",
      "midiNote": 44,
      "noteName": "G#2",
      "velocity": 0.7559055118110236,
      "duration": "96i"
    },
    {
      "time": "105696i",
      "midiNote": 37,
      "noteName": "C#2",
      "velocity": 0.5039370078740157,
      "duration": "96i"
    },
    {
      "time": "105792i",
      "midiNote": 44,
      "noteName": "G#2",
      "velocity": 0.7559055118110236,
      "duration": "96i"
    },
    {
      "time": "105792i",
      "midiNote": 37,
      "noteName": "C#2",
      "velocity": 0.5039370078740157,
      "duration": "96i"
    },
    {
      "time": "105888i",
      "midiNote": 37,
      "noteName": "C#2",
      "velocity": 0.5039370078740157,
      "duration": "96i"
    },
    {
      "time": "105888i",
      "midiNote": 44,
      "noteName": "G#2",
      "velocity": 0.7559055118110236,
      "duration": "96i"
    },
    {
      "time": "105984i",
      "midiNote": 37,
      "noteName": "C#2",
      "velocity": 0.7559055118110236,
      "duration": "96i"
    },
    {
      "time": "105984i",
      "midiNote": 70,
      "noteName": "A#4",
      "velocity": 0.7559055118110236,
      "duration": "96i"
    },
    {
      "time": "106080i",
      "midiNote": 44,
      "noteName": "G#2",
      "velocity": 0.7559055118110236,
      "duration": "96i"
    },
    {
      "time": "106080i",
      "midiNote": 37,
      "noteName": "C#2",
      "velocity": 0.5039370078740157,
      "duration": "96i"
    },
    {
      "time": "106176i",
      "midiNote": 44,
      "noteName": "G#2",
      "velocity": 0.7559055118110236,
      "duration": "96i"
    },
    {
      "time": "106176i",
      "midiNote": 37,
      "noteName": "C#2",
      "velocity": 0.5039370078740157,
      "duration": "96i"
    },
    {
      "time": "106272i",
      "midiNote": 37,
      "noteName": "C#2",
      "velocity": 0.7559055118110236,
      "duration": "96i"
    },
    {
      "time": "106272i",
      "midiNote": 70,
      "noteName": "A#4",
      "velocity": 0.7559055118110236,
      "duration": "96i"
    },
    {
      "time": "106368i",
      "midiNote": 44,
      "noteName": "G#2",
      "velocity": 0.7559055118110236,
      "duration": "96i"
    },
    {
      "time": "106368i",
      "midiNote": 37,
      "noteName": "C#2",
      "velocity": 0.5039370078740157,
      "duration": "96i"
    },
    {
      "time": "106464i",
      "midiNote": 44,
      "noteName": "G#2",
      "velocity": 0.7559055118110236,
      "duration": "96i"
    },
    {
      "time": "106464i",
      "midiNote": 37,
      "noteName": "C#2",
      "velocity": 0.5039370078740157,
      "duration": "96i"
    },
    {
      "time": "106560i",
      "midiNote": 37,
      "noteName": "C#2",
      "velocity": 0.7559055118110236,
      "duration": "96i"
    },
    {
      "time": "106560i",
      "midiNote": 70,
      "noteName": "A#4",
      "velocity": 0.7559055118110236,
      "duration": "96i"
    },
    {
      "time": "106656i",
      "midiNote": 44,
      "noteName": "G#2",
      "velocity": 0.7559055118110236,
      "duration": "96i"
    },
    {
      "time": "106656i",
      "midiNote": 37,
      "noteName": "C#2",
      "velocity": 0.5039370078740157,
      "duration": "96i"
    },
    {
      "time": "106752i",
      "midiNote": 37,
      "noteName": "C#2",
      "velocity": 0.7559055118110236,
      "duration": "96i"
    },
    {
      "time": "106752i",
      "midiNote": 70,
      "noteName": "A#4",
      "velocity": 0.7559055118110236,
      "duration": "96i"
    },
    {
      "time": "106848i",
      "midiNote": 44,
      "noteName": "G#2",
      "velocity": 0.7559055118110236,
      "duration": "96i"
    },
    {
      "time": "106848i",
      "midiNote": 37,
      "noteName": "C#2",
      "velocity": 0.5039370078740157,
      "duration": "96i"
    },
    {
      "time": "106944i",
      "midiNote": 44,
      "noteName": "G#2",
      "velocity": 0.7559055118110236,
      "duration": "96i"
    },
    {
      "time": "106944i",
      "midiNote": 37,
      "noteName": "C#2",
      "velocity": 0.5039370078740157,
      "duration": "96i"
    },
    {
      "time": "107040i",
      "midiNote": 44,
      "noteName": "G#2",
      "velocity": 0.7559055118110236,
      "duration": "96i"
    },
    {
      "time": "107040i",
      "midiNote": 37,
      "noteName": "C#2",
      "velocity": 0.5039370078740157,
      "duration": "96i"
    },
    {
      "time": "107136i",
      "midiNote": 70,
      "noteName": "A#4",
      "velocity": 0.7559055118110236,
      "duration": "96i"
    },
    {
      "time": "107136i",
      "midiNote": 37,
      "noteName": "C#2",
      "velocity": 0.7559055118110236,
      "duration": "96i"
    },
    {
      "time": "107232i",
      "midiNote": 44,
      "noteName": "G#2",
      "velocity": 0.7559055118110236,
      "duration": "96i"
    },
    {
      "time": "107232i",
      "midiNote": 37,
      "noteName": "C#2",
      "velocity": 0.5039370078740157,
      "duration": "96i"
    },
    {
      "time": "107328i",
      "midiNote": 44,
      "noteName": "G#2",
      "velocity": 0.7559055118110236,
      "duration": "96i"
    },
    {
      "time": "107328i",
      "midiNote": 37,
      "noteName": "C#2",
      "velocity": 0.5039370078740157,
      "duration": "96i"
    },
    {
      "time": "107424i",
      "midiNote": 37,
      "noteName": "C#2",
      "velocity": 0.5039370078740157,
      "duration": "96i"
    },
    {
      "time": "107424i",
      "midiNote": 44,
      "noteName": "G#2",
      "velocity": 0.7559055118110236,
      "duration": "96i"
    },
    {
      "time": "107520i",
      "midiNote": 37,
      "noteName": "C#2",
      "velocity": 0.7559055118110236,
      "duration": "96i"
    },
    {
      "time": "107520i",
      "midiNote": 70,
      "noteName": "A#4",
      "velocity": 0.7559055118110236,
      "duration": "96i"
    },
    {
      "time": "107616i",
      "midiNote": 44,
      "noteName": "G#2",
      "velocity": 0.7559055118110236,
      "duration": "96i"
    },
    {
      "time": "107616i",
      "midiNote": 37,
      "noteName": "C#2",
      "velocity": 0.5039370078740157,
      "duration": "96i"
    },
    {
      "time": "107712i",
      "midiNote": 44,
      "noteName": "G#2",
      "velocity": 0.7559055118110236,
      "duration": "96i"
    },
    {
      "time": "107712i",
      "midiNote": 37,
      "noteName": "C#2",
      "velocity": 0.5039370078740157,
      "duration": "96i"
    },
    {
      "time": "107808i",
      "midiNote": 37,
      "noteName": "C#2",
      "velocity": 0.7559055118110236,
      "duration": "96i"
    },
    {
      "time": "107808i",
      "midiNote": 70,
      "noteName": "A#4",
      "velocity": 0.7559055118110236,
      "duration": "96i"
    },
    {
      "time": "107904i",
      "midiNote": 44,
      "noteName": "G#2",
      "velocity": 0.7559055118110236,
      "duration": "96i"
    },
    {
      "time": "107904i",
      "midiNote": 37,
      "noteName": "C#2",
      "velocity": 0.5039370078740157,
      "duration": "96i"
    },
    {
      "time": "108000i",
      "midiNote": 44,
      "noteName": "G#2",
      "velocity": 0.7559055118110236,
      "duration": "96i"
    },
    {
      "time": "108000i",
      "midiNote": 37,
      "noteName": "C#2",
      "velocity": 0.5039370078740157,
      "duration": "96i"
    },
    {
      "time": "108096i",
      "midiNote": 37,
      "noteName": "C#2",
      "velocity": 0.7559055118110236,
      "duration": "96i"
    },
    {
      "time": "108096i",
      "midiNote": 70,
      "noteName": "A#4",
      "velocity": 0.7559055118110236,
      "duration": "96i"
    },
    {
      "time": "108192i",
      "midiNote": 44,
      "noteName": "G#2",
      "velocity": 0.7559055118110236,
      "duration": "96i"
    },
    {
      "time": "108192i",
      "midiNote": 37,
      "noteName": "C#2",
      "velocity": 0.5039370078740157,
      "duration": "96i"
    },
    {
      "time": "108288i",
      "midiNote": 37,
      "noteName": "C#2",
      "velocity": 0.7559055118110236,
      "duration": "96i"
    },
    {
      "time": "108288i",
      "midiNote": 70,
      "noteName": "A#4",
      "velocity": 0.7559055118110236,
      "duration": "96i"
    },
    {
      "time": "108384i",
      "midiNote": 44,
      "noteName": "G#2",
      "velocity": 0.7559055118110236,
      "duration": "96i"
    },
    {
      "time": "108384i",
      "midiNote": 37,
      "noteName": "C#2",
      "velocity": 0.5039370078740157,
      "duration": "96i"
    },
    {
      "time": "108480i",
      "midiNote": 44,
      "noteName": "G#2",
      "velocity": 0.7559055118110236,
      "duration": "96i"
    },
    {
      "time": "108480i",
      "midiNote": 37,
      "noteName": "C#2",
      "velocity": 0.5039370078740157,
      "duration": "96i"
    },
    {
      "time": "108576i",
      "midiNote": 44,
      "noteName": "G#2",
      "velocity": 0.7559055118110236,
      "duration": "96i"
    },
    {
      "time": "108576i",
      "midiNote": 37,
      "noteName": "C#2",
      "velocity": 0.5039370078740157,
      "duration": "96i"
    },
    {
      "time": "108672i",
      "midiNote": 70,
      "noteName": "A#4",
      "velocity": 0.7559055118110236,
      "duration": "96i"
    },
    {
      "time": "108672i",
      "midiNote": 37,
      "noteName": "C#2",
      "velocity": 0.7559055118110236,
      "duration": "96i"
    },
    {
      "time": "108768i",
      "midiNote": 44,
      "noteName": "G#2",
      "velocity": 0.7559055118110236,
      "duration": "96i"
    },
    {
      "time": "108768i",
      "midiNote": 37,
      "noteName": "C#2",
      "velocity": 0.5039370078740157,
      "duration": "96i"
    },
    {
      "time": "108864i",
      "midiNote": 44,
      "noteName": "G#2",
      "velocity": 0.7559055118110236,
      "duration": "96i"
    },
    {
      "time": "108864i",
      "midiNote": 37,
      "noteName": "C#2",
      "velocity": 0.5039370078740157,
      "duration": "96i"
    },
    {
      "time": "108960i",
      "midiNote": 37,
      "noteName": "C#2",
      "velocity": 0.5039370078740157,
      "duration": "96i"
    },
    {
      "time": "108960i",
      "midiNote": 44,
      "noteName": "G#2",
      "velocity": 0.7559055118110236,
      "duration": "96i"
    },
    {
      "time": "109056i",
      "midiNote": 37,
      "noteName": "C#2",
      "velocity": 0.7559055118110236,
      "duration": "96i"
    },
    {
      "time": "109056i",
      "midiNote": 70,
      "noteName": "A#4",
      "velocity": 0.7559055118110236,
      "duration": "96i"
    },
    {
      "time": "109152i",
      "midiNote": 44,
      "noteName": "G#2",
      "velocity": 0.7559055118110236,
      "duration": "96i"
    },
    {
      "time": "109152i",
      "midiNote": 37,
      "noteName": "C#2",
      "velocity": 0.5039370078740157,
      "duration": "96i"
    },
    {
      "time": "109248i",
      "midiNote": 44,
      "noteName": "G#2",
      "velocity": 0.7559055118110236,
      "duration": "96i"
    },
    {
      "time": "109248i",
      "midiNote": 37,
      "noteName": "C#2",
      "velocity": 0.5039370078740157,
      "duration": "96i"
    },
    {
      "time": "109344i",
      "midiNote": 37,
      "noteName": "C#2",
      "velocity": 0.7559055118110236,
      "duration": "96i"
    },
    {
      "time": "109344i",
      "midiNote": 70,
      "noteName": "A#4",
      "velocity": 0.7559055118110236,
      "duration": "96i"
    },
    {
      "time": "109440i",
      "midiNote": 44,
      "noteName": "G#2",
      "velocity": 0.7559055118110236,
      "duration": "96i"
    },
    {
      "time": "109440i",
      "midiNote": 37,
      "noteName": "C#2",
      "velocity": 0.5039370078740157,
      "duration": "96i"
    },
    {
      "time": "109536i",
      "midiNote": 44,
      "noteName": "G#2",
      "velocity": 0.7559055118110236,
      "duration": "96i"
    },
    {
      "time": "109536i",
      "midiNote": 37,
      "noteName": "C#2",
      "velocity": 0.5039370078740157,
      "duration": "96i"
    },
    {
      "time": "109632i",
      "midiNote": 37,
      "noteName": "C#2",
      "velocity": 0.7559055118110236,
      "duration": "96i"
    },
    {
      "time": "109632i",
      "midiNote": 70,
      "noteName": "A#4",
      "velocity": 0.7559055118110236,
      "duration": "96i"
    },
    {
      "time": "109728i",
      "midiNote": 44,
      "noteName": "G#2",
      "velocity": 0.7559055118110236,
      "duration": "96i"
    },
    {
      "time": "109728i",
      "midiNote": 37,
      "noteName": "C#2",
      "velocity": 0.5039370078740157,
      "duration": "96i"
    },
    {
      "time": "109824i",
      "midiNote": 37,
      "noteName": "C#2",
      "velocity": 0.7559055118110236,
      "duration": "96i"
    },
    {
      "time": "109824i",
      "midiNote": 70,
      "noteName": "A#4",
      "velocity": 0.7559055118110236,
      "duration": "96i"
    },
    {
      "time": "109920i",
      "midiNote": 44,
      "noteName": "G#2",
      "velocity": 0.7559055118110236,
      "duration": "96i"
    },
    {
      "time": "109920i",
      "midiNote": 37,
      "noteName": "C#2",
      "velocity": 0.5039370078740157,
      "duration": "96i"
    },
    {
      "time": "110016i",
      "midiNote": 44,
      "noteName": "G#2",
      "velocity": 0.7559055118110236,
      "duration": "96i"
    },
    {
      "time": "110016i",
      "midiNote": 37,
      "noteName": "C#2",
      "velocity": 0.5039370078740157,
      "duration": "96i"
    },
    {
      "time": "110112i",
      "midiNote": 44,
      "noteName": "G#2",
      "velocity": 0.7559055118110236,
      "duration": "96i"
    },
    {
      "time": "110112i",
      "midiNote": 37,
      "noteName": "C#2",
      "velocity": 0.5039370078740157,
      "duration": "96i"
    },
    {
      "time": "110208i",
      "midiNote": 70,
      "noteName": "A#4",
      "velocity": 0.7559055118110236,
      "duration": "96i"
    },
    {
      "time": "110208i",
      "midiNote": 37,
      "noteName": "C#2",
      "velocity": 0.7559055118110236,
      "duration": "96i"
    },
    {
      "time": "110304i",
      "midiNote": 44,
      "noteName": "G#2",
      "velocity": 0.7559055118110236,
      "duration": "96i"
    },
    {
      "time": "110304i",
      "midiNote": 37,
      "noteName": "C#2",
      "velocity": 0.5039370078740157,
      "duration": "96i"
    },
    {
      "time": "110400i",
      "midiNote": 44,
      "noteName": "G#2",
      "velocity": 0.7559055118110236,
      "duration": "96i"
    },
    {
      "time": "110400i",
      "midiNote": 37,
      "noteName": "C#2",
      "velocity": 0.5039370078740157,
      "duration": "96i"
    },
    {
      "time": "110496i",
      "midiNote": 37,
      "noteName": "C#2",
      "velocity": 0.5039370078740157,
      "duration": "96i"
    },
    {
      "time": "110496i",
      "midiNote": 44,
      "noteName": "G#2",
      "velocity": 0.7559055118110236,
      "duration": "96i"
    },
    {
      "time": "110592i",
      "midiNote": 37,
      "noteName": "C#2",
      "velocity": 0.7559055118110236,
      "duration": "96i"
    },
    {
      "time": "110592i",
      "midiNote": 70,
      "noteName": "A#4",
      "velocity": 0.7559055118110236,
      "duration": "96i"
    },
    {
      "time": "110688i",
      "midiNote": 44,
      "noteName": "G#2",
      "velocity": 0.7559055118110236,
      "duration": "96i"
    },
    {
      "time": "110688i",
      "midiNote": 37,
      "noteName": "C#2",
      "velocity": 0.5039370078740157,
      "duration": "96i"
    },
    {
      "time": "110784i",
      "midiNote": 44,
      "noteName": "G#2",
      "velocity": 0.7559055118110236,
      "duration": "96i"
    },
    {
      "time": "110784i",
      "midiNote": 37,
      "noteName": "C#2",
      "velocity": 0.5039370078740157,
      "duration": "96i"
    },
    {
      "time": "110880i",
      "midiNote": 37,
      "noteName": "C#2",
      "velocity": 0.7559055118110236,
      "duration": "96i"
    },
    {
      "time": "110880i",
      "midiNote": 70,
      "noteName": "A#4",
      "velocity": 0.7559055118110236,
      "duration": "96i"
    },
    {
      "time": "110976i",
      "midiNote": 44,
      "noteName": "G#2",
      "velocity": 0.7559055118110236,
      "duration": "96i"
    },
    {
      "time": "110976i",
      "midiNote": 37,
      "noteName": "C#2",
      "velocity": 0.5039370078740157,
      "duration": "96i"
    },
    {
      "time": "111072i",
      "midiNote": 44,
      "noteName": "G#2",
      "velocity": 0.7559055118110236,
      "duration": "96i"
    },
    {
      "time": "111072i",
      "midiNote": 37,
      "noteName": "C#2",
      "velocity": 0.5039370078740157,
      "duration": "96i"
    },
    {
      "time": "111168i",
      "midiNote": 37,
      "noteName": "C#2",
      "velocity": 0.7559055118110236,
      "duration": "96i"
    },
    {
      "time": "111168i",
      "midiNote": 70,
      "noteName": "A#4",
      "velocity": 0.7559055118110236,
      "duration": "96i"
    },
    {
      "time": "111264i",
      "midiNote": 44,
      "noteName": "G#2",
      "velocity": 0.7559055118110236,
      "duration": "96i"
    },
    {
      "time": "111264i",
      "midiNote": 37,
      "noteName": "C#2",
      "velocity": 0.5039370078740157,
      "duration": "96i"
    },
    {
      "time": "111360i",
      "midiNote": 37,
      "noteName": "C#2",
      "velocity": 0.7559055118110236,
      "duration": "96i"
    },
    {
      "time": "111360i",
      "midiNote": 70,
      "noteName": "A#4",
      "velocity": 0.7559055118110236,
      "duration": "96i"
    },
    {
      "time": "111456i",
      "midiNote": 44,
      "noteName": "G#2",
      "velocity": 0.7559055118110236,
      "duration": "96i"
    },
    {
      "time": "111456i",
      "midiNote": 37,
      "noteName": "C#2",
      "velocity": 0.5039370078740157,
      "duration": "96i"
    },
    {
      "time": "111552i",
      "midiNote": 44,
      "noteName": "G#2",
      "velocity": 0.7559055118110236,
      "duration": "96i"
    },
    {
      "time": "111552i",
      "midiNote": 37,
      "noteName": "C#2",
      "velocity": 0.5039370078740157,
      "duration": "96i"
    },
    {
      "time": "111648i",
      "midiNote": 44,
      "noteName": "G#2",
      "velocity": 0.7559055118110236,
      "duration": "96i"
    },
    {
      "time": "111648i",
      "midiNote": 37,
      "noteName": "C#2",
      "velocity": 0.5039370078740157,
      "duration": "96i"
    },
    {
      "time": "111744i",
      "midiNote": 70,
      "noteName": "A#4",
      "velocity": 0.7559055118110236,
      "duration": "96i"
    },
    {
      "time": "111744i",
      "midiNote": 37,
      "noteName": "C#2",
      "velocity": 0.7559055118110236,
      "duration": "96i"
    },
    {
      "time": "111840i",
      "midiNote": 44,
      "noteName": "G#2",
      "velocity": 0.7559055118110236,
      "duration": "96i"
    },
    {
      "time": "111840i",
      "midiNote": 37,
      "noteName": "C#2",
      "velocity": 0.5039370078740157,
      "duration": "96i"
    },
    {
      "time": "111936i",
      "midiNote": 44,
      "noteName": "G#2",
      "velocity": 0.7559055118110236,
      "duration": "96i"
    },
    {
      "time": "111936i",
      "midiNote": 37,
      "noteName": "C#2",
      "velocity": 0.5039370078740157,
      "duration": "96i"
    },
    {
      "time": "112032i",
      "midiNote": 37,
      "noteName": "C#2",
      "velocity": 0.5039370078740157,
      "duration": "96i"
    },
    {
      "time": "112032i",
      "midiNote": 44,
      "noteName": "G#2",
      "velocity": 0.7559055118110236,
      "duration": "96i"
    },
    {
      "time": "112128i",
      "midiNote": 37,
      "noteName": "C#2",
      "velocity": 0.7559055118110236,
      "duration": "96i"
    },
    {
      "time": "112128i",
      "midiNote": 70,
      "noteName": "A#4",
      "velocity": 0.7559055118110236,
      "duration": "96i"
    },
    {
      "time": "112224i",
      "midiNote": 44,
      "noteName": "G#2",
      "velocity": 0.7559055118110236,
      "duration": "96i"
    },
    {
      "time": "112224i",
      "midiNote": 37,
      "noteName": "C#2",
      "velocity": 0.5039370078740157,
      "duration": "96i"
    },
    {
      "time": "112320i",
      "midiNote": 44,
      "noteName": "G#2",
      "velocity": 0.7559055118110236,
      "duration": "96i"
    },
    {
      "time": "112320i",
      "midiNote": 37,
      "noteName": "C#2",
      "velocity": 0.5039370078740157,
      "duration": "96i"
    },
    {
      "time": "112416i",
      "midiNote": 37,
      "noteName": "C#2",
      "velocity": 0.7559055118110236,
      "duration": "96i"
    },
    {
      "time": "112416i",
      "midiNote": 70,
      "noteName": "A#4",
      "velocity": 0.7559055118110236,
      "duration": "96i"
    },
    {
      "time": "112512i",
      "midiNote": 44,
      "noteName": "G#2",
      "velocity": 0.7559055118110236,
      "duration": "96i"
    },
    {
      "time": "112512i",
      "midiNote": 37,
      "noteName": "C#2",
      "velocity": 0.5039370078740157,
      "duration": "96i"
    },
    {
      "time": "112608i",
      "midiNote": 44,
      "noteName": "G#2",
      "velocity": 0.7559055118110236,
      "duration": "96i"
    },
    {
      "time": "112608i",
      "midiNote": 37,
      "noteName": "C#2",
      "velocity": 0.5039370078740157,
      "duration": "96i"
    },
    {
      "time": "112704i",
      "midiNote": 37,
      "noteName": "C#2",
      "velocity": 0.7559055118110236,
      "duration": "96i"
    },
    {
      "time": "112704i",
      "midiNote": 70,
      "noteName": "A#4",
      "velocity": 0.7559055118110236,
      "duration": "96i"
    },
    {
      "time": "112800i",
      "midiNote": 44,
      "noteName": "G#2",
      "velocity": 0.7559055118110236,
      "duration": "96i"
    },
    {
      "time": "112800i",
      "midiNote": 37,
      "noteName": "C#2",
      "velocity": 0.5039370078740157,
      "duration": "96i"
    },
    {
      "time": "112896i",
      "midiNote": 37,
      "noteName": "C#2",
      "velocity": 0.7559055118110236,
      "duration": "96i"
    },
    {
      "time": "112896i",
      "midiNote": 70,
      "noteName": "A#4",
      "velocity": 0.7559055118110236,
      "duration": "96i"
    },
    {
      "time": "112992i",
      "midiNote": 44,
      "noteName": "G#2",
      "velocity": 0.7559055118110236,
      "duration": "96i"
    },
    {
      "time": "112992i",
      "midiNote": 37,
      "noteName": "C#2",
      "velocity": 0.5039370078740157,
      "duration": "96i"
    },
    {
      "time": "113088i",
      "midiNote": 44,
      "noteName": "G#2",
      "velocity": 0.7559055118110236,
      "duration": "96i"
    },
    {
      "time": "113088i",
      "midiNote": 37,
      "noteName": "C#2",
      "velocity": 0.5039370078740157,
      "duration": "96i"
    },
    {
      "time": "113184i",
      "midiNote": 44,
      "noteName": "G#2",
      "velocity": 0.7559055118110236,
      "duration": "96i"
    },
    {
      "time": "113184i",
      "midiNote": 37,
      "noteName": "C#2",
      "velocity": 0.5039370078740157,
      "duration": "96i"
    },
    {
      "time": "113280i",
      "midiNote": 70,
      "noteName": "A#4",
      "velocity": 0.7559055118110236,
      "duration": "96i"
    },
    {
      "time": "113280i",
      "midiNote": 37,
      "noteName": "C#2",
      "velocity": 0.7559055118110236,
      "duration": "96i"
    },
    {
      "time": "113376i",
      "midiNote": 44,
      "noteName": "G#2",
      "velocity": 0.7559055118110236,
      "duration": "96i"
    },
    {
      "time": "113376i",
      "midiNote": 37,
      "noteName": "C#2",
      "velocity": 0.5039370078740157,
      "duration": "96i"
    },
    {
      "time": "113472i",
      "midiNote": 44,
      "noteName": "G#2",
      "velocity": 0.7559055118110236,
      "duration": "96i"
    },
    {
      "time": "113472i",
      "midiNote": 37,
      "noteName": "C#2",
      "velocity": 0.5039370078740157,
      "duration": "96i"
    },
    {
      "time": "113568i",
      "midiNote": 37,
      "noteName": "C#2",
      "velocity": 0.5039370078740157,
      "duration": "96i"
    },
    {
      "time": "113568i",
      "midiNote": 44,
      "noteName": "G#2",
      "velocity": 0.7559055118110236,
      "duration": "96i"
    },
    {
      "time": "113664i",
      "midiNote": 37,
      "noteName": "C#2",
      "velocity": 0.7559055118110236,
      "duration": "96i"
    },
    {
      "time": "113664i",
      "midiNote": 70,
      "noteName": "A#4",
      "velocity": 0.7559055118110236,
      "duration": "96i"
    },
    {
      "time": "113760i",
      "midiNote": 44,
      "noteName": "G#2",
      "velocity": 0.7559055118110236,
      "duration": "96i"
    },
    {
      "time": "113760i",
      "midiNote": 37,
      "noteName": "C#2",
      "velocity": 0.5039370078740157,
      "duration": "96i"
    },
    {
      "time": "113856i",
      "midiNote": 44,
      "noteName": "G#2",
      "velocity": 0.7559055118110236,
      "duration": "96i"
    },
    {
      "time": "113856i",
      "midiNote": 37,
      "noteName": "C#2",
      "velocity": 0.5039370078740157,
      "duration": "96i"
    },
    {
      "time": "113952i",
      "midiNote": 37,
      "noteName": "C#2",
      "velocity": 0.7559055118110236,
      "duration": "96i"
    },
    {
      "time": "113952i",
      "midiNote": 70,
      "noteName": "A#4",
      "velocity": 0.7559055118110236,
      "duration": "96i"
    },
    {
      "time": "114048i",
      "midiNote": 44,
      "noteName": "G#2",
      "velocity": 0.7559055118110236,
      "duration": "96i"
    },
    {
      "time": "114048i",
      "midiNote": 37,
      "noteName": "C#2",
      "velocity": 0.5039370078740157,
      "duration": "96i"
    },
    {
      "time": "114144i",
      "midiNote": 44,
      "noteName": "G#2",
      "velocity": 0.7559055118110236,
      "duration": "96i"
    },
    {
      "time": "114144i",
      "midiNote": 37,
      "noteName": "C#2",
      "velocity": 0.5039370078740157,
      "duration": "96i"
    },
    {
      "time": "114240i",
      "midiNote": 37,
      "noteName": "C#2",
      "velocity": 0.7559055118110236,
      "duration": "96i"
    },
    {
      "time": "114240i",
      "midiNote": 70,
      "noteName": "A#4",
      "velocity": 0.7559055118110236,
      "duration": "96i"
    },
    {
      "time": "114336i",
      "midiNote": 44,
      "noteName": "G#2",
      "velocity": 0.7559055118110236,
      "duration": "96i"
    },
    {
      "time": "114336i",
      "midiNote": 37,
      "noteName": "C#2",
      "velocity": 0.5039370078740157,
      "duration": "96i"
    },
    {
      "time": "114432i",
      "midiNote": 37,
      "noteName": "C#2",
      "velocity": 0.7559055118110236,
      "duration": "96i"
    },
    {
      "time": "114432i",
      "midiNote": 70,
      "noteName": "A#4",
      "velocity": 0.7559055118110236,
      "duration": "96i"
    },
    {
      "time": "114528i",
      "midiNote": 44,
      "noteName": "G#2",
      "velocity": 0.7559055118110236,
      "duration": "96i"
    },
    {
      "time": "114528i",
      "midiNote": 37,
      "noteName": "C#2",
      "velocity": 0.5039370078740157,
      "duration": "96i"
    },
    {
      "time": "114624i",
      "midiNote": 44,
      "noteName": "G#2",
      "velocity": 0.7559055118110236,
      "duration": "96i"
    },
    {
      "time": "114624i",
      "midiNote": 37,
      "noteName": "C#2",
      "velocity": 0.5039370078740157,
      "duration": "96i"
    },
    {
      "time": "114720i",
      "midiNote": 44,
      "noteName": "G#2",
      "velocity": 0.7559055118110236,
      "duration": "96i"
    },
    {
      "time": "114720i",
      "midiNote": 37,
      "noteName": "C#2",
      "velocity": 0.5039370078740157,
      "duration": "96i"
    },
    {
      "time": "114816i",
      "midiNote": 70,
      "noteName": "A#4",
      "velocity": 0.7559055118110236,
      "duration": "96i"
    },
    {
      "time": "114816i",
      "midiNote": 37,
      "noteName": "C#2",
      "velocity": 0.7559055118110236,
      "duration": "96i"
    },
    {
      "time": "114912i",
      "midiNote": 44,
      "noteName": "G#2",
      "velocity": 0.7559055118110236,
      "duration": "96i"
    },
    {
      "time": "114912i",
      "midiNote": 37,
      "noteName": "C#2",
      "velocity": 0.5039370078740157,
      "duration": "96i"
    },
    {
      "time": "115008i",
      "midiNote": 44,
      "noteName": "G#2",
      "velocity": 0.7559055118110236,
      "duration": "96i"
    },
    {
      "time": "115008i",
      "midiNote": 37,
      "noteName": "C#2",
      "velocity": 0.5039370078740157,
      "duration": "96i"
    },
    {
      "time": "115104i",
      "midiNote": 37,
      "noteName": "C#2",
      "velocity": 0.5039370078740157,
      "duration": "96i"
    },
    {
      "time": "115104i",
      "midiNote": 44,
      "noteName": "G#2",
      "velocity": 0.7559055118110236,
      "duration": "96i"
    },
    {
      "time": "115200i",
      "midiNote": 37,
      "noteName": "C#2",
      "velocity": 0.7559055118110236,
      "duration": "96i"
    },
    {
      "time": "115200i",
      "midiNote": 70,
      "noteName": "A#4",
      "velocity": 0.7559055118110236,
      "duration": "96i"
    },
    {
      "time": "115296i",
      "midiNote": 44,
      "noteName": "G#2",
      "velocity": 0.7559055118110236,
      "duration": "96i"
    },
    {
      "time": "115296i",
      "midiNote": 37,
      "noteName": "C#2",
      "velocity": 0.5039370078740157,
      "duration": "96i"
    },
    {
      "time": "115392i",
      "midiNote": 44,
      "noteName": "G#2",
      "velocity": 0.7559055118110236,
      "duration": "96i"
    },
    {
      "time": "115392i",
      "midiNote": 37,
      "noteName": "C#2",
      "velocity": 0.5039370078740157,
      "duration": "96i"
    },
    {
      "time": "115488i",
      "midiNote": 37,
      "noteName": "C#2",
      "velocity": 0.7559055118110236,
      "duration": "96i"
    },
    {
      "time": "115488i",
      "midiNote": 70,
      "noteName": "A#4",
      "velocity": 0.7559055118110236,
      "duration": "96i"
    },
    {
      "time": "115584i",
      "midiNote": 44,
      "noteName": "G#2",
      "velocity": 0.7559055118110236,
      "duration": "96i"
    },
    {
      "time": "115584i",
      "midiNote": 37,
      "noteName": "C#2",
      "velocity": 0.5039370078740157,
      "duration": "96i"
    },
    {
      "time": "115680i",
      "midiNote": 44,
      "noteName": "G#2",
      "velocity": 0.7559055118110236,
      "duration": "96i"
    },
    {
      "time": "115680i",
      "midiNote": 37,
      "noteName": "C#2",
      "velocity": 0.5039370078740157,
      "duration": "96i"
    },
    {
      "time": "115776i",
      "midiNote": 37,
      "noteName": "C#2",
      "velocity": 0.7559055118110236,
      "duration": "96i"
    },
    {
      "time": "115776i",
      "midiNote": 70,
      "noteName": "A#4",
      "velocity": 0.7559055118110236,
      "duration": "96i"
    },
    {
      "time": "115872i",
      "midiNote": 44,
      "noteName": "G#2",
      "velocity": 0.7559055118110236,
      "duration": "96i"
    },
    {
      "time": "115872i",
      "midiNote": 37,
      "noteName": "C#2",
      "velocity": 0.5039370078740157,
      "duration": "96i"
    },
    {
      "time": "115968i",
      "midiNote": 37,
      "noteName": "C#2",
      "velocity": 0.7559055118110236,
      "duration": "96i"
    },
    {
      "time": "115968i",
      "midiNote": 70,
      "noteName": "A#4",
      "velocity": 0.7559055118110236,
      "duration": "96i"
    },
    {
      "time": "116064i",
      "midiNote": 44,
      "noteName": "G#2",
      "velocity": 0.7559055118110236,
      "duration": "96i"
    },
    {
      "time": "116064i",
      "midiNote": 37,
      "noteName": "C#2",
      "velocity": 0.5039370078740157,
      "duration": "96i"
    },
    {
      "time": "116160i",
      "midiNote": 44,
      "noteName": "G#2",
      "velocity": 0.7559055118110236,
      "duration": "96i"
    },
    {
      "time": "116160i",
      "midiNote": 37,
      "noteName": "C#2",
      "velocity": 0.5039370078740157,
      "duration": "96i"
    },
    {
      "time": "116256i",
      "midiNote": 44,
      "noteName": "G#2",
      "velocity": 0.7559055118110236,
      "duration": "96i"
    },
    {
      "time": "116256i",
      "midiNote": 37,
      "noteName": "C#2",
      "velocity": 0.5039370078740157,
      "duration": "96i"
    },
    {
      "time": "116352i",
      "midiNote": 70,
      "noteName": "A#4",
      "velocity": 0.7559055118110236,
      "duration": "96i"
    },
    {
      "time": "116352i",
      "midiNote": 37,
      "noteName": "C#2",
      "velocity": 0.7559055118110236,
      "duration": "96i"
    },
    {
      "time": "116448i",
      "midiNote": 44,
      "noteName": "G#2",
      "velocity": 0.7559055118110236,
      "duration": "96i"
    },
    {
      "time": "116448i",
      "midiNote": 37,
      "noteName": "C#2",
      "velocity": 0.5039370078740157,
      "duration": "96i"
    },
    {
      "time": "116544i",
      "midiNote": 44,
      "noteName": "G#2",
      "velocity": 0.7559055118110236,
      "duration": "96i"
    },
    {
      "time": "116544i",
      "midiNote": 37,
      "noteName": "C#2",
      "velocity": 0.5039370078740157,
      "duration": "96i"
    },
    {
      "time": "116640i",
      "midiNote": 37,
      "noteName": "C#2",
      "velocity": 0.5039370078740157,
      "duration": "96i"
    },
    {
      "time": "116640i",
      "midiNote": 44,
      "noteName": "G#2",
      "velocity": 0.7559055118110236,
      "duration": "96i"
    },
    {
      "time": "116736i",
      "midiNote": 37,
      "noteName": "C#2",
      "velocity": 0.7559055118110236,
      "duration": "96i"
    },
    {
      "time": "116736i",
      "midiNote": 70,
      "noteName": "A#4",
      "velocity": 0.7559055118110236,
      "duration": "96i"
    },
    {
      "time": "116832i",
      "midiNote": 44,
      "noteName": "G#2",
      "velocity": 0.7559055118110236,
      "duration": "96i"
    },
    {
      "time": "116832i",
      "midiNote": 37,
      "noteName": "C#2",
      "velocity": 0.5039370078740157,
      "duration": "96i"
    },
    {
      "time": "116928i",
      "midiNote": 44,
      "noteName": "G#2",
      "velocity": 0.7559055118110236,
      "duration": "96i"
    },
    {
      "time": "116928i",
      "midiNote": 37,
      "noteName": "C#2",
      "velocity": 0.5039370078740157,
      "duration": "96i"
    },
    {
      "time": "117024i",
      "midiNote": 37,
      "noteName": "C#2",
      "velocity": 0.7559055118110236,
      "duration": "96i"
    },
    {
      "time": "117024i",
      "midiNote": 70,
      "noteName": "A#4",
      "velocity": 0.7559055118110236,
      "duration": "96i"
    },
    {
      "time": "117120i",
      "midiNote": 44,
      "noteName": "G#2",
      "velocity": 0.7559055118110236,
      "duration": "96i"
    },
    {
      "time": "117120i",
      "midiNote": 37,
      "noteName": "C#2",
      "velocity": 0.5039370078740157,
      "duration": "96i"
    },
    {
      "time": "117216i",
      "midiNote": 44,
      "noteName": "G#2",
      "velocity": 0.7559055118110236,
      "duration": "96i"
    },
    {
      "time": "117216i",
      "midiNote": 37,
      "noteName": "C#2",
      "velocity": 0.5039370078740157,
      "duration": "96i"
    },
    {
      "time": "117312i",
      "midiNote": 37,
      "noteName": "C#2",
      "velocity": 0.7559055118110236,
      "duration": "96i"
    },
    {
      "time": "117312i",
      "midiNote": 70,
      "noteName": "A#4",
      "velocity": 0.7559055118110236,
      "duration": "96i"
    },
    {
      "time": "117408i",
      "midiNote": 44,
      "noteName": "G#2",
      "velocity": 0.7559055118110236,
      "duration": "96i"
    },
    {
      "time": "117408i",
      "midiNote": 37,
      "noteName": "C#2",
      "velocity": 0.5039370078740157,
      "duration": "96i"
    },
    {
      "time": "117504i",
      "midiNote": 37,
      "noteName": "C#2",
      "velocity": 0.7559055118110236,
      "duration": "96i"
    },
    {
      "time": "117504i",
      "midiNote": 70,
      "noteName": "A#4",
      "velocity": 0.7559055118110236,
      "duration": "96i"
    },
    {
      "time": "117600i",
      "midiNote": 44,
      "noteName": "G#2",
      "velocity": 0.7559055118110236,
      "duration": "96i"
    },
    {
      "time": "117600i",
      "midiNote": 37,
      "noteName": "C#2",
      "velocity": 0.5039370078740157,
      "duration": "96i"
    },
    {
      "time": "117696i",
      "midiNote": 44,
      "noteName": "G#2",
      "velocity": 0.7559055118110236,
      "duration": "96i"
    },
    {
      "time": "117696i",
      "midiNote": 37,
      "noteName": "C#2",
      "velocity": 0.5039370078740157,
      "duration": "96i"
    },
    {
      "time": "117792i",
      "midiNote": 44,
      "noteName": "G#2",
      "velocity": 0.7559055118110236,
      "duration": "96i"
    },
    {
      "time": "117792i",
      "midiNote": 37,
      "noteName": "C#2",
      "velocity": 0.5039370078740157,
      "duration": "96i"
    },
    {
      "time": "117888i",
      "midiNote": 70,
      "noteName": "A#4",
      "velocity": 0.7559055118110236,
      "duration": "96i"
    },
    {
      "time": "117888i",
      "midiNote": 37,
      "noteName": "C#2",
      "velocity": 0.7559055118110236,
      "duration": "96i"
    },
    {
      "time": "117984i",
      "midiNote": 44,
      "noteName": "G#2",
      "velocity": 0.7559055118110236,
      "duration": "96i"
    },
    {
      "time": "117984i",
      "midiNote": 37,
      "noteName": "C#2",
      "velocity": 0.5039370078740157,
      "duration": "96i"
    },
    {
      "time": "118080i",
      "midiNote": 44,
      "noteName": "G#2",
      "velocity": 0.7559055118110236,
      "duration": "96i"
    },
    {
      "time": "118080i",
      "midiNote": 37,
      "noteName": "C#2",
      "velocity": 0.5039370078740157,
      "duration": "96i"
    },
    {
      "time": "118176i",
      "midiNote": 37,
      "noteName": "C#2",
      "velocity": 0.5039370078740157,
      "duration": "96i"
    },
    {
      "time": "118176i",
      "midiNote": 44,
      "noteName": "G#2",
      "velocity": 0.7559055118110236,
      "duration": "96i"
    },
    {
      "time": "118272i",
      "midiNote": 37,
      "noteName": "C#2",
      "velocity": 0.7559055118110236,
      "duration": "96i"
    },
    {
      "time": "118272i",
      "midiNote": 70,
      "noteName": "A#4",
      "velocity": 0.7559055118110236,
      "duration": "96i"
    },
    {
      "time": "118368i",
      "midiNote": 44,
      "noteName": "G#2",
      "velocity": 0.7559055118110236,
      "duration": "96i"
    },
    {
      "time": "118368i",
      "midiNote": 37,
      "noteName": "C#2",
      "velocity": 0.5039370078740157,
      "duration": "96i"
    },
    {
      "time": "118464i",
      "midiNote": 44,
      "noteName": "G#2",
      "velocity": 0.7559055118110236,
      "duration": "96i"
    },
    {
      "time": "118464i",
      "midiNote": 37,
      "noteName": "C#2",
      "velocity": 0.5039370078740157,
      "duration": "96i"
    },
    {
      "time": "118560i",
      "midiNote": 37,
      "noteName": "C#2",
      "velocity": 0.7559055118110236,
      "duration": "96i"
    },
    {
      "time": "118560i",
      "midiNote": 70,
      "noteName": "A#4",
      "velocity": 0.7559055118110236,
      "duration": "96i"
    },
    {
      "time": "118656i",
      "midiNote": 44,
      "noteName": "G#2",
      "velocity": 0.7559055118110236,
      "duration": "96i"
    },
    {
      "time": "118656i",
      "midiNote": 37,
      "noteName": "C#2",
      "velocity": 0.5039370078740157,
      "duration": "96i"
    },
    {
      "time": "118752i",
      "midiNote": 44,
      "noteName": "G#2",
      "velocity": 0.7559055118110236,
      "duration": "96i"
    },
    {
      "time": "118752i",
      "midiNote": 37,
      "noteName": "C#2",
      "velocity": 0.5039370078740157,
      "duration": "96i"
    },
    {
      "time": "118848i",
      "midiNote": 37,
      "noteName": "C#2",
      "velocity": 0.7559055118110236,
      "duration": "96i"
    },
    {
      "time": "118848i",
      "midiNote": 70,
      "noteName": "A#4",
      "velocity": 0.7559055118110236,
      "duration": "96i"
    },
    {
      "time": "118944i",
      "midiNote": 44,
      "noteName": "G#2",
      "velocity": 0.7559055118110236,
      "duration": "96i"
    },
    {
      "time": "118944i",
      "midiNote": 37,
      "noteName": "C#2",
      "velocity": 0.5039370078740157,
      "duration": "96i"
    },
    {
      "time": "119040i",
      "midiNote": 37,
      "noteName": "C#2",
      "velocity": 0.7559055118110236,
      "duration": "96i"
    },
    {
      "time": "119040i",
      "midiNote": 70,
      "noteName": "A#4",
      "velocity": 0.7559055118110236,
      "duration": "96i"
    },
    {
      "time": "119136i",
      "midiNote": 44,
      "noteName": "G#2",
      "velocity": 0.7559055118110236,
      "duration": "96i"
    },
    {
      "time": "119136i",
      "midiNote": 37,
      "noteName": "C#2",
      "velocity": 0.5039370078740157,
      "duration": "96i"
    },
    {
      "time": "119232i",
      "midiNote": 44,
      "noteName": "G#2",
      "velocity": 0.7559055118110236,
      "duration": "96i"
    },
    {
      "time": "119232i",
      "midiNote": 37,
      "noteName": "C#2",
      "velocity": 0.5039370078740157,
      "duration": "96i"
    },
    {
      "time": "119328i",
      "midiNote": 44,
      "noteName": "G#2",
      "velocity": 0.7559055118110236,
      "duration": "96i"
    },
    {
      "time": "119328i",
      "midiNote": 37,
      "noteName": "C#2",
      "velocity": 0.5039370078740157,
      "duration": "96i"
    },
    {
      "time": "119424i",
      "midiNote": 70,
      "noteName": "A#4",
      "velocity": 0.7559055118110236,
      "duration": "96i"
    },
    {
      "time": "119424i",
      "midiNote": 37,
      "noteName": "C#2",
      "velocity": 0.7559055118110236,
      "duration": "96i"
    },
    {
      "time": "119520i",
      "midiNote": 44,
      "noteName": "G#2",
      "velocity": 0.7559055118110236,
      "duration": "96i"
    },
    {
      "time": "119520i",
      "midiNote": 37,
      "noteName": "C#2",
      "velocity": 0.5039370078740157,
      "duration": "96i"
    },
    {
      "time": "119616i",
      "midiNote": 44,
      "noteName": "G#2",
      "velocity": 0.7559055118110236,
      "duration": "96i"
    },
    {
      "time": "119616i",
      "midiNote": 37,
      "noteName": "C#2",
      "velocity": 0.5039370078740157,
      "duration": "96i"
    },
    {
      "time": "119712i",
      "midiNote": 37,
      "noteName": "C#2",
      "velocity": 0.5039370078740157,
      "duration": "96i"
    },
    {
      "time": "119712i",
      "midiNote": 44,
      "noteName": "G#2",
      "velocity": 0.7559055118110236,
      "duration": "96i"
    },
    {
      "time": "119808i",
      "midiNote": 37,
      "noteName": "C#2",
      "velocity": 0.7559055118110236,
      "duration": "96i"
    },
    {
      "time": "119808i",
      "midiNote": 70,
      "noteName": "A#4",
      "velocity": 0.7559055118110236,
      "duration": "96i"
    },
    {
      "time": "119904i",
      "midiNote": 44,
      "noteName": "G#2",
      "velocity": 0.7559055118110236,
      "duration": "96i"
    },
    {
      "time": "119904i",
      "midiNote": 37,
      "noteName": "C#2",
      "velocity": 0.5039370078740157,
      "duration": "96i"
    },
    {
      "time": "120000i",
      "midiNote": 44,
      "noteName": "G#2",
      "velocity": 0.7559055118110236,
      "duration": "96i"
    },
    {
      "time": "120000i",
      "midiNote": 37,
      "noteName": "C#2",
      "velocity": 0.5039370078740157,
      "duration": "96i"
    },
    {
      "time": "120096i",
      "midiNote": 37,
      "noteName": "C#2",
      "velocity": 0.7559055118110236,
      "duration": "96i"
    },
    {
      "time": "120096i",
      "midiNote": 70,
      "noteName": "A#4",
      "velocity": 0.7559055118110236,
      "duration": "96i"
    },
    {
      "time": "120192i",
      "midiNote": 44,
      "noteName": "G#2",
      "velocity": 0.7559055118110236,
      "duration": "96i"
    },
    {
      "time": "120192i",
      "midiNote": 37,
      "noteName": "C#2",
      "velocity": 0.5039370078740157,
      "duration": "96i"
    },
    {
      "time": "120288i",
      "midiNote": 44,
      "noteName": "G#2",
      "velocity": 0.7559055118110236,
      "duration": "96i"
    },
    {
      "time": "120288i",
      "midiNote": 37,
      "noteName": "C#2",
      "velocity": 0.5039370078740157,
      "duration": "96i"
    },
    {
      "time": "120384i",
      "midiNote": 37,
      "noteName": "C#2",
      "velocity": 0.7559055118110236,
      "duration": "96i"
    },
    {
      "time": "120384i",
      "midiNote": 70,
      "noteName": "A#4",
      "velocity": 0.7559055118110236,
      "duration": "96i"
    },
    {
      "time": "120480i",
      "midiNote": 44,
      "noteName": "G#2",
      "velocity": 0.7559055118110236,
      "duration": "96i"
    },
    {
      "time": "120480i",
      "midiNote": 37,
      "noteName": "C#2",
      "velocity": 0.5039370078740157,
      "duration": "96i"
    },
    {
      "time": "120576i",
      "midiNote": 37,
      "noteName": "C#2",
      "velocity": 0.7559055118110236,
      "duration": "96i"
    },
    {
      "time": "120576i",
      "midiNote": 70,
      "noteName": "A#4",
      "velocity": 0.7559055118110236,
      "duration": "96i"
    },
    {
      "time": "120672i",
      "midiNote": 44,
      "noteName": "G#2",
      "velocity": 0.7559055118110236,
      "duration": "96i"
    },
    {
      "time": "120672i",
      "midiNote": 37,
      "noteName": "C#2",
      "velocity": 0.5039370078740157,
      "duration": "96i"
    },
    {
      "time": "120768i",
      "midiNote": 44,
      "noteName": "G#2",
      "velocity": 0.7559055118110236,
      "duration": "96i"
    },
    {
      "time": "120768i",
      "midiNote": 37,
      "noteName": "C#2",
      "velocity": 0.5039370078740157,
      "duration": "96i"
    },
    {
      "time": "120864i",
      "midiNote": 44,
      "noteName": "G#2",
      "velocity": 0.7559055118110236,
      "duration": "96i"
    },
    {
      "time": "120864i",
      "midiNote": 37,
      "noteName": "C#2",
      "velocity": 0.5039370078740157,
      "duration": "96i"
    },
    {
      "time": "120960i",
      "midiNote": 70,
      "noteName": "A#4",
      "velocity": 0.7559055118110236,
      "duration": "96i"
    },
    {
      "time": "120960i",
      "midiNote": 37,
      "noteName": "C#2",
      "velocity": 0.7559055118110236,
      "duration": "96i"
    },
    {
      "time": "121056i",
      "midiNote": 44,
      "noteName": "G#2",
      "velocity": 0.7559055118110236,
      "duration": "96i"
    },
    {
      "time": "121056i",
      "midiNote": 37,
      "noteName": "C#2",
      "velocity": 0.5039370078740157,
      "duration": "96i"
    },
    {
      "time": "121152i",
      "midiNote": 44,
      "noteName": "G#2",
      "velocity": 0.7559055118110236,
      "duration": "96i"
    },
    {
      "time": "121152i",
      "midiNote": 37,
      "noteName": "C#2",
      "velocity": 0.5039370078740157,
      "duration": "96i"
    },
    {
      "time": "121248i",
      "midiNote": 37,
      "noteName": "C#2",
      "velocity": 0.5039370078740157,
      "duration": "96i"
    },
    {
      "time": "121248i",
      "midiNote": 44,
      "noteName": "G#2",
      "velocity": 0.7559055118110236,
      "duration": "96i"
    },
    {
      "time": "121344i",
      "midiNote": 37,
      "noteName": "C#2",
      "velocity": 0.7559055118110236,
      "duration": "96i"
    },
    {
      "time": "121344i",
      "midiNote": 70,
      "noteName": "A#4",
      "velocity": 0.7559055118110236,
      "duration": "96i"
    },
    {
      "time": "121440i",
      "midiNote": 44,
      "noteName": "G#2",
      "velocity": 0.7559055118110236,
      "duration": "96i"
    },
    {
      "time": "121440i",
      "midiNote": 37,
      "noteName": "C#2",
      "velocity": 0.5039370078740157,
      "duration": "96i"
    },
    {
      "time": "121536i",
      "midiNote": 44,
      "noteName": "G#2",
      "velocity": 0.7559055118110236,
      "duration": "96i"
    },
    {
      "time": "121536i",
      "midiNote": 37,
      "noteName": "C#2",
      "velocity": 0.5039370078740157,
      "duration": "96i"
    },
    {
      "time": "121632i",
      "midiNote": 37,
      "noteName": "C#2",
      "velocity": 0.7559055118110236,
      "duration": "96i"
    },
    {
      "time": "121632i",
      "midiNote": 70,
      "noteName": "A#4",
      "velocity": 0.7559055118110236,
      "duration": "96i"
    },
    {
      "time": "121728i",
      "midiNote": 44,
      "noteName": "G#2",
      "velocity": 0.7559055118110236,
      "duration": "96i"
    },
    {
      "time": "121728i",
      "midiNote": 37,
      "noteName": "C#2",
      "velocity": 0.5039370078740157,
      "duration": "96i"
    },
    {
      "time": "121824i",
      "midiNote": 44,
      "noteName": "G#2",
      "velocity": 0.7559055118110236,
      "duration": "96i"
    },
    {
      "time": "121824i",
      "midiNote": 37,
      "noteName": "C#2",
      "velocity": 0.5039370078740157,
      "duration": "96i"
    },
    {
      "time": "121920i",
      "midiNote": 37,
      "noteName": "C#2",
      "velocity": 0.7559055118110236,
      "duration": "96i"
    },
    {
      "time": "121920i",
      "midiNote": 70,
      "noteName": "A#4",
      "velocity": 0.7559055118110236,
      "duration": "96i"
    },
    {
      "time": "122016i",
      "midiNote": 44,
      "noteName": "G#2",
      "velocity": 0.7559055118110236,
      "duration": "96i"
    },
    {
      "time": "122016i",
      "midiNote": 37,
      "noteName": "C#2",
      "velocity": 0.5039370078740157,
      "duration": "96i"
    },
    {
      "time": "122112i",
      "midiNote": 37,
      "noteName": "C#2",
      "velocity": 0.7559055118110236,
      "duration": "96i"
    },
    {
      "time": "122112i",
      "midiNote": 70,
      "noteName": "A#4",
      "velocity": 0.7559055118110236,
      "duration": "96i"
    },
    {
      "time": "122208i",
      "midiNote": 44,
      "noteName": "G#2",
      "velocity": 0.7559055118110236,
      "duration": "96i"
    },
    {
      "time": "122208i",
      "midiNote": 37,
      "noteName": "C#2",
      "velocity": 0.5039370078740157,
      "duration": "96i"
    },
    {
      "time": "122304i",
      "midiNote": 44,
      "noteName": "G#2",
      "velocity": 0.7559055118110236,
      "duration": "96i"
    },
    {
      "time": "122304i",
      "midiNote": 37,
      "noteName": "C#2",
      "velocity": 0.5039370078740157,
      "duration": "96i"
    },
    {
      "time": "122400i",
      "midiNote": 44,
      "noteName": "G#2",
      "velocity": 0.7559055118110236,
      "duration": "96i"
    },
    {
      "time": "122400i",
      "midiNote": 37,
      "noteName": "C#2",
      "velocity": 0.5039370078740157,
      "duration": "96i"
    },
    {
      "time": "122496i",
      "midiNote": 70,
      "noteName": "A#4",
      "velocity": 0.7559055118110236,
      "duration": "96i"
    },
    {
      "time": "122496i",
      "midiNote": 37,
      "noteName": "C#2",
      "velocity": 0.7559055118110236,
      "duration": "96i"
    },
    {
      "time": "122592i",
      "midiNote": 44,
      "noteName": "G#2",
      "velocity": 0.7559055118110236,
      "duration": "96i"
    },
    {
      "time": "122592i",
      "midiNote": 37,
      "noteName": "C#2",
      "velocity": 0.5039370078740157,
      "duration": "96i"
    },
    {
      "time": "122688i",
      "midiNote": 44,
      "noteName": "G#2",
      "velocity": 0.7559055118110236,
      "duration": "96i"
    },
    {
      "time": "122688i",
      "midiNote": 37,
      "noteName": "C#2",
      "velocity": 0.5039370078740157,
      "duration": "96i"
    },
    {
      "time": "122784i",
      "midiNote": 37,
      "noteName": "C#2",
      "velocity": 0.5039370078740157,
      "duration": "96i"
    },
    {
      "time": "122784i",
      "midiNote": 44,
      "noteName": "G#2",
      "velocity": 0.7559055118110236,
      "duration": "96i"
    },
    {
      "time": "122880i",
      "midiNote": 37,
      "noteName": "C#2",
      "velocity": 0.7559055118110236,
      "duration": "96i"
    },
    {
      "time": "122880i",
      "midiNote": 70,
      "noteName": "A#4",
      "velocity": 0.7559055118110236,
      "duration": "96i"
    },
    {
      "time": "122976i",
      "midiNote": 44,
      "noteName": "G#2",
      "velocity": 0.7559055118110236,
      "duration": "96i"
    },
    {
      "time": "122976i",
      "midiNote": 37,
      "noteName": "C#2",
      "velocity": 0.5039370078740157,
      "duration": "96i"
    },
    {
      "time": "123072i",
      "midiNote": 44,
      "noteName": "G#2",
      "velocity": 0.7559055118110236,
      "duration": "96i"
    },
    {
      "time": "123072i",
      "midiNote": 37,
      "noteName": "C#2",
      "velocity": 0.5039370078740157,
      "duration": "96i"
    },
    {
      "time": "123168i",
      "midiNote": 37,
      "noteName": "C#2",
      "velocity": 0.7559055118110236,
      "duration": "96i"
    },
    {
      "time": "123168i",
      "midiNote": 70,
      "noteName": "A#4",
      "velocity": 0.7559055118110236,
      "duration": "96i"
    },
    {
      "time": "123264i",
      "midiNote": 44,
      "noteName": "G#2",
      "velocity": 0.7559055118110236,
      "duration": "96i"
    },
    {
      "time": "123264i",
      "midiNote": 37,
      "noteName": "C#2",
      "velocity": 0.5039370078740157,
      "duration": "96i"
    },
    {
      "time": "123360i",
      "midiNote": 44,
      "noteName": "G#2",
      "velocity": 0.7559055118110236,
      "duration": "96i"
    },
    {
      "time": "123360i",
      "midiNote": 37,
      "noteName": "C#2",
      "velocity": 0.5039370078740157,
      "duration": "96i"
    },
    {
      "time": "123456i",
      "midiNote": 37,
      "noteName": "C#2",
      "velocity": 0.7559055118110236,
      "duration": "96i"
    },
    {
      "time": "123456i",
      "midiNote": 70,
      "noteName": "A#4",
      "velocity": 0.7559055118110236,
      "duration": "96i"
    },
    {
      "time": "123552i",
      "midiNote": 44,
      "noteName": "G#2",
      "velocity": 0.7559055118110236,
      "duration": "96i"
    },
    {
      "time": "123552i",
      "midiNote": 37,
      "noteName": "C#2",
      "velocity": 0.5039370078740157,
      "duration": "96i"
    },
    {
      "time": "123648i",
      "midiNote": 37,
      "noteName": "C#2",
      "velocity": 0.7559055118110236,
      "duration": "96i"
    },
    {
      "time": "123648i",
      "midiNote": 70,
      "noteName": "A#4",
      "velocity": 0.7559055118110236,
      "duration": "96i"
    },
    {
      "time": "123744i",
      "midiNote": 44,
      "noteName": "G#2",
      "velocity": 0.7559055118110236,
      "duration": "96i"
    },
    {
      "time": "123744i",
      "midiNote": 37,
      "noteName": "C#2",
      "velocity": 0.5039370078740157,
      "duration": "96i"
    },
    {
      "time": "123840i",
      "midiNote": 44,
      "noteName": "G#2",
      "velocity": 0.7559055118110236,
      "duration": "96i"
    },
    {
      "time": "123840i",
      "midiNote": 37,
      "noteName": "C#2",
      "velocity": 0.5039370078740157,
      "duration": "96i"
    },
    {
      "time": "123936i",
      "midiNote": 44,
      "noteName": "G#2",
      "velocity": 0.7559055118110236,
      "duration": "96i"
    },
    {
      "time": "123936i",
      "midiNote": 37,
      "noteName": "C#2",
      "velocity": 0.5039370078740157,
      "duration": "96i"
    },
    {
      "time": "124032i",
      "midiNote": 70,
      "noteName": "A#4",
      "velocity": 0.7559055118110236,
      "duration": "96i"
    },
    {
      "time": "124032i",
      "midiNote": 37,
      "noteName": "C#2",
      "velocity": 0.7559055118110236,
      "duration": "96i"
    },
    {
      "time": "124128i",
      "midiNote": 44,
      "noteName": "G#2",
      "velocity": 0.7559055118110236,
      "duration": "96i"
    },
    {
      "time": "124128i",
      "midiNote": 37,
      "noteName": "C#2",
      "velocity": 0.5039370078740157,
      "duration": "96i"
    },
    {
      "time": "124224i",
      "midiNote": 44,
      "noteName": "G#2",
      "velocity": 0.7559055118110236,
      "duration": "96i"
    },
    {
      "time": "124224i",
      "midiNote": 37,
      "noteName": "C#2",
      "velocity": 0.5039370078740157,
      "duration": "96i"
    },
    {
      "time": "124320i",
      "midiNote": 37,
      "noteName": "C#2",
      "velocity": 0.5039370078740157,
      "duration": "96i"
    },
    {
      "time": "124320i",
      "midiNote": 44,
      "noteName": "G#2",
      "velocity": 0.7559055118110236,
      "duration": "96i"
    },
    {
      "time": "124416i",
      "midiNote": 37,
      "noteName": "C#2",
      "velocity": 0.7559055118110236,
      "duration": "96i"
    },
    {
      "time": "124416i",
      "midiNote": 70,
      "noteName": "A#4",
      "velocity": 0.7559055118110236,
      "duration": "96i"
    },
    {
      "time": "124512i",
      "midiNote": 44,
      "noteName": "G#2",
      "velocity": 0.7559055118110236,
      "duration": "96i"
    },
    {
      "time": "124512i",
      "midiNote": 37,
      "noteName": "C#2",
      "velocity": 0.5039370078740157,
      "duration": "96i"
    },
    {
      "time": "124608i",
      "midiNote": 44,
      "noteName": "G#2",
      "velocity": 0.7559055118110236,
      "duration": "96i"
    },
    {
      "time": "124608i",
      "midiNote": 37,
      "noteName": "C#2",
      "velocity": 0.5039370078740157,
      "duration": "96i"
    },
    {
      "time": "124704i",
      "midiNote": 37,
      "noteName": "C#2",
      "velocity": 0.7559055118110236,
      "duration": "96i"
    },
    {
      "time": "124704i",
      "midiNote": 70,
      "noteName": "A#4",
      "velocity": 0.7559055118110236,
      "duration": "96i"
    },
    {
      "time": "124800i",
      "midiNote": 44,
      "noteName": "G#2",
      "velocity": 0.7559055118110236,
      "duration": "96i"
    },
    {
      "time": "124800i",
      "midiNote": 37,
      "noteName": "C#2",
      "velocity": 0.5039370078740157,
      "duration": "96i"
    },
    {
      "time": "124896i",
      "midiNote": 44,
      "noteName": "G#2",
      "velocity": 0.7559055118110236,
      "duration": "96i"
    },
    {
      "time": "124896i",
      "midiNote": 37,
      "noteName": "C#2",
      "velocity": 0.5039370078740157,
      "duration": "96i"
    },
    {
      "time": "124992i",
      "midiNote": 37,
      "noteName": "C#2",
      "velocity": 0.7559055118110236,
      "duration": "96i"
    },
    {
      "time": "124992i",
      "midiNote": 70,
      "noteName": "A#4",
      "velocity": 0.7559055118110236,
      "duration": "96i"
    },
    {
      "time": "125088i",
      "midiNote": 44,
      "noteName": "G#2",
      "velocity": 0.7559055118110236,
      "duration": "96i"
    },
    {
      "time": "125088i",
      "midiNote": 37,
      "noteName": "C#2",
      "velocity": 0.5039370078740157,
      "duration": "96i"
    },
    {
      "time": "125184i",
      "midiNote": 37,
      "noteName": "C#2",
      "velocity": 0.7559055118110236,
      "duration": "96i"
    },
    {
      "time": "125184i",
      "midiNote": 70,
      "noteName": "A#4",
      "velocity": 0.7559055118110236,
      "duration": "96i"
    },
    {
      "time": "125280i",
      "midiNote": 44,
      "noteName": "G#2",
      "velocity": 0.7559055118110236,
      "duration": "96i"
    },
    {
      "time": "125280i",
      "midiNote": 37,
      "noteName": "C#2",
      "velocity": 0.5039370078740157,
      "duration": "96i"
    },
    {
      "time": "125376i",
      "midiNote": 44,
      "noteName": "G#2",
      "velocity": 0.7559055118110236,
      "duration": "96i"
    },
    {
      "time": "125376i",
      "midiNote": 37,
      "noteName": "C#2",
      "velocity": 0.5039370078740157,
      "duration": "96i"
    },
    {
      "time": "125472i",
      "midiNote": 44,
      "noteName": "G#2",
      "velocity": 0.7559055118110236,
      "duration": "96i"
    },
    {
      "time": "125472i",
      "midiNote": 37,
      "noteName": "C#2",
      "velocity": 0.5039370078740157,
      "duration": "96i"
    },
    {
      "time": "125568i",
      "midiNote": 70,
      "noteName": "A#4",
      "velocity": 0.7559055118110236,
      "duration": "96i"
    },
    {
      "time": "125568i",
      "midiNote": 37,
      "noteName": "C#2",
      "velocity": 0.7559055118110236,
      "duration": "96i"
    },
    {
      "time": "125664i",
      "midiNote": 44,
      "noteName": "G#2",
      "velocity": 0.7559055118110236,
      "duration": "96i"
    },
    {
      "time": "125664i",
      "midiNote": 37,
      "noteName": "C#2",
      "velocity": 0.5039370078740157,
      "duration": "96i"
    },
    {
      "time": "125760i",
      "midiNote": 44,
      "noteName": "G#2",
      "velocity": 0.7559055118110236,
      "duration": "96i"
    },
    {
      "time": "125760i",
      "midiNote": 37,
      "noteName": "C#2",
      "velocity": 0.5039370078740157,
      "duration": "96i"
    },
    {
      "time": "125856i",
      "midiNote": 37,
      "noteName": "C#2",
      "velocity": 0.5039370078740157,
      "duration": "96i"
    },
    {
      "time": "125856i",
      "midiNote": 44,
      "noteName": "G#2",
      "velocity": 0.7559055118110236,
      "duration": "96i"
    },
    {
      "time": "125952i",
      "midiNote": 37,
      "noteName": "C#2",
      "velocity": 0.7559055118110236,
      "duration": "96i"
    },
    {
      "time": "125952i",
      "midiNote": 70,
      "noteName": "A#4",
      "velocity": 0.7559055118110236,
      "duration": "96i"
    },
    {
      "time": "126048i",
      "midiNote": 44,
      "noteName": "G#2",
      "velocity": 0.7559055118110236,
      "duration": "96i"
    },
    {
      "time": "126048i",
      "midiNote": 37,
      "noteName": "C#2",
      "velocity": 0.5039370078740157,
      "duration": "96i"
    },
    {
      "time": "126144i",
      "midiNote": 44,
      "noteName": "G#2",
      "velocity": 0.7559055118110236,
      "duration": "96i"
    },
    {
      "time": "126144i",
      "midiNote": 37,
      "noteName": "C#2",
      "velocity": 0.5039370078740157,
      "duration": "96i"
    },
    {
      "time": "126240i",
      "midiNote": 37,
      "noteName": "C#2",
      "velocity": 0.7559055118110236,
      "duration": "96i"
    },
    {
      "time": "126240i",
      "midiNote": 70,
      "noteName": "A#4",
      "velocity": 0.7559055118110236,
      "duration": "96i"
    },
    {
      "time": "126336i",
      "midiNote": 44,
      "noteName": "G#2",
      "velocity": 0.7559055118110236,
      "duration": "96i"
    },
    {
      "time": "126336i",
      "midiNote": 37,
      "noteName": "C#2",
      "velocity": 0.5039370078740157,
      "duration": "96i"
    },
    {
      "time": "126432i",
      "midiNote": 44,
      "noteName": "G#2",
      "velocity": 0.7559055118110236,
      "duration": "96i"
    },
    {
      "time": "126432i",
      "midiNote": 37,
      "noteName": "C#2",
      "velocity": 0.5039370078740157,
      "duration": "96i"
    },
    {
      "time": "126528i",
      "midiNote": 37,
      "noteName": "C#2",
      "velocity": 0.7559055118110236,
      "duration": "96i"
    },
    {
      "time": "126528i",
      "midiNote": 70,
      "noteName": "A#4",
      "velocity": 0.7559055118110236,
      "duration": "96i"
    },
    {
      "time": "126624i",
      "midiNote": 44,
      "noteName": "G#2",
      "velocity": 0.7559055118110236,
      "duration": "96i"
    },
    {
      "time": "126624i",
      "midiNote": 37,
      "noteName": "C#2",
      "velocity": 0.5039370078740157,
      "duration": "96i"
    },
    {
      "time": "126720i",
      "midiNote": 37,
      "noteName": "C#2",
      "velocity": 0.7559055118110236,
      "duration": "96i"
    },
    {
      "time": "126720i",
      "midiNote": 70,
      "noteName": "A#4",
      "velocity": 0.7559055118110236,
      "duration": "96i"
    },
    {
      "time": "126816i",
      "midiNote": 44,
      "noteName": "G#2",
      "velocity": 0.7559055118110236,
      "duration": "96i"
    },
    {
      "time": "126816i",
      "midiNote": 37,
      "noteName": "C#2",
      "velocity": 0.5039370078740157,
      "duration": "96i"
    },
    {
      "time": "126912i",
      "midiNote": 44,
      "noteName": "G#2",
      "velocity": 0.7559055118110236,
      "duration": "96i"
    },
    {
      "time": "126912i",
      "midiNote": 37,
      "noteName": "C#2",
      "velocity": 0.5039370078740157,
      "duration": "96i"
    },
    {
      "time": "127008i",
      "midiNote": 44,
      "noteName": "G#2",
      "velocity": 0.7559055118110236,
      "duration": "96i"
    },
    {
      "time": "127008i",
      "midiNote": 37,
      "noteName": "C#2",
      "velocity": 0.5039370078740157,
      "duration": "96i"
    },
    {
      "time": "127104i",
      "midiNote": 70,
      "noteName": "A#4",
      "velocity": 0.7559055118110236,
      "duration": "96i"
    },
    {
      "time": "127104i",
      "midiNote": 37,
      "noteName": "C#2",
      "velocity": 0.7559055118110236,
      "duration": "96i"
    },
    {
      "time": "127200i",
      "midiNote": 44,
      "noteName": "G#2",
      "velocity": 0.7559055118110236,
      "duration": "96i"
    },
    {
      "time": "127200i",
      "midiNote": 37,
      "noteName": "C#2",
      "velocity": 0.5039370078740157,
      "duration": "96i"
    },
    {
      "time": "127296i",
      "midiNote": 44,
      "noteName": "G#2",
      "velocity": 0.7559055118110236,
      "duration": "96i"
    },
    {
      "time": "127296i",
      "midiNote": 37,
      "noteName": "C#2",
      "velocity": 0.5039370078740157,
      "duration": "96i"
    },
    {
      "time": "127392i",
      "midiNote": 37,
      "noteName": "C#2",
      "velocity": 0.5039370078740157,
      "duration": "96i"
    },
    {
      "time": "127392i",
      "midiNote": 44,
      "noteName": "G#2",
      "velocity": 0.7559055118110236,
      "duration": "96i"
    },
    {
      "time": "127488i",
      "midiNote": 37,
      "noteName": "C#2",
      "velocity": 0.7559055118110236,
      "duration": "96i"
    },
    {
      "time": "127488i",
      "midiNote": 70,
      "noteName": "A#4",
      "velocity": 0.7559055118110236,
      "duration": "96i"
    },
    {
      "time": "127584i",
      "midiNote": 44,
      "noteName": "G#2",
      "velocity": 0.7559055118110236,
      "duration": "96i"
    },
    {
      "time": "127584i",
      "midiNote": 37,
      "noteName": "C#2",
      "velocity": 0.5039370078740157,
      "duration": "96i"
    },
    {
      "time": "127680i",
      "midiNote": 44,
      "noteName": "G#2",
      "velocity": 0.7559055118110236,
      "duration": "96i"
    },
    {
      "time": "127680i",
      "midiNote": 37,
      "noteName": "C#2",
      "velocity": 0.5039370078740157,
      "duration": "96i"
    },
    {
      "time": "127776i",
      "midiNote": 37,
      "noteName": "C#2",
      "velocity": 0.7559055118110236,
      "duration": "96i"
    },
    {
      "time": "127776i",
      "midiNote": 70,
      "noteName": "A#4",
      "velocity": 0.7559055118110236,
      "duration": "96i"
    },
    {
      "time": "127872i",
      "midiNote": 44,
      "noteName": "G#2",
      "velocity": 0.7559055118110236,
      "duration": "96i"
    },
    {
      "time": "127872i",
      "midiNote": 37,
      "noteName": "C#2",
      "velocity": 0.5039370078740157,
      "duration": "96i"
    },
    {
      "time": "127968i",
      "midiNote": 44,
      "noteName": "G#2",
      "velocity": 0.7559055118110236,
      "duration": "96i"
    },
    {
      "time": "127968i",
      "midiNote": 37,
      "noteName": "C#2",
      "velocity": 0.5039370078740157,
      "duration": "96i"
    },
    {
      "time": "128064i",
      "midiNote": 37,
      "noteName": "C#2",
      "velocity": 0.7559055118110236,
      "duration": "96i"
    },
    {
      "time": "128064i",
      "midiNote": 70,
      "noteName": "A#4",
      "velocity": 0.7559055118110236,
      "duration": "96i"
    },
    {
      "time": "128160i",
      "midiNote": 44,
      "noteName": "G#2",
      "velocity": 0.7559055118110236,
      "duration": "96i"
    },
    {
      "time": "128160i",
      "midiNote": 37,
      "noteName": "C#2",
      "velocity": 0.5039370078740157,
      "duration": "96i"
    },
    {
      "time": "128256i",
      "midiNote": 37,
      "noteName": "C#2",
      "velocity": 0.7559055118110236,
      "duration": "96i"
    },
    {
      "time": "128256i",
      "midiNote": 70,
      "noteName": "A#4",
      "velocity": 0.7559055118110236,
      "duration": "96i"
    },
    {
      "time": "128352i",
      "midiNote": 44,
      "noteName": "G#2",
      "velocity": 0.7559055118110236,
      "duration": "96i"
    },
    {
      "time": "128352i",
      "midiNote": 37,
      "noteName": "C#2",
      "velocity": 0.5039370078740157,
      "duration": "96i"
    },
    {
      "time": "128448i",
      "midiNote": 44,
      "noteName": "G#2",
      "velocity": 0.7559055118110236,
      "duration": "96i"
    },
    {
      "time": "128448i",
      "midiNote": 37,
      "noteName": "C#2",
      "velocity": 0.5039370078740157,
      "duration": "96i"
    },
    {
      "time": "128544i",
      "midiNote": 44,
      "noteName": "G#2",
      "velocity": 0.7559055118110236,
      "duration": "96i"
    },
    {
      "time": "128544i",
      "midiNote": 37,
      "noteName": "C#2",
      "velocity": 0.5039370078740157,
      "duration": "96i"
    },
    {
      "time": "128640i",
      "midiNote": 70,
      "noteName": "A#4",
      "velocity": 0.7559055118110236,
      "duration": "96i"
    },
    {
      "time": "128640i",
      "midiNote": 37,
      "noteName": "C#2",
      "velocity": 0.7559055118110236,
      "duration": "96i"
    },
    {
      "time": "128736i",
      "midiNote": 44,
      "noteName": "G#2",
      "velocity": 0.7559055118110236,
      "duration": "96i"
    },
    {
      "time": "128736i",
      "midiNote": 37,
      "noteName": "C#2",
      "velocity": 0.5039370078740157,
      "duration": "96i"
    },
    {
      "time": "128832i",
      "midiNote": 44,
      "noteName": "G#2",
      "velocity": 0.7559055118110236,
      "duration": "96i"
    },
    {
      "time": "128832i",
      "midiNote": 37,
      "noteName": "C#2",
      "velocity": 0.5039370078740157,
      "duration": "96i"
    },
    {
      "time": "128928i",
      "midiNote": 37,
      "noteName": "C#2",
      "velocity": 0.5039370078740157,
      "duration": "96i"
    },
    {
      "time": "128928i",
      "midiNote": 44,
      "noteName": "G#2",
      "velocity": 0.7559055118110236,
      "duration": "96i"
    },
    {
      "time": "129024i",
      "midiNote": 37,
      "noteName": "C#2",
      "velocity": 0.7559055118110236,
      "duration": "96i"
    },
    {
      "time": "129024i",
      "midiNote": 70,
      "noteName": "A#4",
      "velocity": 0.7559055118110236,
      "duration": "96i"
    },
    {
      "time": "129120i",
      "midiNote": 44,
      "noteName": "G#2",
      "velocity": 0.7559055118110236,
      "duration": "96i"
    },
    {
      "time": "129120i",
      "midiNote": 37,
      "noteName": "C#2",
      "velocity": 0.5039370078740157,
      "duration": "96i"
    },
    {
      "time": "129216i",
      "midiNote": 44,
      "noteName": "G#2",
      "velocity": 0.7559055118110236,
      "duration": "96i"
    },
    {
      "time": "129216i",
      "midiNote": 37,
      "noteName": "C#2",
      "velocity": 0.5039370078740157,
      "duration": "96i"
    },
    {
      "time": "129312i",
      "midiNote": 37,
      "noteName": "C#2",
      "velocity": 0.7559055118110236,
      "duration": "96i"
    },
    {
      "time": "129312i",
      "midiNote": 70,
      "noteName": "A#4",
      "velocity": 0.7559055118110236,
      "duration": "96i"
    },
    {
      "time": "129408i",
      "midiNote": 44,
      "noteName": "G#2",
      "velocity": 0.7559055118110236,
      "duration": "96i"
    },
    {
      "time": "129408i",
      "midiNote": 37,
      "noteName": "C#2",
      "velocity": 0.5039370078740157,
      "duration": "96i"
    },
    {
      "time": "129504i",
      "midiNote": 44,
      "noteName": "G#2",
      "velocity": 0.7559055118110236,
      "duration": "96i"
    },
    {
      "time": "129504i",
      "midiNote": 37,
      "noteName": "C#2",
      "velocity": 0.5039370078740157,
      "duration": "96i"
    },
    {
      "time": "129600i",
      "midiNote": 37,
      "noteName": "C#2",
      "velocity": 0.7559055118110236,
      "duration": "96i"
    },
    {
      "time": "129600i",
      "midiNote": 70,
      "noteName": "A#4",
      "velocity": 0.7559055118110236,
      "duration": "96i"
    },
    {
      "time": "129696i",
      "midiNote": 44,
      "noteName": "G#2",
      "velocity": 0.7559055118110236,
      "duration": "96i"
    },
    {
      "time": "129696i",
      "midiNote": 37,
      "noteName": "C#2",
      "velocity": 0.5039370078740157,
      "duration": "96i"
    },
    {
      "time": "129792i",
      "midiNote": 37,
      "noteName": "C#2",
      "velocity": 0.7559055118110236,
      "duration": "96i"
    },
    {
      "time": "129792i",
      "midiNote": 70,
      "noteName": "A#4",
      "velocity": 0.7559055118110236,
      "duration": "96i"
    },
    {
      "time": "129888i",
      "midiNote": 44,
      "noteName": "G#2",
      "velocity": 0.7559055118110236,
      "duration": "96i"
    },
    {
      "time": "129888i",
      "midiNote": 37,
      "noteName": "C#2",
      "velocity": 0.5039370078740157,
      "duration": "96i"
    },
    {
      "time": "129984i",
      "midiNote": 44,
      "noteName": "G#2",
      "velocity": 0.7559055118110236,
      "duration": "96i"
    },
    {
      "time": "129984i",
      "midiNote": 37,
      "noteName": "C#2",
      "velocity": 0.5039370078740157,
      "duration": "96i"
    },
    {
      "time": "130080i",
      "midiNote": 44,
      "noteName": "G#2",
      "velocity": 0.7559055118110236,
      "duration": "96i"
    },
    {
      "time": "130080i",
      "midiNote": 37,
      "noteName": "C#2",
      "velocity": 0.5039370078740157,
      "duration": "96i"
    },
    {
      "time": "130176i",
      "midiNote": 70,
      "noteName": "A#4",
      "velocity": 0.7559055118110236,
      "duration": "96i"
    },
    {
      "time": "130176i",
      "midiNote": 37,
      "noteName": "C#2",
      "velocity": 0.7559055118110236,
      "duration": "96i"
    },
    {
      "time": "130272i",
      "midiNote": 44,
      "noteName": "G#2",
      "velocity": 0.7559055118110236,
      "duration": "96i"
    },
    {
      "time": "130272i",
      "midiNote": 37,
      "noteName": "C#2",
      "velocity": 0.5039370078740157,
      "duration": "96i"
    },
    {
      "time": "130368i",
      "midiNote": 44,
      "noteName": "G#2",
      "velocity": 0.7559055118110236,
      "duration": "96i"
    },
    {
      "time": "130368i",
      "midiNote": 37,
      "noteName": "C#2",
      "velocity": 0.5039370078740157,
      "duration": "96i"
    },
    {
      "time": "130464i",
      "midiNote": 37,
      "noteName": "C#2",
      "velocity": 0.5039370078740157,
      "duration": "96i"
    },
    {
      "time": "130464i",
      "midiNote": 44,
      "noteName": "G#2",
      "velocity": 0.7559055118110236,
      "duration": "96i"
    },
    {
      "time": "130560i",
      "midiNote": 37,
      "noteName": "C#2",
      "velocity": 0.7559055118110236,
      "duration": "96i"
    },
    {
      "time": "130560i",
      "midiNote": 70,
      "noteName": "A#4",
      "velocity": 0.7559055118110236,
      "duration": "96i"
    },
    {
      "time": "130656i",
      "midiNote": 44,
      "noteName": "G#2",
      "velocity": 0.7559055118110236,
      "duration": "96i"
    },
    {
      "time": "130656i",
      "midiNote": 37,
      "noteName": "C#2",
      "velocity": 0.5039370078740157,
      "duration": "96i"
    },
    {
      "time": "130752i",
      "midiNote": 44,
      "noteName": "G#2",
      "velocity": 0.7559055118110236,
      "duration": "96i"
    },
    {
      "time": "130752i",
      "midiNote": 37,
      "noteName": "C#2",
      "velocity": 0.5039370078740157,
      "duration": "96i"
    },
    {
      "time": "130848i",
      "midiNote": 37,
      "noteName": "C#2",
      "velocity": 0.7559055118110236,
      "duration": "96i"
    },
    {
      "time": "130848i",
      "midiNote": 70,
      "noteName": "A#4",
      "velocity": 0.7559055118110236,
      "duration": "96i"
    },
    {
      "time": "130944i",
      "midiNote": 44,
      "noteName": "G#2",
      "velocity": 0.7559055118110236,
      "duration": "96i"
    },
    {
      "time": "130944i",
      "midiNote": 37,
      "noteName": "C#2",
      "velocity": 0.5039370078740157,
      "duration": "96i"
    },
    {
      "time": "131040i",
      "midiNote": 44,
      "noteName": "G#2",
      "velocity": 0.7559055118110236,
      "duration": "96i"
    },
    {
      "time": "131040i",
      "midiNote": 37,
      "noteName": "C#2",
      "velocity": 0.5039370078740157,
      "duration": "96i"
    },
    {
      "time": "131136i",
      "midiNote": 37,
      "noteName": "C#2",
      "velocity": 0.7559055118110236,
      "duration": "96i"
    },
    {
      "time": "131136i",
      "midiNote": 70,
      "noteName": "A#4",
      "velocity": 0.7559055118110236,
      "duration": "96i"
    },
    {
      "time": "131232i",
      "midiNote": 44,
      "noteName": "G#2",
      "velocity": 0.7559055118110236,
      "duration": "96i"
    },
    {
      "time": "131232i",
      "midiNote": 37,
      "noteName": "C#2",
      "velocity": 0.5039370078740157,
      "duration": "96i"
    },
    {
      "time": "131328i",
      "midiNote": 37,
      "noteName": "C#2",
      "velocity": 0.7559055118110236,
      "duration": "96i"
    },
    {
      "time": "131328i",
      "midiNote": 70,
      "noteName": "A#4",
      "velocity": 0.7559055118110236,
      "duration": "96i"
    },
    {
      "time": "131424i",
      "midiNote": 44,
      "noteName": "G#2",
      "velocity": 0.7559055118110236,
      "duration": "96i"
    },
    {
      "time": "131424i",
      "midiNote": 37,
      "noteName": "C#2",
      "velocity": 0.5039370078740157,
      "duration": "96i"
    },
    {
      "time": "131520i",
      "midiNote": 44,
      "noteName": "G#2",
      "velocity": 0.7559055118110236,
      "duration": "96i"
    },
    {
      "time": "131520i",
      "midiNote": 37,
      "noteName": "C#2",
      "velocity": 0.5039370078740157,
      "duration": "96i"
    },
    {
      "time": "131616i",
      "midiNote": 44,
      "noteName": "G#2",
      "velocity": 0.7559055118110236,
      "duration": "96i"
    },
    {
      "time": "131616i",
      "midiNote": 37,
      "noteName": "C#2",
      "velocity": 0.5039370078740157,
      "duration": "96i"
    },
    {
      "time": "131712i",
      "midiNote": 70,
      "noteName": "A#4",
      "velocity": 0.7559055118110236,
      "duration": "96i"
    },
    {
      "time": "131712i",
      "midiNote": 37,
      "noteName": "C#2",
      "velocity": 0.7559055118110236,
      "duration": "96i"
    },
    {
      "time": "131808i",
      "midiNote": 44,
      "noteName": "G#2",
      "velocity": 0.7559055118110236,
      "duration": "96i"
    },
    {
      "time": "131808i",
      "midiNote": 37,
      "noteName": "C#2",
      "velocity": 0.5039370078740157,
      "duration": "96i"
    },
    {
      "time": "131904i",
      "midiNote": 44,
      "noteName": "G#2",
      "velocity": 0.7559055118110236,
      "duration": "96i"
    },
    {
      "time": "131904i",
      "midiNote": 37,
      "noteName": "C#2",
      "velocity": 0.5039370078740157,
      "duration": "96i"
    },
    {
      "time": "132000i",
      "midiNote": 37,
      "noteName": "C#2",
      "velocity": 0.5039370078740157,
      "duration": "96i"
    },
    {
      "time": "132000i",
      "midiNote": 44,
      "noteName": "G#2",
      "velocity": 0.7559055118110236,
      "duration": "96i"
    },
    {
      "time": "132096i",
      "midiNote": 37,
      "noteName": "C#2",
      "velocity": 0.7559055118110236,
      "duration": "96i"
    },
    {
      "time": "132096i",
      "midiNote": 70,
      "noteName": "A#4",
      "velocity": 0.7559055118110236,
      "duration": "96i"
    },
    {
      "time": "132192i",
      "midiNote": 44,
      "noteName": "G#2",
      "velocity": 0.7559055118110236,
      "duration": "96i"
    },
    {
      "time": "132192i",
      "midiNote": 37,
      "noteName": "C#2",
      "velocity": 0.5039370078740157,
      "duration": "96i"
    },
    {
      "time": "132288i",
      "midiNote": 44,
      "noteName": "G#2",
      "velocity": 0.7559055118110236,
      "duration": "96i"
    },
    {
      "time": "132288i",
      "midiNote": 37,
      "noteName": "C#2",
      "velocity": 0.5039370078740157,
      "duration": "96i"
    },
    {
      "time": "132384i",
      "midiNote": 37,
      "noteName": "C#2",
      "velocity": 0.7559055118110236,
      "duration": "96i"
    },
    {
      "time": "132384i",
      "midiNote": 70,
      "noteName": "A#4",
      "velocity": 0.7559055118110236,
      "duration": "96i"
    },
    {
      "time": "132480i",
      "midiNote": 44,
      "noteName": "G#2",
      "velocity": 0.7559055118110236,
      "duration": "96i"
    },
    {
      "time": "132480i",
      "midiNote": 37,
      "noteName": "C#2",
      "velocity": 0.5039370078740157,
      "duration": "96i"
    },
    {
      "time": "132576i",
      "midiNote": 44,
      "noteName": "G#2",
      "velocity": 0.7559055118110236,
      "duration": "96i"
    },
    {
      "time": "132576i",
      "midiNote": 37,
      "noteName": "C#2",
      "velocity": 0.5039370078740157,
      "duration": "96i"
    },
    {
      "time": "132672i",
      "midiNote": 37,
      "noteName": "C#2",
      "velocity": 0.7559055118110236,
      "duration": "96i"
    },
    {
      "time": "132672i",
      "midiNote": 70,
      "noteName": "A#4",
      "velocity": 0.7559055118110236,
      "duration": "96i"
    },
    {
      "time": "132768i",
      "midiNote": 44,
      "noteName": "G#2",
      "velocity": 0.7559055118110236,
      "duration": "96i"
    },
    {
      "time": "132768i",
      "midiNote": 37,
      "noteName": "C#2",
      "velocity": 0.5039370078740157,
      "duration": "96i"
    },
    {
      "time": "132864i",
      "midiNote": 37,
      "noteName": "C#2",
      "velocity": 0.7559055118110236,
      "duration": "96i"
    },
    {
      "time": "132864i",
      "midiNote": 70,
      "noteName": "A#4",
      "velocity": 0.7559055118110236,
      "duration": "96i"
    },
    {
      "time": "132960i",
      "midiNote": 44,
      "noteName": "G#2",
      "velocity": 0.7559055118110236,
      "duration": "96i"
    },
    {
      "time": "132960i",
      "midiNote": 37,
      "noteName": "C#2",
      "velocity": 0.5039370078740157,
      "duration": "96i"
    },
    {
      "time": "133056i",
      "midiNote": 44,
      "noteName": "G#2",
      "velocity": 0.7559055118110236,
      "duration": "96i"
    },
    {
      "time": "133056i",
      "midiNote": 37,
      "noteName": "C#2",
      "velocity": 0.5039370078740157,
      "duration": "96i"
    },
    {
      "time": "133152i",
      "midiNote": 44,
      "noteName": "G#2",
      "velocity": 0.7559055118110236,
      "duration": "96i"
    },
    {
      "time": "133152i",
      "midiNote": 37,
      "noteName": "C#2",
      "velocity": 0.5039370078740157,
      "duration": "96i"
    },
    {
      "time": "133248i",
      "midiNote": 70,
      "noteName": "A#4",
      "velocity": 0.7559055118110236,
      "duration": "96i"
    },
    {
      "time": "133248i",
      "midiNote": 37,
      "noteName": "C#2",
      "velocity": 0.7559055118110236,
      "duration": "96i"
    },
    {
      "time": "133344i",
      "midiNote": 44,
      "noteName": "G#2",
      "velocity": 0.7559055118110236,
      "duration": "96i"
    },
    {
      "time": "133344i",
      "midiNote": 37,
      "noteName": "C#2",
      "velocity": 0.5039370078740157,
      "duration": "96i"
    },
    {
      "time": "133440i",
      "midiNote": 44,
      "noteName": "G#2",
      "velocity": 0.7559055118110236,
      "duration": "96i"
    },
    {
      "time": "133440i",
      "midiNote": 37,
      "noteName": "C#2",
      "velocity": 0.5039370078740157,
      "duration": "96i"
    },
    {
      "time": "133536i",
      "midiNote": 37,
      "noteName": "C#2",
      "velocity": 0.5039370078740157,
      "duration": "96i"
    },
    {
      "time": "133536i",
      "midiNote": 44,
      "noteName": "G#2",
      "velocity": 0.7559055118110236,
      "duration": "96i"
    },
    {
      "time": "133632i",
      "midiNote": 37,
      "noteName": "C#2",
      "velocity": 0.7559055118110236,
      "duration": "96i"
    },
    {
      "time": "133632i",
      "midiNote": 70,
      "noteName": "A#4",
      "velocity": 0.7559055118110236,
      "duration": "96i"
    },
    {
      "time": "133728i",
      "midiNote": 44,
      "noteName": "G#2",
      "velocity": 0.7559055118110236,
      "duration": "96i"
    },
    {
      "time": "133728i",
      "midiNote": 37,
      "noteName": "C#2",
      "velocity": 0.5039370078740157,
      "duration": "96i"
    },
    {
      "time": "133824i",
      "midiNote": 44,
      "noteName": "G#2",
      "velocity": 0.7559055118110236,
      "duration": "96i"
    },
    {
      "time": "133824i",
      "midiNote": 37,
      "noteName": "C#2",
      "velocity": 0.5039370078740157,
      "duration": "96i"
    },
    {
      "time": "133920i",
      "midiNote": 37,
      "noteName": "C#2",
      "velocity": 0.7559055118110236,
      "duration": "96i"
    },
    {
      "time": "133920i",
      "midiNote": 70,
      "noteName": "A#4",
      "velocity": 0.7559055118110236,
      "duration": "96i"
    },
    {
      "time": "134016i",
      "midiNote": 44,
      "noteName": "G#2",
      "velocity": 0.7559055118110236,
      "duration": "96i"
    },
    {
      "time": "134016i",
      "midiNote": 37,
      "noteName": "C#2",
      "velocity": 0.5039370078740157,
      "duration": "96i"
    },
    {
      "time": "134112i",
      "midiNote": 44,
      "noteName": "G#2",
      "velocity": 0.7559055118110236,
      "duration": "96i"
    },
    {
      "time": "134112i",
      "midiNote": 37,
      "noteName": "C#2",
      "velocity": 0.5039370078740157,
      "duration": "96i"
    },
    {
      "time": "134208i",
      "midiNote": 37,
      "noteName": "C#2",
      "velocity": 0.7559055118110236,
      "duration": "96i"
    },
    {
      "time": "134208i",
      "midiNote": 70,
      "noteName": "A#4",
      "velocity": 0.7559055118110236,
      "duration": "96i"
    },
    {
      "time": "134304i",
      "midiNote": 44,
      "noteName": "G#2",
      "velocity": 0.7559055118110236,
      "duration": "96i"
    },
    {
      "time": "134304i",
      "midiNote": 37,
      "noteName": "C#2",
      "velocity": 0.5039370078740157,
      "duration": "96i"
    },
    {
      "time": "134400i",
      "midiNote": 37,
      "noteName": "C#2",
      "velocity": 0.7559055118110236,
      "duration": "96i"
    },
    {
      "time": "134400i",
      "midiNote": 70,
      "noteName": "A#4",
      "velocity": 0.7559055118110236,
      "duration": "96i"
    },
    {
      "time": "134496i",
      "midiNote": 44,
      "noteName": "G#2",
      "velocity": 0.7559055118110236,
      "duration": "96i"
    },
    {
      "time": "134496i",
      "midiNote": 37,
      "noteName": "C#2",
      "velocity": 0.5039370078740157,
      "duration": "96i"
    },
    {
      "time": "134592i",
      "midiNote": 44,
      "noteName": "G#2",
      "velocity": 0.7559055118110236,
      "duration": "96i"
    },
    {
      "time": "134592i",
      "midiNote": 37,
      "noteName": "C#2",
      "velocity": 0.5039370078740157,
      "duration": "96i"
    },
    {
      "time": "134688i",
      "midiNote": 44,
      "noteName": "G#2",
      "velocity": 0.7559055118110236,
      "duration": "96i"
    },
    {
      "time": "134688i",
      "midiNote": 37,
      "noteName": "C#2",
      "velocity": 0.5039370078740157,
      "duration": "96i"
    },
    {
      "time": "134784i",
      "midiNote": 70,
      "noteName": "A#4",
      "velocity": 0.7559055118110236,
      "duration": "96i"
    },
    {
      "time": "134784i",
      "midiNote": 37,
      "noteName": "C#2",
      "velocity": 0.7559055118110236,
      "duration": "96i"
    },
    {
      "time": "134880i",
      "midiNote": 44,
      "noteName": "G#2",
      "velocity": 0.7559055118110236,
      "duration": "96i"
    },
    {
      "time": "134880i",
      "midiNote": 37,
      "noteName": "C#2",
      "velocity": 0.5039370078740157,
      "duration": "96i"
    },
    {
      "time": "134976i",
      "midiNote": 44,
      "noteName": "G#2",
      "velocity": 0.7559055118110236,
      "duration": "96i"
    },
    {
      "time": "134976i",
      "midiNote": 37,
      "noteName": "C#2",
      "velocity": 0.5039370078740157,
      "duration": "96i"
    },
    {
      "time": "135072i",
      "midiNote": 37,
      "noteName": "C#2",
      "velocity": 0.5039370078740157,
      "duration": "96i"
    },
    {
      "time": "135072i",
      "midiNote": 44,
      "noteName": "G#2",
      "velocity": 0.7559055118110236,
      "duration": "96i"
    },
    {
      "time": "135168i",
      "midiNote": 37,
      "noteName": "C#2",
      "velocity": 0.7559055118110236,
      "duration": "96i"
    },
    {
      "time": "135168i",
      "midiNote": 70,
      "noteName": "A#4",
      "velocity": 0.7559055118110236,
      "duration": "96i"
    },
    {
      "time": "135264i",
      "midiNote": 44,
      "noteName": "G#2",
      "velocity": 0.7559055118110236,
      "duration": "96i"
    },
    {
      "time": "135264i",
      "midiNote": 37,
      "noteName": "C#2",
      "velocity": 0.5039370078740157,
      "duration": "96i"
    },
    {
      "time": "135360i",
      "midiNote": 44,
      "noteName": "G#2",
      "velocity": 0.7559055118110236,
      "duration": "96i"
    },
    {
      "time": "135360i",
      "midiNote": 37,
      "noteName": "C#2",
      "velocity": 0.5039370078740157,
      "duration": "96i"
    },
    {
      "time": "135456i",
      "midiNote": 37,
      "noteName": "C#2",
      "velocity": 0.7559055118110236,
      "duration": "96i"
    },
    {
      "time": "135456i",
      "midiNote": 70,
      "noteName": "A#4",
      "velocity": 0.7559055118110236,
      "duration": "96i"
    },
    {
      "time": "135552i",
      "midiNote": 44,
      "noteName": "G#2",
      "velocity": 0.7559055118110236,
      "duration": "96i"
    },
    {
      "time": "135552i",
      "midiNote": 37,
      "noteName": "C#2",
      "velocity": 0.5039370078740157,
      "duration": "96i"
    },
    {
      "time": "135648i",
      "midiNote": 44,
      "noteName": "G#2",
      "velocity": 0.7559055118110236,
      "duration": "96i"
    },
    {
      "time": "135648i",
      "midiNote": 37,
      "noteName": "C#2",
      "velocity": 0.5039370078740157,
      "duration": "96i"
    },
    {
      "time": "135744i",
      "midiNote": 37,
      "noteName": "C#2",
      "velocity": 0.7559055118110236,
      "duration": "96i"
    },
    {
      "time": "135744i",
      "midiNote": 70,
      "noteName": "A#4",
      "velocity": 0.7559055118110236,
      "duration": "96i"
    },
    {
      "time": "135840i",
      "midiNote": 44,
      "noteName": "G#2",
      "velocity": 0.7559055118110236,
      "duration": "96i"
    },
    {
      "time": "135840i",
      "midiNote": 37,
      "noteName": "C#2",
      "velocity": 0.5039370078740157,
      "duration": "96i"
    },
    {
      "time": "135936i",
      "midiNote": 37,
      "noteName": "C#2",
      "velocity": 0.7559055118110236,
      "duration": "96i"
    },
    {
      "time": "135936i",
      "midiNote": 70,
      "noteName": "A#4",
      "velocity": 0.7559055118110236,
      "duration": "96i"
    },
    {
      "time": "136032i",
      "midiNote": 44,
      "noteName": "G#2",
      "velocity": 0.7559055118110236,
      "duration": "96i"
    },
    {
      "time": "136032i",
      "midiNote": 37,
      "noteName": "C#2",
      "velocity": 0.5039370078740157,
      "duration": "96i"
    },
    {
      "time": "136128i",
      "midiNote": 44,
      "noteName": "G#2",
      "velocity": 0.7559055118110236,
      "duration": "96i"
    },
    {
      "time": "136128i",
      "midiNote": 37,
      "noteName": "C#2",
      "velocity": 0.5039370078740157,
      "duration": "96i"
    },
    {
      "time": "136224i",
      "midiNote": 44,
      "noteName": "G#2",
      "velocity": 0.7559055118110236,
      "duration": "96i"
    },
    {
      "time": "136224i",
      "midiNote": 37,
      "noteName": "C#2",
      "velocity": 0.5039370078740157,
      "duration": "96i"
    },
    {
      "time": "136320i",
      "midiNote": 70,
      "noteName": "A#4",
      "velocity": 0.7559055118110236,
      "duration": "96i"
    },
    {
      "time": "136320i",
      "midiNote": 37,
      "noteName": "C#2",
      "velocity": 0.7559055118110236,
      "duration": "96i"
    },
    {
      "time": "136416i",
      "midiNote": 44,
      "noteName": "G#2",
      "velocity": 0.7559055118110236,
      "duration": "96i"
    },
    {
      "time": "136416i",
      "midiNote": 37,
      "noteName": "C#2",
      "velocity": 0.5039370078740157,
      "duration": "96i"
    },
    {
      "time": "136512i",
      "midiNote": 44,
      "noteName": "G#2",
      "velocity": 0.7559055118110236,
      "duration": "96i"
    },
    {
      "time": "136512i",
      "midiNote": 37,
      "noteName": "C#2",
      "velocity": 0.5039370078740157,
      "duration": "96i"
    },
    {
      "time": "136608i",
      "midiNote": 37,
      "noteName": "C#2",
      "velocity": 0.5039370078740157,
      "duration": "96i"
    },
    {
      "time": "136608i",
      "midiNote": 44,
      "noteName": "G#2",
      "velocity": 0.7559055118110236,
      "duration": "96i"
    },
    {
      "time": "136704i",
      "midiNote": 37,
      "noteName": "C#2",
      "velocity": 0.7559055118110236,
      "duration": "96i"
    },
    {
      "time": "136704i",
      "midiNote": 70,
      "noteName": "A#4",
      "velocity": 0.7559055118110236,
      "duration": "96i"
    },
    {
      "time": "136800i",
      "midiNote": 44,
      "noteName": "G#2",
      "velocity": 0.7559055118110236,
      "duration": "96i"
    },
    {
      "time": "136800i",
      "midiNote": 37,
      "noteName": "C#2",
      "velocity": 0.5039370078740157,
      "duration": "96i"
    },
    {
      "time": "136896i",
      "midiNote": 44,
      "noteName": "G#2",
      "velocity": 0.7559055118110236,
      "duration": "96i"
    },
    {
      "time": "136896i",
      "midiNote": 37,
      "noteName": "C#2",
      "velocity": 0.5039370078740157,
      "duration": "96i"
    },
    {
      "time": "136992i",
      "midiNote": 37,
      "noteName": "C#2",
      "velocity": 0.7559055118110236,
      "duration": "96i"
    },
    {
      "time": "136992i",
      "midiNote": 70,
      "noteName": "A#4",
      "velocity": 0.7559055118110236,
      "duration": "96i"
    },
    {
      "time": "137088i",
      "midiNote": 44,
      "noteName": "G#2",
      "velocity": 0.7559055118110236,
      "duration": "96i"
    },
    {
      "time": "137088i",
      "midiNote": 37,
      "noteName": "C#2",
      "velocity": 0.5039370078740157,
      "duration": "96i"
    },
    {
      "time": "137184i",
      "midiNote": 44,
      "noteName": "G#2",
      "velocity": 0.7559055118110236,
      "duration": "96i"
    },
    {
      "time": "137184i",
      "midiNote": 37,
      "noteName": "C#2",
      "velocity": 0.5039370078740157,
      "duration": "96i"
    },
    {
      "time": "137280i",
      "midiNote": 37,
      "noteName": "C#2",
      "velocity": 0.7559055118110236,
      "duration": "96i"
    },
    {
      "time": "137280i",
      "midiNote": 70,
      "noteName": "A#4",
      "velocity": 0.7559055118110236,
      "duration": "96i"
    },
    {
      "time": "137376i",
      "midiNote": 44,
      "noteName": "G#2",
      "velocity": 0.7559055118110236,
      "duration": "96i"
    },
    {
      "time": "137376i",
      "midiNote": 37,
      "noteName": "C#2",
      "velocity": 0.5039370078740157,
      "duration": "96i"
    },
    {
      "time": "137472i",
      "midiNote": 37,
      "noteName": "C#2",
      "velocity": 0.7559055118110236,
      "duration": "96i"
    },
    {
      "time": "137472i",
      "midiNote": 70,
      "noteName": "A#4",
      "velocity": 0.7559055118110236,
      "duration": "96i"
    },
    {
      "time": "137568i",
      "midiNote": 44,
      "noteName": "G#2",
      "velocity": 0.7559055118110236,
      "duration": "96i"
    },
    {
      "time": "137568i",
      "midiNote": 37,
      "noteName": "C#2",
      "velocity": 0.5039370078740157,
      "duration": "96i"
    },
    {
      "time": "137664i",
      "midiNote": 44,
      "noteName": "G#2",
      "velocity": 0.7559055118110236,
      "duration": "96i"
    },
    {
      "time": "137664i",
      "midiNote": 37,
      "noteName": "C#2",
      "velocity": 0.5039370078740157,
      "duration": "96i"
    },
    {
      "time": "137760i",
      "midiNote": 44,
      "noteName": "G#2",
      "velocity": 0.7559055118110236,
      "duration": "96i"
    },
    {
      "time": "137760i",
      "midiNote": 37,
      "noteName": "C#2",
      "velocity": 0.5039370078740157,
      "duration": "96i"
    },
    {
      "time": "137856i",
      "midiNote": 70,
      "noteName": "A#4",
      "velocity": 0.7559055118110236,
      "duration": "96i"
    },
    {
      "time": "137856i",
      "midiNote": 37,
      "noteName": "C#2",
      "velocity": 0.7559055118110236,
      "duration": "96i"
    },
    {
      "time": "137952i",
      "midiNote": 44,
      "noteName": "G#2",
      "velocity": 0.7559055118110236,
      "duration": "96i"
    },
    {
      "time": "137952i",
      "midiNote": 37,
      "noteName": "C#2",
      "velocity": 0.5039370078740157,
      "duration": "96i"
    },
    {
      "time": "138048i",
      "midiNote": 44,
      "noteName": "G#2",
      "velocity": 0.7559055118110236,
      "duration": "96i"
    },
    {
      "time": "138048i",
      "midiNote": 37,
      "noteName": "C#2",
      "velocity": 0.5039370078740157,
      "duration": "96i"
    },
    {
      "time": "138144i",
      "midiNote": 37,
      "noteName": "C#2",
      "velocity": 0.5039370078740157,
      "duration": "96i"
    },
    {
      "time": "138144i",
      "midiNote": 44,
      "noteName": "G#2",
      "velocity": 0.7559055118110236,
      "duration": "96i"
    },
    {
      "time": "138240i",
      "midiNote": 37,
      "noteName": "C#2",
      "velocity": 0.7559055118110236,
      "duration": "96i"
    },
    {
      "time": "138240i",
      "midiNote": 70,
      "noteName": "A#4",
      "velocity": 0.7559055118110236,
      "duration": "96i"
    },
    {
      "time": "138336i",
      "midiNote": 44,
      "noteName": "G#2",
      "velocity": 0.7559055118110236,
      "duration": "96i"
    },
    {
      "time": "138336i",
      "midiNote": 37,
      "noteName": "C#2",
      "velocity": 0.5039370078740157,
      "duration": "96i"
    },
    {
      "time": "138432i",
      "midiNote": 44,
      "noteName": "G#2",
      "velocity": 0.7559055118110236,
      "duration": "96i"
    },
    {
      "time": "138432i",
      "midiNote": 37,
      "noteName": "C#2",
      "velocity": 0.5039370078740157,
      "duration": "96i"
    },
    {
      "time": "138528i",
      "midiNote": 37,
      "noteName": "C#2",
      "velocity": 0.7559055118110236,
      "duration": "96i"
    },
    {
      "time": "138528i",
      "midiNote": 70,
      "noteName": "A#4",
      "velocity": 0.7559055118110236,
      "duration": "96i"
    },
    {
      "time": "138624i",
      "midiNote": 44,
      "noteName": "G#2",
      "velocity": 0.7559055118110236,
      "duration": "96i"
    },
    {
      "time": "138624i",
      "midiNote": 37,
      "noteName": "C#2",
      "velocity": 0.5039370078740157,
      "duration": "96i"
    },
    {
      "time": "138720i",
      "midiNote": 44,
      "noteName": "G#2",
      "velocity": 0.7559055118110236,
      "duration": "96i"
    },
    {
      "time": "138720i",
      "midiNote": 37,
      "noteName": "C#2",
      "velocity": 0.5039370078740157,
      "duration": "96i"
    },
    {
      "time": "138816i",
      "midiNote": 37,
      "noteName": "C#2",
      "velocity": 0.7559055118110236,
      "duration": "96i"
    },
    {
      "time": "138816i",
      "midiNote": 70,
      "noteName": "A#4",
      "velocity": 0.7559055118110236,
      "duration": "96i"
    },
    {
      "time": "138912i",
      "midiNote": 44,
      "noteName": "G#2",
      "velocity": 0.7559055118110236,
      "duration": "96i"
    },
    {
      "time": "138912i",
      "midiNote": 37,
      "noteName": "C#2",
      "velocity": 0.5039370078740157,
      "duration": "96i"
    },
    {
      "time": "139008i",
      "midiNote": 37,
      "noteName": "C#2",
      "velocity": 0.7559055118110236,
      "duration": "96i"
    },
    {
      "time": "139008i",
      "midiNote": 70,
      "noteName": "A#4",
      "velocity": 0.7559055118110236,
      "duration": "96i"
    },
    {
      "time": "139104i",
      "midiNote": 44,
      "noteName": "G#2",
      "velocity": 0.7559055118110236,
      "duration": "96i"
    },
    {
      "time": "139104i",
      "midiNote": 37,
      "noteName": "C#2",
      "velocity": 0.5039370078740157,
      "duration": "96i"
    },
    {
      "time": "139200i",
      "midiNote": 44,
      "noteName": "G#2",
      "velocity": 0.7559055118110236,
      "duration": "96i"
    },
    {
      "time": "139200i",
      "midiNote": 37,
      "noteName": "C#2",
      "velocity": 0.5039370078740157,
      "duration": "96i"
    },
    {
      "time": "139296i",
      "midiNote": 44,
      "noteName": "G#2",
      "velocity": 0.7559055118110236,
      "duration": "96i"
    },
    {
      "time": "139296i",
      "midiNote": 37,
      "noteName": "C#2",
      "velocity": 0.5039370078740157,
      "duration": "96i"
    },
    {
      "time": "139392i",
      "midiNote": 70,
      "noteName": "A#4",
      "velocity": 0.7559055118110236,
      "duration": "96i"
    },
    {
      "time": "139392i",
      "midiNote": 37,
      "noteName": "C#2",
      "velocity": 0.7559055118110236,
      "duration": "96i"
    },
    {
      "time": "139488i",
      "midiNote": 44,
      "noteName": "G#2",
      "velocity": 0.7559055118110236,
      "duration": "96i"
    },
    {
      "time": "139488i",
      "midiNote": 37,
      "noteName": "C#2",
      "velocity": 0.5039370078740157,
      "duration": "96i"
    },
    {
      "time": "139584i",
      "midiNote": 44,
      "noteName": "G#2",
      "velocity": 0.7559055118110236,
      "duration": "96i"
    },
    {
      "time": "139584i",
      "midiNote": 37,
      "noteName": "C#2",
      "velocity": 0.5039370078740157,
      "duration": "96i"
    },
    {
      "time": "139680i",
      "midiNote": 37,
      "noteName": "C#2",
      "velocity": 0.5039370078740157,
      "duration": "96i"
    },
    {
      "time": "139680i",
      "midiNote": 44,
      "noteName": "G#2",
      "velocity": 0.7559055118110236,
      "duration": "96i"
    },
    {
      "time": "139776i",
      "midiNote": 37,
      "noteName": "C#2",
      "velocity": 0.7559055118110236,
      "duration": "96i"
    },
    {
      "time": "139776i",
      "midiNote": 70,
      "noteName": "A#4",
      "velocity": 0.7559055118110236,
      "duration": "96i"
    },
    {
      "time": "139872i",
      "midiNote": 44,
      "noteName": "G#2",
      "velocity": 0.7559055118110236,
      "duration": "96i"
    },
    {
      "time": "139872i",
      "midiNote": 37,
      "noteName": "C#2",
      "velocity": 0.5039370078740157,
      "duration": "96i"
    },
    {
      "time": "139968i",
      "midiNote": 44,
      "noteName": "G#2",
      "velocity": 0.7559055118110236,
      "duration": "96i"
    },
    {
      "time": "139968i",
      "midiNote": 37,
      "noteName": "C#2",
      "velocity": 0.5039370078740157,
      "duration": "96i"
    },
    {
      "time": "140064i",
      "midiNote": 37,
      "noteName": "C#2",
      "velocity": 0.7559055118110236,
      "duration": "96i"
    },
    {
      "time": "140064i",
      "midiNote": 70,
      "noteName": "A#4",
      "velocity": 0.7559055118110236,
      "duration": "96i"
    },
    {
      "time": "140160i",
      "midiNote": 44,
      "noteName": "G#2",
      "velocity": 0.7559055118110236,
      "duration": "96i"
    },
    {
      "time": "140160i",
      "midiNote": 37,
      "noteName": "C#2",
      "velocity": 0.5039370078740157,
      "duration": "96i"
    },
    {
      "time": "140256i",
      "midiNote": 44,
      "noteName": "G#2",
      "velocity": 0.7559055118110236,
      "duration": "96i"
    },
    {
      "time": "140256i",
      "midiNote": 37,
      "noteName": "C#2",
      "velocity": 0.5039370078740157,
      "duration": "96i"
    },
    {
      "time": "140352i",
      "midiNote": 37,
      "noteName": "C#2",
      "velocity": 0.7559055118110236,
      "duration": "96i"
    },
    {
      "time": "140352i",
      "midiNote": 70,
      "noteName": "A#4",
      "velocity": 0.7559055118110236,
      "duration": "96i"
    },
    {
      "time": "140448i",
      "midiNote": 44,
      "noteName": "G#2",
      "velocity": 0.7559055118110236,
      "duration": "96i"
    },
    {
      "time": "140448i",
      "midiNote": 37,
      "noteName": "C#2",
      "velocity": 0.5039370078740157,
      "duration": "96i"
    },
    {
      "time": "140544i",
      "midiNote": 37,
      "noteName": "C#2",
      "velocity": 0.7559055118110236,
      "duration": "96i"
    },
    {
      "time": "140544i",
      "midiNote": 70,
      "noteName": "A#4",
      "velocity": 0.7559055118110236,
      "duration": "96i"
    },
    {
      "time": "140640i",
      "midiNote": 44,
      "noteName": "G#2",
      "velocity": 0.7559055118110236,
      "duration": "96i"
    },
    {
      "time": "140640i",
      "midiNote": 37,
      "noteName": "C#2",
      "velocity": 0.5039370078740157,
      "duration": "96i"
    },
    {
      "time": "140736i",
      "midiNote": 44,
      "noteName": "G#2",
      "velocity": 0.7559055118110236,
      "duration": "96i"
    },
    {
      "time": "140736i",
      "midiNote": 37,
      "noteName": "C#2",
      "velocity": 0.5039370078740157,
      "duration": "96i"
    },
    {
      "time": "140832i",
      "midiNote": 44,
      "noteName": "G#2",
      "velocity": 0.7559055118110236,
      "duration": "96i"
    },
    {
      "time": "140832i",
      "midiNote": 37,
      "noteName": "C#2",
      "velocity": 0.5039370078740157,
      "duration": "96i"
    },
    {
      "time": "140928i",
      "midiNote": 70,
      "noteName": "A#4",
      "velocity": 0.7559055118110236,
      "duration": "96i"
    },
    {
      "time": "140928i",
      "midiNote": 37,
      "noteName": "C#2",
      "velocity": 0.7559055118110236,
      "duration": "96i"
    },
    {
      "time": "141024i",
      "midiNote": 44,
      "noteName": "G#2",
      "velocity": 0.7559055118110236,
      "duration": "96i"
    },
    {
      "time": "141024i",
      "midiNote": 37,
      "noteName": "C#2",
      "velocity": 0.5039370078740157,
      "duration": "96i"
    },
    {
      "time": "141120i",
      "midiNote": 44,
      "noteName": "G#2",
      "velocity": 0.7559055118110236,
      "duration": "96i"
    },
    {
      "time": "141120i",
      "midiNote": 37,
      "noteName": "C#2",
      "velocity": 0.5039370078740157,
      "duration": "96i"
    },
    {
      "time": "141216i",
      "midiNote": 37,
      "noteName": "C#2",
      "velocity": 0.5039370078740157,
      "duration": "96i"
    },
    {
      "time": "141216i",
      "midiNote": 44,
      "noteName": "G#2",
      "velocity": 0.7559055118110236,
      "duration": "96i"
    },
    {
      "time": "141312i",
      "midiNote": 37,
      "noteName": "C#2",
      "velocity": 0.7559055118110236,
      "duration": "96i"
    },
    {
      "time": "141312i",
      "midiNote": 70,
      "noteName": "A#4",
      "velocity": 0.7559055118110236,
      "duration": "96i"
    },
    {
      "time": "141408i",
      "midiNote": 44,
      "noteName": "G#2",
      "velocity": 0.7559055118110236,
      "duration": "96i"
    },
    {
      "time": "141408i",
      "midiNote": 37,
      "noteName": "C#2",
      "velocity": 0.5039370078740157,
      "duration": "96i"
    },
    {
      "time": "141504i",
      "midiNote": 44,
      "noteName": "G#2",
      "velocity": 0.7559055118110236,
      "duration": "96i"
    },
    {
      "time": "141504i",
      "midiNote": 37,
      "noteName": "C#2",
      "velocity": 0.5039370078740157,
      "duration": "96i"
    },
    {
      "time": "141600i",
      "midiNote": 37,
      "noteName": "C#2",
      "velocity": 0.7559055118110236,
      "duration": "96i"
    },
    {
      "time": "141600i",
      "midiNote": 70,
      "noteName": "A#4",
      "velocity": 0.7559055118110236,
      "duration": "96i"
    },
    {
      "time": "141696i",
      "midiNote": 44,
      "noteName": "G#2",
      "velocity": 0.7559055118110236,
      "duration": "96i"
    },
    {
      "time": "141696i",
      "midiNote": 37,
      "noteName": "C#2",
      "velocity": 0.5039370078740157,
      "duration": "96i"
    },
    {
      "time": "141792i",
      "midiNote": 44,
      "noteName": "G#2",
      "velocity": 0.7559055118110236,
      "duration": "96i"
    },
    {
      "time": "141792i",
      "midiNote": 37,
      "noteName": "C#2",
      "velocity": 0.5039370078740157,
      "duration": "96i"
    },
    {
      "time": "141888i",
      "midiNote": 37,
      "noteName": "C#2",
      "velocity": 0.7559055118110236,
      "duration": "96i"
    },
    {
      "time": "141888i",
      "midiNote": 70,
      "noteName": "A#4",
      "velocity": 0.7559055118110236,
      "duration": "96i"
    },
    {
      "time": "141984i",
      "midiNote": 44,
      "noteName": "G#2",
      "velocity": 0.7559055118110236,
      "duration": "96i"
    },
    {
      "time": "141984i",
      "midiNote": 37,
      "noteName": "C#2",
      "velocity": 0.5039370078740157,
      "duration": "96i"
    },
    {
      "time": "142080i",
      "midiNote": 37,
      "noteName": "C#2",
      "velocity": 0.7559055118110236,
      "duration": "96i"
    },
    {
      "time": "142080i",
      "midiNote": 70,
      "noteName": "A#4",
      "velocity": 0.7559055118110236,
      "duration": "96i"
    },
    {
      "time": "142176i",
      "midiNote": 44,
      "noteName": "G#2",
      "velocity": 0.7559055118110236,
      "duration": "96i"
    },
    {
      "time": "142176i",
      "midiNote": 37,
      "noteName": "C#2",
      "velocity": 0.5039370078740157,
      "duration": "96i"
    },
    {
      "time": "142272i",
      "midiNote": 44,
      "noteName": "G#2",
      "velocity": 0.7559055118110236,
      "duration": "96i"
    },
    {
      "time": "142272i",
      "midiNote": 37,
      "noteName": "C#2",
      "velocity": 0.5039370078740157,
      "duration": "96i"
    },
    {
      "time": "142368i",
      "midiNote": 44,
      "noteName": "G#2",
      "velocity": 0.7559055118110236,
      "duration": "96i"
    },
    {
      "time": "142368i",
      "midiNote": 37,
      "noteName": "C#2",
      "velocity": 0.5039370078740157,
      "duration": "96i"
    },
    {
      "time": "142464i",
      "midiNote": 70,
      "noteName": "A#4",
      "velocity": 0.7559055118110236,
      "duration": "96i"
    },
    {
      "time": "142464i",
      "midiNote": 37,
      "noteName": "C#2",
      "velocity": 0.7559055118110236,
      "duration": "96i"
    },
    {
      "time": "142560i",
      "midiNote": 44,
      "noteName": "G#2",
      "velocity": 0.7559055118110236,
      "duration": "96i"
    },
    {
      "time": "142560i",
      "midiNote": 37,
      "noteName": "C#2",
      "velocity": 0.5039370078740157,
      "duration": "96i"
    },
    {
      "time": "142656i",
      "midiNote": 44,
      "noteName": "G#2",
      "velocity": 0.7559055118110236,
      "duration": "96i"
    },
    {
      "time": "142656i",
      "midiNote": 37,
      "noteName": "C#2",
      "velocity": 0.5039370078740157,
      "duration": "96i"
    },
    {
      "time": "142752i",
      "midiNote": 37,
      "noteName": "C#2",
      "velocity": 0.5039370078740157,
      "duration": "96i"
    },
    {
      "time": "142752i",
      "midiNote": 44,
      "noteName": "G#2",
      "velocity": 0.7559055118110236,
      "duration": "96i"
    },
    {
      "time": "142848i",
      "midiNote": 37,
      "noteName": "C#2",
      "velocity": 0.7559055118110236,
      "duration": "96i"
    },
    {
      "time": "142848i",
      "midiNote": 70,
      "noteName": "A#4",
      "velocity": 0.7559055118110236,
      "duration": "96i"
    },
    {
      "time": "142944i",
      "midiNote": 44,
      "noteName": "G#2",
      "velocity": 0.7559055118110236,
      "duration": "96i"
    },
    {
      "time": "142944i",
      "midiNote": 37,
      "noteName": "C#2",
      "velocity": 0.5039370078740157,
      "duration": "96i"
    },
    {
      "time": "143040i",
      "midiNote": 44,
      "noteName": "G#2",
      "velocity": 0.7559055118110236,
      "duration": "96i"
    },
    {
      "time": "143040i",
      "midiNote": 37,
      "noteName": "C#2",
      "velocity": 0.5039370078740157,
      "duration": "96i"
    },
    {
      "time": "143136i",
      "midiNote": 37,
      "noteName": "C#2",
      "velocity": 0.7559055118110236,
      "duration": "96i"
    },
    {
      "time": "143136i",
      "midiNote": 70,
      "noteName": "A#4",
      "velocity": 0.7559055118110236,
      "duration": "96i"
    },
    {
      "time": "143232i",
      "midiNote": 44,
      "noteName": "G#2",
      "velocity": 0.7559055118110236,
      "duration": "96i"
    },
    {
      "time": "143232i",
      "midiNote": 37,
      "noteName": "C#2",
      "velocity": 0.5039370078740157,
      "duration": "96i"
    },
    {
      "time": "143328i",
      "midiNote": 44,
      "noteName": "G#2",
      "velocity": 0.7559055118110236,
      "duration": "96i"
    },
    {
      "time": "143328i",
      "midiNote": 37,
      "noteName": "C#2",
      "velocity": 0.5039370078740157,
      "duration": "96i"
    },
    {
      "time": "143424i",
      "midiNote": 37,
      "noteName": "C#2",
      "velocity": 0.7559055118110236,
      "duration": "96i"
    },
    {
      "time": "143424i",
      "midiNote": 70,
      "noteName": "A#4",
      "velocity": 0.7559055118110236,
      "duration": "96i"
    },
    {
      "time": "143520i",
      "midiNote": 44,
      "noteName": "G#2",
      "velocity": 0.7559055118110236,
      "duration": "96i"
    },
    {
      "time": "143520i",
      "midiNote": 37,
      "noteName": "C#2",
      "velocity": 0.5039370078740157,
      "duration": "96i"
    },
    {
      "time": "143616i",
      "midiNote": 37,
      "noteName": "C#2",
      "velocity": 0.7559055118110236,
      "duration": "96i"
    },
    {
      "time": "143616i",
      "midiNote": 70,
      "noteName": "A#4",
      "velocity": 0.7559055118110236,
      "duration": "96i"
    },
    {
      "time": "143712i",
      "midiNote": 44,
      "noteName": "G#2",
      "velocity": 0.7559055118110236,
      "duration": "96i"
    },
    {
      "time": "143712i",
      "midiNote": 37,
      "noteName": "C#2",
      "velocity": 0.5039370078740157,
      "duration": "96i"
    },
    {
      "time": "143808i",
      "midiNote": 44,
      "noteName": "G#2",
      "velocity": 0.7559055118110236,
      "duration": "96i"
    },
    {
      "time": "143808i",
      "midiNote": 37,
      "noteName": "C#2",
      "velocity": 0.5039370078740157,
      "duration": "96i"
    },
    {
      "time": "143904i",
      "midiNote": 44,
      "noteName": "G#2",
      "velocity": 0.7559055118110236,
      "duration": "96i"
    },
    {
      "time": "143904i",
      "midiNote": 37,
      "noteName": "C#2",
      "velocity": 0.5039370078740157,
      "duration": "96i"
    },
    {
      "time": "144000i",
      "midiNote": 70,
      "noteName": "A#4",
      "velocity": 0.7559055118110236,
      "duration": "96i"
    },
    {
      "time": "144000i",
      "midiNote": 37,
      "noteName": "C#2",
      "velocity": 0.7559055118110236,
      "duration": "96i"
    },
    {
      "time": "144096i",
      "midiNote": 44,
      "noteName": "G#2",
      "velocity": 0.7559055118110236,
      "duration": "96i"
    },
    {
      "time": "144096i",
      "midiNote": 37,
      "noteName": "C#2",
      "velocity": 0.5039370078740157,
      "duration": "96i"
    },
    {
      "time": "144192i",
      "midiNote": 44,
      "noteName": "G#2",
      "velocity": 0.7559055118110236,
      "duration": "96i"
    },
    {
      "time": "144192i",
      "midiNote": 37,
      "noteName": "C#2",
      "velocity": 0.5039370078740157,
      "duration": "96i"
    },
    {
      "time": "144288i",
      "midiNote": 37,
      "noteName": "C#2",
      "velocity": 0.5039370078740157,
      "duration": "96i"
    },
    {
      "time": "144288i",
      "midiNote": 44,
      "noteName": "G#2",
      "velocity": 0.7559055118110236,
      "duration": "96i"
    },
    {
      "time": "144384i",
      "midiNote": 37,
      "noteName": "C#2",
      "velocity": 0.7559055118110236,
      "duration": "96i"
    },
    {
      "time": "144384i",
      "midiNote": 70,
      "noteName": "A#4",
      "velocity": 0.7559055118110236,
      "duration": "96i"
    },
    {
      "time": "144480i",
      "midiNote": 44,
      "noteName": "G#2",
      "velocity": 0.7559055118110236,
      "duration": "96i"
    },
    {
      "time": "144480i",
      "midiNote": 37,
      "noteName": "C#2",
      "velocity": 0.5039370078740157,
      "duration": "96i"
    },
    {
      "time": "144576i",
      "midiNote": 44,
      "noteName": "G#2",
      "velocity": 0.7559055118110236,
      "duration": "96i"
    },
    {
      "time": "144576i",
      "midiNote": 37,
      "noteName": "C#2",
      "velocity": 0.5039370078740157,
      "duration": "96i"
    },
    {
      "time": "144672i",
      "midiNote": 37,
      "noteName": "C#2",
      "velocity": 0.7559055118110236,
      "duration": "96i"
    },
    {
      "time": "144672i",
      "midiNote": 70,
      "noteName": "A#4",
      "velocity": 0.7559055118110236,
      "duration": "96i"
    },
    {
      "time": "144768i",
      "midiNote": 44,
      "noteName": "G#2",
      "velocity": 0.7559055118110236,
      "duration": "96i"
    },
    {
      "time": "144768i",
      "midiNote": 37,
      "noteName": "C#2",
      "velocity": 0.5039370078740157,
      "duration": "96i"
    },
    {
      "time": "144864i",
      "midiNote": 44,
      "noteName": "G#2",
      "velocity": 0.7559055118110236,
      "duration": "96i"
    },
    {
      "time": "144864i",
      "midiNote": 37,
      "noteName": "C#2",
      "velocity": 0.5039370078740157,
      "duration": "96i"
    },
    {
      "time": "144960i",
      "midiNote": 37,
      "noteName": "C#2",
      "velocity": 0.7559055118110236,
      "duration": "96i"
    },
    {
      "time": "144960i",
      "midiNote": 70,
      "noteName": "A#4",
      "velocity": 0.7559055118110236,
      "duration": "96i"
    },
    {
      "time": "145056i",
      "midiNote": 44,
      "noteName": "G#2",
      "velocity": 0.7559055118110236,
      "duration": "96i"
    },
    {
      "time": "145056i",
      "midiNote": 37,
      "noteName": "C#2",
      "velocity": 0.5039370078740157,
      "duration": "96i"
    },
    {
      "time": "145152i",
      "midiNote": 37,
      "noteName": "C#2",
      "velocity": 0.7559055118110236,
      "duration": "96i"
    },
    {
      "time": "145152i",
      "midiNote": 70,
      "noteName": "A#4",
      "velocity": 0.7559055118110236,
      "duration": "96i"
    },
    {
      "time": "145248i",
      "midiNote": 44,
      "noteName": "G#2",
      "velocity": 0.7559055118110236,
      "duration": "96i"
    },
    {
      "time": "145248i",
      "midiNote": 37,
      "noteName": "C#2",
      "velocity": 0.5039370078740157,
      "duration": "96i"
    },
    {
      "time": "145344i",
      "midiNote": 44,
      "noteName": "G#2",
      "velocity": 0.7559055118110236,
      "duration": "96i"
    },
    {
      "time": "145344i",
      "midiNote": 37,
      "noteName": "C#2",
      "velocity": 0.5039370078740157,
      "duration": "96i"
    },
    {
      "time": "145440i",
      "midiNote": 44,
      "noteName": "G#2",
      "velocity": 0.7559055118110236,
      "duration": "96i"
    },
    {
      "time": "145440i",
      "midiNote": 37,
      "noteName": "C#2",
      "velocity": 0.5039370078740157,
      "duration": "96i"
    },
    {
      "time": "145536i",
      "midiNote": 70,
      "noteName": "A#4",
      "velocity": 0.7559055118110236,
      "duration": "96i"
    },
    {
      "time": "145536i",
      "midiNote": 37,
      "noteName": "C#2",
      "velocity": 0.7559055118110236,
      "duration": "96i"
    },
    {
      "time": "145632i",
      "midiNote": 44,
      "noteName": "G#2",
      "velocity": 0.7559055118110236,
      "duration": "96i"
    },
    {
      "time": "145632i",
      "midiNote": 37,
      "noteName": "C#2",
      "velocity": 0.5039370078740157,
      "duration": "96i"
    },
    {
      "time": "145728i",
      "midiNote": 44,
      "noteName": "G#2",
      "velocity": 0.7559055118110236,
      "duration": "96i"
    },
    {
      "time": "145728i",
      "midiNote": 37,
      "noteName": "C#2",
      "velocity": 0.5039370078740157,
      "duration": "96i"
    },
    {
      "time": "145824i",
      "midiNote": 37,
      "noteName": "C#2",
      "velocity": 0.5039370078740157,
      "duration": "96i"
    },
    {
      "time": "145824i",
      "midiNote": 44,
      "noteName": "G#2",
      "velocity": 0.7559055118110236,
      "duration": "96i"
    },
    {
      "time": "145920i",
      "midiNote": 37,
      "noteName": "C#2",
      "velocity": 0.7559055118110236,
      "duration": "96i"
    },
    {
      "time": "145920i",
      "midiNote": 70,
      "noteName": "A#4",
      "velocity": 0.7559055118110236,
      "duration": "96i"
    },
    {
      "time": "146016i",
      "midiNote": 44,
      "noteName": "G#2",
      "velocity": 0.7559055118110236,
      "duration": "96i"
    },
    {
      "time": "146016i",
      "midiNote": 37,
      "noteName": "C#2",
      "velocity": 0.5039370078740157,
      "duration": "96i"
    },
    {
      "time": "146112i",
      "midiNote": 44,
      "noteName": "G#2",
      "velocity": 0.7559055118110236,
      "duration": "96i"
    },
    {
      "time": "146112i",
      "midiNote": 37,
      "noteName": "C#2",
      "velocity": 0.5039370078740157,
      "duration": "96i"
    },
    {
      "time": "146208i",
      "midiNote": 37,
      "noteName": "C#2",
      "velocity": 0.7559055118110236,
      "duration": "96i"
    },
    {
      "time": "146208i",
      "midiNote": 70,
      "noteName": "A#4",
      "velocity": 0.7559055118110236,
      "duration": "96i"
    },
    {
      "time": "146304i",
      "midiNote": 44,
      "noteName": "G#2",
      "velocity": 0.7559055118110236,
      "duration": "96i"
    },
    {
      "time": "146304i",
      "midiNote": 37,
      "noteName": "C#2",
      "velocity": 0.5039370078740157,
      "duration": "96i"
    },
    {
      "time": "146400i",
      "midiNote": 44,
      "noteName": "G#2",
      "velocity": 0.7559055118110236,
      "duration": "96i"
    },
    {
      "time": "146400i",
      "midiNote": 37,
      "noteName": "C#2",
      "velocity": 0.5039370078740157,
      "duration": "96i"
    },
    {
      "time": "146496i",
      "midiNote": 37,
      "noteName": "C#2",
      "velocity": 0.7559055118110236,
      "duration": "96i"
    },
    {
      "time": "146496i",
      "midiNote": 70,
      "noteName": "A#4",
      "velocity": 0.7559055118110236,
      "duration": "96i"
    },
    {
      "time": "146592i",
      "midiNote": 44,
      "noteName": "G#2",
      "velocity": 0.7559055118110236,
      "duration": "96i"
    },
    {
      "time": "146592i",
      "midiNote": 37,
      "noteName": "C#2",
      "velocity": 0.5039370078740157,
      "duration": "96i"
    },
    {
      "time": "146688i",
      "midiNote": 37,
      "noteName": "C#2",
      "velocity": 0.7559055118110236,
      "duration": "96i"
    },
    {
      "time": "146688i",
      "midiNote": 70,
      "noteName": "A#4",
      "velocity": 0.7559055118110236,
      "duration": "96i"
    },
    {
      "time": "146784i",
      "midiNote": 44,
      "noteName": "G#2",
      "velocity": 0.7559055118110236,
      "duration": "96i"
    },
    {
      "time": "146784i",
      "midiNote": 37,
      "noteName": "C#2",
      "velocity": 0.5039370078740157,
      "duration": "96i"
    },
    {
      "time": "146880i",
      "midiNote": 44,
      "noteName": "G#2",
      "velocity": 0.7559055118110236,
      "duration": "96i"
    },
    {
      "time": "146880i",
      "midiNote": 37,
      "noteName": "C#2",
      "velocity": 0.5039370078740157,
      "duration": "96i"
    },
    {
      "time": "146976i",
      "midiNote": 44,
      "noteName": "G#2",
      "velocity": 0.7559055118110236,
      "duration": "96i"
    },
    {
      "time": "146976i",
      "midiNote": 37,
      "noteName": "C#2",
      "velocity": 0.5039370078740157,
      "duration": "96i"
    },
    {
      "time": "147072i",
      "midiNote": 70,
      "noteName": "A#4",
      "velocity": 0.7559055118110236,
      "duration": "96i"
    },
    {
      "time": "147072i",
      "midiNote": 37,
      "noteName": "C#2",
      "velocity": 0.7559055118110236,
      "duration": "96i"
    },
    {
      "time": "147168i",
      "midiNote": 44,
      "noteName": "G#2",
      "velocity": 0.7559055118110236,
      "duration": "96i"
    },
    {
      "time": "147168i",
      "midiNote": 37,
      "noteName": "C#2",
      "velocity": 0.5039370078740157,
      "duration": "96i"
    },
    {
      "time": "147264i",
      "midiNote": 44,
      "noteName": "G#2",
      "velocity": 0.7559055118110236,
      "duration": "96i"
    },
    {
      "time": "147264i",
      "midiNote": 37,
      "noteName": "C#2",
      "velocity": 0.5039370078740157,
      "duration": "96i"
    },
    {
      "time": "147360i",
      "midiNote": 37,
      "noteName": "C#2",
      "velocity": 0.5039370078740157,
      "duration": "96i"
    },
    {
      "time": "147360i",
      "midiNote": 44,
      "noteName": "G#2",
      "velocity": 0.7559055118110236,
      "duration": "96i"
    },
    {
      "time": "147456i",
      "midiNote": 37,
      "noteName": "C#2",
      "velocity": 0.7559055118110236,
      "duration": "96i"
    },
    {
      "time": "147456i",
      "midiNote": 70,
      "noteName": "A#4",
      "velocity": 0.7559055118110236,
      "duration": "96i"
    },
    {
      "time": "147552i",
      "midiNote": 44,
      "noteName": "G#2",
      "velocity": 0.7559055118110236,
      "duration": "96i"
    },
    {
      "time": "147552i",
      "midiNote": 37,
      "noteName": "C#2",
      "velocity": 0.5039370078740157,
      "duration": "96i"
    },
    {
      "time": "147648i",
      "midiNote": 44,
      "noteName": "G#2",
      "velocity": 0.7559055118110236,
      "duration": "96i"
    },
    {
      "time": "147648i",
      "midiNote": 37,
      "noteName": "C#2",
      "velocity": 0.5039370078740157,
      "duration": "96i"
    },
    {
      "time": "147744i",
      "midiNote": 37,
      "noteName": "C#2",
      "velocity": 0.7559055118110236,
      "duration": "96i"
    },
    {
      "time": "147744i",
      "midiNote": 70,
      "noteName": "A#4",
      "velocity": 0.7559055118110236,
      "duration": "96i"
    },
    {
      "time": "147840i",
      "midiNote": 44,
      "noteName": "G#2",
      "velocity": 0.7559055118110236,
      "duration": "96i"
    },
    {
      "time": "147840i",
      "midiNote": 37,
      "noteName": "C#2",
      "velocity": 0.5039370078740157,
      "duration": "96i"
    },
    {
      "time": "147936i",
      "midiNote": 44,
      "noteName": "G#2",
      "velocity": 0.7559055118110236,
      "duration": "96i"
    },
    {
      "time": "147936i",
      "midiNote": 37,
      "noteName": "C#2",
      "velocity": 0.5039370078740157,
      "duration": "96i"
    },
    {
      "time": "148032i",
      "midiNote": 37,
      "noteName": "C#2",
      "velocity": 0.7559055118110236,
      "duration": "96i"
    },
    {
      "time": "148032i",
      "midiNote": 70,
      "noteName": "A#4",
      "velocity": 0.7559055118110236,
      "duration": "96i"
    },
    {
      "time": "148128i",
      "midiNote": 44,
      "noteName": "G#2",
      "velocity": 0.7559055118110236,
      "duration": "96i"
    },
    {
      "time": "148128i",
      "midiNote": 37,
      "noteName": "C#2",
      "velocity": 0.5039370078740157,
      "duration": "96i"
    },
    {
      "time": "148224i",
      "midiNote": 37,
      "noteName": "C#2",
      "velocity": 0.7559055118110236,
      "duration": "96i"
    },
    {
      "time": "148224i",
      "midiNote": 70,
      "noteName": "A#4",
      "velocity": 0.7559055118110236,
      "duration": "96i"
    },
    {
      "time": "148320i",
      "midiNote": 44,
      "noteName": "G#2",
      "velocity": 0.7559055118110236,
      "duration": "96i"
    },
    {
      "time": "148320i",
      "midiNote": 37,
      "noteName": "C#2",
      "velocity": 0.5039370078740157,
      "duration": "96i"
    },
    {
      "time": "148416i",
      "midiNote": 44,
      "noteName": "G#2",
      "velocity": 0.7559055118110236,
      "duration": "96i"
    },
    {
      "time": "148416i",
      "midiNote": 37,
      "noteName": "C#2",
      "velocity": 0.5039370078740157,
      "duration": "96i"
    },
    {
      "time": "148512i",
      "midiNote": 44,
      "noteName": "G#2",
      "velocity": 0.7559055118110236,
      "duration": "96i"
    },
    {
      "time": "148512i",
      "midiNote": 37,
      "noteName": "C#2",
      "velocity": 0.5039370078740157,
      "duration": "96i"
    },
    {
      "time": "148608i",
      "midiNote": 70,
      "noteName": "A#4",
      "velocity": 0.7559055118110236,
      "duration": "96i"
    },
    {
      "time": "148608i",
      "midiNote": 37,
      "noteName": "C#2",
      "velocity": 0.7559055118110236,
      "duration": "96i"
    },
    {
      "time": "148704i",
      "midiNote": 44,
      "noteName": "G#2",
      "velocity": 0.7559055118110236,
      "duration": "96i"
    },
    {
      "time": "148704i",
      "midiNote": 37,
      "noteName": "C#2",
      "velocity": 0.5039370078740157,
      "duration": "96i"
    },
    {
      "time": "148800i",
      "midiNote": 44,
      "noteName": "G#2",
      "velocity": 0.7559055118110236,
      "duration": "96i"
    },
    {
      "time": "148800i",
      "midiNote": 37,
      "noteName": "C#2",
      "velocity": 0.5039370078740157,
      "duration": "96i"
    },
    {
      "time": "148896i",
      "midiNote": 37,
      "noteName": "C#2",
      "velocity": 0.5039370078740157,
      "duration": "96i"
    },
    {
      "time": "148896i",
      "midiNote": 44,
      "noteName": "G#2",
      "velocity": 0.7559055118110236,
      "duration": "96i"
    },
    {
      "time": "148992i",
      "midiNote": 37,
      "noteName": "C#2",
      "velocity": 0.7559055118110236,
      "duration": "96i"
    },
    {
      "time": "148992i",
      "midiNote": 70,
      "noteName": "A#4",
      "velocity": 0.7559055118110236,
      "duration": "96i"
    },
    {
      "time": "149088i",
      "midiNote": 44,
      "noteName": "G#2",
      "velocity": 0.7559055118110236,
      "duration": "96i"
    },
    {
      "time": "149088i",
      "midiNote": 37,
      "noteName": "C#2",
      "velocity": 0.5039370078740157,
      "duration": "96i"
    },
    {
      "time": "149184i",
      "midiNote": 44,
      "noteName": "G#2",
      "velocity": 0.7559055118110236,
      "duration": "96i"
    },
    {
      "time": "149184i",
      "midiNote": 37,
      "noteName": "C#2",
      "velocity": 0.5039370078740157,
      "duration": "96i"
    },
    {
      "time": "149280i",
      "midiNote": 37,
      "noteName": "C#2",
      "velocity": 0.7559055118110236,
      "duration": "96i"
    },
    {
      "time": "149280i",
      "midiNote": 70,
      "noteName": "A#4",
      "velocity": 0.7559055118110236,
      "duration": "96i"
    },
    {
      "time": "149376i",
      "midiNote": 44,
      "noteName": "G#2",
      "velocity": 0.7559055118110236,
      "duration": "96i"
    },
    {
      "time": "149376i",
      "midiNote": 37,
      "noteName": "C#2",
      "velocity": 0.5039370078740157,
      "duration": "96i"
    },
    {
      "time": "149472i",
      "midiNote": 44,
      "noteName": "G#2",
      "velocity": 0.7559055118110236,
      "duration": "96i"
    },
    {
      "time": "149472i",
      "midiNote": 37,
      "noteName": "C#2",
      "velocity": 0.5039370078740157,
      "duration": "96i"
    },
    {
      "time": "149568i",
      "midiNote": 37,
      "noteName": "C#2",
      "velocity": 0.7559055118110236,
      "duration": "96i"
    },
    {
      "time": "149568i",
      "midiNote": 70,
      "noteName": "A#4",
      "velocity": 0.7559055118110236,
      "duration": "96i"
    },
    {
      "time": "149664i",
      "midiNote": 44,
      "noteName": "G#2",
      "velocity": 0.7559055118110236,
      "duration": "96i"
    },
    {
      "time": "149664i",
      "midiNote": 37,
      "noteName": "C#2",
      "velocity": 0.5039370078740157,
      "duration": "96i"
    },
    {
      "time": "149760i",
      "midiNote": 37,
      "noteName": "C#2",
      "velocity": 0.7559055118110236,
      "duration": "96i"
    },
    {
      "time": "149760i",
      "midiNote": 70,
      "noteName": "A#4",
      "velocity": 0.7559055118110236,
      "duration": "96i"
    },
    {
      "time": "149856i",
      "midiNote": 44,
      "noteName": "G#2",
      "velocity": 0.7559055118110236,
      "duration": "96i"
    },
    {
      "time": "149856i",
      "midiNote": 37,
      "noteName": "C#2",
      "velocity": 0.5039370078740157,
      "duration": "96i"
    },
    {
      "time": "149952i",
      "midiNote": 44,
      "noteName": "G#2",
      "velocity": 0.7559055118110236,
      "duration": "96i"
    },
    {
      "time": "149952i",
      "midiNote": 37,
      "noteName": "C#2",
      "velocity": 0.5039370078740157,
      "duration": "96i"
    },
    {
      "time": "150048i",
      "midiNote": 44,
      "noteName": "G#2",
      "velocity": 0.7559055118110236,
      "duration": "96i"
    },
    {
      "time": "150048i",
      "midiNote": 37,
      "noteName": "C#2",
      "velocity": 0.5039370078740157,
      "duration": "96i"
    },
    {
      "time": "150144i",
      "midiNote": 70,
      "noteName": "A#4",
      "velocity": 0.7559055118110236,
      "duration": "96i"
    },
    {
      "time": "150144i",
      "midiNote": 37,
      "noteName": "C#2",
      "velocity": 0.7559055118110236,
      "duration": "96i"
    },
    {
      "time": "150240i",
      "midiNote": 44,
      "noteName": "G#2",
      "velocity": 0.7559055118110236,
      "duration": "96i"
    },
    {
      "time": "150240i",
      "midiNote": 37,
      "noteName": "C#2",
      "velocity": 0.5039370078740157,
      "duration": "96i"
    },
    {
      "time": "150336i",
      "midiNote": 44,
      "noteName": "G#2",
      "velocity": 0.7559055118110236,
      "duration": "96i"
    },
    {
      "time": "150336i",
      "midiNote": 37,
      "noteName": "C#2",
      "velocity": 0.5039370078740157,
      "duration": "96i"
    },
    {
      "time": "150432i",
      "midiNote": 37,
      "noteName": "C#2",
      "velocity": 0.5039370078740157,
      "duration": "96i"
    },
    {
      "time": "150432i",
      "midiNote": 44,
      "noteName": "G#2",
      "velocity": 0.7559055118110236,
      "duration": "96i"
    },
    {
      "time": "150528i",
      "midiNote": 37,
      "noteName": "C#2",
      "velocity": 0.7559055118110236,
      "duration": "96i"
    },
    {
      "time": "150528i",
      "midiNote": 70,
      "noteName": "A#4",
      "velocity": 0.7559055118110236,
      "duration": "96i"
    },
    {
      "time": "150624i",
      "midiNote": 44,
      "noteName": "G#2",
      "velocity": 0.7559055118110236,
      "duration": "96i"
    },
    {
      "time": "150624i",
      "midiNote": 37,
      "noteName": "C#2",
      "velocity": 0.5039370078740157,
      "duration": "96i"
    },
    {
      "time": "150720i",
      "midiNote": 44,
      "noteName": "G#2",
      "velocity": 0.7559055118110236,
      "duration": "96i"
    },
    {
      "time": "150720i",
      "midiNote": 37,
      "noteName": "C#2",
      "velocity": 0.5039370078740157,
      "duration": "96i"
    },
    {
      "time": "150816i",
      "midiNote": 37,
      "noteName": "C#2",
      "velocity": 0.7559055118110236,
      "duration": "96i"
    },
    {
      "time": "150816i",
      "midiNote": 70,
      "noteName": "A#4",
      "velocity": 0.7559055118110236,
      "duration": "96i"
    },
    {
      "time": "150912i",
      "midiNote": 44,
      "noteName": "G#2",
      "velocity": 0.7559055118110236,
      "duration": "96i"
    },
    {
      "time": "150912i",
      "midiNote": 37,
      "noteName": "C#2",
      "velocity": 0.5039370078740157,
      "duration": "96i"
    },
    {
      "time": "151008i",
      "midiNote": 44,
      "noteName": "G#2",
      "velocity": 0.7559055118110236,
      "duration": "96i"
    },
    {
      "time": "151008i",
      "midiNote": 37,
      "noteName": "C#2",
      "velocity": 0.5039370078740157,
      "duration": "96i"
    },
    {
      "time": "151104i",
      "midiNote": 37,
      "noteName": "C#2",
      "velocity": 0.7559055118110236,
      "duration": "96i"
    },
    {
      "time": "151104i",
      "midiNote": 70,
      "noteName": "A#4",
      "velocity": 0.7559055118110236,
      "duration": "96i"
    },
    {
      "time": "151200i",
      "midiNote": 44,
      "noteName": "G#2",
      "velocity": 0.7559055118110236,
      "duration": "96i"
    },
    {
      "time": "151200i",
      "midiNote": 37,
      "noteName": "C#2",
      "velocity": 0.5039370078740157,
      "duration": "96i"
    },
    {
      "time": "151296i",
      "midiNote": 37,
      "noteName": "C#2",
      "velocity": 0.7559055118110236,
      "duration": "96i"
    },
    {
      "time": "151296i",
      "midiNote": 70,
      "noteName": "A#4",
      "velocity": 0.7559055118110236,
      "duration": "96i"
    },
    {
      "time": "151392i",
      "midiNote": 44,
      "noteName": "G#2",
      "velocity": 0.7559055118110236,
      "duration": "96i"
    },
    {
      "time": "151392i",
      "midiNote": 37,
      "noteName": "C#2",
      "velocity": 0.5039370078740157,
      "duration": "96i"
    },
    {
      "time": "151488i",
      "midiNote": 44,
      "noteName": "G#2",
      "velocity": 0.7559055118110236,
      "duration": "96i"
    },
    {
      "time": "151488i",
      "midiNote": 37,
      "noteName": "C#2",
      "velocity": 0.5039370078740157,
      "duration": "96i"
    },
    {
      "time": "151584i",
      "midiNote": 44,
      "noteName": "G#2",
      "velocity": 0.7559055118110236,
      "duration": "96i"
    },
    {
      "time": "151584i",
      "midiNote": 37,
      "noteName": "C#2",
      "velocity": 0.5039370078740157,
      "duration": "96i"
    },
    {
      "time": "151680i",
      "midiNote": 70,
      "noteName": "A#4",
      "velocity": 0.7559055118110236,
      "duration": "96i"
    },
    {
      "time": "151680i",
      "midiNote": 37,
      "noteName": "C#2",
      "velocity": 0.7559055118110236,
      "duration": "96i"
    },
    {
      "time": "151776i",
      "midiNote": 44,
      "noteName": "G#2",
      "velocity": 0.7559055118110236,
      "duration": "96i"
    },
    {
      "time": "151776i",
      "midiNote": 37,
      "noteName": "C#2",
      "velocity": 0.5039370078740157,
      "duration": "96i"
    },
    {
      "time": "151872i",
      "midiNote": 44,
      "noteName": "G#2",
      "velocity": 0.7559055118110236,
      "duration": "96i"
    },
    {
      "time": "151872i",
      "midiNote": 37,
      "noteName": "C#2",
      "velocity": 0.5039370078740157,
      "duration": "96i"
    },
    {
      "time": "151968i",
      "midiNote": 37,
      "noteName": "C#2",
      "velocity": 0.5039370078740157,
      "duration": "96i"
    },
    {
      "time": "151968i",
      "midiNote": 44,
      "noteName": "G#2",
      "velocity": 0.7559055118110236,
      "duration": "96i"
    },
    {
      "time": "152064i",
      "midiNote": 37,
      "noteName": "C#2",
      "velocity": 0.7559055118110236,
      "duration": "96i"
    },
    {
      "time": "152064i",
      "midiNote": 70,
      "noteName": "A#4",
      "velocity": 0.7559055118110236,
      "duration": "96i"
    },
    {
      "time": "152160i",
      "midiNote": 44,
      "noteName": "G#2",
      "velocity": 0.7559055118110236,
      "duration": "96i"
    },
    {
      "time": "152160i",
      "midiNote": 37,
      "noteName": "C#2",
      "velocity": 0.5039370078740157,
      "duration": "96i"
    },
    {
      "time": "152256i",
      "midiNote": 44,
      "noteName": "G#2",
      "velocity": 0.7559055118110236,
      "duration": "96i"
    },
    {
      "time": "152256i",
      "midiNote": 37,
      "noteName": "C#2",
      "velocity": 0.5039370078740157,
      "duration": "96i"
    },
    {
      "time": "152352i",
      "midiNote": 37,
      "noteName": "C#2",
      "velocity": 0.7559055118110236,
      "duration": "96i"
    },
    {
      "time": "152352i",
      "midiNote": 70,
      "noteName": "A#4",
      "velocity": 0.7559055118110236,
      "duration": "96i"
    },
    {
      "time": "152448i",
      "midiNote": 44,
      "noteName": "G#2",
      "velocity": 0.7559055118110236,
      "duration": "96i"
    },
    {
      "time": "152448i",
      "midiNote": 37,
      "noteName": "C#2",
      "velocity": 0.5039370078740157,
      "duration": "96i"
    },
    {
      "time": "152544i",
      "midiNote": 44,
      "noteName": "G#2",
      "velocity": 0.7559055118110236,
      "duration": "96i"
    },
    {
      "time": "152544i",
      "midiNote": 37,
      "noteName": "C#2",
      "velocity": 0.5039370078740157,
      "duration": "96i"
    },
    {
      "time": "152640i",
      "midiNote": 37,
      "noteName": "C#2",
      "velocity": 0.7559055118110236,
      "duration": "96i"
    },
    {
      "time": "152640i",
      "midiNote": 70,
      "noteName": "A#4",
      "velocity": 0.7559055118110236,
      "duration": "96i"
    },
    {
      "time": "152736i",
      "midiNote": 44,
      "noteName": "G#2",
      "velocity": 0.7559055118110236,
      "duration": "96i"
    },
    {
      "time": "152736i",
      "midiNote": 37,
      "noteName": "C#2",
      "velocity": 0.5039370078740157,
      "duration": "96i"
    },
    {
      "time": "152832i",
      "midiNote": 37,
      "noteName": "C#2",
      "velocity": 0.7559055118110236,
      "duration": "96i"
    },
    {
      "time": "152832i",
      "midiNote": 70,
      "noteName": "A#4",
      "velocity": 0.7559055118110236,
      "duration": "96i"
    },
    {
      "time": "152928i",
      "midiNote": 44,
      "noteName": "G#2",
      "velocity": 0.7559055118110236,
      "duration": "96i"
    },
    {
      "time": "152928i",
      "midiNote": 37,
      "noteName": "C#2",
      "velocity": 0.5039370078740157,
      "duration": "96i"
    },
    {
      "time": "153024i",
      "midiNote": 44,
      "noteName": "G#2",
      "velocity": 0.7559055118110236,
      "duration": "96i"
    },
    {
      "time": "153024i",
      "midiNote": 37,
      "noteName": "C#2",
      "velocity": 0.5039370078740157,
      "duration": "96i"
    },
    {
      "time": "153120i",
      "midiNote": 44,
      "noteName": "G#2",
      "velocity": 0.7559055118110236,
      "duration": "96i"
    },
    {
      "time": "153120i",
      "midiNote": 37,
      "noteName": "C#2",
      "velocity": 0.5039370078740157,
      "duration": "96i"
    },
    {
      "time": "153216i",
      "midiNote": 70,
      "noteName": "A#4",
      "velocity": 0.7559055118110236,
      "duration": "96i"
    },
    {
      "time": "153216i",
      "midiNote": 37,
      "noteName": "C#2",
      "velocity": 0.7559055118110236,
      "duration": "96i"
    },
    {
      "time": "153312i",
      "midiNote": 44,
      "noteName": "G#2",
      "velocity": 0.7559055118110236,
      "duration": "96i"
    },
    {
      "time": "153312i",
      "midiNote": 37,
      "noteName": "C#2",
      "velocity": 0.5039370078740157,
      "duration": "96i"
    },
    {
      "time": "153408i",
      "midiNote": 44,
      "noteName": "G#2",
      "velocity": 0.7559055118110236,
      "duration": "96i"
    },
    {
      "time": "153408i",
      "midiNote": 37,
      "noteName": "C#2",
      "velocity": 0.5039370078740157,
      "duration": "96i"
    },
    {
      "time": "153504i",
      "midiNote": 37,
      "noteName": "C#2",
      "velocity": 0.5039370078740157,
      "duration": "96i"
    },
    {
      "time": "153504i",
      "midiNote": 44,
      "noteName": "G#2",
      "velocity": 0.7559055118110236,
      "duration": "96i"
    },
    {
      "time": "153600i",
      "midiNote": 37,
      "noteName": "C#2",
      "velocity": 0.7559055118110236,
      "duration": "96i"
    },
    {
      "time": "153600i",
      "midiNote": 70,
      "noteName": "A#4",
      "velocity": 0.7559055118110236,
      "duration": "96i"
    },
    {
      "time": "153696i",
      "midiNote": 44,
      "noteName": "G#2",
      "velocity": 0.7559055118110236,
      "duration": "96i"
    },
    {
      "time": "153696i",
      "midiNote": 37,
      "noteName": "C#2",
      "velocity": 0.5039370078740157,
      "duration": "96i"
    },
    {
      "time": "153792i",
      "midiNote": 44,
      "noteName": "G#2",
      "velocity": 0.7559055118110236,
      "duration": "96i"
    },
    {
      "time": "153792i",
      "midiNote": 37,
      "noteName": "C#2",
      "velocity": 0.5039370078740157,
      "duration": "96i"
    },
    {
      "time": "153888i",
      "midiNote": 37,
      "noteName": "C#2",
      "velocity": 0.7559055118110236,
      "duration": "96i"
    },
    {
      "time": "153888i",
      "midiNote": 70,
      "noteName": "A#4",
      "velocity": 0.7559055118110236,
      "duration": "96i"
    },
    {
      "time": "153984i",
      "midiNote": 44,
      "noteName": "G#2",
      "velocity": 0.7559055118110236,
      "duration": "96i"
    },
    {
      "time": "153984i",
      "midiNote": 37,
      "noteName": "C#2",
      "velocity": 0.5039370078740157,
      "duration": "96i"
    },
    {
      "time": "154080i",
      "midiNote": 44,
      "noteName": "G#2",
      "velocity": 0.7559055118110236,
      "duration": "96i"
    },
    {
      "time": "154080i",
      "midiNote": 37,
      "noteName": "C#2",
      "velocity": 0.5039370078740157,
      "duration": "96i"
    },
    {
      "time": "154176i",
      "midiNote": 37,
      "noteName": "C#2",
      "velocity": 0.7559055118110236,
      "duration": "96i"
    },
    {
      "time": "154176i",
      "midiNote": 70,
      "noteName": "A#4",
      "velocity": 0.7559055118110236,
      "duration": "96i"
    },
    {
      "time": "154272i",
      "midiNote": 44,
      "noteName": "G#2",
      "velocity": 0.7559055118110236,
      "duration": "96i"
    },
    {
      "time": "154272i",
      "midiNote": 37,
      "noteName": "C#2",
      "velocity": 0.5039370078740157,
      "duration": "96i"
    },
    {
      "time": "154368i",
      "midiNote": 37,
      "noteName": "C#2",
      "velocity": 0.7559055118110236,
      "duration": "96i"
    },
    {
      "time": "154368i",
      "midiNote": 70,
      "noteName": "A#4",
      "velocity": 0.7559055118110236,
      "duration": "96i"
    },
    {
      "time": "154464i",
      "midiNote": 44,
      "noteName": "G#2",
      "velocity": 0.7559055118110236,
      "duration": "96i"
    },
    {
      "time": "154464i",
      "midiNote": 37,
      "noteName": "C#2",
      "velocity": 0.5039370078740157,
      "duration": "96i"
    },
    {
      "time": "154560i",
      "midiNote": 44,
      "noteName": "G#2",
      "velocity": 0.7559055118110236,
      "duration": "96i"
    },
    {
      "time": "154560i",
      "midiNote": 37,
      "noteName": "C#2",
      "velocity": 0.5039370078740157,
      "duration": "96i"
    },
    {
      "time": "154656i",
      "midiNote": 44,
      "noteName": "G#2",
      "velocity": 0.7559055118110236,
      "duration": "96i"
    },
    {
      "time": "154656i",
      "midiNote": 37,
      "noteName": "C#2",
      "velocity": 0.5039370078740157,
      "duration": "96i"
    },
    {
      "time": "154752i",
      "midiNote": 70,
      "noteName": "A#4",
      "velocity": 0.7559055118110236,
      "duration": "96i"
    },
    {
      "time": "154752i",
      "midiNote": 37,
      "noteName": "C#2",
      "velocity": 0.7559055118110236,
      "duration": "96i"
    },
    {
      "time": "154848i",
      "midiNote": 44,
      "noteName": "G#2",
      "velocity": 0.7559055118110236,
      "duration": "96i"
    },
    {
      "time": "154848i",
      "midiNote": 37,
      "noteName": "C#2",
      "velocity": 0.5039370078740157,
      "duration": "96i"
    },
    {
      "time": "154944i",
      "midiNote": 44,
      "noteName": "G#2",
      "velocity": 0.7559055118110236,
      "duration": "96i"
    },
    {
      "time": "154944i",
      "midiNote": 37,
      "noteName": "C#2",
      "velocity": 0.5039370078740157,
      "duration": "96i"
    },
    {
      "time": "155040i",
      "midiNote": 37,
      "noteName": "C#2",
      "velocity": 0.5039370078740157,
      "duration": "96i"
    },
    {
      "time": "155040i",
      "midiNote": 44,
      "noteName": "G#2",
      "velocity": 0.7559055118110236,
      "duration": "96i"
    },
    {
      "time": "155136i",
      "midiNote": 37,
      "noteName": "C#2",
      "velocity": 0.7559055118110236,
      "duration": "96i"
    },
    {
      "time": "155136i",
      "midiNote": 70,
      "noteName": "A#4",
      "velocity": 0.7559055118110236,
      "duration": "96i"
    },
    {
      "time": "155232i",
      "midiNote": 44,
      "noteName": "G#2",
      "velocity": 0.7559055118110236,
      "duration": "96i"
    },
    {
      "time": "155232i",
      "midiNote": 37,
      "noteName": "C#2",
      "velocity": 0.5039370078740157,
      "duration": "96i"
    },
    {
      "time": "155328i",
      "midiNote": 44,
      "noteName": "G#2",
      "velocity": 0.7559055118110236,
      "duration": "96i"
    },
    {
      "time": "155328i",
      "midiNote": 37,
      "noteName": "C#2",
      "velocity": 0.5039370078740157,
      "duration": "96i"
    },
    {
      "time": "155424i",
      "midiNote": 37,
      "noteName": "C#2",
      "velocity": 0.7559055118110236,
      "duration": "96i"
    },
    {
      "time": "155424i",
      "midiNote": 70,
      "noteName": "A#4",
      "velocity": 0.7559055118110236,
      "duration": "96i"
    },
    {
      "time": "155520i",
      "midiNote": 44,
      "noteName": "G#2",
      "velocity": 0.7559055118110236,
      "duration": "96i"
    },
    {
      "time": "155520i",
      "midiNote": 37,
      "noteName": "C#2",
      "velocity": 0.5039370078740157,
      "duration": "96i"
    },
    {
      "time": "155616i",
      "midiNote": 44,
      "noteName": "G#2",
      "velocity": 0.7559055118110236,
      "duration": "96i"
    },
    {
      "time": "155616i",
      "midiNote": 37,
      "noteName": "C#2",
      "velocity": 0.5039370078740157,
      "duration": "96i"
    },
    {
      "time": "155712i",
      "midiNote": 37,
      "noteName": "C#2",
      "velocity": 0.7559055118110236,
      "duration": "96i"
    },
    {
      "time": "155712i",
      "midiNote": 70,
      "noteName": "A#4",
      "velocity": 0.7559055118110236,
      "duration": "96i"
    },
    {
      "time": "155808i",
      "midiNote": 44,
      "noteName": "G#2",
      "velocity": 0.7559055118110236,
      "duration": "96i"
    },
    {
      "time": "155808i",
      "midiNote": 37,
      "noteName": "C#2",
      "velocity": 0.5039370078740157,
      "duration": "96i"
    },
    {
      "time": "155904i",
      "midiNote": 37,
      "noteName": "C#2",
      "velocity": 0.7559055118110236,
      "duration": "96i"
    },
    {
      "time": "155904i",
      "midiNote": 70,
      "noteName": "A#4",
      "velocity": 0.7559055118110236,
      "duration": "96i"
    },
    {
      "time": "156000i",
      "midiNote": 44,
      "noteName": "G#2",
      "velocity": 0.7559055118110236,
      "duration": "96i"
    },
    {
      "time": "156000i",
      "midiNote": 37,
      "noteName": "C#2",
      "velocity": 0.5039370078740157,
      "duration": "96i"
    },
    {
      "time": "156096i",
      "midiNote": 44,
      "noteName": "G#2",
      "velocity": 0.7559055118110236,
      "duration": "96i"
    },
    {
      "time": "156096i",
      "midiNote": 37,
      "noteName": "C#2",
      "velocity": 0.5039370078740157,
      "duration": "96i"
    },
    {
      "time": "156192i",
      "midiNote": 44,
      "noteName": "G#2",
      "velocity": 0.7559055118110236,
      "duration": "96i"
    },
    {
      "time": "156192i",
      "midiNote": 37,
      "noteName": "C#2",
      "velocity": 0.5039370078740157,
      "duration": "96i"
    },
    {
      "time": "156288i",
      "midiNote": 70,
      "noteName": "A#4",
      "velocity": 0.7559055118110236,
      "duration": "96i"
    },
    {
      "time": "156288i",
      "midiNote": 37,
      "noteName": "C#2",
      "velocity": 0.7559055118110236,
      "duration": "96i"
    },
    {
      "time": "156384i",
      "midiNote": 44,
      "noteName": "G#2",
      "velocity": 0.7559055118110236,
      "duration": "96i"
    },
    {
      "time": "156384i",
      "midiNote": 37,
      "noteName": "C#2",
      "velocity": 0.5039370078740157,
      "duration": "96i"
    },
    {
      "time": "156480i",
      "midiNote": 44,
      "noteName": "G#2",
      "velocity": 0.7559055118110236,
      "duration": "96i"
    },
    {
      "time": "156480i",
      "midiNote": 37,
      "noteName": "C#2",
      "velocity": 0.5039370078740157,
      "duration": "96i"
    },
    {
      "time": "156576i",
      "midiNote": 37,
      "noteName": "C#2",
      "velocity": 0.5039370078740157,
      "duration": "96i"
    },
    {
      "time": "156576i",
      "midiNote": 44,
      "noteName": "G#2",
      "velocity": 0.7559055118110236,
      "duration": "96i"
    },
    {
      "time": "156672i",
      "midiNote": 37,
      "noteName": "C#2",
      "velocity": 0.7559055118110236,
      "duration": "96i"
    },
    {
      "time": "156672i",
      "midiNote": 70,
      "noteName": "A#4",
      "velocity": 0.7559055118110236,
      "duration": "96i"
    },
    {
      "time": "156768i",
      "midiNote": 44,
      "noteName": "G#2",
      "velocity": 0.7559055118110236,
      "duration": "96i"
    },
    {
      "time": "156768i",
      "midiNote": 37,
      "noteName": "C#2",
      "velocity": 0.5039370078740157,
      "duration": "96i"
    },
    {
      "time": "156864i",
      "midiNote": 44,
      "noteName": "G#2",
      "velocity": 0.7559055118110236,
      "duration": "96i"
    },
    {
      "time": "156864i",
      "midiNote": 37,
      "noteName": "C#2",
      "velocity": 0.5039370078740157,
      "duration": "96i"
    },
    {
      "time": "156960i",
      "midiNote": 37,
      "noteName": "C#2",
      "velocity": 0.7559055118110236,
      "duration": "96i"
    },
    {
      "time": "156960i",
      "midiNote": 70,
      "noteName": "A#4",
      "velocity": 0.7559055118110236,
      "duration": "96i"
    },
    {
      "time": "157056i",
      "midiNote": 44,
      "noteName": "G#2",
      "velocity": 0.7559055118110236,
      "duration": "96i"
    },
    {
      "time": "157056i",
      "midiNote": 37,
      "noteName": "C#2",
      "velocity": 0.5039370078740157,
      "duration": "96i"
    },
    {
      "time": "157152i",
      "midiNote": 44,
      "noteName": "G#2",
      "velocity": 0.7559055118110236,
      "duration": "96i"
    },
    {
      "time": "157152i",
      "midiNote": 37,
      "noteName": "C#2",
      "velocity": 0.5039370078740157,
      "duration": "96i"
    },
    {
      "time": "157248i",
      "midiNote": 37,
      "noteName": "C#2",
      "velocity": 0.7559055118110236,
      "duration": "96i"
    },
    {
      "time": "157248i",
      "midiNote": 70,
      "noteName": "A#4",
      "velocity": 0.7559055118110236,
      "duration": "96i"
    },
    {
      "time": "157344i",
      "midiNote": 44,
      "noteName": "G#2",
      "velocity": 0.7559055118110236,
      "duration": "96i"
    },
    {
      "time": "157344i",
      "midiNote": 37,
      "noteName": "C#2",
      "velocity": 0.5039370078740157,
      "duration": "96i"
    },
    {
      "time": "157440i",
      "midiNote": 37,
      "noteName": "C#2",
      "velocity": 0.7559055118110236,
      "duration": "96i"
    },
    {
      "time": "157440i",
      "midiNote": 70,
      "noteName": "A#4",
      "velocity": 0.7559055118110236,
      "duration": "96i"
    },
    {
      "time": "157536i",
      "midiNote": 44,
      "noteName": "G#2",
      "velocity": 0.7559055118110236,
      "duration": "96i"
    },
    {
      "time": "157536i",
      "midiNote": 37,
      "noteName": "C#2",
      "velocity": 0.5039370078740157,
      "duration": "96i"
    },
    {
      "time": "157632i",
      "midiNote": 44,
      "noteName": "G#2",
      "velocity": 0.7559055118110236,
      "duration": "96i"
    },
    {
      "time": "157632i",
      "midiNote": 37,
      "noteName": "C#2",
      "velocity": 0.5039370078740157,
      "duration": "96i"
    },
    {
      "time": "157728i",
      "midiNote": 44,
      "noteName": "G#2",
      "velocity": 0.7559055118110236,
      "duration": "96i"
    },
    {
      "time": "157728i",
      "midiNote": 37,
      "noteName": "C#2",
      "velocity": 0.5039370078740157,
      "duration": "96i"
    },
    {
      "time": "157824i",
      "midiNote": 70,
      "noteName": "A#4",
      "velocity": 0.7559055118110236,
      "duration": "96i"
    },
    {
      "time": "157824i",
      "midiNote": 37,
      "noteName": "C#2",
      "velocity": 0.7559055118110236,
      "duration": "96i"
    },
    {
      "time": "157920i",
      "midiNote": 44,
      "noteName": "G#2",
      "velocity": 0.7559055118110236,
      "duration": "96i"
    },
    {
      "time": "157920i",
      "midiNote": 37,
      "noteName": "C#2",
      "velocity": 0.5039370078740157,
      "duration": "96i"
    },
    {
      "time": "158016i",
      "midiNote": 44,
      "noteName": "G#2",
      "velocity": 0.7559055118110236,
      "duration": "96i"
    },
    {
      "time": "158016i",
      "midiNote": 37,
      "noteName": "C#2",
      "velocity": 0.5039370078740157,
      "duration": "96i"
    },
    {
      "time": "158112i",
      "midiNote": 37,
      "noteName": "C#2",
      "velocity": 0.5039370078740157,
      "duration": "96i"
    },
    {
      "time": "158112i",
      "midiNote": 44,
      "noteName": "G#2",
      "velocity": 0.7559055118110236,
      "duration": "96i"
    },
    {
      "time": "158208i",
      "midiNote": 37,
      "noteName": "C#2",
      "velocity": 0.7559055118110236,
      "duration": "96i"
    },
    {
      "time": "158208i",
      "midiNote": 70,
      "noteName": "A#4",
      "velocity": 0.7559055118110236,
      "duration": "96i"
    },
    {
      "time": "158304i",
      "midiNote": 44,
      "noteName": "G#2",
      "velocity": 0.7559055118110236,
      "duration": "96i"
    },
    {
      "time": "158304i",
      "midiNote": 37,
      "noteName": "C#2",
      "velocity": 0.5039370078740157,
      "duration": "96i"
    },
    {
      "time": "158400i",
      "midiNote": 44,
      "noteName": "G#2",
      "velocity": 0.7559055118110236,
      "duration": "96i"
    },
    {
      "time": "158400i",
      "midiNote": 37,
      "noteName": "C#2",
      "velocity": 0.5039370078740157,
      "duration": "96i"
    },
    {
      "time": "158496i",
      "midiNote": 37,
      "noteName": "C#2",
      "velocity": 0.7559055118110236,
      "duration": "96i"
    },
    {
      "time": "158496i",
      "midiNote": 70,
      "noteName": "A#4",
      "velocity": 0.7559055118110236,
      "duration": "96i"
    },
    {
      "time": "158592i",
      "midiNote": 44,
      "noteName": "G#2",
      "velocity": 0.7559055118110236,
      "duration": "96i"
    },
    {
      "time": "158592i",
      "midiNote": 37,
      "noteName": "C#2",
      "velocity": 0.5039370078740157,
      "duration": "96i"
    },
    {
      "time": "158688i",
      "midiNote": 44,
      "noteName": "G#2",
      "velocity": 0.7559055118110236,
      "duration": "96i"
    },
    {
      "time": "158688i",
      "midiNote": 37,
      "noteName": "C#2",
      "velocity": 0.5039370078740157,
      "duration": "96i"
    },
    {
      "time": "158784i",
      "midiNote": 37,
      "noteName": "C#2",
      "velocity": 0.7559055118110236,
      "duration": "96i"
    },
    {
      "time": "158784i",
      "midiNote": 70,
      "noteName": "A#4",
      "velocity": 0.7559055118110236,
      "duration": "96i"
    },
    {
      "time": "158880i",
      "midiNote": 44,
      "noteName": "G#2",
      "velocity": 0.7559055118110236,
      "duration": "96i"
    },
    {
      "time": "158880i",
      "midiNote": 37,
      "noteName": "C#2",
      "velocity": 0.5039370078740157,
      "duration": "96i"
    },
    {
      "time": "158976i",
      "midiNote": 37,
      "noteName": "C#2",
      "velocity": 0.7559055118110236,
      "duration": "96i"
    },
    {
      "time": "158976i",
      "midiNote": 70,
      "noteName": "A#4",
      "velocity": 0.7559055118110236,
      "duration": "96i"
    },
    {
      "time": "159072i",
      "midiNote": 44,
      "noteName": "G#2",
      "velocity": 0.7559055118110236,
      "duration": "96i"
    },
    {
      "time": "159072i",
      "midiNote": 37,
      "noteName": "C#2",
      "velocity": 0.5039370078740157,
      "duration": "96i"
    },
    {
      "time": "159168i",
      "midiNote": 44,
      "noteName": "G#2",
      "velocity": 0.7559055118110236,
      "duration": "96i"
    },
    {
      "time": "159168i",
      "midiNote": 37,
      "noteName": "C#2",
      "velocity": 0.5039370078740157,
      "duration": "96i"
    },
    {
      "time": "159264i",
      "midiNote": 44,
      "noteName": "G#2",
      "velocity": 0.7559055118110236,
      "duration": "96i"
    },
    {
      "time": "159264i",
      "midiNote": 37,
      "noteName": "C#2",
      "velocity": 0.5039370078740157,
      "duration": "96i"
    },
    {
      "time": "159360i",
      "midiNote": 70,
      "noteName": "A#4",
      "velocity": 0.7559055118110236,
      "duration": "96i"
    },
    {
      "time": "159360i",
      "midiNote": 37,
      "noteName": "C#2",
      "velocity": 0.7559055118110236,
      "duration": "96i"
    },
    {
      "time": "159456i",
      "midiNote": 44,
      "noteName": "G#2",
      "velocity": 0.7559055118110236,
      "duration": "96i"
    },
    {
      "time": "159456i",
      "midiNote": 37,
      "noteName": "C#2",
      "velocity": 0.5039370078740157,
      "duration": "96i"
    },
    {
      "time": "159552i",
      "midiNote": 44,
      "noteName": "G#2",
      "velocity": 0.7559055118110236,
      "duration": "96i"
    },
    {
      "time": "159552i",
      "midiNote": 37,
      "noteName": "C#2",
      "velocity": 0.5039370078740157,
      "duration": "96i"
    },
    {
      "time": "159648i",
      "midiNote": 37,
      "noteName": "C#2",
      "velocity": 0.5039370078740157,
      "duration": "96i"
    },
    {
      "time": "159648i",
      "midiNote": 44,
      "noteName": "G#2",
      "velocity": 0.7559055118110236,
      "duration": "96i"
    },
    {
      "time": "159744i",
      "midiNote": 37,
      "noteName": "C#2",
      "velocity": 0.7559055118110236,
      "duration": "96i"
    },
    {
      "time": "159744i",
      "midiNote": 70,
      "noteName": "A#4",
      "velocity": 0.7559055118110236,
      "duration": "96i"
    },
    {
      "time": "159840i",
      "midiNote": 44,
      "noteName": "G#2",
      "velocity": 0.7559055118110236,
      "duration": "96i"
    },
    {
      "time": "159840i",
      "midiNote": 37,
      "noteName": "C#2",
      "velocity": 0.5039370078740157,
      "duration": "96i"
    },
    {
      "time": "159936i",
      "midiNote": 44,
      "noteName": "G#2",
      "velocity": 0.7559055118110236,
      "duration": "96i"
    },
    {
      "time": "159936i",
      "midiNote": 37,
      "noteName": "C#2",
      "velocity": 0.5039370078740157,
      "duration": "96i"
    },
    {
      "time": "160032i",
      "midiNote": 37,
      "noteName": "C#2",
      "velocity": 0.7559055118110236,
      "duration": "96i"
    },
    {
      "time": "160032i",
      "midiNote": 70,
      "noteName": "A#4",
      "velocity": 0.7559055118110236,
      "duration": "96i"
    },
    {
      "time": "160128i",
      "midiNote": 44,
      "noteName": "G#2",
      "velocity": 0.7559055118110236,
      "duration": "96i"
    },
    {
      "time": "160128i",
      "midiNote": 37,
      "noteName": "C#2",
      "velocity": 0.5039370078740157,
      "duration": "96i"
    },
    {
      "time": "160224i",
      "midiNote": 44,
      "noteName": "G#2",
      "velocity": 0.7559055118110236,
      "duration": "96i"
    },
    {
      "time": "160224i",
      "midiNote": 37,
      "noteName": "C#2",
      "velocity": 0.5039370078740157,
      "duration": "96i"
    },
    {
      "time": "160320i",
      "midiNote": 37,
      "noteName": "C#2",
      "velocity": 0.7559055118110236,
      "duration": "96i"
    },
    {
      "time": "160320i",
      "midiNote": 70,
      "noteName": "A#4",
      "velocity": 0.7559055118110236,
      "duration": "96i"
    },
    {
      "time": "160416i",
      "midiNote": 44,
      "noteName": "G#2",
      "velocity": 0.7559055118110236,
      "duration": "96i"
    },
    {
      "time": "160416i",
      "midiNote": 37,
      "noteName": "C#2",
      "velocity": 0.5039370078740157,
      "duration": "96i"
    },
    {
      "time": "160512i",
      "midiNote": 37,
      "noteName": "C#2",
      "velocity": 0.7559055118110236,
      "duration": "96i"
    },
    {
      "time": "160512i",
      "midiNote": 70,
      "noteName": "A#4",
      "velocity": 0.7559055118110236,
      "duration": "96i"
    },
    {
      "time": "160608i",
      "midiNote": 44,
      "noteName": "G#2",
      "velocity": 0.7559055118110236,
      "duration": "96i"
    },
    {
      "time": "160608i",
      "midiNote": 37,
      "noteName": "C#2",
      "velocity": 0.5039370078740157,
      "duration": "96i"
    },
    {
      "time": "160704i",
      "midiNote": 44,
      "noteName": "G#2",
      "velocity": 0.7559055118110236,
      "duration": "96i"
    },
    {
      "time": "160704i",
      "midiNote": 37,
      "noteName": "C#2",
      "velocity": 0.5039370078740157,
      "duration": "96i"
    },
    {
      "time": "160800i",
      "midiNote": 44,
      "noteName": "G#2",
      "velocity": 0.7559055118110236,
      "duration": "96i"
    },
    {
      "time": "160800i",
      "midiNote": 37,
      "noteName": "C#2",
      "velocity": 0.5039370078740157,
      "duration": "96i"
    },
    {
      "time": "160896i",
      "midiNote": 70,
      "noteName": "A#4",
      "velocity": 0.7559055118110236,
      "duration": "96i"
    },
    {
      "time": "160896i",
      "midiNote": 37,
      "noteName": "C#2",
      "velocity": 0.7559055118110236,
      "duration": "96i"
    },
    {
      "time": "160992i",
      "midiNote": 44,
      "noteName": "G#2",
      "velocity": 0.7559055118110236,
      "duration": "96i"
    },
    {
      "time": "160992i",
      "midiNote": 37,
      "noteName": "C#2",
      "velocity": 0.5039370078740157,
      "duration": "96i"
    },
    {
      "time": "161088i",
      "midiNote": 44,
      "noteName": "G#2",
      "velocity": 0.7559055118110236,
      "duration": "96i"
    },
    {
      "time": "161088i",
      "midiNote": 37,
      "noteName": "C#2",
      "velocity": 0.5039370078740157,
      "duration": "96i"
    },
    {
      "time": "161184i",
      "midiNote": 37,
      "noteName": "C#2",
      "velocity": 0.5039370078740157,
      "duration": "96i"
    },
    {
      "time": "161184i",
      "midiNote": 44,
      "noteName": "G#2",
      "velocity": 0.7559055118110236,
      "duration": "96i"
    },
    {
      "time": "161280i",
      "midiNote": 37,
      "noteName": "C#2",
      "velocity": 0.7559055118110236,
      "duration": "96i"
    },
    {
      "time": "161280i",
      "midiNote": 70,
      "noteName": "A#4",
      "velocity": 0.7559055118110236,
      "duration": "96i"
    },
    {
      "time": "161376i",
      "midiNote": 44,
      "noteName": "G#2",
      "velocity": 0.7559055118110236,
      "duration": "96i"
    },
    {
      "time": "161376i",
      "midiNote": 37,
      "noteName": "C#2",
      "velocity": 0.5039370078740157,
      "duration": "96i"
    },
    {
      "time": "161472i",
      "midiNote": 44,
      "noteName": "G#2",
      "velocity": 0.7559055118110236,
      "duration": "96i"
    },
    {
      "time": "161472i",
      "midiNote": 37,
      "noteName": "C#2",
      "velocity": 0.5039370078740157,
      "duration": "96i"
    },
    {
      "time": "161568i",
      "midiNote": 37,
      "noteName": "C#2",
      "velocity": 0.7559055118110236,
      "duration": "96i"
    },
    {
      "time": "161568i",
      "midiNote": 70,
      "noteName": "A#4",
      "velocity": 0.7559055118110236,
      "duration": "96i"
    },
    {
      "time": "161664i",
      "midiNote": 44,
      "noteName": "G#2",
      "velocity": 0.7559055118110236,
      "duration": "96i"
    },
    {
      "time": "161664i",
      "midiNote": 37,
      "noteName": "C#2",
      "velocity": 0.5039370078740157,
      "duration": "96i"
    },
    {
      "time": "161760i",
      "midiNote": 44,
      "noteName": "G#2",
      "velocity": 0.7559055118110236,
      "duration": "96i"
    },
    {
      "time": "161760i",
      "midiNote": 37,
      "noteName": "C#2",
      "velocity": 0.5039370078740157,
      "duration": "96i"
    },
    {
      "time": "161856i",
      "midiNote": 37,
      "noteName": "C#2",
      "velocity": 0.7559055118110236,
      "duration": "96i"
    },
    {
      "time": "161856i",
      "midiNote": 70,
      "noteName": "A#4",
      "velocity": 0.7559055118110236,
      "duration": "96i"
    },
    {
      "time": "161952i",
      "midiNote": 44,
      "noteName": "G#2",
      "velocity": 0.7559055118110236,
      "duration": "96i"
    },
    {
      "time": "161952i",
      "midiNote": 37,
      "noteName": "C#2",
      "velocity": 0.5039370078740157,
      "duration": "96i"
    },
    {
      "time": "162048i",
      "midiNote": 37,
      "noteName": "C#2",
      "velocity": 0.7559055118110236,
      "duration": "96i"
    },
    {
      "time": "162048i",
      "midiNote": 70,
      "noteName": "A#4",
      "velocity": 0.7559055118110236,
      "duration": "96i"
    },
    {
      "time": "162144i",
      "midiNote": 44,
      "noteName": "G#2",
      "velocity": 0.7559055118110236,
      "duration": "96i"
    },
    {
      "time": "162144i",
      "midiNote": 37,
      "noteName": "C#2",
      "velocity": 0.5039370078740157,
      "duration": "96i"
    },
    {
      "time": "162240i",
      "midiNote": 44,
      "noteName": "G#2",
      "velocity": 0.7559055118110236,
      "duration": "96i"
    },
    {
      "time": "162240i",
      "midiNote": 37,
      "noteName": "C#2",
      "velocity": 0.5039370078740157,
      "duration": "96i"
    },
    {
      "time": "162336i",
      "midiNote": 44,
      "noteName": "G#2",
      "velocity": 0.7559055118110236,
      "duration": "96i"
    },
    {
      "time": "162336i",
      "midiNote": 37,
      "noteName": "C#2",
      "velocity": 0.5039370078740157,
      "duration": "96i"
    },
    {
      "time": "162432i",
      "midiNote": 70,
      "noteName": "A#4",
      "velocity": 0.7559055118110236,
      "duration": "96i"
    },
    {
      "time": "162432i",
      "midiNote": 37,
      "noteName": "C#2",
      "velocity": 0.7559055118110236,
      "duration": "96i"
    },
    {
      "time": "162528i",
      "midiNote": 44,
      "noteName": "G#2",
      "velocity": 0.7559055118110236,
      "duration": "96i"
    },
    {
      "time": "162528i",
      "midiNote": 37,
      "noteName": "C#2",
      "velocity": 0.5039370078740157,
      "duration": "96i"
    },
    {
      "time": "162624i",
      "midiNote": 44,
      "noteName": "G#2",
      "velocity": 0.7559055118110236,
      "duration": "96i"
    },
    {
      "time": "162624i",
      "midiNote": 37,
      "noteName": "C#2",
      "velocity": 0.5039370078740157,
      "duration": "96i"
    },
    {
      "time": "162720i",
      "midiNote": 37,
      "noteName": "C#2",
      "velocity": 0.5039370078740157,
      "duration": "96i"
    },
    {
      "time": "162720i",
      "midiNote": 44,
      "noteName": "G#2",
      "velocity": 0.7559055118110236,
      "duration": "96i"
    },
    {
      "time": "162816i",
      "midiNote": 37,
      "noteName": "C#2",
      "velocity": 0.7559055118110236,
      "duration": "96i"
    },
    {
      "time": "162816i",
      "midiNote": 70,
      "noteName": "A#4",
      "velocity": 0.7559055118110236,
      "duration": "96i"
    },
    {
      "time": "162912i",
      "midiNote": 44,
      "noteName": "G#2",
      "velocity": 0.7559055118110236,
      "duration": "96i"
    },
    {
      "time": "162912i",
      "midiNote": 37,
      "noteName": "C#2",
      "velocity": 0.5039370078740157,
      "duration": "96i"
    },
    {
      "time": "163008i",
      "midiNote": 44,
      "noteName": "G#2",
      "velocity": 0.7559055118110236,
      "duration": "96i"
    },
    {
      "time": "163008i",
      "midiNote": 37,
      "noteName": "C#2",
      "velocity": 0.5039370078740157,
      "duration": "96i"
    },
    {
      "time": "163104i",
      "midiNote": 37,
      "noteName": "C#2",
      "velocity": 0.7559055118110236,
      "duration": "96i"
    },
    {
      "time": "163104i",
      "midiNote": 70,
      "noteName": "A#4",
      "velocity": 0.7559055118110236,
      "duration": "96i"
    },
    {
      "time": "163200i",
      "midiNote": 44,
      "noteName": "G#2",
      "velocity": 0.7559055118110236,
      "duration": "96i"
    },
    {
      "time": "163200i",
      "midiNote": 37,
      "noteName": "C#2",
      "velocity": 0.5039370078740157,
      "duration": "96i"
    },
    {
      "time": "163296i",
      "midiNote": 44,
      "noteName": "G#2",
      "velocity": 0.7559055118110236,
      "duration": "96i"
    },
    {
      "time": "163296i",
      "midiNote": 37,
      "noteName": "C#2",
      "velocity": 0.5039370078740157,
      "duration": "96i"
    },
    {
      "time": "163392i",
      "midiNote": 37,
      "noteName": "C#2",
      "velocity": 0.7559055118110236,
      "duration": "96i"
    },
    {
      "time": "163392i",
      "midiNote": 70,
      "noteName": "A#4",
      "velocity": 0.7559055118110236,
      "duration": "96i"
    },
    {
      "time": "163488i",
      "midiNote": 44,
      "noteName": "G#2",
      "velocity": 0.7559055118110236,
      "duration": "96i"
    },
    {
      "time": "163488i",
      "midiNote": 37,
      "noteName": "C#2",
      "velocity": 0.5039370078740157,
      "duration": "96i"
    },
    {
      "time": "163584i",
      "midiNote": 37,
      "noteName": "C#2",
      "velocity": 0.7559055118110236,
      "duration": "96i"
    },
    {
      "time": "163584i",
      "midiNote": 70,
      "noteName": "A#4",
      "velocity": 0.7559055118110236,
      "duration": "96i"
    },
    {
      "time": "163680i",
      "midiNote": 44,
      "noteName": "G#2",
      "velocity": 0.7559055118110236,
      "duration": "96i"
    },
    {
      "time": "163680i",
      "midiNote": 37,
      "noteName": "C#2",
      "velocity": 0.5039370078740157,
      "duration": "96i"
    },
    {
      "time": "163776i",
      "midiNote": 44,
      "noteName": "G#2",
      "velocity": 0.7559055118110236,
      "duration": "96i"
    },
    {
      "time": "163776i",
      "midiNote": 37,
      "noteName": "C#2",
      "velocity": 0.5039370078740157,
      "duration": "96i"
    },
    {
      "time": "163872i",
      "midiNote": 44,
      "noteName": "G#2",
      "velocity": 0.7559055118110236,
      "duration": "96i"
    },
    {
      "time": "163872i",
      "midiNote": 37,
      "noteName": "C#2",
      "velocity": 0.5039370078740157,
      "duration": "96i"
    },
    {
      "time": "163968i",
      "midiNote": 70,
      "noteName": "A#4",
      "velocity": 0.7559055118110236,
      "duration": "96i"
    },
    {
      "time": "163968i",
      "midiNote": 37,
      "noteName": "C#2",
      "velocity": 0.7559055118110236,
      "duration": "96i"
    },
    {
      "time": "164064i",
      "midiNote": 44,
      "noteName": "G#2",
      "velocity": 0.7559055118110236,
      "duration": "96i"
    },
    {
      "time": "164064i",
      "midiNote": 37,
      "noteName": "C#2",
      "velocity": 0.5039370078740157,
      "duration": "96i"
    },
    {
      "time": "164160i",
      "midiNote": 44,
      "noteName": "G#2",
      "velocity": 0.7559055118110236,
      "duration": "96i"
    },
    {
      "time": "164160i",
      "midiNote": 37,
      "noteName": "C#2",
      "velocity": 0.5039370078740157,
      "duration": "96i"
    },
    {
      "time": "164256i",
      "midiNote": 37,
      "noteName": "C#2",
      "velocity": 0.5039370078740157,
      "duration": "96i"
    },
    {
      "time": "164256i",
      "midiNote": 44,
      "noteName": "G#2",
      "velocity": 0.7559055118110236,
      "duration": "96i"
    },
    {
      "time": "164352i",
      "midiNote": 37,
      "noteName": "C#2",
      "velocity": 0.7559055118110236,
      "duration": "96i"
    },
    {
      "time": "164352i",
      "midiNote": 70,
      "noteName": "A#4",
      "velocity": 0.7559055118110236,
      "duration": "96i"
    },
    {
      "time": "164448i",
      "midiNote": 44,
      "noteName": "G#2",
      "velocity": 0.7559055118110236,
      "duration": "96i"
    },
    {
      "time": "164448i",
      "midiNote": 37,
      "noteName": "C#2",
      "velocity": 0.5039370078740157,
      "duration": "96i"
    },
    {
      "time": "164544i",
      "midiNote": 44,
      "noteName": "G#2",
      "velocity": 0.7559055118110236,
      "duration": "96i"
    },
    {
      "time": "164544i",
      "midiNote": 37,
      "noteName": "C#2",
      "velocity": 0.5039370078740157,
      "duration": "96i"
    },
    {
      "time": "164640i",
      "midiNote": 37,
      "noteName": "C#2",
      "velocity": 0.7559055118110236,
      "duration": "96i"
    },
    {
      "time": "164640i",
      "midiNote": 70,
      "noteName": "A#4",
      "velocity": 0.7559055118110236,
      "duration": "96i"
    },
    {
      "time": "164736i",
      "midiNote": 44,
      "noteName": "G#2",
      "velocity": 0.7559055118110236,
      "duration": "96i"
    },
    {
      "time": "164736i",
      "midiNote": 37,
      "noteName": "C#2",
      "velocity": 0.5039370078740157,
      "duration": "96i"
    },
    {
      "time": "164832i",
      "midiNote": 44,
      "noteName": "G#2",
      "velocity": 0.7559055118110236,
      "duration": "96i"
    },
    {
      "time": "164832i",
      "midiNote": 37,
      "noteName": "C#2",
      "velocity": 0.5039370078740157,
      "duration": "96i"
    },
    {
      "time": "164928i",
      "midiNote": 37,
      "noteName": "C#2",
      "velocity": 0.7559055118110236,
      "duration": "96i"
    },
    {
      "time": "164928i",
      "midiNote": 70,
      "noteName": "A#4",
      "velocity": 0.7559055118110236,
      "duration": "96i"
    },
    {
      "time": "165024i",
      "midiNote": 44,
      "noteName": "G#2",
      "velocity": 0.7559055118110236,
      "duration": "96i"
    },
    {
      "time": "165024i",
      "midiNote": 37,
      "noteName": "C#2",
      "velocity": 0.5039370078740157,
      "duration": "96i"
    },
    {
      "time": "165120i",
      "midiNote": 37,
      "noteName": "C#2",
      "velocity": 0.7559055118110236,
      "duration": "96i"
    },
    {
      "time": "165120i",
      "midiNote": 70,
      "noteName": "A#4",
      "velocity": 0.7559055118110236,
      "duration": "96i"
    },
    {
      "time": "165216i",
      "midiNote": 44,
      "noteName": "G#2",
      "velocity": 0.7559055118110236,
      "duration": "96i"
    },
    {
      "time": "165216i",
      "midiNote": 37,
      "noteName": "C#2",
      "velocity": 0.5039370078740157,
      "duration": "96i"
    },
    {
      "time": "165312i",
      "midiNote": 44,
      "noteName": "G#2",
      "velocity": 0.7559055118110236,
      "duration": "96i"
    },
    {
      "time": "165312i",
      "midiNote": 37,
      "noteName": "C#2",
      "velocity": 0.5039370078740157,
      "duration": "96i"
    },
    {
      "time": "165408i",
      "midiNote": 44,
      "noteName": "G#2",
      "velocity": 0.7559055118110236,
      "duration": "96i"
    },
    {
      "time": "165408i",
      "midiNote": 37,
      "noteName": "C#2",
      "velocity": 0.5039370078740157,
      "duration": "96i"
    },
    {
      "time": "165504i",
      "midiNote": 70,
      "noteName": "A#4",
      "velocity": 0.7559055118110236,
      "duration": "96i"
    },
    {
      "time": "165504i",
      "midiNote": 37,
      "noteName": "C#2",
      "velocity": 0.7559055118110236,
      "duration": "96i"
    },
    {
      "time": "165600i",
      "midiNote": 44,
      "noteName": "G#2",
      "velocity": 0.7559055118110236,
      "duration": "96i"
    },
    {
      "time": "165600i",
      "midiNote": 37,
      "noteName": "C#2",
      "velocity": 0.5039370078740157,
      "duration": "96i"
    },
    {
      "time": "165696i",
      "midiNote": 44,
      "noteName": "G#2",
      "velocity": 0.7559055118110236,
      "duration": "96i"
    },
    {
      "time": "165696i",
      "midiNote": 37,
      "noteName": "C#2",
      "velocity": 0.5039370078740157,
      "duration": "96i"
    },
    {
      "time": "165792i",
      "midiNote": 37,
      "noteName": "C#2",
      "velocity": 0.5039370078740157,
      "duration": "96i"
    },
    {
      "time": "165792i",
      "midiNote": 44,
      "noteName": "G#2",
      "velocity": 0.7559055118110236,
      "duration": "96i"
    },
    {
      "time": "165888i",
      "midiNote": 37,
      "noteName": "C#2",
      "velocity": 0.7559055118110236,
      "duration": "96i"
    },
    {
      "time": "165888i",
      "midiNote": 70,
      "noteName": "A#4",
      "velocity": 0.7559055118110236,
      "duration": "96i"
    },
    {
      "time": "165984i",
      "midiNote": 44,
      "noteName": "G#2",
      "velocity": 0.7559055118110236,
      "duration": "96i"
    },
    {
      "time": "165984i",
      "midiNote": 37,
      "noteName": "C#2",
      "velocity": 0.5039370078740157,
      "duration": "96i"
    },
    {
      "time": "166080i",
      "midiNote": 44,
      "noteName": "G#2",
      "velocity": 0.7559055118110236,
      "duration": "96i"
    },
    {
      "time": "166080i",
      "midiNote": 37,
      "noteName": "C#2",
      "velocity": 0.5039370078740157,
      "duration": "96i"
    },
    {
      "time": "166176i",
      "midiNote": 37,
      "noteName": "C#2",
      "velocity": 0.7559055118110236,
      "duration": "96i"
    },
    {
      "time": "166176i",
      "midiNote": 70,
      "noteName": "A#4",
      "velocity": 0.7559055118110236,
      "duration": "96i"
    },
    {
      "time": "166272i",
      "midiNote": 44,
      "noteName": "G#2",
      "velocity": 0.7559055118110236,
      "duration": "96i"
    },
    {
      "time": "166272i",
      "midiNote": 37,
      "noteName": "C#2",
      "velocity": 0.5039370078740157,
      "duration": "96i"
    },
    {
      "time": "166368i",
      "midiNote": 44,
      "noteName": "G#2",
      "velocity": 0.7559055118110236,
      "duration": "96i"
    },
    {
      "time": "166368i",
      "midiNote": 37,
      "noteName": "C#2",
      "velocity": 0.5039370078740157,
      "duration": "96i"
    },
    {
      "time": "166464i",
      "midiNote": 37,
      "noteName": "C#2",
      "velocity": 0.7559055118110236,
      "duration": "96i"
    },
    {
      "time": "166464i",
      "midiNote": 70,
      "noteName": "A#4",
      "velocity": 0.7559055118110236,
      "duration": "96i"
    },
    {
      "time": "166560i",
      "midiNote": 44,
      "noteName": "G#2",
      "velocity": 0.7559055118110236,
      "duration": "96i"
    },
    {
      "time": "166560i",
      "midiNote": 37,
      "noteName": "C#2",
      "velocity": 0.5039370078740157,
      "duration": "96i"
    },
    {
      "time": "166656i",
      "midiNote": 37,
      "noteName": "C#2",
      "velocity": 0.7559055118110236,
      "duration": "96i"
    },
    {
      "time": "166656i",
      "midiNote": 70,
      "noteName": "A#4",
      "velocity": 0.7559055118110236,
      "duration": "96i"
    },
    {
      "time": "166752i",
      "midiNote": 44,
      "noteName": "G#2",
      "velocity": 0.7559055118110236,
      "duration": "96i"
    },
    {
      "time": "166752i",
      "midiNote": 37,
      "noteName": "C#2",
      "velocity": 0.5039370078740157,
      "duration": "96i"
    },
    {
      "time": "166848i",
      "midiNote": 44,
      "noteName": "G#2",
      "velocity": 0.7559055118110236,
      "duration": "96i"
    },
    {
      "time": "166848i",
      "midiNote": 37,
      "noteName": "C#2",
      "velocity": 0.5039370078740157,
      "duration": "96i"
    },
    {
      "time": "166944i",
      "midiNote": 44,
      "noteName": "G#2",
      "velocity": 0.7559055118110236,
      "duration": "96i"
    },
    {
      "time": "166944i",
      "midiNote": 37,
      "noteName": "C#2",
      "velocity": 0.5039370078740157,
      "duration": "96i"
    },
    {
      "time": "167040i",
      "midiNote": 70,
      "noteName": "A#4",
      "velocity": 0.7559055118110236,
      "duration": "96i"
    },
    {
      "time": "167040i",
      "midiNote": 37,
      "noteName": "C#2",
      "velocity": 0.7559055118110236,
      "duration": "96i"
    },
    {
      "time": "167136i",
      "midiNote": 44,
      "noteName": "G#2",
      "velocity": 0.7559055118110236,
      "duration": "96i"
    },
    {
      "time": "167136i",
      "midiNote": 37,
      "noteName": "C#2",
      "velocity": 0.5039370078740157,
      "duration": "96i"
    },
    {
      "time": "167232i",
      "midiNote": 44,
      "noteName": "G#2",
      "velocity": 0.7559055118110236,
      "duration": "96i"
    },
    {
      "time": "167232i",
      "midiNote": 37,
      "noteName": "C#2",
      "velocity": 0.5039370078740157,
      "duration": "96i"
    },
    {
      "time": "167328i",
      "midiNote": 37,
      "noteName": "C#2",
      "velocity": 0.5039370078740157,
      "duration": "96i"
    },
    {
      "time": "167328i",
      "midiNote": 44,
      "noteName": "G#2",
      "velocity": 0.7559055118110236,
      "duration": "96i"
    },
    {
      "time": "167424i",
      "midiNote": 37,
      "noteName": "C#2",
      "velocity": 0.7559055118110236,
      "duration": "96i"
    },
    {
      "time": "167424i",
      "midiNote": 70,
      "noteName": "A#4",
      "velocity": 0.7559055118110236,
      "duration": "96i"
    },
    {
      "time": "167520i",
      "midiNote": 44,
      "noteName": "G#2",
      "velocity": 0.7559055118110236,
      "duration": "96i"
    },
    {
      "time": "167520i",
      "midiNote": 37,
      "noteName": "C#2",
      "velocity": 0.5039370078740157,
      "duration": "96i"
    },
    {
      "time": "167616i",
      "midiNote": 44,
      "noteName": "G#2",
      "velocity": 0.7559055118110236,
      "duration": "96i"
    },
    {
      "time": "167616i",
      "midiNote": 37,
      "noteName": "C#2",
      "velocity": 0.5039370078740157,
      "duration": "96i"
    },
    {
      "time": "167712i",
      "midiNote": 37,
      "noteName": "C#2",
      "velocity": 0.7559055118110236,
      "duration": "96i"
    },
    {
      "time": "167712i",
      "midiNote": 70,
      "noteName": "A#4",
      "velocity": 0.7559055118110236,
      "duration": "96i"
    },
    {
      "time": "167808i",
      "midiNote": 44,
      "noteName": "G#2",
      "velocity": 0.7559055118110236,
      "duration": "96i"
    },
    {
      "time": "167808i",
      "midiNote": 37,
      "noteName": "C#2",
      "velocity": 0.5039370078740157,
      "duration": "96i"
    },
    {
      "time": "167904i",
      "midiNote": 44,
      "noteName": "G#2",
      "velocity": 0.7559055118110236,
      "duration": "96i"
    },
    {
      "time": "167904i",
      "midiNote": 37,
      "noteName": "C#2",
      "velocity": 0.5039370078740157,
      "duration": "96i"
    },
    {
      "time": "168000i",
      "midiNote": 37,
      "noteName": "C#2",
      "velocity": 0.7559055118110236,
      "duration": "96i"
    },
    {
      "time": "168000i",
      "midiNote": 70,
      "noteName": "A#4",
      "velocity": 0.7559055118110236,
      "duration": "96i"
    },
    {
      "time": "168096i",
      "midiNote": 44,
      "noteName": "G#2",
      "velocity": 0.7559055118110236,
      "duration": "96i"
    },
    {
      "time": "168096i",
      "midiNote": 37,
      "noteName": "C#2",
      "velocity": 0.5039370078740157,
      "duration": "96i"
    },
    {
      "time": "168192i",
      "midiNote": 37,
      "noteName": "C#2",
      "velocity": 0.7559055118110236,
      "duration": "96i"
    },
    {
      "time": "168192i",
      "midiNote": 70,
      "noteName": "A#4",
      "velocity": 0.7559055118110236,
      "duration": "96i"
    },
    {
      "time": "168288i",
      "midiNote": 44,
      "noteName": "G#2",
      "velocity": 0.7559055118110236,
      "duration": "96i"
    },
    {
      "time": "168288i",
      "midiNote": 37,
      "noteName": "C#2",
      "velocity": 0.5039370078740157,
      "duration": "96i"
    },
    {
      "time": "168384i",
      "midiNote": 44,
      "noteName": "G#2",
      "velocity": 0.7559055118110236,
      "duration": "96i"
    },
    {
      "time": "168384i",
      "midiNote": 37,
      "noteName": "C#2",
      "velocity": 0.5039370078740157,
      "duration": "96i"
    },
    {
      "time": "168480i",
      "midiNote": 44,
      "noteName": "G#2",
      "velocity": 0.7559055118110236,
      "duration": "96i"
    },
    {
      "time": "168480i",
      "midiNote": 37,
      "noteName": "C#2",
      "velocity": 0.5039370078740157,
      "duration": "96i"
    },
    {
      "time": "168576i",
      "midiNote": 70,
      "noteName": "A#4",
      "velocity": 0.7559055118110236,
      "duration": "96i"
    },
    {
      "time": "168576i",
      "midiNote": 37,
      "noteName": "C#2",
      "velocity": 0.7559055118110236,
      "duration": "96i"
    },
    {
      "time": "168672i",
      "midiNote": 44,
      "noteName": "G#2",
      "velocity": 0.7559055118110236,
      "duration": "96i"
    },
    {
      "time": "168672i",
      "midiNote": 37,
      "noteName": "C#2",
      "velocity": 0.5039370078740157,
      "duration": "96i"
    },
    {
      "time": "168768i",
      "midiNote": 44,
      "noteName": "G#2",
      "velocity": 0.7559055118110236,
      "duration": "96i"
    },
    {
      "time": "168768i",
      "midiNote": 37,
      "noteName": "C#2",
      "velocity": 0.5039370078740157,
      "duration": "96i"
    },
    {
      "time": "168864i",
      "midiNote": 37,
      "noteName": "C#2",
      "velocity": 0.5039370078740157,
      "duration": "96i"
    },
    {
      "time": "168864i",
      "midiNote": 44,
      "noteName": "G#2",
      "velocity": 0.7559055118110236,
      "duration": "96i"
    },
    {
      "time": "168960i",
      "midiNote": 37,
      "noteName": "C#2",
      "velocity": 0.7559055118110236,
      "duration": "96i"
    },
    {
      "time": "168960i",
      "midiNote": 70,
      "noteName": "A#4",
      "velocity": 0.7559055118110236,
      "duration": "96i"
    },
    {
      "time": "169056i",
      "midiNote": 44,
      "noteName": "G#2",
      "velocity": 0.7559055118110236,
      "duration": "96i"
    },
    {
      "time": "169056i",
      "midiNote": 37,
      "noteName": "C#2",
      "velocity": 0.5039370078740157,
      "duration": "96i"
    },
    {
      "time": "169152i",
      "midiNote": 44,
      "noteName": "G#2",
      "velocity": 0.7559055118110236,
      "duration": "96i"
    },
    {
      "time": "169152i",
      "midiNote": 37,
      "noteName": "C#2",
      "velocity": 0.5039370078740157,
      "duration": "96i"
    },
    {
      "time": "169248i",
      "midiNote": 37,
      "noteName": "C#2",
      "velocity": 0.7559055118110236,
      "duration": "96i"
    },
    {
      "time": "169248i",
      "midiNote": 70,
      "noteName": "A#4",
      "velocity": 0.7559055118110236,
      "duration": "96i"
    },
    {
      "time": "169344i",
      "midiNote": 44,
      "noteName": "G#2",
      "velocity": 0.7559055118110236,
      "duration": "96i"
    },
    {
      "time": "169344i",
      "midiNote": 37,
      "noteName": "C#2",
      "velocity": 0.5039370078740157,
      "duration": "96i"
    },
    {
      "time": "169440i",
      "midiNote": 44,
      "noteName": "G#2",
      "velocity": 0.7559055118110236,
      "duration": "96i"
    },
    {
      "time": "169440i",
      "midiNote": 37,
      "noteName": "C#2",
      "velocity": 0.5039370078740157,
      "duration": "96i"
    },
    {
      "time": "169536i",
      "midiNote": 37,
      "noteName": "C#2",
      "velocity": 0.7559055118110236,
      "duration": "96i"
    },
    {
      "time": "169536i",
      "midiNote": 70,
      "noteName": "A#4",
      "velocity": 0.7559055118110236,
      "duration": "96i"
    },
    {
      "time": "169632i",
      "midiNote": 44,
      "noteName": "G#2",
      "velocity": 0.7559055118110236,
      "duration": "96i"
    },
    {
      "time": "169632i",
      "midiNote": 37,
      "noteName": "C#2",
      "velocity": 0.5039370078740157,
      "duration": "96i"
    },
    {
      "time": "169728i",
      "midiNote": 37,
      "noteName": "C#2",
      "velocity": 0.7559055118110236,
      "duration": "96i"
    },
    {
      "time": "169728i",
      "midiNote": 70,
      "noteName": "A#4",
      "velocity": 0.7559055118110236,
      "duration": "96i"
    },
    {
      "time": "169824i",
      "midiNote": 44,
      "noteName": "G#2",
      "velocity": 0.7559055118110236,
      "duration": "96i"
    },
    {
      "time": "169824i",
      "midiNote": 37,
      "noteName": "C#2",
      "velocity": 0.5039370078740157,
      "duration": "96i"
    },
    {
      "time": "169920i",
      "midiNote": 44,
      "noteName": "G#2",
      "velocity": 0.7559055118110236,
      "duration": "96i"
    },
    {
      "time": "169920i",
      "midiNote": 37,
      "noteName": "C#2",
      "velocity": 0.5039370078740157,
      "duration": "96i"
    },
    {
      "time": "170016i",
      "midiNote": 44,
      "noteName": "G#2",
      "velocity": 0.7559055118110236,
      "duration": "96i"
    },
    {
      "time": "170016i",
      "midiNote": 37,
      "noteName": "C#2",
      "velocity": 0.5039370078740157,
      "duration": "96i"
    },
    {
      "time": "170112i",
      "midiNote": 70,
      "noteName": "A#4",
      "velocity": 0.7559055118110236,
      "duration": "96i"
    },
    {
      "time": "170112i",
      "midiNote": 37,
      "noteName": "C#2",
      "velocity": 0.7559055118110236,
      "duration": "96i"
    },
    {
      "time": "170208i",
      "midiNote": 44,
      "noteName": "G#2",
      "velocity": 0.7559055118110236,
      "duration": "96i"
    },
    {
      "time": "170208i",
      "midiNote": 37,
      "noteName": "C#2",
      "velocity": 0.5039370078740157,
      "duration": "96i"
    },
    {
      "time": "170304i",
      "midiNote": 44,
      "noteName": "G#2",
      "velocity": 0.7559055118110236,
      "duration": "96i"
    },
    {
      "time": "170304i",
      "midiNote": 37,
      "noteName": "C#2",
      "velocity": 0.5039370078740157,
      "duration": "96i"
    },
    {
      "time": "170400i",
      "midiNote": 37,
      "noteName": "C#2",
      "velocity": 0.5039370078740157,
      "duration": "96i"
    },
    {
      "time": "170400i",
      "midiNote": 44,
      "noteName": "G#2",
      "velocity": 0.7559055118110236,
      "duration": "96i"
    },
    {
      "time": "170496i",
      "midiNote": 37,
      "noteName": "C#2",
      "velocity": 0.7559055118110236,
      "duration": "96i"
    },
    {
      "time": "170496i",
      "midiNote": 70,
      "noteName": "A#4",
      "velocity": 0.7559055118110236,
      "duration": "96i"
    },
    {
      "time": "170592i",
      "midiNote": 44,
      "noteName": "G#2",
      "velocity": 0.7559055118110236,
      "duration": "96i"
    },
    {
      "time": "170592i",
      "midiNote": 37,
      "noteName": "C#2",
      "velocity": 0.5039370078740157,
      "duration": "96i"
    },
    {
      "time": "170688i",
      "midiNote": 44,
      "noteName": "G#2",
      "velocity": 0.7559055118110236,
      "duration": "96i"
    },
    {
      "time": "170688i",
      "midiNote": 37,
      "noteName": "C#2",
      "velocity": 0.5039370078740157,
      "duration": "96i"
    },
    {
      "time": "170784i",
      "midiNote": 37,
      "noteName": "C#2",
      "velocity": 0.7559055118110236,
      "duration": "96i"
    },
    {
      "time": "170784i",
      "midiNote": 70,
      "noteName": "A#4",
      "velocity": 0.7559055118110236,
      "duration": "96i"
    },
    {
      "time": "170880i",
      "midiNote": 44,
      "noteName": "G#2",
      "velocity": 0.7559055118110236,
      "duration": "96i"
    },
    {
      "time": "170880i",
      "midiNote": 37,
      "noteName": "C#2",
      "velocity": 0.5039370078740157,
      "duration": "96i"
    },
    {
      "time": "170976i",
      "midiNote": 44,
      "noteName": "G#2",
      "velocity": 0.7559055118110236,
      "duration": "96i"
    },
    {
      "time": "170976i",
      "midiNote": 37,
      "noteName": "C#2",
      "velocity": 0.5039370078740157,
      "duration": "96i"
    },
    {
      "time": "171072i",
      "midiNote": 37,
      "noteName": "C#2",
      "velocity": 0.7559055118110236,
      "duration": "96i"
    },
    {
      "time": "171072i",
      "midiNote": 70,
      "noteName": "A#4",
      "velocity": 0.7559055118110236,
      "duration": "96i"
    },
    {
      "time": "171168i",
      "midiNote": 44,
      "noteName": "G#2",
      "velocity": 0.7559055118110236,
      "duration": "96i"
    },
    {
      "time": "171168i",
      "midiNote": 37,
      "noteName": "C#2",
      "velocity": 0.5039370078740157,
      "duration": "96i"
    },
    {
      "time": "171264i",
      "midiNote": 37,
      "noteName": "C#2",
      "velocity": 0.7559055118110236,
      "duration": "96i"
    },
    {
      "time": "171264i",
      "midiNote": 70,
      "noteName": "A#4",
      "velocity": 0.7559055118110236,
      "duration": "96i"
    },
    {
      "time": "171360i",
      "midiNote": 44,
      "noteName": "G#2",
      "velocity": 0.7559055118110236,
      "duration": "96i"
    },
    {
      "time": "171360i",
      "midiNote": 37,
      "noteName": "C#2",
      "velocity": 0.5039370078740157,
      "duration": "96i"
    },
    {
      "time": "171456i",
      "midiNote": 44,
      "noteName": "G#2",
      "velocity": 0.7559055118110236,
      "duration": "96i"
    },
    {
      "time": "171456i",
      "midiNote": 37,
      "noteName": "C#2",
      "velocity": 0.5039370078740157,
      "duration": "96i"
    },
    {
      "time": "171552i",
      "midiNote": 44,
      "noteName": "G#2",
      "velocity": 0.7559055118110236,
      "duration": "96i"
    },
    {
      "time": "171552i",
      "midiNote": 37,
      "noteName": "C#2",
      "velocity": 0.5039370078740157,
      "duration": "96i"
    },
    {
      "time": "171648i",
      "midiNote": 70,
      "noteName": "A#4",
      "velocity": 0.7559055118110236,
      "duration": "96i"
    },
    {
      "time": "171648i",
      "midiNote": 37,
      "noteName": "C#2",
      "velocity": 0.7559055118110236,
      "duration": "96i"
    },
    {
      "time": "171744i",
      "midiNote": 44,
      "noteName": "G#2",
      "velocity": 0.7559055118110236,
      "duration": "96i"
    },
    {
      "time": "171744i",
      "midiNote": 37,
      "noteName": "C#2",
      "velocity": 0.5039370078740157,
      "duration": "96i"
    },
    {
      "time": "171840i",
      "midiNote": 44,
      "noteName": "G#2",
      "velocity": 0.7559055118110236,
      "duration": "96i"
    },
    {
      "time": "171840i",
      "midiNote": 37,
      "noteName": "C#2",
      "velocity": 0.5039370078740157,
      "duration": "96i"
    },
    {
      "time": "171936i",
      "midiNote": 37,
      "noteName": "C#2",
      "velocity": 0.5039370078740157,
      "duration": "96i"
    },
    {
      "time": "171936i",
      "midiNote": 44,
      "noteName": "G#2",
      "velocity": 0.7559055118110236,
      "duration": "96i"
    },
    {
      "time": "172032i",
      "midiNote": 37,
      "noteName": "C#2",
      "velocity": 0.7559055118110236,
      "duration": "96i"
    },
    {
      "time": "172032i",
      "midiNote": 70,
      "noteName": "A#4",
      "velocity": 0.7559055118110236,
      "duration": "96i"
    },
    {
      "time": "172128i",
      "midiNote": 44,
      "noteName": "G#2",
      "velocity": 0.7559055118110236,
      "duration": "96i"
    },
    {
      "time": "172128i",
      "midiNote": 37,
      "noteName": "C#2",
      "velocity": 0.5039370078740157,
      "duration": "96i"
    },
    {
      "time": "172224i",
      "midiNote": 44,
      "noteName": "G#2",
      "velocity": 0.7559055118110236,
      "duration": "96i"
    },
    {
      "time": "172224i",
      "midiNote": 37,
      "noteName": "C#2",
      "velocity": 0.5039370078740157,
      "duration": "96i"
    },
    {
      "time": "172320i",
      "midiNote": 37,
      "noteName": "C#2",
      "velocity": 0.7559055118110236,
      "duration": "96i"
    },
    {
      "time": "172320i",
      "midiNote": 70,
      "noteName": "A#4",
      "velocity": 0.7559055118110236,
      "duration": "96i"
    },
    {
      "time": "172416i",
      "midiNote": 44,
      "noteName": "G#2",
      "velocity": 0.7559055118110236,
      "duration": "96i"
    },
    {
      "time": "172416i",
      "midiNote": 37,
      "noteName": "C#2",
      "velocity": 0.5039370078740157,
      "duration": "96i"
    },
    {
      "time": "172512i",
      "midiNote": 44,
      "noteName": "G#2",
      "velocity": 0.7559055118110236,
      "duration": "96i"
    },
    {
      "time": "172512i",
      "midiNote": 37,
      "noteName": "C#2",
      "velocity": 0.5039370078740157,
      "duration": "96i"
    },
    {
      "time": "172608i",
      "midiNote": 37,
      "noteName": "C#2",
      "velocity": 0.7559055118110236,
      "duration": "96i"
    },
    {
      "time": "172608i",
      "midiNote": 70,
      "noteName": "A#4",
      "velocity": 0.7559055118110236,
      "duration": "96i"
    },
    {
      "time": "172704i",
      "midiNote": 44,
      "noteName": "G#2",
      "velocity": 0.7559055118110236,
      "duration": "96i"
    },
    {
      "time": "172704i",
      "midiNote": 37,
      "noteName": "C#2",
      "velocity": 0.5039370078740157,
      "duration": "96i"
    },
    {
      "time": "172800i",
      "midiNote": 37,
      "noteName": "C#2",
      "velocity": 0.7559055118110236,
      "duration": "96i"
    },
    {
      "time": "172800i",
      "midiNote": 70,
      "noteName": "A#4",
      "velocity": 0.7559055118110236,
      "duration": "96i"
    },
    {
      "time": "172896i",
      "midiNote": 44,
      "noteName": "G#2",
      "velocity": 0.7559055118110236,
      "duration": "96i"
    },
    {
      "time": "172896i",
      "midiNote": 37,
      "noteName": "C#2",
      "velocity": 0.5039370078740157,
      "duration": "96i"
    },
    {
      "time": "172992i",
      "midiNote": 44,
      "noteName": "G#2",
      "velocity": 0.7559055118110236,
      "duration": "96i"
    },
    {
      "time": "172992i",
      "midiNote": 37,
      "noteName": "C#2",
      "velocity": 0.5039370078740157,
      "duration": "96i"
    },
    {
      "time": "173088i",
      "midiNote": 44,
      "noteName": "G#2",
      "velocity": 0.7559055118110236,
      "duration": "96i"
    },
    {
      "time": "173088i",
      "midiNote": 37,
      "noteName": "C#2",
      "velocity": 0.5039370078740157,
      "duration": "96i"
    },
    {
      "time": "173184i",
      "midiNote": 70,
      "noteName": "A#4",
      "velocity": 0.7559055118110236,
      "duration": "96i"
    },
    {
      "time": "173184i",
      "midiNote": 37,
      "noteName": "C#2",
      "velocity": 0.7559055118110236,
      "duration": "96i"
    },
    {
      "time": "173280i",
      "midiNote": 44,
      "noteName": "G#2",
      "velocity": 0.7559055118110236,
      "duration": "96i"
    },
    {
      "time": "173280i",
      "midiNote": 37,
      "noteName": "C#2",
      "velocity": 0.5039370078740157,
      "duration": "96i"
    },
    {
      "time": "173376i",
      "midiNote": 44,
      "noteName": "G#2",
      "velocity": 0.7559055118110236,
      "duration": "96i"
    },
    {
      "time": "173376i",
      "midiNote": 37,
      "noteName": "C#2",
      "velocity": 0.5039370078740157,
      "duration": "96i"
    },
    {
      "time": "173472i",
      "midiNote": 37,
      "noteName": "C#2",
      "velocity": 0.5039370078740157,
      "duration": "96i"
    },
    {
      "time": "173472i",
      "midiNote": 44,
      "noteName": "G#2",
      "velocity": 0.7559055118110236,
      "duration": "96i"
    },
    {
      "time": "173568i",
      "midiNote": 37,
      "noteName": "C#2",
      "velocity": 0.7559055118110236,
      "duration": "96i"
    },
    {
      "time": "173568i",
      "midiNote": 70,
      "noteName": "A#4",
      "velocity": 0.7559055118110236,
      "duration": "96i"
    },
    {
      "time": "173664i",
      "midiNote": 44,
      "noteName": "G#2",
      "velocity": 0.7559055118110236,
      "duration": "96i"
    },
    {
      "time": "173664i",
      "midiNote": 37,
      "noteName": "C#2",
      "velocity": 0.5039370078740157,
      "duration": "96i"
    },
    {
      "time": "173760i",
      "midiNote": 44,
      "noteName": "G#2",
      "velocity": 0.7559055118110236,
      "duration": "96i"
    },
    {
      "time": "173760i",
      "midiNote": 37,
      "noteName": "C#2",
      "velocity": 0.5039370078740157,
      "duration": "96i"
    },
    {
      "time": "173856i",
      "midiNote": 37,
      "noteName": "C#2",
      "velocity": 0.7559055118110236,
      "duration": "96i"
    },
    {
      "time": "173856i",
      "midiNote": 70,
      "noteName": "A#4",
      "velocity": 0.7559055118110236,
      "duration": "96i"
    },
    {
      "time": "173952i",
      "midiNote": 44,
      "noteName": "G#2",
      "velocity": 0.7559055118110236,
      "duration": "96i"
    },
    {
      "time": "173952i",
      "midiNote": 37,
      "noteName": "C#2",
      "velocity": 0.5039370078740157,
      "duration": "96i"
    },
    {
      "time": "174048i",
      "midiNote": 44,
      "noteName": "G#2",
      "velocity": 0.7559055118110236,
      "duration": "96i"
    },
    {
      "time": "174048i",
      "midiNote": 37,
      "noteName": "C#2",
      "velocity": 0.5039370078740157,
      "duration": "96i"
    },
    {
      "time": "174144i",
      "midiNote": 37,
      "noteName": "C#2",
      "velocity": 0.7559055118110236,
      "duration": "96i"
    },
    {
      "time": "174144i",
      "midiNote": 70,
      "noteName": "A#4",
      "velocity": 0.7559055118110236,
      "duration": "96i"
    },
    {
      "time": "174240i",
      "midiNote": 44,
      "noteName": "G#2",
      "velocity": 0.7559055118110236,
      "duration": "96i"
    },
    {
      "time": "174240i",
      "midiNote": 37,
      "noteName": "C#2",
      "velocity": 0.5039370078740157,
      "duration": "96i"
    },
    {
      "time": "174336i",
      "midiNote": 37,
      "noteName": "C#2",
      "velocity": 0.7559055118110236,
      "duration": "96i"
    },
    {
      "time": "174336i",
      "midiNote": 70,
      "noteName": "A#4",
      "velocity": 0.7559055118110236,
      "duration": "96i"
    },
    {
      "time": "174432i",
      "midiNote": 44,
      "noteName": "G#2",
      "velocity": 0.7559055118110236,
      "duration": "96i"
    },
    {
      "time": "174432i",
      "midiNote": 37,
      "noteName": "C#2",
      "velocity": 0.5039370078740157,
      "duration": "96i"
    },
    {
      "time": "174528i",
      "midiNote": 44,
      "noteName": "G#2",
      "velocity": 0.7559055118110236,
      "duration": "96i"
    },
    {
      "time": "174528i",
      "midiNote": 37,
      "noteName": "C#2",
      "velocity": 0.5039370078740157,
      "duration": "96i"
    },
    {
      "time": "174624i",
      "midiNote": 44,
      "noteName": "G#2",
      "velocity": 0.7559055118110236,
      "duration": "96i"
    },
    {
      "time": "174624i",
      "midiNote": 37,
      "noteName": "C#2",
      "velocity": 0.5039370078740157,
      "duration": "96i"
    },
    {
      "time": "174720i",
      "midiNote": 70,
      "noteName": "A#4",
      "velocity": 0.7559055118110236,
      "duration": "96i"
    },
    {
      "time": "174720i",
      "midiNote": 37,
      "noteName": "C#2",
      "velocity": 0.7559055118110236,
      "duration": "96i"
    },
    {
      "time": "174816i",
      "midiNote": 44,
      "noteName": "G#2",
      "velocity": 0.7559055118110236,
      "duration": "96i"
    },
    {
      "time": "174816i",
      "midiNote": 37,
      "noteName": "C#2",
      "velocity": 0.5039370078740157,
      "duration": "96i"
    },
    {
      "time": "174912i",
      "midiNote": 44,
      "noteName": "G#2",
      "velocity": 0.7559055118110236,
      "duration": "96i"
    },
    {
      "time": "174912i",
      "midiNote": 37,
      "noteName": "C#2",
      "velocity": 0.5039370078740157,
      "duration": "96i"
    },
    {
      "time": "175008i",
      "midiNote": 37,
      "noteName": "C#2",
      "velocity": 0.5039370078740157,
      "duration": "96i"
    },
    {
      "time": "175008i",
      "midiNote": 44,
      "noteName": "G#2",
      "velocity": 0.7559055118110236,
      "duration": "96i"
    },
    {
      "time": "175104i",
      "midiNote": 37,
      "noteName": "C#2",
      "velocity": 0.7559055118110236,
      "duration": "96i"
    },
    {
      "time": "175104i",
      "midiNote": 70,
      "noteName": "A#4",
      "velocity": 0.7559055118110236,
      "duration": "96i"
    },
    {
      "time": "175200i",
      "midiNote": 44,
      "noteName": "G#2",
      "velocity": 0.7559055118110236,
      "duration": "96i"
    },
    {
      "time": "175200i",
      "midiNote": 37,
      "noteName": "C#2",
      "velocity": 0.5039370078740157,
      "duration": "96i"
    },
    {
      "time": "175296i",
      "midiNote": 44,
      "noteName": "G#2",
      "velocity": 0.7559055118110236,
      "duration": "96i"
    },
    {
      "time": "175296i",
      "midiNote": 37,
      "noteName": "C#2",
      "velocity": 0.5039370078740157,
      "duration": "96i"
    },
    {
      "time": "175392i",
      "midiNote": 37,
      "noteName": "C#2",
      "velocity": 0.7559055118110236,
      "duration": "96i"
    },
    {
      "time": "175392i",
      "midiNote": 70,
      "noteName": "A#4",
      "velocity": 0.7559055118110236,
      "duration": "96i"
    },
    {
      "time": "175488i",
      "midiNote": 44,
      "noteName": "G#2",
      "velocity": 0.7559055118110236,
      "duration": "96i"
    },
    {
      "time": "175488i",
      "midiNote": 37,
      "noteName": "C#2",
      "velocity": 0.5039370078740157,
      "duration": "96i"
    },
    {
      "time": "175584i",
      "midiNote": 44,
      "noteName": "G#2",
      "velocity": 0.7559055118110236,
      "duration": "96i"
    },
    {
      "time": "175584i",
      "midiNote": 37,
      "noteName": "C#2",
      "velocity": 0.5039370078740157,
      "duration": "96i"
    },
    {
      "time": "175680i",
      "midiNote": 37,
      "noteName": "C#2",
      "velocity": 0.7559055118110236,
      "duration": "96i"
    },
    {
      "time": "175680i",
      "midiNote": 70,
      "noteName": "A#4",
      "velocity": 0.7559055118110236,
      "duration": "96i"
    },
    {
      "time": "175776i",
      "midiNote": 44,
      "noteName": "G#2",
      "velocity": 0.7559055118110236,
      "duration": "96i"
    },
    {
      "time": "175776i",
      "midiNote": 37,
      "noteName": "C#2",
      "velocity": 0.5039370078740157,
      "duration": "96i"
    },
    {
      "time": "175872i",
      "midiNote": 37,
      "noteName": "C#2",
      "velocity": 0.7559055118110236,
      "duration": "96i"
    },
    {
      "time": "175872i",
      "midiNote": 70,
      "noteName": "A#4",
      "velocity": 0.7559055118110236,
      "duration": "96i"
    },
    {
      "time": "175968i",
      "midiNote": 44,
      "noteName": "G#2",
      "velocity": 0.7559055118110236,
      "duration": "96i"
    },
    {
      "time": "175968i",
      "midiNote": 37,
      "noteName": "C#2",
      "velocity": 0.5039370078740157,
      "duration": "96i"
    },
    {
      "time": "176064i",
      "midiNote": 44,
      "noteName": "G#2",
      "velocity": 0.7559055118110236,
      "duration": "96i"
    },
    {
      "time": "176064i",
      "midiNote": 37,
      "noteName": "C#2",
      "velocity": 0.5039370078740157,
      "duration": "96i"
    },
    {
      "time": "176160i",
      "midiNote": 44,
      "noteName": "G#2",
      "velocity": 0.7559055118110236,
      "duration": "96i"
    },
    {
      "time": "176160i",
      "midiNote": 37,
      "noteName": "C#2",
      "velocity": 0.5039370078740157,
      "duration": "96i"
    },
    {
      "time": "176256i",
      "midiNote": 70,
      "noteName": "A#4",
      "velocity": 0.7559055118110236,
      "duration": "96i"
    },
    {
      "time": "176256i",
      "midiNote": 37,
      "noteName": "C#2",
      "velocity": 0.7559055118110236,
      "duration": "96i"
    },
    {
      "time": "176352i",
      "midiNote": 44,
      "noteName": "G#2",
      "velocity": 0.7559055118110236,
      "duration": "96i"
    },
    {
      "time": "176352i",
      "midiNote": 37,
      "noteName": "C#2",
      "velocity": 0.5039370078740157,
      "duration": "96i"
    },
    {
      "time": "176448i",
      "midiNote": 44,
      "noteName": "G#2",
      "velocity": 0.7559055118110236,
      "duration": "96i"
    },
    {
      "time": "176448i",
      "midiNote": 37,
      "noteName": "C#2",
      "velocity": 0.5039370078740157,
      "duration": "96i"
    },
    {
      "time": "176544i",
      "midiNote": 37,
      "noteName": "C#2",
      "velocity": 0.5039370078740157,
      "duration": "96i"
    },
    {
      "time": "176544i",
      "midiNote": 44,
      "noteName": "G#2",
      "velocity": 0.7559055118110236,
      "duration": "96i"
    },
    {
      "time": "176640i",
      "midiNote": 37,
      "noteName": "C#2",
      "velocity": 0.7559055118110236,
      "duration": "96i"
    },
    {
      "time": "176640i",
      "midiNote": 70,
      "noteName": "A#4",
      "velocity": 0.7559055118110236,
      "duration": "96i"
    },
    {
      "time": "176736i",
      "midiNote": 44,
      "noteName": "G#2",
      "velocity": 0.7559055118110236,
      "duration": "96i"
    },
    {
      "time": "176736i",
      "midiNote": 37,
      "noteName": "C#2",
      "velocity": 0.5039370078740157,
      "duration": "96i"
    },
    {
      "time": "176832i",
      "midiNote": 44,
      "noteName": "G#2",
      "velocity": 0.7559055118110236,
      "duration": "96i"
    },
    {
      "time": "176832i",
      "midiNote": 37,
      "noteName": "C#2",
      "velocity": 0.5039370078740157,
      "duration": "96i"
    },
    {
      "time": "176928i",
      "midiNote": 37,
      "noteName": "C#2",
      "velocity": 0.7559055118110236,
      "duration": "96i"
    },
    {
      "time": "176928i",
      "midiNote": 70,
      "noteName": "A#4",
      "velocity": 0.7559055118110236,
      "duration": "96i"
    },
    {
      "time": "177024i",
      "midiNote": 44,
      "noteName": "G#2",
      "velocity": 0.7559055118110236,
      "duration": "96i"
    },
    {
      "time": "177024i",
      "midiNote": 37,
      "noteName": "C#2",
      "velocity": 0.5039370078740157,
      "duration": "96i"
    },
    {
      "time": "177120i",
      "midiNote": 44,
      "noteName": "G#2",
      "velocity": 0.7559055118110236,
      "duration": "96i"
    },
    {
      "time": "177120i",
      "midiNote": 37,
      "noteName": "C#2",
      "velocity": 0.5039370078740157,
      "duration": "96i"
    },
    {
      "time": "177216i",
      "midiNote": 37,
      "noteName": "C#2",
      "velocity": 0.7559055118110236,
      "duration": "96i"
    },
    {
      "time": "177216i",
      "midiNote": 70,
      "noteName": "A#4",
      "velocity": 0.7559055118110236,
      "duration": "96i"
    },
    {
      "time": "177312i",
      "midiNote": 44,
      "noteName": "G#2",
      "velocity": 0.7559055118110236,
      "duration": "96i"
    },
    {
      "time": "177312i",
      "midiNote": 37,
      "noteName": "C#2",
      "velocity": 0.5039370078740157,
      "duration": "96i"
    }
  ]
]

buildTrack = parseMidi(parts: parts, transport: transport)
