require('v1/midi')

transport = {
  "bpm": 111,
  "timeSignature": [
    8,
    4
  ]
}

parts = [
  [
    {
      "time": "768i",
      "midiNote": 41,
      "noteName": "F2",
      "velocity": 0.905511811023622,
      "duration": "768i"
    },
    {
      "time": "816i",
      "midiNote": 48,
      "noteName": "C3",
      "velocity": 0.47244094488188976,
      "duration": "696i"
    },
    {
      "time": "864i",
      "midiNote": 53,
      "noteName": "F3",
      "velocity": 0.5590551181102362,
      "duration": "672i"
    },
    {
      "time": "888i",
      "midiNote": 57,
      "noteName": "A3",
      "velocity": 0.6456692913385826,
      "duration": "648i"
    },
    {
      "time": "912i",
      "midiNote": 62,
      "noteName": "D4",
      "velocity": 0.7322834645669292,
      "duration": "624i"
    },
    {
      "time": "944i",
      "midiNote": 64,
      "noteName": "E4",
      "velocity": 0.8031496062992126,
      "duration": "592i"
    },
    {
      "time": "1536i",
      "midiNote": 36,
      "noteName": "C2",
      "velocity": 0.905511811023622,
      "duration": "768i"
    },
    {
      "time": "1584i",
      "midiNote": 43,
      "noteName": "G2",
      "velocity": 0.47244094488188976,
      "duration": "720i"
    },
    {
      "time": "1632i",
      "midiNote": 52,
      "noteName": "E3",
      "velocity": 0.5590551181102362,
      "duration": "672i"
    },
    {
      "time": "1664i",
      "midiNote": 59,
      "noteName": "B3",
      "velocity": 0.6456692913385826,
      "duration": "640i"
    },
    {
      "time": "1696i",
      "midiNote": 62,
      "noteName": "D4",
      "velocity": 0.7322834645669292,
      "duration": "608i"
    },
    {
      "time": "1728i",
      "midiNote": 64,
      "noteName": "E4",
      "velocity": 0.8031496062992126,
      "duration": "576i"
    },
    {
      "time": "2304i",
      "midiNote": 41,
      "noteName": "F2",
      "velocity": 0.905511811023622,
      "duration": "384i"
    },
    {
      "time": "2352i",
      "midiNote": 48,
      "noteName": "C3",
      "velocity": 0.5196850393700787,
      "duration": "336i"
    },
    {
      "time": "2400i",
      "midiNote": 53,
      "noteName": "F3",
      "velocity": 0.6929133858267716,
      "duration": "288i"
    },
    {
      "time": "2432i",
      "midiNote": 57,
      "noteName": "A3",
      "velocity": 0.7559055118110236,
      "duration": "256i"
    },
    {
      "time": "2464i",
      "midiNote": 62,
      "noteName": "D4",
      "velocity": 0.7952755905511811,
      "duration": "224i"
    },
    {
      "time": "2496i",
      "midiNote": 64,
      "noteName": "E4",
      "velocity": 0.8661417322834646,
      "duration": "192i"
    },
    {
      "time": "2688i",
      "midiNote": 36,
      "noteName": "C2",
      "velocity": 0.905511811023622,
      "duration": "384i"
    },
    {
      "time": "2736i",
      "midiNote": 43,
      "noteName": "G2",
      "velocity": 0.5196850393700787,
      "duration": "336i"
    },
    {
      "time": "2784i",
      "midiNote": 52,
      "noteName": "E3",
      "velocity": 0.6456692913385826,
      "duration": "288i"
    },
    {
      "time": "2816i",
      "midiNote": 59,
      "noteName": "B3",
      "velocity": 0.7401574803149606,
      "duration": "256i"
    },
    {
      "time": "2848i",
      "midiNote": 62,
      "noteName": "D4",
      "velocity": 0.8110236220472441,
      "duration": "224i"
    },
    {
      "time": "2880i",
      "midiNote": 64,
      "noteName": "E4",
      "velocity": 0.84251968503937,
      "duration": "192i"
    },
    {
      "time": "3072i",
      "midiNote": 41,
      "noteName": "F2",
      "velocity": 0.905511811023622,
      "duration": "384i"
    },
    {
      "time": "3120i",
      "midiNote": 48,
      "noteName": "C3",
      "velocity": 0.5196850393700787,
      "duration": "336i"
    },
    {
      "time": "3168i",
      "midiNote": 53,
      "noteName": "F3",
      "velocity": 0.6929133858267716,
      "duration": "288i"
    },
    {
      "time": "3200i",
      "midiNote": 57,
      "noteName": "A3",
      "velocity": 0.7559055118110236,
      "duration": "256i"
    },
    {
      "time": "3232i",
      "midiNote": 62,
      "noteName": "D4",
      "velocity": 0.7952755905511811,
      "duration": "224i"
    },
    {
      "time": "3264i",
      "midiNote": 64,
      "noteName": "E4",
      "velocity": 0.8661417322834646,
      "duration": "192i"
    },
    {
      "time": "3456i",
      "midiNote": 36,
      "noteName": "C2",
      "velocity": 0.905511811023622,
      "duration": "384i"
    },
    {
      "time": "3504i",
      "midiNote": 43,
      "noteName": "G2",
      "velocity": 0.5196850393700787,
      "duration": "336i"
    },
    {
      "time": "3552i",
      "midiNote": 52,
      "noteName": "E3",
      "velocity": 0.6456692913385826,
      "duration": "288i"
    },
    {
      "time": "3584i",
      "midiNote": 59,
      "noteName": "B3",
      "velocity": 0.7401574803149606,
      "duration": "256i"
    },
    {
      "time": "3616i",
      "midiNote": 62,
      "noteName": "D4",
      "velocity": 0.8110236220472441,
      "duration": "224i"
    },
    {
      "time": "3648i",
      "midiNote": 64,
      "noteName": "E4",
      "velocity": 0.84251968503937,
      "duration": "192i"
    },
    {
      "time": "3840i",
      "midiNote": 41,
      "noteName": "F2",
      "velocity": 0.905511811023622,
      "duration": "384i"
    },
    {
      "time": "3888i",
      "midiNote": 48,
      "noteName": "C3",
      "velocity": 0.5196850393700787,
      "duration": "336i"
    },
    {
      "time": "3936i",
      "midiNote": 53,
      "noteName": "F3",
      "velocity": 0.6929133858267716,
      "duration": "288i"
    },
    {
      "time": "3968i",
      "midiNote": 57,
      "noteName": "A3",
      "velocity": 0.7559055118110236,
      "duration": "256i"
    },
    {
      "time": "4000i",
      "midiNote": 62,
      "noteName": "D4",
      "velocity": 0.7952755905511811,
      "duration": "224i"
    },
    {
      "time": "4032i",
      "midiNote": 64,
      "noteName": "E4",
      "velocity": 0.8661417322834646,
      "duration": "192i"
    },
    {
      "time": "4224i",
      "midiNote": 36,
      "noteName": "C2",
      "velocity": 0.905511811023622,
      "duration": "384i"
    },
    {
      "time": "4272i",
      "midiNote": 43,
      "noteName": "G2",
      "velocity": 0.5196850393700787,
      "duration": "336i"
    },
    {
      "time": "4320i",
      "midiNote": 52,
      "noteName": "E3",
      "velocity": 0.6456692913385826,
      "duration": "288i"
    },
    {
      "time": "4352i",
      "midiNote": 59,
      "noteName": "B3",
      "velocity": 0.7401574803149606,
      "duration": "256i"
    },
    {
      "time": "4384i",
      "midiNote": 62,
      "noteName": "D4",
      "velocity": 0.8110236220472441,
      "duration": "224i"
    },
    {
      "time": "4416i",
      "midiNote": 64,
      "noteName": "E4",
      "velocity": 0.84251968503937,
      "duration": "192i"
    },
    {
      "time": "4608i",
      "midiNote": 41,
      "noteName": "F2",
      "velocity": 0.905511811023622,
      "duration": "384i"
    },
    {
      "time": "4656i",
      "midiNote": 48,
      "noteName": "C3",
      "velocity": 0.5196850393700787,
      "duration": "336i"
    },
    {
      "time": "4704i",
      "midiNote": 53,
      "noteName": "F3",
      "velocity": 0.6929133858267716,
      "duration": "288i"
    },
    {
      "time": "4736i",
      "midiNote": 57,
      "noteName": "A3",
      "velocity": 0.7559055118110236,
      "duration": "256i"
    },
    {
      "time": "4768i",
      "midiNote": 62,
      "noteName": "D4",
      "velocity": 0.7952755905511811,
      "duration": "224i"
    },
    {
      "time": "4800i",
      "midiNote": 64,
      "noteName": "E4",
      "velocity": 0.8661417322834646,
      "duration": "192i"
    },
    {
      "time": "4992i",
      "midiNote": 36,
      "noteName": "C2",
      "velocity": 0.905511811023622,
      "duration": "384i"
    },
    {
      "time": "5040i",
      "midiNote": 43,
      "noteName": "G2",
      "velocity": 0.5196850393700787,
      "duration": "336i"
    },
    {
      "time": "5088i",
      "midiNote": 52,
      "noteName": "E3",
      "velocity": 0.6456692913385826,
      "duration": "288i"
    },
    {
      "time": "5120i",
      "midiNote": 59,
      "noteName": "B3",
      "velocity": 0.7401574803149606,
      "duration": "256i"
    },
    {
      "time": "5152i",
      "midiNote": 62,
      "noteName": "D4",
      "velocity": 0.8110236220472441,
      "duration": "224i"
    },
    {
      "time": "5184i",
      "midiNote": 64,
      "noteName": "E4",
      "velocity": 0.84251968503937,
      "duration": "192i"
    },
    {
      "time": "5376i",
      "midiNote": 41,
      "noteName": "F2",
      "velocity": 0.905511811023622,
      "duration": "384i"
    },
    {
      "time": "5424i",
      "midiNote": 48,
      "noteName": "C3",
      "velocity": 0.5196850393700787,
      "duration": "336i"
    },
    {
      "time": "5472i",
      "midiNote": 53,
      "noteName": "F3",
      "velocity": 0.6929133858267716,
      "duration": "288i"
    },
    {
      "time": "5504i",
      "midiNote": 57,
      "noteName": "A3",
      "velocity": 0.7559055118110236,
      "duration": "256i"
    },
    {
      "time": "5536i",
      "midiNote": 62,
      "noteName": "D4",
      "velocity": 0.7952755905511811,
      "duration": "224i"
    },
    {
      "time": "5568i",
      "midiNote": 64,
      "noteName": "E4",
      "velocity": 0.8661417322834646,
      "duration": "192i"
    },
    {
      "time": "5760i",
      "midiNote": 36,
      "noteName": "C2",
      "velocity": 0.905511811023622,
      "duration": "384i"
    },
    {
      "time": "5808i",
      "midiNote": 43,
      "noteName": "G2",
      "velocity": 0.5196850393700787,
      "duration": "336i"
    },
    {
      "time": "5856i",
      "midiNote": 52,
      "noteName": "E3",
      "velocity": 0.6456692913385826,
      "duration": "288i"
    },
    {
      "time": "5888i",
      "midiNote": 59,
      "noteName": "B3",
      "velocity": 0.7401574803149606,
      "duration": "256i"
    },
    {
      "time": "5920i",
      "midiNote": 62,
      "noteName": "D4",
      "velocity": 0.8110236220472441,
      "duration": "224i"
    },
    {
      "time": "5952i",
      "midiNote": 64,
      "noteName": "E4",
      "velocity": 0.84251968503937,
      "duration": "192i"
    },
    {
      "time": "9216i",
      "midiNote": 41,
      "noteName": "F2",
      "velocity": 0.905511811023622,
      "duration": "384i"
    },
    {
      "time": "9264i",
      "midiNote": 48,
      "noteName": "C3",
      "velocity": 0.5196850393700787,
      "duration": "336i"
    },
    {
      "time": "9312i",
      "midiNote": 53,
      "noteName": "F3",
      "velocity": 0.6929133858267716,
      "duration": "288i"
    },
    {
      "time": "9344i",
      "midiNote": 57,
      "noteName": "A3",
      "velocity": 0.7559055118110236,
      "duration": "256i"
    },
    {
      "time": "9376i",
      "midiNote": 62,
      "noteName": "D4",
      "velocity": 0.7952755905511811,
      "duration": "224i"
    },
    {
      "time": "9408i",
      "midiNote": 64,
      "noteName": "E4",
      "velocity": 0.8661417322834646,
      "duration": "192i"
    },
    {
      "time": "9600i",
      "midiNote": 36,
      "noteName": "C2",
      "velocity": 0.905511811023622,
      "duration": "384i"
    },
    {
      "time": "9648i",
      "midiNote": 43,
      "noteName": "G2",
      "velocity": 0.5196850393700787,
      "duration": "336i"
    },
    {
      "time": "9696i",
      "midiNote": 52,
      "noteName": "E3",
      "velocity": 0.6456692913385826,
      "duration": "288i"
    },
    {
      "time": "9728i",
      "midiNote": 59,
      "noteName": "B3",
      "velocity": 0.7401574803149606,
      "duration": "256i"
    },
    {
      "time": "9760i",
      "midiNote": 62,
      "noteName": "D4",
      "velocity": 0.8110236220472441,
      "duration": "224i"
    },
    {
      "time": "9792i",
      "midiNote": 64,
      "noteName": "E4",
      "velocity": 0.84251968503937,
      "duration": "192i"
    },
    {
      "time": "9984i",
      "midiNote": 41,
      "noteName": "F2",
      "velocity": 0.905511811023622,
      "duration": "384i"
    },
    {
      "time": "10032i",
      "midiNote": 48,
      "noteName": "C3",
      "velocity": 0.5196850393700787,
      "duration": "336i"
    },
    {
      "time": "10080i",
      "midiNote": 53,
      "noteName": "F3",
      "velocity": 0.6929133858267716,
      "duration": "288i"
    },
    {
      "time": "10112i",
      "midiNote": 57,
      "noteName": "A3",
      "velocity": 0.7559055118110236,
      "duration": "256i"
    },
    {
      "time": "10144i",
      "midiNote": 62,
      "noteName": "D4",
      "velocity": 0.7952755905511811,
      "duration": "224i"
    },
    {
      "time": "10176i",
      "midiNote": 64,
      "noteName": "E4",
      "velocity": 0.8661417322834646,
      "duration": "192i"
    },
    {
      "time": "10368i",
      "midiNote": 36,
      "noteName": "C2",
      "velocity": 0.905511811023622,
      "duration": "384i"
    },
    {
      "time": "10416i",
      "midiNote": 43,
      "noteName": "G2",
      "velocity": 0.5196850393700787,
      "duration": "336i"
    },
    {
      "time": "10464i",
      "midiNote": 52,
      "noteName": "E3",
      "velocity": 0.6456692913385826,
      "duration": "288i"
    },
    {
      "time": "10496i",
      "midiNote": 59,
      "noteName": "B3",
      "velocity": 0.7401574803149606,
      "duration": "256i"
    },
    {
      "time": "10528i",
      "midiNote": 62,
      "noteName": "D4",
      "velocity": 0.8110236220472441,
      "duration": "224i"
    },
    {
      "time": "10560i",
      "midiNote": 64,
      "noteName": "E4",
      "velocity": 0.84251968503937,
      "duration": "192i"
    },
    {
      "time": "10752i",
      "midiNote": 41,
      "noteName": "F2",
      "velocity": 0.905511811023622,
      "duration": "384i"
    },
    {
      "time": "10800i",
      "midiNote": 48,
      "noteName": "C3",
      "velocity": 0.5196850393700787,
      "duration": "336i"
    },
    {
      "time": "10848i",
      "midiNote": 53,
      "noteName": "F3",
      "velocity": 0.6929133858267716,
      "duration": "288i"
    },
    {
      "time": "10880i",
      "midiNote": 57,
      "noteName": "A3",
      "velocity": 0.7559055118110236,
      "duration": "256i"
    },
    {
      "time": "10912i",
      "midiNote": 62,
      "noteName": "D4",
      "velocity": 0.7952755905511811,
      "duration": "224i"
    },
    {
      "time": "10944i",
      "midiNote": 64,
      "noteName": "E4",
      "velocity": 0.8661417322834646,
      "duration": "192i"
    },
    {
      "time": "11136i",
      "midiNote": 36,
      "noteName": "C2",
      "velocity": 0.905511811023622,
      "duration": "384i"
    },
    {
      "time": "11184i",
      "midiNote": 43,
      "noteName": "G2",
      "velocity": 0.5196850393700787,
      "duration": "336i"
    },
    {
      "time": "11232i",
      "midiNote": 52,
      "noteName": "E3",
      "velocity": 0.6456692913385826,
      "duration": "288i"
    },
    {
      "time": "11264i",
      "midiNote": 59,
      "noteName": "B3",
      "velocity": 0.7401574803149606,
      "duration": "256i"
    },
    {
      "time": "11296i",
      "midiNote": 62,
      "noteName": "D4",
      "velocity": 0.8110236220472441,
      "duration": "224i"
    },
    {
      "time": "11328i",
      "midiNote": 64,
      "noteName": "E4",
      "velocity": 0.84251968503937,
      "duration": "192i"
    },
    {
      "time": "11520i",
      "midiNote": 41,
      "noteName": "F2",
      "velocity": 0.905511811023622,
      "duration": "384i"
    },
    {
      "time": "11568i",
      "midiNote": 48,
      "noteName": "C3",
      "velocity": 0.5196850393700787,
      "duration": "336i"
    },
    {
      "time": "11616i",
      "midiNote": 53,
      "noteName": "F3",
      "velocity": 0.6929133858267716,
      "duration": "288i"
    },
    {
      "time": "11648i",
      "midiNote": 57,
      "noteName": "A3",
      "velocity": 0.7559055118110236,
      "duration": "256i"
    },
    {
      "time": "11680i",
      "midiNote": 62,
      "noteName": "D4",
      "velocity": 0.7952755905511811,
      "duration": "224i"
    },
    {
      "time": "11712i",
      "midiNote": 64,
      "noteName": "E4",
      "velocity": 0.8661417322834646,
      "duration": "192i"
    },
    {
      "time": "11904i",
      "midiNote": 36,
      "noteName": "C2",
      "velocity": 0.905511811023622,
      "duration": "384i"
    },
    {
      "time": "11952i",
      "midiNote": 43,
      "noteName": "G2",
      "velocity": 0.5196850393700787,
      "duration": "336i"
    },
    {
      "time": "12000i",
      "midiNote": 52,
      "noteName": "E3",
      "velocity": 0.6456692913385826,
      "duration": "288i"
    },
    {
      "time": "12032i",
      "midiNote": 59,
      "noteName": "B3",
      "velocity": 0.7401574803149606,
      "duration": "256i"
    },
    {
      "time": "12064i",
      "midiNote": 62,
      "noteName": "D4",
      "velocity": 0.8110236220472441,
      "duration": "224i"
    },
    {
      "time": "12096i",
      "midiNote": 64,
      "noteName": "E4",
      "velocity": 0.84251968503937,
      "duration": "192i"
    },
    {
      "time": "12288i",
      "midiNote": 41,
      "noteName": "F2",
      "velocity": 0.905511811023622,
      "duration": "384i"
    },
    {
      "time": "12336i",
      "midiNote": 48,
      "noteName": "C3",
      "velocity": 0.5196850393700787,
      "duration": "336i"
    },
    {
      "time": "12384i",
      "midiNote": 53,
      "noteName": "F3",
      "velocity": 0.6929133858267716,
      "duration": "288i"
    },
    {
      "time": "12416i",
      "midiNote": 57,
      "noteName": "A3",
      "velocity": 0.7559055118110236,
      "duration": "256i"
    },
    {
      "time": "12448i",
      "midiNote": 62,
      "noteName": "D4",
      "velocity": 0.7952755905511811,
      "duration": "224i"
    },
    {
      "time": "12480i",
      "midiNote": 64,
      "noteName": "E4",
      "velocity": 0.8661417322834646,
      "duration": "192i"
    },
    {
      "time": "12672i",
      "midiNote": 36,
      "noteName": "C2",
      "velocity": 0.905511811023622,
      "duration": "384i"
    },
    {
      "time": "12720i",
      "midiNote": 43,
      "noteName": "G2",
      "velocity": 0.5196850393700787,
      "duration": "336i"
    },
    {
      "time": "12768i",
      "midiNote": 52,
      "noteName": "E3",
      "velocity": 0.6456692913385826,
      "duration": "288i"
    },
    {
      "time": "12800i",
      "midiNote": 59,
      "noteName": "B3",
      "velocity": 0.7401574803149606,
      "duration": "256i"
    },
    {
      "time": "12832i",
      "midiNote": 62,
      "noteName": "D4",
      "velocity": 0.8110236220472441,
      "duration": "224i"
    },
    {
      "time": "12864i",
      "midiNote": 64,
      "noteName": "E4",
      "velocity": 0.84251968503937,
      "duration": "192i"
    },
    {
      "time": "13056i",
      "midiNote": 41,
      "noteName": "F2",
      "velocity": 0.905511811023622,
      "duration": "384i"
    },
    {
      "time": "13104i",
      "midiNote": 48,
      "noteName": "C3",
      "velocity": 0.5196850393700787,
      "duration": "336i"
    },
    {
      "time": "13152i",
      "midiNote": 53,
      "noteName": "F3",
      "velocity": 0.6929133858267716,
      "duration": "288i"
    },
    {
      "time": "13184i",
      "midiNote": 57,
      "noteName": "A3",
      "velocity": 0.7559055118110236,
      "duration": "256i"
    },
    {
      "time": "13216i",
      "midiNote": 62,
      "noteName": "D4",
      "velocity": 0.7952755905511811,
      "duration": "224i"
    },
    {
      "time": "13248i",
      "midiNote": 64,
      "noteName": "E4",
      "velocity": 0.8661417322834646,
      "duration": "192i"
    },
    {
      "time": "13440i",
      "midiNote": 36,
      "noteName": "C2",
      "velocity": 0.905511811023622,
      "duration": "384i"
    },
    {
      "time": "13488i",
      "midiNote": 43,
      "noteName": "G2",
      "velocity": 0.5196850393700787,
      "duration": "336i"
    },
    {
      "time": "13536i",
      "midiNote": 52,
      "noteName": "E3",
      "velocity": 0.6456692913385826,
      "duration": "288i"
    },
    {
      "time": "13568i",
      "midiNote": 59,
      "noteName": "B3",
      "velocity": 0.7401574803149606,
      "duration": "256i"
    },
    {
      "time": "13600i",
      "midiNote": 62,
      "noteName": "D4",
      "velocity": 0.8110236220472441,
      "duration": "224i"
    },
    {
      "time": "13632i",
      "midiNote": 64,
      "noteName": "E4",
      "velocity": 0.84251968503937,
      "duration": "192i"
    },
    {
      "time": "16896i",
      "midiNote": 41,
      "noteName": "F2",
      "velocity": 0.905511811023622,
      "duration": "384i"
    },
    {
      "time": "16944i",
      "midiNote": 48,
      "noteName": "C3",
      "velocity": 0.5196850393700787,
      "duration": "336i"
    },
    {
      "time": "16992i",
      "midiNote": 53,
      "noteName": "F3",
      "velocity": 0.6929133858267716,
      "duration": "288i"
    },
    {
      "time": "17024i",
      "midiNote": 57,
      "noteName": "A3",
      "velocity": 0.7559055118110236,
      "duration": "256i"
    },
    {
      "time": "17056i",
      "midiNote": 62,
      "noteName": "D4",
      "velocity": 0.7952755905511811,
      "duration": "224i"
    },
    {
      "time": "17088i",
      "midiNote": 64,
      "noteName": "E4",
      "velocity": 0.8661417322834646,
      "duration": "192i"
    },
    {
      "time": "17280i",
      "midiNote": 36,
      "noteName": "C2",
      "velocity": 0.905511811023622,
      "duration": "384i"
    },
    {
      "time": "17328i",
      "midiNote": 43,
      "noteName": "G2",
      "velocity": 0.5196850393700787,
      "duration": "336i"
    },
    {
      "time": "17376i",
      "midiNote": 52,
      "noteName": "E3",
      "velocity": 0.6456692913385826,
      "duration": "288i"
    },
    {
      "time": "17408i",
      "midiNote": 59,
      "noteName": "B3",
      "velocity": 0.7401574803149606,
      "duration": "256i"
    },
    {
      "time": "17440i",
      "midiNote": 62,
      "noteName": "D4",
      "velocity": 0.8110236220472441,
      "duration": "224i"
    },
    {
      "time": "17472i",
      "midiNote": 64,
      "noteName": "E4",
      "velocity": 0.84251968503937,
      "duration": "192i"
    },
    {
      "time": "17664i",
      "midiNote": 41,
      "noteName": "F2",
      "velocity": 0.905511811023622,
      "duration": "384i"
    },
    {
      "time": "17712i",
      "midiNote": 48,
      "noteName": "C3",
      "velocity": 0.5196850393700787,
      "duration": "336i"
    },
    {
      "time": "17760i",
      "midiNote": 53,
      "noteName": "F3",
      "velocity": 0.6929133858267716,
      "duration": "288i"
    },
    {
      "time": "17792i",
      "midiNote": 57,
      "noteName": "A3",
      "velocity": 0.7559055118110236,
      "duration": "256i"
    },
    {
      "time": "17824i",
      "midiNote": 62,
      "noteName": "D4",
      "velocity": 0.7952755905511811,
      "duration": "224i"
    },
    {
      "time": "17856i",
      "midiNote": 64,
      "noteName": "E4",
      "velocity": 0.8661417322834646,
      "duration": "192i"
    },
    {
      "time": "18048i",
      "midiNote": 36,
      "noteName": "C2",
      "velocity": 0.905511811023622,
      "duration": "384i"
    },
    {
      "time": "18096i",
      "midiNote": 43,
      "noteName": "G2",
      "velocity": 0.5196850393700787,
      "duration": "336i"
    },
    {
      "time": "18144i",
      "midiNote": 52,
      "noteName": "E3",
      "velocity": 0.6141732283464567,
      "duration": "288i"
    },
    {
      "time": "18176i",
      "midiNote": 59,
      "noteName": "B3",
      "velocity": 0.6377952755905512,
      "duration": "256i"
    },
    {
      "time": "18208i",
      "midiNote": 62,
      "noteName": "D4",
      "velocity": 0.6377952755905512,
      "duration": "224i"
    },
    {
      "time": "18240i",
      "midiNote": 64,
      "noteName": "E4",
      "velocity": 0.6377952755905512,
      "duration": "192i"
    }
  ],
  [
    {
      "time": "1040i",
      "midiNote": 57,
      "noteName": "A3",
      "velocity": 0.7244094488188977,
      "duration": "496i"
    },
    {
      "time": "1040i",
      "midiNote": 53,
      "noteName": "F3",
      "velocity": 0.7244094488188977,
      "duration": "496i"
    },
    {
      "time": "1792i",
      "midiNote": 59,
      "noteName": "B3",
      "velocity": 0.7244094488188977,
      "duration": "512i"
    },
    {
      "time": "1792i",
      "midiNote": 55,
      "noteName": "G3",
      "velocity": 0.7244094488188977,
      "duration": "512i"
    },
    {
      "time": "2400i",
      "midiNote": 57,
      "noteName": "A3",
      "velocity": 0.5905511811023622,
      "duration": "256i"
    },
    {
      "time": "2400i",
      "midiNote": 53,
      "noteName": "F3",
      "velocity": 0.5905511811023622,
      "duration": "256i"
    },
    {
      "time": "2784i",
      "midiNote": 59,
      "noteName": "B3",
      "velocity": 0.6456692913385826,
      "duration": "256i"
    },
    {
      "time": "2784i",
      "midiNote": 55,
      "noteName": "G3",
      "velocity": 0.6456692913385826,
      "duration": "256i"
    },
    {
      "time": "3168i",
      "midiNote": 57,
      "noteName": "A3",
      "velocity": 0.5905511811023622,
      "duration": "256i"
    },
    {
      "time": "3168i",
      "midiNote": 53,
      "noteName": "F3",
      "velocity": 0.5905511811023622,
      "duration": "256i"
    },
    {
      "time": "3552i",
      "midiNote": 59,
      "noteName": "B3",
      "velocity": 0.6456692913385826,
      "duration": "256i"
    },
    {
      "time": "3552i",
      "midiNote": 55,
      "noteName": "G3",
      "velocity": 0.6456692913385826,
      "duration": "256i"
    },
    {
      "time": "3936i",
      "midiNote": 57,
      "noteName": "A3",
      "velocity": 0.5905511811023622,
      "duration": "256i"
    },
    {
      "time": "3936i",
      "midiNote": 53,
      "noteName": "F3",
      "velocity": 0.5905511811023622,
      "duration": "256i"
    },
    {
      "time": "4320i",
      "midiNote": 59,
      "noteName": "B3",
      "velocity": 0.6456692913385826,
      "duration": "256i"
    },
    {
      "time": "4320i",
      "midiNote": 55,
      "noteName": "G3",
      "velocity": 0.6456692913385826,
      "duration": "256i"
    },
    {
      "time": "4704i",
      "midiNote": 57,
      "noteName": "A3",
      "velocity": 0.5905511811023622,
      "duration": "256i"
    },
    {
      "time": "4704i",
      "midiNote": 53,
      "noteName": "F3",
      "velocity": 0.5905511811023622,
      "duration": "256i"
    },
    {
      "time": "5088i",
      "midiNote": 59,
      "noteName": "B3",
      "velocity": 0.6456692913385826,
      "duration": "256i"
    },
    {
      "time": "5088i",
      "midiNote": 55,
      "noteName": "G3",
      "velocity": 0.6456692913385826,
      "duration": "256i"
    },
    {
      "time": "5472i",
      "midiNote": 57,
      "noteName": "A3",
      "velocity": 0.5905511811023622,
      "duration": "256i"
    },
    {
      "time": "5472i",
      "midiNote": 53,
      "noteName": "F3",
      "velocity": 0.5905511811023622,
      "duration": "256i"
    },
    {
      "time": "5856i",
      "midiNote": 59,
      "noteName": "B3",
      "velocity": 0.6456692913385826,
      "duration": "256i"
    },
    {
      "time": "5856i",
      "midiNote": 55,
      "noteName": "G3",
      "velocity": 0.6456692913385826,
      "duration": "256i"
    },
    {
      "time": "6132i",
      "midiNote": 60,
      "noteName": "C4",
      "velocity": 0.7874015748031497,
      "duration": "107i"
    },
    {
      "time": "6132i",
      "midiNote": 69,
      "noteName": "A4",
      "velocity": 0.7874015748031497,
      "duration": "108i"
    },
    {
      "time": "6132i",
      "midiNote": 64,
      "noteName": "E4",
      "velocity": 0.7874015748031497,
      "duration": "107i"
    },
    {
      "time": "6240i",
      "midiNote": 64,
      "noteName": "E4",
      "velocity": 0.7874015748031497,
      "duration": "272i"
    },
    {
      "time": "6240i",
      "midiNote": 60,
      "noteName": "C4",
      "velocity": 0.7874015748031497,
      "duration": "272i"
    },
    {
      "time": "6240i",
      "midiNote": 53,
      "noteName": "F3",
      "velocity": 0.7874015748031497,
      "duration": "272i"
    },
    {
      "time": "6516i",
      "midiNote": 62,
      "noteName": "D4",
      "velocity": 0.7874015748031497,
      "duration": "380i"
    },
    {
      "time": "6516i",
      "midiNote": 59,
      "noteName": "B3",
      "velocity": 0.7874015748031497,
      "duration": "380i"
    },
    {
      "time": "6624i",
      "midiNote": 67,
      "noteName": "G4",
      "velocity": 0.7874015748031497,
      "duration": "272i"
    },
    {
      "time": "6624i",
      "midiNote": 55,
      "noteName": "G3",
      "velocity": 0.7874015748031497,
      "duration": "272i"
    },
    {
      "time": "6900i",
      "midiNote": 69,
      "noteName": "A4",
      "velocity": 0.7874015748031497,
      "duration": "108i"
    },
    {
      "time": "6900i",
      "midiNote": 64,
      "noteName": "E4",
      "velocity": 0.7874015748031497,
      "duration": "107i"
    },
    {
      "time": "6900i",
      "midiNote": 60,
      "noteName": "C4",
      "velocity": 0.7874015748031497,
      "duration": "107i"
    },
    {
      "time": "7008i",
      "midiNote": 64,
      "noteName": "E4",
      "velocity": 0.7874015748031497,
      "duration": "272i"
    },
    {
      "time": "7008i",
      "midiNote": 60,
      "noteName": "C4",
      "velocity": 0.7874015748031497,
      "duration": "272i"
    },
    {
      "time": "7008i",
      "midiNote": 53,
      "noteName": "F3",
      "velocity": 0.7874015748031497,
      "duration": "272i"
    },
    {
      "time": "7284i",
      "midiNote": 71,
      "noteName": "B4",
      "velocity": 0.7874015748031497,
      "duration": "108i"
    },
    {
      "time": "7284i",
      "midiNote": 67,
      "noteName": "G4",
      "velocity": 0.7874015748031497,
      "duration": "107i"
    },
    {
      "time": "7392i",
      "midiNote": 67,
      "noteName": "G4",
      "velocity": 0.7874015748031497,
      "duration": "272i"
    },
    {
      "time": "7392i",
      "midiNote": 62,
      "noteName": "D4",
      "velocity": 0.7874015748031497,
      "duration": "272i"
    },
    {
      "time": "7392i",
      "midiNote": 55,
      "noteName": "G3",
      "velocity": 0.7874015748031497,
      "duration": "272i"
    },
    {
      "time": "7668i",
      "midiNote": 69,
      "noteName": "A4",
      "velocity": 0.7874015748031497,
      "duration": "108i"
    },
    {
      "time": "7668i",
      "midiNote": 64,
      "noteName": "E4",
      "velocity": 0.7874015748031497,
      "duration": "107i"
    },
    {
      "time": "7668i",
      "midiNote": 60,
      "noteName": "C4",
      "velocity": 0.7874015748031497,
      "duration": "107i"
    },
    {
      "time": "7776i",
      "midiNote": 64,
      "noteName": "E4",
      "velocity": 0.7874015748031497,
      "duration": "272i"
    },
    {
      "time": "7776i",
      "midiNote": 60,
      "noteName": "C4",
      "velocity": 0.7874015748031497,
      "duration": "272i"
    },
    {
      "time": "7776i",
      "midiNote": 53,
      "noteName": "F3",
      "velocity": 0.7874015748031497,
      "duration": "272i"
    },
    {
      "time": "8052i",
      "midiNote": 62,
      "noteName": "D4",
      "velocity": 0.7874015748031497,
      "duration": "380i"
    },
    {
      "time": "8052i",
      "midiNote": 59,
      "noteName": "B3",
      "velocity": 0.7874015748031497,
      "duration": "380i"
    },
    {
      "time": "8160i",
      "midiNote": 67,
      "noteName": "G4",
      "velocity": 0.7874015748031497,
      "duration": "272i"
    },
    {
      "time": "8160i",
      "midiNote": 55,
      "noteName": "G3",
      "velocity": 0.7874015748031497,
      "duration": "272i"
    },
    {
      "time": "8436i",
      "midiNote": 72,
      "noteName": "C5",
      "velocity": 0.952755905511811,
      "duration": "108i"
    },
    {
      "time": "8436i",
      "midiNote": 67,
      "noteName": "G4",
      "velocity": 0.952755905511811,
      "duration": "107i"
    },
    {
      "time": "8544i",
      "midiNote": 67,
      "noteName": "G4",
      "velocity": 0.8740157480314961,
      "duration": "272i"
    },
    {
      "time": "8544i",
      "midiNote": 60,
      "noteName": "C4",
      "velocity": 0.8740157480314961,
      "duration": "272i"
    },
    {
      "time": "8544i",
      "midiNote": 56,
      "noteName": "G#3",
      "velocity": 0.8740157480314961,
      "duration": "272i"
    },
    {
      "time": "8820i",
      "midiNote": 62,
      "noteName": "D4",
      "velocity": 0.8976377952755905,
      "duration": "380i"
    },
    {
      "time": "8820i",
      "midiNote": 65,
      "noteName": "F4",
      "velocity": 0.8976377952755905,
      "duration": "108i"
    },
    {
      "time": "8928i",
      "midiNote": 67,
      "noteName": "G4",
      "velocity": 0.8582677165354331,
      "duration": "272i"
    },
    {
      "time": "8928i",
      "midiNote": 55,
      "noteName": "G3",
      "velocity": 0.8582677165354331,
      "duration": "272i"
    },
    {
      "time": "9312i",
      "midiNote": 57,
      "noteName": "A3",
      "velocity": 0.5905511811023622,
      "duration": "256i"
    },
    {
      "time": "9312i",
      "midiNote": 53,
      "noteName": "F3",
      "velocity": 0.5905511811023622,
      "duration": "256i"
    },
    {
      "time": "9696i",
      "midiNote": 59,
      "noteName": "B3",
      "velocity": 0.6456692913385826,
      "duration": "256i"
    },
    {
      "time": "9696i",
      "midiNote": 55,
      "noteName": "G3",
      "velocity": 0.6456692913385826,
      "duration": "256i"
    },
    {
      "time": "10080i",
      "midiNote": 57,
      "noteName": "A3",
      "velocity": 0.5905511811023622,
      "duration": "256i"
    },
    {
      "time": "10080i",
      "midiNote": 53,
      "noteName": "F3",
      "velocity": 0.5905511811023622,
      "duration": "256i"
    },
    {
      "time": "10464i",
      "midiNote": 59,
      "noteName": "B3",
      "velocity": 0.6456692913385826,
      "duration": "256i"
    },
    {
      "time": "10464i",
      "midiNote": 55,
      "noteName": "G3",
      "velocity": 0.6456692913385826,
      "duration": "256i"
    },
    {
      "time": "10848i",
      "midiNote": 57,
      "noteName": "A3",
      "velocity": 0.5905511811023622,
      "duration": "256i"
    },
    {
      "time": "10848i",
      "midiNote": 53,
      "noteName": "F3",
      "velocity": 0.5905511811023622,
      "duration": "256i"
    },
    {
      "time": "11232i",
      "midiNote": 59,
      "noteName": "B3",
      "velocity": 0.6456692913385826,
      "duration": "256i"
    },
    {
      "time": "11232i",
      "midiNote": 55,
      "noteName": "G3",
      "velocity": 0.6456692913385826,
      "duration": "256i"
    },
    {
      "time": "11616i",
      "midiNote": 57,
      "noteName": "A3",
      "velocity": 0.5905511811023622,
      "duration": "256i"
    },
    {
      "time": "11616i",
      "midiNote": 53,
      "noteName": "F3",
      "velocity": 0.5905511811023622,
      "duration": "256i"
    },
    {
      "time": "12000i",
      "midiNote": 59,
      "noteName": "B3",
      "velocity": 0.6456692913385826,
      "duration": "256i"
    },
    {
      "time": "12000i",
      "midiNote": 55,
      "noteName": "G3",
      "velocity": 0.6456692913385826,
      "duration": "256i"
    },
    {
      "time": "12384i",
      "midiNote": 57,
      "noteName": "A3",
      "velocity": 0.5905511811023622,
      "duration": "256i"
    },
    {
      "time": "12384i",
      "midiNote": 53,
      "noteName": "F3",
      "velocity": 0.5905511811023622,
      "duration": "256i"
    },
    {
      "time": "12768i",
      "midiNote": 59,
      "noteName": "B3",
      "velocity": 0.6456692913385826,
      "duration": "256i"
    },
    {
      "time": "12768i",
      "midiNote": 55,
      "noteName": "G3",
      "velocity": 0.6456692913385826,
      "duration": "256i"
    },
    {
      "time": "13152i",
      "midiNote": 57,
      "noteName": "A3",
      "velocity": 0.5905511811023622,
      "duration": "256i"
    },
    {
      "time": "13152i",
      "midiNote": 53,
      "noteName": "F3",
      "velocity": 0.5905511811023622,
      "duration": "256i"
    },
    {
      "time": "13536i",
      "midiNote": 59,
      "noteName": "B3",
      "velocity": 0.6456692913385826,
      "duration": "256i"
    },
    {
      "time": "13536i",
      "midiNote": 55,
      "noteName": "G3",
      "velocity": 0.6456692913385826,
      "duration": "256i"
    },
    {
      "time": "13812i",
      "midiNote": 60,
      "noteName": "C4",
      "velocity": 0.7874015748031497,
      "duration": "107i"
    },
    {
      "time": "13812i",
      "midiNote": 69,
      "noteName": "A4",
      "velocity": 0.7874015748031497,
      "duration": "108i"
    },
    {
      "time": "13812i",
      "midiNote": 64,
      "noteName": "E4",
      "velocity": 0.7874015748031497,
      "duration": "107i"
    },
    {
      "time": "13920i",
      "midiNote": 64,
      "noteName": "E4",
      "velocity": 0.7874015748031497,
      "duration": "272i"
    },
    {
      "time": "13920i",
      "midiNote": 60,
      "noteName": "C4",
      "velocity": 0.7874015748031497,
      "duration": "272i"
    },
    {
      "time": "13920i",
      "midiNote": 53,
      "noteName": "F3",
      "velocity": 0.7874015748031497,
      "duration": "272i"
    },
    {
      "time": "14196i",
      "midiNote": 62,
      "noteName": "D4",
      "velocity": 0.7874015748031497,
      "duration": "380i"
    },
    {
      "time": "14196i",
      "midiNote": 59,
      "noteName": "B3",
      "velocity": 0.7874015748031497,
      "duration": "380i"
    },
    {
      "time": "14304i",
      "midiNote": 67,
      "noteName": "G4",
      "velocity": 0.7874015748031497,
      "duration": "272i"
    },
    {
      "time": "14304i",
      "midiNote": 55,
      "noteName": "G3",
      "velocity": 0.7874015748031497,
      "duration": "272i"
    },
    {
      "time": "14580i",
      "midiNote": 69,
      "noteName": "A4",
      "velocity": 0.7874015748031497,
      "duration": "108i"
    },
    {
      "time": "14580i",
      "midiNote": 64,
      "noteName": "E4",
      "velocity": 0.7874015748031497,
      "duration": "107i"
    },
    {
      "time": "14580i",
      "midiNote": 60,
      "noteName": "C4",
      "velocity": 0.7874015748031497,
      "duration": "107i"
    },
    {
      "time": "14688i",
      "midiNote": 64,
      "noteName": "E4",
      "velocity": 0.7874015748031497,
      "duration": "272i"
    },
    {
      "time": "14688i",
      "midiNote": 60,
      "noteName": "C4",
      "velocity": 0.7874015748031497,
      "duration": "272i"
    },
    {
      "time": "14688i",
      "midiNote": 53,
      "noteName": "F3",
      "velocity": 0.7874015748031497,
      "duration": "272i"
    },
    {
      "time": "14964i",
      "midiNote": 71,
      "noteName": "B4",
      "velocity": 0.7874015748031497,
      "duration": "108i"
    },
    {
      "time": "14964i",
      "midiNote": 67,
      "noteName": "G4",
      "velocity": 0.7874015748031497,
      "duration": "107i"
    },
    {
      "time": "15072i",
      "midiNote": 67,
      "noteName": "G4",
      "velocity": 0.7874015748031497,
      "duration": "272i"
    },
    {
      "time": "15072i",
      "midiNote": 62,
      "noteName": "D4",
      "velocity": 0.7874015748031497,
      "duration": "272i"
    },
    {
      "time": "15072i",
      "midiNote": 55,
      "noteName": "G3",
      "velocity": 0.7874015748031497,
      "duration": "272i"
    },
    {
      "time": "15348i",
      "midiNote": 69,
      "noteName": "A4",
      "velocity": 0.7874015748031497,
      "duration": "108i"
    },
    {
      "time": "15348i",
      "midiNote": 64,
      "noteName": "E4",
      "velocity": 0.7874015748031497,
      "duration": "107i"
    },
    {
      "time": "15348i",
      "midiNote": 60,
      "noteName": "C4",
      "velocity": 0.7874015748031497,
      "duration": "107i"
    },
    {
      "time": "15456i",
      "midiNote": 64,
      "noteName": "E4",
      "velocity": 0.7874015748031497,
      "duration": "272i"
    },
    {
      "time": "15456i",
      "midiNote": 60,
      "noteName": "C4",
      "velocity": 0.7874015748031497,
      "duration": "272i"
    },
    {
      "time": "15456i",
      "midiNote": 53,
      "noteName": "F3",
      "velocity": 0.7874015748031497,
      "duration": "272i"
    },
    {
      "time": "15732i",
      "midiNote": 62,
      "noteName": "D4",
      "velocity": 0.7874015748031497,
      "duration": "380i"
    },
    {
      "time": "15732i",
      "midiNote": 59,
      "noteName": "B3",
      "velocity": 0.7874015748031497,
      "duration": "380i"
    },
    {
      "time": "15840i",
      "midiNote": 67,
      "noteName": "G4",
      "velocity": 0.7874015748031497,
      "duration": "272i"
    },
    {
      "time": "15840i",
      "midiNote": 55,
      "noteName": "G3",
      "velocity": 0.7874015748031497,
      "duration": "272i"
    },
    {
      "time": "16116i",
      "midiNote": 72,
      "noteName": "C5",
      "velocity": 0.952755905511811,
      "duration": "108i"
    },
    {
      "time": "16116i",
      "midiNote": 67,
      "noteName": "G4",
      "velocity": 0.952755905511811,
      "duration": "107i"
    },
    {
      "time": "16224i",
      "midiNote": 67,
      "noteName": "G4",
      "velocity": 0.8740157480314961,
      "duration": "272i"
    },
    {
      "time": "16224i",
      "midiNote": 60,
      "noteName": "C4",
      "velocity": 0.8740157480314961,
      "duration": "272i"
    },
    {
      "time": "16224i",
      "midiNote": 56,
      "noteName": "G#3",
      "velocity": 0.8740157480314961,
      "duration": "272i"
    },
    {
      "time": "16500i",
      "midiNote": 62,
      "noteName": "D4",
      "velocity": 0.8976377952755905,
      "duration": "380i"
    },
    {
      "time": "16500i",
      "midiNote": 65,
      "noteName": "F4",
      "velocity": 0.8976377952755905,
      "duration": "108i"
    },
    {
      "time": "16608i",
      "midiNote": 67,
      "noteName": "G4",
      "velocity": 0.8582677165354331,
      "duration": "272i"
    },
    {
      "time": "16608i",
      "midiNote": 55,
      "noteName": "G3",
      "velocity": 0.8582677165354331,
      "duration": "272i"
    },
    {
      "time": "16992i",
      "midiNote": 57,
      "noteName": "A3",
      "velocity": 0.5905511811023622,
      "duration": "256i"
    },
    {
      "time": "16992i",
      "midiNote": 53,
      "noteName": "F3",
      "velocity": 0.5905511811023622,
      "duration": "256i"
    },
    {
      "time": "17376i",
      "midiNote": 59,
      "noteName": "B3",
      "velocity": 0.6456692913385826,
      "duration": "256i"
    },
    {
      "time": "17376i",
      "midiNote": 55,
      "noteName": "G3",
      "velocity": 0.6456692913385826,
      "duration": "256i"
    },
    {
      "time": "17760i",
      "midiNote": 57,
      "noteName": "A3",
      "velocity": 0.5905511811023622,
      "duration": "256i"
    },
    {
      "time": "17760i",
      "midiNote": 53,
      "noteName": "F3",
      "velocity": 0.5905511811023622,
      "duration": "256i"
    },
    {
      "time": "18144i",
      "midiNote": 59,
      "noteName": "B3",
      "velocity": 0.6456692913385826,
      "duration": "256i"
    },
    {
      "time": "18144i",
      "midiNote": 55,
      "noteName": "G3",
      "velocity": 0.6456692913385826,
      "duration": "256i"
    }
  ],
  [
    {
      "time": "2880i",
      "midiNote": 74,
      "noteName": "D5",
      "velocity": 0.7874015748031497,
      "duration": "96i"
    },
    {
      "time": "2976i",
      "midiNote": 76,
      "noteName": "E5",
      "velocity": 0.7874015748031497,
      "duration": "96i"
    },
    {
      "time": "3072i",
      "midiNote": 86,
      "noteName": "D6",
      "velocity": 0.7874015748031497,
      "duration": "160i"
    },
    {
      "time": "3216i",
      "midiNote": 85,
      "noteName": "C#6",
      "velocity": 0.7165354330708661,
      "duration": "44i"
    },
    {
      "time": "3240i",
      "midiNote": 84,
      "noteName": "C6",
      "velocity": 0.6535433070866141,
      "duration": "44i"
    },
    {
      "time": "3264i",
      "midiNote": 83,
      "noteName": "B5",
      "velocity": 0.7874015748031497,
      "duration": "328i"
    },
    {
      "time": "3592i",
      "midiNote": 81,
      "noteName": "A5",
      "velocity": 0.7874015748031497,
      "duration": "40i"
    },
    {
      "time": "3632i",
      "midiNote": 79,
      "noteName": "G5",
      "velocity": 0.7874015748031497,
      "duration": "88i"
    },
    {
      "time": "3744i",
      "midiNote": 74,
      "noteName": "D5",
      "velocity": 0.7874015748031497,
      "duration": "48i"
    },
    {
      "time": "3792i",
      "midiNote": 76,
      "noteName": "E5",
      "velocity": 0.7874015748031497,
      "duration": "48i"
    },
    {
      "time": "3840i",
      "midiNote": 86,
      "noteName": "D6",
      "velocity": 0.7874015748031497,
      "duration": "180i"
    },
    {
      "time": "4008i",
      "midiNote": 85,
      "noteName": "C#6",
      "velocity": 0.7244094488188977,
      "duration": "24i"
    },
    {
      "time": "4020i",
      "midiNote": 84,
      "noteName": "C6",
      "velocity": 0.6535433070866141,
      "duration": "24i"
    },
    {
      "time": "4032i",
      "midiNote": 83,
      "noteName": "B5",
      "velocity": 0.7401574803149606,
      "duration": "168i"
    },
    {
      "time": "4200i",
      "midiNote": 84,
      "noteName": "C6",
      "velocity": 0.7874015748031497,
      "duration": "30i"
    },
    {
      "time": "4230i",
      "midiNote": 83,
      "noteName": "B5",
      "velocity": 0.7874015748031497,
      "duration": "194i"
    },
    {
      "time": "4512i",
      "midiNote": 74,
      "noteName": "D5",
      "velocity": 0.7874015748031497,
      "duration": "48i"
    },
    {
      "time": "4560i",
      "midiNote": 76,
      "noteName": "E5",
      "velocity": 0.7874015748031497,
      "duration": "48i"
    },
    {
      "time": "4608i",
      "midiNote": 86,
      "noteName": "D6",
      "velocity": 0.7874015748031497,
      "duration": "160i"
    },
    {
      "time": "4756i",
      "midiNote": 85,
      "noteName": "C#6",
      "velocity": 0.7401574803149606,
      "duration": "38i"
    },
    {
      "time": "4779i",
      "midiNote": 84,
      "noteName": "C6",
      "velocity": 0.6614173228346457,
      "duration": "40i"
    },
    {
      "time": "4800i",
      "midiNote": 83,
      "noteName": "B5",
      "velocity": 0.7401574803149606,
      "duration": "328i"
    },
    {
      "time": "5128i",
      "midiNote": 81,
      "noteName": "A5",
      "velocity": 0.7874015748031497,
      "duration": "40i"
    },
    {
      "time": "5168i",
      "midiNote": 79,
      "noteName": "G5",
      "velocity": 0.7874015748031497,
      "duration": "88i"
    },
    {
      "time": "5280i",
      "midiNote": 74,
      "noteName": "D5",
      "velocity": 0.7874015748031497,
      "duration": "48i"
    },
    {
      "time": "5328i",
      "midiNote": 76,
      "noteName": "E5",
      "velocity": 0.7874015748031497,
      "duration": "48i"
    },
    {
      "time": "5376i",
      "midiNote": 86,
      "noteName": "D6",
      "velocity": 0.7874015748031497,
      "duration": "180i"
    },
    {
      "time": "5544i",
      "midiNote": 85,
      "noteName": "C#6",
      "velocity": 0.6535433070866141,
      "duration": "24i"
    },
    {
      "time": "5556i",
      "midiNote": 84,
      "noteName": "C6",
      "velocity": 0.6220472440944882,
      "duration": "24i"
    },
    {
      "time": "5568i",
      "midiNote": 83,
      "noteName": "B5",
      "velocity": 0.7874015748031497,
      "duration": "168i"
    },
    {
      "time": "5736i",
      "midiNote": 88,
      "noteName": "E6",
      "velocity": 0.7874015748031497,
      "duration": "32i"
    },
    {
      "time": "5766i",
      "midiNote": 83,
      "noteName": "B5",
      "velocity": 0.7874015748031497,
      "duration": "306i"
    },
    {
      "time": "6144i",
      "midiNote": 81,
      "noteName": "A5",
      "velocity": 0.7874015748031497,
      "duration": "96i"
    },
    {
      "time": "6240i",
      "midiNote": 76,
      "noteName": "E5",
      "velocity": 0.7874015748031497,
      "duration": "284i"
    },
    {
      "time": "6528i",
      "midiNote": 74,
      "noteName": "D5",
      "velocity": 0.7874015748031497,
      "duration": "88i"
    },
    {
      "time": "6624i",
      "midiNote": 79,
      "noteName": "G5",
      "velocity": 0.7874015748031497,
      "duration": "252i"
    },
    {
      "time": "6912i",
      "midiNote": 81,
      "noteName": "A5",
      "velocity": 0.7874015748031497,
      "duration": "108i"
    },
    {
      "time": "7024i",
      "midiNote": 76,
      "noteName": "E5",
      "velocity": 0.7874015748031497,
      "duration": "268i"
    },
    {
      "time": "7296i",
      "midiNote": 83,
      "noteName": "B5",
      "velocity": 0.7874015748031497,
      "duration": "88i"
    },
    {
      "time": "7392i",
      "midiNote": 79,
      "noteName": "G5",
      "velocity": 0.7874015748031497,
      "duration": "244i"
    },
    {
      "time": "7680i",
      "midiNote": 81,
      "noteName": "A5",
      "velocity": 0.7874015748031497,
      "duration": "109i"
    },
    {
      "time": "7792i",
      "midiNote": 76,
      "noteName": "E5",
      "velocity": 0.7874015748031497,
      "duration": "256i"
    },
    {
      "time": "8064i",
      "midiNote": 74,
      "noteName": "D5",
      "velocity": 0.7874015748031497,
      "duration": "96i"
    },
    {
      "time": "8160i",
      "midiNote": 79,
      "noteName": "G5",
      "velocity": 0.7874015748031497,
      "duration": "264i"
    },
    {
      "time": "8448i",
      "midiNote": 84,
      "noteName": "C6",
      "velocity": 0.7874015748031497,
      "duration": "90i"
    },
    {
      "time": "8544i",
      "midiNote": 79,
      "noteName": "G5",
      "velocity": 0.7874015748031497,
      "duration": "284i"
    },
    {
      "time": "8832i",
      "midiNote": 77,
      "noteName": "F5",
      "velocity": 0.7874015748031497,
      "duration": "92i"
    },
    {
      "time": "8928i",
      "midiNote": 79,
      "noteName": "G5",
      "velocity": 0.7874015748031497,
      "duration": "240i"
    },
    {
      "time": "10560i",
      "midiNote": 74,
      "noteName": "D5",
      "velocity": 0.7874015748031497,
      "duration": "96i"
    },
    {
      "time": "10656i",
      "midiNote": 76,
      "noteName": "E5",
      "velocity": 0.7874015748031497,
      "duration": "96i"
    },
    {
      "time": "10752i",
      "midiNote": 86,
      "noteName": "D6",
      "velocity": 0.7874015748031497,
      "duration": "160i"
    },
    {
      "time": "10896i",
      "midiNote": 85,
      "noteName": "C#6",
      "velocity": 0.7165354330708661,
      "duration": "44i"
    },
    {
      "time": "10920i",
      "midiNote": 84,
      "noteName": "C6",
      "velocity": 0.6535433070866141,
      "duration": "44i"
    },
    {
      "time": "10944i",
      "midiNote": 83,
      "noteName": "B5",
      "velocity": 0.7874015748031497,
      "duration": "328i"
    },
    {
      "time": "11272i",
      "midiNote": 81,
      "noteName": "A5",
      "velocity": 0.7874015748031497,
      "duration": "40i"
    },
    {
      "time": "11312i",
      "midiNote": 79,
      "noteName": "G5",
      "velocity": 0.7874015748031497,
      "duration": "88i"
    },
    {
      "time": "11424i",
      "midiNote": 74,
      "noteName": "D5",
      "velocity": 0.7874015748031497,
      "duration": "48i"
    },
    {
      "time": "11472i",
      "midiNote": 76,
      "noteName": "E5",
      "velocity": 0.7874015748031497,
      "duration": "48i"
    },
    {
      "time": "11520i",
      "midiNote": 86,
      "noteName": "D6",
      "velocity": 0.7874015748031497,
      "duration": "180i"
    },
    {
      "time": "11688i",
      "midiNote": 85,
      "noteName": "C#6",
      "velocity": 0.7244094488188977,
      "duration": "24i"
    },
    {
      "time": "11700i",
      "midiNote": 84,
      "noteName": "C6",
      "velocity": 0.6535433070866141,
      "duration": "24i"
    },
    {
      "time": "11712i",
      "midiNote": 83,
      "noteName": "B5",
      "velocity": 0.7401574803149606,
      "duration": "168i"
    },
    {
      "time": "11880i",
      "midiNote": 84,
      "noteName": "C6",
      "velocity": 0.7874015748031497,
      "duration": "30i"
    },
    {
      "time": "11910i",
      "midiNote": 83,
      "noteName": "B5",
      "velocity": 0.7874015748031497,
      "duration": "194i"
    },
    {
      "time": "12192i",
      "midiNote": 74,
      "noteName": "D5",
      "velocity": 0.7874015748031497,
      "duration": "48i"
    },
    {
      "time": "12240i",
      "midiNote": 76,
      "noteName": "E5",
      "velocity": 0.7874015748031497,
      "duration": "48i"
    },
    {
      "time": "12288i",
      "midiNote": 86,
      "noteName": "D6",
      "velocity": 0.7874015748031497,
      "duration": "160i"
    },
    {
      "time": "12436i",
      "midiNote": 85,
      "noteName": "C#6",
      "velocity": 0.7401574803149606,
      "duration": "38i"
    },
    {
      "time": "12459i",
      "midiNote": 84,
      "noteName": "C6",
      "velocity": 0.6614173228346457,
      "duration": "40i"
    },
    {
      "time": "12480i",
      "midiNote": 83,
      "noteName": "B5",
      "velocity": 0.7401574803149606,
      "duration": "328i"
    },
    {
      "time": "12808i",
      "midiNote": 81,
      "noteName": "A5",
      "velocity": 0.7874015748031497,
      "duration": "40i"
    },
    {
      "time": "12848i",
      "midiNote": 79,
      "noteName": "G5",
      "velocity": 0.7874015748031497,
      "duration": "88i"
    },
    {
      "time": "12960i",
      "midiNote": 74,
      "noteName": "D5",
      "velocity": 0.7874015748031497,
      "duration": "48i"
    },
    {
      "time": "13008i",
      "midiNote": 76,
      "noteName": "E5",
      "velocity": 0.7874015748031497,
      "duration": "48i"
    },
    {
      "time": "13056i",
      "midiNote": 86,
      "noteName": "D6",
      "velocity": 0.7874015748031497,
      "duration": "180i"
    },
    {
      "time": "13224i",
      "midiNote": 85,
      "noteName": "C#6",
      "velocity": 0.6535433070866141,
      "duration": "24i"
    },
    {
      "time": "13236i",
      "midiNote": 84,
      "noteName": "C6",
      "velocity": 0.6220472440944882,
      "duration": "24i"
    },
    {
      "time": "13248i",
      "midiNote": 83,
      "noteName": "B5",
      "velocity": 0.7874015748031497,
      "duration": "168i"
    },
    {
      "time": "13416i",
      "midiNote": 88,
      "noteName": "E6",
      "velocity": 0.7874015748031497,
      "duration": "32i"
    },
    {
      "time": "13446i",
      "midiNote": 83,
      "noteName": "B5",
      "velocity": 0.7874015748031497,
      "duration": "306i"
    },
    {
      "time": "13824i",
      "midiNote": 81,
      "noteName": "A5",
      "velocity": 0.7874015748031497,
      "duration": "96i"
    },
    {
      "time": "13920i",
      "midiNote": 76,
      "noteName": "E5",
      "velocity": 0.7874015748031497,
      "duration": "284i"
    },
    {
      "time": "14208i",
      "midiNote": 74,
      "noteName": "D5",
      "velocity": 0.7874015748031497,
      "duration": "88i"
    },
    {
      "time": "14304i",
      "midiNote": 79,
      "noteName": "G5",
      "velocity": 0.7874015748031497,
      "duration": "252i"
    },
    {
      "time": "14592i",
      "midiNote": 81,
      "noteName": "A5",
      "velocity": 0.7874015748031497,
      "duration": "108i"
    },
    {
      "time": "14704i",
      "midiNote": 76,
      "noteName": "E5",
      "velocity": 0.7874015748031497,
      "duration": "268i"
    },
    {
      "time": "14976i",
      "midiNote": 83,
      "noteName": "B5",
      "velocity": 0.7874015748031497,
      "duration": "88i"
    },
    {
      "time": "15072i",
      "midiNote": 79,
      "noteName": "G5",
      "velocity": 0.7874015748031497,
      "duration": "244i"
    },
    {
      "time": "15360i",
      "midiNote": 81,
      "noteName": "A5",
      "velocity": 0.7874015748031497,
      "duration": "109i"
    },
    {
      "time": "15472i",
      "midiNote": 76,
      "noteName": "E5",
      "velocity": 0.7874015748031497,
      "duration": "256i"
    },
    {
      "time": "15744i",
      "midiNote": 74,
      "noteName": "D5",
      "velocity": 0.7874015748031497,
      "duration": "96i"
    },
    {
      "time": "15840i",
      "midiNote": 79,
      "noteName": "G5",
      "velocity": 0.7874015748031497,
      "duration": "264i"
    },
    {
      "time": "16128i",
      "midiNote": 84,
      "noteName": "C6",
      "velocity": 0.7874015748031497,
      "duration": "90i"
    },
    {
      "time": "16224i",
      "midiNote": 79,
      "noteName": "G5",
      "velocity": 0.7874015748031497,
      "duration": "284i"
    },
    {
      "time": "16512i",
      "midiNote": 77,
      "noteName": "F5",
      "velocity": 0.7874015748031497,
      "duration": "92i"
    },
    {
      "time": "16608i",
      "midiNote": 79,
      "noteName": "G5",
      "velocity": 0.7874015748031497,
      "duration": "240i"
    }
  ],
  [
    {
      "time": "2900i",
      "midiNote": 74,
      "noteName": "D5",
      "velocity": 0.7874015748031497,
      "duration": "96i"
    },
    {
      "time": "2996i",
      "midiNote": 76,
      "noteName": "E5",
      "velocity": 0.7874015748031497,
      "duration": "96i"
    },
    {
      "time": "3092i",
      "midiNote": 86,
      "noteName": "D6",
      "velocity": 0.7874015748031497,
      "duration": "160i"
    },
    {
      "time": "3236i",
      "midiNote": 85,
      "noteName": "C#6",
      "velocity": 0.7165354330708661,
      "duration": "44i"
    },
    {
      "time": "3260i",
      "midiNote": 84,
      "noteName": "C6",
      "velocity": 0.6535433070866141,
      "duration": "44i"
    },
    {
      "time": "3284i",
      "midiNote": 83,
      "noteName": "B5",
      "velocity": 0.7874015748031497,
      "duration": "328i"
    },
    {
      "time": "3612i",
      "midiNote": 81,
      "noteName": "A5",
      "velocity": 0.7874015748031497,
      "duration": "40i"
    },
    {
      "time": "3652i",
      "midiNote": 79,
      "noteName": "G5",
      "velocity": 0.7874015748031497,
      "duration": "88i"
    },
    {
      "time": "3764i",
      "midiNote": 74,
      "noteName": "D5",
      "velocity": 0.7874015748031497,
      "duration": "48i"
    },
    {
      "time": "3812i",
      "midiNote": 76,
      "noteName": "E5",
      "velocity": 0.7874015748031497,
      "duration": "48i"
    },
    {
      "time": "3860i",
      "midiNote": 86,
      "noteName": "D6",
      "velocity": 0.7874015748031497,
      "duration": "180i"
    },
    {
      "time": "4028i",
      "midiNote": 85,
      "noteName": "C#6",
      "velocity": 0.7244094488188977,
      "duration": "24i"
    },
    {
      "time": "4040i",
      "midiNote": 84,
      "noteName": "C6",
      "velocity": 0.6535433070866141,
      "duration": "24i"
    },
    {
      "time": "4052i",
      "midiNote": 83,
      "noteName": "B5",
      "velocity": 0.7401574803149606,
      "duration": "168i"
    },
    {
      "time": "4220i",
      "midiNote": 84,
      "noteName": "C6",
      "velocity": 0.7874015748031497,
      "duration": "30i"
    },
    {
      "time": "4250i",
      "midiNote": 83,
      "noteName": "B5",
      "velocity": 0.7874015748031497,
      "duration": "194i"
    },
    {
      "time": "4532i",
      "midiNote": 74,
      "noteName": "D5",
      "velocity": 0.7874015748031497,
      "duration": "48i"
    },
    {
      "time": "4580i",
      "midiNote": 76,
      "noteName": "E5",
      "velocity": 0.7874015748031497,
      "duration": "48i"
    },
    {
      "time": "4628i",
      "midiNote": 86,
      "noteName": "D6",
      "velocity": 0.7874015748031497,
      "duration": "160i"
    },
    {
      "time": "4776i",
      "midiNote": 85,
      "noteName": "C#6",
      "velocity": 0.7401574803149606,
      "duration": "38i"
    },
    {
      "time": "4799i",
      "midiNote": 84,
      "noteName": "C6",
      "velocity": 0.6614173228346457,
      "duration": "40i"
    },
    {
      "time": "4820i",
      "midiNote": 83,
      "noteName": "B5",
      "velocity": 0.7401574803149606,
      "duration": "328i"
    },
    {
      "time": "5148i",
      "midiNote": 81,
      "noteName": "A5",
      "velocity": 0.7874015748031497,
      "duration": "40i"
    },
    {
      "time": "5188i",
      "midiNote": 79,
      "noteName": "G5",
      "velocity": 0.7874015748031497,
      "duration": "88i"
    },
    {
      "time": "5300i",
      "midiNote": 74,
      "noteName": "D5",
      "velocity": 0.7874015748031497,
      "duration": "48i"
    },
    {
      "time": "5348i",
      "midiNote": 76,
      "noteName": "E5",
      "velocity": 0.7874015748031497,
      "duration": "48i"
    },
    {
      "time": "5396i",
      "midiNote": 86,
      "noteName": "D6",
      "velocity": 0.7874015748031497,
      "duration": "180i"
    },
    {
      "time": "5564i",
      "midiNote": 85,
      "noteName": "C#6",
      "velocity": 0.6535433070866141,
      "duration": "24i"
    },
    {
      "time": "5576i",
      "midiNote": 84,
      "noteName": "C6",
      "velocity": 0.6220472440944882,
      "duration": "24i"
    },
    {
      "time": "5588i",
      "midiNote": 83,
      "noteName": "B5",
      "velocity": 0.7874015748031497,
      "duration": "168i"
    },
    {
      "time": "5756i",
      "midiNote": 88,
      "noteName": "E6",
      "velocity": 0.7874015748031497,
      "duration": "32i"
    },
    {
      "time": "5786i",
      "midiNote": 83,
      "noteName": "B5",
      "velocity": 0.7874015748031497,
      "duration": "306i"
    },
    {
      "time": "6164i",
      "midiNote": 81,
      "noteName": "A5",
      "velocity": 0.7874015748031497,
      "duration": "96i"
    },
    {
      "time": "6260i",
      "midiNote": 76,
      "noteName": "E5",
      "velocity": 0.7874015748031497,
      "duration": "284i"
    },
    {
      "time": "6548i",
      "midiNote": 74,
      "noteName": "D5",
      "velocity": 0.7874015748031497,
      "duration": "88i"
    },
    {
      "time": "6644i",
      "midiNote": 79,
      "noteName": "G5",
      "velocity": 0.7874015748031497,
      "duration": "252i"
    },
    {
      "time": "6932i",
      "midiNote": 81,
      "noteName": "A5",
      "velocity": 0.7874015748031497,
      "duration": "108i"
    },
    {
      "time": "7044i",
      "midiNote": 76,
      "noteName": "E5",
      "velocity": 0.7874015748031497,
      "duration": "268i"
    },
    {
      "time": "7316i",
      "midiNote": 83,
      "noteName": "B5",
      "velocity": 0.7874015748031497,
      "duration": "88i"
    },
    {
      "time": "7412i",
      "midiNote": 79,
      "noteName": "G5",
      "velocity": 0.7874015748031497,
      "duration": "244i"
    },
    {
      "time": "7700i",
      "midiNote": 81,
      "noteName": "A5",
      "velocity": 0.7874015748031497,
      "duration": "109i"
    },
    {
      "time": "7812i",
      "midiNote": 76,
      "noteName": "E5",
      "velocity": 0.7874015748031497,
      "duration": "256i"
    },
    {
      "time": "8084i",
      "midiNote": 74,
      "noteName": "D5",
      "velocity": 0.7874015748031497,
      "duration": "96i"
    },
    {
      "time": "8180i",
      "midiNote": 79,
      "noteName": "G5",
      "velocity": 0.7874015748031497,
      "duration": "264i"
    },
    {
      "time": "8468i",
      "midiNote": 84,
      "noteName": "C6",
      "velocity": 0.7874015748031497,
      "duration": "90i"
    },
    {
      "time": "8564i",
      "midiNote": 79,
      "noteName": "G5",
      "velocity": 0.7874015748031497,
      "duration": "284i"
    },
    {
      "time": "8852i",
      "midiNote": 77,
      "noteName": "F5",
      "velocity": 0.7874015748031497,
      "duration": "92i"
    },
    {
      "time": "8948i",
      "midiNote": 79,
      "noteName": "G5",
      "velocity": 0.7874015748031497,
      "duration": "240i"
    },
    {
      "time": "10580i",
      "midiNote": 74,
      "noteName": "D5",
      "velocity": 0.7874015748031497,
      "duration": "96i"
    },
    {
      "time": "10676i",
      "midiNote": 76,
      "noteName": "E5",
      "velocity": 0.7874015748031497,
      "duration": "96i"
    },
    {
      "time": "10772i",
      "midiNote": 86,
      "noteName": "D6",
      "velocity": 0.7874015748031497,
      "duration": "160i"
    },
    {
      "time": "10916i",
      "midiNote": 85,
      "noteName": "C#6",
      "velocity": 0.7165354330708661,
      "duration": "44i"
    },
    {
      "time": "10940i",
      "midiNote": 84,
      "noteName": "C6",
      "velocity": 0.6535433070866141,
      "duration": "44i"
    },
    {
      "time": "10964i",
      "midiNote": 83,
      "noteName": "B5",
      "velocity": 0.7874015748031497,
      "duration": "328i"
    },
    {
      "time": "11292i",
      "midiNote": 81,
      "noteName": "A5",
      "velocity": 0.7874015748031497,
      "duration": "40i"
    },
    {
      "time": "11332i",
      "midiNote": 79,
      "noteName": "G5",
      "velocity": 0.7874015748031497,
      "duration": "88i"
    },
    {
      "time": "11444i",
      "midiNote": 74,
      "noteName": "D5",
      "velocity": 0.7874015748031497,
      "duration": "48i"
    },
    {
      "time": "11492i",
      "midiNote": 76,
      "noteName": "E5",
      "velocity": 0.7874015748031497,
      "duration": "48i"
    },
    {
      "time": "11540i",
      "midiNote": 86,
      "noteName": "D6",
      "velocity": 0.7874015748031497,
      "duration": "180i"
    },
    {
      "time": "11708i",
      "midiNote": 85,
      "noteName": "C#6",
      "velocity": 0.7244094488188977,
      "duration": "24i"
    },
    {
      "time": "11720i",
      "midiNote": 84,
      "noteName": "C6",
      "velocity": 0.6535433070866141,
      "duration": "24i"
    },
    {
      "time": "11732i",
      "midiNote": 83,
      "noteName": "B5",
      "velocity": 0.7401574803149606,
      "duration": "168i"
    },
    {
      "time": "11900i",
      "midiNote": 84,
      "noteName": "C6",
      "velocity": 0.7874015748031497,
      "duration": "30i"
    },
    {
      "time": "11930i",
      "midiNote": 83,
      "noteName": "B5",
      "velocity": 0.7874015748031497,
      "duration": "194i"
    },
    {
      "time": "12212i",
      "midiNote": 74,
      "noteName": "D5",
      "velocity": 0.7874015748031497,
      "duration": "48i"
    },
    {
      "time": "12260i",
      "midiNote": 76,
      "noteName": "E5",
      "velocity": 0.7874015748031497,
      "duration": "48i"
    },
    {
      "time": "12308i",
      "midiNote": 86,
      "noteName": "D6",
      "velocity": 0.7874015748031497,
      "duration": "160i"
    },
    {
      "time": "12456i",
      "midiNote": 85,
      "noteName": "C#6",
      "velocity": 0.7401574803149606,
      "duration": "38i"
    },
    {
      "time": "12479i",
      "midiNote": 84,
      "noteName": "C6",
      "velocity": 0.6614173228346457,
      "duration": "40i"
    },
    {
      "time": "12500i",
      "midiNote": 83,
      "noteName": "B5",
      "velocity": 0.7401574803149606,
      "duration": "328i"
    },
    {
      "time": "12828i",
      "midiNote": 81,
      "noteName": "A5",
      "velocity": 0.7874015748031497,
      "duration": "40i"
    },
    {
      "time": "12868i",
      "midiNote": 79,
      "noteName": "G5",
      "velocity": 0.7874015748031497,
      "duration": "88i"
    },
    {
      "time": "12980i",
      "midiNote": 74,
      "noteName": "D5",
      "velocity": 0.7874015748031497,
      "duration": "48i"
    },
    {
      "time": "13028i",
      "midiNote": 76,
      "noteName": "E5",
      "velocity": 0.7874015748031497,
      "duration": "48i"
    },
    {
      "time": "13076i",
      "midiNote": 86,
      "noteName": "D6",
      "velocity": 0.7874015748031497,
      "duration": "180i"
    },
    {
      "time": "13244i",
      "midiNote": 85,
      "noteName": "C#6",
      "velocity": 0.6535433070866141,
      "duration": "24i"
    },
    {
      "time": "13256i",
      "midiNote": 84,
      "noteName": "C6",
      "velocity": 0.6220472440944882,
      "duration": "24i"
    },
    {
      "time": "13268i",
      "midiNote": 83,
      "noteName": "B5",
      "velocity": 0.7874015748031497,
      "duration": "168i"
    },
    {
      "time": "13436i",
      "midiNote": 88,
      "noteName": "E6",
      "velocity": 0.7874015748031497,
      "duration": "32i"
    },
    {
      "time": "13466i",
      "midiNote": 83,
      "noteName": "B5",
      "velocity": 0.7874015748031497,
      "duration": "306i"
    },
    {
      "time": "13844i",
      "midiNote": 81,
      "noteName": "A5",
      "velocity": 0.7874015748031497,
      "duration": "96i"
    },
    {
      "time": "13940i",
      "midiNote": 76,
      "noteName": "E5",
      "velocity": 0.7874015748031497,
      "duration": "284i"
    },
    {
      "time": "14228i",
      "midiNote": 74,
      "noteName": "D5",
      "velocity": 0.7874015748031497,
      "duration": "88i"
    },
    {
      "time": "14324i",
      "midiNote": 79,
      "noteName": "G5",
      "velocity": 0.7874015748031497,
      "duration": "252i"
    },
    {
      "time": "14612i",
      "midiNote": 81,
      "noteName": "A5",
      "velocity": 0.7874015748031497,
      "duration": "108i"
    },
    {
      "time": "14724i",
      "midiNote": 76,
      "noteName": "E5",
      "velocity": 0.7874015748031497,
      "duration": "268i"
    },
    {
      "time": "14996i",
      "midiNote": 83,
      "noteName": "B5",
      "velocity": 0.7874015748031497,
      "duration": "88i"
    },
    {
      "time": "15092i",
      "midiNote": 79,
      "noteName": "G5",
      "velocity": 0.7874015748031497,
      "duration": "244i"
    },
    {
      "time": "15380i",
      "midiNote": 81,
      "noteName": "A5",
      "velocity": 0.7874015748031497,
      "duration": "109i"
    },
    {
      "time": "15492i",
      "midiNote": 76,
      "noteName": "E5",
      "velocity": 0.7874015748031497,
      "duration": "256i"
    },
    {
      "time": "15764i",
      "midiNote": 74,
      "noteName": "D5",
      "velocity": 0.7874015748031497,
      "duration": "96i"
    },
    {
      "time": "15860i",
      "midiNote": 79,
      "noteName": "G5",
      "velocity": 0.7874015748031497,
      "duration": "264i"
    },
    {
      "time": "16148i",
      "midiNote": 84,
      "noteName": "C6",
      "velocity": 0.7874015748031497,
      "duration": "90i"
    },
    {
      "time": "16244i",
      "midiNote": 79,
      "noteName": "G5",
      "velocity": 0.7874015748031497,
      "duration": "284i"
    },
    {
      "time": "16532i",
      "midiNote": 77,
      "noteName": "F5",
      "velocity": 0.7874015748031497,
      "duration": "92i"
    },
    {
      "time": "16628i",
      "midiNote": 79,
      "noteName": "G5",
      "velocity": 0.7874015748031497,
      "duration": "240i"
    }
  ],
  [
    {
      "time": "2920i",
      "midiNote": 74,
      "noteName": "D5",
      "velocity": 0.7874015748031497,
      "duration": "96i"
    },
    {
      "time": "3016i",
      "midiNote": 76,
      "noteName": "E5",
      "velocity": 0.7874015748031497,
      "duration": "96i"
    },
    {
      "time": "3112i",
      "midiNote": 86,
      "noteName": "D6",
      "velocity": 0.7874015748031497,
      "duration": "160i"
    },
    {
      "time": "3256i",
      "midiNote": 85,
      "noteName": "C#6",
      "velocity": 0.7165354330708661,
      "duration": "44i"
    },
    {
      "time": "3280i",
      "midiNote": 84,
      "noteName": "C6",
      "velocity": 0.6535433070866141,
      "duration": "44i"
    },
    {
      "time": "3304i",
      "midiNote": 83,
      "noteName": "B5",
      "velocity": 0.7874015748031497,
      "duration": "328i"
    },
    {
      "time": "3632i",
      "midiNote": 81,
      "noteName": "A5",
      "velocity": 0.7874015748031497,
      "duration": "40i"
    },
    {
      "time": "3672i",
      "midiNote": 79,
      "noteName": "G5",
      "velocity": 0.7874015748031497,
      "duration": "88i"
    },
    {
      "time": "3784i",
      "midiNote": 74,
      "noteName": "D5",
      "velocity": 0.7874015748031497,
      "duration": "48i"
    },
    {
      "time": "3832i",
      "midiNote": 76,
      "noteName": "E5",
      "velocity": 0.7874015748031497,
      "duration": "48i"
    },
    {
      "time": "3880i",
      "midiNote": 86,
      "noteName": "D6",
      "velocity": 0.7874015748031497,
      "duration": "180i"
    },
    {
      "time": "4048i",
      "midiNote": 85,
      "noteName": "C#6",
      "velocity": 0.7244094488188977,
      "duration": "24i"
    },
    {
      "time": "4060i",
      "midiNote": 84,
      "noteName": "C6",
      "velocity": 0.6535433070866141,
      "duration": "24i"
    },
    {
      "time": "4072i",
      "midiNote": 83,
      "noteName": "B5",
      "velocity": 0.7401574803149606,
      "duration": "168i"
    },
    {
      "time": "4240i",
      "midiNote": 84,
      "noteName": "C6",
      "velocity": 0.7874015748031497,
      "duration": "30i"
    },
    {
      "time": "4270i",
      "midiNote": 83,
      "noteName": "B5",
      "velocity": 0.7874015748031497,
      "duration": "194i"
    },
    {
      "time": "4552i",
      "midiNote": 74,
      "noteName": "D5",
      "velocity": 0.7874015748031497,
      "duration": "48i"
    },
    {
      "time": "4600i",
      "midiNote": 76,
      "noteName": "E5",
      "velocity": 0.7874015748031497,
      "duration": "48i"
    },
    {
      "time": "4648i",
      "midiNote": 86,
      "noteName": "D6",
      "velocity": 0.7874015748031497,
      "duration": "160i"
    },
    {
      "time": "4796i",
      "midiNote": 85,
      "noteName": "C#6",
      "velocity": 0.7401574803149606,
      "duration": "38i"
    },
    {
      "time": "4819i",
      "midiNote": 84,
      "noteName": "C6",
      "velocity": 0.6614173228346457,
      "duration": "40i"
    },
    {
      "time": "4840i",
      "midiNote": 83,
      "noteName": "B5",
      "velocity": 0.7401574803149606,
      "duration": "328i"
    },
    {
      "time": "5168i",
      "midiNote": 81,
      "noteName": "A5",
      "velocity": 0.7874015748031497,
      "duration": "40i"
    },
    {
      "time": "5208i",
      "midiNote": 79,
      "noteName": "G5",
      "velocity": 0.7874015748031497,
      "duration": "88i"
    },
    {
      "time": "5320i",
      "midiNote": 74,
      "noteName": "D5",
      "velocity": 0.7874015748031497,
      "duration": "48i"
    },
    {
      "time": "5368i",
      "midiNote": 76,
      "noteName": "E5",
      "velocity": 0.7874015748031497,
      "duration": "48i"
    },
    {
      "time": "5416i",
      "midiNote": 86,
      "noteName": "D6",
      "velocity": 0.7874015748031497,
      "duration": "180i"
    },
    {
      "time": "5584i",
      "midiNote": 85,
      "noteName": "C#6",
      "velocity": 0.6535433070866141,
      "duration": "24i"
    },
    {
      "time": "5596i",
      "midiNote": 84,
      "noteName": "C6",
      "velocity": 0.6220472440944882,
      "duration": "24i"
    },
    {
      "time": "5608i",
      "midiNote": 83,
      "noteName": "B5",
      "velocity": 0.7874015748031497,
      "duration": "168i"
    },
    {
      "time": "5776i",
      "midiNote": 88,
      "noteName": "E6",
      "velocity": 0.7874015748031497,
      "duration": "32i"
    },
    {
      "time": "5806i",
      "midiNote": 83,
      "noteName": "B5",
      "velocity": 0.7874015748031497,
      "duration": "306i"
    },
    {
      "time": "6184i",
      "midiNote": 81,
      "noteName": "A5",
      "velocity": 0.7874015748031497,
      "duration": "96i"
    },
    {
      "time": "6280i",
      "midiNote": 76,
      "noteName": "E5",
      "velocity": 0.7874015748031497,
      "duration": "284i"
    },
    {
      "time": "6568i",
      "midiNote": 74,
      "noteName": "D5",
      "velocity": 0.7874015748031497,
      "duration": "88i"
    },
    {
      "time": "6664i",
      "midiNote": 79,
      "noteName": "G5",
      "velocity": 0.7874015748031497,
      "duration": "252i"
    },
    {
      "time": "6952i",
      "midiNote": 81,
      "noteName": "A5",
      "velocity": 0.7874015748031497,
      "duration": "108i"
    },
    {
      "time": "7064i",
      "midiNote": 76,
      "noteName": "E5",
      "velocity": 0.7874015748031497,
      "duration": "268i"
    },
    {
      "time": "7336i",
      "midiNote": 83,
      "noteName": "B5",
      "velocity": 0.7874015748031497,
      "duration": "88i"
    },
    {
      "time": "7432i",
      "midiNote": 79,
      "noteName": "G5",
      "velocity": 0.7874015748031497,
      "duration": "244i"
    },
    {
      "time": "7720i",
      "midiNote": 81,
      "noteName": "A5",
      "velocity": 0.7874015748031497,
      "duration": "109i"
    },
    {
      "time": "7832i",
      "midiNote": 76,
      "noteName": "E5",
      "velocity": 0.7874015748031497,
      "duration": "256i"
    },
    {
      "time": "8104i",
      "midiNote": 74,
      "noteName": "D5",
      "velocity": 0.7874015748031497,
      "duration": "96i"
    },
    {
      "time": "8200i",
      "midiNote": 79,
      "noteName": "G5",
      "velocity": 0.7874015748031497,
      "duration": "264i"
    },
    {
      "time": "8488i",
      "midiNote": 84,
      "noteName": "C6",
      "velocity": 0.7874015748031497,
      "duration": "90i"
    },
    {
      "time": "8584i",
      "midiNote": 79,
      "noteName": "G5",
      "velocity": 0.7874015748031497,
      "duration": "284i"
    },
    {
      "time": "8872i",
      "midiNote": 77,
      "noteName": "F5",
      "velocity": 0.7874015748031497,
      "duration": "92i"
    },
    {
      "time": "8968i",
      "midiNote": 79,
      "noteName": "G5",
      "velocity": 0.7874015748031497,
      "duration": "240i"
    },
    {
      "time": "10600i",
      "midiNote": 74,
      "noteName": "D5",
      "velocity": 0.7874015748031497,
      "duration": "96i"
    },
    {
      "time": "10696i",
      "midiNote": 76,
      "noteName": "E5",
      "velocity": 0.7874015748031497,
      "duration": "96i"
    },
    {
      "time": "10792i",
      "midiNote": 86,
      "noteName": "D6",
      "velocity": 0.7874015748031497,
      "duration": "160i"
    },
    {
      "time": "10936i",
      "midiNote": 85,
      "noteName": "C#6",
      "velocity": 0.7165354330708661,
      "duration": "44i"
    },
    {
      "time": "10960i",
      "midiNote": 84,
      "noteName": "C6",
      "velocity": 0.6535433070866141,
      "duration": "44i"
    },
    {
      "time": "10984i",
      "midiNote": 83,
      "noteName": "B5",
      "velocity": 0.7874015748031497,
      "duration": "328i"
    },
    {
      "time": "11312i",
      "midiNote": 81,
      "noteName": "A5",
      "velocity": 0.7874015748031497,
      "duration": "40i"
    },
    {
      "time": "11352i",
      "midiNote": 79,
      "noteName": "G5",
      "velocity": 0.7874015748031497,
      "duration": "88i"
    },
    {
      "time": "11464i",
      "midiNote": 74,
      "noteName": "D5",
      "velocity": 0.7874015748031497,
      "duration": "48i"
    },
    {
      "time": "11512i",
      "midiNote": 76,
      "noteName": "E5",
      "velocity": 0.7874015748031497,
      "duration": "48i"
    },
    {
      "time": "11560i",
      "midiNote": 86,
      "noteName": "D6",
      "velocity": 0.7874015748031497,
      "duration": "180i"
    },
    {
      "time": "11728i",
      "midiNote": 85,
      "noteName": "C#6",
      "velocity": 0.7244094488188977,
      "duration": "24i"
    },
    {
      "time": "11740i",
      "midiNote": 84,
      "noteName": "C6",
      "velocity": 0.6535433070866141,
      "duration": "24i"
    },
    {
      "time": "11752i",
      "midiNote": 83,
      "noteName": "B5",
      "velocity": 0.7401574803149606,
      "duration": "168i"
    },
    {
      "time": "11920i",
      "midiNote": 84,
      "noteName": "C6",
      "velocity": 0.7874015748031497,
      "duration": "30i"
    },
    {
      "time": "11950i",
      "midiNote": 83,
      "noteName": "B5",
      "velocity": 0.7874015748031497,
      "duration": "194i"
    },
    {
      "time": "12232i",
      "midiNote": 74,
      "noteName": "D5",
      "velocity": 0.7874015748031497,
      "duration": "48i"
    },
    {
      "time": "12280i",
      "midiNote": 76,
      "noteName": "E5",
      "velocity": 0.7874015748031497,
      "duration": "48i"
    },
    {
      "time": "12328i",
      "midiNote": 86,
      "noteName": "D6",
      "velocity": 0.7874015748031497,
      "duration": "160i"
    },
    {
      "time": "12476i",
      "midiNote": 85,
      "noteName": "C#6",
      "velocity": 0.7401574803149606,
      "duration": "38i"
    },
    {
      "time": "12499i",
      "midiNote": 84,
      "noteName": "C6",
      "velocity": 0.6614173228346457,
      "duration": "40i"
    },
    {
      "time": "12520i",
      "midiNote": 83,
      "noteName": "B5",
      "velocity": 0.7401574803149606,
      "duration": "328i"
    },
    {
      "time": "12848i",
      "midiNote": 81,
      "noteName": "A5",
      "velocity": 0.7874015748031497,
      "duration": "40i"
    },
    {
      "time": "12888i",
      "midiNote": 79,
      "noteName": "G5",
      "velocity": 0.7874015748031497,
      "duration": "88i"
    },
    {
      "time": "13000i",
      "midiNote": 74,
      "noteName": "D5",
      "velocity": 0.7874015748031497,
      "duration": "48i"
    },
    {
      "time": "13048i",
      "midiNote": 76,
      "noteName": "E5",
      "velocity": 0.7874015748031497,
      "duration": "48i"
    },
    {
      "time": "13096i",
      "midiNote": 86,
      "noteName": "D6",
      "velocity": 0.7874015748031497,
      "duration": "180i"
    },
    {
      "time": "13264i",
      "midiNote": 85,
      "noteName": "C#6",
      "velocity": 0.6535433070866141,
      "duration": "24i"
    },
    {
      "time": "13276i",
      "midiNote": 84,
      "noteName": "C6",
      "velocity": 0.6220472440944882,
      "duration": "24i"
    },
    {
      "time": "13288i",
      "midiNote": 83,
      "noteName": "B5",
      "velocity": 0.7874015748031497,
      "duration": "168i"
    },
    {
      "time": "13456i",
      "midiNote": 88,
      "noteName": "E6",
      "velocity": 0.7874015748031497,
      "duration": "32i"
    },
    {
      "time": "13486i",
      "midiNote": 83,
      "noteName": "B5",
      "velocity": 0.7874015748031497,
      "duration": "306i"
    },
    {
      "time": "13864i",
      "midiNote": 81,
      "noteName": "A5",
      "velocity": 0.7874015748031497,
      "duration": "96i"
    },
    {
      "time": "13960i",
      "midiNote": 76,
      "noteName": "E5",
      "velocity": 0.7874015748031497,
      "duration": "284i"
    },
    {
      "time": "14248i",
      "midiNote": 74,
      "noteName": "D5",
      "velocity": 0.7874015748031497,
      "duration": "88i"
    },
    {
      "time": "14344i",
      "midiNote": 79,
      "noteName": "G5",
      "velocity": 0.7874015748031497,
      "duration": "252i"
    },
    {
      "time": "14632i",
      "midiNote": 81,
      "noteName": "A5",
      "velocity": 0.7874015748031497,
      "duration": "108i"
    },
    {
      "time": "14744i",
      "midiNote": 76,
      "noteName": "E5",
      "velocity": 0.7874015748031497,
      "duration": "268i"
    },
    {
      "time": "15016i",
      "midiNote": 83,
      "noteName": "B5",
      "velocity": 0.7874015748031497,
      "duration": "88i"
    },
    {
      "time": "15112i",
      "midiNote": 79,
      "noteName": "G5",
      "velocity": 0.7874015748031497,
      "duration": "244i"
    },
    {
      "time": "15400i",
      "midiNote": 81,
      "noteName": "A5",
      "velocity": 0.7874015748031497,
      "duration": "109i"
    },
    {
      "time": "15512i",
      "midiNote": 76,
      "noteName": "E5",
      "velocity": 0.7874015748031497,
      "duration": "256i"
    },
    {
      "time": "15784i",
      "midiNote": 74,
      "noteName": "D5",
      "velocity": 0.7874015748031497,
      "duration": "96i"
    },
    {
      "time": "15880i",
      "midiNote": 79,
      "noteName": "G5",
      "velocity": 0.7874015748031497,
      "duration": "264i"
    },
    {
      "time": "16168i",
      "midiNote": 84,
      "noteName": "C6",
      "velocity": 0.7874015748031497,
      "duration": "90i"
    },
    {
      "time": "16264i",
      "midiNote": 79,
      "noteName": "G5",
      "velocity": 0.7874015748031497,
      "duration": "284i"
    },
    {
      "time": "16552i",
      "midiNote": 77,
      "noteName": "F5",
      "velocity": 0.7874015748031497,
      "duration": "92i"
    },
    {
      "time": "16648i",
      "midiNote": 79,
      "noteName": "G5",
      "velocity": 0.7874015748031497,
      "duration": "240i"
    }
  ],
  [
    {
      "time": "6144i",
      "midiNote": 41,
      "noteName": "F2",
      "velocity": 0.7874015748031497,
      "duration": "352i"
    },
    {
      "time": "6192i",
      "midiNote": 48,
      "noteName": "C3",
      "velocity": 0.7874015748031497,
      "duration": "304i"
    },
    {
      "time": "6528i",
      "midiNote": 43,
      "noteName": "G2",
      "velocity": 0.7874015748031497,
      "duration": "352i"
    },
    {
      "time": "6576i",
      "midiNote": 50,
      "noteName": "D3",
      "velocity": 0.7874015748031497,
      "duration": "304i"
    },
    {
      "time": "6912i",
      "midiNote": 41,
      "noteName": "F2",
      "velocity": 0.7874015748031497,
      "duration": "352i"
    },
    {
      "time": "6960i",
      "midiNote": 48,
      "noteName": "C3",
      "velocity": 0.7874015748031497,
      "duration": "304i"
    },
    {
      "time": "7296i",
      "midiNote": 43,
      "noteName": "G2",
      "velocity": 0.7874015748031497,
      "duration": "352i"
    },
    {
      "time": "7344i",
      "midiNote": 50,
      "noteName": "D3",
      "velocity": 0.7874015748031497,
      "duration": "304i"
    },
    {
      "time": "7680i",
      "midiNote": 41,
      "noteName": "F2",
      "velocity": 0.7874015748031497,
      "duration": "352i"
    },
    {
      "time": "7728i",
      "midiNote": 48,
      "noteName": "C3",
      "velocity": 0.7874015748031497,
      "duration": "304i"
    },
    {
      "time": "8064i",
      "midiNote": 43,
      "noteName": "G2",
      "velocity": 0.7874015748031497,
      "duration": "352i"
    },
    {
      "time": "8112i",
      "midiNote": 50,
      "noteName": "D3",
      "velocity": 0.7874015748031497,
      "duration": "304i"
    },
    {
      "time": "8448i",
      "midiNote": 44,
      "noteName": "G#2",
      "velocity": 0.7874015748031497,
      "duration": "352i"
    },
    {
      "time": "8496i",
      "midiNote": 51,
      "noteName": "D#3",
      "velocity": 0.7874015748031497,
      "duration": "304i"
    },
    {
      "time": "8832i",
      "midiNote": 46,
      "noteName": "A#2",
      "velocity": 0.7874015748031497,
      "duration": "352i"
    },
    {
      "time": "8880i",
      "midiNote": 50,
      "noteName": "D3",
      "velocity": 0.7874015748031497,
      "duration": "304i"
    },
    {
      "time": "13824i",
      "midiNote": 41,
      "noteName": "F2",
      "velocity": 0.7874015748031497,
      "duration": "384i"
    },
    {
      "time": "13872i",
      "midiNote": 48,
      "noteName": "C3",
      "velocity": 0.7874015748031497,
      "duration": "336i"
    },
    {
      "time": "14208i",
      "midiNote": 43,
      "noteName": "G2",
      "velocity": 0.7874015748031497,
      "duration": "384i"
    },
    {
      "time": "14256i",
      "midiNote": 50,
      "noteName": "D3",
      "velocity": 0.7874015748031497,
      "duration": "336i"
    },
    {
      "time": "14592i",
      "midiNote": 41,
      "noteName": "F2",
      "velocity": 0.7874015748031497,
      "duration": "384i"
    },
    {
      "time": "14640i",
      "midiNote": 48,
      "noteName": "C3",
      "velocity": 0.7874015748031497,
      "duration": "336i"
    },
    {
      "time": "14976i",
      "midiNote": 43,
      "noteName": "G2",
      "velocity": 0.7874015748031497,
      "duration": "384i"
    },
    {
      "time": "15024i",
      "midiNote": 50,
      "noteName": "D3",
      "velocity": 0.7874015748031497,
      "duration": "336i"
    },
    {
      "time": "15360i",
      "midiNote": 41,
      "noteName": "F2",
      "velocity": 0.7874015748031497,
      "duration": "384i"
    },
    {
      "time": "15408i",
      "midiNote": 48,
      "noteName": "C3",
      "velocity": 0.7874015748031497,
      "duration": "336i"
    },
    {
      "time": "15744i",
      "midiNote": 43,
      "noteName": "G2",
      "velocity": 0.7874015748031497,
      "duration": "384i"
    },
    {
      "time": "15792i",
      "midiNote": 50,
      "noteName": "D3",
      "velocity": 0.7874015748031497,
      "duration": "336i"
    },
    {
      "time": "16128i",
      "midiNote": 44,
      "noteName": "G#2",
      "velocity": 0.7874015748031497,
      "duration": "384i"
    },
    {
      "time": "16176i",
      "midiNote": 51,
      "noteName": "D#3",
      "velocity": 0.7874015748031497,
      "duration": "336i"
    },
    {
      "time": "16512i",
      "midiNote": 46,
      "noteName": "A#2",
      "velocity": 0.7874015748031497,
      "duration": "384i"
    },
    {
      "time": "16560i",
      "midiNote": 50,
      "noteName": "D3",
      "velocity": 0.7874015748031497,
      "duration": "336i"
    }
  ]
]

buildTrack = parseMidi(parts: parts, transport: transport)
