require('v1/midi')

transport = {
  "timeSignature": [
    4,
    4
  ],
  "bpm": 400
}

parts = [
  [
    {
      "time": "197i",
      "midiNote": 53,
      "noteName": "F3",
      "velocity": 0.4330708661417323,
      "duration": "190i"
    },
    {
      "time": "197i",
      "midiNote": 57,
      "noteName": "A3",
      "velocity": 0.5118110236220472,
      "duration": "190i"
    },
    {
      "time": "387i",
      "midiNote": 53,
      "noteName": "F3",
      "velocity": 0.44881889763779526,
      "duration": "188i"
    },
    {
      "time": "387i",
      "midiNote": 57,
      "noteName": "A3",
      "velocity": 0.5275590551181102,
      "duration": "188i"
    },
    {
      "time": "678i",
      "midiNote": 52,
      "noteName": "E3",
      "velocity": 0.4881889763779528,
      "duration": "87i"
    },
    {
      "time": "773i",
      "midiNote": 55,
      "noteName": "G3",
      "velocity": 0.4251968503937008,
      "duration": "379i"
    },
    {
      "time": "773i",
      "midiNote": 59,
      "noteName": "B3",
      "velocity": 0.5354330708661418,
      "duration": "379i"
    },
    {
      "time": "1349i",
      "midiNote": 57,
      "noteName": "A3",
      "velocity": 0.4330708661417323,
      "duration": "190i"
    },
    {
      "time": "1349i",
      "midiNote": 60,
      "noteName": "C4",
      "velocity": 0.5433070866141733,
      "duration": "190i"
    },
    {
      "time": "1539i",
      "midiNote": 57,
      "noteName": "A3",
      "velocity": 0.44881889763779526,
      "duration": "188i"
    },
    {
      "time": "1539i",
      "midiNote": 60,
      "noteName": "C4",
      "velocity": 0.5275590551181102,
      "duration": "188i"
    },
    {
      "time": "1830i",
      "midiNote": 52,
      "noteName": "E3",
      "velocity": 0.4881889763779528,
      "duration": "87i"
    },
    {
      "time": "1925i",
      "midiNote": 55,
      "noteName": "G3",
      "velocity": 0.4251968503937008,
      "duration": "379i"
    },
    {
      "time": "1925i",
      "midiNote": 59,
      "noteName": "B3",
      "velocity": 0.5354330708661418,
      "duration": "379i"
    },
    {
      "time": "2501i",
      "midiNote": 53,
      "noteName": "F3",
      "velocity": 0.4330708661417323,
      "duration": "190i"
    },
    {
      "time": "2501i",
      "midiNote": 57,
      "noteName": "A3",
      "velocity": 0.5433070866141733,
      "duration": "190i"
    },
    {
      "time": "2691i",
      "midiNote": 53,
      "noteName": "F3",
      "velocity": 0.44881889763779526,
      "duration": "188i"
    },
    {
      "time": "2691i",
      "midiNote": 57,
      "noteName": "A3",
      "velocity": 0.5275590551181102,
      "duration": "188i"
    },
    {
      "time": "2982i",
      "midiNote": 52,
      "noteName": "E3",
      "velocity": 0.4881889763779528,
      "duration": "87i"
    },
    {
      "time": "3077i",
      "midiNote": 55,
      "noteName": "G3",
      "velocity": 0.4251968503937008,
      "duration": "379i"
    },
    {
      "time": "3077i",
      "midiNote": 59,
      "noteName": "B3",
      "velocity": 0.5354330708661418,
      "duration": "379i"
    },
    {
      "time": "3653i",
      "midiNote": 57,
      "noteName": "A3",
      "velocity": 0.4330708661417323,
      "duration": "190i"
    },
    {
      "time": "3653i",
      "midiNote": 60,
      "noteName": "C4",
      "velocity": 0.5433070866141733,
      "duration": "190i"
    },
    {
      "time": "3843i",
      "midiNote": 57,
      "noteName": "A3",
      "velocity": 0.44881889763779526,
      "duration": "188i"
    },
    {
      "time": "3843i",
      "midiNote": 60,
      "noteName": "C4",
      "velocity": 0.5275590551181102,
      "duration": "188i"
    },
    {
      "time": "4134i",
      "midiNote": 52,
      "noteName": "E3",
      "velocity": 0.4881889763779528,
      "duration": "87i"
    },
    {
      "time": "4229i",
      "midiNote": 55,
      "noteName": "G3",
      "velocity": 0.4251968503937008,
      "duration": "379i"
    },
    {
      "time": "4229i",
      "midiNote": 59,
      "noteName": "B3",
      "velocity": 0.5354330708661418,
      "duration": "379i"
    },
    {
      "time": "4609i",
      "midiNote": 62,
      "noteName": "D4",
      "velocity": 0.7322834645669292,
      "duration": "94i"
    },
    {
      "time": "4710i",
      "midiNote": 65,
      "noteName": "F4",
      "velocity": 0.6929133858267716,
      "duration": "87i"
    },
    {
      "time": "4805i",
      "midiNote": 74,
      "noteName": "D5",
      "velocity": 0.6929133858267716,
      "duration": "379i"
    },
    {
      "time": "5185i",
      "midiNote": 62,
      "noteName": "D4",
      "velocity": 0.7322834645669292,
      "duration": "94i"
    },
    {
      "time": "5286i",
      "midiNote": 65,
      "noteName": "F4",
      "velocity": 0.6929133858267716,
      "duration": "87i"
    },
    {
      "time": "5381i",
      "midiNote": 74,
      "noteName": "D5",
      "velocity": 0.6929133858267716,
      "duration": "379i"
    },
    {
      "time": "5761i",
      "midiNote": 76,
      "noteName": "E5",
      "velocity": 0.7322834645669292,
      "duration": "291i"
    },
    {
      "time": "6052i",
      "midiNote": 77,
      "noteName": "F5",
      "velocity": 0.6929133858267716,
      "duration": "87i"
    },
    {
      "time": "6147i",
      "midiNote": 76,
      "noteName": "E5",
      "velocity": 0.7165354330708661,
      "duration": "86i"
    },
    {
      "time": "6241i",
      "midiNote": 77,
      "noteName": "F5",
      "velocity": 0.6929133858267716,
      "duration": "87i"
    },
    {
      "time": "6337i",
      "midiNote": 76,
      "noteName": "E5",
      "velocity": 0.7322834645669292,
      "duration": "94i"
    },
    {
      "time": "6438i",
      "midiNote": 72,
      "noteName": "C5",
      "velocity": 0.6929133858267716,
      "duration": "87i"
    },
    {
      "time": "6533i",
      "midiNote": 69,
      "noteName": "A4",
      "velocity": 0.6929133858267716,
      "duration": "379i"
    },
    {
      "time": "6913i",
      "midiNote": 69,
      "noteName": "A4",
      "velocity": 0.7322834645669292,
      "duration": "196i"
    },
    {
      "time": "7109i",
      "midiNote": 62,
      "noteName": "D4",
      "velocity": 0.7007874015748031,
      "duration": "190i"
    },
    {
      "time": "7299i",
      "midiNote": 65,
      "noteName": "F4",
      "velocity": 0.7165354330708661,
      "duration": "86i"
    },
    {
      "time": "7393i",
      "midiNote": 67,
      "noteName": "G4",
      "velocity": 0.6929133858267716,
      "duration": "87i"
    },
    {
      "time": "7489i",
      "midiNote": 69,
      "noteName": "A4",
      "velocity": 0.6929133858267716,
      "duration": "575i"
    },
    {
      "time": "8065i",
      "midiNote": 69,
      "noteName": "A4",
      "velocity": 0.7322834645669292,
      "duration": "196i"
    },
    {
      "time": "8261i",
      "midiNote": 62,
      "noteName": "D4",
      "velocity": 0.7007874015748031,
      "duration": "190i"
    },
    {
      "time": "8451i",
      "midiNote": 65,
      "noteName": "F4",
      "velocity": 0.7165354330708661,
      "duration": "86i"
    },
    {
      "time": "8545i",
      "midiNote": 67,
      "noteName": "G4",
      "velocity": 0.6929133858267716,
      "duration": "87i"
    },
    {
      "time": "8641i",
      "midiNote": 64,
      "noteName": "E4",
      "velocity": 0.6929133858267716,
      "duration": "575i"
    },
    {
      "time": "9217i",
      "midiNote": 62,
      "noteName": "D4",
      "velocity": 0.7322834645669292,
      "duration": "94i"
    },
    {
      "time": "9318i",
      "midiNote": 65,
      "noteName": "F4",
      "velocity": 0.6929133858267716,
      "duration": "87i"
    },
    {
      "time": "9413i",
      "midiNote": 74,
      "noteName": "D5",
      "velocity": 0.6929133858267716,
      "duration": "379i"
    },
    {
      "time": "9793i",
      "midiNote": 62,
      "noteName": "D4",
      "velocity": 0.7322834645669292,
      "duration": "94i"
    },
    {
      "time": "9894i",
      "midiNote": 65,
      "noteName": "F4",
      "velocity": 0.6929133858267716,
      "duration": "87i"
    },
    {
      "time": "9989i",
      "midiNote": 74,
      "noteName": "D5",
      "velocity": 0.6929133858267716,
      "duration": "379i"
    },
    {
      "time": "10369i",
      "midiNote": 76,
      "noteName": "E5",
      "velocity": 0.7322834645669292,
      "duration": "291i"
    },
    {
      "time": "10660i",
      "midiNote": 77,
      "noteName": "F5",
      "velocity": 0.6929133858267716,
      "duration": "87i"
    },
    {
      "time": "10755i",
      "midiNote": 76,
      "noteName": "E5",
      "velocity": 0.7165354330708661,
      "duration": "86i"
    },
    {
      "time": "10849i",
      "midiNote": 77,
      "noteName": "F5",
      "velocity": 0.6929133858267716,
      "duration": "87i"
    },
    {
      "time": "10945i",
      "midiNote": 76,
      "noteName": "E5",
      "velocity": 0.7322834645669292,
      "duration": "94i"
    },
    {
      "time": "11046i",
      "midiNote": 72,
      "noteName": "C5",
      "velocity": 0.6929133858267716,
      "duration": "87i"
    },
    {
      "time": "11141i",
      "midiNote": 69,
      "noteName": "A4",
      "velocity": 0.6929133858267716,
      "duration": "379i"
    },
    {
      "time": "11521i",
      "midiNote": 69,
      "noteName": "A4",
      "velocity": 0.7322834645669292,
      "duration": "196i"
    },
    {
      "time": "11717i",
      "midiNote": 62,
      "noteName": "D4",
      "velocity": 0.7007874015748031,
      "duration": "190i"
    },
    {
      "time": "11907i",
      "midiNote": 65,
      "noteName": "F4",
      "velocity": 0.7165354330708661,
      "duration": "86i"
    },
    {
      "time": "12001i",
      "midiNote": 67,
      "noteName": "G4",
      "velocity": 0.6929133858267716,
      "duration": "87i"
    },
    {
      "time": "12097i",
      "midiNote": 69,
      "noteName": "A4",
      "velocity": 0.6929133858267716,
      "duration": "386i"
    },
    {
      "time": "12483i",
      "midiNote": 69,
      "noteName": "A4",
      "velocity": 0.7165354330708661,
      "duration": "188i"
    },
    {
      "time": "12673i",
      "midiNote": 62,
      "noteName": "D4",
      "velocity": 0.6929133858267716,
      "duration": "386i"
    },
    {
      "time": "12869i",
      "midiNote": 53,
      "noteName": "F3",
      "velocity": 0.6377952755905512,
      "duration": "190i"
    },
    {
      "time": "12869i",
      "midiNote": 57,
      "noteName": "A3",
      "velocity": 0.7165354330708661,
      "duration": "190i"
    },
    {
      "time": "13059i",
      "midiNote": 53,
      "noteName": "F3",
      "velocity": 0.6535433070866141,
      "duration": "188i"
    },
    {
      "time": "13059i",
      "midiNote": 57,
      "noteName": "A3",
      "velocity": 0.7322834645669292,
      "duration": "188i"
    },
    {
      "time": "13350i",
      "midiNote": 52,
      "noteName": "E3",
      "velocity": 0.6929133858267716,
      "duration": "87i"
    },
    {
      "time": "13445i",
      "midiNote": 55,
      "noteName": "G3",
      "velocity": 0.6299212598425197,
      "duration": "379i"
    },
    {
      "time": "13445i",
      "midiNote": 59,
      "noteName": "B3",
      "velocity": 0.7401574803149606,
      "duration": "379i"
    },
    {
      "time": "14021i",
      "midiNote": 57,
      "noteName": "A3",
      "velocity": 0.4330708661417323,
      "duration": "190i"
    },
    {
      "time": "14021i",
      "midiNote": 60,
      "noteName": "C4",
      "velocity": 0.5433070866141733,
      "duration": "190i"
    },
    {
      "time": "14211i",
      "midiNote": 57,
      "noteName": "A3",
      "velocity": 0.44881889763779526,
      "duration": "188i"
    },
    {
      "time": "14211i",
      "midiNote": 60,
      "noteName": "C4",
      "velocity": 0.5275590551181102,
      "duration": "188i"
    },
    {
      "time": "14502i",
      "midiNote": 52,
      "noteName": "E3",
      "velocity": 0.4881889763779528,
      "duration": "87i"
    },
    {
      "time": "14597i",
      "midiNote": 55,
      "noteName": "G3",
      "velocity": 0.4251968503937008,
      "duration": "379i"
    },
    {
      "time": "14597i",
      "midiNote": 59,
      "noteName": "B3",
      "velocity": 0.5354330708661418,
      "duration": "379i"
    },
    {
      "time": "15173i",
      "midiNote": 53,
      "noteName": "F3",
      "velocity": 0.4330708661417323,
      "duration": "190i"
    },
    {
      "time": "15173i",
      "midiNote": 57,
      "noteName": "A3",
      "velocity": 0.5433070866141733,
      "duration": "190i"
    },
    {
      "time": "15363i",
      "midiNote": 53,
      "noteName": "F3",
      "velocity": 0.44881889763779526,
      "duration": "188i"
    },
    {
      "time": "15363i",
      "midiNote": 57,
      "noteName": "A3",
      "velocity": 0.5275590551181102,
      "duration": "188i"
    },
    {
      "time": "15654i",
      "midiNote": 52,
      "noteName": "E3",
      "velocity": 0.4881889763779528,
      "duration": "87i"
    },
    {
      "time": "15749i",
      "midiNote": 55,
      "noteName": "G3",
      "velocity": 0.4251968503937008,
      "duration": "379i"
    },
    {
      "time": "15749i",
      "midiNote": 59,
      "noteName": "B3",
      "velocity": 0.5354330708661418,
      "duration": "379i"
    },
    {
      "time": "16325i",
      "midiNote": 57,
      "noteName": "A3",
      "velocity": 0.4330708661417323,
      "duration": "190i"
    },
    {
      "time": "16325i",
      "midiNote": 60,
      "noteName": "C4",
      "velocity": 0.5433070866141733,
      "duration": "190i"
    },
    {
      "time": "16515i",
      "midiNote": 57,
      "noteName": "A3",
      "velocity": 0.44881889763779526,
      "duration": "188i"
    },
    {
      "time": "16515i",
      "midiNote": 60,
      "noteName": "C4",
      "velocity": 0.5275590551181102,
      "duration": "188i"
    },
    {
      "time": "16806i",
      "midiNote": 52,
      "noteName": "E3",
      "velocity": 0.4881889763779528,
      "duration": "87i"
    },
    {
      "time": "16901i",
      "midiNote": 55,
      "noteName": "G3",
      "velocity": 0.4251968503937008,
      "duration": "379i"
    },
    {
      "time": "16901i",
      "midiNote": 59,
      "noteName": "B3",
      "velocity": 0.5354330708661418,
      "duration": "379i"
    },
    {
      "time": "17281i",
      "midiNote": 62,
      "noteName": "D4",
      "velocity": 0.7322834645669292,
      "duration": "94i"
    },
    {
      "time": "17382i",
      "midiNote": 65,
      "noteName": "F4",
      "velocity": 0.6929133858267716,
      "duration": "87i"
    },
    {
      "time": "17477i",
      "midiNote": 74,
      "noteName": "D5",
      "velocity": 0.6929133858267716,
      "duration": "379i"
    },
    {
      "time": "17857i",
      "midiNote": 62,
      "noteName": "D4",
      "velocity": 0.7322834645669292,
      "duration": "94i"
    },
    {
      "time": "17958i",
      "midiNote": 65,
      "noteName": "F4",
      "velocity": 0.6929133858267716,
      "duration": "87i"
    },
    {
      "time": "18053i",
      "midiNote": 74,
      "noteName": "D5",
      "velocity": 0.6929133858267716,
      "duration": "379i"
    },
    {
      "time": "18433i",
      "midiNote": 76,
      "noteName": "E5",
      "velocity": 0.7322834645669292,
      "duration": "291i"
    },
    {
      "time": "18724i",
      "midiNote": 77,
      "noteName": "F5",
      "velocity": 0.6929133858267716,
      "duration": "87i"
    },
    {
      "time": "18819i",
      "midiNote": 76,
      "noteName": "E5",
      "velocity": 0.7165354330708661,
      "duration": "86i"
    },
    {
      "time": "18913i",
      "midiNote": 77,
      "noteName": "F5",
      "velocity": 0.6929133858267716,
      "duration": "87i"
    },
    {
      "time": "19009i",
      "midiNote": 76,
      "noteName": "E5",
      "velocity": 0.7322834645669292,
      "duration": "94i"
    },
    {
      "time": "19110i",
      "midiNote": 72,
      "noteName": "C5",
      "velocity": 0.6929133858267716,
      "duration": "87i"
    },
    {
      "time": "19205i",
      "midiNote": 69,
      "noteName": "A4",
      "velocity": 0.6929133858267716,
      "duration": "379i"
    },
    {
      "time": "19585i",
      "midiNote": 69,
      "noteName": "A4",
      "velocity": 0.7322834645669292,
      "duration": "196i"
    },
    {
      "time": "19781i",
      "midiNote": 62,
      "noteName": "D4",
      "velocity": 0.7007874015748031,
      "duration": "190i"
    },
    {
      "time": "19971i",
      "midiNote": 65,
      "noteName": "F4",
      "velocity": 0.7165354330708661,
      "duration": "86i"
    },
    {
      "time": "20065i",
      "midiNote": 67,
      "noteName": "G4",
      "velocity": 0.6929133858267716,
      "duration": "87i"
    },
    {
      "time": "20161i",
      "midiNote": 69,
      "noteName": "A4",
      "velocity": 0.6929133858267716,
      "duration": "575i"
    },
    {
      "time": "20737i",
      "midiNote": 69,
      "noteName": "A4",
      "velocity": 0.7322834645669292,
      "duration": "196i"
    },
    {
      "time": "20933i",
      "midiNote": 62,
      "noteName": "D4",
      "velocity": 0.7007874015748031,
      "duration": "190i"
    },
    {
      "time": "21123i",
      "midiNote": 65,
      "noteName": "F4",
      "velocity": 0.7165354330708661,
      "duration": "86i"
    },
    {
      "time": "21217i",
      "midiNote": 67,
      "noteName": "G4",
      "velocity": 0.6929133858267716,
      "duration": "87i"
    },
    {
      "time": "21313i",
      "midiNote": 64,
      "noteName": "E4",
      "velocity": 0.6929133858267716,
      "duration": "575i"
    },
    {
      "time": "21889i",
      "midiNote": 62,
      "noteName": "D4",
      "velocity": 0.7322834645669292,
      "duration": "94i"
    },
    {
      "time": "21990i",
      "midiNote": 65,
      "noteName": "F4",
      "velocity": 0.6929133858267716,
      "duration": "87i"
    },
    {
      "time": "22085i",
      "midiNote": 74,
      "noteName": "D5",
      "velocity": 0.6929133858267716,
      "duration": "379i"
    },
    {
      "time": "22465i",
      "midiNote": 62,
      "noteName": "D4",
      "velocity": 0.7322834645669292,
      "duration": "94i"
    },
    {
      "time": "22566i",
      "midiNote": 65,
      "noteName": "F4",
      "velocity": 0.6929133858267716,
      "duration": "87i"
    },
    {
      "time": "22661i",
      "midiNote": 74,
      "noteName": "D5",
      "velocity": 0.6929133858267716,
      "duration": "379i"
    },
    {
      "time": "23041i",
      "midiNote": 76,
      "noteName": "E5",
      "velocity": 0.7322834645669292,
      "duration": "291i"
    },
    {
      "time": "23332i",
      "midiNote": 77,
      "noteName": "F5",
      "velocity": 0.6929133858267716,
      "duration": "87i"
    },
    {
      "time": "23427i",
      "midiNote": 76,
      "noteName": "E5",
      "velocity": 0.7165354330708661,
      "duration": "86i"
    },
    {
      "time": "23521i",
      "midiNote": 77,
      "noteName": "F5",
      "velocity": 0.6929133858267716,
      "duration": "87i"
    },
    {
      "time": "23617i",
      "midiNote": 76,
      "noteName": "E5",
      "velocity": 0.7322834645669292,
      "duration": "94i"
    },
    {
      "time": "23718i",
      "midiNote": 72,
      "noteName": "C5",
      "velocity": 0.6929133858267716,
      "duration": "87i"
    },
    {
      "time": "23813i",
      "midiNote": 69,
      "noteName": "A4",
      "velocity": 0.6929133858267716,
      "duration": "379i"
    },
    {
      "time": "24193i",
      "midiNote": 69,
      "noteName": "A4",
      "velocity": 0.7322834645669292,
      "duration": "196i"
    },
    {
      "time": "24389i",
      "midiNote": 62,
      "noteName": "D4",
      "velocity": 0.7007874015748031,
      "duration": "190i"
    },
    {
      "time": "24579i",
      "midiNote": 65,
      "noteName": "F4",
      "velocity": 0.7165354330708661,
      "duration": "86i"
    },
    {
      "time": "24673i",
      "midiNote": 67,
      "noteName": "G4",
      "velocity": 0.6929133858267716,
      "duration": "87i"
    },
    {
      "time": "24769i",
      "midiNote": 69,
      "noteName": "A4",
      "velocity": 0.6929133858267716,
      "duration": "386i"
    },
    {
      "time": "25155i",
      "midiNote": 69,
      "noteName": "A4",
      "velocity": 0.7165354330708661,
      "duration": "188i"
    },
    {
      "time": "25345i",
      "midiNote": 62,
      "noteName": "D4",
      "velocity": 0.6929133858267716,
      "duration": "386i"
    },
    {
      "time": "25541i",
      "midiNote": 53,
      "noteName": "F3",
      "velocity": 0.6377952755905512,
      "duration": "190i"
    },
    {
      "time": "25541i",
      "midiNote": 57,
      "noteName": "A3",
      "velocity": 0.7165354330708661,
      "duration": "190i"
    },
    {
      "time": "25731i",
      "midiNote": 53,
      "noteName": "F3",
      "velocity": 0.6535433070866141,
      "duration": "188i"
    },
    {
      "time": "25731i",
      "midiNote": 57,
      "noteName": "A3",
      "velocity": 0.7322834645669292,
      "duration": "188i"
    },
    {
      "time": "26022i",
      "midiNote": 52,
      "noteName": "E3",
      "velocity": 0.6929133858267716,
      "duration": "87i"
    },
    {
      "time": "26117i",
      "midiNote": 55,
      "noteName": "G3",
      "velocity": 0.6299212598425197,
      "duration": "379i"
    },
    {
      "time": "26117i",
      "midiNote": 59,
      "noteName": "B3",
      "velocity": 0.7401574803149606,
      "duration": "379i"
    },
    {
      "time": "26693i",
      "midiNote": 57,
      "noteName": "A3",
      "velocity": 0.4330708661417323,
      "duration": "190i"
    },
    {
      "time": "26693i",
      "midiNote": 60,
      "noteName": "C4",
      "velocity": 0.5433070866141733,
      "duration": "190i"
    },
    {
      "time": "26883i",
      "midiNote": 57,
      "noteName": "A3",
      "velocity": 0.44881889763779526,
      "duration": "188i"
    },
    {
      "time": "26883i",
      "midiNote": 60,
      "noteName": "C4",
      "velocity": 0.5275590551181102,
      "duration": "188i"
    },
    {
      "time": "27174i",
      "midiNote": 52,
      "noteName": "E3",
      "velocity": 0.4881889763779528,
      "duration": "87i"
    },
    {
      "time": "27269i",
      "midiNote": 55,
      "noteName": "G3",
      "velocity": 0.4251968503937008,
      "duration": "379i"
    },
    {
      "time": "27269i",
      "midiNote": 59,
      "noteName": "B3",
      "velocity": 0.5354330708661418,
      "duration": "379i"
    }
  ],
  [
    {
      "time": "2i",
      "midiNote": 38,
      "noteName": "D2",
      "velocity": 0.47244094488188976,
      "duration": "574i"
    },
    {
      "time": "577i",
      "midiNote": 40,
      "noteName": "E2",
      "velocity": 0.48031496062992124,
      "duration": "575i"
    },
    {
      "time": "1153i",
      "midiNote": 41,
      "noteName": "F2",
      "velocity": 0.48031496062992124,
      "duration": "575i"
    },
    {
      "time": "1729i",
      "midiNote": 40,
      "noteName": "E2",
      "velocity": 0.48031496062992124,
      "duration": "575i"
    },
    {
      "time": "2305i",
      "midiNote": 38,
      "noteName": "D2",
      "velocity": 0.47244094488188976,
      "duration": "575i"
    },
    {
      "time": "2881i",
      "midiNote": 40,
      "noteName": "E2",
      "velocity": 0.48031496062992124,
      "duration": "575i"
    },
    {
      "time": "3457i",
      "midiNote": 41,
      "noteName": "F2",
      "velocity": 0.48031496062992124,
      "duration": "575i"
    },
    {
      "time": "4033i",
      "midiNote": 40,
      "noteName": "E2",
      "velocity": 0.48031496062992124,
      "duration": "575i"
    },
    {
      "time": "4609i",
      "midiNote": 38,
      "noteName": "D2",
      "velocity": 0.7086614173228346,
      "duration": "196i"
    },
    {
      "time": "4805i",
      "midiNote": 53,
      "noteName": "F3",
      "velocity": 0.6377952755905512,
      "duration": "190i"
    },
    {
      "time": "4805i",
      "midiNote": 57,
      "noteName": "A3",
      "velocity": 0.7165354330708661,
      "duration": "190i"
    },
    {
      "time": "4995i",
      "midiNote": 53,
      "noteName": "F3",
      "velocity": 0.6535433070866141,
      "duration": "188i"
    },
    {
      "time": "4995i",
      "midiNote": 57,
      "noteName": "A3",
      "velocity": 0.7322834645669292,
      "duration": "188i"
    },
    {
      "time": "5185i",
      "midiNote": 40,
      "noteName": "E2",
      "velocity": 0.7165354330708661,
      "duration": "196i"
    },
    {
      "time": "5381i",
      "midiNote": 55,
      "noteName": "G3",
      "velocity": 0.6299212598425197,
      "duration": "379i"
    },
    {
      "time": "5381i",
      "midiNote": 59,
      "noteName": "B3",
      "velocity": 0.7401574803149606,
      "duration": "379i"
    },
    {
      "time": "5761i",
      "midiNote": 41,
      "noteName": "F2",
      "velocity": 0.7165354330708661,
      "duration": "196i"
    },
    {
      "time": "5952i",
      "midiNote": 60,
      "noteName": "C4",
      "velocity": 0.5039370078740157,
      "duration": "192i"
    },
    {
      "time": "5957i",
      "midiNote": 57,
      "noteName": "A3",
      "velocity": 0.6377952755905512,
      "duration": "190i"
    },
    {
      "time": "6144i",
      "midiNote": 60,
      "noteName": "C4",
      "velocity": 0.5039370078740157,
      "duration": "192i"
    },
    {
      "time": "6147i",
      "midiNote": 57,
      "noteName": "A3",
      "velocity": 0.6535433070866141,
      "duration": "188i"
    },
    {
      "time": "6337i",
      "midiNote": 40,
      "noteName": "E2",
      "velocity": 0.7165354330708661,
      "duration": "196i"
    },
    {
      "time": "6533i",
      "midiNote": 55,
      "noteName": "G3",
      "velocity": 0.6299212598425197,
      "duration": "379i"
    },
    {
      "time": "6533i",
      "midiNote": 59,
      "noteName": "B3",
      "velocity": 0.7401574803149606,
      "duration": "379i"
    },
    {
      "time": "6913i",
      "midiNote": 46,
      "noteName": "A#2",
      "velocity": 0.7244094488188977,
      "duration": "196i"
    },
    {
      "time": "7109i",
      "midiNote": 53,
      "noteName": "F3",
      "velocity": 0.6377952755905512,
      "duration": "190i"
    },
    {
      "time": "7109i",
      "midiNote": 57,
      "noteName": "A3",
      "velocity": 0.7165354330708661,
      "duration": "190i"
    },
    {
      "time": "7299i",
      "midiNote": 53,
      "noteName": "F3",
      "velocity": 0.6535433070866141,
      "duration": "188i"
    },
    {
      "time": "7299i",
      "midiNote": 57,
      "noteName": "A3",
      "velocity": 0.7322834645669292,
      "duration": "188i"
    },
    {
      "time": "7489i",
      "midiNote": 41,
      "noteName": "F2",
      "velocity": 0.7165354330708661,
      "duration": "196i"
    },
    {
      "time": "7685i",
      "midiNote": 53,
      "noteName": "F3",
      "velocity": 0.6299212598425197,
      "duration": "379i"
    },
    {
      "time": "7685i",
      "midiNote": 57,
      "noteName": "A3",
      "velocity": 0.7401574803149606,
      "duration": "379i"
    },
    {
      "time": "8065i",
      "midiNote": 46,
      "noteName": "A#2",
      "velocity": 0.7244094488188977,
      "duration": "196i"
    },
    {
      "time": "8261i",
      "midiNote": 53,
      "noteName": "F3",
      "velocity": 0.6377952755905512,
      "duration": "190i"
    },
    {
      "time": "8261i",
      "midiNote": 57,
      "noteName": "A3",
      "velocity": 0.7165354330708661,
      "duration": "190i"
    },
    {
      "time": "8451i",
      "midiNote": 53,
      "noteName": "F3",
      "velocity": 0.6535433070866141,
      "duration": "188i"
    },
    {
      "time": "8451i",
      "midiNote": 57,
      "noteName": "A3",
      "velocity": 0.7322834645669292,
      "duration": "188i"
    },
    {
      "time": "8641i",
      "midiNote": 45,
      "noteName": "A2",
      "velocity": 0.7244094488188977,
      "duration": "196i"
    },
    {
      "time": "8837i",
      "midiNote": 52,
      "noteName": "E3",
      "velocity": 0.6299212598425197,
      "duration": "379i"
    },
    {
      "time": "8837i",
      "midiNote": 57,
      "noteName": "A3",
      "velocity": 0.7401574803149606,
      "duration": "379i"
    },
    {
      "time": "9217i",
      "midiNote": 38,
      "noteName": "D2",
      "velocity": 0.7086614173228346,
      "duration": "196i"
    },
    {
      "time": "9413i",
      "midiNote": 53,
      "noteName": "F3",
      "velocity": 0.6377952755905512,
      "duration": "190i"
    },
    {
      "time": "9413i",
      "midiNote": 57,
      "noteName": "A3",
      "velocity": 0.7165354330708661,
      "duration": "190i"
    },
    {
      "time": "9603i",
      "midiNote": 53,
      "noteName": "F3",
      "velocity": 0.6535433070866141,
      "duration": "188i"
    },
    {
      "time": "9603i",
      "midiNote": 57,
      "noteName": "A3",
      "velocity": 0.7322834645669292,
      "duration": "188i"
    },
    {
      "time": "9793i",
      "midiNote": 40,
      "noteName": "E2",
      "velocity": 0.7165354330708661,
      "duration": "196i"
    },
    {
      "time": "9989i",
      "midiNote": 55,
      "noteName": "G3",
      "velocity": 0.6299212598425197,
      "duration": "379i"
    },
    {
      "time": "9989i",
      "midiNote": 59,
      "noteName": "B3",
      "velocity": 0.7401574803149606,
      "duration": "379i"
    },
    {
      "time": "10369i",
      "midiNote": 41,
      "noteName": "F2",
      "velocity": 0.7165354330708661,
      "duration": "196i"
    },
    {
      "time": "10560i",
      "midiNote": 60,
      "noteName": "C4",
      "velocity": 0.5039370078740157,
      "duration": "192i"
    },
    {
      "time": "10565i",
      "midiNote": 57,
      "noteName": "A3",
      "velocity": 0.6377952755905512,
      "duration": "190i"
    },
    {
      "time": "10752i",
      "midiNote": 60,
      "noteName": "C4",
      "velocity": 0.5039370078740157,
      "duration": "192i"
    },
    {
      "time": "10755i",
      "midiNote": 57,
      "noteName": "A3",
      "velocity": 0.6535433070866141,
      "duration": "188i"
    },
    {
      "time": "10945i",
      "midiNote": 40,
      "noteName": "E2",
      "velocity": 0.7165354330708661,
      "duration": "196i"
    },
    {
      "time": "11141i",
      "midiNote": 55,
      "noteName": "G3",
      "velocity": 0.6299212598425197,
      "duration": "379i"
    },
    {
      "time": "11141i",
      "midiNote": 59,
      "noteName": "B3",
      "velocity": 0.7401574803149606,
      "duration": "379i"
    },
    {
      "time": "11521i",
      "midiNote": 46,
      "noteName": "A#2",
      "velocity": 0.7244094488188977,
      "duration": "196i"
    },
    {
      "time": "11717i",
      "midiNote": 53,
      "noteName": "F3",
      "velocity": 0.6377952755905512,
      "duration": "190i"
    },
    {
      "time": "11717i",
      "midiNote": 57,
      "noteName": "A3",
      "velocity": 0.7165354330708661,
      "duration": "190i"
    },
    {
      "time": "11907i",
      "midiNote": 53,
      "noteName": "F3",
      "velocity": 0.6535433070866141,
      "duration": "188i"
    },
    {
      "time": "11907i",
      "midiNote": 57,
      "noteName": "A3",
      "velocity": 0.7322834645669292,
      "duration": "188i"
    },
    {
      "time": "12097i",
      "midiNote": 45,
      "noteName": "A2",
      "velocity": 0.7244094488188977,
      "duration": "196i"
    },
    {
      "time": "12293i",
      "midiNote": 52,
      "noteName": "E3",
      "velocity": 0.6299212598425197,
      "duration": "379i"
    },
    {
      "time": "12293i",
      "midiNote": 57,
      "noteName": "A3",
      "velocity": 0.7401574803149606,
      "duration": "379i"
    },
    {
      "time": "12673i",
      "midiNote": 38,
      "noteName": "D2",
      "velocity": 0.47244094488188976,
      "duration": "575i"
    },
    {
      "time": "13250i",
      "midiNote": 40,
      "noteName": "E2",
      "velocity": 0.6850393700787402,
      "duration": "575i"
    },
    {
      "time": "13826i",
      "midiNote": 41,
      "noteName": "F2",
      "velocity": 0.48031496062992124,
      "duration": "575i"
    },
    {
      "time": "14402i",
      "midiNote": 40,
      "noteName": "E2",
      "velocity": 0.48031496062992124,
      "duration": "575i"
    },
    {
      "time": "14978i",
      "midiNote": 38,
      "noteName": "D2",
      "velocity": 0.47244094488188976,
      "duration": "575i"
    },
    {
      "time": "15554i",
      "midiNote": 40,
      "noteName": "E2",
      "velocity": 0.48031496062992124,
      "duration": "575i"
    },
    {
      "time": "16130i",
      "midiNote": 41,
      "noteName": "F2",
      "velocity": 0.48031496062992124,
      "duration": "575i"
    },
    {
      "time": "16706i",
      "midiNote": 40,
      "noteName": "E2",
      "velocity": 0.48031496062992124,
      "duration": "575i"
    },
    {
      "time": "17282i",
      "midiNote": 38,
      "noteName": "D2",
      "velocity": 0.7086614173228346,
      "duration": "196i"
    },
    {
      "time": "17478i",
      "midiNote": 53,
      "noteName": "F3",
      "velocity": 0.6377952755905512,
      "duration": "190i"
    },
    {
      "time": "17478i",
      "midiNote": 57,
      "noteName": "A3",
      "velocity": 0.7165354330708661,
      "duration": "190i"
    },
    {
      "time": "17668i",
      "midiNote": 53,
      "noteName": "F3",
      "velocity": 0.6535433070866141,
      "duration": "188i"
    },
    {
      "time": "17668i",
      "midiNote": 57,
      "noteName": "A3",
      "velocity": 0.7322834645669292,
      "duration": "188i"
    },
    {
      "time": "17858i",
      "midiNote": 40,
      "noteName": "E2",
      "velocity": 0.7165354330708661,
      "duration": "196i"
    },
    {
      "time": "18054i",
      "midiNote": 55,
      "noteName": "G3",
      "velocity": 0.6299212598425197,
      "duration": "379i"
    },
    {
      "time": "18054i",
      "midiNote": 59,
      "noteName": "B3",
      "velocity": 0.7401574803149606,
      "duration": "379i"
    },
    {
      "time": "18434i",
      "midiNote": 41,
      "noteName": "F2",
      "velocity": 0.7165354330708661,
      "duration": "196i"
    },
    {
      "time": "18625i",
      "midiNote": 60,
      "noteName": "C4",
      "velocity": 0.5039370078740157,
      "duration": "192i"
    },
    {
      "time": "18630i",
      "midiNote": 57,
      "noteName": "A3",
      "velocity": 0.6377952755905512,
      "duration": "190i"
    },
    {
      "time": "18817i",
      "midiNote": 60,
      "noteName": "C4",
      "velocity": 0.5039370078740157,
      "duration": "192i"
    },
    {
      "time": "18820i",
      "midiNote": 57,
      "noteName": "A3",
      "velocity": 0.6535433070866141,
      "duration": "188i"
    },
    {
      "time": "19010i",
      "midiNote": 40,
      "noteName": "E2",
      "velocity": 0.7165354330708661,
      "duration": "196i"
    },
    {
      "time": "19206i",
      "midiNote": 55,
      "noteName": "G3",
      "velocity": 0.6299212598425197,
      "duration": "379i"
    },
    {
      "time": "19206i",
      "midiNote": 59,
      "noteName": "B3",
      "velocity": 0.7401574803149606,
      "duration": "379i"
    },
    {
      "time": "19586i",
      "midiNote": 46,
      "noteName": "A#2",
      "velocity": 0.7244094488188977,
      "duration": "196i"
    },
    {
      "time": "19782i",
      "midiNote": 53,
      "noteName": "F3",
      "velocity": 0.6377952755905512,
      "duration": "190i"
    },
    {
      "time": "19782i",
      "midiNote": 57,
      "noteName": "A3",
      "velocity": 0.7165354330708661,
      "duration": "190i"
    },
    {
      "time": "19972i",
      "midiNote": 53,
      "noteName": "F3",
      "velocity": 0.6535433070866141,
      "duration": "188i"
    },
    {
      "time": "19972i",
      "midiNote": 57,
      "noteName": "A3",
      "velocity": 0.7322834645669292,
      "duration": "188i"
    },
    {
      "time": "20162i",
      "midiNote": 41,
      "noteName": "F2",
      "velocity": 0.7165354330708661,
      "duration": "196i"
    },
    {
      "time": "20358i",
      "midiNote": 53,
      "noteName": "F3",
      "velocity": 0.6299212598425197,
      "duration": "379i"
    },
    {
      "time": "20358i",
      "midiNote": 57,
      "noteName": "A3",
      "velocity": 0.7401574803149606,
      "duration": "379i"
    },
    {
      "time": "20738i",
      "midiNote": 46,
      "noteName": "A#2",
      "velocity": 0.7244094488188977,
      "duration": "196i"
    },
    {
      "time": "20934i",
      "midiNote": 53,
      "noteName": "F3",
      "velocity": 0.6377952755905512,
      "duration": "190i"
    },
    {
      "time": "20934i",
      "midiNote": 57,
      "noteName": "A3",
      "velocity": 0.7165354330708661,
      "duration": "190i"
    },
    {
      "time": "21124i",
      "midiNote": 53,
      "noteName": "F3",
      "velocity": 0.6535433070866141,
      "duration": "188i"
    },
    {
      "time": "21124i",
      "midiNote": 57,
      "noteName": "A3",
      "velocity": 0.7322834645669292,
      "duration": "188i"
    },
    {
      "time": "21314i",
      "midiNote": 45,
      "noteName": "A2",
      "velocity": 0.7244094488188977,
      "duration": "196i"
    },
    {
      "time": "21510i",
      "midiNote": 52,
      "noteName": "E3",
      "velocity": 0.6299212598425197,
      "duration": "379i"
    },
    {
      "time": "21510i",
      "midiNote": 57,
      "noteName": "A3",
      "velocity": 0.7401574803149606,
      "duration": "379i"
    },
    {
      "time": "21890i",
      "midiNote": 38,
      "noteName": "D2",
      "velocity": 0.7086614173228346,
      "duration": "196i"
    },
    {
      "time": "22086i",
      "midiNote": 53,
      "noteName": "F3",
      "velocity": 0.6377952755905512,
      "duration": "190i"
    },
    {
      "time": "22086i",
      "midiNote": 57,
      "noteName": "A3",
      "velocity": 0.7165354330708661,
      "duration": "190i"
    },
    {
      "time": "22276i",
      "midiNote": 53,
      "noteName": "F3",
      "velocity": 0.6535433070866141,
      "duration": "188i"
    },
    {
      "time": "22276i",
      "midiNote": 57,
      "noteName": "A3",
      "velocity": 0.7322834645669292,
      "duration": "188i"
    },
    {
      "time": "22466i",
      "midiNote": 40,
      "noteName": "E2",
      "velocity": 0.7165354330708661,
      "duration": "196i"
    },
    {
      "time": "22662i",
      "midiNote": 55,
      "noteName": "G3",
      "velocity": 0.6299212598425197,
      "duration": "379i"
    },
    {
      "time": "22662i",
      "midiNote": 59,
      "noteName": "B3",
      "velocity": 0.7401574803149606,
      "duration": "379i"
    },
    {
      "time": "23042i",
      "midiNote": 41,
      "noteName": "F2",
      "velocity": 0.7165354330708661,
      "duration": "196i"
    },
    {
      "time": "23233i",
      "midiNote": 60,
      "noteName": "C4",
      "velocity": 0.5039370078740157,
      "duration": "192i"
    },
    {
      "time": "23238i",
      "midiNote": 57,
      "noteName": "A3",
      "velocity": 0.6377952755905512,
      "duration": "190i"
    },
    {
      "time": "23425i",
      "midiNote": 60,
      "noteName": "C4",
      "velocity": 0.5039370078740157,
      "duration": "192i"
    },
    {
      "time": "23428i",
      "midiNote": 57,
      "noteName": "A3",
      "velocity": 0.6535433070866141,
      "duration": "188i"
    },
    {
      "time": "23618i",
      "midiNote": 40,
      "noteName": "E2",
      "velocity": 0.7165354330708661,
      "duration": "196i"
    },
    {
      "time": "23814i",
      "midiNote": 55,
      "noteName": "G3",
      "velocity": 0.6299212598425197,
      "duration": "379i"
    },
    {
      "time": "23814i",
      "midiNote": 59,
      "noteName": "B3",
      "velocity": 0.7401574803149606,
      "duration": "379i"
    },
    {
      "time": "24194i",
      "midiNote": 46,
      "noteName": "A#2",
      "velocity": 0.7244094488188977,
      "duration": "196i"
    },
    {
      "time": "24390i",
      "midiNote": 53,
      "noteName": "F3",
      "velocity": 0.6377952755905512,
      "duration": "190i"
    },
    {
      "time": "24390i",
      "midiNote": 57,
      "noteName": "A3",
      "velocity": 0.7165354330708661,
      "duration": "190i"
    },
    {
      "time": "24580i",
      "midiNote": 53,
      "noteName": "F3",
      "velocity": 0.6535433070866141,
      "duration": "0i"
    },
    {
      "ticks": 131094,
      "time": 131094,
      "note": 57,
      "midiNote": 57,
      "noteName": "A3",
      "velocity": 0.7322834645669292
    },
    {
      "time": "24769i",
      "midiNote": 45,
      "noteName": "A2",
      "velocity": 0.7244094488188977,
      "duration": "196i"
    },
    {
      "time": "24965i",
      "midiNote": 52,
      "noteName": "E3",
      "velocity": 0.6299212598425197,
      "duration": "379i"
    },
    {
      "time": "24965i",
      "midiNote": 57,
      "noteName": "A3",
      "velocity": 0.7401574803149606,
      "duration": "379i"
    },
    {
      "time": "25346i",
      "midiNote": 38,
      "noteName": "D2",
      "velocity": 0.47244094488188976,
      "duration": "575i"
    },
    {
      "time": "25924i",
      "midiNote": 40,
      "noteName": "E2",
      "velocity": 0.6850393700787402,
      "duration": "575i"
    },
    {
      "time": "26501i",
      "midiNote": 41,
      "noteName": "F2",
      "velocity": 0.48031496062992124,
      "duration": "575i"
    },
    {
      "time": "27077i",
      "midiNote": 40,
      "noteName": "E2",
      "velocity": 0.48031496062992124,
      "duration": "575i"
    }
  ]
]

buildTrack = parseMidi(parts: parts, transport: transport)
