require('v1/midi')

transport = {
  "timeSignature": [
    4,
    4
  ],
  "bpm": 420
}

parts = [
  [
    {
      "time": "768i",
      "midiNote": 41,
      "noteName": "F2",
      "velocity": 0.4094488188976378,
      "duration": "1284i"
    },
    {
      "time": "818i",
      "midiNote": 48,
      "noteName": "C3",
      "velocity": 0.3779527559055118,
      "duration": "1194i"
    },
    {
      "time": "872i",
      "midiNote": 53,
      "noteName": "F3",
      "velocity": 0.33858267716535434,
      "duration": "1052i"
    },
    {
      "time": "918i",
      "midiNote": 57,
      "noteName": "A3",
      "velocity": 0.4094488188976378,
      "duration": "1032i"
    },
    {
      "time": "960i",
      "midiNote": 62,
      "noteName": "D4",
      "velocity": 0.41732283464566927,
      "duration": "68i"
    },
    {
      "time": "1002i",
      "midiNote": 64,
      "noteName": "E4",
      "velocity": 0.4251968503937008,
      "duration": "1018i"
    },
    {
      "time": "1334i",
      "midiNote": 65,
      "noteName": "F4",
      "velocity": 0.3779527559055118,
      "duration": "1452i"
    },
    {
      "time": "1346i",
      "midiNote": 69,
      "noteName": "A4",
      "velocity": 0.44881889763779526,
      "duration": "1450i"
    },
    {
      "time": "2738i",
      "midiNote": 36,
      "noteName": "C2",
      "velocity": 0.4015748031496063,
      "duration": "1472i"
    },
    {
      "time": "2826i",
      "midiNote": 43,
      "noteName": "G2",
      "velocity": 0.3858267716535433,
      "duration": "1386i"
    },
    {
      "time": "2896i",
      "midiNote": 52,
      "noteName": "E3",
      "velocity": 0.33070866141732286,
      "duration": "1128i"
    },
    {
      "time": "2946i",
      "midiNote": 59,
      "noteName": "B3",
      "velocity": 0.4015748031496063,
      "duration": "1264i"
    },
    {
      "time": "2990i",
      "midiNote": 62,
      "noteName": "D4",
      "velocity": 0.4094488188976378,
      "duration": "70i"
    },
    {
      "time": "3038i",
      "midiNote": 64,
      "noteName": "E4",
      "velocity": 0.44881889763779526,
      "duration": "1230i"
    },
    {
      "time": "3182i",
      "midiNote": 71,
      "noteName": "B4",
      "velocity": 0.4330708661417323,
      "duration": "1372i"
    },
    {
      "time": "3182i",
      "midiNote": 67,
      "noteName": "G4",
      "velocity": 0.4409448818897638,
      "duration": "1386i"
    },
    {
      "time": "4616i",
      "midiNote": 41,
      "noteName": "F2",
      "velocity": 0.3464566929133858,
      "duration": "1070i"
    },
    {
      "time": "4792i",
      "midiNote": 65,
      "noteName": "F4",
      "velocity": 0.2755905511811024,
      "duration": "1428i"
    },
    {
      "time": "4796i",
      "midiNote": 48,
      "noteName": "C3",
      "velocity": 0.3464566929133858,
      "duration": "836i"
    },
    {
      "time": "4802i",
      "midiNote": 69,
      "noteName": "A4",
      "velocity": 0.3700787401574803,
      "duration": "1402i"
    },
    {
      "time": "4980i",
      "midiNote": 53,
      "noteName": "F3",
      "velocity": 0.36220472440944884,
      "duration": "600i"
    },
    {
      "time": "5096i",
      "midiNote": 57,
      "noteName": "A3",
      "velocity": 0.44881889763779526,
      "duration": "1006i"
    },
    {
      "time": "5220i",
      "midiNote": 62,
      "noteName": "D4",
      "velocity": 0.33858267716535434,
      "duration": "136i"
    },
    {
      "time": "5350i",
      "midiNote": 64,
      "noteName": "E4",
      "velocity": 0.3858267716535433,
      "duration": "762i"
    },
    {
      "time": "6198i",
      "midiNote": 36,
      "noteName": "C2",
      "velocity": 0.4015748031496063,
      "duration": "990i"
    },
    {
      "time": "6326i",
      "midiNote": 71,
      "noteName": "B4",
      "velocity": 0.3700787401574803,
      "duration": "1228i"
    },
    {
      "time": "6328i",
      "midiNote": 67,
      "noteName": "G4",
      "velocity": 0.3700787401574803,
      "duration": "1234i"
    },
    {
      "time": "6386i",
      "midiNote": 43,
      "noteName": "G2",
      "velocity": 0.33858267716535434,
      "duration": "786i"
    },
    {
      "time": "6570i",
      "midiNote": 52,
      "noteName": "E3",
      "velocity": 0.3779527559055118,
      "duration": "458i"
    },
    {
      "time": "6688i",
      "midiNote": 59,
      "noteName": "B3",
      "velocity": 0.36220472440944884,
      "duration": "392i"
    },
    {
      "time": "6814i",
      "midiNote": 62,
      "noteName": "D4",
      "velocity": 0.33858267716535434,
      "duration": "98i"
    },
    {
      "time": "6934i",
      "midiNote": 64,
      "noteName": "E4",
      "velocity": 0.3858267716535433,
      "duration": "190i"
    },
    {
      "time": "7326i",
      "midiNote": 74,
      "noteName": "D5",
      "velocity": 0.4015748031496063,
      "duration": "194i"
    },
    {
      "time": "7524i",
      "midiNote": 76,
      "noteName": "E5",
      "velocity": 0.4645669291338583,
      "duration": "166i"
    },
    {
      "time": "7704i",
      "midiNote": 65,
      "noteName": "F4",
      "velocity": 0.3700787401574803,
      "duration": "1498i"
    },
    {
      "time": "7708i",
      "midiNote": 41,
      "noteName": "F2",
      "velocity": 0.3858267716535433,
      "duration": "1058i"
    },
    {
      "time": "7716i",
      "midiNote": 69,
      "noteName": "A4",
      "velocity": 0.4409448818897638,
      "duration": "1466i"
    },
    {
      "time": "7726i",
      "midiNote": 86,
      "noteName": "D6",
      "velocity": 0.5196850393700787,
      "duration": "602i"
    },
    {
      "time": "7890i",
      "midiNote": 48,
      "noteName": "C3",
      "velocity": 0.3858267716535433,
      "duration": "854i"
    },
    {
      "time": "8068i",
      "midiNote": 53,
      "noteName": "F3",
      "velocity": 0.3858267716535433,
      "duration": "486i"
    },
    {
      "time": "8198i",
      "midiNote": 57,
      "noteName": "A3",
      "velocity": 0.4881889763779528,
      "duration": "134i"
    },
    {
      "time": "8310i",
      "midiNote": 85,
      "noteName": "C#6",
      "velocity": 0.41732283464566927,
      "duration": "54i"
    },
    {
      "time": "8322i",
      "midiNote": 62,
      "noteName": "D4",
      "velocity": 0.4330708661417323,
      "duration": "136i"
    },
    {
      "time": "8346i",
      "midiNote": 84,
      "noteName": "C6",
      "velocity": 0.5196850393700787,
      "duration": "68i"
    },
    {
      "time": "8396i",
      "midiNote": 83,
      "noteName": "B5",
      "velocity": 0.5118110236220472,
      "duration": "1282i"
    },
    {
      "time": "8448i",
      "midiNote": 64,
      "noteName": "E4",
      "velocity": 0.4645669291338583,
      "duration": "624i"
    },
    {
      "time": "9194i",
      "midiNote": 36,
      "noteName": "C2",
      "velocity": 0.4015748031496063,
      "duration": "1044i"
    },
    {
      "time": "9208i",
      "midiNote": 71,
      "noteName": "B4",
      "velocity": 0.31496062992125984,
      "duration": "1432i"
    },
    {
      "time": "9212i",
      "midiNote": 67,
      "noteName": "G4",
      "velocity": 0.33858267716535434,
      "duration": "1428i"
    },
    {
      "time": "9394i",
      "midiNote": 43,
      "noteName": "G2",
      "velocity": 0.36220472440944884,
      "duration": "844i"
    },
    {
      "time": "9554i",
      "midiNote": 52,
      "noteName": "E3",
      "velocity": 0.3858267716535433,
      "duration": "112i"
    },
    {
      "time": "9678i",
      "midiNote": 81,
      "noteName": "A5",
      "velocity": 0.4566929133858268,
      "duration": "124i"
    },
    {
      "time": "9678i",
      "midiNote": 59,
      "noteName": "B3",
      "velocity": 0.3464566929133858,
      "duration": "134i"
    },
    {
      "time": "9802i",
      "midiNote": 62,
      "noteName": "D4",
      "velocity": 0.4015748031496063,
      "duration": "134i"
    },
    {
      "time": "9806i",
      "midiNote": 79,
      "noteName": "G5",
      "velocity": 0.4409448818897638,
      "duration": "360i"
    },
    {
      "time": "9926i",
      "midiNote": 64,
      "noteName": "E4",
      "velocity": 0.4409448818897638,
      "duration": "724i"
    },
    {
      "time": "10296i",
      "midiNote": 74,
      "noteName": "D5",
      "velocity": 0.4881889763779528,
      "duration": "172i"
    },
    {
      "time": "10474i",
      "midiNote": 76,
      "noteName": "E5",
      "velocity": 0.4881889763779528,
      "duration": "186i"
    },
    {
      "time": "10638i",
      "midiNote": 41,
      "noteName": "F2",
      "velocity": 0.3858267716535433,
      "duration": "1156i"
    },
    {
      "time": "10646i",
      "midiNote": 65,
      "noteName": "F4",
      "velocity": 0.33858267716535434,
      "duration": "1584i"
    },
    {
      "time": "10648i",
      "midiNote": 69,
      "noteName": "A4",
      "velocity": 0.3543307086614173,
      "duration": "1562i"
    },
    {
      "time": "10676i",
      "midiNote": 86,
      "noteName": "D6",
      "velocity": 0.33858267716535434,
      "duration": "694i"
    },
    {
      "time": "10838i",
      "midiNote": 48,
      "noteName": "C3",
      "velocity": 0.3779527559055118,
      "duration": "938i"
    },
    {
      "time": "11020i",
      "midiNote": 53,
      "noteName": "F3",
      "velocity": 0.36220472440944884,
      "duration": "540i"
    },
    {
      "time": "11150i",
      "midiNote": 57,
      "noteName": "A3",
      "velocity": 0.4094488188976378,
      "duration": "130i"
    },
    {
      "time": "11268i",
      "midiNote": 62,
      "noteName": "D4",
      "velocity": 0.3937007874015748,
      "duration": "148i"
    },
    {
      "time": "11366i",
      "midiNote": 85,
      "noteName": "C#6",
      "velocity": 0.44881889763779526,
      "duration": "90i"
    },
    {
      "time": "11406i",
      "midiNote": 64,
      "noteName": "E4",
      "velocity": 0.4330708661417323,
      "duration": "726i"
    },
    {
      "time": "11412i",
      "midiNote": 84,
      "noteName": "C6",
      "velocity": 0.44881889763779526,
      "duration": "50i"
    },
    {
      "time": "11450i",
      "midiNote": 83,
      "noteName": "B5",
      "velocity": 0.5590551181102362,
      "duration": "616i"
    },
    {
      "time": "12064i",
      "midiNote": 84,
      "noteName": "C6",
      "velocity": 0.4881889763779528,
      "duration": "180i"
    },
    {
      "time": "12210i",
      "midiNote": 36,
      "noteName": "C2",
      "velocity": 0.4015748031496063,
      "duration": "998i"
    },
    {
      "time": "12228i",
      "midiNote": 83,
      "noteName": "B5",
      "velocity": 0.5354330708661418,
      "duration": "1026i"
    },
    {
      "time": "12228i",
      "midiNote": 67,
      "noteName": "G4",
      "velocity": 0.3700787401574803,
      "duration": "1464i"
    },
    {
      "time": "12230i",
      "midiNote": 71,
      "noteName": "B4",
      "velocity": 0.3543307086614173,
      "duration": "1452i"
    },
    {
      "time": "12418i",
      "midiNote": 43,
      "noteName": "G2",
      "velocity": 0.33858267716535434,
      "duration": "798i"
    },
    {
      "time": "12580i",
      "midiNote": 52,
      "noteName": "E3",
      "velocity": 0.36220472440944884,
      "duration": "106i"
    },
    {
      "time": "12714i",
      "midiNote": 59,
      "noteName": "B3",
      "velocity": 0.3779527559055118,
      "duration": "132i"
    },
    {
      "time": "12834i",
      "midiNote": 62,
      "noteName": "D4",
      "velocity": 0.44881889763779526,
      "duration": "148i"
    },
    {
      "time": "12966i",
      "midiNote": 64,
      "noteName": "E4",
      "velocity": 0.4645669291338583,
      "duration": "752i"
    },
    {
      "time": "13362i",
      "midiNote": 74,
      "noteName": "D5",
      "velocity": 0.49606299212598426,
      "duration": "186i"
    },
    {
      "time": "13544i",
      "midiNote": 76,
      "noteName": "E5",
      "velocity": 0.4566929133858268,
      "duration": "170i"
    },
    {
      "time": "13706i",
      "midiNote": 69,
      "noteName": "A4",
      "velocity": 0.33070866141732286,
      "duration": "1428i"
    },
    {
      "time": "13712i",
      "midiNote": 65,
      "noteName": "F4",
      "velocity": 0.2755905511811024,
      "duration": "1428i"
    },
    {
      "time": "13720i",
      "midiNote": 41,
      "noteName": "F2",
      "velocity": 0.3543307086614173,
      "duration": "1070i"
    },
    {
      "time": "13734i",
      "midiNote": 86,
      "noteName": "D6",
      "velocity": 0.5354330708661418,
      "duration": "710i"
    },
    {
      "time": "13908i",
      "midiNote": 48,
      "noteName": "C3",
      "velocity": 0.3779527559055118,
      "duration": "850i"
    },
    {
      "time": "14090i",
      "midiNote": 53,
      "noteName": "F3",
      "velocity": 0.36220472440944884,
      "duration": "392i"
    },
    {
      "time": "14212i",
      "midiNote": 57,
      "noteName": "A3",
      "velocity": 0.44881889763779526,
      "duration": "134i"
    },
    {
      "time": "14334i",
      "midiNote": 62,
      "noteName": "D4",
      "velocity": 0.4330708661417323,
      "duration": "136i"
    },
    {
      "time": "14440i",
      "midiNote": 85,
      "noteName": "C#6",
      "velocity": 0.4645669291338583,
      "duration": "64i"
    },
    {
      "time": "14462i",
      "midiNote": 64,
      "noteName": "E4",
      "velocity": 0.4251968503937008,
      "duration": "748i"
    },
    {
      "time": "14470i",
      "midiNote": 84,
      "noteName": "C6",
      "velocity": 0.5511811023622047,
      "duration": "66i"
    },
    {
      "time": "14516i",
      "midiNote": 83,
      "noteName": "B5",
      "velocity": 0.5354330708661418,
      "duration": "1264i"
    },
    {
      "time": "15248i",
      "midiNote": 67,
      "noteName": "G4",
      "velocity": 0.3543307086614173,
      "duration": "1198i"
    },
    {
      "time": "15262i",
      "midiNote": 71,
      "noteName": "B4",
      "velocity": 0.36220472440944884,
      "duration": "1194i"
    },
    {
      "time": "15272i",
      "midiNote": 36,
      "noteName": "C2",
      "velocity": 0.4015748031496063,
      "duration": "1006i"
    },
    {
      "time": "15458i",
      "midiNote": 43,
      "noteName": "G2",
      "velocity": 0.3464566929133858,
      "duration": "812i"
    },
    {
      "time": "15646i",
      "midiNote": 52,
      "noteName": "E3",
      "velocity": 0.33858267716535434,
      "duration": "88i"
    },
    {
      "time": "15764i",
      "midiNote": 59,
      "noteName": "B3",
      "velocity": 0.3858267716535433,
      "duration": "132i"
    },
    {
      "time": "15768i",
      "midiNote": 81,
      "noteName": "A5",
      "velocity": 0.49606299212598426,
      "duration": "140i"
    },
    {
      "time": "15890i",
      "midiNote": 62,
      "noteName": "D4",
      "velocity": 0.4094488188976378,
      "duration": "152i"
    },
    {
      "time": "15914i",
      "midiNote": 79,
      "noteName": "G5",
      "velocity": 0.5039370078740157,
      "duration": "396i"
    },
    {
      "time": "16026i",
      "midiNote": 64,
      "noteName": "E4",
      "velocity": 0.4330708661417323,
      "duration": "796i"
    },
    {
      "time": "16436i",
      "midiNote": 74,
      "noteName": "D5",
      "velocity": 0.5118110236220472,
      "duration": "200i"
    },
    {
      "time": "16622i",
      "midiNote": 76,
      "noteName": "E5",
      "velocity": 0.5039370078740157,
      "duration": "170i"
    },
    {
      "time": "16786i",
      "midiNote": 69,
      "noteName": "A4",
      "velocity": 0.36220472440944884,
      "duration": "1432i"
    },
    {
      "time": "16790i",
      "midiNote": 65,
      "noteName": "F4",
      "velocity": 0.33858267716535434,
      "duration": "1426i"
    },
    {
      "time": "16796i",
      "midiNote": 41,
      "noteName": "F2",
      "velocity": 0.3700787401574803,
      "duration": "1084i"
    },
    {
      "time": "16810i",
      "midiNote": 86,
      "noteName": "D6",
      "velocity": 0.4409448818897638,
      "duration": "696i"
    },
    {
      "time": "16974i",
      "midiNote": 48,
      "noteName": "C3",
      "velocity": 0.3543307086614173,
      "duration": "870i"
    },
    {
      "time": "17158i",
      "midiNote": 53,
      "noteName": "F3",
      "velocity": 0.33070866141732286,
      "duration": "360i"
    },
    {
      "time": "17280i",
      "midiNote": 57,
      "noteName": "A3",
      "velocity": 0.4094488188976378,
      "duration": "128i"
    },
    {
      "time": "17402i",
      "midiNote": 62,
      "noteName": "D4",
      "velocity": 0.3937007874015748,
      "duration": "140i"
    },
    {
      "time": "17506i",
      "midiNote": 85,
      "noteName": "C#6",
      "velocity": 0.4330708661417323,
      "duration": "68i"
    },
    {
      "time": "17536i",
      "midiNote": 64,
      "noteName": "E4",
      "velocity": 0.3858267716535433,
      "duration": "776i"
    },
    {
      "time": "17548i",
      "midiNote": 84,
      "noteName": "C6",
      "velocity": 0.5196850393700787,
      "duration": "60i"
    },
    {
      "time": "17590i",
      "midiNote": 83,
      "noteName": "B5",
      "velocity": 0.5354330708661418,
      "duration": "618i"
    },
    {
      "time": "18196i",
      "midiNote": 88,
      "noteName": "E6",
      "velocity": 0.5196850393700787,
      "duration": "176i"
    },
    {
      "time": "18322i",
      "midiNote": 36,
      "noteName": "C2",
      "velocity": 0.3858267716535433,
      "duration": "1076i"
    },
    {
      "time": "18348i",
      "midiNote": 67,
      "noteName": "G4",
      "velocity": 0.3700787401574803,
      "duration": "1342i"
    },
    {
      "time": "18360i",
      "midiNote": 71,
      "noteName": "B4",
      "velocity": 0.3937007874015748,
      "duration": "1326i"
    },
    {
      "time": "18364i",
      "midiNote": 83,
      "noteName": "B5",
      "velocity": 0.4881889763779528,
      "duration": "1208i"
    },
    {
      "time": "18532i",
      "midiNote": 43,
      "noteName": "G2",
      "velocity": 0.30708661417322836,
      "duration": "824i"
    },
    {
      "time": "18706i",
      "midiNote": 52,
      "noteName": "E3",
      "velocity": 0.36220472440944884,
      "duration": "112i"
    },
    {
      "time": "18830i",
      "midiNote": 59,
      "noteName": "B3",
      "velocity": 0.36220472440944884,
      "duration": "122i"
    },
    {
      "time": "18952i",
      "midiNote": 62,
      "noteName": "D4",
      "velocity": 0.3700787401574803,
      "duration": "140i"
    },
    {
      "time": "19088i",
      "midiNote": 64,
      "noteName": "E4",
      "velocity": 0.3464566929133858,
      "duration": "228i"
    },
    {
      "time": "19856i",
      "midiNote": 65,
      "noteName": "F4",
      "velocity": 0.30708661417322836,
      "duration": "1522i"
    },
    {
      "time": "19862i",
      "midiNote": 69,
      "noteName": "A4",
      "velocity": 0.36220472440944884,
      "duration": "1432i"
    },
    {
      "time": "19880i",
      "midiNote": 81,
      "noteName": "A5",
      "velocity": 0.4251968503937008,
      "duration": "396i"
    },
    {
      "time": "19894i",
      "midiNote": 41,
      "noteName": "F2",
      "velocity": 0.41732283464566927,
      "duration": "234i"
    },
    {
      "time": "20068i",
      "midiNote": 48,
      "noteName": "C3",
      "velocity": 0.48031496062992124,
      "duration": "212i"
    },
    {
      "time": "20252i",
      "midiNote": 53,
      "noteName": "F3",
      "velocity": 0.49606299212598426,
      "duration": "1074i"
    },
    {
      "time": "20270i",
      "midiNote": 76,
      "noteName": "E5",
      "velocity": 0.4094488188976378,
      "duration": "1104i"
    },
    {
      "time": "21328i",
      "midiNote": 43,
      "noteName": "G2",
      "velocity": 0.48031496062992124,
      "duration": "176i"
    },
    {
      "time": "21342i",
      "midiNote": 67,
      "noteName": "G4",
      "velocity": 0.33858267716535434,
      "duration": "1428i"
    },
    {
      "time": "21344i",
      "midiNote": 74,
      "noteName": "D5",
      "velocity": 0.3700787401574803,
      "duration": "348i"
    },
    {
      "time": "21350i",
      "midiNote": 71,
      "noteName": "B4",
      "velocity": 0.33858267716535434,
      "duration": "1332i"
    },
    {
      "time": "21498i",
      "midiNote": 50,
      "noteName": "D3",
      "velocity": 0.5354330708661418,
      "duration": "184i"
    },
    {
      "time": "21662i",
      "midiNote": 55,
      "noteName": "G3",
      "velocity": 0.49606299212598426,
      "duration": "1102i"
    },
    {
      "time": "21670i",
      "midiNote": 79,
      "noteName": "G5",
      "velocity": 0.4330708661417323,
      "duration": "1192i"
    },
    {
      "time": "22730i",
      "midiNote": 65,
      "noteName": "F4",
      "velocity": 0.4094488188976378,
      "duration": "1490i"
    },
    {
      "time": "22746i",
      "midiNote": 69,
      "noteName": "A4",
      "velocity": 0.3464566929133858,
      "duration": "1470i"
    },
    {
      "time": "22774i",
      "midiNote": 41,
      "noteName": "F2",
      "velocity": 0.4645669291338583,
      "duration": "162i"
    },
    {
      "time": "22836i",
      "midiNote": 81,
      "noteName": "A5",
      "velocity": 0.5118110236220472,
      "duration": "300i"
    },
    {
      "time": "22936i",
      "midiNote": 48,
      "noteName": "C3",
      "velocity": 0.48031496062992124,
      "duration": "194i"
    },
    {
      "time": "23100i",
      "midiNote": 53,
      "noteName": "F3",
      "velocity": 0.4566929133858268,
      "duration": "1074i"
    },
    {
      "time": "23130i",
      "midiNote": 76,
      "noteName": "E5",
      "velocity": 0.4251968503937008,
      "duration": "1072i"
    },
    {
      "time": "24164i",
      "midiNote": 43,
      "noteName": "G2",
      "velocity": 0.48031496062992124,
      "duration": "168i"
    },
    {
      "time": "24174i",
      "midiNote": 83,
      "noteName": "B5",
      "velocity": 0.4330708661417323,
      "duration": "360i"
    },
    {
      "time": "24222i",
      "midiNote": 67,
      "noteName": "G4",
      "velocity": 0.36220472440944884,
      "duration": "1100i"
    },
    {
      "time": "24224i",
      "midiNote": 71,
      "noteName": "B4",
      "velocity": 0.3543307086614173,
      "duration": "1086i"
    },
    {
      "time": "24332i",
      "midiNote": 50,
      "noteName": "D3",
      "velocity": 0.5118110236220472,
      "duration": "198i"
    },
    {
      "time": "24504i",
      "midiNote": 55,
      "noteName": "G3",
      "velocity": 0.49606299212598426,
      "duration": "1032i"
    },
    {
      "time": "24514i",
      "midiNote": 79,
      "noteName": "G5",
      "velocity": 0.4251968503937008,
      "duration": "1148i"
    },
    {
      "time": "25512i",
      "midiNote": 69,
      "noteName": "A4",
      "velocity": 0.33858267716535434,
      "duration": "1360i"
    },
    {
      "time": "25522i",
      "midiNote": 65,
      "noteName": "F4",
      "velocity": 0.3464566929133858,
      "duration": "1374i"
    },
    {
      "time": "25582i",
      "midiNote": 41,
      "noteName": "F2",
      "velocity": 0.4015748031496063,
      "duration": "150i"
    },
    {
      "time": "25642i",
      "midiNote": 81,
      "noteName": "A5",
      "velocity": 0.48031496062992124,
      "duration": "304i"
    },
    {
      "time": "25726i",
      "midiNote": 48,
      "noteName": "C3",
      "velocity": 0.5118110236220472,
      "duration": "192i"
    },
    {
      "time": "25892i",
      "midiNote": 53,
      "noteName": "F3",
      "velocity": 0.4566929133858268,
      "duration": "1070i"
    },
    {
      "time": "25934i",
      "midiNote": 76,
      "noteName": "E5",
      "velocity": 0.4881889763779528,
      "duration": "1050i"
    },
    {
      "time": "26964i",
      "midiNote": 43,
      "noteName": "G2",
      "velocity": 0.49606299212598426,
      "duration": "168i"
    },
    {
      "time": "26966i",
      "midiNote": 74,
      "noteName": "D5",
      "velocity": 0.4330708661417323,
      "duration": "366i"
    },
    {
      "time": "26998i",
      "midiNote": 67,
      "noteName": "G4",
      "velocity": 0.36220472440944884,
      "duration": "1248i"
    },
    {
      "time": "27006i",
      "midiNote": 71,
      "noteName": "B4",
      "velocity": 0.4015748031496063,
      "duration": "1218i"
    },
    {
      "time": "27126i",
      "midiNote": 50,
      "noteName": "D3",
      "velocity": 0.5118110236220472,
      "duration": "190i"
    },
    {
      "time": "27284i",
      "midiNote": 55,
      "noteName": "G3",
      "velocity": 0.47244094488188976,
      "duration": "1076i"
    },
    {
      "time": "27304i",
      "midiNote": 79,
      "noteName": "G5",
      "velocity": 0.4409448818897638,
      "duration": "1036i"
    },
    {
      "time": "28322i",
      "midiNote": 84,
      "noteName": "C6",
      "velocity": 0.5196850393700787,
      "duration": "384i"
    },
    {
      "time": "28342i",
      "midiNote": 68,
      "noteName": "G#4",
      "velocity": 0.3779527559055118,
      "duration": "1308i"
    },
    {
      "time": "28352i",
      "midiNote": 72,
      "noteName": "C5",
      "velocity": 0.4094488188976378,
      "duration": "1292i"
    },
    {
      "time": "28366i",
      "midiNote": 44,
      "noteName": "G#2",
      "velocity": 0.5511811023622047,
      "duration": "190i"
    },
    {
      "time": "28540i",
      "midiNote": 51,
      "noteName": "D#3",
      "velocity": 0.5275590551181102,
      "duration": "186i"
    },
    {
      "time": "28694i",
      "midiNote": 79,
      "noteName": "G5",
      "velocity": 0.4094488188976378,
      "duration": "1108i"
    },
    {
      "time": "28696i",
      "midiNote": 56,
      "noteName": "G#3",
      "velocity": 0.5354330708661418,
      "duration": "1074i"
    },
    {
      "time": "29774i",
      "midiNote": 82,
      "noteName": "A#5",
      "velocity": 0.48031496062992124,
      "duration": "384i"
    },
    {
      "time": "29782i",
      "midiNote": 70,
      "noteName": "A#4",
      "velocity": 0.3858267716535433,
      "duration": "1300i"
    },
    {
      "time": "29784i",
      "midiNote": 46,
      "noteName": "A#2",
      "velocity": 0.5118110236220472,
      "duration": "170i"
    },
    {
      "time": "29798i",
      "midiNote": 74,
      "noteName": "D5",
      "velocity": 0.3700787401574803,
      "duration": "1192i"
    },
    {
      "time": "29950i",
      "midiNote": 53,
      "noteName": "F3",
      "velocity": 0.4881889763779528,
      "duration": "180i"
    },
    {
      "time": "30106i",
      "midiNote": 58,
      "noteName": "A#3",
      "velocity": 0.5511811023622047,
      "duration": "988i"
    },
    {
      "time": "30138i",
      "midiNote": 77,
      "noteName": "F5",
      "velocity": 0.5039370078740157,
      "duration": "1016i"
    },
    {
      "time": "31248i",
      "midiNote": 65,
      "noteName": "F4",
      "velocity": 0.31496062992125984,
      "duration": "1312i"
    },
    {
      "time": "31250i",
      "midiNote": 69,
      "noteName": "A4",
      "velocity": 0.3700787401574803,
      "duration": "1314i"
    },
    {
      "time": "31268i",
      "midiNote": 41,
      "noteName": "F2",
      "velocity": 0.33070866141732286,
      "duration": "1254i"
    },
    {
      "time": "31474i",
      "midiNote": 48,
      "noteName": "C3",
      "velocity": 0.33858267716535434,
      "duration": "1026i"
    },
    {
      "time": "31640i",
      "midiNote": 53,
      "noteName": "F3",
      "velocity": 0.33858267716535434,
      "duration": "784i"
    },
    {
      "time": "31762i",
      "midiNote": 57,
      "noteName": "A3",
      "velocity": 0.3543307086614173,
      "duration": "128i"
    },
    {
      "time": "31880i",
      "midiNote": 62,
      "noteName": "D4",
      "velocity": 0.33858267716535434,
      "duration": "134i"
    },
    {
      "time": "32006i",
      "midiNote": 64,
      "noteName": "E4",
      "velocity": 0.3937007874015748,
      "duration": "754i"
    },
    {
      "time": "32808i",
      "midiNote": 71,
      "noteName": "B4",
      "velocity": 0.18110236220472442,
      "duration": "992i"
    },
    {
      "time": "32814i",
      "midiNote": 67,
      "noteName": "G4",
      "velocity": 0.2992125984251969,
      "duration": "1052i"
    },
    {
      "time": "32842i",
      "midiNote": 36,
      "noteName": "C2",
      "velocity": 0.33070866141732286,
      "duration": "1084i"
    },
    {
      "time": "33064i",
      "midiNote": 43,
      "noteName": "G2",
      "velocity": 0.2440944881889764,
      "duration": "842i"
    },
    {
      "time": "33232i",
      "midiNote": 52,
      "noteName": "E3",
      "velocity": 0.23622047244094488,
      "duration": "114i"
    },
    {
      "time": "33354i",
      "midiNote": 59,
      "noteName": "B3",
      "velocity": 0.2992125984251969,
      "duration": "130i"
    },
    {
      "time": "33478i",
      "midiNote": 62,
      "noteName": "D4",
      "velocity": 0.3543307086614173,
      "duration": "134i"
    },
    {
      "time": "33614i",
      "midiNote": 64,
      "noteName": "E4",
      "velocity": 0.3464566929133858,
      "duration": "190i"
    }
  ]
]

buildTrack = parseMidi(parts: parts, transport: transport)
