require('v1/midi')

transport = {
  "timeSignature": [
    8,
    4
  ],
  "bpm": 222
}

parts = [
  [
    {
      "time": "1534i",
      "midiNote": 41,
      "noteName": "F2",
      "velocity": 0.4330708661417323,
      "duration": "882i"
    },
    {
      "time": "1600i",
      "midiNote": 53,
      "noteName": "F3",
      "velocity": 0.3937007874015748,
      "duration": "946i"
    },
    {
      "time": "1618i",
      "midiNote": 57,
      "noteName": "A3",
      "velocity": 0.3858267716535433,
      "duration": "912i"
    },
    {
      "time": "1632i",
      "midiNote": 62,
      "noteName": "D4",
      "velocity": 0.3937007874015748,
      "duration": "810i"
    },
    {
      "time": "1652i",
      "midiNote": 64,
      "noteName": "E4",
      "velocity": 0.3858267716535433,
      "duration": "808i"
    },
    {
      "time": "1832i",
      "midiNote": 53,
      "noteName": "F3",
      "velocity": 0.4094488188976378,
      "duration": "604i"
    },
    {
      "time": "1840i",
      "midiNote": 57,
      "noteName": "A3",
      "velocity": 0.4094488188976378,
      "duration": "594i"
    },
    {
      "time": "2530i",
      "midiNote": 36,
      "noteName": "C2",
      "velocity": 0.4645669291338583,
      "duration": "976i"
    },
    {
      "time": "2596i",
      "midiNote": 55,
      "noteName": "G3",
      "velocity": 0.3779527559055118,
      "duration": "882i"
    },
    {
      "time": "2614i",
      "midiNote": 59,
      "noteName": "B3",
      "velocity": 0.3937007874015748,
      "duration": "866i"
    },
    {
      "time": "2634i",
      "midiNote": 62,
      "noteName": "D4",
      "velocity": 0.41732283464566927,
      "duration": "848i"
    },
    {
      "time": "2654i",
      "midiNote": 64,
      "noteName": "E4",
      "velocity": 0.4015748031496063,
      "duration": "840i"
    },
    {
      "time": "2756i",
      "midiNote": 59,
      "noteName": "B3",
      "velocity": 0.3858267716535433,
      "duration": "554i"
    },
    {
      "time": "2760i",
      "midiNote": 55,
      "noteName": "G3",
      "velocity": 0.3779527559055118,
      "duration": "556i"
    },
    {
      "time": "3438i",
      "midiNote": 41,
      "noteName": "F2",
      "velocity": 0.3543307086614173,
      "duration": "620i"
    },
    {
      "time": "3520i",
      "midiNote": 57,
      "noteName": "A3",
      "velocity": 0.4409448818897638,
      "duration": "628i"
    },
    {
      "time": "3522i",
      "midiNote": 53,
      "noteName": "F3",
      "velocity": 0.4015748031496063,
      "duration": "624i"
    },
    {
      "time": "3546i",
      "midiNote": 48,
      "noteName": "C3",
      "velocity": 0.36220472440944884,
      "duration": "506i"
    },
    {
      "time": "3638i",
      "midiNote": 53,
      "noteName": "F3",
      "velocity": 0.33070866141732286,
      "duration": "398i"
    },
    {
      "time": "3704i",
      "midiNote": 57,
      "noteName": "A3",
      "velocity": 0.41732283464566927,
      "duration": "440i"
    },
    {
      "time": "3772i",
      "midiNote": 62,
      "noteName": "D4",
      "velocity": 0.3700787401574803,
      "duration": "58i"
    },
    {
      "time": "3832i",
      "midiNote": 64,
      "noteName": "E4",
      "velocity": 0.4094488188976378,
      "duration": "322i"
    },
    {
      "time": "4228i",
      "midiNote": 36,
      "noteName": "C2",
      "velocity": 0.3779527559055118,
      "duration": "524i"
    },
    {
      "time": "4230i",
      "midiNote": 59,
      "noteName": "B3",
      "velocity": 0.3543307086614173,
      "duration": "680i"
    },
    {
      "time": "4234i",
      "midiNote": 55,
      "noteName": "G3",
      "velocity": 0.4094488188976378,
      "duration": "680i"
    },
    {
      "time": "4324i",
      "midiNote": 43,
      "noteName": "G2",
      "velocity": 0.31496062992125984,
      "duration": "432i"
    },
    {
      "time": "4414i",
      "midiNote": 52,
      "noteName": "E3",
      "velocity": 0.36220472440944884,
      "duration": "58i"
    },
    {
      "time": "4478i",
      "midiNote": 59,
      "noteName": "B3",
      "velocity": 0.3228346456692913,
      "duration": "66i"
    },
    {
      "time": "4538i",
      "midiNote": 62,
      "noteName": "D4",
      "velocity": 0.3858267716535433,
      "duration": "64i"
    },
    {
      "time": "4600i",
      "midiNote": 64,
      "noteName": "E4",
      "velocity": 0.4251968503937008,
      "duration": "400i"
    },
    {
      "time": "4604i",
      "midiNote": 74,
      "noteName": "D5",
      "velocity": 0.4015748031496063,
      "duration": "202i"
    },
    {
      "time": "4796i",
      "midiNote": 76,
      "noteName": "E5",
      "velocity": 0.4094488188976378,
      "duration": "212i"
    },
    {
      "time": "4984i",
      "midiNote": 57,
      "noteName": "A3",
      "velocity": 0.3543307086614173,
      "duration": "744i"
    },
    {
      "time": "4984i",
      "midiNote": 53,
      "noteName": "F3",
      "velocity": 0.3700787401574803,
      "duration": "664i"
    },
    {
      "time": "4986i",
      "midiNote": 41,
      "noteName": "F2",
      "velocity": 0.3228346456692913,
      "duration": "600i"
    },
    {
      "time": "4990i",
      "midiNote": 86,
      "noteName": "D6",
      "velocity": 0.4015748031496063,
      "duration": "340i"
    },
    {
      "time": "5078i",
      "midiNote": 48,
      "noteName": "C3",
      "velocity": 0.33858267716535434,
      "duration": "502i"
    },
    {
      "time": "5172i",
      "midiNote": 53,
      "noteName": "F3",
      "velocity": 0.33070866141732286,
      "duration": "386i"
    },
    {
      "time": "5238i",
      "midiNote": 57,
      "noteName": "A3",
      "velocity": 0.3779527559055118,
      "duration": "408i"
    },
    {
      "time": "5300i",
      "midiNote": 62,
      "noteName": "D4",
      "velocity": 0.36220472440944884,
      "duration": "58i"
    },
    {
      "time": "5322i",
      "midiNote": 85,
      "noteName": "C#6",
      "velocity": 0.4409448818897638,
      "duration": "38i"
    },
    {
      "time": "5346i",
      "midiNote": 84,
      "noteName": "C6",
      "velocity": 0.4094488188976378,
      "duration": "32i"
    },
    {
      "time": "5362i",
      "midiNote": 64,
      "noteName": "E4",
      "velocity": 0.3779527559055118,
      "duration": "376i"
    },
    {
      "time": "5368i",
      "midiNote": 83,
      "noteName": "B5",
      "velocity": 0.4251968503937008,
      "duration": "642i"
    },
    {
      "time": "5732i",
      "midiNote": 59,
      "noteName": "B3",
      "velocity": 0.28346456692913385,
      "duration": "692i"
    },
    {
      "time": "5736i",
      "midiNote": 55,
      "noteName": "G3",
      "velocity": 0.3858267716535433,
      "duration": "694i"
    },
    {
      "time": "5756i",
      "midiNote": 36,
      "noteName": "C2",
      "velocity": 0.3779527559055118,
      "duration": "584i"
    },
    {
      "time": "5856i",
      "midiNote": 43,
      "noteName": "G2",
      "velocity": 0.30708661417322836,
      "duration": "474i"
    },
    {
      "time": "5952i",
      "midiNote": 52,
      "noteName": "E3",
      "velocity": 0.33858267716535434,
      "duration": "66i"
    },
    {
      "time": "6002i",
      "midiNote": 81,
      "noteName": "A5",
      "velocity": 0.4094488188976378,
      "duration": "74i"
    },
    {
      "time": "6010i",
      "midiNote": 59,
      "noteName": "B3",
      "velocity": 0.33070866141732286,
      "duration": "68i"
    },
    {
      "time": "6076i",
      "midiNote": 62,
      "noteName": "D4",
      "velocity": 0.3464566929133858,
      "duration": "72i"
    },
    {
      "time": "6076i",
      "midiNote": 79,
      "noteName": "G5",
      "velocity": 0.4566929133858268,
      "duration": "186i"
    },
    {
      "time": "6136i",
      "midiNote": 64,
      "noteName": "E4",
      "velocity": 0.41732283464566927,
      "duration": "414i"
    },
    {
      "time": "6332i",
      "midiNote": 74,
      "noteName": "D5",
      "velocity": 0.4015748031496063,
      "duration": "112i"
    },
    {
      "time": "6434i",
      "midiNote": 76,
      "noteName": "E5",
      "velocity": 0.4094488188976378,
      "duration": "96i"
    },
    {
      "time": "6502i",
      "midiNote": 57,
      "noteName": "A3",
      "velocity": 0.4251968503937008,
      "duration": "702i"
    },
    {
      "time": "6508i",
      "midiNote": 53,
      "noteName": "F3",
      "velocity": 0.3937007874015748,
      "duration": "702i"
    },
    {
      "time": "6524i",
      "midiNote": 41,
      "noteName": "F2",
      "velocity": 0.33858267716535434,
      "duration": "556i"
    },
    {
      "time": "6526i",
      "midiNote": 86,
      "noteName": "D6",
      "velocity": 0.4645669291338583,
      "duration": "346i"
    },
    {
      "time": "6620i",
      "midiNote": 48,
      "noteName": "C3",
      "velocity": 0.3228346456692913,
      "duration": "442i"
    },
    {
      "time": "6714i",
      "midiNote": 53,
      "noteName": "F3",
      "velocity": 0.31496062992125984,
      "duration": "318i"
    },
    {
      "time": "6780i",
      "midiNote": 57,
      "noteName": "A3",
      "velocity": 0.3543307086614173,
      "duration": "420i"
    },
    {
      "time": "6842i",
      "midiNote": 62,
      "noteName": "D4",
      "velocity": 0.3228346456692913,
      "duration": "66i"
    },
    {
      "time": "6872i",
      "midiNote": 85,
      "noteName": "C#6",
      "velocity": 0.4566929133858268,
      "duration": "36i"
    },
    {
      "time": "6896i",
      "midiNote": 84,
      "noteName": "C6",
      "velocity": 0.4645669291338583,
      "duration": "30i"
    },
    {
      "time": "6906i",
      "midiNote": 64,
      "noteName": "E4",
      "velocity": 0.3858267716535433,
      "duration": "296i"
    },
    {
      "time": "6918i",
      "midiNote": 83,
      "noteName": "B5",
      "velocity": 0.47244094488188976,
      "duration": "324i"
    },
    {
      "time": "7240i",
      "midiNote": 84,
      "noteName": "C6",
      "velocity": 0.44881889763779526,
      "duration": "58i"
    },
    {
      "time": "7290i",
      "midiNote": 36,
      "noteName": "C2",
      "velocity": 0.36220472440944884,
      "duration": "508i"
    },
    {
      "time": "7292i",
      "midiNote": 59,
      "noteName": "B3",
      "velocity": 0.25196850393700787,
      "duration": "664i"
    },
    {
      "time": "7292i",
      "midiNote": 55,
      "noteName": "G3",
      "velocity": 0.36220472440944884,
      "duration": "670i"
    },
    {
      "time": "7294i",
      "midiNote": 83,
      "noteName": "B5",
      "velocity": 0.4409448818897638,
      "duration": "512i"
    },
    {
      "time": "7388i",
      "midiNote": 43,
      "noteName": "G2",
      "velocity": 0.2992125984251969,
      "duration": "414i"
    },
    {
      "time": "7480i",
      "midiNote": 52,
      "noteName": "E3",
      "velocity": 0.3464566929133858,
      "duration": "106i"
    },
    {
      "time": "7544i",
      "midiNote": 59,
      "noteName": "B3",
      "velocity": 0.3228346456692913,
      "duration": "64i"
    },
    {
      "time": "7606i",
      "midiNote": 62,
      "noteName": "D4",
      "velocity": 0.33858267716535434,
      "duration": "72i"
    },
    {
      "time": "7666i",
      "midiNote": 64,
      "noteName": "E4",
      "velocity": 0.4251968503937008,
      "duration": "416i"
    },
    {
      "time": "7870i",
      "midiNote": 74,
      "noteName": "D5",
      "velocity": 0.4330708661417323,
      "duration": "94i"
    },
    {
      "time": "7962i",
      "midiNote": 76,
      "noteName": "E5",
      "velocity": 0.5039370078740157,
      "duration": "92i"
    },
    {
      "time": "8054i",
      "midiNote": 57,
      "noteName": "A3",
      "velocity": 0.33070866141732286,
      "duration": "684i"
    },
    {
      "time": "8056i",
      "midiNote": 86,
      "noteName": "D6",
      "velocity": 0.4566929133858268,
      "duration": "356i"
    },
    {
      "time": "8060i",
      "midiNote": 53,
      "noteName": "F3",
      "velocity": 0.3543307086614173,
      "duration": "690i"
    },
    {
      "time": "8066i",
      "midiNote": 41,
      "noteName": "F2",
      "velocity": 0.31496062992125984,
      "duration": "516i"
    },
    {
      "time": "8162i",
      "midiNote": 48,
      "noteName": "C3",
      "velocity": 0.33858267716535434,
      "duration": "416i"
    },
    {
      "time": "8250i",
      "midiNote": 53,
      "noteName": "F3",
      "velocity": 0.31496062992125984,
      "duration": "290i"
    },
    {
      "time": "8316i",
      "midiNote": 57,
      "noteName": "A3",
      "velocity": 0.36220472440944884,
      "duration": "414i"
    },
    {
      "time": "8380i",
      "midiNote": 62,
      "noteName": "D4",
      "velocity": 0.2992125984251969,
      "duration": "54i"
    },
    {
      "time": "8410i",
      "midiNote": 85,
      "noteName": "C#6",
      "velocity": 0.4409448818897638,
      "duration": "34i"
    },
    {
      "time": "8432i",
      "midiNote": 84,
      "noteName": "C6",
      "velocity": 0.48031496062992124,
      "duration": "30i"
    },
    {
      "time": "8436i",
      "midiNote": 64,
      "noteName": "E4",
      "velocity": 0.3779527559055118,
      "duration": "310i"
    },
    {
      "time": "8454i",
      "midiNote": 83,
      "noteName": "B5",
      "velocity": 0.4566929133858268,
      "duration": "628i"
    },
    {
      "time": "8826i",
      "midiNote": 55,
      "noteName": "G3",
      "velocity": 0.41732283464566927,
      "duration": "676i"
    },
    {
      "time": "8826i",
      "midiNote": 59,
      "noteName": "B3",
      "velocity": 0.3700787401574803,
      "duration": "668i"
    },
    {
      "time": "8830i",
      "midiNote": 36,
      "noteName": "C2",
      "velocity": 0.3543307086614173,
      "duration": "546i"
    },
    {
      "time": "8926i",
      "midiNote": 43,
      "noteName": "G2",
      "velocity": 0.30708661417322836,
      "duration": "440i"
    },
    {
      "time": "9018i",
      "midiNote": 52,
      "noteName": "E3",
      "velocity": 0.31496062992125984,
      "duration": "88i"
    },
    {
      "time": "9078i",
      "midiNote": 59,
      "noteName": "B3",
      "velocity": 0.3228346456692913,
      "duration": "60i"
    },
    {
      "time": "9080i",
      "midiNote": 81,
      "noteName": "A5",
      "velocity": 0.41732283464566927,
      "duration": "68i"
    },
    {
      "time": "9138i",
      "midiNote": 62,
      "noteName": "D4",
      "velocity": 0.3464566929133858,
      "duration": "76i"
    },
    {
      "time": "9148i",
      "midiNote": 79,
      "noteName": "G5",
      "velocity": 0.3779527559055118,
      "duration": "184i"
    },
    {
      "time": "9204i",
      "midiNote": 64,
      "noteName": "E4",
      "velocity": 0.3858267716535433,
      "duration": "418i"
    },
    {
      "time": "9398i",
      "midiNote": 74,
      "noteName": "D5",
      "velocity": 0.41732283464566927,
      "duration": "104i"
    },
    {
      "time": "9498i",
      "midiNote": 76,
      "noteName": "E5",
      "velocity": 0.44881889763779526,
      "duration": "98i"
    },
    {
      "time": "9590i",
      "midiNote": 41,
      "noteName": "F2",
      "velocity": 0.29133858267716534,
      "duration": "506i"
    },
    {
      "time": "9594i",
      "midiNote": 57,
      "noteName": "A3",
      "velocity": 0.3543307086614173,
      "duration": "686i"
    },
    {
      "time": "9594i",
      "midiNote": 86,
      "noteName": "D6",
      "velocity": 0.4015748031496063,
      "duration": "348i"
    },
    {
      "time": "9596i",
      "midiNote": 53,
      "noteName": "F3",
      "velocity": 0.3937007874015748,
      "duration": "682i"
    },
    {
      "time": "9690i",
      "midiNote": 48,
      "noteName": "C3",
      "velocity": 0.3228346456692913,
      "duration": "400i"
    },
    {
      "time": "9782i",
      "midiNote": 53,
      "noteName": "F3",
      "velocity": 0.3228346456692913,
      "duration": "286i"
    },
    {
      "time": "9844i",
      "midiNote": 57,
      "noteName": "A3",
      "velocity": 0.3937007874015748,
      "duration": "376i"
    },
    {
      "time": "9912i",
      "midiNote": 62,
      "noteName": "D4",
      "velocity": 0.28346456692913385,
      "duration": "64i"
    },
    {
      "time": "9940i",
      "midiNote": 85,
      "noteName": "C#6",
      "velocity": 0.4409448818897638,
      "duration": "52i"
    },
    {
      "time": "9962i",
      "midiNote": 84,
      "noteName": "C6",
      "velocity": 0.3937007874015748,
      "duration": "30i"
    },
    {
      "time": "9976i",
      "midiNote": 64,
      "noteName": "E4",
      "velocity": 0.3700787401574803,
      "duration": "248i"
    },
    {
      "time": "9984i",
      "midiNote": 83,
      "noteName": "B5",
      "velocity": 0.48031496062992124,
      "duration": "336i"
    },
    {
      "time": "10316i",
      "midiNote": 88,
      "noteName": "E6",
      "velocity": 0.4566929133858268,
      "duration": "58i"
    },
    {
      "time": "10362i",
      "midiNote": 55,
      "noteName": "G3",
      "velocity": 0.3858267716535433,
      "duration": "622i"
    },
    {
      "time": "10366i",
      "midiNote": 59,
      "noteName": "B3",
      "velocity": 0.3543307086614173,
      "duration": "606i"
    },
    {
      "time": "10368i",
      "midiNote": 83,
      "noteName": "B5",
      "velocity": 0.4251968503937008,
      "duration": "672i"
    },
    {
      "time": "10370i",
      "midiNote": 36,
      "noteName": "C2",
      "velocity": 0.3858267716535433,
      "duration": "484i"
    },
    {
      "time": "10468i",
      "midiNote": 43,
      "noteName": "G2",
      "velocity": 0.3464566929133858,
      "duration": "378i"
    },
    {
      "time": "10556i",
      "midiNote": 52,
      "noteName": "E3",
      "velocity": 0.3464566929133858,
      "duration": "68i"
    },
    {
      "time": "10620i",
      "midiNote": 59,
      "noteName": "B3",
      "velocity": 0.31496062992125984,
      "duration": "60i"
    },
    {
      "time": "10680i",
      "midiNote": 62,
      "noteName": "D4",
      "velocity": 0.3700787401574803,
      "duration": "72i"
    },
    {
      "time": "10746i",
      "midiNote": 64,
      "noteName": "E4",
      "velocity": 0.4015748031496063,
      "duration": "94i"
    },
    {
      "time": "11126i",
      "midiNote": 53,
      "noteName": "F3",
      "velocity": 0.4251968503937008,
      "duration": "776i"
    },
    {
      "time": "11128i",
      "midiNote": 81,
      "noteName": "A5",
      "velocity": 0.44881889763779526,
      "duration": "246i"
    },
    {
      "time": "11134i",
      "midiNote": 69,
      "noteName": "A4",
      "velocity": 0.2992125984251969,
      "duration": "202i"
    },
    {
      "time": "11136i",
      "midiNote": 41,
      "noteName": "F2",
      "velocity": 0.44881889763779526,
      "duration": "92i"
    },
    {
      "time": "11138i",
      "midiNote": 57,
      "noteName": "A3",
      "velocity": 0.33070866141732286,
      "duration": "706i"
    },
    {
      "time": "11232i",
      "midiNote": 48,
      "noteName": "C3",
      "velocity": 0.5039370078740157,
      "duration": "118i"
    },
    {
      "time": "11318i",
      "midiNote": 76,
      "noteName": "E5",
      "velocity": 0.3779527559055118,
      "duration": "588i"
    },
    {
      "time": "11320i",
      "midiNote": 64,
      "noteName": "E4",
      "velocity": 0.3228346456692913,
      "duration": "576i"
    },
    {
      "time": "11328i",
      "midiNote": 53,
      "noteName": "F3",
      "velocity": 0.4566929133858268,
      "duration": "500i"
    },
    {
      "time": "11328i",
      "midiNote": 60,
      "noteName": "C4",
      "velocity": 0.3543307086614173,
      "duration": "574i"
    },
    {
      "time": "11898i",
      "midiNote": 59,
      "noteName": "B3",
      "velocity": 0.28346456692913385,
      "duration": "698i"
    },
    {
      "time": "11898i",
      "midiNote": 74,
      "noteName": "D5",
      "velocity": 0.41732283464566927,
      "duration": "196i"
    },
    {
      "time": "11900i",
      "midiNote": 62,
      "noteName": "D4",
      "velocity": 0.2992125984251969,
      "duration": "788i"
    },
    {
      "time": "11904i",
      "midiNote": 43,
      "noteName": "G2",
      "velocity": 0.4645669291338583,
      "duration": "96i"
    },
    {
      "time": "11908i",
      "midiNote": 55,
      "noteName": "G3",
      "velocity": 0.33070866141732286,
      "duration": "720i"
    },
    {
      "time": "12000i",
      "midiNote": 50,
      "noteName": "D3",
      "velocity": 0.49606299212598426,
      "duration": "116i"
    },
    {
      "time": "12086i",
      "midiNote": 79,
      "noteName": "G5",
      "velocity": 0.41732283464566927,
      "duration": "586i"
    },
    {
      "time": "12088i",
      "midiNote": 67,
      "noteName": "G4",
      "velocity": 0.31496062992125984,
      "duration": "594i"
    },
    {
      "time": "12096i",
      "midiNote": 55,
      "noteName": "G3",
      "velocity": 0.4645669291338583,
      "duration": "504i"
    },
    {
      "time": "12664i",
      "midiNote": 69,
      "noteName": "A4",
      "velocity": 0.36220472440944884,
      "duration": "694i"
    },
    {
      "time": "12664i",
      "midiNote": 81,
      "noteName": "A5",
      "velocity": 0.4094488188976378,
      "duration": "194i"
    },
    {
      "time": "12670i",
      "midiNote": 53,
      "noteName": "F3",
      "velocity": 0.3858267716535433,
      "duration": "748i"
    },
    {
      "time": "12670i",
      "midiNote": 57,
      "noteName": "A3",
      "velocity": 0.3779527559055118,
      "duration": "762i"
    },
    {
      "time": "12672i",
      "midiNote": 41,
      "noteName": "F2",
      "velocity": 0.3858267716535433,
      "duration": "106i"
    },
    {
      "time": "12768i",
      "midiNote": 48,
      "noteName": "C3",
      "velocity": 0.47244094488188976,
      "duration": "108i"
    },
    {
      "time": "12858i",
      "midiNote": 76,
      "noteName": "E5",
      "velocity": 0.4330708661417323,
      "duration": "574i"
    },
    {
      "time": "12864i",
      "midiNote": 53,
      "noteName": "F3",
      "velocity": 0.47244094488188976,
      "duration": "530i"
    },
    {
      "time": "12864i",
      "midiNote": 64,
      "noteName": "E4",
      "velocity": 0.3858267716535433,
      "duration": "588i"
    },
    {
      "time": "12866i",
      "midiNote": 60,
      "noteName": "C4",
      "velocity": 0.3543307086614173,
      "duration": "592i"
    },
    {
      "time": "13422i",
      "midiNote": 59,
      "noteName": "B3",
      "velocity": 0.33858267716535434,
      "duration": "784i"
    },
    {
      "time": "13422i",
      "midiNote": 55,
      "noteName": "G3",
      "velocity": 0.3228346456692913,
      "duration": "754i"
    },
    {
      "time": "13426i",
      "midiNote": 83,
      "noteName": "B5",
      "velocity": 0.3858267716535433,
      "duration": "198i"
    },
    {
      "time": "13436i",
      "midiNote": 71,
      "noteName": "B4",
      "velocity": 0.3543307086614173,
      "duration": "182i"
    },
    {
      "time": "13440i",
      "midiNote": 43,
      "noteName": "G2",
      "velocity": 0.4409448818897638,
      "duration": "106i"
    },
    {
      "time": "13536i",
      "midiNote": 50,
      "noteName": "D3",
      "velocity": 0.44881889763779526,
      "duration": "114i"
    },
    {
      "time": "13606i",
      "midiNote": 62,
      "noteName": "D4",
      "velocity": 0.4094488188976378,
      "duration": "624i"
    },
    {
      "time": "13614i",
      "midiNote": 67,
      "noteName": "G4",
      "velocity": 0.36220472440944884,
      "duration": "592i"
    },
    {
      "time": "13624i",
      "midiNote": 79,
      "noteName": "G5",
      "velocity": 0.4330708661417323,
      "duration": "594i"
    },
    {
      "time": "13632i",
      "midiNote": 55,
      "noteName": "G3",
      "velocity": 0.4645669291338583,
      "duration": "512i"
    },
    {
      "time": "14192i",
      "midiNote": 53,
      "noteName": "F3",
      "velocity": 0.3228346456692913,
      "duration": "768i"
    },
    {
      "time": "14202i",
      "midiNote": 81,
      "noteName": "A5",
      "velocity": 0.3937007874015748,
      "duration": "194i"
    },
    {
      "time": "14204i",
      "midiNote": 57,
      "noteName": "A3",
      "velocity": 0.36220472440944884,
      "duration": "766i"
    },
    {
      "time": "14208i",
      "midiNote": 41,
      "noteName": "F2",
      "velocity": 0.4566929133858268,
      "duration": "116i"
    },
    {
      "time": "14212i",
      "midiNote": 69,
      "noteName": "A4",
      "velocity": 0.3779527559055118,
      "duration": "190i"
    },
    {
      "time": "14304i",
      "midiNote": 48,
      "noteName": "C3",
      "velocity": 0.44881889763779526,
      "duration": "112i"
    },
    {
      "time": "14392i",
      "midiNote": 76,
      "noteName": "E5",
      "velocity": 0.4566929133858268,
      "duration": "574i"
    },
    {
      "time": "14398i",
      "midiNote": 60,
      "noteName": "C4",
      "velocity": 0.4094488188976378,
      "duration": "586i"
    },
    {
      "time": "14398i",
      "midiNote": 64,
      "noteName": "E4",
      "velocity": 0.3228346456692913,
      "duration": "576i"
    },
    {
      "time": "14400i",
      "midiNote": 53,
      "noteName": "F3",
      "velocity": 0.4409448818897638,
      "duration": "538i"
    },
    {
      "time": "14968i",
      "midiNote": 74,
      "noteName": "D5",
      "velocity": 0.3937007874015748,
      "duration": "196i"
    },
    {
      "time": "14972i",
      "midiNote": 55,
      "noteName": "G3",
      "velocity": 0.33858267716535434,
      "duration": "762i"
    },
    {
      "time": "14972i",
      "midiNote": 59,
      "noteName": "B3",
      "velocity": 0.28346456692913385,
      "duration": "750i"
    },
    {
      "time": "14974i",
      "midiNote": 62,
      "noteName": "D4",
      "velocity": 0.41732283464566927,
      "duration": "784i"
    },
    {
      "time": "14976i",
      "midiNote": 43,
      "noteName": "G2",
      "velocity": 0.4566929133858268,
      "duration": "106i"
    },
    {
      "time": "15072i",
      "midiNote": 50,
      "noteName": "D3",
      "velocity": 0.44881889763779526,
      "duration": "104i"
    },
    {
      "time": "15154i",
      "midiNote": 67,
      "noteName": "G4",
      "velocity": 0.3543307086614173,
      "duration": "594i"
    },
    {
      "time": "15162i",
      "midiNote": 79,
      "noteName": "G5",
      "velocity": 0.4409448818897638,
      "duration": "572i"
    },
    {
      "time": "15168i",
      "midiNote": 55,
      "noteName": "G3",
      "velocity": 0.4881889763779528,
      "duration": "510i"
    },
    {
      "time": "15734i",
      "midiNote": 60,
      "noteName": "C4",
      "velocity": 0.3228346456692913,
      "duration": "788i"
    },
    {
      "time": "15734i",
      "midiNote": 84,
      "noteName": "C6",
      "velocity": 0.4566929133858268,
      "duration": "192i"
    },
    {
      "time": "15738i",
      "midiNote": 56,
      "noteName": "G#3",
      "velocity": 0.3228346456692913,
      "duration": "768i"
    },
    {
      "time": "15744i",
      "midiNote": 44,
      "noteName": "G#2",
      "velocity": 0.49606299212598426,
      "duration": "100i"
    },
    {
      "time": "15748i",
      "midiNote": 72,
      "noteName": "C5",
      "velocity": 0.3779527559055118,
      "duration": "176i"
    },
    {
      "time": "15840i",
      "midiNote": 51,
      "noteName": "D#3",
      "velocity": 0.4881889763779528,
      "duration": "104i"
    },
    {
      "time": "15926i",
      "midiNote": 79,
      "noteName": "G5",
      "velocity": 0.47244094488188976,
      "duration": "590i"
    },
    {
      "time": "15930i",
      "midiNote": 63,
      "noteName": "D#4",
      "velocity": 0.41732283464566927,
      "duration": "580i"
    },
    {
      "time": "15934i",
      "midiNote": 67,
      "noteName": "G4",
      "velocity": 0.4015748031496063,
      "duration": "560i"
    },
    {
      "time": "15936i",
      "midiNote": 56,
      "noteName": "G#3",
      "velocity": 0.5196850393700787,
      "duration": "520i"
    },
    {
      "time": "16494i",
      "midiNote": 65,
      "noteName": "F4",
      "velocity": 0.4094488188976378,
      "duration": "192i"
    },
    {
      "time": "16504i",
      "midiNote": 77,
      "noteName": "F5",
      "velocity": 0.4330708661417323,
      "duration": "190i"
    },
    {
      "time": "16506i",
      "midiNote": 58,
      "noteName": "A#3",
      "velocity": 0.4015748031496063,
      "duration": "736i"
    },
    {
      "time": "16506i",
      "midiNote": 62,
      "noteName": "D4",
      "velocity": 0.3543307086614173,
      "duration": "732i"
    },
    {
      "time": "16512i",
      "midiNote": 46,
      "noteName": "A#2",
      "velocity": 0.4881889763779528,
      "duration": "96i"
    },
    {
      "time": "16608i",
      "midiNote": 50,
      "noteName": "D3",
      "velocity": 0.4566929133858268,
      "duration": "110i"
    },
    {
      "time": "16682i",
      "midiNote": 67,
      "noteName": "G4",
      "velocity": 0.41732283464566927,
      "duration": "536i"
    },
    {
      "time": "16690i",
      "midiNote": 79,
      "noteName": "G5",
      "velocity": 0.4330708661417323,
      "duration": "552i"
    },
    {
      "time": "16704i",
      "midiNote": 53,
      "noteName": "F3",
      "velocity": 0.4566929133858268,
      "duration": "526i"
    },
    {
      "time": "17284i",
      "midiNote": 41,
      "noteName": "F2",
      "velocity": 0.3464566929133858,
      "duration": "580i"
    },
    {
      "time": "17372i",
      "midiNote": 48,
      "noteName": "C3",
      "velocity": 0.33858267716535434,
      "duration": "484i"
    },
    {
      "time": "17468i",
      "midiNote": 53,
      "noteName": "F3",
      "velocity": 0.29133858267716534,
      "duration": "364i"
    },
    {
      "time": "17528i",
      "midiNote": 57,
      "noteName": "A3",
      "velocity": 0.3543307086614173,
      "duration": "424i"
    },
    {
      "time": "17594i",
      "midiNote": 62,
      "noteName": "D4",
      "velocity": 0.31496062992125984,
      "duration": "66i"
    },
    {
      "time": "17660i",
      "midiNote": 64,
      "noteName": "E4",
      "velocity": 0.3937007874015748,
      "duration": "288i"
    },
    {
      "time": "18050i",
      "midiNote": 36,
      "noteName": "C2",
      "velocity": 0.4251968503937008,
      "duration": "624i"
    },
    {
      "time": "18148i",
      "midiNote": 43,
      "noteName": "G2",
      "velocity": 0.3228346456692913,
      "duration": "526i"
    },
    {
      "time": "18238i",
      "midiNote": 52,
      "noteName": "E3",
      "velocity": 0.33858267716535434,
      "duration": "472i"
    },
    {
      "time": "18306i",
      "midiNote": 59,
      "noteName": "B3",
      "velocity": 0.28346456692913385,
      "duration": "440i"
    },
    {
      "time": "18360i",
      "midiNote": 62,
      "noteName": "D4",
      "velocity": 0.30708661417322836,
      "duration": "88i"
    },
    {
      "time": "18426i",
      "midiNote": 64,
      "noteName": "E4",
      "velocity": 0.41732283464566927,
      "duration": "368i"
    },
    {
      "time": "18812i",
      "midiNote": 41,
      "noteName": "F2",
      "velocity": 0.3700787401574803,
      "duration": "612i"
    },
    {
      "time": "18910i",
      "midiNote": 48,
      "noteName": "C3",
      "velocity": 0.36220472440944884,
      "duration": "512i"
    },
    {
      "time": "18998i",
      "midiNote": 53,
      "noteName": "F3",
      "velocity": 0.30708661417322836,
      "duration": "424i"
    },
    {
      "time": "19060i",
      "midiNote": 57,
      "noteName": "A3",
      "velocity": 0.3779527559055118,
      "duration": "258i"
    },
    {
      "time": "19122i",
      "midiNote": 62,
      "noteName": "D4",
      "velocity": 0.3228346456692913,
      "duration": "76i"
    },
    {
      "time": "19192i",
      "midiNote": 64,
      "noteName": "E4",
      "velocity": 0.3779527559055118,
      "duration": "148i"
    }
  ]
]

buildTrack = parseMidi(parts: parts, transport: transport)
