require('v1/midi')

transport = {
  "timeSignature": [
    4,
    4
  ],
  "bpm": 280
}

parts = [
  [
    {
      "time": "0i",
      "midiNote": 70,
      "noteName": "A#4",
      "velocity": 1,
      "duration": "192i"
    },
    {
      "time": "0i",
      "midiNote": 74,
      "noteName": "D5",
      "velocity": 1,
      "duration": "192i"
    },
    {
      "time": "0i",
      "midiNote": 77,
      "noteName": "F5",
      "velocity": 1,
      "duration": "192i"
    },
    {
      "time": "0i",
      "midiNote": 82,
      "noteName": "A#5",
      "velocity": 1,
      "duration": "192i"
    },
    {
      "time": "192i",
      "midiNote": 46,
      "noteName": "A#2",
      "velocity": 1,
      "duration": "64i"
    },
    {
      "time": "192i",
      "midiNote": 58,
      "noteName": "A#3",
      "velocity": 1,
      "duration": "64i"
    },
    {
      "time": "256i",
      "midiNote": 46,
      "noteName": "A#2",
      "velocity": 1,
      "duration": "64i"
    },
    {
      "time": "256i",
      "midiNote": 58,
      "noteName": "A#3",
      "velocity": 1,
      "duration": "64i"
    },
    {
      "time": "320i",
      "midiNote": 46,
      "noteName": "A#2",
      "velocity": 1,
      "duration": "64i"
    },
    {
      "time": "320i",
      "midiNote": 58,
      "noteName": "A#3",
      "velocity": 1,
      "duration": "64i"
    },
    {
      "time": "384i",
      "midiNote": 46,
      "noteName": "A#2",
      "velocity": 1,
      "duration": "128i"
    },
    {
      "time": "384i",
      "midiNote": 58,
      "noteName": "A#3",
      "velocity": 1,
      "duration": "128i"
    },
    {
      "time": "512i",
      "midiNote": 70,
      "noteName": "A#4",
      "velocity": 1,
      "duration": "64i"
    },
    {
      "time": "512i",
      "midiNote": 82,
      "noteName": "A#5",
      "velocity": 1,
      "duration": "64i"
    },
    {
      "time": "576i",
      "midiNote": 70,
      "noteName": "A#4",
      "velocity": 1,
      "duration": "64i"
    },
    {
      "time": "576i",
      "midiNote": 82,
      "noteName": "A#5",
      "velocity": 1,
      "duration": "64i"
    },
    {
      "time": "640i",
      "midiNote": 70,
      "noteName": "A#4",
      "velocity": 1,
      "duration": "64i"
    },
    {
      "time": "640i",
      "midiNote": 82,
      "noteName": "A#5",
      "velocity": 1,
      "duration": "64i"
    },
    {
      "time": "704i",
      "midiNote": 70,
      "noteName": "A#4",
      "velocity": 1,
      "duration": "64i"
    },
    {
      "time": "704i",
      "midiNote": 82,
      "noteName": "A#5",
      "velocity": 1,
      "duration": "64i"
    },
    {
      "time": "768i",
      "midiNote": 70,
      "noteName": "A#4",
      "velocity": 0.9763779527559056,
      "duration": "128i"
    },
    {
      "time": "768i",
      "midiNote": 72,
      "noteName": "C5",
      "velocity": 0.9763779527559056,
      "duration": "128i"
    },
    {
      "time": "768i",
      "midiNote": 75,
      "noteName": "D#5",
      "velocity": 0.9763779527559056,
      "duration": "128i"
    },
    {
      "time": "768i",
      "midiNote": 82,
      "noteName": "A#5",
      "velocity": 0.9763779527559056,
      "duration": "128i"
    },
    {
      "time": "896i",
      "midiNote": 68,
      "noteName": "G#4",
      "velocity": 0.905511811023622,
      "duration": "64i"
    },
    {
      "time": "896i",
      "midiNote": 80,
      "noteName": "G#5",
      "velocity": 0.905511811023622,
      "duration": "64i"
    },
    {
      "time": "960i",
      "midiNote": 70,
      "noteName": "A#4",
      "velocity": 1,
      "duration": "256i"
    },
    {
      "time": "960i",
      "midiNote": 72,
      "noteName": "C5",
      "velocity": 1,
      "duration": "256i"
    },
    {
      "time": "960i",
      "midiNote": 75,
      "noteName": "D#5",
      "velocity": 1,
      "duration": "256i"
    },
    {
      "time": "960i",
      "midiNote": 82,
      "noteName": "A#5",
      "velocity": 1,
      "duration": "256i"
    },
    {
      "time": "1216i",
      "midiNote": 70,
      "noteName": "A#4",
      "velocity": 1,
      "duration": "64i"
    },
    {
      "time": "1216i",
      "midiNote": 82,
      "noteName": "A#5",
      "velocity": 1,
      "duration": "64i"
    },
    {
      "time": "1280i",
      "midiNote": 70,
      "noteName": "A#4",
      "velocity": 0.984251968503937,
      "duration": "64i"
    },
    {
      "time": "1280i",
      "midiNote": 82,
      "noteName": "A#5",
      "velocity": 0.984251968503937,
      "duration": "64i"
    },
    {
      "time": "1344i",
      "midiNote": 70,
      "noteName": "A#4",
      "velocity": 0.984251968503937,
      "duration": "64i"
    },
    {
      "time": "1344i",
      "midiNote": 82,
      "noteName": "A#5",
      "velocity": 0.984251968503937,
      "duration": "64i"
    },
    {
      "time": "1408i",
      "midiNote": 70,
      "noteName": "A#4",
      "velocity": 0.9921259842519685,
      "duration": "64i"
    },
    {
      "time": "1408i",
      "midiNote": 82,
      "noteName": "A#5",
      "velocity": 0.9921259842519685,
      "duration": "64i"
    },
    {
      "time": "1472i",
      "midiNote": 70,
      "noteName": "A#4",
      "velocity": 1,
      "duration": "64i"
    },
    {
      "time": "1472i",
      "midiNote": 82,
      "noteName": "A#5",
      "velocity": 1,
      "duration": "64i"
    },
    {
      "time": "1536i",
      "midiNote": 70,
      "noteName": "A#4",
      "velocity": 1,
      "duration": "128i"
    },
    {
      "time": "1536i",
      "midiNote": 73,
      "noteName": "C#5",
      "velocity": 1,
      "duration": "128i"
    },
    {
      "time": "1536i",
      "midiNote": 77,
      "noteName": "F5",
      "velocity": 1,
      "duration": "128i"
    },
    {
      "time": "1536i",
      "midiNote": 82,
      "noteName": "A#5",
      "velocity": 1,
      "duration": "128i"
    },
    {
      "time": "1664i",
      "midiNote": 68,
      "noteName": "G#4",
      "velocity": 0.9448818897637795,
      "duration": "64i"
    },
    {
      "time": "1664i",
      "midiNote": 80,
      "noteName": "G#5",
      "velocity": 0.9448818897637795,
      "duration": "64i"
    },
    {
      "time": "1728i",
      "midiNote": 70,
      "noteName": "A#4",
      "velocity": 1,
      "duration": "256i"
    },
    {
      "time": "1728i",
      "midiNote": 82,
      "noteName": "A#5",
      "velocity": 1,
      "duration": "256i"
    },
    {
      "time": "1984i",
      "midiNote": 70,
      "noteName": "A#4",
      "velocity": 1,
      "duration": "64i"
    },
    {
      "time": "1984i",
      "midiNote": 82,
      "noteName": "A#5",
      "velocity": 1,
      "duration": "64i"
    },
    {
      "time": "2048i",
      "midiNote": 70,
      "noteName": "A#4",
      "velocity": 0.9921259842519685,
      "duration": "64i"
    },
    {
      "time": "2048i",
      "midiNote": 82,
      "noteName": "A#5",
      "velocity": 0.9921259842519685,
      "duration": "64i"
    },
    {
      "time": "2112i",
      "midiNote": 70,
      "noteName": "A#4",
      "velocity": 1,
      "duration": "64i"
    },
    {
      "time": "2112i",
      "midiNote": 82,
      "noteName": "A#5",
      "velocity": 1,
      "duration": "64i"
    },
    {
      "time": "2176i",
      "midiNote": 70,
      "noteName": "A#4",
      "velocity": 1,
      "duration": "64i"
    },
    {
      "time": "2176i",
      "midiNote": 82,
      "noteName": "A#5",
      "velocity": 1,
      "duration": "64i"
    },
    {
      "time": "2240i",
      "midiNote": 70,
      "noteName": "A#4",
      "velocity": 1,
      "duration": "64i"
    },
    {
      "time": "2240i",
      "midiNote": 82,
      "noteName": "A#5",
      "velocity": 1,
      "duration": "64i"
    },
    {
      "time": "2304i",
      "midiNote": 70,
      "noteName": "A#4",
      "velocity": 0.9921259842519685,
      "duration": "96i"
    },
    {
      "time": "2304i",
      "midiNote": 82,
      "noteName": "A#5",
      "velocity": 0.9921259842519685,
      "duration": "96i"
    },
    {
      "time": "2400i",
      "midiNote": 65,
      "noteName": "F4",
      "velocity": 0.8582677165354331,
      "duration": "48i"
    },
    {
      "time": "2400i",
      "midiNote": 69,
      "noteName": "A4",
      "velocity": 0.8582677165354331,
      "duration": "48i"
    },
    {
      "time": "2400i",
      "midiNote": 72,
      "noteName": "C5",
      "velocity": 0.8582677165354331,
      "duration": "48i"
    },
    {
      "time": "2400i",
      "midiNote": 77,
      "noteName": "F5",
      "velocity": 0.8582677165354331,
      "duration": "48i"
    },
    {
      "time": "2448i",
      "midiNote": 65,
      "noteName": "F4",
      "velocity": 0.9448818897637795,
      "duration": "48i"
    },
    {
      "time": "2448i",
      "midiNote": 69,
      "noteName": "A4",
      "velocity": 0.9448818897637795,
      "duration": "48i"
    },
    {
      "time": "2448i",
      "midiNote": 72,
      "noteName": "C5",
      "velocity": 0.9448818897637795,
      "duration": "48i"
    },
    {
      "time": "2448i",
      "midiNote": 77,
      "noteName": "F5",
      "velocity": 0.9448818897637795,
      "duration": "48i"
    },
    {
      "time": "2496i",
      "midiNote": 65,
      "noteName": "F4",
      "velocity": 0.984251968503937,
      "duration": "96i"
    },
    {
      "time": "2496i",
      "midiNote": 69,
      "noteName": "A4",
      "velocity": 0.984251968503937,
      "duration": "96i"
    },
    {
      "time": "2496i",
      "midiNote": 72,
      "noteName": "C5",
      "velocity": 0.984251968503937,
      "duration": "96i"
    },
    {
      "time": "2496i",
      "midiNote": 77,
      "noteName": "F5",
      "velocity": 0.984251968503937,
      "duration": "96i"
    },
    {
      "time": "2592i",
      "midiNote": 65,
      "noteName": "F4",
      "velocity": 0.984251968503937,
      "duration": "48i"
    },
    {
      "time": "2592i",
      "midiNote": 69,
      "noteName": "A4",
      "velocity": 0.984251968503937,
      "duration": "48i"
    },
    {
      "time": "2592i",
      "midiNote": 72,
      "noteName": "C5",
      "velocity": 0.984251968503937,
      "duration": "48i"
    },
    {
      "time": "2592i",
      "midiNote": 77,
      "noteName": "F5",
      "velocity": 0.984251968503937,
      "duration": "48i"
    },
    {
      "time": "2640i",
      "midiNote": 65,
      "noteName": "F4",
      "velocity": 1,
      "duration": "48i"
    },
    {
      "time": "2640i",
      "midiNote": 69,
      "noteName": "A4",
      "velocity": 1,
      "duration": "48i"
    },
    {
      "time": "2640i",
      "midiNote": 72,
      "noteName": "C5",
      "velocity": 1,
      "duration": "48i"
    },
    {
      "time": "2640i",
      "midiNote": 77,
      "noteName": "F5",
      "velocity": 1,
      "duration": "48i"
    },
    {
      "time": "2688i",
      "midiNote": 65,
      "noteName": "F4",
      "velocity": 0.984251968503937,
      "duration": "96i"
    },
    {
      "time": "2688i",
      "midiNote": 69,
      "noteName": "A4",
      "velocity": 0.984251968503937,
      "duration": "96i"
    },
    {
      "time": "2688i",
      "midiNote": 72,
      "noteName": "C5",
      "velocity": 0.984251968503937,
      "duration": "96i"
    },
    {
      "time": "2688i",
      "midiNote": 77,
      "noteName": "F5",
      "velocity": 0.984251968503937,
      "duration": "96i"
    },
    {
      "time": "2784i",
      "midiNote": 65,
      "noteName": "F4",
      "velocity": 1,
      "duration": "48i"
    },
    {
      "time": "2784i",
      "midiNote": 69,
      "noteName": "A4",
      "velocity": 1,
      "duration": "48i"
    },
    {
      "time": "2784i",
      "midiNote": 72,
      "noteName": "C5",
      "velocity": 1,
      "duration": "48i"
    },
    {
      "time": "2784i",
      "midiNote": 77,
      "noteName": "F5",
      "velocity": 1,
      "duration": "48i"
    },
    {
      "time": "2832i",
      "midiNote": 65,
      "noteName": "F4",
      "velocity": 0.9921259842519685,
      "duration": "48i"
    },
    {
      "time": "2832i",
      "midiNote": 69,
      "noteName": "A4",
      "velocity": 0.9921259842519685,
      "duration": "48i"
    },
    {
      "time": "2832i",
      "midiNote": 72,
      "noteName": "C5",
      "velocity": 0.9921259842519685,
      "duration": "48i"
    },
    {
      "time": "2832i",
      "midiNote": 77,
      "noteName": "F5",
      "velocity": 0.9921259842519685,
      "duration": "48i"
    },
    {
      "time": "2880i",
      "midiNote": 65,
      "noteName": "F4",
      "velocity": 0.9763779527559056,
      "duration": "96i"
    },
    {
      "time": "2880i",
      "midiNote": 69,
      "noteName": "A4",
      "velocity": 0.9763779527559056,
      "duration": "96i"
    },
    {
      "time": "2880i",
      "midiNote": 72,
      "noteName": "C5",
      "velocity": 0.9763779527559056,
      "duration": "96i"
    },
    {
      "time": "2880i",
      "midiNote": 77,
      "noteName": "F5",
      "velocity": 0.9763779527559056,
      "duration": "96i"
    },
    {
      "time": "2976i",
      "midiNote": 65,
      "noteName": "F4",
      "velocity": 1,
      "duration": "96i"
    },
    {
      "time": "2976i",
      "midiNote": 69,
      "noteName": "A4",
      "velocity": 1,
      "duration": "96i"
    },
    {
      "time": "2976i",
      "midiNote": 72,
      "noteName": "C5",
      "velocity": 1,
      "duration": "96i"
    },
    {
      "time": "2976i",
      "midiNote": 77,
      "noteName": "F5",
      "velocity": 1,
      "duration": "96i"
    },
    {
      "time": "3072i",
      "midiNote": 70,
      "noteName": "A#4",
      "velocity": 1,
      "duration": "192i"
    },
    {
      "time": "3072i",
      "midiNote": 74,
      "noteName": "D5",
      "velocity": 1,
      "duration": "192i"
    },
    {
      "time": "3072i",
      "midiNote": 77,
      "noteName": "F5",
      "velocity": 1,
      "duration": "192i"
    },
    {
      "time": "3072i",
      "midiNote": 82,
      "noteName": "A#5",
      "velocity": 1,
      "duration": "192i"
    },
    {
      "time": "3264i",
      "midiNote": 65,
      "noteName": "F4",
      "velocity": 0.937007874015748,
      "duration": "288i"
    },
    {
      "time": "3264i",
      "midiNote": 70,
      "noteName": "A#4",
      "velocity": 0.937007874015748,
      "duration": "288i"
    },
    {
      "time": "3264i",
      "midiNote": 74,
      "noteName": "D5",
      "velocity": 0.937007874015748,
      "duration": "288i"
    },
    {
      "time": "3264i",
      "midiNote": 77,
      "noteName": "F5",
      "velocity": 0.937007874015748,
      "duration": "288i"
    },
    {
      "time": "3552i",
      "midiNote": 70,
      "noteName": "A#4",
      "velocity": 1,
      "duration": "96i"
    },
    {
      "time": "3552i",
      "midiNote": 82,
      "noteName": "A#5",
      "velocity": 1,
      "duration": "96i"
    },
    {
      "time": "3648i",
      "midiNote": 70,
      "noteName": "A#4",
      "velocity": 1,
      "duration": "48i"
    },
    {
      "time": "3648i",
      "midiNote": 82,
      "noteName": "A#5",
      "velocity": 1,
      "duration": "48i"
    },
    {
      "time": "3696i",
      "midiNote": 72,
      "noteName": "C5",
      "velocity": 1,
      "duration": "48i"
    },
    {
      "time": "3696i",
      "midiNote": 84,
      "noteName": "C6",
      "velocity": 1,
      "duration": "48i"
    },
    {
      "time": "3744i",
      "midiNote": 74,
      "noteName": "D5",
      "velocity": 1,
      "duration": "48i"
    },
    {
      "time": "3744i",
      "midiNote": 86,
      "noteName": "D6",
      "velocity": 1,
      "duration": "48i"
    },
    {
      "time": "3792i",
      "midiNote": 75,
      "noteName": "D#5",
      "velocity": 1,
      "duration": "48i"
    },
    {
      "time": "3792i",
      "midiNote": 87,
      "noteName": "D#6",
      "velocity": 1,
      "duration": "48i"
    },
    {
      "time": "3840i",
      "midiNote": 77,
      "noteName": "F5",
      "velocity": 1,
      "duration": "144i"
    },
    {
      "time": "3840i",
      "midiNote": 89,
      "noteName": "F6",
      "velocity": 1,
      "duration": "144i"
    },
    {
      "time": "3984i",
      "midiNote": 58,
      "noteName": "A#3",
      "velocity": 0.7401574803149606,
      "duration": "48i"
    },
    {
      "time": "3984i",
      "midiNote": 70,
      "noteName": "A#4",
      "velocity": 0.7401574803149606,
      "duration": "48i"
    },
    {
      "time": "4032i",
      "midiNote": 58,
      "noteName": "A#3",
      "velocity": 0.952755905511811,
      "duration": "48i"
    },
    {
      "time": "4032i",
      "midiNote": 70,
      "noteName": "A#4",
      "velocity": 0.952755905511811,
      "duration": "48i"
    },
    {
      "time": "4080i",
      "midiNote": 60,
      "noteName": "C4",
      "velocity": 1,
      "duration": "48i"
    },
    {
      "time": "4080i",
      "midiNote": 72,
      "noteName": "C5",
      "velocity": 1,
      "duration": "48i"
    },
    {
      "time": "4128i",
      "midiNote": 62,
      "noteName": "D4",
      "velocity": 1,
      "duration": "48i"
    },
    {
      "time": "4128i",
      "midiNote": 74,
      "noteName": "D5",
      "velocity": 1,
      "duration": "48i"
    },
    {
      "time": "4176i",
      "midiNote": 63,
      "noteName": "D#4",
      "velocity": 1,
      "duration": "48i"
    },
    {
      "time": "4176i",
      "midiNote": 75,
      "noteName": "D#5",
      "velocity": 1,
      "duration": "48i"
    },
    {
      "time": "4224i",
      "midiNote": 65,
      "noteName": "F4",
      "velocity": 1,
      "duration": "96i"
    },
    {
      "time": "4224i",
      "midiNote": 77,
      "noteName": "F5",
      "velocity": 1,
      "duration": "96i"
    },
    {
      "time": "4320i",
      "midiNote": 77,
      "noteName": "F5",
      "velocity": 1,
      "duration": "48i"
    },
    {
      "time": "4320i",
      "midiNote": 89,
      "noteName": "F6",
      "velocity": 1,
      "duration": "48i"
    },
    {
      "time": "4368i",
      "midiNote": 77,
      "noteName": "F5",
      "velocity": 1,
      "duration": "48i"
    },
    {
      "time": "4368i",
      "midiNote": 89,
      "noteName": "F6",
      "velocity": 1,
      "duration": "48i"
    },
    {
      "time": "4416i",
      "midiNote": 77,
      "noteName": "F5",
      "velocity": 0.9606299212598425,
      "duration": "96i"
    },
    {
      "time": "4416i",
      "midiNote": 89,
      "noteName": "F6",
      "velocity": 0.9606299212598425,
      "duration": "96i"
    },
    {
      "time": "4512i",
      "midiNote": 78,
      "noteName": "F#5",
      "velocity": 1,
      "duration": "48i"
    },
    {
      "time": "4512i",
      "midiNote": 90,
      "noteName": "F#6",
      "velocity": 1,
      "duration": "48i"
    },
    {
      "time": "4560i",
      "midiNote": 80,
      "noteName": "G#5",
      "velocity": 1,
      "duration": "48i"
    },
    {
      "time": "4560i",
      "midiNote": 92,
      "noteName": "G#6",
      "velocity": 1,
      "duration": "48i"
    },
    {
      "time": "4608i",
      "midiNote": 82,
      "noteName": "A#5",
      "velocity": 1,
      "duration": "192i"
    },
    {
      "time": "4608i",
      "midiNote": 94,
      "noteName": "A#6",
      "velocity": 1,
      "duration": "192i"
    },
    {
      "time": "4800i",
      "midiNote": 54,
      "noteName": "F#3",
      "velocity": 0.889763779527559,
      "duration": "9i"
    },
    {
      "time": "4809i",
      "midiNote": 56,
      "noteName": "G#3",
      "velocity": 0.984251968503937,
      "duration": "10i"
    },
    {
      "time": "4819i",
      "midiNote": 58,
      "noteName": "A#3",
      "velocity": 1,
      "duration": "10i"
    },
    {
      "time": "4829i",
      "midiNote": 61,
      "noteName": "C#4",
      "velocity": 1,
      "duration": "10i"
    },
    {
      "time": "4838i",
      "midiNote": 63,
      "noteName": "D#4",
      "velocity": 1,
      "duration": "10i"
    },
    {
      "time": "4848i",
      "midiNote": 66,
      "noteName": "F#4",
      "velocity": 1,
      "duration": "9i"
    },
    {
      "time": "4857i",
      "midiNote": 68,
      "noteName": "G#4",
      "velocity": 1,
      "duration": "10i"
    },
    {
      "time": "4867i",
      "midiNote": 70,
      "noteName": "A#4",
      "velocity": 1,
      "duration": "10i"
    },
    {
      "time": "4877i",
      "midiNote": 73,
      "noteName": "C#5",
      "velocity": 1,
      "duration": "10i"
    },
    {
      "time": "4886i",
      "midiNote": 75,
      "noteName": "D#5",
      "velocity": 1,
      "duration": "10i"
    },
    {
      "time": "4896i",
      "midiNote": 78,
      "noteName": "F#5",
      "velocity": 0.7874015748031497,
      "duration": "9i"
    },
    {
      "time": "4905i",
      "midiNote": 80,
      "noteName": "G#5",
      "velocity": 1,
      "duration": "10i"
    },
    {
      "time": "4915i",
      "midiNote": 82,
      "noteName": "A#5",
      "velocity": 1,
      "duration": "10i"
    },
    {
      "time": "4925i",
      "midiNote": 85,
      "noteName": "C#6",
      "velocity": 1,
      "duration": "10i"
    },
    {
      "time": "4934i",
      "midiNote": 87,
      "noteName": "D#6",
      "velocity": 1,
      "duration": "10i"
    },
    {
      "time": "4944i",
      "midiNote": 90,
      "noteName": "F#6",
      "velocity": 1,
      "duration": "9i"
    },
    {
      "time": "4953i",
      "midiNote": 92,
      "noteName": "G#6",
      "velocity": 1,
      "duration": "10i"
    },
    {
      "time": "4963i",
      "midiNote": 94,
      "noteName": "A#6",
      "velocity": 1,
      "duration": "10i"
    },
    {
      "time": "4973i",
      "midiNote": 97,
      "noteName": "C#7",
      "velocity": 1,
      "duration": "4i"
    },
    {
      "time": "4977i",
      "midiNote": 99,
      "noteName": "D#7",
      "velocity": 1,
      "duration": "5i"
    },
    {
      "time": "4982i",
      "midiNote": 102,
      "noteName": "F#7",
      "velocity": 1,
      "duration": "5i"
    },
    {
      "time": "4987i",
      "midiNote": 104,
      "noteName": "G#7",
      "velocity": 1,
      "duration": "5i"
    },
    {
      "time": "4992i",
      "midiNote": 106,
      "noteName": "A#7",
      "velocity": 1,
      "duration": "96i"
    },
    {
      "time": "5088i",
      "midiNote": 82,
      "noteName": "A#5",
      "velocity": 1,
      "duration": "48i"
    },
    {
      "time": "5088i",
      "midiNote": 94,
      "noteName": "A#6",
      "velocity": 1,
      "duration": "48i"
    },
    {
      "time": "5136i",
      "midiNote": 82,
      "noteName": "A#5",
      "velocity": 1,
      "duration": "48i"
    },
    {
      "time": "5136i",
      "midiNote": 94,
      "noteName": "A#6",
      "velocity": 1,
      "duration": "48i"
    },
    {
      "time": "5184i",
      "midiNote": 82,
      "noteName": "A#5",
      "velocity": 1,
      "duration": "96i"
    },
    {
      "time": "5184i",
      "midiNote": 94,
      "noteName": "A#6",
      "velocity": 1,
      "duration": "96i"
    },
    {
      "time": "5280i",
      "midiNote": 80,
      "noteName": "G#5",
      "velocity": 0.9448818897637795,
      "duration": "48i"
    },
    {
      "time": "5280i",
      "midiNote": 92,
      "noteName": "G#6",
      "velocity": 0.9448818897637795,
      "duration": "48i"
    },
    {
      "time": "5328i",
      "midiNote": 78,
      "noteName": "F#5",
      "velocity": 0.9291338582677166,
      "duration": "48i"
    },
    {
      "time": "5328i",
      "midiNote": 90,
      "noteName": "F#6",
      "velocity": 0.9291338582677166,
      "duration": "48i"
    },
    {
      "time": "5376i",
      "midiNote": 80,
      "noteName": "G#5",
      "velocity": 1,
      "duration": "128i"
    },
    {
      "time": "5376i",
      "midiNote": 92,
      "noteName": "G#6",
      "velocity": 1,
      "duration": "128i"
    },
    {
      "time": "5504i",
      "midiNote": 78,
      "noteName": "F#5",
      "velocity": 0.9212598425196851,
      "duration": "64i"
    },
    {
      "time": "5504i",
      "midiNote": 90,
      "noteName": "F#6",
      "velocity": 0.9212598425196851,
      "duration": "64i"
    },
    {
      "time": "5568i",
      "midiNote": 77,
      "noteName": "F5",
      "velocity": 0.9212598425196851,
      "duration": "256i"
    },
    {
      "time": "5568i",
      "midiNote": 80,
      "noteName": "G#5",
      "velocity": 0.9212598425196851,
      "duration": "256i"
    },
    {
      "time": "5568i",
      "midiNote": 85,
      "noteName": "C#6",
      "velocity": 0.9212598425196851,
      "duration": "256i"
    },
    {
      "time": "5568i",
      "midiNote": 89,
      "noteName": "F6",
      "velocity": 0.9212598425196851,
      "duration": "256i"
    },
    {
      "time": "5824i",
      "midiNote": 77,
      "noteName": "F5",
      "velocity": 1,
      "duration": "64i"
    },
    {
      "time": "5824i",
      "midiNote": 80,
      "noteName": "G#5",
      "velocity": 1,
      "duration": "64i"
    },
    {
      "time": "5824i",
      "midiNote": 85,
      "noteName": "C#6",
      "velocity": 1,
      "duration": "64i"
    },
    {
      "time": "5824i",
      "midiNote": 89,
      "noteName": "F6",
      "velocity": 1,
      "duration": "64i"
    },
    {
      "time": "5888i",
      "midiNote": 77,
      "noteName": "F5",
      "velocity": 1,
      "duration": "64i"
    },
    {
      "time": "5888i",
      "midiNote": 80,
      "noteName": "G#5",
      "velocity": 1,
      "duration": "64i"
    },
    {
      "time": "5888i",
      "midiNote": 85,
      "noteName": "C#6",
      "velocity": 1,
      "duration": "64i"
    },
    {
      "time": "5888i",
      "midiNote": 89,
      "noteName": "F6",
      "velocity": 1,
      "duration": "64i"
    },
    {
      "time": "5952i",
      "midiNote": 77,
      "noteName": "F5",
      "velocity": 0.968503937007874,
      "duration": "64i"
    },
    {
      "time": "5952i",
      "midiNote": 80,
      "noteName": "G#5",
      "velocity": 0.968503937007874,
      "duration": "64i"
    },
    {
      "time": "5952i",
      "midiNote": 85,
      "noteName": "C#6",
      "velocity": 0.968503937007874,
      "duration": "64i"
    },
    {
      "time": "5952i",
      "midiNote": 89,
      "noteName": "F6",
      "velocity": 0.968503937007874,
      "duration": "64i"
    },
    {
      "time": "6016i",
      "midiNote": 75,
      "noteName": "D#5",
      "velocity": 0.9448818897637795,
      "duration": "64i"
    },
    {
      "time": "6016i",
      "midiNote": 87,
      "noteName": "D#6",
      "velocity": 0.9448818897637795,
      "duration": "64i"
    },
    {
      "time": "6080i",
      "midiNote": 77,
      "noteName": "F5",
      "velocity": 1,
      "duration": "64i"
    },
    {
      "time": "6080i",
      "midiNote": 89,
      "noteName": "F6",
      "velocity": 1,
      "duration": "64i"
    },
    {
      "time": "6144i",
      "midiNote": 75,
      "noteName": "D#5",
      "velocity": 0.968503937007874,
      "duration": "96i"
    },
    {
      "time": "6144i",
      "midiNote": 87,
      "noteName": "D#6",
      "velocity": 0.968503937007874,
      "duration": "96i"
    },
    {
      "time": "6240i",
      "midiNote": 75,
      "noteName": "D#5",
      "velocity": 0.9763779527559056,
      "duration": "48i"
    },
    {
      "time": "6240i",
      "midiNote": 87,
      "noteName": "D#6",
      "velocity": 0.9763779527559056,
      "duration": "48i"
    },
    {
      "time": "6288i",
      "midiNote": 77,
      "noteName": "F5",
      "velocity": 1,
      "duration": "48i"
    },
    {
      "time": "6288i",
      "midiNote": 89,
      "noteName": "F6",
      "velocity": 1,
      "duration": "48i"
    },
    {
      "time": "6336i",
      "midiNote": 78,
      "noteName": "F#5",
      "velocity": 1,
      "duration": "384i"
    },
    {
      "time": "6336i",
      "midiNote": 90,
      "noteName": "F#6",
      "velocity": 1,
      "duration": "384i"
    },
    {
      "time": "6720i",
      "midiNote": 77,
      "noteName": "F5",
      "velocity": 0.9763779527559056,
      "duration": "96i"
    },
    {
      "time": "6720i",
      "midiNote": 89,
      "noteName": "F6",
      "velocity": 0.9763779527559056,
      "duration": "96i"
    },
    {
      "time": "6816i",
      "midiNote": 75,
      "noteName": "D#5",
      "velocity": 0.9133858267716536,
      "duration": "96i"
    },
    {
      "time": "6816i",
      "midiNote": 87,
      "noteName": "D#6",
      "velocity": 0.9133858267716536,
      "duration": "96i"
    },
    {
      "time": "6912i",
      "midiNote": 73,
      "noteName": "C#5",
      "velocity": 0.8976377952755905,
      "duration": "96i"
    },
    {
      "time": "6912i",
      "midiNote": 85,
      "noteName": "C#6",
      "velocity": 0.8976377952755905,
      "duration": "96i"
    },
    {
      "time": "7008i",
      "midiNote": 73,
      "noteName": "C#5",
      "velocity": 0.984251968503937,
      "duration": "48i"
    },
    {
      "time": "7008i",
      "midiNote": 85,
      "noteName": "C#6",
      "velocity": 0.984251968503937,
      "duration": "48i"
    },
    {
      "time": "7056i",
      "midiNote": 75,
      "noteName": "D#5",
      "velocity": 1,
      "duration": "48i"
    },
    {
      "time": "7056i",
      "midiNote": 87,
      "noteName": "D#6",
      "velocity": 1,
      "duration": "48i"
    },
    {
      "time": "7104i",
      "midiNote": 77,
      "noteName": "F5",
      "velocity": 1,
      "duration": "384i"
    },
    {
      "time": "7104i",
      "midiNote": 89,
      "noteName": "F6",
      "velocity": 1,
      "duration": "384i"
    },
    {
      "time": "7488i",
      "midiNote": 77,
      "noteName": "F5",
      "velocity": 1,
      "duration": "96i"
    },
    {
      "time": "7488i",
      "midiNote": 89,
      "noteName": "F6",
      "velocity": 1,
      "duration": "96i"
    },
    {
      "time": "7584i",
      "midiNote": 75,
      "noteName": "D#5",
      "velocity": 0.9606299212598425,
      "duration": "48i"
    },
    {
      "time": "7584i",
      "midiNote": 87,
      "noteName": "D#6",
      "velocity": 0.9606299212598425,
      "duration": "48i"
    },
    {
      "time": "7632i",
      "midiNote": 73,
      "noteName": "C#5",
      "velocity": 0.905511811023622,
      "duration": "48i"
    },
    {
      "time": "7632i",
      "midiNote": 85,
      "noteName": "C#6",
      "velocity": 0.905511811023622,
      "duration": "48i"
    },
    {
      "time": "7680i",
      "midiNote": 72,
      "noteName": "C5",
      "velocity": 0.9606299212598425,
      "duration": "96i"
    },
    {
      "time": "7680i",
      "midiNote": 84,
      "noteName": "C6",
      "velocity": 0.9606299212598425,
      "duration": "96i"
    },
    {
      "time": "7776i",
      "midiNote": 72,
      "noteName": "C5",
      "velocity": 0.984251968503937,
      "duration": "48i"
    },
    {
      "time": "7776i",
      "midiNote": 84,
      "noteName": "C6",
      "velocity": 0.984251968503937,
      "duration": "48i"
    },
    {
      "time": "7824i",
      "midiNote": 74,
      "noteName": "D5",
      "velocity": 1,
      "duration": "48i"
    },
    {
      "time": "7824i",
      "midiNote": 86,
      "noteName": "D6",
      "velocity": 1,
      "duration": "48i"
    },
    {
      "time": "7872i",
      "midiNote": 76,
      "noteName": "E5",
      "velocity": 1,
      "duration": "96i"
    },
    {
      "time": "7872i",
      "midiNote": 88,
      "noteName": "E6",
      "velocity": 1,
      "duration": "96i"
    },
    {
      "time": "7968i",
      "midiNote": 76,
      "noteName": "E5",
      "velocity": 1,
      "duration": "48i"
    },
    {
      "time": "7968i",
      "midiNote": 88,
      "noteName": "E6",
      "velocity": 1,
      "duration": "48i"
    },
    {
      "time": "8016i",
      "midiNote": 77,
      "noteName": "F5",
      "velocity": 1,
      "duration": "48i"
    },
    {
      "time": "8016i",
      "midiNote": 89,
      "noteName": "F6",
      "velocity": 1,
      "duration": "48i"
    },
    {
      "time": "8064i",
      "midiNote": 79,
      "noteName": "G5",
      "velocity": 1,
      "duration": "96i"
    },
    {
      "time": "8064i",
      "midiNote": 91,
      "noteName": "G6",
      "velocity": 1,
      "duration": "96i"
    },
    {
      "time": "8208i",
      "midiNote": 84,
      "noteName": "C6",
      "velocity": 0.889763779527559,
      "duration": "48i"
    },
    {
      "time": "8256i",
      "midiNote": 91,
      "noteName": "G6",
      "velocity": 1,
      "duration": "48i"
    },
    {
      "time": "8304i",
      "midiNote": 86,
      "noteName": "D6",
      "velocity": 0.889763779527559,
      "duration": "48i"
    },
    {
      "time": "8352i",
      "midiNote": 84,
      "noteName": "C6",
      "velocity": 0.937007874015748,
      "duration": "48i"
    },
    {
      "time": "8400i",
      "midiNote": 79,
      "noteName": "G5",
      "velocity": 0.8582677165354331,
      "duration": "48i"
    },
    {
      "time": "8448i",
      "midiNote": 77,
      "noteName": "F5",
      "velocity": 1,
      "duration": "192i"
    },
    {
      "time": "8448i",
      "midiNote": 81,
      "noteName": "A5",
      "velocity": 1,
      "duration": "192i"
    },
    {
      "time": "8448i",
      "midiNote": 84,
      "noteName": "C6",
      "velocity": 1,
      "duration": "192i"
    },
    {
      "time": "8448i",
      "midiNote": 89,
      "noteName": "F6",
      "velocity": 1,
      "duration": "192i"
    },
    {
      "time": "8640i",
      "midiNote": 53,
      "noteName": "F3",
      "velocity": 0.905511811023622,
      "duration": "24i"
    },
    {
      "time": "8664i",
      "midiNote": 57,
      "noteName": "A3",
      "velocity": 1,
      "duration": "24i"
    },
    {
      "time": "8688i",
      "midiNote": 60,
      "noteName": "C4",
      "velocity": 1,
      "duration": "24i"
    },
    {
      "time": "8712i",
      "midiNote": 65,
      "noteName": "F4",
      "velocity": 1,
      "duration": "24i"
    },
    {
      "time": "8832i",
      "midiNote": 75,
      "noteName": "D#5",
      "velocity": 0.9291338582677166,
      "duration": "24i"
    },
    {
      "time": "8856i",
      "midiNote": 77,
      "noteName": "F5",
      "velocity": 1,
      "duration": "24i"
    },
    {
      "time": "8880i",
      "midiNote": 81,
      "noteName": "A5",
      "velocity": 1,
      "duration": "24i"
    },
    {
      "time": "8904i",
      "midiNote": 84,
      "noteName": "C6",
      "velocity": 1,
      "duration": "24i"
    },
    {
      "time": "8928i",
      "midiNote": 87,
      "noteName": "D#6",
      "velocity": 1,
      "duration": "24i"
    },
    {
      "time": "8952i",
      "midiNote": 84,
      "noteName": "C6",
      "velocity": 0.9291338582677166,
      "duration": "24i"
    },
    {
      "time": "8976i",
      "midiNote": 81,
      "noteName": "A5",
      "velocity": 0.8661417322834646,
      "duration": "24i"
    },
    {
      "time": "9000i",
      "midiNote": 77,
      "noteName": "F5",
      "velocity": 0.8818897637795275,
      "duration": "24i"
    },
    {
      "time": "9120i",
      "midiNote": 63,
      "noteName": "D#4",
      "velocity": 0.8740157480314961,
      "duration": "24i"
    },
    {
      "time": "9144i",
      "midiNote": 60,
      "noteName": "C4",
      "velocity": 0.9212598425196851,
      "duration": "24i"
    },
    {
      "time": "9168i",
      "midiNote": 57,
      "noteName": "A3",
      "velocity": 0.9763779527559056,
      "duration": "24i"
    },
    {
      "time": "9192i",
      "midiNote": 55,
      "noteName": "G3",
      "velocity": 0.984251968503937,
      "duration": "24i"
    },
    {
      "time": "9216i",
      "midiNote": 53,
      "noteName": "F3",
      "velocity": 0.968503937007874,
      "duration": "96i"
    },
    {
      "time": "9312i",
      "midiNote": 70,
      "noteName": "A#4",
      "velocity": 1,
      "duration": "192i"
    },
    {
      "time": "9312i",
      "midiNote": 74,
      "noteName": "D5",
      "velocity": 1,
      "duration": "192i"
    },
    {
      "time": "9312i",
      "midiNote": 77,
      "noteName": "F5",
      "velocity": 1,
      "duration": "192i"
    },
    {
      "time": "9312i",
      "midiNote": 82,
      "noteName": "A#5",
      "velocity": 1,
      "duration": "192i"
    },
    {
      "time": "9504i",
      "midiNote": 65,
      "noteName": "F4",
      "velocity": 0.8976377952755905,
      "duration": "288i"
    },
    {
      "time": "9504i",
      "midiNote": 70,
      "noteName": "A#4",
      "velocity": 0.8976377952755905,
      "duration": "288i"
    },
    {
      "time": "9504i",
      "midiNote": 74,
      "noteName": "D5",
      "velocity": 0.8976377952755905,
      "duration": "288i"
    },
    {
      "time": "9504i",
      "midiNote": 77,
      "noteName": "F5",
      "velocity": 0.8976377952755905,
      "duration": "288i"
    },
    {
      "time": "9792i",
      "midiNote": 70,
      "noteName": "A#4",
      "velocity": 1,
      "duration": "96i"
    },
    {
      "time": "9792i",
      "midiNote": 74,
      "noteName": "D5",
      "velocity": 1,
      "duration": "96i"
    },
    {
      "time": "9792i",
      "midiNote": 77,
      "noteName": "F5",
      "velocity": 1,
      "duration": "96i"
    },
    {
      "time": "9792i",
      "midiNote": 82,
      "noteName": "A#5",
      "velocity": 1,
      "duration": "96i"
    },
    {
      "time": "9888i",
      "midiNote": 70,
      "noteName": "A#4",
      "velocity": 1,
      "duration": "48i"
    },
    {
      "time": "9888i",
      "midiNote": 82,
      "noteName": "A#5",
      "velocity": 1,
      "duration": "48i"
    },
    {
      "time": "9936i",
      "midiNote": 72,
      "noteName": "C5",
      "velocity": 1,
      "duration": "48i"
    },
    {
      "time": "9936i",
      "midiNote": 84,
      "noteName": "C6",
      "velocity": 1,
      "duration": "48i"
    },
    {
      "time": "9984i",
      "midiNote": 74,
      "noteName": "D5",
      "velocity": 1,
      "duration": "48i"
    },
    {
      "time": "9984i",
      "midiNote": 86,
      "noteName": "D6",
      "velocity": 1,
      "duration": "48i"
    },
    {
      "time": "10032i",
      "midiNote": 75,
      "noteName": "D#5",
      "velocity": 1,
      "duration": "48i"
    },
    {
      "time": "10032i",
      "midiNote": 87,
      "noteName": "D#6",
      "velocity": 1,
      "duration": "48i"
    },
    {
      "time": "10080i",
      "midiNote": 77,
      "noteName": "F5",
      "velocity": 1,
      "duration": "144i"
    },
    {
      "time": "10080i",
      "midiNote": 89,
      "noteName": "F6",
      "velocity": 1,
      "duration": "144i"
    },
    {
      "time": "10224i",
      "midiNote": 58,
      "noteName": "A#3",
      "velocity": 0.7007874015748031,
      "duration": "48i"
    },
    {
      "time": "10224i",
      "midiNote": 70,
      "noteName": "A#4",
      "velocity": 0.7007874015748031,
      "duration": "48i"
    },
    {
      "time": "10272i",
      "midiNote": 58,
      "noteName": "A#3",
      "velocity": 0.968503937007874,
      "duration": "48i"
    },
    {
      "time": "10272i",
      "midiNote": 70,
      "noteName": "A#4",
      "velocity": 0.968503937007874,
      "duration": "48i"
    },
    {
      "time": "10320i",
      "midiNote": 60,
      "noteName": "C4",
      "velocity": 1,
      "duration": "48i"
    },
    {
      "time": "10320i",
      "midiNote": 72,
      "noteName": "C5",
      "velocity": 1,
      "duration": "48i"
    },
    {
      "time": "10368i",
      "midiNote": 62,
      "noteName": "D4",
      "velocity": 1,
      "duration": "48i"
    },
    {
      "time": "10368i",
      "midiNote": 74,
      "noteName": "D5",
      "velocity": 1,
      "duration": "48i"
    },
    {
      "time": "10416i",
      "midiNote": 63,
      "noteName": "D#4",
      "velocity": 1,
      "duration": "48i"
    },
    {
      "time": "10416i",
      "midiNote": 75,
      "noteName": "D#5",
      "velocity": 1,
      "duration": "48i"
    },
    {
      "time": "10464i",
      "midiNote": 65,
      "noteName": "F4",
      "velocity": 1,
      "duration": "96i"
    },
    {
      "time": "10464i",
      "midiNote": 77,
      "noteName": "F5",
      "velocity": 1,
      "duration": "96i"
    },
    {
      "time": "10560i",
      "midiNote": 77,
      "noteName": "F5",
      "velocity": 1,
      "duration": "48i"
    },
    {
      "time": "10560i",
      "midiNote": 89,
      "noteName": "F6",
      "velocity": 1,
      "duration": "48i"
    },
    {
      "time": "10608i",
      "midiNote": 77,
      "noteName": "F5",
      "velocity": 1,
      "duration": "48i"
    },
    {
      "time": "10608i",
      "midiNote": 89,
      "noteName": "F6",
      "velocity": 1,
      "duration": "48i"
    },
    {
      "time": "10656i",
      "midiNote": 77,
      "noteName": "F5",
      "velocity": 0.9921259842519685,
      "duration": "96i"
    },
    {
      "time": "10656i",
      "midiNote": 89,
      "noteName": "F6",
      "velocity": 0.9921259842519685,
      "duration": "96i"
    },
    {
      "time": "10752i",
      "midiNote": 78,
      "noteName": "F#5",
      "velocity": 1,
      "duration": "48i"
    },
    {
      "time": "10752i",
      "midiNote": 90,
      "noteName": "F#6",
      "velocity": 1,
      "duration": "48i"
    },
    {
      "time": "10800i",
      "midiNote": 80,
      "noteName": "G#5",
      "velocity": 1,
      "duration": "48i"
    },
    {
      "time": "10800i",
      "midiNote": 92,
      "noteName": "G#6",
      "velocity": 1,
      "duration": "48i"
    },
    {
      "time": "10848i",
      "midiNote": 82,
      "noteName": "A#5",
      "velocity": 1,
      "duration": "576i"
    },
    {
      "time": "10848i",
      "midiNote": 94,
      "noteName": "A#6",
      "velocity": 1,
      "duration": "576i"
    },
    {
      "time": "11424i",
      "midiNote": 85,
      "noteName": "C#6",
      "velocity": 1,
      "duration": "192i"
    },
    {
      "time": "11424i",
      "midiNote": 97,
      "noteName": "C#7",
      "velocity": 1,
      "duration": "192i"
    },
    {
      "time": "11616i",
      "midiNote": 84,
      "noteName": "C6",
      "velocity": 0.968503937007874,
      "duration": "192i"
    },
    {
      "time": "11616i",
      "midiNote": 87,
      "noteName": "D#6",
      "velocity": 0.968503937007874,
      "duration": "192i"
    },
    {
      "time": "11616i",
      "midiNote": 93,
      "noteName": "A6",
      "velocity": 0.968503937007874,
      "duration": "192i"
    },
    {
      "time": "11616i",
      "midiNote": 96,
      "noteName": "C7",
      "velocity": 0.968503937007874,
      "duration": "192i"
    },
    {
      "time": "11808i",
      "midiNote": 81,
      "noteName": "A5",
      "velocity": 0.8976377952755905,
      "duration": "384i"
    },
    {
      "time": "11808i",
      "midiNote": 84,
      "noteName": "C6",
      "velocity": 0.8976377952755905,
      "duration": "384i"
    },
    {
      "time": "11808i",
      "midiNote": 87,
      "noteName": "D#6",
      "velocity": 0.8976377952755905,
      "duration": "384i"
    },
    {
      "time": "11808i",
      "midiNote": 93,
      "noteName": "A6",
      "velocity": 0.8976377952755905,
      "duration": "384i"
    },
    {
      "time": "12192i",
      "midiNote": 77,
      "noteName": "F5",
      "velocity": 0.8740157480314961,
      "duration": "192i"
    },
    {
      "time": "12192i",
      "midiNote": 81,
      "noteName": "A5",
      "velocity": 0.8740157480314961,
      "duration": "192i"
    },
    {
      "time": "12192i",
      "midiNote": 84,
      "noteName": "C6",
      "velocity": 0.8740157480314961,
      "duration": "192i"
    },
    {
      "time": "12192i",
      "midiNote": 89,
      "noteName": "F6",
      "velocity": 0.8740157480314961,
      "duration": "192i"
    },
    {
      "time": "12384i",
      "midiNote": 78,
      "noteName": "F#5",
      "velocity": 1,
      "duration": "576i"
    },
    {
      "time": "12384i",
      "midiNote": 83,
      "noteName": "B5",
      "velocity": 1,
      "duration": "576i"
    },
    {
      "time": "12384i",
      "midiNote": 86,
      "noteName": "D6",
      "velocity": 1,
      "duration": "576i"
    },
    {
      "time": "12384i",
      "midiNote": 90,
      "noteName": "F#6",
      "velocity": 1,
      "duration": "576i"
    },
    {
      "time": "12960i",
      "midiNote": 78,
      "noteName": "F#5",
      "velocity": 1,
      "duration": "144i"
    },
    {
      "time": "12960i",
      "midiNote": 83,
      "noteName": "B5",
      "velocity": 1,
      "duration": "144i"
    },
    {
      "time": "12960i",
      "midiNote": 86,
      "noteName": "D6",
      "velocity": 1,
      "duration": "144i"
    },
    {
      "time": "12960i",
      "midiNote": 90,
      "noteName": "F#6",
      "velocity": 1,
      "duration": "144i"
    },
    {
      "time": "13104i",
      "midiNote": 82,
      "noteName": "A#5",
      "velocity": 1,
      "duration": "48i"
    },
    {
      "time": "13104i",
      "midiNote": 94,
      "noteName": "A#6",
      "velocity": 1,
      "duration": "48i"
    },
    {
      "time": "13152i",
      "midiNote": 81,
      "noteName": "A5",
      "velocity": 1,
      "duration": "192i"
    },
    {
      "time": "13152i",
      "midiNote": 84,
      "noteName": "C6",
      "velocity": 1,
      "duration": "192i"
    },
    {
      "time": "13152i",
      "midiNote": 89,
      "noteName": "F6",
      "velocity": 1,
      "duration": "192i"
    },
    {
      "time": "13152i",
      "midiNote": 93,
      "noteName": "A6",
      "velocity": 1,
      "duration": "192i"
    },
    {
      "time": "13344i",
      "midiNote": 77,
      "noteName": "F5",
      "velocity": 0.8740157480314961,
      "duration": "384i"
    },
    {
      "time": "13344i",
      "midiNote": 81,
      "noteName": "A5",
      "velocity": 0.8740157480314961,
      "duration": "384i"
    },
    {
      "time": "13344i",
      "midiNote": 84,
      "noteName": "C6",
      "velocity": 0.8740157480314961,
      "duration": "384i"
    },
    {
      "time": "13344i",
      "midiNote": 89,
      "noteName": "F6",
      "velocity": 0.8740157480314961,
      "duration": "384i"
    },
    {
      "time": "13728i",
      "midiNote": 77,
      "noteName": "F5",
      "velocity": 0.9448818897637795,
      "duration": "192i"
    },
    {
      "time": "13728i",
      "midiNote": 81,
      "noteName": "A5",
      "velocity": 0.9448818897637795,
      "duration": "192i"
    },
    {
      "time": "13728i",
      "midiNote": 84,
      "noteName": "C6",
      "velocity": 0.9448818897637795,
      "duration": "192i"
    },
    {
      "time": "13728i",
      "midiNote": 89,
      "noteName": "F6",
      "velocity": 0.9448818897637795,
      "duration": "192i"
    },
    {
      "time": "13920i",
      "midiNote": 78,
      "noteName": "F#5",
      "velocity": 1,
      "duration": "576i"
    },
    {
      "time": "13920i",
      "midiNote": 83,
      "noteName": "B5",
      "velocity": 1,
      "duration": "576i"
    },
    {
      "time": "13920i",
      "midiNote": 86,
      "noteName": "D6",
      "velocity": 1,
      "duration": "576i"
    },
    {
      "time": "13920i",
      "midiNote": 90,
      "noteName": "F#6",
      "velocity": 1,
      "duration": "576i"
    },
    {
      "time": "14496i",
      "midiNote": 82,
      "noteName": "A#5",
      "velocity": 1,
      "duration": "192i"
    },
    {
      "time": "14496i",
      "midiNote": 85,
      "noteName": "C#6",
      "velocity": 1,
      "duration": "192i"
    },
    {
      "time": "14496i",
      "midiNote": 94,
      "noteName": "A#6",
      "velocity": 1,
      "duration": "192i"
    },
    {
      "time": "14688i",
      "midiNote": 81,
      "noteName": "A5",
      "velocity": 0.9606299212598425,
      "duration": "192i"
    },
    {
      "time": "14688i",
      "midiNote": 84,
      "noteName": "C6",
      "velocity": 0.9606299212598425,
      "duration": "192i"
    },
    {
      "time": "14688i",
      "midiNote": 87,
      "noteName": "D#6",
      "velocity": 0.9606299212598425,
      "duration": "192i"
    },
    {
      "time": "14688i",
      "midiNote": 93,
      "noteName": "A6",
      "velocity": 0.9606299212598425,
      "duration": "192i"
    },
    {
      "time": "14880i",
      "midiNote": 77,
      "noteName": "F5",
      "velocity": 0.8740157480314961,
      "duration": "384i"
    },
    {
      "time": "14880i",
      "midiNote": 81,
      "noteName": "A5",
      "velocity": 0.8740157480314961,
      "duration": "384i"
    },
    {
      "time": "14880i",
      "midiNote": 84,
      "noteName": "C6",
      "velocity": 0.8740157480314961,
      "duration": "384i"
    },
    {
      "time": "14880i",
      "midiNote": 89,
      "noteName": "F6",
      "velocity": 0.8740157480314961,
      "duration": "384i"
    },
    {
      "time": "15264i",
      "midiNote": 74,
      "noteName": "D5",
      "velocity": 0.8818897637795275,
      "duration": "192i"
    },
    {
      "time": "15264i",
      "midiNote": 77,
      "noteName": "F5",
      "velocity": 0.8818897637795275,
      "duration": "192i"
    },
    {
      "time": "15264i",
      "midiNote": 81,
      "noteName": "A5",
      "velocity": 0.8818897637795275,
      "duration": "192i"
    },
    {
      "time": "15264i",
      "midiNote": 86,
      "noteName": "D6",
      "velocity": 0.8818897637795275,
      "duration": "192i"
    },
    {
      "time": "15456i",
      "midiNote": 75,
      "noteName": "D#5",
      "velocity": 1,
      "duration": "576i"
    },
    {
      "time": "15456i",
      "midiNote": 78,
      "noteName": "F#5",
      "velocity": 1,
      "duration": "576i"
    },
    {
      "time": "15456i",
      "midiNote": 83,
      "noteName": "B5",
      "velocity": 1,
      "duration": "576i"
    },
    {
      "time": "15456i",
      "midiNote": 87,
      "noteName": "D#6",
      "velocity": 1,
      "duration": "576i"
    },
    {
      "time": "16032i",
      "midiNote": 78,
      "noteName": "F#5",
      "velocity": 1,
      "duration": "192i"
    },
    {
      "time": "16032i",
      "midiNote": 83,
      "noteName": "B5",
      "velocity": 1,
      "duration": "192i"
    },
    {
      "time": "16032i",
      "midiNote": 87,
      "noteName": "D#6",
      "velocity": 1,
      "duration": "192i"
    },
    {
      "time": "16032i",
      "midiNote": 90,
      "noteName": "F#6",
      "velocity": 1,
      "duration": "192i"
    },
    {
      "time": "16224i",
      "midiNote": 77,
      "noteName": "F5",
      "velocity": 0.984251968503937,
      "duration": "192i"
    },
    {
      "time": "16224i",
      "midiNote": 82,
      "noteName": "A#5",
      "velocity": 0.984251968503937,
      "duration": "192i"
    },
    {
      "time": "16224i",
      "midiNote": 85,
      "noteName": "C#6",
      "velocity": 0.984251968503937,
      "duration": "192i"
    },
    {
      "time": "16224i",
      "midiNote": 89,
      "noteName": "F6",
      "velocity": 0.984251968503937,
      "duration": "192i"
    },
    {
      "time": "16416i",
      "midiNote": 73,
      "noteName": "C#5",
      "velocity": 0.8740157480314961,
      "duration": "384i"
    },
    {
      "time": "16416i",
      "midiNote": 77,
      "noteName": "F5",
      "velocity": 0.8740157480314961,
      "duration": "384i"
    },
    {
      "time": "16416i",
      "midiNote": 82,
      "noteName": "A#5",
      "velocity": 0.8740157480314961,
      "duration": "384i"
    },
    {
      "time": "16416i",
      "midiNote": 85,
      "noteName": "C#6",
      "velocity": 0.8740157480314961,
      "duration": "384i"
    },
    {
      "time": "16800i",
      "midiNote": 70,
      "noteName": "A#4",
      "velocity": 0.8976377952755905,
      "duration": "192i"
    },
    {
      "time": "16800i",
      "midiNote": 73,
      "noteName": "C#5",
      "velocity": 0.8976377952755905,
      "duration": "192i"
    },
    {
      "time": "16800i",
      "midiNote": 77,
      "noteName": "F5",
      "velocity": 0.8976377952755905,
      "duration": "192i"
    },
    {
      "time": "16800i",
      "midiNote": 82,
      "noteName": "A#5",
      "velocity": 0.8976377952755905,
      "duration": "192i"
    },
    {
      "time": "16992i",
      "midiNote": 72,
      "noteName": "C5",
      "velocity": 1,
      "duration": "96i"
    },
    {
      "time": "16992i",
      "midiNote": 77,
      "noteName": "F5",
      "velocity": 1,
      "duration": "96i"
    },
    {
      "time": "16992i",
      "midiNote": 84,
      "noteName": "C6",
      "velocity": 1,
      "duration": "96i"
    },
    {
      "time": "17088i",
      "midiNote": 77,
      "noteName": "F5",
      "velocity": 1,
      "duration": "48i"
    },
    {
      "time": "17088i",
      "midiNote": 84,
      "noteName": "C6",
      "velocity": 1,
      "duration": "48i"
    },
    {
      "time": "17136i",
      "midiNote": 86,
      "noteName": "D6",
      "velocity": 1,
      "duration": "48i"
    },
    {
      "time": "17184i",
      "midiNote": 88,
      "noteName": "E6",
      "velocity": 1,
      "duration": "96i"
    },
    {
      "time": "17280i",
      "midiNote": 76,
      "noteName": "E5",
      "velocity": 0.7795275590551181,
      "duration": "48i"
    },
    {
      "time": "17328i",
      "midiNote": 77,
      "noteName": "F5",
      "velocity": 0.9921259842519685,
      "duration": "48i"
    },
    {
      "time": "17376i",
      "midiNote": 79,
      "noteName": "G5",
      "velocity": 1,
      "duration": "96i"
    },
    {
      "time": "17472i",
      "midiNote": 79,
      "noteName": "G5",
      "velocity": 1,
      "duration": "48i"
    },
    {
      "time": "17520i",
      "midiNote": 81,
      "noteName": "A5",
      "velocity": 1,
      "duration": "48i"
    },
    {
      "time": "17568i",
      "midiNote": 82,
      "noteName": "A#5",
      "velocity": 1,
      "duration": "96i"
    },
    {
      "time": "17664i",
      "midiNote": 84,
      "noteName": "C6",
      "velocity": 1,
      "duration": "96i"
    },
    {
      "time": "17760i",
      "midiNote": 77,
      "noteName": "F5",
      "velocity": 1,
      "duration": "96i"
    },
    {
      "time": "17760i",
      "midiNote": 81,
      "noteName": "A5",
      "velocity": 1,
      "duration": "96i"
    },
    {
      "time": "17760i",
      "midiNote": 89,
      "noteName": "F6",
      "velocity": 1,
      "duration": "96i"
    },
    {
      "time": "17856i",
      "midiNote": 65,
      "noteName": "F4",
      "velocity": 0.7322834645669292,
      "duration": "48i"
    },
    {
      "time": "17856i",
      "midiNote": 69,
      "noteName": "A4",
      "velocity": 0.7322834645669292,
      "duration": "48i"
    },
    {
      "time": "17856i",
      "midiNote": 72,
      "noteName": "C5",
      "velocity": 0.7322834645669292,
      "duration": "48i"
    },
    {
      "time": "17856i",
      "midiNote": 77,
      "noteName": "F5",
      "velocity": 0.7322834645669292,
      "duration": "48i"
    },
    {
      "time": "17904i",
      "midiNote": 65,
      "noteName": "F4",
      "velocity": 0.952755905511811,
      "duration": "48i"
    },
    {
      "time": "17904i",
      "midiNote": 69,
      "noteName": "A4",
      "velocity": 0.952755905511811,
      "duration": "48i"
    },
    {
      "time": "17904i",
      "midiNote": 72,
      "noteName": "C5",
      "velocity": 0.952755905511811,
      "duration": "48i"
    },
    {
      "time": "17904i",
      "midiNote": 77,
      "noteName": "F5",
      "velocity": 0.952755905511811,
      "duration": "48i"
    },
    {
      "time": "17952i",
      "midiNote": 65,
      "noteName": "F4",
      "velocity": 1,
      "duration": "96i"
    },
    {
      "time": "17952i",
      "midiNote": 69,
      "noteName": "A4",
      "velocity": 1,
      "duration": "96i"
    },
    {
      "time": "17952i",
      "midiNote": 72,
      "noteName": "C5",
      "velocity": 1,
      "duration": "96i"
    },
    {
      "time": "17952i",
      "midiNote": 77,
      "noteName": "F5",
      "velocity": 1,
      "duration": "96i"
    },
    {
      "time": "18048i",
      "midiNote": 65,
      "noteName": "F4",
      "velocity": 0.984251968503937,
      "duration": "48i"
    },
    {
      "time": "18048i",
      "midiNote": 69,
      "noteName": "A4",
      "velocity": 0.984251968503937,
      "duration": "48i"
    },
    {
      "time": "18048i",
      "midiNote": 72,
      "noteName": "C5",
      "velocity": 0.984251968503937,
      "duration": "48i"
    },
    {
      "time": "18048i",
      "midiNote": 77,
      "noteName": "F5",
      "velocity": 0.984251968503937,
      "duration": "48i"
    },
    {
      "time": "18096i",
      "midiNote": 65,
      "noteName": "F4",
      "velocity": 1,
      "duration": "48i"
    },
    {
      "time": "18096i",
      "midiNote": 69,
      "noteName": "A4",
      "velocity": 1,
      "duration": "48i"
    },
    {
      "time": "18096i",
      "midiNote": 72,
      "noteName": "C5",
      "velocity": 1,
      "duration": "48i"
    },
    {
      "time": "18096i",
      "midiNote": 77,
      "noteName": "F5",
      "velocity": 1,
      "duration": "48i"
    },
    {
      "time": "18144i",
      "midiNote": 65,
      "noteName": "F4",
      "velocity": 0.9921259842519685,
      "duration": "96i"
    },
    {
      "time": "18144i",
      "midiNote": 69,
      "noteName": "A4",
      "velocity": 0.9921259842519685,
      "duration": "96i"
    },
    {
      "time": "18144i",
      "midiNote": 72,
      "noteName": "C5",
      "velocity": 0.9921259842519685,
      "duration": "96i"
    },
    {
      "time": "18144i",
      "midiNote": 77,
      "noteName": "F5",
      "velocity": 0.9921259842519685,
      "duration": "96i"
    },
    {
      "time": "18240i",
      "midiNote": 65,
      "noteName": "F4",
      "velocity": 0.984251968503937,
      "duration": "48i"
    },
    {
      "time": "18240i",
      "midiNote": 69,
      "noteName": "A4",
      "velocity": 0.984251968503937,
      "duration": "48i"
    },
    {
      "time": "18240i",
      "midiNote": 72,
      "noteName": "C5",
      "velocity": 0.984251968503937,
      "duration": "48i"
    },
    {
      "time": "18240i",
      "midiNote": 77,
      "noteName": "F5",
      "velocity": 0.984251968503937,
      "duration": "48i"
    },
    {
      "time": "18288i",
      "midiNote": 65,
      "noteName": "F4",
      "velocity": 0.9921259842519685,
      "duration": "48i"
    },
    {
      "time": "18288i",
      "midiNote": 69,
      "noteName": "A4",
      "velocity": 0.9921259842519685,
      "duration": "48i"
    },
    {
      "time": "18288i",
      "midiNote": 72,
      "noteName": "C5",
      "velocity": 0.9921259842519685,
      "duration": "48i"
    },
    {
      "time": "18288i",
      "midiNote": 77,
      "noteName": "F5",
      "velocity": 0.9921259842519685,
      "duration": "48i"
    },
    {
      "time": "18336i",
      "midiNote": 67,
      "noteName": "G4",
      "velocity": 1,
      "duration": "96i"
    },
    {
      "time": "18336i",
      "midiNote": 70,
      "noteName": "A#4",
      "velocity": 1,
      "duration": "96i"
    },
    {
      "time": "18336i",
      "midiNote": 74,
      "noteName": "D5",
      "velocity": 1,
      "duration": "96i"
    },
    {
      "time": "18336i",
      "midiNote": 79,
      "noteName": "G5",
      "velocity": 1,
      "duration": "96i"
    },
    {
      "time": "18432i",
      "midiNote": 69,
      "noteName": "A4",
      "velocity": 1,
      "duration": "96i"
    },
    {
      "time": "18432i",
      "midiNote": 72,
      "noteName": "C5",
      "velocity": 1,
      "duration": "96i"
    },
    {
      "time": "18432i",
      "midiNote": 77,
      "noteName": "F5",
      "velocity": 1,
      "duration": "96i"
    },
    {
      "time": "18432i",
      "midiNote": 81,
      "noteName": "A5",
      "velocity": 1,
      "duration": "96i"
    },
    {
      "time": "18528i",
      "midiNote": 70,
      "noteName": "A#4",
      "velocity": 1,
      "duration": "96i"
    },
    {
      "time": "18528i",
      "midiNote": 74,
      "noteName": "D5",
      "velocity": 1,
      "duration": "96i"
    },
    {
      "time": "18528i",
      "midiNote": 77,
      "noteName": "F5",
      "velocity": 1,
      "duration": "96i"
    },
    {
      "time": "18528i",
      "midiNote": 82,
      "noteName": "A#5",
      "velocity": 1,
      "duration": "96i"
    },
    {
      "time": "18720i",
      "midiNote": 46,
      "noteName": "A#2",
      "velocity": 1,
      "duration": "64i"
    },
    {
      "time": "18720i",
      "midiNote": 50,
      "noteName": "D3",
      "velocity": 1,
      "duration": "64i"
    },
    {
      "time": "18720i",
      "midiNote": 53,
      "noteName": "F3",
      "velocity": 1,
      "duration": "64i"
    },
    {
      "time": "18720i",
      "midiNote": 58,
      "noteName": "A#3",
      "velocity": 1,
      "duration": "64i"
    },
    {
      "time": "18784i",
      "midiNote": 46,
      "noteName": "A#2",
      "velocity": 1,
      "duration": "64i"
    },
    {
      "time": "18784i",
      "midiNote": 50,
      "noteName": "D3",
      "velocity": 1,
      "duration": "64i"
    },
    {
      "time": "18784i",
      "midiNote": 53,
      "noteName": "F3",
      "velocity": 1,
      "duration": "64i"
    },
    {
      "time": "18784i",
      "midiNote": 58,
      "noteName": "A#3",
      "velocity": 1,
      "duration": "64i"
    },
    {
      "time": "18848i",
      "midiNote": 46,
      "noteName": "A#2",
      "velocity": 1,
      "duration": "64i"
    },
    {
      "time": "18848i",
      "midiNote": 50,
      "noteName": "D3",
      "velocity": 1,
      "duration": "64i"
    },
    {
      "time": "18848i",
      "midiNote": 53,
      "noteName": "F3",
      "velocity": 1,
      "duration": "64i"
    },
    {
      "time": "18848i",
      "midiNote": 58,
      "noteName": "A#3",
      "velocity": 1,
      "duration": "64i"
    },
    {
      "time": "18912i",
      "midiNote": 46,
      "noteName": "A#2",
      "velocity": 1,
      "duration": "48i"
    },
    {
      "time": "18912i",
      "midiNote": 50,
      "noteName": "D3",
      "velocity": 1,
      "duration": "48i"
    },
    {
      "time": "18912i",
      "midiNote": 53,
      "noteName": "F3",
      "velocity": 1,
      "duration": "48i"
    },
    {
      "time": "18912i",
      "midiNote": 58,
      "noteName": "A#3",
      "velocity": 1,
      "duration": "48i"
    }
  ],
  [
    {
      "time": "0i",
      "midiNote": 58,
      "noteName": "A#3",
      "velocity": 1,
      "duration": "192i"
    },
    {
      "time": "0i",
      "midiNote": 62,
      "noteName": "D4",
      "velocity": 1,
      "duration": "192i"
    },
    {
      "time": "0i",
      "midiNote": 65,
      "noteName": "F4",
      "velocity": 1,
      "duration": "192i"
    },
    {
      "time": "192i",
      "midiNote": 22,
      "noteName": "A#0",
      "velocity": 1,
      "duration": "64i"
    },
    {
      "time": "192i",
      "midiNote": 34,
      "noteName": "A#1",
      "velocity": 1,
      "duration": "64i"
    },
    {
      "time": "256i",
      "midiNote": 22,
      "noteName": "A#0",
      "velocity": 1,
      "duration": "64i"
    },
    {
      "time": "256i",
      "midiNote": 34,
      "noteName": "A#1",
      "velocity": 1,
      "duration": "64i"
    },
    {
      "time": "320i",
      "midiNote": 22,
      "noteName": "A#0",
      "velocity": 1,
      "duration": "64i"
    },
    {
      "time": "320i",
      "midiNote": 34,
      "noteName": "A#1",
      "velocity": 1,
      "duration": "64i"
    },
    {
      "time": "384i",
      "midiNote": 22,
      "noteName": "A#0",
      "velocity": 1,
      "duration": "192i"
    },
    {
      "time": "384i",
      "midiNote": 34,
      "noteName": "A#1",
      "velocity": 1,
      "duration": "192i"
    },
    {
      "time": "576i",
      "midiNote": 58,
      "noteName": "A#3",
      "velocity": 1,
      "duration": "192i"
    },
    {
      "time": "576i",
      "midiNote": 62,
      "noteName": "D4",
      "velocity": 1,
      "duration": "192i"
    },
    {
      "time": "576i",
      "midiNote": 65,
      "noteName": "F4",
      "velocity": 1,
      "duration": "192i"
    },
    {
      "time": "768i",
      "midiNote": 56,
      "noteName": "G#3",
      "velocity": 1,
      "duration": "192i"
    },
    {
      "time": "768i",
      "midiNote": 60,
      "noteName": "C4",
      "velocity": 1,
      "duration": "192i"
    },
    {
      "time": "768i",
      "midiNote": 63,
      "noteName": "D#4",
      "velocity": 1,
      "duration": "192i"
    },
    {
      "time": "1024i",
      "midiNote": 56,
      "noteName": "G#3",
      "velocity": 0.8740157480314961,
      "duration": "64i"
    },
    {
      "time": "1024i",
      "midiNote": 60,
      "noteName": "C4",
      "velocity": 0.8740157480314961,
      "duration": "64i"
    },
    {
      "time": "1024i",
      "midiNote": 63,
      "noteName": "D#4",
      "velocity": 0.8740157480314961,
      "duration": "64i"
    },
    {
      "time": "1088i",
      "midiNote": 56,
      "noteName": "G#3",
      "velocity": 0.9763779527559056,
      "duration": "64i"
    },
    {
      "time": "1088i",
      "midiNote": 60,
      "noteName": "C4",
      "velocity": 0.9763779527559056,
      "duration": "64i"
    },
    {
      "time": "1088i",
      "midiNote": 63,
      "noteName": "D#4",
      "velocity": 0.9763779527559056,
      "duration": "64i"
    },
    {
      "time": "1152i",
      "midiNote": 56,
      "noteName": "G#3",
      "velocity": 1,
      "duration": "192i"
    },
    {
      "time": "1152i",
      "midiNote": 60,
      "noteName": "C4",
      "velocity": 1,
      "duration": "192i"
    },
    {
      "time": "1152i",
      "midiNote": 63,
      "noteName": "D#4",
      "velocity": 1,
      "duration": "192i"
    },
    {
      "time": "1344i",
      "midiNote": 56,
      "noteName": "G#3",
      "velocity": 1,
      "duration": "192i"
    },
    {
      "time": "1344i",
      "midiNote": 60,
      "noteName": "C4",
      "velocity": 1,
      "duration": "192i"
    },
    {
      "time": "1344i",
      "midiNote": 63,
      "noteName": "D#4",
      "velocity": 1,
      "duration": "192i"
    },
    {
      "time": "1600i",
      "midiNote": 54,
      "noteName": "F#3",
      "velocity": 1,
      "duration": "64i"
    },
    {
      "time": "1600i",
      "midiNote": 66,
      "noteName": "F#4",
      "velocity": 1,
      "duration": "64i"
    },
    {
      "time": "1664i",
      "midiNote": 53,
      "noteName": "F3",
      "velocity": 1,
      "duration": "64i"
    },
    {
      "time": "1664i",
      "midiNote": 65,
      "noteName": "F4",
      "velocity": 1,
      "duration": "64i"
    },
    {
      "time": "1728i",
      "midiNote": 49,
      "noteName": "C#3",
      "velocity": 1,
      "duration": "64i"
    },
    {
      "time": "1728i",
      "midiNote": 61,
      "noteName": "C#4",
      "velocity": 1,
      "duration": "64i"
    },
    {
      "time": "1792i",
      "midiNote": 48,
      "noteName": "C3",
      "velocity": 1,
      "duration": "64i"
    },
    {
      "time": "1792i",
      "midiNote": 60,
      "noteName": "C4",
      "velocity": 1,
      "duration": "64i"
    },
    {
      "time": "1856i",
      "midiNote": 46,
      "noteName": "A#2",
      "velocity": 1,
      "duration": "64i"
    },
    {
      "time": "1856i",
      "midiNote": 58,
      "noteName": "A#3",
      "velocity": 1,
      "duration": "64i"
    },
    {
      "time": "1920i",
      "midiNote": 45,
      "noteName": "A2",
      "velocity": 1,
      "duration": "64i"
    },
    {
      "time": "1920i",
      "midiNote": 57,
      "noteName": "A3",
      "velocity": 1,
      "duration": "64i"
    },
    {
      "time": "1984i",
      "midiNote": 42,
      "noteName": "F#2",
      "velocity": 1,
      "duration": "64i"
    },
    {
      "time": "1984i",
      "midiNote": 54,
      "noteName": "F#3",
      "velocity": 1,
      "duration": "64i"
    },
    {
      "time": "2048i",
      "midiNote": 41,
      "noteName": "F2",
      "velocity": 1,
      "duration": "64i"
    },
    {
      "time": "2048i",
      "midiNote": 53,
      "noteName": "F3",
      "velocity": 1,
      "duration": "64i"
    },
    {
      "time": "2112i",
      "midiNote": 37,
      "noteName": "C#2",
      "velocity": 1,
      "duration": "64i"
    },
    {
      "time": "2112i",
      "midiNote": 49,
      "noteName": "C#3",
      "velocity": 1,
      "duration": "64i"
    },
    {
      "time": "2176i",
      "midiNote": 34,
      "noteName": "A#1",
      "velocity": 1,
      "duration": "64i"
    },
    {
      "time": "2176i",
      "midiNote": 46,
      "noteName": "A#2",
      "velocity": 1,
      "duration": "64i"
    },
    {
      "time": "2240i",
      "midiNote": 30,
      "noteName": "F#1",
      "velocity": 1,
      "duration": "64i"
    },
    {
      "time": "2240i",
      "midiNote": 42,
      "noteName": "F#2",
      "velocity": 1,
      "duration": "64i"
    },
    {
      "time": "2304i",
      "midiNote": 29,
      "noteName": "F1",
      "velocity": 0.968503937007874,
      "duration": "192i"
    },
    {
      "time": "2304i",
      "midiNote": 41,
      "noteName": "F2",
      "velocity": 0.968503937007874,
      "duration": "192i"
    },
    {
      "time": "2496i",
      "midiNote": 63,
      "noteName": "D#4",
      "velocity": 1,
      "duration": "48i"
    },
    {
      "time": "2544i",
      "midiNote": 60,
      "noteName": "C4",
      "velocity": 0.968503937007874,
      "duration": "48i"
    },
    {
      "time": "2592i",
      "midiNote": 57,
      "noteName": "A3",
      "velocity": 0.952755905511811,
      "duration": "48i"
    },
    {
      "time": "2640i",
      "midiNote": 55,
      "noteName": "G3",
      "velocity": 0.9763779527559056,
      "duration": "48i"
    },
    {
      "time": "2688i",
      "midiNote": 53,
      "noteName": "F3",
      "velocity": 0.9448818897637795,
      "duration": "48i"
    },
    {
      "time": "2736i",
      "midiNote": 48,
      "noteName": "C3",
      "velocity": 0.952755905511811,
      "duration": "48i"
    },
    {
      "time": "2784i",
      "midiNote": 45,
      "noteName": "A2",
      "velocity": 0.9448818897637795,
      "duration": "48i"
    },
    {
      "time": "2832i",
      "midiNote": 43,
      "noteName": "G2",
      "velocity": 0.9212598425196851,
      "duration": "48i"
    },
    {
      "time": "2880i",
      "midiNote": 41,
      "noteName": "F2",
      "velocity": 0.968503937007874,
      "duration": "48i"
    },
    {
      "time": "2928i",
      "midiNote": 29,
      "noteName": "F1",
      "velocity": 0.8661417322834646,
      "duration": "48i"
    },
    {
      "time": "2976i",
      "midiNote": 41,
      "noteName": "F2",
      "velocity": 1,
      "duration": "48i"
    },
    {
      "time": "3024i",
      "midiNote": 29,
      "noteName": "F1",
      "velocity": 0.8818897637795275,
      "duration": "48i"
    },
    {
      "time": "3072i",
      "midiNote": 22,
      "noteName": "A#0",
      "velocity": 1,
      "duration": "288i"
    },
    {
      "time": "3072i",
      "midiNote": 34,
      "noteName": "A#1",
      "velocity": 1,
      "duration": "288i"
    },
    {
      "time": "3360i",
      "midiNote": 58,
      "noteName": "A#3",
      "velocity": 1,
      "duration": "48i"
    },
    {
      "time": "3408i",
      "midiNote": 53,
      "noteName": "F3",
      "velocity": 0.968503937007874,
      "duration": "48i"
    },
    {
      "time": "3456i",
      "midiNote": 50,
      "noteName": "D3",
      "velocity": 0.937007874015748,
      "duration": "48i"
    },
    {
      "time": "3504i",
      "midiNote": 48,
      "noteName": "C3",
      "velocity": 0.9606299212598425,
      "duration": "48i"
    },
    {
      "time": "3552i",
      "midiNote": 46,
      "noteName": "A#2",
      "velocity": 1,
      "duration": "48i"
    },
    {
      "time": "3600i",
      "midiNote": 34,
      "noteName": "A#1",
      "velocity": 0.8503937007874016,
      "duration": "48i"
    },
    {
      "time": "3648i",
      "midiNote": 34,
      "noteName": "A#1",
      "velocity": 1,
      "duration": "192i"
    },
    {
      "time": "3648i",
      "midiNote": 46,
      "noteName": "A#2",
      "velocity": 1,
      "duration": "192i"
    },
    {
      "time": "3840i",
      "midiNote": 32,
      "noteName": "G#1",
      "velocity": 0.984251968503937,
      "duration": "384i"
    },
    {
      "time": "3840i",
      "midiNote": 44,
      "noteName": "G#2",
      "velocity": 0.984251968503937,
      "duration": "384i"
    },
    {
      "time": "4224i",
      "midiNote": 44,
      "noteName": "G#2",
      "velocity": 1,
      "duration": "192i"
    },
    {
      "time": "4224i",
      "midiNote": 48,
      "noteName": "C3",
      "velocity": 1,
      "duration": "192i"
    },
    {
      "time": "4224i",
      "midiNote": 51,
      "noteName": "D#3",
      "velocity": 1,
      "duration": "192i"
    },
    {
      "time": "4224i",
      "midiNote": 56,
      "noteName": "G#3",
      "velocity": 1,
      "duration": "192i"
    },
    {
      "time": "4416i",
      "midiNote": 32,
      "noteName": "G#1",
      "velocity": 0.9212598425196851,
      "duration": "192i"
    },
    {
      "time": "4416i",
      "midiNote": 44,
      "noteName": "G#2",
      "velocity": 0.9212598425196851,
      "duration": "192i"
    },
    {
      "time": "4608i",
      "midiNote": 30,
      "noteName": "F#1",
      "velocity": 0.937007874015748,
      "duration": "192i"
    },
    {
      "time": "4608i",
      "midiNote": 42,
      "noteName": "F#2",
      "velocity": 0.937007874015748,
      "duration": "192i"
    },
    {
      "time": "4800i",
      "midiNote": 42,
      "noteName": "F#2",
      "velocity": 1,
      "duration": "192i"
    },
    {
      "time": "4800i",
      "midiNote": 49,
      "noteName": "C#3",
      "velocity": 1,
      "duration": "192i"
    },
    {
      "time": "4800i",
      "midiNote": 54,
      "noteName": "F#3",
      "velocity": 1,
      "duration": "192i"
    },
    {
      "time": "4992i",
      "midiNote": 30,
      "noteName": "F#1",
      "velocity": 0.8740157480314961,
      "duration": "192i"
    },
    {
      "time": "4992i",
      "midiNote": 42,
      "noteName": "F#2",
      "velocity": 0.8740157480314961,
      "duration": "192i"
    },
    {
      "time": "5184i",
      "midiNote": 73,
      "noteName": "C#5",
      "velocity": 1,
      "duration": "192i"
    },
    {
      "time": "5376i",
      "midiNote": 25,
      "noteName": "C#1",
      "velocity": 0.9212598425196851,
      "duration": "192i"
    },
    {
      "time": "5376i",
      "midiNote": 37,
      "noteName": "C#2",
      "velocity": 0.9212598425196851,
      "duration": "192i"
    },
    {
      "time": "5632i",
      "midiNote": 37,
      "noteName": "C#2",
      "velocity": 0.937007874015748,
      "duration": "64i"
    },
    {
      "time": "5696i",
      "midiNote": 49,
      "noteName": "C#3",
      "velocity": 1,
      "duration": "64i"
    },
    {
      "time": "5760i",
      "midiNote": 53,
      "noteName": "F3",
      "velocity": 1,
      "duration": "64i"
    },
    {
      "time": "5824i",
      "midiNote": 56,
      "noteName": "G#3",
      "velocity": 1,
      "duration": "64i"
    },
    {
      "time": "5888i",
      "midiNote": 61,
      "noteName": "C#4",
      "velocity": 1,
      "duration": "64i"
    },
    {
      "time": "5952i",
      "midiNote": 65,
      "noteName": "F4",
      "velocity": 1,
      "duration": "192i"
    },
    {
      "time": "6144i",
      "midiNote": 35,
      "noteName": "B1",
      "velocity": 0.889763779527559,
      "duration": "48i"
    },
    {
      "time": "6192i",
      "midiNote": 42,
      "noteName": "F#2",
      "velocity": 1,
      "duration": "48i"
    },
    {
      "time": "6240i",
      "midiNote": 47,
      "noteName": "B2",
      "velocity": 1,
      "duration": "48i"
    },
    {
      "time": "6288i",
      "midiNote": 51,
      "noteName": "D#3",
      "velocity": 1,
      "duration": "48i"
    },
    {
      "time": "6336i",
      "midiNote": 54,
      "noteName": "F#3",
      "velocity": 1,
      "duration": "48i"
    },
    {
      "time": "6384i",
      "midiNote": 59,
      "noteName": "B3",
      "velocity": 1,
      "duration": "48i"
    },
    {
      "time": "6432i",
      "midiNote": 54,
      "noteName": "F#3",
      "velocity": 0.9606299212598425,
      "duration": "48i"
    },
    {
      "time": "6480i",
      "midiNote": 51,
      "noteName": "D#3",
      "velocity": 0.9763779527559056,
      "duration": "48i"
    },
    {
      "time": "6528i",
      "midiNote": 47,
      "noteName": "B2",
      "velocity": 0.9448818897637795,
      "duration": "48i"
    },
    {
      "time": "6576i",
      "midiNote": 35,
      "noteName": "B1",
      "velocity": 0.8740157480314961,
      "duration": "48i"
    },
    {
      "time": "6624i",
      "midiNote": 47,
      "noteName": "B2",
      "velocity": 1,
      "duration": "48i"
    },
    {
      "time": "6672i",
      "midiNote": 35,
      "noteName": "B1",
      "velocity": 0.8346456692913385,
      "duration": "48i"
    },
    {
      "time": "6720i",
      "midiNote": 47,
      "noteName": "B2",
      "velocity": 1,
      "duration": "48i"
    },
    {
      "time": "6768i",
      "midiNote": 35,
      "noteName": "B1",
      "velocity": 0.9291338582677166,
      "duration": "48i"
    },
    {
      "time": "6816i",
      "midiNote": 47,
      "noteName": "B2",
      "velocity": 1,
      "duration": "48i"
    },
    {
      "time": "6864i",
      "midiNote": 35,
      "noteName": "B1",
      "velocity": 0.889763779527559,
      "duration": "48i"
    },
    {
      "time": "6912i",
      "midiNote": 34,
      "noteName": "A#1",
      "velocity": 1,
      "duration": "192i"
    },
    {
      "time": "6912i",
      "midiNote": 46,
      "noteName": "A#2",
      "velocity": 1,
      "duration": "192i"
    },
    {
      "time": "7152i",
      "midiNote": 58,
      "noteName": "A#3",
      "velocity": 0.9133858267716536,
      "duration": "48i"
    },
    {
      "time": "7200i",
      "midiNote": 53,
      "noteName": "F3",
      "velocity": 0.905511811023622,
      "duration": "48i"
    },
    {
      "time": "7248i",
      "midiNote": 49,
      "noteName": "C#3",
      "velocity": 0.937007874015748,
      "duration": "48i"
    },
    {
      "time": "7296i",
      "midiNote": 46,
      "noteName": "A#2",
      "velocity": 0.9763779527559056,
      "duration": "48i"
    },
    {
      "time": "7344i",
      "midiNote": 34,
      "noteName": "A#1",
      "velocity": 0.8582677165354331,
      "duration": "48i"
    },
    {
      "time": "7392i",
      "midiNote": 46,
      "noteName": "A#2",
      "velocity": 1,
      "duration": "48i"
    },
    {
      "time": "7440i",
      "midiNote": 34,
      "noteName": "A#1",
      "velocity": 0.84251968503937,
      "duration": "48i"
    },
    {
      "time": "7488i",
      "midiNote": 34,
      "noteName": "A#1",
      "velocity": 1,
      "duration": "192i"
    },
    {
      "time": "7488i",
      "midiNote": 46,
      "noteName": "A#2",
      "velocity": 1,
      "duration": "192i"
    },
    {
      "time": "7680i",
      "midiNote": 36,
      "noteName": "C2",
      "velocity": 0.8818897637795275,
      "duration": "48i"
    },
    {
      "time": "7728i",
      "midiNote": 43,
      "noteName": "G2",
      "velocity": 1,
      "duration": "48i"
    },
    {
      "time": "7776i",
      "midiNote": 48,
      "noteName": "C3",
      "velocity": 1,
      "duration": "48i"
    },
    {
      "time": "7824i",
      "midiNote": 52,
      "noteName": "E3",
      "velocity": 1,
      "duration": "48i"
    },
    {
      "time": "7872i",
      "midiNote": 55,
      "noteName": "G3",
      "velocity": 1,
      "duration": "48i"
    },
    {
      "time": "7920i",
      "midiNote": 60,
      "noteName": "C4",
      "velocity": 1,
      "duration": "48i"
    },
    {
      "time": "7968i",
      "midiNote": 64,
      "noteName": "E4",
      "velocity": 1,
      "duration": "192i"
    },
    {
      "time": "8160i",
      "midiNote": 72,
      "noteName": "C5",
      "velocity": 1,
      "duration": "48i"
    },
    {
      "time": "8208i",
      "midiNote": 67,
      "noteName": "G4",
      "velocity": 0.8976377952755905,
      "duration": "48i"
    },
    {
      "time": "8256i",
      "midiNote": 64,
      "noteName": "E4",
      "velocity": 0.9133858267716536,
      "duration": "48i"
    },
    {
      "time": "8304i",
      "midiNote": 62,
      "noteName": "D4",
      "velocity": 0.9763779527559056,
      "duration": "144i"
    },
    {
      "time": "8448i",
      "midiNote": 29,
      "noteName": "F1",
      "velocity": 0.8503937007874016,
      "duration": "192i"
    },
    {
      "time": "8448i",
      "midiNote": 36,
      "noteName": "C2",
      "velocity": 0.8503937007874016,
      "duration": "192i"
    },
    {
      "time": "8736i",
      "midiNote": 63,
      "noteName": "D#4",
      "velocity": 1,
      "duration": "24i"
    },
    {
      "time": "8760i",
      "midiNote": 65,
      "noteName": "F4",
      "velocity": 1,
      "duration": "24i"
    },
    {
      "time": "8784i",
      "midiNote": 69,
      "noteName": "A4",
      "velocity": 1,
      "duration": "24i"
    },
    {
      "time": "8808i",
      "midiNote": 72,
      "noteName": "C5",
      "velocity": 1,
      "duration": "24i"
    },
    {
      "time": "9024i",
      "midiNote": 75,
      "noteName": "D#5",
      "velocity": 0.937007874015748,
      "duration": "24i"
    },
    {
      "time": "9048i",
      "midiNote": 72,
      "noteName": "C5",
      "velocity": 0.905511811023622,
      "duration": "24i"
    },
    {
      "time": "9072i",
      "midiNote": 69,
      "noteName": "A4",
      "velocity": 0.9133858267716536,
      "duration": "24i"
    },
    {
      "time": "9096i",
      "midiNote": 65,
      "noteName": "F4",
      "velocity": 0.8740157480314961,
      "duration": "24i"
    },
    {
      "time": "9312i",
      "midiNote": 22,
      "noteName": "A#0",
      "velocity": 0.889763779527559,
      "duration": "288i"
    },
    {
      "time": "9312i",
      "midiNote": 34,
      "noteName": "A#1",
      "velocity": 0.889763779527559,
      "duration": "288i"
    },
    {
      "time": "9600i",
      "midiNote": 58,
      "noteName": "A#3",
      "velocity": 1,
      "duration": "48i"
    },
    {
      "time": "9648i",
      "midiNote": 53,
      "noteName": "F3",
      "velocity": 0.937007874015748,
      "duration": "48i"
    },
    {
      "time": "9696i",
      "midiNote": 50,
      "noteName": "D3",
      "velocity": 0.9606299212598425,
      "duration": "48i"
    },
    {
      "time": "9744i",
      "midiNote": 48,
      "noteName": "C3",
      "velocity": 0.9763779527559056,
      "duration": "48i"
    },
    {
      "time": "9792i",
      "midiNote": 46,
      "noteName": "A#2",
      "velocity": 0.937007874015748,
      "duration": "48i"
    },
    {
      "time": "9840i",
      "midiNote": 34,
      "noteName": "A#1",
      "velocity": 0.905511811023622,
      "duration": "240i"
    },
    {
      "time": "10080i",
      "midiNote": 32,
      "noteName": "G#1",
      "velocity": 1,
      "duration": "384i"
    },
    {
      "time": "10080i",
      "midiNote": 44,
      "noteName": "G#2",
      "velocity": 1,
      "duration": "384i"
    },
    {
      "time": "10464i",
      "midiNote": 44,
      "noteName": "G#2",
      "velocity": 1,
      "duration": "192i"
    },
    {
      "time": "10464i",
      "midiNote": 48,
      "noteName": "C3",
      "velocity": 1,
      "duration": "192i"
    },
    {
      "time": "10464i",
      "midiNote": 51,
      "noteName": "D#3",
      "velocity": 1,
      "duration": "192i"
    },
    {
      "time": "10464i",
      "midiNote": 56,
      "noteName": "G#3",
      "velocity": 1,
      "duration": "192i"
    },
    {
      "time": "10656i",
      "midiNote": 32,
      "noteName": "G#1",
      "velocity": 0.889763779527559,
      "duration": "192i"
    },
    {
      "time": "10656i",
      "midiNote": 44,
      "noteName": "G#2",
      "velocity": 0.889763779527559,
      "duration": "192i"
    },
    {
      "time": "10848i",
      "midiNote": 30,
      "noteName": "F#1",
      "velocity": 0.9448818897637795,
      "duration": "192i"
    },
    {
      "time": "10848i",
      "midiNote": 42,
      "noteName": "F#2",
      "velocity": 0.9448818897637795,
      "duration": "192i"
    },
    {
      "time": "11040i",
      "midiNote": 54,
      "noteName": "F#3",
      "velocity": 1,
      "duration": "64i"
    },
    {
      "time": "11104i",
      "midiNote": 49,
      "noteName": "C#3",
      "velocity": 0.968503937007874,
      "duration": "64i"
    },
    {
      "time": "11168i",
      "midiNote": 46,
      "noteName": "A#2",
      "velocity": 1,
      "duration": "64i"
    },
    {
      "time": "11232i",
      "midiNote": 42,
      "noteName": "F#2",
      "velocity": 0.968503937007874,
      "duration": "64i"
    },
    {
      "time": "11296i",
      "midiNote": 30,
      "noteName": "F#1",
      "velocity": 0.8346456692913385,
      "duration": "64i"
    },
    {
      "time": "11360i",
      "midiNote": 42,
      "noteName": "F#2",
      "velocity": 1,
      "duration": "64i"
    },
    {
      "time": "11424i",
      "midiNote": 30,
      "noteName": "F#1",
      "velocity": 1,
      "duration": "192i"
    },
    {
      "time": "11424i",
      "midiNote": 42,
      "noteName": "F#2",
      "velocity": 1,
      "duration": "192i"
    },
    {
      "time": "11616i",
      "midiNote": 29,
      "noteName": "F1",
      "velocity": 0.984251968503937,
      "duration": "192i"
    },
    {
      "time": "11616i",
      "midiNote": 41,
      "noteName": "F2",
      "velocity": 0.984251968503937,
      "duration": "192i"
    },
    {
      "time": "11808i",
      "midiNote": 29,
      "noteName": "F1",
      "velocity": 1,
      "duration": "64i"
    },
    {
      "time": "11808i",
      "midiNote": 41,
      "noteName": "F2",
      "velocity": 1,
      "duration": "64i"
    },
    {
      "time": "11872i",
      "midiNote": 29,
      "noteName": "F1",
      "velocity": 0.9921259842519685,
      "duration": "64i"
    },
    {
      "time": "11872i",
      "midiNote": 41,
      "noteName": "F2",
      "velocity": 0.9921259842519685,
      "duration": "64i"
    },
    {
      "time": "11936i",
      "midiNote": 27,
      "noteName": "D#1",
      "velocity": 0.9606299212598425,
      "duration": "64i"
    },
    {
      "time": "11936i",
      "midiNote": 39,
      "noteName": "D#2",
      "velocity": 0.9606299212598425,
      "duration": "64i"
    },
    {
      "time": "12000i",
      "midiNote": 29,
      "noteName": "F1",
      "velocity": 1,
      "duration": "192i"
    },
    {
      "time": "12000i",
      "midiNote": 41,
      "noteName": "F2",
      "velocity": 1,
      "duration": "192i"
    },
    {
      "time": "12192i",
      "midiNote": 29,
      "noteName": "F1",
      "velocity": 0.9921259842519685,
      "duration": "64i"
    },
    {
      "time": "12192i",
      "midiNote": 41,
      "noteName": "F2",
      "velocity": 0.9921259842519685,
      "duration": "64i"
    },
    {
      "time": "12256i",
      "midiNote": 29,
      "noteName": "F1",
      "velocity": 1,
      "duration": "64i"
    },
    {
      "time": "12256i",
      "midiNote": 41,
      "noteName": "F2",
      "velocity": 1,
      "duration": "64i"
    },
    {
      "time": "12320i",
      "midiNote": 29,
      "noteName": "F1",
      "velocity": 1,
      "duration": "64i"
    },
    {
      "time": "12320i",
      "midiNote": 41,
      "noteName": "F2",
      "velocity": 1,
      "duration": "64i"
    },
    {
      "time": "12384i",
      "midiNote": 28,
      "noteName": "E1",
      "velocity": 1,
      "duration": "64i"
    },
    {
      "time": "12384i",
      "midiNote": 40,
      "noteName": "E2",
      "velocity": 1,
      "duration": "64i"
    },
    {
      "time": "12448i",
      "midiNote": 34,
      "noteName": "A#1",
      "velocity": 1,
      "duration": "64i"
    },
    {
      "time": "12448i",
      "midiNote": 46,
      "noteName": "A#2",
      "velocity": 1,
      "duration": "64i"
    },
    {
      "time": "12512i",
      "midiNote": 35,
      "noteName": "B1",
      "velocity": 1,
      "duration": "64i"
    },
    {
      "time": "12512i",
      "midiNote": 47,
      "noteName": "B2",
      "velocity": 1,
      "duration": "64i"
    },
    {
      "time": "12576i",
      "midiNote": 39,
      "noteName": "D#2",
      "velocity": 1,
      "duration": "64i"
    },
    {
      "time": "12576i",
      "midiNote": 51,
      "noteName": "D#3",
      "velocity": 1,
      "duration": "64i"
    },
    {
      "time": "12640i",
      "midiNote": 40,
      "noteName": "E2",
      "velocity": 1,
      "duration": "64i"
    },
    {
      "time": "12640i",
      "midiNote": 52,
      "noteName": "E3",
      "velocity": 1,
      "duration": "64i"
    },
    {
      "time": "12704i",
      "midiNote": 46,
      "noteName": "A#2",
      "velocity": 1,
      "duration": "64i"
    },
    {
      "time": "12704i",
      "midiNote": 58,
      "noteName": "A#3",
      "velocity": 1,
      "duration": "64i"
    },
    {
      "time": "12768i",
      "midiNote": 47,
      "noteName": "B2",
      "velocity": 1,
      "duration": "192i"
    },
    {
      "time": "12768i",
      "midiNote": 59,
      "noteName": "B3",
      "velocity": 1,
      "duration": "192i"
    },
    {
      "time": "13024i",
      "midiNote": 59,
      "noteName": "B3",
      "velocity": 0.9133858267716536,
      "duration": "64i"
    },
    {
      "time": "13088i",
      "midiNote": 47,
      "noteName": "B2",
      "velocity": 0.8503937007874016,
      "duration": "64i"
    },
    {
      "time": "13152i",
      "midiNote": 29,
      "noteName": "F1",
      "velocity": 0.8818897637795275,
      "duration": "192i"
    },
    {
      "time": "13152i",
      "midiNote": 41,
      "noteName": "F2",
      "velocity": 0.8818897637795275,
      "duration": "192i"
    },
    {
      "time": "13440i",
      "midiNote": 51,
      "noteName": "D#3",
      "velocity": 0.9212598425196851,
      "duration": "48i"
    },
    {
      "time": "13488i",
      "midiNote": 48,
      "noteName": "C3",
      "velocity": 0.937007874015748,
      "duration": "48i"
    },
    {
      "time": "13536i",
      "midiNote": 45,
      "noteName": "A2",
      "velocity": 0.968503937007874,
      "duration": "48i"
    },
    {
      "time": "13584i",
      "midiNote": 43,
      "noteName": "G2",
      "velocity": 0.9921259842519685,
      "duration": "48i"
    },
    {
      "time": "13632i",
      "midiNote": 41,
      "noteName": "F2",
      "velocity": 0.952755905511811,
      "duration": "48i"
    },
    {
      "time": "13680i",
      "midiNote": 29,
      "noteName": "F1",
      "velocity": 0.8503937007874016,
      "duration": "48i"
    },
    {
      "time": "13728i",
      "midiNote": 41,
      "noteName": "F2",
      "velocity": 1,
      "duration": "48i"
    },
    {
      "time": "13776i",
      "midiNote": 29,
      "noteName": "F1",
      "velocity": 0.8976377952755905,
      "duration": "48i"
    },
    {
      "time": "13824i",
      "midiNote": 41,
      "noteName": "F2",
      "velocity": 1,
      "duration": "48i"
    },
    {
      "time": "13872i",
      "midiNote": 29,
      "noteName": "F1",
      "velocity": 0.8976377952755905,
      "duration": "48i"
    },
    {
      "time": "13920i",
      "midiNote": 28,
      "noteName": "E1",
      "velocity": 1,
      "duration": "64i"
    },
    {
      "time": "13920i",
      "midiNote": 40,
      "noteName": "E2",
      "velocity": 1,
      "duration": "64i"
    },
    {
      "time": "13984i",
      "midiNote": 34,
      "noteName": "A#1",
      "velocity": 1,
      "duration": "64i"
    },
    {
      "time": "13984i",
      "midiNote": 46,
      "noteName": "A#2",
      "velocity": 1,
      "duration": "64i"
    },
    {
      "time": "14048i",
      "midiNote": 39,
      "noteName": "D#2",
      "velocity": 1,
      "duration": "64i"
    },
    {
      "time": "14048i",
      "midiNote": 51,
      "noteName": "D#3",
      "velocity": 1,
      "duration": "64i"
    },
    {
      "time": "14112i",
      "midiNote": 40,
      "noteName": "E2",
      "velocity": 1,
      "duration": "64i"
    },
    {
      "time": "14112i",
      "midiNote": 52,
      "noteName": "E3",
      "velocity": 1,
      "duration": "64i"
    },
    {
      "time": "14176i",
      "midiNote": 46,
      "noteName": "A#2",
      "velocity": 1,
      "duration": "64i"
    },
    {
      "time": "14176i",
      "midiNote": 58,
      "noteName": "A#3",
      "velocity": 1,
      "duration": "64i"
    },
    {
      "time": "14240i",
      "midiNote": 51,
      "noteName": "D#3",
      "velocity": 1,
      "duration": "64i"
    },
    {
      "time": "14240i",
      "midiNote": 63,
      "noteName": "D#4",
      "velocity": 1,
      "duration": "64i"
    },
    {
      "time": "14304i",
      "midiNote": 52,
      "noteName": "E3",
      "velocity": 1,
      "duration": "192i"
    },
    {
      "time": "14304i",
      "midiNote": 64,
      "noteName": "E4",
      "velocity": 1,
      "duration": "192i"
    },
    {
      "time": "14560i",
      "midiNote": 64,
      "noteName": "E4",
      "velocity": 0.889763779527559,
      "duration": "64i"
    },
    {
      "time": "14624i",
      "midiNote": 64,
      "noteName": "E4",
      "velocity": 0.968503937007874,
      "duration": "64i"
    },
    {
      "time": "14688i",
      "midiNote": 65,
      "noteName": "F4",
      "velocity": 1,
      "duration": "64i"
    },
    {
      "time": "14752i",
      "midiNote": 60,
      "noteName": "C4",
      "velocity": 0.8740157480314961,
      "duration": "64i"
    },
    {
      "time": "14816i",
      "midiNote": 57,
      "noteName": "A3",
      "velocity": 0.9133858267716536,
      "duration": "64i"
    },
    {
      "time": "14880i",
      "midiNote": 53,
      "noteName": "F3",
      "velocity": 0.968503937007874,
      "duration": "64i"
    },
    {
      "time": "14944i",
      "midiNote": 48,
      "noteName": "C3",
      "velocity": 0.952755905511811,
      "duration": "64i"
    },
    {
      "time": "15008i",
      "midiNote": 45,
      "noteName": "A2",
      "velocity": 0.9606299212598425,
      "duration": "64i"
    },
    {
      "time": "15072i",
      "midiNote": 41,
      "noteName": "F2",
      "velocity": 0.9606299212598425,
      "duration": "64i"
    },
    {
      "time": "15136i",
      "midiNote": 29,
      "noteName": "F1",
      "velocity": 0.8503937007874016,
      "duration": "64i"
    },
    {
      "time": "15200i",
      "midiNote": 41,
      "noteName": "F2",
      "velocity": 1,
      "duration": "64i"
    },
    {
      "time": "15264i",
      "midiNote": 29,
      "noteName": "F1",
      "velocity": 0.8818897637795275,
      "duration": "64i"
    },
    {
      "time": "15328i",
      "midiNote": 41,
      "noteName": "F2",
      "velocity": 1,
      "duration": "64i"
    },
    {
      "time": "15392i",
      "midiNote": 29,
      "noteName": "F1",
      "velocity": 0.8740157480314961,
      "duration": "64i"
    },
    {
      "time": "15456i",
      "midiNote": 35,
      "noteName": "B1",
      "velocity": 1,
      "duration": "192i"
    },
    {
      "time": "15456i",
      "midiNote": 47,
      "noteName": "B2",
      "velocity": 1,
      "duration": "192i"
    },
    {
      "time": "15648i",
      "midiNote": 35,
      "noteName": "B1",
      "velocity": 1,
      "duration": "64i"
    },
    {
      "time": "15648i",
      "midiNote": 47,
      "noteName": "B2",
      "velocity": 1,
      "duration": "64i"
    },
    {
      "time": "15712i",
      "midiNote": 35,
      "noteName": "B1",
      "velocity": 0.968503937007874,
      "duration": "64i"
    },
    {
      "time": "15712i",
      "midiNote": 47,
      "noteName": "B2",
      "velocity": 0.968503937007874,
      "duration": "64i"
    },
    {
      "time": "15776i",
      "midiNote": 34,
      "noteName": "A#1",
      "velocity": 0.984251968503937,
      "duration": "64i"
    },
    {
      "time": "15776i",
      "midiNote": 46,
      "noteName": "A#2",
      "velocity": 0.984251968503937,
      "duration": "64i"
    },
    {
      "time": "15840i",
      "midiNote": 35,
      "noteName": "B1",
      "velocity": 1,
      "duration": "192i"
    },
    {
      "time": "15840i",
      "midiNote": 47,
      "noteName": "B2",
      "velocity": 1,
      "duration": "192i"
    },
    {
      "time": "16032i",
      "midiNote": 35,
      "noteName": "B1",
      "velocity": 1,
      "duration": "64i"
    },
    {
      "time": "16032i",
      "midiNote": 47,
      "noteName": "B2",
      "velocity": 1,
      "duration": "64i"
    },
    {
      "time": "16096i",
      "midiNote": 35,
      "noteName": "B1",
      "velocity": 1,
      "duration": "64i"
    },
    {
      "time": "16096i",
      "midiNote": 47,
      "noteName": "B2",
      "velocity": 1,
      "duration": "64i"
    },
    {
      "time": "16160i",
      "midiNote": 35,
      "noteName": "B1",
      "velocity": 0.9921259842519685,
      "duration": "64i"
    },
    {
      "time": "16160i",
      "midiNote": 47,
      "noteName": "B2",
      "velocity": 0.9921259842519685,
      "duration": "64i"
    },
    {
      "time": "16224i",
      "midiNote": 34,
      "noteName": "A#1",
      "velocity": 0.9763779527559056,
      "duration": "192i"
    },
    {
      "time": "16224i",
      "midiNote": 46,
      "noteName": "A#2",
      "velocity": 0.9763779527559056,
      "duration": "192i"
    },
    {
      "time": "16416i",
      "midiNote": 34,
      "noteName": "A#1",
      "velocity": 1,
      "duration": "64i"
    },
    {
      "time": "16416i",
      "midiNote": 46,
      "noteName": "A#2",
      "velocity": 1,
      "duration": "64i"
    },
    {
      "time": "16480i",
      "midiNote": 34,
      "noteName": "A#1",
      "velocity": 1,
      "duration": "64i"
    },
    {
      "time": "16480i",
      "midiNote": 46,
      "noteName": "A#2",
      "velocity": 1,
      "duration": "64i"
    },
    {
      "time": "16544i",
      "midiNote": 32,
      "noteName": "G#1",
      "velocity": 0.984251968503937,
      "duration": "64i"
    },
    {
      "time": "16544i",
      "midiNote": 44,
      "noteName": "G#2",
      "velocity": 0.984251968503937,
      "duration": "64i"
    },
    {
      "time": "16608i",
      "midiNote": 34,
      "noteName": "A#1",
      "velocity": 1,
      "duration": "192i"
    },
    {
      "time": "16608i",
      "midiNote": 46,
      "noteName": "A#2",
      "velocity": 1,
      "duration": "192i"
    },
    {
      "time": "16800i",
      "midiNote": 34,
      "noteName": "A#1",
      "velocity": 1,
      "duration": "64i"
    },
    {
      "time": "16800i",
      "midiNote": 46,
      "noteName": "A#2",
      "velocity": 1,
      "duration": "64i"
    },
    {
      "time": "16864i",
      "midiNote": 34,
      "noteName": "A#1",
      "velocity": 1,
      "duration": "64i"
    },
    {
      "time": "16864i",
      "midiNote": 46,
      "noteName": "A#2",
      "velocity": 1,
      "duration": "64i"
    },
    {
      "time": "16928i",
      "midiNote": 34,
      "noteName": "A#1",
      "velocity": 0.937007874015748,
      "duration": "64i"
    },
    {
      "time": "16928i",
      "midiNote": 46,
      "noteName": "A#2",
      "velocity": 0.937007874015748,
      "duration": "64i"
    },
    {
      "time": "16992i",
      "midiNote": 24,
      "noteName": "C1",
      "velocity": 0.9133858267716536,
      "duration": "192i"
    },
    {
      "time": "16992i",
      "midiNote": 36,
      "noteName": "C2",
      "velocity": 0.9133858267716536,
      "duration": "192i"
    },
    {
      "time": "17184i",
      "midiNote": 36,
      "noteName": "C2",
      "velocity": 1,
      "duration": "192i"
    },
    {
      "time": "17184i",
      "midiNote": 48,
      "noteName": "C3",
      "velocity": 1,
      "duration": "192i"
    },
    {
      "time": "17376i",
      "midiNote": 48,
      "noteName": "C3",
      "velocity": 1,
      "duration": "192i"
    },
    {
      "time": "17376i",
      "midiNote": 52,
      "noteName": "E3",
      "velocity": 1,
      "duration": "192i"
    },
    {
      "time": "17376i",
      "midiNote": 55,
      "noteName": "G3",
      "velocity": 1,
      "duration": "192i"
    },
    {
      "time": "17376i",
      "midiNote": 60,
      "noteName": "C4",
      "velocity": 1,
      "duration": "192i"
    },
    {
      "time": "17568i",
      "midiNote": 24,
      "noteName": "C1",
      "velocity": 0.905511811023622,
      "duration": "192i"
    },
    {
      "time": "17568i",
      "midiNote": 36,
      "noteName": "C2",
      "velocity": 0.905511811023622,
      "duration": "192i"
    },
    {
      "time": "17760i",
      "midiNote": 29,
      "noteName": "F1",
      "velocity": 1,
      "duration": "192i"
    },
    {
      "time": "17760i",
      "midiNote": 41,
      "noteName": "F2",
      "velocity": 1,
      "duration": "192i"
    },
    {
      "time": "17952i",
      "midiNote": 29,
      "noteName": "F1",
      "velocity": 1,
      "duration": "192i"
    },
    {
      "time": "17952i",
      "midiNote": 41,
      "noteName": "F2",
      "velocity": 1,
      "duration": "192i"
    },
    {
      "time": "18144i",
      "midiNote": 29,
      "noteName": "F1",
      "velocity": 1,
      "duration": "192i"
    },
    {
      "time": "18144i",
      "midiNote": 41,
      "noteName": "F2",
      "velocity": 1,
      "duration": "192i"
    },
    {
      "time": "18336i",
      "midiNote": 31,
      "noteName": "G1",
      "velocity": 1,
      "duration": "96i"
    },
    {
      "time": "18336i",
      "midiNote": 43,
      "noteName": "G2",
      "velocity": 1,
      "duration": "96i"
    },
    {
      "time": "18432i",
      "midiNote": 33,
      "noteName": "A1",
      "velocity": 1,
      "duration": "96i"
    },
    {
      "time": "18432i",
      "midiNote": 45,
      "noteName": "A2",
      "velocity": 1,
      "duration": "96i"
    },
    {
      "time": "18528i",
      "midiNote": 58,
      "noteName": "A#3",
      "velocity": 1,
      "duration": "96i"
    },
    {
      "time": "18528i",
      "midiNote": 62,
      "noteName": "D4",
      "velocity": 1,
      "duration": "96i"
    },
    {
      "time": "18528i",
      "midiNote": 65,
      "noteName": "F4",
      "velocity": 1,
      "duration": "96i"
    },
    {
      "time": "18720i",
      "midiNote": 22,
      "noteName": "A#0",
      "velocity": 1,
      "duration": "64i"
    },
    {
      "time": "18720i",
      "midiNote": 34,
      "noteName": "A#1",
      "velocity": 1,
      "duration": "64i"
    },
    {
      "time": "18784i",
      "midiNote": 22,
      "noteName": "A#0",
      "velocity": 1,
      "duration": "64i"
    },
    {
      "time": "18784i",
      "midiNote": 34,
      "noteName": "A#1",
      "velocity": 1,
      "duration": "64i"
    },
    {
      "time": "18848i",
      "midiNote": 22,
      "noteName": "A#0",
      "velocity": 1,
      "duration": "64i"
    },
    {
      "time": "18848i",
      "midiNote": 34,
      "noteName": "A#1",
      "velocity": 1,
      "duration": "64i"
    },
    {
      "time": "18912i",
      "midiNote": 22,
      "noteName": "A#0",
      "velocity": 1,
      "duration": "48i"
    },
    {
      "time": "18912i",
      "midiNote": 34,
      "noteName": "A#1",
      "velocity": 1,
      "duration": "48i"
    }
  ]
]

buildTrack = parseMidi(parts: parts, transport: transport)
